
<svg viewBox="0 0 500 500" xmlns="http://www.w.org/2000/svg" width="100%" height="100%" style="background-color: #0a0a14; font-family: 'Courier New', Courier, monospace;">
    <style>
        text { fill: #aaa; font-size: 10px; text-anchor: middle; dominant-baseline: middle; }
    </style>
    <text x="339.45" y="250.50">+</text>
<text x="136.92" y="292.81">+</text>
<text x="347.36" y="455.77">.</text>
<text x="431.46" y="415.85">.</text>
<text x="265.77" y="343.42">+</text>
<text x="378.02" y="273.68">+</text>
<text x="60.46" y="385.32">+</text>
<text x="298.55" y="401.63">+</text>
<text x="55.08" y="134.44">*</text>
<text x="346.25" y="28.94">+</text>
<text x="55.18" y="312.86">.</text>
<text x="103.77" y="336.96">+</text>
<text x="418.01" y="232.45">.</text>
<text x="137.72" y="108.82">+</text>
<text x="157.25" y="379.28">+</text>
<text x="497.35" y="466.68">+</text>
<text x="273.09" y="2.56">+</text>
<text x="213.34" y="390.24">.</text>
<text x="499.05" y="84.04">*</text>
<text x="188.86" y="355.13">+</text>
<text x="469.59" y="340.70">+</text>
<text x="459.29" y="31.06">.</text>
<text x="147.39" y="494.21">+</text>
<text x="64.48" y="33.29">+</text>
<text x="469.78" y="455.47">.</text>
<text x="156.39" y="137.01">+</text>
<text x="207.24" y="374.48">+</text>
<text x="338.49" y="459.72">.</text>
<text x="31.75" y="33.48">.</text>
<text x="99.86" y="24.78">+</text>
<text x="255.30" y="189.28">.</text>
<text x="238.35" y="158.30">+</text>
<text x="359.35" y="119.63">.</text>
<text x="443.26" y="410.75">.</text>
<text x="73.30" y="92.40">+</text>
<text x="318.43" y="18.81">+</text>
<text x="101.88" y="33.59">*</text>
<text x="150.81" y="366.52">*</text>
<text x="60.69" y="272.69">.</text>
<text x="279.43" y="357.73">*</text>
<text x="126.10" y="69.48">.</text>
<text x="302.49" y="287.73">.</text>
<text x="417.82" y="163.65">.</text>
<text x="197.54" y="192.65">.</text>
<text x="185.88" y="337.79">.</text>
<text x="256.88" y="410.99">+</text>
<text x="281.25" y="238.65">*</text>
<text x="461.96" y="360.15">*</text>
<text x="397.54" y="420.86">.</text>
<text x="252.14" y="27.98">.</text>
<text x="362.03" y="128.96">+</text>
<text x="222.34" y="43.84">.</text>
<text x="441.24" y="71.82">.</text>
<text x="152.54" y="491.77">.</text>
<text x="154.42" y="339.56">.</text>
<text x="471.89" y="391.70">.</text>
<text x="18.27" y="408.36">.</text>
<text x="274.09" y="142.75">.</text>
<text x="64.48" y="192.46">+</text>
<text x="63.48" y="132.81">+</text>
<text x="329.83" y="309.55">+</text>
<text x="437.87" y="149.37">*</text>
<text x="177.29" y="20.68">+</text>
<text x="386.06" y="311.40">+</text>
<text x="453.11" y="249.22">.</text>
<text x="117.69" y="249.24">+</text>
<text x="461.54" y="408.99">.</text>
<text x="383.25" y="227.82">*</text>
<text x="156.60" y="107.67">+</text>
<text x="58.65" y="17.85">+</text>
<text x="389.65" y="420.35">+</text>
<text x="153.30" y="257.11">*</text>
<text x="167.19" y="54.91">*</text>
<text x="150.99" y="355.58">+</text>
<text x="409.12" y="441.74">+</text>
<text x="273.14" y="259.70">.</text>
<text x="228.35" y="115.03">.</text>
<text x="22.69" y="81.70">+</text>
<text x="219.82" y="395.87">.</text>
<text x="130.72" y="366.59">+</text>
<text x="387.95" y="25.18">+</text>
<text x="284.13" y="418.19">.</text>
<text x="187.25" y="56.89">+</text>
<text x="440.95" y="415.91">*</text>
<text x="96.33" y="142.47">+</text>
<text x="481.96" y="418.36">.</text>
<text x="296.93" y="98.19">.</text>
<text x="414.85" y="326.53">+</text>
<text x="250.67" y="179.94">.</text>
<text x="83.30" y="53.07">+</text>
<text x="498.17" y="37.47">.</text>
<text x="422.25" y="240.84">+</text>
<text x="230.70" y="33.96">+</text>
<text x="76.33" y="89.60">+</text>
<text x="461.46" y="443.42">.</text>
<text x="239.47" y="83.52">.</text>
<text x="409.25" y="97.47">+</text>
<text x="184.57" y="476.35">.</text>
<text x="358.11" y="145.82">.</text>
<text x="64.72" y="114.05">.</text>
<text x="97.32" y="200.56">+</text>
<text x="66.77" y="58.50">+</text>
<text x="353.27" y="165.74">+</text>
<text x="168.49" y="386.06">.</text>
<text x="294.35" y="63.90">+</text>
<text x="414.42" y="444.70">+</text>
<text x="185.80" y="60.96">+</text>
<text x="220.28" y="175.89">.</text>
<text x="227.31" y="43.73">+</text>
<text x="21.84" y="46.92">+</text>
<text x="417.88" y="79.93">+</text>
<text x="83.21" y="415.75">*</text>
<text x="429.75" y="65.05">.</text>
<text x="15.65" y="175.28">.</text>
<text x="53.17" y="344.05">.</text>
<text x="55.83" y="84.46">.</text>
<text x="122.44" y="374.52">+</text>
<text x="456.78" y="385.34">.</text>
<text x="2.82" y="315.89">.</text>
<text x="31.76" y="320.51">+</text>
<text x="4.29" y="350.90">.</text>
<text x="143.67" y="74.22">*</text>
<text x="178.14" y="135.76">+</text>
<text x="329.84" y="92.13">.</text>
<text x="237.32" y="60.17">+</text>
<text x="444.69" y="476.95">.</text>
<text x="21.78" y="69.16">*</text>
<text x="86.10" y="392.85">.</text>
<text x="377.46" y="92.39">.</text>
<text x="343.58" y="477.89">*</text>
<text x="334.59" y="304.10">.</text>
<text x="131.99" y="416.37">+</text>
<text x="21.67" y="429.19">.</text>
<text x="391.90" y="205.34">.</text>
<text x="149.30" y="383.61">.</text>
<text x="361.13" y="75.68">+</text>
<text x="300.70" y="305.63">.</text>
<text x="349.63" y="142.45">*</text>
<text x="432.52" y="38.32">*</text>
<text x="198.26" y="178.55">.</text>
<text x="354.91" y="276.48">+</text>
<text x="434.29" y="385.95">+</text>
<text x="289.85" y="176.74">.</text>
<text x="392.90" y="431.80">+</text>
<text x="221.72" y="177.71">+</text>
<text x="495.93" y="347.90">+</text>
<text x="145.15" y="459.30">*</text>
<text x="218.92" y="341.31">.</text>
<text x="93.77" y="245.13">+</text>
<text x="13.45" y="311.06">+</text>
<text x="214.60" y="321.49">*</text>
<text x="291.73" y="144.96">.</text>
<text x="157.55" y="17.28">.</text>
<text x="422.44" y="315.75">+</text>
<text x="65.74" y="217.60">+</text>
<text x="322.16" y="385.88">.</text>
<text x="343.31" y="344.11">+</text>
<text x="225.36" y="169.49">.</text>
<text x="186.40" y="260.78">*</text>
<text x="48.54" y="473.78">.</text>
<text x="116.60" y="132.86">+</text>
<text x="410.56" y="277.66">+</text>
<text x="119.47" y="345.47">.</text>
<text x="407.97" y="454.10">*</text>
<text x="395.38" y="275.80">.</text>
<text x="119.13" y="173.55">+</text>
<text x="161.50" y="492.29">.</text>
<text x="63.70" y="118.37">.</text>
<text x="115.65" y="380.18">.</text>
<text x="99.47" y="42.04">.</text>
<text x="11.48" y="66.67">.</text>
<text x="52.79" y="81.45">+</text>
<text x="419.98" y="13.93">.</text>
<text x="374.61" y="434.03">.</text>
<text x="71.44" y="183.56">+</text>
<text x="23.25" y="359.29">*</text>
<text x="327.55" y="129.36">.</text>
<text x="20.33" y="392.85">*</text>
<text x="436.51" y="303.00">*</text>
<text x="264.83" y="159.62">.</text>
<text x="180.21" y="310.00">.</text>
<text x="202.34" y="380.01">+</text>
<text x="389.13" y="215.09">*</text>
<text x="147.24" y="18.90">.</text>
<text x="158.88" y="50.95">+</text>
<text x="240.37" y="434.36">*</text>
<text x="145.69" y="10.17">.</text>
<text x="257.71" y="368.14">.</text>
<text x="434.21" y="18.11">+</text>
<text x="307.93" y="217.39">.</text>
<text x="424.87" y="373.67">+</text>
<text x="223.11" y="461.57">+</text>
<text x="49.20" y="161.68">+</text>
<text x="102.90" y="229.99">.</text>
<text x="197.99" y="383.91">.</text>
<text x="67.37" y="402.87">.</text>
<text x="479.58" y="456.27">.</text>
<text x="254.80" y="268.95">+</text>
<text x="37.08" y="405.94">+</text>
<text x="132.82" y="249.78">*</text>
<text x="413.66" y="369.76">+</text>
<text x="30.11" y="179.17">+</text>
<text x="467.50" y="346.83">+</text>
<text x="312.55" y="331.55">+</text>
<text x="412.90" y="281.73">*</text>
<text x="24.99" y="72.58">+</text>
<text x="337.07" y="439.94">+</text>
<text x="165.20" y="126.20">+</text>
<text x="418.16" y="315.41">.</text>
<text x="407.56" y="339.72">+</text>
<text x="184.80" y="96.39">+</text>
<text x="393.73" y="420.22">.</text>

</svg>