
<svg viewBox="0 0 500 500" xmlns="http://www.w.org/2000/svg" width="100%" height="100%" style="background-color: #0a0a14; font-family: 'Courier New', Courier, monospace;">
    <style>
        text { fill: #aaa; font-size: 10px; text-anchor: middle; dominant-baseline: middle; }
    </style>
    <text x="404.44" y="125.47">.</text>
<text x="211.40" y="214.83">.</text>
<text x="200.03" y="12.81">+</text>
<text x="269.61" y="237.03">*</text>
<text x="116.42" y="18.98">+</text>
<text x="68.40" y="47.00">.</text>
<text x="124.41" y="140.55">.</text>
<text x="426.45" y="50.21">.</text>
<text x="36.36" y="470.48">+</text>
<text x="216.12" y="294.50">+</text>
<text x="484.12" y="20.06">.</text>
<text x="341.44" y="168.78">+</text>
<text x="369.41" y="187.08">.</text>
<text x="221.19" y="418.06">.</text>
<text x="199.53" y="137.97">+</text>
<text x="194.67" y="246.62">+</text>
<text x="142.88" y="227.68">+</text>
<text x="135.32" y="59.12">*</text>
<text x="72.27" y="494.96">+</text>
<text x="166.27" y="173.56">.</text>
<text x="302.94" y="347.23">+</text>
<text x="36.19" y="146.36">+</text>
<text x="92.81" y="303.25">*</text>
<text x="378.04" y="15.28">.</text>
<text x="191.17" y="101.00">+</text>
<text x="138.12" y="376.81">+</text>
<text x="272.98" y="262.53">*</text>
<text x="211.34" y="418.59">+</text>
<text x="480.76" y="68.73">+</text>
<text x="329.40" y="163.29">.</text>
<text x="259.31" y="122.45">.</text>
<text x="304.67" y="95.80">.</text>
<text x="186.75" y="26.63">.</text>
<text x="392.76" y="320.75">.</text>
<text x="199.49" y="301.34">.</text>
<text x="327.14" y="111.75">.</text>
<text x="70.71" y="34.98">.</text>
<text x="302.26" y="489.62">.</text>
<text x="143.04" y="292.62">+</text>
<text x="384.43" y="226.64">.</text>
<text x="335.05" y="375.14">*</text>
<text x="425.42" y="405.45">.</text>
<text x="71.02" y="77.69">.</text>
<text x="94.12" y="172.54">+</text>
<text x="277.46" y="196.41">.</text>
<text x="346.88" y="314.51">+</text>
<text x="63.94" y="478.24">.</text>
<text x="438.86" y="237.49">+</text>
<text x="129.20" y="476.81">.</text>
<text x="178.94" y="179.75">*</text>
<text x="261.05" y="68.84">.</text>
<text x="215.81" y="224.97">+</text>
<text x="277.34" y="51.78">.</text>
<text x="138.85" y="1.06">+</text>
<text x="59.84" y="80.78">*</text>
<text x="255.20" y="331.18">*</text>
<text x="368.10" y="455.86">+</text>
<text x="362.34" y="5.81">+</text>
<text x="279.80" y="286.07">.</text>
<text x="162.46" y="124.91">+</text>
<text x="453.24" y="217.19">.</text>
<text x="100.04" y="93.50">.</text>
<text x="420.82" y="2.88">.</text>
<text x="207.61" y="435.80">+</text>
<text x="36.08" y="428.05">*</text>
<text x="429.86" y="427.62">+</text>
<text x="203.28" y="9.92">+</text>
<text x="290.49" y="1.43">.</text>
<text x="67.95" y="64.80">+</text>
<text x="456.54" y="261.07">*</text>
<text x="189.63" y="166.84">+</text>
<text x="332.24" y="195.68">.</text>
<text x="246.64" y="441.50">+</text>
<text x="74.98" y="290.24">+</text>
<text x="24.00" y="343.73">.</text>
<text x="373.58" y="293.82">*</text>
<text x="106.54" y="401.42">+</text>
<text x="67.34" y="164.10">.</text>
<text x="23.40" y="478.74">+</text>
<text x="206.55" y="437.46">+</text>
<text x="167.68" y="179.54">.</text>
<text x="452.64" y="52.30">+</text>
<text x="206.05" y="420.92">*</text>
<text x="113.08" y="448.55">.</text>
<text x="227.05" y="323.08">+</text>
<text x="80.05" y="70.69">.</text>
<text x="488.62" y="450.33">+</text>
<text x="479.78" y="457.61">.</text>
<text x="478.08" y="340.24">.</text>
<text x="332.47" y="440.00">*</text>
<text x="338.35" y="358.72">.</text>
<text x="362.48" y="304.79">.</text>
<text x="200.90" y="319.40">+</text>
<text x="134.70" y="350.07">+</text>
<text x="275.17" y="396.91">+</text>
<text x="485.56" y="287.48">+</text>
<text x="140.18" y="62.86">.</text>
<text x="77.37" y="348.15">.</text>
<text x="360.11" y="123.76">.</text>
<text x="357.23" y="116.88">+</text>
<text x="27.61" y="177.41">+</text>
<text x="75.25" y="483.84">+</text>
<text x="69.64" y="181.66">+</text>
<text x="46.50" y="22.67">+</text>
<text x="386.63" y="126.86">*</text>
<text x="88.91" y="465.14">+</text>
<text x="224.58" y="371.08">+</text>
<text x="488.79" y="392.61">.</text>
<text x="173.63" y="270.48">+</text>
<text x="8.52" y="41.39">+</text>
<text x="72.59" y="308.84">+</text>
<text x="349.07" y="112.55">+</text>
<text x="183.51" y="13.31">.</text>
<text x="236.63" y="242.04">+</text>
<text x="263.26" y="464.66">.</text>
<text x="243.52" y="431.80">+</text>
<text x="148.82" y="185.90">.</text>
<text x="11.68" y="313.72">.</text>
<text x="373.61" y="288.08">+</text>
<text x="472.06" y="387.90">+</text>
<text x="334.49" y="122.30">.</text>
<text x="264.83" y="63.19">+</text>
<text x="288.10" y="424.21">*</text>
<text x="10.66" y="137.29">.</text>
<text x="170.79" y="78.11">+</text>
<text x="423.89" y="244.07">.</text>
<text x="214.62" y="192.36">+</text>
<text x="291.43" y="483.09">.</text>
<text x="366.07" y="379.38">+</text>
<text x="283.66" y="250.33">.</text>
<text x="273.26" y="446.66">.</text>
<text x="441.59" y="304.74">.</text>
<text x="268.56" y="330.13">+</text>
<text x="53.17" y="156.48">.</text>
<text x="116.18" y="199.95">.</text>
<text x="174.70" y="376.42">+</text>
<text x="255.90" y="25.37">.</text>
<text x="369.09" y="40.96">*</text>
<text x="1.33" y="388.37">.</text>
<text x="117.90" y="58.07">.</text>
<text x="38.24" y="173.37">.</text>
<text x="251.53" y="144.80">.</text>
<text x="293.13" y="70.91">.</text>
<text x="257.41" y="49.47">.</text>
<text x="484.07" y="395.95">+</text>
<text x="479.37" y="343.45">.</text>
<text x="427.75" y="350.96">.</text>
<text x="401.59" y="378.48">.</text>
<text x="295.01" y="497.11">*</text>
<text x="323.36" y="108.41">.</text>
<text x="387.19" y="477.49">+</text>
<text x="84.02" y="260.49">.</text>
<text x="271.75" y="119.19">*</text>
<text x="4.60" y="449.27">.</text>
<text x="274.36" y="111.59">.</text>
<text x="493.64" y="86.97">*</text>
<text x="370.33" y="88.15">*</text>
<text x="76.36" y="140.09">.</text>
<text x="122.70" y="42.99">.</text>
<text x="261.36" y="253.83">.</text>
<text x="467.59" y="397.57">*</text>
<text x="287.49" y="302.95">.</text>
<text x="394.64" y="352.78">.</text>
<text x="355.84" y="66.56">.</text>
<text x="308.12" y="108.74">+</text>
<text x="208.32" y="124.25">+</text>
<text x="108.75" y="359.23">.</text>
<text x="377.99" y="260.23">.</text>
<text x="439.09" y="327.39">+</text>
<text x="455.01" y="338.77">+</text>
<text x="372.22" y="283.98">.</text>
<text x="27.47" y="223.39">*</text>
<text x="169.76" y="282.73">.</text>
<text x="154.13" y="374.81">.</text>
<text x="377.26" y="177.94">+</text>
<text x="29.24" y="290.19">.</text>
<text x="360.11" y="19.14">+</text>
<text x="192.66" y="184.83">*</text>
<text x="371.09" y="124.75">+</text>
<text x="245.63" y="206.97">+</text>
<text x="182.36" y="380.92">+</text>
<text x="437.39" y="268.78">+</text>
<text x="450.46" y="369.96">+</text>
<text x="489.36" y="209.75">+</text>
<text x="219.78" y="169.66">.</text>
<text x="128.03" y="222.45">+</text>
<text x="379.76" y="94.50">+</text>
<text x="436.88" y="84.33">.</text>
<text x="448.44" y="286.96">.</text>
<text x="195.45" y="253.85">+</text>
<text x="37.11" y="112.71">.</text>
<text x="5.94" y="299.85">.</text>
<text x="462.60" y="323.89">.</text>
<text x="16.51" y="77.15">.</text>
<text x="285.57" y="155.74">.</text>
<text x="409.25" y="19.30">.</text>
<text x="10.59" y="51.84">+</text>
<text x="47.13" y="2.90">.</text>
<text x="59.82" y="471.12">.</text>
<text x="449.62" y="61.13">+</text>
<text x="192.01" y="70.53">*</text>
<text x="410.51" y="411.47">.</text>
<text x="287.51" y="496.67">.</text>
<text x="269.41" y="135.80">.</text>
<text x="439.16" y="73.21">.</text>
<text x="484.49" y="167.67">+</text>
<text x="60.48" y="107.50">*</text>
<text x="53.13" y="383.41">*</text>
<text x="65.04" y="435.62">+</text>
<text x="309.49" y="412.44">.</text>
<text x="294.35" y="324.11">+</text>
<text x="74.68" y="438.19">.</text>
<text x="494.66" y="429.52">.</text>

</svg>