
<svg viewBox="0 0 500 500" xmlns="http://www.w.org/2000/svg" width="100%" height="100%" style="background-color: #0a0a14; font-family: 'Courier New', Courier, monospace;">
    <style>
        text { fill: #aaa; font-size: 10px; text-anchor: middle; dominant-baseline: middle; }
    </style>
    <text x="141.38" y="250.56">+</text>
<text x="234.45" y="166.06">.</text>
<text x="172.63" y="62.95">+</text>
<text x="148.42" y="494.12">.</text>
<text x="205.59" y="379.46">+</text>
<text x="40.09" y="146.96">+</text>
<text x="443.56" y="499.52">.</text>
<text x="297.94" y="238.64">+</text>
<text x="363.05" y="474.77">.</text>
<text x="25.87" y="409.18">+</text>
<text x="186.61" y="181.46">+</text>
<text x="345.72" y="426.25">.</text>
<text x="226.50" y="320.17">+</text>
<text x="30.96" y="469.18">.</text>
<text x="285.13" y="346.88">.</text>
<text x="60.40" y="286.11">*</text>
<text x="145.28" y="280.73">+</text>
<text x="285.91" y="8.57">.</text>
<text x="5.10" y="476.93">.</text>
<text x="54.44" y="112.76">+</text>
<text x="320.00" y="105.32">+</text>
<text x="164.05" y="236.34">.</text>
<text x="401.23" y="435.92">+</text>
<text x="388.65" y="473.56">.</text>
<text x="2.31" y="490.07">.</text>
<text x="249.74" y="262.41">.</text>
<text x="24.08" y="386.38">+</text>
<text x="12.10" y="122.00">.</text>
<text x="31.23" y="149.79">+</text>
<text x="473.58" y="495.73">*</text>
<text x="431.60" y="254.72">+</text>
<text x="35.72" y="92.99">*</text>
<text x="146.88" y="238.69">.</text>
<text x="145.32" y="69.25">*</text>
<text x="453.49" y="213.53">+</text>
<text x="138.27" y="220.28">+</text>
<text x="141.50" y="463.13">+</text>
<text x="395.62" y="334.69">+</text>
<text x="10.71" y="389.36">*</text>
<text x="123.42" y="236.42">+</text>
<text x="93.84" y="421.45">*</text>
<text x="233.15" y="34.17">.</text>
<text x="448.42" y="164.42">+</text>
<text x="198.06" y="385.03">+</text>
<text x="218.48" y="413.88">+</text>
<text x="434.38" y="425.11">+</text>
<text x="479.60" y="138.10">*</text>
<text x="255.39" y="419.57">+</text>
<text x="25.01" y="132.42">*</text>
<text x="450.95" y="276.10">*</text>
<text x="318.36" y="18.83">+</text>
<text x="53.89" y="271.29">.</text>
<text x="136.92" y="296.26">+</text>
<text x="391.40" y="313.89">+</text>
<text x="397.28" y="81.11">+</text>
<text x="377.96" y="31.85">+</text>
<text x="326.68" y="160.63">+</text>
<text x="328.36" y="82.04">.</text>
<text x="314.74" y="322.41">*</text>
<text x="352.93" y="434.10">*</text>
<text x="323.91" y="67.74">.</text>
<text x="304.36" y="349.49">+</text>
<text x="482.43" y="266.79">*</text>
<text x="172.71" y="348.23">+</text>
<text x="463.74" y="240.19">*</text>
<text x="204.38" y="91.69">+</text>
<text x="186.47" y="175.50">.</text>
<text x="315.60" y="470.60">+</text>
<text x="171.02" y="361.94">.</text>
<text x="471.54" y="187.86">+</text>
<text x="296.78" y="115.87">.</text>
<text x="413.69" y="136.70">+</text>
<text x="487.74" y="102.73">.</text>
<text x="401.95" y="295.68">+</text>
<text x="486.35" y="225.69">.</text>
<text x="398.85" y="65.93">+</text>
<text x="224.59" y="205.59">*</text>
<text x="143.47" y="493.73">.</text>
<text x="210.43" y="272.99">+</text>
<text x="178.74" y="188.57">.</text>
<text x="415.65" y="280.27">*</text>
<text x="1.57" y="285.49">+</text>
<text x="210.38" y="105.55">.</text>
<text x="125.35" y="356.07">+</text>
<text x="271.02" y="80.97">.</text>
<text x="351.22" y="206.39">.</text>
<text x="161.57" y="474.56">.</text>
<text x="219.60" y="190.00">+</text>
<text x="302.25" y="373.03">.</text>
<text x="193.11" y="45.80">.</text>
<text x="8.66" y="92.97">.</text>
<text x="81.96" y="361.67">.</text>
<text x="151.00" y="434.46">+</text>
<text x="301.36" y="161.63">+</text>
<text x="27.42" y="232.84">.</text>
<text x="57.76" y="2.47">+</text>
<text x="42.96" y="236.75">.</text>
<text x="39.20" y="468.95">+</text>
<text x="169.48" y="456.05">.</text>
<text x="35.39" y="157.41">.</text>
<text x="12.80" y="29.65">+</text>
<text x="332.83" y="263.76">+</text>
<text x="432.74" y="153.69">.</text>
<text x="124.05" y="135.85">.</text>
<text x="228.41" y="344.61">+</text>
<text x="210.74" y="16.65">.</text>
<text x="200.86" y="105.71">+</text>
<text x="127.57" y="329.26">.</text>
<text x="219.25" y="492.02">.</text>
<text x="242.46" y="446.79">+</text>
<text x="116.49" y="394.77">+</text>
<text x="152.14" y="294.58">.</text>
<text x="256.31" y="211.11">*</text>
<text x="77.07" y="299.07">.</text>
<text x="398.14" y="52.67">*</text>
<text x="81.11" y="64.30">.</text>
<text x="374.83" y="450.28">.</text>
<text x="296.55" y="460.36">+</text>
<text x="255.88" y="347.28">+</text>
<text x="326.57" y="328.63">+</text>
<text x="251.92" y="449.80">+</text>
<text x="273.20" y="155.16">+</text>
<text x="347.10" y="332.29">*</text>
<text x="311.02" y="95.01">.</text>
<text x="211.98" y="306.15">*</text>
<text x="289.99" y="64.50">+</text>
<text x="371.98" y="153.88">.</text>
<text x="120.48" y="265.47">+</text>
<text x="67.15" y="490.21">+</text>
<text x="82.00" y="442.42">*</text>
<text x="40.36" y="165.76">+</text>
<text x="430.13" y="68.17">.</text>
<text x="294.47" y="203.71">+</text>
<text x="465.45" y="140.00">*</text>
<text x="243.50" y="423.47">+</text>
<text x="257.43" y="137.08">+</text>
<text x="374.25" y="251.27">+</text>
<text x="276.37" y="366.48">.</text>
<text x="265.62" y="161.91">.</text>
<text x="180.98" y="179.85">+</text>
<text x="424.05" y="486.82">+</text>
<text x="32.98" y="285.97">.</text>
<text x="298.35" y="300.44">.</text>
<text x="267.91" y="52.71">*</text>
<text x="431.26" y="496.44">+</text>
<text x="126.33" y="79.80">+</text>
<text x="400.81" y="45.50">*</text>
<text x="255.13" y="160.65">+</text>
<text x="105.41" y="39.31">+</text>
<text x="405.83" y="90.30">.</text>
<text x="42.24" y="21.88">+</text>
<text x="252.51" y="159.59">*</text>
<text x="226.53" y="492.12">.</text>
<text x="80.03" y="387.25">.</text>
<text x="57.75" y="77.15">+</text>
<text x="1.16" y="65.04">*</text>
<text x="89.82" y="151.82">.</text>
<text x="230.92" y="110.96">+</text>
<text x="245.82" y="331.37">+</text>
<text x="223.25" y="311.71">.</text>
<text x="351.77" y="483.30">.</text>
<text x="69.38" y="331.60">.</text>
<text x="362.77" y="337.15">+</text>
<text x="359.39" y="165.53">.</text>
<text x="497.22" y="165.08">.</text>
<text x="135.76" y="86.06">.</text>
<text x="342.36" y="289.42">*</text>
<text x="304.11" y="3.15">+</text>
<text x="89.08" y="472.80">+</text>
<text x="85.47" y="232.46">.</text>
<text x="411.65" y="177.19">+</text>
<text x="237.56" y="242.57">+</text>
<text x="149.15" y="225.46">.</text>
<text x="332.30" y="486.25">*</text>
<text x="278.77" y="372.68">.</text>
<text x="207.85" y="218.90">+</text>
<text x="141.70" y="253.77">*</text>
<text x="171.46" y="318.34">.</text>
<text x="120.98" y="369.23">.</text>
<text x="219.93" y="31.64">.</text>
<text x="434.07" y="346.27">+</text>
<text x="317.34" y="263.07">+</text>
<text x="237.49" y="174.11">+</text>
<text x="469.25" y="216.39">.</text>
<text x="428.87" y="180.50">.</text>
<text x="69.45" y="256.42">+</text>
<text x="355.66" y="285.22">+</text>
<text x="423.03" y="192.02">.</text>
<text x="76.01" y="352.82">+</text>
<text x="72.11" y="154.16">+</text>
<text x="209.51" y="91.87">.</text>
<text x="378.01" y="489.72">+</text>
<text x="473.68" y="49.61">.</text>
<text x="157.60" y="286.67">+</text>
<text x="474.17" y="337.55">*</text>
<text x="425.82" y="344.40">+</text>
<text x="142.58" y="254.85">.</text>
<text x="214.39" y="282.28">.</text>
<text x="143.58" y="499.85">+</text>
<text x="53.89" y="497.54">+</text>
<text x="469.10" y="57.31">.</text>
<text x="78.30" y="263.67">.</text>
<text x="411.31" y="127.10">+</text>
<text x="194.78" y="122.99">+</text>
<text x="398.56" y="492.36">+</text>
<text x="354.64" y="478.66">+</text>
<text x="235.39" y="374.35">.</text>
<text x="260.95" y="22.43">.</text>
<text x="35.47" y="6.07">*</text>
<text x="74.79" y="114.01">*</text>
<text x="488.88" y="229.21">*</text>
<text x="356.12" y="332.49">+</text>
<text x="452.54" y="14.78">+</text>
<text x="17.32" y="440.80">+</text>
<text x="294.51" y="265.58">+</text>
<text x="299.37" y="135.41">*</text>
<text x="142.73" y="133.47">+</text>
<text x="38.12" y="493.58">.</text>
<text x="226.14" y="393.84">*</text>

</svg>