
<svg viewBox="0 0 500 500" xmlns="http://www.w.org/2000/svg" width="100%" height="100%" style="background-color: #0a0a14; font-family: 'Courier New', Courier, monospace;">
    <style>
        text { fill: #aaa; font-size: 10px; text-anchor: middle; dominant-baseline: middle; }
    </style>
    <text x="15.29" y="90.68">+</text>
<text x="474.22" y="274.54">+</text>
<text x="197.73" y="302.13">.</text>
<text x="467.25" y="170.28">+</text>
<text x="362.02" y="141.14">.</text>
<text x="317.21" y="325.25">+</text>
<text x="3.97" y="385.83">.</text>
<text x="437.68" y="291.13">.</text>
<text x="308.83" y="118.04">+</text>
<text x="304.70" y="227.67">+</text>
<text x="338.02" y="346.40">+</text>
<text x="175.74" y="225.67">+</text>
<text x="71.82" y="53.15">.</text>
<text x="429.04" y="346.76">.</text>
<text x="290.23" y="187.56">*</text>
<text x="363.87" y="89.24">+</text>
<text x="485.38" y="476.61">.</text>
<text x="152.75" y="184.88">.</text>
<text x="234.62" y="117.20">.</text>
<text x="127.84" y="269.09">+</text>
<text x="347.16" y="135.90">+</text>
<text x="385.58" y="160.94">+</text>
<text x="106.34" y="424.41">*</text>
<text x="176.41" y="2.73">+</text>
<text x="154.63" y="223.94">.</text>
<text x="253.02" y="359.08">+</text>
<text x="165.63" y="433.61">+</text>
<text x="127.18" y="344.86">.</text>
<text x="333.74" y="332.52">+</text>
<text x="328.75" y="369.19">*</text>
<text x="361.95" y="293.20">*</text>
<text x="307.70" y="81.91">.</text>
<text x="159.62" y="342.75">+</text>
<text x="103.90" y="157.79">+</text>
<text x="292.70" y="396.59">+</text>
<text x="58.38" y="117.63">+</text>
<text x="350.69" y="265.98">+</text>
<text x="107.81" y="471.93">+</text>
<text x="464.92" y="6.70">*</text>
<text x="429.91" y="28.18">+</text>
<text x="412.86" y="107.00">*</text>
<text x="359.89" y="472.42">+</text>
<text x="265.08" y="437.75">+</text>
<text x="229.57" y="271.56">*</text>
<text x="184.15" y="47.26">.</text>
<text x="399.06" y="446.13">.</text>
<text x="345.39" y="95.39">+</text>
<text x="175.11" y="482.67">*</text>
<text x="8.03" y="157.82">+</text>
<text x="235.52" y="284.12">.</text>
<text x="313.60" y="323.59">.</text>
<text x="474.79" y="233.86">+</text>
<text x="237.85" y="121.35">.</text>
<text x="61.51" y="238.60">+</text>
<text x="36.89" y="147.68">+</text>
<text x="252.69" y="449.54">.</text>
<text x="195.26" y="424.96">.</text>
<text x="470.64" y="11.92">.</text>
<text x="491.11" y="428.24">.</text>
<text x="273.10" y="176.22">+</text>
<text x="83.84" y="187.69">.</text>
<text x="160.01" y="103.96">.</text>
<text x="370.12" y="131.10">+</text>
<text x="301.57" y="430.98">+</text>
<text x="9.43" y="158.50">+</text>
<text x="486.57" y="30.63">+</text>
<text x="36.76" y="227.60">*</text>
<text x="177.12" y="57.14">+</text>
<text x="444.83" y="55.59">+</text>
<text x="311.84" y="13.32">*</text>
<text x="317.00" y="150.98">+</text>
<text x="455.27" y="261.49">.</text>
<text x="254.58" y="153.51">.</text>
<text x="401.04" y="37.05">+</text>
<text x="215.10" y="132.33">.</text>
<text x="267.57" y="335.59">+</text>
<text x="9.40" y="341.79">.</text>
<text x="245.36" y="487.84">+</text>
<text x="396.09" y="389.60">.</text>
<text x="49.96" y="439.88">*</text>
<text x="295.73" y="419.07">+</text>
<text x="133.74" y="402.69">.</text>
<text x="430.35" y="54.20">+</text>
<text x="215.08" y="261.65">+</text>
<text x="201.42" y="121.04">+</text>
<text x="409.88" y="400.60">.</text>
<text x="178.35" y="202.77">+</text>
<text x="161.05" y="466.97">+</text>
<text x="290.11" y="395.19">+</text>
<text x="92.06" y="232.86">.</text>
<text x="28.71" y="463.41">.</text>
<text x="298.32" y="392.17">+</text>
<text x="237.82" y="113.02">.</text>
<text x="172.79" y="157.63">+</text>
<text x="175.05" y="133.56">.</text>
<text x="349.48" y="472.67">+</text>
<text x="352.55" y="339.37">.</text>
<text x="107.94" y="271.94">*</text>
<text x="278.88" y="331.98">.</text>
<text x="119.91" y="110.24">+</text>
<text x="428.24" y="117.74">.</text>
<text x="109.98" y="93.01">.</text>
<text x="463.49" y="330.54">+</text>
<text x="13.56" y="186.95">+</text>
<text x="18.47" y="224.97">.</text>
<text x="332.22" y="382.48">+</text>
<text x="494.84" y="56.58">.</text>
<text x="484.81" y="305.04">+</text>
<text x="68.58" y="80.15">*</text>
<text x="235.24" y="83.22">+</text>
<text x="319.44" y="222.93">.</text>
<text x="183.18" y="200.93">+</text>
<text x="71.36" y="423.50">*</text>
<text x="480.35" y="112.06">.</text>
<text x="173.29" y="74.83">+</text>
<text x="44.70" y="57.06">*</text>
<text x="423.13" y="396.80">+</text>
<text x="181.87" y="386.63">.</text>
<text x="16.61" y="396.17">*</text>
<text x="476.77" y="400.56">.</text>
<text x="247.51" y="107.76">.</text>
<text x="260.84" y="65.32">+</text>
<text x="489.71" y="47.32">+</text>
<text x="260.94" y="271.32">+</text>
<text x="409.99" y="205.26">.</text>
<text x="418.91" y="191.65">*</text>
<text x="172.94" y="358.01">*</text>
<text x="209.08" y="417.06">+</text>
<text x="497.57" y="348.26">.</text>
<text x="42.14" y="424.57">+</text>
<text x="265.44" y="133.97">.</text>
<text x="289.98" y="193.12">+</text>
<text x="484.84" y="322.75">.</text>
<text x="451.19" y="280.50">+</text>
<text x="26.47" y="379.95">+</text>
<text x="2.17" y="483.36">+</text>
<text x="178.10" y="203.84">*</text>
<text x="18.91" y="276.29">*</text>
<text x="187.84" y="262.29">+</text>
<text x="163.95" y="345.37">+</text>
<text x="254.23" y="101.70">*</text>
<text x="72.67" y="99.00">*</text>
<text x="458.16" y="392.85">*</text>
<text x="396.16" y="56.68">.</text>
<text x="360.20" y="194.97">+</text>
<text x="107.59" y="390.61">.</text>
<text x="63.08" y="358.21">.</text>
<text x="395.08" y="400.24">.</text>
<text x="13.98" y="181.50">+</text>
<text x="324.51" y="351.15">+</text>
<text x="217.52" y="383.70">.</text>
<text x="261.37" y="131.73">*</text>
<text x="450.33" y="340.78">.</text>
<text x="59.20" y="57.83">+</text>
<text x="320.31" y="135.44">+</text>
<text x="219.74" y="498.81">*</text>
<text x="150.94" y="153.38">+</text>
<text x="70.29" y="59.28">.</text>
<text x="175.95" y="385.45">.</text>
<text x="334.09" y="475.69">.</text>
<text x="362.78" y="51.02">.</text>
<text x="232.50" y="447.24">+</text>
<text x="57.69" y="416.41">+</text>
<text x="296.18" y="35.59">.</text>
<text x="325.73" y="184.70">.</text>
<text x="248.68" y="243.61">+</text>
<text x="461.37" y="8.37">+</text>
<text x="261.91" y="319.27">.</text>
<text x="490.19" y="341.69">.</text>
<text x="316.85" y="206.30">.</text>
<text x="423.60" y="481.92">*</text>
<text x="70.66" y="289.54">+</text>
<text x="110.42" y="354.14">.</text>
<text x="417.13" y="27.84">*</text>
<text x="12.24" y="485.48">.</text>
<text x="57.13" y="297.00">+</text>
<text x="152.23" y="215.63">+</text>
<text x="157.75" y="87.26">.</text>
<text x="195.42" y="218.53">+</text>
<text x="87.61" y="76.44">+</text>
<text x="47.62" y="120.42">+</text>
<text x="231.35" y="121.07">.</text>
<text x="216.36" y="1.18">+</text>
<text x="294.99" y="18.30">.</text>
<text x="333.30" y="315.13">.</text>
<text x="274.88" y="393.14">.</text>
<text x="364.81" y="154.26">+</text>
<text x="141.69" y="281.10">+</text>
<text x="258.88" y="32.86">*</text>
<text x="169.53" y="164.10">+</text>
<text x="230.63" y="254.08">+</text>
<text x="442.22" y="361.30">.</text>
<text x="152.40" y="127.71">+</text>
<text x="270.73" y="14.22">.</text>
<text x="102.56" y="362.05">+</text>
<text x="481.45" y="426.45">.</text>
<text x="152.40" y="450.13">*</text>

</svg>