
<svg viewBox="0 0 500 500" xmlns="http://www.w.org/2000/svg" width="100%" height="100%" style="background-color: #0a0a14; font-family: 'Courier New', Courier, monospace;">
    <style>
        text { fill: #aaa; font-size: 10px; text-anchor: middle; dominant-baseline: middle; }
    </style>
    <text x="293.10" y="329.94">*</text>
<text x="278.32" y="12.58">+</text>
<text x="148.69" y="494.85">.</text>
<text x="230.27" y="108.39">+</text>
<text x="186.20" y="376.31">+</text>
<text x="62.73" y="10.05">+</text>
<text x="392.79" y="139.27">*</text>
<text x="259.86" y="14.61">.</text>
<text x="334.61" y="310.53">*</text>
<text x="345.76" y="142.09">+</text>
<text x="251.60" y="370.51">+</text>
<text x="214.47" y="402.78">.</text>
<text x="289.16" y="359.46">*</text>
<text x="197.32" y="160.63">.</text>
<text x="265.13" y="314.33">+</text>
<text x="116.59" y="29.38">.</text>
<text x="456.21" y="154.14">.</text>
<text x="83.34" y="226.31">.</text>
<text x="478.67" y="197.33">+</text>
<text x="232.52" y="186.40">+</text>
<text x="220.14" y="65.28">+</text>
<text x="324.22" y="344.67">.</text>
<text x="145.21" y="472.75">*</text>
<text x="44.04" y="102.48">.</text>
<text x="431.51" y="108.97">+</text>
<text x="312.45" y="26.52">.</text>
<text x="176.42" y="446.44">+</text>
<text x="329.75" y="427.88">.</text>
<text x="81.02" y="417.97">+</text>
<text x="151.20" y="1.36">+</text>
<text x="58.88" y="255.09">*</text>
<text x="352.88" y="361.87">.</text>
<text x="206.79" y="70.03">.</text>
<text x="38.66" y="34.32">+</text>
<text x="82.09" y="0.99">.</text>
<text x="75.87" y="344.99">.</text>
<text x="371.14" y="6.26">*</text>
<text x="134.76" y="109.84">+</text>
<text x="432.00" y="17.15">.</text>
<text x="310.02" y="445.42">.</text>
<text x="334.45" y="387.41">+</text>
<text x="442.50" y="485.67">+</text>
<text x="295.51" y="203.40">*</text>
<text x="172.02" y="73.67">+</text>
<text x="344.59" y="353.97">+</text>
<text x="198.72" y="259.41">.</text>
<text x="55.93" y="188.41">+</text>
<text x="218.16" y="142.35">+</text>
<text x="264.52" y="472.15">+</text>
<text x="201.49" y="464.62">.</text>
<text x="123.21" y="260.61">*</text>
<text x="260.79" y="203.95">.</text>
<text x="290.79" y="101.58">+</text>
<text x="36.41" y="207.27">*</text>
<text x="10.97" y="377.72">.</text>
<text x="218.36" y="345.05">.</text>
<text x="304.72" y="379.63">+</text>
<text x="38.04" y="285.61">+</text>
<text x="481.52" y="198.16">+</text>
<text x="322.52" y="480.06">.</text>
<text x="241.46" y="423.50">*</text>
<text x="427.71" y="271.10">.</text>
<text x="368.66" y="436.38">.</text>
<text x="430.88" y="74.92">+</text>
<text x="171.75" y="161.68">.</text>
<text x="219.26" y="44.56">.</text>
<text x="148.16" y="98.06">.</text>
<text x="218.86" y="287.47">+</text>
<text x="193.78" y="106.74">*</text>
<text x="281.01" y="304.99">+</text>
<text x="32.94" y="481.95">.</text>
<text x="443.54" y="471.87">.</text>
<text x="369.44" y="324.78">+</text>
<text x="448.60" y="402.94">*</text>
<text x="308.90" y="246.71">+</text>
<text x="81.30" y="314.40">+</text>
<text x="112.51" y="66.47">+</text>
<text x="437.98" y="72.54">+</text>
<text x="173.63" y="158.14">.</text>
<text x="381.76" y="149.85">.</text>
<text x="383.00" y="103.35">*</text>
<text x="38.31" y="408.55">.</text>
<text x="221.30" y="245.89">.</text>
<text x="465.10" y="51.01">+</text>
<text x="154.11" y="185.14">+</text>
<text x="294.77" y="304.95">+</text>
<text x="309.86" y="137.04">.</text>
<text x="214.12" y="410.28">+</text>
<text x="284.05" y="97.86">.</text>
<text x="374.97" y="82.23">+</text>
<text x="438.36" y="393.65">.</text>
<text x="101.96" y="495.84">*</text>
<text x="339.72" y="37.50">+</text>
<text x="94.74" y="473.81">.</text>
<text x="158.60" y="291.79">*</text>
<text x="407.87" y="147.50">.</text>
<text x="231.98" y="362.63">+</text>
<text x="243.83" y="472.25">+</text>
<text x="174.06" y="195.91">+</text>
<text x="24.73" y="0.78">.</text>
<text x="280.34" y="407.38">+</text>
<text x="282.15" y="380.44">.</text>
<text x="285.14" y="388.95">.</text>
<text x="290.19" y="457.84">*</text>
<text x="276.08" y="282.36">.</text>
<text x="309.16" y="287.85">.</text>
<text x="179.66" y="8.53">.</text>
<text x="128.22" y="325.33">.</text>
<text x="132.22" y="400.70">.</text>
<text x="472.14" y="132.14">.</text>
<text x="46.32" y="198.92">.</text>
<text x="76.48" y="422.22">.</text>
<text x="190.44" y="433.56">.</text>
<text x="153.41" y="56.16">*</text>
<text x="352.95" y="471.66">.</text>
<text x="63.49" y="102.75">.</text>
<text x="413.89" y="182.06">+</text>
<text x="52.67" y="255.96">.</text>
<text x="173.13" y="271.00">+</text>
<text x="494.09" y="372.71">+</text>
<text x="117.00" y="51.56">*</text>
<text x="442.43" y="465.94">.</text>
<text x="429.12" y="49.52">.</text>
<text x="176.91" y="480.77">.</text>
<text x="214.64" y="156.93">+</text>
<text x="140.01" y="11.26">+</text>
<text x="9.48" y="42.87">+</text>
<text x="425.07" y="210.41">.</text>
<text x="399.65" y="244.66">+</text>
<text x="368.41" y="447.65">+</text>
<text x="405.25" y="288.43">+</text>
<text x="490.85" y="131.66">.</text>
<text x="284.72" y="403.86">+</text>
<text x="270.76" y="75.27">+</text>
<text x="318.27" y="81.88">+</text>
<text x="104.08" y="486.98">.</text>
<text x="22.42" y="471.34">+</text>
<text x="225.51" y="247.85">.</text>
<text x="65.37" y="241.88">.</text>
<text x="144.58" y="110.53">.</text>
<text x="71.19" y="133.39">.</text>
<text x="74.52" y="32.22">.</text>
<text x="255.24" y="217.11">.</text>
<text x="283.80" y="162.07">+</text>
<text x="481.22" y="43.82">+</text>
<text x="347.83" y="113.45">+</text>
<text x="364.11" y="41.24">+</text>
<text x="260.01" y="2.69">+</text>
<text x="301.62" y="490.69">+</text>
<text x="228.07" y="37.90">.</text>
<text x="94.07" y="82.14">+</text>
<text x="388.00" y="378.68">.</text>
<text x="378.93" y="253.93">.</text>
<text x="147.03" y="293.89">*</text>
<text x="75.44" y="194.06">.</text>
<text x="141.88" y="293.00">+</text>
<text x="405.53" y="44.06">*</text>
<text x="331.19" y="367.80">+</text>
<text x="217.94" y="352.13">+</text>
<text x="308.80" y="392.34">+</text>
<text x="357.80" y="222.41">.</text>
<text x="213.85" y="307.48">+</text>
<text x="111.02" y="459.52">+</text>
<text x="9.53" y="256.20">.</text>
<text x="66.29" y="74.24">+</text>
<text x="393.70" y="156.61">+</text>
<text x="8.01" y="111.41">+</text>
<text x="43.62" y="16.95">*</text>
<text x="151.05" y="487.54">+</text>
<text x="359.08" y="181.37">.</text>
<text x="14.00" y="410.85">.</text>
<text x="38.38" y="250.12">.</text>
<text x="486.06" y="181.23">+</text>
<text x="325.30" y="320.80">.</text>
<text x="130.74" y="413.49">+</text>
<text x="15.53" y="252.96">*</text>
<text x="51.14" y="335.81">*</text>
<text x="280.70" y="47.39">*</text>
<text x="182.95" y="491.88">.</text>
<text x="210.31" y="226.41">.</text>
<text x="186.99" y="29.13">*</text>
<text x="307.97" y="474.40">+</text>
<text x="276.44" y="239.52">+</text>
<text x="234.78" y="99.96">+</text>
<text x="393.20" y="340.97">.</text>
<text x="38.86" y="261.03">+</text>
<text x="120.81" y="167.75">.</text>
<text x="288.90" y="170.37">+</text>
<text x="73.23" y="132.08">+</text>
<text x="34.26" y="1.51">+</text>
<text x="26.82" y="388.63">+</text>
<text x="356.74" y="342.83">.</text>
<text x="13.59" y="420.01">*</text>
<text x="213.28" y="295.36">+</text>
<text x="368.65" y="349.76">+</text>
<text x="81.36" y="215.35">.</text>
<text x="82.79" y="385.40">.</text>
<text x="146.27" y="61.42">+</text>
<text x="439.52" y="334.41">+</text>
<text x="6.91" y="216.13">+</text>
<text x="145.52" y="309.27">.</text>
<text x="246.39" y="236.76">.</text>
<text x="222.09" y="240.69">*</text>
<text x="250.75" y="428.82">*</text>
<text x="375.57" y="455.03">*</text>

</svg>