
<svg viewBox="0 0 500 500" xmlns="http://www.w.org/2000/svg" width="100%" height="100%" style="background-color: #0a0a14; font-family: 'Courier New', Courier, monospace;">
    <style>
        text { fill: #aaa; font-size: 10px; text-anchor: middle; dominant-baseline: middle; }
    </style>
    <text x="82.03" y="26.00">*</text>
<text x="192.16" y="226.28">.</text>
<text x="118.07" y="461.63">+</text>
<text x="194.61" y="468.76">.</text>
<text x="236.35" y="245.07">+</text>
<text x="234.22" y="403.10">*</text>
<text x="254.21" y="473.59">*</text>
<text x="404.24" y="441.56">.</text>
<text x="50.28" y="453.86">+</text>
<text x="92.99" y="127.94">.</text>
<text x="334.67" y="296.07">+</text>
<text x="301.19" y="311.07">.</text>
<text x="403.23" y="144.73">.</text>
<text x="222.15" y="261.21">+</text>
<text x="82.52" y="294.40">.</text>
<text x="290.41" y="182.83">+</text>
<text x="211.83" y="102.36">+</text>
<text x="262.11" y="478.59">.</text>
<text x="199.41" y="458.50">*</text>
<text x="141.89" y="234.67">*</text>
<text x="403.92" y="333.02">.</text>
<text x="416.38" y="49.20">+</text>
<text x="265.38" y="79.23">*</text>
<text x="10.13" y="405.91">.</text>
<text x="246.76" y="214.64">*</text>
<text x="260.44" y="387.04">.</text>
<text x="351.14" y="466.47">+</text>
<text x="43.08" y="476.36">*</text>
<text x="39.51" y="21.35">+</text>
<text x="262.74" y="367.50">+</text>
<text x="460.71" y="384.44">+</text>
<text x="143.21" y="47.32">.</text>
<text x="106.11" y="463.13">*</text>
<text x="278.07" y="419.88">+</text>
<text x="392.51" y="89.56">.</text>
<text x="129.64" y="447.38">.</text>
<text x="101.44" y="85.02">+</text>
<text x="336.79" y="190.08">+</text>
<text x="198.94" y="414.95">.</text>
<text x="310.00" y="285.21">.</text>
<text x="24.72" y="132.11">.</text>
<text x="290.61" y="404.74">+</text>
<text x="106.43" y="392.77">+</text>
<text x="388.04" y="171.78">.</text>
<text x="392.74" y="451.01">.</text>
<text x="16.31" y="286.91">+</text>
<text x="357.27" y="431.10">*</text>
<text x="269.08" y="326.90">+</text>
<text x="437.62" y="434.36">+</text>
<text x="393.92" y="204.90">+</text>
<text x="263.41" y="9.42">.</text>
<text x="290.27" y="131.33">+</text>
<text x="208.84" y="316.14">+</text>
<text x="489.15" y="63.40">.</text>
<text x="21.35" y="83.80">+</text>
<text x="169.35" y="306.31">+</text>
<text x="473.12" y="404.25">.</text>
<text x="204.27" y="199.12">.</text>
<text x="276.53" y="344.01">.</text>
<text x="204.52" y="369.08">.</text>
<text x="290.81" y="135.98">+</text>
<text x="478.82" y="201.27">+</text>
<text x="437.38" y="303.17">+</text>
<text x="432.27" y="239.45">.</text>
<text x="371.73" y="250.06">*</text>
<text x="106.03" y="176.05">+</text>
<text x="313.50" y="26.53">+</text>
<text x="378.51" y="2.19">.</text>
<text x="291.38" y="370.32">.</text>
<text x="178.36" y="155.07">.</text>
<text x="471.74" y="81.13">.</text>
<text x="223.39" y="360.55">+</text>
<text x="157.11" y="199.22">*</text>
<text x="155.53" y="55.26">+</text>
<text x="444.80" y="493.27">+</text>
<text x="169.00" y="467.97">.</text>
<text x="419.76" y="184.88">.</text>
<text x="314.34" y="337.99">+</text>
<text x="136.43" y="306.94">+</text>
<text x="258.57" y="467.58">+</text>
<text x="213.03" y="304.77">*</text>
<text x="327.45" y="234.62">+</text>
<text x="66.01" y="59.41">.</text>
<text x="19.55" y="44.07">+</text>
<text x="100.61" y="68.39">.</text>
<text x="122.03" y="131.86">+</text>
<text x="214.82" y="492.21">+</text>
<text x="308.75" y="243.61">.</text>
<text x="297.25" y="138.94">.</text>
<text x="258.98" y="364.29">.</text>
<text x="420.16" y="422.17">+</text>
<text x="407.79" y="428.37">+</text>
<text x="344.13" y="23.96">.</text>
<text x="130.66" y="99.19">*</text>
<text x="295.40" y="137.41">.</text>
<text x="482.58" y="153.04">+</text>
<text x="450.58" y="113.10">.</text>
<text x="492.48" y="276.58">.</text>
<text x="371.18" y="328.10">*</text>
<text x="160.86" y="300.99">*</text>
<text x="276.87" y="476.56">+</text>
<text x="203.85" y="381.44">+</text>
<text x="342.26" y="140.56">*</text>
<text x="304.68" y="43.00">+</text>
<text x="362.68" y="161.60">+</text>
<text x="495.07" y="270.28">+</text>
<text x="125.31" y="96.00">.</text>
<text x="55.28" y="388.63">+</text>
<text x="64.26" y="369.72">.</text>
<text x="183.32" y="167.76">+</text>
<text x="202.37" y="175.63">+</text>
<text x="478.26" y="317.09">.</text>
<text x="233.24" y="375.93">+</text>
<text x="256.43" y="259.95">+</text>
<text x="264.73" y="259.76">+</text>
<text x="429.38" y="87.99">.</text>
<text x="320.66" y="450.84">*</text>
<text x="86.94" y="30.74">+</text>
<text x="319.28" y="314.76">+</text>
<text x="290.39" y="251.24">+</text>
<text x="229.96" y="120.22">+</text>
<text x="18.85" y="68.37">.</text>
<text x="420.71" y="10.18">+</text>
<text x="354.36" y="267.36">+</text>
<text x="130.48" y="211.72">.</text>
<text x="63.70" y="128.90">+</text>
<text x="338.90" y="278.67">.</text>
<text x="218.77" y="79.64">*</text>
<text x="11.84" y="291.89">+</text>
<text x="277.20" y="314.11">.</text>
<text x="462.54" y="384.17">.</text>
<text x="308.26" y="122.28">.</text>
<text x="5.76" y="423.39">.</text>
<text x="239.00" y="389.88">.</text>
<text x="337.99" y="234.73">.</text>
<text x="296.72" y="120.76">*</text>
<text x="34.63" y="67.10">*</text>
<text x="331.04" y="423.61">.</text>
<text x="427.32" y="343.24">+</text>
<text x="61.22" y="332.48">+</text>
<text x="446.96" y="142.20">+</text>
<text x="220.69" y="40.95">.</text>
<text x="366.49" y="7.48">*</text>
<text x="94.68" y="408.71">+</text>
<text x="174.96" y="41.23">*</text>
<text x="489.23" y="0.06">.</text>
<text x="90.94" y="245.98">.</text>
<text x="468.67" y="301.48">*</text>
<text x="248.39" y="253.64">.</text>
<text x="279.37" y="22.62">.</text>
<text x="185.55" y="213.42">+</text>
<text x="367.09" y="122.12">.</text>
<text x="97.92" y="219.68">.</text>
<text x="343.28" y="91.53">*</text>
<text x="111.29" y="212.76">.</text>
<text x="74.47" y="339.92">.</text>
<text x="95.01" y="49.38">+</text>
<text x="356.80" y="140.06">+</text>
<text x="137.52" y="11.36">*</text>
<text x="313.74" y="399.44">.</text>
<text x="422.91" y="471.72">.</text>
<text x="114.39" y="72.10">+</text>
<text x="376.40" y="136.06">.</text>
<text x="408.04" y="53.67">+</text>
<text x="353.43" y="468.93">+</text>
<text x="318.93" y="309.52">*</text>
<text x="14.95" y="484.52">+</text>
<text x="382.48" y="58.53">.</text>
<text x="406.42" y="251.19">+</text>
<text x="328.13" y="152.52">.</text>
<text x="164.57" y="255.40">+</text>
<text x="199.91" y="488.02">.</text>
<text x="468.55" y="151.23">+</text>
<text x="388.68" y="290.12">+</text>
<text x="342.53" y="196.94">+</text>
<text x="27.42" y="374.33">+</text>
<text x="177.74" y="166.97">+</text>
<text x="42.30" y="40.58">+</text>
<text x="18.47" y="297.43">*</text>
<text x="96.20" y="382.14">.</text>
<text x="261.61" y="453.88">+</text>
<text x="277.60" y="264.38">.</text>
<text x="220.27" y="13.04">+</text>
<text x="224.22" y="65.08">.</text>
<text x="247.48" y="315.65">.</text>
<text x="206.65" y="180.35">+</text>
<text x="393.33" y="232.50">.</text>
<text x="84.21" y="469.92">+</text>
<text x="440.59" y="49.17">+</text>
<text x="410.93" y="284.39">+</text>
<text x="59.46" y="33.24">+</text>
<text x="237.23" y="61.47">.</text>
<text x="286.04" y="443.82">.</text>
<text x="199.06" y="186.47">+</text>
<text x="441.29" y="333.03">+</text>
<text x="252.51" y="479.24">*</text>
<text x="218.83" y="394.11">+</text>
<text x="193.38" y="364.51">.</text>
<text x="144.22" y="214.79">+</text>
<text x="315.84" y="100.41">+</text>
<text x="342.20" y="55.37">+</text>
<text x="69.22" y="20.30">.</text>
<text x="191.65" y="73.77">*</text>
<text x="170.53" y="95.93">.</text>
<text x="53.72" y="337.52">.</text>
<text x="39.73" y="178.62">.</text>
<text x="390.80" y="209.28">+</text>
<text x="393.23" y="496.36">.</text>
<text x="138.13" y="99.80">.</text>
<text x="426.84" y="32.56">*</text>
<text x="5.01" y="175.26">.</text>

</svg>