
<svg viewBox="0 0 500 500" xmlns="http://www.w.org/2000/svg" width="100%" height="100%" style="background-color: #0a0a14; font-family: 'Courier New', Courier, monospace;">
    <style>
        text { fill: #aaa; font-size: 10px; text-anchor: middle; dominant-baseline: middle; }
    </style>
    <text x="329.21" y="419.52">.</text>
<text x="200.78" y="328.53">+</text>
<text x="205.79" y="306.06">+</text>
<text x="28.69" y="331.18">+</text>
<text x="37.72" y="424.65">+</text>
<text x="486.61" y="386.89">+</text>
<text x="378.62" y="184.82">.</text>
<text x="440.39" y="493.95">.</text>
<text x="1.53" y="43.31">*</text>
<text x="400.36" y="101.14">.</text>
<text x="404.77" y="417.73">*</text>
<text x="268.59" y="34.56">.</text>
<text x="307.85" y="434.47">+</text>
<text x="3.12" y="282.59">+</text>
<text x="47.79" y="346.56">.</text>
<text x="368.18" y="340.46">.</text>
<text x="176.32" y="255.72">+</text>
<text x="226.59" y="126.98">+</text>
<text x="268.08" y="315.48">+</text>
<text x="315.77" y="45.85">+</text>
<text x="250.82" y="496.97">+</text>
<text x="430.42" y="123.93">.</text>
<text x="271.33" y="385.33">.</text>
<text x="422.28" y="124.21">+</text>
<text x="366.99" y="333.03">+</text>
<text x="6.76" y="384.52">.</text>
<text x="32.66" y="246.82">.</text>
<text x="98.96" y="163.82">+</text>
<text x="56.16" y="175.70">*</text>
<text x="8.04" y="121.11">*</text>
<text x="198.49" y="340.59">.</text>
<text x="225.88" y="470.55">*</text>
<text x="132.80" y="424.53">.</text>
<text x="215.82" y="91.70">.</text>
<text x="330.03" y="281.25">+</text>
<text x="455.52" y="169.91">+</text>
<text x="36.70" y="295.08">.</text>
<text x="311.12" y="53.59">+</text>
<text x="318.98" y="197.25">.</text>
<text x="482.57" y="478.30">+</text>
<text x="53.39" y="187.84">.</text>
<text x="15.98" y="184.47">+</text>
<text x="242.13" y="236.87">+</text>
<text x="317.57" y="235.82">+</text>
<text x="26.18" y="498.39">+</text>
<text x="124.25" y="499.76">.</text>
<text x="5.91" y="29.52">.</text>
<text x="286.37" y="167.95">.</text>
<text x="10.81" y="460.12">+</text>
<text x="8.09" y="187.20">.</text>
<text x="345.60" y="346.13">+</text>
<text x="6.73" y="488.77">*</text>
<text x="97.84" y="334.53">*</text>
<text x="352.08" y="195.37">+</text>
<text x="211.56" y="9.21">+</text>
<text x="168.33" y="257.44">.</text>
<text x="429.73" y="367.93">.</text>
<text x="365.48" y="346.93">+</text>
<text x="498.15" y="407.10">*</text>
<text x="323.36" y="270.06">.</text>
<text x="460.75" y="175.71">.</text>
<text x="78.24" y="290.43">.</text>
<text x="390.07" y="355.96">*</text>
<text x="73.86" y="291.26">*</text>
<text x="49.05" y="70.01">.</text>
<text x="472.79" y="126.37">+</text>
<text x="2.38" y="424.34">+</text>
<text x="201.82" y="410.26">*</text>
<text x="424.68" y="397.21">+</text>
<text x="78.73" y="495.83">.</text>
<text x="160.36" y="466.09">.</text>
<text x="261.21" y="272.61">.</text>
<text x="316.73" y="266.64">*</text>
<text x="340.97" y="102.82">.</text>
<text x="50.09" y="114.17">*</text>
<text x="406.43" y="410.49">+</text>
<text x="448.67" y="18.76">+</text>
<text x="318.72" y="183.50">.</text>
<text x="229.91" y="354.73">*</text>
<text x="121.28" y="107.42">+</text>
<text x="63.90" y="113.58">+</text>
<text x="415.71" y="422.31">.</text>
<text x="410.99" y="148.72">.</text>
<text x="162.10" y="462.05">+</text>
<text x="447.37" y="367.22">+</text>
<text x="127.28" y="352.44">+</text>
<text x="374.14" y="332.12">.</text>
<text x="186.40" y="287.60">.</text>
<text x="181.00" y="96.73">+</text>
<text x="56.85" y="39.62">+</text>
<text x="474.86" y="229.17">*</text>
<text x="318.82" y="351.23">+</text>
<text x="474.48" y="394.33">*</text>
<text x="269.27" y="47.37">*</text>
<text x="42.21" y="356.50">.</text>
<text x="276.25" y="362.46">.</text>
<text x="376.72" y="300.61">+</text>
<text x="88.81" y="445.00">.</text>
<text x="160.81" y="281.42">+</text>
<text x="346.07" y="421.61">+</text>
<text x="301.16" y="402.28">.</text>
<text x="476.43" y="203.60">+</text>
<text x="312.82" y="385.91">*</text>
<text x="440.03" y="31.98">+</text>
<text x="401.62" y="126.54">.</text>
<text x="339.84" y="444.54">*</text>
<text x="54.37" y="310.02">+</text>
<text x="6.03" y="150.43">+</text>
<text x="88.46" y="145.26">+</text>
<text x="31.22" y="98.56">+</text>
<text x="73.85" y="182.40">*</text>
<text x="450.77" y="300.56">+</text>
<text x="437.37" y="154.73">.</text>
<text x="205.39" y="438.47">.</text>
<text x="145.73" y="9.07">.</text>
<text x="375.19" y="230.56">+</text>
<text x="189.54" y="231.60">.</text>
<text x="93.93" y="480.22">+</text>
<text x="52.73" y="293.06">.</text>
<text x="261.41" y="280.13">+</text>
<text x="330.22" y="443.40">+</text>
<text x="6.27" y="40.24">+</text>
<text x="428.08" y="150.15">+</text>
<text x="33.47" y="485.23">+</text>
<text x="175.67" y="341.16">.</text>
<text x="193.22" y="53.93">+</text>
<text x="137.13" y="427.72">.</text>
<text x="171.76" y="82.79">.</text>
<text x="269.67" y="316.79">+</text>
<text x="493.27" y="360.23">+</text>
<text x="284.94" y="496.98">.</text>
<text x="392.80" y="286.48">.</text>
<text x="434.58" y="449.82">.</text>
<text x="325.76" y="299.40">+</text>
<text x="162.10" y="5.01">*</text>
<text x="50.14" y="221.66">+</text>
<text x="419.11" y="458.28">*</text>
<text x="486.54" y="396.83">.</text>
<text x="406.27" y="373.61">.</text>
<text x="260.36" y="109.45">.</text>
<text x="313.98" y="8.87">+</text>
<text x="328.80" y="459.57">+</text>
<text x="114.02" y="207.81">.</text>
<text x="57.78" y="139.45">.</text>
<text x="41.64" y="162.22">.</text>
<text x="323.31" y="52.24">+</text>
<text x="298.79" y="393.85">+</text>
<text x="54.20" y="456.25">.</text>
<text x="279.13" y="16.45">+</text>
<text x="381.02" y="254.88">+</text>
<text x="209.52" y="53.44">*</text>
<text x="148.89" y="145.12">.</text>
<text x="155.71" y="166.45">+</text>
<text x="123.84" y="119.40">*</text>
<text x="414.72" y="389.79">+</text>
<text x="321.74" y="400.42">+</text>
<text x="96.68" y="58.31">.</text>
<text x="14.42" y="275.29">.</text>
<text x="40.87" y="246.08">+</text>
<text x="403.51" y="307.39">.</text>
<text x="359.38" y="118.20">.</text>
<text x="474.19" y="261.40">+</text>
<text x="483.82" y="434.33">*</text>
<text x="282.21" y="391.32">*</text>
<text x="50.72" y="121.25">.</text>
<text x="245.56" y="67.00">+</text>
<text x="454.32" y="81.69">+</text>
<text x="337.47" y="259.98">*</text>
<text x="318.95" y="484.87">+</text>
<text x="288.65" y="174.79">.</text>
<text x="371.28" y="147.34">.</text>
<text x="158.93" y="433.83">+</text>
<text x="48.58" y="407.05">*</text>
<text x="491.54" y="337.22">.</text>
<text x="426.83" y="404.84">*</text>
<text x="309.20" y="205.73">+</text>
<text x="382.80" y="336.11">+</text>
<text x="300.12" y="133.42">+</text>
<text x="285.30" y="428.37">+</text>
<text x="432.87" y="35.24">*</text>
<text x="108.19" y="299.65">.</text>
<text x="114.69" y="82.62">.</text>
<text x="352.94" y="428.88">*</text>
<text x="144.91" y="463.23">+</text>
<text x="420.27" y="194.00">+</text>
<text x="351.41" y="7.13">.</text>
<text x="68.15" y="352.83">*</text>
<text x="41.58" y="433.68">*</text>
<text x="370.26" y="254.08">.</text>
<text x="221.40" y="148.23">.</text>
<text x="85.46" y="97.67">.</text>
<text x="59.97" y="188.09">+</text>
<text x="328.52" y="154.67">+</text>
<text x="395.56" y="143.10">*</text>
<text x="281.08" y="478.74">.</text>
<text x="0.92" y="397.68">*</text>
<text x="33.77" y="115.92">+</text>
<text x="112.76" y="341.85">*</text>
<text x="66.36" y="178.94">+</text>
<text x="109.26" y="108.40">.</text>
<text x="262.94" y="211.90">*</text>
<text x="240.20" y="262.59">.</text>
<text x="324.35" y="136.42">+</text>
<text x="482.98" y="249.64">.</text>
<text x="471.36" y="33.87">.</text>
<text x="385.69" y="454.57">*</text>
<text x="228.85" y="248.35">.</text>
<text x="157.24" y="447.33">+</text>
<text x="5.91" y="227.61">*</text>

</svg>