
<svg viewBox="0 0 500 500" xmlns="http://www.w.org/2000/svg" width="100%" height="100%" style="background-color: #0a0a14; font-family: 'Courier New', Courier, monospace;">
    <style>
        text { fill: #aaa; font-size: 10px; text-anchor: middle; dominant-baseline: middle; }
    </style>
    <text x="498.43" y="164.60">+</text>
<text x="102.03" y="253.39">.</text>
<text x="236.73" y="460.98">.</text>
<text x="485.00" y="335.79">.</text>
<text x="372.29" y="242.71">+</text>
<text x="234.70" y="211.04">+</text>
<text x="475.69" y="106.25">.</text>
<text x="430.39" y="88.99">.</text>
<text x="219.69" y="51.39">+</text>
<text x="428.75" y="416.33">.</text>
<text x="7.53" y="9.69">*</text>
<text x="344.47" y="104.85">+</text>
<text x="286.49" y="392.16">+</text>
<text x="235.11" y="204.70">+</text>
<text x="139.19" y="10.75">.</text>
<text x="29.29" y="48.14">+</text>
<text x="444.15" y="134.87">+</text>
<text x="162.92" y="440.50">+</text>
<text x="31.74" y="308.29">.</text>
<text x="343.32" y="2.43">.</text>
<text x="243.69" y="270.86">+</text>
<text x="384.58" y="274.26">.</text>
<text x="100.16" y="336.03">.</text>
<text x="46.43" y="333.75">.</text>
<text x="9.14" y="373.20">.</text>
<text x="332.12" y="376.00">*</text>
<text x="123.61" y="209.09">+</text>
<text x="349.51" y="299.28">+</text>
<text x="426.69" y="94.46">+</text>
<text x="125.70" y="133.71">*</text>
<text x="38.06" y="289.48">+</text>
<text x="305.47" y="163.73">*</text>
<text x="488.46" y="326.56">+</text>
<text x="338.24" y="74.29">+</text>
<text x="162.52" y="329.83">.</text>
<text x="178.97" y="316.75">+</text>
<text x="227.24" y="321.37">+</text>
<text x="374.67" y="31.65">+</text>
<text x="210.49" y="384.55">*</text>
<text x="205.06" y="71.09">+</text>
<text x="326.02" y="236.23">*</text>
<text x="218.57" y="248.01">*</text>
<text x="66.07" y="373.60">+</text>
<text x="306.77" y="129.57">.</text>
<text x="226.71" y="249.09">*</text>
<text x="342.89" y="260.80">+</text>
<text x="497.98" y="153.22">.</text>
<text x="442.04" y="211.39">.</text>
<text x="206.11" y="489.13">*</text>
<text x="100.50" y="247.42">.</text>
<text x="346.62" y="279.07">.</text>
<text x="492.38" y="201.37">+</text>
<text x="269.80" y="116.69">+</text>
<text x="82.74" y="165.51">.</text>
<text x="458.17" y="399.60">+</text>
<text x="262.86" y="75.88">+</text>
<text x="352.02" y="60.86">+</text>
<text x="371.29" y="303.22">*</text>
<text x="70.71" y="299.03">.</text>
<text x="255.88" y="418.18">.</text>
<text x="473.97" y="206.04">+</text>
<text x="273.80" y="104.21">+</text>
<text x="423.03" y="288.01">*</text>
<text x="124.10" y="312.58">.</text>
<text x="461.62" y="385.83">+</text>
<text x="165.77" y="90.12">+</text>
<text x="1.36" y="26.02">+</text>
<text x="416.81" y="411.59">*</text>
<text x="417.68" y="239.77">+</text>
<text x="265.79" y="70.73">+</text>
<text x="112.27" y="310.75">+</text>
<text x="397.65" y="328.12">+</text>
<text x="489.17" y="210.06">+</text>
<text x="456.53" y="436.55">+</text>
<text x="322.95" y="332.94">.</text>
<text x="164.19" y="314.68">.</text>
<text x="146.06" y="69.47">+</text>
<text x="136.63" y="138.55">+</text>
<text x="463.50" y="129.18">*</text>
<text x="498.51" y="70.98">+</text>
<text x="446.27" y="488.71">+</text>
<text x="253.01" y="109.70">.</text>
<text x="360.69" y="155.47">.</text>
<text x="227.65" y="199.43">+</text>
<text x="497.63" y="374.31">*</text>
<text x="178.16" y="328.58">.</text>
<text x="328.71" y="314.06">+</text>
<text x="191.74" y="319.12">+</text>
<text x="311.50" y="308.38">+</text>
<text x="451.70" y="128.67">*</text>
<text x="447.07" y="143.59">+</text>
<text x="487.31" y="148.62">.</text>
<text x="32.85" y="156.27">*</text>
<text x="180.71" y="221.96">.</text>
<text x="387.26" y="88.53">+</text>
<text x="206.23" y="59.40">+</text>
<text x="311.74" y="224.67">.</text>
<text x="34.30" y="83.69">+</text>
<text x="329.81" y="312.97">.</text>
<text x="495.17" y="182.75">+</text>
<text x="218.74" y="321.44">.</text>
<text x="271.23" y="218.66">+</text>
<text x="85.15" y="242.94">.</text>
<text x="428.00" y="386.75">.</text>
<text x="253.48" y="166.35">+</text>
<text x="115.38" y="429.19">+</text>
<text x="80.22" y="243.15">.</text>
<text x="190.44" y="150.10">+</text>
<text x="136.03" y="70.48">.</text>
<text x="202.14" y="385.20">+</text>
<text x="140.85" y="260.37">.</text>
<text x="498.92" y="116.63">.</text>
<text x="442.75" y="214.01">.</text>
<text x="193.01" y="243.02">*</text>
<text x="6.69" y="397.71">.</text>
<text x="167.67" y="77.44">+</text>
<text x="129.15" y="301.93">.</text>
<text x="56.51" y="213.39">*</text>
<text x="333.15" y="279.69">+</text>
<text x="222.12" y="275.59">+</text>
<text x="127.03" y="346.75">*</text>
<text x="406.92" y="279.88">.</text>
<text x="390.73" y="73.15">+</text>
<text x="378.77" y="164.76">+</text>
<text x="373.40" y="179.57">.</text>
<text x="346.31" y="10.22">.</text>
<text x="51.13" y="111.02">+</text>
<text x="220.17" y="216.71">.</text>
<text x="44.40" y="384.04">.</text>
<text x="186.07" y="421.98">+</text>
<text x="209.97" y="124.48">*</text>
<text x="340.63" y="440.04">.</text>
<text x="0.86" y="80.29">+</text>
<text x="492.13" y="288.03">+</text>
<text x="267.23" y="377.74">.</text>
<text x="367.63" y="428.99">+</text>
<text x="382.83" y="161.32">*</text>
<text x="452.82" y="211.13">.</text>
<text x="366.47" y="315.35">+</text>
<text x="125.03" y="224.47">+</text>
<text x="477.82" y="165.34">.</text>
<text x="226.60" y="431.99">.</text>
<text x="278.89" y="365.76">*</text>
<text x="110.40" y="149.16">+</text>
<text x="259.84" y="86.29">.</text>
<text x="326.08" y="170.06">+</text>
<text x="252.05" y="469.98">+</text>
<text x="177.22" y="215.22">+</text>
<text x="165.13" y="417.66">+</text>
<text x="40.79" y="95.44">+</text>
<text x="306.12" y="295.14">.</text>
<text x="286.81" y="487.94">.</text>
<text x="445.92" y="134.82">.</text>
<text x="432.07" y="174.37">+</text>
<text x="134.96" y="417.27">*</text>
<text x="39.79" y="5.78">*</text>
<text x="383.87" y="242.91">+</text>
<text x="413.97" y="498.44">*</text>
<text x="443.49" y="361.31">.</text>
<text x="305.33" y="150.89">+</text>
<text x="346.96" y="416.74">+</text>
<text x="337.35" y="170.29">.</text>
<text x="280.01" y="323.19">+</text>
<text x="94.93" y="166.89">.</text>
<text x="209.87" y="281.41">+</text>
<text x="44.15" y="69.11">.</text>
<text x="51.70" y="172.43">.</text>
<text x="193.12" y="46.59">.</text>
<text x="54.21" y="211.93">+</text>
<text x="494.95" y="29.56">.</text>
<text x="244.68" y="217.66">+</text>
<text x="13.36" y="487.58">+</text>
<text x="443.94" y="479.15">.</text>
<text x="427.61" y="138.21">+</text>
<text x="143.73" y="105.70">+</text>
<text x="361.03" y="212.41">.</text>
<text x="61.07" y="63.27">.</text>
<text x="53.53" y="339.08">.</text>
<text x="399.67" y="18.84">.</text>
<text x="323.27" y="447.71">*</text>
<text x="107.97" y="213.67">.</text>
<text x="371.90" y="497.47">+</text>
<text x="443.59" y="135.91">+</text>
<text x="146.65" y="320.15">.</text>
<text x="53.20" y="118.64">+</text>
<text x="198.03" y="364.43">.</text>
<text x="449.92" y="464.91">*</text>
<text x="369.65" y="236.82">+</text>
<text x="405.55" y="188.61">+</text>
<text x="3.37" y="437.22">.</text>
<text x="117.54" y="356.35">.</text>
<text x="458.20" y="141.26">.</text>
<text x="203.75" y="11.32">.</text>
<text x="6.23" y="347.74">+</text>
<text x="345.12" y="149.76">.</text>
<text x="26.30" y="482.76">*</text>
<text x="299.14" y="12.40">.</text>
<text x="434.63" y="426.59">*</text>
<text x="480.90" y="248.74">+</text>
<text x="113.43" y="467.42">+</text>
<text x="69.71" y="121.57">*</text>
<text x="11.20" y="462.51">.</text>
<text x="372.93" y="217.28">*</text>
<text x="279.99" y="328.29">+</text>
<text x="212.18" y="485.21">+</text>
<text x="382.27" y="455.52">.</text>
<text x="499.98" y="285.85">.</text>
<text x="472.95" y="352.91">.</text>
<text x="496.89" y="449.59">.</text>
<text x="224.38" y="71.02">.</text>
<text x="383.97" y="300.29">*</text>

</svg>