
<svg viewBox="0 0 500 500" xmlns="http://www.w.org/2000/svg" width="100%" height="100%" style="background-color: #0a0a14; font-family: 'Courier New', Courier, monospace;">
    <style>
        text { fill: #aaa; font-size: 10px; text-anchor: middle; dominant-baseline: middle; }
    </style>
    <text x="460.71" y="481.09">+</text>
<text x="353.88" y="75.00">.</text>
<text x="411.65" y="468.39">.</text>
<text x="214.15" y="76.11">.</text>
<text x="481.91" y="84.23">.</text>
<text x="99.81" y="312.53">.</text>
<text x="399.55" y="365.20">.</text>
<text x="293.67" y="410.47">+</text>
<text x="71.00" y="202.52">.</text>
<text x="279.63" y="424.92">.</text>
<text x="471.09" y="65.86">.</text>
<text x="189.75" y="188.96">+</text>
<text x="186.44" y="335.60">.</text>
<text x="235.95" y="249.71">.</text>
<text x="103.87" y="44.26">+</text>
<text x="265.56" y="29.62">.</text>
<text x="282.69" y="23.40">.</text>
<text x="348.50" y="139.52">.</text>
<text x="107.71" y="408.53">+</text>
<text x="371.24" y="146.32">*</text>
<text x="375.72" y="380.88">+</text>
<text x="30.79" y="323.90">+</text>
<text x="455.13" y="198.80">*</text>
<text x="459.41" y="410.55">+</text>
<text x="130.38" y="421.73">+</text>
<text x="463.06" y="22.65">*</text>
<text x="400.63" y="123.22">.</text>
<text x="327.10" y="346.67">*</text>
<text x="20.72" y="393.86">+</text>
<text x="184.57" y="63.39">.</text>
<text x="154.89" y="370.69">+</text>
<text x="417.10" y="320.81">+</text>
<text x="416.22" y="48.27">.</text>
<text x="490.58" y="217.30">+</text>
<text x="367.01" y="493.64">+</text>
<text x="319.62" y="239.11">+</text>
<text x="105.96" y="295.22">+</text>
<text x="139.98" y="469.23">+</text>
<text x="60.34" y="444.56">.</text>
<text x="282.79" y="165.60">+</text>
<text x="434.21" y="67.20">+</text>
<text x="499.82" y="196.76">+</text>
<text x="372.54" y="471.40">+</text>
<text x="59.67" y="365.51">.</text>
<text x="98.63" y="280.32">.</text>
<text x="30.00" y="209.47">+</text>
<text x="204.52" y="466.27">.</text>
<text x="264.22" y="121.53">.</text>
<text x="120.72" y="231.15">.</text>
<text x="432.46" y="288.31">.</text>
<text x="76.67" y="202.31">+</text>
<text x="61.19" y="150.15">+</text>
<text x="12.38" y="444.51">.</text>
<text x="480.91" y="440.11">.</text>
<text x="118.13" y="90.16">.</text>
<text x="276.83" y="476.11">.</text>
<text x="160.54" y="387.67">+</text>
<text x="309.90" y="280.16">+</text>
<text x="130.73" y="482.72">.</text>
<text x="300.95" y="116.16">.</text>
<text x="294.16" y="213.86">.</text>
<text x="343.57" y="104.04">.</text>
<text x="41.99" y="223.43">*</text>
<text x="327.87" y="340.16">.</text>
<text x="198.78" y="270.93">+</text>
<text x="106.63" y="323.10">.</text>
<text x="306.42" y="98.43">+</text>
<text x="61.98" y="477.08">+</text>
<text x="475.83" y="115.74">+</text>
<text x="196.20" y="483.87">+</text>
<text x="352.49" y="388.02">.</text>
<text x="244.27" y="24.39">+</text>
<text x="148.03" y="497.32">*</text>
<text x="61.84" y="222.80">+</text>
<text x="173.83" y="52.71">+</text>
<text x="146.67" y="211.45">+</text>
<text x="348.74" y="233.57">.</text>
<text x="489.56" y="336.92">.</text>
<text x="76.30" y="51.79">+</text>
<text x="416.24" y="232.53">+</text>
<text x="50.27" y="368.12">.</text>
<text x="466.76" y="358.97">.</text>
<text x="280.16" y="70.97">.</text>
<text x="413.29" y="104.93">+</text>
<text x="3.39" y="212.92">+</text>
<text x="460.28" y="248.88">+</text>
<text x="387.34" y="134.52">+</text>
<text x="61.88" y="343.55">+</text>
<text x="274.03" y="286.47">+</text>
<text x="44.73" y="372.26">+</text>
<text x="333.86" y="75.40">+</text>
<text x="337.71" y="431.88">+</text>
<text x="64.99" y="260.04">.</text>
<text x="395.95" y="88.44">+</text>
<text x="440.39" y="460.64">.</text>
<text x="53.70" y="418.79">+</text>
<text x="172.70" y="358.08">*</text>
<text x="184.34" y="313.79">+</text>
<text x="195.02" y="153.66">+</text>
<text x="347.94" y="306.43">.</text>
<text x="492.07" y="232.93">*</text>
<text x="136.42" y="233.74">.</text>
<text x="230.22" y="458.75">.</text>
<text x="469.49" y="220.70">.</text>
<text x="0.65" y="262.90">+</text>
<text x="296.82" y="168.87">*</text>
<text x="109.15" y="402.57">.</text>
<text x="263.46" y="194.08">+</text>
<text x="427.04" y="352.39">*</text>
<text x="200.60" y="370.50">*</text>
<text x="9.75" y="1.01">*</text>
<text x="191.30" y="96.44">.</text>
<text x="316.32" y="474.61">+</text>
<text x="466.61" y="244.86">+</text>
<text x="293.15" y="58.92">+</text>
<text x="334.63" y="446.78">+</text>
<text x="482.68" y="407.90">+</text>
<text x="267.02" y="348.06">+</text>
<text x="42.29" y="167.87">+</text>
<text x="7.16" y="427.85">.</text>
<text x="447.60" y="88.63">.</text>
<text x="84.35" y="434.31">+</text>
<text x="85.39" y="92.45">+</text>
<text x="112.19" y="435.03">.</text>
<text x="482.26" y="387.73">.</text>
<text x="278.16" y="477.29">.</text>
<text x="449.27" y="473.57">.</text>
<text x="437.12" y="95.00">+</text>
<text x="381.67" y="43.34">.</text>
<text x="334.32" y="366.21">+</text>
<text x="188.33" y="127.20">.</text>
<text x="371.34" y="109.68">+</text>
<text x="202.14" y="355.82">.</text>
<text x="440.36" y="475.60">.</text>
<text x="240.74" y="253.73">+</text>
<text x="78.65" y="274.01">+</text>
<text x="290.87" y="467.46">.</text>
<text x="84.47" y="43.45">+</text>
<text x="355.43" y="331.36">+</text>
<text x="338.26" y="239.10">.</text>
<text x="86.07" y="354.65">*</text>
<text x="283.77" y="208.44">.</text>
<text x="367.28" y="321.64">.</text>
<text x="341.41" y="404.43">.</text>
<text x="31.83" y="228.10">.</text>
<text x="130.82" y="192.78">.</text>
<text x="171.09" y="467.58">.</text>
<text x="154.43" y="402.50">.</text>
<text x="138.42" y="478.71">.</text>
<text x="272.81" y="350.70">.</text>
<text x="399.99" y="150.40">*</text>
<text x="6.17" y="405.31">.</text>
<text x="380.80" y="274.52">.</text>
<text x="454.15" y="240.08">+</text>
<text x="456.86" y="55.05">+</text>
<text x="84.04" y="196.90">+</text>
<text x="177.89" y="477.76">+</text>
<text x="96.12" y="342.22">.</text>
<text x="436.43" y="83.94">+</text>
<text x="187.03" y="161.09">.</text>
<text x="51.34" y="6.22">.</text>
<text x="132.02" y="318.10">.</text>
<text x="424.36" y="450.85">+</text>
<text x="348.75" y="88.96">*</text>
<text x="276.89" y="273.24">.</text>
<text x="11.77" y="42.48">+</text>
<text x="167.11" y="303.63">.</text>
<text x="7.71" y="387.94">.</text>
<text x="98.00" y="131.96">+</text>
<text x="72.23" y="33.99">.</text>
<text x="406.24" y="138.42">.</text>
<text x="36.81" y="417.42">*</text>
<text x="390.55" y="142.53">.</text>
<text x="214.96" y="6.00">.</text>
<text x="286.79" y="456.19">.</text>
<text x="148.63" y="492.93">+</text>
<text x="9.64" y="464.29">+</text>
<text x="456.90" y="72.51">+</text>
<text x="180.24" y="107.86">*</text>
<text x="94.17" y="233.11">*</text>
<text x="398.76" y="483.94">+</text>
<text x="230.38" y="401.26">.</text>
<text x="196.36" y="135.11">.</text>
<text x="387.66" y="300.42">+</text>
<text x="256.28" y="82.44">+</text>
<text x="441.89" y="53.10">+</text>
<text x="22.37" y="53.64">+</text>
<text x="194.83" y="415.20">.</text>
<text x="479.52" y="361.03">*</text>
<text x="118.83" y="268.12">+</text>
<text x="412.85" y="208.09">+</text>
<text x="36.41" y="26.14">*</text>
<text x="118.99" y="410.79">.</text>
<text x="323.74" y="327.55">*</text>
<text x="184.37" y="360.54">*</text>
<text x="75.97" y="262.75">+</text>
<text x="300.60" y="463.82">.</text>
<text x="446.25" y="414.10">.</text>
<text x="229.45" y="267.86">+</text>
<text x="25.68" y="395.23">+</text>
<text x="37.90" y="451.58">.</text>
<text x="379.50" y="109.36">*</text>
<text x="69.03" y="202.62">.</text>
<text x="346.92" y="155.10">*</text>
<text x="80.60" y="138.26">+</text>
<text x="423.01" y="23.37">+</text>
<text x="366.01" y="394.99">.</text>

</svg>