
<svg viewBox="0 0 500 500" xmlns="http://www.w.org/2000/svg" width="100%" height="100%" style="background-color: #0a0a14; font-family: 'Courier New', Courier, monospace;">
    <style>
        text { fill: #aaa; font-size: 10px; text-anchor: middle; dominant-baseline: middle; }
    </style>
    <text x="72.70" y="224.89">.</text>
<text x="49.91" y="345.67">*</text>
<text x="84.15" y="170.34">*</text>
<text x="136.38" y="75.49">+</text>
<text x="203.55" y="79.22">*</text>
<text x="122.38" y="401.26">*</text>
<text x="101.56" y="307.99">.</text>
<text x="164.98" y="187.74">.</text>
<text x="190.03" y="142.78">*</text>
<text x="401.20" y="280.30">.</text>
<text x="192.21" y="222.46">.</text>
<text x="289.71" y="480.59">.</text>
<text x="313.67" y="61.92">.</text>
<text x="354.29" y="412.78">+</text>
<text x="199.80" y="345.98">.</text>
<text x="155.28" y="64.52">+</text>
<text x="374.02" y="298.73">+</text>
<text x="352.95" y="497.49">+</text>
<text x="201.33" y="406.19">+</text>
<text x="40.00" y="360.20">+</text>
<text x="384.66" y="490.77">.</text>
<text x="296.51" y="54.08">*</text>
<text x="54.42" y="67.16">*</text>
<text x="156.94" y="13.11">+</text>
<text x="136.08" y="428.51">.</text>
<text x="459.26" y="481.93">*</text>
<text x="266.11" y="23.52">+</text>
<text x="16.38" y="88.34">.</text>
<text x="312.71" y="368.75">+</text>
<text x="23.35" y="420.91">.</text>
<text x="128.60" y="471.70">.</text>
<text x="48.39" y="266.16">*</text>
<text x="187.32" y="202.80">+</text>
<text x="249.63" y="209.69">+</text>
<text x="62.18" y="310.78">*</text>
<text x="164.32" y="281.84">.</text>
<text x="441.59" y="375.87">+</text>
<text x="450.16" y="91.87">+</text>
<text x="453.25" y="499.34">+</text>
<text x="177.50" y="218.08">+</text>
<text x="310.73" y="216.11">.</text>
<text x="200.53" y="317.19">.</text>
<text x="231.74" y="200.79">+</text>
<text x="100.73" y="78.30">.</text>
<text x="236.13" y="288.67">.</text>
<text x="218.18" y="135.59">+</text>
<text x="286.07" y="418.94">*</text>
<text x="318.46" y="475.26">.</text>
<text x="250.24" y="74.67">+</text>
<text x="68.08" y="311.73">+</text>
<text x="275.96" y="23.92">+</text>
<text x="352.13" y="85.64">+</text>
<text x="363.84" y="440.11">+</text>
<text x="165.38" y="141.72">*</text>
<text x="395.79" y="180.55">+</text>
<text x="43.32" y="64.83">+</text>
<text x="61.06" y="50.45">*</text>
<text x="314.86" y="4.73">.</text>
<text x="402.27" y="454.97">+</text>
<text x="238.14" y="226.81">.</text>
<text x="460.49" y="335.54">+</text>
<text x="126.62" y="434.63">.</text>
<text x="125.12" y="309.92">.</text>
<text x="13.55" y="190.00">+</text>
<text x="301.25" y="136.36">.</text>
<text x="72.83" y="465.48">.</text>
<text x="51.68" y="239.57">+</text>
<text x="441.47" y="257.23">.</text>
<text x="156.27" y="35.86">+</text>
<text x="249.29" y="389.66">+</text>
<text x="168.90" y="164.72">*</text>
<text x="131.73" y="494.22">*</text>
<text x="183.87" y="172.05">+</text>
<text x="230.66" y="451.36">+</text>
<text x="242.00" y="68.24">*</text>
<text x="41.57" y="299.26">+</text>
<text x="396.81" y="480.22">.</text>
<text x="356.73" y="453.86">.</text>
<text x="280.45" y="375.03">+</text>
<text x="374.04" y="312.09">*</text>
<text x="89.89" y="342.51">+</text>
<text x="193.77" y="191.79">+</text>
<text x="5.39" y="162.38">.</text>
<text x="76.14" y="475.10">+</text>
<text x="416.20" y="81.41">.</text>
<text x="120.31" y="261.33">*</text>
<text x="210.82" y="296.82">.</text>
<text x="201.02" y="459.72">.</text>
<text x="96.61" y="59.60">+</text>
<text x="262.39" y="167.81">.</text>
<text x="128.63" y="127.91">.</text>
<text x="120.71" y="379.48">+</text>
<text x="308.48" y="402.22">+</text>
<text x="108.07" y="321.89">.</text>
<text x="22.06" y="463.10">+</text>
<text x="6.47" y="49.62">*</text>
<text x="428.13" y="176.17">+</text>
<text x="229.70" y="309.00">.</text>
<text x="402.59" y="264.25">.</text>
<text x="335.97" y="325.32">+</text>
<text x="154.43" y="31.03">.</text>
<text x="254.05" y="163.96">+</text>
<text x="358.32" y="196.12">+</text>
<text x="13.59" y="470.10">+</text>
<text x="106.62" y="225.56">.</text>
<text x="436.51" y="461.99">+</text>
<text x="417.59" y="435.33">.</text>
<text x="346.14" y="228.55">+</text>
<text x="354.16" y="231.98">.</text>
<text x="375.39" y="403.00">.</text>
<text x="425.82" y="201.99">+</text>
<text x="264.94" y="388.45">+</text>
<text x="446.49" y="155.73">.</text>
<text x="449.05" y="21.45">.</text>
<text x="210.30" y="436.32">.</text>
<text x="46.94" y="354.93">+</text>
<text x="64.89" y="158.78">+</text>
<text x="398.77" y="203.59">*</text>
<text x="13.12" y="48.42">+</text>
<text x="118.47" y="339.51">+</text>
<text x="1.37" y="227.34">*</text>
<text x="87.42" y="318.87">*</text>
<text x="338.76" y="108.50">+</text>
<text x="448.65" y="482.42">.</text>
<text x="126.50" y="350.20">+</text>
<text x="333.62" y="187.74">*</text>
<text x="20.83" y="331.22">.</text>
<text x="73.82" y="59.15">.</text>
<text x="354.73" y="241.41">.</text>
<text x="416.63" y="134.83">+</text>
<text x="443.31" y="4.88">+</text>
<text x="185.23" y="498.45">.</text>
<text x="385.29" y="410.69">.</text>
<text x="473.03" y="242.21">+</text>
<text x="256.73" y="439.47">+</text>
<text x="90.94" y="286.99">.</text>
<text x="38.19" y="477.00">.</text>
<text x="303.58" y="348.09">+</text>
<text x="356.41" y="464.55">+</text>
<text x="2.80" y="382.80">+</text>
<text x="346.31" y="237.22">.</text>
<text x="392.73" y="324.44">.</text>
<text x="434.69" y="84.13">+</text>
<text x="459.49" y="397.93">*</text>
<text x="64.35" y="55.66">+</text>
<text x="230.07" y="322.83">+</text>
<text x="378.51" y="478.81">.</text>
<text x="456.42" y="359.67">.</text>
<text x="0.37" y="358.34">+</text>
<text x="458.60" y="178.78">.</text>
<text x="232.89" y="275.17">.</text>
<text x="16.02" y="123.45">.</text>
<text x="101.59" y="72.89">*</text>
<text x="280.08" y="336.79">+</text>
<text x="124.37" y="474.63">+</text>
<text x="298.72" y="272.43">.</text>
<text x="142.70" y="257.89">+</text>
<text x="74.39" y="50.97">.</text>
<text x="57.10" y="478.16">.</text>
<text x="382.40" y="333.26">+</text>
<text x="72.34" y="470.23">+</text>
<text x="483.87" y="294.98">+</text>
<text x="15.56" y="272.72">.</text>
<text x="275.29" y="438.19">+</text>
<text x="89.79" y="50.41">+</text>
<text x="269.56" y="48.28">+</text>
<text x="402.91" y="185.49">+</text>
<text x="454.21" y="30.38">+</text>
<text x="4.40" y="293.57">+</text>
<text x="303.07" y="76.00">.</text>
<text x="249.71" y="340.01">.</text>
<text x="439.27" y="49.93">.</text>
<text x="421.51" y="250.14">+</text>
<text x="177.29" y="251.39">+</text>
<text x="156.63" y="214.89">.</text>
<text x="276.87" y="27.31">+</text>
<text x="479.29" y="200.84">.</text>
<text x="8.08" y="304.65">.</text>
<text x="8.45" y="270.08">.</text>
<text x="121.41" y="76.32">.</text>
<text x="148.69" y="238.59">*</text>
<text x="489.25" y="164.15">+</text>
<text x="443.88" y="469.81">.</text>
<text x="3.28" y="423.59">.</text>
<text x="91.07" y="48.63">*</text>
<text x="71.80" y="402.58">.</text>
<text x="328.91" y="463.57">.</text>
<text x="154.30" y="258.80">.</text>
<text x="125.70" y="155.20">*</text>
<text x="490.25" y="139.74">.</text>
<text x="221.94" y="311.43">+</text>
<text x="292.86" y="231.10">+</text>
<text x="163.38" y="375.13">+</text>
<text x="441.40" y="89.36">.</text>
<text x="361.84" y="422.91">.</text>
<text x="252.44" y="56.89">+</text>
<text x="5.56" y="46.63">.</text>
<text x="472.16" y="392.89">.</text>
<text x="39.05" y="15.39">*</text>
<text x="290.91" y="431.90">.</text>
<text x="366.66" y="391.24">+</text>
<text x="238.04" y="274.55">.</text>
<text x="288.77" y="306.75">*</text>
<text x="189.07" y="237.50">+</text>
<text x="499.92" y="296.53">.</text>
<text x="56.42" y="41.27">+</text>
<text x="486.91" y="49.34">+</text>
<text x="278.47" y="191.60">.</text>
<text x="345.02" y="129.47">.</text>
<text x="101.40" y="113.74">.</text>
<text x="467.33" y="65.40">.</text>
<text x="21.68" y="418.60">.</text>

</svg>