
<svg viewBox="0 0 500 500" xmlns="http://www.w.org/2000/svg" width="100%" height="100%" style="background-color: #0a0a14; font-family: 'Courier New', Courier, monospace;">
    <style>
        text { fill: #aaa; font-size: 10px; text-anchor: middle; dominant-baseline: middle; }
    </style>
    <text x="13.77" y="365.77">+</text>
<text x="268.50" y="122.70">.</text>
<text x="127.32" y="398.69">+</text>
<text x="161.87" y="247.14">.</text>
<text x="77.17" y="475.42">*</text>
<text x="425.68" y="493.05">*</text>
<text x="376.57" y="191.06">.</text>
<text x="79.29" y="38.55">.</text>
<text x="197.69" y="298.17">.</text>
<text x="347.86" y="451.66">+</text>
<text x="36.37" y="167.37">*</text>
<text x="263.08" y="210.60">+</text>
<text x="330.72" y="418.75">*</text>
<text x="27.82" y="329.48">.</text>
<text x="443.29" y="335.68">+</text>
<text x="55.04" y="251.92">.</text>
<text x="479.64" y="482.29">.</text>
<text x="161.81" y="274.86">.</text>
<text x="438.99" y="111.82">+</text>
<text x="95.18" y="480.75">.</text>
<text x="158.49" y="397.45">.</text>
<text x="240.98" y="83.30">+</text>
<text x="325.91" y="210.76">.</text>
<text x="42.96" y="489.52">*</text>
<text x="115.03" y="472.99">.</text>
<text x="337.09" y="351.08">+</text>
<text x="129.45" y="138.01">+</text>
<text x="159.21" y="243.10">.</text>
<text x="289.81" y="182.60">+</text>
<text x="269.85" y="467.39">+</text>
<text x="117.64" y="37.08">.</text>
<text x="415.80" y="268.08">.</text>
<text x="330.84" y="480.32">+</text>
<text x="146.12" y="244.85">.</text>
<text x="489.04" y="467.87">.</text>
<text x="21.45" y="70.61">.</text>
<text x="246.00" y="89.25">+</text>
<text x="360.84" y="45.77">.</text>
<text x="151.09" y="304.72">*</text>
<text x="258.68" y="200.11">.</text>
<text x="283.96" y="41.89">.</text>
<text x="151.00" y="331.73">+</text>
<text x="495.26" y="456.44">+</text>
<text x="302.56" y="146.84">*</text>
<text x="420.01" y="55.87">.</text>
<text x="467.97" y="349.14">+</text>
<text x="452.97" y="62.63">+</text>
<text x="288.96" y="209.59">+</text>
<text x="211.19" y="144.45">.</text>
<text x="37.07" y="416.86">.</text>
<text x="111.72" y="468.90">+</text>
<text x="197.92" y="280.93">.</text>
<text x="73.10" y="368.12">*</text>
<text x="320.90" y="119.39">+</text>
<text x="451.39" y="161.52">.</text>
<text x="410.03" y="37.02">.</text>
<text x="145.70" y="237.59">.</text>
<text x="298.84" y="175.28">.</text>
<text x="18.69" y="460.59">.</text>
<text x="94.60" y="445.44">+</text>
<text x="213.77" y="361.70">.</text>
<text x="55.19" y="276.01">.</text>
<text x="362.71" y="132.39">+</text>
<text x="137.63" y="120.56">.</text>
<text x="244.16" y="168.45">.</text>
<text x="157.71" y="352.91">+</text>
<text x="172.20" y="179.56">*</text>
<text x="235.95" y="411.14">+</text>
<text x="187.21" y="128.67">.</text>
<text x="476.66" y="309.21">.</text>
<text x="364.96" y="353.41">+</text>
<text x="306.59" y="465.23">+</text>
<text x="300.13" y="275.42">.</text>
<text x="137.96" y="129.82">.</text>
<text x="252.64" y="375.33">.</text>
<text x="183.24" y="213.00">+</text>
<text x="146.89" y="469.40">.</text>
<text x="245.63" y="274.22">+</text>
<text x="431.65" y="355.43">.</text>
<text x="133.86" y="450.95">+</text>
<text x="169.14" y="220.08">.</text>
<text x="347.23" y="83.84">.</text>
<text x="417.42" y="260.80">.</text>
<text x="473.29" y="303.57">+</text>
<text x="224.36" y="400.73">+</text>
<text x="152.18" y="272.86">.</text>
<text x="349.68" y="211.62">*</text>
<text x="230.83" y="495.03">+</text>
<text x="473.56" y="435.02">+</text>
<text x="174.22" y="247.45">+</text>
<text x="134.77" y="471.28">*</text>
<text x="341.96" y="467.46">.</text>
<text x="461.91" y="474.94">+</text>
<text x="272.87" y="418.70">+</text>
<text x="238.83" y="129.29">.</text>
<text x="383.96" y="432.87">.</text>
<text x="32.77" y="126.24">.</text>
<text x="401.01" y="345.63">*</text>
<text x="380.53" y="20.83">.</text>
<text x="345.17" y="59.15">.</text>
<text x="95.04" y="116.74">+</text>
<text x="136.54" y="129.28">+</text>
<text x="296.77" y="70.31">+</text>
<text x="112.29" y="272.68">.</text>
<text x="120.24" y="409.46">+</text>
<text x="82.09" y="133.20">.</text>
<text x="142.34" y="162.72">+</text>
<text x="37.48" y="196.59">+</text>
<text x="242.97" y="421.71">*</text>
<text x="284.80" y="365.74">.</text>
<text x="108.51" y="418.82">+</text>
<text x="300.90" y="108.58">.</text>
<text x="156.90" y="131.36">+</text>
<text x="21.44" y="19.01">.</text>
<text x="182.78" y="361.05">*</text>
<text x="232.50" y="221.77">.</text>
<text x="493.80" y="395.25">.</text>
<text x="36.14" y="466.50">*</text>
<text x="493.18" y="454.13">+</text>
<text x="338.35" y="302.14">.</text>
<text x="267.79" y="268.39">.</text>
<text x="340.78" y="85.51">+</text>
<text x="447.36" y="404.17">+</text>
<text x="288.85" y="209.13">*</text>
<text x="42.22" y="77.78">+</text>
<text x="118.90" y="9.33">.</text>
<text x="289.43" y="178.75">.</text>
<text x="419.77" y="227.52">.</text>
<text x="334.61" y="481.66">.</text>
<text x="409.23" y="302.78">.</text>
<text x="95.50" y="469.46">.</text>
<text x="73.26" y="499.46">+</text>
<text x="322.33" y="362.76">.</text>
<text x="480.52" y="81.11">.</text>
<text x="230.31" y="7.14">+</text>
<text x="225.74" y="118.36">.</text>
<text x="476.93" y="36.89">*</text>
<text x="245.02" y="261.88">+</text>
<text x="427.00" y="328.33">.</text>
<text x="218.34" y="220.83">+</text>
<text x="263.71" y="136.15">.</text>
<text x="153.98" y="322.91">.</text>
<text x="67.17" y="293.68">.</text>
<text x="328.33" y="368.78">+</text>
<text x="257.46" y="422.94">+</text>
<text x="46.30" y="411.22">+</text>
<text x="222.73" y="179.06">.</text>
<text x="372.08" y="321.93">.</text>
<text x="322.94" y="439.91">.</text>
<text x="366.38" y="245.73">*</text>
<text x="253.63" y="50.17">+</text>
<text x="490.58" y="111.83">*</text>
<text x="431.85" y="50.03">+</text>
<text x="176.65" y="40.19">*</text>
<text x="192.74" y="1.28">*</text>
<text x="293.80" y="377.34">.</text>
<text x="7.32" y="128.24">.</text>
<text x="241.63" y="26.62">+</text>
<text x="274.31" y="167.06">+</text>
<text x="130.69" y="388.59">+</text>
<text x="153.88" y="188.36">*</text>
<text x="99.84" y="275.69">.</text>
<text x="234.05" y="483.61">.</text>
<text x="297.24" y="69.77">.</text>
<text x="30.96" y="113.58">.</text>
<text x="485.84" y="42.13">.</text>
<text x="207.47" y="398.51">.</text>
<text x="435.41" y="203.27">+</text>
<text x="79.80" y="369.04">.</text>
<text x="442.71" y="31.26">+</text>
<text x="400.10" y="467.27">.</text>
<text x="212.15" y="120.77">*</text>
<text x="474.97" y="191.48">.</text>
<text x="82.34" y="357.09">.</text>
<text x="489.75" y="73.42">.</text>
<text x="122.34" y="382.32">*</text>
<text x="290.11" y="8.89">+</text>
<text x="493.99" y="135.60">*</text>
<text x="27.84" y="115.54">.</text>
<text x="86.82" y="284.32">.</text>
<text x="367.05" y="449.77">.</text>
<text x="8.19" y="446.87">.</text>
<text x="227.66" y="19.44">*</text>
<text x="414.58" y="211.95">.</text>
<text x="112.27" y="183.65">*</text>
<text x="348.63" y="185.28">*</text>
<text x="409.20" y="108.19">.</text>
<text x="394.07" y="115.56">+</text>
<text x="386.19" y="453.36">*</text>
<text x="156.98" y="28.26">+</text>
<text x="177.40" y="197.79">+</text>
<text x="150.79" y="179.02">+</text>
<text x="58.81" y="409.74">.</text>
<text x="221.14" y="164.18">.</text>
<text x="94.81" y="242.51">+</text>
<text x="324.84" y="440.63">.</text>
<text x="118.30" y="415.75">.</text>
<text x="483.41" y="400.81">.</text>
<text x="496.02" y="30.16">.</text>
<text x="488.14" y="364.34">+</text>

</svg>