
<svg viewBox="0 0 500 500" xmlns="http://www.w.org/2000/svg" width="100%" height="100%" style="background-color: #0a0a14; font-family: 'Courier New', Courier, monospace;">
    <style>
        text { fill: #aaa; font-size: 10px; text-anchor: middle; dominant-baseline: middle; }
    </style>
    <text x="327.72" y="264.66">+</text>
<text x="190.09" y="218.39">*</text>
<text x="254.44" y="355.06">+</text>
<text x="166.47" y="456.71">*</text>
<text x="276.38" y="15.26">.</text>
<text x="423.02" y="164.55">+</text>
<text x="180.47" y="45.30">.</text>
<text x="84.64" y="69.18">.</text>
<text x="355.67" y="465.08">*</text>
<text x="37.32" y="320.38">*</text>
<text x="149.41" y="252.29">+</text>
<text x="167.55" y="223.96">+</text>
<text x="212.57" y="416.21">+</text>
<text x="325.73" y="60.90">.</text>
<text x="235.38" y="144.44">.</text>
<text x="117.13" y="398.95">+</text>
<text x="78.44" y="478.42">+</text>
<text x="210.76" y="243.84">.</text>
<text x="266.60" y="54.59">.</text>
<text x="393.95" y="284.74">.</text>
<text x="248.07" y="284.38">*</text>
<text x="320.89" y="208.10">+</text>
<text x="199.63" y="228.11">+</text>
<text x="386.36" y="385.65">+</text>
<text x="210.80" y="379.09">+</text>
<text x="165.43" y="307.88">.</text>
<text x="146.51" y="407.67">+</text>
<text x="117.14" y="389.42">+</text>
<text x="353.24" y="351.65">+</text>
<text x="331.70" y="425.33">.</text>
<text x="20.08" y="403.58">+</text>
<text x="201.75" y="458.53">+</text>
<text x="392.45" y="306.66">.</text>
<text x="135.56" y="72.98">+</text>
<text x="74.82" y="319.88">.</text>
<text x="36.83" y="60.14">.</text>
<text x="430.93" y="119.51">.</text>
<text x="456.18" y="205.40">+</text>
<text x="219.14" y="209.13">+</text>
<text x="336.22" y="461.34">+</text>
<text x="88.49" y="46.01">+</text>
<text x="178.60" y="273.70">*</text>
<text x="2.72" y="50.55">.</text>
<text x="99.20" y="110.34">*</text>
<text x="261.71" y="104.28">.</text>
<text x="250.87" y="430.56">+</text>
<text x="389.82" y="17.10">+</text>
<text x="391.20" y="426.42">+</text>
<text x="308.93" y="142.14">+</text>
<text x="331.04" y="17.56">.</text>
<text x="208.35" y="271.28">+</text>
<text x="303.53" y="492.23">.</text>
<text x="194.01" y="441.93">+</text>
<text x="316.66" y="294.40">+</text>
<text x="222.40" y="370.43">.</text>
<text x="203.60" y="100.47">+</text>
<text x="190.85" y="198.54">+</text>
<text x="295.08" y="184.69">.</text>
<text x="493.12" y="354.00">.</text>
<text x="358.34" y="81.09">+</text>
<text x="462.14" y="290.83">.</text>
<text x="120.53" y="339.03">+</text>
<text x="391.27" y="124.10">.</text>
<text x="422.33" y="238.07">*</text>
<text x="102.57" y="233.58">.</text>
<text x="487.20" y="156.83">.</text>
<text x="385.55" y="81.79">+</text>
<text x="431.64" y="248.56">+</text>
<text x="294.86" y="378.91">+</text>
<text x="165.55" y="130.23">.</text>
<text x="71.96" y="498.82">+</text>
<text x="36.30" y="382.50">.</text>
<text x="254.57" y="484.49">*</text>
<text x="397.65" y="368.78">+</text>
<text x="289.57" y="413.57">+</text>
<text x="304.45" y="30.96">.</text>
<text x="408.90" y="251.36">.</text>
<text x="414.78" y="420.33">+</text>
<text x="280.63" y="316.45">*</text>
<text x="262.10" y="60.17">+</text>
<text x="238.66" y="188.26">+</text>
<text x="300.48" y="452.21">*</text>
<text x="271.04" y="266.14">+</text>
<text x="5.39" y="238.77">+</text>
<text x="285.19" y="332.26">.</text>
<text x="213.67" y="455.10">.</text>
<text x="254.12" y="353.92">+</text>
<text x="241.20" y="33.35">.</text>
<text x="313.15" y="133.22">+</text>
<text x="193.44" y="436.50">+</text>
<text x="4.12" y="440.17">.</text>
<text x="340.66" y="16.64">.</text>
<text x="93.76" y="10.05">+</text>
<text x="429.87" y="135.13">+</text>
<text x="438.49" y="65.09">.</text>
<text x="39.97" y="312.09">.</text>
<text x="81.41" y="85.72">+</text>
<text x="318.04" y="465.04">+</text>
<text x="345.29" y="246.57">+</text>
<text x="311.24" y="342.26">.</text>
<text x="202.91" y="6.89">.</text>
<text x="6.28" y="495.72">+</text>
<text x="177.80" y="385.51">*</text>
<text x="334.90" y="130.91">.</text>
<text x="413.80" y="494.23">+</text>
<text x="72.06" y="6.59">.</text>
<text x="97.79" y="89.78">+</text>
<text x="148.77" y="13.07">*</text>
<text x="280.14" y="247.68">.</text>
<text x="365.93" y="331.86">.</text>
<text x="92.71" y="446.64">+</text>
<text x="408.87" y="291.69">.</text>
<text x="481.93" y="202.07">.</text>
<text x="227.14" y="371.92">.</text>
<text x="484.85" y="141.90">*</text>
<text x="236.31" y="138.19">+</text>
<text x="346.07" y="92.14">+</text>
<text x="417.42" y="268.11">.</text>
<text x="347.30" y="269.96">+</text>
<text x="148.93" y="302.25">+</text>
<text x="86.44" y="221.29">+</text>
<text x="243.65" y="65.20">+</text>
<text x="492.61" y="99.88">+</text>
<text x="233.77" y="311.48">.</text>
<text x="47.39" y="0.92">+</text>
<text x="393.00" y="101.94">+</text>
<text x="105.16" y="361.65">+</text>
<text x="41.94" y="275.16">+</text>
<text x="269.85" y="104.64">.</text>
<text x="214.18" y="357.51">.</text>
<text x="353.18" y="146.28">*</text>
<text x="445.00" y="368.21">.</text>
<text x="145.92" y="221.29">+</text>
<text x="328.88" y="393.85">.</text>
<text x="482.51" y="429.35">.</text>
<text x="494.97" y="163.86">+</text>
<text x="305.45" y="31.63">.</text>
<text x="6.15" y="476.57">*</text>
<text x="352.68" y="352.95">+</text>
<text x="355.07" y="366.76">*</text>
<text x="339.62" y="230.70">.</text>
<text x="59.70" y="361.36">+</text>
<text x="196.77" y="270.66">+</text>
<text x="200.57" y="369.68">+</text>
<text x="227.97" y="452.96">.</text>
<text x="5.44" y="282.40">+</text>
<text x="146.91" y="164.38">+</text>
<text x="373.06" y="217.04">+</text>
<text x="370.36" y="172.84">+</text>
<text x="303.30" y="292.71">+</text>
<text x="100.51" y="161.61">+</text>
<text x="403.12" y="47.69">*</text>
<text x="111.08" y="333.93">*</text>
<text x="469.79" y="164.85">.</text>
<text x="182.41" y="299.06">+</text>
<text x="60.19" y="147.06">+</text>
<text x="9.44" y="464.16">+</text>
<text x="293.16" y="383.59">.</text>
<text x="371.82" y="253.53">+</text>
<text x="48.55" y="284.82">.</text>
<text x="388.12" y="428.87">+</text>
<text x="487.53" y="92.08">*</text>
<text x="411.37" y="314.73">+</text>
<text x="238.00" y="424.32">.</text>
<text x="416.36" y="124.60">+</text>
<text x="364.53" y="431.83">+</text>
<text x="236.37" y="111.15">.</text>
<text x="96.46" y="216.70">.</text>
<text x="426.63" y="223.96">*</text>
<text x="76.69" y="427.87">.</text>
<text x="97.56" y="119.74">+</text>
<text x="185.06" y="377.98">.</text>
<text x="178.89" y="139.51">+</text>
<text x="472.67" y="6.84">.</text>
<text x="15.61" y="301.70">+</text>
<text x="319.50" y="285.32">.</text>
<text x="133.40" y="242.24">.</text>
<text x="189.76" y="431.69">.</text>
<text x="367.16" y="414.32">.</text>
<text x="8.19" y="170.94">+</text>
<text x="364.87" y="432.36">*</text>
<text x="395.85" y="336.52">.</text>
<text x="475.24" y="218.44">.</text>
<text x="231.04" y="458.27">*</text>
<text x="170.49" y="138.27">+</text>
<text x="37.83" y="139.88">.</text>
<text x="317.68" y="149.55">+</text>
<text x="444.74" y="356.85">.</text>
<text x="451.30" y="228.41">.</text>
<text x="301.02" y="210.75">.</text>
<text x="86.75" y="117.88">.</text>
<text x="274.45" y="135.17">*</text>
<text x="406.60" y="312.01">.</text>
<text x="91.37" y="379.36">.</text>
<text x="265.28" y="352.79">.</text>
<text x="230.19" y="460.49">+</text>
<text x="138.77" y="292.57">*</text>
<text x="242.25" y="131.20">+</text>
<text x="391.73" y="366.52">+</text>
<text x="241.27" y="217.38">+</text>
<text x="88.90" y="243.43">*</text>
<text x="106.21" y="476.90">.</text>
<text x="103.93" y="244.61">.</text>
<text x="58.04" y="379.32">*</text>
<text x="465.92" y="125.09">+</text>
<text x="419.04" y="213.17">.</text>
<text x="254.50" y="123.57">.</text>
<text x="385.12" y="180.38">*</text>

</svg>