
<svg viewBox="0 0 500 500" xmlns="http://www.w.org/2000/svg" width="100%" height="100%" style="background-color: #0a0a14; font-family: 'Courier New', Courier, monospace;">
    <style>
        text { fill: #aaa; font-size: 10px; text-anchor: middle; dominant-baseline: middle; }
    </style>
    <text x="322.70" y="497.53">.</text>
<text x="486.26" y="284.85">.</text>
<text x="449.49" y="219.44">.</text>
<text x="435.25" y="447.98">.</text>
<text x="374.06" y="399.04">.</text>
<text x="160.34" y="399.23">.</text>
<text x="130.03" y="276.29">.</text>
<text x="469.55" y="439.36">.</text>
<text x="144.69" y="383.63">.</text>
<text x="465.97" y="111.87">+</text>
<text x="432.51" y="235.55">+</text>
<text x="276.04" y="473.89">.</text>
<text x="380.83" y="258.13">+</text>
<text x="372.61" y="432.13">.</text>
<text x="212.18" y="116.44">*</text>
<text x="403.24" y="462.28">+</text>
<text x="473.44" y="329.13">+</text>
<text x="214.00" y="36.78">+</text>
<text x="306.83" y="248.53">+</text>
<text x="407.79" y="321.37">+</text>
<text x="429.41" y="47.64">.</text>
<text x="160.24" y="429.52">+</text>
<text x="307.09" y="39.77">.</text>
<text x="264.50" y="48.12">.</text>
<text x="84.58" y="204.71">+</text>
<text x="163.18" y="72.57">+</text>
<text x="79.81" y="162.56">+</text>
<text x="77.06" y="24.53">+</text>
<text x="285.50" y="217.17">.</text>
<text x="189.46" y="256.99">*</text>
<text x="352.09" y="67.64">.</text>
<text x="144.91" y="8.28">+</text>
<text x="201.57" y="35.40">.</text>
<text x="177.85" y="97.33">.</text>
<text x="423.35" y="68.39">.</text>
<text x="378.50" y="295.27">+</text>
<text x="132.47" y="12.88">.</text>
<text x="474.07" y="249.51">+</text>
<text x="190.41" y="264.41">+</text>
<text x="285.77" y="455.36">.</text>
<text x="12.19" y="257.49">.</text>
<text x="105.82" y="336.53">.</text>
<text x="259.46" y="126.02">+</text>
<text x="115.23" y="297.49">*</text>
<text x="155.89" y="158.42">+</text>
<text x="293.75" y="363.93">+</text>
<text x="177.70" y="173.06">.</text>
<text x="438.86" y="18.43">+</text>
<text x="349.62" y="246.69">+</text>
<text x="252.29" y="461.75">+</text>
<text x="457.05" y="344.24">+</text>
<text x="97.08" y="329.85">+</text>
<text x="4.24" y="151.13">.</text>
<text x="311.49" y="285.12">+</text>
<text x="98.84" y="53.57">+</text>
<text x="39.19" y="151.93">.</text>
<text x="65.34" y="27.51">+</text>
<text x="416.79" y="205.28">*</text>
<text x="66.50" y="294.72">.</text>
<text x="463.99" y="308.87">.</text>
<text x="408.66" y="220.77">+</text>
<text x="319.99" y="40.83">.</text>
<text x="486.21" y="350.76">.</text>
<text x="305.01" y="11.28">.</text>
<text x="224.77" y="370.99">+</text>
<text x="166.06" y="445.49">*</text>
<text x="424.50" y="73.39">.</text>
<text x="173.96" y="236.78">+</text>
<text x="122.97" y="475.71">+</text>
<text x="56.16" y="188.14">+</text>
<text x="446.36" y="41.43">.</text>
<text x="344.44" y="230.44">.</text>
<text x="364.02" y="417.30">*</text>
<text x="466.56" y="404.21">+</text>
<text x="66.43" y="480.99">+</text>
<text x="158.88" y="400.51">+</text>
<text x="36.43" y="353.67">+</text>
<text x="186.37" y="143.78">*</text>
<text x="473.69" y="93.88">.</text>
<text x="473.75" y="154.74">.</text>
<text x="218.23" y="201.52">+</text>
<text x="220.40" y="456.12">+</text>
<text x="44.29" y="243.05">+</text>
<text x="100.09" y="412.80">+</text>
<text x="265.11" y="30.36">.</text>
<text x="63.73" y="53.00">*</text>
<text x="209.13" y="487.34">+</text>
<text x="49.80" y="154.58">.</text>
<text x="476.90" y="9.18">+</text>
<text x="50.42" y="210.52">.</text>
<text x="489.53" y="282.26">.</text>
<text x="433.56" y="226.77">*</text>
<text x="13.71" y="394.27">.</text>
<text x="191.99" y="256.25">.</text>
<text x="417.44" y="22.53">.</text>
<text x="9.14" y="98.25">.</text>
<text x="303.01" y="362.66">.</text>
<text x="67.54" y="56.19">.</text>
<text x="272.01" y="175.00">+</text>
<text x="454.43" y="449.28">.</text>
<text x="344.86" y="108.93">.</text>
<text x="108.57" y="200.83">.</text>
<text x="153.49" y="154.74">*</text>
<text x="412.00" y="236.27">.</text>
<text x="423.38" y="23.07">+</text>
<text x="284.42" y="486.70">.</text>
<text x="338.41" y="344.82">+</text>
<text x="8.33" y="285.43">.</text>
<text x="210.88" y="482.18">+</text>
<text x="408.44" y="354.53">+</text>
<text x="173.50" y="251.05">.</text>
<text x="83.11" y="355.70">+</text>
<text x="404.87" y="171.84">.</text>
<text x="92.34" y="157.10">.</text>
<text x="146.40" y="31.69">.</text>
<text x="2.78" y="128.63">.</text>
<text x="15.33" y="491.27">+</text>
<text x="316.00" y="224.25">+</text>
<text x="124.99" y="149.04">+</text>
<text x="22.68" y="20.90">.</text>
<text x="262.35" y="471.69">.</text>
<text x="470.08" y="121.59">.</text>
<text x="238.54" y="377.01">.</text>
<text x="115.16" y="337.44">+</text>
<text x="40.20" y="453.71">.</text>
<text x="304.07" y="372.56">+</text>
<text x="451.92" y="5.61">+</text>
<text x="450.84" y="122.48">+</text>
<text x="175.59" y="162.56">*</text>
<text x="6.68" y="111.78">+</text>
<text x="330.85" y="216.21">.</text>
<text x="184.11" y="377.95">*</text>
<text x="224.92" y="76.77">+</text>
<text x="177.31" y="444.56">+</text>
<text x="221.80" y="451.51">.</text>
<text x="43.78" y="194.35">.</text>
<text x="317.17" y="127.05">.</text>
<text x="84.13" y="246.86">+</text>
<text x="447.19" y="52.13">+</text>
<text x="116.89" y="350.82">+</text>
<text x="159.03" y="217.75">.</text>
<text x="128.96" y="488.60">.</text>
<text x="233.91" y="149.50">+</text>
<text x="332.61" y="199.81">+</text>
<text x="76.16" y="469.53">.</text>
<text x="407.31" y="121.65">+</text>
<text x="464.91" y="334.59">.</text>
<text x="174.05" y="96.22">.</text>
<text x="348.65" y="234.57">.</text>
<text x="164.08" y="173.22">+</text>
<text x="254.35" y="143.11">+</text>
<text x="198.59" y="236.91">+</text>
<text x="370.51" y="388.30">.</text>
<text x="281.65" y="168.15">+</text>
<text x="185.40" y="469.01">.</text>
<text x="95.20" y="73.36">.</text>
<text x="241.81" y="324.24">.</text>
<text x="310.09" y="176.55">.</text>
<text x="491.72" y="364.25">.</text>
<text x="334.60" y="28.60">.</text>
<text x="375.63" y="96.35">.</text>
<text x="17.57" y="350.74">*</text>
<text x="468.27" y="333.34">.</text>
<text x="224.99" y="171.32">*</text>
<text x="45.02" y="479.53">.</text>
<text x="277.47" y="360.65">*</text>
<text x="333.19" y="76.21">.</text>
<text x="18.70" y="131.13">+</text>
<text x="186.57" y="187.18">+</text>
<text x="18.90" y="439.50">+</text>
<text x="149.41" y="462.77">.</text>
<text x="263.16" y="262.53">+</text>
<text x="255.98" y="376.20">.</text>
<text x="347.92" y="156.68">.</text>
<text x="408.20" y="285.37">.</text>
<text x="224.51" y="220.58">+</text>
<text x="57.38" y="355.17">.</text>
<text x="40.41" y="67.19">.</text>
<text x="239.48" y="303.89">+</text>
<text x="111.61" y="13.87">*</text>
<text x="93.56" y="480.34">.</text>
<text x="466.27" y="495.81">+</text>
<text x="360.01" y="22.01">+</text>
<text x="477.11" y="429.43">+</text>
<text x="51.49" y="448.10">+</text>
<text x="214.83" y="33.61">+</text>
<text x="461.47" y="471.32">*</text>
<text x="326.61" y="209.75">*</text>
<text x="421.46" y="318.22">.</text>
<text x="325.40" y="134.97">+</text>
<text x="473.28" y="122.59">.</text>
<text x="74.06" y="279.38">+</text>
<text x="110.32" y="195.30">.</text>
<text x="395.00" y="255.22">*</text>
<text x="304.11" y="106.89">.</text>
<text x="230.80" y="335.47">.</text>
<text x="110.33" y="402.58">+</text>
<text x="101.25" y="210.70">+</text>
<text x="4.23" y="198.88">.</text>
<text x="192.83" y="373.69">.</text>
<text x="242.07" y="307.73">.</text>
<text x="312.44" y="405.20">+</text>
<text x="408.25" y="212.29">.</text>
<text x="136.62" y="212.00">+</text>
<text x="203.68" y="191.39">+</text>
<text x="328.74" y="482.34">+</text>
<text x="71.60" y="372.79">+</text>
<text x="309.10" y="471.99">+</text>
<text x="481.24" y="261.95">.</text>
<text x="365.90" y="433.84">*</text>

</svg>