
<svg viewBox="0 0 500 500" xmlns="http://www.w.org/2000/svg" width="100%" height="100%" style="background-color: #0a0a14; font-family: 'Courier New', Courier, monospace;">
    <style>
        text { fill: #aaa; font-size: 10px; text-anchor: middle; dominant-baseline: middle; }
    </style>
    <text x="199.38" y="159.27">.</text>
<text x="55.75" y="188.64">.</text>
<text x="368.64" y="74.89">+</text>
<text x="418.53" y="182.98">.</text>
<text x="189.06" y="84.06">.</text>
<text x="17.44" y="144.37">.</text>
<text x="15.32" y="272.40">.</text>
<text x="174.89" y="323.05">+</text>
<text x="405.93" y="253.05">.</text>
<text x="41.13" y="116.21">.</text>
<text x="458.98" y="305.28">+</text>
<text x="149.43" y="361.36">+</text>
<text x="419.35" y="396.64">+</text>
<text x="74.56" y="146.71">+</text>
<text x="47.69" y="88.48">*</text>
<text x="81.56" y="353.50">*</text>
<text x="432.36" y="278.85">+</text>
<text x="173.11" y="210.56">.</text>
<text x="417.79" y="18.47">.</text>
<text x="362.15" y="349.53">.</text>
<text x="273.37" y="172.48">+</text>
<text x="146.88" y="199.33">+</text>
<text x="448.66" y="163.08">*</text>
<text x="177.42" y="483.05">+</text>
<text x="424.98" y="217.80">.</text>
<text x="29.29" y="140.18">+</text>
<text x="79.74" y="350.29">+</text>
<text x="334.32" y="240.47">.</text>
<text x="71.43" y="215.91">+</text>
<text x="393.09" y="386.54">+</text>
<text x="458.52" y="118.33">*</text>
<text x="133.00" y="394.56">*</text>
<text x="282.69" y="76.60">+</text>
<text x="85.77" y="434.94">+</text>
<text x="30.99" y="161.45">+</text>
<text x="108.38" y="489.83">.</text>
<text x="458.34" y="333.29">.</text>
<text x="326.42" y="65.74">+</text>
<text x="286.05" y="291.32">+</text>
<text x="404.69" y="381.24">+</text>
<text x="266.19" y="193.62">.</text>
<text x="119.26" y="222.64">.</text>
<text x="329.21" y="390.36">.</text>
<text x="267.50" y="333.63">.</text>
<text x="247.82" y="17.36">+</text>
<text x="154.47" y="470.37">.</text>
<text x="198.18" y="116.33">+</text>
<text x="461.42" y="479.29">.</text>
<text x="323.70" y="360.12">+</text>
<text x="253.48" y="69.26">*</text>
<text x="430.92" y="161.48">*</text>
<text x="325.21" y="458.73">.</text>
<text x="36.12" y="39.50">+</text>
<text x="407.42" y="95.59">+</text>
<text x="443.27" y="269.70">.</text>
<text x="391.11" y="250.92">.</text>
<text x="106.62" y="420.31">*</text>
<text x="216.62" y="356.67">+</text>
<text x="416.38" y="243.31">.</text>
<text x="104.96" y="176.98">+</text>
<text x="241.95" y="379.64">*</text>
<text x="86.28" y="146.22">+</text>
<text x="263.42" y="250.10">.</text>
<text x="132.06" y="6.24">*</text>
<text x="180.22" y="1.27">+</text>
<text x="494.77" y="453.83">.</text>
<text x="268.61" y="124.43">*</text>
<text x="13.16" y="160.91">.</text>
<text x="115.62" y="290.23">.</text>
<text x="333.61" y="119.38">.</text>
<text x="393.72" y="215.81">.</text>
<text x="220.37" y="139.99">*</text>
<text x="133.00" y="106.24">.</text>
<text x="325.96" y="92.09">+</text>
<text x="93.30" y="25.12">.</text>
<text x="298.22" y="492.07">.</text>
<text x="311.67" y="303.05">+</text>
<text x="138.21" y="77.76">+</text>
<text x="333.89" y="365.92">+</text>
<text x="331.15" y="105.29">.</text>
<text x="121.36" y="24.95">.</text>
<text x="494.37" y="208.97">+</text>
<text x="352.52" y="369.06">.</text>
<text x="272.23" y="125.00">.</text>
<text x="423.12" y="5.94">+</text>
<text x="191.59" y="305.27">.</text>
<text x="203.21" y="225.21">*</text>
<text x="371.49" y="417.18">.</text>
<text x="421.89" y="44.16">.</text>
<text x="112.12" y="490.38">+</text>
<text x="416.17" y="7.05">.</text>
<text x="456.68" y="206.10">.</text>
<text x="40.06" y="76.34">.</text>
<text x="60.07" y="337.71">+</text>
<text x="2.59" y="432.70">.</text>
<text x="172.67" y="284.88">.</text>
<text x="480.56" y="385.78">*</text>
<text x="118.53" y="400.04">.</text>
<text x="28.61" y="227.81">*</text>
<text x="40.05" y="463.30">.</text>
<text x="272.98" y="409.76">+</text>
<text x="104.97" y="219.29">.</text>
<text x="427.93" y="468.48">.</text>
<text x="382.53" y="301.50">.</text>
<text x="56.69" y="480.53">+</text>
<text x="202.29" y="28.76">.</text>
<text x="393.55" y="415.04">+</text>
<text x="88.83" y="243.36">+</text>
<text x="28.23" y="300.00">.</text>
<text x="241.21" y="435.35">+</text>
<text x="451.98" y="25.88">.</text>
<text x="167.74" y="260.85">+</text>
<text x="298.61" y="382.82">+</text>
<text x="315.11" y="364.23">.</text>
<text x="11.07" y="274.14">+</text>
<text x="348.99" y="269.34">+</text>
<text x="213.17" y="398.31">.</text>
<text x="216.11" y="395.03">+</text>
<text x="472.47" y="196.78">.</text>
<text x="168.75" y="495.85">.</text>
<text x="103.76" y="266.33">.</text>
<text x="147.85" y="419.73">.</text>
<text x="221.65" y="67.75">.</text>
<text x="451.55" y="439.78">+</text>
<text x="372.77" y="244.67">+</text>
<text x="343.72" y="54.93">.</text>
<text x="97.26" y="0.56">+</text>
<text x="491.15" y="11.67">+</text>
<text x="231.03" y="401.70">+</text>
<text x="173.34" y="114.94">.</text>
<text x="288.14" y="62.85">+</text>
<text x="13.52" y="78.58">.</text>
<text x="126.90" y="491.07">.</text>
<text x="407.90" y="112.72">+</text>
<text x="435.92" y="85.25">+</text>
<text x="348.05" y="416.75">.</text>
<text x="283.68" y="52.94">.</text>
<text x="128.22" y="51.83">.</text>
<text x="11.54" y="420.57">.</text>
<text x="389.86" y="303.38">+</text>
<text x="389.10" y="320.84">*</text>
<text x="148.59" y="90.76">+</text>
<text x="81.84" y="87.74">+</text>
<text x="254.32" y="495.12">.</text>
<text x="482.61" y="137.16">+</text>
<text x="75.06" y="57.41">*</text>
<text x="330.24" y="68.39">.</text>
<text x="34.93" y="79.34">.</text>
<text x="162.65" y="337.08">*</text>
<text x="330.62" y="77.10">+</text>
<text x="78.69" y="364.56">+</text>
<text x="210.39" y="484.94">.</text>
<text x="334.73" y="403.72">+</text>
<text x="259.60" y="107.68">.</text>
<text x="404.43" y="350.88">+</text>
<text x="3.20" y="331.11">+</text>
<text x="35.75" y="61.99">.</text>
<text x="149.83" y="324.04">+</text>
<text x="363.63" y="318.04">+</text>
<text x="143.92" y="418.26">.</text>
<text x="105.28" y="166.65">*</text>
<text x="37.18" y="105.45">.</text>
<text x="488.61" y="70.75">.</text>
<text x="79.85" y="434.83">*</text>
<text x="464.65" y="304.67">.</text>
<text x="58.20" y="170.59">*</text>
<text x="378.48" y="400.03">.</text>
<text x="91.64" y="286.29">*</text>
<text x="200.58" y="5.83">+</text>
<text x="74.67" y="330.66">+</text>
<text x="196.19" y="130.29">+</text>
<text x="305.06" y="119.50">+</text>
<text x="100.71" y="87.87">.</text>
<text x="31.13" y="402.00">+</text>
<text x="494.09" y="374.18">.</text>
<text x="388.31" y="451.64">.</text>
<text x="205.66" y="426.76">*</text>
<text x="404.29" y="123.08">+</text>
<text x="198.53" y="131.60">.</text>
<text x="315.39" y="148.72">+</text>
<text x="279.14" y="313.92">+</text>
<text x="187.05" y="428.22">+</text>
<text x="327.97" y="158.09">+</text>
<text x="493.06" y="498.19">.</text>
<text x="393.44" y="387.37">+</text>
<text x="191.62" y="208.52">.</text>
<text x="204.39" y="392.15">.</text>
<text x="369.66" y="394.55">.</text>
<text x="272.66" y="97.26">.</text>
<text x="484.35" y="307.78">+</text>
<text x="164.78" y="146.22">.</text>
<text x="304.71" y="165.29">+</text>
<text x="213.73" y="164.05">+</text>
<text x="141.32" y="198.35">.</text>
<text x="481.02" y="1.67">.</text>
<text x="145.14" y="206.38">*</text>
<text x="249.23" y="384.31">+</text>
<text x="302.55" y="20.19">*</text>
<text x="432.43" y="471.88">.</text>
<text x="118.93" y="157.05">.</text>
<text x="466.68" y="76.76">.</text>
<text x="377.74" y="392.47">+</text>

</svg>