
<svg viewBox="0 0 500 500" xmlns="http://www.w.org/2000/svg" width="100%" height="100%" style="background-color: #0a0a14; font-family: 'Courier New', Courier, monospace;">
    <style>
        text { fill: #aaa; font-size: 10px; text-anchor: middle; dominant-baseline: middle; }
    </style>
    <text x="315.26" y="94.96">.</text>
<text x="159.38" y="319.15">+</text>
<text x="395.70" y="290.24">*</text>
<text x="236.12" y="386.62">.</text>
<text x="156.51" y="484.57">.</text>
<text x="139.59" y="434.97">*</text>
<text x="354.48" y="234.82">.</text>
<text x="442.36" y="219.46">*</text>
<text x="495.53" y="303.71">.</text>
<text x="496.44" y="330.35">.</text>
<text x="234.70" y="242.24">.</text>
<text x="440.17" y="166.42">+</text>
<text x="175.54" y="344.26">.</text>
<text x="372.35" y="471.69">+</text>
<text x="216.27" y="110.30">+</text>
<text x="151.89" y="333.21">.</text>
<text x="0.40" y="205.07">.</text>
<text x="77.77" y="397.89">.</text>
<text x="175.08" y="182.14">+</text>
<text x="266.13" y="412.45">.</text>
<text x="153.49" y="310.50">*</text>
<text x="402.53" y="430.47">.</text>
<text x="67.80" y="47.49">+</text>
<text x="290.78" y="403.81">.</text>
<text x="356.54" y="208.18">.</text>
<text x="440.80" y="72.90">+</text>
<text x="243.14" y="283.37">+</text>
<text x="72.65" y="65.64">+</text>
<text x="453.27" y="285.27">.</text>
<text x="437.31" y="305.09">.</text>
<text x="180.76" y="448.97">.</text>
<text x="153.43" y="417.12">*</text>
<text x="125.98" y="211.87">+</text>
<text x="474.90" y="73.61">.</text>
<text x="139.59" y="137.89">+</text>
<text x="477.84" y="379.60">*</text>
<text x="261.70" y="215.54">.</text>
<text x="10.91" y="90.62">.</text>
<text x="266.33" y="410.76">.</text>
<text x="110.78" y="410.80">*</text>
<text x="168.48" y="217.48">*</text>
<text x="431.54" y="191.52">+</text>
<text x="245.89" y="452.41">+</text>
<text x="123.83" y="15.56">.</text>
<text x="101.43" y="353.68">+</text>
<text x="479.85" y="9.92">.</text>
<text x="7.92" y="495.03">.</text>
<text x="311.62" y="432.10">+</text>
<text x="342.92" y="369.67">*</text>
<text x="21.71" y="36.08">+</text>
<text x="250.93" y="470.01">.</text>
<text x="203.07" y="170.49">+</text>
<text x="196.42" y="389.41">+</text>
<text x="452.24" y="186.31">+</text>
<text x="200.47" y="19.65">*</text>
<text x="59.86" y="195.79">.</text>
<text x="220.44" y="399.62">+</text>
<text x="383.91" y="419.88">.</text>
<text x="15.57" y="163.39">+</text>
<text x="285.84" y="256.01">.</text>
<text x="372.90" y="275.38">.</text>
<text x="442.46" y="378.79">+</text>
<text x="88.41" y="316.22">+</text>
<text x="15.91" y="230.43">*</text>
<text x="382.83" y="105.61">+</text>
<text x="25.59" y="120.72">*</text>
<text x="346.86" y="179.16">+</text>
<text x="295.81" y="302.52">+</text>
<text x="480.27" y="330.82">*</text>
<text x="418.29" y="366.57">+</text>
<text x="179.25" y="189.35">+</text>
<text x="319.58" y="77.74">+</text>
<text x="119.25" y="118.10">.</text>
<text x="497.27" y="111.49">+</text>
<text x="98.32" y="129.71">*</text>
<text x="162.42" y="18.25">.</text>
<text x="260.74" y="304.59">+</text>
<text x="478.90" y="457.81">.</text>
<text x="242.76" y="350.52">+</text>
<text x="485.71" y="488.09">*</text>
<text x="452.14" y="165.06">.</text>
<text x="133.76" y="49.23">+</text>
<text x="144.19" y="15.90">*</text>
<text x="1.77" y="225.85">+</text>
<text x="166.11" y="405.66">+</text>
<text x="198.12" y="422.42">.</text>
<text x="486.82" y="441.44">+</text>
<text x="375.04" y="410.21">.</text>
<text x="11.50" y="218.99">+</text>
<text x="91.39" y="437.56">.</text>
<text x="206.32" y="161.60">.</text>
<text x="173.35" y="175.61">.</text>
<text x="53.84" y="68.70">*</text>
<text x="285.82" y="329.05">.</text>
<text x="373.48" y="358.17">.</text>
<text x="414.39" y="141.50">+</text>
<text x="207.43" y="367.54">.</text>
<text x="114.69" y="232.72">+</text>
<text x="299.74" y="387.39">.</text>
<text x="318.77" y="172.63">+</text>
<text x="14.82" y="204.85">+</text>
<text x="414.46" y="454.67">.</text>
<text x="274.20" y="446.59">+</text>
<text x="197.56" y="175.56">.</text>
<text x="488.34" y="268.31">+</text>
<text x="364.24" y="353.37">*</text>
<text x="53.83" y="160.05">.</text>
<text x="306.54" y="12.13">.</text>
<text x="414.11" y="313.24">.</text>
<text x="136.57" y="363.18">+</text>
<text x="371.15" y="492.22">.</text>
<text x="463.73" y="337.71">.</text>
<text x="215.11" y="45.99">+</text>
<text x="438.68" y="263.97">.</text>
<text x="92.51" y="454.94">+</text>
<text x="176.40" y="156.74">+</text>
<text x="226.24" y="103.75">*</text>
<text x="9.73" y="250.17">.</text>
<text x="330.19" y="285.70">*</text>
<text x="139.32" y="466.31">.</text>
<text x="380.79" y="39.45">+</text>
<text x="389.01" y="363.75">.</text>
<text x="238.41" y="126.17">.</text>
<text x="387.39" y="340.18">.</text>
<text x="349.48" y="451.88">+</text>
<text x="178.36" y="330.70">+</text>
<text x="287.73" y="230.41">.</text>
<text x="463.67" y="214.99">+</text>
<text x="47.93" y="79.33">.</text>
<text x="91.34" y="305.94">.</text>
<text x="74.28" y="367.88">+</text>
<text x="474.66" y="363.32">+</text>
<text x="24.99" y="475.85">+</text>
<text x="11.60" y="135.14">+</text>
<text x="218.13" y="133.90">.</text>
<text x="109.17" y="338.91">+</text>
<text x="8.09" y="263.25">.</text>
<text x="30.53" y="498.02">+</text>
<text x="23.02" y="100.12">+</text>
<text x="352.77" y="99.09">.</text>
<text x="268.12" y="239.60">*</text>
<text x="71.09" y="320.56">+</text>
<text x="70.01" y="150.91">.</text>
<text x="396.30" y="433.27">.</text>
<text x="347.83" y="144.11">.</text>
<text x="117.75" y="142.67">.</text>
<text x="275.12" y="299.77">.</text>
<text x="305.11" y="134.13">.</text>
<text x="485.28" y="434.77">.</text>
<text x="387.55" y="21.74">.</text>
<text x="69.26" y="176.88">+</text>
<text x="496.10" y="163.67">*</text>
<text x="62.61" y="259.97">.</text>
<text x="402.01" y="263.60">+</text>
<text x="363.28" y="280.58">.</text>
<text x="349.15" y="72.08">*</text>
<text x="300.45" y="241.28">.</text>
<text x="59.19" y="457.79">+</text>
<text x="327.17" y="276.01">+</text>
<text x="499.60" y="299.41">*</text>
<text x="332.26" y="296.19">*</text>
<text x="82.17" y="153.07">+</text>
<text x="211.69" y="175.27">.</text>
<text x="405.04" y="113.11">+</text>
<text x="397.23" y="110.23">.</text>
<text x="143.77" y="134.01">.</text>
<text x="401.13" y="17.83">.</text>
<text x="488.20" y="416.81">.</text>
<text x="460.67" y="303.65">*</text>
<text x="399.23" y="320.34">*</text>
<text x="88.26" y="107.05">.</text>
<text x="339.57" y="48.26">+</text>
<text x="243.90" y="385.21">*</text>
<text x="326.25" y="217.16">.</text>
<text x="380.42" y="9.44">.</text>
<text x="134.83" y="115.76">+</text>
<text x="332.27" y="422.59">+</text>
<text x="75.17" y="152.86">.</text>
<text x="388.83" y="353.54">+</text>
<text x="75.55" y="437.52">.</text>
<text x="237.35" y="333.05">.</text>
<text x="346.45" y="191.85">.</text>
<text x="210.55" y="226.53">.</text>
<text x="436.64" y="467.25">+</text>
<text x="429.65" y="109.26">.</text>
<text x="185.42" y="145.40">+</text>
<text x="434.14" y="131.00">+</text>
<text x="377.62" y="140.71">+</text>
<text x="497.47" y="11.11">.</text>
<text x="321.28" y="261.63">.</text>
<text x="334.64" y="314.58">*</text>
<text x="294.21" y="400.84">*</text>
<text x="170.33" y="213.29">*</text>
<text x="474.23" y="228.77">+</text>
<text x="100.30" y="477.36">.</text>
<text x="58.48" y="291.37">+</text>
<text x="239.62" y="394.75">.</text>
<text x="259.27" y="99.77">+</text>
<text x="271.93" y="382.18">+</text>
<text x="55.58" y="118.10">.</text>
<text x="330.85" y="126.03">+</text>
<text x="40.83" y="184.26">+</text>
<text x="323.44" y="172.77">+</text>
<text x="156.39" y="175.61">.</text>
<text x="286.12" y="457.60">.</text>
<text x="211.05" y="134.59">*</text>
<text x="430.24" y="453.84">.</text>
<text x="489.04" y="489.75">+</text>
<text x="365.59" y="187.35">+</text>
<text x="343.59" y="465.30">.</text>
<text x="381.91" y="172.93">.</text>
<text x="364.10" y="377.52">.</text>
<text x="486.52" y="392.04">*</text>
<text x="222.77" y="138.99">.</text>
<text x="74.04" y="283.71">+</text>
<text x="250.62" y="315.13">+</text>

</svg>