
<svg viewBox="0 0 500 500" xmlns="http://www.w.org/2000/svg" width="100%" height="100%" style="background-color: #0a0a14; font-family: 'Courier New', Courier, monospace;">
    <style>
        text { fill: #aaa; font-size: 10px; text-anchor: middle; dominant-baseline: middle; }
    </style>
    <text x="150.96" y="438.35">.</text>
<text x="203.32" y="421.50">.</text>
<text x="13.60" y="234.69">.</text>
<text x="311.80" y="169.50">+</text>
<text x="52.80" y="382.45">.</text>
<text x="191.93" y="455.93">.</text>
<text x="442.30" y="294.47">.</text>
<text x="53.18" y="268.49">.</text>
<text x="438.62" y="100.93">*</text>
<text x="2.50" y="190.52">+</text>
<text x="34.85" y="328.94">+</text>
<text x="344.19" y="459.54">.</text>
<text x="125.21" y="213.17">.</text>
<text x="235.59" y="443.70">+</text>
<text x="120.68" y="166.42">.</text>
<text x="398.98" y="337.16">+</text>
<text x="12.72" y="447.67">.</text>
<text x="235.53" y="76.59">.</text>
<text x="245.18" y="176.55">+</text>
<text x="361.22" y="142.74">.</text>
<text x="338.73" y="462.47">.</text>
<text x="355.36" y="226.60">*</text>
<text x="188.81" y="52.64">*</text>
<text x="244.55" y="378.20">.</text>
<text x="93.69" y="489.94">.</text>
<text x="322.83" y="240.78">*</text>
<text x="449.31" y="157.11">+</text>
<text x="460.68" y="11.68">.</text>
<text x="90.86" y="349.08">.</text>
<text x="239.04" y="72.31">+</text>
<text x="479.41" y="364.10">.</text>
<text x="294.94" y="256.15">.</text>
<text x="0.41" y="472.48">.</text>
<text x="480.34" y="67.68">.</text>
<text x="371.94" y="394.25">+</text>
<text x="209.88" y="120.29">*</text>
<text x="269.11" y="203.22">+</text>
<text x="395.41" y="328.79">+</text>
<text x="379.59" y="364.38">+</text>
<text x="213.86" y="479.33">+</text>
<text x="415.02" y="286.91">+</text>
<text x="77.86" y="454.50">.</text>
<text x="59.83" y="280.24">.</text>
<text x="493.04" y="69.96">*</text>
<text x="428.08" y="68.67">+</text>
<text x="190.81" y="174.74">.</text>
<text x="174.64" y="220.50">.</text>
<text x="491.62" y="211.78">.</text>
<text x="11.73" y="383.02">*</text>
<text x="109.56" y="27.70">.</text>
<text x="360.99" y="260.84">.</text>
<text x="2.17" y="47.96">.</text>
<text x="285.59" y="204.12">.</text>
<text x="73.13" y="81.06">+</text>
<text x="81.70" y="322.54">*</text>
<text x="461.20" y="21.08">+</text>
<text x="491.75" y="346.66">+</text>
<text x="69.17" y="45.53">.</text>
<text x="216.10" y="11.51">+</text>
<text x="277.52" y="52.38">*</text>
<text x="97.44" y="210.46">*</text>
<text x="313.46" y="381.35">.</text>
<text x="102.66" y="378.45">.</text>
<text x="321.71" y="67.07">.</text>
<text x="20.67" y="365.84">+</text>
<text x="347.67" y="18.58">*</text>
<text x="351.45" y="302.38">+</text>
<text x="303.93" y="99.61">.</text>
<text x="347.46" y="12.10">+</text>
<text x="87.12" y="172.38">.</text>
<text x="58.90" y="307.98">+</text>
<text x="403.94" y="274.57">+</text>
<text x="401.08" y="19.27">+</text>
<text x="31.67" y="243.12">.</text>
<text x="98.74" y="33.05">+</text>
<text x="156.09" y="353.11">.</text>
<text x="392.16" y="162.10">.</text>
<text x="415.78" y="116.96">.</text>
<text x="109.47" y="52.94">.</text>
<text x="269.78" y="219.61">+</text>
<text x="195.39" y="482.22">+</text>
<text x="23.76" y="204.70">.</text>
<text x="208.82" y="216.22">.</text>
<text x="360.52" y="125.14">+</text>
<text x="406.00" y="125.66">+</text>
<text x="327.61" y="321.69">+</text>
<text x="379.62" y="2.22">+</text>
<text x="209.16" y="108.11">.</text>
<text x="464.36" y="179.31">.</text>
<text x="226.94" y="36.51">.</text>
<text x="333.70" y="360.10">+</text>
<text x="404.55" y="308.20">+</text>
<text x="442.42" y="173.05">.</text>
<text x="28.66" y="301.93">+</text>
<text x="470.07" y="318.49">.</text>
<text x="39.02" y="380.72">.</text>
<text x="268.16" y="238.88">*</text>
<text x="255.35" y="42.77">*</text>
<text x="144.32" y="127.16">+</text>
<text x="236.83" y="121.55">.</text>
<text x="224.53" y="401.28">+</text>
<text x="254.35" y="206.61">+</text>
<text x="44.40" y="37.22">+</text>
<text x="487.27" y="299.58">*</text>
<text x="41.51" y="427.69">+</text>
<text x="28.10" y="436.66">.</text>
<text x="415.93" y="216.49">.</text>
<text x="301.04" y="99.10">.</text>
<text x="175.10" y="366.26">.</text>
<text x="185.87" y="441.94">.</text>
<text x="9.79" y="302.08">+</text>
<text x="348.17" y="89.08">+</text>
<text x="325.03" y="43.35">.</text>
<text x="31.51" y="121.53">+</text>
<text x="167.40" y="154.43">*</text>
<text x="244.98" y="15.62">+</text>
<text x="442.65" y="56.46">.</text>
<text x="67.49" y="374.91">+</text>
<text x="183.11" y="88.37">+</text>
<text x="235.03" y="368.70">.</text>
<text x="368.66" y="288.86">+</text>
<text x="357.67" y="421.75">.</text>
<text x="165.19" y="327.53">.</text>
<text x="371.32" y="278.04">.</text>
<text x="308.31" y="207.56">.</text>
<text x="492.97" y="266.91">.</text>
<text x="376.20" y="380.54">*</text>
<text x="317.01" y="439.70">.</text>
<text x="334.18" y="432.69">+</text>
<text x="495.12" y="190.97">.</text>
<text x="230.16" y="404.53">.</text>
<text x="189.86" y="471.58">.</text>
<text x="285.34" y="367.85">+</text>
<text x="390.39" y="279.43">*</text>
<text x="348.43" y="463.85">+</text>
<text x="425.38" y="353.25">+</text>
<text x="108.10" y="166.78">*</text>
<text x="271.99" y="475.80">+</text>
<text x="24.81" y="119.21">.</text>
<text x="217.74" y="395.77">.</text>
<text x="276.57" y="381.88">.</text>
<text x="324.91" y="270.60">.</text>
<text x="276.81" y="466.30">*</text>
<text x="183.05" y="413.35">.</text>
<text x="313.21" y="238.13">*</text>
<text x="59.60" y="206.92">+</text>
<text x="73.38" y="249.39">.</text>
<text x="143.85" y="177.11">+</text>
<text x="135.06" y="143.32">.</text>
<text x="352.48" y="321.76">.</text>
<text x="247.75" y="333.54">+</text>
<text x="282.97" y="218.84">+</text>
<text x="155.95" y="414.80">.</text>
<text x="95.52" y="81.16">.</text>
<text x="397.53" y="72.70">+</text>
<text x="210.71" y="21.97">.</text>
<text x="126.53" y="134.22">*</text>
<text x="204.77" y="143.45">+</text>
<text x="270.57" y="103.21">+</text>
<text x="37.06" y="154.73">*</text>
<text x="267.54" y="182.15">.</text>
<text x="172.36" y="246.10">*</text>
<text x="273.53" y="74.76">.</text>
<text x="295.03" y="16.23">*</text>
<text x="366.35" y="490.65">+</text>
<text x="378.06" y="454.12">+</text>
<text x="180.34" y="498.82">*</text>
<text x="241.74" y="94.40">.</text>
<text x="174.20" y="126.32">.</text>
<text x="486.50" y="190.65">.</text>
<text x="159.46" y="446.10">.</text>
<text x="168.46" y="30.70">.</text>
<text x="150.78" y="499.20">.</text>
<text x="484.84" y="305.84">+</text>
<text x="296.02" y="240.45">.</text>
<text x="71.04" y="242.01">+</text>
<text x="45.09" y="188.00">+</text>
<text x="12.32" y="460.42">*</text>
<text x="228.85" y="357.84">.</text>
<text x="306.58" y="229.24">+</text>
<text x="230.29" y="443.32">+</text>
<text x="458.33" y="427.18">+</text>
<text x="344.68" y="136.96">+</text>
<text x="156.11" y="131.65">*</text>
<text x="150.57" y="95.51">+</text>
<text x="436.12" y="87.75">+</text>
<text x="8.43" y="409.30">+</text>
<text x="335.50" y="217.75">+</text>
<text x="140.37" y="396.95">.</text>
<text x="108.53" y="466.61">*</text>
<text x="368.41" y="364.40">+</text>
<text x="139.97" y="151.32">*</text>
<text x="438.30" y="294.18">.</text>
<text x="275.66" y="132.69">.</text>
<text x="251.40" y="317.93">*</text>
<text x="25.71" y="16.09">+</text>
<text x="285.05" y="6.52">*</text>
<text x="317.02" y="152.52">+</text>
<text x="5.19" y="467.11">.</text>
<text x="246.33" y="266.41">+</text>
<text x="247.42" y="292.28">.</text>
<text x="246.45" y="141.41">+</text>
<text x="136.85" y="81.88">+</text>
<text x="411.07" y="31.88">.</text>
<text x="156.93" y="299.30">+</text>
<text x="403.29" y="200.84">*</text>
<text x="346.60" y="428.42">+</text>
<text x="155.49" y="455.32">*</text>
<text x="136.33" y="108.75">.</text>
<text x="65.88" y="238.27">.</text>
<text x="440.14" y="116.55">*</text>

</svg>