
<svg viewBox="0 0 500 500" xmlns="http://www.w.org/2000/svg" width="100%" height="100%" style="background-color: #0a0a14; font-family: 'Courier New', Courier, monospace;">
    <style>
        text { fill: #aaa; font-size: 10px; text-anchor: middle; dominant-baseline: middle; }
    </style>
    <text x="182.04" y="327.50">*</text>
<text x="498.44" y="17.17">+</text>
<text x="461.92" y="467.24">.</text>
<text x="300.01" y="46.39">+</text>
<text x="145.88" y="13.51">.</text>
<text x="96.23" y="452.64">+</text>
<text x="4.57" y="278.69">*</text>
<text x="441.54" y="10.00">.</text>
<text x="380.10" y="300.97">.</text>
<text x="273.08" y="430.20">+</text>
<text x="223.36" y="289.99">.</text>
<text x="221.72" y="393.87">.</text>
<text x="268.61" y="83.21">+</text>
<text x="128.66" y="464.74">.</text>
<text x="90.28" y="80.94">+</text>
<text x="113.36" y="364.51">+</text>
<text x="27.01" y="130.43">+</text>
<text x="481.31" y="280.81">+</text>
<text x="403.72" y="493.67">.</text>
<text x="286.38" y="190.27">.</text>
<text x="261.29" y="389.78">.</text>
<text x="49.00" y="113.98">.</text>
<text x="377.54" y="405.30">.</text>
<text x="60.13" y="97.00">+</text>
<text x="184.17" y="400.93">.</text>
<text x="341.00" y="243.33">*</text>
<text x="373.60" y="448.21">.</text>
<text x="330.07" y="342.78">+</text>
<text x="57.23" y="226.38">.</text>
<text x="192.31" y="142.24">+</text>
<text x="167.74" y="9.89">.</text>
<text x="333.31" y="429.96">*</text>
<text x="287.03" y="474.77">.</text>
<text x="179.24" y="243.10">.</text>
<text x="386.22" y="177.47">.</text>
<text x="170.87" y="334.04">.</text>
<text x="48.13" y="220.43">.</text>
<text x="312.60" y="373.79">.</text>
<text x="104.58" y="406.76">.</text>
<text x="262.10" y="264.99">*</text>
<text x="45.96" y="419.97">+</text>
<text x="26.73" y="151.05">+</text>
<text x="411.47" y="107.50">*</text>
<text x="267.98" y="8.23">.</text>
<text x="284.71" y="309.72">.</text>
<text x="227.06" y="401.44">+</text>
<text x="409.77" y="299.84">*</text>
<text x="481.06" y="244.47">*</text>
<text x="108.87" y="218.70">+</text>
<text x="147.42" y="119.93">*</text>
<text x="200.09" y="347.75">.</text>
<text x="104.04" y="222.09">.</text>
<text x="452.90" y="102.39">+</text>
<text x="101.43" y="97.70">+</text>
<text x="285.16" y="388.05">.</text>
<text x="235.83" y="338.20">*</text>
<text x="78.06" y="284.82">+</text>
<text x="72.36" y="76.50">.</text>
<text x="375.32" y="337.11">.</text>
<text x="435.16" y="30.82">+</text>
<text x="188.22" y="140.79">+</text>
<text x="226.78" y="478.26">+</text>
<text x="117.66" y="364.73">.</text>
<text x="442.54" y="272.38">.</text>
<text x="494.55" y="487.33">.</text>
<text x="412.61" y="260.10">+</text>
<text x="62.59" y="138.79">*</text>
<text x="491.66" y="273.11">*</text>
<text x="421.17" y="31.36">*</text>
<text x="58.86" y="126.41">.</text>
<text x="256.39" y="206.63">.</text>
<text x="48.10" y="163.59">.</text>
<text x="319.37" y="267.87">.</text>
<text x="404.33" y="277.35">.</text>
<text x="72.32" y="36.08">*</text>
<text x="94.45" y="110.66">.</text>
<text x="201.73" y="128.53">.</text>
<text x="207.79" y="211.88">.</text>
<text x="426.61" y="131.72">+</text>
<text x="377.90" y="14.79">+</text>
<text x="380.13" y="277.24">.</text>
<text x="440.23" y="207.91">+</text>
<text x="119.63" y="81.41">+</text>
<text x="108.64" y="47.03">+</text>
<text x="269.23" y="128.75">*</text>
<text x="402.93" y="41.55">.</text>
<text x="380.86" y="203.21">+</text>
<text x="297.35" y="103.19">.</text>
<text x="181.32" y="97.23">.</text>
<text x="30.68" y="86.21">.</text>
<text x="232.62" y="426.05">*</text>
<text x="145.40" y="413.85">+</text>
<text x="447.09" y="366.42">+</text>
<text x="54.31" y="23.88">+</text>
<text x="321.11" y="409.94">+</text>
<text x="426.64" y="215.04">.</text>
<text x="150.43" y="168.98">*</text>
<text x="419.26" y="28.67">.</text>
<text x="62.75" y="406.17">+</text>
<text x="276.56" y="291.15">.</text>
<text x="292.01" y="289.22">.</text>
<text x="474.29" y="366.32">+</text>
<text x="498.00" y="227.61">+</text>
<text x="297.45" y="127.70">.</text>
<text x="196.66" y="436.38">*</text>
<text x="130.12" y="139.70">.</text>
<text x="18.09" y="371.25">.</text>
<text x="406.37" y="167.88">+</text>
<text x="253.43" y="472.32">+</text>
<text x="82.23" y="254.44">+</text>
<text x="499.13" y="339.71">+</text>
<text x="483.52" y="482.97">.</text>
<text x="304.95" y="469.16">.</text>
<text x="70.52" y="309.27">+</text>
<text x="87.49" y="90.67">.</text>
<text x="393.23" y="129.48">*</text>
<text x="166.26" y="40.69">*</text>
<text x="181.73" y="130.12">+</text>
<text x="269.37" y="48.59">.</text>
<text x="231.11" y="390.86">.</text>
<text x="297.99" y="393.86">+</text>
<text x="381.67" y="305.13">.</text>
<text x="221.33" y="460.77">.</text>
<text x="95.63" y="307.28">*</text>
<text x="3.63" y="335.75">.</text>
<text x="11.53" y="27.70">.</text>
<text x="379.05" y="301.76">+</text>
<text x="317.41" y="138.18">+</text>
<text x="276.67" y="290.80">+</text>
<text x="471.46" y="412.17">.</text>
<text x="86.48" y="231.85">+</text>
<text x="235.74" y="350.52">+</text>
<text x="358.59" y="9.67">+</text>
<text x="490.92" y="247.02">.</text>
<text x="263.27" y="325.57">+</text>
<text x="315.18" y="107.92">+</text>
<text x="31.67" y="182.78">.</text>
<text x="318.68" y="269.50">.</text>
<text x="421.77" y="465.88">+</text>
<text x="21.92" y="471.27">.</text>
<text x="369.62" y="132.25">+</text>
<text x="158.39" y="390.72">.</text>
<text x="494.82" y="210.17">*</text>
<text x="326.56" y="159.53">+</text>
<text x="478.63" y="404.19">+</text>
<text x="460.52" y="19.16">.</text>
<text x="357.55" y="291.93">+</text>
<text x="10.65" y="181.26">.</text>
<text x="307.18" y="163.98">.</text>
<text x="336.39" y="269.73">*</text>
<text x="241.37" y="170.99">.</text>
<text x="153.27" y="380.45">.</text>
<text x="434.96" y="475.73">+</text>
<text x="346.90" y="53.14">+</text>
<text x="150.71" y="254.08">.</text>
<text x="344.31" y="182.20">.</text>
<text x="209.82" y="473.60">+</text>
<text x="9.27" y="139.20">+</text>
<text x="257.68" y="76.72">+</text>
<text x="149.19" y="272.80">+</text>
<text x="478.55" y="218.22">+</text>
<text x="468.95" y="449.96">+</text>
<text x="334.55" y="237.41">+</text>
<text x="473.16" y="424.25">.</text>
<text x="173.56" y="238.94">+</text>
<text x="251.44" y="371.90">.</text>
<text x="264.80" y="498.87">+</text>
<text x="321.03" y="120.53">.</text>
<text x="402.34" y="323.49">.</text>
<text x="466.24" y="400.58">+</text>
<text x="121.23" y="215.14">.</text>
<text x="111.35" y="391.02">*</text>
<text x="269.73" y="168.22">.</text>
<text x="418.20" y="238.86">.</text>
<text x="477.53" y="413.12">.</text>
<text x="281.33" y="216.39">+</text>
<text x="365.38" y="391.39">+</text>
<text x="282.56" y="34.81">*</text>
<text x="19.06" y="280.87">+</text>
<text x="147.52" y="401.77">+</text>
<text x="405.06" y="92.98">.</text>
<text x="267.72" y="252.94">+</text>
<text x="154.14" y="473.73">.</text>
<text x="468.70" y="397.81">*</text>
<text x="453.58" y="214.99">+</text>
<text x="247.47" y="411.09">.</text>
<text x="348.40" y="296.90">+</text>
<text x="354.03" y="324.64">+</text>
<text x="117.59" y="262.82">.</text>
<text x="170.02" y="304.95">+</text>
<text x="12.28" y="200.50">.</text>
<text x="324.06" y="291.80">*</text>
<text x="387.65" y="251.06">.</text>
<text x="373.05" y="249.16">+</text>
<text x="261.32" y="97.24">.</text>
<text x="85.16" y="417.98">.</text>

</svg>