
<svg viewBox="0 0 500 500" xmlns="http://www.w.org/2000/svg" width="100%" height="100%" style="background-color: #0a0a14; font-family: 'Courier New', Courier, monospace;">
    <style>
        text { fill: #aaa; font-size: 10px; text-anchor: middle; dominant-baseline: middle; }
    </style>
    <text x="496.38" y="124.96">*</text>
<text x="119.53" y="474.45">.</text>
<text x="278.97" y="86.19">*</text>
<text x="384.70" y="422.78">+</text>
<text x="105.57" y="469.65">.</text>
<text x="356.22" y="50.41">.</text>
<text x="0.79" y="51.45">+</text>
<text x="435.19" y="464.92">+</text>
<text x="67.34" y="137.37">.</text>
<text x="244.78" y="460.06">+</text>
<text x="170.29" y="245.72">+</text>
<text x="142.59" y="66.89">.</text>
<text x="256.53" y="4.68">.</text>
<text x="250.09" y="52.76">+</text>
<text x="0.54" y="270.66">*</text>
<text x="14.31" y="51.90">+</text>
<text x="362.93" y="46.63">.</text>
<text x="316.02" y="25.17">+</text>
<text x="402.82" y="477.20">+</text>
<text x="181.07" y="58.19">.</text>
<text x="260.27" y="418.67">.</text>
<text x="182.27" y="79.44">.</text>
<text x="259.74" y="129.58">+</text>
<text x="176.89" y="447.09">+</text>
<text x="365.72" y="49.33">+</text>
<text x="403.85" y="385.46">+</text>
<text x="239.32" y="330.95">.</text>
<text x="284.57" y="191.16">.</text>
<text x="353.52" y="161.29">.</text>
<text x="327.88" y="74.20">+</text>
<text x="71.13" y="368.46">*</text>
<text x="491.74" y="498.03">+</text>
<text x="446.56" y="36.85">*</text>
<text x="176.96" y="369.93">.</text>
<text x="202.40" y="412.15">.</text>
<text x="264.70" y="147.51">.</text>
<text x="360.87" y="421.86">+</text>
<text x="32.74" y="130.68">+</text>
<text x="30.07" y="246.47">+</text>
<text x="102.43" y="246.52">+</text>
<text x="337.70" y="445.94">*</text>
<text x="354.63" y="87.29">+</text>
<text x="131.71" y="208.39">+</text>
<text x="165.45" y="90.49">.</text>
<text x="183.74" y="218.41">+</text>
<text x="489.38" y="289.68">+</text>
<text x="37.74" y="222.33">.</text>
<text x="347.48" y="155.60">+</text>
<text x="91.36" y="115.28">+</text>
<text x="390.55" y="366.96">+</text>
<text x="363.02" y="199.45">+</text>
<text x="77.06" y="316.70">+</text>
<text x="260.81" y="262.34">+</text>
<text x="195.54" y="415.15">+</text>
<text x="277.31" y="16.96">+</text>
<text x="430.20" y="77.47">.</text>
<text x="80.40" y="277.62">.</text>
<text x="318.35" y="268.72">+</text>
<text x="270.66" y="132.70">.</text>
<text x="75.35" y="156.24">.</text>
<text x="61.37" y="268.65">.</text>
<text x="284.91" y="447.40">+</text>
<text x="279.75" y="167.16">.</text>
<text x="163.30" y="346.82">+</text>
<text x="457.24" y="200.62">+</text>
<text x="289.20" y="396.94">.</text>
<text x="342.69" y="0.06">.</text>
<text x="283.05" y="336.13">+</text>
<text x="346.10" y="370.18">+</text>
<text x="354.44" y="192.48">.</text>
<text x="297.09" y="233.14">.</text>
<text x="422.18" y="273.72">*</text>
<text x="231.16" y="33.11">.</text>
<text x="488.01" y="263.55">.</text>
<text x="343.09" y="386.11">+</text>
<text x="41.27" y="330.97">*</text>
<text x="325.27" y="40.54">.</text>
<text x="334.33" y="167.47">.</text>
<text x="155.16" y="492.96">.</text>
<text x="251.83" y="118.63">.</text>
<text x="405.25" y="485.90">+</text>
<text x="162.13" y="11.75">*</text>
<text x="198.14" y="177.06">.</text>
<text x="391.78" y="287.38">.</text>
<text x="441.84" y="126.29">.</text>
<text x="48.66" y="393.66">+</text>
<text x="2.60" y="171.75">*</text>
<text x="30.51" y="119.16">*</text>
<text x="35.57" y="341.99">.</text>
<text x="280.68" y="75.69">+</text>
<text x="195.61" y="240.98">.</text>
<text x="258.65" y="300.07">+</text>
<text x="412.40" y="174.25">.</text>
<text x="421.17" y="164.41">.</text>
<text x="49.93" y="82.69">.</text>
<text x="362.60" y="282.61">*</text>
<text x="392.03" y="165.20">.</text>
<text x="204.08" y="8.27">+</text>
<text x="70.48" y="6.95">+</text>
<text x="153.93" y="403.05">.</text>
<text x="370.36" y="454.37">.</text>
<text x="346.08" y="227.41">.</text>
<text x="121.16" y="355.08">.</text>
<text x="118.54" y="33.67">+</text>
<text x="395.46" y="97.67">*</text>
<text x="231.06" y="374.07">*</text>
<text x="27.23" y="257.05">+</text>
<text x="156.78" y="441.67">.</text>
<text x="190.97" y="52.28">.</text>
<text x="461.81" y="269.59">.</text>
<text x="278.80" y="39.77">+</text>
<text x="71.36" y="42.22">+</text>
<text x="371.44" y="289.84">*</text>
<text x="400.81" y="285.45">.</text>
<text x="252.41" y="120.76">.</text>
<text x="393.90" y="409.45">.</text>
<text x="162.14" y="125.62">.</text>
<text x="8.19" y="23.75">+</text>
<text x="479.07" y="330.73">+</text>
<text x="486.94" y="189.68">+</text>
<text x="391.98" y="216.24">+</text>
<text x="41.87" y="351.59">+</text>
<text x="222.53" y="125.44">+</text>
<text x="486.45" y="6.65">.</text>
<text x="11.79" y="177.98">*</text>
<text x="165.60" y="286.69">.</text>
<text x="437.77" y="63.09">+</text>
<text x="461.32" y="193.28">.</text>
<text x="464.09" y="191.51">+</text>
<text x="268.32" y="216.04">+</text>
<text x="452.32" y="217.41">.</text>
<text x="254.54" y="374.50">.</text>
<text x="362.42" y="289.36">.</text>
<text x="298.74" y="138.96">.</text>
<text x="0.83" y="466.07">.</text>
<text x="16.55" y="378.26">.</text>
<text x="198.88" y="198.82">+</text>
<text x="262.96" y="414.69">*</text>
<text x="433.68" y="331.68">.</text>
<text x="323.24" y="312.32">.</text>
<text x="341.07" y="61.75">.</text>
<text x="318.38" y="266.79">.</text>
<text x="391.62" y="307.15">.</text>
<text x="417.77" y="322.98">+</text>
<text x="257.60" y="393.33">*</text>
<text x="258.48" y="437.14">.</text>
<text x="372.14" y="221.49">.</text>
<text x="214.98" y="59.44">+</text>
<text x="179.88" y="144.40">*</text>
<text x="389.19" y="70.68">.</text>
<text x="225.76" y="401.73">+</text>
<text x="458.49" y="283.22">.</text>
<text x="231.03" y="116.84">.</text>
<text x="134.74" y="125.17">.</text>
<text x="330.46" y="173.08">+</text>
<text x="314.04" y="75.18">+</text>
<text x="175.17" y="254.35">.</text>
<text x="37.82" y="205.00">+</text>
<text x="107.22" y="47.39">.</text>
<text x="51.07" y="456.54">.</text>
<text x="405.55" y="156.25">.</text>
<text x="20.00" y="300.45">.</text>
<text x="375.48" y="305.94">+</text>
<text x="209.69" y="86.79">*</text>
<text x="206.71" y="7.73">.</text>
<text x="78.12" y="57.16">.</text>
<text x="16.19" y="349.46">+</text>
<text x="338.57" y="447.94">.</text>
<text x="309.43" y="497.73">.</text>
<text x="214.67" y="55.26">+</text>
<text x="180.42" y="241.18">+</text>
<text x="224.55" y="173.80">.</text>
<text x="71.15" y="117.17">+</text>
<text x="96.07" y="98.44">.</text>
<text x="219.40" y="53.14">+</text>
<text x="304.53" y="145.43">.</text>
<text x="346.28" y="2.24">.</text>
<text x="240.92" y="205.61">+</text>
<text x="415.61" y="382.62">.</text>
<text x="245.15" y="199.42">.</text>
<text x="104.79" y="387.25">.</text>
<text x="196.41" y="398.48">.</text>
<text x="230.31" y="206.34">+</text>
<text x="327.31" y="186.73">*</text>
<text x="31.06" y="218.27">.</text>
<text x="461.36" y="235.06">.</text>
<text x="449.12" y="248.30">.</text>
<text x="81.57" y="292.29">+</text>
<text x="460.12" y="147.87">.</text>
<text x="9.96" y="15.60">.</text>
<text x="421.09" y="303.96">+</text>
<text x="268.73" y="401.67">.</text>
<text x="354.64" y="446.88">.</text>
<text x="92.56" y="367.66">.</text>
<text x="9.58" y="380.63">+</text>
<text x="311.50" y="101.56">+</text>
<text x="188.61" y="119.33">.</text>
<text x="41.29" y="276.85">.</text>
<text x="406.38" y="352.58">.</text>
<text x="43.23" y="310.70">.</text>
<text x="313.66" y="475.22">.</text>
<text x="455.29" y="215.12">+</text>
<text x="84.49" y="145.07">+</text>
<text x="464.06" y="6.85">+</text>
<text x="449.75" y="166.25">.</text>
<text x="51.23" y="57.58">.</text>
<text x="432.95" y="121.35">.</text>
<text x="20.40" y="420.27">.</text>
<text x="431.40" y="146.57">.</text>
<text x="429.42" y="61.37">+</text>
<text x="448.15" y="341.04">+</text>
<text x="397.80" y="295.74">+</text>
<text x="445.44" y="421.21">+</text>
<text x="479.69" y="114.73">.</text>
<text x="444.92" y="442.43">.</text>
<text x="82.55" y="320.64">.</text>

</svg>