
<svg viewBox="0 0 500 500" xmlns="http://www.w.org/2000/svg" width="100%" height="100%" style="background-color: #0a0a14; font-family: 'Courier New', Courier, monospace;">
    <style>
        text { fill: #aaa; font-size: 10px; text-anchor: middle; dominant-baseline: middle; }
    </style>
    <text x="384.97" y="380.85">+</text>
<text x="433.80" y="33.94">.</text>
<text x="280.32" y="467.11">+</text>
<text x="259.06" y="405.42">+</text>
<text x="27.92" y="263.84">.</text>
<text x="220.78" y="155.30">+</text>
<text x="225.38" y="311.54">.</text>
<text x="74.42" y="174.28">*</text>
<text x="58.10" y="248.60">+</text>
<text x="210.95" y="248.73">*</text>
<text x="74.41" y="249.84">.</text>
<text x="401.64" y="322.28">+</text>
<text x="154.52" y="184.02">*</text>
<text x="378.11" y="380.02">*</text>
<text x="483.89" y="124.63">.</text>
<text x="321.14" y="260.81">.</text>
<text x="430.34" y="378.90">.</text>
<text x="107.73" y="356.39">.</text>
<text x="232.22" y="63.48">+</text>
<text x="365.13" y="23.86">+</text>
<text x="431.97" y="287.12">.</text>
<text x="421.45" y="104.19">.</text>
<text x="43.84" y="217.68">*</text>
<text x="248.42" y="237.38">.</text>
<text x="94.69" y="108.19">.</text>
<text x="75.93" y="334.42">*</text>
<text x="12.62" y="252.82">.</text>
<text x="37.53" y="129.44">.</text>
<text x="301.47" y="211.51">.</text>
<text x="275.44" y="402.02">.</text>
<text x="141.71" y="332.80">.</text>
<text x="224.94" y="400.59">.</text>
<text x="120.73" y="462.80">+</text>
<text x="116.22" y="276.09">.</text>
<text x="407.70" y="348.76">.</text>
<text x="340.58" y="288.55">.</text>
<text x="176.74" y="496.31">+</text>
<text x="483.59" y="66.63">.</text>
<text x="189.08" y="126.12">.</text>
<text x="28.17" y="322.38">*</text>
<text x="476.93" y="197.82">+</text>
<text x="464.34" y="138.21">+</text>
<text x="18.60" y="0.55">*</text>
<text x="426.08" y="68.50">+</text>
<text x="138.22" y="138.10">.</text>
<text x="188.82" y="1.12">+</text>
<text x="151.17" y="402.53">+</text>
<text x="70.96" y="90.80">.</text>
<text x="235.14" y="207.02">.</text>
<text x="249.92" y="4.62">+</text>
<text x="109.97" y="251.76">+</text>
<text x="201.70" y="364.72">.</text>
<text x="328.14" y="137.17">+</text>
<text x="407.13" y="274.26">+</text>
<text x="396.43" y="220.09">+</text>
<text x="347.10" y="75.16">.</text>
<text x="249.19" y="199.91">.</text>
<text x="324.85" y="376.61">+</text>
<text x="435.85" y="27.24">+</text>
<text x="113.87" y="383.72">*</text>
<text x="406.09" y="33.64">.</text>
<text x="68.38" y="444.23">*</text>
<text x="493.43" y="113.13">.</text>
<text x="229.59" y="205.83">.</text>
<text x="74.68" y="432.80">+</text>
<text x="395.76" y="9.27">*</text>
<text x="35.26" y="492.99">.</text>
<text x="439.69" y="236.25">+</text>
<text x="130.81" y="7.71">+</text>
<text x="110.57" y="48.19">*</text>
<text x="72.01" y="436.47">+</text>
<text x="23.67" y="496.78">.</text>
<text x="428.15" y="311.43">*</text>
<text x="209.66" y="167.07">*</text>
<text x="148.08" y="2.38">+</text>
<text x="336.38" y="328.18">*</text>
<text x="287.23" y="422.39">.</text>
<text x="79.00" y="28.37">+</text>
<text x="90.39" y="255.37">+</text>
<text x="156.52" y="476.67">.</text>
<text x="342.80" y="428.30">.</text>
<text x="369.51" y="367.28">*</text>
<text x="2.53" y="318.83">.</text>
<text x="135.79" y="40.44">.</text>
<text x="437.48" y="122.81">.</text>
<text x="219.43" y="323.09">+</text>
<text x="234.89" y="188.28">.</text>
<text x="466.66" y="455.21">.</text>
<text x="268.11" y="294.53">+</text>
<text x="366.47" y="229.54">+</text>
<text x="127.69" y="244.50">.</text>
<text x="1.67" y="369.73">.</text>
<text x="118.44" y="184.23">.</text>
<text x="302.58" y="334.48">+</text>
<text x="439.00" y="354.03">.</text>
<text x="460.20" y="94.54">.</text>
<text x="12.92" y="426.03">+</text>
<text x="348.60" y="140.46">.</text>
<text x="238.70" y="354.97">.</text>
<text x="327.97" y="471.56">+</text>
<text x="311.05" y="412.58">.</text>
<text x="234.19" y="62.07">+</text>
<text x="297.45" y="441.53">+</text>
<text x="278.03" y="57.11">+</text>
<text x="260.78" y="396.09">+</text>
<text x="78.11" y="68.81">*</text>
<text x="465.92" y="430.24">.</text>
<text x="126.33" y="113.81">*</text>
<text x="68.48" y="43.72">.</text>
<text x="294.49" y="487.66">+</text>
<text x="470.50" y="456.19">+</text>
<text x="274.30" y="106.51">.</text>
<text x="299.01" y="58.39">*</text>
<text x="301.84" y="222.83">.</text>
<text x="87.85" y="97.38">+</text>
<text x="160.98" y="44.59">*</text>
<text x="33.47" y="336.02">.</text>
<text x="316.83" y="283.91">.</text>
<text x="218.49" y="57.46">+</text>
<text x="436.92" y="137.08">*</text>
<text x="392.44" y="367.22">*</text>
<text x="188.81" y="90.15">.</text>
<text x="134.17" y="230.00">.</text>
<text x="477.10" y="226.26">+</text>
<text x="464.86" y="259.36">.</text>
<text x="463.80" y="113.39">+</text>
<text x="52.46" y="38.84">.</text>
<text x="100.25" y="281.55">*</text>
<text x="403.54" y="9.26">+</text>
<text x="472.07" y="166.02">.</text>
<text x="471.19" y="245.92">+</text>
<text x="323.19" y="346.86">+</text>
<text x="209.89" y="276.09">*</text>
<text x="199.86" y="86.41">+</text>
<text x="62.51" y="216.83">.</text>
<text x="488.46" y="176.65">*</text>
<text x="393.33" y="83.74">+</text>
<text x="235.00" y="355.79">+</text>
<text x="78.35" y="73.27">+</text>
<text x="162.05" y="497.67">+</text>
<text x="1.64" y="224.43">*</text>
<text x="63.16" y="447.11">*</text>
<text x="159.10" y="20.62">.</text>
<text x="447.51" y="2.12">*</text>
<text x="387.57" y="247.51">+</text>
<text x="161.48" y="208.63">*</text>
<text x="473.84" y="138.13">+</text>
<text x="493.73" y="263.27">.</text>
<text x="376.41" y="278.33">.</text>
<text x="40.06" y="383.81">.</text>
<text x="206.15" y="464.27">.</text>
<text x="397.54" y="418.40">*</text>
<text x="355.60" y="230.82">.</text>
<text x="494.13" y="92.35">.</text>
<text x="0.82" y="83.78">.</text>
<text x="163.61" y="443.93">*</text>
<text x="261.04" y="246.36">+</text>
<text x="98.50" y="386.59">+</text>
<text x="157.50" y="17.58">.</text>
<text x="338.72" y="84.86">.</text>
<text x="2.12" y="336.06">*</text>
<text x="225.08" y="224.37">+</text>
<text x="496.55" y="423.50">+</text>
<text x="137.89" y="33.47">+</text>
<text x="490.49" y="406.34">.</text>
<text x="270.34" y="359.34">.</text>
<text x="81.82" y="50.92">.</text>
<text x="255.87" y="24.24">.</text>
<text x="114.21" y="367.13">+</text>
<text x="428.31" y="397.96">+</text>
<text x="73.35" y="303.46">.</text>
<text x="260.42" y="148.55">.</text>
<text x="44.61" y="304.47">*</text>
<text x="131.77" y="390.95">+</text>
<text x="276.04" y="275.62">+</text>
<text x="159.33" y="113.70">+</text>
<text x="297.42" y="218.29">+</text>
<text x="47.76" y="340.64">*</text>
<text x="137.11" y="46.29">*</text>
<text x="239.95" y="16.67">+</text>
<text x="161.31" y="120.73">.</text>
<text x="339.10" y="403.28">.</text>
<text x="318.67" y="484.34">.</text>
<text x="485.18" y="322.01">.</text>
<text x="193.91" y="419.57">.</text>
<text x="420.20" y="405.46">+</text>
<text x="369.41" y="0.58">.</text>
<text x="147.72" y="89.12">+</text>
<text x="472.25" y="448.63">.</text>
<text x="128.29" y="429.72">.</text>
<text x="235.45" y="151.35">.</text>
<text x="450.14" y="388.81">+</text>
<text x="298.27" y="482.42">*</text>
<text x="429.31" y="491.71">.</text>
<text x="426.28" y="422.98">.</text>
<text x="86.10" y="470.04">.</text>
<text x="327.21" y="255.05">*</text>
<text x="432.18" y="252.03">.</text>
<text x="302.04" y="110.46">*</text>
<text x="22.26" y="318.11">+</text>
<text x="459.97" y="379.13">.</text>
<text x="215.51" y="337.73">.</text>
<text x="225.63" y="215.63">+</text>
<text x="195.86" y="3.33">*</text>
<text x="51.42" y="424.73">.</text>
<text x="426.75" y="70.55">+</text>
<text x="255.74" y="101.57">.</text>
<text x="214.99" y="304.04">.</text>
<text x="119.37" y="175.97">.</text>

</svg>