
<svg viewBox="0 0 500 500" xmlns="http://www.w.org/2000/svg" width="100%" height="100%" style="background-color: #0a0a14; font-family: 'Courier New', Courier, monospace;">
    <style>
        text { fill: #aaa; font-size: 10px; text-anchor: middle; dominant-baseline: middle; }
    </style>
    <text x="334.07" y="348.33">+</text>
<text x="324.58" y="492.80">+</text>
<text x="50.79" y="78.95">+</text>
<text x="226.01" y="91.64">*</text>
<text x="210.15" y="33.44">.</text>
<text x="127.32" y="206.52">+</text>
<text x="494.93" y="391.46">+</text>
<text x="135.49" y="281.91">+</text>
<text x="391.28" y="112.44">*</text>
<text x="478.83" y="493.55">+</text>
<text x="454.90" y="276.06">.</text>
<text x="25.45" y="179.17">+</text>
<text x="184.95" y="127.63">+</text>
<text x="230.98" y="168.43">+</text>
<text x="318.16" y="1.29">+</text>
<text x="132.71" y="83.56">*</text>
<text x="358.72" y="401.27">+</text>
<text x="324.51" y="153.21">.</text>
<text x="174.13" y="498.16">+</text>
<text x="477.69" y="142.81">.</text>
<text x="223.23" y="186.09">*</text>
<text x="300.76" y="99.77">.</text>
<text x="313.13" y="255.68">.</text>
<text x="101.16" y="154.20">.</text>
<text x="130.16" y="133.03">.</text>
<text x="473.78" y="184.20">.</text>
<text x="429.74" y="292.89">.</text>
<text x="71.34" y="477.88">.</text>
<text x="4.91" y="155.20">.</text>
<text x="400.95" y="163.16">.</text>
<text x="154.04" y="299.45">+</text>
<text x="207.95" y="108.05">+</text>
<text x="316.18" y="143.93">+</text>
<text x="359.03" y="7.71">+</text>
<text x="100.29" y="393.36">+</text>
<text x="489.83" y="346.74">+</text>
<text x="453.05" y="380.89">+</text>
<text x="198.27" y="6.75">.</text>
<text x="170.25" y="361.76">+</text>
<text x="342.06" y="334.62">+</text>
<text x="234.91" y="21.53">*</text>
<text x="34.76" y="262.93">*</text>
<text x="176.00" y="422.04">.</text>
<text x="122.08" y="302.89">+</text>
<text x="434.38" y="85.95">.</text>
<text x="138.16" y="487.67">+</text>
<text x="70.38" y="496.30">.</text>
<text x="13.32" y="289.51">.</text>
<text x="74.82" y="209.93">+</text>
<text x="133.08" y="407.66">*</text>
<text x="127.92" y="28.67">*</text>
<text x="470.29" y="412.94">+</text>
<text x="310.01" y="288.59">+</text>
<text x="123.54" y="314.69">.</text>
<text x="373.72" y="331.37">+</text>
<text x="2.66" y="371.98">+</text>
<text x="58.77" y="446.28">+</text>
<text x="491.66" y="112.78">.</text>
<text x="75.38" y="483.87">+</text>
<text x="60.03" y="218.84">.</text>
<text x="23.51" y="418.87">.</text>
<text x="64.90" y="89.67">.</text>
<text x="492.52" y="20.49">.</text>
<text x="334.23" y="62.49">*</text>
<text x="3.73" y="304.98">+</text>
<text x="143.71" y="140.53">*</text>
<text x="98.47" y="53.05">.</text>
<text x="416.56" y="30.06">.</text>
<text x="2.62" y="370.23">*</text>
<text x="427.45" y="238.83">.</text>
<text x="187.61" y="111.69">.</text>
<text x="171.26" y="130.10">*</text>
<text x="197.19" y="43.91">*</text>
<text x="271.34" y="434.16">+</text>
<text x="206.89" y="438.15">.</text>
<text x="14.39" y="10.24">.</text>
<text x="392.46" y="256.20">.</text>
<text x="263.79" y="472.87">+</text>
<text x="87.46" y="358.51">*</text>
<text x="105.64" y="330.95">+</text>
<text x="125.17" y="170.55">+</text>
<text x="246.55" y="231.55">+</text>
<text x="189.01" y="277.59">+</text>
<text x="314.99" y="333.61">+</text>
<text x="97.58" y="130.70">+</text>
<text x="129.18" y="288.57">+</text>
<text x="318.73" y="397.81">.</text>
<text x="3.76" y="317.53">+</text>
<text x="154.38" y="18.11">.</text>
<text x="340.89" y="63.77">+</text>
<text x="312.88" y="128.91">.</text>
<text x="218.85" y="402.15">.</text>
<text x="241.77" y="108.66">.</text>
<text x="337.74" y="146.05">+</text>
<text x="170.36" y="454.40">*</text>
<text x="309.54" y="153.88">.</text>
<text x="435.09" y="120.09">.</text>
<text x="193.35" y="351.17">+</text>
<text x="31.72" y="252.19">+</text>
<text x="260.28" y="455.49">+</text>
<text x="487.49" y="265.25">.</text>
<text x="376.62" y="152.86">.</text>
<text x="66.35" y="379.39">*</text>
<text x="129.36" y="23.85">.</text>
<text x="225.31" y="367.15">+</text>
<text x="29.19" y="321.49">+</text>
<text x="30.73" y="209.46">.</text>
<text x="288.73" y="265.32">+</text>
<text x="324.31" y="138.27">.</text>
<text x="400.66" y="313.63">.</text>
<text x="176.27" y="334.61">+</text>
<text x="137.33" y="319.55">+</text>
<text x="325.71" y="89.24">+</text>
<text x="498.25" y="115.68">+</text>
<text x="238.33" y="296.93">.</text>
<text x="274.55" y="463.29">.</text>
<text x="130.07" y="290.41">+</text>
<text x="177.57" y="291.00">+</text>
<text x="400.06" y="58.78">+</text>
<text x="430.52" y="238.79">.</text>
<text x="372.64" y="200.03">.</text>
<text x="27.68" y="3.30">*</text>
<text x="340.34" y="28.31">+</text>
<text x="446.14" y="379.38">+</text>
<text x="124.88" y="303.96">+</text>
<text x="108.22" y="267.63">+</text>
<text x="473.27" y="203.63">.</text>
<text x="375.31" y="140.55">.</text>
<text x="51.18" y="175.08">.</text>
<text x="187.50" y="304.82">*</text>
<text x="363.36" y="22.33">*</text>
<text x="95.37" y="175.65">.</text>
<text x="177.45" y="66.25">.</text>
<text x="76.32" y="340.91">+</text>
<text x="84.81" y="490.16">.</text>
<text x="181.82" y="256.04">+</text>
<text x="142.64" y="184.16">+</text>
<text x="82.65" y="151.42">+</text>
<text x="452.35" y="66.97">+</text>
<text x="194.91" y="408.09">.</text>
<text x="59.07" y="261.83">.</text>
<text x="166.78" y="14.75">+</text>
<text x="154.78" y="380.09">.</text>
<text x="234.29" y="417.15">+</text>
<text x="444.88" y="0.61">*</text>
<text x="318.38" y="156.21">.</text>
<text x="251.70" y="228.35">+</text>
<text x="34.97" y="69.42">+</text>
<text x="422.18" y="60.81">+</text>
<text x="465.92" y="459.83">*</text>
<text x="193.09" y="218.97">+</text>
<text x="265.53" y="276.01">+</text>
<text x="55.51" y="6.95">*</text>
<text x="234.65" y="36.01">+</text>
<text x="230.02" y="416.32">.</text>
<text x="341.37" y="63.54">+</text>
<text x="8.45" y="253.71">.</text>
<text x="176.52" y="111.65">+</text>
<text x="322.26" y="265.01">.</text>
<text x="34.13" y="48.85">.</text>
<text x="308.76" y="109.90">+</text>
<text x="243.56" y="135.78">+</text>
<text x="85.85" y="223.31">.</text>
<text x="254.24" y="464.77">+</text>
<text x="220.34" y="472.78">+</text>
<text x="99.43" y="181.46">.</text>
<text x="145.77" y="237.91">.</text>
<text x="195.44" y="364.95">+</text>
<text x="298.27" y="382.12">+</text>
<text x="226.60" y="241.09">+</text>
<text x="224.39" y="275.52">.</text>
<text x="261.79" y="99.68">*</text>
<text x="410.08" y="387.01">+</text>
<text x="273.18" y="312.89">.</text>
<text x="216.50" y="390.05">*</text>
<text x="81.80" y="490.12">+</text>
<text x="22.58" y="178.56">+</text>
<text x="27.18" y="224.10">+</text>
<text x="481.33" y="196.84">.</text>
<text x="291.22" y="58.87">+</text>
<text x="142.38" y="285.38">.</text>
<text x="482.22" y="39.63">.</text>
<text x="433.49" y="309.99">.</text>
<text x="113.77" y="347.01">.</text>
<text x="402.52" y="416.25">.</text>
<text x="443.66" y="84.54">.</text>
<text x="39.46" y="101.13">*</text>
<text x="57.77" y="149.02">.</text>
<text x="228.46" y="223.30">.</text>
<text x="267.05" y="412.65">+</text>
<text x="96.88" y="286.46">.</text>
<text x="404.73" y="155.25">*</text>
<text x="373.75" y="485.06">.</text>
<text x="435.94" y="89.48">.</text>
<text x="126.66" y="377.27">+</text>
<text x="306.72" y="448.27">.</text>
<text x="151.79" y="237.77">.</text>
<text x="400.29" y="296.65">.</text>
<text x="147.33" y="305.96">+</text>
<text x="287.23" y="264.96">*</text>
<text x="438.31" y="445.65">.</text>
<text x="459.81" y="494.35">+</text>
<text x="167.88" y="337.76">+</text>
<text x="484.61" y="440.12">+</text>
<text x="27.18" y="119.53">+</text>
<text x="319.45" y="178.89">.</text>
<text x="48.60" y="301.11">+</text>
<text x="120.24" y="404.91">.</text>
<text x="244.84" y="295.97">*</text>
<text x="310.85" y="380.34">+</text>
<text x="134.00" y="260.53">.</text>
<text x="330.45" y="282.20">+</text>
<text x="333.75" y="200.48">+</text>

</svg>