
<svg viewBox="0 0 500 500" xmlns="http://www.w.org/2000/svg" width="100%" height="100%" style="background-color: #0a0a14; font-family: 'Courier New', Courier, monospace;">
    <style>
        text { fill: #aaa; font-size: 10px; text-anchor: middle; dominant-baseline: middle; }
    </style>
    <text x="436.66" y="381.70">+</text>
<text x="366.62" y="82.02">+</text>
<text x="446.31" y="171.11">.</text>
<text x="313.04" y="261.19">*</text>
<text x="419.46" y="122.06">+</text>
<text x="319.11" y="278.17">+</text>
<text x="166.56" y="215.35">+</text>
<text x="482.66" y="398.42">+</text>
<text x="216.97" y="379.84">.</text>
<text x="433.26" y="279.06">+</text>
<text x="9.93" y="480.07">+</text>
<text x="70.74" y="355.81">.</text>
<text x="296.16" y="442.06">+</text>
<text x="412.12" y="335.22">*</text>
<text x="54.36" y="170.93">.</text>
<text x="55.45" y="340.04">+</text>
<text x="239.17" y="368.67">+</text>
<text x="111.52" y="214.25">+</text>
<text x="477.27" y="79.43">+</text>
<text x="326.72" y="323.47">.</text>
<text x="306.80" y="403.11">.</text>
<text x="476.79" y="495.70">*</text>
<text x="49.25" y="44.93">.</text>
<text x="22.55" y="130.61">*</text>
<text x="63.98" y="427.61">*</text>
<text x="434.00" y="301.73">+</text>
<text x="24.39" y="201.56">.</text>
<text x="471.01" y="363.99">+</text>
<text x="35.74" y="174.30">.</text>
<text x="456.71" y="232.43">.</text>
<text x="4.22" y="81.29">+</text>
<text x="237.11" y="432.55">.</text>
<text x="167.31" y="81.80">+</text>
<text x="130.36" y="55.00">.</text>
<text x="94.34" y="23.37">.</text>
<text x="343.34" y="441.56">+</text>
<text x="124.03" y="471.10">+</text>
<text x="171.88" y="452.30">.</text>
<text x="434.38" y="398.96">+</text>
<text x="202.70" y="487.03">+</text>
<text x="21.83" y="163.74">*</text>
<text x="294.97" y="254.53">.</text>
<text x="219.42" y="186.88">+</text>
<text x="305.53" y="389.27">.</text>
<text x="63.07" y="19.61">.</text>
<text x="319.07" y="164.02">+</text>
<text x="460.30" y="24.36">*</text>
<text x="43.11" y="129.00">.</text>
<text x="445.80" y="386.74">*</text>
<text x="320.70" y="379.80">+</text>
<text x="348.83" y="89.43">+</text>
<text x="90.76" y="58.96">+</text>
<text x="169.54" y="363.21">+</text>
<text x="62.18" y="80.31">*</text>
<text x="226.31" y="425.82">.</text>
<text x="64.01" y="19.44">.</text>
<text x="39.14" y="333.74">*</text>
<text x="44.95" y="182.35">.</text>
<text x="486.93" y="496.83">.</text>
<text x="124.04" y="353.56">+</text>
<text x="73.27" y="90.94">+</text>
<text x="212.20" y="395.09">.</text>
<text x="99.95" y="182.95">.</text>
<text x="324.60" y="25.58">+</text>
<text x="455.13" y="255.72">.</text>
<text x="208.97" y="428.25">+</text>
<text x="284.34" y="29.88">+</text>
<text x="58.38" y="430.26">.</text>
<text x="51.58" y="67.14">+</text>
<text x="302.60" y="55.29">.</text>
<text x="64.36" y="111.58">*</text>
<text x="310.16" y="346.73">.</text>
<text x="399.84" y="457.69">.</text>
<text x="225.15" y="496.14">.</text>
<text x="284.56" y="409.43">.</text>
<text x="37.07" y="86.54">*</text>
<text x="221.01" y="151.29">+</text>
<text x="496.16" y="355.01">+</text>
<text x="269.92" y="489.16">+</text>
<text x="151.80" y="245.57">*</text>
<text x="278.52" y="273.44">.</text>
<text x="225.61" y="165.73">+</text>
<text x="454.90" y="78.11">+</text>
<text x="478.45" y="323.24">*</text>
<text x="436.83" y="385.44">.</text>
<text x="49.45" y="132.14">.</text>
<text x="303.47" y="201.10">.</text>
<text x="174.81" y="361.51">+</text>
<text x="468.05" y="140.54">.</text>
<text x="70.05" y="349.62">+</text>
<text x="157.06" y="320.69">+</text>
<text x="348.58" y="237.94">*</text>
<text x="219.43" y="352.69">.</text>
<text x="257.67" y="415.45">+</text>
<text x="423.59" y="465.66">.</text>
<text x="135.36" y="446.38">+</text>
<text x="456.29" y="417.93">.</text>
<text x="449.73" y="55.18">+</text>
<text x="12.90" y="493.90">*</text>
<text x="287.50" y="234.63">.</text>
<text x="453.41" y="221.04">.</text>
<text x="100.17" y="72.06">.</text>
<text x="293.41" y="312.98">.</text>
<text x="288.29" y="165.35">+</text>
<text x="469.23" y="477.79">.</text>
<text x="118.21" y="332.84">+</text>
<text x="129.25" y="404.76">+</text>
<text x="122.41" y="310.40">.</text>
<text x="190.43" y="194.04">+</text>
<text x="90.61" y="153.25">.</text>
<text x="272.15" y="421.06">*</text>
<text x="467.99" y="304.66">.</text>
<text x="34.12" y="207.75">+</text>
<text x="288.25" y="372.81">+</text>
<text x="94.78" y="399.43">.</text>
<text x="376.02" y="330.10">+</text>
<text x="72.76" y="477.83">+</text>
<text x="452.12" y="404.67">+</text>
<text x="474.93" y="325.83">.</text>
<text x="5.52" y="320.09">+</text>
<text x="390.23" y="82.07">.</text>
<text x="6.05" y="14.66">+</text>
<text x="430.12" y="476.13">+</text>
<text x="339.03" y="116.05">+</text>
<text x="137.18" y="65.97">+</text>
<text x="461.62" y="301.30">.</text>
<text x="3.48" y="465.00">.</text>
<text x="172.56" y="366.56">.</text>
<text x="278.10" y="67.24">+</text>
<text x="451.85" y="447.27">.</text>
<text x="471.87" y="250.38">+</text>
<text x="454.05" y="407.19">*</text>
<text x="4.94" y="346.28">.</text>
<text x="189.90" y="29.91">+</text>
<text x="229.93" y="460.53">.</text>
<text x="153.14" y="131.03">*</text>
<text x="300.15" y="13.07">.</text>
<text x="77.00" y="192.50">+</text>
<text x="4.47" y="426.59">+</text>
<text x="360.95" y="204.66">+</text>
<text x="182.54" y="280.49">.</text>
<text x="274.41" y="329.68">+</text>
<text x="445.06" y="455.45">.</text>
<text x="345.33" y="451.37">+</text>
<text x="268.74" y="360.36">+</text>
<text x="366.96" y="117.31">+</text>
<text x="261.66" y="121.79">+</text>
<text x="13.29" y="11.65">.</text>
<text x="37.83" y="21.23">*</text>
<text x="355.53" y="368.65">.</text>
<text x="68.61" y="442.34">+</text>
<text x="238.32" y="133.35">.</text>
<text x="382.12" y="168.88">+</text>
<text x="324.38" y="259.96">+</text>
<text x="92.49" y="124.62">+</text>
<text x="186.41" y="351.23">.</text>
<text x="352.39" y="277.85">+</text>
<text x="391.95" y="228.08">+</text>
<text x="217.83" y="298.91">.</text>
<text x="385.81" y="143.15">.</text>
<text x="379.95" y="254.07">*</text>
<text x="144.86" y="167.30">+</text>
<text x="239.97" y="319.33">+</text>
<text x="13.60" y="442.99">*</text>
<text x="249.40" y="237.73">*</text>
<text x="77.26" y="109.90">+</text>
<text x="486.95" y="63.40">.</text>
<text x="3.73" y="438.87">+</text>
<text x="381.29" y="351.83">.</text>
<text x="339.98" y="31.62">.</text>
<text x="371.79" y="158.86">+</text>
<text x="118.24" y="401.24">+</text>
<text x="317.87" y="268.72">.</text>
<text x="34.59" y="371.33">+</text>
<text x="441.22" y="460.69">+</text>
<text x="380.83" y="44.25">+</text>
<text x="181.55" y="257.38">.</text>
<text x="12.22" y="487.04">.</text>
<text x="428.09" y="486.96">.</text>
<text x="8.19" y="218.56">.</text>
<text x="408.98" y="310.60">*</text>
<text x="427.61" y="221.77">.</text>
<text x="92.88" y="168.79">+</text>
<text x="44.14" y="295.34">+</text>
<text x="417.06" y="180.65">+</text>
<text x="10.23" y="318.81">.</text>
<text x="87.98" y="279.43">.</text>
<text x="287.04" y="8.65">+</text>
<text x="159.53" y="349.68">.</text>
<text x="68.90" y="281.83">+</text>
<text x="286.83" y="205.06">+</text>
<text x="164.43" y="50.77">.</text>
<text x="26.12" y="419.47">+</text>
<text x="415.05" y="250.82">.</text>
<text x="339.97" y="255.62">+</text>
<text x="340.22" y="392.17">+</text>
<text x="458.14" y="135.98">+</text>
<text x="465.55" y="84.26">+</text>
<text x="291.41" y="273.42">*</text>
<text x="70.04" y="479.05">+</text>
<text x="299.23" y="235.59">*</text>
<text x="456.84" y="127.00">+</text>

</svg>