
<svg viewBox="0 0 500 500" xmlns="http://www.w.org/2000/svg" width="100%" height="100%" style="background-color: #0a0a14; font-family: 'Courier New', Courier, monospace;">
    <style>
        text { fill: #aaa; font-size: 10px; text-anchor: middle; dominant-baseline: middle; }
    </style>
    <text x="304.30" y="2.39">.</text>
<text x="218.65" y="223.84">+</text>
<text x="428.78" y="282.51">+</text>
<text x="98.67" y="71.04">+</text>
<text x="165.86" y="11.57">.</text>
<text x="274.73" y="82.48">.</text>
<text x="90.43" y="28.15">+</text>
<text x="325.76" y="175.35">.</text>
<text x="379.03" y="349.11">*</text>
<text x="69.87" y="354.09">+</text>
<text x="252.42" y="25.20">.</text>
<text x="138.18" y="237.47">+</text>
<text x="447.94" y="328.01">+</text>
<text x="241.19" y="282.05">.</text>
<text x="476.45" y="267.66">+</text>
<text x="454.13" y="446.26">*</text>
<text x="94.12" y="464.97">+</text>
<text x="484.45" y="26.77">.</text>
<text x="494.17" y="230.11">*</text>
<text x="445.27" y="120.06">.</text>
<text x="215.81" y="277.58">*</text>
<text x="11.68" y="264.89">+</text>
<text x="491.83" y="384.73">.</text>
<text x="333.31" y="38.09">+</text>
<text x="215.00" y="204.74">+</text>
<text x="245.84" y="7.41">*</text>
<text x="476.76" y="324.91">+</text>
<text x="232.92" y="383.36">+</text>
<text x="355.31" y="389.28">+</text>
<text x="404.41" y="56.28">+</text>
<text x="117.35" y="222.99">+</text>
<text x="490.06" y="143.26">+</text>
<text x="423.90" y="323.61">+</text>
<text x="266.07" y="146.33">.</text>
<text x="181.78" y="318.10">.</text>
<text x="143.09" y="488.43">.</text>
<text x="103.91" y="498.68">.</text>
<text x="365.42" y="136.40">.</text>
<text x="337.71" y="179.03">+</text>
<text x="115.80" y="471.04">*</text>
<text x="296.60" y="58.12">*</text>
<text x="204.06" y="219.38">.</text>
<text x="469.25" y="239.04">.</text>
<text x="291.83" y="274.82">.</text>
<text x="198.65" y="166.99">.</text>
<text x="68.45" y="259.49">.</text>
<text x="475.81" y="343.86">.</text>
<text x="464.08" y="466.96">*</text>
<text x="152.48" y="151.87">+</text>
<text x="305.33" y="475.72">+</text>
<text x="266.70" y="462.98">*</text>
<text x="330.35" y="89.71">+</text>
<text x="292.86" y="462.75">+</text>
<text x="498.16" y="63.75">.</text>
<text x="328.37" y="242.53">+</text>
<text x="460.78" y="366.45">+</text>
<text x="19.72" y="473.10">+</text>
<text x="465.83" y="272.64">*</text>
<text x="17.46" y="398.16">*</text>
<text x="63.35" y="211.74">.</text>
<text x="372.72" y="218.70">+</text>
<text x="320.40" y="390.86">.</text>
<text x="202.68" y="139.48">+</text>
<text x="85.30" y="441.46">+</text>
<text x="308.66" y="209.99">.</text>
<text x="210.31" y="185.97">+</text>
<text x="189.98" y="13.67">.</text>
<text x="291.10" y="20.34">+</text>
<text x="216.09" y="19.45">.</text>
<text x="174.55" y="56.83">+</text>
<text x="382.02" y="214.47">*</text>
<text x="150.05" y="215.53">*</text>
<text x="138.37" y="93.88">+</text>
<text x="144.25" y="195.76">+</text>
<text x="314.56" y="116.75">+</text>
<text x="368.86" y="373.25">.</text>
<text x="137.93" y="139.53">+</text>
<text x="239.95" y="271.44">+</text>
<text x="370.58" y="29.28">.</text>
<text x="399.27" y="212.50">+</text>
<text x="270.85" y="204.10">+</text>
<text x="195.46" y="241.52">.</text>
<text x="72.02" y="88.10">+</text>
<text x="33.78" y="196.79">.</text>
<text x="300.24" y="322.02">.</text>
<text x="290.87" y="423.27">+</text>
<text x="75.69" y="52.72">.</text>
<text x="471.41" y="25.34">+</text>
<text x="290.69" y="282.08">*</text>
<text x="184.34" y="358.89">*</text>
<text x="367.43" y="406.65">*</text>
<text x="421.86" y="88.89">*</text>
<text x="441.17" y="27.01">+</text>
<text x="229.56" y="149.91">.</text>
<text x="145.67" y="319.14">.</text>
<text x="134.94" y="259.09">*</text>
<text x="195.10" y="309.96">+</text>
<text x="159.18" y="216.06">+</text>
<text x="375.34" y="2.68">.</text>
<text x="124.59" y="246.72">+</text>
<text x="444.90" y="360.27">+</text>
<text x="13.47" y="227.27">.</text>
<text x="436.59" y="382.21">+</text>
<text x="489.33" y="492.93">*</text>
<text x="409.94" y="15.43">+</text>
<text x="84.51" y="435.33">.</text>
<text x="41.20" y="361.51">.</text>
<text x="363.43" y="167.53">.</text>
<text x="439.12" y="109.49">+</text>
<text x="478.17" y="105.92">.</text>
<text x="33.13" y="56.71">+</text>
<text x="466.04" y="325.87">.</text>
<text x="334.66" y="137.08">+</text>
<text x="231.85" y="386.99">.</text>
<text x="129.01" y="290.21">+</text>
<text x="410.68" y="27.89">.</text>
<text x="250.56" y="16.60">.</text>
<text x="204.12" y="284.85">.</text>
<text x="277.07" y="442.39">*</text>
<text x="143.87" y="465.62">+</text>
<text x="71.31" y="169.23">+</text>
<text x="298.68" y="161.81">.</text>
<text x="253.79" y="111.18">+</text>
<text x="334.16" y="32.32">+</text>
<text x="268.44" y="283.60">+</text>
<text x="292.67" y="112.16">+</text>
<text x="433.68" y="391.99">.</text>
<text x="176.39" y="401.41">.</text>
<text x="97.69" y="380.37">+</text>
<text x="388.26" y="52.99">*</text>
<text x="497.28" y="284.92">.</text>
<text x="188.25" y="28.98">+</text>
<text x="384.65" y="447.50">.</text>
<text x="223.49" y="491.14">+</text>
<text x="139.43" y="285.91">+</text>
<text x="411.87" y="30.74">+</text>
<text x="55.96" y="42.04">.</text>
<text x="280.65" y="38.13">.</text>
<text x="116.46" y="265.19">.</text>
<text x="384.32" y="156.61">.</text>
<text x="136.51" y="4.42">*</text>
<text x="315.88" y="29.95">+</text>
<text x="94.09" y="71.99">+</text>
<text x="479.91" y="41.20">+</text>
<text x="495.51" y="317.26">.</text>
<text x="338.52" y="361.22">+</text>
<text x="303.99" y="123.36">.</text>
<text x="443.92" y="212.74">.</text>
<text x="83.39" y="115.44">.</text>
<text x="62.39" y="393.62">.</text>
<text x="232.91" y="490.13">+</text>
<text x="159.40" y="431.70">.</text>
<text x="420.37" y="258.28">+</text>
<text x="27.24" y="384.55">.</text>
<text x="466.61" y="155.89">+</text>
<text x="84.36" y="470.13">+</text>
<text x="242.16" y="98.83">+</text>
<text x="360.38" y="103.46">.</text>
<text x="115.60" y="387.38">+</text>
<text x="360.02" y="283.09">+</text>
<text x="65.83" y="26.15">.</text>
<text x="60.75" y="53.90">+</text>
<text x="367.23" y="490.43">.</text>
<text x="244.22" y="311.10">+</text>
<text x="486.06" y="251.00">.</text>
<text x="271.26" y="406.32">+</text>
<text x="36.37" y="216.39">.</text>
<text x="322.37" y="229.06">+</text>
<text x="360.43" y="22.28">.</text>
<text x="359.71" y="26.60">.</text>
<text x="205.96" y="179.16">.</text>
<text x="30.50" y="466.62">.</text>
<text x="132.94" y="141.51">.</text>
<text x="245.21" y="443.18">*</text>
<text x="312.08" y="428.01">.</text>
<text x="94.93" y="73.77">.</text>
<text x="68.59" y="378.64">.</text>
<text x="10.97" y="12.17">.</text>
<text x="69.09" y="15.25">.</text>
<text x="61.90" y="385.33">*</text>
<text x="248.56" y="227.61">+</text>
<text x="183.05" y="348.07">+</text>
<text x="338.32" y="95.77">.</text>
<text x="94.65" y="432.01">.</text>
<text x="135.11" y="281.13">.</text>
<text x="487.19" y="23.57">.</text>
<text x="412.30" y="123.43">.</text>
<text x="351.58" y="464.12">.</text>
<text x="454.85" y="66.87">.</text>
<text x="270.13" y="318.15">.</text>
<text x="342.48" y="266.55">+</text>
<text x="89.28" y="75.10">.</text>
<text x="363.71" y="27.20">+</text>
<text x="395.94" y="328.62">.</text>
<text x="104.06" y="83.56">+</text>
<text x="146.69" y="29.22">+</text>
<text x="321.90" y="313.01">.</text>
<text x="126.98" y="320.45">+</text>
<text x="171.43" y="455.93">+</text>
<text x="237.22" y="425.50">.</text>
<text x="448.95" y="112.07">.</text>
<text x="76.87" y="256.08">.</text>
<text x="438.64" y="36.80">+</text>
<text x="58.88" y="482.40">+</text>

</svg>