
<svg viewBox="0 0 500 500" xmlns="http://www.w.org/2000/svg" width="100%" height="100%" style="background-color: #0a0a14; font-family: 'Courier New', Courier, monospace;">
    <style>
        text { fill: #aaa; font-size: 10px; text-anchor: middle; dominant-baseline: middle; }
    </style>
    <text x="85.68" y="470.05">+</text>
<text x="342.86" y="391.89">+</text>
<text x="288.68" y="256.20">+</text>
<text x="43.41" y="160.18">+</text>
<text x="311.20" y="75.86">*</text>
<text x="147.72" y="343.43">.</text>
<text x="327.86" y="220.45">+</text>
<text x="216.74" y="304.30">.</text>
<text x="92.44" y="90.36">.</text>
<text x="45.35" y="485.40">.</text>
<text x="395.96" y="272.23">.</text>
<text x="114.01" y="79.28">.</text>
<text x="203.19" y="236.86">+</text>
<text x="325.05" y="400.49">.</text>
<text x="103.72" y="437.01">.</text>
<text x="195.65" y="176.83">.</text>
<text x="125.75" y="411.73">.</text>
<text x="184.62" y="307.91">+</text>
<text x="342.82" y="218.40">.</text>
<text x="212.02" y="350.71">.</text>
<text x="230.30" y="4.40">+</text>
<text x="133.19" y="50.02">.</text>
<text x="180.37" y="325.56">+</text>
<text x="31.42" y="440.98">.</text>
<text x="405.28" y="216.55">+</text>
<text x="136.86" y="11.33">.</text>
<text x="27.93" y="130.08">*</text>
<text x="203.58" y="484.05">+</text>
<text x="94.53" y="186.80">.</text>
<text x="379.29" y="366.44">.</text>
<text x="77.45" y="73.99">.</text>
<text x="407.43" y="56.77">.</text>
<text x="32.24" y="42.41">.</text>
<text x="178.05" y="333.08">+</text>
<text x="131.86" y="1.94">.</text>
<text x="431.02" y="336.56">+</text>
<text x="320.20" y="221.49">.</text>
<text x="230.41" y="399.89">+</text>
<text x="321.13" y="85.74">.</text>
<text x="368.34" y="147.61">.</text>
<text x="78.52" y="76.57">.</text>
<text x="177.00" y="343.55">+</text>
<text x="138.19" y="441.93">+</text>
<text x="16.75" y="6.27">.</text>
<text x="304.77" y="303.02">.</text>
<text x="302.80" y="250.77">.</text>
<text x="102.94" y="428.74">.</text>
<text x="91.14" y="357.78">+</text>
<text x="346.97" y="212.03">+</text>
<text x="207.08" y="98.33">+</text>
<text x="402.82" y="483.60">.</text>
<text x="270.62" y="105.99">.</text>
<text x="91.16" y="27.85">.</text>
<text x="352.99" y="255.40">+</text>
<text x="156.14" y="235.86">+</text>
<text x="179.44" y="143.89">+</text>
<text x="80.32" y="27.89">.</text>
<text x="244.95" y="284.45">.</text>
<text x="338.48" y="135.18">+</text>
<text x="437.28" y="394.98">+</text>
<text x="201.75" y="161.21">.</text>
<text x="394.70" y="143.28">+</text>
<text x="142.99" y="187.67">.</text>
<text x="179.59" y="447.04">.</text>
<text x="51.76" y="307.94">.</text>
<text x="329.39" y="365.17">+</text>
<text x="48.63" y="384.53">+</text>
<text x="190.87" y="99.64">+</text>
<text x="210.07" y="174.07">.</text>
<text x="369.98" y="273.66">+</text>
<text x="3.30" y="292.43">.</text>
<text x="77.25" y="165.19">+</text>
<text x="204.55" y="56.43">+</text>
<text x="491.63" y="403.74">+</text>
<text x="487.13" y="325.84">+</text>
<text x="317.51" y="82.12">.</text>
<text x="318.57" y="218.82">.</text>
<text x="36.15" y="89.34">+</text>
<text x="219.33" y="444.99">.</text>
<text x="368.35" y="142.30">.</text>
<text x="225.17" y="349.35">+</text>
<text x="292.52" y="239.62">.</text>
<text x="92.14" y="220.11">+</text>
<text x="130.67" y="332.16">.</text>
<text x="138.56" y="205.24">.</text>
<text x="145.05" y="195.81">.</text>
<text x="434.30" y="99.01">.</text>
<text x="227.45" y="454.16">.</text>
<text x="240.05" y="439.43">.</text>
<text x="355.19" y="436.70">+</text>
<text x="36.15" y="165.99">+</text>
<text x="471.52" y="168.45">+</text>
<text x="330.68" y="10.25">.</text>
<text x="394.38" y="419.98">+</text>
<text x="133.79" y="350.66">+</text>
<text x="420.19" y="233.31">+</text>
<text x="251.19" y="120.96">*</text>
<text x="426.40" y="229.63">+</text>
<text x="8.12" y="92.17">.</text>
<text x="379.30" y="485.40">.</text>
<text x="401.40" y="429.74">.</text>
<text x="495.18" y="107.45">.</text>
<text x="443.18" y="450.12">*</text>
<text x="148.83" y="164.46">+</text>
<text x="435.08" y="75.96">.</text>
<text x="329.83" y="155.10">*</text>
<text x="179.25" y="195.66">.</text>
<text x="110.95" y="368.34">.</text>
<text x="401.87" y="179.89">.</text>
<text x="311.77" y="211.02">.</text>
<text x="341.59" y="116.60">+</text>
<text x="202.32" y="428.41">*</text>
<text x="457.94" y="354.45">.</text>
<text x="404.29" y="100.09">*</text>
<text x="165.31" y="44.53">*</text>
<text x="376.14" y="110.21">+</text>
<text x="232.12" y="423.85">.</text>
<text x="397.08" y="332.35">+</text>
<text x="47.93" y="228.30">*</text>
<text x="303.66" y="430.95">+</text>
<text x="8.38" y="210.02">+</text>
<text x="292.83" y="451.65">.</text>
<text x="385.84" y="263.09">*</text>
<text x="89.00" y="340.41">.</text>
<text x="302.64" y="279.47">.</text>
<text x="40.24" y="109.21">.</text>
<text x="325.32" y="322.52">*</text>
<text x="412.46" y="193.12">.</text>
<text x="31.37" y="247.31">+</text>
<text x="278.31" y="201.22">*</text>
<text x="177.73" y="102.09">+</text>
<text x="398.84" y="295.61">+</text>
<text x="18.47" y="164.99">.</text>
<text x="0.88" y="454.44">.</text>
<text x="140.19" y="127.59">.</text>
<text x="431.56" y="46.82">+</text>
<text x="481.60" y="191.73">.</text>
<text x="334.19" y="178.60">+</text>
<text x="80.52" y="52.51">+</text>
<text x="60.93" y="73.61">.</text>
<text x="478.33" y="408.08">.</text>
<text x="256.78" y="466.25">.</text>
<text x="4.22" y="65.39">+</text>
<text x="433.56" y="493.94">*</text>
<text x="268.88" y="204.15">+</text>
<text x="240.72" y="123.63">+</text>
<text x="342.86" y="236.71">*</text>
<text x="333.00" y="498.33">+</text>
<text x="158.35" y="173.16">.</text>
<text x="87.55" y="62.42">*</text>
<text x="239.51" y="334.27">.</text>
<text x="386.53" y="470.50">.</text>
<text x="409.39" y="247.94">+</text>
<text x="153.77" y="151.31">+</text>
<text x="342.24" y="128.30">.</text>
<text x="260.68" y="245.20">+</text>
<text x="24.49" y="431.69">.</text>
<text x="219.80" y="355.45">.</text>
<text x="203.69" y="262.83">+</text>
<text x="31.47" y="23.45">+</text>
<text x="67.15" y="350.69">+</text>
<text x="139.39" y="231.17">.</text>
<text x="316.68" y="114.15">+</text>
<text x="84.91" y="122.44">+</text>
<text x="159.24" y="380.86">+</text>
<text x="226.70" y="125.40">+</text>
<text x="407.16" y="252.76">*</text>
<text x="416.14" y="394.21">*</text>
<text x="187.38" y="114.51">.</text>
<text x="131.88" y="55.06">+</text>
<text x="93.09" y="151.57">+</text>
<text x="328.97" y="496.57">.</text>
<text x="455.93" y="152.76">.</text>
<text x="278.02" y="267.04">+</text>
<text x="281.83" y="369.20">*</text>
<text x="411.90" y="416.99">+</text>
<text x="44.17" y="253.80">+</text>
<text x="132.33" y="410.51">.</text>
<text x="69.97" y="486.73">.</text>
<text x="393.30" y="335.80">.</text>
<text x="475.68" y="369.99">.</text>
<text x="115.35" y="378.35">.</text>
<text x="109.79" y="21.34">*</text>
<text x="54.35" y="407.55">+</text>
<text x="400.56" y="16.76">+</text>
<text x="412.56" y="301.03">+</text>
<text x="455.81" y="435.95">+</text>
<text x="394.38" y="26.75">.</text>
<text x="325.57" y="352.12">.</text>
<text x="445.22" y="484.52">+</text>
<text x="137.45" y="247.59">.</text>
<text x="414.96" y="3.33">+</text>
<text x="55.18" y="39.51">+</text>
<text x="146.94" y="195.47">.</text>
<text x="433.91" y="96.80">+</text>
<text x="220.64" y="340.90">.</text>
<text x="330.49" y="294.84">*</text>
<text x="450.74" y="384.92">.</text>
<text x="338.08" y="28.41">.</text>
<text x="60.36" y="264.70">+</text>
<text x="267.51" y="495.70">+</text>
<text x="423.15" y="416.58">+</text>
<text x="486.78" y="24.42">+</text>
<text x="305.92" y="253.62">.</text>
<text x="21.60" y="211.69">+</text>
<text x="134.20" y="272.26">.</text>
<text x="23.54" y="383.79">+</text>
<text x="444.01" y="490.74">.</text>
<text x="313.97" y="316.94">.</text>
<text x="59.15" y="478.68">.</text>
<text x="45.33" y="193.29">.</text>
<text x="152.91" y="55.04">.</text>
<text x="459.80" y="474.25">+</text>
<text x="397.00" y="376.12">*</text>
<text x="129.05" y="486.60">*</text>
<text x="284.76" y="4.62">*</text>
<text x="461.12" y="36.32">+</text>
<text x="334.10" y="219.97">*</text>
<text x="442.37" y="78.53">.</text>
<text x="459.67" y="497.06">+</text>
<text x="71.00" y="15.08">*</text>
<text x="395.73" y="360.07">+</text>
<text x="405.85" y="397.84">+</text>
<text x="221.15" y="284.36">+</text>
<text x="148.04" y="91.50">*</text>

</svg>