
<svg viewBox="0 0 500 500" xmlns="http://www.w.org/2000/svg" width="100%" height="100%" style="background-color: #0a0a14; font-family: 'Courier New', Courier, monospace;">
    <style>
        text { fill: #aaa; font-size: 10px; text-anchor: middle; dominant-baseline: middle; }
    </style>
    <text x="246.03" y="164.83">+</text>
<text x="398.80" y="128.51">.</text>
<text x="335.74" y="374.47">*</text>
<text x="340.85" y="239.04">.</text>
<text x="166.87" y="481.20">+</text>
<text x="359.87" y="369.72">.</text>
<text x="42.44" y="154.12">*</text>
<text x="241.47" y="476.72">.</text>
<text x="5.81" y="60.56">.</text>
<text x="370.98" y="373.91">.</text>
<text x="139.61" y="153.94">+</text>
<text x="462.80" y="197.41">.</text>
<text x="139.49" y="195.40">.</text>
<text x="217.38" y="130.07">+</text>
<text x="398.84" y="201.72">.</text>
<text x="485.67" y="416.37">.</text>
<text x="379.45" y="136.05">.</text>
<text x="472.75" y="55.27">+</text>
<text x="72.24" y="119.24">.</text>
<text x="53.96" y="80.25">+</text>
<text x="310.68" y="244.86">.</text>
<text x="322.92" y="316.81">+</text>
<text x="317.34" y="126.71">.</text>
<text x="217.26" y="479.14">.</text>
<text x="190.67" y="124.17">.</text>
<text x="450.46" y="269.76">+</text>
<text x="41.97" y="326.62">+</text>
<text x="403.54" y="356.83">+</text>
<text x="119.83" y="395.40">+</text>
<text x="461.95" y="440.21">.</text>
<text x="389.49" y="221.89">.</text>
<text x="177.24" y="398.93">+</text>
<text x="258.93" y="272.25">*</text>
<text x="98.96" y="302.02">+</text>
<text x="403.14" y="118.04">.</text>
<text x="49.10" y="343.48">.</text>
<text x="184.95" y="132.20">+</text>
<text x="489.54" y="79.45">*</text>
<text x="325.06" y="206.02">*</text>
<text x="253.70" y="242.84">+</text>
<text x="349.69" y="191.05">+</text>
<text x="375.82" y="124.62">+</text>
<text x="144.41" y="435.61">.</text>
<text x="148.25" y="26.06">.</text>
<text x="47.34" y="414.73">.</text>
<text x="73.89" y="457.66">+</text>
<text x="252.70" y="487.55">.</text>
<text x="68.55" y="258.70">+</text>
<text x="190.59" y="496.51">+</text>
<text x="244.58" y="157.81">*</text>
<text x="243.36" y="28.78">.</text>
<text x="390.89" y="14.08">.</text>
<text x="480.54" y="228.20">+</text>
<text x="414.65" y="395.59">+</text>
<text x="196.50" y="102.81">.</text>
<text x="449.95" y="218.61">*</text>
<text x="5.27" y="266.28">+</text>
<text x="54.36" y="383.17">.</text>
<text x="390.10" y="267.49">+</text>
<text x="364.27" y="223.04">.</text>
<text x="145.09" y="143.43">.</text>
<text x="286.09" y="117.02">.</text>
<text x="34.77" y="144.94">+</text>
<text x="376.93" y="278.05">.</text>
<text x="194.47" y="362.44">+</text>
<text x="96.07" y="357.22">+</text>
<text x="298.65" y="196.60">.</text>
<text x="324.05" y="51.28">.</text>
<text x="202.36" y="485.22">+</text>
<text x="197.91" y="27.41">.</text>
<text x="155.69" y="455.14">*</text>
<text x="444.91" y="222.86">+</text>
<text x="460.46" y="462.41">.</text>
<text x="252.72" y="71.51">*</text>
<text x="285.72" y="468.64">+</text>
<text x="436.70" y="436.59">*</text>
<text x="355.68" y="193.44">+</text>
<text x="136.09" y="18.79">*</text>
<text x="128.68" y="129.56">+</text>
<text x="470.06" y="339.38">+</text>
<text x="494.04" y="12.34">+</text>
<text x="61.93" y="166.13">*</text>
<text x="75.77" y="413.37">.</text>
<text x="365.13" y="420.56">.</text>
<text x="57.77" y="199.79">+</text>
<text x="246.59" y="496.27">.</text>
<text x="86.76" y="263.24">+</text>
<text x="239.83" y="126.35">+</text>
<text x="355.78" y="47.60">.</text>
<text x="167.49" y="35.17">+</text>
<text x="280.03" y="78.92">.</text>
<text x="331.79" y="133.34">+</text>
<text x="207.94" y="243.83">.</text>
<text x="98.00" y="368.44">.</text>
<text x="343.99" y="112.85">+</text>
<text x="388.28" y="243.53">.</text>
<text x="118.94" y="382.38">+</text>
<text x="325.78" y="147.33">+</text>
<text x="257.94" y="13.35">.</text>
<text x="28.40" y="5.56">.</text>
<text x="468.88" y="35.48">.</text>
<text x="186.72" y="237.80">*</text>
<text x="259.10" y="459.40">*</text>
<text x="472.24" y="313.91">.</text>
<text x="346.17" y="398.39">.</text>
<text x="499.86" y="324.51">*</text>
<text x="4.03" y="422.24">+</text>
<text x="30.37" y="391.49">+</text>
<text x="195.06" y="414.60">.</text>
<text x="67.64" y="258.55">.</text>
<text x="343.60" y="21.01">+</text>
<text x="38.66" y="181.56">+</text>
<text x="375.22" y="325.58">.</text>
<text x="467.75" y="31.34">.</text>
<text x="134.17" y="280.90">+</text>
<text x="118.20" y="298.24">.</text>
<text x="282.19" y="239.62">+</text>
<text x="205.53" y="92.00">+</text>
<text x="156.64" y="356.96">+</text>
<text x="328.18" y="148.63">.</text>
<text x="103.41" y="352.60">.</text>
<text x="308.24" y="435.96">.</text>
<text x="139.65" y="356.44">.</text>
<text x="221.73" y="286.86">.</text>
<text x="274.27" y="60.19">+</text>
<text x="132.33" y="360.06">+</text>
<text x="247.96" y="391.75">+</text>
<text x="274.18" y="350.90">*</text>
<text x="103.57" y="355.33">+</text>
<text x="178.84" y="165.78">+</text>
<text x="196.22" y="413.20">+</text>
<text x="230.06" y="52.10">+</text>
<text x="435.59" y="453.83">+</text>
<text x="333.48" y="288.76">+</text>
<text x="486.74" y="19.13">+</text>
<text x="239.63" y="222.33">.</text>
<text x="465.04" y="395.43">+</text>
<text x="361.64" y="459.38">*</text>
<text x="332.35" y="106.40">+</text>
<text x="179.77" y="46.84">+</text>
<text x="149.58" y="268.47">+</text>
<text x="333.24" y="290.36">.</text>
<text x="469.17" y="354.49">.</text>
<text x="319.69" y="443.35">+</text>
<text x="39.17" y="72.73">+</text>
<text x="13.48" y="40.97">.</text>
<text x="258.64" y="100.85">*</text>
<text x="65.80" y="279.88">+</text>
<text x="103.00" y="161.24">+</text>
<text x="269.57" y="327.61">.</text>
<text x="83.25" y="391.94">+</text>
<text x="411.68" y="478.86">*</text>
<text x="76.33" y="479.14">+</text>
<text x="166.06" y="135.61">.</text>
<text x="420.70" y="205.98">.</text>
<text x="21.25" y="476.64">+</text>
<text x="330.86" y="67.96">.</text>
<text x="39.52" y="107.41">+</text>
<text x="163.91" y="205.98">+</text>
<text x="251.23" y="352.60">.</text>
<text x="376.73" y="310.62">+</text>
<text x="259.17" y="56.02">*</text>
<text x="189.46" y="369.26">.</text>
<text x="276.06" y="236.08">.</text>
<text x="469.05" y="217.18">+</text>
<text x="63.70" y="481.38">.</text>
<text x="201.44" y="428.96">+</text>
<text x="359.76" y="455.29">.</text>
<text x="377.03" y="83.32">.</text>
<text x="468.92" y="85.36">*</text>
<text x="135.04" y="342.82">.</text>
<text x="315.99" y="126.87">.</text>
<text x="456.76" y="223.68">.</text>
<text x="448.22" y="299.57">.</text>
<text x="284.25" y="269.28">.</text>
<text x="142.35" y="68.00">.</text>
<text x="362.08" y="150.42">.</text>
<text x="61.77" y="131.09">+</text>
<text x="356.11" y="149.93">+</text>
<text x="316.30" y="363.78">*</text>
<text x="106.56" y="328.83">+</text>
<text x="265.10" y="415.45">.</text>
<text x="442.82" y="50.51">+</text>
<text x="351.01" y="169.50">+</text>
<text x="114.52" y="48.62">.</text>
<text x="438.35" y="489.79">.</text>
<text x="451.59" y="109.54">.</text>
<text x="93.49" y="401.26">.</text>
<text x="74.31" y="461.01">.</text>
<text x="14.06" y="486.12">*</text>
<text x="164.28" y="431.91">+</text>
<text x="296.40" y="234.89">+</text>
<text x="35.53" y="484.60">.</text>
<text x="278.91" y="46.74">.</text>
<text x="59.48" y="318.72">*</text>
<text x="99.48" y="193.08">.</text>
<text x="327.38" y="306.03">*</text>
<text x="354.57" y="489.78">.</text>
<text x="345.14" y="224.89">*</text>
<text x="2.37" y="351.49">.</text>
<text x="332.89" y="379.36">*</text>
<text x="286.54" y="246.38">.</text>
<text x="264.86" y="374.06">.</text>
<text x="140.85" y="63.87">.</text>
<text x="285.97" y="482.37">.</text>
<text x="10.58" y="125.05">+</text>
<text x="121.12" y="55.80">+</text>
<text x="219.58" y="122.65">.</text>

</svg>