
<svg viewBox="0 0 500 500" xmlns="http://www.w.org/2000/svg" width="100%" height="100%" style="background-color: #0a0a14; font-family: 'Courier New', Courier, monospace;">
    <style>
        text { fill: #aaa; font-size: 10px; text-anchor: middle; dominant-baseline: middle; }
    </style>
    <text x="114.65" y="490.17">.</text>
<text x="233.30" y="272.52">.</text>
<text x="499.11" y="269.84">+</text>
<text x="142.20" y="307.46">+</text>
<text x="435.47" y="94.83">*</text>
<text x="329.37" y="410.22">*</text>
<text x="201.69" y="472.20">+</text>
<text x="347.37" y="304.09">.</text>
<text x="141.80" y="307.39">.</text>
<text x="3.73" y="148.64">.</text>
<text x="460.16" y="410.97">.</text>
<text x="65.31" y="191.15">.</text>
<text x="422.60" y="166.13">+</text>
<text x="307.20" y="466.27">.</text>
<text x="460.72" y="262.65">.</text>
<text x="111.51" y="364.65">+</text>
<text x="475.66" y="484.65">+</text>
<text x="472.24" y="59.73">+</text>
<text x="274.56" y="228.05">.</text>
<text x="112.15" y="453.26">.</text>
<text x="32.73" y="441.83">+</text>
<text x="438.07" y="205.04">+</text>
<text x="199.93" y="265.35">.</text>
<text x="359.91" y="8.76">.</text>
<text x="300.68" y="396.89">.</text>
<text x="444.65" y="259.98">+</text>
<text x="284.54" y="387.02">+</text>
<text x="27.52" y="217.34">.</text>
<text x="74.31" y="257.10">+</text>
<text x="440.36" y="375.55">*</text>
<text x="494.23" y="457.73">+</text>
<text x="455.67" y="41.48">.</text>
<text x="361.92" y="473.97">.</text>
<text x="71.33" y="407.32">.</text>
<text x="348.54" y="18.25">.</text>
<text x="492.46" y="104.35">.</text>
<text x="0.26" y="291.63">+</text>
<text x="35.70" y="199.04">+</text>
<text x="448.63" y="61.40">*</text>
<text x="135.35" y="15.16">.</text>
<text x="81.08" y="240.07">.</text>
<text x="84.88" y="334.64">.</text>
<text x="30.79" y="111.63">.</text>
<text x="1.23" y="146.16">.</text>
<text x="125.89" y="485.65">.</text>
<text x="441.95" y="486.80">.</text>
<text x="95.06" y="386.21">*</text>
<text x="382.71" y="307.41">.</text>
<text x="385.61" y="325.85">+</text>
<text x="436.88" y="360.99">.</text>
<text x="274.02" y="9.74">.</text>
<text x="26.80" y="134.91">+</text>
<text x="320.84" y="159.90">.</text>
<text x="197.69" y="126.97">+</text>
<text x="298.64" y="256.30">.</text>
<text x="191.38" y="186.06">+</text>
<text x="407.36" y="307.48">*</text>
<text x="344.20" y="366.19">.</text>
<text x="103.94" y="47.61">.</text>
<text x="197.29" y="322.55">+</text>
<text x="216.39" y="37.69">+</text>
<text x="401.81" y="442.37">.</text>
<text x="65.93" y="10.80">.</text>
<text x="292.60" y="383.87">+</text>
<text x="352.84" y="23.13">+</text>
<text x="283.92" y="125.33">.</text>
<text x="276.96" y="189.83">.</text>
<text x="156.32" y="311.97">.</text>
<text x="354.31" y="159.78">+</text>
<text x="235.21" y="394.30">+</text>
<text x="172.70" y="99.58">.</text>
<text x="315.31" y="78.83">.</text>
<text x="37.92" y="388.79">*</text>
<text x="371.98" y="321.60">+</text>
<text x="453.28" y="493.91">.</text>
<text x="74.03" y="427.08">.</text>
<text x="52.00" y="292.48">+</text>
<text x="363.56" y="174.65">*</text>
<text x="323.13" y="272.98">.</text>
<text x="411.14" y="259.80">.</text>
<text x="124.76" y="32.61">*</text>
<text x="495.47" y="242.74">+</text>
<text x="100.76" y="176.36">*</text>
<text x="184.32" y="61.19">*</text>
<text x="158.96" y="155.24">.</text>
<text x="2.78" y="183.89">+</text>
<text x="55.69" y="394.72">+</text>
<text x="328.16" y="355.70">+</text>
<text x="461.84" y="25.00">+</text>
<text x="183.02" y="31.86">+</text>
<text x="333.12" y="41.16">.</text>
<text x="199.52" y="171.45">.</text>
<text x="333.05" y="423.15">+</text>
<text x="186.03" y="230.93">+</text>
<text x="131.12" y="338.74">+</text>
<text x="67.71" y="407.08">.</text>
<text x="415.58" y="477.04">.</text>
<text x="490.64" y="463.11">.</text>
<text x="134.85" y="65.08">.</text>
<text x="285.44" y="40.67">*</text>
<text x="32.55" y="428.19">.</text>
<text x="170.25" y="329.25">+</text>
<text x="226.46" y="472.03">.</text>
<text x="188.05" y="439.47">.</text>
<text x="444.86" y="456.72">.</text>
<text x="392.16" y="320.31">.</text>
<text x="166.92" y="17.49">*</text>
<text x="334.62" y="340.92">+</text>
<text x="210.76" y="494.61">.</text>
<text x="431.85" y="369.76">+</text>
<text x="269.79" y="254.83">.</text>
<text x="308.75" y="186.99">+</text>
<text x="365.14" y="233.59">+</text>
<text x="347.32" y="152.76">+</text>
<text x="221.95" y="84.18">.</text>
<text x="302.92" y="374.22">.</text>
<text x="387.76" y="176.67">.</text>
<text x="476.77" y="442.69">+</text>
<text x="51.42" y="15.11">.</text>
<text x="278.03" y="473.29">+</text>
<text x="395.09" y="196.08">+</text>
<text x="337.34" y="465.28">*</text>
<text x="278.02" y="56.66">+</text>
<text x="17.03" y="358.05">.</text>
<text x="265.77" y="484.10">+</text>
<text x="264.61" y="297.58">*</text>
<text x="455.94" y="431.88">+</text>
<text x="141.16" y="47.45">*</text>
<text x="73.84" y="420.48">+</text>
<text x="196.90" y="465.40">+</text>
<text x="108.54" y="176.93">*</text>
<text x="194.84" y="141.85">.</text>
<text x="229.97" y="33.87">.</text>
<text x="166.16" y="427.75">+</text>
<text x="84.53" y="475.33">+</text>
<text x="141.34" y="136.65">+</text>
<text x="3.83" y="142.58">.</text>
<text x="291.30" y="241.91">.</text>
<text x="228.94" y="493.91">.</text>
<text x="309.26" y="493.51">*</text>
<text x="124.51" y="441.89">.</text>
<text x="299.88" y="293.82">.</text>
<text x="371.08" y="163.72">.</text>
<text x="328.06" y="402.88">+</text>
<text x="301.00" y="261.88">*</text>
<text x="156.88" y="270.56">+</text>
<text x="77.41" y="46.20">.</text>
<text x="304.56" y="385.16">+</text>
<text x="216.13" y="327.45">+</text>
<text x="248.17" y="108.27">*</text>
<text x="54.25" y="455.30">*</text>
<text x="30.58" y="66.32">+</text>
<text x="408.73" y="220.20">.</text>
<text x="470.17" y="137.57">+</text>
<text x="383.10" y="406.09">*</text>
<text x="157.56" y="342.43">+</text>
<text x="329.60" y="414.78">.</text>
<text x="317.37" y="438.88">.</text>
<text x="393.76" y="493.97">.</text>
<text x="73.38" y="466.97">.</text>
<text x="258.01" y="222.60">.</text>
<text x="182.38" y="328.92">+</text>
<text x="266.05" y="162.94">.</text>
<text x="392.15" y="475.70">*</text>
<text x="497.05" y="400.97">.</text>
<text x="218.98" y="272.40">+</text>
<text x="98.57" y="149.81">.</text>
<text x="359.79" y="148.06">+</text>
<text x="359.59" y="305.70">.</text>
<text x="245.32" y="314.10">+</text>
<text x="257.87" y="494.22">+</text>
<text x="280.49" y="467.92">+</text>
<text x="397.31" y="473.38">+</text>
<text x="432.32" y="297.86">*</text>
<text x="48.87" y="379.60">*</text>
<text x="236.36" y="268.82">*</text>
<text x="455.84" y="277.12">*</text>
<text x="268.29" y="461.27">+</text>
<text x="226.49" y="480.06">+</text>
<text x="465.44" y="276.06">+</text>
<text x="78.92" y="274.20">+</text>
<text x="223.85" y="177.16">.</text>
<text x="343.47" y="312.27">.</text>
<text x="286.04" y="166.74">.</text>
<text x="134.39" y="347.22">.</text>
<text x="302.32" y="294.84">.</text>
<text x="330.32" y="40.75">.</text>
<text x="452.71" y="31.08">.</text>
<text x="147.55" y="380.05">+</text>
<text x="3.88" y="207.09">+</text>
<text x="431.72" y="424.80">+</text>
<text x="380.47" y="224.84">.</text>
<text x="24.48" y="460.25">+</text>
<text x="31.94" y="157.52">+</text>
<text x="409.01" y="17.96">+</text>
<text x="473.44" y="12.22">+</text>
<text x="247.54" y="346.44">.</text>
<text x="235.56" y="114.28">+</text>
<text x="205.36" y="180.71">+</text>
<text x="333.32" y="227.41">*</text>
<text x="244.79" y="36.48">+</text>
<text x="40.49" y="228.58">*</text>
<text x="418.67" y="55.42">+</text>
<text x="282.31" y="111.75">.</text>
<text x="373.83" y="259.67">.</text>
<text x="219.84" y="380.68">.</text>
<text x="207.96" y="499.43">+</text>
<text x="202.56" y="394.09">+</text>
<text x="22.42" y="284.68">+</text>
<text x="123.57" y="487.80">.</text>
<text x="35.63" y="166.55">.</text>
<text x="187.18" y="344.94">.</text>
<text x="281.51" y="47.58">.</text>
<text x="193.71" y="26.88">+</text>

</svg>