
<svg viewBox="0 0 500 500" xmlns="http://www.w.org/2000/svg" width="100%" height="100%" style="background-color: #0a0a14; font-family: 'Courier New', Courier, monospace;">
    <style>
        text { fill: #aaa; font-size: 10px; text-anchor: middle; dominant-baseline: middle; }
    </style>
    <text x="104.71" y="384.60">*</text>
<text x="273.00" y="442.27">+</text>
<text x="338.42" y="401.78">+</text>
<text x="171.33" y="276.13">*</text>
<text x="400.76" y="105.94">+</text>
<text x="250.02" y="76.19">*</text>
<text x="189.38" y="159.80">*</text>
<text x="27.31" y="499.71">.</text>
<text x="171.06" y="202.59">*</text>
<text x="475.07" y="93.52">+</text>
<text x="366.52" y="224.12">+</text>
<text x="122.52" y="420.57">*</text>
<text x="216.56" y="189.22">+</text>
<text x="45.24" y="483.66">+</text>
<text x="444.07" y="305.76">+</text>
<text x="65.43" y="397.49">*</text>
<text x="255.29" y="479.84">+</text>
<text x="273.29" y="389.77">+</text>
<text x="343.17" y="97.60">+</text>
<text x="127.64" y="152.20">+</text>
<text x="83.67" y="205.41">+</text>
<text x="376.81" y="385.83">.</text>
<text x="168.88" y="50.13">.</text>
<text x="361.02" y="433.28">*</text>
<text x="324.27" y="147.67">+</text>
<text x="317.25" y="194.01">+</text>
<text x="422.19" y="83.44">+</text>
<text x="6.66" y="252.94">.</text>
<text x="362.38" y="104.93">.</text>
<text x="222.32" y="167.38">.</text>
<text x="190.30" y="242.68">.</text>
<text x="124.21" y="393.85">+</text>
<text x="195.19" y="338.01">.</text>
<text x="380.96" y="165.75">+</text>
<text x="419.43" y="405.43">.</text>
<text x="18.41" y="248.28">.</text>
<text x="290.31" y="254.25">.</text>
<text x="171.90" y="330.14">.</text>
<text x="162.96" y="111.52">.</text>
<text x="304.64" y="105.29">.</text>
<text x="301.18" y="430.56">+</text>
<text x="431.33" y="255.09">.</text>
<text x="271.23" y="485.94">.</text>
<text x="82.96" y="9.22">+</text>
<text x="352.31" y="200.90">+</text>
<text x="146.29" y="330.83">*</text>
<text x="298.21" y="483.15">+</text>
<text x="39.56" y="280.70">+</text>
<text x="137.88" y="268.85">*</text>
<text x="371.49" y="491.09">.</text>
<text x="7.81" y="307.85">.</text>
<text x="480.03" y="42.98">+</text>
<text x="233.80" y="452.61">.</text>
<text x="354.67" y="306.94">+</text>
<text x="4.43" y="215.11">.</text>
<text x="445.52" y="331.37">+</text>
<text x="275.81" y="192.96">+</text>
<text x="64.48" y="133.95">+</text>
<text x="291.79" y="236.88">*</text>
<text x="420.43" y="30.21">+</text>
<text x="131.39" y="268.63">+</text>
<text x="407.60" y="53.16">+</text>
<text x="102.72" y="384.81">.</text>
<text x="465.31" y="283.78">+</text>
<text x="410.02" y="438.17">*</text>
<text x="70.02" y="435.80">.</text>
<text x="286.38" y="379.29">+</text>
<text x="332.04" y="51.36">.</text>
<text x="20.75" y="272.54">+</text>
<text x="27.80" y="341.95">.</text>
<text x="151.40" y="329.49">+</text>
<text x="35.64" y="159.74">.</text>
<text x="44.27" y="27.46">.</text>
<text x="50.71" y="172.75">.</text>
<text x="146.71" y="249.40">+</text>
<text x="138.59" y="249.32">*</text>
<text x="89.95" y="275.71">.</text>
<text x="2.90" y="143.09">.</text>
<text x="15.18" y="249.15">+</text>
<text x="160.21" y="383.66">+</text>
<text x="291.25" y="388.69">.</text>
<text x="383.24" y="374.48">.</text>
<text x="46.34" y="204.35">+</text>
<text x="441.93" y="312.84">+</text>
<text x="175.95" y="146.66">.</text>
<text x="484.81" y="11.38">.</text>
<text x="261.72" y="230.80">*</text>
<text x="14.18" y="268.20">.</text>
<text x="495.82" y="359.85">.</text>
<text x="288.80" y="111.46">.</text>
<text x="359.84" y="82.26">.</text>
<text x="496.97" y="47.30">+</text>
<text x="84.22" y="81.07">.</text>
<text x="94.25" y="425.32">.</text>
<text x="87.58" y="185.42">.</text>
<text x="200.11" y="258.15">+</text>
<text x="410.23" y="372.23">*</text>
<text x="380.26" y="102.10">.</text>
<text x="326.41" y="206.22">*</text>
<text x="327.53" y="204.95">.</text>
<text x="371.18" y="38.70">+</text>
<text x="483.24" y="330.55">*</text>
<text x="202.19" y="160.20">+</text>
<text x="216.67" y="155.68">+</text>
<text x="408.67" y="283.68">.</text>
<text x="347.39" y="106.16">.</text>
<text x="416.13" y="466.49">.</text>
<text x="208.39" y="217.89">.</text>
<text x="233.57" y="187.56">.</text>
<text x="173.04" y="352.30">+</text>
<text x="138.65" y="164.06">.</text>
<text x="52.21" y="98.42">+</text>
<text x="48.13" y="406.48">+</text>
<text x="224.49" y="256.01">.</text>
<text x="71.11" y="287.41">.</text>
<text x="350.44" y="166.76">.</text>
<text x="3.61" y="230.97">.</text>
<text x="272.70" y="158.86">+</text>
<text x="132.01" y="494.35">*</text>
<text x="42.00" y="425.50">+</text>
<text x="499.77" y="94.22">.</text>
<text x="497.52" y="408.36">.</text>
<text x="461.87" y="493.61">.</text>
<text x="0.50" y="494.25">.</text>
<text x="130.75" y="278.00">+</text>
<text x="215.59" y="364.64">+</text>
<text x="82.94" y="170.64">+</text>
<text x="238.25" y="396.82">.</text>
<text x="98.44" y="129.48">*</text>
<text x="60.38" y="239.25">.</text>
<text x="101.64" y="276.30">+</text>
<text x="129.77" y="101.85">.</text>
<text x="210.70" y="312.63">.</text>
<text x="491.10" y="233.44">.</text>
<text x="152.60" y="225.52">.</text>
<text x="296.58" y="499.56">+</text>
<text x="414.63" y="285.07">*</text>
<text x="83.75" y="134.64">.</text>
<text x="239.01" y="311.51">.</text>
<text x="96.39" y="0.01">+</text>
<text x="494.59" y="265.87">+</text>
<text x="438.36" y="92.71">+</text>
<text x="44.26" y="406.43">.</text>
<text x="46.55" y="135.84">+</text>
<text x="197.52" y="353.69">.</text>
<text x="276.45" y="127.06">+</text>
<text x="367.03" y="12.75">.</text>
<text x="437.06" y="366.60">*</text>
<text x="327.02" y="349.56">+</text>
<text x="268.54" y="488.28">+</text>
<text x="468.85" y="402.75">+</text>
<text x="61.26" y="155.87">.</text>
<text x="236.14" y="277.13">.</text>
<text x="236.69" y="433.53">+</text>
<text x="41.98" y="422.52">+</text>
<text x="365.16" y="326.69">.</text>
<text x="481.75" y="28.03">+</text>
<text x="401.43" y="311.39">.</text>
<text x="6.95" y="185.69">+</text>
<text x="192.42" y="429.48">.</text>
<text x="478.85" y="124.04">+</text>
<text x="59.68" y="338.49">*</text>
<text x="472.61" y="84.18">+</text>
<text x="204.13" y="499.37">+</text>
<text x="40.08" y="259.62">+</text>
<text x="317.15" y="365.16">+</text>
<text x="179.84" y="275.44">+</text>
<text x="176.42" y="365.21">.</text>
<text x="310.74" y="395.43">.</text>
<text x="287.83" y="450.08">.</text>
<text x="1.41" y="301.30">.</text>
<text x="234.35" y="324.07">+</text>
<text x="106.43" y="254.44">*</text>
<text x="305.43" y="389.19">.</text>
<text x="329.33" y="383.01">.</text>
<text x="59.60" y="31.99">.</text>
<text x="38.40" y="409.98">.</text>
<text x="89.10" y="17.28">*</text>
<text x="127.58" y="82.15">.</text>
<text x="21.05" y="231.53">.</text>
<text x="3.60" y="378.45">.</text>
<text x="6.74" y="118.56">.</text>
<text x="147.10" y="139.55">+</text>
<text x="64.76" y="217.38">.</text>
<text x="182.41" y="409.13">+</text>
<text x="446.69" y="45.79">.</text>
<text x="126.09" y="364.33">.</text>
<text x="290.46" y="198.65">.</text>
<text x="114.33" y="210.95">+</text>
<text x="145.22" y="83.04">+</text>
<text x="272.45" y="73.80">+</text>
<text x="90.96" y="338.45">.</text>
<text x="351.67" y="456.28">.</text>
<text x="76.64" y="208.71">+</text>

</svg>