
<svg viewBox="0 0 500 500" xmlns="http://www.w.org/2000/svg" width="100%" height="100%" style="background-color: #0a0a14; font-family: 'Courier New', Courier, monospace;">
    <style>
        text { fill: #aaa; font-size: 10px; text-anchor: middle; dominant-baseline: middle; }
    </style>
    <text x="197.20" y="296.89">.</text>
<text x="249.16" y="291.51">.</text>
<text x="344.71" y="447.65">*</text>
<text x="100.35" y="112.03">.</text>
<text x="387.55" y="102.05">.</text>
<text x="93.22" y="332.85">.</text>
<text x="7.91" y="151.86">.</text>
<text x="339.40" y="450.74">+</text>
<text x="426.88" y="428.37">.</text>
<text x="299.33" y="338.40">.</text>
<text x="25.71" y="221.20">+</text>
<text x="105.32" y="103.83">+</text>
<text x="409.41" y="4.69">+</text>
<text x="329.73" y="141.47">+</text>
<text x="36.75" y="329.28">+</text>
<text x="185.79" y="236.59">.</text>
<text x="246.09" y="64.92">*</text>
<text x="108.74" y="168.42">*</text>
<text x="486.34" y="375.65">+</text>
<text x="416.23" y="379.60">.</text>
<text x="180.72" y="313.08">.</text>
<text x="304.40" y="46.23">*</text>
<text x="411.75" y="342.72">+</text>
<text x="28.57" y="209.92">.</text>
<text x="327.12" y="75.43">.</text>
<text x="44.27" y="429.42">.</text>
<text x="190.94" y="403.10">+</text>
<text x="392.87" y="353.36">.</text>
<text x="294.63" y="19.99">.</text>
<text x="162.85" y="338.83">*</text>
<text x="258.90" y="79.75">+</text>
<text x="445.79" y="370.97">.</text>
<text x="376.31" y="399.06">.</text>
<text x="113.84" y="170.80">*</text>
<text x="139.26" y="27.56">*</text>
<text x="473.23" y="53.65">+</text>
<text x="109.27" y="255.25">+</text>
<text x="343.02" y="336.28">.</text>
<text x="38.33" y="31.73">+</text>
<text x="242.36" y="333.31">+</text>
<text x="396.84" y="402.76">.</text>
<text x="458.97" y="15.40">*</text>
<text x="459.19" y="37.05">+</text>
<text x="354.83" y="496.38">+</text>
<text x="424.48" y="414.04">*</text>
<text x="152.41" y="404.91">+</text>
<text x="57.06" y="368.86">.</text>
<text x="113.85" y="340.50">+</text>
<text x="398.82" y="446.55">.</text>
<text x="84.14" y="255.86">+</text>
<text x="396.19" y="222.03">.</text>
<text x="282.76" y="460.35">+</text>
<text x="78.53" y="462.27">+</text>
<text x="108.12" y="349.54">.</text>
<text x="331.31" y="346.92">+</text>
<text x="40.60" y="203.06">.</text>
<text x="293.62" y="159.11">.</text>
<text x="329.46" y="410.85">.</text>
<text x="341.70" y="87.86">+</text>
<text x="126.91" y="8.09">.</text>
<text x="96.34" y="148.34">.</text>
<text x="401.43" y="406.24">.</text>
<text x="420.36" y="422.73">+</text>
<text x="218.95" y="110.51">.</text>
<text x="100.17" y="22.16">.</text>
<text x="192.40" y="431.91">.</text>
<text x="167.90" y="230.15">*</text>
<text x="231.06" y="471.60">+</text>
<text x="130.95" y="120.27">.</text>
<text x="9.58" y="13.25">.</text>
<text x="461.19" y="120.00">+</text>
<text x="453.40" y="425.22">+</text>
<text x="336.77" y="77.84">.</text>
<text x="80.59" y="114.11">.</text>
<text x="273.67" y="192.61">+</text>
<text x="224.92" y="13.41">.</text>
<text x="40.84" y="185.06">+</text>
<text x="224.79" y="22.04">.</text>
<text x="421.17" y="2.69">+</text>
<text x="276.48" y="486.72">+</text>
<text x="129.94" y="366.97">+</text>
<text x="18.86" y="224.51">*</text>
<text x="478.07" y="18.44">+</text>
<text x="335.60" y="398.21">.</text>
<text x="48.19" y="457.88">.</text>
<text x="139.55" y="100.84">*</text>
<text x="393.81" y="469.94">.</text>
<text x="68.88" y="27.35">.</text>
<text x="316.66" y="240.84">.</text>
<text x="14.22" y="132.65">.</text>
<text x="202.68" y="63.11">+</text>
<text x="381.89" y="241.93">+</text>
<text x="162.67" y="350.94">.</text>
<text x="80.36" y="490.50">.</text>
<text x="237.20" y="59.39">.</text>
<text x="235.89" y="478.87">.</text>
<text x="209.77" y="222.56">.</text>
<text x="381.75" y="493.90">.</text>
<text x="282.79" y="300.29">+</text>
<text x="358.89" y="35.40">+</text>
<text x="465.54" y="422.96">+</text>
<text x="475.60" y="455.06">.</text>
<text x="409.43" y="42.56">.</text>
<text x="380.57" y="205.66">+</text>
<text x="119.32" y="438.69">+</text>
<text x="165.13" y="364.76">.</text>
<text x="110.12" y="261.94">.</text>
<text x="249.30" y="263.38">+</text>
<text x="16.10" y="35.03">*</text>
<text x="343.33" y="317.77">.</text>
<text x="451.90" y="476.09">.</text>
<text x="465.87" y="131.26">+</text>
<text x="103.18" y="90.04">+</text>
<text x="120.92" y="262.08">+</text>
<text x="431.00" y="78.19">+</text>
<text x="167.40" y="498.14">+</text>
<text x="17.40" y="397.49">+</text>
<text x="360.90" y="226.18">+</text>
<text x="22.24" y="345.14">.</text>
<text x="492.18" y="295.27">.</text>
<text x="90.23" y="474.64">+</text>
<text x="394.81" y="358.52">+</text>
<text x="119.50" y="303.37">.</text>
<text x="90.85" y="155.12">.</text>
<text x="89.77" y="90.05">+</text>
<text x="426.36" y="385.39">+</text>
<text x="55.98" y="159.43">.</text>
<text x="188.44" y="335.26">.</text>
<text x="446.58" y="180.89">+</text>
<text x="473.55" y="379.76">+</text>
<text x="329.92" y="492.83">.</text>
<text x="401.34" y="270.52">.</text>
<text x="346.21" y="365.81">.</text>
<text x="60.92" y="432.89">+</text>
<text x="5.00" y="487.65">+</text>
<text x="265.97" y="267.25">+</text>
<text x="291.78" y="398.49">+</text>
<text x="83.44" y="7.95">*</text>
<text x="433.89" y="180.42">+</text>
<text x="467.57" y="193.91">+</text>
<text x="93.62" y="193.18">+</text>
<text x="402.10" y="476.57">+</text>
<text x="366.59" y="464.31">+</text>
<text x="168.26" y="360.91">.</text>
<text x="253.12" y="354.08">.</text>
<text x="412.77" y="181.61">+</text>
<text x="403.33" y="302.67">+</text>
<text x="380.32" y="34.47">*</text>
<text x="448.35" y="101.25">*</text>
<text x="362.36" y="337.21">+</text>
<text x="241.10" y="366.19">+</text>
<text x="337.48" y="157.10">.</text>
<text x="428.42" y="464.64">.</text>
<text x="66.21" y="103.48">*</text>
<text x="48.56" y="310.26">+</text>
<text x="344.14" y="454.56">+</text>
<text x="130.30" y="392.03">*</text>
<text x="68.58" y="163.72">.</text>
<text x="199.40" y="60.61">+</text>
<text x="112.05" y="498.21">+</text>
<text x="49.42" y="387.28">.</text>
<text x="204.58" y="14.07">+</text>
<text x="278.12" y="149.65">+</text>
<text x="260.07" y="261.72">.</text>
<text x="340.15" y="440.44">.</text>
<text x="144.57" y="215.20">*</text>
<text x="121.00" y="323.16">*</text>
<text x="37.78" y="332.23">*</text>
<text x="90.15" y="93.72">.</text>
<text x="470.59" y="398.43">.</text>
<text x="466.73" y="237.98">.</text>
<text x="485.94" y="465.21">+</text>
<text x="241.38" y="441.57">+</text>
<text x="351.90" y="7.21">*</text>
<text x="206.93" y="240.09">+</text>
<text x="341.15" y="330.95">+</text>
<text x="295.36" y="323.41">.</text>
<text x="319.41" y="5.69">.</text>
<text x="208.47" y="378.94">+</text>
<text x="437.28" y="128.88">*</text>
<text x="279.41" y="255.84">.</text>
<text x="141.95" y="308.19">.</text>
<text x="215.98" y="272.71">+</text>
<text x="163.15" y="82.54">+</text>
<text x="424.52" y="121.15">+</text>
<text x="172.56" y="181.78">*</text>
<text x="184.01" y="289.86">+</text>
<text x="19.39" y="423.95">+</text>
<text x="258.96" y="415.78">+</text>
<text x="332.29" y="244.19">+</text>
<text x="275.25" y="7.17">+</text>
<text x="54.64" y="178.12">+</text>
<text x="237.47" y="88.28">.</text>
<text x="190.94" y="31.27">+</text>
<text x="82.48" y="133.93">*</text>
<text x="93.22" y="318.16">.</text>
<text x="278.92" y="59.45">.</text>
<text x="28.33" y="377.88">+</text>
<text x="336.63" y="289.25">+</text>

</svg>