
<svg viewBox="0 0 500 500" xmlns="http://www.w.org/2000/svg" width="100%" height="100%" style="background-color: #0a0a14; font-family: 'Courier New', Courier, monospace;">
    <style>
        text { fill: #aaa; font-size: 10px; text-anchor: middle; dominant-baseline: middle; }
    </style>
    <text x="163.02" y="325.42">.</text>
<text x="402.69" y="192.31">.</text>
<text x="265.75" y="377.13">+</text>
<text x="75.95" y="87.33">+</text>
<text x="9.72" y="141.99">+</text>
<text x="181.80" y="481.33">*</text>
<text x="132.80" y="279.06">.</text>
<text x="67.65" y="188.52">+</text>
<text x="279.94" y="23.39">+</text>
<text x="159.39" y="307.22">*</text>
<text x="432.44" y="308.26">.</text>
<text x="241.33" y="481.06">*</text>
<text x="64.40" y="493.33">.</text>
<text x="279.42" y="222.54">.</text>
<text x="334.81" y="2.74">+</text>
<text x="38.48" y="403.42">+</text>
<text x="395.03" y="159.95">+</text>
<text x="0.94" y="351.13">+</text>
<text x="47.34" y="4.38">*</text>
<text x="234.73" y="264.37">.</text>
<text x="207.56" y="197.37">+</text>
<text x="109.97" y="235.03">.</text>
<text x="108.97" y="55.20">+</text>
<text x="348.20" y="190.59">+</text>
<text x="56.26" y="482.65">.</text>
<text x="443.91" y="145.98">.</text>
<text x="119.52" y="105.33">+</text>
<text x="485.69" y="232.95">.</text>
<text x="399.37" y="95.00">+</text>
<text x="112.30" y="356.28">*</text>
<text x="16.86" y="398.15">*</text>
<text x="195.17" y="63.54">+</text>
<text x="268.67" y="72.79">.</text>
<text x="279.70" y="258.34">*</text>
<text x="403.63" y="231.67">+</text>
<text x="112.38" y="78.27">.</text>
<text x="350.76" y="41.67">.</text>
<text x="88.66" y="274.48">.</text>
<text x="256.38" y="292.34">+</text>
<text x="86.11" y="189.53">.</text>
<text x="423.79" y="89.59">*</text>
<text x="184.69" y="303.24">.</text>
<text x="5.42" y="424.71">.</text>
<text x="56.15" y="426.79">.</text>
<text x="428.87" y="69.14">.</text>
<text x="67.63" y="270.31">.</text>
<text x="235.69" y="231.86">+</text>
<text x="188.98" y="491.03">.</text>
<text x="232.64" y="338.34">+</text>
<text x="453.90" y="281.80">.</text>
<text x="352.26" y="489.77">+</text>
<text x="20.87" y="140.02">+</text>
<text x="13.47" y="21.74">.</text>
<text x="464.46" y="72.09">*</text>
<text x="440.16" y="468.42">.</text>
<text x="143.13" y="146.01">.</text>
<text x="270.59" y="421.08">+</text>
<text x="35.89" y="433.52">+</text>
<text x="196.43" y="69.03">.</text>
<text x="31.52" y="50.80">+</text>
<text x="303.20" y="349.96">.</text>
<text x="268.94" y="465.90">+</text>
<text x="451.10" y="129.07">.</text>
<text x="201.76" y="210.21">+</text>
<text x="243.64" y="484.07">.</text>
<text x="109.93" y="320.54">*</text>
<text x="160.06" y="32.67">+</text>
<text x="488.42" y="244.03">.</text>
<text x="168.80" y="37.09">.</text>
<text x="146.45" y="300.20">.</text>
<text x="444.27" y="52.06">+</text>
<text x="278.47" y="309.38">+</text>
<text x="272.48" y="94.58">.</text>
<text x="325.83" y="336.71">.</text>
<text x="92.02" y="478.90">.</text>
<text x="150.35" y="57.07">+</text>
<text x="128.38" y="133.23">+</text>
<text x="340.66" y="226.70">+</text>
<text x="370.20" y="160.21">.</text>
<text x="415.74" y="316.91">+</text>
<text x="133.41" y="191.45">*</text>
<text x="100.09" y="226.32">.</text>
<text x="120.32" y="78.82">+</text>
<text x="194.43" y="131.90">.</text>
<text x="390.37" y="385.25">+</text>
<text x="83.85" y="159.76">+</text>
<text x="387.22" y="306.32">+</text>
<text x="61.76" y="56.51">.</text>
<text x="21.02" y="365.08">.</text>
<text x="116.32" y="318.97">.</text>
<text x="238.10" y="172.29">+</text>
<text x="105.48" y="160.94">+</text>
<text x="167.47" y="196.97">.</text>
<text x="137.67" y="256.58">.</text>
<text x="302.15" y="321.73">.</text>
<text x="214.02" y="121.13">+</text>
<text x="287.74" y="99.29">+</text>
<text x="60.57" y="157.85">+</text>
<text x="266.73" y="277.11">.</text>
<text x="423.19" y="382.66">+</text>
<text x="161.63" y="422.46">.</text>
<text x="88.72" y="140.94">+</text>
<text x="23.45" y="40.55">.</text>
<text x="413.09" y="478.82">+</text>
<text x="451.81" y="174.79">.</text>
<text x="425.10" y="445.55">+</text>
<text x="118.12" y="288.57">+</text>
<text x="364.52" y="220.12">+</text>
<text x="321.36" y="393.80">+</text>
<text x="158.32" y="120.58">.</text>
<text x="72.57" y="371.70">+</text>
<text x="439.18" y="405.69">.</text>
<text x="482.64" y="121.65">+</text>
<text x="386.14" y="481.56">.</text>
<text x="491.59" y="450.38">.</text>
<text x="266.85" y="377.96">+</text>
<text x="278.98" y="154.86">+</text>
<text x="132.96" y="20.12">.</text>
<text x="28.26" y="42.11">*</text>
<text x="429.11" y="59.34">+</text>
<text x="479.00" y="434.86">*</text>
<text x="224.57" y="140.71">+</text>
<text x="185.26" y="132.37">+</text>
<text x="299.86" y="237.50">.</text>
<text x="83.89" y="477.25">.</text>
<text x="439.24" y="280.57">.</text>
<text x="264.74" y="79.39">.</text>
<text x="497.31" y="264.63">+</text>
<text x="491.79" y="190.48">*</text>
<text x="335.98" y="54.04">.</text>
<text x="380.84" y="57.13">+</text>
<text x="316.02" y="401.67">+</text>
<text x="373.90" y="135.52">*</text>
<text x="444.31" y="15.49">.</text>
<text x="255.10" y="243.66">+</text>
<text x="264.48" y="136.84">.</text>
<text x="212.90" y="115.72">+</text>
<text x="200.96" y="95.05">+</text>
<text x="427.77" y="461.69">*</text>
<text x="336.93" y="422.17">+</text>
<text x="145.33" y="497.09">.</text>
<text x="259.55" y="401.22">*</text>
<text x="186.44" y="208.99">*</text>
<text x="380.68" y="10.64">+</text>
<text x="188.19" y="214.89">*</text>
<text x="109.04" y="227.17">+</text>
<text x="213.26" y="288.63">+</text>
<text x="278.79" y="379.43">+</text>
<text x="85.05" y="278.94">+</text>
<text x="248.79" y="168.39">.</text>
<text x="39.18" y="36.12">.</text>
<text x="442.68" y="430.37">*</text>
<text x="477.95" y="209.19">+</text>
<text x="346.71" y="263.75">+</text>
<text x="190.83" y="429.65">+</text>
<text x="182.94" y="141.34">*</text>
<text x="330.79" y="186.09">.</text>
<text x="115.72" y="218.85">+</text>
<text x="217.59" y="69.51">.</text>
<text x="27.91" y="82.45">+</text>
<text x="243.70" y="336.27">.</text>
<text x="204.04" y="338.42">+</text>
<text x="36.85" y="109.85">+</text>
<text x="325.92" y="434.12">.</text>
<text x="327.02" y="357.42">+</text>
<text x="178.08" y="204.91">.</text>
<text x="195.06" y="222.61">.</text>
<text x="237.54" y="467.03">.</text>
<text x="338.82" y="75.89">.</text>
<text x="457.76" y="352.15">+</text>
<text x="171.43" y="124.13">+</text>
<text x="395.52" y="32.65">+</text>
<text x="25.67" y="324.70">+</text>
<text x="319.74" y="439.61">+</text>
<text x="356.29" y="112.01">+</text>
<text x="253.74" y="26.95">.</text>
<text x="348.97" y="356.93">.</text>
<text x="496.64" y="365.36">+</text>
<text x="399.65" y="257.01">.</text>
<text x="205.25" y="402.09">.</text>
<text x="138.70" y="433.97">*</text>
<text x="448.11" y="42.52">+</text>
<text x="302.94" y="422.64">+</text>
<text x="17.68" y="481.43">.</text>
<text x="303.23" y="6.08">*</text>
<text x="438.37" y="10.22">+</text>
<text x="150.55" y="96.85">*</text>
<text x="237.45" y="257.69">*</text>
<text x="311.18" y="262.69">.</text>
<text x="467.91" y="431.11">.</text>
<text x="19.46" y="247.32">+</text>
<text x="438.71" y="118.70">+</text>
<text x="206.32" y="163.17">+</text>
<text x="169.40" y="496.53">*</text>
<text x="25.08" y="315.95">+</text>
<text x="402.12" y="310.35">+</text>
<text x="341.73" y="298.21">+</text>

</svg>