
<svg viewBox="0 0 500 500" xmlns="http://www.w.org/2000/svg" width="100%" height="100%" style="background-color: #0a0a14; font-family: 'Courier New', Courier, monospace;">
    <style>
        text { fill: #aaa; font-size: 10px; text-anchor: middle; dominant-baseline: middle; }
    </style>
    <text x="329.17" y="55.79">*</text>
<text x="164.29" y="400.28">.</text>
<text x="401.40" y="417.56">+</text>
<text x="176.93" y="360.88">.</text>
<text x="156.30" y="170.89">.</text>
<text x="331.20" y="181.17">.</text>
<text x="465.59" y="323.14">+</text>
<text x="196.23" y="421.88">+</text>
<text x="462.72" y="250.78">.</text>
<text x="139.86" y="421.13">.</text>
<text x="364.80" y="202.32">+</text>
<text x="19.96" y="2.84">+</text>
<text x="111.91" y="104.25">.</text>
<text x="268.86" y="276.70">+</text>
<text x="496.53" y="350.72">+</text>
<text x="338.33" y="145.66">.</text>
<text x="493.51" y="441.35">.</text>
<text x="165.63" y="253.83">+</text>
<text x="152.38" y="45.16">+</text>
<text x="396.85" y="198.11">+</text>
<text x="424.95" y="48.45">.</text>
<text x="362.43" y="71.32">+</text>
<text x="222.66" y="29.81">*</text>
<text x="16.89" y="155.90">*</text>
<text x="336.47" y="363.75">*</text>
<text x="416.17" y="233.38">*</text>
<text x="429.73" y="236.71">+</text>
<text x="227.55" y="387.98">.</text>
<text x="13.58" y="131.91">*</text>
<text x="236.68" y="400.21">+</text>
<text x="14.79" y="430.05">+</text>
<text x="111.40" y="327.84">.</text>
<text x="168.52" y="329.68">+</text>
<text x="324.46" y="284.30">.</text>
<text x="111.65" y="147.88">+</text>
<text x="246.67" y="203.98">.</text>
<text x="198.22" y="12.33">.</text>
<text x="395.26" y="71.86">.</text>
<text x="398.38" y="115.86">.</text>
<text x="210.91" y="8.29">.</text>
<text x="2.92" y="458.92">.</text>
<text x="152.30" y="473.83">+</text>
<text x="136.14" y="282.00">.</text>
<text x="193.21" y="12.81">.</text>
<text x="467.60" y="218.79">.</text>
<text x="331.32" y="178.42">.</text>
<text x="205.48" y="430.28">+</text>
<text x="431.21" y="163.65">+</text>
<text x="52.16" y="49.39">+</text>
<text x="4.06" y="72.77">+</text>
<text x="362.72" y="488.09">.</text>
<text x="289.23" y="59.49">+</text>
<text x="430.16" y="123.84">+</text>
<text x="183.90" y="41.46">*</text>
<text x="108.78" y="319.15">*</text>
<text x="349.19" y="462.79">.</text>
<text x="122.38" y="170.94">*</text>
<text x="146.76" y="330.28">*</text>
<text x="385.47" y="61.48">*</text>
<text x="408.17" y="375.99">.</text>
<text x="76.97" y="197.27">.</text>
<text x="104.69" y="298.19">+</text>
<text x="28.94" y="126.84">+</text>
<text x="478.91" y="476.51">.</text>
<text x="123.17" y="473.70">*</text>
<text x="237.93" y="283.72">+</text>
<text x="185.55" y="471.42">+</text>
<text x="40.11" y="253.40">.</text>
<text x="63.02" y="176.28">.</text>
<text x="75.64" y="73.91">+</text>
<text x="337.26" y="108.87">.</text>
<text x="484.03" y="255.15">*</text>
<text x="393.24" y="446.67">.</text>
<text x="335.40" y="203.58">.</text>
<text x="316.74" y="84.65">.</text>
<text x="379.19" y="220.02">+</text>
<text x="254.95" y="88.12">.</text>
<text x="188.13" y="153.25">.</text>
<text x="348.47" y="49.09">+</text>
<text x="438.16" y="397.22">+</text>
<text x="98.29" y="104.57">+</text>
<text x="193.91" y="5.37">+</text>
<text x="467.17" y="181.69">.</text>
<text x="234.28" y="298.29">+</text>
<text x="223.14" y="435.34">.</text>
<text x="218.87" y="124.19">.</text>
<text x="391.35" y="379.17">.</text>
<text x="236.79" y="444.68">.</text>
<text x="169.95" y="57.98">+</text>
<text x="169.67" y="102.93">+</text>
<text x="135.90" y="315.76">.</text>
<text x="321.51" y="75.64">*</text>
<text x="196.40" y="46.61">+</text>
<text x="203.03" y="19.91">.</text>
<text x="342.40" y="21.99">.</text>
<text x="430.66" y="267.38">+</text>
<text x="348.26" y="351.54">+</text>
<text x="182.62" y="247.05">.</text>
<text x="44.52" y="381.12">.</text>
<text x="482.63" y="140.24">.</text>
<text x="255.45" y="274.83">+</text>
<text x="83.48" y="457.52">.</text>
<text x="307.22" y="438.10">+</text>
<text x="421.39" y="329.13">.</text>
<text x="283.34" y="424.33">+</text>
<text x="337.86" y="300.00">+</text>
<text x="393.75" y="165.13">.</text>
<text x="263.27" y="379.72">+</text>
<text x="10.98" y="367.37">*</text>
<text x="44.96" y="23.71">.</text>
<text x="119.87" y="406.02">+</text>
<text x="206.91" y="75.83">.</text>
<text x="212.25" y="300.61">*</text>
<text x="295.53" y="420.35">+</text>
<text x="241.20" y="424.12">+</text>
<text x="396.59" y="63.46">+</text>
<text x="494.09" y="95.86">+</text>
<text x="389.89" y="90.32">+</text>
<text x="362.28" y="265.20">.</text>
<text x="451.03" y="492.48">.</text>
<text x="176.48" y="449.97">+</text>
<text x="386.61" y="82.39">.</text>
<text x="308.47" y="328.34">+</text>
<text x="79.31" y="188.94">.</text>
<text x="367.83" y="104.30">.</text>
<text x="339.09" y="327.75">.</text>
<text x="187.88" y="59.25">+</text>
<text x="138.20" y="211.48">+</text>
<text x="347.14" y="430.12">+</text>
<text x="208.64" y="494.45">+</text>
<text x="56.35" y="117.68">*</text>
<text x="267.36" y="209.74">+</text>
<text x="303.22" y="159.01">+</text>
<text x="52.48" y="295.93">.</text>
<text x="15.10" y="104.26">.</text>
<text x="342.22" y="245.64">.</text>
<text x="258.85" y="38.39">*</text>
<text x="82.36" y="353.52">.</text>
<text x="339.55" y="267.52">+</text>
<text x="188.13" y="450.44">+</text>
<text x="448.91" y="93.98">*</text>
<text x="69.08" y="80.73">.</text>
<text x="491.58" y="34.67">+</text>
<text x="488.10" y="327.06">+</text>
<text x="490.06" y="171.29">.</text>
<text x="228.15" y="110.02">.</text>
<text x="103.00" y="22.99">.</text>
<text x="75.32" y="336.22">+</text>
<text x="65.93" y="467.61">.</text>
<text x="320.62" y="53.00">+</text>
<text x="347.09" y="269.18">+</text>
<text x="54.71" y="273.17">*</text>
<text x="359.80" y="323.98">+</text>
<text x="166.47" y="75.79">.</text>
<text x="309.24" y="450.68">+</text>
<text x="64.48" y="315.36">+</text>
<text x="430.70" y="385.46">.</text>
<text x="360.55" y="396.70">.</text>
<text x="231.07" y="290.99">+</text>
<text x="211.22" y="179.53">+</text>
<text x="344.19" y="213.55">+</text>
<text x="276.39" y="8.03">+</text>
<text x="482.00" y="115.26">+</text>
<text x="432.46" y="388.23">.</text>
<text x="212.52" y="78.88">+</text>
<text x="238.83" y="363.42">+</text>
<text x="119.11" y="496.91">*</text>
<text x="179.48" y="318.95">.</text>
<text x="257.15" y="185.40">+</text>
<text x="122.22" y="27.60">.</text>
<text x="303.48" y="133.06">+</text>
<text x="266.72" y="349.32">+</text>
<text x="354.02" y="359.27">+</text>
<text x="104.91" y="237.52">+</text>
<text x="156.68" y="207.76">+</text>
<text x="44.15" y="225.94">.</text>
<text x="104.35" y="282.50">.</text>
<text x="398.85" y="86.46">+</text>
<text x="438.69" y="422.03">.</text>
<text x="24.82" y="59.39">+</text>
<text x="37.37" y="439.70">+</text>
<text x="249.99" y="258.62">.</text>
<text x="98.30" y="300.58">.</text>
<text x="101.68" y="196.46">*</text>
<text x="288.66" y="167.96">+</text>
<text x="53.94" y="249.08">+</text>
<text x="172.10" y="318.07">.</text>
<text x="203.87" y="23.61">.</text>
<text x="491.31" y="493.86">+</text>
<text x="207.46" y="401.84">.</text>
<text x="228.13" y="261.47">+</text>
<text x="444.39" y="4.99">*</text>
<text x="200.65" y="499.10">*</text>
<text x="312.10" y="273.16">+</text>
<text x="18.86" y="283.43">.</text>
<text x="473.58" y="119.87">.</text>
<text x="67.89" y="93.40">.</text>
<text x="183.09" y="81.00">.</text>
<text x="60.40" y="362.36">+</text>
<text x="216.76" y="167.43">.</text>
<text x="57.84" y="358.63">+</text>
<text x="219.98" y="153.05">+</text>
<text x="312.55" y="381.61">+</text>
<text x="425.13" y="472.37">.</text>
<text x="312.69" y="311.17">*</text>
<text x="472.42" y="181.61">+</text>
<text x="355.86" y="172.59">+</text>
<text x="215.25" y="69.46">.</text>
<text x="287.22" y="63.85">+</text>

</svg>