
<svg viewBox="0 0 500 500" xmlns="http://www.w.org/2000/svg" width="100%" height="100%" style="background-color: #0a0a14; font-family: 'Courier New', Courier, monospace;">
    <style>
        text { fill: #aaa; font-size: 10px; text-anchor: middle; dominant-baseline: middle; }
    </style>
    <text x="383.47" y="334.89">+</text>
<text x="188.49" y="13.60">+</text>
<text x="164.54" y="91.92">.</text>
<text x="450.58" y="132.93">*</text>
<text x="225.29" y="128.48">.</text>
<text x="257.61" y="183.66">*</text>
<text x="269.61" y="455.65">.</text>
<text x="316.92" y="255.75">*</text>
<text x="346.37" y="285.12">.</text>
<text x="477.08" y="7.26">.</text>
<text x="70.98" y="471.13">+</text>
<text x="24.77" y="220.50">+</text>
<text x="422.44" y="418.72">+</text>
<text x="314.96" y="314.15">+</text>
<text x="415.87" y="499.51">*</text>
<text x="292.42" y="48.57">+</text>
<text x="124.72" y="396.36">*</text>
<text x="93.11" y="302.25">*</text>
<text x="34.87" y="58.28">+</text>
<text x="208.00" y="452.41">+</text>
<text x="245.41" y="394.05">+</text>
<text x="162.89" y="461.67">.</text>
<text x="473.80" y="154.25">+</text>
<text x="384.28" y="350.62">.</text>
<text x="94.24" y="50.50">+</text>
<text x="274.32" y="466.40">+</text>
<text x="452.84" y="242.42">.</text>
<text x="177.72" y="344.46">.</text>
<text x="68.61" y="341.43">*</text>
<text x="488.12" y="161.97">*</text>
<text x="115.18" y="373.86">+</text>
<text x="212.34" y="117.67">+</text>
<text x="353.39" y="497.38">.</text>
<text x="227.50" y="427.92">+</text>
<text x="71.29" y="118.65">.</text>
<text x="101.48" y="285.72">.</text>
<text x="166.22" y="322.45">.</text>
<text x="366.19" y="321.51">.</text>
<text x="352.52" y="39.46">+</text>
<text x="223.38" y="282.66">+</text>
<text x="86.49" y="164.13">+</text>
<text x="208.16" y="149.70">+</text>
<text x="324.22" y="83.49">.</text>
<text x="402.50" y="62.67">.</text>
<text x="108.01" y="330.72">+</text>
<text x="64.99" y="322.54">*</text>
<text x="82.97" y="17.99">+</text>
<text x="486.27" y="342.16">+</text>
<text x="184.72" y="321.64">.</text>
<text x="0.17" y="228.76">+</text>
<text x="36.60" y="441.57">+</text>
<text x="462.07" y="117.32">.</text>
<text x="390.15" y="119.68">.</text>
<text x="392.46" y="294.40">*</text>
<text x="253.21" y="138.12">.</text>
<text x="172.50" y="186.02">.</text>
<text x="462.60" y="271.11">.</text>
<text x="366.88" y="253.26">*</text>
<text x="281.43" y="74.02">+</text>
<text x="67.76" y="478.02">.</text>
<text x="282.01" y="373.86">.</text>
<text x="328.82" y="228.64">+</text>
<text x="345.73" y="205.57">+</text>
<text x="320.28" y="23.26">.</text>
<text x="356.88" y="481.29">.</text>
<text x="409.58" y="145.57">.</text>
<text x="175.85" y="481.73">*</text>
<text x="266.23" y="136.54">+</text>
<text x="143.14" y="28.41">+</text>
<text x="402.58" y="88.96">+</text>
<text x="320.12" y="445.31">+</text>
<text x="420.90" y="21.38">+</text>
<text x="124.10" y="48.44">.</text>
<text x="61.38" y="481.71">*</text>
<text x="475.92" y="128.66">.</text>
<text x="284.03" y="325.87">+</text>
<text x="414.81" y="23.01">.</text>
<text x="179.33" y="220.36">+</text>
<text x="24.07" y="116.74">.</text>
<text x="384.02" y="47.57">+</text>
<text x="282.15" y="214.87">+</text>
<text x="454.96" y="293.48">*</text>
<text x="481.00" y="80.73">.</text>
<text x="270.65" y="104.74">.</text>
<text x="265.75" y="75.21">+</text>
<text x="16.16" y="403.11">.</text>
<text x="400.55" y="355.67">+</text>
<text x="59.64" y="410.35">+</text>
<text x="255.12" y="39.82">.</text>
<text x="148.07" y="227.63">+</text>
<text x="187.87" y="296.16">*</text>
<text x="136.21" y="159.75">.</text>
<text x="310.18" y="174.89">+</text>
<text x="291.74" y="424.93">+</text>
<text x="376.51" y="216.64">.</text>
<text x="393.45" y="208.77">.</text>
<text x="487.30" y="406.33">.</text>
<text x="410.28" y="487.33">+</text>
<text x="391.81" y="195.61">+</text>
<text x="211.72" y="241.77">.</text>
<text x="234.85" y="131.44">*</text>
<text x="191.19" y="489.84">.</text>
<text x="486.64" y="212.84">.</text>
<text x="163.92" y="64.21">.</text>
<text x="270.66" y="252.60">*</text>
<text x="454.75" y="412.54">.</text>
<text x="157.43" y="316.16">.</text>
<text x="184.72" y="257.56">.</text>
<text x="283.14" y="233.68">.</text>
<text x="269.47" y="172.11">*</text>
<text x="368.92" y="435.58">+</text>
<text x="321.18" y="491.48">.</text>
<text x="181.47" y="61.41">*</text>
<text x="85.77" y="133.91">.</text>
<text x="444.88" y="143.03">.</text>
<text x="239.76" y="78.58">+</text>
<text x="328.78" y="185.81">*</text>
<text x="26.47" y="384.56">+</text>
<text x="127.01" y="179.25">.</text>
<text x="379.55" y="387.93">.</text>
<text x="162.35" y="468.86">.</text>
<text x="13.68" y="402.68">+</text>
<text x="201.35" y="270.64">+</text>
<text x="401.43" y="74.65">+</text>
<text x="210.81" y="171.43">+</text>
<text x="52.99" y="396.82">+</text>
<text x="127.28" y="440.63">+</text>
<text x="83.06" y="193.50">.</text>
<text x="208.13" y="271.29">*</text>
<text x="387.70" y="83.19">+</text>
<text x="164.27" y="427.58">.</text>
<text x="493.40" y="79.19">.</text>
<text x="101.77" y="104.55">+</text>
<text x="54.73" y="253.97">.</text>
<text x="240.23" y="197.22">+</text>
<text x="497.73" y="392.24">+</text>
<text x="190.92" y="250.25">+</text>
<text x="13.30" y="30.79">+</text>
<text x="172.41" y="124.36">.</text>
<text x="113.75" y="26.58">.</text>
<text x="88.18" y="77.59">.</text>
<text x="407.94" y="421.84">.</text>
<text x="140.22" y="2.17">.</text>
<text x="192.66" y="477.13">+</text>
<text x="213.81" y="63.28">.</text>
<text x="270.55" y="303.02">.</text>
<text x="35.87" y="329.41">.</text>
<text x="483.28" y="329.51">+</text>
<text x="290.94" y="307.21">*</text>
<text x="214.84" y="222.10">.</text>
<text x="257.42" y="436.33">+</text>
<text x="303.02" y="70.75">+</text>
<text x="57.98" y="475.44">.</text>
<text x="280.63" y="191.59">*</text>
<text x="27.47" y="34.55">+</text>
<text x="432.50" y="319.85">+</text>
<text x="457.41" y="270.97">.</text>
<text x="136.40" y="249.14">+</text>
<text x="87.22" y="280.85">.</text>
<text x="216.95" y="435.52">.</text>
<text x="284.55" y="28.45">.</text>
<text x="270.87" y="433.66">.</text>
<text x="348.44" y="445.58">+</text>
<text x="330.07" y="10.20">.</text>
<text x="476.37" y="256.38">.</text>
<text x="129.09" y="253.74">+</text>
<text x="376.32" y="366.47">+</text>
<text x="107.71" y="130.03">+</text>
<text x="5.49" y="130.78">+</text>
<text x="91.69" y="308.46">*</text>
<text x="88.82" y="259.23">+</text>
<text x="462.77" y="233.48">.</text>
<text x="75.24" y="484.40">.</text>
<text x="380.87" y="285.02">+</text>
<text x="135.22" y="375.22">.</text>
<text x="357.86" y="213.26">+</text>
<text x="9.18" y="73.60">+</text>
<text x="70.33" y="361.37">.</text>
<text x="368.72" y="298.18">.</text>
<text x="123.76" y="109.33">.</text>
<text x="154.96" y="267.39">+</text>
<text x="290.84" y="411.58">.</text>
<text x="25.97" y="94.50">*</text>
<text x="98.98" y="325.91">+</text>
<text x="298.21" y="236.87">+</text>
<text x="191.74" y="362.11">+</text>
<text x="477.96" y="274.80">.</text>
<text x="327.89" y="455.29">.</text>
<text x="187.58" y="162.26">+</text>
<text x="132.74" y="144.80">.</text>
<text x="6.24" y="57.69">+</text>
<text x="232.45" y="11.44">.</text>
<text x="189.88" y="459.27">+</text>
<text x="152.52" y="145.19">+</text>
<text x="389.85" y="487.03">+</text>
<text x="325.83" y="459.72">.</text>
<text x="85.41" y="376.39">+</text>
<text x="302.62" y="337.91">+</text>
<text x="242.69" y="129.16">+</text>
<text x="415.75" y="313.82">+</text>
<text x="302.19" y="400.42">+</text>
<text x="255.58" y="284.12">+</text>
<text x="370.99" y="449.46">*</text>
<text x="180.84" y="72.50">+</text>
<text x="77.77" y="368.76">*</text>
<text x="203.36" y="327.42">+</text>
<text x="216.64" y="23.73">+</text>

</svg>