
<svg viewBox="0 0 500 500" xmlns="http://www.w.org/2000/svg" width="100%" height="100%" style="background-color: #0a0a14; font-family: 'Courier New', Courier, monospace;">
    <style>
        text { fill: #aaa; font-size: 10px; text-anchor: middle; dominant-baseline: middle; }
    </style>
    <text x="153.84" y="443.95">.</text>
<text x="494.73" y="114.14">.</text>
<text x="196.92" y="408.81">.</text>
<text x="97.04" y="160.61">+</text>
<text x="11.04" y="105.09">.</text>
<text x="412.31" y="464.59">+</text>
<text x="307.01" y="210.40">.</text>
<text x="431.73" y="354.09">+</text>
<text x="468.85" y="137.26">*</text>
<text x="109.49" y="218.82">*</text>
<text x="268.13" y="275.97">.</text>
<text x="181.08" y="21.41">.</text>
<text x="290.36" y="488.10">+</text>
<text x="385.40" y="130.67">*</text>
<text x="354.04" y="160.35">.</text>
<text x="313.33" y="360.19">+</text>
<text x="57.93" y="36.56">+</text>
<text x="457.54" y="20.57">+</text>
<text x="155.63" y="182.39">+</text>
<text x="195.98" y="129.65">+</text>
<text x="320.28" y="51.72">.</text>
<text x="419.55" y="225.21">*</text>
<text x="428.15" y="297.52">.</text>
<text x="270.03" y="78.48">.</text>
<text x="230.52" y="138.86">+</text>
<text x="139.68" y="98.97">.</text>
<text x="329.48" y="108.52">+</text>
<text x="446.57" y="202.02">+</text>
<text x="291.33" y="352.69">*</text>
<text x="287.19" y="112.00">.</text>
<text x="454.24" y="36.51">.</text>
<text x="439.36" y="299.29">.</text>
<text x="88.61" y="27.39">+</text>
<text x="385.22" y="285.61">.</text>
<text x="195.26" y="355.49">.</text>
<text x="36.27" y="90.05">+</text>
<text x="206.97" y="316.09">.</text>
<text x="104.85" y="496.36">+</text>
<text x="483.15" y="389.72">+</text>
<text x="385.77" y="28.51">.</text>
<text x="499.31" y="159.82">+</text>
<text x="254.63" y="490.17">.</text>
<text x="431.81" y="479.36">.</text>
<text x="334.31" y="329.68">.</text>
<text x="368.29" y="420.17">.</text>
<text x="219.82" y="47.48">.</text>
<text x="173.39" y="333.02">+</text>
<text x="118.79" y="20.29">.</text>
<text x="157.11" y="62.45">+</text>
<text x="201.27" y="343.11">+</text>
<text x="39.14" y="218.47">+</text>
<text x="270.26" y="244.25">.</text>
<text x="418.88" y="37.87">.</text>
<text x="369.16" y="464.97">.</text>
<text x="230.54" y="48.43">*</text>
<text x="312.46" y="472.53">.</text>
<text x="56.20" y="360.43">*</text>
<text x="478.24" y="224.25">.</text>
<text x="90.97" y="166.00">.</text>
<text x="345.35" y="124.15">*</text>
<text x="432.54" y="399.76">*</text>
<text x="408.34" y="303.60">*</text>
<text x="320.97" y="195.08">.</text>
<text x="83.36" y="429.21">.</text>
<text x="477.00" y="45.52">*</text>
<text x="302.12" y="90.65">.</text>
<text x="498.68" y="262.48">*</text>
<text x="469.52" y="326.33">.</text>
<text x="256.49" y="201.91">.</text>
<text x="64.01" y="302.69">+</text>
<text x="40.37" y="331.07">+</text>
<text x="32.98" y="414.44">.</text>
<text x="356.92" y="153.50">+</text>
<text x="90.87" y="386.56">*</text>
<text x="197.78" y="49.34">.</text>
<text x="202.39" y="455.58">+</text>
<text x="274.36" y="194.09">+</text>
<text x="4.20" y="316.93">+</text>
<text x="34.51" y="471.28">*</text>
<text x="410.58" y="181.52">.</text>
<text x="404.32" y="183.41">+</text>
<text x="385.02" y="172.18">*</text>
<text x="439.62" y="151.19">.</text>
<text x="394.27" y="316.77">+</text>
<text x="96.19" y="43.94">.</text>
<text x="340.28" y="458.28">*</text>
<text x="357.34" y="37.16">.</text>
<text x="141.11" y="403.75">*</text>
<text x="90.19" y="236.86">.</text>
<text x="97.00" y="137.00">.</text>
<text x="117.79" y="295.29">.</text>
<text x="384.25" y="456.95">.</text>
<text x="109.58" y="339.54">+</text>
<text x="416.39" y="149.05">+</text>
<text x="364.65" y="384.89">.</text>
<text x="367.98" y="278.94">+</text>
<text x="174.62" y="223.67">*</text>
<text x="493.14" y="277.62">*</text>
<text x="68.12" y="373.34">+</text>
<text x="349.94" y="144.39">.</text>
<text x="127.29" y="18.86">.</text>
<text x="456.09" y="477.99">.</text>
<text x="210.46" y="12.68">+</text>
<text x="353.63" y="246.27">*</text>
<text x="204.83" y="46.85">.</text>
<text x="15.25" y="205.86">.</text>
<text x="342.94" y="299.31">.</text>
<text x="361.42" y="49.33">.</text>
<text x="327.96" y="269.54">*</text>
<text x="224.08" y="54.96">+</text>
<text x="345.22" y="428.21">*</text>
<text x="300.46" y="174.24">.</text>
<text x="236.48" y="358.10">*</text>
<text x="479.32" y="420.09">*</text>
<text x="179.25" y="447.66">+</text>
<text x="145.39" y="66.72">+</text>
<text x="353.64" y="433.05">+</text>
<text x="251.27" y="411.29">+</text>
<text x="52.99" y="323.40">.</text>
<text x="27.98" y="379.01">+</text>
<text x="115.82" y="63.33">+</text>
<text x="10.87" y="50.08">+</text>
<text x="399.63" y="342.80">+</text>
<text x="83.65" y="297.17">.</text>
<text x="387.71" y="377.74">.</text>
<text x="392.39" y="439.54">+</text>
<text x="228.67" y="494.26">+</text>
<text x="92.01" y="493.30">.</text>
<text x="196.40" y="80.26">.</text>
<text x="58.75" y="211.82">.</text>
<text x="217.53" y="457.79">.</text>
<text x="278.05" y="247.66">+</text>
<text x="167.76" y="195.16">+</text>
<text x="226.58" y="19.62">+</text>
<text x="90.80" y="67.48">*</text>
<text x="283.68" y="410.95">+</text>
<text x="33.63" y="129.96">.</text>
<text x="125.81" y="125.22">.</text>
<text x="68.71" y="109.64">+</text>
<text x="96.96" y="132.73">+</text>
<text x="328.67" y="9.12">.</text>
<text x="476.88" y="464.23">+</text>
<text x="183.14" y="246.46">.</text>
<text x="174.58" y="30.52">+</text>
<text x="461.10" y="329.21">+</text>
<text x="222.45" y="140.85">.</text>
<text x="196.10" y="135.39">.</text>
<text x="405.47" y="496.37">.</text>
<text x="327.09" y="130.03">+</text>
<text x="292.56" y="67.79">+</text>
<text x="328.44" y="357.94">+</text>
<text x="450.37" y="271.07">.</text>
<text x="399.64" y="15.42">.</text>
<text x="86.13" y="317.24">.</text>
<text x="462.88" y="317.51">+</text>
<text x="494.55" y="8.31">.</text>
<text x="17.63" y="159.90">.</text>
<text x="111.39" y="363.18">+</text>
<text x="394.25" y="101.16">+</text>
<text x="16.25" y="174.89">+</text>
<text x="164.18" y="332.97">.</text>
<text x="27.18" y="71.77">+</text>
<text x="457.89" y="179.58">.</text>
<text x="118.42" y="296.24">*</text>
<text x="120.53" y="468.39">+</text>
<text x="16.27" y="239.93">+</text>
<text x="147.79" y="424.59">*</text>
<text x="337.90" y="404.58">+</text>
<text x="118.96" y="305.83">*</text>
<text x="428.45" y="84.70">+</text>
<text x="365.81" y="298.72">.</text>
<text x="382.86" y="192.88">+</text>
<text x="285.42" y="336.05">.</text>
<text x="415.04" y="74.24">*</text>
<text x="309.92" y="346.09">.</text>
<text x="219.91" y="199.60">.</text>
<text x="431.89" y="173.44">.</text>
<text x="109.47" y="163.66">+</text>
<text x="418.47" y="344.86">.</text>
<text x="404.10" y="95.48">+</text>
<text x="31.23" y="498.50">+</text>
<text x="395.71" y="26.78">+</text>
<text x="306.52" y="17.20">*</text>
<text x="280.44" y="321.96">.</text>
<text x="433.85" y="206.87">*</text>
<text x="358.13" y="206.96">+</text>
<text x="475.16" y="206.51">.</text>
<text x="184.91" y="422.18">*</text>
<text x="393.94" y="239.59">+</text>
<text x="263.27" y="287.89">+</text>
<text x="356.34" y="401.27">.</text>
<text x="485.71" y="295.06">.</text>
<text x="315.51" y="473.59">+</text>
<text x="197.11" y="439.97">*</text>
<text x="158.02" y="416.55">.</text>
<text x="263.20" y="125.99">.</text>
<text x="201.57" y="216.52">+</text>
<text x="202.07" y="220.27">.</text>
<text x="376.38" y="437.47">*</text>
<text x="477.27" y="448.90">.</text>
<text x="117.48" y="407.69">.</text>
<text x="273.70" y="348.24">+</text>
<text x="344.06" y="46.29">.</text>
<text x="82.81" y="101.87">.</text>
<text x="141.87" y="415.62">.</text>
<text x="75.23" y="195.89">+</text>
<text x="245.50" y="274.23">.</text>
<text x="267.03" y="156.67">.</text>
<text x="337.03" y="305.29">*</text>
<text x="230.41" y="412.48">.</text>
<text x="292.98" y="148.08">.</text>
<text x="5.47" y="318.62">.</text>
<text x="441.73" y="50.49">.</text>
<text x="34.25" y="20.66">+</text>

</svg>