
<svg viewBox="0 0 500 500" xmlns="http://www.w.org/2000/svg" width="100%" height="100%" style="background-color: #0a0a14; font-family: 'Courier New', Courier, monospace;">
    <style>
        text { fill: #aaa; font-size: 10px; text-anchor: middle; dominant-baseline: middle; }
    </style>
    <text x="321.69" y="236.74">.</text>
<text x="184.66" y="48.80">+</text>
<text x="265.83" y="106.58">+</text>
<text x="471.96" y="319.75">.</text>
<text x="489.41" y="103.21">+</text>
<text x="483.34" y="294.25">+</text>
<text x="384.03" y="308.00">.</text>
<text x="150.93" y="213.55">+</text>
<text x="391.97" y="87.16">.</text>
<text x="330.17" y="200.31">.</text>
<text x="305.37" y="211.83">+</text>
<text x="184.89" y="430.65">.</text>
<text x="6.97" y="91.39">*</text>
<text x="121.25" y="89.11">*</text>
<text x="371.50" y="422.83">+</text>
<text x="34.27" y="24.44">+</text>
<text x="88.89" y="494.10">+</text>
<text x="474.62" y="407.29">.</text>
<text x="481.97" y="316.05">.</text>
<text x="362.40" y="366.84">.</text>
<text x="127.94" y="380.26">*</text>
<text x="128.29" y="25.99">+</text>
<text x="75.98" y="397.88">.</text>
<text x="297.49" y="62.93">.</text>
<text x="323.69" y="438.63">.</text>
<text x="78.21" y="247.07">*</text>
<text x="104.58" y="289.18">.</text>
<text x="241.95" y="349.71">+</text>
<text x="36.87" y="271.78">+</text>
<text x="310.38" y="83.10">.</text>
<text x="445.89" y="254.81">*</text>
<text x="363.61" y="28.65">+</text>
<text x="205.05" y="445.78">.</text>
<text x="417.23" y="252.28">+</text>
<text x="138.92" y="101.59">*</text>
<text x="452.58" y="392.66">.</text>
<text x="75.10" y="208.90">*</text>
<text x="493.36" y="236.27">+</text>
<text x="398.50" y="268.16">.</text>
<text x="221.89" y="188.11">.</text>
<text x="30.49" y="11.16">+</text>
<text x="443.32" y="333.82">*</text>
<text x="334.52" y="90.32">+</text>
<text x="297.24" y="106.15">.</text>
<text x="350.86" y="417.60">+</text>
<text x="129.12" y="394.08">.</text>
<text x="322.27" y="314.83">+</text>
<text x="151.48" y="269.13">.</text>
<text x="88.01" y="292.19">.</text>
<text x="496.62" y="45.17">.</text>
<text x="179.86" y="147.33">.</text>
<text x="483.33" y="106.10">+</text>
<text x="363.60" y="23.72">.</text>
<text x="68.68" y="166.14">*</text>
<text x="227.47" y="369.21">.</text>
<text x="245.29" y="239.37">.</text>
<text x="231.75" y="70.13">.</text>
<text x="239.32" y="1.25">.</text>
<text x="302.13" y="465.43">.</text>
<text x="260.03" y="393.36">.</text>
<text x="263.52" y="269.40">.</text>
<text x="300.75" y="392.73">+</text>
<text x="416.45" y="459.36">.</text>
<text x="126.34" y="373.48">.</text>
<text x="463.84" y="55.94">+</text>
<text x="169.86" y="283.98">+</text>
<text x="221.83" y="26.90">.</text>
<text x="247.62" y="225.08">+</text>
<text x="316.47" y="229.67">+</text>
<text x="485.84" y="95.15">*</text>
<text x="236.21" y="141.92">.</text>
<text x="354.73" y="37.39">+</text>
<text x="348.76" y="332.00">.</text>
<text x="364.92" y="165.64">.</text>
<text x="496.84" y="184.79">*</text>
<text x="422.81" y="393.20">+</text>
<text x="377.23" y="167.34">+</text>
<text x="129.16" y="199.00">.</text>
<text x="141.28" y="224.38">+</text>
<text x="366.90" y="193.40">.</text>
<text x="272.11" y="435.08">+</text>
<text x="471.94" y="382.51">+</text>
<text x="320.42" y="439.15">+</text>
<text x="305.63" y="452.59">.</text>
<text x="382.00" y="332.17">.</text>
<text x="71.47" y="113.05">.</text>
<text x="40.48" y="90.12">+</text>
<text x="285.69" y="130.03">+</text>
<text x="495.01" y="370.62">.</text>
<text x="369.24" y="476.28">+</text>
<text x="362.60" y="456.41">+</text>
<text x="430.52" y="190.60">.</text>
<text x="186.15" y="181.65">.</text>
<text x="153.54" y="361.40">.</text>
<text x="167.00" y="164.51">*</text>
<text x="21.56" y="268.04">.</text>
<text x="478.60" y="301.99">+</text>
<text x="277.20" y="88.31">+</text>
<text x="303.84" y="412.38">+</text>
<text x="280.60" y="476.05">.</text>
<text x="224.96" y="106.21">+</text>
<text x="436.61" y="66.89">.</text>
<text x="39.60" y="420.03">*</text>
<text x="125.55" y="226.05">*</text>
<text x="57.16" y="424.12">+</text>
<text x="75.69" y="52.25">.</text>
<text x="493.75" y="229.16">.</text>
<text x="133.00" y="361.62">+</text>
<text x="220.56" y="154.50">+</text>
<text x="350.91" y="70.56">*</text>
<text x="259.43" y="129.64">+</text>
<text x="409.37" y="464.53">.</text>
<text x="410.33" y="394.46">.</text>
<text x="145.88" y="206.68">+</text>
<text x="472.79" y="218.15">+</text>
<text x="272.29" y="466.96">.</text>
<text x="251.11" y="185.85">+</text>
<text x="293.55" y="140.24">+</text>
<text x="266.34" y="303.29">*</text>
<text x="71.95" y="216.69">.</text>
<text x="224.59" y="215.37">+</text>
<text x="246.34" y="171.43">.</text>
<text x="71.15" y="202.33">.</text>
<text x="384.87" y="73.87">*</text>
<text x="37.66" y="264.02">.</text>
<text x="390.40" y="315.14">*</text>
<text x="269.72" y="137.26">+</text>
<text x="237.68" y="82.08">.</text>
<text x="459.98" y="166.66">+</text>
<text x="324.33" y="258.28">.</text>
<text x="221.38" y="258.56">*</text>
<text x="210.99" y="498.93">+</text>
<text x="141.58" y="295.20">+</text>
<text x="301.88" y="170.91">*</text>
<text x="329.41" y="456.10">+</text>
<text x="45.16" y="95.03">+</text>
<text x="473.26" y="188.88">.</text>
<text x="374.39" y="166.17">.</text>
<text x="498.16" y="73.96">*</text>
<text x="134.08" y="27.14">.</text>
<text x="131.71" y="137.81">+</text>
<text x="72.91" y="266.23">*</text>
<text x="135.54" y="120.09">.</text>
<text x="318.68" y="71.59">.</text>
<text x="87.41" y="286.00">.</text>
<text x="45.88" y="392.29">+</text>
<text x="77.72" y="209.32">.</text>
<text x="446.83" y="464.91">+</text>
<text x="57.82" y="266.89">.</text>
<text x="76.68" y="188.88">+</text>
<text x="80.26" y="301.99">.</text>
<text x="469.77" y="424.13">+</text>
<text x="459.90" y="31.74">+</text>
<text x="54.67" y="4.11">+</text>
<text x="170.74" y="77.36">*</text>
<text x="282.46" y="342.05">.</text>
<text x="197.02" y="219.71">+</text>
<text x="47.58" y="7.21">.</text>
<text x="101.20" y="308.83">+</text>
<text x="109.20" y="155.42">.</text>
<text x="154.19" y="398.35">*</text>
<text x="469.80" y="158.20">+</text>
<text x="161.19" y="273.09">+</text>
<text x="17.16" y="416.43">+</text>
<text x="497.76" y="130.80">.</text>
<text x="146.93" y="331.74">.</text>
<text x="179.90" y="137.37">+</text>
<text x="401.32" y="22.71">+</text>
<text x="402.87" y="60.57">.</text>
<text x="438.16" y="267.37">+</text>
<text x="464.97" y="357.51">.</text>
<text x="152.88" y="72.32">*</text>
<text x="478.02" y="18.56">+</text>
<text x="250.83" y="228.96">+</text>
<text x="108.69" y="5.41">.</text>
<text x="296.16" y="409.19">+</text>
<text x="167.38" y="430.91">.</text>
<text x="386.45" y="14.51">*</text>
<text x="122.16" y="213.37">.</text>
<text x="182.36" y="151.12">.</text>
<text x="483.39" y="280.00">.</text>
<text x="64.82" y="237.84">.</text>
<text x="431.00" y="167.45">.</text>
<text x="89.36" y="478.22">*</text>
<text x="458.20" y="32.83">.</text>
<text x="129.60" y="75.21">+</text>
<text x="49.61" y="124.00">+</text>
<text x="177.15" y="41.60">*</text>
<text x="423.55" y="334.47">.</text>
<text x="472.32" y="85.09">+</text>
<text x="244.40" y="431.76">+</text>
<text x="193.88" y="159.82">+</text>
<text x="436.28" y="263.25">.</text>
<text x="14.46" y="156.45">+</text>
<text x="382.99" y="381.86">+</text>
<text x="292.01" y="156.79">.</text>
<text x="35.43" y="363.30">*</text>
<text x="386.60" y="445.27">+</text>
<text x="59.38" y="10.91">*</text>
<text x="346.49" y="153.83">.</text>
<text x="29.32" y="135.14">.</text>
<text x="386.55" y="104.40">*</text>
<text x="406.39" y="345.57">*</text>
<text x="3.48" y="308.98">.</text>
<text x="2.58" y="159.54">+</text>
<text x="188.45" y="41.51">.</text>
<text x="178.43" y="171.54">.</text>
<text x="419.66" y="196.26">+</text>
<text x="306.59" y="163.84">.</text>
<text x="277.76" y="164.55">.</text>
<text x="169.83" y="237.63">+</text>
<text x="43.70" y="423.39">.</text>
<text x="188.45" y="252.97">.</text>
<text x="218.20" y="156.21">+</text>
<text x="295.02" y="48.19">.</text>
<text x="269.74" y="98.46">+</text>
<text x="339.40" y="36.23">.</text>
<text x="323.79" y="14.55">+</text>
<text x="123.10" y="319.49">.</text>
<text x="20.17" y="59.90">+</text>
<text x="171.28" y="43.83">+</text>
<text x="86.07" y="319.48">+</text>
<text x="433.99" y="399.30">*</text>

</svg>