
<svg viewBox="0 0 500 500" xmlns="http://www.w.org/2000/svg" width="100%" height="100%" style="background-color: #0a0a14; font-family: 'Courier New', Courier, monospace;">
    <style>
        text { fill: #aaa; font-size: 10px; text-anchor: middle; dominant-baseline: middle; }
    </style>
    <text x="482.19" y="179.41">.</text>
<text x="422.54" y="478.88">.</text>
<text x="129.22" y="436.17">.</text>
<text x="496.52" y="467.26">.</text>
<text x="337.26" y="442.43">+</text>
<text x="353.53" y="86.56">+</text>
<text x="139.28" y="466.05">+</text>
<text x="235.54" y="445.33">.</text>
<text x="17.61" y="198.34">+</text>
<text x="8.46" y="54.22">.</text>
<text x="237.05" y="300.83">*</text>
<text x="366.69" y="456.37">+</text>
<text x="183.25" y="201.89">.</text>
<text x="489.74" y="439.77">.</text>
<text x="209.95" y="52.88">*</text>
<text x="36.33" y="3.31">.</text>
<text x="31.95" y="202.82">.</text>
<text x="336.01" y="238.87">+</text>
<text x="30.35" y="227.69">.</text>
<text x="454.34" y="455.25">.</text>
<text x="72.09" y="496.31">+</text>
<text x="498.37" y="112.22">.</text>
<text x="284.30" y="260.01">+</text>
<text x="39.42" y="293.44">+</text>
<text x="491.41" y="492.82">.</text>
<text x="439.70" y="68.19">.</text>
<text x="483.19" y="307.99">+</text>
<text x="224.35" y="159.04">*</text>
<text x="28.58" y="76.44">+</text>
<text x="332.90" y="264.61">+</text>
<text x="25.35" y="229.73">.</text>
<text x="204.39" y="25.66">+</text>
<text x="23.45" y="436.09">.</text>
<text x="340.04" y="214.55">+</text>
<text x="265.51" y="417.83">.</text>
<text x="476.89" y="352.77">+</text>
<text x="499.45" y="387.90">.</text>
<text x="373.23" y="386.22">+</text>
<text x="105.21" y="181.60">.</text>
<text x="372.01" y="281.79">.</text>
<text x="381.60" y="316.38">.</text>
<text x="483.68" y="269.02">*</text>
<text x="237.96" y="159.01">.</text>
<text x="406.15" y="75.75">.</text>
<text x="350.15" y="246.54">.</text>
<text x="280.33" y="160.36">+</text>
<text x="21.27" y="471.45">.</text>
<text x="90.65" y="480.23">.</text>
<text x="161.75" y="485.80">+</text>
<text x="298.36" y="409.56">.</text>
<text x="53.01" y="154.19">+</text>
<text x="318.15" y="230.37">.</text>
<text x="344.50" y="377.11">+</text>
<text x="98.71" y="486.07">+</text>
<text x="495.96" y="87.06">.</text>
<text x="423.37" y="300.30">.</text>
<text x="425.71" y="179.99">+</text>
<text x="462.73" y="437.85">.</text>
<text x="253.96" y="348.68">+</text>
<text x="415.85" y="326.06">*</text>
<text x="0.50" y="240.65">+</text>
<text x="371.06" y="485.30">+</text>
<text x="417.95" y="18.13">.</text>
<text x="315.37" y="419.40">+</text>
<text x="247.05" y="53.61">+</text>
<text x="355.66" y="68.41">.</text>
<text x="284.55" y="110.32">.</text>
<text x="336.60" y="493.55">*</text>
<text x="270.99" y="229.95">.</text>
<text x="391.10" y="388.46">*</text>
<text x="76.90" y="466.92">*</text>
<text x="115.97" y="239.05">.</text>
<text x="58.06" y="191.76">*</text>
<text x="205.10" y="44.58">.</text>
<text x="325.95" y="51.35">+</text>
<text x="212.22" y="222.40">.</text>
<text x="93.43" y="107.55">*</text>
<text x="222.84" y="58.08">.</text>
<text x="487.62" y="217.78">.</text>
<text x="291.74" y="68.21">+</text>
<text x="455.59" y="284.99">+</text>
<text x="187.86" y="5.18">.</text>
<text x="335.26" y="474.23">*</text>
<text x="67.16" y="348.94">.</text>
<text x="17.59" y="404.83">.</text>
<text x="222.78" y="146.15">+</text>
<text x="37.15" y="263.42">+</text>
<text x="46.08" y="391.84">.</text>
<text x="241.43" y="273.19">.</text>
<text x="69.80" y="361.39">+</text>
<text x="358.78" y="462.94">+</text>
<text x="176.60" y="489.72">.</text>
<text x="54.17" y="151.76">*</text>
<text x="399.75" y="233.49">+</text>
<text x="300.80" y="256.87">*</text>
<text x="29.97" y="478.00">+</text>
<text x="228.25" y="214.48">.</text>
<text x="453.33" y="431.73">+</text>
<text x="90.54" y="19.34">+</text>
<text x="321.47" y="463.94">+</text>
<text x="348.27" y="143.47">+</text>
<text x="439.88" y="94.39">.</text>
<text x="63.13" y="234.46">+</text>
<text x="349.31" y="3.93">.</text>
<text x="196.89" y="225.46">+</text>
<text x="306.28" y="418.69">.</text>
<text x="112.27" y="72.83">.</text>
<text x="243.07" y="393.09">+</text>
<text x="350.35" y="411.65">+</text>
<text x="372.35" y="153.69">+</text>
<text x="238.16" y="382.18">*</text>
<text x="479.41" y="323.09">.</text>
<text x="331.46" y="380.57">.</text>
<text x="496.56" y="229.85">+</text>
<text x="451.85" y="362.37">.</text>
<text x="69.48" y="414.08">.</text>
<text x="387.21" y="359.49">.</text>
<text x="222.55" y="319.64">.</text>
<text x="183.54" y="4.37">+</text>
<text x="316.98" y="135.10">.</text>
<text x="227.41" y="468.85">.</text>
<text x="475.13" y="114.63">+</text>
<text x="93.08" y="86.41">+</text>
<text x="1.47" y="283.11">.</text>
<text x="60.01" y="3.47">.</text>
<text x="146.26" y="271.73">*</text>
<text x="218.20" y="215.15">+</text>
<text x="374.40" y="390.63">.</text>
<text x="241.73" y="373.63">.</text>
<text x="324.59" y="382.61">+</text>
<text x="350.66" y="432.02">+</text>
<text x="77.05" y="496.72">+</text>
<text x="40.88" y="194.71">.</text>
<text x="70.14" y="21.60">+</text>
<text x="363.07" y="149.84">.</text>
<text x="413.00" y="42.29">.</text>
<text x="482.22" y="20.47">+</text>
<text x="481.77" y="269.99">.</text>
<text x="203.06" y="394.31">*</text>
<text x="240.33" y="352.77">*</text>
<text x="274.85" y="376.99">.</text>
<text x="417.98" y="444.21">+</text>
<text x="493.03" y="173.77">.</text>
<text x="90.62" y="322.41">.</text>
<text x="53.81" y="112.97">+</text>
<text x="270.61" y="259.60">+</text>
<text x="67.75" y="278.67">+</text>
<text x="329.69" y="230.43">.</text>
<text x="114.27" y="100.22">.</text>
<text x="39.86" y="180.30">.</text>
<text x="10.99" y="356.64">.</text>
<text x="272.75" y="112.52">.</text>
<text x="329.68" y="133.52">+</text>
<text x="442.25" y="445.58">+</text>
<text x="134.05" y="281.62">+</text>
<text x="287.08" y="296.32">+</text>
<text x="72.26" y="302.81">+</text>
<text x="103.29" y="480.74">+</text>
<text x="192.67" y="65.21">.</text>
<text x="225.91" y="376.40">.</text>
<text x="336.04" y="63.13">*</text>
<text x="463.63" y="128.86">.</text>
<text x="322.42" y="132.68">*</text>
<text x="491.32" y="405.45">.</text>
<text x="250.57" y="354.28">*</text>
<text x="201.98" y="311.02">+</text>
<text x="30.03" y="253.23">.</text>
<text x="170.30" y="468.36">.</text>
<text x="349.31" y="375.54">.</text>
<text x="302.44" y="440.46">+</text>
<text x="28.22" y="438.65">+</text>
<text x="358.55" y="278.60">.</text>
<text x="210.62" y="141.75">+</text>
<text x="33.95" y="456.13">.</text>
<text x="23.28" y="14.41">+</text>
<text x="9.26" y="326.18">.</text>
<text x="129.06" y="407.54">+</text>
<text x="401.30" y="208.63">.</text>
<text x="272.24" y="113.83">.</text>
<text x="132.28" y="472.53">+</text>
<text x="83.92" y="417.87">+</text>
<text x="495.20" y="290.58">+</text>
<text x="326.09" y="477.77">.</text>
<text x="303.28" y="407.61">+</text>
<text x="218.13" y="146.76">+</text>
<text x="59.95" y="147.20">+</text>
<text x="354.19" y="323.04">+</text>
<text x="31.10" y="28.42">+</text>
<text x="355.88" y="486.22">*</text>
<text x="71.00" y="297.34">+</text>
<text x="131.46" y="496.08">*</text>
<text x="183.24" y="24.22">+</text>
<text x="291.97" y="470.59">.</text>
<text x="150.24" y="436.17">.</text>
<text x="285.74" y="250.67">.</text>
<text x="256.15" y="27.25">+</text>
<text x="351.18" y="401.76">+</text>
<text x="181.94" y="130.36">*</text>
<text x="199.11" y="354.68">+</text>
<text x="397.40" y="380.22">+</text>
<text x="17.64" y="89.00">.</text>
<text x="149.68" y="322.30">.</text>
<text x="146.42" y="127.11">+</text>
<text x="352.50" y="264.68">.</text>
<text x="279.33" y="49.87">+</text>
<text x="157.47" y="72.72">.</text>
<text x="320.62" y="191.89">.</text>
<text x="138.71" y="72.32">+</text>
<text x="394.36" y="42.87">+</text>
<text x="51.12" y="142.14">+</text>
<text x="318.23" y="338.43">+</text>
<text x="276.24" y="94.34">+</text>
<text x="59.01" y="194.76">.</text>
<text x="194.25" y="214.65">*</text>
<text x="218.63" y="153.54">+</text>
<text x="206.25" y="238.22">+</text>
<text x="206.73" y="122.03">.</text>

</svg>