
<svg viewBox="0 0 500 500" xmlns="http://www.w.org/2000/svg" width="100%" height="100%" style="background-color: #0a0a14; font-family: 'Courier New', Courier, monospace;">
    <style>
        text { fill: #aaa; font-size: 10px; text-anchor: middle; dominant-baseline: middle; }
    </style>
    <text x="387.75" y="456.71">+</text>
<text x="348.69" y="34.84">+</text>
<text x="448.79" y="118.81">.</text>
<text x="264.05" y="323.06">.</text>
<text x="7.23" y="422.33">.</text>
<text x="260.31" y="212.14">.</text>
<text x="205.97" y="231.39">.</text>
<text x="347.75" y="100.79">+</text>
<text x="158.30" y="288.63">+</text>
<text x="386.80" y="229.31">.</text>
<text x="109.27" y="295.33">+</text>
<text x="437.83" y="309.62">+</text>
<text x="432.05" y="230.48">+</text>
<text x="295.98" y="64.12">.</text>
<text x="350.29" y="7.01">+</text>
<text x="141.68" y="149.18">.</text>
<text x="175.13" y="352.21">.</text>
<text x="113.68" y="90.36">+</text>
<text x="50.74" y="87.81">.</text>
<text x="4.14" y="255.01">.</text>
<text x="437.84" y="29.94">.</text>
<text x="378.84" y="121.46">+</text>
<text x="23.13" y="425.37">+</text>
<text x="100.73" y="162.71">+</text>
<text x="9.75" y="225.09">.</text>
<text x="133.40" y="109.26">+</text>
<text x="81.05" y="137.20">+</text>
<text x="51.86" y="271.93">+</text>
<text x="371.74" y="484.79">+</text>
<text x="84.20" y="215.37">+</text>
<text x="327.12" y="258.71">.</text>
<text x="336.79" y="17.55">+</text>
<text x="150.77" y="43.59">.</text>
<text x="397.82" y="465.76">*</text>
<text x="354.24" y="489.43">.</text>
<text x="196.04" y="463.89">.</text>
<text x="166.90" y="278.59">.</text>
<text x="246.40" y="480.61">+</text>
<text x="118.46" y="347.20">.</text>
<text x="118.81" y="387.08">.</text>
<text x="90.58" y="136.40">.</text>
<text x="452.25" y="43.74">.</text>
<text x="251.90" y="410.75">.</text>
<text x="215.55" y="255.28">+</text>
<text x="141.93" y="35.11">+</text>
<text x="318.46" y="34.57">+</text>
<text x="327.20" y="81.26">+</text>
<text x="105.49" y="308.39">+</text>
<text x="462.88" y="225.27">+</text>
<text x="474.56" y="89.89">.</text>
<text x="316.82" y="398.85">.</text>
<text x="106.10" y="493.17">.</text>
<text x="315.92" y="224.53">+</text>
<text x="393.07" y="291.34">+</text>
<text x="403.70" y="427.52">.</text>
<text x="379.94" y="238.26">.</text>
<text x="179.26" y="470.64">.</text>
<text x="198.43" y="144.12">.</text>
<text x="401.26" y="233.76">+</text>
<text x="204.01" y="351.56">.</text>
<text x="459.09" y="14.74">.</text>
<text x="486.99" y="8.88">.</text>
<text x="470.66" y="213.98">*</text>
<text x="242.03" y="24.77">+</text>
<text x="318.66" y="496.37">+</text>
<text x="174.31" y="175.95">+</text>
<text x="413.19" y="334.16">+</text>
<text x="161.89" y="421.66">.</text>
<text x="423.21" y="37.28">.</text>
<text x="166.97" y="370.74">.</text>
<text x="281.17" y="290.18">+</text>
<text x="31.46" y="172.17">.</text>
<text x="172.15" y="341.77">+</text>
<text x="123.52" y="207.77">.</text>
<text x="299.41" y="359.79">+</text>
<text x="248.72" y="349.12">*</text>
<text x="74.73" y="374.84">.</text>
<text x="138.94" y="32.92">+</text>
<text x="257.36" y="277.34">+</text>
<text x="466.07" y="49.59">+</text>
<text x="0.82" y="252.35">*</text>
<text x="108.24" y="41.58">.</text>
<text x="390.48" y="57.40">.</text>
<text x="297.82" y="114.49">.</text>
<text x="186.94" y="99.37">+</text>
<text x="339.61" y="264.22">.</text>
<text x="15.80" y="23.88">+</text>
<text x="405.83" y="404.42">+</text>
<text x="426.95" y="110.97">*</text>
<text x="90.41" y="359.40">.</text>
<text x="404.55" y="458.33">.</text>
<text x="126.25" y="406.06">+</text>
<text x="30.87" y="304.61">.</text>
<text x="326.20" y="241.86">.</text>
<text x="48.33" y="398.76">+</text>
<text x="281.05" y="184.80">*</text>
<text x="437.07" y="497.56">+</text>
<text x="362.52" y="204.54">.</text>
<text x="238.09" y="181.81">+</text>
<text x="260.24" y="322.30">+</text>
<text x="133.31" y="77.71">.</text>
<text x="79.91" y="122.20">*</text>
<text x="16.16" y="202.05">+</text>
<text x="291.72" y="192.32">+</text>
<text x="338.96" y="128.32">*</text>
<text x="16.93" y="475.19">.</text>
<text x="482.32" y="466.22">.</text>
<text x="43.81" y="154.98">.</text>
<text x="221.91" y="268.04">+</text>
<text x="304.54" y="41.19">.</text>
<text x="447.89" y="301.08">.</text>
<text x="479.81" y="209.00">.</text>
<text x="201.99" y="35.69">+</text>
<text x="482.74" y="42.86">.</text>
<text x="118.27" y="327.07">+</text>
<text x="257.40" y="389.32">.</text>
<text x="135.95" y="383.03">*</text>
<text x="262.37" y="429.67">+</text>
<text x="187.24" y="74.81">+</text>
<text x="68.85" y="336.24">+</text>
<text x="481.87" y="107.65">.</text>
<text x="420.42" y="391.33">*</text>
<text x="358.08" y="349.84">+</text>
<text x="196.31" y="468.62">+</text>
<text x="72.66" y="164.33">.</text>
<text x="85.08" y="123.01">.</text>
<text x="407.51" y="384.15">.</text>
<text x="296.18" y="410.75">*</text>
<text x="305.33" y="65.60">.</text>
<text x="127.09" y="104.96">.</text>
<text x="94.62" y="178.79">+</text>
<text x="442.75" y="477.94">+</text>
<text x="172.33" y="214.34">+</text>
<text x="432.54" y="194.01">+</text>
<text x="177.07" y="266.24">.</text>
<text x="468.89" y="120.44">.</text>
<text x="331.21" y="212.03">.</text>
<text x="204.67" y="322.72">+</text>
<text x="329.10" y="304.64">.</text>
<text x="318.40" y="445.13">.</text>
<text x="226.43" y="309.67">.</text>
<text x="0.01" y="241.88">+</text>
<text x="297.38" y="200.50">*</text>
<text x="347.80" y="328.60">*</text>
<text x="305.97" y="119.73">.</text>
<text x="395.72" y="429.97">+</text>
<text x="460.91" y="398.98">+</text>
<text x="61.19" y="472.02">.</text>
<text x="197.64" y="418.61">+</text>
<text x="388.51" y="126.85">*</text>
<text x="467.94" y="57.95">+</text>
<text x="46.90" y="433.60">.</text>
<text x="262.77" y="278.13">+</text>
<text x="91.79" y="152.83">*</text>
<text x="163.01" y="496.36">.</text>
<text x="118.15" y="168.49">.</text>
<text x="225.82" y="22.14">+</text>
<text x="360.28" y="28.92">.</text>
<text x="334.70" y="214.41">+</text>
<text x="413.85" y="214.37">+</text>
<text x="484.25" y="33.62">.</text>
<text x="92.76" y="220.19">.</text>
<text x="340.01" y="358.22">.</text>
<text x="173.52" y="206.66">*</text>
<text x="183.53" y="486.55">+</text>
<text x="210.43" y="431.53">.</text>
<text x="75.86" y="219.57">+</text>
<text x="44.01" y="238.58">.</text>
<text x="456.64" y="142.74">.</text>
<text x="274.44" y="376.37">.</text>
<text x="255.30" y="142.06">+</text>
<text x="116.69" y="261.09">.</text>
<text x="484.55" y="174.60">+</text>
<text x="131.83" y="171.12">.</text>
<text x="33.97" y="286.53">+</text>
<text x="380.54" y="161.39">+</text>
<text x="300.90" y="448.54">+</text>
<text x="35.87" y="368.18">*</text>
<text x="44.59" y="499.86">+</text>
<text x="96.43" y="409.54">.</text>
<text x="100.27" y="151.25">*</text>
<text x="150.72" y="9.07">*</text>
<text x="248.43" y="112.67">+</text>
<text x="300.79" y="391.70">+</text>
<text x="81.54" y="90.38">.</text>
<text x="339.87" y="218.23">+</text>
<text x="173.01" y="476.28">+</text>
<text x="381.02" y="27.65">.</text>
<text x="181.27" y="345.04">.</text>
<text x="413.07" y="438.43">+</text>
<text x="401.84" y="308.90">*</text>
<text x="250.78" y="204.89">*</text>
<text x="496.67" y="309.31">+</text>
<text x="410.18" y="287.33">.</text>
<text x="470.57" y="340.06">*</text>
<text x="94.25" y="389.37">+</text>
<text x="446.62" y="498.60">+</text>
<text x="42.29" y="94.19">.</text>
<text x="49.85" y="347.88">.</text>
<text x="218.48" y="240.11">.</text>
<text x="245.76" y="379.46">.</text>
<text x="330.81" y="232.21">.</text>
<text x="273.22" y="233.95">.</text>
<text x="306.15" y="192.07">.</text>
<text x="132.10" y="294.42">+</text>
<text x="288.80" y="204.79">.</text>
<text x="181.98" y="411.10">+</text>
<text x="100.82" y="495.94">+</text>
<text x="258.34" y="458.16">+</text>
<text x="168.09" y="488.43">+</text>
<text x="117.81" y="222.64">+</text>
<text x="216.27" y="406.52">.</text>
<text x="258.71" y="102.43">.</text>
<text x="471.93" y="436.54">.</text>

</svg>