
<svg viewBox="0 0 500 500" xmlns="http://www.w.org/2000/svg" width="100%" height="100%" style="background-color: #0a0a14; font-family: 'Courier New', Courier, monospace;">
    <style>
        text { fill: #aaa; font-size: 10px; text-anchor: middle; dominant-baseline: middle; }
    </style>
    <text x="289.65" y="264.29">.</text>
<text x="15.62" y="302.67">+</text>
<text x="365.19" y="46.35">+</text>
<text x="80.42" y="116.93">*</text>
<text x="355.02" y="172.97">+</text>
<text x="370.93" y="260.25">.</text>
<text x="20.28" y="155.88">+</text>
<text x="271.98" y="124.15">+</text>
<text x="110.59" y="115.25">+</text>
<text x="347.79" y="301.91">*</text>
<text x="103.91" y="391.09">.</text>
<text x="153.16" y="14.59">.</text>
<text x="242.67" y="114.62">.</text>
<text x="19.52" y="201.85">*</text>
<text x="165.61" y="204.88">.</text>
<text x="300.46" y="331.90">*</text>
<text x="164.49" y="344.45">*</text>
<text x="95.83" y="475.02">+</text>
<text x="28.67" y="279.11">.</text>
<text x="489.89" y="340.99">+</text>
<text x="222.96" y="101.07">+</text>
<text x="94.88" y="193.10">.</text>
<text x="435.17" y="36.47">.</text>
<text x="387.09" y="362.57">.</text>
<text x="169.84" y="436.99">+</text>
<text x="35.89" y="357.90">+</text>
<text x="361.06" y="50.92">+</text>
<text x="263.42" y="309.66">+</text>
<text x="439.15" y="469.11">.</text>
<text x="389.95" y="49.91">+</text>
<text x="335.16" y="343.13">+</text>
<text x="15.69" y="382.08">.</text>
<text x="493.45" y="486.85">*</text>
<text x="311.53" y="82.45">.</text>
<text x="177.27" y="253.67">*</text>
<text x="287.40" y="242.37">*</text>
<text x="461.07" y="96.36">+</text>
<text x="152.02" y="300.12">+</text>
<text x="40.49" y="259.13">+</text>
<text x="464.37" y="43.25">.</text>
<text x="429.48" y="240.16">.</text>
<text x="32.41" y="274.75">.</text>
<text x="65.32" y="62.41">+</text>
<text x="391.45" y="147.11">.</text>
<text x="131.30" y="334.15">+</text>
<text x="447.81" y="419.68">.</text>
<text x="494.19" y="472.16">.</text>
<text x="124.85" y="195.46">.</text>
<text x="386.10" y="210.69">+</text>
<text x="286.89" y="439.03">*</text>
<text x="218.38" y="240.39">.</text>
<text x="113.15" y="88.06">*</text>
<text x="42.06" y="400.35">*</text>
<text x="27.83" y="364.77">+</text>
<text x="148.59" y="30.77">*</text>
<text x="282.27" y="97.99">.</text>
<text x="55.15" y="398.07">+</text>
<text x="37.84" y="361.70">*</text>
<text x="133.69" y="298.27">.</text>
<text x="226.80" y="426.78">+</text>
<text x="25.84" y="317.96">.</text>
<text x="25.62" y="409.26">.</text>
<text x="278.89" y="338.06">+</text>
<text x="435.74" y="54.72">+</text>
<text x="138.03" y="299.66">+</text>
<text x="119.67" y="300.56">.</text>
<text x="435.49" y="156.21">*</text>
<text x="145.92" y="96.69">*</text>
<text x="421.98" y="465.07">+</text>
<text x="54.40" y="361.72">+</text>
<text x="340.06" y="166.71">+</text>
<text x="305.18" y="259.96">.</text>
<text x="45.23" y="24.61">.</text>
<text x="489.77" y="471.94">*</text>
<text x="168.50" y="162.58">*</text>
<text x="183.21" y="451.37">.</text>
<text x="422.30" y="138.60">+</text>
<text x="219.22" y="66.20">+</text>
<text x="339.66" y="465.81">.</text>
<text x="149.56" y="34.73">.</text>
<text x="334.64" y="298.40">.</text>
<text x="217.90" y="441.40">.</text>
<text x="287.38" y="60.99">+</text>
<text x="450.34" y="206.66">+</text>
<text x="326.15" y="67.02">.</text>
<text x="412.25" y="451.64">+</text>
<text x="295.95" y="203.19">.</text>
<text x="234.01" y="173.56">.</text>
<text x="238.41" y="97.38">+</text>
<text x="39.79" y="443.92">.</text>
<text x="476.93" y="236.18">+</text>
<text x="181.91" y="29.71">+</text>
<text x="432.91" y="294.57">.</text>
<text x="82.28" y="156.99">.</text>
<text x="42.71" y="407.30">*</text>
<text x="45.97" y="428.03">.</text>
<text x="50.53" y="346.71">+</text>
<text x="59.74" y="393.06">.</text>
<text x="236.79" y="287.94">+</text>
<text x="87.37" y="472.08">.</text>
<text x="400.26" y="323.88">*</text>
<text x="95.57" y="185.25">+</text>
<text x="250.65" y="47.25">+</text>
<text x="463.01" y="291.81">+</text>
<text x="299.74" y="249.48">+</text>
<text x="280.74" y="291.71">.</text>
<text x="17.41" y="497.60">+</text>
<text x="227.32" y="373.69">+</text>
<text x="32.16" y="70.70">.</text>
<text x="279.87" y="174.46">*</text>
<text x="419.27" y="141.11">.</text>
<text x="488.53" y="418.51">.</text>
<text x="127.46" y="135.44">+</text>
<text x="9.96" y="376.73">+</text>
<text x="48.00" y="99.06">+</text>
<text x="293.69" y="394.61">+</text>
<text x="402.58" y="175.61">.</text>
<text x="432.42" y="25.78">.</text>
<text x="62.03" y="87.20">+</text>
<text x="303.10" y="128.45">+</text>
<text x="385.93" y="38.72">+</text>
<text x="112.54" y="180.88">.</text>
<text x="464.11" y="236.38">*</text>
<text x="105.16" y="199.36">+</text>
<text x="271.76" y="239.48">*</text>
<text x="44.87" y="107.32">.</text>
<text x="128.94" y="63.64">.</text>
<text x="215.66" y="454.45">*</text>
<text x="177.68" y="8.41">+</text>
<text x="170.26" y="37.53">+</text>
<text x="41.87" y="18.49">+</text>
<text x="452.95" y="356.33">+</text>
<text x="479.13" y="479.01">*</text>
<text x="74.09" y="60.53">.</text>
<text x="403.04" y="295.38">.</text>
<text x="86.93" y="375.86">+</text>
<text x="490.84" y="180.17">.</text>
<text x="64.41" y="136.43">.</text>
<text x="387.54" y="125.23">.</text>
<text x="214.74" y="124.12">*</text>
<text x="288.17" y="95.67">+</text>
<text x="412.78" y="115.59">+</text>
<text x="427.26" y="320.82">+</text>
<text x="217.19" y="53.40">*</text>
<text x="295.83" y="323.02">+</text>
<text x="48.47" y="123.75">+</text>
<text x="63.87" y="199.43">*</text>
<text x="272.17" y="392.77">+</text>
<text x="490.97" y="33.19">.</text>
<text x="287.40" y="51.04">.</text>
<text x="428.08" y="305.81">*</text>
<text x="386.98" y="1.94">*</text>
<text x="261.94" y="255.62">.</text>
<text x="420.99" y="303.44">+</text>
<text x="146.05" y="394.24">.</text>
<text x="189.49" y="21.16">.</text>
<text x="146.05" y="414.96">+</text>
<text x="186.06" y="359.27">*</text>
<text x="83.55" y="123.56">+</text>
<text x="472.10" y="354.19">.</text>
<text x="247.25" y="357.23">+</text>
<text x="89.87" y="117.56">+</text>
<text x="319.52" y="357.63">+</text>
<text x="398.36" y="340.49">+</text>
<text x="332.65" y="126.09">.</text>
<text x="179.43" y="123.26">.</text>
<text x="372.81" y="260.36">+</text>
<text x="133.22" y="467.50">+</text>
<text x="376.67" y="60.05">+</text>
<text x="16.57" y="372.56">+</text>
<text x="401.30" y="305.24">+</text>
<text x="434.98" y="383.20">+</text>
<text x="247.83" y="416.93">*</text>
<text x="274.22" y="310.57">+</text>
<text x="483.02" y="26.32">*</text>
<text x="267.23" y="216.84">+</text>
<text x="104.07" y="496.38">+</text>
<text x="155.17" y="493.56">.</text>
<text x="151.95" y="453.44">.</text>
<text x="216.96" y="334.98">+</text>
<text x="486.14" y="495.86">*</text>
<text x="79.85" y="227.86">+</text>
<text x="29.67" y="366.57">.</text>
<text x="433.45" y="21.56">.</text>
<text x="47.26" y="114.49">+</text>
<text x="231.14" y="174.90">+</text>
<text x="452.39" y="63.96">*</text>
<text x="292.53" y="90.63">+</text>
<text x="385.28" y="35.89">*</text>
<text x="200.59" y="95.91">+</text>
<text x="263.90" y="355.42">+</text>
<text x="86.03" y="402.77">*</text>
<text x="180.43" y="239.45">+</text>
<text x="9.55" y="367.80">+</text>
<text x="165.45" y="302.32">.</text>
<text x="224.06" y="390.38">+</text>
<text x="190.11" y="270.09">+</text>
<text x="452.07" y="355.27">.</text>
<text x="114.74" y="141.08">+</text>
<text x="472.20" y="97.38">+</text>
<text x="147.89" y="10.24">.</text>
<text x="301.00" y="322.72">.</text>
<text x="11.48" y="338.76">+</text>
<text x="296.10" y="5.20">*</text>
<text x="430.20" y="255.62">+</text>
<text x="318.79" y="49.05">.</text>
<text x="63.80" y="201.73">+</text>
<text x="35.66" y="495.48">*</text>

</svg>