
<svg viewBox="0 0 500 500" xmlns="http://www.w.org/2000/svg" width="100%" height="100%" style="background-color: #0a0a14; font-family: 'Courier New', Courier, monospace;">
    <style>
        text { fill: #aaa; font-size: 10px; text-anchor: middle; dominant-baseline: middle; }
    </style>
    <text x="19.98" y="118.29">+</text>
<text x="211.88" y="363.01">+</text>
<text x="475.70" y="89.16">+</text>
<text x="231.59" y="23.07">+</text>
<text x="303.71" y="54.76">.</text>
<text x="212.68" y="293.28">+</text>
<text x="434.03" y="81.33">.</text>
<text x="466.38" y="49.52">+</text>
<text x="313.52" y="342.55">.</text>
<text x="16.33" y="253.68">.</text>
<text x="71.85" y="10.31">+</text>
<text x="292.63" y="424.45">+</text>
<text x="47.30" y="455.17">.</text>
<text x="108.08" y="20.20">.</text>
<text x="473.01" y="9.28">+</text>
<text x="377.42" y="436.06">+</text>
<text x="402.80" y="6.13">+</text>
<text x="494.82" y="364.70">*</text>
<text x="417.59" y="212.17">+</text>
<text x="419.24" y="412.84">.</text>
<text x="16.82" y="225.84">+</text>
<text x="253.60" y="63.70">+</text>
<text x="377.27" y="377.07">.</text>
<text x="172.45" y="249.39">+</text>
<text x="492.96" y="328.92">.</text>
<text x="416.75" y="264.22">*</text>
<text x="53.54" y="483.84">.</text>
<text x="408.36" y="151.37">.</text>
<text x="354.78" y="150.93">.</text>
<text x="200.43" y="375.15">*</text>
<text x="91.39" y="8.98">*</text>
<text x="22.48" y="246.35">+</text>
<text x="272.47" y="426.34">.</text>
<text x="303.98" y="443.17">.</text>
<text x="479.93" y="311.13">.</text>
<text x="365.00" y="172.95">+</text>
<text x="491.92" y="251.63">+</text>
<text x="189.21" y="347.55">+</text>
<text x="135.08" y="9.53">.</text>
<text x="120.84" y="190.07">+</text>
<text x="185.60" y="324.89">.</text>
<text x="446.44" y="454.10">*</text>
<text x="474.36" y="30.18">.</text>
<text x="464.26" y="324.76">+</text>
<text x="220.07" y="373.58">.</text>
<text x="398.71" y="96.34">.</text>
<text x="384.14" y="41.33">+</text>
<text x="66.18" y="434.37">+</text>
<text x="208.00" y="280.51">+</text>
<text x="151.95" y="454.78">+</text>
<text x="460.88" y="416.47">.</text>
<text x="249.15" y="209.77">+</text>
<text x="31.29" y="237.13">*</text>
<text x="308.26" y="167.29">+</text>
<text x="337.14" y="461.64">+</text>
<text x="236.28" y="467.57">+</text>
<text x="26.03" y="312.97">.</text>
<text x="376.13" y="239.00">.</text>
<text x="288.76" y="102.46">*</text>
<text x="45.07" y="76.47">+</text>
<text x="163.87" y="52.39">.</text>
<text x="391.79" y="323.84">+</text>
<text x="33.10" y="365.92">.</text>
<text x="71.99" y="250.45">.</text>
<text x="169.35" y="36.54">+</text>
<text x="226.87" y="223.92">*</text>
<text x="110.32" y="481.48">+</text>
<text x="327.31" y="29.42">+</text>
<text x="347.19" y="385.83">+</text>
<text x="309.66" y="236.05">+</text>
<text x="377.54" y="157.79">.</text>
<text x="70.84" y="235.18">+</text>
<text x="0.12" y="51.27">+</text>
<text x="487.64" y="427.88">*</text>
<text x="20.41" y="313.99">+</text>
<text x="88.38" y="94.66">+</text>
<text x="394.23" y="153.26">.</text>
<text x="201.56" y="283.27">*</text>
<text x="353.61" y="363.28">.</text>
<text x="168.70" y="206.82">+</text>
<text x="17.25" y="156.23">+</text>
<text x="88.08" y="274.27">+</text>
<text x="17.74" y="67.37">*</text>
<text x="238.66" y="354.26">*</text>
<text x="58.01" y="446.26">+</text>
<text x="12.14" y="217.18">.</text>
<text x="346.19" y="181.64">.</text>
<text x="355.48" y="122.44">.</text>
<text x="456.20" y="63.28">+</text>
<text x="266.26" y="265.09">+</text>
<text x="391.24" y="220.04">+</text>
<text x="308.10" y="269.05">.</text>
<text x="293.99" y="276.63">+</text>
<text x="244.34" y="174.67">+</text>
<text x="374.24" y="157.51">*</text>
<text x="15.14" y="390.37">.</text>
<text x="15.20" y="210.08">+</text>
<text x="282.65" y="101.01">.</text>
<text x="72.13" y="244.44">*</text>
<text x="83.16" y="201.91">.</text>
<text x="482.03" y="485.42">+</text>
<text x="402.19" y="186.69">*</text>
<text x="378.15" y="371.75">+</text>
<text x="143.75" y="43.74">+</text>
<text x="402.08" y="47.03">+</text>
<text x="356.13" y="289.80">*</text>
<text x="324.61" y="470.90">*</text>
<text x="341.68" y="154.18">.</text>
<text x="20.47" y="253.24">.</text>
<text x="119.57" y="239.42">+</text>
<text x="482.45" y="357.50">*</text>
<text x="164.89" y="336.49">.</text>
<text x="150.87" y="460.55">+</text>
<text x="326.87" y="268.09">*</text>
<text x="174.93" y="149.00">+</text>
<text x="250.06" y="232.04">.</text>
<text x="342.51" y="142.16">.</text>
<text x="163.43" y="187.10">+</text>
<text x="56.40" y="204.63">+</text>
<text x="48.92" y="273.17">+</text>
<text x="471.55" y="450.95">.</text>
<text x="144.32" y="103.77">+</text>
<text x="100.61" y="269.14">.</text>
<text x="71.56" y="177.44">.</text>
<text x="309.45" y="383.35">.</text>
<text x="451.58" y="21.23">.</text>
<text x="290.58" y="446.55">+</text>
<text x="103.58" y="39.96">+</text>
<text x="134.78" y="336.55">*</text>
<text x="114.22" y="112.70">+</text>
<text x="246.53" y="265.23">.</text>
<text x="368.11" y="261.06">.</text>
<text x="229.27" y="287.04">.</text>
<text x="464.49" y="369.20">+</text>
<text x="142.43" y="85.55">.</text>
<text x="94.15" y="86.53">.</text>
<text x="447.65" y="219.99">*</text>
<text x="69.48" y="487.70">.</text>
<text x="47.36" y="81.54">.</text>
<text x="71.83" y="326.54">+</text>
<text x="180.13" y="41.62">*</text>
<text x="61.13" y="392.99">+</text>
<text x="464.32" y="222.98">+</text>
<text x="381.54" y="12.54">*</text>
<text x="395.82" y="317.68">.</text>
<text x="91.74" y="386.20">.</text>
<text x="328.74" y="189.63">+</text>
<text x="443.99" y="397.09">*</text>
<text x="446.84" y="39.75">+</text>
<text x="63.50" y="412.15">*</text>
<text x="308.01" y="334.55">.</text>
<text x="266.25" y="137.50">+</text>
<text x="173.55" y="351.50">+</text>
<text x="61.36" y="45.30">*</text>
<text x="120.58" y="466.56">+</text>
<text x="357.22" y="339.87">.</text>
<text x="17.40" y="332.95">*</text>
<text x="166.11" y="455.18">.</text>
<text x="95.78" y="187.15">+</text>
<text x="52.84" y="129.82">.</text>
<text x="26.09" y="392.00">+</text>
<text x="260.71" y="381.43">.</text>
<text x="396.04" y="52.53">.</text>
<text x="83.31" y="76.10">.</text>
<text x="466.12" y="498.40">*</text>
<text x="376.15" y="27.61">+</text>
<text x="23.25" y="430.29">.</text>
<text x="294.48" y="402.66">+</text>
<text x="299.16" y="249.22">*</text>
<text x="403.98" y="222.27">+</text>
<text x="67.78" y="68.77">+</text>
<text x="357.08" y="142.16">*</text>
<text x="44.56" y="366.27">.</text>
<text x="128.33" y="194.51">+</text>
<text x="97.03" y="332.83">+</text>
<text x="238.80" y="482.06">+</text>
<text x="32.84" y="165.27">.</text>
<text x="466.57" y="105.71">+</text>
<text x="387.03" y="178.78">+</text>
<text x="371.00" y="193.17">+</text>
<text x="105.96" y="471.90">+</text>
<text x="358.69" y="318.76">.</text>
<text x="53.42" y="347.78">+</text>
<text x="257.15" y="254.51">.</text>
<text x="108.89" y="317.36">+</text>
<text x="61.47" y="373.33">+</text>
<text x="228.46" y="376.07">+</text>
<text x="107.94" y="49.81">+</text>
<text x="308.36" y="157.35">+</text>
<text x="400.06" y="342.77">+</text>
<text x="210.29" y="48.45">*</text>
<text x="130.02" y="214.14">+</text>
<text x="208.19" y="406.48">.</text>
<text x="122.33" y="417.50">.</text>
<text x="132.78" y="58.65">+</text>
<text x="217.30" y="363.98">+</text>
<text x="399.05" y="352.63">+</text>
<text x="250.30" y="210.08">+</text>
<text x="378.14" y="426.93">.</text>
<text x="11.69" y="329.88">+</text>
<text x="498.12" y="356.24">.</text>
<text x="241.96" y="455.19">+</text>
<text x="25.01" y="91.93">.</text>
<text x="358.53" y="66.79">*</text>
<text x="121.93" y="277.08">+</text>
<text x="487.17" y="188.58">+</text>
<text x="79.26" y="395.77">+</text>
<text x="224.88" y="119.82">+</text>
<text x="84.18" y="106.99">.</text>
<text x="96.93" y="392.04">.</text>
<text x="15.28" y="271.53">+</text>

</svg>