
<svg viewBox="0 0 500 500" xmlns="http://www.w.org/2000/svg" width="100%" height="100%" style="background-color: #0a0a14; font-family: 'Courier New', Courier, monospace;">
    <style>
        text { fill: #aaa; font-size: 10px; text-anchor: middle; dominant-baseline: middle; }
    </style>
    <text x="81.42" y="308.57">*</text>
<text x="412.78" y="25.78">.</text>
<text x="10.31" y="133.64">*</text>
<text x="328.33" y="337.52">+</text>
<text x="251.63" y="245.57">.</text>
<text x="442.14" y="83.30">+</text>
<text x="432.36" y="200.66">+</text>
<text x="180.55" y="178.47">*</text>
<text x="115.57" y="291.70">.</text>
<text x="6.86" y="371.77">+</text>
<text x="364.86" y="321.78">+</text>
<text x="25.54" y="402.19">+</text>
<text x="482.82" y="126.97">*</text>
<text x="413.50" y="197.94">.</text>
<text x="462.78" y="113.95">.</text>
<text x="334.88" y="104.60">+</text>
<text x="101.98" y="215.72">+</text>
<text x="95.38" y="156.93">+</text>
<text x="441.87" y="344.93">.</text>
<text x="486.70" y="81.33">+</text>
<text x="220.44" y="295.41">+</text>
<text x="493.51" y="496.35">.</text>
<text x="393.80" y="451.03">.</text>
<text x="241.07" y="449.49">+</text>
<text x="272.98" y="238.80">.</text>
<text x="387.19" y="152.24">+</text>
<text x="352.28" y="364.53">+</text>
<text x="103.52" y="459.63">.</text>
<text x="194.08" y="347.36">*</text>
<text x="121.58" y="485.45">*</text>
<text x="219.76" y="73.22">.</text>
<text x="471.05" y="244.47">.</text>
<text x="283.94" y="92.94">.</text>
<text x="444.90" y="357.34">.</text>
<text x="319.00" y="395.62">+</text>
<text x="98.21" y="315.56">*</text>
<text x="303.12" y="394.49">.</text>
<text x="216.50" y="432.27">.</text>
<text x="4.86" y="117.74">+</text>
<text x="200.51" y="281.26">+</text>
<text x="97.05" y="392.56">.</text>
<text x="489.11" y="133.41">.</text>
<text x="150.41" y="234.82">*</text>
<text x="119.57" y="248.33">+</text>
<text x="52.08" y="127.50">.</text>
<text x="166.01" y="382.76">.</text>
<text x="437.30" y="248.29">+</text>
<text x="372.41" y="185.58">+</text>
<text x="112.12" y="41.83">+</text>
<text x="460.00" y="442.50">.</text>
<text x="475.70" y="225.63">+</text>
<text x="56.02" y="40.27">.</text>
<text x="311.48" y="338.40">.</text>
<text x="452.99" y="136.78">+</text>
<text x="224.65" y="37.26">+</text>
<text x="111.85" y="188.46">*</text>
<text x="127.89" y="428.73">+</text>
<text x="200.59" y="71.50">.</text>
<text x="83.66" y="89.09">+</text>
<text x="321.11" y="38.55">*</text>
<text x="20.18" y="155.38">.</text>
<text x="279.67" y="435.84">*</text>
<text x="229.34" y="245.46">.</text>
<text x="396.99" y="440.80">+</text>
<text x="354.73" y="140.15">.</text>
<text x="398.14" y="26.11">+</text>
<text x="453.47" y="242.63">.</text>
<text x="73.57" y="356.46">+</text>
<text x="364.81" y="185.65">+</text>
<text x="396.92" y="319.93">+</text>
<text x="392.75" y="215.91">+</text>
<text x="241.06" y="474.15">.</text>
<text x="384.16" y="318.98">+</text>
<text x="228.75" y="209.56">.</text>
<text x="398.31" y="349.59">+</text>
<text x="377.94" y="379.19">+</text>
<text x="490.85" y="455.12">+</text>
<text x="334.58" y="420.64">.</text>
<text x="466.83" y="50.85">.</text>
<text x="7.44" y="201.76">+</text>
<text x="79.19" y="262.17">.</text>
<text x="133.30" y="423.96">*</text>
<text x="311.25" y="100.83">.</text>
<text x="296.33" y="168.33">*</text>
<text x="450.28" y="23.93">+</text>
<text x="188.81" y="465.66">.</text>
<text x="295.60" y="29.44">+</text>
<text x="421.06" y="181.63">+</text>
<text x="9.27" y="113.37">+</text>
<text x="270.89" y="198.46">.</text>
<text x="12.12" y="195.43">+</text>
<text x="269.19" y="135.70">.</text>
<text x="417.78" y="492.74">+</text>
<text x="111.02" y="494.53">+</text>
<text x="131.85" y="410.52">*</text>
<text x="31.40" y="244.11">*</text>
<text x="140.36" y="407.79">+</text>
<text x="403.17" y="398.15">+</text>
<text x="98.98" y="215.87">.</text>
<text x="81.48" y="86.08">.</text>
<text x="18.38" y="242.11">.</text>
<text x="134.99" y="26.75">+</text>
<text x="266.54" y="261.85">.</text>
<text x="154.27" y="117.32">.</text>
<text x="14.03" y="216.11">.</text>
<text x="363.96" y="95.44">+</text>
<text x="389.84" y="202.17">+</text>
<text x="267.08" y="337.68">+</text>
<text x="188.33" y="390.98">.</text>
<text x="304.76" y="431.67">.</text>
<text x="354.38" y="51.72">.</text>
<text x="199.15" y="281.33">.</text>
<text x="210.00" y="21.50">.</text>
<text x="356.16" y="147.88">.</text>
<text x="187.56" y="129.83">+</text>
<text x="152.68" y="244.82">+</text>
<text x="272.11" y="13.24">.</text>
<text x="427.11" y="289.57">+</text>
<text x="293.40" y="21.23">*</text>
<text x="63.88" y="321.14">*</text>
<text x="254.03" y="261.21">+</text>
<text x="205.32" y="32.96">.</text>
<text x="144.87" y="191.04">+</text>
<text x="129.90" y="363.58">.</text>
<text x="226.22" y="362.08">*</text>
<text x="346.49" y="61.28">.</text>
<text x="434.35" y="453.39">+</text>
<text x="151.80" y="105.08">+</text>
<text x="81.96" y="270.38">+</text>
<text x="300.97" y="101.56">+</text>
<text x="82.34" y="185.64">.</text>
<text x="243.91" y="219.60">+</text>
<text x="255.96" y="434.05">+</text>
<text x="499.40" y="95.07">+</text>
<text x="209.72" y="444.29">.</text>
<text x="363.46" y="459.25">.</text>
<text x="157.43" y="76.53">.</text>
<text x="169.12" y="439.65">*</text>
<text x="213.27" y="261.44">.</text>
<text x="145.16" y="174.33">.</text>
<text x="108.46" y="196.34">*</text>
<text x="281.17" y="270.35">.</text>
<text x="338.66" y="205.62">.</text>
<text x="270.68" y="405.40">*</text>
<text x="31.96" y="476.64">.</text>
<text x="496.51" y="335.70">+</text>
<text x="490.02" y="207.13">+</text>
<text x="118.95" y="228.28">+</text>
<text x="62.92" y="14.77">+</text>
<text x="191.03" y="441.54">.</text>
<text x="359.50" y="333.03">+</text>
<text x="351.76" y="261.19">.</text>
<text x="41.97" y="9.28">.</text>
<text x="304.57" y="413.58">*</text>
<text x="491.68" y="329.66">.</text>
<text x="219.98" y="342.68">+</text>
<text x="22.59" y="186.98">+</text>
<text x="350.48" y="242.98">+</text>
<text x="73.50" y="316.41">+</text>
<text x="237.02" y="431.39">.</text>
<text x="479.87" y="143.34">+</text>
<text x="62.96" y="378.47">.</text>
<text x="128.64" y="349.73">.</text>
<text x="47.46" y="350.36">.</text>
<text x="344.87" y="440.98">*</text>
<text x="211.69" y="262.39">+</text>
<text x="457.01" y="445.05">.</text>
<text x="480.27" y="321.56">.</text>
<text x="284.59" y="177.82">.</text>
<text x="258.68" y="333.81">+</text>
<text x="243.37" y="450.20">.</text>
<text x="246.57" y="230.19">+</text>
<text x="194.44" y="309.91">.</text>
<text x="235.44" y="477.30">+</text>
<text x="371.09" y="203.30">.</text>
<text x="336.87" y="378.04">+</text>
<text x="264.38" y="69.52">*</text>
<text x="471.43" y="386.13">*</text>
<text x="34.53" y="146.24">*</text>
<text x="448.81" y="476.01">+</text>
<text x="37.76" y="228.15">*</text>
<text x="349.94" y="95.55">.</text>
<text x="37.52" y="356.13">.</text>
<text x="193.57" y="245.49">+</text>
<text x="441.54" y="450.43">+</text>
<text x="305.53" y="447.74">*</text>
<text x="318.16" y="310.14">.</text>
<text x="393.12" y="328.04">*</text>
<text x="478.90" y="284.65">.</text>
<text x="482.21" y="245.99">.</text>
<text x="381.50" y="367.13">+</text>
<text x="359.19" y="213.50">+</text>
<text x="4.53" y="336.78">*</text>
<text x="302.76" y="358.57">.</text>
<text x="464.71" y="241.32">.</text>
<text x="275.77" y="393.21">+</text>
<text x="298.25" y="301.81">.</text>
<text x="252.05" y="66.50">+</text>
<text x="412.47" y="64.63">+</text>
<text x="314.21" y="326.87">+</text>
<text x="298.50" y="80.52">+</text>
<text x="83.59" y="450.92">.</text>
<text x="233.50" y="249.64">.</text>
<text x="109.37" y="52.16">.</text>
<text x="391.43" y="195.01">.</text>
<text x="422.12" y="424.80">.</text>
<text x="421.80" y="203.69">.</text>
<text x="14.16" y="221.64">+</text>
<text x="294.26" y="217.87">.</text>
<text x="137.74" y="168.37">.</text>
<text x="374.67" y="161.27">.</text>
<text x="449.91" y="22.15">*</text>
<text x="283.04" y="330.09">.</text>
<text x="61.30" y="228.72">+</text>
<text x="119.98" y="27.90">*</text>
<text x="319.14" y="237.93">+</text>
<text x="482.51" y="34.91">+</text>
<text x="91.33" y="202.55">*</text>
<text x="316.21" y="297.74">.</text>
<text x="380.22" y="434.40">*</text>
<text x="146.94" y="383.99">.</text>

</svg>