
<svg viewBox="0 0 500 500" xmlns="http://www.w.org/2000/svg" width="100%" height="100%" style="background-color: #0a0a14; font-family: 'Courier New', Courier, monospace;">
    <style>
        text { fill: #aaa; font-size: 10px; text-anchor: middle; dominant-baseline: middle; }
    </style>
    <text x="268.20" y="386.64">.</text>
<text x="44.29" y="17.20">+</text>
<text x="127.07" y="334.43">.</text>
<text x="32.53" y="457.93">.</text>
<text x="260.53" y="302.06">*</text>
<text x="133.41" y="364.94">.</text>
<text x="327.25" y="27.95">.</text>
<text x="204.67" y="54.09">+</text>
<text x="208.35" y="103.04">+</text>
<text x="76.96" y="102.09">.</text>
<text x="83.79" y="150.22">+</text>
<text x="2.81" y="249.67">+</text>
<text x="348.30" y="31.37">.</text>
<text x="331.71" y="5.39">*</text>
<text x="112.84" y="481.60">+</text>
<text x="208.10" y="217.31">+</text>
<text x="485.39" y="464.31">+</text>
<text x="361.47" y="67.80">+</text>
<text x="106.36" y="216.86">*</text>
<text x="208.23" y="280.78">+</text>
<text x="388.92" y="219.54">.</text>
<text x="66.51" y="231.21">.</text>
<text x="300.78" y="47.37">+</text>
<text x="346.54" y="314.79">.</text>
<text x="343.12" y="260.71">+</text>
<text x="153.39" y="436.98">.</text>
<text x="217.86" y="374.48">.</text>
<text x="464.28" y="160.94">+</text>
<text x="251.46" y="334.55">.</text>
<text x="25.82" y="261.55">.</text>
<text x="261.90" y="18.37">+</text>
<text x="379.81" y="198.06">+</text>
<text x="4.02" y="139.67">.</text>
<text x="493.99" y="6.23">+</text>
<text x="389.39" y="410.98">+</text>
<text x="0.97" y="278.85">*</text>
<text x="425.47" y="35.08">+</text>
<text x="382.90" y="3.81">+</text>
<text x="157.39" y="461.24">*</text>
<text x="1.18" y="202.49">.</text>
<text x="321.18" y="436.92">.</text>
<text x="276.06" y="285.32">.</text>
<text x="339.36" y="447.52">+</text>
<text x="366.85" y="31.89">.</text>
<text x="143.22" y="288.53">+</text>
<text x="469.92" y="76.92">*</text>
<text x="241.49" y="385.83">.</text>
<text x="336.61" y="455.56">.</text>
<text x="445.09" y="251.03">+</text>
<text x="149.79" y="305.21">.</text>
<text x="150.57" y="336.57">*</text>
<text x="28.33" y="111.77">+</text>
<text x="79.44" y="340.96">+</text>
<text x="388.91" y="382.38">+</text>
<text x="225.29" y="331.44">.</text>
<text x="117.73" y="343.53">.</text>
<text x="418.23" y="467.90">.</text>
<text x="194.99" y="63.71">+</text>
<text x="306.46" y="385.86">+</text>
<text x="152.76" y="145.14">.</text>
<text x="32.47" y="352.62">*</text>
<text x="458.03" y="110.23">+</text>
<text x="353.26" y="293.00">.</text>
<text x="402.05" y="5.70">*</text>
<text x="435.30" y="407.87">.</text>
<text x="19.89" y="191.56">+</text>
<text x="298.71" y="177.93">+</text>
<text x="122.32" y="219.16">+</text>
<text x="223.79" y="224.57">.</text>
<text x="312.20" y="48.92">+</text>
<text x="232.23" y="84.95">*</text>
<text x="472.48" y="355.85">.</text>
<text x="286.81" y="498.79">.</text>
<text x="62.63" y="400.70">+</text>
<text x="107.04" y="35.93">+</text>
<text x="85.51" y="470.67">.</text>
<text x="313.64" y="154.73">+</text>
<text x="485.58" y="397.46">.</text>
<text x="188.52" y="153.22">+</text>
<text x="116.88" y="253.22">+</text>
<text x="385.73" y="99.39">+</text>
<text x="285.34" y="302.66">*</text>
<text x="410.20" y="307.08">*</text>
<text x="189.97" y="484.30">.</text>
<text x="303.12" y="466.15">+</text>
<text x="255.80" y="11.70">+</text>
<text x="497.24" y="300.07">.</text>
<text x="229.69" y="480.88">.</text>
<text x="495.49" y="302.44">.</text>
<text x="260.39" y="464.66">.</text>
<text x="326.29" y="455.28">.</text>
<text x="368.66" y="323.85">+</text>
<text x="110.17" y="210.92">+</text>
<text x="199.47" y="332.09">*</text>
<text x="27.30" y="301.46">+</text>
<text x="415.94" y="5.11">*</text>
<text x="440.40" y="71.15">+</text>
<text x="359.07" y="115.08">+</text>
<text x="303.97" y="284.69">.</text>
<text x="259.28" y="471.82">.</text>
<text x="4.06" y="166.64">+</text>
<text x="214.64" y="364.01">.</text>
<text x="96.09" y="486.16">+</text>
<text x="232.76" y="86.52">+</text>
<text x="404.08" y="241.77">+</text>
<text x="120.45" y="353.45">*</text>
<text x="388.24" y="338.61">+</text>
<text x="489.21" y="356.34">+</text>
<text x="289.64" y="416.74">+</text>
<text x="92.57" y="350.55">.</text>
<text x="291.90" y="366.25">.</text>
<text x="329.22" y="68.81">.</text>
<text x="448.44" y="362.80">.</text>
<text x="373.80" y="58.33">.</text>
<text x="263.18" y="79.50">+</text>
<text x="50.95" y="397.80">.</text>
<text x="423.57" y="78.81">.</text>
<text x="497.92" y="146.37">*</text>
<text x="220.38" y="466.17">.</text>
<text x="317.33" y="297.92">*</text>
<text x="275.26" y="462.50">*</text>
<text x="384.33" y="321.73">+</text>
<text x="142.68" y="352.28">+</text>
<text x="277.96" y="14.37">.</text>
<text x="30.54" y="463.84">.</text>
<text x="405.41" y="482.78">.</text>
<text x="237.47" y="59.00">+</text>
<text x="373.92" y="389.39">+</text>
<text x="209.75" y="24.49">+</text>
<text x="101.80" y="318.24">*</text>
<text x="3.11" y="380.63">.</text>
<text x="296.73" y="414.92">+</text>
<text x="473.08" y="339.91">*</text>
<text x="1.49" y="50.31">.</text>
<text x="232.68" y="36.82">.</text>
<text x="57.94" y="398.62">+</text>
<text x="90.38" y="88.47">.</text>
<text x="56.15" y="180.69">+</text>
<text x="86.33" y="26.68">+</text>
<text x="494.91" y="196.35">+</text>
<text x="373.00" y="459.75">.</text>
<text x="429.39" y="330.81">.</text>
<text x="135.83" y="460.57">.</text>
<text x="161.44" y="23.17">+</text>
<text x="304.79" y="365.78">.</text>
<text x="99.62" y="479.13">.</text>
<text x="393.77" y="140.29">.</text>
<text x="36.89" y="399.45">.</text>
<text x="452.57" y="118.37">+</text>
<text x="347.46" y="96.76">+</text>
<text x="472.15" y="248.93">.</text>
<text x="408.13" y="214.71">.</text>
<text x="363.19" y="78.00">.</text>
<text x="424.91" y="321.30">+</text>
<text x="468.43" y="401.30">+</text>
<text x="491.72" y="377.11">+</text>
<text x="131.54" y="263.60">+</text>
<text x="72.55" y="420.49">*</text>
<text x="183.59" y="438.42">+</text>
<text x="478.49" y="191.96">*</text>
<text x="291.65" y="56.42">+</text>
<text x="461.95" y="188.94">+</text>
<text x="313.85" y="28.02">.</text>
<text x="17.59" y="250.97">.</text>
<text x="295.88" y="386.27">+</text>
<text x="305.59" y="113.33">.</text>
<text x="83.81" y="139.31">.</text>
<text x="199.36" y="302.71">.</text>
<text x="373.48" y="411.91">*</text>
<text x="356.70" y="157.81">+</text>
<text x="10.05" y="115.98">*</text>
<text x="489.67" y="96.92">.</text>
<text x="378.10" y="11.21">.</text>
<text x="207.02" y="155.66">*</text>
<text x="306.23" y="236.90">.</text>
<text x="55.33" y="291.97">.</text>
<text x="172.94" y="6.75">+</text>
<text x="11.51" y="177.58">+</text>
<text x="20.34" y="159.61">.</text>
<text x="395.35" y="398.98">+</text>
<text x="422.47" y="83.02">+</text>
<text x="142.44" y="220.03">+</text>
<text x="224.33" y="243.63">+</text>
<text x="356.47" y="64.91">+</text>
<text x="65.94" y="75.03">+</text>
<text x="15.81" y="262.88">*</text>
<text x="14.81" y="222.41">+</text>
<text x="343.67" y="149.10">.</text>
<text x="388.53" y="198.31">*</text>
<text x="164.47" y="155.57">.</text>
<text x="47.08" y="361.28">.</text>
<text x="229.20" y="431.45">.</text>
<text x="449.25" y="392.88">.</text>
<text x="149.72" y="453.29">+</text>
<text x="77.90" y="262.67">+</text>
<text x="154.37" y="435.49">.</text>
<text x="295.25" y="236.71">.</text>
<text x="400.00" y="79.89">.</text>
<text x="102.40" y="150.13">+</text>
<text x="3.50" y="246.57">+</text>
<text x="265.54" y="277.50">+</text>
<text x="36.60" y="367.80">+</text>
<text x="257.40" y="13.64">+</text>
<text x="82.21" y="256.17">.</text>
<text x="222.45" y="91.45">.</text>
<text x="449.32" y="361.10">+</text>
<text x="86.47" y="238.69">+</text>

</svg>