
<svg viewBox="0 0 500 500" xmlns="http://www.w.org/2000/svg" width="100%" height="100%" style="background-color: #0a0a14; font-family: 'Courier New', Courier, monospace;">
    <style>
        text { fill: #aaa; font-size: 10px; text-anchor: middle; dominant-baseline: middle; }
    </style>
    <text x="79.83" y="63.15">+</text>
<text x="436.56" y="93.29">.</text>
<text x="25.55" y="26.49">.</text>
<text x="74.66" y="487.64">+</text>
<text x="210.46" y="48.92">.</text>
<text x="50.55" y="41.82">+</text>
<text x="163.86" y="478.81">+</text>
<text x="488.43" y="192.29">.</text>
<text x="315.44" y="266.43">*</text>
<text x="33.20" y="194.49">*</text>
<text x="291.74" y="313.04">+</text>
<text x="11.17" y="370.98">+</text>
<text x="421.08" y="214.34">+</text>
<text x="398.26" y="95.93">.</text>
<text x="140.17" y="150.43">+</text>
<text x="390.60" y="148.22">.</text>
<text x="474.20" y="460.63">+</text>
<text x="276.98" y="406.07">.</text>
<text x="451.71" y="74.29">+</text>
<text x="269.78" y="155.67">+</text>
<text x="136.35" y="437.74">.</text>
<text x="199.78" y="356.23">+</text>
<text x="164.99" y="323.55">+</text>
<text x="407.54" y="190.18">+</text>
<text x="154.34" y="326.64">+</text>
<text x="308.63" y="149.61">.</text>
<text x="323.54" y="364.46">+</text>
<text x="264.86" y="111.54">+</text>
<text x="49.63" y="374.57">.</text>
<text x="382.39" y="306.01">.</text>
<text x="184.42" y="176.88">.</text>
<text x="428.27" y="5.21">+</text>
<text x="271.44" y="21.21">.</text>
<text x="240.25" y="234.66">.</text>
<text x="225.55" y="275.38">.</text>
<text x="207.75" y="457.51">+</text>
<text x="322.82" y="12.21">.</text>
<text x="331.29" y="206.97">+</text>
<text x="368.31" y="30.20">.</text>
<text x="265.09" y="439.48">.</text>
<text x="430.64" y="498.94">.</text>
<text x="341.34" y="307.07">*</text>
<text x="39.26" y="418.87">.</text>
<text x="117.46" y="40.43">+</text>
<text x="139.68" y="22.25">.</text>
<text x="484.80" y="136.20">*</text>
<text x="41.78" y="82.17">+</text>
<text x="318.62" y="463.95">+</text>
<text x="178.83" y="220.94">+</text>
<text x="138.75" y="338.41">.</text>
<text x="82.93" y="222.68">.</text>
<text x="21.97" y="457.56">.</text>
<text x="21.09" y="34.01">+</text>
<text x="395.14" y="475.80">.</text>
<text x="397.01" y="341.23">+</text>
<text x="309.07" y="408.89">+</text>
<text x="416.08" y="342.24">.</text>
<text x="279.25" y="386.60">+</text>
<text x="63.95" y="200.30">+</text>
<text x="417.22" y="166.41">+</text>
<text x="222.47" y="145.05">*</text>
<text x="211.78" y="428.25">.</text>
<text x="103.66" y="297.18">+</text>
<text x="203.58" y="270.86">+</text>
<text x="288.21" y="135.69">.</text>
<text x="499.89" y="298.71">*</text>
<text x="329.28" y="122.38">.</text>
<text x="59.56" y="226.33">+</text>
<text x="198.81" y="292.74">+</text>
<text x="59.78" y="191.42">.</text>
<text x="343.37" y="292.06">.</text>
<text x="453.93" y="285.05">+</text>
<text x="10.00" y="464.08">+</text>
<text x="48.54" y="205.91">.</text>
<text x="435.14" y="117.50">.</text>
<text x="207.12" y="490.31">*</text>
<text x="419.67" y="12.21">+</text>
<text x="430.88" y="433.71">.</text>
<text x="394.83" y="493.73">*</text>
<text x="57.31" y="29.09">+</text>
<text x="90.19" y="56.84">+</text>
<text x="388.75" y="353.23">+</text>
<text x="415.52" y="362.80">+</text>
<text x="464.18" y="410.91">+</text>
<text x="313.94" y="172.00">.</text>
<text x="256.54" y="146.02">*</text>
<text x="473.21" y="311.72">*</text>
<text x="491.61" y="298.35">*</text>
<text x="441.59" y="400.04">*</text>
<text x="171.22" y="125.78">+</text>
<text x="132.23" y="378.50">+</text>
<text x="273.38" y="276.13">+</text>
<text x="146.16" y="117.24">.</text>
<text x="369.41" y="400.29">+</text>
<text x="92.78" y="182.55">*</text>
<text x="71.36" y="195.44">+</text>
<text x="113.01" y="266.34">.</text>
<text x="233.44" y="76.85">*</text>
<text x="330.13" y="416.16">+</text>
<text x="325.81" y="125.21">*</text>
<text x="26.42" y="186.22">.</text>
<text x="104.57" y="169.02">+</text>
<text x="237.64" y="57.62">+</text>
<text x="72.63" y="406.49">.</text>
<text x="115.85" y="461.04">.</text>
<text x="394.06" y="258.42">*</text>
<text x="492.62" y="57.66">*</text>
<text x="256.00" y="170.04">+</text>
<text x="37.47" y="350.54">.</text>
<text x="237.27" y="35.59">.</text>
<text x="106.08" y="335.72">.</text>
<text x="93.18" y="463.62">*</text>
<text x="425.06" y="381.25">.</text>
<text x="367.00" y="231.21">.</text>
<text x="123.15" y="261.00">*</text>
<text x="375.73" y="384.95">.</text>
<text x="209.18" y="108.60">.</text>
<text x="397.09" y="322.82">+</text>
<text x="222.00" y="165.14">.</text>
<text x="436.03" y="183.58">.</text>
<text x="394.87" y="474.16">.</text>
<text x="304.55" y="483.77">+</text>
<text x="383.03" y="207.42">.</text>
<text x="224.13" y="144.72">+</text>
<text x="424.71" y="15.46">+</text>
<text x="131.43" y="73.61">+</text>
<text x="217.29" y="245.56">*</text>
<text x="220.73" y="91.43">+</text>
<text x="322.29" y="293.72">.</text>
<text x="196.76" y="68.75">.</text>
<text x="200.63" y="483.26">+</text>
<text x="73.45" y="95.90">.</text>
<text x="271.25" y="181.12">+</text>
<text x="390.89" y="472.38">+</text>
<text x="269.18" y="457.39">.</text>
<text x="312.55" y="317.69">*</text>
<text x="487.92" y="270.11">+</text>
<text x="358.61" y="140.28">.</text>
<text x="146.83" y="283.37">.</text>
<text x="194.01" y="476.26">*</text>
<text x="193.29" y="342.70">+</text>
<text x="224.90" y="370.16">*</text>
<text x="25.26" y="456.32">+</text>
<text x="150.32" y="457.10">.</text>
<text x="228.33" y="317.51">*</text>
<text x="334.86" y="242.42">.</text>
<text x="291.42" y="119.82">+</text>
<text x="357.60" y="269.39">.</text>
<text x="419.46" y="138.59">+</text>
<text x="444.94" y="34.00">+</text>
<text x="182.63" y="394.17">+</text>
<text x="172.31" y="453.55">.</text>
<text x="27.68" y="187.88">.</text>
<text x="210.50" y="237.26">.</text>
<text x="296.59" y="328.68">+</text>
<text x="433.40" y="137.50">+</text>
<text x="420.37" y="335.88">.</text>
<text x="336.01" y="406.90">+</text>
<text x="314.06" y="24.35">.</text>
<text x="266.41" y="395.50">+</text>
<text x="409.93" y="416.67">*</text>
<text x="497.97" y="364.78">.</text>
<text x="7.72" y="308.19">+</text>
<text x="412.76" y="431.03">.</text>
<text x="229.14" y="290.43">*</text>
<text x="20.94" y="262.30">.</text>
<text x="209.97" y="382.63">.</text>
<text x="349.02" y="46.23">+</text>
<text x="87.66" y="152.90">.</text>
<text x="96.13" y="287.10">+</text>
<text x="211.23" y="425.13">*</text>
<text x="21.65" y="52.55">.</text>
<text x="92.83" y="91.55">.</text>
<text x="71.61" y="79.12">+</text>
<text x="71.07" y="149.12">.</text>
<text x="481.99" y="69.86">.</text>
<text x="28.59" y="16.54">+</text>
<text x="455.84" y="361.47">+</text>
<text x="350.65" y="353.54">*</text>
<text x="394.10" y="292.73">+</text>
<text x="405.06" y="235.97">.</text>
<text x="184.37" y="458.32">.</text>
<text x="377.59" y="379.83">.</text>
<text x="467.96" y="497.81">+</text>
<text x="36.67" y="44.08">.</text>
<text x="187.19" y="134.70">+</text>
<text x="307.09" y="410.31">.</text>
<text x="423.41" y="149.50">.</text>
<text x="326.98" y="467.89">.</text>
<text x="389.82" y="46.42">+</text>
<text x="245.83" y="103.36">.</text>
<text x="336.10" y="497.72">*</text>
<text x="421.85" y="162.95">*</text>
<text x="17.96" y="169.37">+</text>
<text x="190.86" y="172.47">.</text>
<text x="220.20" y="30.69">.</text>
<text x="421.37" y="475.89">+</text>
<text x="277.03" y="438.32">+</text>
<text x="334.35" y="163.09">.</text>
<text x="345.07" y="24.58">.</text>
<text x="45.49" y="286.79">+</text>
<text x="413.18" y="402.87">.</text>
<text x="458.55" y="319.53">.</text>
<text x="412.73" y="488.13">.</text>
<text x="55.85" y="39.63">.</text>
<text x="242.84" y="61.86">*</text>
<text x="246.17" y="84.41">+</text>
<text x="473.88" y="158.00">.</text>
<text x="21.27" y="252.38">*</text>
<text x="224.05" y="88.93">+</text>

</svg>