
<svg viewBox="0 0 500 500" xmlns="http://www.w.org/2000/svg" width="100%" height="100%" style="background-color: #0a0a14; font-family: 'Courier New', Courier, monospace;">
    <style>
        text { fill: #aaa; font-size: 10px; text-anchor: middle; dominant-baseline: middle; }
    </style>
    <text x="175.55" y="379.42">+</text>
<text x="18.25" y="180.23">+</text>
<text x="430.48" y="168.40">+</text>
<text x="149.63" y="453.68">.</text>
<text x="173.35" y="477.03">*</text>
<text x="482.82" y="2.67">*</text>
<text x="362.02" y="99.65">+</text>
<text x="301.31" y="78.35">+</text>
<text x="56.79" y="208.47">*</text>
<text x="277.11" y="93.66">*</text>
<text x="444.90" y="54.34">+</text>
<text x="358.59" y="82.04">.</text>
<text x="54.20" y="11.52">+</text>
<text x="398.96" y="441.19">+</text>
<text x="344.41" y="21.70">*</text>
<text x="66.71" y="144.96">.</text>
<text x="146.45" y="158.60">.</text>
<text x="136.04" y="384.52">+</text>
<text x="402.46" y="449.93">.</text>
<text x="36.20" y="334.82">+</text>
<text x="58.45" y="450.97">+</text>
<text x="233.49" y="254.46">.</text>
<text x="453.44" y="205.40">+</text>
<text x="446.05" y="201.97">+</text>
<text x="35.50" y="295.08">.</text>
<text x="273.28" y="195.99">+</text>
<text x="295.77" y="40.38">+</text>
<text x="487.65" y="234.13">+</text>
<text x="187.64" y="49.77">.</text>
<text x="201.66" y="71.09">*</text>
<text x="66.75" y="460.80">.</text>
<text x="362.23" y="339.36">+</text>
<text x="208.02" y="316.52">+</text>
<text x="277.09" y="499.05">+</text>
<text x="446.62" y="286.50">.</text>
<text x="264.29" y="219.26">*</text>
<text x="137.51" y="42.04">.</text>
<text x="476.22" y="200.26">+</text>
<text x="66.84" y="222.47">+</text>
<text x="170.58" y="160.01">+</text>
<text x="479.02" y="387.89">+</text>
<text x="333.77" y="464.13">+</text>
<text x="477.71" y="70.92">.</text>
<text x="444.14" y="136.79">+</text>
<text x="129.24" y="70.02">+</text>
<text x="408.65" y="205.21">+</text>
<text x="433.34" y="478.41">+</text>
<text x="71.92" y="271.82">.</text>
<text x="299.60" y="181.13">+</text>
<text x="56.30" y="421.69">+</text>
<text x="250.05" y="376.83">.</text>
<text x="492.16" y="201.65">.</text>
<text x="87.62" y="159.58">*</text>
<text x="55.68" y="204.26">.</text>
<text x="90.80" y="497.09">.</text>
<text x="199.99" y="323.77">.</text>
<text x="204.12" y="470.51">.</text>
<text x="95.19" y="259.80">.</text>
<text x="20.52" y="217.05">.</text>
<text x="5.91" y="198.47">*</text>
<text x="269.78" y="248.56">+</text>
<text x="303.27" y="35.34">.</text>
<text x="202.56" y="412.18">+</text>
<text x="147.59" y="344.03">.</text>
<text x="13.27" y="261.22">.</text>
<text x="340.38" y="291.56">+</text>
<text x="494.40" y="371.18">+</text>
<text x="465.39" y="151.81">+</text>
<text x="293.34" y="248.57">.</text>
<text x="125.34" y="300.66">+</text>
<text x="367.03" y="17.16">*</text>
<text x="487.21" y="230.11">*</text>
<text x="142.17" y="420.40">.</text>
<text x="82.57" y="309.87">+</text>
<text x="135.81" y="330.47">.</text>
<text x="23.10" y="314.38">+</text>
<text x="57.34" y="199.75">.</text>
<text x="89.68" y="466.77">*</text>
<text x="335.71" y="439.85">+</text>
<text x="204.01" y="395.49">.</text>
<text x="133.17" y="234.40">+</text>
<text x="195.90" y="139.26">.</text>
<text x="154.51" y="455.78">*</text>
<text x="81.02" y="390.24">+</text>
<text x="485.53" y="228.83">.</text>
<text x="320.63" y="160.12">+</text>
<text x="334.28" y="278.13">.</text>
<text x="365.10" y="447.59">+</text>
<text x="414.02" y="424.11">.</text>
<text x="393.94" y="142.53">.</text>
<text x="192.12" y="18.00">+</text>
<text x="120.09" y="494.00">*</text>
<text x="309.84" y="264.36">+</text>
<text x="40.87" y="337.22">+</text>
<text x="11.76" y="395.48">.</text>
<text x="78.14" y="299.20">.</text>
<text x="379.50" y="116.46">.</text>
<text x="375.84" y="342.45">.</text>
<text x="126.98" y="367.56">+</text>
<text x="225.81" y="208.27">+</text>
<text x="159.21" y="474.26">+</text>
<text x="275.01" y="147.99">.</text>
<text x="80.55" y="399.26">+</text>
<text x="140.07" y="463.73">+</text>
<text x="99.70" y="181.47">+</text>
<text x="41.51" y="109.48">+</text>
<text x="77.64" y="448.55">+</text>
<text x="280.71" y="149.66">+</text>
<text x="459.63" y="371.93">*</text>
<text x="24.33" y="497.60">+</text>
<text x="275.55" y="211.57">.</text>
<text x="17.12" y="320.16">+</text>
<text x="450.55" y="294.13">+</text>
<text x="70.38" y="133.10">+</text>
<text x="218.50" y="54.05">.</text>
<text x="363.21" y="79.50">.</text>
<text x="184.12" y="10.84">+</text>
<text x="47.92" y="481.19">.</text>
<text x="278.62" y="388.17">*</text>
<text x="49.21" y="463.27">+</text>
<text x="110.74" y="435.45">.</text>
<text x="227.14" y="178.44">.</text>
<text x="76.66" y="306.30">+</text>
<text x="81.64" y="11.53">.</text>
<text x="142.97" y="89.47">+</text>
<text x="335.13" y="251.51">+</text>
<text x="410.74" y="396.24">.</text>
<text x="220.48" y="61.32">+</text>
<text x="342.27" y="155.36">.</text>
<text x="59.65" y="221.06">.</text>
<text x="317.42" y="400.99">.</text>
<text x="166.58" y="146.51">+</text>
<text x="260.05" y="183.01">.</text>
<text x="92.27" y="96.03">.</text>
<text x="49.79" y="122.26">+</text>
<text x="120.39" y="287.69">+</text>
<text x="453.50" y="446.89">+</text>
<text x="134.38" y="63.99">+</text>
<text x="414.18" y="162.55">.</text>
<text x="49.68" y="432.11">.</text>
<text x="314.95" y="384.93">.</text>
<text x="288.89" y="71.15">.</text>
<text x="2.27" y="123.52">*</text>
<text x="450.49" y="54.47">.</text>
<text x="229.87" y="405.08">+</text>
<text x="153.12" y="309.11">.</text>
<text x="471.36" y="64.84">+</text>
<text x="288.91" y="207.84">*</text>
<text x="103.45" y="75.04">.</text>
<text x="442.35" y="203.73">.</text>
<text x="149.31" y="334.65">.</text>
<text x="342.51" y="78.13">.</text>
<text x="357.61" y="316.53">+</text>
<text x="117.83" y="325.86">.</text>
<text x="379.79" y="302.54">+</text>
<text x="341.69" y="17.79">+</text>
<text x="107.24" y="447.35">+</text>
<text x="232.68" y="14.25">.</text>
<text x="331.41" y="135.57">.</text>
<text x="44.04" y="414.16">.</text>
<text x="70.37" y="342.74">+</text>
<text x="411.63" y="173.28">.</text>
<text x="32.97" y="122.15">*</text>
<text x="107.73" y="28.21">.</text>
<text x="1.27" y="277.48">.</text>
<text x="456.82" y="80.31">+</text>
<text x="57.16" y="213.20">+</text>
<text x="116.38" y="223.11">.</text>
<text x="174.06" y="491.21">.</text>
<text x="458.43" y="390.16">.</text>
<text x="5.38" y="87.52">.</text>
<text x="126.13" y="204.79">.</text>
<text x="109.93" y="83.38">+</text>
<text x="378.45" y="316.57">*</text>
<text x="259.29" y="292.49">*</text>
<text x="67.06" y="444.87">.</text>
<text x="498.69" y="432.26">*</text>
<text x="161.40" y="174.95">.</text>
<text x="57.46" y="140.04">*</text>
<text x="321.08" y="437.01">.</text>
<text x="17.01" y="211.35">+</text>
<text x="234.95" y="296.93">+</text>
<text x="409.02" y="395.34">+</text>
<text x="40.85" y="87.83">.</text>
<text x="199.37" y="365.67">*</text>
<text x="237.22" y="366.64">+</text>
<text x="35.48" y="411.91">*</text>
<text x="252.96" y="78.76">.</text>
<text x="491.08" y="471.41">.</text>
<text x="58.82" y="425.83">.</text>
<text x="439.24" y="16.46">*</text>
<text x="449.18" y="223.11">*</text>
<text x="302.79" y="355.84">.</text>
<text x="499.93" y="228.20">+</text>
<text x="472.96" y="441.96">+</text>
<text x="468.09" y="355.44">.</text>
<text x="492.05" y="71.29">+</text>
<text x="304.93" y="33.77">+</text>
<text x="54.70" y="459.86">+</text>
<text x="183.27" y="498.47">.</text>
<text x="190.30" y="279.86">.</text>
<text x="419.20" y="300.90">+</text>
<text x="407.14" y="295.25">+</text>
<text x="140.19" y="394.10">.</text>
<text x="334.82" y="259.07">.</text>
<text x="154.06" y="187.09">*</text>
<text x="182.88" y="67.09">*</text>
<text x="264.17" y="129.26">.</text>
<text x="113.96" y="187.82">.</text>
<text x="222.31" y="205.32">+</text>
<text x="145.91" y="97.43">.</text>
<text x="155.04" y="341.78">.</text>
<text x="349.01" y="169.62">*</text>
<text x="301.47" y="491.79">+</text>
<text x="483.46" y="80.69">*</text>
<text x="381.32" y="324.88">+</text>
<text x="59.85" y="184.41">.</text>
<text x="133.47" y="399.64">+</text>
<text x="150.49" y="482.69">.</text>
<text x="3.95" y="422.36">+</text>

</svg>