
<svg viewBox="0 0 500 500" xmlns="http://www.w.org/2000/svg" width="100%" height="100%" style="background-color: #0a0a14; font-family: 'Courier New', Courier, monospace;">
    <style>
        text { fill: #aaa; font-size: 10px; text-anchor: middle; dominant-baseline: middle; }
    </style>
    <text x="420.22" y="239.39">.</text>
<text x="388.84" y="345.63">+</text>
<text x="428.91" y="458.45">*</text>
<text x="47.30" y="463.26">.</text>
<text x="77.55" y="450.37">*</text>
<text x="337.13" y="392.02">+</text>
<text x="231.50" y="101.61">.</text>
<text x="219.05" y="195.23">*</text>
<text x="21.29" y="3.18">+</text>
<text x="270.42" y="499.17">.</text>
<text x="417.23" y="282.07">.</text>
<text x="47.37" y="128.91">+</text>
<text x="137.00" y="449.59">+</text>
<text x="76.02" y="231.53">.</text>
<text x="152.89" y="170.80">+</text>
<text x="449.35" y="184.44">+</text>
<text x="55.82" y="359.40">.</text>
<text x="23.71" y="266.90">+</text>
<text x="305.95" y="139.54">.</text>
<text x="225.42" y="407.05">+</text>
<text x="183.60" y="416.53">.</text>
<text x="47.12" y="211.99">+</text>
<text x="90.37" y="421.50">.</text>
<text x="189.10" y="254.52">.</text>
<text x="161.93" y="352.73">.</text>
<text x="447.07" y="277.71">.</text>
<text x="267.58" y="340.16">+</text>
<text x="473.47" y="135.05">.</text>
<text x="306.64" y="279.00">+</text>
<text x="452.35" y="495.19">*</text>
<text x="454.06" y="157.65">+</text>
<text x="328.51" y="155.03">.</text>
<text x="254.46" y="304.40">+</text>
<text x="457.76" y="399.62">+</text>
<text x="223.01" y="402.69">.</text>
<text x="422.33" y="349.44">*</text>
<text x="283.35" y="141.90">+</text>
<text x="153.49" y="164.49">*</text>
<text x="261.62" y="130.72">+</text>
<text x="444.00" y="474.97">.</text>
<text x="255.55" y="264.15">+</text>
<text x="184.58" y="185.96">+</text>
<text x="186.25" y="375.47">+</text>
<text x="325.61" y="413.28">+</text>
<text x="442.78" y="432.09">.</text>
<text x="261.56" y="25.16">+</text>
<text x="3.43" y="139.68">.</text>
<text x="246.56" y="460.28">.</text>
<text x="439.97" y="348.42">*</text>
<text x="283.03" y="284.66">.</text>
<text x="382.85" y="303.91">+</text>
<text x="216.03" y="211.00">.</text>
<text x="196.68" y="446.68">+</text>
<text x="168.65" y="64.66">+</text>
<text x="101.17" y="421.38">.</text>
<text x="342.72" y="396.15">.</text>
<text x="370.60" y="405.28">.</text>
<text x="484.04" y="132.77">.</text>
<text x="17.73" y="88.59">+</text>
<text x="3.08" y="233.51">+</text>
<text x="294.96" y="54.23">.</text>
<text x="200.43" y="18.13">.</text>
<text x="311.61" y="210.19">.</text>
<text x="236.85" y="416.90">*</text>
<text x="283.06" y="117.07">*</text>
<text x="246.92" y="452.61">+</text>
<text x="200.37" y="493.57">+</text>
<text x="290.73" y="95.15">.</text>
<text x="364.52" y="28.66">*</text>
<text x="20.78" y="392.46">.</text>
<text x="468.81" y="435.19">*</text>
<text x="7.15" y="218.58">+</text>
<text x="313.77" y="110.86">*</text>
<text x="104.01" y="145.61">.</text>
<text x="124.58" y="185.39">+</text>
<text x="189.98" y="230.62">+</text>
<text x="353.53" y="261.63">*</text>
<text x="134.96" y="129.01">.</text>
<text x="85.89" y="46.02">+</text>
<text x="451.36" y="403.27">.</text>
<text x="43.06" y="464.41">.</text>
<text x="317.05" y="55.28">.</text>
<text x="423.21" y="87.95">+</text>
<text x="188.09" y="143.29">+</text>
<text x="172.51" y="252.28">+</text>
<text x="324.80" y="134.03">+</text>
<text x="425.28" y="93.26">.</text>
<text x="254.94" y="182.30">+</text>
<text x="186.42" y="288.42">+</text>
<text x="241.56" y="139.78">+</text>
<text x="67.95" y="43.42">.</text>
<text x="37.49" y="398.24">.</text>
<text x="167.06" y="45.90">.</text>
<text x="245.70" y="344.93">.</text>
<text x="279.86" y="152.23">+</text>
<text x="242.15" y="183.06">.</text>
<text x="385.26" y="79.52">+</text>
<text x="491.17" y="52.39">+</text>
<text x="99.55" y="311.50">.</text>
<text x="455.58" y="190.11">*</text>
<text x="300.77" y="101.00">+</text>
<text x="171.15" y="161.43">.</text>
<text x="198.24" y="283.25">+</text>
<text x="486.55" y="233.01">+</text>
<text x="182.08" y="327.30">+</text>
<text x="314.02" y="449.01">*</text>
<text x="85.97" y="433.00">+</text>
<text x="158.57" y="83.08">.</text>
<text x="177.41" y="408.13">.</text>
<text x="149.05" y="431.26">+</text>
<text x="307.82" y="346.31">+</text>
<text x="437.14" y="46.90">+</text>
<text x="180.99" y="77.34">+</text>
<text x="1.64" y="21.22">+</text>
<text x="181.55" y="129.48">+</text>
<text x="38.04" y="78.73">.</text>
<text x="338.90" y="221.66">.</text>
<text x="202.95" y="184.15">+</text>
<text x="136.94" y="437.66">+</text>
<text x="99.20" y="181.01">*</text>
<text x="401.25" y="471.12">.</text>
<text x="286.61" y="29.29">*</text>
<text x="478.46" y="404.13">+</text>
<text x="453.34" y="327.77">+</text>
<text x="80.66" y="368.36">+</text>
<text x="203.74" y="64.27">.</text>
<text x="46.85" y="445.32">+</text>
<text x="292.15" y="10.10">*</text>
<text x="38.05" y="320.56">+</text>
<text x="377.40" y="59.53">+</text>
<text x="469.30" y="14.30">.</text>
<text x="317.39" y="2.68">.</text>
<text x="458.20" y="483.44">+</text>
<text x="491.24" y="426.23">.</text>
<text x="11.67" y="329.26">+</text>
<text x="383.75" y="478.85">+</text>
<text x="137.27" y="423.09">.</text>
<text x="18.45" y="357.21">+</text>
<text x="227.76" y="160.21">+</text>
<text x="339.13" y="474.29">.</text>
<text x="373.69" y="352.65">+</text>
<text x="474.84" y="276.59">+</text>
<text x="389.42" y="79.92">+</text>
<text x="271.08" y="177.63">.</text>
<text x="398.91" y="104.66">.</text>
<text x="313.10" y="239.78">.</text>
<text x="222.08" y="46.40">.</text>
<text x="129.66" y="424.21">.</text>
<text x="60.53" y="219.16">+</text>
<text x="362.28" y="118.47">+</text>
<text x="88.92" y="355.35">*</text>
<text x="476.69" y="156.00">+</text>
<text x="70.70" y="322.62">.</text>
<text x="449.49" y="280.85">.</text>
<text x="367.65" y="213.27">.</text>
<text x="417.12" y="183.25">*</text>
<text x="310.43" y="39.57">+</text>
<text x="237.74" y="3.53">*</text>
<text x="220.29" y="107.67">.</text>
<text x="331.79" y="240.68">.</text>
<text x="327.00" y="228.79">+</text>
<text x="356.73" y="249.16">*</text>
<text x="22.81" y="333.23">.</text>
<text x="353.05" y="180.20">.</text>
<text x="229.78" y="279.01">.</text>
<text x="50.70" y="361.27">+</text>
<text x="275.24" y="293.78">*</text>
<text x="241.89" y="70.32">.</text>
<text x="438.23" y="172.95">+</text>
<text x="168.84" y="166.57">.</text>
<text x="116.17" y="449.74">.</text>
<text x="247.40" y="350.60">+</text>
<text x="322.54" y="461.40">.</text>
<text x="488.57" y="45.94">.</text>
<text x="414.83" y="13.63">+</text>
<text x="262.29" y="262.35">*</text>
<text x="185.78" y="310.03">+</text>
<text x="79.36" y="206.65">.</text>
<text x="211.15" y="116.96">.</text>
<text x="338.49" y="482.89">.</text>
<text x="301.18" y="161.27">+</text>
<text x="480.76" y="85.87">*</text>
<text x="217.77" y="403.77">+</text>
<text x="297.62" y="331.39">+</text>
<text x="156.83" y="139.06">+</text>
<text x="440.51" y="336.08">.</text>
<text x="154.55" y="44.46">*</text>
<text x="479.10" y="448.29">.</text>
<text x="385.89" y="381.12">*</text>
<text x="410.88" y="365.22">*</text>
<text x="61.90" y="64.99">+</text>
<text x="282.41" y="149.43">.</text>
<text x="354.20" y="369.88">*</text>
<text x="69.67" y="426.03">+</text>
<text x="374.38" y="79.94">.</text>
<text x="305.48" y="112.82">+</text>
<text x="397.92" y="324.05">.</text>
<text x="234.44" y="177.94">*</text>
<text x="105.97" y="204.38">.</text>
<text x="454.63" y="155.25">+</text>
<text x="14.42" y="348.19">.</text>
<text x="40.55" y="212.68">.</text>
<text x="113.06" y="242.00">.</text>
<text x="354.97" y="262.07">.</text>
<text x="83.60" y="15.10">*</text>
<text x="325.49" y="6.11">.</text>
<text x="95.72" y="21.55">+</text>
<text x="466.80" y="229.52">+</text>
<text x="7.75" y="472.24">.</text>
<text x="161.05" y="374.15">.</text>

</svg>