
<svg viewBox="0 0 500 500" xmlns="http://www.w.org/2000/svg" width="100%" height="100%" style="background-color: #0a0a14; font-family: 'Courier New', Courier, monospace;">
    <style>
        text { fill: #aaa; font-size: 10px; text-anchor: middle; dominant-baseline: middle; }
    </style>
    <text x="270.66" y="291.11">.</text>
<text x="38.48" y="427.37">.</text>
<text x="119.86" y="358.79">+</text>
<text x="127.66" y="445.91">+</text>
<text x="459.35" y="229.84">+</text>
<text x="478.35" y="149.40">.</text>
<text x="213.46" y="495.95">+</text>
<text x="352.04" y="309.96">+</text>
<text x="480.90" y="263.57">*</text>
<text x="312.66" y="112.21">*</text>
<text x="79.55" y="228.56">+</text>
<text x="459.60" y="168.74">.</text>
<text x="226.21" y="497.13">*</text>
<text x="310.14" y="132.84">*</text>
<text x="35.07" y="491.47">+</text>
<text x="444.96" y="371.66">.</text>
<text x="246.20" y="17.26">.</text>
<text x="211.15" y="112.09">+</text>
<text x="90.93" y="158.57">*</text>
<text x="238.74" y="483.59">*</text>
<text x="177.38" y="317.78">.</text>
<text x="51.44" y="24.73">*</text>
<text x="325.79" y="45.40">+</text>
<text x="431.52" y="160.77">+</text>
<text x="473.01" y="36.94">.</text>
<text x="55.48" y="448.87">+</text>
<text x="227.92" y="223.11">*</text>
<text x="209.08" y="203.81">.</text>
<text x="107.77" y="9.80">.</text>
<text x="42.99" y="63.76">+</text>
<text x="40.09" y="17.41">+</text>
<text x="56.90" y="82.77">+</text>
<text x="299.45" y="300.39">+</text>
<text x="176.23" y="406.06">+</text>
<text x="330.41" y="384.96">.</text>
<text x="79.31" y="69.31">.</text>
<text x="449.23" y="496.73">+</text>
<text x="128.63" y="266.70">+</text>
<text x="464.99" y="464.19">.</text>
<text x="309.65" y="66.66">+</text>
<text x="84.87" y="103.82">*</text>
<text x="323.85" y="69.66">+</text>
<text x="79.64" y="453.81">+</text>
<text x="130.64" y="391.65">.</text>
<text x="132.48" y="81.13">+</text>
<text x="211.34" y="432.34">.</text>
<text x="135.10" y="311.13">+</text>
<text x="160.82" y="8.25">+</text>
<text x="146.68" y="459.56">.</text>
<text x="448.21" y="98.56">+</text>
<text x="405.36" y="456.66">+</text>
<text x="395.01" y="450.75">+</text>
<text x="334.30" y="169.88">.</text>
<text x="68.59" y="243.27">+</text>
<text x="211.29" y="279.21">*</text>
<text x="144.88" y="463.86">*</text>
<text x="229.14" y="138.24">.</text>
<text x="223.26" y="1.62">.</text>
<text x="488.62" y="175.35">.</text>
<text x="209.55" y="1.64">.</text>
<text x="274.79" y="454.04">.</text>
<text x="366.81" y="347.75">.</text>
<text x="403.46" y="173.82">.</text>
<text x="468.11" y="57.38">+</text>
<text x="6.89" y="35.28">+</text>
<text x="244.56" y="233.37">*</text>
<text x="168.79" y="67.08">+</text>
<text x="92.19" y="395.22">.</text>
<text x="342.59" y="266.55">.</text>
<text x="278.87" y="162.54">.</text>
<text x="465.91" y="336.92">+</text>
<text x="17.34" y="156.41">.</text>
<text x="482.39" y="481.76">+</text>
<text x="110.80" y="264.91">.</text>
<text x="263.95" y="471.35">.</text>
<text x="133.68" y="434.76">.</text>
<text x="369.11" y="117.56">+</text>
<text x="418.56" y="65.35">.</text>
<text x="70.98" y="413.69">.</text>
<text x="215.39" y="243.88">*</text>
<text x="67.63" y="291.23">.</text>
<text x="34.77" y="207.58">+</text>
<text x="488.27" y="295.61">+</text>
<text x="136.46" y="135.15">.</text>
<text x="145.71" y="175.32">*</text>
<text x="73.38" y="96.00">.</text>
<text x="376.80" y="190.25">.</text>
<text x="199.01" y="414.48">*</text>
<text x="244.31" y="172.67">+</text>
<text x="9.26" y="189.83">+</text>
<text x="283.74" y="484.65">.</text>
<text x="232.61" y="23.14">+</text>
<text x="24.64" y="129.45">.</text>
<text x="44.09" y="251.28">.</text>
<text x="183.59" y="56.86">.</text>
<text x="100.67" y="9.57">*</text>
<text x="459.61" y="209.28">.</text>
<text x="419.57" y="273.81">+</text>
<text x="198.65" y="366.83">+</text>
<text x="258.05" y="255.25">*</text>
<text x="372.52" y="193.62">*</text>
<text x="342.48" y="24.26">*</text>
<text x="12.82" y="407.78">*</text>
<text x="237.66" y="457.54">+</text>
<text x="158.28" y="118.00">*</text>
<text x="108.36" y="297.03">.</text>
<text x="27.07" y="13.78">.</text>
<text x="175.87" y="391.13">.</text>
<text x="261.42" y="67.51">+</text>
<text x="351.19" y="335.42">+</text>
<text x="4.55" y="200.71">*</text>
<text x="211.93" y="74.27">.</text>
<text x="430.66" y="227.89">+</text>
<text x="18.70" y="255.78">*</text>
<text x="337.27" y="322.95">.</text>
<text x="294.98" y="156.68">*</text>
<text x="361.23" y="44.19">+</text>
<text x="110.87" y="138.02">+</text>
<text x="363.72" y="72.72">*</text>
<text x="368.78" y="53.84">+</text>
<text x="279.48" y="43.27">+</text>
<text x="45.64" y="465.62">.</text>
<text x="489.54" y="274.60">.</text>
<text x="477.76" y="224.41">.</text>
<text x="293.63" y="280.73">*</text>
<text x="268.65" y="110.07">*</text>
<text x="299.65" y="151.00">.</text>
<text x="262.19" y="419.19">.</text>
<text x="366.38" y="179.65">+</text>
<text x="485.44" y="227.35">+</text>
<text x="93.93" y="258.14">+</text>
<text x="353.04" y="312.45">+</text>
<text x="52.70" y="51.20">.</text>
<text x="142.89" y="141.88">+</text>
<text x="417.13" y="148.78">+</text>
<text x="195.38" y="458.39">*</text>
<text x="247.39" y="183.14">+</text>
<text x="277.08" y="348.46">*</text>
<text x="362.19" y="462.82">.</text>
<text x="211.12" y="162.88">+</text>
<text x="124.88" y="150.02">.</text>
<text x="130.40" y="247.23">+</text>
<text x="256.68" y="377.31">+</text>
<text x="310.28" y="106.49">+</text>
<text x="466.53" y="381.43">+</text>
<text x="421.70" y="126.93">.</text>
<text x="214.74" y="312.16">+</text>
<text x="467.51" y="341.38">.</text>
<text x="166.07" y="287.15">+</text>
<text x="86.69" y="422.74">.</text>
<text x="31.92" y="431.86">.</text>
<text x="67.26" y="467.46">+</text>
<text x="277.78" y="198.75">+</text>
<text x="109.23" y="495.92">.</text>
<text x="220.75" y="303.04">+</text>
<text x="75.28" y="411.21">*</text>
<text x="31.53" y="70.24">.</text>
<text x="14.25" y="217.99">.</text>
<text x="15.59" y="494.33">+</text>
<text x="219.40" y="473.12">+</text>
<text x="66.00" y="381.31">.</text>
<text x="436.02" y="60.90">+</text>
<text x="456.47" y="406.57">.</text>
<text x="4.28" y="231.38">*</text>
<text x="151.26" y="66.09">+</text>
<text x="280.99" y="157.62">*</text>
<text x="93.35" y="298.75">*</text>
<text x="10.19" y="180.83">*</text>
<text x="255.32" y="360.06">.</text>
<text x="274.03" y="381.10">*</text>
<text x="151.23" y="120.26">*</text>
<text x="349.89" y="289.45">+</text>
<text x="25.74" y="12.92">.</text>
<text x="82.00" y="161.12">.</text>
<text x="385.08" y="41.69">+</text>
<text x="296.51" y="145.16">.</text>
<text x="265.58" y="152.83">+</text>
<text x="357.11" y="45.34">.</text>
<text x="375.15" y="47.19">.</text>
<text x="105.35" y="151.45">+</text>
<text x="3.32" y="51.79">.</text>
<text x="448.20" y="27.57">+</text>
<text x="343.24" y="221.33">.</text>
<text x="406.26" y="91.45">.</text>
<text x="258.90" y="336.92">+</text>
<text x="418.36" y="349.01">.</text>
<text x="245.56" y="107.25">.</text>
<text x="211.74" y="409.71">.</text>
<text x="349.19" y="187.90">*</text>
<text x="66.70" y="315.62">+</text>
<text x="416.58" y="103.11">+</text>
<text x="81.32" y="129.39">.</text>
<text x="459.66" y="316.15">.</text>
<text x="165.93" y="232.31">.</text>
<text x="127.40" y="187.07">*</text>
<text x="168.76" y="320.48">*</text>
<text x="318.74" y="101.84">.</text>
<text x="337.39" y="176.77">+</text>
<text x="410.09" y="194.78">+</text>
<text x="79.44" y="216.78">+</text>
<text x="328.59" y="364.22">+</text>

</svg>