
<svg viewBox="0 0 500 500" xmlns="http://www.w.org/2000/svg" width="100%" height="100%" style="background-color: #0a0a14; font-family: 'Courier New', Courier, monospace;">
    <style>
        text { fill: #aaa; font-size: 10px; text-anchor: middle; dominant-baseline: middle; }
    </style>
    <text x="236.83" y="301.05">+</text>
<text x="131.03" y="233.94">.</text>
<text x="96.17" y="375.24">.</text>
<text x="24.35" y="39.62">+</text>
<text x="475.75" y="187.36">+</text>
<text x="355.19" y="2.24">.</text>
<text x="88.78" y="436.93">*</text>
<text x="51.50" y="399.71">.</text>
<text x="153.79" y="273.30">+</text>
<text x="432.50" y="337.64">+</text>
<text x="248.42" y="312.12">+</text>
<text x="130.65" y="467.89">.</text>
<text x="365.40" y="305.50">.</text>
<text x="3.59" y="114.62">.</text>
<text x="323.23" y="352.99">*</text>
<text x="62.19" y="329.71">.</text>
<text x="415.38" y="258.22">.</text>
<text x="97.70" y="286.34">+</text>
<text x="227.84" y="287.81">+</text>
<text x="210.74" y="315.75">.</text>
<text x="396.20" y="201.78">+</text>
<text x="10.92" y="356.87">+</text>
<text x="14.72" y="405.55">+</text>
<text x="359.36" y="315.61">*</text>
<text x="478.80" y="281.79">*</text>
<text x="347.03" y="203.00">+</text>
<text x="329.84" y="492.07">*</text>
<text x="276.01" y="262.29">+</text>
<text x="429.18" y="77.03">+</text>
<text x="397.76" y="451.04">+</text>
<text x="93.70" y="77.07">+</text>
<text x="16.48" y="193.92">+</text>
<text x="325.48" y="111.20">.</text>
<text x="79.47" y="192.28">+</text>
<text x="370.56" y="33.70">+</text>
<text x="181.68" y="418.94">+</text>
<text x="497.22" y="426.18">+</text>
<text x="390.53" y="378.81">.</text>
<text x="9.10" y="288.16">.</text>
<text x="331.15" y="281.48">+</text>
<text x="302.52" y="60.99">+</text>
<text x="239.37" y="198.68">.</text>
<text x="188.87" y="331.88">+</text>
<text x="353.66" y="499.94">.</text>
<text x="481.88" y="488.84">+</text>
<text x="443.11" y="16.00">.</text>
<text x="407.91" y="275.17">*</text>
<text x="145.52" y="45.62">+</text>
<text x="333.63" y="461.24">+</text>
<text x="311.02" y="98.09">.</text>
<text x="330.89" y="418.99">+</text>
<text x="376.89" y="465.42">.</text>
<text x="478.28" y="452.33">.</text>
<text x="239.73" y="347.94">.</text>
<text x="139.71" y="79.77">+</text>
<text x="6.47" y="195.55">.</text>
<text x="15.02" y="189.95">+</text>
<text x="268.25" y="6.15">*</text>
<text x="265.33" y="234.32">+</text>
<text x="25.70" y="104.72">*</text>
<text x="143.20" y="302.67">+</text>
<text x="237.08" y="300.91">.</text>
<text x="28.41" y="165.20">.</text>
<text x="189.34" y="337.58">.</text>
<text x="471.56" y="260.04">.</text>
<text x="111.60" y="260.89">+</text>
<text x="366.32" y="348.53">+</text>
<text x="1.95" y="106.43">+</text>
<text x="257.88" y="299.44">.</text>
<text x="437.37" y="289.15">.</text>
<text x="162.38" y="481.35">+</text>
<text x="351.59" y="444.83">*</text>
<text x="118.56" y="333.77">.</text>
<text x="52.09" y="332.74">.</text>
<text x="143.07" y="216.32">+</text>
<text x="344.34" y="108.11">*</text>
<text x="221.31" y="200.83">.</text>
<text x="327.11" y="172.27">+</text>
<text x="386.14" y="357.01">+</text>
<text x="133.63" y="446.01">.</text>
<text x="126.49" y="317.13">+</text>
<text x="136.56" y="394.74">+</text>
<text x="29.95" y="136.15">.</text>
<text x="71.84" y="409.99">*</text>
<text x="242.01" y="88.69">*</text>
<text x="297.63" y="381.41">*</text>
<text x="487.59" y="341.33">.</text>
<text x="247.03" y="464.63">+</text>
<text x="487.30" y="434.56">*</text>
<text x="10.91" y="92.42">.</text>
<text x="149.36" y="215.67">+</text>
<text x="65.20" y="185.21">.</text>
<text x="46.87" y="257.69">+</text>
<text x="117.98" y="456.46">*</text>
<text x="327.17" y="419.77">+</text>
<text x="347.78" y="489.80">.</text>
<text x="160.88" y="421.66">.</text>
<text x="347.70" y="80.46">+</text>
<text x="409.17" y="431.29">*</text>
<text x="165.19" y="391.19">.</text>
<text x="428.73" y="208.22">+</text>
<text x="22.19" y="60.93">+</text>
<text x="310.01" y="413.33">+</text>
<text x="201.66" y="237.84">.</text>
<text x="149.01" y="471.23">.</text>
<text x="445.67" y="450.88">*</text>
<text x="345.21" y="96.35">.</text>
<text x="486.30" y="132.33">.</text>
<text x="65.83" y="481.82">.</text>
<text x="267.50" y="67.90">+</text>
<text x="84.46" y="139.60">*</text>
<text x="494.84" y="123.51">.</text>
<text x="268.00" y="343.43">.</text>
<text x="281.27" y="314.43">+</text>
<text x="379.48" y="99.86">.</text>
<text x="477.44" y="71.31">.</text>
<text x="350.23" y="73.49">+</text>
<text x="163.05" y="371.83">*</text>
<text x="28.06" y="247.08">.</text>
<text x="250.63" y="285.42">.</text>
<text x="481.38" y="427.35">.</text>
<text x="1.15" y="236.08">*</text>
<text x="157.24" y="469.90">+</text>
<text x="366.50" y="109.02">+</text>
<text x="360.31" y="446.31">.</text>
<text x="68.24" y="89.46">.</text>
<text x="10.55" y="114.11">+</text>
<text x="428.24" y="444.40">*</text>
<text x="218.04" y="37.04">.</text>
<text x="48.88" y="429.67">.</text>
<text x="408.12" y="176.37">.</text>
<text x="215.76" y="409.56">*</text>
<text x="155.64" y="252.22">+</text>
<text x="17.15" y="290.45">.</text>
<text x="72.06" y="427.45">.</text>
<text x="432.13" y="457.59">*</text>
<text x="239.50" y="317.32">.</text>
<text x="301.10" y="150.12">*</text>
<text x="315.75" y="244.67">+</text>
<text x="115.61" y="460.62">*</text>
<text x="183.77" y="275.24">+</text>
<text x="41.63" y="494.64">.</text>
<text x="189.14" y="456.81">+</text>
<text x="135.97" y="426.23">+</text>
<text x="345.79" y="86.07">+</text>
<text x="480.85" y="58.45">.</text>
<text x="394.80" y="60.81">+</text>
<text x="354.43" y="384.01">.</text>
<text x="466.56" y="499.00">.</text>
<text x="331.19" y="0.54">+</text>
<text x="453.11" y="94.03">.</text>
<text x="24.25" y="235.67">.</text>
<text x="198.10" y="87.87">.</text>
<text x="45.13" y="389.00">+</text>
<text x="90.60" y="477.17">+</text>
<text x="191.34" y="141.97">.</text>
<text x="150.48" y="165.89">.</text>
<text x="412.96" y="106.71">+</text>
<text x="212.74" y="39.18">+</text>
<text x="224.93" y="47.26">+</text>
<text x="216.89" y="131.65">+</text>
<text x="27.60" y="262.41">+</text>
<text x="254.26" y="388.50">.</text>
<text x="93.50" y="351.64">+</text>
<text x="404.74" y="333.25">*</text>
<text x="303.53" y="104.70">.</text>
<text x="489.20" y="31.35">.</text>
<text x="462.31" y="268.19">+</text>
<text x="168.99" y="208.48">*</text>
<text x="414.69" y="385.68">+</text>
<text x="104.22" y="213.52">+</text>
<text x="177.81" y="14.64">.</text>
<text x="161.98" y="168.38">+</text>
<text x="121.54" y="86.69">.</text>
<text x="73.70" y="22.53">*</text>
<text x="255.69" y="26.73">*</text>
<text x="452.29" y="41.62">+</text>
<text x="488.17" y="122.41">+</text>
<text x="327.55" y="443.47">+</text>
<text x="252.28" y="278.60">*</text>
<text x="292.50" y="2.70">.</text>
<text x="100.66" y="298.56">+</text>
<text x="225.29" y="174.53">+</text>
<text x="431.60" y="284.49">+</text>
<text x="342.87" y="315.96">+</text>
<text x="166.57" y="222.23">*</text>
<text x="299.78" y="178.21">.</text>
<text x="374.65" y="30.12">+</text>
<text x="176.35" y="81.72">+</text>
<text x="311.57" y="57.55">*</text>
<text x="151.09" y="169.18">.</text>
<text x="477.67" y="107.58">.</text>
<text x="82.13" y="231.32">+</text>
<text x="236.73" y="266.05">+</text>
<text x="347.90" y="168.23">+</text>
<text x="374.56" y="465.14">.</text>
<text x="368.47" y="458.05">.</text>
<text x="239.58" y="96.16">.</text>
<text x="424.14" y="124.87">+</text>
<text x="425.84" y="173.73">.</text>
<text x="377.67" y="4.15">+</text>
<text x="385.84" y="53.69">.</text>
<text x="431.33" y="106.51">+</text>
<text x="122.99" y="267.52">.</text>
<text x="5.45" y="344.46">+</text>
<text x="103.41" y="462.22">.</text>
<text x="173.13" y="401.59">.</text>
<text x="383.30" y="233.27">.</text>
<text x="77.30" y="357.00">+</text>
<text x="288.92" y="218.16">+</text>

</svg>