
<svg viewBox="0 0 500 500" xmlns="http://www.w.org/2000/svg" width="100%" height="100%" style="background-color: #0a0a14; font-family: 'Courier New', Courier, monospace;">
    <style>
        text { fill: #aaa; font-size: 10px; text-anchor: middle; dominant-baseline: middle; }
    </style>
    <text x="128.40" y="75.82">.</text>
<text x="294.20" y="458.03">+</text>
<text x="463.40" y="246.18">.</text>
<text x="243.91" y="18.95">*</text>
<text x="456.67" y="351.21">+</text>
<text x="220.27" y="38.11">*</text>
<text x="209.68" y="356.45">*</text>
<text x="200.80" y="392.25">.</text>
<text x="131.91" y="76.82">*</text>
<text x="166.48" y="474.55">.</text>
<text x="264.73" y="129.48">.</text>
<text x="228.07" y="250.73">.</text>
<text x="443.21" y="481.13">+</text>
<text x="476.25" y="287.61">*</text>
<text x="124.26" y="198.24">+</text>
<text x="440.57" y="407.97">.</text>
<text x="345.80" y="14.59">+</text>
<text x="352.30" y="350.90">+</text>
<text x="271.89" y="12.35">.</text>
<text x="415.40" y="273.93">.</text>
<text x="76.27" y="169.68">+</text>
<text x="476.16" y="38.66">+</text>
<text x="294.58" y="85.65">+</text>
<text x="330.30" y="481.19">.</text>
<text x="334.59" y="109.37">.</text>
<text x="5.35" y="293.28">+</text>
<text x="40.91" y="390.02">+</text>
<text x="311.49" y="157.08">+</text>
<text x="81.78" y="60.82">+</text>
<text x="1.68" y="22.97">+</text>
<text x="474.23" y="241.41">.</text>
<text x="476.23" y="458.67">.</text>
<text x="432.63" y="313.35">.</text>
<text x="128.80" y="236.87">*</text>
<text x="324.70" y="189.48">.</text>
<text x="63.26" y="278.97">+</text>
<text x="348.64" y="456.72">*</text>
<text x="408.32" y="265.09">+</text>
<text x="48.04" y="432.54">*</text>
<text x="18.50" y="62.76">+</text>
<text x="350.52" y="124.43">+</text>
<text x="411.82" y="111.83">+</text>
<text x="368.95" y="152.80">+</text>
<text x="126.80" y="157.87">.</text>
<text x="80.30" y="134.71">.</text>
<text x="253.58" y="134.08">.</text>
<text x="468.56" y="465.72">.</text>
<text x="11.19" y="100.25">.</text>
<text x="196.94" y="58.09">+</text>
<text x="430.96" y="492.31">.</text>
<text x="335.45" y="104.74">.</text>
<text x="69.50" y="184.66">*</text>
<text x="418.60" y="374.47">+</text>
<text x="124.26" y="337.66">+</text>
<text x="357.11" y="269.67">.</text>
<text x="273.43" y="167.25">+</text>
<text x="467.99" y="75.48">.</text>
<text x="399.48" y="288.95">+</text>
<text x="382.53" y="469.45">.</text>
<text x="97.51" y="402.34">+</text>
<text x="274.51" y="38.33">.</text>
<text x="95.66" y="240.82">*</text>
<text x="296.35" y="2.32">+</text>
<text x="88.28" y="481.54">.</text>
<text x="86.23" y="488.77">.</text>
<text x="48.97" y="368.19">.</text>
<text x="66.59" y="20.12">.</text>
<text x="155.02" y="150.48">*</text>
<text x="461.22" y="162.18">.</text>
<text x="401.61" y="289.50">.</text>
<text x="374.20" y="297.81">*</text>
<text x="281.22" y="371.63">.</text>
<text x="256.57" y="131.62">*</text>
<text x="172.95" y="72.90">+</text>
<text x="74.00" y="70.38">*</text>
<text x="65.70" y="320.27">+</text>
<text x="446.30" y="298.06">+</text>
<text x="72.26" y="445.22">.</text>
<text x="190.88" y="166.23">+</text>
<text x="459.85" y="377.66">+</text>
<text x="342.47" y="103.94">+</text>
<text x="155.21" y="156.25">+</text>
<text x="90.35" y="336.65">+</text>
<text x="471.57" y="201.27">+</text>
<text x="247.66" y="98.02">+</text>
<text x="46.18" y="309.22">.</text>
<text x="402.35" y="73.63">.</text>
<text x="421.85" y="281.52">+</text>
<text x="456.67" y="216.26">+</text>
<text x="194.25" y="432.75">.</text>
<text x="163.52" y="143.57">+</text>
<text x="357.74" y="104.35">.</text>
<text x="110.76" y="117.79">.</text>
<text x="197.38" y="169.30">+</text>
<text x="413.54" y="438.32">.</text>
<text x="166.52" y="319.31">+</text>
<text x="438.12" y="375.28">*</text>
<text x="206.54" y="263.09">.</text>
<text x="175.34" y="465.50">.</text>
<text x="436.14" y="319.58">.</text>
<text x="465.09" y="92.83">+</text>
<text x="86.23" y="437.89">*</text>
<text x="209.47" y="280.49">+</text>
<text x="34.86" y="31.92">.</text>
<text x="24.93" y="113.04">+</text>
<text x="374.19" y="205.39">.</text>
<text x="52.01" y="143.83">*</text>
<text x="36.08" y="54.03">.</text>
<text x="418.70" y="74.22">.</text>
<text x="346.98" y="444.83">.</text>
<text x="102.16" y="59.60">+</text>
<text x="431.99" y="328.03">.</text>
<text x="85.28" y="116.64">+</text>
<text x="400.51" y="422.08">.</text>
<text x="475.52" y="469.61">.</text>
<text x="373.58" y="1.88">+</text>
<text x="390.19" y="94.14">*</text>
<text x="326.66" y="82.63">+</text>
<text x="65.53" y="485.24">.</text>
<text x="77.13" y="268.42">.</text>
<text x="91.29" y="238.97">*</text>
<text x="142.65" y="469.25">+</text>
<text x="218.43" y="379.08">.</text>
<text x="56.83" y="428.50">.</text>
<text x="165.97" y="36.23">+</text>
<text x="219.28" y="106.45">*</text>
<text x="157.39" y="201.87">.</text>
<text x="22.10" y="63.22">+</text>
<text x="139.24" y="341.01">+</text>
<text x="460.85" y="89.81">.</text>
<text x="126.11" y="203.86">.</text>
<text x="412.92" y="405.99">+</text>
<text x="16.07" y="51.01">+</text>
<text x="360.56" y="240.76">+</text>
<text x="415.52" y="296.70">+</text>
<text x="381.35" y="40.75">.</text>
<text x="349.32" y="239.98">+</text>
<text x="91.11" y="104.55">+</text>
<text x="481.12" y="324.20">+</text>
<text x="115.75" y="366.50">*</text>
<text x="90.91" y="448.61">*</text>
<text x="373.70" y="450.32">.</text>
<text x="271.16" y="101.93">+</text>
<text x="125.47" y="91.68">.</text>
<text x="400.15" y="387.26">*</text>
<text x="387.51" y="61.54">+</text>
<text x="276.23" y="78.46">.</text>
<text x="11.38" y="163.01">.</text>
<text x="390.78" y="255.48">.</text>
<text x="440.20" y="50.28">*</text>
<text x="113.92" y="11.01">.</text>
<text x="246.90" y="194.07">.</text>
<text x="267.14" y="149.28">*</text>
<text x="331.99" y="89.60">+</text>
<text x="415.29" y="305.53">+</text>
<text x="340.45" y="496.25">*</text>
<text x="365.56" y="444.25">*</text>
<text x="249.47" y="323.38">.</text>
<text x="171.56" y="94.85">+</text>
<text x="415.14" y="232.93">+</text>
<text x="74.72" y="229.36">+</text>
<text x="83.42" y="295.94">.</text>
<text x="419.37" y="39.39">*</text>
<text x="223.96" y="38.68">.</text>
<text x="371.62" y="314.56">.</text>
<text x="144.08" y="240.69">+</text>
<text x="107.61" y="158.86">.</text>
<text x="153.04" y="190.82">.</text>
<text x="216.16" y="220.35">+</text>
<text x="138.44" y="75.02">+</text>
<text x="76.18" y="393.57">+</text>
<text x="146.77" y="449.18">*</text>
<text x="392.33" y="408.41">.</text>
<text x="349.14" y="495.30">+</text>
<text x="411.00" y="38.22">+</text>
<text x="35.49" y="62.99">+</text>
<text x="122.46" y="472.97">.</text>
<text x="319.70" y="314.56">*</text>
<text x="307.73" y="42.46">+</text>
<text x="441.94" y="91.34">.</text>
<text x="160.60" y="48.49">.</text>
<text x="115.02" y="39.36">.</text>
<text x="339.41" y="375.64">.</text>
<text x="357.20" y="438.01">+</text>
<text x="432.13" y="41.57">+</text>
<text x="211.58" y="69.29">+</text>
<text x="468.94" y="24.35">.</text>
<text x="435.84" y="106.21">+</text>
<text x="185.96" y="138.31">+</text>
<text x="493.23" y="366.37">*</text>
<text x="349.89" y="273.93">.</text>
<text x="246.47" y="445.26">*</text>
<text x="250.62" y="15.59">.</text>
<text x="309.79" y="280.23">+</text>
<text x="399.12" y="150.88">+</text>
<text x="422.81" y="32.85">.</text>
<text x="360.42" y="420.61">.</text>
<text x="301.85" y="172.67">+</text>
<text x="228.31" y="23.10">.</text>

</svg>