
<svg viewBox="0 0 500 500" xmlns="http://www.w.org/2000/svg" width="100%" height="100%" style="background-color: #0a0a14; font-family: 'Courier New', Courier, monospace;">
    <style>
        text { fill: #aaa; font-size: 10px; text-anchor: middle; dominant-baseline: middle; }
    </style>
    <text x="444.55" y="105.67">*</text>
<text x="349.15" y="48.24">+</text>
<text x="488.00" y="114.36">.</text>
<text x="157.99" y="147.59">+</text>
<text x="269.61" y="217.69">+</text>
<text x="301.99" y="151.21">.</text>
<text x="51.84" y="440.09">.</text>
<text x="363.58" y="440.95">.</text>
<text x="126.12" y="147.17">+</text>
<text x="384.95" y="14.06">*</text>
<text x="284.62" y="147.97">.</text>
<text x="361.23" y="391.75">.</text>
<text x="71.59" y="37.16">+</text>
<text x="418.77" y="418.74">.</text>
<text x="173.83" y="301.47">*</text>
<text x="85.57" y="45.39">+</text>
<text x="85.42" y="37.37">+</text>
<text x="223.43" y="153.97">.</text>
<text x="446.64" y="164.65">.</text>
<text x="123.89" y="360.96">+</text>
<text x="181.12" y="433.04">.</text>
<text x="10.11" y="26.74">.</text>
<text x="267.99" y="339.79">+</text>
<text x="461.86" y="115.28">.</text>
<text x="212.88" y="449.20">.</text>
<text x="298.82" y="390.70">+</text>
<text x="44.89" y="39.16">*</text>
<text x="7.84" y="313.81">.</text>
<text x="246.59" y="291.69">+</text>
<text x="498.38" y="438.75">.</text>
<text x="311.38" y="294.86">+</text>
<text x="180.37" y="441.60">+</text>
<text x="253.56" y="280.25">+</text>
<text x="140.50" y="360.65">.</text>
<text x="370.60" y="161.09">.</text>
<text x="331.31" y="53.31">.</text>
<text x="451.02" y="380.58">.</text>
<text x="84.29" y="421.79">+</text>
<text x="324.05" y="364.99">*</text>
<text x="223.84" y="370.58">+</text>
<text x="170.73" y="440.40">+</text>
<text x="445.14" y="172.34">.</text>
<text x="326.73" y="248.63">.</text>
<text x="167.69" y="241.24">.</text>
<text x="393.49" y="70.93">*</text>
<text x="110.41" y="205.00">+</text>
<text x="190.73" y="391.13">+</text>
<text x="374.72" y="12.14">.</text>
<text x="245.06" y="444.21">.</text>
<text x="317.17" y="97.04">.</text>
<text x="96.39" y="322.34">+</text>
<text x="473.27" y="53.05">.</text>
<text x="358.50" y="130.57">*</text>
<text x="67.25" y="84.48">*</text>
<text x="11.96" y="259.93">*</text>
<text x="313.95" y="198.46">+</text>
<text x="214.83" y="257.57">.</text>
<text x="416.63" y="54.70">.</text>
<text x="106.87" y="381.69">*</text>
<text x="11.38" y="376.19">+</text>
<text x="340.28" y="278.55">.</text>
<text x="397.46" y="345.20">+</text>
<text x="119.20" y="164.86">+</text>
<text x="389.55" y="238.91">*</text>
<text x="446.61" y="131.05">.</text>
<text x="102.40" y="7.39">.</text>
<text x="431.28" y="83.50">+</text>
<text x="158.55" y="165.87">.</text>
<text x="255.39" y="223.65">+</text>
<text x="428.91" y="366.31">.</text>
<text x="309.48" y="53.46">.</text>
<text x="12.84" y="299.22">.</text>
<text x="94.31" y="117.44">+</text>
<text x="426.94" y="250.13">.</text>
<text x="370.93" y="10.14">+</text>
<text x="312.09" y="307.15">.</text>
<text x="199.52" y="442.68">+</text>
<text x="323.90" y="73.22">+</text>
<text x="370.54" y="293.27">+</text>
<text x="448.79" y="59.65">+</text>
<text x="358.05" y="265.63">.</text>
<text x="188.13" y="493.33">*</text>
<text x="172.75" y="450.19">*</text>
<text x="35.19" y="248.52">.</text>
<text x="393.06" y="189.86">.</text>
<text x="83.35" y="431.68">+</text>
<text x="342.78" y="321.65">.</text>
<text x="275.44" y="202.67">+</text>
<text x="384.57" y="336.31">.</text>
<text x="0.90" y="125.18">+</text>
<text x="217.76" y="365.82">*</text>
<text x="329.26" y="38.31">+</text>
<text x="92.08" y="381.13">.</text>
<text x="464.68" y="289.87">+</text>
<text x="303.13" y="407.35">.</text>
<text x="449.52" y="434.91">.</text>
<text x="177.25" y="141.53">.</text>
<text x="116.60" y="382.37">*</text>
<text x="452.27" y="17.73">+</text>
<text x="439.50" y="245.23">+</text>
<text x="203.56" y="305.81">.</text>
<text x="472.09" y="491.32">.</text>
<text x="219.77" y="332.99">+</text>
<text x="402.49" y="479.65">.</text>
<text x="374.91" y="152.41">*</text>
<text x="260.28" y="170.95">+</text>
<text x="487.87" y="400.55">+</text>
<text x="404.51" y="428.60">.</text>
<text x="183.43" y="439.28">*</text>
<text x="416.20" y="466.49">.</text>
<text x="229.88" y="228.28">.</text>
<text x="142.32" y="200.93">+</text>
<text x="451.40" y="87.72">+</text>
<text x="3.10" y="465.69">.</text>
<text x="173.86" y="379.35">.</text>
<text x="287.63" y="338.05">*</text>
<text x="321.52" y="1.12">.</text>
<text x="400.94" y="295.00">*</text>
<text x="111.02" y="431.35">*</text>
<text x="145.71" y="36.02">+</text>
<text x="497.13" y="389.39">*</text>
<text x="374.40" y="425.16">+</text>
<text x="424.91" y="37.04">+</text>
<text x="271.21" y="12.66">+</text>
<text x="280.11" y="166.42">+</text>
<text x="374.05" y="269.09">+</text>
<text x="226.48" y="131.51">+</text>
<text x="114.58" y="85.64">.</text>
<text x="284.94" y="21.51">.</text>
<text x="460.33" y="213.30">.</text>
<text x="302.75" y="89.09">+</text>
<text x="21.83" y="384.50">.</text>
<text x="121.77" y="191.62">+</text>
<text x="205.22" y="133.07">.</text>
<text x="253.67" y="474.84">.</text>
<text x="428.46" y="420.30">.</text>
<text x="124.71" y="28.05">+</text>
<text x="158.07" y="480.15">+</text>
<text x="73.09" y="299.09">.</text>
<text x="273.77" y="356.45">.</text>
<text x="51.03" y="353.27">.</text>
<text x="91.52" y="272.41">+</text>
<text x="168.44" y="153.66">+</text>
<text x="394.86" y="435.05">.</text>
<text x="328.84" y="213.90">.</text>
<text x="461.51" y="92.30">.</text>
<text x="263.31" y="405.21">+</text>
<text x="333.92" y="80.25">*</text>
<text x="95.57" y="432.21">+</text>
<text x="248.67" y="80.37">.</text>
<text x="63.08" y="498.02">.</text>
<text x="306.04" y="464.93">*</text>
<text x="389.45" y="182.13">+</text>
<text x="491.21" y="458.00">+</text>
<text x="271.84" y="448.91">*</text>
<text x="205.15" y="308.12">+</text>
<text x="436.24" y="251.28">*</text>
<text x="213.80" y="448.29">+</text>
<text x="379.57" y="470.58">*</text>
<text x="303.86" y="14.18">.</text>
<text x="183.64" y="293.11">*</text>
<text x="428.04" y="454.06">.</text>
<text x="295.62" y="146.59">.</text>
<text x="55.94" y="392.59">.</text>
<text x="247.37" y="435.55">.</text>
<text x="265.69" y="415.20">.</text>
<text x="80.91" y="55.05">.</text>
<text x="18.83" y="128.27">.</text>
<text x="479.14" y="13.34">+</text>
<text x="404.68" y="214.57">+</text>
<text x="24.20" y="297.86">.</text>
<text x="290.42" y="119.67">.</text>
<text x="360.08" y="337.73">*</text>
<text x="351.52" y="450.63">.</text>
<text x="26.47" y="269.66">+</text>
<text x="29.38" y="5.42">+</text>
<text x="300.25" y="254.94">.</text>
<text x="43.74" y="317.02">.</text>
<text x="42.40" y="89.81">.</text>
<text x="23.38" y="101.78">+</text>
<text x="268.06" y="98.40">.</text>
<text x="334.39" y="259.41">+</text>
<text x="92.27" y="125.10">+</text>
<text x="473.57" y="91.11">*</text>
<text x="311.40" y="362.77">*</text>
<text x="335.42" y="130.29">+</text>
<text x="429.68" y="394.39">.</text>
<text x="444.35" y="82.74">.</text>
<text x="136.15" y="120.65">.</text>
<text x="47.79" y="83.13">+</text>
<text x="235.87" y="146.76">.</text>
<text x="350.42" y="436.56">*</text>
<text x="7.56" y="126.31">+</text>
<text x="469.22" y="316.48">+</text>
<text x="232.75" y="308.71">.</text>
<text x="420.49" y="321.56">+</text>
<text x="386.40" y="220.51">.</text>
<text x="129.20" y="95.04">.</text>
<text x="234.75" y="152.14">.</text>
<text x="42.19" y="119.91">+</text>
<text x="451.63" y="349.97">+</text>
<text x="358.98" y="414.98">.</text>
<text x="78.41" y="295.03">*</text>
<text x="133.32" y="256.02">+</text>
<text x="472.02" y="459.11">*</text>
<text x="349.61" y="488.78">.</text>
<text x="287.82" y="333.51">+</text>
<text x="279.89" y="135.42">+</text>
<text x="295.88" y="289.30">+</text>

</svg>