
<svg viewBox="0 0 500 500" xmlns="http://www.w.org/2000/svg" width="100%" height="100%" style="background-color: #0a0a14; font-family: 'Courier New', Courier, monospace;">
    <style>
        text { fill: #aaa; font-size: 10px; text-anchor: middle; dominant-baseline: middle; }
    </style>
    <text x="376.65" y="10.46">+</text>
<text x="463.38" y="104.22">.</text>
<text x="457.02" y="128.24">.</text>
<text x="338.68" y="136.52">*</text>
<text x="253.79" y="338.80">+</text>
<text x="356.14" y="150.50">+</text>
<text x="392.37" y="34.72">.</text>
<text x="249.02" y="375.24">+</text>
<text x="231.88" y="42.63">+</text>
<text x="200.36" y="9.68">.</text>
<text x="455.45" y="119.17">.</text>
<text x="346.31" y="50.14">.</text>
<text x="348.57" y="308.45">+</text>
<text x="442.13" y="496.81">+</text>
<text x="141.48" y="88.33">*</text>
<text x="357.94" y="257.94">.</text>
<text x="92.92" y="131.11">+</text>
<text x="164.60" y="62.06">.</text>
<text x="198.19" y="30.47">+</text>
<text x="39.79" y="91.13">+</text>
<text x="334.95" y="23.13">.</text>
<text x="407.01" y="23.32">.</text>
<text x="444.08" y="179.31">.</text>
<text x="479.32" y="89.84">+</text>
<text x="432.39" y="72.35">.</text>
<text x="94.60" y="199.55">+</text>
<text x="8.73" y="417.40">.</text>
<text x="361.21" y="346.00">.</text>
<text x="201.56" y="159.03">*</text>
<text x="125.14" y="229.03">+</text>
<text x="7.32" y="232.44">+</text>
<text x="255.88" y="45.76">+</text>
<text x="161.90" y="109.61">*</text>
<text x="43.15" y="140.87">+</text>
<text x="102.61" y="162.08">.</text>
<text x="404.19" y="168.81">.</text>
<text x="147.15" y="305.41">*</text>
<text x="335.50" y="376.61">+</text>
<text x="219.73" y="345.71">+</text>
<text x="328.19" y="238.26">.</text>
<text x="76.43" y="158.98">+</text>
<text x="156.80" y="169.71">*</text>
<text x="454.44" y="166.02">+</text>
<text x="11.30" y="494.54">*</text>
<text x="257.77" y="457.42">.</text>
<text x="385.82" y="329.27">+</text>
<text x="422.01" y="366.58">*</text>
<text x="17.75" y="443.40">.</text>
<text x="353.26" y="117.62">+</text>
<text x="186.09" y="240.02">.</text>
<text x="304.41" y="41.97">.</text>
<text x="5.73" y="186.11">+</text>
<text x="198.71" y="232.28">+</text>
<text x="51.13" y="332.11">+</text>
<text x="61.23" y="54.38">.</text>
<text x="426.53" y="393.79">+</text>
<text x="58.93" y="53.20">+</text>
<text x="288.01" y="68.07">.</text>
<text x="6.17" y="336.75">.</text>
<text x="135.41" y="170.32">*</text>
<text x="377.76" y="364.26">*</text>
<text x="337.54" y="75.58">.</text>
<text x="176.83" y="123.81">*</text>
<text x="24.79" y="347.76">*</text>
<text x="102.70" y="487.35">+</text>
<text x="71.78" y="425.76">+</text>
<text x="145.37" y="403.69">.</text>
<text x="77.52" y="405.79">.</text>
<text x="106.14" y="244.53">+</text>
<text x="121.74" y="59.29">.</text>
<text x="356.52" y="120.83">*</text>
<text x="269.99" y="162.18">+</text>
<text x="138.57" y="308.70">+</text>
<text x="289.08" y="47.39">.</text>
<text x="465.70" y="129.53">+</text>
<text x="370.60" y="209.53">.</text>
<text x="306.24" y="343.83">*</text>
<text x="406.56" y="0.16">+</text>
<text x="192.90" y="227.46">.</text>
<text x="260.29" y="411.97">+</text>
<text x="21.61" y="213.77">.</text>
<text x="373.09" y="463.47">+</text>
<text x="497.27" y="5.12">.</text>
<text x="326.72" y="460.46">.</text>
<text x="242.71" y="184.29">.</text>
<text x="106.85" y="401.61">.</text>
<text x="151.39" y="55.58">.</text>
<text x="416.34" y="240.78">+</text>
<text x="241.98" y="72.60">+</text>
<text x="452.94" y="31.77">+</text>
<text x="280.60" y="10.90">.</text>
<text x="226.79" y="407.14">.</text>
<text x="434.27" y="148.47">+</text>
<text x="15.09" y="281.70">.</text>
<text x="208.80" y="385.57">+</text>
<text x="74.34" y="367.75">+</text>
<text x="225.45" y="408.14">+</text>
<text x="398.51" y="466.74">.</text>
<text x="108.84" y="254.38">.</text>
<text x="255.95" y="393.75">*</text>
<text x="434.73" y="61.98">+</text>
<text x="172.11" y="210.09">.</text>
<text x="398.37" y="29.59">+</text>
<text x="196.32" y="161.19">.</text>
<text x="94.60" y="349.04">+</text>
<text x="230.92" y="382.33">.</text>
<text x="366.79" y="2.88">.</text>
<text x="294.45" y="439.17">.</text>
<text x="43.34" y="406.65">+</text>
<text x="31.98" y="294.01">+</text>
<text x="128.60" y="442.01">.</text>
<text x="273.76" y="48.32">+</text>
<text x="314.81" y="399.42">.</text>
<text x="143.56" y="227.23">.</text>
<text x="8.81" y="11.57">+</text>
<text x="420.45" y="71.13">.</text>
<text x="397.45" y="228.63">+</text>
<text x="299.55" y="406.11">+</text>
<text x="325.10" y="359.19">.</text>
<text x="362.91" y="372.00">+</text>
<text x="356.75" y="464.51">+</text>
<text x="34.12" y="350.11">.</text>
<text x="306.47" y="137.16">+</text>
<text x="480.45" y="267.35">+</text>
<text x="156.21" y="126.88">+</text>
<text x="485.67" y="327.57">+</text>
<text x="465.81" y="440.34">+</text>
<text x="229.17" y="321.37">.</text>
<text x="22.01" y="427.20">.</text>
<text x="454.40" y="148.18">.</text>
<text x="152.89" y="226.12">.</text>
<text x="85.58" y="56.17">.</text>
<text x="160.34" y="296.81">+</text>
<text x="478.69" y="84.09">*</text>
<text x="280.28" y="309.89">*</text>
<text x="245.44" y="233.60">+</text>
<text x="453.72" y="262.26">*</text>
<text x="115.63" y="88.62">+</text>
<text x="364.61" y="381.88">+</text>
<text x="499.62" y="232.10">+</text>
<text x="47.59" y="65.84">.</text>
<text x="210.39" y="126.62">.</text>
<text x="131.60" y="240.00">.</text>
<text x="342.11" y="329.84">.</text>
<text x="475.66" y="254.62">+</text>
<text x="316.16" y="111.84">+</text>
<text x="342.92" y="484.58">+</text>
<text x="111.95" y="41.69">.</text>
<text x="445.13" y="331.99">+</text>
<text x="387.19" y="215.24">.</text>
<text x="456.56" y="371.92">.</text>
<text x="499.48" y="424.00">+</text>
<text x="308.66" y="427.67">.</text>
<text x="314.19" y="464.40">.</text>
<text x="351.93" y="7.02">.</text>
<text x="481.17" y="115.13">.</text>
<text x="199.25" y="356.10">.</text>
<text x="436.86" y="236.97">.</text>
<text x="81.04" y="350.36">+</text>
<text x="445.47" y="182.73">+</text>
<text x="146.63" y="72.66">+</text>
<text x="438.84" y="224.49">*</text>
<text x="177.78" y="151.91">.</text>
<text x="22.06" y="107.01">+</text>
<text x="209.32" y="126.77">+</text>
<text x="82.35" y="116.30">.</text>
<text x="288.14" y="52.21">.</text>
<text x="141.35" y="146.90">+</text>
<text x="260.25" y="296.17">.</text>
<text x="447.04" y="417.67">*</text>
<text x="269.87" y="80.21">*</text>
<text x="104.44" y="229.65">.</text>
<text x="493.34" y="338.63">.</text>
<text x="429.95" y="84.15">.</text>
<text x="255.14" y="176.63">.</text>
<text x="296.73" y="192.96">+</text>
<text x="183.24" y="143.48">.</text>
<text x="474.42" y="415.40">*</text>
<text x="420.32" y="241.97">.</text>
<text x="428.05" y="463.64">+</text>
<text x="222.84" y="280.34">.</text>
<text x="342.74" y="447.11">.</text>
<text x="221.18" y="236.56">+</text>
<text x="162.10" y="206.95">*</text>
<text x="332.03" y="106.07">*</text>
<text x="14.62" y="400.39">+</text>
<text x="314.16" y="125.96">+</text>
<text x="99.99" y="435.72">.</text>
<text x="70.88" y="263.02">+</text>
<text x="331.76" y="22.93">+</text>
<text x="65.24" y="33.16">+</text>
<text x="263.95" y="225.83">.</text>
<text x="102.41" y="153.92">+</text>
<text x="485.64" y="312.46">+</text>
<text x="424.67" y="210.73">+</text>
<text x="224.96" y="59.88">.</text>
<text x="385.33" y="300.95">.</text>
<text x="328.04" y="413.58">.</text>
<text x="225.60" y="239.27">*</text>
<text x="203.39" y="264.66">.</text>
<text x="378.04" y="14.86">+</text>
<text x="174.95" y="251.60">.</text>
<text x="95.61" y="93.30">+</text>
<text x="173.87" y="266.41">*</text>
<text x="127.42" y="137.50">+</text>
<text x="188.14" y="233.41">+</text>
<text x="304.81" y="188.20">.</text>

</svg>