
<svg viewBox="0 0 500 500" xmlns="http://www.w.org/2000/svg" width="100%" height="100%" style="background-color: #0a0a14; font-family: 'Courier New', Courier, monospace;">
    <style>
        text { fill: #aaa; font-size: 10px; text-anchor: middle; dominant-baseline: middle; }
    </style>
    <text x="187.24" y="122.94">.</text>
<text x="256.83" y="382.89">*</text>
<text x="314.63" y="323.38">.</text>
<text x="443.19" y="362.61">+</text>
<text x="83.54" y="98.37">+</text>
<text x="59.98" y="266.32">*</text>
<text x="223.25" y="235.00">+</text>
<text x="104.79" y="65.09">+</text>
<text x="244.10" y="436.77">+</text>
<text x="235.29" y="378.40">*</text>
<text x="54.94" y="467.21">.</text>
<text x="15.20" y="450.33">+</text>
<text x="23.48" y="181.62">+</text>
<text x="30.45" y="465.60">*</text>
<text x="382.92" y="286.14">.</text>
<text x="310.56" y="310.60">+</text>
<text x="292.29" y="118.71">*</text>
<text x="346.86" y="53.15">+</text>
<text x="397.12" y="85.72">+</text>
<text x="243.50" y="337.20">.</text>
<text x="40.80" y="59.98">+</text>
<text x="427.38" y="242.80">.</text>
<text x="436.18" y="187.90">+</text>
<text x="124.38" y="145.22">+</text>
<text x="348.80" y="39.43">+</text>
<text x="371.04" y="349.23">+</text>
<text x="454.93" y="463.77">*</text>
<text x="336.57" y="262.47">+</text>
<text x="100.81" y="367.24">+</text>
<text x="349.44" y="349.78">+</text>
<text x="154.94" y="50.80">.</text>
<text x="345.17" y="339.23">+</text>
<text x="298.47" y="318.56">.</text>
<text x="137.84" y="127.53">+</text>
<text x="239.85" y="215.25">+</text>
<text x="84.55" y="97.40">.</text>
<text x="100.26" y="382.67">+</text>
<text x="427.72" y="174.50">+</text>
<text x="265.10" y="302.60">+</text>
<text x="155.88" y="56.49">+</text>
<text x="193.40" y="85.19">*</text>
<text x="487.62" y="190.29">.</text>
<text x="229.39" y="213.69">.</text>
<text x="114.33" y="222.73">.</text>
<text x="340.54" y="150.51">.</text>
<text x="291.81" y="410.26">.</text>
<text x="440.49" y="83.81">+</text>
<text x="208.26" y="142.73">+</text>
<text x="365.87" y="279.26">+</text>
<text x="285.36" y="450.42">+</text>
<text x="237.16" y="357.81">+</text>
<text x="201.72" y="0.42">+</text>
<text x="34.84" y="19.30">.</text>
<text x="355.93" y="139.51">+</text>
<text x="230.39" y="149.66">.</text>
<text x="90.14" y="254.45">+</text>
<text x="490.69" y="424.01">*</text>
<text x="338.59" y="15.01">.</text>
<text x="448.65" y="113.91">+</text>
<text x="67.34" y="151.42">.</text>
<text x="355.59" y="284.09">+</text>
<text x="183.16" y="19.15">.</text>
<text x="188.12" y="450.21">+</text>
<text x="87.82" y="268.94">+</text>
<text x="325.75" y="429.58">.</text>
<text x="319.94" y="251.99">.</text>
<text x="152.21" y="16.59">+</text>
<text x="150.36" y="483.88">.</text>
<text x="441.27" y="247.00">.</text>
<text x="222.77" y="127.78">.</text>
<text x="461.32" y="387.01">+</text>
<text x="214.27" y="312.54">+</text>
<text x="442.14" y="139.38">.</text>
<text x="176.32" y="418.74">.</text>
<text x="254.02" y="21.34">+</text>
<text x="91.06" y="156.78">.</text>
<text x="59.29" y="43.76">.</text>
<text x="441.32" y="43.00">+</text>
<text x="247.78" y="320.77">.</text>
<text x="433.95" y="270.70">.</text>
<text x="125.38" y="237.17">.</text>
<text x="61.07" y="251.85">.</text>
<text x="357.77" y="263.61">+</text>
<text x="240.35" y="214.96">+</text>
<text x="340.40" y="263.22">+</text>
<text x="21.49" y="219.90">+</text>
<text x="106.57" y="23.07">+</text>
<text x="56.80" y="34.57">.</text>
<text x="164.23" y="172.12">+</text>
<text x="57.51" y="452.67">*</text>
<text x="207.98" y="165.99">+</text>
<text x="411.12" y="427.54">.</text>
<text x="448.76" y="366.42">.</text>
<text x="14.24" y="232.93">+</text>
<text x="304.08" y="25.32">+</text>
<text x="486.30" y="330.38">+</text>
<text x="355.42" y="178.94">.</text>
<text x="285.70" y="290.86">.</text>
<text x="78.34" y="246.42">.</text>
<text x="324.27" y="72.57">+</text>
<text x="479.27" y="338.79">+</text>
<text x="386.30" y="457.76">.</text>
<text x="87.55" y="471.93">.</text>
<text x="155.82" y="451.77">.</text>
<text x="355.95" y="362.66">.</text>
<text x="366.26" y="199.75">.</text>
<text x="440.12" y="23.37">+</text>
<text x="74.04" y="81.21">+</text>
<text x="227.47" y="80.51">.</text>
<text x="484.15" y="369.35">.</text>
<text x="129.59" y="434.91">.</text>
<text x="466.24" y="385.02">*</text>
<text x="256.92" y="381.23">+</text>
<text x="134.92" y="461.14">+</text>
<text x="337.54" y="448.71">.</text>
<text x="249.52" y="112.54">+</text>
<text x="281.10" y="128.28">.</text>
<text x="462.75" y="302.36">+</text>
<text x="446.19" y="394.38">+</text>
<text x="257.99" y="84.87">*</text>
<text x="62.13" y="400.09">*</text>
<text x="406.32" y="68.06">.</text>
<text x="22.08" y="401.07">.</text>
<text x="299.09" y="351.84">.</text>
<text x="30.71" y="3.75">.</text>
<text x="312.20" y="242.45">.</text>
<text x="385.04" y="238.65">.</text>
<text x="272.08" y="80.57">.</text>
<text x="329.96" y="284.00">+</text>
<text x="471.28" y="78.24">*</text>
<text x="89.02" y="19.43">.</text>
<text x="222.43" y="22.32">.</text>
<text x="16.20" y="208.78">.</text>
<text x="324.44" y="275.75">+</text>
<text x="389.33" y="363.53">.</text>
<text x="291.73" y="198.52">.</text>
<text x="252.51" y="111.68">+</text>
<text x="203.68" y="206.43">.</text>
<text x="491.44" y="429.29">.</text>
<text x="411.66" y="342.71">+</text>
<text x="146.31" y="177.14">*</text>
<text x="153.05" y="75.18">+</text>
<text x="69.78" y="332.28">.</text>
<text x="123.42" y="108.00">+</text>
<text x="284.90" y="107.62">*</text>
<text x="238.85" y="118.11">.</text>
<text x="81.95" y="99.08">+</text>
<text x="378.18" y="477.35">*</text>
<text x="99.58" y="242.34">+</text>
<text x="475.41" y="252.26">.</text>
<text x="359.94" y="466.23">.</text>
<text x="180.50" y="180.61">.</text>
<text x="206.64" y="66.91">.</text>
<text x="298.40" y="46.61">+</text>
<text x="337.69" y="21.51">+</text>
<text x="289.38" y="36.47">.</text>
<text x="154.20" y="153.87">+</text>
<text x="471.14" y="442.13">+</text>
<text x="234.76" y="164.53">.</text>
<text x="351.75" y="153.91">*</text>
<text x="221.67" y="242.90">+</text>
<text x="164.74" y="47.67">+</text>
<text x="454.48" y="118.52">+</text>
<text x="437.77" y="246.51">+</text>
<text x="366.98" y="273.42">+</text>
<text x="373.89" y="107.46">.</text>
<text x="404.18" y="110.44">.</text>
<text x="54.59" y="466.16">.</text>
<text x="35.55" y="65.20">+</text>
<text x="154.27" y="334.07">.</text>
<text x="208.67" y="230.22">.</text>
<text x="417.96" y="189.42">+</text>
<text x="456.88" y="482.71">*</text>
<text x="87.10" y="385.00">+</text>
<text x="424.40" y="123.23">.</text>
<text x="269.87" y="423.30">.</text>
<text x="327.88" y="243.02">.</text>
<text x="22.00" y="136.56">.</text>
<text x="397.74" y="306.29">+</text>
<text x="499.72" y="210.04">+</text>
<text x="48.36" y="252.46">+</text>
<text x="177.63" y="380.76">.</text>
<text x="267.84" y="361.90">.</text>
<text x="425.86" y="350.23">.</text>
<text x="52.76" y="176.57">+</text>
<text x="230.18" y="66.84">+</text>
<text x="421.89" y="53.14">+</text>
<text x="498.03" y="366.16">.</text>
<text x="77.79" y="405.82">+</text>
<text x="474.82" y="418.82">.</text>
<text x="84.75" y="97.08">.</text>
<text x="333.13" y="32.17">+</text>
<text x="316.64" y="453.29">*</text>
<text x="173.88" y="268.07">.</text>
<text x="195.02" y="477.57">+</text>
<text x="410.08" y="214.50">+</text>
<text x="330.67" y="360.71">.</text>
<text x="189.98" y="250.30">.</text>
<text x="149.26" y="437.13">+</text>
<text x="253.18" y="482.82">+</text>
<text x="151.52" y="358.95">+</text>
<text x="126.11" y="10.95">.</text>
<text x="418.65" y="216.01">*</text>
<text x="355.95" y="455.10">.</text>
<text x="455.56" y="57.90">.</text>

</svg>