
<svg viewBox="0 0 500 500" xmlns="http://www.w.org/2000/svg" width="100%" height="100%" style="background-color: #0a0a14; font-family: 'Courier New', Courier, monospace;">
    <style>
        text { fill: #aaa; font-size: 10px; text-anchor: middle; dominant-baseline: middle; }
    </style>
    <text x="41.85" y="81.22">+</text>
<text x="219.22" y="200.57">.</text>
<text x="441.92" y="369.76">+</text>
<text x="468.09" y="371.73">.</text>
<text x="261.41" y="389.66">+</text>
<text x="234.45" y="333.27">+</text>
<text x="464.93" y="159.48">.</text>
<text x="7.13" y="64.75">.</text>
<text x="199.15" y="174.64">+</text>
<text x="40.86" y="333.03">+</text>
<text x="66.70" y="73.13">.</text>
<text x="133.67" y="21.15">.</text>
<text x="144.33" y="36.19">.</text>
<text x="338.57" y="206.18">+</text>
<text x="270.14" y="397.27">*</text>
<text x="132.70" y="318.30">+</text>
<text x="254.24" y="267.39">+</text>
<text x="324.76" y="428.69">.</text>
<text x="94.01" y="163.43">+</text>
<text x="249.01" y="375.93">+</text>
<text x="74.40" y="254.83">+</text>
<text x="26.01" y="108.02">+</text>
<text x="427.47" y="418.34">+</text>
<text x="308.47" y="127.09">.</text>
<text x="140.07" y="225.31">+</text>
<text x="477.99" y="169.49">.</text>
<text x="126.01" y="284.10">+</text>
<text x="104.40" y="275.13">.</text>
<text x="234.79" y="179.31">+</text>
<text x="450.44" y="57.73">*</text>
<text x="326.57" y="457.58">+</text>
<text x="336.89" y="24.67">+</text>
<text x="151.86" y="67.86">*</text>
<text x="309.32" y="417.21">.</text>
<text x="345.09" y="170.58">+</text>
<text x="175.71" y="48.00">+</text>
<text x="4.39" y="440.72">*</text>
<text x="2.04" y="67.88">.</text>
<text x="197.33" y="236.77">+</text>
<text x="228.76" y="150.02">.</text>
<text x="317.37" y="139.14">+</text>
<text x="102.38" y="369.18">.</text>
<text x="120.99" y="266.22">+</text>
<text x="254.01" y="84.23">.</text>
<text x="341.28" y="449.37">.</text>
<text x="467.02" y="244.60">+</text>
<text x="153.94" y="350.39">.</text>
<text x="159.99" y="56.57">*</text>
<text x="324.47" y="293.75">+</text>
<text x="185.24" y="353.59">.</text>
<text x="272.92" y="270.67">.</text>
<text x="251.84" y="382.11">+</text>
<text x="263.78" y="382.38">.</text>
<text x="121.82" y="238.52">+</text>
<text x="96.12" y="203.18">+</text>
<text x="17.93" y="474.66">+</text>
<text x="21.54" y="64.53">+</text>
<text x="279.08" y="492.61">.</text>
<text x="241.33" y="197.65">+</text>
<text x="440.34" y="270.40">.</text>
<text x="331.67" y="192.74">.</text>
<text x="396.95" y="406.60">.</text>
<text x="312.83" y="256.08">*</text>
<text x="225.81" y="149.38">.</text>
<text x="267.09" y="496.82">.</text>
<text x="291.31" y="147.33">*</text>
<text x="95.25" y="462.24">.</text>
<text x="28.33" y="94.69">.</text>
<text x="336.92" y="176.28">+</text>
<text x="491.17" y="325.37">.</text>
<text x="343.38" y="493.73">+</text>
<text x="418.05" y="300.94">+</text>
<text x="114.68" y="242.80">.</text>
<text x="262.14" y="96.41">.</text>
<text x="322.00" y="267.11">+</text>
<text x="138.93" y="423.04">.</text>
<text x="100.23" y="412.96">*</text>
<text x="174.46" y="301.91">.</text>
<text x="108.18" y="94.60">+</text>
<text x="180.67" y="28.35">+</text>
<text x="35.93" y="48.84">+</text>
<text x="459.32" y="124.43">+</text>
<text x="163.26" y="67.14">+</text>
<text x="199.49" y="45.31">.</text>
<text x="387.48" y="113.48">.</text>
<text x="366.56" y="26.37">+</text>
<text x="349.96" y="387.48">*</text>
<text x="388.27" y="228.01">.</text>
<text x="371.18" y="36.65">+</text>
<text x="66.77" y="201.63">.</text>
<text x="331.11" y="107.84">+</text>
<text x="490.22" y="390.87">+</text>
<text x="266.23" y="390.45">.</text>
<text x="43.76" y="315.74">+</text>
<text x="332.89" y="355.19">.</text>
<text x="228.13" y="155.57">+</text>
<text x="41.61" y="2.52">*</text>
<text x="131.80" y="256.46">.</text>
<text x="140.55" y="300.13">.</text>
<text x="156.38" y="274.24">+</text>
<text x="283.14" y="445.51">+</text>
<text x="112.83" y="20.55">+</text>
<text x="111.31" y="51.34">.</text>
<text x="178.84" y="244.19">.</text>
<text x="320.77" y="478.14">*</text>
<text x="70.57" y="377.95">+</text>
<text x="164.51" y="359.41">+</text>
<text x="141.56" y="315.08">.</text>
<text x="492.29" y="300.91">.</text>
<text x="136.15" y="405.09">+</text>
<text x="36.84" y="23.06">*</text>
<text x="353.96" y="252.32">.</text>
<text x="26.05" y="414.78">.</text>
<text x="337.64" y="341.61">+</text>
<text x="61.09" y="373.23">.</text>
<text x="425.23" y="347.31">.</text>
<text x="126.77" y="194.91">+</text>
<text x="263.91" y="298.14">+</text>
<text x="330.65" y="183.64">+</text>
<text x="23.63" y="338.37">.</text>
<text x="332.94" y="238.81">.</text>
<text x="278.99" y="292.41">*</text>
<text x="110.85" y="118.32">.</text>
<text x="40.07" y="138.27">*</text>
<text x="493.08" y="50.84">+</text>
<text x="289.97" y="424.79">.</text>
<text x="255.93" y="388.63">*</text>
<text x="68.48" y="160.91">.</text>
<text x="307.99" y="338.64">+</text>
<text x="58.95" y="326.56">+</text>
<text x="464.99" y="497.78">.</text>
<text x="283.50" y="11.54">+</text>
<text x="151.57" y="451.52">+</text>
<text x="396.27" y="343.10">.</text>
<text x="364.36" y="22.36">+</text>
<text x="340.07" y="23.17">.</text>
<text x="310.63" y="122.05">.</text>
<text x="36.10" y="124.13">.</text>
<text x="61.57" y="72.87">.</text>
<text x="407.80" y="214.47">.</text>
<text x="438.10" y="99.39">.</text>
<text x="36.69" y="127.62">.</text>
<text x="142.99" y="334.86">+</text>
<text x="288.46" y="55.04">*</text>
<text x="251.59" y="121.00">+</text>
<text x="477.71" y="255.74">.</text>
<text x="87.48" y="437.17">+</text>
<text x="424.87" y="257.68">*</text>
<text x="16.34" y="115.84">.</text>
<text x="30.47" y="484.21">.</text>
<text x="474.66" y="136.48">.</text>
<text x="453.50" y="146.15">+</text>
<text x="450.66" y="480.97">+</text>
<text x="324.59" y="248.13">.</text>
<text x="274.58" y="19.12">.</text>
<text x="230.54" y="216.08">.</text>
<text x="124.21" y="163.61">+</text>
<text x="366.96" y="407.48">+</text>
<text x="187.86" y="5.54">*</text>
<text x="358.52" y="253.59">*</text>
<text x="124.74" y="103.30">*</text>
<text x="485.85" y="42.26">+</text>
<text x="326.91" y="167.98">*</text>
<text x="232.93" y="4.52">.</text>
<text x="190.14" y="146.60">.</text>
<text x="197.54" y="263.95">.</text>
<text x="385.87" y="257.17">*</text>
<text x="389.20" y="371.84">*</text>
<text x="435.30" y="330.79">+</text>
<text x="89.04" y="266.31">+</text>
<text x="450.45" y="7.68">+</text>
<text x="21.38" y="55.12">.</text>
<text x="336.38" y="417.27">+</text>
<text x="494.08" y="231.52">.</text>
<text x="199.28" y="452.20">+</text>
<text x="168.00" y="379.83">+</text>
<text x="204.29" y="267.13">.</text>
<text x="333.46" y="236.99">+</text>
<text x="129.79" y="159.68">+</text>
<text x="362.77" y="336.66">+</text>
<text x="102.45" y="474.05">+</text>
<text x="67.52" y="195.95">+</text>
<text x="439.32" y="297.55">+</text>
<text x="277.10" y="126.19">*</text>
<text x="275.97" y="19.58">+</text>
<text x="228.92" y="112.38">.</text>
<text x="57.96" y="70.75">+</text>
<text x="271.67" y="176.23">.</text>
<text x="163.18" y="285.71">+</text>
<text x="367.60" y="344.23">*</text>
<text x="147.64" y="444.17">.</text>
<text x="100.07" y="165.56">.</text>
<text x="218.27" y="493.51">+</text>
<text x="287.09" y="177.11">.</text>
<text x="198.85" y="132.51">+</text>
<text x="242.73" y="191.55">.</text>
<text x="370.08" y="496.77">+</text>
<text x="477.70" y="399.49">*</text>
<text x="292.18" y="458.08">+</text>
<text x="150.54" y="212.41">+</text>
<text x="26.80" y="156.88">.</text>
<text x="395.92" y="487.46">+</text>
<text x="78.16" y="140.72">*</text>
<text x="296.40" y="107.83">.</text>
<text x="20.56" y="49.24">*</text>

</svg>