
<svg viewBox="0 0 500 500" xmlns="http://www.w.org/2000/svg" width="100%" height="100%" style="background-color: #0a0a14; font-family: 'Courier New', Courier, monospace;">
    <style>
        text { fill: #aaa; font-size: 10px; text-anchor: middle; dominant-baseline: middle; }
    </style>
    <text x="457.50" y="76.85">+</text>
<text x="81.38" y="140.06">*</text>
<text x="246.00" y="226.23">+</text>
<text x="173.88" y="70.58">.</text>
<text x="356.58" y="13.37">*</text>
<text x="271.23" y="195.09">*</text>
<text x="367.60" y="250.38">.</text>
<text x="63.58" y="174.39">.</text>
<text x="353.79" y="254.21">.</text>
<text x="286.64" y="370.42">+</text>
<text x="117.26" y="361.36">.</text>
<text x="129.42" y="247.34">+</text>
<text x="336.36" y="77.66">.</text>
<text x="396.63" y="443.54">.</text>
<text x="142.08" y="139.48">+</text>
<text x="246.19" y="11.37">+</text>
<text x="152.83" y="398.27">.</text>
<text x="444.50" y="371.16">.</text>
<text x="489.55" y="319.69">*</text>
<text x="381.53" y="342.41">.</text>
<text x="73.79" y="38.44">+</text>
<text x="341.43" y="446.05">.</text>
<text x="353.40" y="173.28">+</text>
<text x="374.49" y="29.14">.</text>
<text x="16.43" y="153.39">.</text>
<text x="52.46" y="302.39">.</text>
<text x="480.79" y="274.21">+</text>
<text x="455.08" y="469.33">*</text>
<text x="204.53" y="240.22">+</text>
<text x="106.51" y="70.75">.</text>
<text x="134.17" y="347.33">+</text>
<text x="151.94" y="310.91">+</text>
<text x="426.73" y="415.35">.</text>
<text x="420.99" y="313.32">+</text>
<text x="498.54" y="427.99">+</text>
<text x="117.78" y="71.40">+</text>
<text x="470.16" y="296.98">.</text>
<text x="125.85" y="440.69">.</text>
<text x="317.30" y="446.38">+</text>
<text x="168.97" y="319.15">.</text>
<text x="408.99" y="448.07">+</text>
<text x="20.63" y="230.26">.</text>
<text x="388.52" y="430.60">+</text>
<text x="114.36" y="112.32">+</text>
<text x="338.69" y="448.67">+</text>
<text x="424.22" y="70.18">.</text>
<text x="6.99" y="491.32">*</text>
<text x="104.18" y="96.44">.</text>
<text x="269.37" y="419.08">+</text>
<text x="224.88" y="321.94">.</text>
<text x="40.91" y="62.44">.</text>
<text x="29.78" y="339.67">.</text>
<text x="31.32" y="23.66">*</text>
<text x="31.30" y="24.23">.</text>
<text x="352.11" y="22.70">.</text>
<text x="19.13" y="491.93">.</text>
<text x="319.22" y="367.41">+</text>
<text x="315.81" y="31.23">.</text>
<text x="404.24" y="87.67">+</text>
<text x="30.93" y="300.99">+</text>
<text x="67.94" y="217.50">.</text>
<text x="109.04" y="461.41">+</text>
<text x="46.40" y="271.88">+</text>
<text x="336.55" y="146.18">+</text>
<text x="350.13" y="451.88">*</text>
<text x="40.06" y="132.56">+</text>
<text x="131.90" y="212.83">+</text>
<text x="429.87" y="306.73">.</text>
<text x="437.27" y="366.80">+</text>
<text x="454.67" y="355.31">+</text>
<text x="414.35" y="55.50">.</text>
<text x="421.81" y="488.29">+</text>
<text x="189.55" y="83.37">+</text>
<text x="228.83" y="474.68">*</text>
<text x="137.90" y="471.89">+</text>
<text x="142.10" y="295.94">+</text>
<text x="228.99" y="477.36">+</text>
<text x="62.26" y="3.90">.</text>
<text x="303.39" y="44.33">+</text>
<text x="0.45" y="95.16">+</text>
<text x="345.65" y="4.78">+</text>
<text x="63.27" y="83.95">.</text>
<text x="419.42" y="350.20">.</text>
<text x="120.94" y="433.71">*</text>
<text x="225.93" y="315.61">+</text>
<text x="43.64" y="12.68">+</text>
<text x="299.76" y="37.85">+</text>
<text x="222.41" y="135.92">*</text>
<text x="45.34" y="247.56">.</text>
<text x="361.23" y="177.80">.</text>
<text x="417.59" y="382.12">.</text>
<text x="95.82" y="383.44">.</text>
<text x="170.67" y="45.71">.</text>
<text x="308.92" y="357.52">+</text>
<text x="362.36" y="314.90">.</text>
<text x="87.63" y="416.79">+</text>
<text x="482.80" y="300.07">.</text>
<text x="279.66" y="385.89">+</text>
<text x="165.69" y="130.32">+</text>
<text x="200.80" y="485.01">+</text>
<text x="406.34" y="440.23">+</text>
<text x="426.13" y="124.14">.</text>
<text x="419.49" y="23.77">.</text>
<text x="491.08" y="305.83">.</text>
<text x="246.51" y="484.22">.</text>
<text x="301.18" y="180.77">.</text>
<text x="448.45" y="164.36">.</text>
<text x="317.71" y="259.27">.</text>
<text x="264.48" y="362.18">+</text>
<text x="318.15" y="441.38">*</text>
<text x="267.02" y="431.41">.</text>
<text x="60.37" y="400.56">+</text>
<text x="203.25" y="1.89">.</text>
<text x="11.71" y="123.71">.</text>
<text x="226.40" y="456.15">.</text>
<text x="426.84" y="72.09">.</text>
<text x="78.11" y="433.53">+</text>
<text x="181.06" y="15.92">.</text>
<text x="383.41" y="175.42">+</text>
<text x="349.56" y="287.25">+</text>
<text x="163.52" y="304.07">.</text>
<text x="171.75" y="218.54">*</text>
<text x="176.45" y="19.50">+</text>
<text x="325.01" y="276.49">.</text>
<text x="303.76" y="199.01">.</text>
<text x="247.56" y="27.67">+</text>
<text x="369.95" y="1.05">*</text>
<text x="416.24" y="375.30">*</text>
<text x="357.07" y="228.84">.</text>
<text x="352.51" y="374.66">*</text>
<text x="336.12" y="483.12">*</text>
<text x="172.26" y="282.39">.</text>
<text x="64.74" y="376.50">*</text>
<text x="147.55" y="495.81">*</text>
<text x="226.16" y="470.92">+</text>
<text x="68.99" y="129.18">+</text>
<text x="51.25" y="124.72">+</text>
<text x="229.84" y="191.64">*</text>
<text x="27.50" y="78.45">+</text>
<text x="497.90" y="204.48">+</text>
<text x="141.69" y="323.15">+</text>
<text x="86.36" y="146.54">+</text>
<text x="77.57" y="100.84">.</text>
<text x="390.27" y="45.09">.</text>
<text x="442.17" y="199.64">.</text>
<text x="206.06" y="365.14">*</text>
<text x="374.03" y="230.09">+</text>
<text x="319.81" y="272.27">.</text>
<text x="20.79" y="38.92">.</text>
<text x="0.72" y="31.06">.</text>
<text x="171.58" y="25.18">.</text>
<text x="447.97" y="39.69">.</text>
<text x="18.27" y="141.60">+</text>
<text x="103.03" y="17.27">*</text>
<text x="369.80" y="276.82">*</text>
<text x="397.54" y="441.13">+</text>
<text x="297.79" y="383.91">*</text>
<text x="460.15" y="381.05">+</text>
<text x="93.22" y="467.48">.</text>
<text x="212.82" y="484.91">.</text>
<text x="150.42" y="31.85">+</text>
<text x="76.36" y="308.67">+</text>
<text x="434.75" y="341.18">+</text>
<text x="409.23" y="241.31">*</text>
<text x="321.23" y="123.13">+</text>
<text x="239.73" y="411.34">.</text>
<text x="368.23" y="279.29">+</text>
<text x="141.05" y="6.73">+</text>
<text x="192.75" y="364.73">.</text>
<text x="237.00" y="413.29">.</text>
<text x="249.05" y="475.87">+</text>
<text x="234.35" y="204.28">.</text>
<text x="140.83" y="479.73">.</text>
<text x="482.22" y="449.51">.</text>
<text x="200.73" y="103.06">+</text>
<text x="220.07" y="26.87">+</text>
<text x="193.29" y="134.36">*</text>
<text x="17.26" y="301.85">.</text>
<text x="373.42" y="348.68">.</text>
<text x="478.87" y="219.87">.</text>
<text x="440.76" y="176.93">+</text>
<text x="326.53" y="362.54">+</text>
<text x="196.51" y="39.41">.</text>
<text x="19.20" y="359.54">+</text>
<text x="174.91" y="456.85">.</text>
<text x="278.25" y="472.05">+</text>
<text x="86.82" y="379.46">+</text>
<text x="207.42" y="209.19">+</text>
<text x="385.07" y="462.37">.</text>
<text x="310.90" y="74.28">.</text>
<text x="307.23" y="286.26">.</text>
<text x="226.66" y="286.32">+</text>
<text x="449.18" y="148.44">+</text>
<text x="347.94" y="160.61">.</text>
<text x="322.40" y="180.26">*</text>
<text x="418.07" y="376.29">.</text>
<text x="407.67" y="376.98">+</text>
<text x="384.44" y="171.28">.</text>
<text x="233.51" y="467.72">.</text>
<text x="377.07" y="412.39">+</text>
<text x="450.68" y="299.69">.</text>
<text x="278.70" y="13.90">.</text>
<text x="202.12" y="493.18">.</text>
<text x="488.13" y="143.55">+</text>
<text x="127.39" y="355.48">+</text>
<text x="274.95" y="251.33">.</text>
<text x="416.63" y="69.52">+</text>
<text x="166.37" y="262.90">*</text>
<text x="54.04" y="9.12">.</text>
<text x="400.81" y="299.06">+</text>
<text x="244.41" y="23.74">+</text>
<text x="256.06" y="479.72">.</text>
<text x="205.70" y="70.63">+</text>
<text x="11.59" y="282.95">.</text>
<text x="379.77" y="332.06">+</text>
<text x="473.28" y="149.06">.</text>
<text x="325.46" y="301.60">.</text>
<text x="318.45" y="103.61">+</text>

</svg>