
<svg viewBox="0 0 500 500" xmlns="http://www.w.org/2000/svg" width="100%" height="100%" style="background-color: #0a0a14; font-family: 'Courier New', Courier, monospace;">
    <style>
        text { fill: #aaa; font-size: 10px; text-anchor: middle; dominant-baseline: middle; }
    </style>
    <text x="159.36" y="20.64">*</text>
<text x="382.96" y="130.58">*</text>
<text x="151.95" y="277.97">+</text>
<text x="421.00" y="359.09">+</text>
<text x="237.88" y="470.13">+</text>
<text x="188.35" y="478.63">*</text>
<text x="456.08" y="362.49">.</text>
<text x="92.15" y="78.78">+</text>
<text x="39.60" y="485.02">+</text>
<text x="460.49" y="452.70">+</text>
<text x="449.58" y="287.70">*</text>
<text x="47.11" y="340.11">+</text>
<text x="168.94" y="472.27">*</text>
<text x="61.37" y="383.12">+</text>
<text x="113.21" y="274.38">.</text>
<text x="488.46" y="416.13">.</text>
<text x="385.15" y="496.56">*</text>
<text x="58.05" y="64.41">+</text>
<text x="181.70" y="39.37">.</text>
<text x="64.32" y="401.51">+</text>
<text x="214.13" y="74.21">+</text>
<text x="480.07" y="51.97">+</text>
<text x="283.62" y="128.46">.</text>
<text x="241.91" y="52.67">+</text>
<text x="244.83" y="204.36">.</text>
<text x="100.07" y="480.71">.</text>
<text x="52.94" y="341.24">+</text>
<text x="298.04" y="478.56">*</text>
<text x="140.45" y="65.20">.</text>
<text x="237.25" y="411.00">.</text>
<text x="208.64" y="354.90">+</text>
<text x="321.85" y="448.75">+</text>
<text x="194.76" y="310.97">*</text>
<text x="458.16" y="446.64">+</text>
<text x="112.90" y="174.74">*</text>
<text x="18.22" y="433.40">.</text>
<text x="390.21" y="132.67">+</text>
<text x="8.20" y="251.51">+</text>
<text x="476.84" y="207.55">+</text>
<text x="208.70" y="165.44">*</text>
<text x="65.02" y="369.48">+</text>
<text x="331.45" y="186.18">.</text>
<text x="428.84" y="309.05">+</text>
<text x="277.83" y="471.35">+</text>
<text x="17.79" y="32.52">+</text>
<text x="448.12" y="97.32">.</text>
<text x="406.38" y="447.35">+</text>
<text x="459.54" y="458.08">.</text>
<text x="440.30" y="83.00">+</text>
<text x="316.45" y="284.53">.</text>
<text x="294.88" y="482.56">.</text>
<text x="98.55" y="291.85">*</text>
<text x="207.96" y="92.47">.</text>
<text x="63.91" y="50.26">+</text>
<text x="149.43" y="498.60">.</text>
<text x="339.19" y="370.76">+</text>
<text x="165.09" y="86.32">.</text>
<text x="34.69" y="192.73">.</text>
<text x="41.20" y="316.37">.</text>
<text x="496.62" y="325.49">+</text>
<text x="292.77" y="261.51">+</text>
<text x="361.68" y="435.52">.</text>
<text x="185.08" y="68.00">+</text>
<text x="210.74" y="213.49">.</text>
<text x="69.25" y="449.32">+</text>
<text x="75.99" y="132.20">+</text>
<text x="323.30" y="36.43">.</text>
<text x="26.16" y="416.12">*</text>
<text x="485.70" y="121.38">*</text>
<text x="116.20" y="20.88">.</text>
<text x="450.84" y="101.13">*</text>
<text x="288.90" y="33.25">+</text>
<text x="229.50" y="56.00">+</text>
<text x="273.97" y="357.24">*</text>
<text x="334.80" y="320.80">*</text>
<text x="416.90" y="461.16">.</text>
<text x="165.49" y="249.63">.</text>
<text x="320.64" y="130.76">+</text>
<text x="408.63" y="146.88">+</text>
<text x="330.44" y="151.05">+</text>
<text x="494.23" y="431.93">+</text>
<text x="456.65" y="178.30">*</text>
<text x="28.53" y="423.46">.</text>
<text x="17.52" y="266.05">+</text>
<text x="472.26" y="277.86">+</text>
<text x="137.45" y="145.36">.</text>
<text x="491.27" y="138.46">.</text>
<text x="380.62" y="350.66">.</text>
<text x="281.88" y="170.40">.</text>
<text x="407.09" y="110.78">.</text>
<text x="4.85" y="60.67">+</text>
<text x="136.55" y="197.79">.</text>
<text x="196.00" y="248.47">+</text>
<text x="429.67" y="250.93">.</text>
<text x="7.84" y="44.76">+</text>
<text x="84.78" y="86.94">+</text>
<text x="168.61" y="299.91">+</text>
<text x="412.22" y="374.71">*</text>
<text x="396.31" y="321.93">*</text>
<text x="420.45" y="450.80">+</text>
<text x="147.24" y="336.74">+</text>
<text x="471.02" y="350.98">*</text>
<text x="389.47" y="335.96">.</text>
<text x="306.87" y="313.08">.</text>
<text x="58.13" y="449.93">+</text>
<text x="104.00" y="246.96">+</text>
<text x="234.20" y="317.43">*</text>
<text x="54.00" y="405.47">.</text>
<text x="27.34" y="37.49">+</text>
<text x="481.88" y="207.67">.</text>
<text x="333.22" y="475.88">+</text>
<text x="101.53" y="358.92">+</text>
<text x="84.04" y="396.43">+</text>
<text x="299.64" y="84.49">.</text>
<text x="378.66" y="401.90">*</text>
<text x="468.97" y="174.89">*</text>
<text x="210.67" y="109.77">+</text>
<text x="241.32" y="468.09">.</text>
<text x="153.89" y="221.49">*</text>
<text x="497.82" y="472.17">.</text>
<text x="480.96" y="17.54">+</text>
<text x="427.15" y="157.93">+</text>
<text x="23.73" y="139.92">.</text>
<text x="33.45" y="28.49">+</text>
<text x="386.13" y="259.89">+</text>
<text x="69.90" y="96.67">+</text>
<text x="43.67" y="338.25">*</text>
<text x="439.75" y="53.91">+</text>
<text x="72.46" y="62.44">*</text>
<text x="61.64" y="234.11">.</text>
<text x="354.16" y="207.81">.</text>
<text x="246.94" y="480.20">+</text>
<text x="287.32" y="252.45">+</text>
<text x="304.46" y="208.15">.</text>
<text x="326.95" y="429.09">+</text>
<text x="282.71" y="226.72">+</text>
<text x="14.83" y="121.23">.</text>
<text x="471.56" y="229.76">.</text>
<text x="55.47" y="145.89">+</text>
<text x="112.56" y="188.05">.</text>
<text x="143.74" y="313.86">+</text>
<text x="228.43" y="468.20">+</text>
<text x="5.10" y="19.96">+</text>
<text x="407.00" y="10.21">+</text>
<text x="483.49" y="3.57">.</text>
<text x="477.95" y="404.35">.</text>
<text x="55.00" y="197.93">+</text>
<text x="80.63" y="208.82">*</text>
<text x="56.46" y="404.88">+</text>
<text x="464.44" y="135.39">.</text>
<text x="69.57" y="470.81">+</text>
<text x="365.92" y="245.27">+</text>
<text x="214.44" y="285.69">.</text>
<text x="73.75" y="487.34">.</text>
<text x="499.32" y="278.82">.</text>
<text x="153.13" y="402.34">*</text>
<text x="113.81" y="116.81">+</text>
<text x="27.83" y="412.97">*</text>
<text x="64.40" y="341.81">+</text>
<text x="208.41" y="226.37">.</text>
<text x="398.32" y="303.85">+</text>
<text x="297.26" y="156.73">*</text>
<text x="454.23" y="412.76">+</text>
<text x="302.50" y="165.43">+</text>
<text x="347.65" y="126.19">.</text>
<text x="76.96" y="128.25">.</text>
<text x="102.11" y="78.20">.</text>
<text x="151.37" y="265.92">.</text>
<text x="278.92" y="53.09">+</text>
<text x="336.58" y="322.93">*</text>
<text x="227.31" y="68.10">.</text>
<text x="28.96" y="16.88">.</text>
<text x="204.19" y="1.93">.</text>
<text x="269.54" y="235.20">+</text>
<text x="419.89" y="356.65">+</text>
<text x="377.31" y="103.29">.</text>
<text x="81.27" y="270.33">+</text>
<text x="183.98" y="72.84">+</text>
<text x="397.51" y="464.26">.</text>
<text x="173.32" y="396.89">+</text>
<text x="290.83" y="197.71">+</text>
<text x="371.62" y="44.53">.</text>
<text x="198.65" y="56.75">*</text>
<text x="158.36" y="230.89">.</text>
<text x="330.82" y="47.30">.</text>
<text x="276.58" y="442.16">.</text>
<text x="363.01" y="22.13">.</text>
<text x="469.46" y="480.83">+</text>
<text x="4.50" y="11.76">.</text>
<text x="315.89" y="63.18">*</text>
<text x="400.79" y="68.44">.</text>
<text x="218.43" y="281.02">+</text>
<text x="426.06" y="461.55">+</text>
<text x="474.25" y="257.34">.</text>
<text x="494.24" y="14.07">*</text>
<text x="243.70" y="333.02">+</text>
<text x="411.08" y="26.52">*</text>
<text x="246.65" y="313.15">+</text>
<text x="443.15" y="249.02">*</text>
<text x="408.28" y="274.26">.</text>
<text x="65.37" y="275.67">+</text>
<text x="317.62" y="128.92">+</text>
<text x="22.87" y="229.08">+</text>
<text x="240.13" y="224.36">.</text>
<text x="28.38" y="344.15">.</text>
<text x="290.31" y="398.71">*</text>
<text x="81.35" y="17.40">+</text>
<text x="26.64" y="261.81">.</text>
<text x="42.09" y="156.84">*</text>
<text x="225.63" y="3.95">.</text>
<text x="20.83" y="336.23">+</text>
<text x="439.32" y="256.07">.</text>
<text x="153.52" y="420.94">.</text>
<text x="194.26" y="15.69">+</text>

</svg>