
<svg viewBox="0 0 500 500" xmlns="http://www.w.org/2000/svg" width="100%" height="100%" style="background-color: #0a0a14; font-family: 'Courier New', Courier, monospace;">
    <style>
        text { fill: #aaa; font-size: 10px; text-anchor: middle; dominant-baseline: middle; }
    </style>
    <text x="328.62" y="48.12">+</text>
<text x="375.83" y="194.08">+</text>
<text x="223.19" y="295.61">.</text>
<text x="223.75" y="193.81">.</text>
<text x="134.32" y="120.16">.</text>
<text x="311.31" y="410.21">+</text>
<text x="491.86" y="231.69">.</text>
<text x="317.78" y="50.62">+</text>
<text x="141.28" y="17.92">.</text>
<text x="247.29" y="265.08">+</text>
<text x="274.72" y="306.54">+</text>
<text x="172.16" y="443.12">.</text>
<text x="408.96" y="22.78">.</text>
<text x="38.11" y="490.49">.</text>
<text x="37.47" y="332.50">+</text>
<text x="433.97" y="50.05">+</text>
<text x="95.48" y="45.87">*</text>
<text x="102.21" y="402.83">.</text>
<text x="46.22" y="404.40">.</text>
<text x="162.76" y="348.38">.</text>
<text x="187.99" y="394.46">.</text>
<text x="341.83" y="81.71">+</text>
<text x="63.00" y="105.00">.</text>
<text x="400.04" y="301.81">*</text>
<text x="389.78" y="132.00">+</text>
<text x="231.04" y="440.88">.</text>
<text x="75.58" y="78.42">.</text>
<text x="12.70" y="416.78">+</text>
<text x="307.77" y="410.89">*</text>
<text x="323.81" y="35.55">.</text>
<text x="319.14" y="133.43">+</text>
<text x="312.68" y="171.46">*</text>
<text x="470.74" y="369.05">.</text>
<text x="432.77" y="356.05">+</text>
<text x="208.56" y="38.35">.</text>
<text x="106.87" y="87.55">+</text>
<text x="379.94" y="212.46">*</text>
<text x="97.34" y="121.48">+</text>
<text x="340.47" y="491.66">+</text>
<text x="365.72" y="56.52">.</text>
<text x="260.09" y="210.16">+</text>
<text x="348.36" y="144.58">.</text>
<text x="396.94" y="320.04">*</text>
<text x="304.93" y="83.25">.</text>
<text x="363.31" y="181.85">+</text>
<text x="243.19" y="278.69">.</text>
<text x="309.20" y="24.79">.</text>
<text x="239.91" y="106.32">.</text>
<text x="326.36" y="48.44">.</text>
<text x="203.07" y="328.83">+</text>
<text x="6.32" y="369.38">.</text>
<text x="470.74" y="364.46">+</text>
<text x="35.97" y="394.63">.</text>
<text x="298.65" y="233.72">*</text>
<text x="401.37" y="29.49">+</text>
<text x="62.48" y="384.68">*</text>
<text x="110.71" y="184.65">.</text>
<text x="278.69" y="212.70">.</text>
<text x="394.44" y="191.86">.</text>
<text x="240.00" y="165.24">+</text>
<text x="493.02" y="100.19">.</text>
<text x="459.40" y="484.75">.</text>
<text x="51.28" y="175.22">.</text>
<text x="251.28" y="162.54">.</text>
<text x="59.43" y="288.95">.</text>
<text x="358.85" y="43.88">+</text>
<text x="276.22" y="278.15">.</text>
<text x="304.92" y="416.57">*</text>
<text x="260.26" y="36.45">.</text>
<text x="232.14" y="186.67">+</text>
<text x="284.47" y="143.97">+</text>
<text x="287.00" y="359.95">.</text>
<text x="353.49" y="375.06">+</text>
<text x="92.60" y="87.20">+</text>
<text x="52.94" y="458.47">.</text>
<text x="17.56" y="243.55">*</text>
<text x="362.10" y="422.34">+</text>
<text x="444.02" y="185.33">+</text>
<text x="121.37" y="322.03">+</text>
<text x="457.24" y="214.23">+</text>
<text x="202.21" y="487.09">*</text>
<text x="121.21" y="257.91">.</text>
<text x="408.19" y="95.46">+</text>
<text x="427.22" y="11.04">+</text>
<text x="435.25" y="335.14">.</text>
<text x="280.37" y="13.13">+</text>
<text x="458.12" y="332.97">*</text>
<text x="66.07" y="442.17">.</text>
<text x="398.71" y="246.22">+</text>
<text x="204.33" y="245.85">+</text>
<text x="457.17" y="180.20">*</text>
<text x="259.64" y="162.90">.</text>
<text x="44.72" y="14.11">+</text>
<text x="222.08" y="259.15">.</text>
<text x="85.89" y="373.80">.</text>
<text x="329.38" y="78.61">+</text>
<text x="157.29" y="202.68">.</text>
<text x="331.06" y="131.96">*</text>
<text x="279.31" y="432.74">+</text>
<text x="212.20" y="194.87">.</text>
<text x="79.71" y="44.89">+</text>
<text x="227.26" y="100.31">.</text>
<text x="400.56" y="254.24">.</text>
<text x="445.91" y="52.25">+</text>
<text x="267.22" y="112.41">+</text>
<text x="377.42" y="189.16">+</text>
<text x="80.39" y="162.09">.</text>
<text x="282.34" y="437.72">*</text>
<text x="346.45" y="206.36">*</text>
<text x="55.34" y="374.53">+</text>
<text x="153.56" y="45.37">+</text>
<text x="495.17" y="444.12">.</text>
<text x="13.92" y="124.77">+</text>
<text x="473.50" y="382.04">+</text>
<text x="401.58" y="42.97">.</text>
<text x="205.01" y="212.49">.</text>
<text x="82.12" y="106.58">.</text>
<text x="3.16" y="414.64">.</text>
<text x="168.52" y="226.56">+</text>
<text x="117.86" y="310.64">.</text>
<text x="319.12" y="362.36">+</text>
<text x="234.49" y="6.64">+</text>
<text x="57.69" y="487.68">.</text>
<text x="158.39" y="293.51">+</text>
<text x="381.71" y="51.08">*</text>
<text x="259.84" y="474.06">+</text>
<text x="35.45" y="289.34">.</text>
<text x="11.28" y="21.40">.</text>
<text x="0.06" y="185.56">+</text>
<text x="15.92" y="191.15">.</text>
<text x="427.06" y="129.60">.</text>
<text x="128.66" y="149.51">*</text>
<text x="397.66" y="332.93">+</text>
<text x="394.61" y="238.44">.</text>
<text x="333.94" y="38.24">.</text>
<text x="33.93" y="199.24">+</text>
<text x="18.55" y="434.92">*</text>
<text x="291.98" y="149.15">+</text>
<text x="287.17" y="166.12">.</text>
<text x="53.99" y="9.27">*</text>
<text x="58.49" y="491.17">+</text>
<text x="109.56" y="282.55">+</text>
<text x="483.30" y="47.94">*</text>
<text x="250.57" y="250.73">.</text>
<text x="210.92" y="35.70">.</text>
<text x="138.18" y="209.22">*</text>
<text x="476.84" y="355.94">+</text>
<text x="42.29" y="344.27">+</text>
<text x="282.40" y="120.84">.</text>
<text x="448.71" y="322.65">*</text>
<text x="499.20" y="143.77">+</text>
<text x="275.16" y="451.32">+</text>
<text x="225.02" y="187.26">+</text>
<text x="127.67" y="127.42">.</text>
<text x="389.54" y="447.69">*</text>
<text x="386.68" y="6.10">+</text>
<text x="390.03" y="65.23">+</text>
<text x="397.59" y="301.59">+</text>
<text x="113.31" y="55.73">.</text>
<text x="398.20" y="132.22">.</text>
<text x="283.65" y="161.30">*</text>
<text x="331.02" y="254.32">.</text>
<text x="306.54" y="62.24">+</text>
<text x="67.70" y="414.72">+</text>
<text x="385.09" y="152.35">+</text>
<text x="38.74" y="87.33">.</text>
<text x="401.20" y="321.31">.</text>
<text x="467.17" y="383.23">.</text>
<text x="449.44" y="213.89">.</text>
<text x="48.97" y="393.25">.</text>
<text x="410.69" y="282.86">.</text>
<text x="369.65" y="113.67">.</text>
<text x="147.37" y="8.60">.</text>
<text x="420.19" y="108.92">+</text>
<text x="147.79" y="483.57">.</text>
<text x="142.54" y="159.00">+</text>
<text x="135.26" y="457.46">*</text>
<text x="72.14" y="62.59">+</text>
<text x="246.50" y="436.00">.</text>
<text x="19.23" y="325.38">.</text>
<text x="115.76" y="293.55">+</text>
<text x="6.05" y="88.98">.</text>
<text x="116.43" y="260.19">*</text>
<text x="284.30" y="318.50">+</text>
<text x="105.64" y="117.57">.</text>
<text x="486.80" y="211.99">.</text>
<text x="418.17" y="52.50">.</text>
<text x="321.33" y="137.03">.</text>
<text x="231.27" y="264.79">.</text>
<text x="419.48" y="229.74">+</text>
<text x="134.99" y="143.30">.</text>
<text x="366.06" y="192.31">.</text>
<text x="226.95" y="463.56">+</text>
<text x="208.66" y="365.02">.</text>
<text x="287.92" y="198.60">+</text>
<text x="114.18" y="164.48">+</text>
<text x="349.34" y="360.13">+</text>
<text x="407.12" y="187.22">*</text>
<text x="341.89" y="467.64">.</text>
<text x="313.67" y="287.01">+</text>
<text x="263.91" y="90.13">+</text>
<text x="256.69" y="249.07">.</text>
<text x="451.25" y="213.26">+</text>
<text x="491.79" y="52.77">.</text>
<text x="226.69" y="181.60">*</text>
<text x="476.10" y="434.40">+</text>
<text x="469.57" y="422.60">.</text>
<text x="181.33" y="80.20">.</text>
<text x="219.47" y="268.60">+</text>
<text x="316.82" y="490.20">.</text>
<text x="482.65" y="217.32">*</text>
<text x="138.19" y="378.23">.</text>
<text x="49.18" y="194.49">+</text>

</svg>