
<svg viewBox="0 0 500 500" xmlns="http://www.w.org/2000/svg" width="100%" height="100%" style="background-color: #0a0a14; font-family: 'Courier New', Courier, monospace;">
    <style>
        text { fill: #aaa; font-size: 10px; text-anchor: middle; dominant-baseline: middle; }
    </style>
    <text x="395.83" y="352.06">*</text>
<text x="30.03" y="295.33">*</text>
<text x="310.18" y="69.33">+</text>
<text x="27.97" y="88.16">.</text>
<text x="101.40" y="462.50">.</text>
<text x="91.95" y="59.84">*</text>
<text x="463.60" y="484.62">+</text>
<text x="62.46" y="208.57">+</text>
<text x="32.50" y="273.87">*</text>
<text x="464.26" y="216.34">.</text>
<text x="414.02" y="197.06">+</text>
<text x="107.46" y="288.07">+</text>
<text x="93.12" y="467.73">*</text>
<text x="65.28" y="306.74">+</text>
<text x="74.21" y="153.66">.</text>
<text x="246.18" y="212.56">.</text>
<text x="463.81" y="189.73">*</text>
<text x="393.19" y="448.30">+</text>
<text x="86.30" y="81.32">+</text>
<text x="49.97" y="243.95">+</text>
<text x="241.97" y="382.68">.</text>
<text x="253.83" y="384.79">+</text>
<text x="484.52" y="353.47">+</text>
<text x="135.27" y="159.35">.</text>
<text x="482.41" y="402.01">+</text>
<text x="89.72" y="282.70">.</text>
<text x="69.71" y="346.20">+</text>
<text x="370.65" y="314.44">.</text>
<text x="482.48" y="243.26">*</text>
<text x="39.83" y="34.21">.</text>
<text x="307.56" y="245.02">.</text>
<text x="428.33" y="171.62">.</text>
<text x="210.56" y="484.46">.</text>
<text x="271.01" y="487.39">*</text>
<text x="77.03" y="163.17">+</text>
<text x="112.42" y="392.26">.</text>
<text x="60.09" y="415.40">+</text>
<text x="315.48" y="494.88">+</text>
<text x="421.33" y="198.28">.</text>
<text x="217.43" y="249.74">.</text>
<text x="171.47" y="97.10">.</text>
<text x="223.79" y="137.42">+</text>
<text x="222.18" y="452.02">+</text>
<text x="152.48" y="17.27">.</text>
<text x="412.77" y="370.07">.</text>
<text x="229.46" y="32.30">.</text>
<text x="346.80" y="146.42">.</text>
<text x="228.51" y="216.53">+</text>
<text x="497.18" y="205.84">.</text>
<text x="491.25" y="194.96">*</text>
<text x="445.63" y="493.80">.</text>
<text x="400.57" y="491.09">+</text>
<text x="156.82" y="333.59">+</text>
<text x="24.98" y="146.79">+</text>
<text x="263.70" y="352.29">+</text>
<text x="182.50" y="251.97">.</text>
<text x="400.49" y="239.58">+</text>
<text x="124.39" y="358.80">+</text>
<text x="266.80" y="439.09">+</text>
<text x="101.07" y="368.21">.</text>
<text x="141.86" y="450.03">+</text>
<text x="484.11" y="395.04">.</text>
<text x="77.22" y="409.17">+</text>
<text x="455.05" y="66.67">+</text>
<text x="399.97" y="455.41">+</text>
<text x="491.73" y="53.26">+</text>
<text x="130.70" y="393.35">+</text>
<text x="92.55" y="134.40">+</text>
<text x="17.65" y="225.38">*</text>
<text x="159.01" y="296.52">*</text>
<text x="269.37" y="295.87">.</text>
<text x="74.38" y="474.95">+</text>
<text x="242.53" y="356.78">.</text>
<text x="318.67" y="68.90">.</text>
<text x="346.55" y="24.52">*</text>
<text x="358.88" y="59.85">.</text>
<text x="194.06" y="249.82">+</text>
<text x="384.32" y="340.40">.</text>
<text x="37.77" y="266.82">+</text>
<text x="271.09" y="51.96">+</text>
<text x="403.31" y="74.39">.</text>
<text x="61.74" y="366.38">+</text>
<text x="375.58" y="286.25">+</text>
<text x="172.19" y="232.67">*</text>
<text x="459.95" y="480.06">+</text>
<text x="74.45" y="443.49">+</text>
<text x="486.95" y="9.39">+</text>
<text x="407.89" y="427.17">.</text>
<text x="426.57" y="90.16">.</text>
<text x="171.95" y="402.97">*</text>
<text x="69.57" y="227.19">.</text>
<text x="293.67" y="237.00">.</text>
<text x="70.18" y="343.69">.</text>
<text x="443.16" y="181.96">+</text>
<text x="147.53" y="249.02">+</text>
<text x="421.99" y="197.42">.</text>
<text x="316.50" y="312.51">*</text>
<text x="229.59" y="400.90">+</text>
<text x="49.06" y="39.64">.</text>
<text x="291.37" y="498.23">.</text>
<text x="165.68" y="147.14">+</text>
<text x="207.81" y="268.75">+</text>
<text x="166.84" y="316.18">+</text>
<text x="197.74" y="264.31">+</text>
<text x="196.34" y="431.59">*</text>
<text x="100.31" y="263.38">+</text>
<text x="459.16" y="106.48">.</text>
<text x="405.66" y="241.62">.</text>
<text x="359.11" y="384.59">.</text>
<text x="189.75" y="5.55">.</text>
<text x="210.53" y="144.02">.</text>
<text x="14.96" y="203.81">+</text>
<text x="369.21" y="239.45">+</text>
<text x="113.32" y="363.67">+</text>
<text x="268.26" y="414.27">+</text>
<text x="138.35" y="291.09">.</text>
<text x="37.94" y="226.68">+</text>
<text x="408.47" y="28.62">+</text>
<text x="398.62" y="220.24">+</text>
<text x="29.23" y="7.94">+</text>
<text x="461.02" y="157.06">.</text>
<text x="253.36" y="154.73">.</text>
<text x="454.39" y="464.67">+</text>
<text x="185.96" y="434.98">*</text>
<text x="288.47" y="383.31">+</text>
<text x="323.16" y="429.84">+</text>
<text x="495.26" y="377.57">*</text>
<text x="300.98" y="338.76">+</text>
<text x="390.35" y="184.65">.</text>
<text x="360.48" y="66.42">.</text>
<text x="335.56" y="215.54">+</text>
<text x="330.25" y="256.24">+</text>
<text x="310.74" y="74.51">+</text>
<text x="23.15" y="467.27">*</text>
<text x="181.50" y="276.50">.</text>
<text x="361.80" y="493.40">+</text>
<text x="31.03" y="187.32">+</text>
<text x="397.07" y="119.69">.</text>
<text x="44.50" y="264.74">.</text>
<text x="198.58" y="455.45">.</text>
<text x="16.17" y="229.02">+</text>
<text x="372.20" y="172.52">.</text>
<text x="302.62" y="177.36">.</text>
<text x="423.32" y="426.60">+</text>
<text x="228.33" y="308.04">.</text>
<text x="358.25" y="205.53">+</text>
<text x="143.69" y="465.81">.</text>
<text x="83.31" y="405.33">.</text>
<text x="250.19" y="65.10">*</text>
<text x="416.11" y="331.95">+</text>
<text x="209.21" y="487.47">*</text>
<text x="390.76" y="394.35">.</text>
<text x="203.22" y="486.81">+</text>
<text x="324.07" y="497.88">.</text>
<text x="318.79" y="0.04">+</text>
<text x="403.28" y="431.02">.</text>
<text x="447.87" y="285.29">*</text>
<text x="99.60" y="121.87">.</text>
<text x="493.59" y="448.39">*</text>
<text x="180.41" y="272.14">+</text>
<text x="64.83" y="310.93">.</text>
<text x="38.46" y="133.16">.</text>
<text x="74.47" y="71.69">.</text>
<text x="137.47" y="53.87">.</text>
<text x="262.21" y="132.40">+</text>
<text x="242.74" y="403.16">+</text>
<text x="297.51" y="383.28">+</text>
<text x="170.67" y="170.45">+</text>
<text x="78.51" y="419.10">.</text>
<text x="33.98" y="317.92">+</text>
<text x="235.11" y="263.33">+</text>
<text x="350.56" y="10.04">.</text>
<text x="195.37" y="321.83">+</text>
<text x="20.12" y="238.32">+</text>
<text x="466.92" y="348.80">.</text>
<text x="146.63" y="422.91">.</text>
<text x="289.07" y="17.18">+</text>
<text x="136.35" y="402.58">.</text>
<text x="73.73" y="128.31">*</text>
<text x="33.93" y="305.47">+</text>
<text x="51.69" y="436.97">+</text>
<text x="34.91" y="157.68">*</text>
<text x="360.62" y="394.57">+</text>
<text x="228.37" y="52.90">+</text>
<text x="72.15" y="216.63">.</text>
<text x="290.25" y="337.69">.</text>
<text x="166.11" y="7.14">.</text>
<text x="374.08" y="7.36">.</text>
<text x="140.75" y="441.80">+</text>
<text x="338.75" y="288.59">.</text>
<text x="324.22" y="220.55">.</text>
<text x="353.86" y="255.46">.</text>
<text x="369.54" y="437.47">.</text>
<text x="25.12" y="190.99">+</text>
<text x="376.07" y="310.45">+</text>
<text x="16.08" y="374.50">+</text>
<text x="356.54" y="423.36">*</text>
<text x="252.14" y="425.81">*</text>
<text x="92.08" y="310.17">+</text>
<text x="38.82" y="119.74">+</text>
<text x="62.26" y="373.27">+</text>
<text x="494.52" y="219.12">+</text>
<text x="159.55" y="222.85">+</text>
<text x="364.86" y="400.98">.</text>
<text x="371.05" y="223.89">+</text>
<text x="156.69" y="55.43">+</text>
<text x="54.39" y="424.26">.</text>
<text x="356.70" y="99.16">.</text>
<text x="325.58" y="392.32">+</text>
<text x="75.72" y="50.86">+</text>
<text x="422.64" y="107.10">.</text>
<text x="460.75" y="4.60">.</text>
<text x="98.62" y="341.71">.</text>
<text x="187.07" y="366.87">.</text>
<text x="105.03" y="338.22">.</text>
<text x="352.47" y="154.00">+</text>
<text x="374.67" y="73.40">*</text>
<text x="238.15" y="27.13">.</text>
<text x="167.24" y="242.86">+</text>

</svg>