
<svg viewBox="0 0 500 500" xmlns="http://www.w.org/2000/svg" width="100%" height="100%" style="background-color: #0a0a14; font-family: 'Courier New', Courier, monospace;">
    <style>
        text { fill: #aaa; font-size: 10px; text-anchor: middle; dominant-baseline: middle; }
    </style>
    <text x="295.92" y="292.00">+</text>
<text x="125.42" y="480.48">.</text>
<text x="463.91" y="92.80">*</text>
<text x="479.84" y="20.29">+</text>
<text x="376.05" y="496.83">+</text>
<text x="33.92" y="116.62">+</text>
<text x="58.74" y="259.55">+</text>
<text x="265.07" y="450.06">+</text>
<text x="445.63" y="455.38">+</text>
<text x="125.24" y="135.92">.</text>
<text x="198.31" y="319.93">.</text>
<text x="23.65" y="340.68">+</text>
<text x="141.32" y="43.75">*</text>
<text x="138.02" y="9.26">+</text>
<text x="159.90" y="186.85">.</text>
<text x="361.24" y="239.10">.</text>
<text x="471.05" y="337.58">*</text>
<text x="489.98" y="274.11">+</text>
<text x="179.69" y="196.26">+</text>
<text x="332.39" y="103.49">.</text>
<text x="402.24" y="43.32">*</text>
<text x="445.58" y="25.81">*</text>
<text x="110.60" y="463.54">.</text>
<text x="81.68" y="28.96">.</text>
<text x="103.17" y="77.38">+</text>
<text x="366.21" y="470.86">+</text>
<text x="395.10" y="388.44">*</text>
<text x="473.72" y="386.78">.</text>
<text x="106.39" y="470.56">.</text>
<text x="65.85" y="492.29">.</text>
<text x="457.18" y="307.15">+</text>
<text x="448.99" y="117.06">.</text>
<text x="329.40" y="68.53">+</text>
<text x="261.41" y="226.60">+</text>
<text x="41.88" y="452.22">.</text>
<text x="155.86" y="377.21">+</text>
<text x="498.51" y="281.42">*</text>
<text x="288.07" y="77.19">+</text>
<text x="77.21" y="238.96">*</text>
<text x="82.93" y="93.40">*</text>
<text x="280.44" y="367.18">+</text>
<text x="363.03" y="55.87">+</text>
<text x="224.85" y="295.56">*</text>
<text x="311.46" y="278.51">+</text>
<text x="478.45" y="452.67">+</text>
<text x="125.97" y="339.34">*</text>
<text x="172.33" y="231.09">*</text>
<text x="146.90" y="366.03">.</text>
<text x="458.87" y="310.42">.</text>
<text x="324.88" y="309.79">.</text>
<text x="101.55" y="371.83">*</text>
<text x="310.80" y="24.83">+</text>
<text x="394.75" y="449.33">.</text>
<text x="121.82" y="56.83">+</text>
<text x="16.72" y="172.71">*</text>
<text x="239.69" y="9.97">.</text>
<text x="478.82" y="76.83">*</text>
<text x="95.88" y="275.67">.</text>
<text x="410.33" y="497.21">+</text>
<text x="180.84" y="270.20">.</text>
<text x="233.52" y="95.90">.</text>
<text x="12.93" y="267.20">.</text>
<text x="245.00" y="474.74">.</text>
<text x="106.83" y="472.39">.</text>
<text x="67.32" y="64.30">+</text>
<text x="23.16" y="88.22">*</text>
<text x="14.70" y="441.34">.</text>
<text x="274.36" y="200.33">.</text>
<text x="461.11" y="286.40">.</text>
<text x="483.13" y="327.83">*</text>
<text x="238.94" y="263.49">.</text>
<text x="456.93" y="38.32">+</text>
<text x="248.40" y="471.19">+</text>
<text x="5.47" y="347.98">+</text>
<text x="105.86" y="452.50">+</text>
<text x="131.64" y="218.44">+</text>
<text x="285.96" y="101.69">*</text>
<text x="186.87" y="63.83">+</text>
<text x="462.20" y="15.67">.</text>
<text x="473.77" y="424.55">+</text>
<text x="111.42" y="152.37">.</text>
<text x="81.12" y="294.36">.</text>
<text x="25.44" y="76.36">+</text>
<text x="458.34" y="201.88">.</text>
<text x="415.25" y="231.28">+</text>
<text x="107.47" y="405.81">+</text>
<text x="5.98" y="335.21">.</text>
<text x="34.41" y="322.83">+</text>
<text x="452.22" y="200.57">.</text>
<text x="461.90" y="23.34">+</text>
<text x="437.61" y="482.40">.</text>
<text x="11.53" y="193.25">+</text>
<text x="275.97" y="208.88">.</text>
<text x="312.39" y="298.85">.</text>
<text x="248.56" y="309.95">+</text>
<text x="98.66" y="72.70">.</text>
<text x="43.66" y="67.38">*</text>
<text x="353.46" y="216.73">.</text>
<text x="498.88" y="418.66">*</text>
<text x="405.70" y="299.40">+</text>
<text x="4.90" y="383.09">.</text>
<text x="400.10" y="345.70">.</text>
<text x="301.45" y="291.06">+</text>
<text x="208.71" y="473.60">*</text>
<text x="111.44" y="307.04">*</text>
<text x="235.36" y="289.12">.</text>
<text x="207.92" y="68.41">*</text>
<text x="482.07" y="57.79">+</text>
<text x="152.24" y="200.85">.</text>
<text x="63.19" y="72.27">+</text>
<text x="203.60" y="396.44">*</text>
<text x="162.75" y="484.69">+</text>
<text x="480.31" y="225.80">+</text>
<text x="250.47" y="362.30">+</text>
<text x="163.56" y="31.17">.</text>
<text x="220.25" y="165.48">.</text>
<text x="27.55" y="432.19">+</text>
<text x="13.33" y="153.89">+</text>
<text x="245.84" y="318.80">+</text>
<text x="255.51" y="341.19">*</text>
<text x="437.99" y="240.95">+</text>
<text x="440.22" y="201.81">.</text>
<text x="491.38" y="459.61">+</text>
<text x="491.51" y="228.82">+</text>
<text x="158.87" y="231.84">+</text>
<text x="48.87" y="93.91">+</text>
<text x="282.70" y="208.98">.</text>
<text x="385.05" y="387.89">.</text>
<text x="51.17" y="63.69">.</text>
<text x="355.30" y="379.74">+</text>
<text x="304.15" y="194.05">+</text>
<text x="145.75" y="439.03">+</text>
<text x="499.58" y="63.39">+</text>
<text x="220.14" y="164.17">*</text>
<text x="164.35" y="118.30">.</text>
<text x="107.31" y="262.51">*</text>
<text x="101.30" y="180.84">+</text>
<text x="6.42" y="344.26">+</text>
<text x="70.91" y="2.55">.</text>
<text x="167.02" y="121.34">+</text>
<text x="23.31" y="453.22">.</text>
<text x="450.51" y="477.43">+</text>
<text x="480.19" y="493.94">+</text>
<text x="216.69" y="446.54">.</text>
<text x="114.40" y="235.01">.</text>
<text x="172.43" y="68.09">+</text>
<text x="326.53" y="367.34">+</text>
<text x="24.38" y="335.08">.</text>
<text x="435.55" y="248.63">.</text>
<text x="481.96" y="447.17">*</text>
<text x="164.03" y="481.61">*</text>
<text x="347.99" y="496.13">+</text>
<text x="222.41" y="127.78">+</text>
<text x="32.72" y="101.80">.</text>
<text x="129.85" y="21.37">.</text>
<text x="154.56" y="214.72">+</text>
<text x="491.02" y="204.59">+</text>
<text x="377.08" y="266.43">.</text>
<text x="397.23" y="21.61">+</text>
<text x="327.65" y="438.77">+</text>
<text x="376.71" y="346.65">+</text>
<text x="379.05" y="166.83">+</text>
<text x="200.89" y="54.54">.</text>
<text x="91.14" y="247.70">+</text>
<text x="346.79" y="288.52">+</text>
<text x="272.81" y="34.98">+</text>
<text x="6.68" y="458.46">+</text>
<text x="447.56" y="98.45">.</text>
<text x="124.86" y="374.83">.</text>
<text x="66.28" y="268.56">.</text>
<text x="247.42" y="180.87">*</text>
<text x="32.33" y="76.88">+</text>
<text x="250.81" y="8.93">+</text>
<text x="263.03" y="197.94">+</text>
<text x="76.99" y="139.58">+</text>
<text x="172.95" y="108.83">+</text>
<text x="391.00" y="26.71">.</text>
<text x="218.29" y="19.47">.</text>
<text x="27.14" y="372.72">+</text>
<text x="166.06" y="62.23">+</text>
<text x="494.19" y="348.68">+</text>
<text x="399.53" y="65.01">+</text>
<text x="146.66" y="411.99">+</text>
<text x="211.50" y="176.03">*</text>
<text x="259.71" y="60.24">+</text>
<text x="212.83" y="3.84">.</text>
<text x="281.46" y="257.33">+</text>
<text x="273.69" y="430.56">.</text>
<text x="473.98" y="161.73">+</text>
<text x="147.64" y="296.99">*</text>
<text x="366.11" y="123.21">.</text>
<text x="482.80" y="492.15">*</text>
<text x="347.27" y="325.25">+</text>
<text x="237.00" y="377.54">+</text>
<text x="333.61" y="182.62">.</text>
<text x="416.06" y="122.04">*</text>
<text x="17.21" y="122.51">.</text>
<text x="173.17" y="239.02">+</text>
<text x="404.72" y="117.14">.</text>
<text x="411.29" y="289.95">.</text>
<text x="198.97" y="61.63">.</text>
<text x="78.57" y="107.42">+</text>
<text x="205.55" y="441.39">+</text>
<text x="217.01" y="138.71">.</text>
<text x="74.58" y="78.35">*</text>
<text x="269.90" y="428.66">.</text>
<text x="354.24" y="417.45">.</text>
<text x="317.85" y="481.67">+</text>
<text x="244.51" y="79.10">.</text>
<text x="118.08" y="12.74">+</text>
<text x="136.75" y="370.74">+</text>

</svg>