
<svg viewBox="0 0 500 500" xmlns="http://www.w.org/2000/svg" width="100%" height="100%" style="background-color: #0a0a14; font-family: 'Courier New', Courier, monospace;">
    <style>
        text { fill: #aaa; font-size: 10px; text-anchor: middle; dominant-baseline: middle; }
    </style>
    <text x="131.74" y="406.78">+</text>
<text x="138.77" y="431.40">+</text>
<text x="65.82" y="390.76">+</text>
<text x="281.89" y="184.00">+</text>
<text x="449.28" y="498.30">+</text>
<text x="280.04" y="298.83">.</text>
<text x="362.22" y="19.84">+</text>
<text x="488.23" y="470.53">*</text>
<text x="461.44" y="287.27">*</text>
<text x="177.69" y="24.36">+</text>
<text x="434.49" y="343.70">.</text>
<text x="444.87" y="59.85">+</text>
<text x="414.79" y="255.54">+</text>
<text x="299.26" y="457.66">*</text>
<text x="225.02" y="156.31">+</text>
<text x="71.74" y="320.72">.</text>
<text x="23.66" y="303.96">+</text>
<text x="413.93" y="484.30">.</text>
<text x="13.89" y="416.69">+</text>
<text x="18.41" y="130.82">.</text>
<text x="244.28" y="454.78">.</text>
<text x="350.90" y="379.50">+</text>
<text x="321.75" y="31.87">*</text>
<text x="457.36" y="75.63">+</text>
<text x="274.60" y="304.67">.</text>
<text x="369.09" y="462.68">*</text>
<text x="112.53" y="165.33">.</text>
<text x="465.72" y="326.34">+</text>
<text x="440.98" y="113.83">+</text>
<text x="60.42" y="155.22">.</text>
<text x="181.47" y="413.58">+</text>
<text x="89.90" y="91.64">*</text>
<text x="310.24" y="262.68">+</text>
<text x="4.98" y="182.24">+</text>
<text x="484.27" y="488.98">+</text>
<text x="454.12" y="155.95">+</text>
<text x="97.34" y="317.72">.</text>
<text x="28.17" y="368.78">+</text>
<text x="229.88" y="283.22">*</text>
<text x="181.73" y="143.61">.</text>
<text x="480.72" y="189.61">.</text>
<text x="373.88" y="20.59">+</text>
<text x="133.45" y="371.07">+</text>
<text x="82.25" y="412.98">.</text>
<text x="262.03" y="490.41">+</text>
<text x="493.07" y="212.88">+</text>
<text x="32.77" y="136.99">+</text>
<text x="392.19" y="235.35">.</text>
<text x="129.80" y="420.45">+</text>
<text x="467.53" y="415.98">.</text>
<text x="16.86" y="288.16">.</text>
<text x="77.77" y="215.89">.</text>
<text x="429.99" y="289.36">.</text>
<text x="14.60" y="60.00">*</text>
<text x="92.78" y="228.01">.</text>
<text x="410.32" y="225.36">.</text>
<text x="275.69" y="94.43">.</text>
<text x="138.99" y="249.60">.</text>
<text x="105.75" y="237.57">*</text>
<text x="488.39" y="206.80">.</text>
<text x="170.94" y="207.59">.</text>
<text x="362.60" y="451.00">.</text>
<text x="301.27" y="397.38">+</text>
<text x="297.78" y="118.93">.</text>
<text x="283.12" y="0.72">*</text>
<text x="461.81" y="353.99">+</text>
<text x="18.77" y="475.70">.</text>
<text x="35.13" y="274.27">.</text>
<text x="429.64" y="44.20">.</text>
<text x="210.71" y="423.30">.</text>
<text x="400.61" y="332.90">.</text>
<text x="306.78" y="159.86">.</text>
<text x="122.12" y="368.74">+</text>
<text x="128.68" y="197.25">+</text>
<text x="370.06" y="222.71">+</text>
<text x="148.93" y="132.71">+</text>
<text x="338.21" y="391.68">+</text>
<text x="201.08" y="97.21">*</text>
<text x="435.49" y="266.21">+</text>
<text x="105.14" y="141.21">+</text>
<text x="44.65" y="96.61">+</text>
<text x="243.92" y="302.12">+</text>
<text x="494.17" y="198.28">+</text>
<text x="134.17" y="64.62">.</text>
<text x="16.71" y="315.48">+</text>
<text x="110.91" y="404.31">+</text>
<text x="364.14" y="63.04">.</text>
<text x="414.97" y="116.28">.</text>
<text x="11.80" y="450.50">.</text>
<text x="284.58" y="69.57">.</text>
<text x="73.54" y="408.95">+</text>
<text x="15.31" y="488.65">+</text>
<text x="99.66" y="100.52">.</text>
<text x="236.11" y="218.79">.</text>
<text x="1.05" y="105.25">+</text>
<text x="341.41" y="272.99">.</text>
<text x="67.78" y="107.45">.</text>
<text x="130.77" y="194.41">.</text>
<text x="71.39" y="469.34">.</text>
<text x="75.72" y="308.52">+</text>
<text x="5.08" y="343.07">.</text>
<text x="307.65" y="245.27">.</text>
<text x="146.35" y="52.20">+</text>
<text x="278.81" y="72.30">+</text>
<text x="302.57" y="369.75">.</text>
<text x="58.55" y="299.68">.</text>
<text x="290.05" y="161.96">+</text>
<text x="363.93" y="62.21">+</text>
<text x="485.33" y="111.19">*</text>
<text x="75.33" y="178.56">+</text>
<text x="209.39" y="206.82">.</text>
<text x="340.52" y="389.24">.</text>
<text x="91.08" y="465.04">+</text>
<text x="379.61" y="480.73">*</text>
<text x="304.67" y="495.62">+</text>
<text x="460.59" y="340.90">+</text>
<text x="286.93" y="76.47">*</text>
<text x="96.06" y="152.84">*</text>
<text x="260.75" y="13.69">.</text>
<text x="300.63" y="254.05">.</text>
<text x="71.88" y="88.74">*</text>
<text x="172.46" y="487.53">.</text>
<text x="340.30" y="202.79">.</text>
<text x="344.96" y="189.78">.</text>
<text x="484.96" y="489.09">.</text>
<text x="248.83" y="366.92">+</text>
<text x="234.50" y="81.77">*</text>
<text x="71.73" y="458.28">.</text>
<text x="426.95" y="465.02">+</text>
<text x="263.88" y="337.96">*</text>
<text x="286.82" y="176.67">+</text>
<text x="391.38" y="432.82">+</text>
<text x="441.61" y="60.17">+</text>
<text x="294.47" y="326.50">.</text>
<text x="484.07" y="211.84">+</text>
<text x="327.14" y="133.86">.</text>
<text x="278.85" y="159.43">.</text>
<text x="317.94" y="305.09">*</text>
<text x="94.27" y="432.72">+</text>
<text x="394.88" y="322.16">.</text>
<text x="209.10" y="427.97">+</text>
<text x="291.69" y="357.26">+</text>
<text x="203.08" y="390.23">+</text>
<text x="230.50" y="301.01">+</text>
<text x="232.23" y="468.74">.</text>
<text x="226.14" y="46.53">*</text>
<text x="42.23" y="301.22">+</text>
<text x="245.57" y="65.50">*</text>
<text x="348.80" y="43.82">.</text>
<text x="404.97" y="239.45">+</text>
<text x="225.98" y="135.75">+</text>
<text x="418.82" y="155.08">*</text>
<text x="127.12" y="32.79">+</text>
<text x="180.84" y="432.89">.</text>
<text x="112.64" y="469.33">+</text>
<text x="169.31" y="132.36">*</text>
<text x="56.69" y="321.66">.</text>
<text x="193.96" y="250.51">*</text>
<text x="301.81" y="7.81">.</text>
<text x="404.82" y="78.37">+</text>
<text x="56.51" y="460.14">.</text>
<text x="60.86" y="471.72">+</text>
<text x="379.18" y="485.61">.</text>
<text x="224.11" y="212.63">+</text>
<text x="188.95" y="277.26">.</text>
<text x="476.89" y="24.92">.</text>
<text x="220.51" y="163.95">.</text>
<text x="197.85" y="385.07">*</text>
<text x="250.89" y="35.68">.</text>
<text x="462.98" y="209.28">+</text>
<text x="18.93" y="462.85">.</text>
<text x="88.21" y="457.97">*</text>
<text x="479.46" y="408.74">+</text>
<text x="375.21" y="284.58">.</text>
<text x="173.46" y="356.07">.</text>
<text x="387.56" y="404.39">+</text>
<text x="283.84" y="74.63">.</text>
<text x="134.09" y="25.09">.</text>
<text x="373.21" y="158.35">*</text>
<text x="109.51" y="321.40">*</text>
<text x="407.52" y="423.41">+</text>
<text x="303.56" y="476.03">.</text>
<text x="31.35" y="293.74">.</text>
<text x="462.49" y="300.95">+</text>
<text x="241.62" y="88.70">.</text>
<text x="262.84" y="412.59">.</text>
<text x="28.38" y="453.23">.</text>
<text x="324.86" y="85.31">*</text>
<text x="391.39" y="227.98">.</text>
<text x="499.82" y="321.73">*</text>
<text x="31.15" y="272.67">+</text>
<text x="205.50" y="461.94">*</text>
<text x="86.78" y="439.93">.</text>
<text x="196.57" y="486.55">+</text>
<text x="447.96" y="257.61">.</text>
<text x="273.61" y="9.73">.</text>
<text x="467.42" y="406.35">.</text>
<text x="284.71" y="221.53">.</text>
<text x="436.86" y="316.62">+</text>
<text x="205.12" y="217.76">.</text>
<text x="35.95" y="354.58">*</text>
<text x="262.21" y="73.84">+</text>
<text x="440.45" y="307.25">.</text>
<text x="373.58" y="401.14">.</text>
<text x="440.82" y="118.35">+</text>
<text x="268.95" y="372.11">.</text>
<text x="101.63" y="391.24">*</text>
<text x="480.66" y="45.92">+</text>
<text x="482.01" y="43.22">+</text>
<text x="276.24" y="87.75">.</text>

</svg>