
<svg viewBox="0 0 500 500" xmlns="http://www.w.org/2000/svg" width="100%" height="100%" style="background-color: #0a0a14; font-family: 'Courier New', Courier, monospace;">
    <style>
        text { fill: #aaa; font-size: 10px; text-anchor: middle; dominant-baseline: middle; }
    </style>
    <text x="276.66" y="207.37">.</text>
<text x="382.79" y="234.26">.</text>
<text x="177.25" y="434.39">+</text>
<text x="476.17" y="52.61">+</text>
<text x="464.22" y="257.16">.</text>
<text x="359.67" y="467.80">+</text>
<text x="451.16" y="403.57">+</text>
<text x="108.64" y="263.63">*</text>
<text x="300.66" y="302.99">+</text>
<text x="408.71" y="370.80">.</text>
<text x="186.32" y="495.99">.</text>
<text x="293.47" y="75.08">+</text>
<text x="45.08" y="324.83">+</text>
<text x="332.33" y="74.56">.</text>
<text x="408.27" y="36.95">.</text>
<text x="101.42" y="313.01">+</text>
<text x="80.97" y="383.03">+</text>
<text x="283.76" y="242.54">*</text>
<text x="314.22" y="487.22">.</text>
<text x="411.04" y="136.51">+</text>
<text x="255.86" y="18.80">+</text>
<text x="499.11" y="414.95">+</text>
<text x="117.18" y="362.01">.</text>
<text x="174.69" y="70.57">.</text>
<text x="361.98" y="338.50">.</text>
<text x="250.64" y="365.03">+</text>
<text x="1.29" y="424.94">*</text>
<text x="431.33" y="356.35">.</text>
<text x="268.18" y="258.96">.</text>
<text x="86.39" y="208.42">+</text>
<text x="175.54" y="464.26">.</text>
<text x="274.44" y="45.54">.</text>
<text x="100.36" y="51.68">+</text>
<text x="487.31" y="255.71">.</text>
<text x="420.41" y="144.01">+</text>
<text x="50.02" y="81.51">*</text>
<text x="189.56" y="459.97">+</text>
<text x="33.70" y="252.52">.</text>
<text x="222.23" y="352.31">+</text>
<text x="291.37" y="115.87">.</text>
<text x="179.81" y="246.25">+</text>
<text x="219.06" y="267.84">+</text>
<text x="61.33" y="140.96">+</text>
<text x="40.67" y="126.55">+</text>
<text x="398.58" y="112.62">.</text>
<text x="127.76" y="176.72">.</text>
<text x="209.34" y="242.17">.</text>
<text x="206.86" y="461.16">.</text>
<text x="77.75" y="492.09">.</text>
<text x="354.50" y="200.45">+</text>
<text x="155.33" y="396.15">.</text>
<text x="350.83" y="492.15">.</text>
<text x="431.49" y="74.28">+</text>
<text x="484.34" y="103.26">+</text>
<text x="246.95" y="18.27">+</text>
<text x="305.27" y="403.71">+</text>
<text x="156.28" y="184.73">.</text>
<text x="44.69" y="420.40">+</text>
<text x="401.35" y="193.31">+</text>
<text x="61.09" y="25.99">*</text>
<text x="348.91" y="346.62">.</text>
<text x="303.07" y="346.67">+</text>
<text x="46.83" y="275.97">.</text>
<text x="325.88" y="95.39">+</text>
<text x="192.86" y="111.66">.</text>
<text x="163.55" y="393.24">+</text>
<text x="421.84" y="37.42">.</text>
<text x="162.69" y="197.90">.</text>
<text x="363.58" y="427.25">.</text>
<text x="83.07" y="182.34">.</text>
<text x="223.73" y="361.59">+</text>
<text x="459.77" y="70.48">*</text>
<text x="102.22" y="372.88">*</text>
<text x="368.89" y="125.01">+</text>
<text x="110.63" y="187.13">+</text>
<text x="239.07" y="324.60">.</text>
<text x="41.57" y="13.34">*</text>
<text x="81.76" y="115.78">+</text>
<text x="210.47" y="208.35">*</text>
<text x="336.91" y="157.53">.</text>
<text x="468.95" y="311.77">+</text>
<text x="349.38" y="31.84">.</text>
<text x="26.20" y="393.95">+</text>
<text x="411.49" y="63.51">.</text>
<text x="112.33" y="498.20">+</text>
<text x="283.60" y="300.13">+</text>
<text x="333.18" y="413.25">+</text>
<text x="489.59" y="159.66">*</text>
<text x="45.01" y="79.81">+</text>
<text x="204.00" y="48.73">+</text>
<text x="68.30" y="202.69">+</text>
<text x="32.25" y="206.16">+</text>
<text x="150.25" y="254.27">+</text>
<text x="235.68" y="133.50">.</text>
<text x="236.85" y="111.33">+</text>
<text x="358.59" y="18.14">.</text>
<text x="31.87" y="269.23">.</text>
<text x="333.97" y="207.55">.</text>
<text x="197.14" y="89.98">+</text>
<text x="368.57" y="261.14">*</text>
<text x="412.37" y="390.08">.</text>
<text x="87.99" y="0.66">.</text>
<text x="450.43" y="452.57">+</text>
<text x="419.67" y="452.34">+</text>
<text x="276.32" y="299.01">.</text>
<text x="156.24" y="79.27">+</text>
<text x="77.41" y="447.99">+</text>
<text x="283.24" y="194.60">.</text>
<text x="470.63" y="477.26">.</text>
<text x="350.46" y="452.06">+</text>
<text x="116.95" y="490.73">+</text>
<text x="219.34" y="464.51">.</text>
<text x="235.00" y="423.00">.</text>
<text x="175.68" y="271.35">.</text>
<text x="60.64" y="25.76">.</text>
<text x="246.77" y="219.75">+</text>
<text x="434.10" y="266.93">+</text>
<text x="478.89" y="380.61">.</text>
<text x="343.79" y="328.23">.</text>
<text x="140.73" y="253.55">+</text>
<text x="389.61" y="332.54">+</text>
<text x="315.33" y="259.97">*</text>
<text x="410.02" y="312.63">+</text>
<text x="152.57" y="167.40">+</text>
<text x="213.92" y="495.19">.</text>
<text x="215.90" y="146.74">+</text>
<text x="442.10" y="273.79">+</text>
<text x="449.99" y="249.67">.</text>
<text x="250.18" y="144.19">+</text>
<text x="406.62" y="234.91">+</text>
<text x="490.96" y="182.08">.</text>
<text x="170.43" y="240.59">.</text>
<text x="7.09" y="450.54">.</text>
<text x="238.42" y="310.76">+</text>
<text x="393.17" y="471.99">+</text>
<text x="322.67" y="454.03">*</text>
<text x="102.98" y="144.13">.</text>
<text x="132.91" y="368.17">+</text>
<text x="75.17" y="249.42">+</text>
<text x="474.52" y="433.28">*</text>
<text x="404.17" y="443.45">.</text>
<text x="303.95" y="48.22">.</text>
<text x="191.46" y="388.47">+</text>
<text x="100.92" y="312.77">*</text>
<text x="314.61" y="451.93">.</text>
<text x="91.59" y="56.09">.</text>
<text x="493.58" y="476.80">+</text>
<text x="458.32" y="245.21">*</text>
<text x="441.30" y="439.80">+</text>
<text x="186.50" y="292.03">.</text>
<text x="244.02" y="253.61">+</text>
<text x="154.16" y="109.77">+</text>
<text x="104.42" y="410.63">.</text>
<text x="433.49" y="29.69">+</text>
<text x="455.39" y="74.87">+</text>
<text x="158.15" y="168.53">+</text>
<text x="421.16" y="371.21">+</text>
<text x="242.30" y="247.97">.</text>
<text x="61.81" y="351.91">.</text>
<text x="260.10" y="144.34">*</text>
<text x="136.02" y="42.29">.</text>
<text x="57.84" y="82.06">+</text>
<text x="198.44" y="434.58">*</text>
<text x="261.50" y="355.33">.</text>
<text x="466.72" y="67.31">.</text>
<text x="237.69" y="348.37">.</text>
<text x="491.66" y="121.24">+</text>
<text x="154.22" y="402.58">+</text>
<text x="398.86" y="120.96">.</text>
<text x="309.66" y="154.32">+</text>
<text x="462.19" y="323.77">+</text>
<text x="442.36" y="447.63">*</text>
<text x="21.19" y="390.85">.</text>
<text x="57.83" y="372.68">+</text>
<text x="482.86" y="189.65">.</text>
<text x="90.44" y="419.66">*</text>
<text x="419.81" y="193.66">+</text>
<text x="163.52" y="22.28">+</text>
<text x="142.48" y="165.30">.</text>
<text x="115.66" y="368.30">.</text>
<text x="374.60" y="223.17">.</text>
<text x="62.63" y="396.84">+</text>
<text x="433.39" y="83.59">+</text>
<text x="135.68" y="153.30">+</text>
<text x="476.87" y="137.78">+</text>
<text x="471.20" y="449.41">.</text>
<text x="47.76" y="362.70">.</text>
<text x="214.71" y="80.28">+</text>
<text x="261.51" y="215.59">.</text>
<text x="325.29" y="59.14">*</text>
<text x="277.77" y="269.61">+</text>
<text x="92.85" y="360.99">.</text>
<text x="280.37" y="193.25">.</text>
<text x="270.30" y="457.33">+</text>
<text x="57.08" y="158.34">+</text>
<text x="81.00" y="106.36">.</text>
<text x="46.15" y="126.96">+</text>
<text x="207.95" y="240.93">+</text>
<text x="166.69" y="388.89">+</text>
<text x="221.07" y="319.85">.</text>
<text x="447.04" y="417.75">+</text>
<text x="399.84" y="499.08">+</text>
<text x="379.08" y="422.17">.</text>
<text x="432.69" y="447.19">+</text>
<text x="23.82" y="241.65">+</text>
<text x="165.27" y="17.86">+</text>
<text x="75.09" y="415.25">.</text>
<text x="440.48" y="27.97">+</text>
<text x="493.55" y="469.47">*</text>
<text x="316.75" y="151.02">+</text>
<text x="10.88" y="210.99">.</text>
<text x="253.25" y="24.68">.</text>
<text x="273.26" y="337.14">.</text>
<text x="467.50" y="81.38">+</text>
<text x="17.81" y="282.69">.</text>

</svg>