
<svg viewBox="0 0 500 500" xmlns="http://www.w.org/2000/svg" width="100%" height="100%" style="background-color: #0a0a14; font-family: 'Courier New', Courier, monospace;">
    <style>
        text { fill: #aaa; font-size: 10px; text-anchor: middle; dominant-baseline: middle; }
    </style>
    <text x="372.73" y="189.07">.</text>
<text x="313.03" y="86.87">.</text>
<text x="278.40" y="343.91">+</text>
<text x="374.42" y="487.34">+</text>
<text x="287.52" y="396.67">.</text>
<text x="153.26" y="373.11">+</text>
<text x="55.43" y="368.96">.</text>
<text x="412.95" y="143.05">+</text>
<text x="130.08" y="281.03">.</text>
<text x="213.93" y="463.18">.</text>
<text x="280.29" y="75.49">.</text>
<text x="272.81" y="466.76">+</text>
<text x="144.73" y="452.07">.</text>
<text x="299.38" y="425.84">.</text>
<text x="440.19" y="128.57">.</text>
<text x="22.63" y="182.54">.</text>
<text x="370.78" y="89.40">.</text>
<text x="194.67" y="342.18">.</text>
<text x="36.73" y="243.68">+</text>
<text x="207.39" y="197.09">*</text>
<text x="10.13" y="480.50">*</text>
<text x="209.10" y="321.12">+</text>
<text x="18.98" y="151.19">.</text>
<text x="69.10" y="387.21">+</text>
<text x="295.41" y="403.52">.</text>
<text x="264.42" y="274.98">.</text>
<text x="396.33" y="182.43">.</text>
<text x="239.51" y="437.94">*</text>
<text x="103.92" y="63.86">*</text>
<text x="455.92" y="69.16">+</text>
<text x="354.52" y="230.74">.</text>
<text x="444.04" y="187.20">.</text>
<text x="95.85" y="217.46">+</text>
<text x="277.22" y="157.85">.</text>
<text x="376.59" y="56.21">*</text>
<text x="435.10" y="98.28">+</text>
<text x="492.17" y="465.51">+</text>
<text x="354.51" y="267.42">+</text>
<text x="459.05" y="190.93">.</text>
<text x="89.79" y="181.90">*</text>
<text x="491.92" y="332.38">+</text>
<text x="314.07" y="382.55">.</text>
<text x="348.44" y="184.84">+</text>
<text x="198.28" y="454.13">+</text>
<text x="192.72" y="174.43">*</text>
<text x="401.80" y="406.96">.</text>
<text x="195.28" y="378.67">.</text>
<text x="124.97" y="53.60">*</text>
<text x="40.14" y="164.45">.</text>
<text x="121.99" y="46.22">*</text>
<text x="406.97" y="56.32">.</text>
<text x="69.43" y="50.48">+</text>
<text x="16.58" y="133.32">+</text>
<text x="380.20" y="112.54">.</text>
<text x="102.25" y="240.02">+</text>
<text x="392.03" y="111.21">*</text>
<text x="391.25" y="134.58">+</text>
<text x="39.99" y="397.24">*</text>
<text x="347.55" y="417.95">.</text>
<text x="45.57" y="37.56">.</text>
<text x="331.42" y="410.63">.</text>
<text x="273.95" y="495.60">.</text>
<text x="165.90" y="199.94">*</text>
<text x="14.66" y="330.24">.</text>
<text x="156.92" y="420.10">.</text>
<text x="36.79" y="104.73">*</text>
<text x="336.82" y="349.94">+</text>
<text x="488.54" y="370.66">.</text>
<text x="8.56" y="256.33">+</text>
<text x="263.58" y="430.31">.</text>
<text x="72.82" y="180.44">.</text>
<text x="69.25" y="250.66">*</text>
<text x="236.88" y="396.98">+</text>
<text x="20.67" y="181.76">+</text>
<text x="292.58" y="173.87">.</text>
<text x="296.27" y="384.24">+</text>
<text x="111.23" y="114.00">+</text>
<text x="409.24" y="280.78">+</text>
<text x="367.28" y="342.38">.</text>
<text x="250.45" y="337.68">.</text>
<text x="335.62" y="37.99">.</text>
<text x="264.40" y="131.26">*</text>
<text x="349.79" y="499.33">+</text>
<text x="431.43" y="66.75">+</text>
<text x="81.40" y="66.82">+</text>
<text x="65.80" y="291.37">+</text>
<text x="68.09" y="83.08">.</text>
<text x="236.15" y="224.21">.</text>
<text x="489.76" y="139.71">.</text>
<text x="451.69" y="407.13">+</text>
<text x="44.19" y="360.87">.</text>
<text x="374.13" y="474.27">.</text>
<text x="110.52" y="215.97">+</text>
<text x="206.99" y="332.51">+</text>
<text x="235.01" y="150.82">.</text>
<text x="254.99" y="223.20">*</text>
<text x="312.52" y="38.48">.</text>
<text x="487.54" y="234.48">+</text>
<text x="6.88" y="465.65">.</text>
<text x="378.44" y="22.66">.</text>
<text x="165.31" y="459.05">*</text>
<text x="344.62" y="211.32">.</text>
<text x="115.28" y="312.70">+</text>
<text x="149.10" y="268.92">.</text>
<text x="3.94" y="366.52">+</text>
<text x="35.53" y="238.66">+</text>
<text x="200.65" y="113.69">+</text>
<text x="308.07" y="399.86">*</text>
<text x="182.76" y="384.05">.</text>
<text x="87.94" y="39.35">+</text>
<text x="332.62" y="183.12">.</text>
<text x="205.18" y="232.40">+</text>
<text x="277.32" y="327.21">+</text>
<text x="336.07" y="210.94">+</text>
<text x="129.26" y="383.32">.</text>
<text x="283.44" y="382.23">.</text>
<text x="338.29" y="398.97">+</text>
<text x="476.93" y="63.15">+</text>
<text x="39.20" y="94.18">.</text>
<text x="386.39" y="51.90">*</text>
<text x="242.21" y="366.96">+</text>
<text x="350.00" y="245.45">*</text>
<text x="81.38" y="189.00">*</text>
<text x="248.79" y="28.78">.</text>
<text x="47.38" y="263.40">*</text>
<text x="251.09" y="30.23">.</text>
<text x="214.10" y="68.26">+</text>
<text x="77.72" y="379.98">*</text>
<text x="249.27" y="191.34">.</text>
<text x="237.17" y="227.38">.</text>
<text x="89.02" y="292.53">+</text>
<text x="241.09" y="441.29">+</text>
<text x="157.80" y="494.35">+</text>
<text x="345.13" y="255.02">.</text>
<text x="282.01" y="198.83">*</text>
<text x="240.09" y="86.32">.</text>
<text x="37.98" y="305.01">+</text>
<text x="447.15" y="367.40">.</text>
<text x="364.92" y="198.56">.</text>
<text x="6.61" y="492.17">.</text>
<text x="457.95" y="179.79">.</text>
<text x="318.51" y="149.36">.</text>
<text x="406.66" y="444.53">+</text>
<text x="408.28" y="302.34">+</text>
<text x="409.36" y="39.59">+</text>
<text x="213.35" y="430.15">+</text>
<text x="435.24" y="223.87">+</text>
<text x="318.90" y="130.11">.</text>
<text x="16.38" y="310.53">*</text>
<text x="337.50" y="370.27">+</text>
<text x="72.98" y="85.62">+</text>
<text x="309.05" y="160.41">.</text>
<text x="173.01" y="0.67">+</text>
<text x="95.45" y="239.82">*</text>
<text x="165.90" y="69.78">+</text>
<text x="389.98" y="8.32">+</text>
<text x="483.30" y="219.38">+</text>
<text x="196.17" y="205.81">*</text>
<text x="460.54" y="331.52">+</text>
<text x="411.79" y="184.90">+</text>
<text x="408.13" y="405.74">+</text>
<text x="58.75" y="333.17">+</text>
<text x="53.58" y="475.23">.</text>
<text x="202.73" y="498.35">+</text>
<text x="430.82" y="280.52">.</text>
<text x="455.39" y="52.43">*</text>
<text x="459.57" y="282.30">*</text>
<text x="391.86" y="82.53">*</text>
<text x="150.84" y="200.78">+</text>
<text x="495.59" y="52.28">*</text>
<text x="346.26" y="138.17">.</text>
<text x="411.81" y="224.80">+</text>
<text x="71.81" y="158.59">*</text>
<text x="250.76" y="365.64">+</text>
<text x="355.18" y="265.13">+</text>
<text x="441.02" y="232.57">*</text>
<text x="7.95" y="284.60">.</text>
<text x="266.72" y="146.31">+</text>
<text x="175.73" y="467.21">+</text>
<text x="41.58" y="164.85">+</text>
<text x="317.61" y="384.93">.</text>
<text x="259.65" y="231.96">+</text>
<text x="392.71" y="305.44">+</text>
<text x="164.27" y="218.39">+</text>
<text x="406.67" y="129.79">*</text>
<text x="395.10" y="92.91">+</text>
<text x="326.83" y="182.88">.</text>
<text x="205.88" y="471.38">*</text>
<text x="78.49" y="80.86">+</text>
<text x="271.30" y="366.94">.</text>
<text x="211.82" y="470.14">.</text>
<text x="451.88" y="205.22">+</text>
<text x="308.29" y="474.06">+</text>
<text x="200.06" y="282.58">+</text>
<text x="393.61" y="495.66">*</text>
<text x="137.72" y="33.15">+</text>
<text x="25.96" y="398.03">+</text>
<text x="230.35" y="370.24">.</text>
<text x="360.35" y="337.48">.</text>
<text x="41.98" y="172.93">+</text>
<text x="211.34" y="95.89">+</text>
<text x="472.30" y="469.51">.</text>

</svg>