
<svg viewBox="0 0 500 500" xmlns="http://www.w.org/2000/svg" width="100%" height="100%" style="background-color: #0a0a14; font-family: 'Courier New', Courier, monospace;">
    <style>
        text { fill: #aaa; font-size: 10px; text-anchor: middle; dominant-baseline: middle; }
    </style>
    <text x="480.04" y="147.83">+</text>
<text x="429.32" y="452.22">+</text>
<text x="32.50" y="278.66">*</text>
<text x="88.18" y="155.36">.</text>
<text x="34.76" y="100.89">+</text>
<text x="354.49" y="191.65">.</text>
<text x="82.76" y="425.33">+</text>
<text x="457.36" y="373.88">+</text>
<text x="88.50" y="428.75">.</text>
<text x="484.45" y="299.49">.</text>
<text x="327.57" y="19.37">.</text>
<text x="271.50" y="365.72">.</text>
<text x="55.49" y="225.53">.</text>
<text x="158.27" y="189.70">.</text>
<text x="94.81" y="197.62">+</text>
<text x="381.22" y="57.09">+</text>
<text x="346.23" y="215.22">.</text>
<text x="489.33" y="415.95">+</text>
<text x="98.32" y="27.23">+</text>
<text x="409.59" y="73.58">.</text>
<text x="351.58" y="484.61">+</text>
<text x="393.96" y="276.67">+</text>
<text x="9.25" y="87.44">+</text>
<text x="113.64" y="22.28">.</text>
<text x="279.66" y="454.77">.</text>
<text x="102.28" y="342.37">.</text>
<text x="200.11" y="214.97">*</text>
<text x="74.33" y="268.34">.</text>
<text x="233.16" y="33.49">.</text>
<text x="2.59" y="28.76">.</text>
<text x="219.47" y="381.46">+</text>
<text x="211.61" y="126.51">+</text>
<text x="25.49" y="189.14">+</text>
<text x="410.38" y="203.49">+</text>
<text x="198.92" y="195.07">+</text>
<text x="305.48" y="185.60">.</text>
<text x="53.51" y="24.94">+</text>
<text x="355.86" y="219.77">*</text>
<text x="254.43" y="47.04">.</text>
<text x="155.27" y="393.42">+</text>
<text x="305.66" y="344.52">*</text>
<text x="239.11" y="159.31">.</text>
<text x="435.39" y="357.71">+</text>
<text x="151.10" y="194.84">+</text>
<text x="92.76" y="369.67">+</text>
<text x="149.44" y="273.08">+</text>
<text x="31.52" y="470.76">.</text>
<text x="477.75" y="343.73">+</text>
<text x="139.56" y="277.31">.</text>
<text x="440.48" y="155.71">.</text>
<text x="43.23" y="463.67">*</text>
<text x="200.61" y="117.78">*</text>
<text x="375.73" y="107.24">*</text>
<text x="442.44" y="201.32">+</text>
<text x="152.69" y="149.25">*</text>
<text x="332.09" y="286.41">.</text>
<text x="197.91" y="231.90">+</text>
<text x="171.44" y="19.63">.</text>
<text x="297.00" y="112.04">.</text>
<text x="320.45" y="331.48">+</text>
<text x="58.19" y="89.58">.</text>
<text x="12.07" y="306.07">*</text>
<text x="45.25" y="0.27">+</text>
<text x="118.64" y="482.04">+</text>
<text x="275.30" y="449.01">+</text>
<text x="382.38" y="314.02">.</text>
<text x="366.88" y="48.82">+</text>
<text x="82.66" y="77.12">+</text>
<text x="211.37" y="160.06">.</text>
<text x="252.57" y="91.12">.</text>
<text x="94.21" y="400.35">.</text>
<text x="457.60" y="247.27">.</text>
<text x="448.50" y="223.60">.</text>
<text x="301.06" y="335.14">.</text>
<text x="321.17" y="371.89">*</text>
<text x="203.82" y="178.58">.</text>
<text x="282.92" y="213.26">.</text>
<text x="128.53" y="323.97">.</text>
<text x="32.21" y="203.74">.</text>
<text x="7.96" y="254.47">.</text>
<text x="386.79" y="313.64">+</text>
<text x="322.48" y="460.46">.</text>
<text x="64.11" y="128.69">*</text>
<text x="81.59" y="159.34">.</text>
<text x="246.10" y="211.19">.</text>
<text x="47.05" y="254.45">+</text>
<text x="287.85" y="145.38">+</text>
<text x="303.82" y="315.03">.</text>
<text x="30.67" y="126.36">+</text>
<text x="436.57" y="190.62">+</text>
<text x="324.91" y="235.22">.</text>
<text x="139.95" y="284.43">.</text>
<text x="107.44" y="295.11">+</text>
<text x="232.99" y="477.56">+</text>
<text x="460.33" y="293.27">*</text>
<text x="121.37" y="85.16">+</text>
<text x="261.48" y="121.63">.</text>
<text x="322.96" y="271.46">+</text>
<text x="378.85" y="162.18">+</text>
<text x="456.42" y="158.63">*</text>
<text x="24.49" y="499.84">.</text>
<text x="455.74" y="464.07">+</text>
<text x="262.74" y="457.47">.</text>
<text x="33.90" y="258.21">+</text>
<text x="58.59" y="73.83">.</text>
<text x="76.86" y="476.09">*</text>
<text x="398.83" y="354.14">.</text>
<text x="123.40" y="382.55">.</text>
<text x="306.97" y="70.30">.</text>
<text x="439.37" y="416.25">.</text>
<text x="114.90" y="214.18">+</text>
<text x="107.97" y="359.50">+</text>
<text x="69.20" y="340.56">.</text>
<text x="157.82" y="108.76">*</text>
<text x="386.57" y="182.47">+</text>
<text x="279.30" y="393.74">.</text>
<text x="53.33" y="285.33">.</text>
<text x="227.47" y="130.11">+</text>
<text x="232.11" y="114.11">+</text>
<text x="281.58" y="48.37">*</text>
<text x="121.37" y="407.80">.</text>
<text x="270.80" y="65.73">.</text>
<text x="11.67" y="131.17">+</text>
<text x="296.53" y="314.60">.</text>
<text x="27.32" y="290.74">+</text>
<text x="53.31" y="52.95">.</text>
<text x="66.43" y="371.14">.</text>
<text x="1.33" y="14.88">+</text>
<text x="96.63" y="378.61">.</text>
<text x="473.55" y="449.06">.</text>
<text x="299.95" y="309.65">.</text>
<text x="75.04" y="56.56">.</text>
<text x="16.16" y="214.63">+</text>
<text x="375.18" y="365.42">+</text>
<text x="196.57" y="183.15">.</text>
<text x="10.76" y="136.29">.</text>
<text x="414.92" y="134.70">+</text>
<text x="210.21" y="437.72">+</text>
<text x="77.30" y="223.60">+</text>
<text x="263.70" y="488.25">.</text>
<text x="184.85" y="100.29">+</text>
<text x="449.22" y="375.73">+</text>
<text x="355.30" y="447.82">+</text>
<text x="453.20" y="134.50">+</text>
<text x="459.02" y="295.26">.</text>
<text x="20.87" y="408.26">.</text>
<text x="484.51" y="80.24">+</text>
<text x="434.29" y="260.47">.</text>
<text x="194.29" y="48.68">*</text>
<text x="396.93" y="276.19">+</text>
<text x="271.81" y="387.05">.</text>
<text x="188.22" y="286.35">.</text>
<text x="327.44" y="360.03">.</text>
<text x="345.10" y="273.41">.</text>
<text x="272.74" y="419.34">.</text>
<text x="146.00" y="225.90">+</text>
<text x="117.29" y="113.43">.</text>
<text x="45.62" y="71.23">+</text>
<text x="400.08" y="152.03">+</text>
<text x="333.59" y="204.59">*</text>
<text x="287.59" y="91.32">+</text>
<text x="64.89" y="205.18">.</text>
<text x="410.59" y="138.74">+</text>
<text x="243.56" y="229.18">+</text>
<text x="236.11" y="51.25">+</text>
<text x="93.49" y="47.13">*</text>
<text x="475.31" y="426.79">+</text>
<text x="16.05" y="37.71">.</text>
<text x="302.99" y="368.97">.</text>
<text x="233.82" y="420.08">.</text>
<text x="71.18" y="20.17">*</text>
<text x="307.64" y="310.39">.</text>
<text x="431.83" y="12.95">.</text>
<text x="144.37" y="125.73">+</text>
<text x="205.94" y="64.41">.</text>
<text x="345.55" y="51.34">.</text>
<text x="359.09" y="412.63">*</text>
<text x="463.39" y="115.27">*</text>
<text x="318.32" y="60.45">+</text>
<text x="64.99" y="246.05">+</text>
<text x="7.55" y="45.10">.</text>
<text x="215.56" y="221.04">*</text>
<text x="230.75" y="375.38">+</text>
<text x="78.74" y="93.71">+</text>
<text x="12.57" y="24.91">+</text>
<text x="16.45" y="274.15">+</text>
<text x="491.16" y="279.30">.</text>
<text x="236.91" y="53.10">.</text>
<text x="58.04" y="419.58">.</text>
<text x="140.29" y="84.82">.</text>
<text x="129.11" y="341.28">.</text>
<text x="139.25" y="492.63">.</text>
<text x="301.68" y="101.29">+</text>
<text x="362.63" y="109.62">+</text>
<text x="208.98" y="74.66">+</text>
<text x="152.06" y="494.53">+</text>
<text x="429.87" y="477.87">+</text>
<text x="245.61" y="57.76">+</text>
<text x="378.77" y="147.72">.</text>
<text x="377.32" y="492.59">.</text>
<text x="244.17" y="420.29">.</text>
<text x="292.01" y="469.59">+</text>

</svg>