
<svg viewBox="0 0 500 500" xmlns="http://www.w.org/2000/svg" width="100%" height="100%" style="background-color: #0a0a14; font-family: 'Courier New', Courier, monospace;">
    <style>
        text { fill: #aaa; font-size: 10px; text-anchor: middle; dominant-baseline: middle; }
    </style>
    <text x="148.48" y="218.03">+</text>
<text x="371.59" y="219.85">+</text>
<text x="253.93" y="369.97">+</text>
<text x="327.56" y="201.77">+</text>
<text x="401.03" y="435.55">+</text>
<text x="277.89" y="183.30">+</text>
<text x="467.57" y="300.57">+</text>
<text x="202.31" y="259.09">.</text>
<text x="96.99" y="87.05">+</text>
<text x="476.24" y="396.63">.</text>
<text x="451.47" y="323.30">.</text>
<text x="418.21" y="175.59">*</text>
<text x="324.49" y="93.02">.</text>
<text x="176.40" y="190.58">+</text>
<text x="483.24" y="437.95">+</text>
<text x="375.10" y="377.15">.</text>
<text x="32.87" y="465.38">+</text>
<text x="331.30" y="228.12">+</text>
<text x="141.66" y="299.53">+</text>
<text x="81.54" y="393.57">+</text>
<text x="399.59" y="326.94">+</text>
<text x="179.82" y="458.25">+</text>
<text x="169.28" y="491.86">*</text>
<text x="373.53" y="444.68">+</text>
<text x="261.06" y="360.27">.</text>
<text x="107.62" y="244.38">*</text>
<text x="37.68" y="77.05">+</text>
<text x="352.19" y="34.99">+</text>
<text x="92.10" y="90.78">+</text>
<text x="406.14" y="373.38">+</text>
<text x="454.41" y="31.56">.</text>
<text x="41.48" y="254.45">.</text>
<text x="199.20" y="120.99">*</text>
<text x="357.32" y="427.21">+</text>
<text x="269.77" y="123.00">+</text>
<text x="397.97" y="394.75">.</text>
<text x="286.46" y="468.14">.</text>
<text x="151.83" y="358.05">.</text>
<text x="174.14" y="64.66">.</text>
<text x="466.80" y="382.15">+</text>
<text x="360.27" y="442.81">.</text>
<text x="395.54" y="78.09">+</text>
<text x="306.78" y="288.04">.</text>
<text x="469.07" y="379.91">+</text>
<text x="282.62" y="359.99">+</text>
<text x="485.30" y="303.24">+</text>
<text x="433.25" y="383.90">+</text>
<text x="423.58" y="215.33">.</text>
<text x="303.99" y="224.25">.</text>
<text x="437.43" y="91.88">.</text>
<text x="383.00" y="281.40">+</text>
<text x="171.95" y="217.90">*</text>
<text x="475.91" y="394.71">*</text>
<text x="101.15" y="190.48">.</text>
<text x="438.12" y="159.15">+</text>
<text x="252.88" y="261.37">+</text>
<text x="92.12" y="172.43">+</text>
<text x="370.28" y="449.45">+</text>
<text x="235.95" y="24.23">.</text>
<text x="303.43" y="271.38">.</text>
<text x="355.26" y="44.13">+</text>
<text x="474.32" y="475.53">+</text>
<text x="373.75" y="14.47">+</text>
<text x="469.39" y="136.05">.</text>
<text x="294.18" y="14.68">+</text>
<text x="159.45" y="259.79">*</text>
<text x="189.06" y="177.41">+</text>
<text x="4.36" y="300.86">.</text>
<text x="422.22" y="490.34">.</text>
<text x="112.41" y="67.87">+</text>
<text x="330.60" y="307.04">.</text>
<text x="479.21" y="440.62">.</text>
<text x="240.48" y="319.91">+</text>
<text x="113.36" y="51.04">+</text>
<text x="37.90" y="282.91">+</text>
<text x="237.88" y="366.65">.</text>
<text x="176.06" y="85.01">+</text>
<text x="8.74" y="100.98">.</text>
<text x="333.53" y="270.56">+</text>
<text x="96.00" y="249.86">*</text>
<text x="477.90" y="150.36">+</text>
<text x="30.95" y="42.56">+</text>
<text x="386.24" y="132.47">.</text>
<text x="130.81" y="147.13">+</text>
<text x="461.16" y="276.54">.</text>
<text x="403.80" y="203.25">*</text>
<text x="202.51" y="452.98">*</text>
<text x="308.97" y="491.98">*</text>
<text x="266.26" y="436.54">+</text>
<text x="179.03" y="58.50">+</text>
<text x="426.49" y="376.66">+</text>
<text x="92.82" y="66.08">.</text>
<text x="496.58" y="13.46">.</text>
<text x="57.32" y="203.04">.</text>
<text x="186.57" y="415.60">.</text>
<text x="253.82" y="471.75">.</text>
<text x="232.04" y="429.68">*</text>
<text x="408.80" y="161.39">.</text>
<text x="356.74" y="217.39">+</text>
<text x="173.19" y="289.34">*</text>
<text x="469.31" y="176.44">+</text>
<text x="16.26" y="419.69">.</text>
<text x="126.14" y="241.13">*</text>
<text x="440.87" y="311.80">.</text>
<text x="390.17" y="159.17">.</text>
<text x="94.20" y="213.28">+</text>
<text x="269.92" y="386.88">*</text>
<text x="278.77" y="145.82">+</text>
<text x="31.65" y="244.69">+</text>
<text x="61.52" y="16.76">*</text>
<text x="497.17" y="276.22">.</text>
<text x="420.72" y="243.96">+</text>
<text x="441.36" y="375.44">.</text>
<text x="377.96" y="195.82">+</text>
<text x="154.56" y="478.21">.</text>
<text x="129.50" y="465.09">+</text>
<text x="35.85" y="150.52">.</text>
<text x="423.81" y="414.85">.</text>
<text x="84.30" y="233.56">.</text>
<text x="79.93" y="272.13">+</text>
<text x="348.02" y="377.20">*</text>
<text x="273.03" y="345.87">.</text>
<text x="316.31" y="132.21">.</text>
<text x="489.58" y="148.07">.</text>
<text x="373.32" y="23.33">.</text>
<text x="468.78" y="78.53">+</text>
<text x="340.87" y="172.64">+</text>
<text x="215.40" y="38.08">.</text>
<text x="26.74" y="44.28">+</text>
<text x="498.33" y="304.81">+</text>
<text x="321.71" y="37.23">+</text>
<text x="96.77" y="194.62">+</text>
<text x="232.72" y="317.12">+</text>
<text x="271.28" y="330.17">*</text>
<text x="168.09" y="222.61">*</text>
<text x="237.40" y="165.38">.</text>
<text x="445.17" y="415.40">.</text>
<text x="298.33" y="242.79">+</text>
<text x="297.23" y="380.42">.</text>
<text x="411.19" y="483.76">.</text>
<text x="443.90" y="477.03">.</text>
<text x="450.20" y="140.73">*</text>
<text x="370.30" y="187.33">*</text>
<text x="219.94" y="177.25">*</text>
<text x="63.94" y="377.10">*</text>
<text x="456.44" y="367.92">*</text>
<text x="18.05" y="266.87">+</text>
<text x="127.47" y="240.41">+</text>
<text x="219.12" y="62.48">+</text>
<text x="91.50" y="353.24">+</text>
<text x="358.46" y="178.49">+</text>
<text x="453.41" y="428.47">+</text>
<text x="404.33" y="324.00">.</text>
<text x="380.57" y="79.59">.</text>
<text x="256.87" y="440.94">.</text>
<text x="305.41" y="462.32">.</text>
<text x="313.23" y="108.64">*</text>
<text x="31.60" y="364.88">.</text>
<text x="248.07" y="52.78">+</text>
<text x="113.45" y="441.13">.</text>
<text x="283.87" y="318.87">+</text>
<text x="176.27" y="105.81">+</text>
<text x="170.55" y="201.21">+</text>
<text x="364.65" y="319.00">.</text>
<text x="285.35" y="221.84">*</text>
<text x="28.53" y="394.45">+</text>
<text x="417.90" y="375.01">+</text>
<text x="262.14" y="255.70">+</text>
<text x="91.34" y="490.61">.</text>
<text x="192.86" y="222.06">+</text>
<text x="432.49" y="191.94">+</text>
<text x="102.60" y="69.91">.</text>
<text x="314.28" y="213.03">.</text>
<text x="179.08" y="157.96">+</text>
<text x="460.51" y="183.16">+</text>
<text x="13.79" y="288.90">.</text>
<text x="54.81" y="490.97">.</text>
<text x="287.43" y="171.38">+</text>
<text x="28.11" y="373.14">+</text>
<text x="69.74" y="359.40">+</text>
<text x="482.72" y="38.43">+</text>
<text x="196.12" y="16.00">.</text>
<text x="87.84" y="332.41">+</text>
<text x="364.45" y="463.31">*</text>
<text x="380.72" y="391.89">.</text>
<text x="324.56" y="204.68">+</text>
<text x="271.31" y="115.28">+</text>
<text x="122.45" y="437.59">+</text>
<text x="194.65" y="456.46">+</text>
<text x="290.77" y="114.20">+</text>
<text x="64.89" y="47.92">.</text>
<text x="300.08" y="17.90">*</text>
<text x="314.06" y="194.56">.</text>
<text x="408.99" y="497.79">+</text>
<text x="370.31" y="87.71">+</text>
<text x="419.94" y="153.26">+</text>
<text x="491.06" y="278.53">.</text>
<text x="35.64" y="96.63">.</text>
<text x="203.41" y="356.43">+</text>
<text x="317.55" y="16.82">+</text>
<text x="151.82" y="37.49">.</text>
<text x="195.96" y="181.45">.</text>
<text x="82.59" y="220.65">.</text>
<text x="182.61" y="156.52">.</text>
<text x="377.95" y="282.15">*</text>
<text x="102.14" y="90.92">+</text>
<text x="265.99" y="25.01">+</text>
<text x="90.58" y="204.66">.</text>
<text x="68.46" y="144.11">+</text>
<text x="396.25" y="413.97">.</text>
<text x="42.18" y="158.49">+</text>

</svg>