
<svg viewBox="0 0 500 500" xmlns="http://www.w.org/2000/svg" width="100%" height="100%" style="background-color: #0a0a14; font-family: 'Courier New', Courier, monospace;">
    <style>
        text { fill: #aaa; font-size: 10px; text-anchor: middle; dominant-baseline: middle; }
    </style>
    <text x="26.64" y="427.34">*</text>
<text x="321.88" y="487.51">*</text>
<text x="435.89" y="230.60">+</text>
<text x="147.29" y="149.43">+</text>
<text x="364.07" y="322.68">*</text>
<text x="390.61" y="316.45">*</text>
<text x="51.73" y="110.44">+</text>
<text x="386.50" y="72.08">+</text>
<text x="405.53" y="281.74">+</text>
<text x="412.31" y="422.44">*</text>
<text x="170.93" y="332.70">.</text>
<text x="305.71" y="325.57">.</text>
<text x="50.93" y="415.27">+</text>
<text x="475.99" y="421.56">.</text>
<text x="390.88" y="221.89">+</text>
<text x="191.47" y="263.77">.</text>
<text x="353.98" y="245.35">.</text>
<text x="280.53" y="347.82">+</text>
<text x="96.10" y="428.81">.</text>
<text x="151.46" y="420.54">+</text>
<text x="19.06" y="477.01">*</text>
<text x="441.12" y="226.54">*</text>
<text x="369.94" y="469.59">+</text>
<text x="109.24" y="44.59">+</text>
<text x="5.82" y="471.81">.</text>
<text x="18.61" y="248.46">+</text>
<text x="112.42" y="156.77">+</text>
<text x="233.10" y="68.82">.</text>
<text x="379.85" y="4.38">+</text>
<text x="298.71" y="479.59">.</text>
<text x="468.15" y="395.53">.</text>
<text x="489.92" y="484.27">.</text>
<text x="277.37" y="280.41">+</text>
<text x="273.57" y="391.04">.</text>
<text x="380.14" y="17.69">*</text>
<text x="160.74" y="367.74">.</text>
<text x="395.00" y="376.72">+</text>
<text x="6.92" y="50.18">*</text>
<text x="330.89" y="360.22">.</text>
<text x="435.51" y="226.88">.</text>
<text x="302.33" y="165.87">+</text>
<text x="341.90" y="389.77">+</text>
<text x="460.09" y="453.79">.</text>
<text x="481.86" y="20.51">+</text>
<text x="78.69" y="421.92">+</text>
<text x="361.99" y="177.56">.</text>
<text x="138.02" y="249.51">+</text>
<text x="281.66" y="210.87">.</text>
<text x="299.11" y="58.14">*</text>
<text x="281.76" y="442.90">.</text>
<text x="10.82" y="64.37">+</text>
<text x="453.12" y="309.81">.</text>
<text x="425.68" y="213.33">+</text>
<text x="148.77" y="55.94">.</text>
<text x="234.15" y="268.39">.</text>
<text x="176.05" y="447.06">*</text>
<text x="163.84" y="189.89">.</text>
<text x="50.08" y="264.31">.</text>
<text x="291.13" y="178.95">.</text>
<text x="153.47" y="387.27">.</text>
<text x="295.14" y="416.90">+</text>
<text x="42.59" y="437.19">.</text>
<text x="397.04" y="350.61">.</text>
<text x="36.45" y="471.76">+</text>
<text x="278.84" y="129.11">+</text>
<text x="163.87" y="269.51">.</text>
<text x="200.60" y="418.85">+</text>
<text x="386.20" y="271.41">+</text>
<text x="12.31" y="251.02">*</text>
<text x="123.43" y="235.02">+</text>
<text x="314.49" y="493.43">+</text>
<text x="322.80" y="90.03">+</text>
<text x="469.53" y="333.63">.</text>
<text x="362.14" y="1.61">.</text>
<text x="148.86" y="34.59">.</text>
<text x="322.65" y="104.61">*</text>
<text x="293.33" y="292.28">*</text>
<text x="157.50" y="59.42">.</text>
<text x="306.29" y="79.72">+</text>
<text x="46.54" y="255.62">+</text>
<text x="40.45" y="342.01">+</text>
<text x="136.78" y="321.37">.</text>
<text x="84.72" y="100.67">+</text>
<text x="3.02" y="175.25">.</text>
<text x="258.69" y="133.41">+</text>
<text x="138.85" y="420.25">.</text>
<text x="84.68" y="97.88">.</text>
<text x="429.98" y="68.63">.</text>
<text x="170.07" y="412.07">.</text>
<text x="447.06" y="280.27">.</text>
<text x="124.70" y="56.43">+</text>
<text x="275.84" y="355.42">+</text>
<text x="215.49" y="462.42">*</text>
<text x="44.10" y="344.87">+</text>
<text x="268.17" y="240.47">+</text>
<text x="480.07" y="492.57">.</text>
<text x="21.98" y="341.78">+</text>
<text x="117.95" y="63.10">+</text>
<text x="195.31" y="227.05">*</text>
<text x="347.75" y="73.97">*</text>
<text x="182.87" y="202.63">*</text>
<text x="383.90" y="294.85">.</text>
<text x="473.42" y="342.14">+</text>
<text x="306.98" y="121.69">+</text>
<text x="137.29" y="490.05">+</text>
<text x="240.42" y="362.60">*</text>
<text x="402.00" y="8.52">+</text>
<text x="84.26" y="478.64">+</text>
<text x="461.38" y="281.69">+</text>
<text x="362.95" y="144.56">+</text>
<text x="278.66" y="1.66">*</text>
<text x="481.30" y="152.32">+</text>
<text x="169.98" y="304.13">.</text>
<text x="88.68" y="175.93">+</text>
<text x="26.87" y="477.85">+</text>
<text x="156.80" y="372.50">.</text>
<text x="147.59" y="326.75">.</text>
<text x="356.88" y="21.26">*</text>
<text x="20.46" y="261.06">+</text>
<text x="412.13" y="208.71">.</text>
<text x="142.26" y="354.96">.</text>
<text x="301.21" y="178.36">+</text>
<text x="397.57" y="76.17">+</text>
<text x="26.64" y="379.44">.</text>
<text x="131.37" y="475.17">+</text>
<text x="367.80" y="378.54">.</text>
<text x="361.36" y="25.11">.</text>
<text x="341.36" y="365.11">.</text>
<text x="144.17" y="324.33">+</text>
<text x="142.87" y="2.53">*</text>
<text x="272.10" y="287.84">*</text>
<text x="54.32" y="321.62">.</text>
<text x="469.31" y="261.07">+</text>
<text x="102.11" y="403.85">+</text>
<text x="183.02" y="193.04">+</text>
<text x="260.60" y="447.68">+</text>
<text x="379.81" y="351.36">.</text>
<text x="364.52" y="379.73">+</text>
<text x="99.48" y="274.02">.</text>
<text x="116.92" y="30.44">+</text>
<text x="222.87" y="8.94">.</text>
<text x="167.38" y="451.39">+</text>
<text x="122.45" y="293.03">+</text>
<text x="282.03" y="67.36">.</text>
<text x="166.13" y="85.82">*</text>
<text x="323.57" y="457.45">.</text>
<text x="73.98" y="48.31">.</text>
<text x="489.54" y="358.98">*</text>
<text x="399.94" y="343.91">.</text>
<text x="182.78" y="274.44">+</text>
<text x="396.62" y="423.51">.</text>
<text x="116.54" y="149.95">.</text>
<text x="161.02" y="227.48">*</text>
<text x="236.53" y="425.26">.</text>
<text x="375.74" y="355.54">+</text>
<text x="375.96" y="201.66">.</text>
<text x="39.84" y="97.57">+</text>
<text x="445.07" y="492.80">.</text>
<text x="86.86" y="6.99">+</text>
<text x="413.57" y="139.71">+</text>
<text x="428.70" y="187.03">.</text>
<text x="388.29" y="181.53">+</text>
<text x="440.41" y="9.17">.</text>
<text x="351.98" y="149.51">*</text>
<text x="132.97" y="174.53">.</text>
<text x="388.81" y="46.03">.</text>
<text x="173.10" y="432.68">*</text>
<text x="42.40" y="243.02">+</text>
<text x="361.93" y="0.24">.</text>
<text x="194.28" y="212.41">*</text>
<text x="370.54" y="255.30">.</text>
<text x="277.13" y="297.98">.</text>
<text x="131.52" y="94.46">.</text>
<text x="323.84" y="382.91">.</text>
<text x="439.88" y="266.91">.</text>
<text x="335.50" y="365.86">*</text>
<text x="200.62" y="300.40">.</text>
<text x="8.27" y="218.56">.</text>
<text x="103.07" y="251.31">+</text>
<text x="268.91" y="131.46">.</text>
<text x="93.81" y="92.17">+</text>
<text x="51.46" y="429.71">.</text>
<text x="142.14" y="113.12">.</text>
<text x="442.46" y="315.85">+</text>
<text x="127.42" y="237.40">*</text>
<text x="369.53" y="412.35">.</text>
<text x="362.20" y="43.81">.</text>
<text x="383.64" y="51.53">+</text>
<text x="243.16" y="424.18">.</text>
<text x="428.38" y="54.00">.</text>
<text x="33.44" y="98.90">.</text>
<text x="498.29" y="428.88">.</text>
<text x="470.11" y="52.21">.</text>
<text x="367.54" y="250.47">.</text>
<text x="430.64" y="8.51">.</text>
<text x="127.56" y="117.40">+</text>
<text x="193.21" y="302.56">.</text>
<text x="238.55" y="404.53">.</text>
<text x="142.64" y="67.43">.</text>
<text x="223.22" y="199.49">*</text>
<text x="477.96" y="242.82">*</text>
<text x="467.60" y="285.29">+</text>
<text x="62.08" y="276.47">+</text>
<text x="125.46" y="160.70">*</text>
<text x="47.75" y="499.76">+</text>
<text x="21.39" y="42.91">+</text>
<text x="439.29" y="76.80">+</text>
<text x="244.88" y="47.17">.</text>
<text x="454.03" y="410.40">+</text>
<text x="335.90" y="143.96">.</text>
<text x="99.59" y="470.50">+</text>
<text x="134.16" y="278.95">*</text>
<text x="17.02" y="118.84">.</text>
<text x="192.17" y="55.33">+</text>
<text x="167.03" y="493.45">.</text>
<text x="230.20" y="379.65">.</text>
<text x="129.06" y="460.10">+</text>
<text x="409.77" y="164.46">+</text>
<text x="417.66" y="399.83">.</text>
<text x="159.80" y="1.43">.</text>

</svg>