
<svg viewBox="0 0 500 500" xmlns="http://www.w.org/2000/svg" width="100%" height="100%" style="background-color: #0a0a14; font-family: 'Courier New', Courier, monospace;">
    <style>
        text { fill: #aaa; font-size: 10px; text-anchor: middle; dominant-baseline: middle; }
    </style>
    <text x="146.74" y="182.05">+</text>
<text x="415.23" y="131.92">+</text>
<text x="138.91" y="174.04">+</text>
<text x="12.93" y="232.02">*</text>
<text x="155.55" y="32.96">+</text>
<text x="341.99" y="132.60">+</text>
<text x="371.67" y="206.84">+</text>
<text x="134.67" y="116.14">*</text>
<text x="127.67" y="241.97">.</text>
<text x="215.03" y="22.44">.</text>
<text x="17.91" y="436.37">.</text>
<text x="357.90" y="57.54">+</text>
<text x="63.47" y="451.66">.</text>
<text x="2.69" y="363.62">.</text>
<text x="373.19" y="479.51">.</text>
<text x="207.03" y="355.45">.</text>
<text x="346.70" y="290.48">.</text>
<text x="410.08" y="15.92">+</text>
<text x="41.78" y="447.96">+</text>
<text x="103.46" y="170.71">.</text>
<text x="364.02" y="147.02">+</text>
<text x="198.73" y="6.27">.</text>
<text x="11.88" y="132.17">*</text>
<text x="104.77" y="322.28">+</text>
<text x="163.46" y="382.61">.</text>
<text x="91.20" y="301.59">*</text>
<text x="477.32" y="273.67">+</text>
<text x="463.85" y="342.77">.</text>
<text x="277.62" y="217.70">.</text>
<text x="103.52" y="299.09">+</text>
<text x="486.43" y="389.75">.</text>
<text x="360.22" y="497.78">.</text>
<text x="425.38" y="76.68">+</text>
<text x="287.13" y="242.86">.</text>
<text x="153.04" y="41.29">.</text>
<text x="74.09" y="494.81">+</text>
<text x="170.94" y="319.65">+</text>
<text x="192.54" y="384.79">+</text>
<text x="228.47" y="230.63">.</text>
<text x="218.94" y="238.26">+</text>
<text x="145.93" y="498.66">+</text>
<text x="477.40" y="444.03">+</text>
<text x="85.74" y="437.59">.</text>
<text x="410.85" y="462.40">+</text>
<text x="43.24" y="106.21">+</text>
<text x="358.45" y="76.95">.</text>
<text x="92.30" y="237.33">+</text>
<text x="107.88" y="187.05">*</text>
<text x="84.44" y="418.57">.</text>
<text x="311.93" y="306.77">+</text>
<text x="133.63" y="277.13">+</text>
<text x="325.74" y="13.63">+</text>
<text x="79.24" y="256.11">+</text>
<text x="71.37" y="38.50">+</text>
<text x="51.58" y="34.27">.</text>
<text x="196.71" y="25.62">.</text>
<text x="328.05" y="184.32">+</text>
<text x="309.26" y="68.01">*</text>
<text x="226.10" y="89.91">*</text>
<text x="483.52" y="173.49">*</text>
<text x="358.14" y="225.76">*</text>
<text x="379.08" y="51.80">+</text>
<text x="321.54" y="81.12">.</text>
<text x="77.18" y="161.45">+</text>
<text x="439.16" y="419.74">+</text>
<text x="59.95" y="142.14">.</text>
<text x="292.78" y="160.52">+</text>
<text x="277.36" y="180.18">*</text>
<text x="169.85" y="301.76">.</text>
<text x="339.99" y="307.10">.</text>
<text x="228.12" y="456.27">.</text>
<text x="233.47" y="84.26">.</text>
<text x="327.71" y="61.12">.</text>
<text x="245.82" y="145.61">+</text>
<text x="450.92" y="162.34">.</text>
<text x="299.90" y="477.98">.</text>
<text x="29.54" y="485.63">+</text>
<text x="482.06" y="457.22">.</text>
<text x="216.05" y="292.11">.</text>
<text x="369.33" y="129.66">.</text>
<text x="278.53" y="480.94">.</text>
<text x="220.27" y="117.22">*</text>
<text x="391.24" y="132.54">+</text>
<text x="497.59" y="423.57">+</text>
<text x="385.31" y="42.27">+</text>
<text x="194.62" y="277.66">*</text>
<text x="279.96" y="473.79">+</text>
<text x="293.05" y="130.27">.</text>
<text x="20.87" y="301.94">*</text>
<text x="269.64" y="123.43">+</text>
<text x="148.88" y="427.21">+</text>
<text x="200.32" y="22.05">+</text>
<text x="155.66" y="369.15">+</text>
<text x="488.49" y="58.17">+</text>
<text x="23.33" y="274.42">+</text>
<text x="255.55" y="357.95">+</text>
<text x="495.27" y="300.03">*</text>
<text x="76.78" y="469.65">.</text>
<text x="405.92" y="349.52">.</text>
<text x="223.38" y="153.95">.</text>
<text x="70.95" y="274.62">+</text>
<text x="453.70" y="35.10">.</text>
<text x="17.78" y="116.29">+</text>
<text x="223.63" y="76.90">*</text>
<text x="12.31" y="400.83">.</text>
<text x="426.52" y="175.53">.</text>
<text x="388.93" y="4.98">.</text>
<text x="201.11" y="324.02">+</text>
<text x="286.52" y="453.15">.</text>
<text x="296.02" y="199.37">.</text>
<text x="294.99" y="121.73">+</text>
<text x="66.81" y="170.60">.</text>
<text x="15.76" y="462.35">.</text>
<text x="387.43" y="164.53">.</text>
<text x="35.12" y="327.60">*</text>
<text x="90.72" y="177.25">*</text>
<text x="20.59" y="32.10">*</text>
<text x="283.44" y="356.74">.</text>
<text x="242.17" y="256.92">*</text>
<text x="77.76" y="436.68">+</text>
<text x="36.92" y="136.78">*</text>
<text x="113.34" y="115.26">.</text>
<text x="351.77" y="476.79">*</text>
<text x="85.40" y="83.97">+</text>
<text x="337.68" y="400.10">*</text>
<text x="20.90" y="165.54">.</text>
<text x="420.89" y="131.76">+</text>
<text x="263.42" y="337.52">.</text>
<text x="490.25" y="313.02">+</text>
<text x="386.59" y="76.81">+</text>
<text x="238.99" y="159.46">*</text>
<text x="69.41" y="277.27">.</text>
<text x="90.02" y="451.93">*</text>
<text x="129.89" y="437.58">.</text>
<text x="310.56" y="33.55">*</text>
<text x="31.39" y="232.00">.</text>
<text x="232.72" y="498.79">+</text>
<text x="456.56" y="9.36">*</text>
<text x="157.01" y="247.72">+</text>
<text x="121.79" y="405.36">+</text>
<text x="346.50" y="358.81">+</text>
<text x="333.80" y="266.23">+</text>
<text x="300.99" y="499.99">+</text>
<text x="121.31" y="185.55">+</text>
<text x="85.47" y="126.64">*</text>
<text x="366.26" y="54.81">+</text>
<text x="127.64" y="412.18">.</text>
<text x="84.80" y="131.42">.</text>
<text x="331.58" y="16.43">+</text>
<text x="395.27" y="125.30">+</text>
<text x="345.06" y="136.32">*</text>
<text x="49.33" y="472.94">*</text>
<text x="87.92" y="43.88">.</text>
<text x="226.01" y="161.62">+</text>
<text x="475.52" y="495.51">+</text>
<text x="222.81" y="339.50">+</text>
<text x="189.22" y="350.67">.</text>
<text x="130.89" y="323.62">.</text>
<text x="228.96" y="202.96">+</text>
<text x="429.46" y="303.50">*</text>
<text x="125.34" y="266.36">*</text>
<text x="470.22" y="461.58">+</text>
<text x="19.68" y="4.99">.</text>
<text x="480.83" y="12.85">.</text>
<text x="339.04" y="344.84">+</text>
<text x="347.61" y="456.63">*</text>
<text x="315.81" y="119.62">.</text>
<text x="133.43" y="59.50">.</text>
<text x="237.42" y="492.86">.</text>
<text x="443.38" y="459.97">.</text>
<text x="460.20" y="95.09">.</text>
<text x="445.00" y="210.31">.</text>
<text x="293.80" y="296.12">+</text>
<text x="456.48" y="403.65">.</text>
<text x="284.49" y="30.64">*</text>
<text x="67.53" y="139.71">*</text>
<text x="108.47" y="316.30">+</text>
<text x="379.59" y="60.65">+</text>
<text x="221.91" y="57.19">.</text>
<text x="420.04" y="451.70">.</text>
<text x="42.30" y="287.42">*</text>
<text x="371.21" y="364.84">+</text>
<text x="242.50" y="223.48">.</text>
<text x="124.93" y="300.31">+</text>
<text x="26.54" y="255.28">+</text>
<text x="98.02" y="144.46">+</text>
<text x="121.21" y="252.51">.</text>
<text x="110.19" y="412.69">.</text>
<text x="87.39" y="131.77">*</text>
<text x="204.50" y="249.14">+</text>
<text x="362.45" y="70.67">*</text>
<text x="134.57" y="356.99">.</text>
<text x="218.49" y="396.33">+</text>
<text x="387.59" y="341.41">+</text>
<text x="329.64" y="289.79">.</text>
<text x="383.02" y="466.64">.</text>
<text x="3.10" y="350.85">+</text>
<text x="75.30" y="19.92">.</text>
<text x="276.89" y="107.78">+</text>
<text x="333.32" y="266.49">*</text>
<text x="267.98" y="429.73">+</text>
<text x="219.70" y="389.31">.</text>
<text x="391.87" y="17.59">.</text>
<text x="476.64" y="311.66">*</text>
<text x="80.17" y="349.31">+</text>
<text x="188.78" y="145.00">+</text>
<text x="292.65" y="105.10">.</text>
<text x="440.37" y="113.29">+</text>
<text x="380.92" y="36.62">*</text>
<text x="144.42" y="111.20">.</text>

</svg>