
<svg viewBox="0 0 500 500" xmlns="http://www.w.org/2000/svg" width="100%" height="100%" style="background-color: #0a0a14; font-family: 'Courier New', Courier, monospace;">
    <style>
        text { fill: #aaa; font-size: 10px; text-anchor: middle; dominant-baseline: middle; }
    </style>
    <text x="53.45" y="427.45">+</text>
<text x="243.42" y="274.22">.</text>
<text x="93.65" y="160.42">.</text>
<text x="112.00" y="369.10">+</text>
<text x="41.49" y="269.61">.</text>
<text x="333.24" y="145.21">*</text>
<text x="488.02" y="369.88">+</text>
<text x="128.20" y="423.31">.</text>
<text x="65.88" y="0.75">+</text>
<text x="163.96" y="18.94">.</text>
<text x="351.88" y="470.58">+</text>
<text x="363.68" y="422.56">+</text>
<text x="208.36" y="444.26">+</text>
<text x="51.46" y="352.51">+</text>
<text x="263.87" y="470.94">+</text>
<text x="0.15" y="38.10">+</text>
<text x="104.23" y="270.34">.</text>
<text x="394.32" y="280.61">+</text>
<text x="196.45" y="211.56">.</text>
<text x="171.54" y="345.50">+</text>
<text x="231.70" y="168.89">+</text>
<text x="118.46" y="60.68">.</text>
<text x="384.73" y="244.02">+</text>
<text x="361.36" y="95.51">.</text>
<text x="288.52" y="144.52">.</text>
<text x="260.27" y="314.50">+</text>
<text x="148.16" y="452.96">.</text>
<text x="44.12" y="56.95">.</text>
<text x="37.71" y="156.01">+</text>
<text x="219.91" y="430.16">+</text>
<text x="60.45" y="291.15">.</text>
<text x="145.52" y="314.25">+</text>
<text x="235.68" y="377.05">+</text>
<text x="428.47" y="262.44">+</text>
<text x="73.13" y="30.86">.</text>
<text x="418.70" y="298.79">*</text>
<text x="35.32" y="245.22">*</text>
<text x="465.40" y="206.97">*</text>
<text x="428.21" y="181.17">.</text>
<text x="131.10" y="478.20">+</text>
<text x="466.31" y="220.88">.</text>
<text x="271.75" y="260.96">+</text>
<text x="294.53" y="266.73">.</text>
<text x="200.87" y="353.10">+</text>
<text x="138.88" y="244.29">+</text>
<text x="425.93" y="162.71">+</text>
<text x="168.83" y="19.85">*</text>
<text x="377.42" y="19.29">.</text>
<text x="475.51" y="441.68">.</text>
<text x="113.97" y="200.73">+</text>
<text x="339.02" y="307.82">.</text>
<text x="232.78" y="68.79">.</text>
<text x="320.40" y="417.54">.</text>
<text x="108.47" y="166.84">.</text>
<text x="202.48" y="265.64">+</text>
<text x="235.25" y="58.12">+</text>
<text x="322.25" y="97.88">*</text>
<text x="254.65" y="356.34">.</text>
<text x="217.10" y="26.22">+</text>
<text x="125.46" y="475.75">.</text>
<text x="434.58" y="208.61">.</text>
<text x="266.50" y="37.47">.</text>
<text x="446.84" y="288.33">+</text>
<text x="199.90" y="469.56">*</text>
<text x="282.98" y="87.05">*</text>
<text x="177.96" y="498.00">+</text>
<text x="314.96" y="91.53">.</text>
<text x="366.96" y="428.69">+</text>
<text x="499.32" y="460.63">.</text>
<text x="232.50" y="466.77">.</text>
<text x="141.17" y="149.57">+</text>
<text x="237.29" y="109.18">*</text>
<text x="179.07" y="484.16">*</text>
<text x="454.39" y="105.35">+</text>
<text x="246.57" y="447.85">+</text>
<text x="318.75" y="357.41">.</text>
<text x="28.04" y="154.65">*</text>
<text x="169.98" y="177.85">.</text>
<text x="206.23" y="244.90">+</text>
<text x="137.33" y="178.51">+</text>
<text x="356.45" y="32.48">*</text>
<text x="262.52" y="272.57">+</text>
<text x="189.17" y="432.11">+</text>
<text x="32.14" y="412.64">+</text>
<text x="196.93" y="393.84">.</text>
<text x="63.18" y="126.25">+</text>
<text x="150.57" y="423.06">.</text>
<text x="465.14" y="445.78">+</text>
<text x="317.60" y="72.16">.</text>
<text x="452.43" y="178.00">+</text>
<text x="77.34" y="274.82">+</text>
<text x="422.54" y="140.22">+</text>
<text x="13.97" y="418.76">.</text>
<text x="200.70" y="224.74">+</text>
<text x="117.50" y="276.96">.</text>
<text x="219.57" y="340.54">+</text>
<text x="406.69" y="279.19">+</text>
<text x="417.66" y="134.83">+</text>
<text x="253.00" y="287.49">*</text>
<text x="142.70" y="16.57">+</text>
<text x="408.47" y="379.24">.</text>
<text x="2.92" y="125.60">+</text>
<text x="229.06" y="160.90">.</text>
<text x="323.63" y="52.11">+</text>
<text x="417.32" y="424.20">.</text>
<text x="335.19" y="157.99">*</text>
<text x="427.50" y="423.67">.</text>
<text x="77.00" y="151.15">.</text>
<text x="205.96" y="384.38">+</text>
<text x="468.65" y="293.50">.</text>
<text x="483.39" y="47.57">.</text>
<text x="26.99" y="69.13">*</text>
<text x="299.66" y="78.74">*</text>
<text x="41.43" y="319.53">+</text>
<text x="451.72" y="95.80">*</text>
<text x="360.65" y="412.71">+</text>
<text x="7.28" y="441.14">+</text>
<text x="0.19" y="494.94">*</text>
<text x="69.75" y="270.27">+</text>
<text x="205.35" y="130.63">.</text>
<text x="118.97" y="268.00">+</text>
<text x="319.61" y="434.08">.</text>
<text x="284.05" y="111.95">+</text>
<text x="471.60" y="340.06">+</text>
<text x="258.31" y="37.64">.</text>
<text x="9.39" y="452.22">.</text>
<text x="177.32" y="126.46">.</text>
<text x="488.26" y="433.49">*</text>
<text x="338.33" y="464.35">*</text>
<text x="187.44" y="393.63">.</text>
<text x="230.86" y="88.85">+</text>
<text x="486.89" y="383.82">.</text>
<text x="175.03" y="51.57">.</text>
<text x="438.60" y="54.54">.</text>
<text x="261.77" y="302.24">+</text>
<text x="383.16" y="114.41">+</text>
<text x="300.69" y="104.09">*</text>
<text x="183.67" y="281.45">+</text>
<text x="491.57" y="105.05">+</text>
<text x="179.62" y="93.52">+</text>
<text x="456.46" y="210.75">+</text>
<text x="131.97" y="48.52">+</text>
<text x="304.68" y="61.29">*</text>
<text x="339.83" y="210.68">.</text>
<text x="437.28" y="199.99">.</text>
<text x="133.32" y="365.41">.</text>
<text x="454.71" y="62.54">+</text>
<text x="422.50" y="394.75">+</text>
<text x="248.00" y="381.54">.</text>
<text x="482.85" y="82.50">*</text>
<text x="23.22" y="345.16">+</text>
<text x="376.95" y="336.04">*</text>
<text x="125.80" y="260.40">+</text>
<text x="122.64" y="322.22">.</text>
<text x="57.94" y="230.57">.</text>
<text x="124.24" y="379.88">+</text>
<text x="480.90" y="144.89">*</text>
<text x="70.42" y="175.16">*</text>
<text x="455.44" y="303.50">*</text>
<text x="193.37" y="493.69">.</text>
<text x="119.66" y="261.65">.</text>
<text x="181.57" y="89.21">+</text>
<text x="450.94" y="449.06">*</text>
<text x="179.80" y="122.32">+</text>
<text x="42.30" y="4.35">.</text>
<text x="467.23" y="61.60">+</text>
<text x="467.74" y="149.58">*</text>
<text x="261.61" y="83.56">+</text>
<text x="71.86" y="427.79">.</text>
<text x="65.64" y="89.67">+</text>
<text x="321.71" y="40.21">+</text>
<text x="366.69" y="355.19">+</text>
<text x="37.88" y="168.49">.</text>
<text x="114.70" y="62.97">.</text>
<text x="381.63" y="485.77">+</text>
<text x="127.71" y="105.71">+</text>
<text x="269.12" y="474.22">+</text>
<text x="307.95" y="281.67">+</text>
<text x="389.83" y="207.74">.</text>
<text x="358.39" y="217.23">.</text>
<text x="112.25" y="27.72">+</text>
<text x="157.76" y="365.58">.</text>
<text x="71.47" y="297.42">.</text>
<text x="432.00" y="63.06">.</text>
<text x="273.32" y="25.71">.</text>
<text x="33.41" y="117.86">*</text>
<text x="434.03" y="476.19">.</text>
<text x="240.64" y="207.78">*</text>
<text x="423.51" y="461.50">+</text>
<text x="253.97" y="122.11">.</text>
<text x="303.78" y="159.63">.</text>
<text x="340.98" y="176.19">*</text>
<text x="36.79" y="201.02">.</text>
<text x="100.05" y="436.73">.</text>
<text x="40.51" y="289.14">.</text>
<text x="311.03" y="141.19">+</text>
<text x="376.75" y="301.71">.</text>
<text x="242.66" y="219.40">+</text>
<text x="206.13" y="138.46">.</text>
<text x="22.15" y="202.12">+</text>
<text x="42.71" y="117.52">*</text>
<text x="378.99" y="119.49">.</text>
<text x="290.69" y="426.82">.</text>
<text x="337.95" y="474.87">+</text>
<text x="357.20" y="168.54">+</text>
<text x="111.42" y="355.21">+</text>
<text x="112.52" y="134.42">.</text>
<text x="332.62" y="212.23">+</text>
<text x="491.63" y="407.64">+</text>
<text x="3.03" y="284.71">.</text>
<text x="94.18" y="318.82">+</text>

</svg>