
<svg viewBox="0 0 500 500" xmlns="http://www.w.org/2000/svg" width="100%" height="100%" style="background-color: #0a0a14; font-family: 'Courier New', Courier, monospace;">
    <style>
        text { fill: #aaa; font-size: 10px; text-anchor: middle; dominant-baseline: middle; }
    </style>
    <text x="462.97" y="71.22">.</text>
<text x="165.85" y="411.46">.</text>
<text x="242.39" y="126.41">+</text>
<text x="97.21" y="108.11">+</text>
<text x="242.83" y="78.75">+</text>
<text x="493.06" y="267.21">+</text>
<text x="335.63" y="451.35">*</text>
<text x="123.00" y="231.70">.</text>
<text x="167.29" y="217.36">.</text>
<text x="496.88" y="417.06">*</text>
<text x="373.13" y="431.88">.</text>
<text x="240.13" y="26.76">+</text>
<text x="420.35" y="369.77">+</text>
<text x="315.99" y="177.57">*</text>
<text x="145.50" y="211.43">.</text>
<text x="258.73" y="155.63">+</text>
<text x="45.51" y="364.72">*</text>
<text x="45.82" y="473.81">+</text>
<text x="60.06" y="397.19">.</text>
<text x="491.84" y="61.50">+</text>
<text x="339.02" y="421.45">+</text>
<text x="239.26" y="265.77">+</text>
<text x="185.95" y="485.13">+</text>
<text x="220.68" y="361.74">+</text>
<text x="411.53" y="343.36">.</text>
<text x="398.57" y="305.24">.</text>
<text x="470.58" y="58.04">*</text>
<text x="224.51" y="248.25">+</text>
<text x="413.80" y="468.19">+</text>
<text x="474.90" y="324.00">.</text>
<text x="375.91" y="410.20">.</text>
<text x="55.19" y="482.17">.</text>
<text x="58.83" y="481.63">*</text>
<text x="103.16" y="141.82">+</text>
<text x="437.71" y="44.46">+</text>
<text x="430.25" y="21.86">+</text>
<text x="348.39" y="340.80">+</text>
<text x="445.73" y="422.00">.</text>
<text x="494.66" y="402.00">+</text>
<text x="178.65" y="88.38">*</text>
<text x="333.56" y="3.78">.</text>
<text x="246.02" y="474.14">.</text>
<text x="73.75" y="192.29">.</text>
<text x="291.39" y="327.69">*</text>
<text x="342.83" y="270.49">+</text>
<text x="177.95" y="66.38">.</text>
<text x="380.45" y="439.03">.</text>
<text x="367.47" y="405.76">*</text>
<text x="361.15" y="230.81">.</text>
<text x="459.27" y="361.74">+</text>
<text x="182.57" y="369.05">+</text>
<text x="435.00" y="21.87">+</text>
<text x="49.28" y="250.80">*</text>
<text x="459.95" y="135.19">+</text>
<text x="350.48" y="421.42">*</text>
<text x="52.89" y="136.77">.</text>
<text x="62.75" y="27.67">+</text>
<text x="73.39" y="180.87">+</text>
<text x="445.15" y="85.13">.</text>
<text x="383.48" y="242.17">+</text>
<text x="210.30" y="358.87">.</text>
<text x="126.99" y="178.85">*</text>
<text x="442.02" y="115.95">*</text>
<text x="327.21" y="40.70">.</text>
<text x="271.21" y="193.84">.</text>
<text x="106.59" y="106.31">.</text>
<text x="376.40" y="287.55">.</text>
<text x="129.31" y="128.41">+</text>
<text x="57.43" y="467.43">+</text>
<text x="261.00" y="205.92">+</text>
<text x="109.69" y="306.79">.</text>
<text x="234.33" y="268.96">+</text>
<text x="96.96" y="268.33">+</text>
<text x="492.38" y="211.87">+</text>
<text x="285.17" y="303.18">*</text>
<text x="336.88" y="466.41">.</text>
<text x="329.17" y="22.55">.</text>
<text x="21.18" y="9.26">.</text>
<text x="17.68" y="253.22">+</text>
<text x="269.29" y="55.43">.</text>
<text x="297.11" y="387.27">*</text>
<text x="238.31" y="368.70">.</text>
<text x="445.36" y="348.22">.</text>
<text x="243.21" y="474.82">+</text>
<text x="174.30" y="434.22">+</text>
<text x="313.00" y="416.40">.</text>
<text x="181.00" y="276.49">.</text>
<text x="424.40" y="484.71">*</text>
<text x="393.63" y="72.43">+</text>
<text x="69.40" y="74.89">.</text>
<text x="392.07" y="66.67">+</text>
<text x="348.72" y="293.18">*</text>
<text x="314.70" y="430.39">+</text>
<text x="5.47" y="78.03">+</text>
<text x="231.46" y="70.42">.</text>
<text x="88.69" y="494.84">+</text>
<text x="242.11" y="455.19">.</text>
<text x="357.32" y="146.19">.</text>
<text x="435.95" y="340.59">+</text>
<text x="220.69" y="476.80">*</text>
<text x="440.56" y="243.32">+</text>
<text x="299.61" y="185.48">.</text>
<text x="47.79" y="454.15">*</text>
<text x="471.51" y="459.22">*</text>
<text x="308.01" y="226.37">.</text>
<text x="191.51" y="345.08">*</text>
<text x="24.87" y="98.38">+</text>
<text x="9.62" y="325.44">+</text>
<text x="227.84" y="320.42">.</text>
<text x="242.28" y="275.20">+</text>
<text x="216.90" y="433.74">.</text>
<text x="448.29" y="94.49">+</text>
<text x="25.93" y="235.52">.</text>
<text x="91.38" y="149.58">.</text>
<text x="46.64" y="422.15">+</text>
<text x="13.37" y="20.85">*</text>
<text x="7.32" y="153.07">.</text>
<text x="188.45" y="176.87">.</text>
<text x="393.72" y="286.25">.</text>
<text x="223.60" y="157.46">*</text>
<text x="127.52" y="481.12">+</text>
<text x="153.32" y="409.69">+</text>
<text x="449.81" y="129.33">+</text>
<text x="273.07" y="444.59">.</text>
<text x="97.48" y="236.00">+</text>
<text x="326.82" y="128.08">+</text>
<text x="392.29" y="490.14">+</text>
<text x="404.39" y="258.85">.</text>
<text x="304.95" y="420.59">+</text>
<text x="260.99" y="66.77">*</text>
<text x="387.38" y="279.78">+</text>
<text x="63.02" y="231.67">+</text>
<text x="137.82" y="211.82">+</text>
<text x="369.32" y="94.27">.</text>
<text x="18.49" y="14.96">+</text>
<text x="281.08" y="262.05">.</text>
<text x="175.04" y="405.23">+</text>
<text x="75.82" y="479.70">+</text>
<text x="477.44" y="334.43">+</text>
<text x="119.45" y="237.81">+</text>
<text x="335.93" y="394.64">*</text>
<text x="278.76" y="80.06">+</text>
<text x="112.90" y="281.70">*</text>
<text x="202.48" y="93.00">+</text>
<text x="251.46" y="305.10">+</text>
<text x="262.50" y="272.50">.</text>
<text x="180.08" y="304.24">*</text>
<text x="491.96" y="25.62">+</text>
<text x="129.24" y="279.82">.</text>
<text x="165.88" y="81.05">.</text>
<text x="355.08" y="453.57">+</text>
<text x="484.52" y="61.46">.</text>
<text x="428.75" y="38.06">+</text>
<text x="487.51" y="360.43">+</text>
<text x="147.19" y="333.92">.</text>
<text x="284.54" y="22.30">+</text>
<text x="365.34" y="228.21">+</text>
<text x="427.86" y="26.24">+</text>
<text x="312.31" y="166.35">.</text>
<text x="51.21" y="485.16">+</text>
<text x="77.87" y="160.39">*</text>
<text x="385.77" y="492.04">*</text>
<text x="239.18" y="494.10">.</text>
<text x="114.93" y="381.77">.</text>
<text x="157.25" y="31.57">+</text>
<text x="305.04" y="261.47">.</text>
<text x="395.51" y="258.81">.</text>
<text x="454.52" y="371.18">+</text>
<text x="485.63" y="173.68">*</text>
<text x="298.61" y="316.41">+</text>
<text x="446.30" y="98.79">+</text>
<text x="216.75" y="0.41">.</text>
<text x="460.87" y="413.33">+</text>
<text x="140.34" y="379.45">+</text>
<text x="454.92" y="155.81">.</text>
<text x="92.41" y="30.14">+</text>
<text x="400.08" y="274.14">.</text>
<text x="277.32" y="115.37">+</text>
<text x="183.36" y="431.22">.</text>
<text x="163.26" y="359.49">.</text>
<text x="382.97" y="89.70">.</text>
<text x="382.85" y="162.12">*</text>
<text x="63.69" y="151.19">.</text>
<text x="78.31" y="102.58">.</text>
<text x="164.34" y="179.07">+</text>
<text x="194.40" y="204.89">.</text>
<text x="188.83" y="38.64">+</text>
<text x="423.07" y="289.39">+</text>
<text x="5.34" y="404.49">+</text>
<text x="439.09" y="175.70">.</text>
<text x="75.44" y="436.14">+</text>
<text x="301.21" y="167.61">+</text>
<text x="335.59" y="131.68">*</text>
<text x="126.32" y="224.86">+</text>
<text x="375.73" y="275.20">.</text>
<text x="241.32" y="26.31">.</text>
<text x="47.86" y="121.78">.</text>
<text x="464.89" y="176.43">+</text>
<text x="11.66" y="258.59">.</text>
<text x="120.17" y="378.82">.</text>
<text x="209.57" y="8.63">+</text>
<text x="42.49" y="407.61">.</text>
<text x="296.93" y="44.65">+</text>
<text x="378.40" y="32.69">.</text>
<text x="485.07" y="461.75">+</text>
<text x="27.01" y="74.25">+</text>
<text x="441.47" y="460.65">*</text>

</svg>