
<svg viewBox="0 0 500 500" xmlns="http://www.w.org/2000/svg" width="100%" height="100%" style="background-color: #0a0a14; font-family: 'Courier New', Courier, monospace;">
    <style>
        text { fill: #aaa; font-size: 10px; text-anchor: middle; dominant-baseline: middle; }
    </style>
    <text x="92.30" y="375.06">+</text>
<text x="421.49" y="309.10">+</text>
<text x="359.35" y="180.46">+</text>
<text x="1.72" y="75.27">+</text>
<text x="82.26" y="354.30">+</text>
<text x="442.04" y="353.41">.</text>
<text x="454.38" y="18.86">.</text>
<text x="44.09" y="385.09">+</text>
<text x="18.63" y="6.32">+</text>
<text x="219.40" y="119.16">.</text>
<text x="383.42" y="42.27">*</text>
<text x="376.86" y="58.52">.</text>
<text x="115.62" y="248.08">+</text>
<text x="445.72" y="100.01">.</text>
<text x="174.35" y="484.02">+</text>
<text x="351.25" y="99.80">+</text>
<text x="100.43" y="199.96">.</text>
<text x="368.02" y="101.51">.</text>
<text x="358.99" y="47.82">+</text>
<text x="70.53" y="423.52">.</text>
<text x="418.85" y="13.40">+</text>
<text x="80.79" y="115.87">*</text>
<text x="143.97" y="233.87">+</text>
<text x="122.54" y="163.25">+</text>
<text x="207.70" y="398.10">+</text>
<text x="324.49" y="148.99">.</text>
<text x="215.94" y="228.53">+</text>
<text x="116.25" y="243.67">.</text>
<text x="162.77" y="370.81">*</text>
<text x="91.18" y="434.82">*</text>
<text x="182.75" y="10.82">.</text>
<text x="3.32" y="161.32">.</text>
<text x="345.22" y="224.98">.</text>
<text x="30.07" y="219.45">.</text>
<text x="283.16" y="86.05">+</text>
<text x="327.52" y="318.61">+</text>
<text x="124.61" y="43.02">.</text>
<text x="358.88" y="52.76">.</text>
<text x="122.05" y="450.90">.</text>
<text x="333.82" y="34.21">+</text>
<text x="188.79" y="79.10">.</text>
<text x="374.21" y="149.95">+</text>
<text x="438.20" y="105.89">+</text>
<text x="492.45" y="323.67">.</text>
<text x="79.51" y="110.24">.</text>
<text x="268.72" y="266.96">.</text>
<text x="104.15" y="27.60">*</text>
<text x="406.39" y="264.59">*</text>
<text x="159.66" y="205.56">.</text>
<text x="373.43" y="470.90">+</text>
<text x="69.26" y="109.49">.</text>
<text x="251.22" y="313.57">.</text>
<text x="38.28" y="236.24">.</text>
<text x="364.13" y="90.27">+</text>
<text x="171.41" y="292.00">.</text>
<text x="457.98" y="182.37">+</text>
<text x="417.61" y="156.04">.</text>
<text x="163.82" y="382.06">.</text>
<text x="141.42" y="30.54">+</text>
<text x="205.56" y="217.42">.</text>
<text x="8.03" y="209.38">+</text>
<text x="117.23" y="426.46">.</text>
<text x="166.08" y="85.23">+</text>
<text x="326.40" y="151.67">.</text>
<text x="13.18" y="382.09">+</text>
<text x="285.57" y="149.61">+</text>
<text x="367.75" y="159.20">*</text>
<text x="435.21" y="193.38">.</text>
<text x="297.58" y="108.14">*</text>
<text x="224.44" y="348.49">+</text>
<text x="118.02" y="59.28">.</text>
<text x="488.06" y="280.65">+</text>
<text x="252.00" y="182.57">.</text>
<text x="262.24" y="348.47">+</text>
<text x="73.69" y="259.86">+</text>
<text x="138.76" y="195.84">*</text>
<text x="129.38" y="36.37">+</text>
<text x="22.66" y="417.56">.</text>
<text x="226.88" y="482.73">+</text>
<text x="244.72" y="94.70">.</text>
<text x="136.75" y="309.00">.</text>
<text x="344.28" y="13.27">.</text>
<text x="161.75" y="402.91">.</text>
<text x="108.07" y="241.50">+</text>
<text x="386.71" y="238.92">+</text>
<text x="127.79" y="133.52">.</text>
<text x="212.11" y="420.28">+</text>
<text x="288.44" y="338.11">.</text>
<text x="498.38" y="194.88">*</text>
<text x="168.53" y="305.97">+</text>
<text x="263.19" y="414.14">.</text>
<text x="217.96" y="58.83">+</text>
<text x="416.53" y="436.19">*</text>
<text x="228.83" y="472.35">.</text>
<text x="196.00" y="4.53">.</text>
<text x="273.38" y="142.75">+</text>
<text x="469.34" y="153.14">+</text>
<text x="288.98" y="465.22">.</text>
<text x="374.30" y="7.07">+</text>
<text x="243.43" y="297.96">+</text>
<text x="162.21" y="154.07">+</text>
<text x="318.80" y="243.99">*</text>
<text x="158.58" y="3.90">+</text>
<text x="155.76" y="281.50">+</text>
<text x="32.75" y="396.33">+</text>
<text x="483.99" y="398.61">.</text>
<text x="496.46" y="117.06">+</text>
<text x="193.35" y="187.73">.</text>
<text x="191.06" y="273.41">.</text>
<text x="265.00" y="311.97">.</text>
<text x="219.03" y="465.96">*</text>
<text x="342.98" y="85.86">+</text>
<text x="146.62" y="459.00">.</text>
<text x="109.25" y="220.92">.</text>
<text x="281.55" y="293.86">*</text>
<text x="433.36" y="391.85">*</text>
<text x="143.88" y="149.13">.</text>
<text x="373.44" y="331.88">*</text>
<text x="146.75" y="54.83">.</text>
<text x="241.26" y="214.33">+</text>
<text x="335.58" y="250.50">*</text>
<text x="73.90" y="179.91">.</text>
<text x="76.58" y="469.05">.</text>
<text x="96.42" y="67.61">.</text>
<text x="430.15" y="386.11">.</text>
<text x="98.71" y="294.49">.</text>
<text x="458.58" y="246.02">*</text>
<text x="293.94" y="487.33">.</text>
<text x="328.65" y="430.08">.</text>
<text x="167.98" y="301.99">+</text>
<text x="9.76" y="442.41">*</text>
<text x="325.32" y="222.92">.</text>
<text x="340.22" y="60.31">*</text>
<text x="373.52" y="402.18">*</text>
<text x="487.27" y="393.53">.</text>
<text x="199.16" y="267.95">*</text>
<text x="269.91" y="107.28">+</text>
<text x="435.24" y="463.11">.</text>
<text x="465.76" y="470.89">*</text>
<text x="76.18" y="346.11">+</text>
<text x="144.07" y="69.14">+</text>
<text x="279.75" y="355.29">+</text>
<text x="151.72" y="377.62">.</text>
<text x="31.91" y="362.38">*</text>
<text x="333.57" y="123.70">+</text>
<text x="434.86" y="239.72">.</text>
<text x="286.77" y="47.70">+</text>
<text x="217.52" y="496.87">+</text>
<text x="58.10" y="341.03">*</text>
<text x="158.19" y="324.00">.</text>
<text x="151.36" y="123.32">+</text>
<text x="334.96" y="117.57">+</text>
<text x="56.68" y="462.77">+</text>
<text x="134.01" y="47.30">+</text>
<text x="36.83" y="272.87">*</text>
<text x="189.69" y="258.01">.</text>
<text x="482.85" y="203.26">.</text>
<text x="443.86" y="209.89">.</text>
<text x="307.98" y="158.50">.</text>
<text x="135.99" y="417.09">.</text>
<text x="43.74" y="493.74">*</text>
<text x="375.73" y="207.87">.</text>
<text x="394.26" y="58.27">.</text>
<text x="108.12" y="352.84">.</text>
<text x="200.24" y="134.36">*</text>
<text x="257.23" y="292.90">.</text>
<text x="64.84" y="137.63">+</text>
<text x="370.22" y="248.60">+</text>
<text x="317.28" y="457.46">.</text>
<text x="272.77" y="385.41">+</text>
<text x="128.34" y="306.76">+</text>
<text x="7.53" y="98.63">.</text>
<text x="442.03" y="252.88">+</text>
<text x="296.99" y="161.29">+</text>
<text x="421.55" y="316.93">.</text>
<text x="131.66" y="225.47">.</text>
<text x="76.04" y="412.67">.</text>
<text x="486.82" y="130.85">.</text>
<text x="73.33" y="57.89">.</text>
<text x="84.52" y="324.57">+</text>
<text x="98.02" y="177.89">*</text>
<text x="325.25" y="125.81">*</text>
<text x="2.45" y="29.27">.</text>
<text x="60.77" y="152.44">.</text>
<text x="296.50" y="368.64">*</text>
<text x="401.50" y="214.36">.</text>
<text x="174.46" y="490.00">+</text>
<text x="450.35" y="133.13">.</text>
<text x="258.38" y="308.20">+</text>
<text x="227.80" y="5.21">*</text>
<text x="486.53" y="345.52">+</text>
<text x="164.45" y="4.60">+</text>
<text x="102.40" y="377.97">.</text>
<text x="204.18" y="224.15">.</text>
<text x="388.29" y="90.23">.</text>
<text x="425.59" y="24.86">*</text>
<text x="479.94" y="127.40">.</text>
<text x="167.44" y="156.99">.</text>
<text x="231.15" y="336.50">.</text>
<text x="390.41" y="128.18">.</text>
<text x="476.03" y="244.69">+</text>
<text x="338.01" y="472.92">+</text>
<text x="75.53" y="286.75">.</text>
<text x="170.66" y="13.14">+</text>
<text x="168.02" y="367.48">.</text>
<text x="8.84" y="480.65">.</text>
<text x="111.29" y="422.69">.</text>
<text x="347.36" y="325.22">.</text>
<text x="355.63" y="199.30">.</text>
<text x="384.91" y="405.45">.</text>
<text x="120.63" y="480.63">.</text>
<text x="367.51" y="66.65">+</text>
<text x="77.18" y="264.05">*</text>
<text x="432.94" y="139.07">.</text>
<text x="305.69" y="88.77">+</text>

</svg>