
<svg viewBox="0 0 500 500" xmlns="http://www.w.org/2000/svg" width="100%" height="100%" style="background-color: #0a0a14; font-family: 'Courier New', Courier, monospace;">
    <style>
        text { fill: #aaa; font-size: 10px; text-anchor: middle; dominant-baseline: middle; }
    </style>
    <text x="335.12" y="301.43">.</text>
<text x="216.00" y="151.74">+</text>
<text x="388.62" y="123.16">+</text>
<text x="214.82" y="162.16">+</text>
<text x="403.97" y="476.08">.</text>
<text x="392.90" y="117.58">*</text>
<text x="0.02" y="102.50">+</text>
<text x="281.56" y="73.61">+</text>
<text x="156.25" y="424.66">+</text>
<text x="128.06" y="130.33">.</text>
<text x="420.07" y="455.13">.</text>
<text x="381.68" y="368.79">+</text>
<text x="127.04" y="291.50">.</text>
<text x="69.27" y="112.75">.</text>
<text x="369.58" y="192.14">+</text>
<text x="490.42" y="244.13">+</text>
<text x="495.68" y="6.61">+</text>
<text x="394.82" y="279.77">+</text>
<text x="137.41" y="449.91">+</text>
<text x="415.15" y="244.89">+</text>
<text x="24.93" y="215.32">+</text>
<text x="134.42" y="107.87">*</text>
<text x="64.99" y="174.02">+</text>
<text x="356.68" y="391.90">*</text>
<text x="66.60" y="440.09">.</text>
<text x="193.99" y="365.62">.</text>
<text x="434.21" y="438.02">+</text>
<text x="441.93" y="90.63">.</text>
<text x="6.26" y="478.36">.</text>
<text x="459.91" y="332.89">.</text>
<text x="344.39" y="89.75">+</text>
<text x="31.55" y="419.50">.</text>
<text x="366.64" y="96.71">+</text>
<text x="276.71" y="280.75">.</text>
<text x="237.90" y="302.01">+</text>
<text x="429.60" y="42.30">.</text>
<text x="158.06" y="248.81">.</text>
<text x="120.60" y="51.52">+</text>
<text x="60.69" y="358.04">+</text>
<text x="373.39" y="158.26">+</text>
<text x="330.77" y="79.40">+</text>
<text x="178.92" y="2.21">.</text>
<text x="325.12" y="49.92">*</text>
<text x="471.82" y="30.85">+</text>
<text x="426.61" y="108.35">+</text>
<text x="490.56" y="111.48">+</text>
<text x="283.45" y="423.42">.</text>
<text x="32.64" y="370.25">*</text>
<text x="78.49" y="237.88">+</text>
<text x="346.02" y="251.99">.</text>
<text x="426.88" y="186.23">+</text>
<text x="162.57" y="152.08">+</text>
<text x="498.18" y="283.62">+</text>
<text x="495.53" y="329.18">.</text>
<text x="35.69" y="179.82">.</text>
<text x="85.53" y="340.68">*</text>
<text x="320.95" y="52.41">+</text>
<text x="485.71" y="354.05">+</text>
<text x="394.10" y="427.54">.</text>
<text x="88.36" y="380.45">.</text>
<text x="337.92" y="89.50">.</text>
<text x="104.56" y="86.34">+</text>
<text x="166.27" y="221.64">.</text>
<text x="345.73" y="380.27">+</text>
<text x="393.73" y="292.34">+</text>
<text x="211.84" y="173.45">+</text>
<text x="157.30" y="335.28">+</text>
<text x="405.16" y="35.66">.</text>
<text x="12.94" y="106.35">.</text>
<text x="374.70" y="453.50">+</text>
<text x="99.60" y="326.75">+</text>
<text x="189.73" y="162.16">+</text>
<text x="96.04" y="7.97">.</text>
<text x="316.49" y="491.39">.</text>
<text x="498.23" y="432.60">+</text>
<text x="330.13" y="168.77">.</text>
<text x="258.07" y="471.13">+</text>
<text x="65.57" y="348.10">.</text>
<text x="487.35" y="66.13">+</text>
<text x="134.90" y="7.77">+</text>
<text x="64.59" y="205.43">.</text>
<text x="193.70" y="260.16">+</text>
<text x="200.08" y="232.68">+</text>
<text x="287.78" y="227.73">.</text>
<text x="58.39" y="91.33">.</text>
<text x="187.59" y="102.46">.</text>
<text x="380.11" y="259.45">+</text>
<text x="434.86" y="475.23">*</text>
<text x="307.43" y="439.47">.</text>
<text x="394.33" y="58.12">+</text>
<text x="149.19" y="241.93">.</text>
<text x="365.04" y="157.02">.</text>
<text x="327.76" y="272.38">.</text>
<text x="30.45" y="105.54">.</text>
<text x="478.47" y="301.85">.</text>
<text x="312.24" y="306.51">.</text>
<text x="396.07" y="204.41">.</text>
<text x="160.13" y="327.10">.</text>
<text x="349.79" y="117.06">+</text>
<text x="300.94" y="175.10">.</text>
<text x="415.69" y="411.56">+</text>
<text x="426.55" y="272.62">.</text>
<text x="118.13" y="87.73">.</text>
<text x="85.82" y="406.55">.</text>
<text x="45.92" y="88.45">.</text>
<text x="360.93" y="443.28">.</text>
<text x="421.99" y="182.67">.</text>
<text x="275.33" y="477.99">*</text>
<text x="474.42" y="457.32">.</text>
<text x="320.56" y="393.10">.</text>
<text x="50.01" y="364.82">+</text>
<text x="62.50" y="358.06">.</text>
<text x="354.75" y="16.58">+</text>
<text x="448.00" y="381.00">*</text>
<text x="54.82" y="121.66">+</text>
<text x="7.37" y="105.53">+</text>
<text x="434.98" y="250.75">*</text>
<text x="61.55" y="88.07">+</text>
<text x="470.74" y="122.41">.</text>
<text x="311.95" y="173.98">*</text>
<text x="486.00" y="240.96">.</text>
<text x="255.12" y="373.41">*</text>
<text x="278.07" y="338.55">.</text>
<text x="32.61" y="394.51">.</text>
<text x="392.82" y="107.72">*</text>
<text x="19.36" y="188.93">.</text>
<text x="444.61" y="294.48">.</text>
<text x="486.61" y="100.24">*</text>
<text x="173.91" y="232.04">.</text>
<text x="267.02" y="90.28">+</text>
<text x="393.23" y="449.41">+</text>
<text x="464.00" y="151.49">*</text>
<text x="388.74" y="164.67">+</text>
<text x="412.87" y="180.32">*</text>
<text x="58.96" y="238.64">+</text>
<text x="52.56" y="47.03">+</text>
<text x="28.39" y="241.12">*</text>
<text x="5.87" y="299.37">.</text>
<text x="5.41" y="267.83">.</text>
<text x="155.76" y="294.70">.</text>
<text x="201.39" y="279.72">.</text>
<text x="427.94" y="324.71">+</text>
<text x="438.35" y="381.53">+</text>
<text x="69.05" y="242.67">+</text>
<text x="121.14" y="264.96">+</text>
<text x="382.61" y="258.10">.</text>
<text x="368.52" y="454.33">+</text>
<text x="443.41" y="8.53">.</text>
<text x="438.76" y="126.66">+</text>
<text x="229.40" y="217.09">*</text>
<text x="268.04" y="440.10">+</text>
<text x="122.25" y="175.12">.</text>
<text x="265.59" y="404.30">.</text>
<text x="245.64" y="337.02">+</text>
<text x="421.30" y="388.72">.</text>
<text x="124.32" y="245.61">*</text>
<text x="86.53" y="1.31">.</text>
<text x="233.02" y="476.99">.</text>
<text x="271.36" y="465.82">+</text>
<text x="478.51" y="287.62">+</text>
<text x="495.44" y="7.15">*</text>
<text x="96.37" y="495.39">.</text>
<text x="372.43" y="132.63">+</text>
<text x="120.22" y="96.70">.</text>
<text x="305.73" y="110.47">*</text>
<text x="398.44" y="192.17">.</text>
<text x="19.68" y="434.92">.</text>
<text x="176.05" y="398.68">+</text>
<text x="256.91" y="358.62">+</text>
<text x="250.80" y="64.26">.</text>
<text x="12.06" y="476.39">.</text>
<text x="380.41" y="444.24">+</text>
<text x="71.17" y="374.13">+</text>
<text x="69.16" y="293.46">.</text>
<text x="374.94" y="128.95">+</text>
<text x="54.35" y="172.58">.</text>
<text x="359.61" y="112.12">.</text>
<text x="140.40" y="397.12">.</text>
<text x="97.40" y="188.96">+</text>
<text x="164.89" y="27.05">+</text>
<text x="117.14" y="461.39">.</text>
<text x="45.24" y="347.60">.</text>
<text x="3.45" y="137.91">.</text>
<text x="99.91" y="328.70">+</text>
<text x="3.74" y="21.01">+</text>
<text x="239.91" y="387.98">+</text>
<text x="474.29" y="200.23">+</text>
<text x="128.87" y="473.56">.</text>
<text x="148.76" y="272.17">+</text>
<text x="9.57" y="267.52">*</text>
<text x="422.15" y="37.76">*</text>
<text x="286.38" y="289.98">+</text>
<text x="123.79" y="451.52">+</text>
<text x="101.49" y="87.32">+</text>
<text x="258.81" y="86.30">.</text>
<text x="287.89" y="38.88">*</text>
<text x="200.28" y="242.82">+</text>
<text x="419.06" y="318.27">.</text>
<text x="411.36" y="499.32">.</text>
<text x="79.62" y="243.65">+</text>
<text x="274.40" y="233.69">*</text>

</svg>