
<svg viewBox="0 0 500 500" xmlns="http://www.w.org/2000/svg" width="100%" height="100%" style="background-color: #0a0a14; font-family: 'Courier New', Courier, monospace;">
    <style>
        text { fill: #aaa; font-size: 10px; text-anchor: middle; dominant-baseline: middle; }
    </style>
    <text x="297.40" y="79.39">+</text>
<text x="481.81" y="59.06">.</text>
<text x="241.33" y="349.24">+</text>
<text x="120.30" y="170.38">+</text>
<text x="187.10" y="66.59">+</text>
<text x="293.48" y="176.02">*</text>
<text x="361.27" y="78.85">.</text>
<text x="131.22" y="305.52">.</text>
<text x="0.74" y="343.36">.</text>
<text x="315.30" y="446.19">*</text>
<text x="444.76" y="140.70">+</text>
<text x="12.50" y="304.70">+</text>
<text x="221.45" y="476.15">+</text>
<text x="110.92" y="256.55">.</text>
<text x="101.13" y="106.52">.</text>
<text x="251.30" y="365.28">+</text>
<text x="402.65" y="12.15">*</text>
<text x="5.00" y="295.18">+</text>
<text x="327.29" y="76.89">+</text>
<text x="330.94" y="24.78">+</text>
<text x="95.56" y="89.18">.</text>
<text x="165.88" y="392.91">.</text>
<text x="7.07" y="373.71">*</text>
<text x="357.08" y="155.00">+</text>
<text x="251.78" y="87.21">.</text>
<text x="76.50" y="337.91">+</text>
<text x="414.94" y="489.87">.</text>
<text x="178.07" y="455.12">.</text>
<text x="198.96" y="100.37">.</text>
<text x="34.68" y="315.88">.</text>
<text x="225.30" y="150.36">+</text>
<text x="152.82" y="147.34">.</text>
<text x="470.37" y="176.79">.</text>
<text x="415.39" y="244.31">.</text>
<text x="424.63" y="185.87">.</text>
<text x="245.66" y="186.16">*</text>
<text x="209.75" y="215.77">+</text>
<text x="407.85" y="106.10">*</text>
<text x="454.90" y="354.84">*</text>
<text x="147.92" y="416.58">.</text>
<text x="51.52" y="129.74">*</text>
<text x="231.03" y="449.81">+</text>
<text x="223.34" y="173.08">+</text>
<text x="90.44" y="1.69">.</text>
<text x="148.77" y="38.14">.</text>
<text x="333.22" y="56.19">+</text>
<text x="288.68" y="236.39">+</text>
<text x="158.05" y="124.60">.</text>
<text x="114.99" y="403.46">*</text>
<text x="495.43" y="163.47">+</text>
<text x="263.90" y="241.26">+</text>
<text x="223.86" y="117.52">.</text>
<text x="147.51" y="410.20">.</text>
<text x="204.75" y="230.16">+</text>
<text x="387.08" y="6.61">+</text>
<text x="461.75" y="290.12">.</text>
<text x="381.52" y="91.80">*</text>
<text x="4.94" y="180.31">+</text>
<text x="64.90" y="375.63">*</text>
<text x="386.63" y="410.19">*</text>
<text x="376.15" y="460.24">*</text>
<text x="210.86" y="498.76">*</text>
<text x="398.74" y="255.72">+</text>
<text x="400.62" y="56.08">+</text>
<text x="388.23" y="386.06">.</text>
<text x="428.01" y="62.23">.</text>
<text x="6.63" y="39.80">+</text>
<text x="154.43" y="301.66">+</text>
<text x="480.03" y="495.62">*</text>
<text x="411.87" y="400.86">+</text>
<text x="371.16" y="393.07">.</text>
<text x="111.78" y="380.60">.</text>
<text x="43.34" y="292.88">+</text>
<text x="479.05" y="306.96">+</text>
<text x="70.24" y="24.03">+</text>
<text x="18.54" y="247.04">*</text>
<text x="214.50" y="71.30">+</text>
<text x="355.46" y="248.58">+</text>
<text x="131.00" y="459.68">.</text>
<text x="417.73" y="103.84">+</text>
<text x="174.34" y="17.43">+</text>
<text x="307.95" y="394.35">.</text>
<text x="395.56" y="316.58">*</text>
<text x="332.12" y="257.87">*</text>
<text x="431.08" y="416.49">+</text>
<text x="29.68" y="452.27">.</text>
<text x="343.34" y="189.96">.</text>
<text x="47.19" y="328.50">+</text>
<text x="187.86" y="65.65">.</text>
<text x="493.09" y="14.90">+</text>
<text x="238.19" y="319.61">*</text>
<text x="361.29" y="254.11">.</text>
<text x="481.82" y="329.00">*</text>
<text x="430.00" y="150.63">.</text>
<text x="234.01" y="461.41">+</text>
<text x="357.28" y="97.03">*</text>
<text x="406.52" y="239.24">+</text>
<text x="497.39" y="349.86">+</text>
<text x="332.75" y="432.80">+</text>
<text x="486.75" y="388.00">.</text>
<text x="137.12" y="322.62">+</text>
<text x="312.85" y="108.46">*</text>
<text x="99.17" y="256.22">*</text>
<text x="489.59" y="90.11">+</text>
<text x="251.99" y="427.41">.</text>
<text x="192.40" y="402.22">.</text>
<text x="78.66" y="158.64">+</text>
<text x="231.09" y="318.14">.</text>
<text x="334.88" y="328.60">.</text>
<text x="355.92" y="224.27">*</text>
<text x="219.17" y="164.32">.</text>
<text x="311.49" y="226.05">+</text>
<text x="73.16" y="336.35">.</text>
<text x="203.99" y="424.65">.</text>
<text x="64.67" y="125.54">+</text>
<text x="171.48" y="291.23">+</text>
<text x="242.27" y="405.54">.</text>
<text x="467.41" y="345.24">+</text>
<text x="73.08" y="440.80">.</text>
<text x="345.65" y="416.43">.</text>
<text x="281.65" y="280.67">.</text>
<text x="352.47" y="353.57">.</text>
<text x="303.02" y="215.53">+</text>
<text x="425.23" y="402.30">.</text>
<text x="149.77" y="462.44">.</text>
<text x="6.51" y="253.94">+</text>
<text x="313.90" y="392.77">*</text>
<text x="300.02" y="279.77">.</text>
<text x="242.27" y="210.00">+</text>
<text x="302.16" y="410.17">.</text>
<text x="79.08" y="125.70">*</text>
<text x="88.10" y="408.32">*</text>
<text x="353.08" y="482.50">+</text>
<text x="263.70" y="128.66">.</text>
<text x="337.60" y="23.64">*</text>
<text x="230.54" y="332.08">+</text>
<text x="322.20" y="286.85">+</text>
<text x="493.87" y="202.07">+</text>
<text x="408.22" y="253.36">.</text>
<text x="269.81" y="459.77">.</text>
<text x="197.91" y="482.80">+</text>
<text x="299.79" y="175.99">+</text>
<text x="345.44" y="141.89">+</text>
<text x="443.60" y="256.01">.</text>
<text x="380.21" y="79.31">*</text>
<text x="287.73" y="190.32">.</text>
<text x="157.83" y="97.68">+</text>
<text x="320.95" y="7.33">+</text>
<text x="48.65" y="47.76">*</text>
<text x="332.51" y="499.57">.</text>
<text x="309.99" y="75.26">.</text>
<text x="299.41" y="162.73">.</text>
<text x="155.84" y="476.53">+</text>
<text x="140.78" y="316.19">.</text>
<text x="357.55" y="474.86">*</text>
<text x="318.84" y="388.01">.</text>
<text x="316.83" y="451.99">+</text>
<text x="493.25" y="246.68">+</text>
<text x="1.88" y="139.82">*</text>
<text x="412.99" y="391.52">.</text>
<text x="27.43" y="86.47">+</text>
<text x="295.54" y="126.99">.</text>
<text x="270.14" y="178.85">+</text>
<text x="73.00" y="429.75">.</text>
<text x="277.43" y="296.79">+</text>
<text x="284.94" y="133.67">+</text>
<text x="231.08" y="374.91">.</text>
<text x="66.28" y="302.83">.</text>
<text x="475.08" y="99.32">*</text>
<text x="239.90" y="391.59">.</text>
<text x="212.57" y="297.90">.</text>
<text x="395.36" y="227.88">.</text>
<text x="105.92" y="224.88">.</text>
<text x="3.87" y="22.67">.</text>
<text x="309.27" y="135.17">.</text>
<text x="302.92" y="9.55">.</text>
<text x="75.31" y="4.97">+</text>
<text x="450.92" y="116.35">*</text>
<text x="194.91" y="303.64">.</text>
<text x="434.79" y="70.84">+</text>
<text x="9.51" y="109.10">*</text>
<text x="366.07" y="229.99">.</text>
<text x="417.85" y="344.90">+</text>
<text x="426.85" y="264.23">.</text>
<text x="33.74" y="481.31">*</text>
<text x="460.54" y="422.94">+</text>
<text x="146.09" y="262.20">*</text>
<text x="74.32" y="467.37">+</text>
<text x="241.89" y="18.54">*</text>
<text x="76.37" y="439.66">*</text>
<text x="305.90" y="112.72">+</text>
<text x="492.61" y="470.53">.</text>
<text x="482.22" y="93.88">+</text>
<text x="17.31" y="142.83">*</text>
<text x="388.73" y="149.41">+</text>
<text x="347.87" y="224.54">.</text>
<text x="245.90" y="217.38">+</text>
<text x="95.15" y="8.47">+</text>
<text x="296.91" y="153.60">.</text>
<text x="412.99" y="187.91">+</text>
<text x="347.47" y="32.75">+</text>
<text x="330.92" y="18.84">+</text>
<text x="19.39" y="37.56">+</text>
<text x="57.60" y="231.80">.</text>
<text x="332.87" y="93.49">+</text>
<text x="85.02" y="496.80">+</text>
<text x="121.37" y="17.12">+</text>
<text x="282.45" y="391.45">+</text>
<text x="124.38" y="244.03">.</text>
<text x="351.51" y="381.10">*</text>

</svg>