
<svg viewBox="0 0 500 500" xmlns="http://www.w.org/2000/svg" width="100%" height="100%" style="background-color: #0a0a14; font-family: 'Courier New', Courier, monospace;">
    <style>
        text { fill: #aaa; font-size: 10px; text-anchor: middle; dominant-baseline: middle; }
    </style>
    <text x="41.63" y="383.85">+</text>
<text x="297.59" y="198.03">.</text>
<text x="286.94" y="308.10">+</text>
<text x="61.15" y="489.66">+</text>
<text x="317.82" y="291.34">+</text>
<text x="81.94" y="171.92">+</text>
<text x="445.49" y="353.88">*</text>
<text x="218.01" y="326.09">+</text>
<text x="132.55" y="404.53">+</text>
<text x="485.15" y="43.37">.</text>
<text x="10.76" y="364.84">+</text>
<text x="196.36" y="320.19">+</text>
<text x="79.77" y="10.95">.</text>
<text x="136.58" y="86.53">+</text>
<text x="155.33" y="299.62">+</text>
<text x="338.68" y="294.05">.</text>
<text x="482.20" y="472.02">.</text>
<text x="155.28" y="299.23">+</text>
<text x="314.18" y="20.57">*</text>
<text x="346.35" y="130.92">.</text>
<text x="92.23" y="374.46">.</text>
<text x="128.11" y="168.35">+</text>
<text x="6.19" y="370.40">+</text>
<text x="42.13" y="105.58">+</text>
<text x="146.02" y="35.36">*</text>
<text x="288.56" y="284.42">+</text>
<text x="17.59" y="461.84">+</text>
<text x="128.31" y="280.09">.</text>
<text x="141.29" y="332.21">+</text>
<text x="192.53" y="83.13">+</text>
<text x="9.48" y="271.07">+</text>
<text x="449.01" y="253.53">+</text>
<text x="205.02" y="110.18">*</text>
<text x="491.17" y="131.21">*</text>
<text x="22.30" y="306.97">.</text>
<text x="116.05" y="330.88">+</text>
<text x="89.68" y="125.61">.</text>
<text x="455.43" y="349.85">.</text>
<text x="14.24" y="401.99">.</text>
<text x="419.21" y="308.20">+</text>
<text x="91.88" y="19.67">+</text>
<text x="204.98" y="67.19">.</text>
<text x="378.15" y="471.07">*</text>
<text x="217.55" y="339.73">+</text>
<text x="6.85" y="269.38">+</text>
<text x="143.00" y="33.83">.</text>
<text x="473.34" y="313.70">*</text>
<text x="91.24" y="475.17">+</text>
<text x="184.35" y="226.90">*</text>
<text x="375.79" y="497.15">*</text>
<text x="50.22" y="2.13">+</text>
<text x="2.90" y="111.44">+</text>
<text x="138.99" y="91.68">+</text>
<text x="115.94" y="14.90">+</text>
<text x="246.92" y="225.94">+</text>
<text x="337.68" y="256.05">+</text>
<text x="144.36" y="192.33">.</text>
<text x="205.08" y="76.52">+</text>
<text x="437.36" y="416.67">+</text>
<text x="486.07" y="158.93">+</text>
<text x="445.82" y="354.70">+</text>
<text x="105.28" y="247.86">+</text>
<text x="21.20" y="110.09">+</text>
<text x="496.08" y="143.34">.</text>
<text x="498.54" y="212.18">+</text>
<text x="161.10" y="155.70">+</text>
<text x="408.35" y="304.28">.</text>
<text x="394.09" y="201.46">+</text>
<text x="224.79" y="173.76">+</text>
<text x="280.13" y="187.62">.</text>
<text x="455.10" y="208.31">+</text>
<text x="415.04" y="12.21">+</text>
<text x="171.41" y="133.89">+</text>
<text x="102.63" y="433.94">.</text>
<text x="61.21" y="110.87">.</text>
<text x="251.70" y="385.66">.</text>
<text x="271.58" y="231.66">.</text>
<text x="452.93" y="305.79">*</text>
<text x="394.89" y="147.84">+</text>
<text x="423.84" y="306.94">.</text>
<text x="354.89" y="60.36">.</text>
<text x="202.51" y="338.13">.</text>
<text x="8.00" y="150.85">+</text>
<text x="132.74" y="183.85">.</text>
<text x="90.31" y="190.46">.</text>
<text x="200.01" y="484.20">*</text>
<text x="28.96" y="48.65">*</text>
<text x="30.68" y="4.08">*</text>
<text x="175.15" y="83.15">+</text>
<text x="104.03" y="371.53">*</text>
<text x="254.98" y="212.50">+</text>
<text x="317.57" y="341.08">+</text>
<text x="419.05" y="396.64">.</text>
<text x="341.60" y="169.45">+</text>
<text x="265.83" y="415.86">+</text>
<text x="239.15" y="461.69">+</text>
<text x="462.14" y="423.49">.</text>
<text x="436.79" y="204.41">+</text>
<text x="49.75" y="226.62">+</text>
<text x="323.10" y="175.88">+</text>
<text x="54.94" y="155.81">.</text>
<text x="194.63" y="324.78">*</text>
<text x="349.04" y="322.45">+</text>
<text x="460.01" y="204.16">+</text>
<text x="150.90" y="141.51">.</text>
<text x="113.80" y="131.56">.</text>
<text x="464.00" y="152.15">+</text>
<text x="288.07" y="79.83">+</text>
<text x="369.11" y="347.58">*</text>
<text x="1.66" y="351.98">+</text>
<text x="79.18" y="273.29">+</text>
<text x="317.24" y="135.55">+</text>
<text x="459.19" y="406.82">+</text>
<text x="47.06" y="26.91">+</text>
<text x="105.16" y="222.05">.</text>
<text x="327.49" y="273.67">+</text>
<text x="158.68" y="132.55">*</text>
<text x="59.27" y="428.44">.</text>
<text x="367.94" y="489.05">*</text>
<text x="98.17" y="400.74">.</text>
<text x="22.06" y="313.32">*</text>
<text x="226.35" y="473.78">.</text>
<text x="294.93" y="429.98">+</text>
<text x="237.50" y="56.65">+</text>
<text x="375.59" y="304.33">.</text>
<text x="201.15" y="265.61">.</text>
<text x="451.04" y="416.16">+</text>
<text x="215.73" y="99.76">.</text>
<text x="388.81" y="21.12">+</text>
<text x="254.54" y="457.37">.</text>
<text x="247.70" y="152.28">.</text>
<text x="477.56" y="372.96">.</text>
<text x="497.60" y="495.65">*</text>
<text x="271.22" y="111.30">.</text>
<text x="406.52" y="389.36">+</text>
<text x="337.27" y="315.73">+</text>
<text x="444.62" y="32.59">.</text>
<text x="20.39" y="221.90">.</text>
<text x="104.61" y="464.49">.</text>
<text x="182.25" y="319.70">.</text>
<text x="110.73" y="480.22">.</text>
<text x="394.39" y="118.26">*</text>
<text x="142.18" y="107.35">.</text>
<text x="334.61" y="115.70">.</text>
<text x="256.24" y="156.16">+</text>
<text x="7.58" y="298.50">+</text>
<text x="217.78" y="414.37">.</text>
<text x="78.84" y="468.52">.</text>
<text x="238.56" y="198.77">+</text>
<text x="393.00" y="306.01">+</text>
<text x="286.96" y="361.23">+</text>
<text x="367.28" y="281.65">.</text>
<text x="168.91" y="418.25">+</text>
<text x="31.81" y="285.76">+</text>
<text x="460.80" y="170.72">.</text>
<text x="220.41" y="429.67">.</text>
<text x="80.75" y="156.01">.</text>
<text x="69.39" y="441.84">+</text>
<text x="423.79" y="359.32">+</text>
<text x="123.54" y="415.11">*</text>
<text x="449.77" y="496.45">.</text>
<text x="185.58" y="27.93">.</text>
<text x="264.98" y="261.83">.</text>
<text x="352.21" y="165.00">.</text>
<text x="422.24" y="454.32">.</text>
<text x="77.20" y="393.15">.</text>
<text x="387.26" y="375.22">+</text>
<text x="334.88" y="186.60">.</text>
<text x="149.93" y="49.74">.</text>
<text x="443.63" y="423.33">*</text>
<text x="51.39" y="8.65">+</text>
<text x="249.63" y="96.02">.</text>
<text x="102.09" y="82.56">.</text>
<text x="202.04" y="390.52">+</text>
<text x="141.66" y="275.96">.</text>
<text x="378.89" y="213.01">+</text>
<text x="251.12" y="81.23">*</text>
<text x="35.10" y="87.87">*</text>
<text x="415.14" y="449.97">.</text>
<text x="418.23" y="54.59">+</text>
<text x="29.63" y="35.64">.</text>
<text x="439.98" y="54.98">.</text>
<text x="299.92" y="226.48">+</text>
<text x="121.76" y="438.24">.</text>
<text x="10.91" y="205.09">+</text>
<text x="169.99" y="152.06">+</text>
<text x="114.09" y="431.66">.</text>
<text x="239.59" y="311.58">.</text>
<text x="477.26" y="416.29">+</text>
<text x="301.53" y="282.62">.</text>
<text x="461.56" y="457.47">+</text>
<text x="435.23" y="157.53">+</text>
<text x="334.78" y="386.27">.</text>
<text x="190.19" y="199.27">+</text>
<text x="34.37" y="37.76">*</text>
<text x="195.32" y="131.56">+</text>
<text x="47.15" y="219.49">.</text>
<text x="257.08" y="465.39">.</text>
<text x="183.87" y="41.18">.</text>
<text x="278.36" y="422.76">+</text>
<text x="159.80" y="247.41">+</text>
<text x="10.83" y="182.44">+</text>
<text x="174.07" y="175.04">.</text>
<text x="69.83" y="121.21">.</text>
<text x="205.12" y="7.98">+</text>
<text x="179.83" y="16.34">+</text>
<text x="261.80" y="221.41">+</text>
<text x="258.97" y="55.16">*</text>
<text x="379.58" y="435.46">+</text>
<text x="401.70" y="274.96">+</text>
<text x="75.24" y="37.77">.</text>

</svg>