
<svg viewBox="0 0 500 500" xmlns="http://www.w.org/2000/svg" width="100%" height="100%" style="background-color: #0a0a14; font-family: 'Courier New', Courier, monospace;">
    <style>
        text { fill: #aaa; font-size: 10px; text-anchor: middle; dominant-baseline: middle; }
    </style>
    <text x="304.27" y="56.82">.</text>
<text x="25.41" y="365.30">*</text>
<text x="38.87" y="47.36">*</text>
<text x="420.33" y="465.15">*</text>
<text x="206.91" y="462.89">.</text>
<text x="134.14" y="52.84">.</text>
<text x="143.60" y="159.21">.</text>
<text x="235.59" y="223.19">*</text>
<text x="320.77" y="459.37">+</text>
<text x="283.14" y="438.73">.</text>
<text x="423.91" y="21.50">+</text>
<text x="326.82" y="357.02">+</text>
<text x="467.27" y="454.37">+</text>
<text x="368.04" y="84.12">*</text>
<text x="400.24" y="123.43">+</text>
<text x="14.59" y="484.70">+</text>
<text x="415.47" y="415.83">.</text>
<text x="31.94" y="149.60">.</text>
<text x="450.00" y="205.99">+</text>
<text x="470.91" y="482.56">*</text>
<text x="379.36" y="391.82">+</text>
<text x="477.00" y="67.78">*</text>
<text x="177.40" y="113.86">.</text>
<text x="478.76" y="221.18">*</text>
<text x="193.36" y="29.79">.</text>
<text x="196.35" y="333.62">+</text>
<text x="135.96" y="328.64">+</text>
<text x="7.76" y="28.68">+</text>
<text x="7.36" y="429.65">.</text>
<text x="404.48" y="4.40">.</text>
<text x="28.70" y="162.82">*</text>
<text x="30.61" y="366.91">+</text>
<text x="361.53" y="353.79">*</text>
<text x="237.98" y="61.37">.</text>
<text x="109.68" y="163.16">+</text>
<text x="469.78" y="316.55">+</text>
<text x="152.16" y="307.13">+</text>
<text x="18.36" y="178.82">+</text>
<text x="129.17" y="498.19">.</text>
<text x="237.43" y="68.13">.</text>
<text x="178.84" y="236.49">+</text>
<text x="73.47" y="176.19">+</text>
<text x="408.98" y="279.45">.</text>
<text x="71.41" y="37.82">+</text>
<text x="73.56" y="321.87">.</text>
<text x="6.85" y="421.40">.</text>
<text x="140.18" y="191.79">+</text>
<text x="341.60" y="410.06">.</text>
<text x="264.68" y="393.57">+</text>
<text x="462.06" y="72.46">.</text>
<text x="215.70" y="382.90">+</text>
<text x="64.08" y="294.44">*</text>
<text x="73.23" y="459.96">+</text>
<text x="43.18" y="109.66">.</text>
<text x="86.81" y="494.95">.</text>
<text x="229.87" y="262.38">+</text>
<text x="181.66" y="231.11">.</text>
<text x="256.37" y="486.90">+</text>
<text x="360.99" y="325.38">+</text>
<text x="242.32" y="1.63">*</text>
<text x="211.40" y="241.78">+</text>
<text x="254.05" y="439.43">*</text>
<text x="210.60" y="52.20">+</text>
<text x="258.76" y="205.15">.</text>
<text x="234.36" y="194.24">+</text>
<text x="380.25" y="363.41">+</text>
<text x="62.97" y="324.68">.</text>
<text x="296.09" y="371.61">.</text>
<text x="218.49" y="233.71">+</text>
<text x="214.57" y="250.20">.</text>
<text x="152.58" y="121.12">+</text>
<text x="208.19" y="152.23">+</text>
<text x="11.05" y="205.99">.</text>
<text x="21.01" y="479.53">*</text>
<text x="320.36" y="174.31">.</text>
<text x="187.20" y="120.72">+</text>
<text x="172.02" y="34.27">.</text>
<text x="256.55" y="304.92">*</text>
<text x="113.07" y="222.99">.</text>
<text x="449.50" y="72.55">+</text>
<text x="186.47" y="115.47">+</text>
<text x="399.81" y="194.16">+</text>
<text x="201.68" y="305.72">+</text>
<text x="335.30" y="384.89">+</text>
<text x="474.87" y="131.97">+</text>
<text x="307.48" y="102.33">.</text>
<text x="227.59" y="129.48">+</text>
<text x="178.76" y="147.05">+</text>
<text x="329.26" y="386.58">+</text>
<text x="48.57" y="412.49">+</text>
<text x="197.42" y="196.50">.</text>
<text x="136.30" y="229.15">.</text>
<text x="383.37" y="439.33">.</text>
<text x="62.79" y="25.60">+</text>
<text x="209.42" y="196.01">+</text>
<text x="324.03" y="87.68">.</text>
<text x="69.22" y="90.26">*</text>
<text x="455.76" y="278.60">+</text>
<text x="36.10" y="433.73">*</text>
<text x="166.50" y="33.97">.</text>
<text x="120.78" y="297.10">+</text>
<text x="20.16" y="471.52">.</text>
<text x="273.78" y="377.62">+</text>
<text x="354.19" y="466.43">+</text>
<text x="20.62" y="408.09">+</text>
<text x="478.51" y="266.01">+</text>
<text x="22.65" y="344.41">+</text>
<text x="392.01" y="464.55">+</text>
<text x="44.35" y="245.79">+</text>
<text x="317.42" y="277.99">*</text>
<text x="467.93" y="275.84">+</text>
<text x="384.83" y="107.78">.</text>
<text x="350.74" y="182.35">.</text>
<text x="103.50" y="394.52">.</text>
<text x="345.81" y="186.58">.</text>
<text x="148.79" y="208.21">.</text>
<text x="195.79" y="345.02">+</text>
<text x="259.95" y="414.72">.</text>
<text x="158.48" y="150.02">.</text>
<text x="208.26" y="103.36">.</text>
<text x="34.21" y="125.63">.</text>
<text x="338.30" y="60.19">+</text>
<text x="36.57" y="318.02">+</text>
<text x="478.70" y="457.18">+</text>
<text x="124.56" y="296.59">+</text>
<text x="79.94" y="14.64">+</text>
<text x="480.14" y="186.90">.</text>
<text x="70.72" y="383.27">*</text>
<text x="340.43" y="97.88">.</text>
<text x="336.31" y="177.78">+</text>
<text x="318.15" y="121.87">+</text>
<text x="14.89" y="177.64">.</text>
<text x="292.83" y="452.62">+</text>
<text x="187.40" y="440.14">*</text>
<text x="425.18" y="128.52">+</text>
<text x="46.54" y="330.89">.</text>
<text x="48.66" y="111.86">*</text>
<text x="83.31" y="241.49">.</text>
<text x="208.71" y="497.91">+</text>
<text x="487.88" y="389.36">+</text>
<text x="429.10" y="47.39">+</text>
<text x="1.25" y="71.92">.</text>
<text x="363.49" y="311.64">.</text>
<text x="9.46" y="241.61">+</text>
<text x="28.46" y="499.82">+</text>
<text x="305.56" y="67.45">*</text>
<text x="249.42" y="25.72">+</text>
<text x="136.13" y="269.65">.</text>
<text x="191.33" y="111.38">+</text>
<text x="1.32" y="155.21">+</text>
<text x="229.22" y="246.22">+</text>
<text x="128.39" y="197.66">.</text>
<text x="87.41" y="113.13">+</text>
<text x="339.24" y="64.82">.</text>
<text x="479.37" y="171.33">+</text>
<text x="431.96" y="18.84">.</text>
<text x="248.02" y="237.40">+</text>
<text x="114.88" y="399.59">.</text>
<text x="483.43" y="149.12">*</text>
<text x="190.97" y="137.27">+</text>
<text x="349.93" y="375.94">+</text>
<text x="243.96" y="88.63">+</text>
<text x="43.72" y="488.98">+</text>
<text x="343.94" y="2.95">*</text>
<text x="63.27" y="291.32">+</text>
<text x="262.02" y="380.14">*</text>
<text x="97.59" y="23.07">.</text>
<text x="192.09" y="247.94">+</text>
<text x="12.20" y="124.99">.</text>
<text x="388.65" y="347.78">+</text>
<text x="267.40" y="82.06">.</text>
<text x="410.59" y="472.44">.</text>
<text x="28.66" y="172.92">*</text>
<text x="2.25" y="20.84">+</text>
<text x="397.48" y="292.57">+</text>
<text x="100.37" y="76.19">.</text>
<text x="361.96" y="174.37">+</text>
<text x="430.31" y="168.82">*</text>
<text x="412.72" y="212.92">.</text>
<text x="237.79" y="209.82">*</text>
<text x="422.72" y="330.57">.</text>
<text x="429.66" y="20.17">+</text>
<text x="349.43" y="446.13">.</text>
<text x="367.90" y="305.87">+</text>
<text x="346.45" y="106.24">.</text>
<text x="120.32" y="132.45">+</text>
<text x="186.33" y="267.36">+</text>
<text x="432.18" y="482.55">+</text>
<text x="25.23" y="105.21">.</text>
<text x="487.87" y="186.13">.</text>
<text x="278.49" y="382.75">+</text>
<text x="433.96" y="72.23">.</text>
<text x="211.32" y="154.36">.</text>
<text x="132.56" y="129.26">.</text>
<text x="85.77" y="266.56">+</text>
<text x="189.61" y="277.15">+</text>
<text x="469.67" y="472.60">+</text>
<text x="153.31" y="2.96">+</text>
<text x="454.63" y="141.99">.</text>
<text x="120.19" y="322.64">*</text>
<text x="406.04" y="178.35">+</text>
<text x="50.97" y="20.40">+</text>
<text x="386.51" y="180.42">*</text>
<text x="232.04" y="499.52">.</text>
<text x="395.23" y="2.71">*</text>
<text x="211.81" y="52.10">+</text>
<text x="16.69" y="62.84">.</text>
<text x="442.20" y="99.56">.</text>
<text x="173.68" y="195.29">.</text>
<text x="8.17" y="202.33">*</text>
<text x="278.13" y="450.99">*</text>
<text x="20.38" y="203.56">.</text>
<text x="387.78" y="472.13">+</text>
<text x="297.28" y="155.98">+</text>
<text x="421.36" y="94.67">*</text>
<text x="258.39" y="14.99">+</text>
<text x="298.92" y="169.58">+</text>
<text x="318.55" y="304.56">+</text>
<text x="404.67" y="360.24">.</text>
<text x="214.34" y="196.53">*</text>

</svg>