
<svg viewBox="0 0 500 500" xmlns="http://www.w.org/2000/svg" width="100%" height="100%" style="background-color: #0a0a14; font-family: 'Courier New', Courier, monospace;">
    <style>
        text { fill: #aaa; font-size: 10px; text-anchor: middle; dominant-baseline: middle; }
    </style>
    <text x="242.70" y="15.79">.</text>
<text x="283.96" y="287.44">+</text>
<text x="19.11" y="131.42">.</text>
<text x="271.25" y="444.09">+</text>
<text x="114.19" y="68.17">*</text>
<text x="101.42" y="310.01">+</text>
<text x="387.85" y="447.40">*</text>
<text x="455.60" y="265.05">.</text>
<text x="481.32" y="441.57">*</text>
<text x="153.49" y="251.05">.</text>
<text x="394.24" y="180.46">+</text>
<text x="480.33" y="61.69">*</text>
<text x="147.87" y="190.65">.</text>
<text x="181.58" y="302.29">*</text>
<text x="109.59" y="183.43">.</text>
<text x="382.11" y="372.12">+</text>
<text x="308.45" y="448.79">+</text>
<text x="303.07" y="208.76">.</text>
<text x="245.65" y="414.52">.</text>
<text x="104.77" y="252.57">+</text>
<text x="21.46" y="151.33">.</text>
<text x="164.72" y="455.11">.</text>
<text x="134.64" y="459.16">+</text>
<text x="145.75" y="300.62">+</text>
<text x="49.60" y="156.95">+</text>
<text x="325.08" y="409.60">+</text>
<text x="217.36" y="147.31">*</text>
<text x="439.32" y="196.81">+</text>
<text x="44.08" y="68.07">+</text>
<text x="449.30" y="72.50">+</text>
<text x="333.40" y="226.28">+</text>
<text x="181.99" y="341.42">.</text>
<text x="212.29" y="470.22">*</text>
<text x="453.26" y="166.67">+</text>
<text x="402.95" y="416.68">.</text>
<text x="281.95" y="58.52">*</text>
<text x="159.20" y="464.97">.</text>
<text x="250.09" y="373.43">.</text>
<text x="255.07" y="25.77">*</text>
<text x="123.15" y="261.90">.</text>
<text x="185.46" y="463.19">*</text>
<text x="487.16" y="369.54">.</text>
<text x="437.57" y="187.75">*</text>
<text x="233.54" y="457.83">*</text>
<text x="150.98" y="390.68">.</text>
<text x="195.90" y="298.16">+</text>
<text x="206.08" y="213.16">+</text>
<text x="48.86" y="96.31">.</text>
<text x="223.16" y="269.44">*</text>
<text x="126.53" y="151.53">.</text>
<text x="119.75" y="272.42">+</text>
<text x="367.52" y="453.11">.</text>
<text x="338.22" y="40.35">+</text>
<text x="386.55" y="22.09">.</text>
<text x="305.46" y="240.32">+</text>
<text x="166.74" y="250.27">+</text>
<text x="484.92" y="226.81">.</text>
<text x="275.08" y="229.09">*</text>
<text x="429.70" y="264.60">+</text>
<text x="158.10" y="321.67">.</text>
<text x="166.60" y="281.79">.</text>
<text x="242.35" y="311.51">.</text>
<text x="221.42" y="182.69">*</text>
<text x="283.83" y="232.75">.</text>
<text x="497.55" y="205.98">*</text>
<text x="291.49" y="468.24">+</text>
<text x="149.85" y="463.22">+</text>
<text x="255.53" y="121.63">+</text>
<text x="28.66" y="328.31">.</text>
<text x="311.00" y="182.36">+</text>
<text x="354.64" y="70.93">+</text>
<text x="367.95" y="42.33">.</text>
<text x="432.78" y="259.45">+</text>
<text x="163.68" y="203.65">+</text>
<text x="373.46" y="86.18">.</text>
<text x="247.05" y="13.79">+</text>
<text x="265.24" y="413.79">+</text>
<text x="318.01" y="414.42">+</text>
<text x="397.60" y="332.08">.</text>
<text x="419.84" y="463.47">.</text>
<text x="168.30" y="449.56">.</text>
<text x="328.55" y="99.17">+</text>
<text x="252.67" y="195.93">.</text>
<text x="191.94" y="405.45">.</text>
<text x="305.11" y="442.41">+</text>
<text x="440.47" y="86.49">*</text>
<text x="77.67" y="490.21">.</text>
<text x="167.34" y="37.96">.</text>
<text x="267.63" y="133.80">.</text>
<text x="33.14" y="467.02">+</text>
<text x="188.61" y="432.04">+</text>
<text x="438.91" y="139.34">*</text>
<text x="218.97" y="396.78">.</text>
<text x="288.76" y="79.32">.</text>
<text x="90.53" y="350.14">+</text>
<text x="247.10" y="351.41">+</text>
<text x="47.77" y="476.78">*</text>
<text x="207.88" y="261.36">+</text>
<text x="428.83" y="303.83">.</text>
<text x="188.96" y="168.89">.</text>
<text x="484.18" y="71.55">.</text>
<text x="250.91" y="469.36">.</text>
<text x="412.50" y="201.23">+</text>
<text x="50.73" y="162.44">.</text>
<text x="214.88" y="122.90">.</text>
<text x="427.59" y="112.68">.</text>
<text x="63.68" y="26.27">+</text>
<text x="486.62" y="327.88">*</text>
<text x="100.89" y="218.30">*</text>
<text x="4.76" y="71.19">.</text>
<text x="71.95" y="366.76">.</text>
<text x="51.43" y="471.56">.</text>
<text x="352.71" y="499.59">.</text>
<text x="317.93" y="462.47">+</text>
<text x="203.32" y="260.21">.</text>
<text x="341.36" y="174.43">.</text>
<text x="115.80" y="184.13">+</text>
<text x="119.89" y="404.02">.</text>
<text x="181.66" y="130.10">.</text>
<text x="127.43" y="362.64">+</text>
<text x="114.87" y="447.74">*</text>
<text x="422.43" y="317.72">.</text>
<text x="209.08" y="326.97">+</text>
<text x="236.92" y="108.98">+</text>
<text x="126.54" y="245.27">+</text>
<text x="407.86" y="114.39">.</text>
<text x="17.17" y="76.82">.</text>
<text x="105.09" y="51.79">.</text>
<text x="41.66" y="449.38">.</text>
<text x="64.65" y="291.55">*</text>
<text x="391.54" y="385.13">.</text>
<text x="335.51" y="302.64">.</text>
<text x="258.35" y="45.25">+</text>
<text x="427.33" y="56.57">.</text>
<text x="153.03" y="371.34">.</text>
<text x="66.05" y="459.66">.</text>
<text x="344.58" y="472.97">+</text>
<text x="187.98" y="59.04">*</text>
<text x="245.52" y="461.68">.</text>
<text x="446.30" y="261.29">.</text>
<text x="381.63" y="172.02">.</text>
<text x="392.79" y="209.86">.</text>
<text x="326.48" y="206.86">+</text>
<text x="166.37" y="81.76">.</text>
<text x="177.19" y="21.85">+</text>
<text x="464.47" y="275.46">+</text>
<text x="428.41" y="113.84">.</text>
<text x="270.23" y="263.50">.</text>
<text x="58.03" y="480.86">.</text>
<text x="56.21" y="292.77">+</text>
<text x="454.81" y="27.88">*</text>
<text x="215.24" y="132.17">+</text>
<text x="114.87" y="126.99">+</text>
<text x="484.12" y="296.33">.</text>
<text x="274.40" y="30.72">.</text>
<text x="437.38" y="442.45">*</text>
<text x="109.79" y="356.24">+</text>
<text x="172.23" y="472.85">+</text>
<text x="356.25" y="275.43">+</text>
<text x="304.72" y="104.51">+</text>
<text x="224.98" y="90.43">+</text>
<text x="298.36" y="272.08">*</text>
<text x="174.23" y="206.67">*</text>
<text x="200.61" y="134.75">+</text>
<text x="270.07" y="152.88">.</text>
<text x="138.77" y="327.85">.</text>
<text x="12.23" y="455.07">+</text>
<text x="238.29" y="88.58">.</text>
<text x="65.13" y="297.57">.</text>
<text x="499.57" y="333.94">*</text>
<text x="252.76" y="254.22">.</text>
<text x="5.02" y="464.70">+</text>
<text x="47.28" y="7.78">+</text>
<text x="398.83" y="301.28">+</text>
<text x="173.66" y="65.79">+</text>
<text x="427.92" y="379.84">+</text>
<text x="413.79" y="49.40">.</text>
<text x="407.40" y="4.45">+</text>
<text x="316.69" y="271.06">+</text>
<text x="29.49" y="256.97">+</text>
<text x="402.84" y="452.17">*</text>
<text x="231.53" y="218.55">+</text>
<text x="456.89" y="60.99">.</text>
<text x="210.95" y="320.48">+</text>
<text x="401.55" y="83.89">+</text>
<text x="185.83" y="270.66">+</text>
<text x="408.40" y="484.32">.</text>
<text x="373.17" y="325.30">.</text>
<text x="334.89" y="79.73">.</text>
<text x="274.64" y="67.35">.</text>
<text x="370.07" y="425.99">+</text>
<text x="490.84" y="66.22">+</text>
<text x="240.16" y="87.83">+</text>
<text x="284.42" y="172.94">*</text>
<text x="311.01" y="460.81">+</text>
<text x="429.96" y="240.53">+</text>
<text x="10.37" y="35.87">.</text>
<text x="446.29" y="300.38">*</text>
<text x="378.54" y="175.16">.</text>
<text x="14.77" y="472.42">+</text>
<text x="127.95" y="233.17">+</text>
<text x="189.69" y="491.97">.</text>
<text x="191.89" y="151.61">*</text>

</svg>