
<svg viewBox="0 0 500 500" xmlns="http://www.w.org/2000/svg" width="100%" height="100%" style="background-color: #0a0a14; font-family: 'Courier New', Courier, monospace;">
    <style>
        text { fill: #aaa; font-size: 10px; text-anchor: middle; dominant-baseline: middle; }
    </style>
    <text x="262.49" y="138.39">+</text>
<text x="160.07" y="221.31">.</text>
<text x="369.94" y="31.53">+</text>
<text x="292.99" y="483.95">+</text>
<text x="299.57" y="213.77">+</text>
<text x="434.38" y="87.13">+</text>
<text x="445.61" y="179.83">+</text>
<text x="38.62" y="285.91">.</text>
<text x="251.51" y="11.39">+</text>
<text x="108.37" y="340.20">.</text>
<text x="116.03" y="325.61">.</text>
<text x="82.23" y="358.93">.</text>
<text x="402.64" y="158.74">+</text>
<text x="161.51" y="162.00">.</text>
<text x="213.16" y="346.37">+</text>
<text x="194.93" y="1.50">.</text>
<text x="59.98" y="246.22">+</text>
<text x="37.49" y="265.88">.</text>
<text x="275.14" y="362.06">.</text>
<text x="400.50" y="28.12">+</text>
<text x="229.80" y="20.46">*</text>
<text x="118.13" y="331.46">*</text>
<text x="287.04" y="97.16">.</text>
<text x="308.69" y="361.46">*</text>
<text x="442.63" y="444.99">+</text>
<text x="476.98" y="185.25">.</text>
<text x="424.01" y="105.25">.</text>
<text x="205.00" y="129.49">+</text>
<text x="350.14" y="357.83">.</text>
<text x="317.20" y="214.27">*</text>
<text x="37.34" y="372.55">.</text>
<text x="49.95" y="251.79">.</text>
<text x="242.71" y="170.33">.</text>
<text x="254.68" y="135.21">.</text>
<text x="356.21" y="136.01">.</text>
<text x="106.38" y="386.45">.</text>
<text x="349.62" y="421.38">.</text>
<text x="296.52" y="97.57">.</text>
<text x="362.19" y="42.29">.</text>
<text x="307.25" y="357.36">.</text>
<text x="457.15" y="258.99">+</text>
<text x="147.55" y="246.19">+</text>
<text x="381.34" y="357.87">+</text>
<text x="271.89" y="208.75">+</text>
<text x="283.10" y="499.25">*</text>
<text x="209.77" y="151.42">+</text>
<text x="484.51" y="447.71">+</text>
<text x="195.93" y="292.41">.</text>
<text x="125.23" y="152.79">.</text>
<text x="73.71" y="49.43">*</text>
<text x="24.70" y="93.58">*</text>
<text x="224.11" y="191.78">.</text>
<text x="207.33" y="186.68">.</text>
<text x="242.88" y="451.85">+</text>
<text x="200.84" y="371.00">.</text>
<text x="226.05" y="72.34">.</text>
<text x="57.59" y="441.77">+</text>
<text x="492.25" y="483.48">*</text>
<text x="466.22" y="215.45">.</text>
<text x="49.26" y="201.19">.</text>
<text x="479.31" y="42.39">.</text>
<text x="77.67" y="0.60">+</text>
<text x="415.97" y="292.87">+</text>
<text x="295.75" y="346.45">+</text>
<text x="409.58" y="300.86">.</text>
<text x="424.24" y="339.39">+</text>
<text x="473.68" y="486.78">.</text>
<text x="333.93" y="292.99">.</text>
<text x="257.76" y="14.07">+</text>
<text x="355.83" y="286.69">.</text>
<text x="266.38" y="411.30">+</text>
<text x="132.42" y="58.82">*</text>
<text x="287.24" y="99.60">+</text>
<text x="174.53" y="337.77">.</text>
<text x="107.65" y="127.48">.</text>
<text x="217.44" y="121.16">.</text>
<text x="251.79" y="72.51">.</text>
<text x="265.81" y="456.59">+</text>
<text x="277.37" y="53.24">+</text>
<text x="136.82" y="415.79">*</text>
<text x="422.66" y="427.62">*</text>
<text x="341.50" y="336.75">.</text>
<text x="115.91" y="333.77">.</text>
<text x="222.25" y="66.84">.</text>
<text x="474.14" y="419.50">.</text>
<text x="225.93" y="23.31">*</text>
<text x="2.27" y="414.46">*</text>
<text x="427.99" y="175.05">+</text>
<text x="53.24" y="133.80">+</text>
<text x="355.02" y="431.92">+</text>
<text x="397.41" y="321.56">+</text>
<text x="19.91" y="311.05">+</text>
<text x="216.93" y="103.30">+</text>
<text x="62.96" y="363.88">+</text>
<text x="484.43" y="499.51">.</text>
<text x="104.05" y="137.91">.</text>
<text x="355.93" y="306.72">+</text>
<text x="270.28" y="54.39">*</text>
<text x="277.26" y="239.47">+</text>
<text x="488.71" y="78.49">+</text>
<text x="400.18" y="355.40">+</text>
<text x="82.48" y="81.96">+</text>
<text x="175.56" y="495.58">+</text>
<text x="326.47" y="53.06">*</text>
<text x="98.62" y="159.15">+</text>
<text x="439.36" y="122.39">.</text>
<text x="200.14" y="494.08">*</text>
<text x="472.30" y="429.72">.</text>
<text x="111.51" y="497.01">+</text>
<text x="386.49" y="148.37">.</text>
<text x="319.58" y="120.45">*</text>
<text x="435.18" y="122.45">+</text>
<text x="393.92" y="99.42">*</text>
<text x="0.38" y="320.59">.</text>
<text x="222.32" y="110.69">.</text>
<text x="439.70" y="287.97">*</text>
<text x="81.08" y="111.12">+</text>
<text x="300.95" y="421.69">*</text>
<text x="495.35" y="96.92">.</text>
<text x="391.58" y="55.80">.</text>
<text x="236.74" y="494.20">*</text>
<text x="396.09" y="278.99">.</text>
<text x="336.15" y="5.57">.</text>
<text x="162.55" y="65.57">.</text>
<text x="70.52" y="236.30">+</text>
<text x="172.89" y="74.05">+</text>
<text x="49.75" y="120.26">+</text>
<text x="171.10" y="352.10">.</text>
<text x="421.81" y="298.05">.</text>
<text x="439.46" y="251.79">+</text>
<text x="268.15" y="77.50">.</text>
<text x="457.71" y="244.31">.</text>
<text x="181.60" y="143.09">.</text>
<text x="23.48" y="176.08">.</text>
<text x="365.69" y="122.18">+</text>
<text x="318.78" y="123.36">.</text>
<text x="267.07" y="73.03">+</text>
<text x="279.64" y="470.55">*</text>
<text x="51.52" y="373.61">+</text>
<text x="221.04" y="218.87">+</text>
<text x="254.03" y="36.82">.</text>
<text x="14.85" y="354.05">+</text>
<text x="437.26" y="319.97">.</text>
<text x="426.53" y="314.41">.</text>
<text x="127.47" y="352.62">+</text>
<text x="182.74" y="418.96">.</text>
<text x="82.11" y="448.45">*</text>
<text x="351.94" y="56.15">.</text>
<text x="113.03" y="242.77">*</text>
<text x="8.53" y="181.11">+</text>
<text x="279.22" y="231.16">+</text>
<text x="393.70" y="4.05">.</text>
<text x="397.89" y="414.14">.</text>
<text x="392.93" y="33.65">+</text>
<text x="319.91" y="495.91">.</text>
<text x="188.40" y="285.82">+</text>
<text x="224.18" y="88.75">+</text>
<text x="346.65" y="319.82">+</text>
<text x="246.93" y="69.81">+</text>
<text x="351.29" y="396.85">.</text>
<text x="258.55" y="118.60">+</text>
<text x="348.15" y="350.67">.</text>
<text x="482.00" y="3.30">.</text>
<text x="283.06" y="45.80">+</text>
<text x="15.09" y="196.30">*</text>
<text x="302.07" y="58.93">.</text>
<text x="360.83" y="306.46">.</text>
<text x="64.67" y="65.00">.</text>
<text x="273.60" y="120.75">.</text>
<text x="129.91" y="121.78">.</text>
<text x="473.50" y="145.08">*</text>
<text x="169.38" y="70.94">.</text>
<text x="11.08" y="244.52">.</text>
<text x="334.92" y="451.12">+</text>
<text x="217.29" y="385.77">.</text>
<text x="217.26" y="185.88">.</text>
<text x="66.99" y="94.43">+</text>
<text x="153.48" y="281.00">*</text>
<text x="188.52" y="284.39">+</text>
<text x="207.64" y="390.38">.</text>
<text x="97.64" y="490.39">.</text>
<text x="361.49" y="433.21">+</text>
<text x="106.62" y="434.95">+</text>
<text x="134.92" y="144.35">+</text>
<text x="134.91" y="479.97">.</text>
<text x="228.62" y="96.92">.</text>
<text x="361.13" y="86.21">.</text>
<text x="178.16" y="428.40">+</text>
<text x="370.91" y="176.87">+</text>
<text x="155.00" y="332.42">.</text>
<text x="212.85" y="461.29">.</text>
<text x="476.73" y="284.55">*</text>
<text x="18.03" y="234.68">.</text>
<text x="233.34" y="186.05">+</text>
<text x="157.22" y="143.55">*</text>
<text x="248.21" y="127.35">.</text>
<text x="244.87" y="70.92">+</text>
<text x="291.56" y="296.75">+</text>
<text x="406.07" y="477.77">*</text>
<text x="311.17" y="328.86">.</text>
<text x="420.73" y="340.95">.</text>
<text x="198.11" y="439.00">+</text>
<text x="83.40" y="146.03">.</text>
<text x="192.48" y="191.14">+</text>
<text x="39.61" y="51.01">.</text>
<text x="73.45" y="99.02">.</text>
<text x="218.44" y="16.00">.</text>
<text x="214.96" y="154.08">.</text>

</svg>