
<svg viewBox="0 0 500 500" xmlns="http://www.w.org/2000/svg" width="100%" height="100%" style="background-color: #0a0a14; font-family: 'Courier New', Courier, monospace;">
    <style>
        text { fill: #aaa; font-size: 10px; text-anchor: middle; dominant-baseline: middle; }
    </style>
    <text x="303.96" y="235.12">*</text>
<text x="181.68" y="162.54">*</text>
<text x="347.72" y="291.86">.</text>
<text x="425.56" y="450.66">+</text>
<text x="302.89" y="189.97">.</text>
<text x="169.96" y="101.90">*</text>
<text x="246.22" y="322.03">.</text>
<text x="165.98" y="342.28">+</text>
<text x="487.66" y="148.80">+</text>
<text x="94.53" y="457.70">.</text>
<text x="310.65" y="495.22">.</text>
<text x="363.49" y="339.50">*</text>
<text x="329.92" y="399.97">.</text>
<text x="469.28" y="74.86">+</text>
<text x="239.78" y="415.68">*</text>
<text x="394.48" y="292.65">+</text>
<text x="465.03" y="16.51">.</text>
<text x="314.05" y="56.15">+</text>
<text x="223.69" y="250.83">.</text>
<text x="237.07" y="102.69">.</text>
<text x="448.80" y="88.19">*</text>
<text x="240.32" y="210.51">+</text>
<text x="59.14" y="416.09">*</text>
<text x="387.37" y="420.81">.</text>
<text x="330.16" y="102.66">+</text>
<text x="294.31" y="36.57">+</text>
<text x="493.47" y="283.43">.</text>
<text x="41.31" y="445.18">+</text>
<text x="90.50" y="152.06">.</text>
<text x="335.30" y="323.54">.</text>
<text x="209.20" y="180.62">*</text>
<text x="352.22" y="440.77">.</text>
<text x="207.80" y="74.72">.</text>
<text x="320.74" y="467.12">.</text>
<text x="64.55" y="441.74">+</text>
<text x="397.22" y="44.12">+</text>
<text x="59.19" y="317.56">.</text>
<text x="478.90" y="393.90">.</text>
<text x="380.58" y="139.02">+</text>
<text x="373.71" y="267.34">.</text>
<text x="375.43" y="36.94">*</text>
<text x="95.26" y="474.19">.</text>
<text x="379.99" y="387.15">*</text>
<text x="42.50" y="165.04">*</text>
<text x="321.24" y="8.33">.</text>
<text x="374.61" y="415.73">*</text>
<text x="418.93" y="325.39">+</text>
<text x="264.07" y="441.73">.</text>
<text x="336.38" y="133.50">*</text>
<text x="82.71" y="352.00">+</text>
<text x="342.92" y="368.32">+</text>
<text x="479.56" y="199.45">.</text>
<text x="191.61" y="387.21">+</text>
<text x="11.88" y="95.36">*</text>
<text x="104.75" y="426.65">+</text>
<text x="168.80" y="318.24">*</text>
<text x="497.80" y="256.27">+</text>
<text x="367.80" y="478.88">.</text>
<text x="165.52" y="493.64">.</text>
<text x="7.42" y="246.86">.</text>
<text x="414.92" y="242.59">.</text>
<text x="301.01" y="379.50">.</text>
<text x="491.74" y="372.66">.</text>
<text x="139.44" y="146.79">.</text>
<text x="187.20" y="56.64">+</text>
<text x="323.55" y="54.47">+</text>
<text x="467.58" y="467.57">.</text>
<text x="29.71" y="37.45">.</text>
<text x="342.66" y="365.32">.</text>
<text x="41.43" y="373.79">.</text>
<text x="125.64" y="455.31">+</text>
<text x="378.93" y="310.33">+</text>
<text x="249.73" y="394.52">+</text>
<text x="482.81" y="262.34">.</text>
<text x="394.49" y="206.65">+</text>
<text x="438.59" y="151.27">*</text>
<text x="260.80" y="250.30">.</text>
<text x="456.69" y="491.96">+</text>
<text x="191.21" y="319.20">*</text>
<text x="270.10" y="118.73">+</text>
<text x="265.69" y="185.95">.</text>
<text x="143.49" y="369.94">+</text>
<text x="380.84" y="395.74">*</text>
<text x="342.32" y="466.69">*</text>
<text x="90.00" y="202.85">.</text>
<text x="456.47" y="316.57">.</text>
<text x="405.26" y="52.55">.</text>
<text x="261.30" y="226.59">.</text>
<text x="374.81" y="103.55">+</text>
<text x="442.43" y="218.56">+</text>
<text x="438.86" y="440.32">.</text>
<text x="431.57" y="200.04">+</text>
<text x="25.72" y="403.40">*</text>
<text x="248.38" y="245.28">+</text>
<text x="388.41" y="463.85">*</text>
<text x="285.45" y="341.66">.</text>
<text x="114.97" y="329.55">+</text>
<text x="456.06" y="80.52">.</text>
<text x="369.76" y="352.61">+</text>
<text x="81.07" y="486.63">.</text>
<text x="61.44" y="92.24">.</text>
<text x="422.78" y="335.50">+</text>
<text x="85.75" y="229.78">+</text>
<text x="88.60" y="334.04">.</text>
<text x="225.06" y="275.80">.</text>
<text x="316.27" y="447.78">+</text>
<text x="478.69" y="181.91">.</text>
<text x="220.64" y="468.99">.</text>
<text x="477.44" y="241.97">.</text>
<text x="441.36" y="418.88">+</text>
<text x="365.55" y="139.52">+</text>
<text x="463.78" y="437.18">.</text>
<text x="117.26" y="19.18">+</text>
<text x="394.10" y="364.74">+</text>
<text x="359.33" y="62.69">.</text>
<text x="414.18" y="13.55">.</text>
<text x="44.84" y="470.19">*</text>
<text x="20.30" y="405.54">+</text>
<text x="22.67" y="373.98">.</text>
<text x="413.94" y="430.92">.</text>
<text x="187.16" y="136.01">+</text>
<text x="179.83" y="53.82">+</text>
<text x="329.75" y="96.77">+</text>
<text x="90.32" y="263.41">+</text>
<text x="247.89" y="161.47">+</text>
<text x="488.04" y="151.10">.</text>
<text x="158.94" y="240.17">+</text>
<text x="176.45" y="106.40">.</text>
<text x="123.04" y="183.16">.</text>
<text x="30.46" y="86.04">*</text>
<text x="125.57" y="356.74">+</text>
<text x="31.37" y="17.94">.</text>
<text x="86.54" y="286.84">.</text>
<text x="217.41" y="7.30">.</text>
<text x="186.88" y="189.17">+</text>
<text x="178.26" y="467.21">.</text>
<text x="189.98" y="132.68">+</text>
<text x="276.72" y="100.30">+</text>
<text x="455.17" y="404.59">+</text>
<text x="226.10" y="410.66">+</text>
<text x="102.54" y="208.68">+</text>
<text x="38.01" y="279.69">+</text>
<text x="490.60" y="114.26">*</text>
<text x="30.83" y="121.33">.</text>
<text x="447.69" y="112.93">.</text>
<text x="30.61" y="345.75">.</text>
<text x="484.78" y="89.79">+</text>
<text x="49.01" y="388.34">.</text>
<text x="399.02" y="41.98">.</text>
<text x="403.00" y="151.11">.</text>
<text x="279.03" y="239.96">+</text>
<text x="98.29" y="71.34">.</text>
<text x="123.52" y="324.03">+</text>
<text x="339.05" y="232.10">+</text>
<text x="74.55" y="113.28">.</text>
<text x="386.04" y="121.72">+</text>
<text x="146.85" y="83.19">*</text>
<text x="498.09" y="73.00">.</text>
<text x="175.39" y="143.40">+</text>
<text x="199.89" y="125.82">+</text>
<text x="305.21" y="118.23">.</text>
<text x="51.75" y="68.53">.</text>
<text x="13.02" y="325.92">+</text>
<text x="92.34" y="468.66">.</text>
<text x="59.86" y="400.79">.</text>
<text x="154.50" y="251.31">.</text>
<text x="360.15" y="285.30">+</text>
<text x="63.01" y="209.98">.</text>
<text x="399.62" y="487.77">.</text>
<text x="428.65" y="16.24">.</text>
<text x="385.21" y="355.31">.</text>
<text x="83.90" y="368.74">.</text>
<text x="495.09" y="166.04">+</text>
<text x="165.80" y="13.28">.</text>
<text x="145.10" y="231.28">.</text>
<text x="307.32" y="260.01">+</text>
<text x="375.76" y="406.33">.</text>
<text x="116.08" y="7.64">*</text>
<text x="403.16" y="164.46">*</text>
<text x="132.00" y="199.29">*</text>
<text x="344.96" y="16.66">.</text>
<text x="188.75" y="342.29">+</text>
<text x="152.80" y="323.66">.</text>
<text x="289.39" y="109.70">*</text>
<text x="284.13" y="164.42">+</text>
<text x="159.31" y="276.01">.</text>
<text x="76.94" y="15.71">.</text>
<text x="6.98" y="232.65">.</text>
<text x="187.32" y="156.21">+</text>
<text x="440.26" y="50.22">+</text>
<text x="102.09" y="163.08">*</text>
<text x="143.29" y="122.49">.</text>
<text x="85.61" y="123.57">.</text>
<text x="153.30" y="52.58">+</text>
<text x="87.28" y="127.41">.</text>
<text x="311.92" y="155.42">.</text>
<text x="338.58" y="6.34">+</text>
<text x="445.34" y="15.47">.</text>
<text x="83.63" y="465.46">*</text>
<text x="253.94" y="359.80">.</text>
<text x="277.29" y="8.04">.</text>
<text x="26.26" y="50.94">*</text>
<text x="423.46" y="287.82">.</text>
<text x="214.12" y="337.33">+</text>
<text x="185.60" y="266.21">+</text>
<text x="121.83" y="9.22">*</text>
<text x="235.86" y="245.24">.</text>

</svg>