
<svg viewBox="0 0 500 500" xmlns="http://www.w.org/2000/svg" width="100%" height="100%" style="background-color: #0a0a14; font-family: 'Courier New', Courier, monospace;">
    <style>
        text { fill: #aaa; font-size: 10px; text-anchor: middle; dominant-baseline: middle; }
    </style>
    <text x="169.94" y="284.08">.</text>
<text x="16.57" y="73.13">+</text>
<text x="0.76" y="72.25">+</text>
<text x="62.91" y="166.02">.</text>
<text x="174.84" y="238.84">+</text>
<text x="372.33" y="222.66">.</text>
<text x="407.03" y="89.89">+</text>
<text x="58.52" y="227.63">.</text>
<text x="471.67" y="293.73">.</text>
<text x="165.80" y="34.00">+</text>
<text x="390.45" y="327.69">.</text>
<text x="301.93" y="83.47">*</text>
<text x="189.77" y="388.81">+</text>
<text x="432.17" y="46.51">.</text>
<text x="126.65" y="358.93">.</text>
<text x="121.09" y="199.07">+</text>
<text x="93.53" y="159.15">.</text>
<text x="233.11" y="295.79">*</text>
<text x="236.84" y="256.00">+</text>
<text x="346.80" y="169.67">+</text>
<text x="305.77" y="31.51">.</text>
<text x="309.51" y="148.34">+</text>
<text x="109.82" y="137.71">.</text>
<text x="156.37" y="476.04">+</text>
<text x="235.43" y="473.65">+</text>
<text x="85.89" y="309.92">.</text>
<text x="436.19" y="83.29">.</text>
<text x="69.18" y="476.91">.</text>
<text x="471.03" y="101.53">*</text>
<text x="393.97" y="358.37">.</text>
<text x="318.01" y="164.89">*</text>
<text x="158.74" y="269.50">+</text>
<text x="306.79" y="335.71">+</text>
<text x="10.89" y="84.97">.</text>
<text x="153.93" y="327.77">.</text>
<text x="472.07" y="278.62">*</text>
<text x="453.82" y="324.94">*</text>
<text x="446.10" y="30.62">+</text>
<text x="37.51" y="96.89">+</text>
<text x="384.32" y="250.30">+</text>
<text x="281.32" y="240.98">.</text>
<text x="460.99" y="61.34">.</text>
<text x="195.46" y="136.76">+</text>
<text x="263.32" y="265.46">+</text>
<text x="382.99" y="347.07">+</text>
<text x="148.64" y="230.33">+</text>
<text x="225.30" y="468.30">+</text>
<text x="56.66" y="43.81">+</text>
<text x="1.66" y="39.91">.</text>
<text x="138.73" y="102.86">+</text>
<text x="195.48" y="132.01">.</text>
<text x="25.39" y="198.94">.</text>
<text x="76.48" y="389.75">.</text>
<text x="422.10" y="268.11">+</text>
<text x="19.93" y="118.76">.</text>
<text x="331.92" y="346.08">*</text>
<text x="482.51" y="249.22">+</text>
<text x="183.76" y="126.66">.</text>
<text x="297.73" y="333.14">+</text>
<text x="13.53" y="84.26">.</text>
<text x="190.90" y="111.24">.</text>
<text x="331.35" y="114.57">+</text>
<text x="338.72" y="42.79">+</text>
<text x="470.53" y="437.68">.</text>
<text x="184.11" y="393.86">*</text>
<text x="195.43" y="258.21">+</text>
<text x="80.22" y="281.68">.</text>
<text x="280.07" y="451.81">.</text>
<text x="452.78" y="310.11">+</text>
<text x="6.09" y="308.03">.</text>
<text x="419.34" y="333.47">*</text>
<text x="84.82" y="0.35">+</text>
<text x="382.24" y="120.36">+</text>
<text x="304.21" y="259.88">+</text>
<text x="469.75" y="275.04">+</text>
<text x="25.56" y="371.95">.</text>
<text x="301.73" y="304.49">.</text>
<text x="146.20" y="354.63">.</text>
<text x="329.08" y="28.29">.</text>
<text x="50.40" y="246.30">.</text>
<text x="275.87" y="88.71">.</text>
<text x="189.80" y="204.23">.</text>
<text x="45.27" y="25.36">+</text>
<text x="354.11" y="100.71">*</text>
<text x="433.31" y="354.56">+</text>
<text x="488.24" y="93.66">.</text>
<text x="339.73" y="400.11">*</text>
<text x="13.48" y="441.10">.</text>
<text x="460.73" y="274.48">+</text>
<text x="125.70" y="454.38">.</text>
<text x="218.46" y="491.51">+</text>
<text x="288.57" y="210.61">.</text>
<text x="402.16" y="135.94">+</text>
<text x="332.98" y="453.06">.</text>
<text x="479.95" y="109.30">+</text>
<text x="222.15" y="477.20">+</text>
<text x="369.46" y="305.65">.</text>
<text x="355.63" y="330.24">.</text>
<text x="207.31" y="22.64">+</text>
<text x="466.64" y="305.20">*</text>
<text x="194.14" y="182.62">+</text>
<text x="237.26" y="238.91">*</text>
<text x="220.69" y="134.36">+</text>
<text x="69.30" y="217.13">+</text>
<text x="238.44" y="454.34">+</text>
<text x="53.27" y="40.16">*</text>
<text x="50.46" y="261.22">.</text>
<text x="129.95" y="3.22">+</text>
<text x="440.26" y="478.54">.</text>
<text x="128.37" y="229.40">*</text>
<text x="385.62" y="108.77">+</text>
<text x="82.06" y="312.81">.</text>
<text x="204.32" y="260.41">.</text>
<text x="407.85" y="58.86">.</text>
<text x="232.80" y="281.22">.</text>
<text x="392.65" y="230.05">.</text>
<text x="242.36" y="344.50">.</text>
<text x="306.87" y="415.75">.</text>
<text x="47.75" y="106.76">.</text>
<text x="166.44" y="276.22">+</text>
<text x="115.94" y="254.86">+</text>
<text x="167.51" y="407.99">+</text>
<text x="375.20" y="65.65">.</text>
<text x="422.79" y="363.63">.</text>
<text x="10.62" y="303.47">.</text>
<text x="53.40" y="425.09">+</text>
<text x="394.82" y="401.51">.</text>
<text x="455.78" y="179.06">+</text>
<text x="51.94" y="181.92">*</text>
<text x="498.89" y="478.78">+</text>
<text x="96.34" y="15.06">+</text>
<text x="118.37" y="350.10">+</text>
<text x="421.66" y="265.83">.</text>
<text x="325.88" y="58.98">.</text>
<text x="412.43" y="437.77">.</text>
<text x="217.27" y="40.69">+</text>
<text x="55.69" y="342.41">+</text>
<text x="64.68" y="72.78">*</text>
<text x="32.41" y="407.94">.</text>
<text x="351.32" y="295.24">*</text>
<text x="112.54" y="39.01">.</text>
<text x="379.34" y="209.41">.</text>
<text x="134.87" y="428.14">.</text>
<text x="335.17" y="350.71">+</text>
<text x="396.19" y="45.22">*</text>
<text x="220.30" y="274.18">.</text>
<text x="25.34" y="126.14">.</text>
<text x="16.76" y="326.33">+</text>
<text x="79.22" y="178.95">+</text>
<text x="310.40" y="171.63">*</text>
<text x="93.73" y="24.02">*</text>
<text x="313.82" y="120.79">+</text>
<text x="470.67" y="308.02">.</text>
<text x="433.40" y="159.12">+</text>
<text x="38.36" y="262.83">*</text>
<text x="311.47" y="35.65">.</text>
<text x="134.80" y="497.65">.</text>
<text x="120.15" y="209.09">.</text>
<text x="86.96" y="434.59">*</text>
<text x="130.30" y="378.74">*</text>
<text x="285.48" y="7.15">.</text>
<text x="275.37" y="146.03">.</text>
<text x="139.31" y="92.28">.</text>
<text x="330.57" y="86.48">+</text>
<text x="208.15" y="375.01">.</text>
<text x="389.18" y="201.01">.</text>
<text x="236.05" y="394.86">+</text>
<text x="121.56" y="449.35">+</text>
<text x="260.57" y="13.56">*</text>
<text x="111.81" y="332.38">.</text>
<text x="64.85" y="362.24">+</text>
<text x="262.81" y="35.06">+</text>
<text x="43.13" y="482.29">+</text>
<text x="347.07" y="148.18">.</text>
<text x="132.58" y="363.07">+</text>
<text x="253.31" y="161.36">+</text>
<text x="100.76" y="38.21">.</text>
<text x="479.75" y="315.43">.</text>
<text x="39.67" y="470.73">.</text>
<text x="251.14" y="181.79">+</text>
<text x="118.20" y="88.58">*</text>
<text x="348.20" y="222.25">+</text>
<text x="446.99" y="204.89">.</text>
<text x="20.06" y="78.37">+</text>
<text x="364.83" y="371.19">+</text>
<text x="275.32" y="352.41">+</text>
<text x="162.90" y="414.33">+</text>
<text x="394.46" y="397.50">.</text>
<text x="392.43" y="116.63">+</text>
<text x="157.51" y="27.42">*</text>
<text x="403.68" y="201.87">.</text>
<text x="429.26" y="213.68">.</text>
<text x="72.37" y="222.43">+</text>
<text x="475.47" y="77.86">+</text>
<text x="348.42" y="248.21">*</text>
<text x="196.18" y="180.69">+</text>
<text x="136.48" y="190.78">+</text>
<text x="206.33" y="367.97">+</text>
<text x="371.06" y="379.05">*</text>
<text x="109.66" y="191.85">.</text>
<text x="187.69" y="349.88">+</text>
<text x="324.38" y="369.85">.</text>
<text x="182.59" y="252.76">.</text>
<text x="357.76" y="407.22">*</text>
<text x="188.15" y="71.22">+</text>
<text x="322.65" y="158.63">+</text>
<text x="495.67" y="298.14">+</text>

</svg>