
<svg viewBox="0 0 500 500" xmlns="http://www.w.org/2000/svg" width="100%" height="100%" style="background-color: #0a0a14; font-family: 'Courier New', Courier, monospace;">
    <style>
        text { fill: #aaa; font-size: 10px; text-anchor: middle; dominant-baseline: middle; }
    </style>
    <text x="299.86" y="221.57">+</text>
<text x="449.10" y="96.47">+</text>
<text x="192.18" y="30.46">*</text>
<text x="134.05" y="177.19">.</text>
<text x="230.46" y="288.95">+</text>
<text x="264.10" y="299.18">.</text>
<text x="358.81" y="191.42">.</text>
<text x="486.66" y="122.74">*</text>
<text x="416.07" y="473.90">+</text>
<text x="344.34" y="465.80">+</text>
<text x="249.57" y="131.67">+</text>
<text x="273.26" y="256.72">*</text>
<text x="283.76" y="280.04">+</text>
<text x="140.71" y="427.23">+</text>
<text x="462.28" y="37.19">*</text>
<text x="416.44" y="142.24">+</text>
<text x="239.59" y="120.30">.</text>
<text x="182.01" y="36.31">+</text>
<text x="393.31" y="92.94">+</text>
<text x="238.44" y="221.98">+</text>
<text x="147.52" y="311.95">+</text>
<text x="343.36" y="459.05">*</text>
<text x="483.48" y="166.59">*</text>
<text x="347.50" y="9.68">*</text>
<text x="213.22" y="164.68">+</text>
<text x="258.50" y="194.16">*</text>
<text x="20.52" y="453.75">+</text>
<text x="485.96" y="72.15">+</text>
<text x="221.38" y="473.75">.</text>
<text x="6.63" y="254.30">+</text>
<text x="229.99" y="212.31">+</text>
<text x="176.86" y="377.99">.</text>
<text x="425.35" y="297.01">.</text>
<text x="142.84" y="127.77">.</text>
<text x="298.43" y="13.87">+</text>
<text x="478.26" y="27.79">+</text>
<text x="126.90" y="468.23">+</text>
<text x="467.97" y="417.22">+</text>
<text x="36.27" y="240.04">.</text>
<text x="108.68" y="457.02">+</text>
<text x="124.31" y="83.24">*</text>
<text x="446.94" y="291.09">.</text>
<text x="88.80" y="473.52">*</text>
<text x="411.76" y="136.05">.</text>
<text x="85.40" y="54.27">.</text>
<text x="296.60" y="5.36">+</text>
<text x="40.95" y="284.04">*</text>
<text x="359.58" y="93.41">.</text>
<text x="492.03" y="299.50">.</text>
<text x="162.60" y="481.17">.</text>
<text x="235.10" y="428.15">.</text>
<text x="45.14" y="179.49">.</text>
<text x="30.84" y="442.75">+</text>
<text x="87.75" y="34.27">*</text>
<text x="217.82" y="417.58">*</text>
<text x="170.07" y="224.27">+</text>
<text x="125.41" y="90.48">+</text>
<text x="318.61" y="48.08">+</text>
<text x="80.34" y="47.94">*</text>
<text x="273.08" y="39.62">+</text>
<text x="234.05" y="178.37">+</text>
<text x="112.32" y="377.81">+</text>
<text x="220.89" y="291.88">*</text>
<text x="150.00" y="327.99">.</text>
<text x="230.53" y="357.99">+</text>
<text x="281.79" y="50.11">.</text>
<text x="150.00" y="178.06">+</text>
<text x="264.44" y="190.35">.</text>
<text x="171.17" y="65.25">+</text>
<text x="25.26" y="198.15">+</text>
<text x="25.08" y="342.42">+</text>
<text x="304.04" y="278.76">.</text>
<text x="10.69" y="255.56">+</text>
<text x="466.67" y="322.62">+</text>
<text x="193.15" y="448.63">.</text>
<text x="311.82" y="241.16">.</text>
<text x="170.74" y="92.44">+</text>
<text x="458.32" y="134.10">+</text>
<text x="362.34" y="2.88">+</text>
<text x="8.64" y="69.65">+</text>
<text x="109.42" y="192.00">.</text>
<text x="128.55" y="61.43">+</text>
<text x="136.77" y="278.79">+</text>
<text x="361.07" y="116.25">.</text>
<text x="340.49" y="304.28">.</text>
<text x="490.69" y="490.96">.</text>
<text x="266.00" y="227.46">.</text>
<text x="441.33" y="194.65">.</text>
<text x="428.15" y="352.34">+</text>
<text x="375.29" y="233.86">.</text>
<text x="145.18" y="76.54">.</text>
<text x="29.39" y="325.70">+</text>
<text x="310.73" y="95.75">.</text>
<text x="178.79" y="251.55">+</text>
<text x="333.20" y="13.10">+</text>
<text x="99.17" y="122.77">*</text>
<text x="160.28" y="480.73">*</text>
<text x="315.06" y="322.48">*</text>
<text x="253.85" y="269.95">+</text>
<text x="78.15" y="204.10">+</text>
<text x="74.82" y="139.55">.</text>
<text x="45.58" y="135.72">.</text>
<text x="122.29" y="134.34">.</text>
<text x="303.04" y="76.15">.</text>
<text x="408.86" y="170.11">+</text>
<text x="357.60" y="11.00">+</text>
<text x="333.43" y="246.34">.</text>
<text x="174.45" y="193.68">+</text>
<text x="165.11" y="408.81">*</text>
<text x="471.11" y="448.16">*</text>
<text x="118.09" y="47.26">*</text>
<text x="268.09" y="331.08">+</text>
<text x="484.63" y="175.51">+</text>
<text x="441.80" y="67.57">*</text>
<text x="271.70" y="223.46">+</text>
<text x="491.98" y="19.97">+</text>
<text x="497.33" y="256.03">*</text>
<text x="153.29" y="56.43">*</text>
<text x="260.82" y="50.55">*</text>
<text x="364.52" y="92.81">+</text>
<text x="198.91" y="24.20">.</text>
<text x="340.75" y="448.86">.</text>
<text x="463.51" y="474.50">.</text>
<text x="157.00" y="347.75">+</text>
<text x="54.99" y="97.28">.</text>
<text x="269.23" y="128.09">.</text>
<text x="146.94" y="351.38">+</text>
<text x="286.52" y="420.41">.</text>
<text x="395.52" y="258.89">.</text>
<text x="389.62" y="225.90">.</text>
<text x="72.61" y="346.55">+</text>
<text x="54.29" y="383.49">*</text>
<text x="139.89" y="98.22">+</text>
<text x="428.69" y="419.92">.</text>
<text x="221.08" y="221.90">*</text>
<text x="53.73" y="49.44">.</text>
<text x="114.63" y="178.58">.</text>
<text x="319.87" y="489.16">+</text>
<text x="107.95" y="257.29">+</text>
<text x="73.44" y="277.80">.</text>
<text x="233.78" y="394.73">+</text>
<text x="178.26" y="285.70">.</text>
<text x="79.26" y="76.25">*</text>
<text x="194.04" y="473.98">.</text>
<text x="122.23" y="335.90">+</text>
<text x="117.52" y="483.02">+</text>
<text x="293.90" y="204.15">.</text>
<text x="460.42" y="468.67">+</text>
<text x="379.91" y="356.91">.</text>
<text x="52.41" y="395.26">.</text>
<text x="490.16" y="296.25">+</text>
<text x="263.12" y="485.73">.</text>
<text x="134.68" y="303.24">.</text>
<text x="104.18" y="456.57">*</text>
<text x="172.67" y="353.42">+</text>
<text x="8.23" y="52.34">.</text>
<text x="230.21" y="126.65">*</text>
<text x="428.64" y="45.25">+</text>
<text x="44.46" y="234.21">+</text>
<text x="82.88" y="11.24">+</text>
<text x="407.29" y="358.85">+</text>
<text x="257.55" y="24.28">.</text>
<text x="35.20" y="5.06">+</text>
<text x="264.40" y="236.27">*</text>
<text x="443.79" y="316.66">*</text>
<text x="126.92" y="204.80">+</text>
<text x="403.17" y="386.28">+</text>
<text x="314.32" y="445.70">.</text>
<text x="61.62" y="171.71">.</text>
<text x="130.94" y="157.94">+</text>
<text x="43.77" y="178.71">.</text>
<text x="175.76" y="252.15">*</text>
<text x="135.14" y="446.24">.</text>
<text x="29.43" y="119.77">+</text>
<text x="458.45" y="179.69">*</text>
<text x="264.47" y="269.26">+</text>
<text x="484.66" y="190.26">*</text>
<text x="496.92" y="43.65">+</text>
<text x="327.96" y="157.35">.</text>
<text x="215.78" y="377.72">+</text>
<text x="357.89" y="349.44">+</text>
<text x="335.26" y="358.39">+</text>
<text x="290.66" y="440.28">*</text>
<text x="71.33" y="492.45">+</text>
<text x="464.84" y="494.75">+</text>
<text x="312.14" y="347.74">.</text>
<text x="387.06" y="496.39">+</text>
<text x="317.68" y="271.08">+</text>
<text x="109.02" y="26.05">+</text>
<text x="113.54" y="470.48">+</text>
<text x="256.77" y="187.66">.</text>
<text x="487.19" y="90.27">.</text>
<text x="209.37" y="258.08">+</text>
<text x="352.06" y="200.79">+</text>
<text x="35.82" y="397.15">.</text>
<text x="337.74" y="56.74">.</text>
<text x="333.72" y="121.23">+</text>
<text x="290.91" y="280.21">+</text>
<text x="91.31" y="253.42">.</text>
<text x="154.58" y="332.48">+</text>
<text x="131.13" y="223.70">*</text>
<text x="243.39" y="267.74">.</text>
<text x="48.68" y="196.99">+</text>
<text x="334.72" y="17.40">.</text>
<text x="339.64" y="345.59">.</text>
<text x="305.84" y="212.58">+</text>
<text x="497.65" y="107.10">*</text>
<text x="170.07" y="115.83">.</text>
<text x="478.01" y="118.54">.</text>
<text x="182.26" y="287.52">.</text>
<text x="368.81" y="17.28">+</text>
<text x="492.65" y="488.10">+</text>
<text x="489.97" y="146.91">.</text>
<text x="459.37" y="14.76">*</text>
<text x="155.59" y="175.57">.</text>
<text x="240.00" y="478.30">.</text>

</svg>