
<svg viewBox="0 0 500 500" xmlns="http://www.w.org/2000/svg" width="100%" height="100%" style="background-color: #0a0a14; font-family: 'Courier New', Courier, monospace;">
    <style>
        text { fill: #aaa; font-size: 10px; text-anchor: middle; dominant-baseline: middle; }
    </style>
    <text x="337.40" y="471.41">+</text>
<text x="373.52" y="497.58">*</text>
<text x="466.39" y="301.47">.</text>
<text x="449.25" y="75.71">+</text>
<text x="453.63" y="78.84">+</text>
<text x="123.50" y="164.08">*</text>
<text x="424.87" y="86.04">+</text>
<text x="10.50" y="283.42">.</text>
<text x="375.73" y="28.50">+</text>
<text x="338.13" y="211.39">*</text>
<text x="335.80" y="295.48">+</text>
<text x="367.12" y="419.72">+</text>
<text x="481.74" y="26.89">+</text>
<text x="20.25" y="195.69">+</text>
<text x="220.43" y="77.11">+</text>
<text x="136.71" y="476.54">*</text>
<text x="7.72" y="344.19">.</text>
<text x="359.72" y="231.61">*</text>
<text x="349.31" y="155.27">+</text>
<text x="360.20" y="44.63">+</text>
<text x="72.09" y="31.52">+</text>
<text x="75.33" y="53.49">+</text>
<text x="409.89" y="233.95">+</text>
<text x="244.12" y="25.80">.</text>
<text x="71.50" y="21.18">*</text>
<text x="102.49" y="197.25">.</text>
<text x="413.97" y="268.77">+</text>
<text x="448.67" y="419.04">+</text>
<text x="458.82" y="182.69">+</text>
<text x="204.45" y="496.90">*</text>
<text x="112.10" y="241.07">.</text>
<text x="446.96" y="438.37">+</text>
<text x="273.98" y="282.22">.</text>
<text x="363.74" y="367.27">+</text>
<text x="11.29" y="80.12">+</text>
<text x="53.51" y="419.96">.</text>
<text x="183.45" y="5.81">.</text>
<text x="170.53" y="162.61">.</text>
<text x="377.41" y="239.96">.</text>
<text x="380.20" y="213.30">.</text>
<text x="472.53" y="491.41">*</text>
<text x="490.44" y="150.96">.</text>
<text x="142.17" y="453.49">+</text>
<text x="359.23" y="223.30">+</text>
<text x="6.77" y="370.95">+</text>
<text x="320.98" y="339.76">+</text>
<text x="265.48" y="417.56">.</text>
<text x="455.58" y="208.92">+</text>
<text x="70.60" y="268.67">.</text>
<text x="192.29" y="189.23">.</text>
<text x="289.78" y="155.50">+</text>
<text x="283.32" y="471.51">+</text>
<text x="319.25" y="276.72">.</text>
<text x="238.10" y="68.45">*</text>
<text x="247.12" y="118.38">.</text>
<text x="443.41" y="104.54">*</text>
<text x="296.23" y="231.92">+</text>
<text x="291.16" y="424.47">.</text>
<text x="128.95" y="376.76">.</text>
<text x="46.54" y="290.84">.</text>
<text x="457.71" y="255.92">+</text>
<text x="253.73" y="100.69">.</text>
<text x="34.97" y="187.66">+</text>
<text x="386.02" y="260.97">.</text>
<text x="18.68" y="259.32">.</text>
<text x="296.13" y="152.85">+</text>
<text x="213.74" y="337.63">+</text>
<text x="313.15" y="66.54">.</text>
<text x="260.74" y="71.54">+</text>
<text x="305.45" y="211.15">+</text>
<text x="197.45" y="44.62">.</text>
<text x="252.95" y="496.71">.</text>
<text x="212.77" y="146.98">.</text>
<text x="166.55" y="164.01">.</text>
<text x="452.62" y="407.51">*</text>
<text x="341.46" y="238.53">+</text>
<text x="408.71" y="241.35">+</text>
<text x="342.73" y="348.32">.</text>
<text x="460.22" y="332.56">+</text>
<text x="419.05" y="150.71">+</text>
<text x="161.53" y="466.98">+</text>
<text x="452.78" y="260.46">+</text>
<text x="156.29" y="301.33">+</text>
<text x="357.68" y="264.65">*</text>
<text x="314.36" y="237.54">.</text>
<text x="391.12" y="291.96">+</text>
<text x="384.27" y="432.24">+</text>
<text x="350.71" y="376.34">.</text>
<text x="379.73" y="67.92">.</text>
<text x="489.33" y="306.56">+</text>
<text x="445.64" y="461.06">.</text>
<text x="251.21" y="46.79">.</text>
<text x="160.12" y="17.83">+</text>
<text x="321.70" y="166.39">+</text>
<text x="143.98" y="210.93">+</text>
<text x="217.27" y="16.88">+</text>
<text x="53.85" y="391.97">+</text>
<text x="445.69" y="183.64">.</text>
<text x="221.37" y="450.84">+</text>
<text x="475.45" y="396.50">*</text>
<text x="423.26" y="57.23">+</text>
<text x="216.08" y="349.25">+</text>
<text x="457.31" y="347.95">.</text>
<text x="415.19" y="143.10">+</text>
<text x="156.17" y="21.95">.</text>
<text x="230.48" y="492.19">.</text>
<text x="40.09" y="116.91">.</text>
<text x="445.86" y="100.16">+</text>
<text x="165.91" y="232.86">.</text>
<text x="260.33" y="315.52">+</text>
<text x="400.63" y="408.89">+</text>
<text x="366.09" y="65.55">+</text>
<text x="390.80" y="222.72">+</text>
<text x="191.48" y="473.58">+</text>
<text x="131.32" y="329.14">.</text>
<text x="115.95" y="219.51">.</text>
<text x="463.05" y="292.03">+</text>
<text x="75.79" y="113.14">.</text>
<text x="31.61" y="68.44">.</text>
<text x="407.12" y="303.21">+</text>
<text x="272.33" y="141.57">+</text>
<text x="51.72" y="448.27">+</text>
<text x="7.45" y="444.82">.</text>
<text x="432.37" y="106.36">*</text>
<text x="239.72" y="329.21">*</text>
<text x="37.96" y="470.89">.</text>
<text x="382.86" y="3.90">.</text>
<text x="90.78" y="50.24">+</text>
<text x="236.81" y="110.28">.</text>
<text x="418.47" y="123.11">+</text>
<text x="217.31" y="414.47">.</text>
<text x="8.76" y="463.90">+</text>
<text x="302.16" y="139.37">+</text>
<text x="365.92" y="137.81">.</text>
<text x="165.18" y="414.44">.</text>
<text x="48.27" y="107.58">+</text>
<text x="294.75" y="496.78">.</text>
<text x="183.11" y="93.20">.</text>
<text x="255.61" y="495.27">.</text>
<text x="478.30" y="152.83">*</text>
<text x="46.78" y="271.85">.</text>
<text x="109.52" y="454.43">.</text>
<text x="11.57" y="325.59">.</text>
<text x="157.17" y="254.02">.</text>
<text x="118.88" y="421.81">.</text>
<text x="219.84" y="454.17">+</text>
<text x="6.44" y="405.92">.</text>
<text x="477.13" y="137.48">*</text>
<text x="206.70" y="76.45">+</text>
<text x="275.30" y="442.79">.</text>
<text x="252.65" y="8.82">.</text>
<text x="89.30" y="196.69">.</text>
<text x="202.45" y="216.39">+</text>
<text x="308.46" y="383.19">*</text>
<text x="255.86" y="280.38">*</text>
<text x="456.99" y="299.46">+</text>
<text x="339.03" y="321.53">+</text>
<text x="125.08" y="218.25">+</text>
<text x="344.35" y="356.95">+</text>
<text x="298.62" y="345.04">+</text>
<text x="363.71" y="205.09">*</text>
<text x="481.57" y="164.48">*</text>
<text x="302.45" y="9.93">.</text>
<text x="464.65" y="485.40">+</text>
<text x="486.91" y="336.88">+</text>
<text x="227.77" y="374.25">.</text>
<text x="259.72" y="132.22">.</text>
<text x="77.71" y="269.81">.</text>
<text x="352.63" y="106.76">+</text>
<text x="465.39" y="304.94">.</text>
<text x="342.72" y="250.57">.</text>
<text x="308.55" y="338.53">.</text>
<text x="43.09" y="73.26">+</text>
<text x="475.30" y="13.23">.</text>
<text x="3.91" y="28.02">.</text>
<text x="388.95" y="326.25">.</text>
<text x="38.96" y="446.95">.</text>
<text x="338.49" y="26.69">.</text>
<text x="217.75" y="192.97">+</text>
<text x="135.06" y="387.79">.</text>
<text x="275.61" y="388.71">.</text>
<text x="366.93" y="317.03">+</text>
<text x="261.93" y="314.36">+</text>
<text x="63.72" y="430.78">.</text>
<text x="210.44" y="237.66">+</text>
<text x="16.43" y="307.24">*</text>
<text x="317.33" y="3.71">.</text>
<text x="220.11" y="78.50">.</text>
<text x="295.30" y="259.22">+</text>
<text x="334.67" y="396.71">+</text>
<text x="66.03" y="451.73">+</text>
<text x="312.82" y="121.30">.</text>
<text x="435.11" y="23.27">.</text>
<text x="442.54" y="309.98">*</text>
<text x="464.25" y="462.57">+</text>
<text x="306.09" y="154.29">*</text>
<text x="121.18" y="280.58">+</text>
<text x="6.13" y="207.49">.</text>
<text x="360.78" y="12.56">.</text>
<text x="345.48" y="84.63">+</text>
<text x="365.74" y="426.68">.</text>
<text x="325.93" y="101.37">.</text>
<text x="198.04" y="309.14">.</text>
<text x="401.92" y="263.91">.</text>
<text x="439.82" y="73.43">.</text>
<text x="412.38" y="21.72">+</text>
<text x="332.49" y="149.84">.</text>
<text x="443.24" y="349.45">.</text>
<text x="235.32" y="202.15">.</text>
<text x="261.81" y="115.96">.</text>
<text x="64.28" y="346.07">.</text>

</svg>