
<svg viewBox="0 0 500 500" xmlns="http://www.w.org/2000/svg" width="100%" height="100%" style="background-color: #0a0a14; font-family: 'Courier New', Courier, monospace;">
    <style>
        text { fill: #aaa; font-size: 10px; text-anchor: middle; dominant-baseline: middle; }
    </style>
    <text x="343.71" y="496.00">+</text>
<text x="255.16" y="44.41">+</text>
<text x="44.68" y="193.10">*</text>
<text x="223.81" y="86.48">.</text>
<text x="303.06" y="162.25">+</text>
<text x="150.84" y="458.97">+</text>
<text x="304.54" y="384.45">+</text>
<text x="246.62" y="341.93">+</text>
<text x="183.29" y="346.40">+</text>
<text x="253.62" y="3.15">.</text>
<text x="295.97" y="38.51">+</text>
<text x="395.22" y="447.99">+</text>
<text x="494.79" y="23.86">+</text>
<text x="224.09" y="46.16">.</text>
<text x="195.20" y="282.68">.</text>
<text x="26.95" y="139.99">.</text>
<text x="135.99" y="165.33">.</text>
<text x="263.30" y="285.96">.</text>
<text x="10.39" y="320.46">*</text>
<text x="103.49" y="445.15">*</text>
<text x="294.21" y="228.06">*</text>
<text x="445.37" y="288.84">+</text>
<text x="342.06" y="247.63">.</text>
<text x="171.25" y="455.54">+</text>
<text x="200.01" y="460.50">+</text>
<text x="483.22" y="240.25">+</text>
<text x="258.99" y="36.27">+</text>
<text x="278.63" y="189.55">.</text>
<text x="192.55" y="389.79">*</text>
<text x="61.75" y="36.14">*</text>
<text x="263.75" y="303.32">+</text>
<text x="170.87" y="259.44">+</text>
<text x="278.19" y="461.68">.</text>
<text x="115.02" y="390.65">+</text>
<text x="275.28" y="228.63">.</text>
<text x="308.34" y="135.01">.</text>
<text x="99.17" y="470.41">.</text>
<text x="88.09" y="233.88">.</text>
<text x="455.76" y="252.78">.</text>
<text x="127.46" y="411.53">.</text>
<text x="180.37" y="141.08">*</text>
<text x="320.78" y="221.75">.</text>
<text x="123.56" y="304.68">.</text>
<text x="456.33" y="287.89">.</text>
<text x="302.51" y="329.80">+</text>
<text x="76.81" y="441.93">+</text>
<text x="430.98" y="284.53">+</text>
<text x="182.48" y="390.74">.</text>
<text x="246.19" y="66.05">+</text>
<text x="376.91" y="136.53">*</text>
<text x="413.70" y="263.98">+</text>
<text x="24.19" y="294.46">+</text>
<text x="299.61" y="228.53">.</text>
<text x="404.72" y="200.91">*</text>
<text x="139.14" y="207.84">+</text>
<text x="177.52" y="141.61">+</text>
<text x="498.28" y="339.96">.</text>
<text x="184.95" y="299.97">*</text>
<text x="438.15" y="45.05">*</text>
<text x="198.10" y="301.63">.</text>
<text x="463.04" y="351.53">+</text>
<text x="125.13" y="73.67">+</text>
<text x="384.47" y="152.33">*</text>
<text x="319.44" y="199.45">.</text>
<text x="394.46" y="314.58">+</text>
<text x="131.24" y="353.22">.</text>
<text x="196.59" y="53.03">.</text>
<text x="484.44" y="492.38">+</text>
<text x="100.13" y="126.29">.</text>
<text x="106.34" y="430.26">+</text>
<text x="410.12" y="274.14">.</text>
<text x="414.08" y="440.32">+</text>
<text x="438.55" y="352.96">*</text>
<text x="214.87" y="307.39">.</text>
<text x="143.53" y="449.44">+</text>
<text x="255.87" y="433.05">*</text>
<text x="197.92" y="473.29">.</text>
<text x="155.35" y="261.21">+</text>
<text x="330.69" y="77.32">.</text>
<text x="329.00" y="286.37">+</text>
<text x="246.25" y="174.12">*</text>
<text x="30.89" y="76.01">*</text>
<text x="448.79" y="167.12">+</text>
<text x="14.51" y="159.74">+</text>
<text x="443.42" y="282.25">+</text>
<text x="413.06" y="110.79">.</text>
<text x="387.06" y="325.96">.</text>
<text x="199.43" y="314.86">.</text>
<text x="349.89" y="69.35">+</text>
<text x="238.49" y="56.80">*</text>
<text x="276.73" y="37.24">.</text>
<text x="73.60" y="147.34">+</text>
<text x="339.90" y="219.01">+</text>
<text x="452.45" y="41.25">+</text>
<text x="189.67" y="347.15">*</text>
<text x="227.06" y="219.94">+</text>
<text x="273.45" y="54.43">*</text>
<text x="429.62" y="367.22">+</text>
<text x="43.85" y="480.27">.</text>
<text x="429.23" y="282.57">.</text>
<text x="262.17" y="256.60">+</text>
<text x="325.44" y="169.51">+</text>
<text x="74.98" y="179.79">+</text>
<text x="169.67" y="241.24">.</text>
<text x="97.50" y="126.95">.</text>
<text x="275.54" y="160.53">.</text>
<text x="40.99" y="143.16">+</text>
<text x="226.10" y="222.95">+</text>
<text x="366.53" y="187.67">+</text>
<text x="337.90" y="331.41">+</text>
<text x="162.32" y="38.77">+</text>
<text x="478.40" y="150.62">+</text>
<text x="75.90" y="51.72">*</text>
<text x="59.83" y="475.46">+</text>
<text x="463.25" y="74.89">+</text>
<text x="113.74" y="487.45">+</text>
<text x="280.35" y="122.42">+</text>
<text x="139.00" y="57.69">+</text>
<text x="129.77" y="318.60">*</text>
<text x="316.75" y="1.57">.</text>
<text x="131.42" y="225.26">+</text>
<text x="183.06" y="207.66">.</text>
<text x="462.99" y="383.88">+</text>
<text x="442.17" y="408.66">+</text>
<text x="195.29" y="497.90">*</text>
<text x="152.76" y="235.16">.</text>
<text x="249.99" y="216.14">.</text>
<text x="120.67" y="263.64">.</text>
<text x="389.30" y="256.45">.</text>
<text x="406.50" y="287.62">*</text>
<text x="168.34" y="87.43">+</text>
<text x="266.35" y="414.03">+</text>
<text x="384.45" y="369.88">.</text>
<text x="58.14" y="345.19">+</text>
<text x="71.84" y="393.38">.</text>
<text x="119.11" y="111.01">+</text>
<text x="353.04" y="287.40">.</text>
<text x="78.07" y="417.58">.</text>
<text x="75.68" y="256.42">+</text>
<text x="308.54" y="417.92">.</text>
<text x="261.00" y="123.53">.</text>
<text x="162.88" y="496.07">+</text>
<text x="130.63" y="15.22">+</text>
<text x="133.32" y="193.94">.</text>
<text x="412.72" y="314.82">.</text>
<text x="338.62" y="443.43">+</text>
<text x="268.56" y="263.20">+</text>
<text x="344.40" y="8.19">*</text>
<text x="241.21" y="48.84">+</text>
<text x="366.10" y="41.97">+</text>
<text x="182.63" y="396.55">.</text>
<text x="268.74" y="35.84">+</text>
<text x="384.94" y="72.02">.</text>
<text x="219.00" y="436.55">.</text>
<text x="190.80" y="101.05">.</text>
<text x="302.48" y="169.64">*</text>
<text x="203.29" y="220.14">+</text>
<text x="392.85" y="106.59">*</text>
<text x="32.03" y="472.50">+</text>
<text x="347.15" y="25.47">.</text>
<text x="110.40" y="219.97">.</text>
<text x="104.01" y="349.89">.</text>
<text x="185.39" y="58.35">+</text>
<text x="116.87" y="33.82">+</text>
<text x="360.39" y="208.88">+</text>
<text x="105.00" y="295.08">+</text>
<text x="467.07" y="237.18">+</text>
<text x="325.63" y="380.78">+</text>
<text x="61.19" y="349.63">.</text>
<text x="89.25" y="193.61">*</text>
<text x="225.78" y="257.62">*</text>
<text x="273.10" y="198.29">+</text>
<text x="356.94" y="436.06">+</text>
<text x="276.29" y="498.06">+</text>
<text x="71.38" y="314.99">.</text>
<text x="115.40" y="438.25">+</text>
<text x="26.11" y="438.70">*</text>
<text x="266.26" y="389.26">.</text>
<text x="43.60" y="45.13">*</text>
<text x="440.22" y="488.61">.</text>
<text x="324.58" y="88.78">.</text>
<text x="403.47" y="455.62">*</text>
<text x="193.11" y="99.74">+</text>
<text x="111.94" y="405.76">+</text>
<text x="87.38" y="149.47">+</text>
<text x="155.04" y="436.04">.</text>
<text x="331.92" y="287.15">.</text>
<text x="434.02" y="37.20">.</text>
<text x="240.08" y="316.69">+</text>
<text x="41.62" y="302.65">+</text>
<text x="139.92" y="433.57">.</text>
<text x="311.83" y="135.52">+</text>
<text x="126.64" y="443.35">.</text>
<text x="32.13" y="492.36">*</text>
<text x="162.45" y="149.18">.</text>
<text x="304.11" y="176.50">+</text>
<text x="6.17" y="479.53">.</text>
<text x="389.57" y="283.98">.</text>
<text x="285.47" y="235.18">.</text>
<text x="485.65" y="294.03">*</text>
<text x="257.60" y="234.30">+</text>
<text x="258.25" y="471.48">.</text>
<text x="409.35" y="358.32">+</text>
<text x="149.45" y="153.24">+</text>
<text x="5.32" y="27.80">+</text>
<text x="72.72" y="328.79">+</text>
<text x="292.48" y="158.64">.</text>
<text x="151.66" y="381.58">+</text>
<text x="44.10" y="468.44">.</text>
<text x="302.14" y="139.07">*</text>
<text x="161.53" y="206.91">*</text>
<text x="246.30" y="303.71">*</text>
<text x="443.78" y="465.92">.</text>
<text x="363.53" y="260.27">*</text>
<text x="119.41" y="185.61">.</text>

</svg>