
<svg viewBox="0 0 500 500" xmlns="http://www.w.org/2000/svg" width="100%" height="100%" style="background-color: #0a0a14; font-family: 'Courier New', Courier, monospace;">
    <style>
        text { fill: #aaa; font-size: 10px; text-anchor: middle; dominant-baseline: middle; }
    </style>
    <text x="308.68" y="213.03">.</text>
<text x="204.72" y="91.51">+</text>
<text x="465.89" y="22.35">+</text>
<text x="400.71" y="361.33">+</text>
<text x="361.48" y="37.35">+</text>
<text x="281.25" y="348.20">+</text>
<text x="387.52" y="170.06">.</text>
<text x="497.28" y="196.20">+</text>
<text x="387.11" y="438.52">.</text>
<text x="155.86" y="42.79">+</text>
<text x="486.98" y="473.20">+</text>
<text x="42.55" y="495.71">+</text>
<text x="203.23" y="55.87">.</text>
<text x="346.61" y="240.69">.</text>
<text x="292.41" y="159.41">*</text>
<text x="358.83" y="73.62">.</text>
<text x="278.70" y="420.38">+</text>
<text x="181.23" y="457.23">+</text>
<text x="75.00" y="276.94">*</text>
<text x="60.18" y="213.78">+</text>
<text x="414.45" y="497.38">.</text>
<text x="8.02" y="257.35">+</text>
<text x="248.94" y="233.23">.</text>
<text x="131.25" y="208.72">.</text>
<text x="215.30" y="296.08">+</text>
<text x="479.15" y="18.56">+</text>
<text x="381.27" y="187.23">.</text>
<text x="216.51" y="236.22">.</text>
<text x="474.51" y="333.77">.</text>
<text x="62.97" y="104.93">+</text>
<text x="283.37" y="299.05">+</text>
<text x="324.87" y="318.91">+</text>
<text x="135.86" y="162.33">*</text>
<text x="226.28" y="415.88">.</text>
<text x="435.35" y="124.34">.</text>
<text x="240.61" y="81.96">*</text>
<text x="177.93" y="145.56">*</text>
<text x="244.63" y="390.53">+</text>
<text x="234.69" y="117.92">.</text>
<text x="158.36" y="495.46">+</text>
<text x="204.66" y="477.52">.</text>
<text x="180.38" y="13.38">+</text>
<text x="9.48" y="106.54">+</text>
<text x="422.34" y="279.40">+</text>
<text x="244.83" y="450.45">.</text>
<text x="54.07" y="89.64">.</text>
<text x="83.79" y="182.26">+</text>
<text x="231.40" y="444.90">.</text>
<text x="285.87" y="66.40">.</text>
<text x="173.38" y="3.96">+</text>
<text x="163.18" y="428.06">.</text>
<text x="397.72" y="382.26">.</text>
<text x="257.86" y="78.58">+</text>
<text x="359.52" y="499.81">+</text>
<text x="284.73" y="124.61">.</text>
<text x="260.44" y="191.65">.</text>
<text x="365.92" y="266.82">.</text>
<text x="210.58" y="155.64">+</text>
<text x="351.34" y="211.91">.</text>
<text x="481.69" y="485.21">.</text>
<text x="442.35" y="233.95">.</text>
<text x="111.42" y="378.84">.</text>
<text x="341.31" y="178.68">.</text>
<text x="181.16" y="457.01">.</text>
<text x="457.26" y="411.55">.</text>
<text x="332.02" y="191.24">.</text>
<text x="313.67" y="210.41">+</text>
<text x="226.86" y="137.28">.</text>
<text x="121.86" y="302.61">.</text>
<text x="197.24" y="163.31">*</text>
<text x="77.76" y="360.91">.</text>
<text x="18.32" y="298.15">+</text>
<text x="53.20" y="302.10">.</text>
<text x="157.30" y="391.74">+</text>
<text x="489.18" y="256.07">*</text>
<text x="332.24" y="208.16">.</text>
<text x="109.80" y="305.20">*</text>
<text x="473.40" y="329.52">+</text>
<text x="26.79" y="295.78">.</text>
<text x="126.05" y="169.68">.</text>
<text x="317.57" y="124.29">*</text>
<text x="405.56" y="180.35">.</text>
<text x="397.71" y="262.85">.</text>
<text x="193.01" y="185.60">.</text>
<text x="77.13" y="494.32">*</text>
<text x="246.88" y="392.49">.</text>
<text x="130.82" y="371.86">+</text>
<text x="247.46" y="236.17">+</text>
<text x="357.49" y="319.70">.</text>
<text x="329.26" y="324.31">+</text>
<text x="219.48" y="328.53">*</text>
<text x="394.00" y="172.93">.</text>
<text x="44.70" y="400.57">+</text>
<text x="84.85" y="58.73">+</text>
<text x="30.18" y="298.28">+</text>
<text x="71.61" y="413.82">.</text>
<text x="308.70" y="179.05">*</text>
<text x="84.56" y="312.80">*</text>
<text x="69.09" y="378.84">.</text>
<text x="361.47" y="407.13">+</text>
<text x="275.98" y="28.03">+</text>
<text x="289.62" y="375.11">*</text>
<text x="444.87" y="355.84">.</text>
<text x="187.89" y="357.44">.</text>
<text x="296.78" y="361.20">+</text>
<text x="413.05" y="359.94">.</text>
<text x="459.10" y="313.95">+</text>
<text x="313.65" y="382.72">+</text>
<text x="284.88" y="436.83">*</text>
<text x="170.38" y="485.10">+</text>
<text x="276.92" y="400.56">+</text>
<text x="40.78" y="294.95">.</text>
<text x="2.49" y="288.69">.</text>
<text x="28.58" y="285.56">.</text>
<text x="344.80" y="125.98">+</text>
<text x="149.86" y="461.44">.</text>
<text x="370.18" y="195.21">+</text>
<text x="303.74" y="456.61">.</text>
<text x="129.11" y="101.14">+</text>
<text x="324.08" y="188.32">.</text>
<text x="350.13" y="383.44">.</text>
<text x="287.69" y="300.16">*</text>
<text x="6.86" y="473.38">+</text>
<text x="373.39" y="152.40">+</text>
<text x="133.59" y="248.05">.</text>
<text x="102.53" y="34.51">.</text>
<text x="397.63" y="376.37">+</text>
<text x="320.95" y="59.92">.</text>
<text x="431.29" y="129.55">+</text>
<text x="477.27" y="92.07">+</text>
<text x="99.23" y="100.78">*</text>
<text x="75.35" y="221.53">.</text>
<text x="327.12" y="476.93">*</text>
<text x="8.63" y="6.04">.</text>
<text x="231.47" y="428.37">+</text>
<text x="178.67" y="446.80">.</text>
<text x="161.45" y="119.92">*</text>
<text x="436.75" y="411.00">*</text>
<text x="77.82" y="470.50">.</text>
<text x="187.65" y="480.21">*</text>
<text x="192.71" y="301.29">.</text>
<text x="209.61" y="414.51">.</text>
<text x="382.13" y="102.68">.</text>
<text x="236.57" y="200.18">.</text>
<text x="279.76" y="485.57">+</text>
<text x="163.49" y="68.87">+</text>
<text x="39.34" y="247.19">.</text>
<text x="319.94" y="282.07">+</text>
<text x="144.28" y="149.33">*</text>
<text x="54.64" y="412.75">.</text>
<text x="337.28" y="175.12">.</text>
<text x="355.56" y="222.76">*</text>
<text x="274.32" y="411.97">+</text>
<text x="369.87" y="163.08">.</text>
<text x="38.54" y="250.21">*</text>
<text x="33.62" y="369.59">.</text>
<text x="128.95" y="165.71">+</text>
<text x="285.47" y="427.13">*</text>
<text x="258.41" y="490.46">+</text>
<text x="451.54" y="123.83">+</text>
<text x="454.13" y="92.49">+</text>
<text x="386.87" y="221.94">+</text>
<text x="228.62" y="281.85">+</text>
<text x="251.08" y="1.98">+</text>
<text x="367.88" y="127.41">+</text>
<text x="373.64" y="280.72">*</text>
<text x="152.82" y="46.70">+</text>
<text x="206.99" y="27.43">+</text>
<text x="76.40" y="294.66">+</text>
<text x="469.84" y="196.82">.</text>
<text x="487.37" y="15.67">+</text>
<text x="416.62" y="297.50">.</text>
<text x="123.48" y="370.81">.</text>
<text x="318.66" y="41.95">*</text>
<text x="140.10" y="430.98">+</text>
<text x="172.32" y="382.02">.</text>
<text x="337.47" y="50.49">+</text>
<text x="309.98" y="204.46">+</text>
<text x="211.55" y="86.72">.</text>
<text x="457.86" y="222.48">*</text>
<text x="353.54" y="135.11">*</text>
<text x="475.92" y="496.95">*</text>
<text x="262.86" y="369.79">.</text>
<text x="43.68" y="64.60">.</text>
<text x="385.98" y="316.60">.</text>
<text x="187.27" y="460.34">+</text>
<text x="56.07" y="169.59">.</text>
<text x="338.85" y="91.43">+</text>
<text x="8.95" y="4.59">+</text>
<text x="339.07" y="379.37">.</text>
<text x="27.58" y="197.60">+</text>
<text x="92.61" y="306.91">.</text>
<text x="277.36" y="336.51">+</text>
<text x="139.41" y="41.39">+</text>
<text x="414.24" y="89.97">.</text>
<text x="444.38" y="246.79">.</text>
<text x="96.78" y="10.52">+</text>
<text x="343.97" y="78.05">+</text>
<text x="51.98" y="93.50">+</text>
<text x="167.21" y="120.53">+</text>
<text x="126.18" y="93.99">+</text>
<text x="378.58" y="198.01">+</text>
<text x="364.17" y="20.01">.</text>
<text x="32.70" y="317.38">.</text>
<text x="204.87" y="498.04">.</text>
<text x="94.54" y="408.66">*</text>
<text x="359.42" y="216.35">+</text>
<text x="104.47" y="450.72">*</text>
<text x="60.94" y="52.92">+</text>
<text x="330.62" y="306.16">+</text>

</svg>