
<svg viewBox="0 0 500 500" xmlns="http://www.w.org/2000/svg" width="100%" height="100%" style="background-color: #0a0a14; font-family: 'Courier New', Courier, monospace;">
    <style>
        text { fill: #aaa; font-size: 10px; text-anchor: middle; dominant-baseline: middle; }
    </style>
    <text x="205.11" y="55.74">.</text>
<text x="437.96" y="466.42">+</text>
<text x="327.33" y="98.53">.</text>
<text x="341.69" y="472.24">.</text>
<text x="91.97" y="186.85">+</text>
<text x="203.15" y="140.99">+</text>
<text x="329.16" y="398.36">.</text>
<text x="68.94" y="442.80">+</text>
<text x="203.60" y="407.14">+</text>
<text x="380.45" y="30.41">.</text>
<text x="256.48" y="52.87">*</text>
<text x="168.50" y="344.73">.</text>
<text x="377.13" y="77.25">.</text>
<text x="60.60" y="449.78">.</text>
<text x="173.07" y="435.55">+</text>
<text x="446.89" y="89.70">+</text>
<text x="156.62" y="262.09">+</text>
<text x="194.40" y="337.61">*</text>
<text x="431.90" y="225.23">+</text>
<text x="369.13" y="291.43">*</text>
<text x="182.51" y="363.03">*</text>
<text x="62.33" y="374.48">+</text>
<text x="4.46" y="346.56">+</text>
<text x="88.82" y="104.38">+</text>
<text x="483.10" y="6.95">.</text>
<text x="262.84" y="178.52">.</text>
<text x="302.61" y="331.34">+</text>
<text x="411.19" y="202.76">+</text>
<text x="65.77" y="4.12">.</text>
<text x="341.44" y="3.45">.</text>
<text x="421.55" y="230.51">+</text>
<text x="219.18" y="80.41">+</text>
<text x="286.06" y="440.82">.</text>
<text x="246.59" y="250.08">.</text>
<text x="21.37" y="85.27">.</text>
<text x="31.88" y="176.82">+</text>
<text x="289.49" y="10.47">.</text>
<text x="497.79" y="329.31">+</text>
<text x="136.70" y="201.02">.</text>
<text x="275.21" y="244.11">.</text>
<text x="308.02" y="127.45">.</text>
<text x="404.74" y="279.55">.</text>
<text x="45.10" y="102.86">.</text>
<text x="72.25" y="128.24">.</text>
<text x="191.40" y="260.83">.</text>
<text x="428.15" y="107.11">+</text>
<text x="221.30" y="53.81">.</text>
<text x="23.53" y="481.18">.</text>
<text x="399.75" y="271.33">.</text>
<text x="419.61" y="475.67">*</text>
<text x="201.55" y="56.29">*</text>
<text x="327.18" y="202.79">*</text>
<text x="7.37" y="395.80">+</text>
<text x="6.81" y="418.22">.</text>
<text x="488.99" y="162.20">.</text>
<text x="421.09" y="116.88">+</text>
<text x="454.00" y="187.33">*</text>
<text x="387.37" y="25.10">+</text>
<text x="466.87" y="12.88">*</text>
<text x="23.30" y="388.89">.</text>
<text x="196.74" y="190.74">+</text>
<text x="478.25" y="222.99">+</text>
<text x="83.07" y="460.91">.</text>
<text x="226.86" y="6.90">+</text>
<text x="174.99" y="241.16">+</text>
<text x="131.80" y="23.72">+</text>
<text x="138.00" y="294.68">+</text>
<text x="187.29" y="201.71">+</text>
<text x="95.42" y="340.45">*</text>
<text x="463.95" y="489.74">.</text>
<text x="21.08" y="77.51">+</text>
<text x="213.23" y="138.06">*</text>
<text x="190.98" y="218.05">.</text>
<text x="54.22" y="336.75">+</text>
<text x="46.34" y="406.26">*</text>
<text x="162.51" y="79.11">*</text>
<text x="46.79" y="244.46">*</text>
<text x="168.52" y="175.07">.</text>
<text x="77.07" y="400.98">+</text>
<text x="295.25" y="4.67">.</text>
<text x="333.62" y="103.10">+</text>
<text x="11.42" y="27.16">*</text>
<text x="76.38" y="395.52">+</text>
<text x="498.28" y="143.63">+</text>
<text x="71.72" y="25.41">.</text>
<text x="215.13" y="359.67">.</text>
<text x="21.13" y="91.50">.</text>
<text x="110.00" y="492.64">+</text>
<text x="34.50" y="485.93">+</text>
<text x="466.47" y="299.52">+</text>
<text x="444.14" y="254.24">.</text>
<text x="116.35" y="65.05">+</text>
<text x="495.93" y="193.11">+</text>
<text x="374.12" y="220.48">.</text>
<text x="493.59" y="263.66">.</text>
<text x="184.34" y="422.64">+</text>
<text x="429.08" y="182.05">+</text>
<text x="65.63" y="490.64">.</text>
<text x="93.28" y="387.09">.</text>
<text x="400.67" y="121.26">.</text>
<text x="111.90" y="10.67">+</text>
<text x="176.54" y="282.28">+</text>
<text x="74.14" y="422.88">+</text>
<text x="206.95" y="45.27">.</text>
<text x="184.80" y="95.09">+</text>
<text x="82.10" y="351.40">.</text>
<text x="295.89" y="188.62">.</text>
<text x="483.37" y="142.38">+</text>
<text x="336.34" y="16.27">+</text>
<text x="115.44" y="113.72">+</text>
<text x="202.27" y="378.30">+</text>
<text x="345.30" y="42.41">.</text>
<text x="273.66" y="319.70">.</text>
<text x="432.71" y="263.58">*</text>
<text x="221.71" y="395.52">.</text>
<text x="456.68" y="281.11">.</text>
<text x="43.42" y="359.91">.</text>
<text x="398.98" y="254.71">+</text>
<text x="82.04" y="181.25">.</text>
<text x="5.95" y="230.79">+</text>
<text x="96.29" y="274.87">+</text>
<text x="42.17" y="43.09">.</text>
<text x="377.18" y="308.76">+</text>
<text x="379.18" y="170.02">+</text>
<text x="454.40" y="142.76">.</text>
<text x="6.14" y="47.55">+</text>
<text x="400.61" y="189.25">.</text>
<text x="436.46" y="186.11">*</text>
<text x="324.87" y="435.06">+</text>
<text x="348.99" y="479.18">+</text>
<text x="136.48" y="349.80">.</text>
<text x="351.48" y="315.53">.</text>
<text x="343.97" y="212.39">.</text>
<text x="376.66" y="390.12">+</text>
<text x="376.86" y="495.07">*</text>
<text x="466.53" y="388.60">.</text>
<text x="407.42" y="120.51">+</text>
<text x="1.59" y="360.81">.</text>
<text x="169.75" y="17.45">+</text>
<text x="252.77" y="186.50">+</text>
<text x="24.25" y="73.71">.</text>
<text x="454.84" y="292.98">.</text>
<text x="301.99" y="464.37">.</text>
<text x="179.94" y="279.03">.</text>
<text x="14.44" y="193.13">.</text>
<text x="209.71" y="412.43">+</text>
<text x="140.59" y="1.80">+</text>
<text x="451.37" y="40.82">+</text>
<text x="87.35" y="431.95">+</text>
<text x="147.00" y="30.48">+</text>
<text x="188.32" y="122.27">*</text>
<text x="194.78" y="466.68">+</text>
<text x="314.15" y="240.89">.</text>
<text x="15.39" y="406.49">+</text>
<text x="80.22" y="131.22">+</text>
<text x="458.10" y="488.18">.</text>
<text x="440.46" y="448.69">.</text>
<text x="63.46" y="384.49">.</text>
<text x="102.90" y="184.26">.</text>
<text x="380.39" y="278.26">.</text>
<text x="12.95" y="238.97">+</text>
<text x="15.65" y="271.29">+</text>
<text x="217.20" y="126.07">.</text>
<text x="96.12" y="182.80">.</text>
<text x="374.86" y="291.59">.</text>
<text x="423.34" y="449.58">+</text>
<text x="320.20" y="484.81">+</text>
<text x="439.46" y="487.32">.</text>
<text x="491.01" y="461.32">*</text>
<text x="357.95" y="365.69">.</text>
<text x="65.88" y="141.87">+</text>
<text x="141.58" y="70.93">.</text>
<text x="76.93" y="318.61">.</text>
<text x="448.04" y="119.38">+</text>
<text x="449.19" y="390.74">.</text>
<text x="287.72" y="332.61">+</text>
<text x="314.81" y="127.07">.</text>
<text x="357.99" y="398.04">+</text>
<text x="399.48" y="222.28">.</text>
<text x="85.42" y="220.79">*</text>
<text x="404.84" y="58.78">+</text>
<text x="487.98" y="310.00">.</text>
<text x="93.08" y="53.72">.</text>
<text x="371.84" y="241.35">+</text>
<text x="472.81" y="324.47">+</text>
<text x="109.04" y="113.34">.</text>
<text x="19.18" y="324.34">.</text>
<text x="50.49" y="351.91">.</text>
<text x="157.53" y="333.34">+</text>
<text x="131.01" y="444.33">*</text>
<text x="345.02" y="43.07">+</text>
<text x="62.30" y="297.34">*</text>
<text x="103.88" y="193.04">.</text>
<text x="188.79" y="82.28">.</text>
<text x="178.30" y="356.50">+</text>
<text x="425.94" y="215.22">.</text>
<text x="52.11" y="365.53">.</text>
<text x="467.92" y="52.42">.</text>
<text x="341.02" y="210.04">.</text>
<text x="277.01" y="38.41">+</text>
<text x="308.18" y="89.98">.</text>
<text x="2.54" y="450.06">+</text>
<text x="16.58" y="4.11">.</text>
<text x="241.87" y="421.66">+</text>
<text x="234.29" y="461.29">+</text>

</svg>