
<svg viewBox="0 0 500 500" xmlns="http://www.w.org/2000/svg" width="100%" height="100%" style="background-color: #0a0a14; font-family: 'Courier New', Courier, monospace;">
    <style>
        text { fill: #aaa; font-size: 10px; text-anchor: middle; dominant-baseline: middle; }
    </style>
    <text x="481.80" y="443.20">.</text>
<text x="276.90" y="477.68">.</text>
<text x="266.21" y="358.85">*</text>
<text x="244.10" y="347.73">+</text>
<text x="432.45" y="231.33">+</text>
<text x="42.96" y="94.25">*</text>
<text x="70.70" y="347.96">+</text>
<text x="361.72" y="203.07">.</text>
<text x="209.41" y="463.11">+</text>
<text x="196.40" y="384.47">+</text>
<text x="40.95" y="196.46">.</text>
<text x="361.53" y="220.72">+</text>
<text x="180.50" y="7.51">*</text>
<text x="49.57" y="64.12">.</text>
<text x="51.35" y="451.86">+</text>
<text x="458.91" y="378.83">+</text>
<text x="409.87" y="130.86">.</text>
<text x="274.39" y="18.27">.</text>
<text x="168.62" y="81.90">+</text>
<text x="21.85" y="333.91">+</text>
<text x="440.84" y="461.45">+</text>
<text x="224.86" y="272.47">+</text>
<text x="438.52" y="222.00">+</text>
<text x="471.82" y="175.40">+</text>
<text x="261.67" y="368.57">.</text>
<text x="213.62" y="494.45">.</text>
<text x="107.33" y="111.71">+</text>
<text x="41.23" y="245.54">+</text>
<text x="450.95" y="476.40">+</text>
<text x="180.94" y="351.99">.</text>
<text x="449.77" y="69.34">.</text>
<text x="149.17" y="264.01">+</text>
<text x="113.29" y="120.41">*</text>
<text x="49.85" y="492.89">.</text>
<text x="367.34" y="184.38">+</text>
<text x="19.64" y="112.07">*</text>
<text x="293.80" y="76.45">+</text>
<text x="198.97" y="436.39">.</text>
<text x="461.94" y="112.93">+</text>
<text x="475.78" y="181.20">.</text>
<text x="63.04" y="0.47">.</text>
<text x="67.29" y="237.73">+</text>
<text x="177.68" y="194.26">.</text>
<text x="302.02" y="199.89">*</text>
<text x="430.73" y="233.52">+</text>
<text x="272.53" y="296.52">+</text>
<text x="16.06" y="299.67">+</text>
<text x="92.83" y="337.15">+</text>
<text x="159.65" y="157.20">+</text>
<text x="150.97" y="195.74">+</text>
<text x="182.72" y="273.03">+</text>
<text x="494.99" y="381.66">.</text>
<text x="170.30" y="387.66">.</text>
<text x="59.89" y="432.41">+</text>
<text x="94.68" y="271.34">.</text>
<text x="219.29" y="259.65">.</text>
<text x="195.52" y="228.42">*</text>
<text x="61.23" y="290.79">+</text>
<text x="287.47" y="109.79">.</text>
<text x="141.69" y="193.78">.</text>
<text x="412.45" y="144.97">.</text>
<text x="176.29" y="333.45">.</text>
<text x="282.88" y="50.96">.</text>
<text x="38.64" y="297.14">.</text>
<text x="402.60" y="17.85">+</text>
<text x="142.46" y="297.68">+</text>
<text x="425.65" y="87.47">+</text>
<text x="25.78" y="258.36">+</text>
<text x="278.92" y="188.52">.</text>
<text x="206.22" y="218.80">.</text>
<text x="271.87" y="71.60">+</text>
<text x="125.00" y="67.56">+</text>
<text x="422.30" y="73.79">+</text>
<text x="248.78" y="27.98">+</text>
<text x="441.77" y="260.16">.</text>
<text x="322.90" y="227.59">+</text>
<text x="472.94" y="412.33">.</text>
<text x="282.42" y="458.71">+</text>
<text x="13.00" y="41.55">+</text>
<text x="54.86" y="121.01">*</text>
<text x="377.45" y="283.40">*</text>
<text x="392.45" y="85.37">+</text>
<text x="118.77" y="244.88">*</text>
<text x="225.64" y="16.69">+</text>
<text x="316.52" y="205.05">*</text>
<text x="163.10" y="218.85">.</text>
<text x="269.81" y="455.80">.</text>
<text x="230.89" y="425.60">.</text>
<text x="85.82" y="327.74">.</text>
<text x="252.33" y="75.03">+</text>
<text x="77.97" y="162.06">.</text>
<text x="161.08" y="428.34">.</text>
<text x="47.70" y="16.19">.</text>
<text x="143.07" y="413.44">+</text>
<text x="29.90" y="213.97">+</text>
<text x="209.99" y="244.23">.</text>
<text x="194.17" y="129.64">+</text>
<text x="467.44" y="67.51">+</text>
<text x="96.16" y="222.88">+</text>
<text x="157.00" y="189.74">+</text>
<text x="287.38" y="71.91">*</text>
<text x="369.51" y="430.72">.</text>
<text x="156.39" y="7.69">+</text>
<text x="251.25" y="87.59">.</text>
<text x="479.88" y="154.86">+</text>
<text x="260.78" y="185.42">.</text>
<text x="169.95" y="366.97">+</text>
<text x="163.43" y="236.43">.</text>
<text x="14.42" y="356.93">.</text>
<text x="320.87" y="191.65">+</text>
<text x="5.07" y="30.96">.</text>
<text x="310.99" y="309.91">.</text>
<text x="189.02" y="189.49">*</text>
<text x="440.51" y="105.28">.</text>
<text x="281.77" y="485.50">+</text>
<text x="264.34" y="2.65">.</text>
<text x="437.55" y="173.37">.</text>
<text x="483.00" y="441.65">.</text>
<text x="460.71" y="13.32">.</text>
<text x="43.05" y="266.31">.</text>
<text x="142.71" y="60.54">.</text>
<text x="123.42" y="19.49">.</text>
<text x="69.70" y="357.79">.</text>
<text x="310.65" y="73.35">+</text>
<text x="256.18" y="6.98">*</text>
<text x="29.78" y="343.22">+</text>
<text x="303.41" y="403.17">.</text>
<text x="189.62" y="265.43">+</text>
<text x="99.22" y="447.87">+</text>
<text x="425.14" y="488.45">.</text>
<text x="481.60" y="1.08">.</text>
<text x="382.83" y="358.64">+</text>
<text x="141.79" y="324.54">+</text>
<text x="390.88" y="449.77">.</text>
<text x="280.39" y="474.15">.</text>
<text x="398.76" y="194.42">.</text>
<text x="194.21" y="357.83">.</text>
<text x="267.51" y="299.91">+</text>
<text x="230.85" y="227.60">+</text>
<text x="138.88" y="296.19">*</text>
<text x="234.01" y="408.18">+</text>
<text x="191.84" y="4.55">.</text>
<text x="218.88" y="294.58">+</text>
<text x="393.87" y="397.86">.</text>
<text x="178.79" y="199.60">.</text>
<text x="175.80" y="277.04">+</text>
<text x="39.72" y="86.20">+</text>
<text x="406.78" y="480.39">*</text>
<text x="218.06" y="470.22">+</text>
<text x="386.13" y="474.09">.</text>
<text x="287.76" y="27.81">+</text>
<text x="319.67" y="335.99">+</text>
<text x="81.41" y="45.08">+</text>
<text x="70.12" y="118.14">+</text>
<text x="217.79" y="424.30">*</text>
<text x="378.14" y="111.60">*</text>
<text x="353.54" y="64.86">.</text>
<text x="32.33" y="249.18">+</text>
<text x="72.05" y="32.86">.</text>
<text x="237.81" y="135.83">+</text>
<text x="405.21" y="274.11">.</text>
<text x="241.22" y="267.20">.</text>
<text x="50.04" y="373.97">+</text>
<text x="376.78" y="205.08">.</text>
<text x="24.51" y="434.81">.</text>
<text x="312.73" y="229.02">+</text>
<text x="117.19" y="325.24">+</text>
<text x="165.97" y="306.50">.</text>
<text x="230.14" y="5.26">+</text>
<text x="146.34" y="312.29">+</text>
<text x="71.45" y="368.68">.</text>
<text x="470.16" y="217.15">*</text>
<text x="461.12" y="133.05">+</text>
<text x="482.12" y="224.50">+</text>
<text x="118.69" y="254.52">.</text>
<text x="318.40" y="311.73">.</text>
<text x="117.69" y="161.43">+</text>
<text x="79.88" y="399.59">+</text>
<text x="22.44" y="115.43">*</text>
<text x="337.42" y="386.93">+</text>
<text x="245.98" y="237.77">.</text>
<text x="221.45" y="214.86">.</text>
<text x="94.14" y="277.99">+</text>
<text x="404.43" y="428.97">+</text>
<text x="149.33" y="34.36">+</text>
<text x="395.63" y="215.55">+</text>
<text x="75.68" y="362.79">.</text>
<text x="98.91" y="152.58">.</text>
<text x="428.65" y="352.27">.</text>
<text x="179.55" y="52.35">+</text>
<text x="316.67" y="77.14">+</text>
<text x="243.96" y="301.91">.</text>
<text x="467.09" y="463.69">.</text>
<text x="136.48" y="398.69">+</text>
<text x="17.98" y="409.25">.</text>
<text x="293.07" y="293.99">.</text>
<text x="483.18" y="499.69">.</text>
<text x="249.68" y="473.16">+</text>
<text x="83.25" y="320.01">+</text>
<text x="89.76" y="92.11">+</text>
<text x="371.23" y="24.75">*</text>
<text x="381.77" y="434.87">*</text>
<text x="261.02" y="447.88">.</text>
<text x="384.98" y="453.37">.</text>
<text x="247.08" y="498.58">+</text>
<text x="109.76" y="335.00">+</text>

</svg>