
<svg viewBox="0 0 500 500" xmlns="http://www.w.org/2000/svg" width="100%" height="100%" style="background-color: #0a0a14; font-family: 'Courier New', Courier, monospace;">
    <style>
        text { fill: #aaa; font-size: 10px; text-anchor: middle; dominant-baseline: middle; }
    </style>
    <text x="148.74" y="283.01">.</text>
<text x="315.58" y="205.94">*</text>
<text x="102.41" y="293.98">.</text>
<text x="58.88" y="17.00">+</text>
<text x="6.02" y="480.37">+</text>
<text x="129.86" y="462.64">+</text>
<text x="82.02" y="253.84">.</text>
<text x="205.99" y="44.79">*</text>
<text x="57.77" y="107.33">+</text>
<text x="350.70" y="218.00">.</text>
<text x="336.24" y="157.94">.</text>
<text x="35.97" y="341.30">+</text>
<text x="264.58" y="33.97">.</text>
<text x="357.83" y="342.15">*</text>
<text x="8.99" y="209.63">+</text>
<text x="295.45" y="28.27">.</text>
<text x="141.50" y="332.12">+</text>
<text x="198.58" y="408.02">*</text>
<text x="180.31" y="34.34">.</text>
<text x="84.34" y="301.41">*</text>
<text x="300.90" y="90.41">+</text>
<text x="191.69" y="64.29">+</text>
<text x="78.15" y="337.61">*</text>
<text x="24.49" y="354.61">.</text>
<text x="76.94" y="147.30">+</text>
<text x="283.93" y="67.69">*</text>
<text x="453.19" y="472.63">*</text>
<text x="293.45" y="465.20">*</text>
<text x="136.69" y="316.44">*</text>
<text x="378.34" y="313.81">+</text>
<text x="180.24" y="377.82">.</text>
<text x="135.13" y="361.72">.</text>
<text x="89.21" y="498.93">.</text>
<text x="196.04" y="4.37">*</text>
<text x="444.23" y="71.97">+</text>
<text x="97.46" y="12.71">+</text>
<text x="30.97" y="425.89">+</text>
<text x="426.77" y="490.11">+</text>
<text x="66.53" y="362.29">+</text>
<text x="211.85" y="272.56">+</text>
<text x="56.44" y="208.08">.</text>
<text x="288.30" y="7.31">+</text>
<text x="257.96" y="256.68">.</text>
<text x="223.62" y="366.76">+</text>
<text x="166.02" y="315.63">+</text>
<text x="227.15" y="433.22">.</text>
<text x="196.67" y="3.33">+</text>
<text x="296.64" y="432.62">.</text>
<text x="356.21" y="430.48">+</text>
<text x="47.00" y="307.03">*</text>
<text x="130.78" y="401.19">.</text>
<text x="299.59" y="358.43">.</text>
<text x="143.68" y="343.18">+</text>
<text x="239.41" y="34.68">+</text>
<text x="148.27" y="406.50">+</text>
<text x="119.29" y="489.41">*</text>
<text x="443.53" y="29.37">+</text>
<text x="305.75" y="375.71">*</text>
<text x="140.81" y="298.10">*</text>
<text x="332.54" y="330.63">+</text>
<text x="104.38" y="415.46">.</text>
<text x="394.51" y="4.02">+</text>
<text x="133.92" y="298.91">+</text>
<text x="78.05" y="191.23">.</text>
<text x="380.94" y="477.38">.</text>
<text x="233.85" y="233.76">.</text>
<text x="344.47" y="174.97">*</text>
<text x="456.64" y="121.75">+</text>
<text x="187.63" y="197.05">*</text>
<text x="184.92" y="225.21">.</text>
<text x="280.25" y="35.04">*</text>
<text x="355.35" y="262.76">.</text>
<text x="461.02" y="441.12">+</text>
<text x="295.85" y="346.59">.</text>
<text x="384.02" y="30.18">.</text>
<text x="248.15" y="170.59">+</text>
<text x="61.79" y="131.62">.</text>
<text x="133.80" y="401.07">.</text>
<text x="362.13" y="431.31">+</text>
<text x="98.72" y="269.63">.</text>
<text x="83.58" y="202.35">+</text>
<text x="313.89" y="389.25">+</text>
<text x="184.29" y="335.96">*</text>
<text x="197.37" y="247.58">+</text>
<text x="487.69" y="107.88">+</text>
<text x="496.83" y="345.09">.</text>
<text x="369.67" y="239.70">+</text>
<text x="224.26" y="292.71">.</text>
<text x="219.13" y="334.51">+</text>
<text x="309.41" y="487.18">.</text>
<text x="65.17" y="194.98">+</text>
<text x="13.53" y="491.40">.</text>
<text x="460.23" y="415.72">+</text>
<text x="232.70" y="229.53">+</text>
<text x="85.48" y="214.31">*</text>
<text x="61.59" y="391.55">+</text>
<text x="126.68" y="387.72">+</text>
<text x="131.74" y="125.26">.</text>
<text x="395.22" y="372.27">*</text>
<text x="273.03" y="361.35">*</text>
<text x="73.63" y="330.57">+</text>
<text x="133.98" y="78.07">.</text>
<text x="482.72" y="310.47">+</text>
<text x="481.76" y="0.79">+</text>
<text x="242.90" y="316.22">+</text>
<text x="330.90" y="169.09">.</text>
<text x="467.04" y="431.21">*</text>
<text x="42.06" y="274.02">+</text>
<text x="17.61" y="356.82">*</text>
<text x="135.34" y="153.55">.</text>
<text x="67.33" y="150.75">.</text>
<text x="83.99" y="29.54">.</text>
<text x="122.42" y="498.62">+</text>
<text x="128.55" y="190.14">.</text>
<text x="236.65" y="373.24">*</text>
<text x="367.50" y="89.02">+</text>
<text x="65.71" y="423.19">+</text>
<text x="305.35" y="200.65">.</text>
<text x="308.81" y="461.68">.</text>
<text x="303.37" y="416.70">+</text>
<text x="204.24" y="128.73">+</text>
<text x="180.18" y="353.62">+</text>
<text x="353.85" y="491.38">.</text>
<text x="372.04" y="400.54">*</text>
<text x="117.51" y="263.43">+</text>
<text x="418.50" y="240.36">+</text>
<text x="422.77" y="399.24">.</text>
<text x="373.03" y="455.35">+</text>
<text x="24.65" y="19.56">.</text>
<text x="225.74" y="280.01">.</text>
<text x="104.54" y="16.27">*</text>
<text x="221.72" y="23.85">.</text>
<text x="307.42" y="470.13">+</text>
<text x="301.92" y="468.72">+</text>
<text x="70.13" y="440.12">+</text>
<text x="203.80" y="447.21">.</text>
<text x="254.74" y="401.76">.</text>
<text x="285.48" y="328.53">*</text>
<text x="158.56" y="277.16">.</text>
<text x="329.66" y="28.68">.</text>
<text x="168.56" y="323.24">.</text>
<text x="113.16" y="458.89">*</text>
<text x="147.70" y="395.55">+</text>
<text x="480.71" y="95.44">+</text>
<text x="405.87" y="115.76">.</text>
<text x="224.01" y="209.90">+</text>
<text x="446.87" y="244.27">+</text>
<text x="277.04" y="198.34">.</text>
<text x="429.13" y="89.00">*</text>
<text x="14.46" y="230.97">.</text>
<text x="406.92" y="497.94">+</text>
<text x="342.34" y="154.42">+</text>
<text x="179.14" y="219.51">*</text>
<text x="240.19" y="272.71">+</text>
<text x="223.42" y="377.39">+</text>
<text x="354.52" y="6.93">.</text>
<text x="498.12" y="463.22">+</text>
<text x="254.67" y="180.10">.</text>
<text x="70.67" y="172.30">*</text>
<text x="3.87" y="121.60">+</text>
<text x="182.20" y="193.38">.</text>
<text x="339.52" y="308.81">*</text>
<text x="341.84" y="91.89">.</text>
<text x="3.80" y="399.49">+</text>
<text x="95.01" y="175.62">+</text>
<text x="41.44" y="169.95">+</text>
<text x="454.06" y="109.07">*</text>
<text x="469.79" y="439.09">*</text>
<text x="465.28" y="264.65">.</text>
<text x="283.24" y="483.10">.</text>
<text x="307.78" y="95.72">*</text>
<text x="127.25" y="312.20">.</text>
<text x="340.98" y="155.51">.</text>
<text x="380.34" y="390.73">.</text>
<text x="151.14" y="214.93">+</text>
<text x="91.94" y="404.27">.</text>
<text x="345.78" y="217.37">*</text>
<text x="214.09" y="310.87">+</text>
<text x="209.04" y="217.05">*</text>
<text x="267.90" y="459.51">.</text>
<text x="129.64" y="363.56">+</text>
<text x="315.58" y="112.94">+</text>
<text x="491.10" y="309.41">.</text>
<text x="452.21" y="328.12">+</text>
<text x="81.14" y="198.57">.</text>
<text x="210.58" y="374.36">.</text>
<text x="14.20" y="421.82">.</text>
<text x="440.59" y="228.22">+</text>
<text x="307.43" y="397.27">*</text>
<text x="374.53" y="411.32">*</text>
<text x="362.70" y="411.02">+</text>
<text x="230.35" y="192.54">+</text>
<text x="324.80" y="23.98">+</text>
<text x="431.76" y="41.73">.</text>
<text x="5.11" y="395.39">+</text>
<text x="138.66" y="54.04">+</text>
<text x="246.00" y="425.21">+</text>
<text x="174.82" y="67.62">*</text>
<text x="491.53" y="85.67">+</text>
<text x="215.26" y="334.63">.</text>
<text x="15.01" y="161.71">+</text>
<text x="399.03" y="300.05">.</text>
<text x="26.09" y="66.38">+</text>
<text x="185.01" y="225.61">.</text>
<text x="319.36" y="490.73">.</text>
<text x="98.57" y="464.90">.</text>
<text x="87.44" y="182.31">.</text>
<text x="286.30" y="462.90">*</text>
<text x="477.12" y="265.06">+</text>
<text x="300.55" y="332.27">+</text>
<text x="378.96" y="365.18">+</text>
<text x="362.71" y="65.38">+</text>
<text x="12.84" y="37.20">+</text>
<text x="468.39" y="126.28">*</text>
<text x="325.90" y="25.43">+</text>
<text x="128.49" y="370.92">.</text>
<text x="175.69" y="113.96">.</text>
<text x="499.34" y="346.64">+</text>
<text x="182.35" y="82.31">.</text>
<text x="445.96" y="265.34">+</text>
<text x="110.42" y="205.17">+</text>
<text x="125.70" y="137.62">.</text>
<text x="477.56" y="151.21">+</text>
<text x="56.00" y="89.95">.</text>
<text x="150.12" y="86.52">.</text>
<text x="34.52" y="382.85">.</text>
<text x="284.44" y="134.18">+</text>
<text x="213.08" y="255.92">*</text>
<text x="368.81" y="465.32">+</text>
<text x="493.15" y="201.85">+</text>

</svg>