
<svg viewBox="0 0 500 500" xmlns="http://www.w.org/2000/svg" width="100%" height="100%" style="background-color: #0a0a14; font-family: 'Courier New', Courier, monospace;">
    <style>
        text { fill: #aaa; font-size: 10px; text-anchor: middle; dominant-baseline: middle; }
    </style>
    <text x="146.53" y="478.95">+</text>
<text x="11.95" y="280.27">.</text>
<text x="481.83" y="194.14">+</text>
<text x="449.74" y="32.25">+</text>
<text x="106.82" y="105.85">+</text>
<text x="331.59" y="381.35">+</text>
<text x="433.55" y="314.33">.</text>
<text x="41.20" y="443.82">.</text>
<text x="462.31" y="433.92">+</text>
<text x="170.53" y="438.44">+</text>
<text x="128.10" y="299.78">+</text>
<text x="415.56" y="145.43">.</text>
<text x="183.21" y="354.57">.</text>
<text x="217.04" y="100.85">.</text>
<text x="86.94" y="47.35">+</text>
<text x="485.45" y="234.37">+</text>
<text x="370.01" y="88.09">*</text>
<text x="324.41" y="486.59">*</text>
<text x="463.40" y="213.92">.</text>
<text x="340.58" y="218.92">+</text>
<text x="176.75" y="217.63">*</text>
<text x="110.60" y="62.05">.</text>
<text x="477.64" y="312.62">.</text>
<text x="377.49" y="216.95">+</text>
<text x="446.30" y="155.31">+</text>
<text x="37.64" y="66.30">+</text>
<text x="436.80" y="158.67">+</text>
<text x="470.11" y="386.08">.</text>
<text x="91.82" y="466.57">.</text>
<text x="94.07" y="88.26">*</text>
<text x="330.33" y="270.42">.</text>
<text x="262.20" y="442.27">+</text>
<text x="181.44" y="156.30">.</text>
<text x="321.35" y="481.28">.</text>
<text x="439.01" y="312.82">+</text>
<text x="111.96" y="454.86">+</text>
<text x="116.53" y="38.77">*</text>
<text x="395.64" y="0.76">+</text>
<text x="309.35" y="320.51">.</text>
<text x="20.17" y="366.08">+</text>
<text x="13.10" y="131.80">+</text>
<text x="294.20" y="317.87">+</text>
<text x="409.66" y="161.92">.</text>
<text x="66.24" y="281.63">.</text>
<text x="360.49" y="395.03">+</text>
<text x="378.12" y="350.05">+</text>
<text x="38.63" y="243.16">*</text>
<text x="61.54" y="200.42">+</text>
<text x="246.91" y="97.99">+</text>
<text x="93.67" y="69.72">*</text>
<text x="166.76" y="24.49">*</text>
<text x="282.79" y="40.39">+</text>
<text x="451.17" y="107.66">+</text>
<text x="205.26" y="36.68">.</text>
<text x="302.20" y="257.61">*</text>
<text x="80.11" y="50.16">+</text>
<text x="142.01" y="281.49">+</text>
<text x="206.77" y="67.39">.</text>
<text x="240.99" y="492.53">+</text>
<text x="326.08" y="178.89">.</text>
<text x="439.88" y="224.29">*</text>
<text x="20.60" y="70.44">*</text>
<text x="193.29" y="429.04">+</text>
<text x="288.99" y="302.18">.</text>
<text x="36.26" y="182.52">.</text>
<text x="382.68" y="303.40">.</text>
<text x="330.13" y="40.10">+</text>
<text x="494.79" y="262.22">.</text>
<text x="345.87" y="390.70">.</text>
<text x="85.66" y="266.80">+</text>
<text x="489.01" y="154.52">*</text>
<text x="335.13" y="268.35">.</text>
<text x="221.11" y="444.47">.</text>
<text x="352.54" y="207.65">.</text>
<text x="284.63" y="369.46">.</text>
<text x="428.21" y="50.33">.</text>
<text x="174.77" y="110.57">.</text>
<text x="480.90" y="102.10">.</text>
<text x="290.76" y="23.01">+</text>
<text x="88.20" y="251.72">+</text>
<text x="44.03" y="450.97">+</text>
<text x="78.95" y="462.82">+</text>
<text x="450.29" y="3.16">+</text>
<text x="376.98" y="110.13">.</text>
<text x="276.66" y="388.66">+</text>
<text x="63.13" y="257.52">+</text>
<text x="71.82" y="256.25">*</text>
<text x="314.83" y="300.86">*</text>
<text x="201.15" y="129.18">.</text>
<text x="236.34" y="415.55">+</text>
<text x="317.36" y="499.72">.</text>
<text x="74.11" y="189.20">*</text>
<text x="392.27" y="165.51">+</text>
<text x="457.70" y="437.35">.</text>
<text x="8.80" y="168.06">.</text>
<text x="377.95" y="143.38">+</text>
<text x="155.67" y="54.56">+</text>
<text x="434.85" y="62.50">+</text>
<text x="409.17" y="73.90">+</text>
<text x="489.89" y="231.44">+</text>
<text x="345.61" y="29.55">.</text>
<text x="474.04" y="280.17">.</text>
<text x="455.76" y="110.66">+</text>
<text x="198.50" y="297.36">+</text>
<text x="72.04" y="225.83">+</text>
<text x="223.26" y="405.12">+</text>
<text x="418.90" y="408.81">+</text>
<text x="82.10" y="331.73">.</text>
<text x="126.72" y="212.63">.</text>
<text x="302.70" y="95.64">.</text>
<text x="498.32" y="402.79">+</text>
<text x="73.15" y="0.08">+</text>
<text x="164.77" y="301.75">+</text>
<text x="438.59" y="466.89">.</text>
<text x="329.20" y="213.57">+</text>
<text x="354.87" y="287.27">+</text>
<text x="195.48" y="350.88">+</text>
<text x="355.04" y="375.28">.</text>
<text x="281.24" y="341.19">.</text>
<text x="153.62" y="476.76">+</text>
<text x="114.54" y="441.86">+</text>
<text x="141.63" y="149.42">+</text>
<text x="379.66" y="260.41">*</text>
<text x="322.12" y="325.51">+</text>
<text x="176.83" y="210.40">.</text>
<text x="307.10" y="434.67">+</text>
<text x="310.43" y="452.95">.</text>
<text x="0.11" y="19.15">+</text>
<text x="102.06" y="252.73">+</text>
<text x="380.59" y="227.28">.</text>
<text x="188.18" y="190.02">.</text>
<text x="85.84" y="428.62">*</text>
<text x="258.99" y="299.29">+</text>
<text x="29.32" y="184.45">+</text>
<text x="306.64" y="31.59">.</text>
<text x="447.01" y="498.28">+</text>
<text x="378.26" y="483.76">+</text>
<text x="393.01" y="16.02">+</text>
<text x="106.76" y="220.33">+</text>
<text x="381.92" y="122.69">.</text>
<text x="33.16" y="214.97">+</text>
<text x="335.74" y="374.53">.</text>
<text x="330.27" y="172.70">.</text>
<text x="5.58" y="295.21">.</text>
<text x="341.17" y="57.69">*</text>
<text x="199.77" y="430.30">.</text>
<text x="13.00" y="195.17">.</text>
<text x="146.30" y="285.84">+</text>
<text x="250.69" y="236.08">.</text>
<text x="110.89" y="126.70">+</text>
<text x="266.42" y="127.87">.</text>
<text x="444.98" y="323.61">+</text>
<text x="99.55" y="290.08">+</text>
<text x="201.06" y="187.41">.</text>
<text x="362.17" y="125.79">+</text>
<text x="350.74" y="387.59">+</text>
<text x="266.51" y="30.95">+</text>
<text x="338.33" y="392.87">+</text>
<text x="40.34" y="237.91">+</text>
<text x="462.43" y="153.02">+</text>
<text x="491.26" y="235.96">+</text>
<text x="108.56" y="456.61">*</text>
<text x="311.62" y="409.52">+</text>
<text x="188.81" y="47.33">+</text>
<text x="358.16" y="284.10">+</text>
<text x="201.46" y="109.72">.</text>
<text x="368.10" y="302.63">*</text>
<text x="463.87" y="9.46">.</text>
<text x="81.82" y="11.21">+</text>
<text x="355.94" y="455.96">*</text>
<text x="281.85" y="47.39">.</text>
<text x="20.38" y="14.15">*</text>
<text x="338.58" y="72.53">.</text>
<text x="18.30" y="37.67">+</text>
<text x="496.01" y="416.39">.</text>
<text x="416.19" y="72.34">.</text>
<text x="166.68" y="286.23">+</text>
<text x="389.59" y="31.03">.</text>
<text x="156.44" y="46.06">*</text>
<text x="247.58" y="455.48">+</text>
<text x="394.28" y="80.88">.</text>
<text x="264.80" y="77.03">.</text>
<text x="149.28" y="59.42">.</text>
<text x="255.19" y="68.38">.</text>
<text x="224.81" y="312.35">+</text>
<text x="7.96" y="229.96">.</text>
<text x="418.20" y="450.59">*</text>
<text x="292.25" y="73.86">.</text>
<text x="425.24" y="392.16">*</text>
<text x="176.69" y="95.04">.</text>
<text x="167.73" y="244.94">+</text>
<text x="142.36" y="396.37">*</text>
<text x="211.02" y="456.08">+</text>
<text x="431.25" y="52.98">+</text>
<text x="448.51" y="169.42">+</text>
<text x="388.34" y="473.18">.</text>
<text x="171.10" y="225.21">+</text>
<text x="458.88" y="88.45">*</text>
<text x="333.43" y="151.59">.</text>
<text x="84.29" y="258.49">+</text>
<text x="443.12" y="355.90">.</text>
<text x="478.37" y="243.94">*</text>
<text x="426.15" y="60.03">*</text>

</svg>