
<svg viewBox="0 0 500 500" xmlns="http://www.w.org/2000/svg" width="100%" height="100%" style="background-color: #0a0a14; font-family: 'Courier New', Courier, monospace;">
    <style>
        text { fill: #aaa; font-size: 10px; text-anchor: middle; dominant-baseline: middle; }
    </style>
    <text x="127.99" y="352.51">*</text>
<text x="448.02" y="73.51">+</text>
<text x="299.32" y="333.96">+</text>
<text x="56.19" y="53.24">*</text>
<text x="445.04" y="42.06">+</text>
<text x="393.44" y="339.91">*</text>
<text x="34.55" y="40.23">*</text>
<text x="383.04" y="141.05">.</text>
<text x="352.43" y="456.39">+</text>
<text x="323.85" y="175.54">.</text>
<text x="316.61" y="40.73">.</text>
<text x="404.76" y="51.99">+</text>
<text x="317.23" y="328.49">+</text>
<text x="348.97" y="382.91">.</text>
<text x="333.22" y="283.94">.</text>
<text x="311.36" y="311.81">+</text>
<text x="178.97" y="442.66">*</text>
<text x="286.34" y="352.97">.</text>
<text x="425.20" y="212.95">*</text>
<text x="356.60" y="218.69">.</text>
<text x="60.81" y="211.52">.</text>
<text x="271.73" y="418.50">.</text>
<text x="404.72" y="276.61">.</text>
<text x="303.64" y="497.13">.</text>
<text x="228.57" y="191.49">.</text>
<text x="138.70" y="5.95">.</text>
<text x="162.85" y="155.57">+</text>
<text x="79.33" y="352.78">.</text>
<text x="65.43" y="208.60">*</text>
<text x="253.05" y="85.61">+</text>
<text x="499.07" y="450.67">.</text>
<text x="11.88" y="358.40">.</text>
<text x="262.03" y="446.25">*</text>
<text x="22.87" y="498.48">+</text>
<text x="314.28" y="254.41">.</text>
<text x="411.90" y="254.23">.</text>
<text x="439.25" y="190.64">.</text>
<text x="71.72" y="462.24">.</text>
<text x="188.90" y="393.35">*</text>
<text x="27.42" y="183.22">+</text>
<text x="390.01" y="166.08">.</text>
<text x="3.82" y="265.28">+</text>
<text x="496.36" y="386.04">.</text>
<text x="184.80" y="114.38">.</text>
<text x="470.58" y="429.95">.</text>
<text x="294.83" y="152.04">.</text>
<text x="204.87" y="402.00">+</text>
<text x="263.05" y="453.82">+</text>
<text x="415.28" y="352.48">+</text>
<text x="469.21" y="312.87">.</text>
<text x="239.48" y="390.93">.</text>
<text x="438.09" y="32.21">.</text>
<text x="133.07" y="27.81">.</text>
<text x="101.71" y="164.93">+</text>
<text x="252.87" y="271.30">*</text>
<text x="99.39" y="370.96">.</text>
<text x="395.94" y="132.04">.</text>
<text x="96.73" y="160.80">+</text>
<text x="381.31" y="189.05">+</text>
<text x="397.65" y="232.49">.</text>
<text x="191.16" y="458.60">.</text>
<text x="115.49" y="380.46">+</text>
<text x="205.19" y="204.23">+</text>
<text x="205.20" y="420.97">.</text>
<text x="172.72" y="301.71">.</text>
<text x="267.48" y="475.48">+</text>
<text x="69.97" y="298.96">+</text>
<text x="253.40" y="342.37">+</text>
<text x="184.52" y="9.14">+</text>
<text x="487.48" y="302.28">.</text>
<text x="305.07" y="238.54">.</text>
<text x="408.50" y="254.20">+</text>
<text x="371.66" y="8.23">.</text>
<text x="96.65" y="461.07">+</text>
<text x="411.54" y="381.18">+</text>
<text x="410.69" y="398.55">+</text>
<text x="172.75" y="21.70">+</text>
<text x="433.01" y="318.89">.</text>
<text x="423.11" y="461.45">+</text>
<text x="68.07" y="370.34">+</text>
<text x="337.85" y="494.68">.</text>
<text x="461.43" y="265.18">.</text>
<text x="26.09" y="161.13">+</text>
<text x="493.85" y="57.34">*</text>
<text x="72.95" y="41.97">+</text>
<text x="119.91" y="96.20">.</text>
<text x="271.11" y="355.45">+</text>
<text x="131.27" y="159.54">.</text>
<text x="42.69" y="22.71">.</text>
<text x="273.59" y="202.76">+</text>
<text x="498.87" y="455.88">.</text>
<text x="494.59" y="139.09">.</text>
<text x="143.49" y="431.43">*</text>
<text x="164.94" y="423.70">+</text>
<text x="81.30" y="444.71">+</text>
<text x="463.15" y="149.17">*</text>
<text x="43.26" y="182.42">+</text>
<text x="245.80" y="336.50">+</text>
<text x="469.75" y="71.30">.</text>
<text x="207.25" y="20.15">+</text>
<text x="384.37" y="244.96">+</text>
<text x="54.04" y="8.55">+</text>
<text x="6.84" y="328.35">.</text>
<text x="382.54" y="169.64">+</text>
<text x="247.83" y="209.92">.</text>
<text x="89.76" y="104.03">*</text>
<text x="383.81" y="149.36">+</text>
<text x="45.71" y="399.57">+</text>
<text x="163.61" y="310.39">*</text>
<text x="230.14" y="62.75">+</text>
<text x="135.14" y="188.07">+</text>
<text x="267.93" y="271.42">.</text>
<text x="323.62" y="179.00">.</text>
<text x="493.53" y="92.23">+</text>
<text x="263.71" y="161.77">.</text>
<text x="347.19" y="387.67">.</text>
<text x="429.18" y="415.68">.</text>
<text x="203.47" y="235.40">+</text>
<text x="202.56" y="13.51">.</text>
<text x="282.45" y="432.25">+</text>
<text x="392.90" y="311.32">+</text>
<text x="152.25" y="293.25">+</text>
<text x="452.32" y="225.48">+</text>
<text x="144.47" y="362.58">.</text>
<text x="499.63" y="98.25">.</text>
<text x="169.64" y="478.25">+</text>
<text x="24.59" y="430.09">.</text>
<text x="328.97" y="457.83">.</text>
<text x="345.53" y="368.59">.</text>
<text x="247.50" y="97.15">+</text>
<text x="335.72" y="58.84">+</text>
<text x="26.50" y="358.49">.</text>
<text x="404.51" y="424.78">.</text>
<text x="436.83" y="191.82">.</text>
<text x="198.86" y="324.91">+</text>
<text x="368.21" y="470.78">+</text>
<text x="306.01" y="75.27">+</text>
<text x="242.64" y="419.71">+</text>
<text x="70.25" y="379.46">+</text>
<text x="31.82" y="448.92">+</text>
<text x="179.09" y="71.54">+</text>
<text x="190.16" y="463.06">+</text>
<text x="36.85" y="363.69">+</text>
<text x="357.93" y="12.86">.</text>
<text x="421.78" y="58.54">.</text>
<text x="169.16" y="478.77">.</text>
<text x="381.00" y="140.53">+</text>
<text x="74.41" y="417.92">+</text>
<text x="29.25" y="255.82">+</text>
<text x="433.31" y="318.72">.</text>
<text x="246.30" y="199.59">.</text>
<text x="492.60" y="416.22">+</text>
<text x="423.03" y="227.83">.</text>
<text x="164.36" y="373.81">+</text>
<text x="27.23" y="469.36">+</text>
<text x="289.37" y="211.12">+</text>
<text x="191.45" y="387.56">.</text>
<text x="112.47" y="224.45">+</text>
<text x="462.75" y="224.93">.</text>
<text x="427.08" y="209.34">.</text>
<text x="100.51" y="173.05">+</text>
<text x="143.46" y="462.47">+</text>
<text x="78.76" y="124.52">*</text>
<text x="390.11" y="153.82">+</text>
<text x="284.78" y="433.65">.</text>
<text x="71.80" y="477.53">+</text>
<text x="181.27" y="80.41">.</text>
<text x="310.86" y="273.40">.</text>
<text x="474.13" y="60.68">.</text>
<text x="451.53" y="444.31">+</text>
<text x="329.73" y="325.36">+</text>
<text x="450.80" y="42.68">.</text>
<text x="190.21" y="477.31">.</text>
<text x="330.99" y="396.03">.</text>
<text x="88.15" y="479.01">.</text>
<text x="320.77" y="1.46">+</text>
<text x="95.90" y="114.39">+</text>
<text x="276.76" y="277.69">+</text>
<text x="259.52" y="138.87">.</text>
<text x="348.95" y="102.31">.</text>
<text x="332.71" y="279.84">*</text>
<text x="91.57" y="435.91">*</text>
<text x="445.90" y="89.36">+</text>
<text x="88.31" y="85.42">+</text>
<text x="141.47" y="107.43">.</text>
<text x="385.38" y="343.98">.</text>
<text x="219.82" y="209.52">.</text>
<text x="131.24" y="176.29">.</text>
<text x="4.78" y="218.63">+</text>
<text x="117.00" y="256.40">.</text>
<text x="13.12" y="299.27">.</text>
<text x="73.14" y="468.14">+</text>
<text x="428.24" y="134.65">+</text>
<text x="286.68" y="178.16">+</text>
<text x="123.54" y="119.49">+</text>
<text x="295.59" y="99.53">.</text>
<text x="50.92" y="180.61">+</text>
<text x="41.95" y="17.24">.</text>
<text x="375.46" y="191.28">*</text>
<text x="49.67" y="424.71">.</text>
<text x="200.26" y="133.63">+</text>
<text x="360.92" y="399.21">*</text>
<text x="435.18" y="122.94">*</text>
<text x="58.52" y="320.61">+</text>
<text x="413.07" y="487.01">.</text>
<text x="167.98" y="338.39">+</text>
<text x="211.75" y="70.89">.</text>
<text x="405.31" y="143.63">.</text>
<text x="433.68" y="483.07">.</text>
<text x="250.55" y="336.07">+</text>

</svg>