
<svg viewBox="0 0 500 500" xmlns="http://www.w.org/2000/svg" width="100%" height="100%" style="background-color: #0a0a14; font-family: 'Courier New', Courier, monospace;">
    <style>
        text { fill: #aaa; font-size: 10px; text-anchor: middle; dominant-baseline: middle; }
    </style>
    <text x="79.17" y="360.09">.</text>
<text x="353.79" y="138.48">.</text>
<text x="241.55" y="411.52">.</text>
<text x="245.76" y="54.57">+</text>
<text x="148.65" y="217.27">+</text>
<text x="228.88" y="118.84">*</text>
<text x="321.81" y="264.62">*</text>
<text x="258.84" y="162.32">.</text>
<text x="247.64" y="273.02">.</text>
<text x="160.60" y="255.14">*</text>
<text x="471.99" y="7.85">+</text>
<text x="250.14" y="168.35">.</text>
<text x="73.70" y="313.92">*</text>
<text x="366.00" y="225.70">.</text>
<text x="404.73" y="231.87">*</text>
<text x="476.36" y="320.98">.</text>
<text x="383.94" y="254.51">.</text>
<text x="60.12" y="352.11">*</text>
<text x="416.63" y="374.78">+</text>
<text x="191.05" y="417.55">+</text>
<text x="84.09" y="394.00">+</text>
<text x="105.59" y="126.56">.</text>
<text x="317.24" y="6.50">*</text>
<text x="418.06" y="382.77">+</text>
<text x="158.19" y="289.42">+</text>
<text x="218.79" y="163.03">.</text>
<text x="397.16" y="282.77">+</text>
<text x="313.67" y="184.80">+</text>
<text x="311.60" y="438.76">+</text>
<text x="43.16" y="165.89">*</text>
<text x="34.86" y="6.37">.</text>
<text x="481.83" y="406.51">*</text>
<text x="391.19" y="148.22">.</text>
<text x="52.29" y="167.79">+</text>
<text x="276.64" y="319.85">.</text>
<text x="337.71" y="279.50">*</text>
<text x="84.07" y="417.12">+</text>
<text x="236.22" y="285.43">*</text>
<text x="296.25" y="40.22">+</text>
<text x="316.27" y="218.76">.</text>
<text x="389.72" y="499.37">+</text>
<text x="268.20" y="56.65">*</text>
<text x="247.82" y="358.95">+</text>
<text x="312.45" y="44.73">*</text>
<text x="488.30" y="217.43">+</text>
<text x="44.76" y="294.89">+</text>
<text x="168.06" y="198.13">.</text>
<text x="259.63" y="147.26">*</text>
<text x="70.95" y="63.67">.</text>
<text x="276.60" y="495.92">*</text>
<text x="482.97" y="147.88">+</text>
<text x="284.30" y="307.93">.</text>
<text x="208.71" y="411.41">+</text>
<text x="476.73" y="83.27">.</text>
<text x="362.96" y="130.12">+</text>
<text x="170.75" y="30.74">.</text>
<text x="265.52" y="403.42">.</text>
<text x="138.20" y="162.63">.</text>
<text x="431.44" y="225.72">+</text>
<text x="433.64" y="75.63">.</text>
<text x="184.73" y="367.70">.</text>
<text x="419.92" y="445.82">+</text>
<text x="424.19" y="153.73">.</text>
<text x="204.25" y="431.70">*</text>
<text x="53.40" y="113.86">.</text>
<text x="288.71" y="382.60">.</text>
<text x="215.02" y="183.52">*</text>
<text x="412.18" y="332.88">+</text>
<text x="309.98" y="363.16">*</text>
<text x="203.95" y="186.82">+</text>
<text x="40.20" y="22.90">.</text>
<text x="114.99" y="43.44">+</text>
<text x="183.29" y="106.76">.</text>
<text x="198.20" y="167.32">.</text>
<text x="61.81" y="85.13">+</text>
<text x="377.01" y="191.81">+</text>
<text x="395.34" y="368.57">+</text>
<text x="457.31" y="309.05">*</text>
<text x="18.97" y="455.31">*</text>
<text x="81.29" y="331.50">.</text>
<text x="250.26" y="156.73">+</text>
<text x="119.75" y="81.97">.</text>
<text x="20.37" y="388.21">+</text>
<text x="52.52" y="206.19">+</text>
<text x="170.49" y="192.14">*</text>
<text x="232.86" y="483.54">+</text>
<text x="202.26" y="51.00">+</text>
<text x="215.80" y="149.88">+</text>
<text x="78.15" y="350.37">*</text>
<text x="111.02" y="399.36">.</text>
<text x="213.96" y="137.74">+</text>
<text x="438.66" y="424.69">*</text>
<text x="413.84" y="259.04">+</text>
<text x="372.38" y="51.52">.</text>
<text x="294.00" y="364.64">+</text>
<text x="128.10" y="365.54">.</text>
<text x="180.25" y="438.88">+</text>
<text x="365.78" y="462.14">.</text>
<text x="413.14" y="48.11">.</text>
<text x="454.91" y="69.89">.</text>
<text x="448.21" y="235.18">*</text>
<text x="97.23" y="469.82">+</text>
<text x="461.17" y="446.46">.</text>
<text x="446.04" y="484.46">+</text>
<text x="184.82" y="36.56">.</text>
<text x="74.14" y="188.46">.</text>
<text x="62.35" y="141.32">+</text>
<text x="99.18" y="469.10">.</text>
<text x="84.16" y="60.57">+</text>
<text x="154.71" y="210.54">+</text>
<text x="60.68" y="451.45">.</text>
<text x="72.91" y="372.16">+</text>
<text x="407.94" y="427.29">+</text>
<text x="21.52" y="400.23">+</text>
<text x="0.93" y="138.58">.</text>
<text x="164.08" y="372.68">*</text>
<text x="186.39" y="109.41">+</text>
<text x="22.89" y="334.06">+</text>
<text x="488.90" y="53.83">+</text>
<text x="111.99" y="305.03">+</text>
<text x="54.95" y="87.03">.</text>
<text x="317.93" y="137.89">+</text>
<text x="359.00" y="314.05">+</text>
<text x="17.23" y="212.03">.</text>
<text x="159.27" y="295.19">+</text>
<text x="480.54" y="179.43">+</text>
<text x="453.43" y="494.95">+</text>
<text x="469.44" y="419.17">*</text>
<text x="458.32" y="60.73">+</text>
<text x="302.33" y="437.70">.</text>
<text x="381.92" y="181.65">+</text>
<text x="493.48" y="18.05">*</text>
<text x="214.26" y="238.67">.</text>
<text x="52.09" y="81.68">.</text>
<text x="145.51" y="125.55">+</text>
<text x="397.89" y="101.55">.</text>
<text x="101.86" y="408.58">+</text>
<text x="249.54" y="120.81">+</text>
<text x="241.56" y="441.85">+</text>
<text x="258.20" y="374.73">+</text>
<text x="445.03" y="94.51">.</text>
<text x="262.45" y="333.89">.</text>
<text x="220.58" y="498.06">+</text>
<text x="241.28" y="120.07">.</text>
<text x="499.19" y="34.59">+</text>
<text x="240.90" y="390.35">*</text>
<text x="33.47" y="242.34">.</text>
<text x="19.00" y="206.79">.</text>
<text x="93.23" y="331.08">+</text>
<text x="480.41" y="298.21">+</text>
<text x="9.12" y="96.99">+</text>
<text x="21.53" y="36.44">+</text>
<text x="483.78" y="104.83">+</text>
<text x="174.54" y="473.14">.</text>
<text x="347.78" y="421.45">+</text>
<text x="286.04" y="192.71">+</text>
<text x="81.55" y="378.36">.</text>
<text x="418.63" y="414.82">+</text>
<text x="178.41" y="88.68">.</text>
<text x="114.73" y="2.89">.</text>
<text x="385.29" y="487.85">.</text>
<text x="425.56" y="198.27">.</text>
<text x="163.21" y="433.72">.</text>
<text x="383.87" y="247.39">+</text>
<text x="174.12" y="100.52">+</text>
<text x="60.99" y="370.61">.</text>
<text x="57.76" y="190.21">+</text>
<text x="114.17" y="430.62">.</text>
<text x="285.53" y="90.53">.</text>
<text x="423.37" y="285.60">+</text>
<text x="91.86" y="35.66">.</text>
<text x="499.47" y="20.57">.</text>
<text x="471.28" y="67.04">.</text>
<text x="261.35" y="308.84">.</text>
<text x="134.86" y="457.96">.</text>
<text x="114.25" y="261.43">.</text>
<text x="392.79" y="365.61">.</text>
<text x="76.56" y="10.42">.</text>
<text x="64.78" y="103.33">.</text>
<text x="288.34" y="91.54">.</text>
<text x="96.07" y="141.34">+</text>
<text x="16.65" y="475.87">.</text>
<text x="133.72" y="357.46">.</text>
<text x="167.80" y="194.00">+</text>
<text x="333.26" y="367.13">.</text>
<text x="396.35" y="195.52">+</text>
<text x="183.86" y="169.30">.</text>
<text x="490.92" y="25.68">+</text>
<text x="102.01" y="444.53">+</text>
<text x="350.39" y="268.16">*</text>
<text x="348.97" y="14.63">+</text>
<text x="43.88" y="80.52">.</text>
<text x="448.71" y="77.75">.</text>
<text x="105.92" y="371.71">*</text>
<text x="227.51" y="61.04">.</text>
<text x="163.65" y="294.96">.</text>
<text x="186.64" y="298.21">+</text>
<text x="456.34" y="186.72">.</text>

</svg>