
<svg viewBox="0 0 500 500" xmlns="http://www.w.org/2000/svg" width="100%" height="100%" style="background-color: #0a0a14; font-family: 'Courier New', Courier, monospace;">
    <style>
        text { fill: #aaa; font-size: 10px; text-anchor: middle; dominant-baseline: middle; }
    </style>
    <text x="328.39" y="468.81">*</text>
<text x="471.29" y="260.00">.</text>
<text x="115.50" y="42.02">.</text>
<text x="317.29" y="211.63">+</text>
<text x="133.22" y="498.08">+</text>
<text x="89.85" y="182.61">.</text>
<text x="297.85" y="323.08">*</text>
<text x="24.27" y="16.70">+</text>
<text x="397.04" y="168.29">*</text>
<text x="92.29" y="212.92">+</text>
<text x="105.37" y="354.66">.</text>
<text x="255.32" y="197.08">+</text>
<text x="12.73" y="13.68">+</text>
<text x="206.97" y="380.43">.</text>
<text x="366.19" y="263.33">.</text>
<text x="132.37" y="221.34">.</text>
<text x="195.36" y="366.56">+</text>
<text x="192.05" y="152.57">+</text>
<text x="93.70" y="363.45">+</text>
<text x="115.53" y="36.43">.</text>
<text x="393.95" y="414.13">+</text>
<text x="255.14" y="46.14">.</text>
<text x="171.10" y="408.72">.</text>
<text x="110.49" y="55.08">+</text>
<text x="231.43" y="481.59">.</text>
<text x="254.37" y="12.24">.</text>
<text x="448.74" y="150.70">.</text>
<text x="38.23" y="498.25">.</text>
<text x="231.30" y="138.08">*</text>
<text x="366.18" y="141.78">.</text>
<text x="29.58" y="422.65">.</text>
<text x="440.54" y="496.03">*</text>
<text x="324.67" y="351.73">.</text>
<text x="316.73" y="328.79">.</text>
<text x="467.29" y="295.55">.</text>
<text x="235.98" y="403.04">.</text>
<text x="422.69" y="296.60">*</text>
<text x="97.99" y="367.96">.</text>
<text x="229.24" y="352.69">.</text>
<text x="104.45" y="100.31">.</text>
<text x="57.83" y="219.25">.</text>
<text x="200.67" y="197.64">+</text>
<text x="274.43" y="378.39">*</text>
<text x="423.36" y="168.55">.</text>
<text x="247.52" y="1.29">.</text>
<text x="420.15" y="397.65">.</text>
<text x="150.48" y="333.42">+</text>
<text x="436.29" y="41.74">.</text>
<text x="163.14" y="450.37">+</text>
<text x="126.69" y="432.06">+</text>
<text x="426.31" y="371.39">+</text>
<text x="394.31" y="356.74">+</text>
<text x="499.20" y="384.62">*</text>
<text x="86.17" y="8.64">+</text>
<text x="152.39" y="398.93">.</text>
<text x="62.25" y="175.25">+</text>
<text x="398.25" y="331.25">.</text>
<text x="405.38" y="449.41">.</text>
<text x="45.59" y="185.06">.</text>
<text x="238.08" y="63.54">*</text>
<text x="413.43" y="195.22">.</text>
<text x="349.00" y="400.20">.</text>
<text x="382.05" y="453.05">+</text>
<text x="21.70" y="476.13">+</text>
<text x="370.48" y="107.36">.</text>
<text x="116.92" y="368.02">.</text>
<text x="137.85" y="454.32">+</text>
<text x="354.05" y="315.95">+</text>
<text x="0.50" y="84.16">.</text>
<text x="430.54" y="55.78">+</text>
<text x="98.85" y="284.57">+</text>
<text x="60.64" y="99.05">+</text>
<text x="229.80" y="214.96">+</text>
<text x="94.54" y="403.00">*</text>
<text x="82.20" y="184.71">.</text>
<text x="52.66" y="58.87">+</text>
<text x="494.69" y="29.39">+</text>
<text x="414.84" y="89.04">.</text>
<text x="368.39" y="256.10">+</text>
<text x="492.54" y="276.62">.</text>
<text x="378.06" y="494.17">.</text>
<text x="339.18" y="288.48">+</text>
<text x="161.93" y="197.96">*</text>
<text x="94.65" y="322.50">.</text>
<text x="138.30" y="146.92">+</text>
<text x="241.56" y="163.33">+</text>
<text x="282.66" y="55.73">*</text>
<text x="52.16" y="422.71">+</text>
<text x="394.18" y="421.00">.</text>
<text x="178.86" y="341.68">.</text>
<text x="431.88" y="478.23">+</text>
<text x="330.87" y="312.32">.</text>
<text x="489.95" y="52.86">+</text>
<text x="427.00" y="467.29">*</text>
<text x="203.37" y="344.26">.</text>
<text x="226.64" y="161.11">.</text>
<text x="174.49" y="127.35">.</text>
<text x="498.51" y="199.44">.</text>
<text x="307.85" y="454.21">+</text>
<text x="368.70" y="118.42">*</text>
<text x="293.76" y="243.80">*</text>
<text x="89.27" y="453.35">.</text>
<text x="197.98" y="228.39">*</text>
<text x="281.19" y="479.38">.</text>
<text x="106.97" y="476.19">+</text>
<text x="104.58" y="315.50">.</text>
<text x="42.10" y="446.86">+</text>
<text x="378.80" y="89.65">+</text>
<text x="360.77" y="71.87">+</text>
<text x="256.01" y="275.01">+</text>
<text x="414.71" y="476.28">+</text>
<text x="184.18" y="30.63">+</text>
<text x="151.47" y="238.45">.</text>
<text x="124.80" y="418.60">.</text>
<text x="427.19" y="53.14">+</text>
<text x="103.75" y="30.55">.</text>
<text x="290.29" y="273.96">.</text>
<text x="423.99" y="348.52">+</text>
<text x="143.16" y="436.35">.</text>
<text x="483.09" y="248.99">+</text>
<text x="308.38" y="419.65">.</text>
<text x="50.33" y="220.73">+</text>
<text x="49.46" y="95.63">*</text>
<text x="263.77" y="59.95">*</text>
<text x="98.58" y="90.86">+</text>
<text x="345.54" y="408.93">+</text>
<text x="381.10" y="375.37">.</text>
<text x="18.52" y="115.07">.</text>
<text x="450.06" y="143.04">+</text>
<text x="419.88" y="260.37">.</text>
<text x="50.71" y="335.15">.</text>
<text x="217.06" y="481.13">*</text>
<text x="248.64" y="433.49">+</text>
<text x="325.85" y="390.20">.</text>
<text x="459.92" y="42.91">.</text>
<text x="343.10" y="434.30">+</text>
<text x="327.47" y="10.07">.</text>
<text x="45.86" y="445.99">+</text>
<text x="58.44" y="495.67">.</text>
<text x="191.17" y="42.86">.</text>
<text x="44.04" y="424.31">.</text>
<text x="419.98" y="423.62">.</text>
<text x="307.97" y="157.05">.</text>
<text x="107.32" y="218.00">.</text>
<text x="473.36" y="438.20">+</text>
<text x="309.05" y="124.96">.</text>
<text x="131.95" y="117.14">.</text>
<text x="142.79" y="287.98">*</text>
<text x="194.34" y="216.09">*</text>
<text x="44.98" y="128.85">.</text>
<text x="132.73" y="95.83">+</text>
<text x="465.20" y="479.74">+</text>
<text x="494.54" y="108.91">+</text>
<text x="5.59" y="293.25">+</text>
<text x="402.32" y="341.81">+</text>
<text x="94.53" y="103.98">.</text>
<text x="24.57" y="284.14">+</text>
<text x="221.22" y="21.44">*</text>
<text x="269.78" y="238.04">.</text>
<text x="362.86" y="219.45">.</text>
<text x="460.86" y="238.11">+</text>
<text x="127.92" y="345.62">.</text>
<text x="253.73" y="280.85">+</text>
<text x="162.14" y="256.45">.</text>
<text x="268.44" y="374.07">*</text>
<text x="308.43" y="80.57">+</text>
<text x="231.72" y="1.71">.</text>
<text x="296.08" y="99.11">*</text>
<text x="359.53" y="143.78">+</text>
<text x="338.45" y="425.29">.</text>
<text x="393.31" y="410.47">*</text>
<text x="134.28" y="304.72">+</text>
<text x="253.06" y="401.09">.</text>
<text x="388.34" y="70.61">+</text>
<text x="283.48" y="337.84">+</text>
<text x="33.35" y="175.59">.</text>
<text x="284.83" y="403.84">.</text>
<text x="139.83" y="439.84">*</text>
<text x="189.11" y="79.67">+</text>
<text x="342.35" y="421.52">*</text>
<text x="246.01" y="385.84">.</text>
<text x="441.56" y="31.17">.</text>
<text x="440.41" y="497.73">+</text>
<text x="32.07" y="251.69">.</text>
<text x="293.48" y="58.31">*</text>
<text x="297.43" y="403.25">*</text>
<text x="308.12" y="45.17">.</text>
<text x="235.30" y="95.97">*</text>
<text x="75.29" y="413.58">+</text>
<text x="371.12" y="102.63">+</text>
<text x="119.96" y="430.64">.</text>
<text x="231.47" y="164.40">.</text>
<text x="450.76" y="148.18">*</text>
<text x="137.28" y="82.42">.</text>
<text x="244.57" y="353.26">.</text>
<text x="200.74" y="273.47">+</text>
<text x="435.42" y="391.24">*</text>
<text x="111.28" y="272.08">.</text>
<text x="116.25" y="96.43">.</text>
<text x="193.05" y="2.91">+</text>
<text x="418.07" y="341.90">+</text>

</svg>