
<svg viewBox="0 0 500 500" xmlns="http://www.w.org/2000/svg" width="100%" height="100%" style="background-color: #0a0a14; font-family: 'Courier New', Courier, monospace;">
    <style>
        text { fill: #aaa; font-size: 10px; text-anchor: middle; dominant-baseline: middle; }
    </style>
    <text x="404.34" y="445.05">.</text>
<text x="59.02" y="490.21">+</text>
<text x="143.30" y="389.44">.</text>
<text x="309.77" y="341.81">.</text>
<text x="308.81" y="377.82">.</text>
<text x="430.89" y="114.93">+</text>
<text x="64.51" y="462.32">+</text>
<text x="430.43" y="358.06">.</text>
<text x="421.67" y="234.54">.</text>
<text x="249.39" y="115.02">*</text>
<text x="221.62" y="74.41">.</text>
<text x="403.53" y="65.06">.</text>
<text x="494.50" y="299.83">+</text>
<text x="89.04" y="236.01">.</text>
<text x="81.29" y="409.87">.</text>
<text x="30.96" y="148.10">.</text>
<text x="311.00" y="44.64">*</text>
<text x="172.28" y="493.48">.</text>
<text x="480.15" y="47.76">.</text>
<text x="3.34" y="433.41">*</text>
<text x="314.38" y="85.05">+</text>
<text x="462.24" y="141.56">+</text>
<text x="28.92" y="101.42">*</text>
<text x="305.99" y="264.66">+</text>
<text x="67.08" y="73.15">*</text>
<text x="352.10" y="490.53">+</text>
<text x="279.77" y="32.86">+</text>
<text x="483.20" y="205.29">+</text>
<text x="383.56" y="365.12">+</text>
<text x="413.30" y="372.88">+</text>
<text x="69.98" y="283.29">.</text>
<text x="340.83" y="439.65">*</text>
<text x="72.74" y="235.68">+</text>
<text x="266.47" y="356.96">+</text>
<text x="55.84" y="321.04">+</text>
<text x="326.57" y="23.50">.</text>
<text x="378.96" y="488.02">.</text>
<text x="56.04" y="67.91">+</text>
<text x="448.27" y="17.82">.</text>
<text x="247.63" y="339.06">+</text>
<text x="481.55" y="419.33">.</text>
<text x="494.76" y="236.86">.</text>
<text x="19.57" y="434.83">+</text>
<text x="404.06" y="446.55">+</text>
<text x="350.17" y="157.62">+</text>
<text x="486.76" y="119.76">.</text>
<text x="60.25" y="65.29">+</text>
<text x="167.95" y="299.14">.</text>
<text x="213.25" y="431.60">+</text>
<text x="355.16" y="370.84">.</text>
<text x="486.86" y="335.95">.</text>
<text x="414.32" y="131.11">+</text>
<text x="9.81" y="268.15">.</text>
<text x="323.00" y="430.87">+</text>
<text x="174.50" y="369.84">+</text>
<text x="333.35" y="377.49">.</text>
<text x="286.63" y="383.11">+</text>
<text x="33.34" y="460.71">.</text>
<text x="371.27" y="177.98">+</text>
<text x="0.43" y="257.85">+</text>
<text x="407.69" y="2.59">*</text>
<text x="363.27" y="11.12">.</text>
<text x="304.20" y="225.90">+</text>
<text x="344.21" y="100.58">.</text>
<text x="111.60" y="352.77">.</text>
<text x="46.37" y="31.15">+</text>
<text x="338.83" y="338.82">+</text>
<text x="266.61" y="274.65">.</text>
<text x="121.92" y="342.42">+</text>
<text x="286.45" y="27.46">.</text>
<text x="444.07" y="131.86">+</text>
<text x="87.81" y="153.87">+</text>
<text x="227.72" y="381.51">.</text>
<text x="78.38" y="435.60">+</text>
<text x="10.20" y="401.97">+</text>
<text x="300.64" y="156.17">.</text>
<text x="294.01" y="499.09">*</text>
<text x="148.56" y="53.22">.</text>
<text x="245.97" y="453.70">+</text>
<text x="298.70" y="366.27">+</text>
<text x="258.89" y="478.78">.</text>
<text x="257.40" y="331.76">+</text>
<text x="225.38" y="305.34">.</text>
<text x="281.42" y="155.51">*</text>
<text x="139.70" y="156.89">.</text>
<text x="189.90" y="103.48">.</text>
<text x="187.61" y="85.31">+</text>
<text x="400.24" y="393.87">+</text>
<text x="89.35" y="359.71">.</text>
<text x="92.00" y="475.67">*</text>
<text x="172.47" y="309.89">.</text>
<text x="147.05" y="337.96">.</text>
<text x="134.81" y="235.66">+</text>
<text x="403.96" y="373.25">*</text>
<text x="492.74" y="11.31">+</text>
<text x="403.28" y="188.59">.</text>
<text x="284.97" y="331.04">+</text>
<text x="372.68" y="185.87">.</text>
<text x="409.44" y="127.59">.</text>
<text x="237.85" y="415.72">+</text>
<text x="171.71" y="318.09">+</text>
<text x="406.20" y="442.44">.</text>
<text x="379.79" y="446.83">.</text>
<text x="296.20" y="300.76">+</text>
<text x="345.54" y="69.19">.</text>
<text x="246.33" y="363.96">.</text>
<text x="197.60" y="340.66">+</text>
<text x="230.26" y="137.11">+</text>
<text x="373.75" y="240.21">+</text>
<text x="87.33" y="288.45">.</text>
<text x="357.80" y="153.86">+</text>
<text x="162.60" y="283.92">.</text>
<text x="92.63" y="227.05">.</text>
<text x="54.94" y="142.97">*</text>
<text x="175.51" y="250.96">+</text>
<text x="471.39" y="23.59">.</text>
<text x="195.71" y="434.48">*</text>
<text x="28.70" y="171.94">.</text>
<text x="172.49" y="268.17">.</text>
<text x="144.65" y="13.68">.</text>
<text x="253.82" y="446.40">+</text>
<text x="440.94" y="254.57">+</text>
<text x="375.80" y="27.83">.</text>
<text x="15.19" y="196.29">.</text>
<text x="480.17" y="69.45">*</text>
<text x="244.89" y="402.90">+</text>
<text x="300.89" y="426.52">+</text>
<text x="280.06" y="319.76">.</text>
<text x="91.58" y="415.60">.</text>
<text x="271.58" y="240.30">.</text>
<text x="146.65" y="442.86">+</text>
<text x="216.96" y="303.85">+</text>
<text x="343.83" y="341.89">.</text>
<text x="314.53" y="342.92">.</text>
<text x="279.56" y="226.53">.</text>
<text x="53.34" y="123.23">+</text>
<text x="230.97" y="276.41">.</text>
<text x="58.98" y="29.61">*</text>
<text x="332.03" y="253.57">.</text>
<text x="156.28" y="493.15">.</text>
<text x="327.09" y="176.20">.</text>
<text x="163.16" y="244.65">*</text>
<text x="199.15" y="184.65">.</text>
<text x="292.03" y="370.21">+</text>
<text x="264.07" y="382.21">.</text>
<text x="9.72" y="163.08">.</text>
<text x="224.76" y="260.65">*</text>
<text x="392.85" y="142.58">.</text>
<text x="494.03" y="394.87">.</text>
<text x="52.78" y="359.08">+</text>
<text x="363.58" y="101.80">*</text>
<text x="173.68" y="63.46">.</text>
<text x="397.87" y="302.37">+</text>
<text x="270.45" y="453.89">.</text>
<text x="189.58" y="0.14">*</text>
<text x="486.56" y="42.34">*</text>
<text x="491.10" y="224.06">.</text>
<text x="158.36" y="122.06">+</text>
<text x="152.93" y="148.36">.</text>
<text x="22.79" y="102.73">+</text>
<text x="74.96" y="393.27">.</text>
<text x="377.66" y="88.68">.</text>
<text x="130.53" y="351.44">+</text>
<text x="420.75" y="481.94">.</text>
<text x="464.58" y="272.47">.</text>
<text x="16.80" y="29.27">*</text>
<text x="150.41" y="223.14">*</text>
<text x="190.19" y="18.87">+</text>
<text x="312.40" y="88.26">+</text>
<text x="208.69" y="446.79">.</text>
<text x="164.42" y="297.31">+</text>
<text x="37.10" y="499.52">*</text>
<text x="85.94" y="360.01">+</text>
<text x="69.66" y="457.78">.</text>
<text x="76.38" y="39.06">+</text>
<text x="74.12" y="496.38">.</text>
<text x="84.60" y="169.48">+</text>
<text x="244.74" y="195.08">.</text>
<text x="62.33" y="466.38">+</text>
<text x="207.77" y="95.12">.</text>
<text x="297.20" y="25.95">.</text>
<text x="228.84" y="321.19">.</text>
<text x="86.86" y="324.07">.</text>
<text x="3.78" y="192.73">+</text>
<text x="68.93" y="205.01">+</text>
<text x="234.60" y="298.99">.</text>
<text x="68.16" y="23.86">+</text>
<text x="288.24" y="71.69">.</text>
<text x="297.70" y="312.20">.</text>
<text x="271.13" y="94.20">*</text>
<text x="40.04" y="59.96">*</text>
<text x="217.05" y="421.49">+</text>
<text x="289.27" y="2.25">.</text>
<text x="203.27" y="75.86">+</text>
<text x="382.40" y="163.59">+</text>
<text x="497.13" y="229.40">*</text>
<text x="193.23" y="95.14">+</text>
<text x="179.78" y="439.71">.</text>
<text x="258.47" y="436.70">+</text>
<text x="462.55" y="115.25">+</text>
<text x="303.22" y="399.99">+</text>
<text x="276.14" y="115.13">+</text>
<text x="342.94" y="483.85">.</text>
<text x="312.84" y="228.28">+</text>
<text x="420.57" y="192.23">.</text>

</svg>