
<svg viewBox="0 0 500 500" xmlns="http://www.w.org/2000/svg" width="100%" height="100%" style="background-color: #0a0a14; font-family: 'Courier New', Courier, monospace;">
    <style>
        text { fill: #aaa; font-size: 10px; text-anchor: middle; dominant-baseline: middle; }
    </style>
    <text x="444.74" y="25.77">+</text>
<text x="290.78" y="270.92">.</text>
<text x="289.63" y="47.95">+</text>
<text x="368.01" y="302.59">.</text>
<text x="116.00" y="141.60">.</text>
<text x="39.06" y="401.09">+</text>
<text x="487.82" y="432.57">.</text>
<text x="66.66" y="166.03">*</text>
<text x="258.43" y="293.02">.</text>
<text x="404.62" y="297.79">.</text>
<text x="316.61" y="167.64">+</text>
<text x="291.09" y="54.18">.</text>
<text x="276.88" y="426.81">+</text>
<text x="308.97" y="47.81">+</text>
<text x="255.00" y="118.90">.</text>
<text x="487.01" y="235.46">*</text>
<text x="253.82" y="141.96">+</text>
<text x="152.43" y="327.59">+</text>
<text x="303.35" y="46.53">.</text>
<text x="138.52" y="329.45">.</text>
<text x="407.34" y="95.63">+</text>
<text x="38.91" y="183.67">+</text>
<text x="56.13" y="445.41">*</text>
<text x="119.56" y="198.92">+</text>
<text x="313.52" y="154.96">*</text>
<text x="297.69" y="189.78">*</text>
<text x="65.11" y="96.86">.</text>
<text x="265.63" y="158.89">.</text>
<text x="292.78" y="271.13">+</text>
<text x="18.55" y="83.02">.</text>
<text x="161.85" y="491.14">.</text>
<text x="58.51" y="70.59">.</text>
<text x="184.65" y="271.22">+</text>
<text x="329.70" y="64.07">.</text>
<text x="337.47" y="361.36">.</text>
<text x="307.98" y="103.65">+</text>
<text x="242.35" y="470.54">+</text>
<text x="26.14" y="414.67">.</text>
<text x="134.86" y="337.55">+</text>
<text x="103.56" y="38.90">+</text>
<text x="492.86" y="458.36">.</text>
<text x="490.56" y="96.03">.</text>
<text x="23.65" y="167.46">+</text>
<text x="142.22" y="361.92">+</text>
<text x="334.94" y="450.26">.</text>
<text x="407.64" y="485.27">.</text>
<text x="459.25" y="327.22">+</text>
<text x="269.11" y="284.69">*</text>
<text x="226.81" y="222.29">+</text>
<text x="117.89" y="275.52">.</text>
<text x="15.03" y="498.82">*</text>
<text x="231.30" y="43.17">.</text>
<text x="294.60" y="331.71">.</text>
<text x="412.01" y="365.08">+</text>
<text x="60.45" y="141.91">*</text>
<text x="323.60" y="78.93">*</text>
<text x="493.42" y="252.69">+</text>
<text x="155.72" y="327.73">+</text>
<text x="458.57" y="357.77">.</text>
<text x="329.49" y="215.17">.</text>
<text x="0.45" y="417.27">.</text>
<text x="123.82" y="443.07">*</text>
<text x="363.51" y="95.26">+</text>
<text x="437.34" y="393.85">+</text>
<text x="210.36" y="179.58">.</text>
<text x="327.24" y="115.42">.</text>
<text x="446.04" y="169.11">+</text>
<text x="430.30" y="31.43">.</text>
<text x="400.48" y="107.29">.</text>
<text x="140.44" y="493.62">.</text>
<text x="50.06" y="237.99">+</text>
<text x="307.08" y="180.91">.</text>
<text x="30.96" y="93.94">.</text>
<text x="33.44" y="456.04">+</text>
<text x="338.22" y="255.14">.</text>
<text x="468.30" y="194.75">.</text>
<text x="218.07" y="18.48">+</text>
<text x="434.82" y="485.35">+</text>
<text x="50.22" y="100.94">+</text>
<text x="221.23" y="241.51">.</text>
<text x="243.16" y="214.27">+</text>
<text x="32.96" y="215.23">.</text>
<text x="444.28" y="312.85">*</text>
<text x="358.92" y="265.44">.</text>
<text x="299.67" y="43.05">.</text>
<text x="240.69" y="24.66">.</text>
<text x="10.41" y="145.05">+</text>
<text x="247.97" y="250.17">+</text>
<text x="238.78" y="133.67">.</text>
<text x="257.92" y="176.71">+</text>
<text x="336.12" y="291.12">+</text>
<text x="187.25" y="75.45">.</text>
<text x="296.09" y="405.75">+</text>
<text x="206.66" y="417.29">.</text>
<text x="384.39" y="301.35">.</text>
<text x="324.30" y="77.34">+</text>
<text x="7.90" y="280.59">+</text>
<text x="193.22" y="329.42">*</text>
<text x="467.07" y="18.43">.</text>
<text x="279.28" y="348.58">.</text>
<text x="147.02" y="326.53">+</text>
<text x="109.07" y="248.53">*</text>
<text x="194.26" y="224.53">+</text>
<text x="288.58" y="84.63">.</text>
<text x="202.69" y="154.89">*</text>
<text x="479.00" y="229.40">+</text>
<text x="387.06" y="197.01">.</text>
<text x="312.68" y="461.75">.</text>
<text x="190.14" y="268.16">*</text>
<text x="156.49" y="50.09">.</text>
<text x="14.68" y="446.63">.</text>
<text x="265.87" y="395.79">+</text>
<text x="162.28" y="465.45">.</text>
<text x="176.57" y="338.27">+</text>
<text x="99.36" y="224.68">.</text>
<text x="176.89" y="409.56">*</text>
<text x="27.69" y="206.37">+</text>
<text x="307.30" y="165.20">.</text>
<text x="101.54" y="59.61">+</text>
<text x="189.01" y="83.66">+</text>
<text x="300.72" y="331.59">.</text>
<text x="320.82" y="414.07">.</text>
<text x="162.02" y="146.01">+</text>
<text x="349.56" y="78.80">.</text>
<text x="373.86" y="285.65">+</text>
<text x="208.73" y="426.72">+</text>
<text x="453.71" y="150.77">.</text>
<text x="329.77" y="277.70">.</text>
<text x="378.94" y="367.24">.</text>
<text x="96.55" y="365.33">.</text>
<text x="472.59" y="141.39">+</text>
<text x="238.25" y="476.82">*</text>
<text x="112.01" y="116.61">*</text>
<text x="194.38" y="360.89">+</text>
<text x="67.05" y="225.65">.</text>
<text x="372.86" y="55.79">*</text>
<text x="177.52" y="263.46">+</text>
<text x="20.86" y="432.94">+</text>
<text x="254.91" y="2.31">+</text>
<text x="289.36" y="50.30">.</text>
<text x="285.27" y="142.79">+</text>
<text x="402.76" y="381.43">+</text>
<text x="318.60" y="53.19">.</text>
<text x="59.26" y="333.42">.</text>
<text x="57.17" y="480.49">.</text>
<text x="336.84" y="323.74">.</text>
<text x="181.02" y="46.96">+</text>
<text x="287.25" y="17.39">+</text>
<text x="207.71" y="473.08">.</text>
<text x="126.44" y="496.21">+</text>
<text x="110.62" y="67.99">+</text>
<text x="233.49" y="395.77">.</text>
<text x="112.92" y="437.80">*</text>
<text x="12.56" y="292.64">*</text>
<text x="429.68" y="225.09">+</text>
<text x="133.69" y="340.98">.</text>
<text x="353.28" y="38.13">+</text>
<text x="374.71" y="272.45">.</text>
<text x="326.40" y="443.58">+</text>
<text x="406.51" y="358.24">.</text>
<text x="447.69" y="410.16">.</text>
<text x="320.67" y="275.14">+</text>
<text x="164.83" y="431.64">.</text>
<text x="324.63" y="205.21">.</text>
<text x="273.17" y="318.86">+</text>
<text x="202.91" y="295.98">.</text>
<text x="479.52" y="437.72">+</text>
<text x="3.56" y="73.42">.</text>
<text x="13.10" y="494.85">+</text>
<text x="155.19" y="226.61">*</text>
<text x="361.42" y="397.05">*</text>
<text x="468.73" y="455.17">.</text>
<text x="404.66" y="34.19">+</text>
<text x="453.73" y="338.35">.</text>
<text x="484.25" y="317.71">*</text>
<text x="483.37" y="337.01">.</text>
<text x="266.07" y="477.33">*</text>
<text x="394.72" y="296.06">*</text>
<text x="392.98" y="148.21">+</text>
<text x="314.62" y="25.83">.</text>
<text x="455.53" y="477.33">+</text>
<text x="448.34" y="70.66">.</text>
<text x="145.65" y="86.56">.</text>
<text x="72.03" y="407.82">+</text>
<text x="480.92" y="222.03">+</text>
<text x="487.60" y="76.78">*</text>
<text x="426.11" y="349.76">.</text>
<text x="18.24" y="68.68">.</text>
<text x="310.01" y="102.34">+</text>
<text x="254.41" y="480.88">*</text>
<text x="46.13" y="379.37">.</text>
<text x="81.05" y="31.00">*</text>
<text x="4.72" y="499.45">.</text>
<text x="233.34" y="59.42">+</text>
<text x="126.92" y="487.62">.</text>
<text x="122.64" y="358.48">.</text>
<text x="214.57" y="3.49">+</text>
<text x="146.26" y="83.68">.</text>
<text x="424.51" y="203.00">.</text>
<text x="77.74" y="265.42">+</text>
<text x="289.10" y="379.63">*</text>
<text x="150.17" y="416.69">+</text>
<text x="179.24" y="266.63">+</text>
<text x="406.36" y="33.36">+</text>
<text x="463.09" y="434.46">+</text>
<text x="380.02" y="1.27">.</text>
<text x="164.69" y="323.19">+</text>
<text x="492.78" y="463.27">.</text>
<text x="343.84" y="83.73">.</text>
<text x="422.49" y="33.93">+</text>
<text x="140.30" y="106.94">.</text>
<text x="190.62" y="78.93">+</text>
<text x="198.36" y="154.98">+</text>
<text x="243.03" y="270.83">+</text>
<text x="472.59" y="97.65">.</text>
<text x="314.68" y="157.73">+</text>

</svg>