
<svg viewBox="0 0 500 500" xmlns="http://www.w.org/2000/svg" width="100%" height="100%" style="background-color: #0a0a14; font-family: 'Courier New', Courier, monospace;">
    <style>
        text { fill: #aaa; font-size: 10px; text-anchor: middle; dominant-baseline: middle; }
    </style>
    <text x="404.42" y="170.49">+</text>
<text x="378.66" y="242.47">.</text>
<text x="320.04" y="427.61">.</text>
<text x="64.28" y="252.05">+</text>
<text x="161.40" y="39.39">+</text>
<text x="293.97" y="55.11">.</text>
<text x="238.98" y="319.88">+</text>
<text x="141.81" y="139.03">+</text>
<text x="65.93" y="130.40">.</text>
<text x="205.17" y="410.75">.</text>
<text x="231.76" y="322.82">+</text>
<text x="170.59" y="74.21">+</text>
<text x="152.56" y="463.91">+</text>
<text x="408.01" y="480.58">+</text>
<text x="91.05" y="485.40">.</text>
<text x="303.88" y="230.18">+</text>
<text x="116.47" y="88.37">.</text>
<text x="375.50" y="377.95">+</text>
<text x="99.92" y="162.37">.</text>
<text x="204.03" y="294.58">.</text>
<text x="434.21" y="246.16">+</text>
<text x="372.72" y="278.13">.</text>
<text x="287.72" y="348.51">*</text>
<text x="448.87" y="418.78">*</text>
<text x="451.35" y="167.67">+</text>
<text x="217.71" y="26.34">*</text>
<text x="117.62" y="91.39">+</text>
<text x="66.97" y="300.68">.</text>
<text x="132.74" y="99.10">.</text>
<text x="222.31" y="193.46">.</text>
<text x="367.69" y="345.07">.</text>
<text x="130.90" y="446.01">.</text>
<text x="142.94" y="28.85">+</text>
<text x="304.13" y="240.47">*</text>
<text x="396.35" y="213.53">+</text>
<text x="462.92" y="23.50">+</text>
<text x="93.43" y="307.21">+</text>
<text x="142.69" y="288.76">.</text>
<text x="452.85" y="60.16">.</text>
<text x="295.34" y="426.77">.</text>
<text x="408.44" y="76.97">+</text>
<text x="390.60" y="280.47">+</text>
<text x="279.90" y="164.05">.</text>
<text x="163.67" y="306.75">*</text>
<text x="321.88" y="173.55">.</text>
<text x="368.53" y="317.29">.</text>
<text x="323.40" y="419.56">+</text>
<text x="83.19" y="4.94">.</text>
<text x="319.25" y="322.99">+</text>
<text x="75.81" y="61.79">+</text>
<text x="212.66" y="344.96">+</text>
<text x="491.38" y="379.14">+</text>
<text x="46.78" y="170.93">.</text>
<text x="96.20" y="102.23">+</text>
<text x="384.42" y="472.16">+</text>
<text x="360.36" y="262.31">.</text>
<text x="27.92" y="237.61">.</text>
<text x="13.59" y="440.78">.</text>
<text x="224.09" y="229.45">.</text>
<text x="93.31" y="435.10">+</text>
<text x="144.57" y="54.34">+</text>
<text x="437.43" y="441.40">.</text>
<text x="269.39" y="414.44">+</text>
<text x="35.90" y="50.94">+</text>
<text x="96.89" y="66.61">+</text>
<text x="173.25" y="461.68">.</text>
<text x="43.05" y="441.90">.</text>
<text x="186.53" y="350.36">+</text>
<text x="69.85" y="58.57">+</text>
<text x="333.94" y="42.40">+</text>
<text x="463.86" y="184.69">.</text>
<text x="428.43" y="234.92">+</text>
<text x="330.39" y="71.01">*</text>
<text x="15.18" y="406.35">*</text>
<text x="221.31" y="385.48">.</text>
<text x="136.50" y="381.86">+</text>
<text x="383.64" y="380.13">+</text>
<text x="433.40" y="314.64">+</text>
<text x="367.53" y="54.83">*</text>
<text x="322.48" y="460.20">*</text>
<text x="226.48" y="198.63">+</text>
<text x="302.20" y="31.31">.</text>
<text x="190.45" y="21.65">+</text>
<text x="252.59" y="124.80">.</text>
<text x="110.70" y="54.37">+</text>
<text x="302.90" y="396.17">+</text>
<text x="429.80" y="327.17">.</text>
<text x="191.38" y="107.70">+</text>
<text x="470.68" y="209.44">.</text>
<text x="267.09" y="340.93">+</text>
<text x="225.50" y="277.07">*</text>
<text x="8.25" y="254.23">.</text>
<text x="333.20" y="233.76">.</text>
<text x="122.45" y="90.87">+</text>
<text x="14.80" y="190.42">.</text>
<text x="159.65" y="325.87">.</text>
<text x="290.90" y="47.02">+</text>
<text x="241.06" y="133.62">.</text>
<text x="291.18" y="349.39">.</text>
<text x="215.17" y="115.22">.</text>
<text x="423.71" y="278.36">+</text>
<text x="259.64" y="396.87">*</text>
<text x="347.81" y="336.54">.</text>
<text x="355.44" y="128.35">.</text>
<text x="124.14" y="133.57">.</text>
<text x="303.06" y="472.07">.</text>
<text x="295.95" y="380.75">*</text>
<text x="371.43" y="337.79">.</text>
<text x="12.04" y="78.54">+</text>
<text x="116.03" y="491.14">.</text>
<text x="211.83" y="67.53">.</text>
<text x="110.36" y="202.87">*</text>
<text x="306.31" y="147.38">+</text>
<text x="441.84" y="180.20">+</text>
<text x="254.91" y="77.33">+</text>
<text x="105.05" y="38.85">.</text>
<text x="75.81" y="205.76">+</text>
<text x="15.42" y="120.67">*</text>
<text x="242.21" y="414.82">.</text>
<text x="493.85" y="81.75">+</text>
<text x="102.27" y="97.65">+</text>
<text x="266.06" y="162.85">.</text>
<text x="351.18" y="357.71">+</text>
<text x="459.86" y="491.31">+</text>
<text x="457.46" y="50.88">.</text>
<text x="28.84" y="33.34">.</text>
<text x="10.36" y="34.88">*</text>
<text x="131.15" y="463.17">.</text>
<text x="81.66" y="418.91">+</text>
<text x="162.71" y="34.63">*</text>
<text x="496.03" y="416.20">.</text>
<text x="144.73" y="172.07">.</text>
<text x="478.42" y="345.09">.</text>
<text x="201.31" y="485.19">.</text>
<text x="180.02" y="437.03">.</text>
<text x="184.55" y="108.44">*</text>
<text x="172.37" y="32.30">+</text>
<text x="279.35" y="345.98">+</text>
<text x="496.29" y="69.10">+</text>
<text x="337.95" y="389.39">.</text>
<text x="180.49" y="88.47">.</text>
<text x="137.22" y="34.35">*</text>
<text x="106.13" y="459.70">+</text>
<text x="53.55" y="196.84">.</text>
<text x="316.96" y="220.66">+</text>
<text x="6.24" y="108.60">.</text>
<text x="108.28" y="297.15">+</text>
<text x="91.52" y="13.10">.</text>
<text x="418.65" y="80.78">.</text>
<text x="136.35" y="321.41">*</text>
<text x="407.34" y="319.21">.</text>
<text x="61.23" y="163.14">*</text>
<text x="265.63" y="213.14">+</text>
<text x="11.49" y="11.02">+</text>
<text x="241.80" y="244.06">.</text>
<text x="13.01" y="293.72">.</text>
<text x="416.21" y="171.85">.</text>
<text x="29.48" y="207.48">+</text>
<text x="70.37" y="53.64">*</text>
<text x="376.24" y="305.68">+</text>
<text x="419.98" y="351.07">+</text>
<text x="268.70" y="382.34">.</text>
<text x="394.13" y="15.29">+</text>
<text x="46.02" y="300.63">+</text>
<text x="185.49" y="168.29">+</text>
<text x="471.07" y="392.19">.</text>
<text x="281.58" y="125.65">.</text>
<text x="217.83" y="203.20">+</text>
<text x="381.28" y="222.96">*</text>
<text x="389.45" y="388.77">+</text>
<text x="93.45" y="413.00">+</text>
<text x="257.19" y="404.39">+</text>
<text x="208.57" y="341.84">+</text>
<text x="76.14" y="494.57">.</text>
<text x="432.94" y="235.58">.</text>
<text x="483.91" y="112.79">.</text>
<text x="282.76" y="141.51">+</text>
<text x="279.92" y="392.57">+</text>
<text x="70.41" y="12.63">.</text>
<text x="487.79" y="491.54">+</text>
<text x="119.18" y="315.14">+</text>
<text x="426.00" y="181.76">+</text>
<text x="246.21" y="109.31">.</text>
<text x="106.62" y="494.70">+</text>
<text x="51.68" y="18.02">.</text>
<text x="126.70" y="291.70">.</text>
<text x="112.32" y="184.36">*</text>
<text x="251.94" y="187.02">.</text>
<text x="88.23" y="266.25">.</text>
<text x="84.09" y="65.59">.</text>
<text x="100.36" y="244.96">*</text>
<text x="254.27" y="437.34">.</text>
<text x="237.41" y="61.04">.</text>
<text x="327.04" y="97.41">.</text>
<text x="37.58" y="26.47">+</text>
<text x="63.11" y="186.78">+</text>
<text x="352.30" y="193.99">+</text>
<text x="454.14" y="268.80">+</text>
<text x="160.55" y="431.97">+</text>
<text x="352.54" y="251.80">*</text>
<text x="216.20" y="395.78">+</text>
<text x="100.05" y="198.13">.</text>
<text x="388.58" y="426.47">*</text>
<text x="268.95" y="447.07">.</text>
<text x="155.95" y="18.87">+</text>
<text x="381.70" y="371.46">+</text>
<text x="127.36" y="391.88">+</text>
<text x="37.75" y="486.37">+</text>
<text x="227.51" y="56.33">.</text>

</svg>