
<svg viewBox="0 0 500 500" xmlns="http://www.w.org/2000/svg" width="100%" height="100%" style="background-color: #0a0a14; font-family: 'Courier New', Courier, monospace;">
    <style>
        text { fill: #aaa; font-size: 10px; text-anchor: middle; dominant-baseline: middle; }
    </style>
    <text x="45.18" y="307.01">.</text>
<text x="278.94" y="108.43">.</text>
<text x="190.07" y="219.49">+</text>
<text x="459.26" y="197.01">+</text>
<text x="185.12" y="34.86">*</text>
<text x="182.61" y="172.36">.</text>
<text x="268.97" y="207.27">*</text>
<text x="129.39" y="195.02">+</text>
<text x="89.13" y="300.20">.</text>
<text x="363.77" y="489.35">.</text>
<text x="317.35" y="211.22">+</text>
<text x="245.52" y="314.93">.</text>
<text x="199.99" y="322.41">.</text>
<text x="399.87" y="469.07">.</text>
<text x="69.81" y="336.00">.</text>
<text x="127.79" y="399.91">*</text>
<text x="96.41" y="415.30">.</text>
<text x="19.79" y="421.65">.</text>
<text x="37.21" y="255.82">+</text>
<text x="264.67" y="141.69">+</text>
<text x="245.05" y="246.00">+</text>
<text x="271.46" y="228.04">.</text>
<text x="415.31" y="195.55">+</text>
<text x="378.34" y="151.37">.</text>
<text x="110.17" y="16.31">*</text>
<text x="239.22" y="324.83">.</text>
<text x="474.14" y="50.08">.</text>
<text x="429.72" y="368.32">+</text>
<text x="207.17" y="199.05">*</text>
<text x="39.83" y="19.45">*</text>
<text x="13.76" y="41.44">.</text>
<text x="217.57" y="68.26">.</text>
<text x="164.67" y="121.77">.</text>
<text x="175.54" y="450.18">.</text>
<text x="29.79" y="310.16">*</text>
<text x="94.62" y="464.91">+</text>
<text x="356.02" y="354.03">+</text>
<text x="9.57" y="403.97">+</text>
<text x="471.45" y="425.28">.</text>
<text x="178.01" y="443.46">+</text>
<text x="228.14" y="449.60">.</text>
<text x="384.35" y="306.31">.</text>
<text x="57.24" y="153.78">+</text>
<text x="57.74" y="166.92">.</text>
<text x="451.13" y="52.05">+</text>
<text x="126.20" y="31.79">+</text>
<text x="87.29" y="59.60">*</text>
<text x="495.00" y="86.29">.</text>
<text x="197.95" y="396.28">.</text>
<text x="160.62" y="271.36">.</text>
<text x="290.97" y="10.31">+</text>
<text x="210.44" y="103.47">.</text>
<text x="110.33" y="172.48">.</text>
<text x="194.46" y="447.04">+</text>
<text x="91.10" y="267.61">.</text>
<text x="62.96" y="341.79">*</text>
<text x="22.18" y="223.88">+</text>
<text x="121.63" y="497.33">+</text>
<text x="239.55" y="140.04">.</text>
<text x="471.72" y="170.55">+</text>
<text x="475.49" y="263.94">+</text>
<text x="491.45" y="462.07">*</text>
<text x="266.98" y="187.28">.</text>
<text x="485.45" y="186.51">+</text>
<text x="140.22" y="472.24">.</text>
<text x="462.72" y="20.90">*</text>
<text x="325.61" y="23.39">+</text>
<text x="362.63" y="93.16">.</text>
<text x="18.98" y="426.86">+</text>
<text x="250.00" y="98.55">.</text>
<text x="366.01" y="262.63">*</text>
<text x="63.81" y="65.41">.</text>
<text x="312.22" y="135.56">.</text>
<text x="134.42" y="497.37">+</text>
<text x="196.10" y="192.97">*</text>
<text x="99.79" y="105.52">+</text>
<text x="446.69" y="231.23">+</text>
<text x="463.00" y="242.95">+</text>
<text x="404.76" y="451.44">.</text>
<text x="443.86" y="85.69">.</text>
<text x="310.90" y="436.79">+</text>
<text x="139.13" y="38.35">+</text>
<text x="93.63" y="379.61">.</text>
<text x="314.59" y="249.39">+</text>
<text x="179.04" y="281.88">+</text>
<text x="200.50" y="170.85">.</text>
<text x="358.80" y="115.33">.</text>
<text x="311.84" y="136.88">+</text>
<text x="41.79" y="489.84">.</text>
<text x="486.61" y="400.38">.</text>
<text x="392.17" y="150.42">.</text>
<text x="375.56" y="435.83">.</text>
<text x="439.01" y="455.94">.</text>
<text x="271.86" y="189.70">+</text>
<text x="401.08" y="7.56">.</text>
<text x="301.17" y="101.04">.</text>
<text x="86.55" y="486.54">.</text>
<text x="424.51" y="306.13">+</text>
<text x="138.62" y="190.16">.</text>
<text x="226.30" y="335.40">.</text>
<text x="159.68" y="370.92">+</text>
<text x="289.82" y="460.24">.</text>
<text x="152.12" y="210.37">+</text>
<text x="472.50" y="89.16">+</text>
<text x="427.17" y="457.30">+</text>
<text x="36.88" y="375.57">*</text>
<text x="231.95" y="456.37">*</text>
<text x="494.06" y="154.86">+</text>
<text x="498.08" y="128.25">.</text>
<text x="241.10" y="132.02">.</text>
<text x="210.86" y="470.11">.</text>
<text x="436.92" y="210.37">+</text>
<text x="76.44" y="318.97">+</text>
<text x="80.96" y="321.61">*</text>
<text x="210.39" y="34.73">*</text>
<text x="402.99" y="475.33">.</text>
<text x="86.96" y="238.50">+</text>
<text x="399.15" y="131.74">.</text>
<text x="174.06" y="140.12">.</text>
<text x="387.15" y="400.63">+</text>
<text x="197.40" y="436.78">.</text>
<text x="460.49" y="110.22">.</text>
<text x="354.71" y="268.57">+</text>
<text x="282.47" y="316.67">+</text>
<text x="415.75" y="1.77">+</text>
<text x="99.83" y="153.12">+</text>
<text x="242.91" y="264.49">+</text>
<text x="164.98" y="473.92">+</text>
<text x="481.41" y="470.86">+</text>
<text x="403.47" y="323.88">+</text>
<text x="32.13" y="485.45">*</text>
<text x="109.83" y="16.05">+</text>
<text x="276.48" y="209.91">+</text>
<text x="493.06" y="157.22">.</text>
<text x="50.87" y="57.48">.</text>
<text x="437.02" y="52.86">+</text>
<text x="309.34" y="349.08">+</text>
<text x="280.68" y="64.00">.</text>
<text x="313.30" y="422.78">*</text>
<text x="237.36" y="485.53">+</text>
<text x="434.52" y="274.52">+</text>
<text x="36.74" y="365.70">.</text>
<text x="25.15" y="478.03">.</text>
<text x="127.28" y="158.94">*</text>
<text x="371.97" y="280.31">+</text>
<text x="357.78" y="390.45">.</text>
<text x="238.43" y="411.34">.</text>
<text x="304.98" y="412.06">+</text>
<text x="302.14" y="257.54">.</text>
<text x="282.86" y="150.15">+</text>
<text x="218.79" y="93.12">+</text>
<text x="324.41" y="165.39">*</text>
<text x="440.39" y="162.74">*</text>
<text x="371.78" y="3.16">.</text>
<text x="456.04" y="458.70">+</text>
<text x="50.88" y="172.12">+</text>
<text x="328.00" y="474.77">+</text>
<text x="77.61" y="406.31">+</text>
<text x="116.47" y="386.98">.</text>
<text x="149.45" y="398.37">.</text>
<text x="146.75" y="306.18">+</text>
<text x="102.80" y="440.59">.</text>
<text x="200.67" y="405.14">+</text>
<text x="472.86" y="371.95">.</text>
<text x="71.19" y="455.32">+</text>
<text x="475.99" y="246.42">+</text>
<text x="52.41" y="349.45">.</text>
<text x="185.28" y="289.87">.</text>
<text x="257.44" y="164.81">.</text>
<text x="486.16" y="362.65">+</text>
<text x="473.26" y="365.76">.</text>
<text x="198.40" y="97.29">.</text>
<text x="78.95" y="13.44">+</text>
<text x="158.77" y="497.47">+</text>
<text x="202.54" y="193.18">.</text>
<text x="222.07" y="191.77">+</text>
<text x="496.28" y="0.24">.</text>
<text x="254.33" y="308.85">+</text>
<text x="72.24" y="28.72">+</text>
<text x="207.97" y="223.68">+</text>
<text x="4.91" y="133.78">+</text>
<text x="421.16" y="295.42">+</text>
<text x="446.62" y="435.23">.</text>
<text x="327.20" y="5.41">+</text>
<text x="495.43" y="16.06">.</text>
<text x="329.94" y="262.81">*</text>
<text x="151.82" y="442.11">.</text>
<text x="82.33" y="472.56">.</text>
<text x="258.16" y="325.41">*</text>
<text x="422.88" y="224.46">.</text>
<text x="370.80" y="293.51">*</text>
<text x="261.67" y="215.28">*</text>
<text x="64.91" y="433.87">.</text>
<text x="428.87" y="409.62">+</text>
<text x="267.37" y="447.67">.</text>
<text x="360.12" y="319.07">.</text>
<text x="426.25" y="120.10">+</text>
<text x="401.27" y="259.98">+</text>
<text x="121.50" y="258.52">+</text>
<text x="350.65" y="278.09">.</text>
<text x="492.75" y="81.47">.</text>
<text x="177.91" y="490.81">*</text>
<text x="272.51" y="183.22">.</text>
<text x="396.50" y="328.42">.</text>
<text x="99.82" y="211.34">+</text>
<text x="481.10" y="441.35">*</text>
<text x="290.71" y="281.93">*</text>
<text x="276.90" y="355.82">.</text>
<text x="39.50" y="183.98">.</text>
<text x="348.49" y="402.44">+</text>
<text x="268.67" y="445.78">.</text>
<text x="142.17" y="302.26">+</text>

</svg>