
<svg viewBox="0 0 500 500" xmlns="http://www.w.org/2000/svg" width="100%" height="100%" style="background-color: #0a0a14; font-family: 'Courier New', Courier, monospace;">
    <style>
        text { fill: #aaa; font-size: 10px; text-anchor: middle; dominant-baseline: middle; }
    </style>
    <text x="127.55" y="101.33">+</text>
<text x="318.95" y="282.99">*</text>
<text x="100.33" y="246.05">+</text>
<text x="176.41" y="251.34">.</text>
<text x="187.48" y="301.44">.</text>
<text x="339.15" y="365.25">*</text>
<text x="185.11" y="274.88">+</text>
<text x="161.01" y="191.32">.</text>
<text x="334.00" y="361.13">*</text>
<text x="453.85" y="139.06">*</text>
<text x="345.44" y="463.72">.</text>
<text x="15.41" y="374.75">.</text>
<text x="288.47" y="414.18">.</text>
<text x="312.00" y="494.07">.</text>
<text x="169.19" y="120.93">.</text>
<text x="317.11" y="91.57">+</text>
<text x="274.83" y="263.66">+</text>
<text x="335.78" y="282.49">+</text>
<text x="278.37" y="3.58">+</text>
<text x="201.99" y="404.30">+</text>
<text x="334.19" y="53.00">.</text>
<text x="494.06" y="239.90">.</text>
<text x="305.49" y="396.45">.</text>
<text x="130.15" y="479.98">+</text>
<text x="203.77" y="185.67">*</text>
<text x="178.60" y="88.32">.</text>
<text x="331.76" y="478.25">.</text>
<text x="165.86" y="122.82">.</text>
<text x="30.99" y="292.48">+</text>
<text x="300.11" y="80.34">.</text>
<text x="271.31" y="497.14">.</text>
<text x="433.94" y="450.76">+</text>
<text x="448.73" y="168.77">+</text>
<text x="294.13" y="126.58">*</text>
<text x="47.85" y="425.38">+</text>
<text x="106.57" y="341.32">*</text>
<text x="74.68" y="356.86">*</text>
<text x="128.61" y="169.38">+</text>
<text x="388.59" y="5.83">.</text>
<text x="490.06" y="364.63">*</text>
<text x="67.16" y="307.36">+</text>
<text x="264.38" y="102.22">.</text>
<text x="443.74" y="40.58">.</text>
<text x="198.70" y="362.74">+</text>
<text x="181.23" y="88.28">.</text>
<text x="443.06" y="155.71">.</text>
<text x="376.31" y="125.35">.</text>
<text x="36.12" y="157.96">*</text>
<text x="54.04" y="32.61">+</text>
<text x="387.21" y="43.18">.</text>
<text x="307.54" y="263.65">.</text>
<text x="468.36" y="317.50">+</text>
<text x="83.78" y="247.71">+</text>
<text x="5.88" y="230.35">.</text>
<text x="38.02" y="194.65">+</text>
<text x="102.62" y="132.73">*</text>
<text x="288.90" y="74.26">.</text>
<text x="277.32" y="208.53">.</text>
<text x="67.65" y="472.36">+</text>
<text x="100.48" y="69.71">.</text>
<text x="342.94" y="433.29">*</text>
<text x="293.13" y="441.18">+</text>
<text x="73.14" y="163.86">+</text>
<text x="442.97" y="72.84">*</text>
<text x="4.03" y="397.83">+</text>
<text x="165.27" y="101.71">+</text>
<text x="44.31" y="41.69">+</text>
<text x="88.50" y="122.11">.</text>
<text x="455.26" y="103.36">+</text>
<text x="415.25" y="146.04">+</text>
<text x="201.65" y="200.35">.</text>
<text x="360.51" y="299.77">+</text>
<text x="76.27" y="267.61">+</text>
<text x="109.67" y="24.08">*</text>
<text x="184.35" y="496.09">+</text>
<text x="456.84" y="50.87">.</text>
<text x="385.58" y="289.49">+</text>
<text x="476.74" y="124.28">.</text>
<text x="150.00" y="385.04">+</text>
<text x="40.55" y="416.10">+</text>
<text x="471.85" y="178.86">*</text>
<text x="446.69" y="244.29">.</text>
<text x="168.46" y="258.70">+</text>
<text x="315.33" y="471.29">+</text>
<text x="368.16" y="496.16">.</text>
<text x="9.53" y="271.74">.</text>
<text x="69.60" y="7.84">.</text>
<text x="115.53" y="33.51">.</text>
<text x="484.22" y="127.07">+</text>
<text x="458.90" y="396.55">+</text>
<text x="110.88" y="356.09">+</text>
<text x="441.61" y="232.04">+</text>
<text x="69.60" y="145.84">*</text>
<text x="117.93" y="321.97">.</text>
<text x="69.71" y="158.63">+</text>
<text x="38.05" y="154.24">.</text>
<text x="342.72" y="73.45">+</text>
<text x="260.11" y="316.43">*</text>
<text x="247.09" y="4.10">+</text>
<text x="98.22" y="30.81">+</text>
<text x="144.11" y="203.02">+</text>
<text x="332.49" y="292.66">.</text>
<text x="339.22" y="156.80">*</text>
<text x="66.84" y="445.41">.</text>
<text x="377.26" y="157.57">*</text>
<text x="82.77" y="357.02">.</text>
<text x="313.76" y="339.37">+</text>
<text x="52.68" y="88.86">*</text>
<text x="83.75" y="167.83">*</text>
<text x="262.71" y="19.24">+</text>
<text x="487.77" y="400.41">+</text>
<text x="347.68" y="78.44">.</text>
<text x="0.35" y="486.15">.</text>
<text x="460.25" y="29.49">+</text>
<text x="154.70" y="336.84">.</text>
<text x="300.29" y="385.01">*</text>
<text x="85.08" y="23.53">.</text>
<text x="148.84" y="17.13">+</text>
<text x="53.74" y="371.05">+</text>
<text x="226.21" y="202.97">+</text>
<text x="278.31" y="282.46">+</text>
<text x="21.40" y="488.31">+</text>
<text x="433.19" y="86.62">+</text>
<text x="281.67" y="159.60">.</text>
<text x="202.06" y="349.48">+</text>
<text x="184.76" y="112.58">+</text>
<text x="30.58" y="351.58">.</text>
<text x="386.81" y="53.46">.</text>
<text x="144.94" y="2.21">.</text>
<text x="186.74" y="130.77">.</text>
<text x="457.09" y="301.73">.</text>
<text x="67.89" y="257.44">+</text>
<text x="172.36" y="99.08">.</text>
<text x="371.12" y="359.61">+</text>
<text x="116.52" y="472.32">+</text>
<text x="242.27" y="262.36">+</text>
<text x="273.09" y="180.57">.</text>
<text x="215.40" y="498.10">.</text>
<text x="477.34" y="446.11">+</text>
<text x="301.25" y="5.26">+</text>
<text x="248.86" y="53.31">*</text>
<text x="319.55" y="96.87">+</text>
<text x="98.77" y="92.17">.</text>
<text x="93.40" y="366.84">+</text>
<text x="446.33" y="128.93">.</text>
<text x="451.34" y="380.46">.</text>
<text x="38.80" y="450.08">+</text>
<text x="323.94" y="307.00">.</text>
<text x="312.82" y="204.97">.</text>
<text x="205.94" y="217.75">+</text>
<text x="68.92" y="103.06">+</text>
<text x="233.93" y="119.67">+</text>
<text x="223.38" y="8.59">.</text>
<text x="212.32" y="105.89">.</text>
<text x="330.58" y="411.75">+</text>
<text x="410.55" y="195.50">*</text>
<text x="217.85" y="437.01">+</text>
<text x="210.75" y="149.44">+</text>
<text x="220.91" y="114.23">+</text>
<text x="361.33" y="445.97">.</text>
<text x="499.01" y="381.17">.</text>
<text x="348.34" y="470.81">.</text>
<text x="36.13" y="104.92">.</text>
<text x="167.24" y="328.77">+</text>
<text x="4.04" y="0.24">+</text>
<text x="45.36" y="260.90">+</text>
<text x="375.32" y="99.28">+</text>
<text x="385.40" y="162.16">.</text>
<text x="240.54" y="422.78">+</text>
<text x="305.08" y="379.99">.</text>
<text x="341.59" y="62.99">+</text>
<text x="410.99" y="441.54">.</text>
<text x="238.24" y="88.07">+</text>
<text x="119.05" y="81.45">+</text>
<text x="384.73" y="282.64">+</text>
<text x="8.59" y="154.75">.</text>
<text x="351.83" y="381.61">.</text>
<text x="80.21" y="417.24">.</text>
<text x="368.75" y="406.91">.</text>
<text x="282.55" y="151.30">.</text>
<text x="350.20" y="397.10">.</text>
<text x="442.69" y="403.36">.</text>
<text x="149.38" y="121.94">.</text>
<text x="99.17" y="161.41">.</text>
<text x="191.59" y="473.95">.</text>
<text x="61.91" y="387.37">+</text>
<text x="229.70" y="143.65">+</text>
<text x="458.01" y="91.57">*</text>
<text x="208.81" y="6.70">+</text>
<text x="99.69" y="250.14">+</text>
<text x="471.38" y="117.59">*</text>
<text x="481.96" y="95.08">+</text>
<text x="182.81" y="294.30">.</text>
<text x="432.61" y="37.78">.</text>
<text x="125.10" y="204.50">.</text>
<text x="20.73" y="45.07">.</text>
<text x="456.55" y="467.70">.</text>
<text x="290.01" y="439.06">+</text>
<text x="412.41" y="311.24">+</text>
<text x="445.55" y="312.81">.</text>
<text x="452.84" y="483.17">+</text>
<text x="242.72" y="219.72">+</text>
<text x="84.11" y="315.49">*</text>
<text x="191.98" y="349.34">.</text>
<text x="113.07" y="326.18">+</text>
<text x="108.10" y="416.92">.</text>
<text x="316.34" y="36.25">*</text>
<text x="392.88" y="487.97">*</text>
<text x="6.29" y="215.18">+</text>
<text x="27.30" y="278.64">.</text>
<text x="94.47" y="127.46">.</text>
<text x="125.52" y="438.45">+</text>
<text x="497.38" y="247.36">+</text>
<text x="210.21" y="483.37">+</text>
<text x="111.66" y="359.77">+</text>
<text x="309.59" y="211.67">+</text>
<text x="96.75" y="409.35">.</text>
<text x="80.21" y="103.17">+</text>
<text x="267.11" y="131.91">.</text>
<text x="292.45" y="9.42">.</text>
<text x="357.92" y="327.33">+</text>
<text x="168.53" y="432.14">+</text>
<text x="65.43" y="226.33">+</text>
<text x="187.61" y="428.23">.</text>
<text x="410.38" y="178.63">.</text>

</svg>