
<svg viewBox="0 0 500 500" xmlns="http://www.w.org/2000/svg" width="100%" height="100%" style="background-color: #0a0a14; font-family: 'Courier New', Courier, monospace;">
    <style>
        text { fill: #aaa; font-size: 10px; text-anchor: middle; dominant-baseline: middle; }
    </style>
    <text x="288.76" y="387.40">.</text>
<text x="89.06" y="5.29">+</text>
<text x="439.05" y="78.60">+</text>
<text x="201.36" y="233.87">*</text>
<text x="412.09" y="373.33">+</text>
<text x="383.00" y="21.33">.</text>
<text x="306.81" y="70.78">+</text>
<text x="53.14" y="358.74">.</text>
<text x="424.34" y="422.52">.</text>
<text x="25.70" y="38.79">.</text>
<text x="199.74" y="244.68">+</text>
<text x="461.06" y="282.67">+</text>
<text x="131.54" y="284.57">+</text>
<text x="89.41" y="440.48">.</text>
<text x="35.26" y="310.86">.</text>
<text x="83.20" y="305.82">.</text>
<text x="118.25" y="422.74">+</text>
<text x="81.08" y="442.58">+</text>
<text x="3.73" y="341.74">*</text>
<text x="392.48" y="480.10">.</text>
<text x="387.71" y="75.36">.</text>
<text x="90.79" y="487.85">*</text>
<text x="354.77" y="75.71">*</text>
<text x="451.95" y="151.70">+</text>
<text x="355.99" y="63.12">+</text>
<text x="95.31" y="109.62">.</text>
<text x="379.29" y="186.73">+</text>
<text x="355.00" y="169.15">.</text>
<text x="122.30" y="129.88">.</text>
<text x="477.34" y="91.48">.</text>
<text x="404.86" y="421.78">+</text>
<text x="321.78" y="226.60">*</text>
<text x="228.43" y="162.05">*</text>
<text x="419.52" y="174.79">*</text>
<text x="10.84" y="180.75">.</text>
<text x="132.10" y="400.19">*</text>
<text x="14.90" y="31.27">.</text>
<text x="31.21" y="99.77">+</text>
<text x="387.74" y="134.02">+</text>
<text x="418.00" y="294.42">+</text>
<text x="119.84" y="6.95">.</text>
<text x="399.43" y="340.13">+</text>
<text x="457.78" y="249.35">.</text>
<text x="101.05" y="100.91">.</text>
<text x="7.55" y="423.95">.</text>
<text x="196.64" y="3.29">*</text>
<text x="171.98" y="134.77">.</text>
<text x="250.69" y="119.48">.</text>
<text x="334.51" y="77.00">.</text>
<text x="215.12" y="121.39">.</text>
<text x="307.23" y="330.35">+</text>
<text x="48.19" y="15.76">+</text>
<text x="315.13" y="172.07">+</text>
<text x="258.73" y="97.57">.</text>
<text x="422.92" y="220.91">+</text>
<text x="406.54" y="323.07">+</text>
<text x="323.74" y="46.07">.</text>
<text x="458.67" y="111.67">+</text>
<text x="424.10" y="325.66">*</text>
<text x="14.54" y="486.52">*</text>
<text x="50.00" y="195.72">+</text>
<text x="76.05" y="34.36">.</text>
<text x="354.46" y="369.54">.</text>
<text x="166.68" y="374.66">*</text>
<text x="52.19" y="288.34">+</text>
<text x="205.05" y="83.07">.</text>
<text x="29.85" y="139.95">*</text>
<text x="433.51" y="359.25">.</text>
<text x="21.79" y="147.01">+</text>
<text x="345.65" y="403.11">+</text>
<text x="4.69" y="89.64">*</text>
<text x="452.28" y="445.83">.</text>
<text x="329.80" y="403.95">.</text>
<text x="462.65" y="223.46">.</text>
<text x="64.97" y="35.15">+</text>
<text x="453.17" y="38.93">*</text>
<text x="85.74" y="171.09">.</text>
<text x="128.52" y="279.82">.</text>
<text x="431.43" y="0.30">+</text>
<text x="158.55" y="249.38">+</text>
<text x="60.35" y="222.94">+</text>
<text x="499.03" y="484.86">+</text>
<text x="353.54" y="288.09">*</text>
<text x="494.34" y="394.68">*</text>
<text x="389.24" y="134.89">+</text>
<text x="221.50" y="282.18">.</text>
<text x="467.73" y="441.22">+</text>
<text x="430.26" y="146.57">.</text>
<text x="366.66" y="298.10">+</text>
<text x="422.51" y="202.34">+</text>
<text x="238.16" y="262.82">.</text>
<text x="239.95" y="264.42">.</text>
<text x="449.53" y="233.62">.</text>
<text x="197.02" y="265.87">.</text>
<text x="77.96" y="300.90">+</text>
<text x="316.91" y="299.22">+</text>
<text x="416.78" y="37.29">.</text>
<text x="118.64" y="120.93">+</text>
<text x="324.49" y="2.15">.</text>
<text x="14.12" y="105.63">*</text>
<text x="45.79" y="122.68">+</text>
<text x="361.53" y="87.79">.</text>
<text x="252.44" y="353.37">+</text>
<text x="275.56" y="184.09">.</text>
<text x="475.88" y="265.00">+</text>
<text x="11.24" y="223.65">.</text>
<text x="131.58" y="480.40">+</text>
<text x="343.09" y="36.61">.</text>
<text x="411.62" y="313.68">*</text>
<text x="486.57" y="323.26">+</text>
<text x="411.36" y="131.65">+</text>
<text x="339.13" y="107.59">+</text>
<text x="166.82" y="224.32">+</text>
<text x="442.67" y="172.33">.</text>
<text x="379.93" y="150.69">.</text>
<text x="187.70" y="315.18">+</text>
<text x="446.28" y="42.66">.</text>
<text x="86.57" y="159.55">+</text>
<text x="67.08" y="136.47">.</text>
<text x="274.33" y="373.61">.</text>
<text x="456.87" y="129.48">+</text>
<text x="268.53" y="178.47">.</text>
<text x="59.09" y="28.93">.</text>
<text x="84.21" y="171.15">.</text>
<text x="461.98" y="84.96">+</text>
<text x="135.73" y="168.09">*</text>
<text x="306.41" y="318.38">+</text>
<text x="168.86" y="348.94">+</text>
<text x="406.83" y="70.26">+</text>
<text x="11.37" y="425.59">+</text>
<text x="381.02" y="49.80">+</text>
<text x="376.09" y="297.50">*</text>
<text x="346.29" y="307.06">+</text>
<text x="467.42" y="368.98">.</text>
<text x="50.45" y="247.04">+</text>
<text x="269.70" y="318.60">+</text>
<text x="136.99" y="455.94">+</text>
<text x="223.39" y="164.44">.</text>
<text x="146.16" y="341.14">.</text>
<text x="123.10" y="101.03">*</text>
<text x="81.09" y="99.36">.</text>
<text x="346.70" y="164.64">.</text>
<text x="49.18" y="236.49">+</text>
<text x="250.22" y="314.22">.</text>
<text x="413.35" y="43.05">*</text>
<text x="372.82" y="379.36">+</text>
<text x="310.40" y="476.86">.</text>
<text x="160.22" y="407.44">*</text>
<text x="361.53" y="106.35">*</text>
<text x="325.24" y="171.02">+</text>
<text x="307.53" y="459.87">+</text>
<text x="427.54" y="212.02">+</text>
<text x="26.99" y="157.29">+</text>
<text x="100.36" y="194.94">+</text>
<text x="453.86" y="132.24">.</text>
<text x="115.93" y="143.77">.</text>
<text x="193.21" y="312.76">.</text>
<text x="56.89" y="351.51">+</text>
<text x="459.79" y="474.82">+</text>
<text x="457.84" y="45.20">.</text>
<text x="335.07" y="287.08">.</text>
<text x="58.06" y="354.43">*</text>
<text x="7.50" y="323.50">.</text>
<text x="293.49" y="494.03">+</text>
<text x="224.32" y="169.91">+</text>
<text x="32.91" y="167.83">+</text>
<text x="115.59" y="8.85">+</text>
<text x="33.68" y="411.40">+</text>
<text x="264.81" y="371.68">+</text>
<text x="332.99" y="22.02">+</text>
<text x="305.53" y="96.74">.</text>
<text x="141.49" y="370.13">+</text>
<text x="186.35" y="498.91">.</text>
<text x="286.64" y="157.44">.</text>
<text x="213.15" y="435.88">.</text>
<text x="365.28" y="336.31">*</text>
<text x="359.49" y="465.59">+</text>
<text x="65.89" y="416.34">.</text>
<text x="214.98" y="55.94">+</text>
<text x="238.34" y="449.67">.</text>
<text x="7.20" y="108.02">.</text>
<text x="279.46" y="129.11">+</text>
<text x="262.04" y="393.49">+</text>
<text x="438.30" y="378.06">.</text>
<text x="290.92" y="498.43">.</text>
<text x="494.82" y="37.63">.</text>
<text x="81.79" y="198.49">*</text>
<text x="295.91" y="52.14">.</text>
<text x="4.61" y="418.74">*</text>
<text x="132.79" y="118.23">+</text>
<text x="173.17" y="291.07">.</text>
<text x="390.29" y="61.13">.</text>
<text x="209.26" y="477.89">+</text>
<text x="132.47" y="187.44">*</text>
<text x="280.10" y="41.98">+</text>
<text x="193.95" y="199.79">+</text>
<text x="491.35" y="242.69">*</text>
<text x="219.31" y="103.18">+</text>
<text x="129.10" y="303.92">.</text>
<text x="62.00" y="303.43">.</text>
<text x="435.72" y="451.58">+</text>
<text x="104.56" y="160.28">.</text>
<text x="384.44" y="31.91">.</text>
<text x="43.10" y="27.44">*</text>
<text x="332.76" y="14.38">+</text>
<text x="455.98" y="284.16">*</text>
<text x="494.01" y="433.92">.</text>
<text x="245.71" y="324.35">+</text>
<text x="229.84" y="451.24">+</text>
<text x="237.57" y="160.73">+</text>
<text x="262.40" y="186.77">+</text>
<text x="159.48" y="130.29">+</text>
<text x="275.38" y="223.54">.</text>
<text x="152.49" y="457.83">*</text>
<text x="150.96" y="232.94">.</text>
<text x="413.93" y="22.99">.</text>
<text x="243.14" y="427.64">+</text>
<text x="43.12" y="34.95">+</text>
<text x="197.65" y="319.11">.</text>

</svg>