
<svg viewBox="0 0 500 500" xmlns="http://www.w.org/2000/svg" width="100%" height="100%" style="background-color: #0a0a14; font-family: 'Courier New', Courier, monospace;">
    <style>
        text { fill: #aaa; font-size: 10px; text-anchor: middle; dominant-baseline: middle; }
    </style>
    <text x="447.53" y="431.57">.</text>
<text x="377.05" y="118.86">.</text>
<text x="326.40" y="70.60">+</text>
<text x="479.56" y="352.10">*</text>
<text x="406.95" y="52.39">.</text>
<text x="238.64" y="220.28">+</text>
<text x="323.28" y="207.79">+</text>
<text x="434.06" y="333.48">.</text>
<text x="405.19" y="201.76">.</text>
<text x="56.45" y="111.96">+</text>
<text x="243.77" y="60.05">+</text>
<text x="304.01" y="83.88">.</text>
<text x="112.33" y="163.12">+</text>
<text x="428.52" y="363.92">+</text>
<text x="261.62" y="370.34">.</text>
<text x="49.38" y="362.04">+</text>
<text x="265.97" y="152.34">.</text>
<text x="280.76" y="236.04">.</text>
<text x="350.37" y="405.40">+</text>
<text x="130.37" y="246.01">.</text>
<text x="317.52" y="374.61">+</text>
<text x="219.80" y="352.24">*</text>
<text x="200.19" y="190.31">+</text>
<text x="1.15" y="265.09">.</text>
<text x="139.24" y="44.62">.</text>
<text x="116.48" y="319.34">+</text>
<text x="153.25" y="491.27">+</text>
<text x="70.61" y="284.72">.</text>
<text x="111.14" y="211.16">+</text>
<text x="423.56" y="3.74">+</text>
<text x="147.28" y="185.12">.</text>
<text x="275.66" y="485.71">*</text>
<text x="439.78" y="250.31">.</text>
<text x="213.42" y="56.39">.</text>
<text x="287.12" y="197.98">+</text>
<text x="241.90" y="381.10">.</text>
<text x="102.26" y="221.60">.</text>
<text x="140.85" y="42.14">+</text>
<text x="478.84" y="322.66">.</text>
<text x="305.11" y="228.78">+</text>
<text x="237.90" y="220.60">*</text>
<text x="489.56" y="385.21">.</text>
<text x="66.70" y="163.62">.</text>
<text x="6.67" y="451.86">.</text>
<text x="469.83" y="106.03">+</text>
<text x="355.83" y="237.95">+</text>
<text x="277.45" y="394.34">.</text>
<text x="205.31" y="186.23">.</text>
<text x="206.97" y="461.79">+</text>
<text x="362.34" y="241.31">.</text>
<text x="311.54" y="475.04">.</text>
<text x="217.02" y="128.60">.</text>
<text x="47.02" y="366.16">.</text>
<text x="391.36" y="266.89">+</text>
<text x="216.20" y="73.28">.</text>
<text x="55.15" y="128.01">.</text>
<text x="320.81" y="251.01">+</text>
<text x="467.58" y="105.79">+</text>
<text x="427.59" y="304.70">.</text>
<text x="390.01" y="12.40">.</text>
<text x="383.85" y="267.62">.</text>
<text x="415.59" y="139.61">*</text>
<text x="330.74" y="452.16">*</text>
<text x="333.08" y="462.05">.</text>
<text x="193.98" y="280.81">+</text>
<text x="62.55" y="58.76">.</text>
<text x="499.78" y="266.64">+</text>
<text x="159.03" y="295.82">.</text>
<text x="62.51" y="11.92">*</text>
<text x="321.37" y="10.16">+</text>
<text x="275.04" y="128.00">.</text>
<text x="285.11" y="118.79">+</text>
<text x="330.01" y="103.97">+</text>
<text x="121.85" y="474.00">+</text>
<text x="36.86" y="341.61">.</text>
<text x="336.14" y="248.21">*</text>
<text x="257.82" y="306.84">.</text>
<text x="266.95" y="320.74">.</text>
<text x="185.84" y="23.08">+</text>
<text x="342.80" y="165.48">.</text>
<text x="407.33" y="338.23">+</text>
<text x="499.58" y="285.87">.</text>
<text x="366.71" y="365.14">*</text>
<text x="105.58" y="373.76">+</text>
<text x="221.21" y="115.04">+</text>
<text x="157.61" y="120.15">.</text>
<text x="286.15" y="358.02">+</text>
<text x="301.81" y="253.68">+</text>
<text x="359.41" y="148.87">+</text>
<text x="112.18" y="363.81">.</text>
<text x="278.64" y="349.37">.</text>
<text x="475.66" y="415.20">.</text>
<text x="38.97" y="378.62">.</text>
<text x="225.48" y="409.77">.</text>
<text x="468.21" y="65.62">+</text>
<text x="455.01" y="411.00">+</text>
<text x="345.29" y="330.43">*</text>
<text x="438.42" y="118.83">.</text>
<text x="308.55" y="211.00">.</text>
<text x="244.87" y="291.15">+</text>
<text x="432.65" y="312.88">*</text>
<text x="267.73" y="376.74">+</text>
<text x="420.03" y="373.79">*</text>
<text x="375.79" y="140.20">.</text>
<text x="276.40" y="270.53">+</text>
<text x="231.67" y="94.45">*</text>
<text x="172.45" y="105.10">+</text>
<text x="204.24" y="257.38">.</text>
<text x="401.50" y="320.67">.</text>
<text x="196.32" y="472.04">+</text>
<text x="14.20" y="169.44">.</text>
<text x="194.94" y="26.45">.</text>
<text x="195.58" y="206.08">.</text>
<text x="375.76" y="27.37">.</text>
<text x="130.79" y="434.82">+</text>
<text x="427.72" y="165.23">*</text>
<text x="354.39" y="297.97">+</text>
<text x="292.98" y="260.77">.</text>
<text x="265.42" y="496.97">*</text>
<text x="497.17" y="172.21">.</text>
<text x="326.75" y="300.24">.</text>
<text x="363.92" y="485.62">+</text>
<text x="499.17" y="356.04">+</text>
<text x="186.91" y="128.27">.</text>
<text x="293.24" y="60.17">.</text>
<text x="140.66" y="380.15">+</text>
<text x="444.89" y="230.51">+</text>
<text x="270.32" y="397.43">+</text>
<text x="492.22" y="98.62">+</text>
<text x="438.23" y="307.21">.</text>
<text x="491.33" y="302.58">+</text>
<text x="339.51" y="337.32">.</text>
<text x="31.65" y="302.87">.</text>
<text x="492.54" y="94.64">+</text>
<text x="31.54" y="472.01">+</text>
<text x="282.80" y="193.29">+</text>
<text x="161.39" y="416.12">.</text>
<text x="270.71" y="287.50">+</text>
<text x="206.10" y="294.90">+</text>
<text x="211.26" y="285.50">+</text>
<text x="42.32" y="217.21">.</text>
<text x="246.29" y="206.74">.</text>
<text x="15.69" y="494.04">+</text>
<text x="26.78" y="399.61">.</text>
<text x="65.41" y="163.65">+</text>
<text x="76.77" y="172.95">+</text>
<text x="364.88" y="438.21">*</text>
<text x="442.17" y="173.75">+</text>
<text x="237.55" y="342.87">+</text>
<text x="493.27" y="33.27">+</text>
<text x="477.31" y="258.59">.</text>
<text x="414.86" y="56.98">.</text>
<text x="347.94" y="311.57">+</text>
<text x="218.53" y="357.80">.</text>
<text x="107.75" y="256.75">+</text>
<text x="372.77" y="37.79">.</text>
<text x="129.46" y="245.38">+</text>
<text x="426.47" y="167.12">.</text>
<text x="210.00" y="409.14">+</text>
<text x="401.75" y="171.11">.</text>
<text x="367.27" y="18.63">.</text>
<text x="286.78" y="252.30">+</text>
<text x="57.43" y="184.17">+</text>
<text x="209.48" y="103.78">.</text>
<text x="190.71" y="259.07">.</text>
<text x="326.65" y="421.41">.</text>
<text x="340.75" y="203.85">+</text>
<text x="3.87" y="354.51">.</text>
<text x="326.44" y="222.89">+</text>
<text x="389.44" y="308.80">+</text>
<text x="290.42" y="127.30">+</text>
<text x="1.45" y="154.43">+</text>
<text x="55.74" y="421.93">.</text>
<text x="347.30" y="136.09">+</text>
<text x="57.81" y="129.62">*</text>
<text x="368.41" y="340.01">+</text>
<text x="81.31" y="250.46">.</text>
<text x="363.15" y="373.99">.</text>
<text x="27.91" y="288.50">+</text>
<text x="81.17" y="214.43">.</text>
<text x="249.94" y="173.44">.</text>
<text x="301.00" y="491.48">*</text>
<text x="371.19" y="82.21">.</text>
<text x="239.25" y="52.93">.</text>
<text x="284.24" y="280.91">+</text>
<text x="239.21" y="288.09">.</text>
<text x="240.19" y="178.19">.</text>
<text x="100.96" y="132.94">+</text>
<text x="112.02" y="99.32">.</text>
<text x="397.83" y="393.68">+</text>
<text x="65.68" y="388.01">+</text>
<text x="24.85" y="377.35">.</text>
<text x="210.01" y="218.19">+</text>
<text x="103.46" y="467.20">+</text>
<text x="165.59" y="464.60">.</text>
<text x="129.31" y="216.24">*</text>
<text x="283.20" y="0.82">.</text>
<text x="382.82" y="180.88">*</text>
<text x="485.93" y="281.17">.</text>
<text x="435.36" y="188.84">+</text>
<text x="398.17" y="390.15">+</text>
<text x="204.48" y="143.14">+</text>
<text x="268.35" y="37.98">.</text>
<text x="337.59" y="467.19">+</text>
<text x="333.57" y="33.30">*</text>

</svg>