
<svg viewBox="0 0 500 500" xmlns="http://www.w.org/2000/svg" width="100%" height="100%" style="background-color: #0a0a14; font-family: 'Courier New', Courier, monospace;">
    <style>
        text { fill: #aaa; font-size: 10px; text-anchor: middle; dominant-baseline: middle; }
    </style>
    <text x="400.43" y="69.24">.</text>
<text x="422.39" y="364.19">.</text>
<text x="322.48" y="492.13">+</text>
<text x="216.88" y="154.82">+</text>
<text x="238.50" y="137.51">+</text>
<text x="155.39" y="38.93">.</text>
<text x="191.75" y="423.96">.</text>
<text x="143.36" y="40.11">.</text>
<text x="50.22" y="53.48">*</text>
<text x="242.67" y="173.88">.</text>
<text x="360.91" y="70.46">.</text>
<text x="80.20" y="165.19">.</text>
<text x="126.86" y="193.95">+</text>
<text x="475.87" y="465.30">+</text>
<text x="38.79" y="144.69">+</text>
<text x="247.54" y="370.24">+</text>
<text x="426.98" y="498.60">*</text>
<text x="19.75" y="51.12">+</text>
<text x="231.19" y="221.42">.</text>
<text x="47.91" y="315.57">.</text>
<text x="423.64" y="180.98">*</text>
<text x="95.26" y="77.42">+</text>
<text x="157.40" y="324.60">*</text>
<text x="22.43" y="174.34">+</text>
<text x="313.49" y="165.46">+</text>
<text x="36.22" y="188.69">.</text>
<text x="335.67" y="128.88">.</text>
<text x="364.86" y="139.86">.</text>
<text x="264.51" y="487.33">.</text>
<text x="395.81" y="498.11">+</text>
<text x="180.11" y="352.24">+</text>
<text x="118.36" y="304.80">+</text>
<text x="268.74" y="14.15">+</text>
<text x="450.01" y="206.99">.</text>
<text x="436.19" y="286.06">.</text>
<text x="171.50" y="401.80">+</text>
<text x="90.13" y="327.63">*</text>
<text x="213.08" y="174.27">+</text>
<text x="394.10" y="6.43">.</text>
<text x="234.86" y="64.37">.</text>
<text x="131.48" y="206.93">+</text>
<text x="441.16" y="440.48">+</text>
<text x="10.68" y="221.27">.</text>
<text x="404.47" y="149.84">.</text>
<text x="349.57" y="16.45">+</text>
<text x="339.41" y="430.50">+</text>
<text x="339.72" y="8.84">+</text>
<text x="365.05" y="185.68">.</text>
<text x="294.21" y="80.72">*</text>
<text x="381.39" y="9.95">+</text>
<text x="277.82" y="463.95">+</text>
<text x="274.74" y="366.48">.</text>
<text x="223.47" y="372.40">.</text>
<text x="378.89" y="498.29">*</text>
<text x="49.31" y="28.77">.</text>
<text x="256.54" y="204.79">.</text>
<text x="221.39" y="271.18">*</text>
<text x="191.36" y="153.27">+</text>
<text x="416.13" y="201.80">+</text>
<text x="136.99" y="66.17">+</text>
<text x="47.56" y="14.54">+</text>
<text x="385.45" y="326.80">.</text>
<text x="1.05" y="147.03">.</text>
<text x="360.91" y="476.36">.</text>
<text x="475.29" y="74.81">*</text>
<text x="478.60" y="439.59">*</text>
<text x="321.45" y="259.50">.</text>
<text x="117.75" y="471.24">.</text>
<text x="124.31" y="435.79">.</text>
<text x="471.40" y="330.40">.</text>
<text x="114.03" y="130.41">+</text>
<text x="196.44" y="483.05">+</text>
<text x="194.41" y="16.26">.</text>
<text x="441.42" y="333.85">.</text>
<text x="136.92" y="22.08">+</text>
<text x="283.42" y="90.41">*</text>
<text x="418.04" y="430.25">+</text>
<text x="445.85" y="405.98">.</text>
<text x="48.77" y="313.30">.</text>
<text x="457.94" y="80.85">.</text>
<text x="445.77" y="108.41">.</text>
<text x="480.69" y="426.97">+</text>
<text x="195.32" y="447.60">+</text>
<text x="388.95" y="263.32">.</text>
<text x="310.23" y="155.98">*</text>
<text x="392.82" y="451.85">.</text>
<text x="482.02" y="90.51">+</text>
<text x="138.04" y="449.93">+</text>
<text x="264.58" y="398.09">*</text>
<text x="0.05" y="359.44">.</text>
<text x="363.48" y="383.61">.</text>
<text x="96.20" y="270.11">.</text>
<text x="326.67" y="370.46">.</text>
<text x="274.30" y="394.37">.</text>
<text x="383.87" y="133.92">*</text>
<text x="472.19" y="345.05">+</text>
<text x="145.12" y="273.00">.</text>
<text x="479.07" y="448.80">+</text>
<text x="323.28" y="474.25">.</text>
<text x="237.09" y="194.44">.</text>
<text x="136.78" y="442.11">+</text>
<text x="171.42" y="458.50">*</text>
<text x="226.62" y="243.39">.</text>
<text x="52.76" y="38.60">+</text>
<text x="223.48" y="221.75">.</text>
<text x="315.89" y="289.43">*</text>
<text x="157.17" y="132.53">+</text>
<text x="478.21" y="412.46">*</text>
<text x="142.81" y="415.10">+</text>
<text x="336.46" y="240.15">.</text>
<text x="151.57" y="194.95">.</text>
<text x="20.37" y="471.32">.</text>
<text x="447.40" y="453.56">.</text>
<text x="159.24" y="380.76">.</text>
<text x="179.79" y="498.82">.</text>
<text x="442.56" y="324.60">+</text>
<text x="23.53" y="71.72">.</text>
<text x="475.12" y="159.62">*</text>
<text x="313.51" y="32.70">+</text>
<text x="64.71" y="340.69">+</text>
<text x="239.23" y="398.44">+</text>
<text x="158.81" y="356.03">.</text>
<text x="156.71" y="209.83">*</text>
<text x="312.10" y="291.16">+</text>
<text x="338.69" y="167.29">.</text>
<text x="463.99" y="63.59">+</text>
<text x="39.69" y="240.58">.</text>
<text x="107.65" y="11.16">+</text>
<text x="296.61" y="266.60">.</text>
<text x="117.23" y="447.62">.</text>
<text x="499.37" y="41.87">+</text>
<text x="78.60" y="473.71">.</text>
<text x="490.68" y="302.26">*</text>
<text x="304.97" y="474.52">.</text>
<text x="351.69" y="434.14">.</text>
<text x="195.58" y="258.70">.</text>
<text x="75.93" y="439.42">*</text>
<text x="237.97" y="470.53">+</text>
<text x="326.29" y="427.66">+</text>
<text x="482.56" y="346.57">.</text>
<text x="14.65" y="123.18">.</text>
<text x="414.82" y="421.10">+</text>
<text x="296.91" y="415.69">.</text>
<text x="331.42" y="366.50">.</text>
<text x="373.56" y="24.00">+</text>
<text x="274.04" y="250.54">+</text>
<text x="113.05" y="365.80">+</text>
<text x="110.24" y="138.91">.</text>
<text x="204.08" y="459.19">.</text>
<text x="401.13" y="142.99">+</text>
<text x="180.71" y="311.79">+</text>
<text x="352.76" y="94.82">.</text>
<text x="461.30" y="70.60">.</text>
<text x="256.77" y="475.36">.</text>
<text x="276.18" y="106.52">.</text>
<text x="21.84" y="429.48">.</text>
<text x="327.07" y="157.24">*</text>
<text x="324.43" y="206.70">+</text>
<text x="39.09" y="438.90">+</text>
<text x="77.36" y="218.60">+</text>
<text x="412.90" y="204.52">+</text>
<text x="136.78" y="428.50">+</text>
<text x="365.48" y="95.88">.</text>
<text x="145.32" y="233.08">.</text>
<text x="292.17" y="106.10">+</text>
<text x="174.14" y="72.17">*</text>
<text x="360.44" y="275.03">+</text>
<text x="273.74" y="231.90">.</text>
<text x="150.28" y="83.55">.</text>
<text x="491.64" y="499.77">+</text>
<text x="29.29" y="120.83">.</text>
<text x="295.90" y="173.84">+</text>
<text x="232.69" y="237.70">+</text>
<text x="491.84" y="306.64">+</text>
<text x="147.93" y="480.05">.</text>
<text x="354.25" y="57.78">+</text>
<text x="239.75" y="418.09">*</text>
<text x="256.40" y="138.14">.</text>
<text x="343.76" y="292.82">.</text>
<text x="467.91" y="90.82">.</text>
<text x="43.54" y="387.15">+</text>
<text x="164.35" y="224.11">.</text>
<text x="460.40" y="307.02">+</text>
<text x="0.60" y="179.31">+</text>
<text x="425.23" y="382.20">+</text>
<text x="276.30" y="341.03">+</text>
<text x="189.52" y="361.19">.</text>
<text x="481.52" y="446.08">+</text>
<text x="42.61" y="430.30">*</text>
<text x="435.24" y="217.41">*</text>
<text x="357.09" y="499.03">*</text>
<text x="486.00" y="218.25">.</text>
<text x="321.15" y="138.36">.</text>
<text x="428.46" y="171.17">*</text>
<text x="28.50" y="380.10">.</text>
<text x="187.29" y="165.91">+</text>
<text x="168.41" y="14.82">.</text>
<text x="347.10" y="265.21">*</text>
<text x="398.86" y="282.91">*</text>
<text x="25.83" y="447.95">.</text>
<text x="227.64" y="205.07">+</text>
<text x="19.74" y="352.12">+</text>
<text x="471.64" y="225.96">*</text>
<text x="369.08" y="445.67">*</text>
<text x="235.59" y="237.74">+</text>
<text x="48.57" y="267.65">+</text>
<text x="301.27" y="28.60">+</text>
<text x="367.55" y="13.39">+</text>
<text x="299.78" y="425.86">*</text>
<text x="284.81" y="420.08">.</text>
<text x="270.26" y="491.04">.</text>

</svg>