
<svg viewBox="0 0 500 500" xmlns="http://www.w.org/2000/svg" width="100%" height="100%" style="background-color: #0a0a14; font-family: 'Courier New', Courier, monospace;">
    <style>
        text { fill: #aaa; font-size: 10px; text-anchor: middle; dominant-baseline: middle; }
    </style>
    <text x="142.71" y="249.55">+</text>
<text x="36.41" y="482.24">+</text>
<text x="104.76" y="378.62">.</text>
<text x="474.41" y="491.65">.</text>
<text x="356.42" y="288.16">.</text>
<text x="420.85" y="311.37">+</text>
<text x="229.78" y="418.53">.</text>
<text x="86.42" y="487.95">+</text>
<text x="456.74" y="190.25">.</text>
<text x="363.02" y="346.54">+</text>
<text x="443.45" y="93.60">+</text>
<text x="3.25" y="344.57">.</text>
<text x="150.52" y="367.92">.</text>
<text x="280.30" y="11.26">+</text>
<text x="275.68" y="488.12">.</text>
<text x="12.27" y="251.88">+</text>
<text x="489.67" y="468.57">*</text>
<text x="212.64" y="312.47">+</text>
<text x="480.27" y="427.31">.</text>
<text x="212.61" y="294.43">.</text>
<text x="398.66" y="150.21">+</text>
<text x="334.64" y="470.59">*</text>
<text x="234.39" y="482.72">.</text>
<text x="288.49" y="39.04">+</text>
<text x="120.61" y="122.43">.</text>
<text x="379.86" y="325.63">.</text>
<text x="330.66" y="368.70">.</text>
<text x="138.99" y="266.31">*</text>
<text x="53.54" y="153.67">+</text>
<text x="119.09" y="351.00">.</text>
<text x="75.58" y="461.04">+</text>
<text x="61.73" y="142.38">+</text>
<text x="476.99" y="192.75">+</text>
<text x="301.68" y="36.16">.</text>
<text x="399.14" y="0.27">+</text>
<text x="15.71" y="202.21">.</text>
<text x="230.69" y="251.95">.</text>
<text x="45.38" y="278.19">.</text>
<text x="259.94" y="368.74">+</text>
<text x="472.48" y="31.42">+</text>
<text x="276.44" y="109.97">*</text>
<text x="434.76" y="193.43">.</text>
<text x="22.41" y="407.99">.</text>
<text x="267.01" y="52.61">.</text>
<text x="129.72" y="474.06">.</text>
<text x="29.46" y="32.74">+</text>
<text x="93.88" y="414.22">.</text>
<text x="2.05" y="439.17">+</text>
<text x="332.27" y="386.23">+</text>
<text x="277.66" y="390.07">.</text>
<text x="99.16" y="153.79">+</text>
<text x="34.65" y="242.68">*</text>
<text x="279.81" y="261.73">*</text>
<text x="228.14" y="207.20">.</text>
<text x="131.76" y="203.68">+</text>
<text x="244.23" y="75.95">.</text>
<text x="134.31" y="404.69">+</text>
<text x="362.61" y="364.18">+</text>
<text x="67.58" y="230.00">+</text>
<text x="327.55" y="16.83">+</text>
<text x="194.18" y="440.76">+</text>
<text x="187.02" y="233.19">.</text>
<text x="483.19" y="339.40">.</text>
<text x="423.65" y="5.98">.</text>
<text x="494.94" y="90.19">+</text>
<text x="369.95" y="334.29">+</text>
<text x="432.51" y="86.02">*</text>
<text x="172.45" y="349.80">+</text>
<text x="188.44" y="91.32">+</text>
<text x="2.39" y="98.42">.</text>
<text x="251.47" y="54.49">+</text>
<text x="218.35" y="417.22">+</text>
<text x="146.93" y="246.79">+</text>
<text x="446.57" y="119.73">+</text>
<text x="406.04" y="127.93">+</text>
<text x="330.10" y="67.39">.</text>
<text x="75.77" y="428.63">.</text>
<text x="319.78" y="267.39">*</text>
<text x="271.92" y="220.59">+</text>
<text x="367.96" y="148.41">.</text>
<text x="350.49" y="228.91">.</text>
<text x="365.23" y="180.85">+</text>
<text x="499.46" y="115.49">+</text>
<text x="68.29" y="274.41">.</text>
<text x="76.97" y="262.55">+</text>
<text x="395.35" y="272.17">+</text>
<text x="68.66" y="283.72">+</text>
<text x="173.18" y="335.49">*</text>
<text x="53.36" y="85.48">+</text>
<text x="129.66" y="127.43">.</text>
<text x="256.44" y="32.94">+</text>
<text x="347.84" y="54.93">+</text>
<text x="446.60" y="74.10">.</text>
<text x="397.02" y="384.61">.</text>
<text x="60.72" y="480.90">+</text>
<text x="219.57" y="148.20">+</text>
<text x="139.22" y="385.66">+</text>
<text x="460.83" y="348.22">.</text>
<text x="403.70" y="242.59">.</text>
<text x="490.51" y="0.91">+</text>
<text x="338.34" y="357.68">.</text>
<text x="81.24" y="470.50">.</text>
<text x="167.06" y="420.79">+</text>
<text x="343.10" y="25.05">.</text>
<text x="306.31" y="404.73">+</text>
<text x="307.80" y="436.09">*</text>
<text x="441.94" y="295.04">+</text>
<text x="296.59" y="267.98">+</text>
<text x="199.54" y="241.19">+</text>
<text x="98.67" y="112.59">+</text>
<text x="264.55" y="379.49">*</text>
<text x="329.11" y="391.78">+</text>
<text x="8.20" y="36.72">*</text>
<text x="38.46" y="120.15">+</text>
<text x="369.83" y="113.08">*</text>
<text x="126.11" y="15.74">.</text>
<text x="493.49" y="400.15">+</text>
<text x="358.38" y="214.66">.</text>
<text x="444.82" y="153.42">*</text>
<text x="487.10" y="475.32">.</text>
<text x="426.12" y="363.59">+</text>
<text x="468.96" y="413.26">*</text>
<text x="330.68" y="190.22">.</text>
<text x="6.66" y="237.85">.</text>
<text x="85.38" y="284.42">+</text>
<text x="410.11" y="166.59">.</text>
<text x="233.67" y="7.76">.</text>
<text x="301.42" y="370.95">+</text>
<text x="397.22" y="101.58">+</text>
<text x="353.42" y="347.42">.</text>
<text x="76.54" y="453.84">.</text>
<text x="248.50" y="343.84">+</text>
<text x="428.05" y="492.37">.</text>
<text x="16.40" y="245.12">+</text>
<text x="443.03" y="354.85">.</text>
<text x="478.02" y="451.82">*</text>
<text x="225.09" y="27.60">.</text>
<text x="305.26" y="201.45">*</text>
<text x="461.71" y="399.36">.</text>
<text x="463.99" y="77.50">.</text>
<text x="428.57" y="13.43">+</text>
<text x="135.28" y="312.87">*</text>
<text x="252.60" y="141.52">+</text>
<text x="35.26" y="359.81">*</text>
<text x="271.49" y="367.54">.</text>
<text x="387.55" y="62.81">.</text>
<text x="93.51" y="113.80">+</text>
<text x="114.35" y="24.25">+</text>
<text x="498.74" y="285.03">.</text>
<text x="9.55" y="319.26">.</text>
<text x="25.18" y="203.14">+</text>
<text x="210.84" y="46.92">.</text>
<text x="442.71" y="372.32">.</text>
<text x="84.68" y="59.98">+</text>
<text x="308.18" y="176.58">.</text>
<text x="256.59" y="9.93">*</text>
<text x="374.18" y="81.28">*</text>
<text x="258.10" y="11.02">+</text>
<text x="490.97" y="328.09">.</text>
<text x="409.19" y="333.19">+</text>
<text x="253.77" y="113.71">+</text>
<text x="122.29" y="463.19">.</text>
<text x="298.97" y="113.38">+</text>
<text x="222.08" y="166.74">.</text>
<text x="487.84" y="5.67">.</text>
<text x="407.13" y="294.57">*</text>
<text x="471.54" y="347.40">+</text>
<text x="195.56" y="496.78">+</text>
<text x="102.40" y="256.60">.</text>
<text x="132.13" y="426.00">+</text>
<text x="120.85" y="309.15">.</text>
<text x="170.22" y="352.45">.</text>
<text x="386.97" y="63.49">+</text>
<text x="397.48" y="343.15">+</text>
<text x="132.11" y="330.48">*</text>
<text x="254.94" y="185.28">.</text>
<text x="10.03" y="216.79">*</text>
<text x="241.84" y="149.82">.</text>
<text x="241.46" y="204.47">.</text>
<text x="255.55" y="491.44">*</text>
<text x="282.26" y="290.97">.</text>
<text x="300.87" y="490.32">.</text>
<text x="258.75" y="410.58">+</text>
<text x="221.90" y="251.42">.</text>
<text x="324.14" y="146.49">.</text>
<text x="340.42" y="446.52">*</text>
<text x="34.78" y="473.48">.</text>
<text x="180.95" y="198.83">.</text>
<text x="426.24" y="69.07">+</text>
<text x="75.98" y="107.72">+</text>
<text x="153.14" y="148.27">+</text>
<text x="179.56" y="391.55">.</text>
<text x="50.54" y="57.97">+</text>
<text x="30.58" y="230.09">+</text>
<text x="390.28" y="203.51">+</text>
<text x="99.88" y="291.72">*</text>
<text x="99.60" y="129.96">.</text>
<text x="176.30" y="434.99">.</text>
<text x="222.78" y="265.83">*</text>
<text x="12.47" y="211.26">.</text>
<text x="36.45" y="229.82">.</text>
<text x="252.40" y="443.83">.</text>
<text x="454.96" y="303.43">.</text>
<text x="412.33" y="35.33">+</text>
<text x="343.73" y="136.11">+</text>
<text x="134.90" y="8.26">+</text>
<text x="351.90" y="208.00">*</text>
<text x="83.81" y="106.13">.</text>
<text x="164.76" y="316.72">+</text>
<text x="270.88" y="294.90">.</text>
<text x="31.73" y="477.87">+</text>
<text x="423.21" y="372.44">+</text>
<text x="341.20" y="166.20">.</text>
<text x="243.06" y="427.02">.</text>
<text x="1.49" y="67.40">.</text>
<text x="384.62" y="35.10">+</text>
<text x="427.69" y="308.80">+</text>
<text x="92.34" y="100.04">.</text>
<text x="426.91" y="85.57">+</text>

</svg>