
<svg viewBox="0 0 500 500" xmlns="http://www.w.org/2000/svg" width="100%" height="100%" style="background-color: #0a0a14; font-family: 'Courier New', Courier, monospace;">
    <style>
        text { fill: #aaa; font-size: 10px; text-anchor: middle; dominant-baseline: middle; }
    </style>
    <text x="483.54" y="199.99">*</text>
<text x="429.37" y="149.37">*</text>
<text x="213.89" y="279.28">.</text>
<text x="359.84" y="239.91">.</text>
<text x="89.88" y="260.96">.</text>
<text x="430.04" y="107.81">*</text>
<text x="85.33" y="322.84">+</text>
<text x="323.30" y="277.19">*</text>
<text x="488.84" y="224.71">+</text>
<text x="142.97" y="88.63">.</text>
<text x="249.30" y="196.24">.</text>
<text x="329.04" y="343.10">.</text>
<text x="221.20" y="178.20">.</text>
<text x="397.40" y="104.56">+</text>
<text x="113.02" y="85.71">.</text>
<text x="72.29" y="366.35">*</text>
<text x="487.57" y="256.10">.</text>
<text x="86.38" y="53.43">+</text>
<text x="191.08" y="456.49">+</text>
<text x="264.30" y="216.52">.</text>
<text x="63.61" y="254.90">.</text>
<text x="211.78" y="17.57">.</text>
<text x="172.78" y="494.49">.</text>
<text x="18.55" y="168.54">+</text>
<text x="388.67" y="335.16">.</text>
<text x="45.72" y="212.34">.</text>
<text x="363.95" y="448.97">*</text>
<text x="39.81" y="301.04">+</text>
<text x="498.58" y="202.10">.</text>
<text x="340.45" y="332.98">.</text>
<text x="392.45" y="205.17">+</text>
<text x="331.62" y="131.83">.</text>
<text x="415.71" y="39.01">.</text>
<text x="138.29" y="18.91">+</text>
<text x="432.84" y="30.48">+</text>
<text x="474.88" y="194.70">.</text>
<text x="488.97" y="496.50">*</text>
<text x="133.55" y="420.77">+</text>
<text x="326.91" y="481.01">+</text>
<text x="247.65" y="367.70">.</text>
<text x="174.80" y="324.50">+</text>
<text x="181.04" y="291.25">.</text>
<text x="452.01" y="323.76">.</text>
<text x="110.55" y="8.41">.</text>
<text x="285.77" y="12.17">.</text>
<text x="222.29" y="199.99">.</text>
<text x="272.91" y="373.95">*</text>
<text x="192.63" y="494.70">*</text>
<text x="262.20" y="93.05">+</text>
<text x="47.26" y="277.15">*</text>
<text x="291.81" y="44.51">+</text>
<text x="182.67" y="74.97">+</text>
<text x="89.28" y="119.66">.</text>
<text x="442.59" y="0.97">+</text>
<text x="464.42" y="153.20">*</text>
<text x="478.36" y="95.42">.</text>
<text x="115.11" y="61.34">+</text>
<text x="331.98" y="262.77">.</text>
<text x="411.76" y="197.30">.</text>
<text x="301.20" y="167.71">*</text>
<text x="282.29" y="450.39">+</text>
<text x="118.89" y="354.60">*</text>
<text x="374.95" y="386.51">+</text>
<text x="116.28" y="345.02">+</text>
<text x="236.54" y="403.21">+</text>
<text x="382.64" y="499.99">.</text>
<text x="222.88" y="114.00">.</text>
<text x="313.08" y="405.68">+</text>
<text x="73.45" y="175.60">.</text>
<text x="485.54" y="44.18">.</text>
<text x="325.75" y="22.46">.</text>
<text x="12.68" y="70.99">.</text>
<text x="70.11" y="329.57">.</text>
<text x="154.56" y="182.91">.</text>
<text x="397.63" y="154.03">.</text>
<text x="174.05" y="71.84">+</text>
<text x="361.69" y="336.20">+</text>
<text x="186.70" y="45.71">*</text>
<text x="270.05" y="173.92">+</text>
<text x="192.42" y="153.46">+</text>
<text x="356.32" y="330.14">+</text>
<text x="302.16" y="197.32">+</text>
<text x="257.51" y="2.77">*</text>
<text x="385.56" y="150.04">+</text>
<text x="460.89" y="381.70">+</text>
<text x="163.67" y="477.85">.</text>
<text x="159.68" y="10.02">.</text>
<text x="193.26" y="420.79">.</text>
<text x="101.60" y="298.44">.</text>
<text x="98.34" y="15.25">*</text>
<text x="170.74" y="64.11">*</text>
<text x="368.87" y="298.47">+</text>
<text x="115.82" y="229.20">+</text>
<text x="233.07" y="62.37">.</text>
<text x="327.96" y="43.63">*</text>
<text x="354.88" y="207.19">.</text>
<text x="427.52" y="448.75">*</text>
<text x="238.91" y="479.48">+</text>
<text x="347.71" y="162.08">+</text>
<text x="16.38" y="167.21">+</text>
<text x="344.73" y="268.68">+</text>
<text x="404.01" y="450.89">*</text>
<text x="249.88" y="310.72">.</text>
<text x="33.35" y="382.76">.</text>
<text x="446.75" y="218.76">.</text>
<text x="281.72" y="326.09">+</text>
<text x="295.09" y="440.39">+</text>
<text x="163.21" y="444.07">+</text>
<text x="483.21" y="421.17">.</text>
<text x="51.57" y="452.16">+</text>
<text x="158.60" y="281.42">.</text>
<text x="448.21" y="366.17">+</text>
<text x="243.86" y="98.57">+</text>
<text x="236.84" y="411.43">+</text>
<text x="130.93" y="208.63">+</text>
<text x="497.89" y="438.28">+</text>
<text x="160.43" y="1.48">*</text>
<text x="85.65" y="495.46">.</text>
<text x="359.08" y="6.16">.</text>
<text x="86.19" y="358.77">+</text>
<text x="149.38" y="317.65">+</text>
<text x="495.52" y="384.60">.</text>
<text x="10.32" y="87.23">.</text>
<text x="392.23" y="334.98">+</text>
<text x="446.72" y="4.65">+</text>
<text x="43.33" y="445.14">*</text>
<text x="61.47" y="49.06">.</text>
<text x="197.99" y="448.95">+</text>
<text x="146.05" y="407.90">+</text>
<text x="75.14" y="24.47">.</text>
<text x="334.42" y="66.56">.</text>
<text x="286.14" y="46.63">.</text>
<text x="438.71" y="84.32">+</text>
<text x="62.44" y="79.00">.</text>
<text x="227.58" y="95.88">.</text>
<text x="499.99" y="355.34">+</text>
<text x="123.39" y="231.51">+</text>
<text x="47.00" y="31.73">+</text>
<text x="12.45" y="380.86">.</text>
<text x="378.67" y="97.91">.</text>
<text x="344.80" y="105.89">+</text>
<text x="363.75" y="305.44">+</text>
<text x="150.75" y="21.93">.</text>
<text x="101.34" y="157.10">+</text>
<text x="296.98" y="261.79">+</text>
<text x="56.54" y="277.21">+</text>
<text x="321.23" y="219.77">+</text>
<text x="259.49" y="220.69">+</text>
<text x="24.42" y="234.68">.</text>
<text x="151.18" y="267.74">+</text>
<text x="247.27" y="285.21">.</text>
<text x="444.05" y="237.07">.</text>
<text x="412.02" y="219.11">+</text>
<text x="128.29" y="476.50">.</text>
<text x="319.94" y="40.71">+</text>
<text x="373.60" y="458.18">*</text>
<text x="368.28" y="482.83">*</text>
<text x="458.27" y="465.99">+</text>
<text x="9.75" y="33.72">+</text>
<text x="240.10" y="400.99">+</text>
<text x="24.11" y="286.01">.</text>
<text x="252.30" y="92.30">.</text>
<text x="497.17" y="136.55">.</text>
<text x="32.72" y="124.96">*</text>
<text x="280.54" y="27.75">+</text>
<text x="318.54" y="497.99">+</text>
<text x="318.44" y="143.39">*</text>
<text x="462.32" y="65.70">+</text>
<text x="356.70" y="122.54">+</text>
<text x="359.21" y="116.95">+</text>
<text x="462.15" y="442.28">.</text>
<text x="327.27" y="25.02">+</text>
<text x="389.90" y="233.60">+</text>
<text x="322.36" y="449.84">.</text>
<text x="327.45" y="44.95">+</text>
<text x="357.75" y="433.43">.</text>
<text x="386.85" y="173.52">.</text>
<text x="194.12" y="494.53">+</text>
<text x="345.20" y="261.09">*</text>
<text x="0.24" y="191.56">.</text>
<text x="236.02" y="465.96">.</text>
<text x="117.72" y="402.65">+</text>
<text x="127.49" y="57.20">.</text>
<text x="65.33" y="53.94">+</text>
<text x="307.26" y="22.30">+</text>
<text x="374.78" y="460.04">+</text>
<text x="38.94" y="257.21">.</text>
<text x="40.03" y="391.95">+</text>
<text x="130.17" y="172.76">*</text>
<text x="408.16" y="381.99">+</text>
<text x="450.36" y="468.23">*</text>
<text x="468.88" y="201.38">.</text>
<text x="55.54" y="441.05">.</text>
<text x="374.56" y="392.07">+</text>
<text x="354.51" y="480.70">+</text>
<text x="58.08" y="172.98">.</text>
<text x="170.91" y="241.05">+</text>
<text x="381.08" y="344.55">+</text>
<text x="417.99" y="16.05">+</text>
<text x="71.25" y="14.17">+</text>
<text x="178.61" y="236.30">+</text>
<text x="253.66" y="14.61">+</text>
<text x="353.06" y="2.28">+</text>
<text x="333.40" y="333.01">+</text>

</svg>