
<svg viewBox="0 0 500 500" xmlns="http://www.w.org/2000/svg" width="100%" height="100%" style="background-color: #0a0a14; font-family: 'Courier New', Courier, monospace;">
    <style>
        text { fill: #aaa; font-size: 10px; text-anchor: middle; dominant-baseline: middle; }
    </style>
    <text x="144.81" y="369.78">*</text>
<text x="34.65" y="470.65">+</text>
<text x="377.76" y="386.00">+</text>
<text x="458.30" y="487.52">.</text>
<text x="308.95" y="487.34">+</text>
<text x="281.66" y="190.00">.</text>
<text x="222.93" y="487.62">.</text>
<text x="397.23" y="398.43">.</text>
<text x="85.70" y="68.59">.</text>
<text x="453.14" y="220.52">+</text>
<text x="124.87" y="214.35">*</text>
<text x="181.10" y="18.73">.</text>
<text x="17.36" y="211.88">.</text>
<text x="410.56" y="283.42">+</text>
<text x="337.22" y="308.95">.</text>
<text x="489.66" y="217.95">+</text>
<text x="87.71" y="283.09">.</text>
<text x="4.33" y="115.92">*</text>
<text x="105.24" y="2.99">+</text>
<text x="2.56" y="462.51">+</text>
<text x="229.02" y="50.68">.</text>
<text x="88.13" y="53.49">.</text>
<text x="455.19" y="20.27">.</text>
<text x="441.86" y="362.05">+</text>
<text x="219.60" y="67.05">*</text>
<text x="286.54" y="224.87">+</text>
<text x="463.66" y="138.82">+</text>
<text x="324.72" y="392.86">+</text>
<text x="363.55" y="394.51">*</text>
<text x="413.76" y="117.42">.</text>
<text x="308.11" y="92.13">+</text>
<text x="389.00" y="127.13">+</text>
<text x="124.85" y="349.83">+</text>
<text x="423.08" y="128.69">*</text>
<text x="82.85" y="69.97">*</text>
<text x="279.60" y="265.11">*</text>
<text x="246.45" y="2.02">+</text>
<text x="237.73" y="488.05">*</text>
<text x="335.35" y="116.48">*</text>
<text x="173.96" y="456.56">*</text>
<text x="463.73" y="278.62">.</text>
<text x="107.83" y="478.70">.</text>
<text x="191.48" y="127.40">.</text>
<text x="219.41" y="97.89">.</text>
<text x="149.35" y="219.88">.</text>
<text x="492.10" y="469.57">+</text>
<text x="135.38" y="350.92">+</text>
<text x="201.32" y="254.92">.</text>
<text x="482.82" y="38.78">.</text>
<text x="441.54" y="120.54">.</text>
<text x="140.94" y="394.75">.</text>
<text x="391.83" y="161.66">.</text>
<text x="154.61" y="448.88">+</text>
<text x="389.13" y="241.81">+</text>
<text x="94.35" y="283.48">.</text>
<text x="406.84" y="1.64">+</text>
<text x="442.09" y="118.81">.</text>
<text x="139.97" y="300.82">.</text>
<text x="72.13" y="297.39">.</text>
<text x="224.16" y="456.33">.</text>
<text x="493.44" y="81.83">.</text>
<text x="153.06" y="424.12">.</text>
<text x="239.35" y="373.22">*</text>
<text x="448.24" y="303.15">*</text>
<text x="38.38" y="285.13">*</text>
<text x="84.43" y="408.85">+</text>
<text x="285.38" y="413.55">.</text>
<text x="208.57" y="416.93">+</text>
<text x="421.05" y="193.65">.</text>
<text x="158.22" y="250.99">+</text>
<text x="38.67" y="499.00">+</text>
<text x="472.16" y="163.01">.</text>
<text x="487.47" y="55.74">+</text>
<text x="171.36" y="124.79">+</text>
<text x="364.37" y="22.63">+</text>
<text x="363.20" y="78.99">+</text>
<text x="451.47" y="72.14">*</text>
<text x="430.67" y="411.41">.</text>
<text x="10.93" y="58.98">+</text>
<text x="369.75" y="121.19">.</text>
<text x="427.66" y="261.13">.</text>
<text x="70.80" y="127.33">+</text>
<text x="210.88" y="178.50">+</text>
<text x="399.24" y="390.96">+</text>
<text x="331.67" y="294.16">+</text>
<text x="196.63" y="251.45">*</text>
<text x="471.59" y="113.45">+</text>
<text x="390.08" y="452.89">+</text>
<text x="260.72" y="197.80">*</text>
<text x="475.51" y="275.49">+</text>
<text x="363.37" y="293.33">.</text>
<text x="176.03" y="389.06">+</text>
<text x="294.86" y="258.40">+</text>
<text x="324.50" y="345.45">+</text>
<text x="451.22" y="351.01">+</text>
<text x="282.34" y="251.38">.</text>
<text x="239.47" y="12.56">.</text>
<text x="376.38" y="298.73">.</text>
<text x="238.31" y="238.48">+</text>
<text x="28.21" y="3.80">+</text>
<text x="254.57" y="194.44">.</text>
<text x="443.15" y="43.88">+</text>
<text x="342.87" y="404.69">*</text>
<text x="60.62" y="201.12">+</text>
<text x="310.00" y="301.54">+</text>
<text x="373.53" y="358.13">+</text>
<text x="379.11" y="42.41">.</text>
<text x="297.56" y="495.04">+</text>
<text x="73.75" y="288.97">+</text>
<text x="198.41" y="261.39">+</text>
<text x="323.95" y="64.95">+</text>
<text x="268.07" y="104.85">.</text>
<text x="199.09" y="435.80">+</text>
<text x="159.43" y="18.96">+</text>
<text x="206.07" y="426.49">+</text>
<text x="8.32" y="494.83">+</text>
<text x="205.47" y="300.34">+</text>
<text x="369.00" y="120.58">.</text>
<text x="447.35" y="348.33">+</text>
<text x="40.34" y="357.10">.</text>
<text x="458.04" y="328.23">.</text>
<text x="47.83" y="366.38">+</text>
<text x="472.23" y="377.53">+</text>
<text x="255.69" y="460.51">*</text>
<text x="74.30" y="479.83">.</text>
<text x="408.07" y="278.12">+</text>
<text x="150.48" y="307.57">+</text>
<text x="68.47" y="202.06">.</text>
<text x="123.78" y="34.37">.</text>
<text x="387.74" y="461.10">.</text>
<text x="372.83" y="74.77">+</text>
<text x="407.59" y="65.08">+</text>
<text x="281.54" y="119.21">.</text>
<text x="200.77" y="205.02">+</text>
<text x="422.16" y="46.30">+</text>
<text x="343.49" y="436.51">.</text>
<text x="104.53" y="417.40">.</text>
<text x="475.90" y="422.04">*</text>
<text x="382.82" y="214.45">+</text>
<text x="77.58" y="402.05">+</text>
<text x="395.06" y="174.98">+</text>
<text x="366.02" y="407.60">+</text>
<text x="238.78" y="442.78">*</text>
<text x="214.86" y="31.62">.</text>
<text x="217.49" y="31.35">+</text>
<text x="188.97" y="450.61">+</text>
<text x="47.37" y="185.99">+</text>
<text x="166.42" y="198.44">+</text>
<text x="32.98" y="181.39">.</text>
<text x="415.19" y="367.92">.</text>
<text x="242.57" y="55.37">.</text>
<text x="231.78" y="84.92">.</text>
<text x="199.86" y="20.95">.</text>
<text x="474.35" y="80.62">+</text>
<text x="386.47" y="407.51">+</text>
<text x="62.52" y="337.95">.</text>
<text x="207.06" y="239.08">+</text>
<text x="427.71" y="374.30">.</text>
<text x="133.06" y="188.10">*</text>
<text x="496.01" y="31.58">.</text>
<text x="300.93" y="410.62">.</text>
<text x="188.77" y="160.92">+</text>
<text x="326.94" y="69.70">.</text>
<text x="234.26" y="499.82">+</text>
<text x="41.11" y="434.75">.</text>
<text x="76.67" y="488.43">*</text>
<text x="367.93" y="338.34">.</text>
<text x="344.08" y="211.74">+</text>
<text x="185.87" y="58.89">.</text>
<text x="389.22" y="169.64">+</text>
<text x="139.42" y="89.81">+</text>
<text x="241.98" y="11.09">*</text>
<text x="421.51" y="403.85">+</text>
<text x="236.90" y="242.75">.</text>
<text x="194.61" y="69.79">.</text>
<text x="142.48" y="494.95">.</text>
<text x="278.99" y="366.19">*</text>
<text x="319.35" y="497.08">.</text>
<text x="166.76" y="265.98">+</text>
<text x="285.97" y="281.77">+</text>
<text x="2.65" y="409.83">+</text>
<text x="473.47" y="385.62">+</text>
<text x="152.66" y="412.35">+</text>
<text x="491.25" y="5.03">+</text>
<text x="57.09" y="242.90">+</text>
<text x="184.29" y="21.15">*</text>
<text x="112.64" y="215.19">+</text>
<text x="169.87" y="344.74">.</text>
<text x="478.16" y="177.77">+</text>
<text x="390.69" y="464.11">+</text>
<text x="442.42" y="414.81">*</text>
<text x="308.10" y="249.59">.</text>
<text x="336.94" y="68.93">.</text>
<text x="478.38" y="277.87">.</text>
<text x="230.22" y="333.63">+</text>
<text x="410.03" y="215.68">+</text>
<text x="178.20" y="6.80">+</text>
<text x="456.81" y="273.71">*</text>
<text x="279.70" y="305.94">+</text>
<text x="36.83" y="473.07">+</text>
<text x="311.50" y="221.17">*</text>
<text x="12.38" y="266.86">.</text>
<text x="93.42" y="453.89">.</text>
<text x="159.78" y="351.91">+</text>
<text x="321.59" y="451.28">+</text>
<text x="113.10" y="128.55">+</text>

</svg>