
<svg viewBox="0 0 500 500" xmlns="http://www.w.org/2000/svg" width="100%" height="100%" style="background-color: #0a0a14; font-family: 'Courier New', Courier, monospace;">
    <style>
        text { fill: #aaa; font-size: 10px; text-anchor: middle; dominant-baseline: middle; }
    </style>
    <text x="416.04" y="340.95">+</text>
<text x="402.80" y="285.77">.</text>
<text x="475.96" y="354.50">+</text>
<text x="220.05" y="318.29">+</text>
<text x="369.88" y="208.05">.</text>
<text x="149.35" y="372.83">.</text>
<text x="355.33" y="371.52">+</text>
<text x="440.79" y="435.23">*</text>
<text x="297.48" y="208.29">.</text>
<text x="108.66" y="360.22">.</text>
<text x="457.32" y="388.11">*</text>
<text x="318.77" y="206.07">.</text>
<text x="135.90" y="235.20">+</text>
<text x="377.72" y="82.84">+</text>
<text x="66.20" y="351.38">.</text>
<text x="296.62" y="13.40">+</text>
<text x="263.47" y="384.74">.</text>
<text x="56.58" y="205.55">.</text>
<text x="488.41" y="498.69">.</text>
<text x="29.79" y="54.15">.</text>
<text x="425.95" y="485.07">.</text>
<text x="421.33" y="213.59">+</text>
<text x="481.81" y="275.19">.</text>
<text x="487.21" y="345.11">.</text>
<text x="464.98" y="327.89">.</text>
<text x="50.96" y="176.14">+</text>
<text x="131.44" y="456.78">.</text>
<text x="348.79" y="445.79">+</text>
<text x="447.26" y="10.05">+</text>
<text x="469.30" y="456.26">.</text>
<text x="91.06" y="40.57">.</text>
<text x="433.63" y="241.98">+</text>
<text x="171.13" y="104.94">.</text>
<text x="167.87" y="258.06">.</text>
<text x="89.19" y="375.96">*</text>
<text x="417.02" y="223.19">+</text>
<text x="248.63" y="288.29">.</text>
<text x="173.67" y="421.04">+</text>
<text x="222.18" y="231.02">+</text>
<text x="272.52" y="383.24">+</text>
<text x="192.54" y="467.75">+</text>
<text x="45.36" y="417.89">.</text>
<text x="68.73" y="79.85">.</text>
<text x="317.58" y="350.70">+</text>
<text x="31.18" y="423.31">+</text>
<text x="364.51" y="250.59">+</text>
<text x="154.42" y="291.97">+</text>
<text x="92.80" y="322.53">*</text>
<text x="236.50" y="358.96">*</text>
<text x="374.62" y="332.28">*</text>
<text x="453.77" y="254.11">+</text>
<text x="43.93" y="170.00">.</text>
<text x="481.77" y="219.73">+</text>
<text x="55.95" y="168.40">+</text>
<text x="89.89" y="101.27">.</text>
<text x="417.10" y="76.11">.</text>
<text x="247.61" y="30.79">.</text>
<text x="347.47" y="482.96">*</text>
<text x="51.54" y="356.86">+</text>
<text x="440.64" y="487.64">.</text>
<text x="337.96" y="75.10">+</text>
<text x="439.25" y="364.93">.</text>
<text x="7.60" y="302.25">.</text>
<text x="15.49" y="183.32">*</text>
<text x="348.57" y="228.96">*</text>
<text x="393.47" y="349.03">*</text>
<text x="381.34" y="331.81">+</text>
<text x="357.30" y="279.96">.</text>
<text x="283.43" y="1.87">+</text>
<text x="434.76" y="38.20">.</text>
<text x="452.17" y="265.40">.</text>
<text x="399.32" y="481.49">.</text>
<text x="44.83" y="86.97">*</text>
<text x="329.47" y="400.98">*</text>
<text x="327.42" y="279.98">+</text>
<text x="77.85" y="261.39">.</text>
<text x="191.45" y="142.10">+</text>
<text x="402.43" y="482.32">+</text>
<text x="419.54" y="202.19">.</text>
<text x="135.86" y="306.81">+</text>
<text x="212.47" y="119.96">.</text>
<text x="114.70" y="394.17">.</text>
<text x="436.05" y="192.48">+</text>
<text x="0.44" y="82.05">.</text>
<text x="409.86" y="145.05">+</text>
<text x="145.02" y="140.52">+</text>
<text x="359.48" y="315.63">.</text>
<text x="383.31" y="58.23">.</text>
<text x="273.06" y="173.71">+</text>
<text x="268.14" y="78.06">.</text>
<text x="418.87" y="164.59">+</text>
<text x="31.37" y="150.43">*</text>
<text x="282.08" y="282.03">+</text>
<text x="459.06" y="22.58">*</text>
<text x="248.92" y="304.33">*</text>
<text x="318.05" y="68.68">+</text>
<text x="447.29" y="144.19">.</text>
<text x="250.86" y="273.73">*</text>
<text x="203.02" y="76.28">+</text>
<text x="202.97" y="378.37">.</text>
<text x="68.97" y="166.73">.</text>
<text x="187.91" y="417.57">+</text>
<text x="131.39" y="88.58">+</text>
<text x="101.10" y="395.22">+</text>
<text x="173.52" y="271.37">.</text>
<text x="191.44" y="176.96">+</text>
<text x="74.44" y="340.20">.</text>
<text x="344.51" y="429.90">*</text>
<text x="365.95" y="183.32">+</text>
<text x="251.07" y="134.24">+</text>
<text x="251.99" y="478.19">.</text>
<text x="471.00" y="273.26">+</text>
<text x="122.25" y="454.94">.</text>
<text x="109.76" y="256.42">+</text>
<text x="334.95" y="207.97">.</text>
<text x="293.26" y="186.48">.</text>
<text x="472.84" y="352.31">.</text>
<text x="250.75" y="186.44">+</text>
<text x="273.04" y="442.09">+</text>
<text x="493.84" y="234.37">.</text>
<text x="154.78" y="180.13">.</text>
<text x="138.38" y="92.62">.</text>
<text x="186.64" y="491.68">+</text>
<text x="143.56" y="42.45">.</text>
<text x="108.61" y="234.08">*</text>
<text x="21.59" y="16.58">+</text>
<text x="447.15" y="380.61">.</text>
<text x="463.66" y="300.32">+</text>
<text x="420.02" y="294.74">+</text>
<text x="168.45" y="264.80">+</text>
<text x="150.23" y="474.88">+</text>
<text x="396.81" y="324.83">+</text>
<text x="454.83" y="276.83">+</text>
<text x="369.52" y="442.47">*</text>
<text x="203.83" y="380.27">+</text>
<text x="112.75" y="270.84">.</text>
<text x="118.48" y="423.49">*</text>
<text x="271.77" y="169.82">+</text>
<text x="65.49" y="139.70">+</text>
<text x="174.69" y="222.77">.</text>
<text x="147.97" y="195.83">.</text>
<text x="397.81" y="461.13">.</text>
<text x="489.11" y="346.27">+</text>
<text x="272.66" y="140.98">.</text>
<text x="327.15" y="98.13">.</text>
<text x="361.15" y="63.23">+</text>
<text x="318.24" y="134.26">+</text>
<text x="486.55" y="143.82">+</text>
<text x="94.18" y="219.51">+</text>
<text x="84.32" y="177.08">+</text>
<text x="127.75" y="454.96">.</text>
<text x="418.27" y="272.69">+</text>
<text x="191.58" y="230.41">+</text>
<text x="133.41" y="341.25">.</text>
<text x="277.86" y="269.86">.</text>
<text x="92.83" y="272.82">+</text>
<text x="456.95" y="329.65">.</text>
<text x="227.73" y="237.55">+</text>
<text x="141.00" y="256.34">+</text>
<text x="156.74" y="287.19">.</text>
<text x="111.57" y="329.62">+</text>
<text x="293.51" y="280.11">+</text>
<text x="339.72" y="20.80">+</text>
<text x="310.25" y="180.85">+</text>
<text x="8.35" y="106.82">.</text>
<text x="266.15" y="444.71">.</text>
<text x="318.38" y="415.45">.</text>
<text x="425.45" y="473.03">.</text>
<text x="79.01" y="89.93">*</text>
<text x="200.51" y="368.01">*</text>
<text x="415.51" y="300.83">*</text>
<text x="431.70" y="147.78">*</text>
<text x="447.28" y="375.53">+</text>
<text x="100.95" y="331.89">.</text>
<text x="447.29" y="288.51">+</text>
<text x="291.92" y="85.44">.</text>
<text x="204.43" y="314.28">+</text>
<text x="455.82" y="88.69">.</text>
<text x="234.19" y="66.44">.</text>
<text x="200.50" y="337.41">+</text>
<text x="241.32" y="419.38">.</text>
<text x="101.01" y="83.70">.</text>
<text x="63.40" y="446.68">+</text>
<text x="11.95" y="396.17">*</text>
<text x="13.93" y="350.38">+</text>
<text x="51.20" y="428.85">+</text>
<text x="329.79" y="466.23">*</text>
<text x="291.42" y="278.96">+</text>
<text x="417.45" y="447.13">*</text>
<text x="224.73" y="451.05">.</text>
<text x="381.00" y="466.72">*</text>
<text x="414.61" y="395.77">.</text>
<text x="87.17" y="449.18">+</text>
<text x="365.66" y="489.14">*</text>
<text x="487.88" y="156.26">+</text>
<text x="372.07" y="51.64">+</text>
<text x="231.89" y="393.85">+</text>
<text x="338.95" y="30.20">+</text>
<text x="171.44" y="431.51">.</text>
<text x="374.59" y="256.61">.</text>
<text x="398.43" y="162.53">.</text>
<text x="208.54" y="395.09">+</text>
<text x="236.60" y="18.25">+</text>
<text x="414.86" y="405.71">.</text>
<text x="54.50" y="356.63">.</text>
<text x="132.89" y="158.03">+</text>
<text x="446.25" y="390.66">*</text>
<text x="93.65" y="402.54">+</text>
<text x="178.08" y="451.75">+</text>
<text x="331.99" y="460.25">+</text>
<text x="182.70" y="117.11">+</text>
<text x="431.08" y="453.74">.</text>
<text x="409.99" y="127.04">+</text>

</svg>