
<svg viewBox="0 0 500 500" xmlns="http://www.w.org/2000/svg" width="100%" height="100%" style="background-color: #0a0a14; font-family: 'Courier New', Courier, monospace;">
    <style>
        text { fill: #aaa; font-size: 10px; text-anchor: middle; dominant-baseline: middle; }
    </style>
    <text x="50.30" y="323.15">+</text>
<text x="172.34" y="439.88">.</text>
<text x="393.69" y="18.28">.</text>
<text x="347.32" y="265.30">.</text>
<text x="242.98" y="8.15">+</text>
<text x="47.01" y="423.22">+</text>
<text x="248.30" y="304.22">+</text>
<text x="138.42" y="115.13">+</text>
<text x="288.80" y="87.16">.</text>
<text x="244.05" y="463.60">*</text>
<text x="218.27" y="65.00">.</text>
<text x="444.33" y="272.14">.</text>
<text x="57.49" y="160.00">.</text>
<text x="293.84" y="179.54">.</text>
<text x="185.14" y="420.97">.</text>
<text x="467.27" y="245.20">*</text>
<text x="411.10" y="125.10">+</text>
<text x="291.46" y="131.41">.</text>
<text x="22.36" y="355.60">.</text>
<text x="208.51" y="48.35">.</text>
<text x="80.80" y="97.63">*</text>
<text x="209.46" y="330.29">+</text>
<text x="355.27" y="125.45">*</text>
<text x="157.98" y="32.15">+</text>
<text x="66.14" y="479.78">.</text>
<text x="395.71" y="453.29">.</text>
<text x="470.55" y="445.41">*</text>
<text x="495.99" y="302.45">+</text>
<text x="88.31" y="16.71">*</text>
<text x="453.06" y="164.90">.</text>
<text x="426.09" y="121.55">.</text>
<text x="171.98" y="356.74">.</text>
<text x="38.06" y="19.88">*</text>
<text x="89.43" y="76.26">+</text>
<text x="338.92" y="499.01">*</text>
<text x="470.91" y="67.16">+</text>
<text x="22.75" y="34.90">*</text>
<text x="456.01" y="106.83">.</text>
<text x="109.33" y="452.88">.</text>
<text x="326.90" y="167.88">+</text>
<text x="358.29" y="202.88">+</text>
<text x="323.37" y="280.44">+</text>
<text x="310.58" y="238.93">.</text>
<text x="121.32" y="271.59">*</text>
<text x="481.30" y="68.92">.</text>
<text x="59.86" y="332.83">+</text>
<text x="73.68" y="395.18">+</text>
<text x="400.51" y="308.70">+</text>
<text x="312.34" y="425.22">.</text>
<text x="185.05" y="112.03">+</text>
<text x="27.76" y="159.13">.</text>
<text x="315.25" y="65.98">+</text>
<text x="224.91" y="3.39">+</text>
<text x="473.81" y="33.09">+</text>
<text x="33.25" y="20.50">*</text>
<text x="486.72" y="262.65">+</text>
<text x="181.37" y="469.28">*</text>
<text x="136.37" y="81.40">*</text>
<text x="190.48" y="375.46">+</text>
<text x="120.04" y="351.16">+</text>
<text x="360.91" y="406.84">*</text>
<text x="390.88" y="144.92">+</text>
<text x="287.60" y="437.30">+</text>
<text x="174.51" y="140.20">*</text>
<text x="163.70" y="73.95">+</text>
<text x="182.67" y="432.21">*</text>
<text x="44.45" y="127.73">*</text>
<text x="293.03" y="344.39">*</text>
<text x="361.82" y="312.06">.</text>
<text x="21.93" y="207.08">.</text>
<text x="392.68" y="43.27">+</text>
<text x="224.64" y="99.00">.</text>
<text x="39.35" y="304.88">.</text>
<text x="380.70" y="220.27">*</text>
<text x="426.18" y="404.34">.</text>
<text x="382.04" y="31.73">+</text>
<text x="391.12" y="11.58">*</text>
<text x="0.42" y="435.01">+</text>
<text x="433.47" y="231.81">+</text>
<text x="313.25" y="140.62">+</text>
<text x="314.48" y="475.99">+</text>
<text x="280.65" y="56.57">+</text>
<text x="458.24" y="277.40">*</text>
<text x="95.65" y="472.89">.</text>
<text x="341.32" y="269.34">+</text>
<text x="341.66" y="221.04">+</text>
<text x="489.58" y="408.00">*</text>
<text x="303.71" y="494.68">.</text>
<text x="99.12" y="304.55">+</text>
<text x="329.56" y="449.21">.</text>
<text x="80.48" y="14.31">.</text>
<text x="121.83" y="330.76">.</text>
<text x="163.09" y="141.87">+</text>
<text x="280.20" y="416.26">*</text>
<text x="313.88" y="112.98">*</text>
<text x="440.30" y="365.68">.</text>
<text x="436.47" y="359.94">*</text>
<text x="47.06" y="342.04">*</text>
<text x="214.51" y="294.40">.</text>
<text x="272.24" y="232.44">.</text>
<text x="330.53" y="487.90">.</text>
<text x="352.95" y="458.48">*</text>
<text x="372.40" y="97.47">+</text>
<text x="132.21" y="221.31">+</text>
<text x="216.97" y="55.62">+</text>
<text x="176.04" y="360.77">.</text>
<text x="38.87" y="194.55">*</text>
<text x="454.32" y="332.04">*</text>
<text x="66.73" y="251.21">.</text>
<text x="0.70" y="489.39">+</text>
<text x="212.07" y="140.90">+</text>
<text x="144.65" y="303.82">+</text>
<text x="56.32" y="249.83">+</text>
<text x="207.60" y="195.08">+</text>
<text x="189.56" y="100.03">+</text>
<text x="266.58" y="165.66">*</text>
<text x="311.13" y="36.63">+</text>
<text x="307.07" y="81.99">+</text>
<text x="20.29" y="489.31">.</text>
<text x="437.79" y="154.97">.</text>
<text x="158.19" y="140.96">+</text>
<text x="362.84" y="2.83">.</text>
<text x="162.55" y="442.05">+</text>
<text x="102.18" y="305.88">.</text>
<text x="460.84" y="315.57">*</text>
<text x="16.73" y="293.61">.</text>
<text x="0.12" y="353.47">+</text>
<text x="7.38" y="117.71">.</text>
<text x="401.04" y="477.89">*</text>
<text x="397.78" y="391.32">.</text>
<text x="7.87" y="238.12">.</text>
<text x="393.62" y="332.05">*</text>
<text x="414.22" y="369.28">.</text>
<text x="243.22" y="80.97">+</text>
<text x="229.16" y="146.97">.</text>
<text x="243.82" y="87.54">.</text>
<text x="86.24" y="343.56">+</text>
<text x="65.72" y="399.93">.</text>
<text x="492.22" y="48.01">.</text>
<text x="338.92" y="266.67">+</text>
<text x="204.55" y="1.53">.</text>
<text x="170.07" y="396.42">*</text>
<text x="75.37" y="466.40">*</text>
<text x="461.38" y="70.43">+</text>
<text x="150.12" y="26.24">.</text>
<text x="389.17" y="13.59">+</text>
<text x="263.36" y="423.88">.</text>
<text x="320.28" y="227.54">+</text>
<text x="457.56" y="198.00">+</text>
<text x="170.89" y="35.38">*</text>
<text x="417.70" y="403.26">+</text>
<text x="315.24" y="470.38">.</text>
<text x="398.77" y="26.52">*</text>
<text x="188.50" y="487.69">+</text>
<text x="265.34" y="423.48">+</text>
<text x="82.06" y="353.44">.</text>
<text x="41.31" y="248.61">+</text>
<text x="0.46" y="185.24">+</text>
<text x="188.51" y="2.53">+</text>
<text x="482.90" y="278.34">.</text>
<text x="385.77" y="195.17">.</text>
<text x="50.03" y="121.06">.</text>
<text x="83.60" y="94.97">+</text>
<text x="323.85" y="29.39">+</text>
<text x="16.64" y="422.39">.</text>
<text x="304.22" y="75.79">.</text>
<text x="430.38" y="85.60">+</text>
<text x="364.91" y="359.15">+</text>
<text x="310.85" y="13.20">.</text>
<text x="373.52" y="321.71">.</text>
<text x="273.27" y="327.30">.</text>
<text x="455.83" y="138.03">.</text>
<text x="67.64" y="303.14">+</text>
<text x="6.59" y="83.62">.</text>
<text x="333.38" y="407.27">.</text>
<text x="205.78" y="74.30">+</text>
<text x="111.23" y="298.79">.</text>
<text x="143.83" y="353.33">+</text>
<text x="19.21" y="467.27">+</text>
<text x="89.95" y="306.38">.</text>
<text x="216.79" y="208.56">.</text>
<text x="170.77" y="254.49">+</text>
<text x="445.03" y="86.58">+</text>
<text x="421.01" y="21.03">+</text>
<text x="61.57" y="483.79">.</text>
<text x="292.38" y="191.47">+</text>
<text x="245.48" y="378.13">.</text>
<text x="213.51" y="379.64">.</text>
<text x="57.16" y="379.04">.</text>
<text x="299.97" y="300.95">.</text>
<text x="282.57" y="95.70">+</text>
<text x="163.80" y="115.62">+</text>
<text x="158.67" y="28.13">+</text>
<text x="209.25" y="421.42">.</text>
<text x="442.92" y="59.72">+</text>
<text x="483.39" y="433.18">.</text>
<text x="9.78" y="111.88">.</text>
<text x="448.18" y="181.12">.</text>
<text x="317.28" y="342.81">.</text>
<text x="57.24" y="40.12">+</text>
<text x="454.84" y="250.58">.</text>
<text x="31.96" y="397.54">+</text>
<text x="378.70" y="436.52">+</text>
<text x="490.29" y="304.13">+</text>
<text x="37.58" y="305.20">+</text>
<text x="46.47" y="140.14">+</text>
<text x="115.49" y="239.30">*</text>
<text x="459.35" y="235.50">*</text>
<text x="365.05" y="256.76">.</text>
<text x="393.50" y="145.31">+</text>
<text x="452.87" y="129.90">+</text>
<text x="397.03" y="53.77">.</text>
<text x="305.93" y="259.29">.</text>
<text x="103.24" y="135.76">*</text>
<text x="15.97" y="46.15">.</text>
<text x="227.96" y="127.64">+</text>
<text x="166.93" y="24.31">+</text>
<text x="2.86" y="300.28">*</text>
<text x="44.67" y="128.21">.</text>
<text x="300.60" y="386.50">.</text>
<text x="439.38" y="471.70">.</text>
<text x="453.83" y="39.00">.</text>

</svg>