
<svg viewBox="0 0 500 500" xmlns="http://www.w.org/2000/svg" width="100%" height="100%" style="background-color: #0a0a14; font-family: 'Courier New', Courier, monospace;">
    <style>
        text { fill: #aaa; font-size: 10px; text-anchor: middle; dominant-baseline: middle; }
    </style>
    <text x="312.30" y="363.67">+</text>
<text x="218.81" y="113.33">*</text>
<text x="179.94" y="224.04">+</text>
<text x="12.06" y="17.60">+</text>
<text x="47.47" y="363.83">.</text>
<text x="182.72" y="293.51">*</text>
<text x="29.25" y="50.32">+</text>
<text x="371.78" y="111.93">*</text>
<text x="306.03" y="134.38">+</text>
<text x="80.03" y="388.42">+</text>
<text x="354.32" y="454.49">*</text>
<text x="16.45" y="438.83">+</text>
<text x="39.77" y="140.09">.</text>
<text x="159.32" y="395.59">+</text>
<text x="290.09" y="358.80">.</text>
<text x="408.71" y="424.07">+</text>
<text x="312.62" y="193.67">*</text>
<text x="434.99" y="335.52">.</text>
<text x="157.14" y="161.62">.</text>
<text x="223.18" y="348.06">+</text>
<text x="119.50" y="2.76">.</text>
<text x="227.56" y="142.63">.</text>
<text x="4.56" y="360.87">+</text>
<text x="168.88" y="100.09">+</text>
<text x="83.75" y="318.02">*</text>
<text x="484.08" y="416.66">+</text>
<text x="81.71" y="256.49">+</text>
<text x="27.16" y="336.61">.</text>
<text x="208.78" y="335.41">.</text>
<text x="170.06" y="250.69">*</text>
<text x="193.01" y="319.60">+</text>
<text x="382.17" y="49.55">*</text>
<text x="409.06" y="259.60">.</text>
<text x="307.20" y="201.06">.</text>
<text x="239.29" y="129.72">+</text>
<text x="376.03" y="131.83">.</text>
<text x="473.57" y="320.82">.</text>
<text x="55.18" y="63.05">.</text>
<text x="233.52" y="448.55">.</text>
<text x="480.90" y="456.90">*</text>
<text x="475.11" y="293.90">.</text>
<text x="135.40" y="308.42">*</text>
<text x="86.60" y="245.88">+</text>
<text x="74.38" y="273.29">+</text>
<text x="465.36" y="84.69">.</text>
<text x="193.39" y="18.80">+</text>
<text x="65.71" y="32.89">.</text>
<text x="64.31" y="130.83">.</text>
<text x="459.15" y="392.48">+</text>
<text x="342.19" y="489.14">.</text>
<text x="384.36" y="319.50">+</text>
<text x="239.12" y="117.06">+</text>
<text x="355.22" y="184.99">+</text>
<text x="253.88" y="488.46">+</text>
<text x="176.91" y="253.05">.</text>
<text x="481.94" y="439.02">+</text>
<text x="21.18" y="328.11">*</text>
<text x="447.94" y="23.35">.</text>
<text x="253.24" y="223.58">*</text>
<text x="420.09" y="438.96">.</text>
<text x="241.47" y="360.35">*</text>
<text x="295.60" y="127.07">+</text>
<text x="59.28" y="358.41">+</text>
<text x="473.82" y="160.55">*</text>
<text x="13.63" y="198.97">*</text>
<text x="390.10" y="339.33">.</text>
<text x="487.66" y="175.61">.</text>
<text x="148.39" y="239.19">*</text>
<text x="225.97" y="493.80">+</text>
<text x="149.50" y="97.16">.</text>
<text x="270.00" y="179.98">+</text>
<text x="411.65" y="58.97">*</text>
<text x="400.39" y="282.25">+</text>
<text x="422.39" y="41.65">+</text>
<text x="179.26" y="462.83">.</text>
<text x="0.45" y="225.64">+</text>
<text x="20.44" y="38.24">+</text>
<text x="132.42" y="435.55">.</text>
<text x="207.44" y="147.46">*</text>
<text x="302.01" y="292.92">.</text>
<text x="123.78" y="237.94">.</text>
<text x="276.09" y="392.91">+</text>
<text x="368.61" y="250.39">.</text>
<text x="213.59" y="344.86">.</text>
<text x="313.99" y="8.18">*</text>
<text x="279.49" y="150.88">.</text>
<text x="413.21" y="179.04">+</text>
<text x="300.06" y="437.13">*</text>
<text x="155.38" y="211.67">+</text>
<text x="21.59" y="295.54">+</text>
<text x="36.00" y="104.92">+</text>
<text x="191.20" y="85.27">.</text>
<text x="349.28" y="290.47">+</text>
<text x="490.94" y="330.41">.</text>
<text x="386.36" y="365.78">+</text>
<text x="471.00" y="220.07">+</text>
<text x="393.80" y="9.29">+</text>
<text x="268.65" y="276.85">*</text>
<text x="184.54" y="350.22">.</text>
<text x="132.86" y="276.96">+</text>
<text x="204.47" y="51.86">+</text>
<text x="267.09" y="378.74">*</text>
<text x="263.50" y="167.78">.</text>
<text x="231.81" y="287.02">.</text>
<text x="281.49" y="298.45">+</text>
<text x="35.71" y="12.78">.</text>
<text x="79.10" y="385.90">.</text>
<text x="226.13" y="255.45">*</text>
<text x="306.30" y="196.57">.</text>
<text x="228.99" y="302.16">.</text>
<text x="65.04" y="467.15">+</text>
<text x="240.42" y="120.22">*</text>
<text x="167.18" y="238.77">*</text>
<text x="264.17" y="483.94">+</text>
<text x="272.90" y="284.34">+</text>
<text x="370.74" y="264.68">.</text>
<text x="177.26" y="232.92">.</text>
<text x="458.55" y="32.83">.</text>
<text x="401.73" y="276.33">.</text>
<text x="35.09" y="60.20">*</text>
<text x="203.53" y="1.15">.</text>
<text x="436.62" y="499.72">+</text>
<text x="294.61" y="282.95">+</text>
<text x="411.32" y="498.94">*</text>
<text x="410.53" y="90.43">*</text>
<text x="413.10" y="238.11">+</text>
<text x="234.86" y="91.68">.</text>
<text x="170.21" y="62.76">.</text>
<text x="179.50" y="464.67">.</text>
<text x="476.31" y="347.94">*</text>
<text x="274.68" y="184.08">.</text>
<text x="71.49" y="336.38">*</text>
<text x="232.04" y="356.64">.</text>
<text x="414.24" y="267.38">+</text>
<text x="348.49" y="109.73">.</text>
<text x="435.13" y="337.81">+</text>
<text x="193.07" y="348.14">+</text>
<text x="117.53" y="111.16">+</text>
<text x="262.25" y="478.91">+</text>
<text x="218.39" y="125.66">.</text>
<text x="429.16" y="21.23">.</text>
<text x="238.97" y="29.19">.</text>
<text x="191.22" y="486.89">.</text>
<text x="303.52" y="356.86">+</text>
<text x="232.08" y="198.79">+</text>
<text x="42.47" y="312.79">+</text>
<text x="129.24" y="317.14">*</text>
<text x="104.57" y="413.11">.</text>
<text x="371.77" y="447.95">+</text>
<text x="220.22" y="16.00">+</text>
<text x="147.32" y="156.31">*</text>
<text x="66.91" y="235.73">+</text>
<text x="228.08" y="28.05">+</text>
<text x="472.97" y="241.24">+</text>
<text x="151.94" y="301.54">+</text>
<text x="186.87" y="200.63">.</text>
<text x="278.74" y="491.44">+</text>
<text x="368.00" y="55.91">.</text>
<text x="4.93" y="464.81">.</text>
<text x="445.94" y="15.81">*</text>
<text x="178.22" y="439.67">+</text>
<text x="161.92" y="96.00">+</text>
<text x="142.79" y="50.41">.</text>
<text x="215.28" y="259.47">*</text>
<text x="96.97" y="441.58">.</text>
<text x="16.42" y="335.27">+</text>
<text x="478.74" y="252.41">.</text>
<text x="69.52" y="327.21">+</text>
<text x="417.21" y="173.20">+</text>
<text x="364.82" y="429.76">.</text>
<text x="163.45" y="164.77">+</text>
<text x="156.95" y="315.71">*</text>
<text x="260.10" y="144.09">+</text>
<text x="443.30" y="308.72">+</text>
<text x="476.84" y="87.42">.</text>
<text x="178.22" y="14.58">.</text>
<text x="270.87" y="479.60">.</text>
<text x="332.29" y="437.24">.</text>
<text x="347.28" y="235.37">.</text>
<text x="390.75" y="473.76">+</text>
<text x="251.44" y="401.52">.</text>
<text x="250.62" y="494.63">.</text>
<text x="417.72" y="303.40">.</text>
<text x="49.31" y="192.67">.</text>
<text x="378.31" y="103.47">+</text>
<text x="437.10" y="381.29">*</text>
<text x="455.34" y="309.43">+</text>
<text x="227.02" y="243.88">.</text>
<text x="157.14" y="280.60">*</text>
<text x="363.83" y="114.62">+</text>
<text x="367.08" y="260.04">.</text>
<text x="263.66" y="238.04">+</text>
<text x="149.33" y="376.62">.</text>
<text x="293.15" y="339.49">+</text>
<text x="408.28" y="348.16">.</text>
<text x="208.37" y="314.85">.</text>
<text x="129.58" y="54.87">+</text>
<text x="260.23" y="212.28">+</text>
<text x="143.51" y="418.24">+</text>
<text x="220.35" y="437.10">*</text>
<text x="71.56" y="239.17">+</text>
<text x="16.24" y="58.17">.</text>
<text x="351.77" y="429.61">+</text>
<text x="379.24" y="19.78">.</text>
<text x="447.73" y="144.49">.</text>
<text x="286.25" y="141.20">.</text>
<text x="28.78" y="484.06">+</text>
<text x="11.14" y="318.35">.</text>
<text x="69.16" y="117.58">.</text>
<text x="295.67" y="4.86">+</text>
<text x="206.24" y="477.16">.</text>
<text x="148.62" y="375.68">+</text>
<text x="351.38" y="488.95">*</text>

</svg>