
<svg viewBox="0 0 500 500" xmlns="http://www.w.org/2000/svg" width="100%" height="100%" style="background-color: #0a0a14; font-family: 'Courier New', Courier, monospace;">
    <style>
        text { fill: #aaa; font-size: 10px; text-anchor: middle; dominant-baseline: middle; }
    </style>
    <text x="219.74" y="273.05">+</text>
<text x="95.42" y="155.17">+</text>
<text x="83.18" y="480.78">+</text>
<text x="213.15" y="365.46">.</text>
<text x="305.03" y="121.73">+</text>
<text x="251.82" y="130.56">.</text>
<text x="236.19" y="57.84">+</text>
<text x="77.45" y="29.65">.</text>
<text x="389.14" y="149.98">*</text>
<text x="299.41" y="158.94">+</text>
<text x="314.19" y="465.70">*</text>
<text x="415.31" y="104.42">.</text>
<text x="293.52" y="99.15">+</text>
<text x="216.43" y="117.84">+</text>
<text x="314.00" y="72.05">+</text>
<text x="385.21" y="45.58">+</text>
<text x="478.37" y="348.01">*</text>
<text x="323.78" y="60.36">+</text>
<text x="338.30" y="378.10">.</text>
<text x="243.38" y="308.56">+</text>
<text x="206.22" y="28.82">+</text>
<text x="167.05" y="147.93">.</text>
<text x="340.17" y="117.16">.</text>
<text x="160.78" y="476.90">.</text>
<text x="317.78" y="447.91">+</text>
<text x="395.12" y="278.70">+</text>
<text x="401.59" y="306.02">.</text>
<text x="335.62" y="259.71">+</text>
<text x="446.58" y="186.07">.</text>
<text x="59.19" y="173.13">.</text>
<text x="227.32" y="418.16">.</text>
<text x="209.88" y="174.30">+</text>
<text x="239.81" y="353.94">.</text>
<text x="131.40" y="53.18">+</text>
<text x="284.55" y="206.94">+</text>
<text x="333.94" y="218.87">.</text>
<text x="487.97" y="264.44">+</text>
<text x="349.01" y="211.07">*</text>
<text x="47.15" y="216.61">.</text>
<text x="237.36" y="323.16">.</text>
<text x="251.81" y="62.35">.</text>
<text x="392.89" y="234.43">+</text>
<text x="8.07" y="451.94">+</text>
<text x="286.65" y="130.83">*</text>
<text x="80.56" y="200.15">+</text>
<text x="164.66" y="325.24">+</text>
<text x="2.51" y="433.71">+</text>
<text x="479.89" y="61.71">+</text>
<text x="42.13" y="414.22">.</text>
<text x="388.92" y="305.05">+</text>
<text x="406.12" y="455.29">+</text>
<text x="280.39" y="164.23">.</text>
<text x="365.37" y="89.18">.</text>
<text x="430.83" y="391.28">*</text>
<text x="191.48" y="228.70">.</text>
<text x="358.32" y="400.17">+</text>
<text x="455.21" y="207.89">.</text>
<text x="143.86" y="326.25">*</text>
<text x="311.65" y="143.44">*</text>
<text x="41.18" y="349.22">.</text>
<text x="266.34" y="367.49">.</text>
<text x="328.34" y="166.64">*</text>
<text x="174.49" y="204.11">.</text>
<text x="330.45" y="104.72">+</text>
<text x="248.23" y="420.24">+</text>
<text x="303.59" y="78.75">.</text>
<text x="137.49" y="66.16">.</text>
<text x="34.56" y="469.98">.</text>
<text x="153.42" y="274.84">.</text>
<text x="61.38" y="435.28">*</text>
<text x="44.10" y="366.32">+</text>
<text x="297.49" y="85.20">+</text>
<text x="480.48" y="21.15">+</text>
<text x="459.33" y="346.50">+</text>
<text x="402.59" y="84.38">.</text>
<text x="130.46" y="43.91">+</text>
<text x="366.83" y="41.34">.</text>
<text x="268.11" y="361.08">+</text>
<text x="313.12" y="71.83">+</text>
<text x="1.80" y="135.74">+</text>
<text x="357.67" y="399.86">+</text>
<text x="380.90" y="296.39">+</text>
<text x="22.17" y="152.61">+</text>
<text x="56.87" y="33.07">*</text>
<text x="59.01" y="332.08">+</text>
<text x="146.61" y="66.24">+</text>
<text x="303.12" y="128.03">+</text>
<text x="228.23" y="357.91">+</text>
<text x="401.15" y="340.37">*</text>
<text x="393.44" y="53.80">+</text>
<text x="38.86" y="455.78">.</text>
<text x="402.21" y="457.44">.</text>
<text x="178.86" y="337.52">+</text>
<text x="387.81" y="73.20">.</text>
<text x="452.72" y="31.60">+</text>
<text x="99.50" y="250.31">.</text>
<text x="45.12" y="25.49">+</text>
<text x="180.90" y="412.55">.</text>
<text x="317.63" y="159.76">+</text>
<text x="278.70" y="423.93">+</text>
<text x="472.81" y="492.44">.</text>
<text x="258.93" y="417.58">+</text>
<text x="200.08" y="70.92">+</text>
<text x="172.55" y="288.01">+</text>
<text x="159.96" y="117.58">+</text>
<text x="404.50" y="247.42">.</text>
<text x="206.33" y="92.89">+</text>
<text x="201.49" y="19.39">.</text>
<text x="425.85" y="5.17">.</text>
<text x="217.93" y="221.77">+</text>
<text x="446.35" y="204.89">+</text>
<text x="478.84" y="480.68">+</text>
<text x="126.68" y="103.20">.</text>
<text x="137.73" y="308.88">.</text>
<text x="445.85" y="416.22">.</text>
<text x="122.57" y="284.21">*</text>
<text x="284.90" y="179.15">+</text>
<text x="12.65" y="54.64">+</text>
<text x="104.73" y="64.61">+</text>
<text x="30.54" y="117.03">.</text>
<text x="414.95" y="279.80">*</text>
<text x="89.04" y="244.29">+</text>
<text x="469.30" y="414.49">.</text>
<text x="315.48" y="221.14">.</text>
<text x="380.50" y="387.75">+</text>
<text x="365.34" y="263.54">+</text>
<text x="327.29" y="490.80">*</text>
<text x="155.05" y="233.85">.</text>
<text x="373.96" y="371.55">.</text>
<text x="456.39" y="296.87">.</text>
<text x="25.89" y="274.38">+</text>
<text x="389.98" y="152.99">+</text>
<text x="249.50" y="227.58">+</text>
<text x="110.81" y="366.16">.</text>
<text x="57.44" y="25.79">+</text>
<text x="345.86" y="381.63">+</text>
<text x="9.74" y="422.35">.</text>
<text x="325.34" y="94.40">*</text>
<text x="355.41" y="318.85">.</text>
<text x="358.51" y="33.57">+</text>
<text x="166.55" y="401.05">+</text>
<text x="172.49" y="337.69">+</text>
<text x="195.93" y="165.43">.</text>
<text x="52.60" y="332.56">.</text>
<text x="307.75" y="330.03">.</text>
<text x="358.27" y="53.70">.</text>
<text x="477.24" y="331.72">.</text>
<text x="166.33" y="50.36">.</text>
<text x="111.00" y="367.20">.</text>
<text x="91.29" y="189.06">.</text>
<text x="75.21" y="465.60">+</text>
<text x="44.55" y="275.13">.</text>
<text x="43.84" y="68.43">.</text>
<text x="172.81" y="271.57">.</text>
<text x="359.69" y="215.42">.</text>
<text x="354.77" y="307.94">.</text>
<text x="35.40" y="54.88">+</text>
<text x="16.25" y="277.41">.</text>
<text x="45.65" y="472.17">.</text>
<text x="151.26" y="453.63">+</text>
<text x="26.34" y="474.72">.</text>
<text x="223.22" y="131.39">.</text>
<text x="87.08" y="472.93">+</text>
<text x="186.64" y="183.71">.</text>
<text x="463.01" y="23.77">+</text>
<text x="328.19" y="345.29">+</text>
<text x="74.55" y="100.35">+</text>
<text x="110.87" y="359.73">*</text>
<text x="312.70" y="105.52">+</text>
<text x="203.25" y="477.30">.</text>
<text x="28.16" y="452.14">+</text>
<text x="38.53" y="434.81">+</text>
<text x="23.19" y="482.83">+</text>
<text x="271.93" y="298.39">.</text>
<text x="250.67" y="330.81">.</text>
<text x="394.65" y="73.25">.</text>
<text x="414.36" y="84.91">+</text>
<text x="174.61" y="74.59">+</text>
<text x="184.22" y="4.92">+</text>
<text x="243.80" y="489.87">+</text>
<text x="158.14" y="107.73">+</text>
<text x="37.05" y="136.57">.</text>
<text x="14.59" y="418.00">*</text>
<text x="99.67" y="200.33">+</text>
<text x="461.71" y="345.13">.</text>
<text x="96.67" y="404.07">.</text>
<text x="254.45" y="434.82">+</text>
<text x="397.44" y="142.19">.</text>
<text x="134.98" y="449.08">+</text>
<text x="295.36" y="369.92">+</text>
<text x="20.13" y="158.51">+</text>
<text x="471.53" y="85.41">.</text>
<text x="336.27" y="143.42">.</text>
<text x="32.77" y="243.57">.</text>
<text x="258.20" y="343.55">+</text>
<text x="137.84" y="233.20">*</text>
<text x="179.08" y="103.37">.</text>
<text x="168.05" y="391.46">*</text>
<text x="487.58" y="171.31">*</text>
<text x="267.18" y="211.74">*</text>
<text x="392.64" y="171.26">.</text>
<text x="412.95" y="357.80">.</text>
<text x="453.27" y="363.43">*</text>
<text x="143.98" y="134.53">*</text>
<text x="253.61" y="60.32">*</text>
<text x="305.59" y="195.89">.</text>
<text x="157.62" y="73.03">+</text>
<text x="447.77" y="25.41">+</text>
<text x="111.89" y="491.16">*</text>

</svg>