
<svg viewBox="0 0 500 500" xmlns="http://www.w.org/2000/svg" width="100%" height="100%" style="background-color: #0a0a14; font-family: 'Courier New', Courier, monospace;">
    <style>
        text { fill: #aaa; font-size: 10px; text-anchor: middle; dominant-baseline: middle; }
    </style>
    <text x="411.37" y="57.78">+</text>
<text x="228.89" y="401.17">.</text>
<text x="263.55" y="473.55">.</text>
<text x="153.14" y="79.76">.</text>
<text x="170.65" y="349.83">*</text>
<text x="194.94" y="264.66">.</text>
<text x="87.73" y="276.33">+</text>
<text x="27.95" y="19.73">*</text>
<text x="316.01" y="6.74">.</text>
<text x="442.04" y="361.22">*</text>
<text x="29.51" y="5.87">.</text>
<text x="52.89" y="472.82">+</text>
<text x="197.83" y="485.41">+</text>
<text x="255.51" y="197.91">.</text>
<text x="15.16" y="196.63">.</text>
<text x="476.31" y="211.77">*</text>
<text x="223.97" y="121.84">+</text>
<text x="99.47" y="283.62">.</text>
<text x="230.71" y="149.68">+</text>
<text x="427.36" y="37.56">.</text>
<text x="100.13" y="477.49">*</text>
<text x="455.12" y="199.41">+</text>
<text x="199.20" y="66.54">+</text>
<text x="83.78" y="428.95">.</text>
<text x="443.02" y="381.22">.</text>
<text x="496.64" y="178.16">+</text>
<text x="299.89" y="495.17">+</text>
<text x="495.53" y="293.33">.</text>
<text x="59.16" y="273.32">.</text>
<text x="241.75" y="378.25">+</text>
<text x="187.99" y="115.59">+</text>
<text x="444.53" y="436.52">+</text>
<text x="470.60" y="404.59">*</text>
<text x="214.57" y="358.26">.</text>
<text x="132.23" y="228.35">+</text>
<text x="93.86" y="128.79">+</text>
<text x="399.91" y="371.50">+</text>
<text x="328.68" y="55.29">+</text>
<text x="36.93" y="153.75">.</text>
<text x="122.84" y="261.40">+</text>
<text x="375.99" y="101.93">*</text>
<text x="97.40" y="337.46">+</text>
<text x="485.60" y="462.42">+</text>
<text x="493.76" y="230.92">+</text>
<text x="356.16" y="255.28">.</text>
<text x="480.74" y="240.84">.</text>
<text x="497.50" y="497.93">*</text>
<text x="297.91" y="420.95">.</text>
<text x="235.63" y="273.59">.</text>
<text x="280.03" y="399.48">+</text>
<text x="314.41" y="438.28">*</text>
<text x="91.77" y="9.55">.</text>
<text x="109.30" y="54.94">.</text>
<text x="38.78" y="322.61">.</text>
<text x="383.80" y="332.74">+</text>
<text x="120.37" y="49.68">*</text>
<text x="420.16" y="170.84">*</text>
<text x="147.09" y="424.90">+</text>
<text x="308.62" y="23.78">.</text>
<text x="42.88" y="367.15">*</text>
<text x="345.77" y="398.96">.</text>
<text x="62.32" y="125.26">.</text>
<text x="393.67" y="39.55">*</text>
<text x="459.99" y="193.55">+</text>
<text x="69.15" y="119.64">.</text>
<text x="272.90" y="79.43">.</text>
<text x="494.13" y="204.94">.</text>
<text x="84.63" y="494.04">.</text>
<text x="305.16" y="420.69">.</text>
<text x="406.17" y="163.55">*</text>
<text x="234.52" y="282.16">+</text>
<text x="467.31" y="460.78">.</text>
<text x="492.13" y="223.84">+</text>
<text x="234.16" y="209.56">+</text>
<text x="342.60" y="52.00">.</text>
<text x="257.61" y="160.22">+</text>
<text x="242.06" y="128.40">+</text>
<text x="78.66" y="47.93">+</text>
<text x="468.98" y="195.57">+</text>
<text x="142.87" y="287.77">+</text>
<text x="182.04" y="491.17">+</text>
<text x="239.86" y="356.59">+</text>
<text x="175.67" y="13.12">.</text>
<text x="81.37" y="230.72">*</text>
<text x="89.76" y="306.95">.</text>
<text x="443.48" y="146.01">.</text>
<text x="76.39" y="11.20">+</text>
<text x="492.23" y="423.01">+</text>
<text x="159.85" y="148.12">.</text>
<text x="326.54" y="71.32">.</text>
<text x="77.74" y="342.21">+</text>
<text x="452.45" y="111.62">+</text>
<text x="36.31" y="45.25">.</text>
<text x="172.38" y="461.62">+</text>
<text x="208.18" y="322.14">.</text>
<text x="311.37" y="378.71">.</text>
<text x="305.26" y="399.28">*</text>
<text x="98.34" y="404.19">+</text>
<text x="484.69" y="78.62">.</text>
<text x="340.72" y="235.63">*</text>
<text x="220.85" y="13.05">.</text>
<text x="108.53" y="140.64">.</text>
<text x="352.79" y="495.52">+</text>
<text x="218.30" y="109.46">+</text>
<text x="235.40" y="220.23">*</text>
<text x="201.78" y="115.18">+</text>
<text x="127.99" y="44.83">.</text>
<text x="370.84" y="250.49">*</text>
<text x="309.89" y="34.15">.</text>
<text x="8.89" y="401.94">+</text>
<text x="300.09" y="114.07">+</text>
<text x="354.32" y="14.77">+</text>
<text x="143.35" y="417.36">*</text>
<text x="180.19" y="256.64">+</text>
<text x="203.30" y="349.25">.</text>
<text x="138.95" y="358.86">+</text>
<text x="241.35" y="302.89">+</text>
<text x="53.21" y="345.45">.</text>
<text x="281.97" y="382.21">*</text>
<text x="61.49" y="9.05">.</text>
<text x="474.50" y="495.81">+</text>
<text x="195.05" y="51.79">.</text>
<text x="190.80" y="469.26">.</text>
<text x="199.70" y="9.76">+</text>
<text x="48.89" y="455.03">*</text>
<text x="207.16" y="171.67">*</text>
<text x="113.98" y="226.80">+</text>
<text x="183.67" y="392.21">+</text>
<text x="105.08" y="53.88">+</text>
<text x="86.95" y="364.21">+</text>
<text x="24.76" y="312.48">.</text>
<text x="29.51" y="478.42">+</text>
<text x="471.41" y="167.13">+</text>
<text x="213.40" y="237.18">+</text>
<text x="453.01" y="33.93">+</text>
<text x="328.90" y="73.78">+</text>
<text x="496.97" y="171.85">.</text>
<text x="328.51" y="447.89">.</text>
<text x="262.31" y="385.34">+</text>
<text x="259.93" y="269.19">+</text>
<text x="59.95" y="415.79">*</text>
<text x="223.47" y="31.18">.</text>
<text x="63.30" y="467.06">.</text>
<text x="225.05" y="294.88">.</text>
<text x="19.06" y="377.20">*</text>
<text x="353.82" y="378.96">.</text>
<text x="456.75" y="391.94">+</text>
<text x="69.02" y="110.88">.</text>
<text x="124.73" y="302.62">*</text>
<text x="285.23" y="353.93">*</text>
<text x="48.88" y="217.80">+</text>
<text x="374.85" y="438.92">.</text>
<text x="155.81" y="27.40">.</text>
<text x="234.27" y="72.57">.</text>
<text x="440.27" y="220.73">*</text>
<text x="190.14" y="321.02">+</text>
<text x="88.32" y="279.97">*</text>
<text x="240.39" y="156.36">*</text>
<text x="489.69" y="183.39">+</text>
<text x="385.36" y="443.56">.</text>
<text x="113.15" y="17.02">.</text>
<text x="243.28" y="340.52">*</text>
<text x="220.24" y="180.39">+</text>
<text x="489.07" y="186.68">+</text>
<text x="487.61" y="295.48">+</text>
<text x="14.18" y="162.71">*</text>
<text x="81.12" y="90.76">*</text>
<text x="100.55" y="138.92">*</text>
<text x="422.16" y="480.80">+</text>
<text x="126.76" y="125.87">+</text>
<text x="334.55" y="0.07">.</text>
<text x="391.64" y="33.73">+</text>
<text x="436.79" y="463.40">+</text>
<text x="286.45" y="167.18">+</text>
<text x="439.79" y="79.34">.</text>
<text x="390.82" y="112.26">+</text>
<text x="272.00" y="431.70">.</text>
<text x="308.03" y="105.61">.</text>
<text x="261.78" y="416.52">+</text>
<text x="184.10" y="242.43">*</text>
<text x="136.73" y="315.80">*</text>
<text x="448.03" y="125.65">.</text>
<text x="459.54" y="136.12">.</text>
<text x="199.60" y="478.24">.</text>
<text x="107.42" y="93.74">+</text>
<text x="117.42" y="457.71">.</text>
<text x="323.29" y="248.97">*</text>
<text x="193.51" y="7.21">+</text>
<text x="439.78" y="399.87">*</text>
<text x="93.38" y="41.75">+</text>
<text x="63.76" y="34.37">+</text>
<text x="319.37" y="358.77">+</text>
<text x="410.81" y="114.47">*</text>
<text x="388.34" y="139.49">.</text>
<text x="184.73" y="204.50">.</text>
<text x="496.90" y="487.23">+</text>
<text x="411.99" y="184.53">.</text>
<text x="352.34" y="408.49">.</text>
<text x="130.00" y="363.66">+</text>
<text x="425.75" y="308.08">*</text>
<text x="300.25" y="282.57">.</text>
<text x="4.31" y="17.15">+</text>
<text x="409.97" y="422.23">.</text>
<text x="444.72" y="213.95">+</text>
<text x="83.71" y="140.97">*</text>
<text x="72.84" y="85.47">+</text>
<text x="31.11" y="440.30">+</text>
<text x="185.57" y="84.55">+</text>
<text x="100.61" y="24.12">.</text>
<text x="383.69" y="28.05">+</text>
<text x="460.25" y="337.07">.</text>
<text x="481.46" y="393.66">+</text>
<text x="79.23" y="474.51">+</text>
<text x="435.88" y="480.08">+</text>
<text x="106.36" y="425.65">+</text>

</svg>