
<svg viewBox="0 0 500 500" xmlns="http://www.w.org/2000/svg" width="100%" height="100%" style="background-color: #0a0a14; font-family: 'Courier New', Courier, monospace;">
    <style>
        text { fill: #aaa; font-size: 10px; text-anchor: middle; dominant-baseline: middle; }
    </style>
    <text x="422.94" y="355.39">+</text>
<text x="444.76" y="169.92">.</text>
<text x="232.83" y="250.77">*</text>
<text x="195.87" y="176.51">+</text>
<text x="132.12" y="164.68">+</text>
<text x="351.19" y="448.81">+</text>
<text x="455.53" y="70.89">.</text>
<text x="286.85" y="390.23">.</text>
<text x="209.70" y="441.45">.</text>
<text x="303.03" y="442.96">.</text>
<text x="246.96" y="267.78">+</text>
<text x="387.64" y="321.55">*</text>
<text x="14.65" y="340.02">+</text>
<text x="26.62" y="144.70">+</text>
<text x="77.17" y="168.57">+</text>
<text x="173.26" y="277.87">.</text>
<text x="163.72" y="264.01">+</text>
<text x="334.44" y="275.55">.</text>
<text x="61.32" y="438.41">*</text>
<text x="485.48" y="296.64">.</text>
<text x="11.36" y="368.20">+</text>
<text x="72.51" y="112.32">.</text>
<text x="264.84" y="247.37">+</text>
<text x="308.28" y="312.59">+</text>
<text x="370.01" y="284.13">+</text>
<text x="173.12" y="201.56">+</text>
<text x="330.05" y="397.74">*</text>
<text x="22.24" y="201.88">.</text>
<text x="128.30" y="101.12">+</text>
<text x="128.94" y="147.84">.</text>
<text x="255.56" y="19.91">+</text>
<text x="363.10" y="339.96">.</text>
<text x="178.49" y="390.15">.</text>
<text x="436.52" y="57.55">+</text>
<text x="227.18" y="43.42">+</text>
<text x="111.92" y="123.13">*</text>
<text x="300.18" y="38.43">.</text>
<text x="67.24" y="184.24">+</text>
<text x="286.39" y="423.31">*</text>
<text x="110.74" y="41.69">+</text>
<text x="58.13" y="421.98">+</text>
<text x="17.12" y="220.16">.</text>
<text x="218.04" y="195.48">+</text>
<text x="396.82" y="461.39">.</text>
<text x="144.60" y="98.80">.</text>
<text x="20.57" y="323.12">+</text>
<text x="204.77" y="64.04">.</text>
<text x="152.78" y="295.67">+</text>
<text x="339.20" y="491.95">.</text>
<text x="41.13" y="179.55">+</text>
<text x="416.08" y="70.07">+</text>
<text x="157.54" y="111.87">.</text>
<text x="275.37" y="499.29">+</text>
<text x="129.49" y="100.00">+</text>
<text x="128.00" y="170.70">.</text>
<text x="365.13" y="147.09">+</text>
<text x="125.31" y="415.04">+</text>
<text x="134.50" y="499.76">*</text>
<text x="391.94" y="45.30">+</text>
<text x="274.43" y="8.68">.</text>
<text x="18.20" y="79.19">+</text>
<text x="420.78" y="420.43">+</text>
<text x="255.10" y="461.89">+</text>
<text x="27.27" y="434.07">.</text>
<text x="238.79" y="254.41">*</text>
<text x="287.80" y="486.37">+</text>
<text x="239.81" y="266.25">*</text>
<text x="401.47" y="269.37">*</text>
<text x="451.46" y="158.90">*</text>
<text x="375.53" y="153.79">+</text>
<text x="182.63" y="211.93">*</text>
<text x="163.19" y="312.79">+</text>
<text x="116.15" y="410.88">.</text>
<text x="453.30" y="58.86">.</text>
<text x="75.77" y="337.18">+</text>
<text x="236.06" y="127.12">.</text>
<text x="255.08" y="26.07">.</text>
<text x="204.82" y="180.01">.</text>
<text x="1.96" y="336.44">+</text>
<text x="248.41" y="67.36">.</text>
<text x="197.81" y="499.71">*</text>
<text x="414.19" y="372.04">.</text>
<text x="306.18" y="398.87">.</text>
<text x="342.23" y="310.26">+</text>
<text x="109.94" y="216.56">+</text>
<text x="450.19" y="58.92">.</text>
<text x="418.76" y="44.62">+</text>
<text x="437.52" y="116.13">.</text>
<text x="312.03" y="371.00">*</text>
<text x="89.14" y="105.75">+</text>
<text x="85.56" y="444.35">.</text>
<text x="259.20" y="246.56">.</text>
<text x="449.23" y="74.84">+</text>
<text x="66.69" y="265.33">*</text>
<text x="151.91" y="20.74">+</text>
<text x="176.15" y="111.05">+</text>
<text x="275.68" y="438.32">*</text>
<text x="331.18" y="113.86">.</text>
<text x="315.78" y="263.72">.</text>
<text x="265.61" y="479.22">+</text>
<text x="142.40" y="481.98">+</text>
<text x="280.31" y="89.97">+</text>
<text x="117.15" y="25.70">.</text>
<text x="347.13" y="209.20">*</text>
<text x="440.02" y="112.26">+</text>
<text x="16.02" y="12.41">*</text>
<text x="424.44" y="488.94">+</text>
<text x="159.23" y="363.59">*</text>
<text x="118.39" y="230.11">*</text>
<text x="19.92" y="297.59">.</text>
<text x="483.77" y="120.57">+</text>
<text x="436.89" y="161.57">*</text>
<text x="118.07" y="96.14">.</text>
<text x="353.21" y="107.72">+</text>
<text x="369.25" y="263.26">*</text>
<text x="247.66" y="16.78">+</text>
<text x="312.36" y="456.16">*</text>
<text x="464.37" y="301.21">.</text>
<text x="213.35" y="489.68">.</text>
<text x="178.67" y="412.09">.</text>
<text x="353.75" y="51.55">+</text>
<text x="269.96" y="349.13">+</text>
<text x="38.27" y="13.49">.</text>
<text x="99.05" y="5.68">+</text>
<text x="429.24" y="211.09">.</text>
<text x="209.05" y="430.06">.</text>
<text x="19.71" y="371.68">+</text>
<text x="220.61" y="290.28">.</text>
<text x="420.78" y="477.66">.</text>
<text x="151.28" y="210.54">*</text>
<text x="175.50" y="286.28">.</text>
<text x="272.85" y="355.91">*</text>
<text x="222.81" y="54.91">+</text>
<text x="454.69" y="170.03">.</text>
<text x="466.30" y="47.06">.</text>
<text x="74.90" y="319.57">.</text>
<text x="394.54" y="63.44">+</text>
<text x="408.65" y="376.48">*</text>
<text x="125.08" y="52.24">*</text>
<text x="217.63" y="352.90">*</text>
<text x="146.61" y="11.47">+</text>
<text x="82.67" y="158.82">*</text>
<text x="105.94" y="223.58">*</text>
<text x="442.82" y="484.11">.</text>
<text x="147.40" y="77.52">.</text>
<text x="261.11" y="457.95">+</text>
<text x="367.49" y="331.30">.</text>
<text x="223.42" y="162.65">+</text>
<text x="343.22" y="374.92">.</text>
<text x="163.50" y="381.24">*</text>
<text x="135.81" y="473.00">+</text>
<text x="115.90" y="478.51">.</text>
<text x="3.45" y="216.62">+</text>
<text x="281.80" y="337.54">*</text>
<text x="130.74" y="64.53">.</text>
<text x="122.20" y="481.87">.</text>
<text x="377.30" y="115.98">.</text>
<text x="328.81" y="64.42">*</text>
<text x="79.63" y="495.43">.</text>
<text x="471.72" y="238.07">.</text>
<text x="107.29" y="190.77">*</text>
<text x="214.94" y="8.85">+</text>
<text x="124.72" y="55.59">+</text>
<text x="4.33" y="139.89">.</text>
<text x="416.74" y="433.24">*</text>
<text x="261.04" y="266.97">+</text>
<text x="332.58" y="274.63">.</text>
<text x="11.12" y="390.69">*</text>
<text x="286.59" y="122.90">+</text>
<text x="56.16" y="328.59">.</text>
<text x="489.96" y="23.35">.</text>
<text x="1.24" y="348.25">.</text>
<text x="225.02" y="137.87">.</text>
<text x="341.01" y="297.00">+</text>
<text x="70.48" y="140.23">.</text>
<text x="177.70" y="347.28">*</text>
<text x="411.97" y="368.18">.</text>
<text x="58.79" y="163.70">.</text>
<text x="228.39" y="58.26">+</text>
<text x="268.28" y="28.90">+</text>
<text x="166.63" y="127.52">.</text>
<text x="420.22" y="249.62">*</text>
<text x="488.23" y="463.99">+</text>
<text x="328.19" y="14.37">+</text>
<text x="62.52" y="148.90">.</text>
<text x="334.39" y="206.08">*</text>
<text x="247.26" y="79.67">.</text>
<text x="367.95" y="292.88">.</text>
<text x="265.53" y="478.67">.</text>
<text x="48.58" y="353.76">+</text>
<text x="96.15" y="278.51">+</text>
<text x="493.76" y="463.00">+</text>
<text x="14.03" y="29.64">+</text>
<text x="307.78" y="265.75">.</text>
<text x="52.54" y="456.64">+</text>
<text x="31.37" y="316.89">+</text>
<text x="259.31" y="273.43">+</text>
<text x="430.98" y="131.43">+</text>
<text x="360.87" y="414.64">+</text>
<text x="339.47" y="277.95">+</text>
<text x="474.49" y="105.61">*</text>
<text x="264.91" y="428.83">.</text>
<text x="132.66" y="334.83">+</text>
<text x="428.97" y="387.61">.</text>
<text x="158.18" y="445.84">.</text>
<text x="187.28" y="446.53">+</text>
<text x="61.00" y="288.03">+</text>
<text x="414.70" y="299.21">.</text>
<text x="126.12" y="33.84">+</text>
<text x="167.32" y="213.72">+</text>
<text x="27.19" y="401.33">.</text>
<text x="380.65" y="458.12">+</text>
<text x="78.51" y="396.23">+</text>

</svg>