
<svg viewBox="0 0 500 500" xmlns="http://www.w.org/2000/svg" width="100%" height="100%" style="background-color: #0a0a14; font-family: 'Courier New', Courier, monospace;">
    <style>
        text { fill: #aaa; font-size: 10px; text-anchor: middle; dominant-baseline: middle; }
    </style>
    <text x="210.93" y="7.55">.</text>
<text x="365.04" y="356.39">.</text>
<text x="454.04" y="213.02">.</text>
<text x="61.58" y="260.04">+</text>
<text x="5.87" y="93.61">.</text>
<text x="6.15" y="476.49">.</text>
<text x="143.73" y="296.32">.</text>
<text x="67.98" y="159.34">.</text>
<text x="97.07" y="236.19">.</text>
<text x="256.69" y="476.02">.</text>
<text x="36.06" y="334.32">.</text>
<text x="316.45" y="406.30">+</text>
<text x="431.78" y="125.59">+</text>
<text x="384.42" y="316.26">.</text>
<text x="343.70" y="55.36">+</text>
<text x="270.69" y="205.87">*</text>
<text x="209.63" y="481.33">+</text>
<text x="13.05" y="191.43">+</text>
<text x="418.09" y="403.72">.</text>
<text x="303.19" y="101.70">*</text>
<text x="461.29" y="351.96">+</text>
<text x="357.83" y="482.22">+</text>
<text x="51.31" y="363.06">+</text>
<text x="183.53" y="130.01">.</text>
<text x="424.98" y="83.01">.</text>
<text x="212.50" y="478.41">.</text>
<text x="318.80" y="308.69">+</text>
<text x="56.84" y="98.08">+</text>
<text x="434.34" y="484.85">+</text>
<text x="1.21" y="314.78">+</text>
<text x="174.79" y="201.94">+</text>
<text x="433.15" y="476.23">+</text>
<text x="227.19" y="196.17">.</text>
<text x="370.86" y="87.27">.</text>
<text x="250.08" y="123.81">+</text>
<text x="429.04" y="328.07">*</text>
<text x="102.34" y="340.26">.</text>
<text x="481.93" y="391.40">*</text>
<text x="274.81" y="110.05">.</text>
<text x="76.15" y="456.16">*</text>
<text x="177.11" y="319.82">+</text>
<text x="189.73" y="68.59">.</text>
<text x="430.60" y="338.27">.</text>
<text x="374.15" y="465.60">.</text>
<text x="60.99" y="465.82">+</text>
<text x="310.56" y="144.77">*</text>
<text x="203.04" y="161.67">+</text>
<text x="430.12" y="476.15">.</text>
<text x="348.40" y="126.16">+</text>
<text x="53.44" y="131.65">+</text>
<text x="250.80" y="108.14">.</text>
<text x="415.23" y="489.98">+</text>
<text x="134.57" y="108.88">+</text>
<text x="462.78" y="41.22">*</text>
<text x="265.03" y="211.41">.</text>
<text x="138.02" y="85.53">+</text>
<text x="448.29" y="485.29">.</text>
<text x="343.07" y="228.28">+</text>
<text x="230.60" y="427.66">*</text>
<text x="62.79" y="240.40">*</text>
<text x="450.27" y="146.97">*</text>
<text x="47.25" y="68.68">+</text>
<text x="105.18" y="43.16">.</text>
<text x="272.72" y="87.71">.</text>
<text x="461.86" y="470.30">.</text>
<text x="53.17" y="390.78">.</text>
<text x="366.89" y="393.93">*</text>
<text x="281.01" y="260.61">.</text>
<text x="16.89" y="97.46">+</text>
<text x="357.46" y="215.85">.</text>
<text x="267.66" y="380.32">.</text>
<text x="415.01" y="354.51">.</text>
<text x="145.25" y="357.50">+</text>
<text x="144.18" y="276.46">+</text>
<text x="118.85" y="39.86">+</text>
<text x="389.69" y="337.29">.</text>
<text x="277.95" y="23.98">+</text>
<text x="20.99" y="122.73">.</text>
<text x="133.83" y="71.19">+</text>
<text x="109.89" y="349.91">+</text>
<text x="437.33" y="148.80">.</text>
<text x="246.63" y="407.25">*</text>
<text x="253.76" y="12.28">+</text>
<text x="283.19" y="73.21">*</text>
<text x="163.93" y="244.95">+</text>
<text x="491.65" y="207.50">.</text>
<text x="151.03" y="51.81">+</text>
<text x="364.25" y="274.51">+</text>
<text x="467.22" y="188.29">+</text>
<text x="473.95" y="456.59">+</text>
<text x="146.91" y="425.56">.</text>
<text x="455.76" y="178.03">.</text>
<text x="174.29" y="312.51">.</text>
<text x="269.57" y="307.21">*</text>
<text x="209.25" y="326.45">.</text>
<text x="239.77" y="120.38">+</text>
<text x="266.18" y="164.55">.</text>
<text x="251.00" y="298.05">.</text>
<text x="218.60" y="473.16">+</text>
<text x="306.57" y="404.71">+</text>
<text x="185.64" y="189.80">*</text>
<text x="45.66" y="334.80">+</text>
<text x="123.75" y="493.24">.</text>
<text x="438.92" y="22.64">.</text>
<text x="368.41" y="198.32">+</text>
<text x="235.94" y="52.12">+</text>
<text x="249.39" y="413.67">.</text>
<text x="260.35" y="2.10">*</text>
<text x="224.26" y="484.11">.</text>
<text x="248.05" y="163.15">.</text>
<text x="66.34" y="139.51">+</text>
<text x="448.40" y="34.13">+</text>
<text x="229.31" y="335.79">+</text>
<text x="18.95" y="419.22">.</text>
<text x="96.70" y="165.38">*</text>
<text x="393.48" y="219.52">.</text>
<text x="256.26" y="442.73">+</text>
<text x="233.42" y="48.05">.</text>
<text x="381.60" y="194.27">.</text>
<text x="170.54" y="204.38">*</text>
<text x="147.09" y="286.86">.</text>
<text x="195.54" y="12.09">.</text>
<text x="47.00" y="189.66">+</text>
<text x="407.85" y="56.56">+</text>
<text x="151.44" y="412.56">+</text>
<text x="397.85" y="438.05">+</text>
<text x="158.93" y="233.79">+</text>
<text x="229.93" y="334.48">+</text>
<text x="96.27" y="116.83">*</text>
<text x="451.25" y="363.46">+</text>
<text x="43.37" y="39.17">*</text>
<text x="183.77" y="417.23">+</text>
<text x="458.54" y="482.75">+</text>
<text x="25.16" y="226.21">+</text>
<text x="402.12" y="460.84">.</text>
<text x="459.61" y="477.48">+</text>
<text x="152.21" y="336.23">.</text>
<text x="265.98" y="396.06">.</text>
<text x="445.09" y="460.62">+</text>
<text x="96.04" y="165.78">.</text>
<text x="255.34" y="388.82">.</text>
<text x="434.60" y="357.80">.</text>
<text x="262.66" y="204.01">+</text>
<text x="79.66" y="381.11">.</text>
<text x="264.63" y="0.11">+</text>
<text x="251.65" y="59.91">.</text>
<text x="313.94" y="423.09">*</text>
<text x="214.59" y="154.70">.</text>
<text x="229.17" y="344.79">.</text>
<text x="59.64" y="204.63">+</text>
<text x="182.97" y="83.01">*</text>
<text x="47.77" y="92.25">+</text>
<text x="470.68" y="24.30">*</text>
<text x="211.74" y="482.11">.</text>
<text x="326.23" y="68.71">*</text>
<text x="230.44" y="353.13">.</text>
<text x="222.39" y="42.66">+</text>
<text x="77.87" y="53.99">+</text>
<text x="196.59" y="173.27">+</text>
<text x="256.77" y="222.86">.</text>
<text x="417.97" y="482.81">+</text>
<text x="392.56" y="410.05">+</text>
<text x="442.78" y="300.54">+</text>
<text x="260.06" y="346.11">.</text>
<text x="369.19" y="131.45">+</text>
<text x="417.09" y="263.82">+</text>
<text x="390.98" y="240.48">*</text>
<text x="323.11" y="158.27">.</text>
<text x="280.74" y="82.52">.</text>
<text x="223.12" y="390.96">+</text>
<text x="244.50" y="261.62">.</text>
<text x="202.84" y="365.77">+</text>
<text x="378.28" y="150.25">.</text>
<text x="460.19" y="71.63">+</text>
<text x="78.77" y="152.17">.</text>
<text x="212.94" y="498.09">+</text>
<text x="44.75" y="191.12">.</text>
<text x="155.00" y="304.23">+</text>
<text x="108.40" y="427.50">+</text>
<text x="213.09" y="307.45">+</text>
<text x="342.38" y="5.72">.</text>
<text x="127.24" y="239.82">.</text>
<text x="213.72" y="84.38">.</text>
<text x="130.95" y="197.57">+</text>
<text x="176.00" y="324.35">.</text>
<text x="333.22" y="28.81">.</text>
<text x="442.64" y="185.25">+</text>
<text x="392.24" y="295.93">*</text>
<text x="177.27" y="244.20">*</text>
<text x="438.29" y="24.56">+</text>
<text x="59.29" y="309.47">.</text>
<text x="10.62" y="449.51">*</text>
<text x="412.53" y="447.97">.</text>
<text x="407.14" y="83.44">+</text>
<text x="169.48" y="36.63">.</text>
<text x="354.82" y="370.02">.</text>
<text x="358.58" y="166.80">+</text>
<text x="206.52" y="214.82">+</text>
<text x="351.84" y="341.08">.</text>
<text x="490.22" y="193.82">.</text>
<text x="446.80" y="292.87">+</text>
<text x="147.05" y="286.50">*</text>
<text x="185.32" y="338.35">.</text>
<text x="319.76" y="118.79">*</text>
<text x="7.63" y="59.35">*</text>
<text x="145.97" y="134.66">.</text>
<text x="8.00" y="318.59">+</text>
<text x="277.14" y="374.60">+</text>
<text x="390.63" y="187.35">+</text>
<text x="385.60" y="81.88">+</text>
<text x="155.69" y="451.16">*</text>
<text x="158.10" y="439.13">+</text>
<text x="287.54" y="418.38">+</text>
<text x="298.12" y="11.82">.</text>
<text x="409.19" y="250.30">*</text>
<text x="434.45" y="448.86">+</text>
<text x="223.51" y="339.38">.</text>
<text x="426.14" y="29.09">+</text>

</svg>