
<svg viewBox="0 0 500 500" xmlns="http://www.w.org/2000/svg" width="100%" height="100%" style="background-color: #0a0a14; font-family: 'Courier New', Courier, monospace;">
    <style>
        text { fill: #aaa; font-size: 10px; text-anchor: middle; dominant-baseline: middle; }
    </style>
    <text x="342.54" y="200.24">.</text>
<text x="249.24" y="17.61">.</text>
<text x="77.62" y="82.55">.</text>
<text x="102.59" y="361.30">.</text>
<text x="442.37" y="252.26">.</text>
<text x="39.94" y="275.03">+</text>
<text x="266.18" y="207.06">+</text>
<text x="303.17" y="310.14">.</text>
<text x="152.23" y="5.86">*</text>
<text x="90.94" y="66.34">+</text>
<text x="272.78" y="288.45">+</text>
<text x="334.73" y="4.35">.</text>
<text x="40.53" y="459.33">+</text>
<text x="17.34" y="308.65">+</text>
<text x="272.12" y="31.80">.</text>
<text x="485.93" y="435.08">.</text>
<text x="268.90" y="360.34">.</text>
<text x="86.32" y="87.30">+</text>
<text x="430.33" y="70.63">.</text>
<text x="204.09" y="115.63">+</text>
<text x="306.64" y="354.74">+</text>
<text x="122.80" y="464.43">.</text>
<text x="463.31" y="2.75">*</text>
<text x="164.27" y="246.93">+</text>
<text x="274.17" y="349.51">.</text>
<text x="226.20" y="463.22">.</text>
<text x="365.14" y="338.19">+</text>
<text x="272.28" y="348.46">+</text>
<text x="29.19" y="201.10">+</text>
<text x="409.33" y="298.16">.</text>
<text x="101.53" y="274.89">+</text>
<text x="117.92" y="382.25">.</text>
<text x="24.16" y="206.09">+</text>
<text x="179.25" y="202.47">*</text>
<text x="439.11" y="216.35">.</text>
<text x="159.35" y="420.30">+</text>
<text x="123.37" y="406.17">*</text>
<text x="376.99" y="369.84">.</text>
<text x="166.98" y="48.99">.</text>
<text x="479.98" y="224.99">+</text>
<text x="409.72" y="224.10">.</text>
<text x="415.11" y="152.78">.</text>
<text x="225.15" y="106.00">.</text>
<text x="8.31" y="295.85">+</text>
<text x="446.38" y="326.08">*</text>
<text x="191.34" y="485.29">.</text>
<text x="249.90" y="1.52">+</text>
<text x="87.47" y="228.86">*</text>
<text x="194.59" y="371.29">+</text>
<text x="338.32" y="289.86">*</text>
<text x="343.62" y="276.37">+</text>
<text x="80.82" y="469.22">+</text>
<text x="424.91" y="440.45">+</text>
<text x="212.97" y="83.96">+</text>
<text x="173.16" y="351.89">+</text>
<text x="466.15" y="156.72">+</text>
<text x="329.74" y="309.39">+</text>
<text x="36.98" y="193.01">+</text>
<text x="337.40" y="464.99">+</text>
<text x="76.75" y="395.00">+</text>
<text x="397.73" y="392.77">.</text>
<text x="179.93" y="144.86">+</text>
<text x="469.91" y="47.93">.</text>
<text x="439.16" y="26.46">.</text>
<text x="426.13" y="206.88">*</text>
<text x="342.81" y="4.01">.</text>
<text x="27.98" y="194.62">+</text>
<text x="410.96" y="97.63">.</text>
<text x="372.32" y="339.38">.</text>
<text x="452.92" y="58.64">+</text>
<text x="471.29" y="341.51">+</text>
<text x="387.54" y="114.57">.</text>
<text x="324.33" y="405.04">+</text>
<text x="251.94" y="153.84">*</text>
<text x="350.80" y="356.11">.</text>
<text x="337.24" y="146.97">+</text>
<text x="50.13" y="477.48">+</text>
<text x="15.32" y="18.57">.</text>
<text x="54.16" y="77.81">.</text>
<text x="464.15" y="4.66">.</text>
<text x="213.61" y="14.30">.</text>
<text x="38.49" y="226.75">.</text>
<text x="325.14" y="174.52">.</text>
<text x="332.51" y="143.16">.</text>
<text x="205.81" y="482.03">.</text>
<text x="423.29" y="10.49">.</text>
<text x="381.01" y="218.40">+</text>
<text x="293.19" y="290.26">.</text>
<text x="447.43" y="256.24">*</text>
<text x="360.69" y="488.09">+</text>
<text x="65.22" y="108.99">*</text>
<text x="317.91" y="17.08">+</text>
<text x="276.54" y="95.35">+</text>
<text x="394.43" y="366.81">*</text>
<text x="174.73" y="2.17">+</text>
<text x="180.18" y="20.44">*</text>
<text x="384.46" y="430.02">*</text>
<text x="242.10" y="399.35">+</text>
<text x="119.80" y="203.86">+</text>
<text x="385.44" y="440.77">.</text>
<text x="16.53" y="397.58">.</text>
<text x="435.92" y="330.55">.</text>
<text x="289.12" y="216.52">*</text>
<text x="279.24" y="214.36">+</text>
<text x="231.53" y="153.58">+</text>
<text x="379.19" y="71.83">+</text>
<text x="448.94" y="132.07">.</text>
<text x="159.71" y="411.66">.</text>
<text x="174.35" y="34.10">+</text>
<text x="368.08" y="60.98">.</text>
<text x="116.50" y="26.47">.</text>
<text x="107.58" y="367.02">.</text>
<text x="391.27" y="148.27">.</text>
<text x="101.62" y="320.52">+</text>
<text x="399.78" y="322.93">+</text>
<text x="384.64" y="51.96">.</text>
<text x="396.28" y="304.05">.</text>
<text x="390.42" y="67.58">+</text>
<text x="331.50" y="337.13">+</text>
<text x="334.34" y="492.54">+</text>
<text x="95.71" y="84.85">.</text>
<text x="137.17" y="315.86">.</text>
<text x="103.30" y="341.67">.</text>
<text x="411.60" y="305.59">+</text>
<text x="82.61" y="300.43">.</text>
<text x="380.32" y="281.94">*</text>
<text x="408.88" y="47.80">.</text>
<text x="106.36" y="117.48">.</text>
<text x="402.78" y="313.95">.</text>
<text x="15.83" y="107.99">.</text>
<text x="336.77" y="373.39">+</text>
<text x="382.41" y="498.43">.</text>
<text x="77.00" y="77.45">.</text>
<text x="338.25" y="339.47">*</text>
<text x="297.89" y="441.41">+</text>
<text x="56.27" y="291.35">+</text>
<text x="198.02" y="303.25">.</text>
<text x="321.99" y="197.27">+</text>
<text x="254.92" y="132.86">.</text>
<text x="346.75" y="457.74">.</text>
<text x="83.17" y="222.40">+</text>
<text x="331.08" y="449.53">+</text>
<text x="395.42" y="277.29">.</text>
<text x="341.95" y="95.95">*</text>
<text x="136.10" y="434.42">.</text>
<text x="170.18" y="345.59">.</text>
<text x="305.70" y="141.70">.</text>
<text x="234.94" y="268.90">.</text>
<text x="72.51" y="390.17">.</text>
<text x="277.70" y="17.29">.</text>
<text x="475.36" y="75.64">.</text>
<text x="268.21" y="9.98">+</text>
<text x="252.02" y="420.20">.</text>
<text x="486.20" y="317.47">+</text>
<text x="254.60" y="172.55">+</text>
<text x="406.84" y="185.61">+</text>
<text x="82.92" y="313.87">+</text>
<text x="4.55" y="359.47">+</text>
<text x="480.04" y="79.79">+</text>
<text x="439.53" y="109.41">.</text>
<text x="31.31" y="441.60">+</text>
<text x="30.19" y="497.03">+</text>
<text x="84.87" y="231.93">+</text>
<text x="289.18" y="466.25">*</text>
<text x="331.01" y="227.29">.</text>
<text x="315.86" y="351.79">+</text>
<text x="93.38" y="216.79">.</text>
<text x="113.85" y="137.43">+</text>
<text x="185.75" y="200.39">.</text>
<text x="44.74" y="101.97">.</text>
<text x="282.46" y="365.65">+</text>
<text x="168.49" y="74.95">.</text>
<text x="342.67" y="36.39">.</text>
<text x="221.01" y="266.53">.</text>
<text x="68.12" y="31.72">+</text>
<text x="298.41" y="221.70">+</text>
<text x="124.16" y="451.73">.</text>
<text x="268.51" y="486.37">+</text>
<text x="362.40" y="341.32">.</text>
<text x="267.96" y="88.46">.</text>
<text x="155.17" y="136.79">.</text>
<text x="193.80" y="133.57">+</text>
<text x="408.84" y="131.22">.</text>
<text x="154.85" y="448.26">*</text>
<text x="14.37" y="23.59">.</text>
<text x="70.55" y="107.41">+</text>
<text x="34.97" y="35.47">+</text>
<text x="175.05" y="39.88">.</text>
<text x="141.11" y="475.10">+</text>
<text x="178.50" y="81.79">*</text>
<text x="148.62" y="366.51">+</text>
<text x="375.28" y="129.49">.</text>
<text x="295.17" y="46.86">+</text>
<text x="176.86" y="386.62">.</text>
<text x="371.42" y="227.81">*</text>
<text x="264.08" y="288.85">*</text>
<text x="296.38" y="186.68">.</text>
<text x="58.68" y="261.41">+</text>
<text x="473.44" y="301.39">+</text>
<text x="208.71" y="228.42">*</text>
<text x="333.88" y="305.43">*</text>
<text x="386.34" y="467.78">+</text>
<text x="321.48" y="413.93">.</text>
<text x="253.29" y="214.18">+</text>
<text x="326.65" y="415.85">.</text>
<text x="430.34" y="278.34">+</text>
<text x="269.03" y="353.39">.</text>
<text x="261.66" y="130.23">.</text>
<text x="320.21" y="137.26">.</text>
<text x="390.92" y="408.74">.</text>
<text x="218.35" y="352.58">+</text>
<text x="445.12" y="378.41">.</text>
<text x="31.52" y="277.77">.</text>
<text x="425.70" y="16.42">+</text>
<text x="338.25" y="329.14">*</text>
<text x="116.99" y="427.96">+</text>
<text x="114.86" y="202.06">.</text>

</svg>