
<svg viewBox="0 0 500 500" xmlns="http://www.w.org/2000/svg" width="100%" height="100%" style="background-color: #0a0a14; font-family: 'Courier New', Courier, monospace;">
    <style>
        text { fill: #aaa; font-size: 10px; text-anchor: middle; dominant-baseline: middle; }
    </style>
    <text x="353.83" y="313.83">+</text>
<text x="437.99" y="304.73">.</text>
<text x="136.83" y="272.10">.</text>
<text x="423.12" y="85.16">*</text>
<text x="218.34" y="74.91">.</text>
<text x="317.21" y="373.81">.</text>
<text x="441.57" y="50.89">+</text>
<text x="329.28" y="35.91">*</text>
<text x="381.25" y="4.79">.</text>
<text x="180.27" y="169.29">+</text>
<text x="443.59" y="368.44">*</text>
<text x="197.38" y="44.34">.</text>
<text x="238.80" y="132.58">+</text>
<text x="201.72" y="306.02">+</text>
<text x="0.78" y="498.70">.</text>
<text x="411.59" y="358.65">.</text>
<text x="337.13" y="347.74">*</text>
<text x="224.20" y="425.57">+</text>
<text x="489.62" y="170.30">.</text>
<text x="217.71" y="402.19">.</text>
<text x="91.81" y="404.07">+</text>
<text x="115.21" y="144.13">+</text>
<text x="481.32" y="382.46">*</text>
<text x="18.95" y="347.15">+</text>
<text x="293.57" y="265.62">.</text>
<text x="123.84" y="9.62">.</text>
<text x="54.89" y="193.43">+</text>
<text x="256.03" y="351.24">*</text>
<text x="436.17" y="266.08">.</text>
<text x="384.45" y="354.33">.</text>
<text x="40.17" y="235.85">+</text>
<text x="259.19" y="80.20">+</text>
<text x="62.04" y="475.43">.</text>
<text x="368.33" y="11.31">+</text>
<text x="357.32" y="220.73">.</text>
<text x="152.10" y="455.23">*</text>
<text x="165.22" y="4.12">+</text>
<text x="354.33" y="103.59">.</text>
<text x="384.78" y="257.65">.</text>
<text x="283.86" y="302.43">.</text>
<text x="230.29" y="277.44">+</text>
<text x="475.66" y="158.67">+</text>
<text x="367.78" y="89.94">.</text>
<text x="191.10" y="188.55">*</text>
<text x="316.98" y="279.61">.</text>
<text x="455.96" y="62.79">+</text>
<text x="196.99" y="190.44">*</text>
<text x="424.64" y="311.04">+</text>
<text x="199.07" y="251.28">*</text>
<text x="426.03" y="255.47">+</text>
<text x="157.92" y="154.34">*</text>
<text x="89.23" y="18.49">.</text>
<text x="288.85" y="442.38">+</text>
<text x="125.58" y="295.71">*</text>
<text x="391.40" y="443.60">+</text>
<text x="468.35" y="242.43">+</text>
<text x="6.44" y="440.69">.</text>
<text x="203.23" y="453.86">*</text>
<text x="39.32" y="135.26">*</text>
<text x="158.14" y="367.24">+</text>
<text x="142.91" y="236.81">*</text>
<text x="257.64" y="85.57">.</text>
<text x="294.01" y="9.68">.</text>
<text x="470.31" y="391.79">+</text>
<text x="125.62" y="378.30">+</text>
<text x="378.02" y="96.67">+</text>
<text x="265.84" y="329.10">.</text>
<text x="364.87" y="454.58">*</text>
<text x="89.74" y="353.73">.</text>
<text x="340.84" y="163.65">.</text>
<text x="350.17" y="109.79">*</text>
<text x="229.08" y="39.90">.</text>
<text x="55.72" y="270.80">+</text>
<text x="54.71" y="245.01">+</text>
<text x="287.83" y="54.31">+</text>
<text x="236.80" y="470.75">+</text>
<text x="455.47" y="384.93">.</text>
<text x="204.31" y="55.66">.</text>
<text x="198.64" y="378.76">.</text>
<text x="12.41" y="349.97">*</text>
<text x="318.34" y="58.06">+</text>
<text x="84.79" y="300.54">.</text>
<text x="303.61" y="259.28">+</text>
<text x="313.62" y="290.35">+</text>
<text x="114.32" y="199.15">*</text>
<text x="192.80" y="284.57">.</text>
<text x="64.35" y="138.98">.</text>
<text x="177.47" y="305.84">+</text>
<text x="118.77" y="300.44">+</text>
<text x="300.28" y="470.01">.</text>
<text x="303.16" y="79.89">.</text>
<text x="48.50" y="32.51">.</text>
<text x="320.03" y="490.93">*</text>
<text x="114.31" y="117.34">.</text>
<text x="498.96" y="227.54">.</text>
<text x="95.32" y="454.72">.</text>
<text x="388.26" y="480.61">.</text>
<text x="311.92" y="204.10">+</text>
<text x="25.95" y="335.18">.</text>
<text x="105.48" y="302.90">+</text>
<text x="438.73" y="111.88">+</text>
<text x="206.02" y="485.92">+</text>
<text x="319.66" y="293.80">+</text>
<text x="404.64" y="41.99">+</text>
<text x="11.89" y="343.76">+</text>
<text x="456.34" y="126.79">.</text>
<text x="135.43" y="89.64">.</text>
<text x="320.59" y="269.72">+</text>
<text x="470.45" y="196.89">+</text>
<text x="135.57" y="451.44">*</text>
<text x="340.95" y="218.94">.</text>
<text x="435.98" y="199.31">+</text>
<text x="28.93" y="238.70">.</text>
<text x="44.06" y="438.71">.</text>
<text x="486.82" y="477.30">*</text>
<text x="38.14" y="20.97">.</text>
<text x="247.01" y="401.54">*</text>
<text x="184.67" y="336.28">.</text>
<text x="177.23" y="413.36">+</text>
<text x="50.27" y="238.52">.</text>
<text x="465.43" y="441.77">+</text>
<text x="322.38" y="170.62">.</text>
<text x="340.41" y="23.19">.</text>
<text x="302.90" y="272.93">.</text>
<text x="299.81" y="55.66">.</text>
<text x="344.13" y="400.23">.</text>
<text x="271.05" y="422.48">+</text>
<text x="96.21" y="419.44">.</text>
<text x="374.41" y="394.85">*</text>
<text x="488.21" y="47.79">*</text>
<text x="262.25" y="150.38">+</text>
<text x="405.54" y="259.05">+</text>
<text x="219.92" y="49.63">*</text>
<text x="129.63" y="178.27">.</text>
<text x="214.48" y="235.15">+</text>
<text x="231.79" y="360.48">.</text>
<text x="72.80" y="367.65">+</text>
<text x="229.89" y="432.45">.</text>
<text x="83.39" y="465.84">.</text>
<text x="183.52" y="87.84">+</text>
<text x="179.04" y="4.01">.</text>
<text x="179.01" y="110.39">*</text>
<text x="64.44" y="255.08">+</text>
<text x="166.95" y="114.88">.</text>
<text x="313.03" y="97.69">.</text>
<text x="474.94" y="416.02">+</text>
<text x="273.58" y="332.05">.</text>
<text x="425.84" y="418.72">.</text>
<text x="426.46" y="48.14">.</text>
<text x="294.65" y="414.05">+</text>
<text x="61.53" y="236.43">.</text>
<text x="408.69" y="148.41">*</text>
<text x="434.15" y="196.17">.</text>
<text x="399.30" y="337.83">+</text>
<text x="207.11" y="202.22">+</text>
<text x="2.48" y="27.07">.</text>
<text x="160.46" y="379.49">+</text>
<text x="454.86" y="85.70">.</text>
<text x="189.97" y="259.84">.</text>
<text x="35.17" y="12.02">.</text>
<text x="415.47" y="165.19">+</text>
<text x="402.19" y="462.92">+</text>
<text x="303.63" y="271.61">.</text>
<text x="165.89" y="173.61">.</text>
<text x="403.46" y="113.96">.</text>
<text x="183.11" y="79.00">.</text>
<text x="246.03" y="449.19">*</text>
<text x="122.05" y="312.69">.</text>
<text x="157.24" y="75.78">+</text>
<text x="490.62" y="174.80">*</text>
<text x="13.69" y="296.64">+</text>
<text x="226.31" y="331.42">.</text>
<text x="315.92" y="374.71">.</text>
<text x="344.69" y="412.21">.</text>
<text x="360.97" y="353.87">+</text>
<text x="293.97" y="84.35">.</text>
<text x="181.47" y="164.22">.</text>
<text x="407.21" y="40.51">.</text>
<text x="53.54" y="467.19">+</text>
<text x="234.09" y="240.52">.</text>
<text x="200.59" y="285.04">.</text>
<text x="300.34" y="30.56">.</text>
<text x="252.14" y="332.15">+</text>
<text x="159.89" y="214.68">.</text>
<text x="182.56" y="487.78">.</text>
<text x="275.87" y="398.31">+</text>
<text x="444.42" y="327.11">*</text>
<text x="345.50" y="386.65">*</text>
<text x="243.03" y="240.36">.</text>
<text x="158.95" y="27.77">+</text>
<text x="99.31" y="336.75">*</text>
<text x="146.17" y="291.30">.</text>
<text x="480.80" y="169.43">.</text>
<text x="59.78" y="170.79">.</text>
<text x="131.11" y="149.33">*</text>
<text x="66.03" y="443.66">.</text>
<text x="480.79" y="349.71">+</text>
<text x="465.21" y="28.69">.</text>
<text x="170.60" y="249.74">+</text>
<text x="86.55" y="486.55">+</text>
<text x="186.07" y="394.15">+</text>
<text x="420.59" y="124.62">+</text>
<text x="338.04" y="83.35">.</text>
<text x="407.94" y="369.14">+</text>
<text x="192.25" y="453.03">.</text>
<text x="330.76" y="177.94">.</text>
<text x="201.71" y="106.02">.</text>
<text x="283.92" y="418.59">+</text>
<text x="5.73" y="275.85">.</text>
<text x="367.86" y="342.30">+</text>
<text x="257.47" y="248.61">+</text>
<text x="434.62" y="85.45">+</text>
<text x="356.21" y="418.14">+</text>
<text x="32.87" y="349.46">.</text>
<text x="356.34" y="308.80">+</text>

</svg>