
<svg viewBox="0 0 500 500" xmlns="http://www.w.org/2000/svg" width="100%" height="100%" style="background-color: #0a0a14; font-family: 'Courier New', Courier, monospace;">
    <style>
        text { fill: #aaa; font-size: 10px; text-anchor: middle; dominant-baseline: middle; }
    </style>
    <text x="337.44" y="92.64">*</text>
<text x="477.77" y="464.10">.</text>
<text x="390.57" y="427.53">*</text>
<text x="77.26" y="422.34">+</text>
<text x="258.19" y="55.44">*</text>
<text x="365.59" y="411.33">.</text>
<text x="496.63" y="340.80">.</text>
<text x="285.61" y="33.89">+</text>
<text x="410.50" y="457.72">+</text>
<text x="491.59" y="326.84">.</text>
<text x="372.85" y="265.22">.</text>
<text x="299.37" y="363.05">.</text>
<text x="275.08" y="114.99">*</text>
<text x="460.32" y="266.64">.</text>
<text x="478.51" y="314.71">+</text>
<text x="10.05" y="20.79">.</text>
<text x="82.80" y="355.79">.</text>
<text x="274.62" y="36.99">.</text>
<text x="492.97" y="171.72">.</text>
<text x="407.95" y="0.18">.</text>
<text x="430.29" y="278.91">*</text>
<text x="7.55" y="75.87">.</text>
<text x="266.84" y="192.27">.</text>
<text x="43.65" y="70.37">+</text>
<text x="482.80" y="108.86">.</text>
<text x="477.00" y="435.14">+</text>
<text x="496.64" y="337.27">+</text>
<text x="104.83" y="331.82">.</text>
<text x="143.07" y="382.12">*</text>
<text x="234.95" y="167.44">+</text>
<text x="98.23" y="199.25">+</text>
<text x="106.23" y="343.13">+</text>
<text x="464.62" y="325.08">+</text>
<text x="111.10" y="491.80">+</text>
<text x="318.24" y="395.99">+</text>
<text x="358.60" y="117.21">+</text>
<text x="55.09" y="159.58">+</text>
<text x="492.83" y="251.12">.</text>
<text x="402.01" y="392.81">+</text>
<text x="16.05" y="498.06">+</text>
<text x="159.52" y="180.86">*</text>
<text x="64.30" y="83.57">+</text>
<text x="347.07" y="227.50">.</text>
<text x="483.84" y="395.45">.</text>
<text x="18.89" y="477.27">.</text>
<text x="218.02" y="496.06">*</text>
<text x="0.32" y="317.63">.</text>
<text x="370.29" y="335.08">.</text>
<text x="323.89" y="159.96">.</text>
<text x="210.53" y="445.47">+</text>
<text x="218.73" y="102.54">*</text>
<text x="173.53" y="419.93">.</text>
<text x="238.91" y="475.96">.</text>
<text x="306.20" y="252.72">.</text>
<text x="180.59" y="467.99">+</text>
<text x="348.71" y="169.76">*</text>
<text x="288.52" y="152.85">.</text>
<text x="408.78" y="40.70">+</text>
<text x="303.54" y="390.14">.</text>
<text x="298.71" y="252.18">+</text>
<text x="60.78" y="355.91">+</text>
<text x="212.07" y="171.69">+</text>
<text x="8.03" y="242.77">+</text>
<text x="49.81" y="443.37">+</text>
<text x="94.08" y="17.79">.</text>
<text x="468.65" y="163.16">.</text>
<text x="57.66" y="101.51">.</text>
<text x="288.81" y="472.10">*</text>
<text x="209.03" y="140.32">+</text>
<text x="179.94" y="363.52">+</text>
<text x="260.47" y="447.11">+</text>
<text x="274.20" y="8.08">+</text>
<text x="358.36" y="105.34">+</text>
<text x="74.20" y="5.91">*</text>
<text x="46.30" y="3.82">.</text>
<text x="339.29" y="7.95">+</text>
<text x="375.88" y="134.18">+</text>
<text x="156.11" y="401.53">*</text>
<text x="478.33" y="221.90">+</text>
<text x="489.25" y="456.50">+</text>
<text x="89.29" y="389.77">+</text>
<text x="238.43" y="327.87">.</text>
<text x="310.05" y="378.51">+</text>
<text x="391.07" y="372.62">*</text>
<text x="260.29" y="52.90">*</text>
<text x="422.03" y="130.58">.</text>
<text x="309.29" y="490.38">.</text>
<text x="291.95" y="358.01">.</text>
<text x="86.76" y="107.16">+</text>
<text x="422.13" y="12.59">.</text>
<text x="249.22" y="244.54">+</text>
<text x="318.58" y="378.39">+</text>
<text x="242.16" y="376.26">.</text>
<text x="381.59" y="315.41">+</text>
<text x="387.21" y="468.21">*</text>
<text x="11.46" y="195.51">.</text>
<text x="32.73" y="42.44">.</text>
<text x="46.24" y="238.71">.</text>
<text x="203.92" y="424.20">+</text>
<text x="137.29" y="57.63">.</text>
<text x="61.46" y="430.11">.</text>
<text x="237.27" y="258.58">+</text>
<text x="449.35" y="406.89">+</text>
<text x="332.43" y="446.42">.</text>
<text x="80.73" y="133.94">.</text>
<text x="50.65" y="98.54">+</text>
<text x="75.60" y="284.22">.</text>
<text x="11.40" y="280.16">+</text>
<text x="217.92" y="181.57">.</text>
<text x="208.84" y="29.70">.</text>
<text x="386.79" y="383.18">.</text>
<text x="43.66" y="302.08">.</text>
<text x="385.90" y="142.48">+</text>
<text x="209.85" y="191.55">.</text>
<text x="349.64" y="154.10">.</text>
<text x="76.25" y="356.46">.</text>
<text x="374.76" y="392.81">*</text>
<text x="363.91" y="369.83">.</text>
<text x="118.04" y="398.02">.</text>
<text x="161.12" y="200.94">*</text>
<text x="115.60" y="463.32">.</text>
<text x="83.38" y="230.11">+</text>
<text x="195.54" y="166.24">*</text>
<text x="245.35" y="256.81">+</text>
<text x="334.38" y="344.31">.</text>
<text x="401.74" y="283.27">+</text>
<text x="134.41" y="327.54">+</text>
<text x="392.55" y="351.76">+</text>
<text x="287.65" y="17.72">.</text>
<text x="286.79" y="184.85">+</text>
<text x="439.61" y="343.21">.</text>
<text x="87.59" y="154.08">.</text>
<text x="67.10" y="372.28">+</text>
<text x="455.42" y="221.21">+</text>
<text x="272.11" y="309.82">*</text>
<text x="30.08" y="256.99">.</text>
<text x="241.33" y="442.67">*</text>
<text x="89.27" y="115.65">+</text>
<text x="237.10" y="158.31">.</text>
<text x="383.06" y="133.99">*</text>
<text x="398.46" y="221.18">*</text>
<text x="453.56" y="357.93">.</text>
<text x="268.08" y="151.43">*</text>
<text x="251.34" y="57.31">*</text>
<text x="453.87" y="487.92">+</text>
<text x="452.80" y="261.60">+</text>
<text x="439.33" y="42.20">.</text>
<text x="199.31" y="137.55">+</text>
<text x="491.25" y="408.96">+</text>
<text x="152.74" y="472.19">*</text>
<text x="457.07" y="55.41">.</text>
<text x="3.27" y="361.31">.</text>
<text x="8.19" y="210.66">.</text>
<text x="197.98" y="378.90">.</text>
<text x="418.46" y="491.50">+</text>
<text x="235.03" y="80.86">.</text>
<text x="127.33" y="476.40">.</text>
<text x="489.07" y="370.88">.</text>
<text x="407.78" y="392.74">*</text>
<text x="29.81" y="401.28">.</text>
<text x="60.31" y="482.46">+</text>
<text x="385.31" y="441.81">.</text>
<text x="382.67" y="225.39">+</text>
<text x="206.97" y="316.11">.</text>
<text x="319.98" y="311.66">+</text>
<text x="492.18" y="62.15">.</text>
<text x="479.63" y="290.38">+</text>
<text x="386.93" y="283.46">+</text>
<text x="348.71" y="384.62">.</text>
<text x="164.02" y="404.11">+</text>
<text x="117.38" y="357.72">+</text>
<text x="74.72" y="71.00">.</text>
<text x="66.72" y="264.35">.</text>
<text x="485.44" y="39.23">+</text>
<text x="479.35" y="347.40">+</text>
<text x="132.92" y="113.39">+</text>
<text x="26.03" y="379.87">.</text>
<text x="390.24" y="383.63">+</text>
<text x="300.26" y="140.67">*</text>
<text x="249.95" y="42.04">.</text>
<text x="50.89" y="165.67">+</text>
<text x="225.30" y="414.00">+</text>
<text x="349.32" y="126.32">.</text>
<text x="318.88" y="180.24">.</text>
<text x="195.14" y="11.23">*</text>
<text x="98.56" y="238.64">*</text>
<text x="118.28" y="313.61">+</text>
<text x="250.37" y="282.24">+</text>
<text x="219.24" y="380.19">.</text>
<text x="110.01" y="289.12">*</text>
<text x="434.33" y="0.71">+</text>
<text x="458.36" y="51.52">.</text>
<text x="305.11" y="291.99">*</text>
<text x="164.34" y="65.12">.</text>
<text x="97.65" y="402.69">.</text>

</svg>