
<svg viewBox="0 0 500 500" xmlns="http://www.w.org/2000/svg" width="100%" height="100%" style="background-color: #0a0a14; font-family: 'Courier New', Courier, monospace;">
    <style>
        text { fill: #aaa; font-size: 10px; text-anchor: middle; dominant-baseline: middle; }
    </style>
    <text x="95.12" y="116.88">.</text>
<text x="249.11" y="332.30">+</text>
<text x="495.57" y="54.35">.</text>
<text x="380.27" y="180.45">.</text>
<text x="450.22" y="104.52">+</text>
<text x="205.73" y="44.82">+</text>
<text x="433.89" y="25.92">+</text>
<text x="326.34" y="99.33">+</text>
<text x="467.74" y="171.57">.</text>
<text x="103.51" y="412.59">.</text>
<text x="426.09" y="141.30">+</text>
<text x="316.21" y="103.40">+</text>
<text x="30.44" y="225.10">.</text>
<text x="372.37" y="416.98">.</text>
<text x="200.29" y="84.93">.</text>
<text x="242.44" y="254.60">*</text>
<text x="142.42" y="142.39">.</text>
<text x="98.12" y="228.47">.</text>
<text x="213.06" y="493.06">.</text>
<text x="140.25" y="454.65">*</text>
<text x="81.96" y="413.60">.</text>
<text x="219.52" y="7.47">+</text>
<text x="420.79" y="40.95">.</text>
<text x="240.76" y="273.64">+</text>
<text x="420.75" y="282.05">+</text>
<text x="262.63" y="113.09">*</text>
<text x="485.75" y="355.33">+</text>
<text x="239.01" y="303.97">+</text>
<text x="354.96" y="246.95">+</text>
<text x="33.39" y="397.36">.</text>
<text x="356.79" y="134.65">+</text>
<text x="266.74" y="369.90">.</text>
<text x="112.08" y="324.12">.</text>
<text x="267.30" y="97.81">.</text>
<text x="98.86" y="378.96">+</text>
<text x="187.17" y="299.45">.</text>
<text x="422.11" y="384.94">*</text>
<text x="309.45" y="43.44">.</text>
<text x="214.42" y="106.05">+</text>
<text x="44.36" y="452.41">.</text>
<text x="116.11" y="348.40">+</text>
<text x="220.79" y="166.83">.</text>
<text x="129.14" y="356.32">.</text>
<text x="162.93" y="189.91">+</text>
<text x="270.82" y="304.48">.</text>
<text x="172.74" y="263.55">.</text>
<text x="14.30" y="478.67">+</text>
<text x="73.73" y="14.95">+</text>
<text x="283.19" y="344.87">.</text>
<text x="437.60" y="409.58">+</text>
<text x="406.37" y="370.83">+</text>
<text x="271.45" y="75.60">*</text>
<text x="393.44" y="239.03">+</text>
<text x="493.47" y="307.68">*</text>
<text x="382.17" y="379.99">.</text>
<text x="85.11" y="348.91">.</text>
<text x="90.14" y="34.73">.</text>
<text x="362.44" y="400.86">.</text>
<text x="162.28" y="25.74">.</text>
<text x="349.12" y="234.45">+</text>
<text x="498.08" y="359.70">.</text>
<text x="165.15" y="236.84">.</text>
<text x="72.37" y="252.69">*</text>
<text x="302.64" y="353.39">.</text>
<text x="430.03" y="42.45">+</text>
<text x="172.24" y="83.71">.</text>
<text x="203.96" y="152.94">+</text>
<text x="258.31" y="98.76">+</text>
<text x="114.56" y="451.93">+</text>
<text x="449.90" y="170.62">.</text>
<text x="457.53" y="218.75">.</text>
<text x="252.90" y="107.11">+</text>
<text x="461.20" y="466.68">+</text>
<text x="210.76" y="450.23">.</text>
<text x="250.66" y="91.85">+</text>
<text x="2.47" y="226.51">*</text>
<text x="437.36" y="215.39">.</text>
<text x="360.13" y="254.76">.</text>
<text x="108.75" y="202.36">.</text>
<text x="241.81" y="290.75">+</text>
<text x="174.36" y="179.16">.</text>
<text x="394.56" y="442.85">.</text>
<text x="252.12" y="379.67">.</text>
<text x="258.57" y="191.40">.</text>
<text x="209.92" y="138.82">.</text>
<text x="489.46" y="119.16">+</text>
<text x="439.69" y="401.03">.</text>
<text x="163.73" y="57.32">+</text>
<text x="11.06" y="95.88">+</text>
<text x="331.84" y="281.21">.</text>
<text x="326.43" y="174.19">+</text>
<text x="335.39" y="377.09">.</text>
<text x="249.49" y="388.29">.</text>
<text x="395.26" y="380.85">.</text>
<text x="218.47" y="375.19">.</text>
<text x="301.50" y="135.09">+</text>
<text x="11.44" y="203.64">*</text>
<text x="85.13" y="261.20">.</text>
<text x="120.82" y="257.44">.</text>
<text x="217.44" y="446.79">*</text>
<text x="38.76" y="351.69">+</text>
<text x="178.63" y="169.75">.</text>
<text x="307.53" y="346.56">+</text>
<text x="205.47" y="341.61">.</text>
<text x="331.94" y="288.94">.</text>
<text x="203.57" y="437.03">*</text>
<text x="190.88" y="254.43">.</text>
<text x="325.99" y="273.26">+</text>
<text x="75.45" y="311.46">+</text>
<text x="472.99" y="122.41">*</text>
<text x="459.31" y="191.63">+</text>
<text x="259.65" y="52.64">*</text>
<text x="285.81" y="403.35">+</text>
<text x="352.07" y="2.11">.</text>
<text x="183.44" y="494.74">.</text>
<text x="142.97" y="342.68">*</text>
<text x="301.24" y="395.05">.</text>
<text x="325.80" y="472.53">+</text>
<text x="287.23" y="446.78">.</text>
<text x="388.12" y="75.50">*</text>
<text x="427.26" y="388.85">*</text>
<text x="241.81" y="209.72">.</text>
<text x="64.14" y="254.40">.</text>
<text x="293.66" y="478.30">+</text>
<text x="69.68" y="370.25">.</text>
<text x="60.45" y="257.04">+</text>
<text x="44.93" y="50.14">.</text>
<text x="167.86" y="161.25">+</text>
<text x="86.58" y="11.83">*</text>
<text x="77.73" y="100.98">.</text>
<text x="490.16" y="41.62">.</text>
<text x="376.74" y="113.81">*</text>
<text x="110.74" y="130.28">.</text>
<text x="301.41" y="475.36">+</text>
<text x="415.96" y="244.53">.</text>
<text x="252.36" y="197.07">*</text>
<text x="265.26" y="12.87">+</text>
<text x="233.79" y="66.56">.</text>
<text x="208.78" y="79.14">.</text>
<text x="125.62" y="221.11">.</text>
<text x="254.17" y="383.14">+</text>
<text x="235.10" y="237.53">.</text>
<text x="286.86" y="227.38">.</text>
<text x="262.85" y="301.93">+</text>
<text x="33.78" y="432.67">.</text>
<text x="312.86" y="241.11">*</text>
<text x="215.31" y="204.99">+</text>
<text x="245.20" y="227.34">+</text>
<text x="67.15" y="494.69">+</text>
<text x="490.46" y="365.78">*</text>
<text x="392.91" y="409.45">+</text>
<text x="368.02" y="142.19">+</text>
<text x="132.17" y="239.56">.</text>
<text x="188.77" y="351.92">+</text>
<text x="311.03" y="278.60">+</text>
<text x="294.22" y="297.17">+</text>
<text x="116.79" y="193.51">*</text>
<text x="304.98" y="14.85">+</text>
<text x="29.66" y="89.65">.</text>
<text x="97.37" y="343.86">+</text>
<text x="140.03" y="110.10">+</text>
<text x="462.19" y="25.93">+</text>
<text x="111.72" y="145.46">+</text>
<text x="16.72" y="355.62">.</text>
<text x="287.41" y="268.23">.</text>
<text x="473.01" y="431.59">+</text>
<text x="15.91" y="475.98">+</text>
<text x="159.41" y="148.54">+</text>
<text x="251.65" y="274.75">*</text>
<text x="402.53" y="118.30">+</text>
<text x="178.21" y="0.29">+</text>
<text x="346.69" y="413.24">+</text>
<text x="367.89" y="93.46">.</text>
<text x="106.16" y="437.75">*</text>
<text x="128.43" y="409.25">+</text>
<text x="178.70" y="305.40">*</text>
<text x="474.19" y="88.49">+</text>
<text x="362.17" y="24.37">.</text>
<text x="392.58" y="104.04">.</text>
<text x="418.24" y="317.26">+</text>
<text x="395.61" y="99.26">+</text>
<text x="225.28" y="325.43">+</text>
<text x="146.98" y="290.68">.</text>
<text x="49.96" y="371.32">+</text>
<text x="390.31" y="289.48">+</text>
<text x="259.91" y="223.27">+</text>
<text x="385.53" y="19.49">*</text>
<text x="1.80" y="45.25">.</text>
<text x="74.21" y="492.13">+</text>
<text x="370.93" y="410.63">*</text>
<text x="299.36" y="250.55">+</text>
<text x="124.17" y="144.50">.</text>
<text x="489.24" y="27.93">+</text>
<text x="357.40" y="428.21">.</text>
<text x="137.16" y="140.61">+</text>
<text x="325.46" y="5.38">+</text>
<text x="493.91" y="59.98">+</text>
<text x="269.86" y="300.03">.</text>
<text x="136.62" y="173.64">*</text>
<text x="206.69" y="146.16">+</text>
<text x="425.83" y="337.43">+</text>
<text x="308.81" y="140.76">.</text>
<text x="89.82" y="7.40">.</text>
<text x="241.99" y="138.18">.</text>
<text x="495.10" y="375.74">+</text>
<text x="306.33" y="16.14">.</text>
<text x="140.42" y="306.42">+</text>
<text x="40.56" y="347.56">+</text>
<text x="408.72" y="72.22">.</text>
<text x="49.80" y="308.58">+</text>
<text x="437.16" y="96.43">+</text>
<text x="375.88" y="173.95">*</text>
<text x="346.81" y="226.23">+</text>
<text x="200.12" y="492.20">+</text>
<text x="476.76" y="83.95">.</text>
<text x="207.53" y="295.86">+</text>
<text x="346.89" y="191.44">+</text>
<text x="347.97" y="233.95">.</text>
<text x="424.34" y="333.97">+</text>

</svg>