
<svg viewBox="0 0 500 500" xmlns="http://www.w.org/2000/svg" width="100%" height="100%" style="background-color: #0a0a14; font-family: 'Courier New', Courier, monospace;">
    <style>
        text { fill: #aaa; font-size: 10px; text-anchor: middle; dominant-baseline: middle; }
    </style>
    <text x="459.13" y="392.68">*</text>
<text x="414.44" y="446.58">.</text>
<text x="167.86" y="43.64">.</text>
<text x="282.26" y="300.88">.</text>
<text x="409.08" y="227.30">+</text>
<text x="152.65" y="473.79">+</text>
<text x="159.03" y="413.24">*</text>
<text x="148.74" y="325.29">+</text>
<text x="47.27" y="358.71">+</text>
<text x="265.03" y="259.99">.</text>
<text x="211.08" y="58.41">*</text>
<text x="386.77" y="283.79">+</text>
<text x="354.51" y="103.65">+</text>
<text x="221.01" y="11.64">*</text>
<text x="244.61" y="411.19">+</text>
<text x="49.05" y="285.41">.</text>
<text x="88.09" y="370.87">.</text>
<text x="205.79" y="259.76">+</text>
<text x="9.92" y="487.08">+</text>
<text x="183.13" y="79.07">.</text>
<text x="36.12" y="498.63">+</text>
<text x="420.08" y="409.77">.</text>
<text x="302.67" y="312.53">.</text>
<text x="73.80" y="67.46">+</text>
<text x="54.83" y="253.93">+</text>
<text x="424.78" y="399.00">+</text>
<text x="1.35" y="311.54">.</text>
<text x="409.15" y="439.20">*</text>
<text x="228.70" y="231.93">.</text>
<text x="64.02" y="261.62">*</text>
<text x="141.89" y="453.09">.</text>
<text x="422.68" y="185.85">+</text>
<text x="268.31" y="215.56">.</text>
<text x="271.12" y="361.85">.</text>
<text x="206.02" y="269.00">*</text>
<text x="22.55" y="424.83">+</text>
<text x="265.33" y="59.35">.</text>
<text x="270.69" y="426.86">+</text>
<text x="319.74" y="274.89">+</text>
<text x="269.90" y="142.42">+</text>
<text x="15.97" y="47.73">+</text>
<text x="338.30" y="4.86">.</text>
<text x="377.48" y="267.29">*</text>
<text x="432.72" y="297.13">.</text>
<text x="377.90" y="338.35">+</text>
<text x="123.99" y="81.41">.</text>
<text x="43.82" y="220.34">+</text>
<text x="89.33" y="20.20">*</text>
<text x="171.42" y="39.43">.</text>
<text x="342.04" y="467.16">.</text>
<text x="118.76" y="488.29">.</text>
<text x="474.32" y="142.32">+</text>
<text x="57.94" y="469.39">.</text>
<text x="444.52" y="454.98">*</text>
<text x="407.37" y="432.30">+</text>
<text x="174.48" y="170.75">+</text>
<text x="452.28" y="100.46">.</text>
<text x="117.94" y="15.98">+</text>
<text x="239.38" y="4.78">+</text>
<text x="410.69" y="172.57">.</text>
<text x="82.55" y="439.45">*</text>
<text x="483.51" y="68.99">*</text>
<text x="359.36" y="406.36">+</text>
<text x="412.75" y="303.19">+</text>
<text x="263.80" y="354.80">.</text>
<text x="221.22" y="117.70">.</text>
<text x="56.97" y="397.30">+</text>
<text x="5.88" y="108.73">+</text>
<text x="254.67" y="405.67">.</text>
<text x="471.86" y="205.04">*</text>
<text x="384.96" y="442.73">.</text>
<text x="358.90" y="19.28">+</text>
<text x="65.63" y="137.75">.</text>
<text x="170.29" y="443.28">.</text>
<text x="6.78" y="414.87">.</text>
<text x="328.72" y="422.92">+</text>
<text x="191.45" y="125.95">+</text>
<text x="226.67" y="449.58">.</text>
<text x="382.75" y="460.06">+</text>
<text x="55.18" y="185.98">.</text>
<text x="464.37" y="232.47">.</text>
<text x="79.70" y="483.47">+</text>
<text x="203.16" y="447.77">+</text>
<text x="184.10" y="381.38">+</text>
<text x="494.85" y="267.49">+</text>
<text x="351.77" y="86.73">+</text>
<text x="335.85" y="232.68">+</text>
<text x="233.56" y="128.63">+</text>
<text x="7.78" y="358.09">+</text>
<text x="179.05" y="32.30">+</text>
<text x="14.20" y="140.70">+</text>
<text x="123.74" y="311.50">+</text>
<text x="29.11" y="260.91">*</text>
<text x="386.62" y="314.37">.</text>
<text x="122.51" y="163.01">+</text>
<text x="39.52" y="62.93">+</text>
<text x="485.69" y="247.75">.</text>
<text x="58.97" y="323.61">.</text>
<text x="5.52" y="3.61">.</text>
<text x="46.30" y="263.35">.</text>
<text x="413.50" y="391.76">*</text>
<text x="80.03" y="456.29">.</text>
<text x="231.76" y="271.98">+</text>
<text x="349.54" y="325.15">+</text>
<text x="3.49" y="423.48">.</text>
<text x="313.34" y="140.35">.</text>
<text x="219.12" y="354.99">+</text>
<text x="373.88" y="147.49">.</text>
<text x="222.13" y="434.18">.</text>
<text x="470.48" y="401.32">+</text>
<text x="315.42" y="171.06">.</text>
<text x="452.06" y="20.47">+</text>
<text x="321.79" y="442.69">+</text>
<text x="381.51" y="333.61">*</text>
<text x="91.79" y="1.75">.</text>
<text x="498.79" y="304.96">*</text>
<text x="71.34" y="344.37">.</text>
<text x="121.83" y="102.89">+</text>
<text x="211.83" y="66.30">.</text>
<text x="455.48" y="161.66">*</text>
<text x="188.78" y="182.89">.</text>
<text x="315.56" y="267.50">*</text>
<text x="308.32" y="468.87">.</text>
<text x="383.17" y="386.92">+</text>
<text x="172.71" y="399.23">.</text>
<text x="154.97" y="94.07">+</text>
<text x="360.99" y="34.21">+</text>
<text x="209.17" y="183.30">.</text>
<text x="450.09" y="48.67">.</text>
<text x="100.30" y="110.13">*</text>
<text x="121.11" y="21.93">+</text>
<text x="370.47" y="105.65">.</text>
<text x="140.54" y="336.45">.</text>
<text x="352.05" y="115.50">.</text>
<text x="485.09" y="42.39">+</text>
<text x="29.58" y="458.50">+</text>
<text x="332.69" y="428.09">+</text>
<text x="379.33" y="55.35">+</text>
<text x="85.60" y="300.22">.</text>
<text x="360.35" y="301.61">*</text>
<text x="409.58" y="297.77">.</text>
<text x="379.59" y="160.17">+</text>
<text x="456.27" y="468.53">+</text>
<text x="439.69" y="462.33">+</text>
<text x="308.22" y="484.82">+</text>
<text x="122.82" y="109.12">+</text>
<text x="401.54" y="380.71">+</text>
<text x="214.95" y="233.63">.</text>
<text x="154.81" y="352.46">+</text>
<text x="460.78" y="95.20">.</text>
<text x="449.52" y="474.50">.</text>
<text x="289.68" y="51.85">+</text>
<text x="348.65" y="281.90">+</text>
<text x="496.17" y="344.10">*</text>
<text x="262.11" y="185.87">+</text>
<text x="146.24" y="232.39">+</text>
<text x="310.43" y="487.39">.</text>
<text x="245.17" y="67.39">+</text>
<text x="358.70" y="64.86">.</text>
<text x="458.56" y="478.66">*</text>
<text x="345.67" y="8.50">.</text>
<text x="106.03" y="222.72">+</text>
<text x="115.58" y="265.28">.</text>
<text x="300.24" y="434.12">.</text>
<text x="108.82" y="480.87">.</text>
<text x="210.80" y="272.87">+</text>
<text x="270.04" y="487.96">.</text>
<text x="362.94" y="442.13">+</text>
<text x="157.55" y="83.17">.</text>
<text x="393.44" y="361.28">+</text>
<text x="408.28" y="114.53">.</text>
<text x="378.97" y="393.76">+</text>
<text x="460.49" y="2.10">+</text>
<text x="405.47" y="396.25">*</text>
<text x="241.69" y="69.39">*</text>
<text x="246.74" y="414.40">.</text>
<text x="106.98" y="15.57">.</text>
<text x="23.93" y="3.66">+</text>
<text x="27.34" y="67.82">.</text>
<text x="97.75" y="221.57">+</text>
<text x="199.03" y="385.06">.</text>
<text x="244.42" y="2.64">.</text>
<text x="266.98" y="187.89">.</text>
<text x="480.31" y="330.69">.</text>
<text x="153.61" y="171.40">+</text>
<text x="293.57" y="399.97">+</text>
<text x="398.33" y="190.96">+</text>
<text x="361.05" y="357.98">+</text>
<text x="203.22" y="186.02">.</text>
<text x="240.88" y="465.47">.</text>
<text x="120.14" y="224.15">.</text>
<text x="415.00" y="3.76">.</text>
<text x="101.26" y="277.28">.</text>
<text x="470.59" y="108.31">+</text>
<text x="192.15" y="345.98">.</text>
<text x="473.02" y="322.03">.</text>
<text x="477.00" y="246.68">+</text>
<text x="262.35" y="392.43">.</text>
<text x="266.85" y="153.30">.</text>
<text x="38.54" y="274.49">+</text>
<text x="497.92" y="30.30">.</text>
<text x="389.15" y="147.56">.</text>
<text x="354.29" y="354.78">+</text>
<text x="220.00" y="355.96">+</text>
<text x="487.50" y="95.54">.</text>
<text x="272.49" y="184.07">.</text>
<text x="55.29" y="406.91">.</text>
<text x="310.06" y="204.16">.</text>
<text x="381.22" y="373.22">*</text>
<text x="268.37" y="216.63">+</text>
<text x="188.28" y="254.60">.</text>
<text x="162.67" y="116.85">.</text>
<text x="355.49" y="189.71">.</text>
<text x="303.51" y="128.24">.</text>
<text x="235.16" y="395.17">.</text>
<text x="199.62" y="106.34">+</text>
<text x="438.83" y="277.90">.</text>

</svg>