
<svg viewBox="0 0 500 500" xmlns="http://www.w.org/2000/svg" width="100%" height="100%" style="background-color: #0a0a14; font-family: 'Courier New', Courier, monospace;">
    <style>
        text { fill: #aaa; font-size: 10px; text-anchor: middle; dominant-baseline: middle; }
    </style>
    <text x="26.30" y="417.46">+</text>
<text x="461.53" y="456.74">.</text>
<text x="184.09" y="140.61">*</text>
<text x="88.06" y="271.84">*</text>
<text x="419.80" y="498.30">+</text>
<text x="463.81" y="237.94">.</text>
<text x="134.92" y="471.96">.</text>
<text x="352.99" y="256.20">.</text>
<text x="395.56" y="0.23">.</text>
<text x="107.63" y="9.08">.</text>
<text x="450.31" y="103.38">.</text>
<text x="317.70" y="346.28">+</text>
<text x="92.49" y="490.89">.</text>
<text x="66.49" y="242.48">.</text>
<text x="2.00" y="196.30">.</text>
<text x="315.37" y="237.40">+</text>
<text x="398.93" y="189.39">+</text>
<text x="439.31" y="6.82">.</text>
<text x="218.86" y="224.36">+</text>
<text x="439.88" y="238.72">.</text>
<text x="258.39" y="123.97">*</text>
<text x="245.12" y="298.99">.</text>
<text x="219.82" y="240.21">.</text>
<text x="476.07" y="59.38">.</text>
<text x="213.68" y="249.87">*</text>
<text x="234.67" y="138.64">+</text>
<text x="109.63" y="248.05">+</text>
<text x="188.13" y="108.25">+</text>
<text x="415.38" y="262.78">+</text>
<text x="324.83" y="288.66">.</text>
<text x="452.40" y="444.35">.</text>
<text x="350.59" y="203.31">.</text>
<text x="248.55" y="457.82">+</text>
<text x="326.16" y="350.41">+</text>
<text x="419.26" y="187.11">.</text>
<text x="447.94" y="126.19">+</text>
<text x="36.84" y="28.86">.</text>
<text x="338.46" y="142.62">*</text>
<text x="131.10" y="454.97">*</text>
<text x="153.68" y="325.86">+</text>
<text x="133.41" y="238.76">.</text>
<text x="405.40" y="178.24">.</text>
<text x="356.42" y="462.96">.</text>
<text x="454.70" y="85.07">*</text>
<text x="81.32" y="92.65">+</text>
<text x="393.76" y="267.07">.</text>
<text x="117.71" y="484.56">+</text>
<text x="181.44" y="390.32">.</text>
<text x="413.73" y="146.98">.</text>
<text x="244.50" y="306.26">.</text>
<text x="439.84" y="67.53">.</text>
<text x="373.00" y="427.08">+</text>
<text x="20.85" y="62.56">*</text>
<text x="386.07" y="50.18">*</text>
<text x="296.09" y="238.78">.</text>
<text x="7.44" y="470.84">+</text>
<text x="383.11" y="393.39">+</text>
<text x="162.04" y="129.16">*</text>
<text x="354.85" y="295.83">+</text>
<text x="458.33" y="432.27">+</text>
<text x="268.23" y="193.83">+</text>
<text x="384.76" y="72.20">.</text>
<text x="86.11" y="287.96">+</text>
<text x="144.21" y="135.77">+</text>
<text x="147.67" y="275.44">.</text>
<text x="32.55" y="160.83">+</text>
<text x="307.37" y="157.30">+</text>
<text x="165.93" y="84.97">*</text>
<text x="246.65" y="486.55">*</text>
<text x="356.11" y="117.51">+</text>
<text x="173.90" y="11.32">.</text>
<text x="486.32" y="409.33">+</text>
<text x="211.61" y="272.92">.</text>
<text x="19.45" y="472.50">+</text>
<text x="466.36" y="252.49">+</text>
<text x="479.32" y="278.74">.</text>
<text x="164.51" y="22.31">+</text>
<text x="395.29" y="279.88">+</text>
<text x="105.35" y="9.84">.</text>
<text x="480.87" y="7.94">+</text>
<text x="239.78" y="361.68">.</text>
<text x="252.23" y="349.43">+</text>
<text x="374.27" y="281.43">+</text>
<text x="373.73" y="206.58">.</text>
<text x="129.84" y="437.35">+</text>
<text x="298.50" y="359.24">.</text>
<text x="138.32" y="39.72">+</text>
<text x="188.62" y="88.26">+</text>
<text x="459.95" y="494.09">*</text>
<text x="77.68" y="281.44">*</text>
<text x="68.21" y="304.31">+</text>
<text x="212.62" y="322.81">.</text>
<text x="480.93" y="254.37">+</text>
<text x="14.23" y="113.73">*</text>
<text x="283.32" y="414.45">+</text>
<text x="404.96" y="478.96">+</text>
<text x="250.03" y="210.58">.</text>
<text x="396.78" y="494.96">.</text>
<text x="366.85" y="106.28">+</text>
<text x="59.15" y="176.60">.</text>
<text x="26.96" y="248.12">*</text>
<text x="268.87" y="273.15">*</text>
<text x="172.77" y="202.46">+</text>
<text x="366.94" y="455.41">*</text>
<text x="123.01" y="356.14">+</text>
<text x="240.79" y="339.97">+</text>
<text x="286.89" y="483.83">.</text>
<text x="163.28" y="21.14">.</text>
<text x="337.43" y="460.02">*</text>
<text x="408.46" y="273.04">*</text>
<text x="201.23" y="254.15">*</text>
<text x="20.24" y="240.06">.</text>
<text x="117.73" y="303.19">+</text>
<text x="212.91" y="437.68">.</text>
<text x="46.23" y="394.33">+</text>
<text x="168.71" y="84.14">.</text>
<text x="270.96" y="185.44">+</text>
<text x="238.26" y="498.98">.</text>
<text x="395.78" y="379.95">.</text>
<text x="246.79" y="231.98">+</text>
<text x="133.43" y="51.73">.</text>
<text x="188.50" y="239.57">+</text>
<text x="217.12" y="304.64">.</text>
<text x="159.70" y="455.70">.</text>
<text x="270.19" y="392.25">+</text>
<text x="363.89" y="243.35">.</text>
<text x="471.57" y="493.15">.</text>
<text x="336.23" y="221.14">*</text>
<text x="462.83" y="20.23">+</text>
<text x="358.45" y="279.94">*</text>
<text x="246.82" y="367.18">*</text>
<text x="220.40" y="274.73">.</text>
<text x="77.54" y="90.38">.</text>
<text x="156.92" y="242.30">+</text>
<text x="387.78" y="415.88">+</text>
<text x="104.19" y="105.87">.</text>
<text x="448.29" y="291.00">+</text>
<text x="335.36" y="86.93">+</text>
<text x="293.70" y="452.09">.</text>
<text x="318.26" y="173.40">+</text>
<text x="337.41" y="463.77">+</text>
<text x="482.12" y="351.70">+</text>
<text x="129.81" y="185.28">.</text>
<text x="484.80" y="316.19">+</text>
<text x="216.06" y="427.52">.</text>
<text x="125.95" y="438.71">.</text>
<text x="204.23" y="347.93">+</text>
<text x="122.77" y="300.01">.</text>
<text x="471.78" y="143.81">+</text>
<text x="107.71" y="349.86">+</text>
<text x="375.54" y="385.96">+</text>
<text x="86.63" y="407.05">+</text>
<text x="128.73" y="365.60">*</text>
<text x="190.53" y="323.24">+</text>
<text x="233.96" y="97.61">.</text>
<text x="395.75" y="110.47">*</text>
<text x="255.53" y="55.03">+</text>
<text x="56.58" y="385.73">+</text>
<text x="499.41" y="69.16">*</text>
<text x="323.02" y="20.54">*</text>
<text x="461.48" y="411.46">+</text>
<text x="50.51" y="130.98">.</text>
<text x="34.90" y="223.93">+</text>
<text x="24.61" y="376.46">+</text>
<text x="477.80" y="478.33">+</text>
<text x="347.16" y="352.35">*</text>
<text x="355.27" y="17.45">.</text>
<text x="459.83" y="427.18">.</text>
<text x="140.32" y="481.32">+</text>
<text x="284.16" y="107.32">.</text>
<text x="207.47" y="488.27">+</text>
<text x="289.58" y="123.15">.</text>
<text x="29.30" y="322.95">.</text>
<text x="315.29" y="272.58">.</text>
<text x="361.51" y="274.62">+</text>
<text x="114.09" y="241.07">+</text>
<text x="244.41" y="150.10">.</text>
<text x="238.64" y="290.95">+</text>
<text x="392.77" y="246.54">*</text>
<text x="278.13" y="6.16">.</text>
<text x="464.86" y="353.50">+</text>
<text x="452.65" y="366.92">.</text>
<text x="256.29" y="141.72">*</text>
<text x="176.95" y="347.51">*</text>
<text x="322.19" y="462.68">*</text>
<text x="394.68" y="29.49">*</text>
<text x="175.68" y="240.38">.</text>
<text x="242.00" y="382.77">*</text>
<text x="52.50" y="146.07">+</text>
<text x="377.77" y="309.98">+</text>
<text x="123.77" y="250.98">.</text>
<text x="74.48" y="61.31">+</text>
<text x="131.25" y="11.33">*</text>
<text x="410.67" y="120.26">.</text>
<text x="343.86" y="194.03">+</text>
<text x="192.02" y="6.61">*</text>
<text x="215.42" y="435.28">*</text>
<text x="236.16" y="121.46">*</text>
<text x="104.96" y="96.34">+</text>
<text x="43.17" y="145.99">+</text>
<text x="12.99" y="344.07">+</text>
<text x="247.58" y="45.11">.</text>
<text x="428.85" y="12.43">.</text>

</svg>