
<svg viewBox="0 0 500 500" xmlns="http://www.w.org/2000/svg" width="100%" height="100%" style="background-color: #0a0a14; font-family: 'Courier New', Courier, monospace;">
    <style>
        text { fill: #aaa; font-size: 10px; text-anchor: middle; dominant-baseline: middle; }
    </style>
    <text x="363.24" y="401.89">+</text>
<text x="437.37" y="207.44">+</text>
<text x="495.10" y="152.83">+</text>
<text x="157.38" y="382.97">+</text>
<text x="373.96" y="178.07">.</text>
<text x="102.34" y="218.60">.</text>
<text x="405.74" y="388.11">.</text>
<text x="377.83" y="40.90">.</text>
<text x="60.73" y="185.88">.</text>
<text x="34.13" y="136.76">.</text>
<text x="316.74" y="12.14">.</text>
<text x="265.83" y="497.23">*</text>
<text x="141.39" y="327.53">+</text>
<text x="109.61" y="447.89">+</text>
<text x="361.18" y="19.29">.</text>
<text x="352.65" y="481.98">*</text>
<text x="118.35" y="266.01">+</text>
<text x="40.85" y="291.00">+</text>
<text x="194.30" y="49.59">+</text>
<text x="412.20" y="1.27">.</text>
<text x="54.85" y="489.59">.</text>
<text x="97.95" y="254.92">+</text>
<text x="270.78" y="137.80">.</text>
<text x="297.22" y="417.95">+</text>
<text x="375.88" y="148.54">+</text>
<text x="321.11" y="438.12">*</text>
<text x="140.30" y="395.12">*</text>
<text x="186.80" y="46.34">+</text>
<text x="35.15" y="397.84">*</text>
<text x="102.33" y="137.48">*</text>
<text x="349.02" y="148.50">*</text>
<text x="404.33" y="260.66">.</text>
<text x="19.05" y="250.46">.</text>
<text x="216.22" y="156.02">.</text>
<text x="361.25" y="269.13">+</text>
<text x="147.71" y="206.84">.</text>
<text x="108.07" y="228.95">*</text>
<text x="393.35" y="50.47">.</text>
<text x="51.44" y="331.26">*</text>
<text x="120.73" y="139.42">.</text>
<text x="285.52" y="365.86">+</text>
<text x="488.49" y="254.40">+</text>
<text x="35.02" y="426.52">*</text>
<text x="450.69" y="463.33">+</text>
<text x="97.33" y="318.81">+</text>
<text x="6.60" y="45.58">+</text>
<text x="348.91" y="331.73">+</text>
<text x="43.83" y="220.28">+</text>
<text x="137.84" y="182.17">+</text>
<text x="393.83" y="253.68">+</text>
<text x="8.03" y="478.00">.</text>
<text x="131.00" y="39.82">.</text>
<text x="167.10" y="334.95">+</text>
<text x="113.61" y="125.14">.</text>
<text x="261.99" y="432.10">*</text>
<text x="9.59" y="104.24">.</text>
<text x="100.56" y="475.61">*</text>
<text x="440.59" y="249.80">+</text>
<text x="422.77" y="133.76">+</text>
<text x="154.65" y="150.03">+</text>
<text x="361.02" y="495.87">+</text>
<text x="450.15" y="406.18">+</text>
<text x="371.36" y="294.17">.</text>
<text x="467.62" y="224.98">+</text>
<text x="121.16" y="159.51">.</text>
<text x="37.83" y="456.14">.</text>
<text x="226.50" y="267.56">.</text>
<text x="138.77" y="281.62">.</text>
<text x="256.49" y="174.29">+</text>
<text x="367.33" y="144.46">+</text>
<text x="488.99" y="451.32">.</text>
<text x="296.36" y="457.76">.</text>
<text x="458.99" y="125.95">.</text>
<text x="431.87" y="156.82">+</text>
<text x="341.79" y="340.21">.</text>
<text x="6.78" y="382.08">.</text>
<text x="63.44" y="427.60">+</text>
<text x="150.14" y="480.81">*</text>
<text x="87.35" y="113.65">+</text>
<text x="433.65" y="404.63">*</text>
<text x="301.88" y="45.56">.</text>
<text x="387.44" y="299.36">.</text>
<text x="106.20" y="396.08">*</text>
<text x="188.19" y="151.46">.</text>
<text x="254.83" y="325.10">+</text>
<text x="379.95" y="460.67">+</text>
<text x="252.38" y="295.38">+</text>
<text x="426.49" y="165.09">*</text>
<text x="493.12" y="382.70">+</text>
<text x="399.52" y="260.13">+</text>
<text x="380.61" y="202.44">.</text>
<text x="392.73" y="458.27">+</text>
<text x="178.98" y="360.83">.</text>
<text x="242.00" y="210.38">.</text>
<text x="14.60" y="228.15">*</text>
<text x="484.07" y="12.95">+</text>
<text x="437.76" y="429.71">+</text>
<text x="3.09" y="287.46">.</text>
<text x="127.69" y="389.45">.</text>
<text x="331.89" y="385.75">*</text>
<text x="267.55" y="38.45">+</text>
<text x="118.35" y="352.69">.</text>
<text x="47.95" y="314.88">*</text>
<text x="119.23" y="360.52">.</text>
<text x="85.44" y="159.89">+</text>
<text x="134.97" y="228.93">+</text>
<text x="42.89" y="230.60">+</text>
<text x="495.84" y="457.92">.</text>
<text x="399.36" y="486.38">+</text>
<text x="22.39" y="86.79">+</text>
<text x="25.15" y="112.18">.</text>
<text x="18.15" y="340.33">.</text>
<text x="68.54" y="136.56">+</text>
<text x="269.04" y="150.45">.</text>
<text x="191.92" y="221.57">+</text>
<text x="76.17" y="445.98">.</text>
<text x="309.00" y="312.88">+</text>
<text x="331.47" y="356.91">+</text>
<text x="441.92" y="1.26">+</text>
<text x="373.68" y="383.26">.</text>
<text x="36.52" y="116.72">.</text>
<text x="40.44" y="169.15">.</text>
<text x="336.10" y="203.91">+</text>
<text x="372.74" y="178.55">*</text>
<text x="86.56" y="165.17">.</text>
<text x="30.39" y="227.05">.</text>
<text x="467.95" y="91.48">*</text>
<text x="143.91" y="321.12">+</text>
<text x="269.23" y="493.10">.</text>
<text x="299.09" y="111.06">.</text>
<text x="483.93" y="374.34">.</text>
<text x="217.26" y="23.51">*</text>
<text x="493.01" y="451.07">.</text>
<text x="252.91" y="30.89">+</text>
<text x="366.01" y="195.31">+</text>
<text x="321.22" y="430.01">.</text>
<text x="493.97" y="253.49">+</text>
<text x="249.68" y="269.98">+</text>
<text x="233.50" y="293.52">+</text>
<text x="100.53" y="28.44">.</text>
<text x="242.74" y="416.50">+</text>
<text x="217.35" y="1.65">.</text>
<text x="204.11" y="402.04">+</text>
<text x="45.37" y="291.36">+</text>
<text x="151.43" y="155.72">*</text>
<text x="102.80" y="464.59">.</text>
<text x="359.98" y="193.92">.</text>
<text x="194.51" y="186.58">.</text>
<text x="69.59" y="337.63">+</text>
<text x="173.01" y="376.03">*</text>
<text x="249.68" y="305.39">*</text>
<text x="58.74" y="338.07">+</text>
<text x="168.04" y="59.56">.</text>
<text x="200.54" y="344.26">*</text>
<text x="168.59" y="226.55">+</text>
<text x="337.85" y="95.87">.</text>
<text x="286.31" y="77.81">+</text>
<text x="485.80" y="361.43">+</text>
<text x="30.75" y="365.12">.</text>
<text x="376.59" y="172.81">.</text>
<text x="174.26" y="468.66">.</text>
<text x="45.17" y="491.95">*</text>
<text x="308.10" y="33.46">.</text>
<text x="139.19" y="236.74">.</text>
<text x="134.55" y="223.48">+</text>
<text x="235.03" y="8.14">+</text>
<text x="481.37" y="332.32">+</text>
<text x="247.78" y="119.04">.</text>
<text x="447.11" y="350.47">.</text>
<text x="401.07" y="231.49">*</text>
<text x="133.29" y="174.81">+</text>
<text x="444.13" y="309.88">.</text>
<text x="126.99" y="199.95">*</text>
<text x="297.16" y="482.31">*</text>
<text x="3.86" y="162.40">.</text>
<text x="456.17" y="424.85">.</text>
<text x="84.39" y="21.71">.</text>
<text x="391.13" y="32.04">.</text>
<text x="282.26" y="168.12">.</text>
<text x="360.88" y="316.25">.</text>
<text x="354.16" y="80.48">*</text>
<text x="141.06" y="345.00">.</text>
<text x="365.40" y="148.64">+</text>
<text x="46.75" y="180.47">+</text>
<text x="29.18" y="462.07">.</text>
<text x="326.92" y="143.57">+</text>
<text x="415.61" y="72.67">+</text>
<text x="104.83" y="441.13">+</text>
<text x="252.86" y="95.33">*</text>
<text x="39.08" y="102.69">.</text>
<text x="364.20" y="425.02">+</text>
<text x="268.03" y="183.11">+</text>
<text x="178.92" y="326.61">*</text>
<text x="45.57" y="61.47">+</text>
<text x="80.18" y="290.35">.</text>
<text x="386.57" y="125.43">.</text>
<text x="55.67" y="159.61">.</text>
<text x="410.22" y="265.97">+</text>
<text x="102.87" y="327.39">.</text>
<text x="201.46" y="293.33">+</text>
<text x="101.45" y="499.04">+</text>
<text x="309.82" y="86.88">+</text>
<text x="92.77" y="385.02">+</text>
<text x="141.91" y="3.61">.</text>
<text x="418.71" y="425.24">.</text>

</svg>