
<svg viewBox="0 0 500 500" xmlns="http://www.w.org/2000/svg" width="100%" height="100%" style="background-color: #0a0a14; font-family: 'Courier New', Courier, monospace;">
    <style>
        text { fill: #aaa; font-size: 10px; text-anchor: middle; dominant-baseline: middle; }
    </style>
    <text x="368.33" y="373.99">.</text>
<text x="327.47" y="496.04">+</text>
<text x="369.95" y="419.99">+</text>
<text x="187.08" y="42.95">.</text>
<text x="272.73" y="286.56">.</text>
<text x="98.43" y="146.20">.</text>
<text x="439.63" y="388.26">.</text>
<text x="349.02" y="59.90">+</text>
<text x="201.44" y="139.61">*</text>
<text x="190.61" y="384.25">*</text>
<text x="275.79" y="306.00">+</text>
<text x="272.19" y="167.58">.</text>
<text x="188.17" y="273.37">+</text>
<text x="344.25" y="162.52">*</text>
<text x="299.80" y="231.79">+</text>
<text x="27.55" y="79.09">+</text>
<text x="115.00" y="323.20">.</text>
<text x="110.98" y="398.42">+</text>
<text x="171.69" y="90.98">.</text>
<text x="308.09" y="60.81">+</text>
<text x="241.19" y="331.77">.</text>
<text x="98.06" y="453.22">+</text>
<text x="98.70" y="250.34">*</text>
<text x="278.24" y="208.54">.</text>
<text x="40.00" y="429.60">.</text>
<text x="473.14" y="322.97">*</text>
<text x="156.67" y="362.52">.</text>
<text x="91.12" y="308.07">.</text>
<text x="183.27" y="277.60">+</text>
<text x="267.52" y="276.67">+</text>
<text x="152.23" y="440.07">.</text>
<text x="33.03" y="110.13">.</text>
<text x="479.57" y="209.85">+</text>
<text x="468.26" y="416.89">+</text>
<text x="78.59" y="69.61">+</text>
<text x="49.67" y="160.35">+</text>
<text x="258.00" y="454.13">.</text>
<text x="421.28" y="472.84">+</text>
<text x="258.26" y="70.44">+</text>
<text x="96.61" y="127.62">*</text>
<text x="306.28" y="360.24">.</text>
<text x="338.51" y="142.91">+</text>
<text x="140.60" y="93.16">+</text>
<text x="148.60" y="361.16">+</text>
<text x="85.21" y="200.53">*</text>
<text x="427.28" y="158.68">.</text>
<text x="138.75" y="272.42">.</text>
<text x="88.54" y="408.93">.</text>
<text x="328.40" y="161.00">*</text>
<text x="142.59" y="262.53">+</text>
<text x="71.83" y="486.40">.</text>
<text x="139.38" y="307.34">*</text>
<text x="453.87" y="457.90">+</text>
<text x="257.49" y="316.58">+</text>
<text x="364.91" y="396.77">+</text>
<text x="430.36" y="263.23">+</text>
<text x="264.43" y="128.51">.</text>
<text x="269.64" y="316.09">.</text>
<text x="492.22" y="493.17">.</text>
<text x="95.83" y="367.07">+</text>
<text x="169.22" y="99.74">.</text>
<text x="381.93" y="164.35">*</text>
<text x="264.59" y="134.11">*</text>
<text x="8.52" y="159.82">+</text>
<text x="179.66" y="182.49">.</text>
<text x="95.99" y="180.04">+</text>
<text x="188.00" y="201.93">+</text>
<text x="474.48" y="245.03">.</text>
<text x="312.96" y="24.31">*</text>
<text x="185.20" y="222.41">.</text>
<text x="174.77" y="159.69">+</text>
<text x="142.57" y="440.09">*</text>
<text x="364.48" y="475.15">+</text>
<text x="330.67" y="443.26">.</text>
<text x="382.69" y="477.24">.</text>
<text x="57.83" y="196.64">+</text>
<text x="30.26" y="17.01">+</text>
<text x="3.16" y="34.48">.</text>
<text x="42.98" y="290.21">.</text>
<text x="425.10" y="178.13">+</text>
<text x="19.17" y="415.96">.</text>
<text x="169.60" y="332.74">.</text>
<text x="346.95" y="470.43">+</text>
<text x="299.80" y="345.27">+</text>
<text x="278.10" y="42.29">.</text>
<text x="9.61" y="211.42">.</text>
<text x="153.32" y="269.93">+</text>
<text x="379.88" y="357.60">+</text>
<text x="481.35" y="256.62">+</text>
<text x="332.58" y="14.46">+</text>
<text x="254.42" y="153.09">.</text>
<text x="143.12" y="46.93">+</text>
<text x="151.59" y="252.88">.</text>
<text x="109.28" y="317.79">.</text>
<text x="58.59" y="31.72">.</text>
<text x="211.71" y="202.46">.</text>
<text x="126.94" y="401.25">.</text>
<text x="425.12" y="255.12">.</text>
<text x="339.87" y="94.40">.</text>
<text x="96.68" y="316.93">.</text>
<text x="208.17" y="219.46">.</text>
<text x="268.12" y="481.17">+</text>
<text x="283.60" y="137.64">.</text>
<text x="232.20" y="266.78">*</text>
<text x="479.93" y="337.01">*</text>
<text x="483.74" y="35.24">+</text>
<text x="267.79" y="118.71">+</text>
<text x="314.59" y="210.13">.</text>
<text x="249.84" y="188.32">+</text>
<text x="36.68" y="10.65">.</text>
<text x="178.46" y="36.93">.</text>
<text x="2.71" y="214.18">.</text>
<text x="342.40" y="369.10">.</text>
<text x="108.56" y="343.82">+</text>
<text x="484.37" y="95.40">.</text>
<text x="209.52" y="206.37">.</text>
<text x="145.46" y="101.73">.</text>
<text x="176.56" y="419.08">.</text>
<text x="243.39" y="204.36">+</text>
<text x="249.46" y="330.27">*</text>
<text x="307.36" y="40.58">+</text>
<text x="354.92" y="144.73">.</text>
<text x="32.35" y="341.03">+</text>
<text x="44.54" y="83.81">+</text>
<text x="167.76" y="80.59">.</text>
<text x="20.82" y="60.46">+</text>
<text x="161.02" y="237.04">+</text>
<text x="369.09" y="467.00">+</text>
<text x="228.67" y="62.42">+</text>
<text x="155.82" y="123.68">*</text>
<text x="461.98" y="28.63">.</text>
<text x="216.99" y="302.55">.</text>
<text x="349.62" y="14.27">+</text>
<text x="403.56" y="380.33">+</text>
<text x="262.79" y="75.05">.</text>
<text x="74.59" y="174.89">+</text>
<text x="334.84" y="403.41">*</text>
<text x="180.93" y="400.38">+</text>
<text x="379.41" y="455.85">+</text>
<text x="10.12" y="145.77">.</text>
<text x="442.34" y="221.40">+</text>
<text x="298.06" y="248.35">.</text>
<text x="0.94" y="368.83">+</text>
<text x="472.33" y="349.22">+</text>
<text x="374.02" y="162.52">.</text>
<text x="260.91" y="18.05">+</text>
<text x="65.31" y="31.21">.</text>
<text x="62.50" y="148.49">+</text>
<text x="110.55" y="161.07">.</text>
<text x="224.37" y="207.06">+</text>
<text x="457.85" y="91.10">.</text>
<text x="61.61" y="10.29">+</text>
<text x="39.49" y="417.08">+</text>
<text x="8.95" y="463.44">.</text>
<text x="433.00" y="132.62">+</text>
<text x="89.24" y="24.81">.</text>
<text x="115.63" y="243.57">+</text>
<text x="23.12" y="235.62">.</text>
<text x="346.88" y="222.58">+</text>
<text x="13.55" y="245.82">*</text>
<text x="390.54" y="315.27">.</text>
<text x="15.89" y="196.25">+</text>
<text x="415.51" y="343.05">+</text>
<text x="423.60" y="186.99">+</text>
<text x="472.91" y="89.61">+</text>
<text x="39.90" y="137.25">+</text>
<text x="286.02" y="373.16">.</text>
<text x="131.68" y="236.29">.</text>
<text x="25.69" y="229.40">+</text>
<text x="66.31" y="299.46">+</text>
<text x="431.76" y="381.62">.</text>
<text x="375.52" y="284.49">*</text>
<text x="117.11" y="434.57">+</text>
<text x="222.09" y="347.32">+</text>
<text x="108.91" y="481.75">.</text>
<text x="286.49" y="433.58">*</text>
<text x="345.19" y="247.28">+</text>
<text x="394.73" y="237.66">+</text>
<text x="195.42" y="485.93">*</text>
<text x="122.70" y="336.97">+</text>
<text x="279.03" y="220.51">.</text>
<text x="219.77" y="336.21">+</text>
<text x="222.33" y="214.99">+</text>
<text x="153.44" y="443.17">+</text>
<text x="107.37" y="60.91">.</text>
<text x="344.53" y="232.37">+</text>
<text x="154.60" y="497.76">.</text>
<text x="227.84" y="346.97">.</text>
<text x="86.49" y="36.51">*</text>
<text x="438.22" y="18.37">+</text>
<text x="290.35" y="85.71">+</text>
<text x="187.07" y="338.65">.</text>
<text x="74.34" y="441.15">+</text>
<text x="314.76" y="88.40">.</text>
<text x="136.52" y="298.88">+</text>
<text x="14.59" y="68.42">+</text>
<text x="52.95" y="158.59">.</text>
<text x="435.93" y="292.55">+</text>
<text x="133.74" y="334.98">+</text>
<text x="158.21" y="22.91">*</text>
<text x="75.84" y="69.85">+</text>
<text x="140.13" y="109.43">+</text>
<text x="245.85" y="370.60">.</text>
<text x="7.29" y="94.49">*</text>
<text x="189.52" y="11.04">+</text>

</svg>