
<svg viewBox="0 0 500 500" xmlns="http://www.w.org/2000/svg" width="100%" height="100%" style="background-color: #0a0a14; font-family: 'Courier New', Courier, monospace;">
    <style>
        text { fill: #aaa; font-size: 10px; text-anchor: middle; dominant-baseline: middle; }
    </style>
    <text x="121.73" y="374.41">.</text>
<text x="167.90" y="325.47">+</text>
<text x="331.61" y="291.36">+</text>
<text x="478.73" y="475.48">+</text>
<text x="301.66" y="343.25">+</text>
<text x="409.74" y="157.02">*</text>
<text x="223.41" y="391.89">.</text>
<text x="441.76" y="311.43">.</text>
<text x="116.39" y="244.64">+</text>
<text x="320.81" y="185.56">.</text>
<text x="94.45" y="41.58">.</text>
<text x="345.74" y="304.54">+</text>
<text x="20.90" y="442.32">+</text>
<text x="151.70" y="136.13">.</text>
<text x="103.11" y="156.06">+</text>
<text x="285.08" y="332.99">.</text>
<text x="494.48" y="355.99">+</text>
<text x="385.19" y="210.30">+</text>
<text x="463.46" y="189.49">+</text>
<text x="334.86" y="191.76">+</text>
<text x="436.97" y="211.86">.</text>
<text x="313.02" y="39.18">+</text>
<text x="158.72" y="435.66">.</text>
<text x="386.09" y="421.46">+</text>
<text x="56.23" y="349.75">.</text>
<text x="431.97" y="139.47">+</text>
<text x="201.87" y="398.01">+</text>
<text x="284.01" y="466.09">+</text>
<text x="437.15" y="161.19">+</text>
<text x="321.70" y="241.16">.</text>
<text x="459.24" y="264.55">.</text>
<text x="475.27" y="386.48">*</text>
<text x="293.84" y="21.17">.</text>
<text x="469.03" y="266.07">+</text>
<text x="275.61" y="95.92">+</text>
<text x="50.91" y="100.08">*</text>
<text x="413.43" y="38.23">+</text>
<text x="317.29" y="109.73">.</text>
<text x="137.00" y="446.83">.</text>
<text x="300.33" y="404.47">.</text>
<text x="271.87" y="438.46">+</text>
<text x="140.90" y="436.44">.</text>
<text x="320.47" y="298.30">.</text>
<text x="4.57" y="407.45">.</text>
<text x="275.45" y="432.44">+</text>
<text x="82.68" y="160.19">.</text>
<text x="268.00" y="197.30">+</text>
<text x="294.03" y="186.25">*</text>
<text x="146.95" y="226.72">.</text>
<text x="45.83" y="248.02">.</text>
<text x="253.08" y="419.98">+</text>
<text x="227.99" y="121.56">.</text>
<text x="67.00" y="0.32">+</text>
<text x="407.90" y="286.16">.</text>
<text x="331.36" y="471.67">.</text>
<text x="478.52" y="102.97">+</text>
<text x="383.43" y="52.02">+</text>
<text x="450.64" y="16.96">+</text>
<text x="286.04" y="493.66">*</text>
<text x="342.91" y="16.63">+</text>
<text x="208.04" y="361.98">.</text>
<text x="159.85" y="255.55">*</text>
<text x="352.80" y="365.24">.</text>
<text x="345.96" y="165.50">.</text>
<text x="381.76" y="437.14">.</text>
<text x="106.12" y="105.50">+</text>
<text x="386.23" y="252.59">+</text>
<text x="23.13" y="136.79">.</text>
<text x="71.86" y="171.34">.</text>
<text x="448.63" y="208.75">.</text>
<text x="421.23" y="168.72">+</text>
<text x="106.57" y="488.87">.</text>
<text x="394.92" y="75.35">.</text>
<text x="486.53" y="420.96">.</text>
<text x="17.45" y="276.21">.</text>
<text x="248.07" y="132.53">*</text>
<text x="309.23" y="151.10">*</text>
<text x="217.15" y="27.07">.</text>
<text x="16.95" y="403.42">+</text>
<text x="442.07" y="487.18">.</text>
<text x="208.85" y="405.49">+</text>
<text x="443.98" y="168.27">.</text>
<text x="70.47" y="453.98">*</text>
<text x="148.54" y="426.72">.</text>
<text x="233.69" y="208.47">+</text>
<text x="338.85" y="34.51">.</text>
<text x="465.15" y="466.96">.</text>
<text x="206.30" y="371.35">.</text>
<text x="397.44" y="423.08">.</text>
<text x="0.70" y="114.00">.</text>
<text x="312.01" y="367.47">+</text>
<text x="249.50" y="221.09">.</text>
<text x="134.37" y="166.99">.</text>
<text x="130.14" y="449.97">*</text>
<text x="486.43" y="65.88">*</text>
<text x="121.15" y="378.81">.</text>
<text x="45.10" y="4.70">.</text>
<text x="340.12" y="195.03">+</text>
<text x="107.39" y="8.70">+</text>
<text x="478.11" y="344.98">+</text>
<text x="232.80" y="128.48">.</text>
<text x="283.49" y="205.64">+</text>
<text x="100.77" y="416.83">.</text>
<text x="301.07" y="91.67">.</text>
<text x="220.67" y="54.09">+</text>
<text x="299.37" y="225.96">*</text>
<text x="318.32" y="72.78">+</text>
<text x="329.05" y="383.62">.</text>
<text x="312.52" y="285.75">+</text>
<text x="382.55" y="353.71">*</text>
<text x="237.41" y="24.18">.</text>
<text x="47.26" y="451.75">+</text>
<text x="373.36" y="230.41">*</text>
<text x="202.43" y="281.67">+</text>
<text x="383.52" y="2.71">+</text>
<text x="8.30" y="494.85">.</text>
<text x="305.85" y="468.10">+</text>
<text x="422.92" y="302.94">.</text>
<text x="85.21" y="204.26">+</text>
<text x="256.48" y="268.61">*</text>
<text x="229.68" y="41.80">.</text>
<text x="296.66" y="372.14">+</text>
<text x="188.92" y="162.71">+</text>
<text x="390.76" y="168.12">.</text>
<text x="253.83" y="373.75">+</text>
<text x="229.92" y="93.74">.</text>
<text x="407.01" y="19.30">+</text>
<text x="13.82" y="383.27">*</text>
<text x="79.61" y="272.19">+</text>
<text x="137.98" y="243.25">.</text>
<text x="181.26" y="407.68">.</text>
<text x="215.23" y="223.78">.</text>
<text x="288.52" y="4.08">.</text>
<text x="198.35" y="291.76">.</text>
<text x="46.91" y="263.92">.</text>
<text x="307.16" y="448.57">+</text>
<text x="483.18" y="289.19">+</text>
<text x="60.14" y="123.22">+</text>
<text x="134.46" y="131.82">.</text>
<text x="43.94" y="380.13">.</text>
<text x="26.51" y="240.72">.</text>
<text x="233.26" y="169.36">.</text>
<text x="119.51" y="51.28">.</text>
<text x="203.79" y="301.34">+</text>
<text x="375.46" y="391.26">+</text>
<text x="464.41" y="210.43">.</text>
<text x="447.01" y="325.28">.</text>
<text x="24.02" y="4.52">.</text>
<text x="491.81" y="321.95">.</text>
<text x="101.85" y="37.82">*</text>
<text x="123.09" y="481.70">*</text>
<text x="291.10" y="394.47">+</text>
<text x="230.69" y="98.30">.</text>
<text x="289.65" y="161.62">.</text>
<text x="235.26" y="97.10">.</text>
<text x="389.30" y="315.97">*</text>
<text x="425.18" y="326.43">.</text>
<text x="368.74" y="76.65">.</text>
<text x="335.73" y="418.88">+</text>
<text x="381.24" y="193.85">.</text>
<text x="154.66" y="192.81">+</text>
<text x="452.33" y="343.98">*</text>
<text x="64.79" y="41.47">.</text>
<text x="333.84" y="61.61">+</text>
<text x="8.57" y="274.44">.</text>
<text x="222.45" y="151.15">+</text>
<text x="212.80" y="166.40">.</text>
<text x="245.47" y="69.26">.</text>
<text x="202.05" y="86.51">+</text>
<text x="89.84" y="205.29">.</text>
<text x="270.26" y="408.93">*</text>
<text x="467.13" y="229.00">+</text>
<text x="78.08" y="419.83">+</text>
<text x="470.60" y="39.50">.</text>
<text x="208.85" y="345.16">.</text>
<text x="68.64" y="43.36">*</text>
<text x="90.67" y="307.03">.</text>
<text x="266.21" y="300.83">+</text>
<text x="327.02" y="376.13">.</text>
<text x="324.32" y="22.09">.</text>
<text x="452.88" y="265.56">+</text>
<text x="449.06" y="469.64">*</text>
<text x="377.00" y="376.72">+</text>
<text x="449.54" y="307.70">+</text>
<text x="399.02" y="94.03">.</text>
<text x="89.05" y="339.44">+</text>
<text x="433.15" y="289.64">+</text>
<text x="145.11" y="443.45">.</text>
<text x="277.01" y="248.58">.</text>
<text x="54.24" y="497.14">.</text>
<text x="492.99" y="362.44">+</text>
<text x="31.16" y="349.53">.</text>
<text x="128.64" y="390.30">+</text>
<text x="45.85" y="10.51">*</text>
<text x="157.98" y="12.33">.</text>
<text x="466.12" y="446.27">.</text>
<text x="300.43" y="334.42">.</text>
<text x="16.16" y="11.16">*</text>
<text x="458.95" y="22.44">.</text>
<text x="66.40" y="322.22">.</text>
<text x="249.25" y="168.42">*</text>
<text x="177.26" y="121.95">*</text>
<text x="30.18" y="86.13">.</text>
<text x="151.19" y="105.38">.</text>
<text x="338.56" y="145.08">.</text>
<text x="346.27" y="196.47">+</text>
<text x="489.02" y="124.54">*</text>
<text x="193.48" y="174.62">.</text>
<text x="48.67" y="26.79">+</text>
<text x="398.52" y="17.03">.</text>
<text x="252.08" y="100.27">.</text>
<text x="427.45" y="314.06">.</text>
<text x="200.87" y="236.27">.</text>
<text x="55.60" y="389.60">+</text>
<text x="136.70" y="423.39">.</text>
<text x="97.06" y="313.80">.</text>
<text x="111.79" y="20.87">+</text>

</svg>