
<svg viewBox="0 0 500 500" xmlns="http://www.w.org/2000/svg" width="100%" height="100%" style="background-color: #0a0a14; font-family: 'Courier New', Courier, monospace;">
    <style>
        text { fill: #aaa; font-size: 10px; text-anchor: middle; dominant-baseline: middle; }
    </style>
    <text x="325.62" y="402.08">.</text>
<text x="49.57" y="340.25">*</text>
<text x="35.36" y="134.49">*</text>
<text x="93.95" y="22.90">.</text>
<text x="193.05" y="214.05">.</text>
<text x="319.80" y="206.84">.</text>
<text x="224.74" y="267.09">.</text>
<text x="111.22" y="305.54">.</text>
<text x="80.93" y="81.15">+</text>
<text x="43.40" y="246.98">.</text>
<text x="445.01" y="225.59">.</text>
<text x="392.51" y="32.83">.</text>
<text x="456.26" y="389.44">+</text>
<text x="121.73" y="84.62">.</text>
<text x="245.87" y="357.06">+</text>
<text x="145.34" y="286.27">.</text>
<text x="164.18" y="323.09">.</text>
<text x="490.16" y="407.48">+</text>
<text x="447.61" y="259.59">+</text>
<text x="267.31" y="197.27">+</text>
<text x="37.29" y="210.47">+</text>
<text x="210.93" y="5.39">+</text>
<text x="4.98" y="48.97">*</text>
<text x="183.31" y="74.49">+</text>
<text x="201.25" y="372.72">+</text>
<text x="414.33" y="450.30">.</text>
<text x="100.94" y="324.87">*</text>
<text x="482.07" y="316.70">+</text>
<text x="284.80" y="499.90">.</text>
<text x="316.47" y="396.91">*</text>
<text x="258.11" y="53.95">+</text>
<text x="386.77" y="203.33">+</text>
<text x="485.66" y="290.76">+</text>
<text x="434.85" y="38.31">.</text>
<text x="182.26" y="124.05">+</text>
<text x="271.94" y="165.61">.</text>
<text x="140.02" y="411.00">*</text>
<text x="323.55" y="51.32">+</text>
<text x="87.27" y="334.55">.</text>
<text x="475.47" y="52.73">*</text>
<text x="466.04" y="95.52">.</text>
<text x="235.95" y="46.68">*</text>
<text x="357.88" y="393.39">*</text>
<text x="26.96" y="391.32">.</text>
<text x="172.85" y="422.68">+</text>
<text x="278.41" y="493.38">.</text>
<text x="122.74" y="32.32">+</text>
<text x="324.88" y="343.21">+</text>
<text x="409.70" y="38.61">.</text>
<text x="329.40" y="340.10">+</text>
<text x="446.54" y="30.13">*</text>
<text x="133.79" y="168.77">+</text>
<text x="150.26" y="484.22">.</text>
<text x="208.75" y="195.17">+</text>
<text x="69.73" y="313.52">.</text>
<text x="441.40" y="220.55">+</text>
<text x="491.67" y="11.18">*</text>
<text x="128.53" y="260.16">.</text>
<text x="430.61" y="366.44">+</text>
<text x="233.01" y="490.91">.</text>
<text x="37.97" y="189.99">+</text>
<text x="18.97" y="234.62">+</text>
<text x="213.23" y="495.16">.</text>
<text x="320.75" y="17.68">+</text>
<text x="475.36" y="107.33">*</text>
<text x="129.35" y="365.22">*</text>
<text x="276.97" y="472.15">.</text>
<text x="46.83" y="323.90">.</text>
<text x="0.32" y="139.45">.</text>
<text x="179.94" y="348.35">+</text>
<text x="374.89" y="362.56">+</text>
<text x="151.05" y="361.95">+</text>
<text x="393.29" y="40.62">+</text>
<text x="449.93" y="492.52">.</text>
<text x="328.44" y="380.83">+</text>
<text x="455.32" y="437.39">.</text>
<text x="192.81" y="142.26">+</text>
<text x="466.87" y="164.41">.</text>
<text x="79.19" y="4.58">+</text>
<text x="249.18" y="371.42">+</text>
<text x="389.28" y="366.46">+</text>
<text x="267.92" y="198.46">.</text>
<text x="163.62" y="365.35">+</text>
<text x="40.17" y="185.85">*</text>
<text x="147.03" y="81.21">.</text>
<text x="424.25" y="484.33">.</text>
<text x="18.17" y="182.43">.</text>
<text x="474.09" y="242.83">.</text>
<text x="150.32" y="420.86">*</text>
<text x="192.30" y="362.85">.</text>
<text x="462.04" y="464.72">+</text>
<text x="477.82" y="233.16">.</text>
<text x="65.57" y="392.20">.</text>
<text x="141.38" y="472.52">+</text>
<text x="46.35" y="91.52">.</text>
<text x="28.97" y="322.01">+</text>
<text x="321.28" y="289.22">.</text>
<text x="235.86" y="321.47">*</text>
<text x="105.63" y="30.87">*</text>
<text x="307.55" y="58.33">.</text>
<text x="177.94" y="442.58">+</text>
<text x="82.91" y="341.58">+</text>
<text x="414.94" y="490.04">.</text>
<text x="62.50" y="329.65">+</text>
<text x="91.56" y="157.38">.</text>
<text x="111.03" y="403.01">+</text>
<text x="202.43" y="380.48">+</text>
<text x="135.09" y="108.23">+</text>
<text x="385.48" y="56.25">.</text>
<text x="101.92" y="480.35">.</text>
<text x="19.28" y="44.11">+</text>
<text x="388.29" y="136.85">+</text>
<text x="25.29" y="199.58">*</text>
<text x="256.00" y="24.11">+</text>
<text x="477.51" y="280.83">.</text>
<text x="129.50" y="107.58">*</text>
<text x="434.30" y="257.14">.</text>
<text x="200.42" y="42.64">.</text>
<text x="104.12" y="373.49">+</text>
<text x="112.87" y="481.84">*</text>
<text x="144.80" y="88.81">.</text>
<text x="470.27" y="459.76">.</text>
<text x="141.38" y="200.01">.</text>
<text x="194.00" y="480.19">+</text>
<text x="436.86" y="236.42">.</text>
<text x="420.85" y="395.66">.</text>
<text x="157.97" y="322.18">+</text>
<text x="229.66" y="157.28">+</text>
<text x="101.10" y="152.85">+</text>
<text x="167.53" y="306.60">+</text>
<text x="20.89" y="303.70">*</text>
<text x="183.71" y="173.82">+</text>
<text x="232.93" y="485.23">+</text>
<text x="386.72" y="392.66">.</text>
<text x="123.96" y="235.74">*</text>
<text x="448.81" y="70.43">.</text>
<text x="372.82" y="460.12">+</text>
<text x="246.57" y="330.06">+</text>
<text x="476.66" y="3.35">+</text>
<text x="405.59" y="301.52">+</text>
<text x="77.63" y="185.29">+</text>
<text x="17.05" y="272.50">*</text>
<text x="82.75" y="428.42">.</text>
<text x="448.79" y="263.15">.</text>
<text x="251.73" y="259.38">+</text>
<text x="399.68" y="403.96">.</text>
<text x="396.72" y="493.93">+</text>
<text x="439.07" y="436.64">*</text>
<text x="235.32" y="155.20">+</text>
<text x="101.14" y="461.80">.</text>
<text x="330.13" y="41.42">+</text>
<text x="455.67" y="91.22">+</text>
<text x="80.67" y="360.37">.</text>
<text x="269.43" y="434.00">+</text>
<text x="343.58" y="331.37">+</text>
<text x="426.68" y="410.49">+</text>
<text x="218.59" y="266.16">+</text>
<text x="400.74" y="457.82">.</text>
<text x="69.95" y="334.50">.</text>
<text x="492.52" y="91.16">+</text>
<text x="104.71" y="263.33">+</text>
<text x="226.17" y="217.84">+</text>
<text x="72.34" y="429.84">*</text>
<text x="121.01" y="17.79">+</text>
<text x="467.30" y="355.74">.</text>
<text x="205.85" y="403.68">+</text>
<text x="320.85" y="91.28">.</text>
<text x="172.98" y="145.74">.</text>
<text x="313.10" y="358.56">.</text>
<text x="43.37" y="35.71">.</text>
<text x="137.44" y="375.32">+</text>
<text x="26.70" y="415.30">*</text>
<text x="264.92" y="126.05">+</text>
<text x="467.37" y="419.19">+</text>
<text x="145.44" y="224.62">.</text>
<text x="31.67" y="311.69">+</text>
<text x="345.68" y="382.41">+</text>
<text x="433.61" y="463.81">.</text>
<text x="368.44" y="211.19">+</text>
<text x="465.85" y="418.19">+</text>
<text x="407.93" y="345.97">*</text>
<text x="336.02" y="90.76">+</text>
<text x="345.58" y="268.35">+</text>
<text x="213.96" y="245.07">+</text>
<text x="233.06" y="300.19">.</text>
<text x="461.07" y="67.75">*</text>
<text x="450.07" y="14.35">.</text>
<text x="172.68" y="79.51">*</text>
<text x="143.34" y="110.47">*</text>
<text x="180.37" y="95.12">.</text>
<text x="452.39" y="71.35">.</text>
<text x="317.57" y="66.32">+</text>
<text x="384.56" y="384.00">.</text>
<text x="35.02" y="310.91">+</text>
<text x="79.18" y="381.91">+</text>
<text x="467.87" y="48.46">.</text>
<text x="10.91" y="368.93">+</text>
<text x="4.48" y="310.22">.</text>
<text x="52.86" y="379.89">*</text>
<text x="332.07" y="328.03">*</text>
<text x="212.62" y="381.37">+</text>
<text x="185.00" y="27.07">.</text>
<text x="359.03" y="137.36">+</text>
<text x="31.02" y="458.57">.</text>
<text x="349.07" y="372.54">*</text>
<text x="321.09" y="266.74">*</text>
<text x="373.90" y="167.81">+</text>
<text x="259.70" y="53.89">*</text>
<text x="466.94" y="1.06">+</text>
<text x="429.29" y="178.08">+</text>
<text x="77.10" y="346.85">.</text>
<text x="425.55" y="91.36">.</text>

</svg>