
<svg viewBox="0 0 500 500" xmlns="http://www.w.org/2000/svg" width="100%" height="100%" style="background-color: #0a0a14; font-family: 'Courier New', Courier, monospace;">
    <style>
        text { fill: #aaa; font-size: 10px; text-anchor: middle; dominant-baseline: middle; }
    </style>
    <text x="152.49" y="3.61">.</text>
<text x="11.37" y="143.49">+</text>
<text x="60.33" y="283.86">+</text>
<text x="282.31" y="265.48">.</text>
<text x="2.39" y="56.30">.</text>
<text x="301.10" y="90.86">.</text>
<text x="89.36" y="418.97">*</text>
<text x="454.28" y="322.53">+</text>
<text x="29.29" y="353.15">.</text>
<text x="29.47" y="43.69">+</text>
<text x="465.01" y="456.88">.</text>
<text x="403.58" y="248.89">.</text>
<text x="291.20" y="236.43">*</text>
<text x="265.35" y="216.57">+</text>
<text x="44.85" y="270.20">*</text>
<text x="388.52" y="459.24">.</text>
<text x="449.00" y="334.51">*</text>
<text x="355.32" y="130.04">.</text>
<text x="371.29" y="14.13">.</text>
<text x="344.08" y="84.74">*</text>
<text x="324.71" y="362.48">+</text>
<text x="372.38" y="169.85">*</text>
<text x="432.33" y="145.64">.</text>
<text x="15.73" y="117.49">.</text>
<text x="273.34" y="330.37">.</text>
<text x="304.00" y="483.55">+</text>
<text x="50.43" y="330.23">.</text>
<text x="282.45" y="439.11">+</text>
<text x="320.72" y="491.10">+</text>
<text x="471.84" y="56.22">.</text>
<text x="11.24" y="59.75">.</text>
<text x="298.91" y="148.83">+</text>
<text x="44.77" y="302.97">*</text>
<text x="89.99" y="311.93">.</text>
<text x="448.33" y="474.24">*</text>
<text x="473.86" y="292.01">.</text>
<text x="468.38" y="255.75">+</text>
<text x="10.68" y="223.33">.</text>
<text x="219.28" y="428.25">+</text>
<text x="168.61" y="420.90">.</text>
<text x="280.06" y="92.01">+</text>
<text x="47.86" y="103.86">+</text>
<text x="486.34" y="23.85">.</text>
<text x="10.50" y="88.67">*</text>
<text x="242.10" y="63.03">.</text>
<text x="403.11" y="253.73">+</text>
<text x="245.42" y="303.05">*</text>
<text x="174.33" y="133.81">.</text>
<text x="113.07" y="167.54">*</text>
<text x="52.86" y="387.36">.</text>
<text x="302.68" y="243.45">.</text>
<text x="394.22" y="435.84">.</text>
<text x="246.46" y="419.28">+</text>
<text x="328.14" y="317.04">.</text>
<text x="238.93" y="395.01">.</text>
<text x="270.53" y="72.94">.</text>
<text x="323.75" y="120.96">.</text>
<text x="157.51" y="96.72">.</text>
<text x="431.11" y="336.51">+</text>
<text x="335.66" y="491.08">.</text>
<text x="238.33" y="281.05">+</text>
<text x="206.62" y="323.98">*</text>
<text x="264.63" y="323.36">*</text>
<text x="451.31" y="60.84">+</text>
<text x="418.76" y="99.52">+</text>
<text x="377.73" y="213.25">+</text>
<text x="9.67" y="84.02">+</text>
<text x="401.22" y="217.29">+</text>
<text x="337.07" y="347.55">+</text>
<text x="138.37" y="317.01">+</text>
<text x="303.57" y="149.37">+</text>
<text x="416.06" y="142.05">.</text>
<text x="377.93" y="23.54">+</text>
<text x="98.47" y="271.13">+</text>
<text x="205.67" y="296.43">*</text>
<text x="370.22" y="39.30">+</text>
<text x="311.23" y="209.20">*</text>
<text x="447.77" y="200.18">*</text>
<text x="458.41" y="283.73">.</text>
<text x="472.73" y="92.60">*</text>
<text x="51.29" y="262.69">*</text>
<text x="290.55" y="91.22">*</text>
<text x="484.56" y="215.82">+</text>
<text x="117.28" y="93.05">+</text>
<text x="396.44" y="28.12">.</text>
<text x="153.81" y="41.46">+</text>
<text x="301.98" y="391.19">.</text>
<text x="357.04" y="437.12">+</text>
<text x="316.73" y="147.71">.</text>
<text x="227.27" y="149.54">+</text>
<text x="209.37" y="346.88">.</text>
<text x="29.92" y="314.67">*</text>
<text x="139.36" y="167.95">+</text>
<text x="482.55" y="490.49">*</text>
<text x="412.57" y="415.73">+</text>
<text x="196.60" y="98.12">+</text>
<text x="368.33" y="107.07">.</text>
<text x="37.49" y="109.83">*</text>
<text x="175.49" y="237.96">.</text>
<text x="396.41" y="366.83">+</text>
<text x="167.69" y="478.39">+</text>
<text x="256.26" y="249.08">+</text>
<text x="26.91" y="196.75">+</text>
<text x="196.19" y="68.37">+</text>
<text x="42.79" y="51.95">.</text>
<text x="414.67" y="245.13">.</text>
<text x="285.58" y="156.39">+</text>
<text x="481.54" y="493.85">.</text>
<text x="311.09" y="73.84">.</text>
<text x="309.23" y="204.83">.</text>
<text x="153.92" y="136.74">+</text>
<text x="363.68" y="367.70">*</text>
<text x="375.56" y="78.73">+</text>
<text x="97.10" y="448.32">.</text>
<text x="468.77" y="473.04">+</text>
<text x="317.76" y="286.35">.</text>
<text x="87.87" y="35.02">+</text>
<text x="347.20" y="159.54">.</text>
<text x="318.18" y="246.39">*</text>
<text x="94.52" y="398.68">+</text>
<text x="122.21" y="187.65">.</text>
<text x="403.63" y="217.27">.</text>
<text x="314.47" y="357.27">.</text>
<text x="97.28" y="127.86">+</text>
<text x="155.54" y="322.95">*</text>
<text x="468.03" y="14.38">+</text>
<text x="28.09" y="260.72">.</text>
<text x="372.97" y="436.16">+</text>
<text x="216.63" y="352.59">.</text>
<text x="415.02" y="325.41">.</text>
<text x="207.13" y="60.52">+</text>
<text x="395.52" y="413.67">*</text>
<text x="492.19" y="96.12">.</text>
<text x="148.24" y="253.62">+</text>
<text x="423.30" y="172.43">+</text>
<text x="228.95" y="319.94">.</text>
<text x="26.36" y="407.37">+</text>
<text x="362.37" y="88.36">.</text>
<text x="201.04" y="388.79">+</text>
<text x="185.98" y="62.02">+</text>
<text x="236.34" y="191.91">+</text>
<text x="349.27" y="191.01">+</text>
<text x="287.40" y="484.24">.</text>
<text x="494.05" y="98.99">.</text>
<text x="45.44" y="244.69">.</text>
<text x="7.09" y="278.47">*</text>
<text x="107.47" y="143.18">+</text>
<text x="218.69" y="53.82">+</text>
<text x="383.94" y="436.28">+</text>
<text x="107.14" y="199.91">.</text>
<text x="371.63" y="495.43">*</text>
<text x="77.44" y="454.78">.</text>
<text x="94.61" y="360.88">.</text>
<text x="409.43" y="316.20">+</text>
<text x="383.88" y="29.62">.</text>
<text x="414.03" y="118.35">.</text>
<text x="403.02" y="234.81">+</text>
<text x="239.83" y="481.54">.</text>
<text x="363.52" y="360.53">.</text>
<text x="269.03" y="200.07">.</text>
<text x="21.59" y="1.46">.</text>
<text x="106.44" y="204.33">.</text>
<text x="226.01" y="424.27">.</text>
<text x="193.20" y="90.53">.</text>
<text x="235.69" y="203.39">.</text>
<text x="29.82" y="47.34">.</text>
<text x="43.71" y="142.78">+</text>
<text x="352.41" y="176.60">.</text>
<text x="85.71" y="10.45">.</text>
<text x="228.20" y="0.90">+</text>
<text x="135.96" y="345.22">.</text>
<text x="332.68" y="64.43">.</text>
<text x="221.11" y="429.49">+</text>
<text x="367.32" y="404.49">+</text>
<text x="362.39" y="181.87">.</text>
<text x="7.25" y="432.23">.</text>
<text x="168.57" y="321.30">.</text>
<text x="109.46" y="81.20">.</text>
<text x="210.56" y="263.19">+</text>
<text x="376.65" y="57.08">*</text>
<text x="406.99" y="142.45">+</text>
<text x="161.91" y="423.41">+</text>
<text x="228.54" y="251.12">*</text>
<text x="62.93" y="126.59">.</text>
<text x="398.27" y="31.29">.</text>
<text x="278.57" y="118.28">*</text>
<text x="355.97" y="357.06">.</text>
<text x="163.91" y="493.12">*</text>
<text x="274.78" y="350.63">*</text>
<text x="141.10" y="320.16">+</text>
<text x="296.01" y="16.61">.</text>
<text x="2.28" y="385.28">*</text>
<text x="55.00" y="401.21">.</text>
<text x="166.41" y="10.19">.</text>
<text x="203.94" y="92.76">.</text>
<text x="455.57" y="261.20">.</text>
<text x="318.32" y="369.53">+</text>
<text x="42.68" y="259.15">+</text>
<text x="238.04" y="107.07">+</text>
<text x="70.03" y="339.90">+</text>
<text x="76.79" y="51.56">+</text>
<text x="479.69" y="9.26">+</text>
<text x="345.96" y="154.73">+</text>
<text x="312.04" y="313.20">+</text>
<text x="192.20" y="318.84">*</text>
<text x="337.59" y="280.97">+</text>
<text x="296.31" y="272.23">.</text>
<text x="440.33" y="109.52">+</text>
<text x="178.13" y="230.73">.</text>
<text x="175.93" y="87.35">+</text>
<text x="486.44" y="446.76">.</text>
<text x="308.73" y="387.28">*</text>
<text x="327.65" y="112.67">.</text>
<text x="178.60" y="177.77">*</text>
<text x="269.68" y="474.49">+</text>
<text x="234.51" y="114.83">*</text>
<text x="328.17" y="141.64">+</text>
<text x="447.38" y="429.57">.</text>
<text x="28.69" y="406.43">+</text>
<text x="190.46" y="402.85">.</text>
<text x="47.11" y="4.50">*</text>
<text x="444.23" y="15.20">+</text>

</svg>