
<svg viewBox="0 0 500 500" xmlns="http://www.w.org/2000/svg" width="100%" height="100%" style="background-color: #0a0a14; font-family: 'Courier New', Courier, monospace;">
    <style>
        text { fill: #aaa; font-size: 10px; text-anchor: middle; dominant-baseline: middle; }
    </style>
    <text x="246.86" y="376.00">.</text>
<text x="90.01" y="179.80">*</text>
<text x="332.60" y="94.60">.</text>
<text x="430.24" y="412.70">*</text>
<text x="171.42" y="242.21">.</text>
<text x="427.39" y="312.62">.</text>
<text x="73.79" y="30.26">.</text>
<text x="436.25" y="259.42">.</text>
<text x="499.79" y="64.97">.</text>
<text x="475.87" y="141.84">.</text>
<text x="234.96" y="486.00">*</text>
<text x="465.49" y="319.35">+</text>
<text x="229.79" y="101.50">.</text>
<text x="414.35" y="3.47">.</text>
<text x="39.47" y="307.02">+</text>
<text x="55.01" y="112.43">.</text>
<text x="359.77" y="153.85">+</text>
<text x="210.73" y="337.51">.</text>
<text x="405.90" y="50.48">+</text>
<text x="366.27" y="208.07">*</text>
<text x="221.85" y="67.75">.</text>
<text x="155.89" y="227.16">.</text>
<text x="178.59" y="99.16">.</text>
<text x="188.62" y="296.76">+</text>
<text x="198.04" y="376.78">.</text>
<text x="167.86" y="124.60">+</text>
<text x="372.52" y="10.59">.</text>
<text x="441.28" y="468.87">.</text>
<text x="186.39" y="233.32">+</text>
<text x="405.50" y="205.51">*</text>
<text x="242.31" y="142.71">.</text>
<text x="128.09" y="158.15">.</text>
<text x="14.82" y="427.37">.</text>
<text x="200.15" y="456.85">.</text>
<text x="95.28" y="67.77">.</text>
<text x="494.90" y="459.64">.</text>
<text x="18.39" y="356.08">+</text>
<text x="43.19" y="368.87">+</text>
<text x="427.47" y="164.49">*</text>
<text x="104.86" y="481.79">+</text>
<text x="156.81" y="285.70">.</text>
<text x="264.49" y="151.87">.</text>
<text x="377.57" y="150.25">.</text>
<text x="472.56" y="365.51">*</text>
<text x="225.55" y="447.13">+</text>
<text x="78.40" y="155.45">+</text>
<text x="204.85" y="29.00">*</text>
<text x="186.81" y="128.41">.</text>
<text x="47.22" y="137.99">*</text>
<text x="234.72" y="83.85">*</text>
<text x="19.68" y="210.28">.</text>
<text x="206.97" y="151.59">+</text>
<text x="258.75" y="299.03">.</text>
<text x="493.11" y="257.14">.</text>
<text x="382.11" y="0.19">+</text>
<text x="122.15" y="71.91">+</text>
<text x="28.16" y="377.21">+</text>
<text x="216.09" y="289.17">+</text>
<text x="195.89" y="66.14">+</text>
<text x="166.48" y="283.71">+</text>
<text x="296.70" y="333.38">+</text>
<text x="473.32" y="222.15">.</text>
<text x="163.37" y="453.27">*</text>
<text x="485.13" y="473.02">.</text>
<text x="427.97" y="481.01">.</text>
<text x="457.35" y="357.66">.</text>
<text x="68.06" y="84.16">.</text>
<text x="151.07" y="19.79">+</text>
<text x="131.68" y="360.44">*</text>
<text x="265.73" y="457.96">.</text>
<text x="289.87" y="415.71">.</text>
<text x="203.92" y="225.46">.</text>
<text x="171.58" y="389.02">+</text>
<text x="46.88" y="415.97">.</text>
<text x="264.48" y="265.36">.</text>
<text x="106.88" y="76.90">.</text>
<text x="86.84" y="358.26">+</text>
<text x="448.34" y="252.93">+</text>
<text x="343.93" y="299.06">+</text>
<text x="480.38" y="86.43">+</text>
<text x="175.52" y="438.58">+</text>
<text x="5.66" y="340.37">.</text>
<text x="325.52" y="433.29">.</text>
<text x="35.03" y="100.93">.</text>
<text x="385.14" y="203.64">.</text>
<text x="260.98" y="410.40">.</text>
<text x="404.05" y="499.59">*</text>
<text x="274.23" y="279.43">+</text>
<text x="183.38" y="377.99">*</text>
<text x="251.84" y="482.36">.</text>
<text x="184.03" y="373.81">+</text>
<text x="153.56" y="325.21">.</text>
<text x="211.09" y="36.46">*</text>
<text x="212.91" y="197.13">.</text>
<text x="283.61" y="468.55">+</text>
<text x="432.36" y="13.71">*</text>
<text x="25.21" y="70.56">+</text>
<text x="384.60" y="213.16">.</text>
<text x="195.25" y="12.94">+</text>
<text x="265.35" y="404.07">*</text>
<text x="203.68" y="260.02">.</text>
<text x="457.95" y="443.30">.</text>
<text x="316.40" y="337.39">.</text>
<text x="205.20" y="385.77">.</text>
<text x="434.71" y="433.22">.</text>
<text x="251.67" y="165.52">+</text>
<text x="377.53" y="427.45">+</text>
<text x="162.35" y="340.23">.</text>
<text x="433.84" y="167.23">+</text>
<text x="446.62" y="260.92">.</text>
<text x="304.53" y="424.26">+</text>
<text x="69.38" y="427.91">+</text>
<text x="418.82" y="121.58">.</text>
<text x="134.08" y="176.30">.</text>
<text x="384.84" y="249.50">+</text>
<text x="235.26" y="33.47">.</text>
<text x="88.45" y="232.48">+</text>
<text x="197.46" y="51.75">.</text>
<text x="394.23" y="301.90">.</text>
<text x="296.59" y="440.46">+</text>
<text x="116.31" y="353.88">+</text>
<text x="232.63" y="61.93">+</text>
<text x="420.53" y="87.31">.</text>
<text x="162.93" y="415.42">.</text>
<text x="310.65" y="140.67">+</text>
<text x="87.83" y="166.34">*</text>
<text x="488.34" y="458.56">+</text>
<text x="71.73" y="331.47">.</text>
<text x="24.16" y="166.85">+</text>
<text x="150.67" y="285.58">+</text>
<text x="52.58" y="442.15">*</text>
<text x="56.92" y="157.34">+</text>
<text x="275.66" y="88.70">+</text>
<text x="331.12" y="483.69">+</text>
<text x="378.48" y="101.68">*</text>
<text x="492.04" y="141.99">.</text>
<text x="238.38" y="250.91">*</text>
<text x="33.22" y="445.34">.</text>
<text x="452.47" y="136.90">+</text>
<text x="392.52" y="255.99">.</text>
<text x="284.16" y="20.92">.</text>
<text x="135.57" y="216.48">.</text>
<text x="104.22" y="369.55">.</text>
<text x="230.45" y="476.69">+</text>
<text x="381.88" y="141.45">+</text>
<text x="56.78" y="386.02">*</text>
<text x="133.73" y="216.49">*</text>
<text x="270.35" y="286.98">*</text>
<text x="358.97" y="448.96">.</text>
<text x="17.15" y="220.77">+</text>
<text x="394.66" y="444.78">+</text>
<text x="274.02" y="160.31">+</text>
<text x="231.91" y="369.63">.</text>
<text x="104.18" y="103.47">+</text>
<text x="467.59" y="481.94">+</text>
<text x="13.65" y="98.38">+</text>
<text x="1.83" y="433.06">+</text>
<text x="376.30" y="346.01">+</text>
<text x="27.50" y="150.52">+</text>
<text x="261.49" y="78.03">+</text>
<text x="479.80" y="384.96">.</text>
<text x="164.31" y="66.00">+</text>
<text x="147.82" y="481.84">+</text>
<text x="149.03" y="489.28">.</text>
<text x="451.02" y="351.36">+</text>
<text x="431.71" y="392.72">+</text>
<text x="69.13" y="429.49">.</text>
<text x="284.63" y="442.09">+</text>
<text x="226.33" y="312.23">+</text>
<text x="152.45" y="21.93">.</text>
<text x="295.74" y="431.10">*</text>
<text x="140.79" y="178.89">+</text>
<text x="14.46" y="141.96">+</text>
<text x="148.90" y="201.02">.</text>
<text x="221.72" y="423.60">*</text>
<text x="474.29" y="258.95">+</text>
<text x="246.06" y="388.17">+</text>
<text x="184.07" y="47.63">+</text>
<text x="363.33" y="12.32">.</text>
<text x="316.06" y="129.24">*</text>
<text x="308.08" y="54.89">.</text>
<text x="196.06" y="200.73">+</text>
<text x="80.42" y="394.51">+</text>
<text x="449.42" y="116.74">+</text>
<text x="246.18" y="408.41">.</text>
<text x="251.27" y="311.37">.</text>
<text x="438.78" y="118.15">.</text>
<text x="46.20" y="212.59">*</text>
<text x="300.84" y="52.04">+</text>
<text x="494.36" y="265.58">.</text>
<text x="86.03" y="411.18">.</text>
<text x="208.01" y="141.13">+</text>
<text x="123.21" y="443.03">+</text>
<text x="197.52" y="67.26">+</text>
<text x="137.21" y="82.83">+</text>
<text x="227.79" y="304.65">+</text>
<text x="386.26" y="226.80">*</text>
<text x="493.80" y="392.00">.</text>
<text x="141.83" y="335.38">+</text>
<text x="173.25" y="391.53">+</text>
<text x="171.47" y="159.22">.</text>
<text x="24.13" y="345.95">.</text>
<text x="394.54" y="364.82">.</text>
<text x="147.83" y="126.96">.</text>
<text x="367.20" y="427.59">.</text>
<text x="226.90" y="171.99">+</text>
<text x="460.20" y="288.76">.</text>
<text x="97.42" y="69.27">.</text>
<text x="411.79" y="466.34">.</text>
<text x="304.44" y="129.89">.</text>

</svg>