
<svg viewBox="0 0 500 500" xmlns="http://www.w.org/2000/svg" width="100%" height="100%" style="background-color: #0a0a14; font-family: 'Courier New', Courier, monospace;">
    <style>
        text { fill: #aaa; font-size: 10px; text-anchor: middle; dominant-baseline: middle; }
    </style>
    <text x="4.91" y="298.02">+</text>
<text x="24.88" y="30.60">.</text>
<text x="394.90" y="257.66">.</text>
<text x="254.87" y="157.21">.</text>
<text x="112.27" y="285.35">*</text>
<text x="373.61" y="382.14">+</text>
<text x="19.37" y="422.18">.</text>
<text x="219.76" y="126.37">*</text>
<text x="169.46" y="207.35">+</text>
<text x="362.89" y="452.50">+</text>
<text x="98.38" y="81.96">*</text>
<text x="149.96" y="410.34">+</text>
<text x="125.66" y="446.68">.</text>
<text x="282.17" y="401.92">+</text>
<text x="21.24" y="90.18">.</text>
<text x="427.31" y="161.64">.</text>
<text x="179.96" y="317.51">.</text>
<text x="127.89" y="421.34">.</text>
<text x="419.74" y="128.46">.</text>
<text x="273.98" y="64.49">*</text>
<text x="318.75" y="279.69">.</text>
<text x="223.84" y="34.59">.</text>
<text x="73.67" y="164.45">.</text>
<text x="225.17" y="404.42">+</text>
<text x="169.19" y="267.39">+</text>
<text x="306.81" y="463.41">+</text>
<text x="492.49" y="232.91">.</text>
<text x="407.72" y="493.11">.</text>
<text x="465.86" y="374.98">+</text>
<text x="311.26" y="283.54">+</text>
<text x="469.03" y="468.40">.</text>
<text x="94.85" y="212.66">+</text>
<text x="485.64" y="69.90">*</text>
<text x="17.10" y="20.53">.</text>
<text x="288.92" y="205.38">.</text>
<text x="330.25" y="140.66">.</text>
<text x="139.13" y="306.38">.</text>
<text x="431.91" y="280.59">.</text>
<text x="391.24" y="126.28">.</text>
<text x="439.30" y="343.69">+</text>
<text x="415.44" y="415.05">+</text>
<text x="440.75" y="367.62">+</text>
<text x="55.53" y="58.06">+</text>
<text x="444.67" y="227.47">.</text>
<text x="421.25" y="344.31">.</text>
<text x="151.39" y="176.57">.</text>
<text x="319.92" y="401.07">.</text>
<text x="133.61" y="285.30">+</text>
<text x="376.23" y="193.27">+</text>
<text x="409.71" y="202.23">+</text>
<text x="38.22" y="191.93">.</text>
<text x="492.41" y="425.75">.</text>
<text x="120.24" y="431.10">.</text>
<text x="283.59" y="296.36">+</text>
<text x="40.76" y="482.18">+</text>
<text x="403.86" y="264.54">+</text>
<text x="362.62" y="107.66">*</text>
<text x="205.80" y="244.29">*</text>
<text x="486.94" y="370.02">*</text>
<text x="438.46" y="388.96">.</text>
<text x="193.80" y="303.52">*</text>
<text x="3.24" y="433.48">.</text>
<text x="235.03" y="303.84">+</text>
<text x="488.77" y="75.84">*</text>
<text x="272.77" y="18.59">+</text>
<text x="239.78" y="191.74">.</text>
<text x="448.73" y="490.62">.</text>
<text x="451.62" y="60.02">+</text>
<text x="145.98" y="264.52">+</text>
<text x="440.24" y="152.00">.</text>
<text x="212.38" y="270.13">+</text>
<text x="136.43" y="309.37">.</text>
<text x="432.23" y="455.02">+</text>
<text x="455.40" y="285.83">.</text>
<text x="141.68" y="217.39">+</text>
<text x="247.39" y="424.76">.</text>
<text x="345.42" y="427.23">+</text>
<text x="274.66" y="62.35">+</text>
<text x="39.60" y="276.29">+</text>
<text x="42.76" y="0.12">+</text>
<text x="454.08" y="439.79">+</text>
<text x="464.03" y="131.75">.</text>
<text x="37.24" y="331.02">.</text>
<text x="187.21" y="71.83">+</text>
<text x="259.34" y="184.40">.</text>
<text x="333.44" y="440.10">.</text>
<text x="16.75" y="208.30">+</text>
<text x="368.05" y="472.51">+</text>
<text x="403.22" y="432.56">*</text>
<text x="411.99" y="260.61">.</text>
<text x="200.94" y="321.34">.</text>
<text x="368.81" y="303.23">*</text>
<text x="337.14" y="166.81">.</text>
<text x="41.57" y="148.89">+</text>
<text x="27.33" y="295.72">.</text>
<text x="31.60" y="2.10">.</text>
<text x="326.35" y="111.25">.</text>
<text x="179.49" y="200.01">.</text>
<text x="25.19" y="339.02">+</text>
<text x="276.62" y="202.56">+</text>
<text x="393.92" y="234.18">*</text>
<text x="348.18" y="419.88">.</text>
<text x="280.94" y="368.15">.</text>
<text x="9.77" y="437.75">.</text>
<text x="216.50" y="205.22">.</text>
<text x="140.03" y="163.74">+</text>
<text x="135.45" y="333.04">.</text>
<text x="279.69" y="169.78">+</text>
<text x="79.87" y="331.86">.</text>
<text x="259.31" y="252.08">.</text>
<text x="360.96" y="143.33">.</text>
<text x="179.53" y="166.75">.</text>
<text x="292.45" y="54.64">+</text>
<text x="477.73" y="1.62">+</text>
<text x="273.82" y="435.41">+</text>
<text x="183.36" y="464.44">.</text>
<text x="1.04" y="480.61">+</text>
<text x="236.32" y="211.49">.</text>
<text x="67.32" y="328.80">+</text>
<text x="28.75" y="341.14">.</text>
<text x="150.55" y="479.96">*</text>
<text x="104.20" y="1.55">+</text>
<text x="400.53" y="257.33">+</text>
<text x="123.88" y="267.44">*</text>
<text x="362.02" y="285.48">+</text>
<text x="358.42" y="409.43">+</text>
<text x="223.16" y="121.11">.</text>
<text x="63.66" y="256.63">+</text>
<text x="277.59" y="222.34">+</text>
<text x="451.01" y="398.95">+</text>
<text x="136.79" y="201.80">*</text>
<text x="435.01" y="171.06">+</text>
<text x="319.95" y="365.39">.</text>
<text x="397.93" y="326.29">*</text>
<text x="318.81" y="35.34">.</text>
<text x="176.53" y="421.85">.</text>
<text x="129.30" y="24.89">.</text>
<text x="221.31" y="498.34">+</text>
<text x="20.17" y="90.35">+</text>
<text x="10.26" y="355.25">.</text>
<text x="480.27" y="352.63">.</text>
<text x="174.88" y="182.54">*</text>
<text x="390.42" y="389.32">+</text>
<text x="19.83" y="251.68">+</text>
<text x="94.70" y="2.47">.</text>
<text x="494.66" y="90.03">+</text>
<text x="282.57" y="34.01">+</text>
<text x="78.23" y="162.41">+</text>
<text x="270.75" y="469.83">+</text>
<text x="142.23" y="102.07">+</text>
<text x="190.84" y="478.84">+</text>
<text x="219.01" y="419.98">+</text>
<text x="59.81" y="181.48">+</text>
<text x="207.64" y="487.00">*</text>
<text x="323.20" y="30.87">.</text>
<text x="85.01" y="86.13">.</text>
<text x="260.03" y="174.81">.</text>
<text x="207.49" y="299.89">.</text>
<text x="432.97" y="116.79">.</text>
<text x="212.21" y="139.67">+</text>
<text x="65.42" y="109.82">.</text>
<text x="259.10" y="447.20">.</text>
<text x="412.42" y="213.94">+</text>
<text x="181.82" y="45.96">+</text>
<text x="430.39" y="56.54">.</text>
<text x="404.57" y="289.73">+</text>
<text x="325.40" y="34.36">+</text>
<text x="313.41" y="335.27">.</text>
<text x="430.27" y="168.50">+</text>
<text x="235.81" y="406.07">+</text>
<text x="424.67" y="365.58">.</text>
<text x="297.54" y="25.49">.</text>
<text x="456.98" y="99.14">.</text>
<text x="125.79" y="156.72">.</text>
<text x="273.86" y="266.15">+</text>
<text x="405.27" y="104.86">.</text>
<text x="341.58" y="248.24">.</text>
<text x="137.15" y="451.93">+</text>
<text x="446.34" y="142.02">.</text>
<text x="398.77" y="284.78">.</text>
<text x="453.87" y="291.81">+</text>
<text x="306.02" y="138.76">+</text>
<text x="242.62" y="46.43">.</text>
<text x="457.03" y="417.86">+</text>
<text x="492.93" y="12.01">+</text>
<text x="2.29" y="281.94">+</text>
<text x="164.18" y="84.90">*</text>
<text x="58.01" y="335.23">+</text>
<text x="188.22" y="123.83">+</text>
<text x="109.18" y="474.54">.</text>
<text x="390.99" y="75.05">+</text>
<text x="323.76" y="206.95">+</text>
<text x="160.94" y="291.19">*</text>
<text x="208.04" y="30.95">+</text>
<text x="162.33" y="320.27">+</text>
<text x="439.37" y="368.68">.</text>
<text x="208.21" y="297.35">.</text>
<text x="488.59" y="220.95">.</text>
<text x="482.12" y="190.25">*</text>
<text x="114.09" y="301.98">+</text>
<text x="218.31" y="436.86">.</text>
<text x="409.59" y="180.90">.</text>
<text x="414.28" y="12.38">+</text>
<text x="148.33" y="101.20">.</text>
<text x="317.43" y="369.83">.</text>
<text x="82.26" y="452.03">+</text>
<text x="77.12" y="330.76">.</text>
<text x="431.14" y="309.47">.</text>
<text x="122.11" y="154.60">+</text>
<text x="164.72" y="307.81">.</text>
<text x="442.29" y="467.46">.</text>
<text x="41.96" y="494.50">+</text>
<text x="15.54" y="498.15">+</text>

</svg>