
<svg viewBox="0 0 500 500" xmlns="http://www.w.org/2000/svg" width="100%" height="100%" style="background-color: #0a0a14; font-family: 'Courier New', Courier, monospace;">
    <style>
        text { fill: #aaa; font-size: 10px; text-anchor: middle; dominant-baseline: middle; }
    </style>
    <text x="434.03" y="238.01">.</text>
<text x="86.71" y="128.03">*</text>
<text x="403.07" y="42.24">+</text>
<text x="494.29" y="126.08">+</text>
<text x="290.07" y="296.49">.</text>
<text x="468.04" y="168.43">.</text>
<text x="167.84" y="281.40">.</text>
<text x="340.70" y="169.01">+</text>
<text x="348.20" y="199.49">+</text>
<text x="499.41" y="261.11">+</text>
<text x="59.31" y="233.75">.</text>
<text x="229.53" y="414.86">+</text>
<text x="275.82" y="306.40">.</text>
<text x="419.67" y="332.87">+</text>
<text x="253.68" y="156.73">+</text>
<text x="23.51" y="222.23">*</text>
<text x="112.31" y="21.02">.</text>
<text x="353.25" y="339.45">.</text>
<text x="139.65" y="131.57">.</text>
<text x="332.38" y="399.82">.</text>
<text x="418.19" y="256.94">.</text>
<text x="108.44" y="298.92">.</text>
<text x="356.63" y="203.69">*</text>
<text x="492.71" y="392.79">.</text>
<text x="234.80" y="187.62">*</text>
<text x="382.17" y="345.96">.</text>
<text x="437.50" y="497.86">.</text>
<text x="105.40" y="400.10">+</text>
<text x="441.73" y="276.99">+</text>
<text x="483.40" y="390.09">.</text>
<text x="2.79" y="426.33">+</text>
<text x="434.85" y="37.20">*</text>
<text x="276.57" y="203.77">+</text>
<text x="208.47" y="381.78">.</text>
<text x="404.74" y="226.63">.</text>
<text x="398.46" y="209.62">+</text>
<text x="27.68" y="28.52">.</text>
<text x="464.99" y="161.41">+</text>
<text x="298.49" y="3.01">+</text>
<text x="259.52" y="423.48">+</text>
<text x="349.49" y="203.01">.</text>
<text x="359.29" y="354.49">+</text>
<text x="486.68" y="368.71">+</text>
<text x="485.61" y="496.04">.</text>
<text x="452.71" y="250.34">+</text>
<text x="297.48" y="134.09">.</text>
<text x="187.55" y="319.18">.</text>
<text x="235.92" y="145.51">.</text>
<text x="277.19" y="233.61">.</text>
<text x="2.15" y="295.38">*</text>
<text x="359.00" y="201.87">+</text>
<text x="422.62" y="318.42">+</text>
<text x="168.82" y="179.81">+</text>
<text x="298.18" y="432.61">+</text>
<text x="306.25" y="190.49">+</text>
<text x="267.55" y="66.05">+</text>
<text x="323.37" y="174.43">*</text>
<text x="204.47" y="356.33">+</text>
<text x="187.31" y="271.12">.</text>
<text x="49.76" y="266.78">.</text>
<text x="248.76" y="297.73">*</text>
<text x="380.00" y="172.82">.</text>
<text x="106.12" y="103.33">*</text>
<text x="383.49" y="324.19">.</text>
<text x="443.55" y="497.43">.</text>
<text x="56.10" y="299.39">.</text>
<text x="237.08" y="451.05">+</text>
<text x="272.54" y="4.25">.</text>
<text x="496.93" y="405.92">.</text>
<text x="121.90" y="66.51">+</text>
<text x="31.52" y="241.82">+</text>
<text x="121.01" y="415.58">+</text>
<text x="111.59" y="368.22">.</text>
<text x="459.35" y="113.86">.</text>
<text x="300.48" y="331.39">+</text>
<text x="67.15" y="115.69">*</text>
<text x="30.29" y="473.20">.</text>
<text x="298.67" y="215.93">+</text>
<text x="367.98" y="436.04">+</text>
<text x="490.54" y="187.70">.</text>
<text x="284.16" y="196.05">+</text>
<text x="143.21" y="96.26">.</text>
<text x="463.24" y="287.00">+</text>
<text x="139.28" y="178.97">.</text>
<text x="138.78" y="203.42">.</text>
<text x="27.48" y="440.99">.</text>
<text x="419.23" y="493.06">.</text>
<text x="409.15" y="251.18">+</text>
<text x="306.76" y="59.95">*</text>
<text x="151.61" y="469.23">+</text>
<text x="135.86" y="188.03">.</text>
<text x="294.13" y="390.84">+</text>
<text x="150.40" y="276.72">.</text>
<text x="472.33" y="117.04">+</text>
<text x="167.90" y="331.37">.</text>
<text x="426.18" y="26.30">+</text>
<text x="386.63" y="226.60">.</text>
<text x="307.86" y="383.68">.</text>
<text x="142.33" y="287.57">.</text>
<text x="361.05" y="408.38">+</text>
<text x="94.79" y="234.74">+</text>
<text x="241.79" y="217.79">*</text>
<text x="184.16" y="4.92">*</text>
<text x="465.44" y="433.47">+</text>
<text x="315.53" y="301.69">.</text>
<text x="354.56" y="148.62">+</text>
<text x="432.69" y="16.80">+</text>
<text x="493.40" y="9.45">+</text>
<text x="299.12" y="379.32">*</text>
<text x="482.06" y="440.07">.</text>
<text x="56.55" y="110.49">.</text>
<text x="243.79" y="79.10">+</text>
<text x="22.68" y="21.11">.</text>
<text x="112.13" y="321.31">.</text>
<text x="352.05" y="326.21">*</text>
<text x="339.44" y="197.05">*</text>
<text x="223.10" y="27.26">+</text>
<text x="368.04" y="409.78">+</text>
<text x="407.71" y="346.27">*</text>
<text x="475.47" y="54.66">+</text>
<text x="297.51" y="493.41">*</text>
<text x="240.55" y="148.68">.</text>
<text x="361.09" y="160.37">+</text>
<text x="280.77" y="201.75">.</text>
<text x="195.56" y="95.39">+</text>
<text x="365.35" y="386.48">+</text>
<text x="398.35" y="410.06">.</text>
<text x="298.14" y="343.56">.</text>
<text x="250.12" y="335.96">.</text>
<text x="116.90" y="169.90">+</text>
<text x="230.66" y="310.54">.</text>
<text x="281.47" y="330.62">+</text>
<text x="360.14" y="497.54">*</text>
<text x="75.59" y="250.51">*</text>
<text x="240.17" y="55.11">+</text>
<text x="39.86" y="367.82">.</text>
<text x="101.04" y="39.73">+</text>
<text x="233.78" y="387.89">.</text>
<text x="360.71" y="239.76">*</text>
<text x="306.64" y="310.71">.</text>
<text x="157.07" y="454.88">.</text>
<text x="366.59" y="450.79">.</text>
<text x="366.57" y="317.89">+</text>
<text x="206.68" y="368.24">+</text>
<text x="217.17" y="412.19">+</text>
<text x="29.16" y="428.00">+</text>
<text x="87.12" y="108.00">+</text>
<text x="232.93" y="49.80">*</text>
<text x="392.52" y="318.09">.</text>
<text x="117.83" y="388.19">+</text>
<text x="167.88" y="40.52">+</text>
<text x="225.70" y="355.16">+</text>
<text x="109.17" y="224.48">+</text>
<text x="180.11" y="456.69">.</text>
<text x="149.43" y="321.16">.</text>
<text x="338.06" y="364.37">.</text>
<text x="469.86" y="432.34">+</text>
<text x="100.37" y="5.73">.</text>
<text x="0.90" y="367.80">+</text>
<text x="146.13" y="53.46">.</text>
<text x="494.97" y="227.58">+</text>
<text x="93.08" y="466.66">.</text>
<text x="139.09" y="205.86">*</text>
<text x="221.06" y="192.12">*</text>
<text x="354.07" y="92.94">+</text>
<text x="412.83" y="106.25">+</text>
<text x="281.13" y="436.89">.</text>
<text x="177.30" y="283.61">+</text>
<text x="405.31" y="0.67">.</text>
<text x="365.10" y="451.04">+</text>
<text x="359.50" y="451.01">.</text>
<text x="199.69" y="83.26">.</text>
<text x="388.33" y="113.24">+</text>
<text x="356.94" y="469.03">+</text>
<text x="496.63" y="340.58">.</text>
<text x="165.33" y="406.39">.</text>
<text x="192.54" y="443.62">.</text>
<text x="418.02" y="55.19">+</text>
<text x="70.64" y="202.78">.</text>
<text x="101.11" y="168.93">.</text>
<text x="205.70" y="316.64">+</text>
<text x="324.01" y="100.43">+</text>
<text x="176.61" y="262.57">+</text>
<text x="432.12" y="248.72">.</text>
<text x="293.42" y="219.58">+</text>
<text x="402.68" y="373.44">.</text>
<text x="127.26" y="131.27">+</text>
<text x="305.03" y="39.44">+</text>
<text x="155.30" y="309.94">*</text>
<text x="409.60" y="296.35">+</text>
<text x="314.89" y="303.76">.</text>
<text x="4.74" y="198.43">.</text>
<text x="26.07" y="33.14">.</text>
<text x="370.74" y="107.93">.</text>
<text x="483.84" y="397.53">.</text>
<text x="288.46" y="208.44">+</text>
<text x="323.38" y="34.51">+</text>
<text x="199.80" y="378.99">.</text>
<text x="213.06" y="32.31">.</text>
<text x="468.86" y="476.66">.</text>
<text x="199.64" y="437.04">+</text>
<text x="330.89" y="251.91">.</text>
<text x="295.16" y="433.89">.</text>
<text x="485.15" y="391.52">.</text>
<text x="289.58" y="343.32">.</text>
<text x="318.26" y="381.10">+</text>
<text x="403.05" y="126.60">+</text>
<text x="283.84" y="2.67">+</text>
<text x="402.97" y="400.58">.</text>
<text x="446.51" y="422.40">.</text>
<text x="372.42" y="283.59">.</text>

</svg>