
<svg viewBox="0 0 500 500" xmlns="http://www.w.org/2000/svg" width="100%" height="100%" style="background-color: #0a0a14; font-family: 'Courier New', Courier, monospace;">
    <style>
        text { fill: #aaa; font-size: 10px; text-anchor: middle; dominant-baseline: middle; }
    </style>
    <text x="45.50" y="4.73">+</text>
<text x="447.13" y="207.43">*</text>
<text x="132.45" y="108.74">+</text>
<text x="375.10" y="336.30">.</text>
<text x="316.91" y="104.41">.</text>
<text x="411.22" y="188.50">.</text>
<text x="180.33" y="206.54">.</text>
<text x="158.70" y="489.41">+</text>
<text x="358.72" y="160.77">.</text>
<text x="180.36" y="100.24">.</text>
<text x="480.38" y="129.39">+</text>
<text x="55.15" y="435.18">*</text>
<text x="102.57" y="224.24">.</text>
<text x="463.97" y="332.49">.</text>
<text x="276.95" y="188.29">.</text>
<text x="324.03" y="458.42">.</text>
<text x="431.18" y="242.33">.</text>
<text x="299.50" y="115.29">.</text>
<text x="6.30" y="299.75">.</text>
<text x="364.40" y="174.91">.</text>
<text x="301.28" y="99.21">.</text>
<text x="89.44" y="250.73">+</text>
<text x="370.25" y="321.09">.</text>
<text x="122.52" y="3.47">.</text>
<text x="381.84" y="340.78">+</text>
<text x="142.30" y="272.65">.</text>
<text x="376.87" y="186.53">.</text>
<text x="476.47" y="187.25">.</text>
<text x="465.30" y="290.09">.</text>
<text x="309.94" y="45.53">+</text>
<text x="231.65" y="215.41">+</text>
<text x="418.43" y="94.17">.</text>
<text x="76.22" y="194.76">+</text>
<text x="433.16" y="281.28">*</text>
<text x="187.99" y="343.67">+</text>
<text x="463.77" y="173.61">.</text>
<text x="68.39" y="251.25">.</text>
<text x="28.47" y="183.07">+</text>
<text x="183.79" y="369.06">+</text>
<text x="69.77" y="400.36">.</text>
<text x="4.29" y="440.62">.</text>
<text x="398.08" y="386.79">+</text>
<text x="217.61" y="309.26">.</text>
<text x="103.72" y="205.21">*</text>
<text x="78.18" y="481.53">.</text>
<text x="43.27" y="148.41">*</text>
<text x="164.91" y="415.93">+</text>
<text x="192.64" y="418.18">+</text>
<text x="131.84" y="240.76">.</text>
<text x="484.74" y="169.58">+</text>
<text x="38.30" y="366.82">+</text>
<text x="203.38" y="452.49">+</text>
<text x="470.64" y="3.83">.</text>
<text x="157.07" y="10.56">.</text>
<text x="111.52" y="134.52">.</text>
<text x="113.21" y="217.69">.</text>
<text x="192.03" y="55.91">+</text>
<text x="396.57" y="275.91">*</text>
<text x="348.64" y="144.68">*</text>
<text x="23.21" y="363.29">.</text>
<text x="114.54" y="313.69">.</text>
<text x="118.10" y="311.69">.</text>
<text x="329.03" y="183.19">+</text>
<text x="98.23" y="321.34">.</text>
<text x="315.10" y="127.43">+</text>
<text x="314.04" y="304.45">*</text>
<text x="232.35" y="186.85">.</text>
<text x="27.98" y="257.80">+</text>
<text x="238.20" y="342.67">+</text>
<text x="24.21" y="394.54">.</text>
<text x="88.04" y="304.16">.</text>
<text x="31.81" y="296.72">+</text>
<text x="174.26" y="247.43">.</text>
<text x="42.53" y="174.25">+</text>
<text x="114.06" y="420.53">+</text>
<text x="31.04" y="265.65">+</text>
<text x="168.93" y="486.97">*</text>
<text x="320.28" y="481.20">+</text>
<text x="410.84" y="245.67">.</text>
<text x="215.44" y="24.53">+</text>
<text x="357.34" y="416.73">+</text>
<text x="140.30" y="399.56">+</text>
<text x="22.02" y="161.09">.</text>
<text x="49.19" y="191.67">*</text>
<text x="303.05" y="251.42">.</text>
<text x="136.40" y="462.95">.</text>
<text x="214.02" y="112.22">.</text>
<text x="394.36" y="426.07">.</text>
<text x="139.75" y="60.64">+</text>
<text x="451.35" y="299.28">+</text>
<text x="191.29" y="173.27">+</text>
<text x="258.00" y="38.24">+</text>
<text x="398.38" y="439.18">.</text>
<text x="430.28" y="497.87">+</text>
<text x="109.51" y="341.33">.</text>
<text x="160.73" y="465.84">.</text>
<text x="254.57" y="6.69">+</text>
<text x="67.35" y="358.69">.</text>
<text x="123.67" y="260.90">.</text>
<text x="330.76" y="370.91">.</text>
<text x="384.73" y="179.99">*</text>
<text x="355.35" y="6.42">+</text>
<text x="27.75" y="368.87">.</text>
<text x="407.40" y="492.39">.</text>
<text x="399.26" y="346.06">+</text>
<text x="101.06" y="275.23">*</text>
<text x="114.65" y="210.74">+</text>
<text x="477.72" y="409.70">.</text>
<text x="17.92" y="204.23">+</text>
<text x="228.02" y="292.78">+</text>
<text x="342.15" y="178.95">+</text>
<text x="117.31" y="269.82">.</text>
<text x="353.80" y="288.52">.</text>
<text x="8.93" y="164.52">+</text>
<text x="269.10" y="100.90">.</text>
<text x="443.81" y="208.56">.</text>
<text x="479.07" y="344.23">+</text>
<text x="404.15" y="445.38">.</text>
<text x="387.30" y="133.15">*</text>
<text x="140.35" y="479.04">+</text>
<text x="456.43" y="119.85">*</text>
<text x="265.14" y="183.99">+</text>
<text x="391.23" y="174.24">.</text>
<text x="293.44" y="338.69">+</text>
<text x="177.70" y="499.62">.</text>
<text x="247.41" y="89.85">+</text>
<text x="332.23" y="405.22">.</text>
<text x="51.52" y="310.89">+</text>
<text x="161.83" y="174.55">+</text>
<text x="17.74" y="462.83">+</text>
<text x="394.79" y="274.00">+</text>
<text x="188.47" y="66.98">.</text>
<text x="229.14" y="105.18">+</text>
<text x="112.32" y="117.50">*</text>
<text x="5.98" y="84.42">+</text>
<text x="412.71" y="211.90">*</text>
<text x="247.11" y="141.14">.</text>
<text x="493.40" y="499.52">*</text>
<text x="106.19" y="144.84">.</text>
<text x="231.51" y="314.11">.</text>
<text x="433.13" y="74.56">+</text>
<text x="373.01" y="246.55">.</text>
<text x="179.10" y="219.74">.</text>
<text x="130.30" y="245.35">*</text>
<text x="412.51" y="379.84">.</text>
<text x="59.39" y="106.63">+</text>
<text x="107.64" y="251.12">+</text>
<text x="278.84" y="212.14">+</text>
<text x="205.40" y="221.23">.</text>
<text x="95.20" y="304.45">*</text>
<text x="270.57" y="321.62">+</text>
<text x="357.55" y="461.44">.</text>
<text x="246.37" y="84.61">.</text>
<text x="309.93" y="407.28">+</text>
<text x="162.99" y="135.40">+</text>
<text x="198.88" y="452.87">+</text>
<text x="355.67" y="73.41">+</text>
<text x="66.80" y="499.12">.</text>
<text x="26.70" y="328.54">+</text>
<text x="436.79" y="192.30">+</text>
<text x="175.77" y="148.19">.</text>
<text x="280.18" y="370.50">+</text>
<text x="148.01" y="413.67">*</text>
<text x="102.35" y="144.76">+</text>
<text x="257.93" y="470.10">+</text>
<text x="395.65" y="173.40">.</text>
<text x="280.52" y="88.81">.</text>
<text x="149.79" y="130.58">.</text>
<text x="130.32" y="368.94">+</text>
<text x="450.31" y="73.88">.</text>
<text x="13.73" y="228.52">*</text>
<text x="305.09" y="470.32">.</text>
<text x="151.83" y="251.70">.</text>
<text x="258.83" y="411.23">+</text>
<text x="16.60" y="481.35">+</text>
<text x="204.37" y="354.20">.</text>
<text x="448.99" y="36.14">*</text>
<text x="334.82" y="427.95">.</text>
<text x="225.69" y="374.46">.</text>
<text x="355.57" y="458.34">.</text>
<text x="61.34" y="192.31">+</text>
<text x="283.91" y="432.70">.</text>
<text x="263.35" y="455.39">+</text>
<text x="272.84" y="299.86">+</text>
<text x="133.57" y="492.24">+</text>
<text x="161.28" y="107.75">+</text>
<text x="130.69" y="488.60">+</text>
<text x="144.01" y="181.83">.</text>
<text x="182.46" y="377.58">.</text>
<text x="138.54" y="412.36">+</text>
<text x="124.37" y="272.13">.</text>
<text x="103.72" y="496.82">+</text>
<text x="170.23" y="182.04">.</text>
<text x="294.33" y="187.93">*</text>
<text x="410.94" y="225.34">+</text>
<text x="325.76" y="393.69">.</text>
<text x="80.41" y="472.59">*</text>
<text x="150.96" y="329.05">+</text>
<text x="301.82" y="398.07">.</text>
<text x="106.15" y="428.94">+</text>
<text x="329.78" y="123.26">*</text>
<text x="120.39" y="24.46">*</text>
<text x="268.04" y="243.11">.</text>
<text x="2.66" y="456.23">+</text>
<text x="189.79" y="394.19">*</text>
<text x="21.28" y="204.16">+</text>
<text x="213.74" y="77.41">.</text>
<text x="35.81" y="214.58">.</text>
<text x="297.57" y="222.15">.</text>
<text x="451.85" y="107.65">+</text>

</svg>