
<svg viewBox="0 0 500 500" xmlns="http://www.w.org/2000/svg" width="100%" height="100%" style="background-color: #0a0a14; font-family: 'Courier New', Courier, monospace;">
    <style>
        text { fill: #aaa; font-size: 10px; text-anchor: middle; dominant-baseline: middle; }
    </style>
    <text x="183.98" y="179.99">+</text>
<text x="84.28" y="163.98">+</text>
<text x="421.06" y="104.83">+</text>
<text x="338.95" y="293.69">+</text>
<text x="108.42" y="94.05">.</text>
<text x="76.24" y="385.94">*</text>
<text x="7.28" y="114.72">*</text>
<text x="115.83" y="112.22">*</text>
<text x="475.02" y="21.52">.</text>
<text x="86.25" y="374.76">+</text>
<text x="463.82" y="223.69">+</text>
<text x="120.69" y="193.42">.</text>
<text x="494.07" y="269.62">.</text>
<text x="495.40" y="178.00">.</text>
<text x="205.10" y="430.61">.</text>
<text x="165.12" y="46.21">+</text>
<text x="246.94" y="22.61">+</text>
<text x="393.56" y="306.70">+</text>
<text x="317.44" y="117.81">*</text>
<text x="397.44" y="21.13">+</text>
<text x="341.87" y="298.97">*</text>
<text x="223.21" y="359.36">+</text>
<text x="297.03" y="274.44">.</text>
<text x="233.44" y="196.07">.</text>
<text x="408.11" y="352.47">+</text>
<text x="157.46" y="185.53">.</text>
<text x="207.24" y="150.80">.</text>
<text x="342.50" y="294.28">+</text>
<text x="470.69" y="53.76">.</text>
<text x="83.76" y="368.13">+</text>
<text x="263.99" y="119.46">+</text>
<text x="49.13" y="92.78">+</text>
<text x="420.94" y="402.41">+</text>
<text x="292.83" y="231.75">+</text>
<text x="90.47" y="273.78">*</text>
<text x="104.53" y="231.12">.</text>
<text x="385.06" y="209.55">+</text>
<text x="216.04" y="193.95">.</text>
<text x="420.14" y="67.65">+</text>
<text x="344.59" y="138.41">+</text>
<text x="23.47" y="259.20">+</text>
<text x="471.63" y="361.11">.</text>
<text x="366.16" y="29.18">+</text>
<text x="79.58" y="490.64">+</text>
<text x="332.59" y="417.07">.</text>
<text x="353.25" y="440.30">+</text>
<text x="400.91" y="248.03">.</text>
<text x="343.51" y="269.97">*</text>
<text x="427.61" y="217.08">+</text>
<text x="38.00" y="216.33">.</text>
<text x="20.61" y="451.81">.</text>
<text x="116.43" y="180.11">+</text>
<text x="288.21" y="371.13">*</text>
<text x="253.57" y="332.99">.</text>
<text x="181.48" y="384.53">.</text>
<text x="401.86" y="54.57">.</text>
<text x="60.73" y="112.62">*</text>
<text x="493.53" y="117.98">+</text>
<text x="419.69" y="294.19">+</text>
<text x="465.70" y="170.70">+</text>
<text x="366.32" y="178.20">.</text>
<text x="436.70" y="49.37">*</text>
<text x="419.04" y="97.72">+</text>
<text x="490.13" y="74.15">+</text>
<text x="379.18" y="34.21">+</text>
<text x="434.93" y="429.89">.</text>
<text x="37.07" y="300.90">+</text>
<text x="123.03" y="263.36">*</text>
<text x="175.83" y="110.63">*</text>
<text x="162.02" y="289.18">*</text>
<text x="159.48" y="167.56">+</text>
<text x="266.71" y="98.07">+</text>
<text x="405.25" y="35.61">*</text>
<text x="480.24" y="80.12">.</text>
<text x="18.88" y="409.19">.</text>
<text x="333.71" y="174.55">.</text>
<text x="194.58" y="411.25">+</text>
<text x="105.43" y="283.34">+</text>
<text x="266.02" y="437.26">+</text>
<text x="238.31" y="440.35">.</text>
<text x="5.00" y="278.42">.</text>
<text x="255.10" y="256.61">*</text>
<text x="41.01" y="186.05">+</text>
<text x="222.54" y="450.88">.</text>
<text x="282.13" y="373.30">+</text>
<text x="225.43" y="262.91">.</text>
<text x="378.57" y="363.19">.</text>
<text x="24.54" y="424.65">+</text>
<text x="249.72" y="349.63">*</text>
<text x="376.68" y="254.24">.</text>
<text x="40.88" y="44.90">+</text>
<text x="72.71" y="322.01">.</text>
<text x="481.17" y="263.46">*</text>
<text x="19.81" y="482.97">.</text>
<text x="205.12" y="60.80">+</text>
<text x="185.09" y="325.66">+</text>
<text x="71.42" y="27.12">*</text>
<text x="63.08" y="169.36">.</text>
<text x="354.00" y="305.28">.</text>
<text x="179.46" y="442.44">+</text>
<text x="373.85" y="256.08">+</text>
<text x="277.53" y="358.80">+</text>
<text x="41.50" y="389.72">.</text>
<text x="27.04" y="396.49">.</text>
<text x="410.48" y="90.78">+</text>
<text x="236.92" y="494.22">.</text>
<text x="52.13" y="148.03">+</text>
<text x="340.02" y="233.76">.</text>
<text x="13.17" y="230.86">.</text>
<text x="407.74" y="494.78">.</text>
<text x="133.00" y="224.57">.</text>
<text x="246.47" y="240.20">+</text>
<text x="176.41" y="161.54">+</text>
<text x="21.71" y="23.26">*</text>
<text x="394.97" y="497.55">+</text>
<text x="454.94" y="150.03">+</text>
<text x="168.48" y="223.97">+</text>
<text x="211.70" y="302.82">.</text>
<text x="141.99" y="29.47">+</text>
<text x="499.97" y="91.62">+</text>
<text x="397.40" y="48.37">+</text>
<text x="83.81" y="184.91">.</text>
<text x="57.36" y="455.33">.</text>
<text x="278.97" y="467.20">*</text>
<text x="240.68" y="215.00">.</text>
<text x="418.02" y="271.62">.</text>
<text x="114.81" y="36.71">.</text>
<text x="203.69" y="208.72">+</text>
<text x="88.10" y="243.55">.</text>
<text x="20.61" y="240.52">+</text>
<text x="298.45" y="273.73">*</text>
<text x="9.82" y="496.16">+</text>
<text x="92.11" y="214.14">.</text>
<text x="329.70" y="205.74">.</text>
<text x="217.48" y="214.79">+</text>
<text x="95.22" y="321.54">.</text>
<text x="214.20" y="270.85">.</text>
<text x="397.00" y="146.58">+</text>
<text x="213.69" y="453.55">+</text>
<text x="238.28" y="432.84">.</text>
<text x="400.30" y="299.51">+</text>
<text x="379.40" y="466.06">.</text>
<text x="153.07" y="458.57">+</text>
<text x="196.79" y="375.82">.</text>
<text x="231.03" y="171.79">+</text>
<text x="136.08" y="478.50">.</text>
<text x="57.98" y="125.10">.</text>
<text x="161.59" y="204.47">+</text>
<text x="383.15" y="291.90">+</text>
<text x="321.72" y="460.21">+</text>
<text x="424.06" y="204.11">.</text>
<text x="402.47" y="127.21">.</text>
<text x="270.24" y="120.26">*</text>
<text x="289.60" y="472.14">*</text>
<text x="452.98" y="290.04">.</text>
<text x="277.13" y="155.98">+</text>
<text x="140.01" y="187.89">.</text>
<text x="309.73" y="146.76">*</text>
<text x="309.18" y="146.74">*</text>
<text x="361.39" y="207.40">.</text>
<text x="234.59" y="400.24">.</text>
<text x="438.06" y="133.74">.</text>
<text x="30.74" y="427.09">+</text>
<text x="315.77" y="478.86">.</text>
<text x="83.54" y="381.33">+</text>
<text x="310.80" y="86.05">+</text>
<text x="483.10" y="143.06">+</text>
<text x="290.40" y="348.50">.</text>
<text x="33.69" y="12.55">+</text>
<text x="127.91" y="251.32">.</text>
<text x="267.88" y="140.34">.</text>
<text x="214.19" y="342.96">.</text>
<text x="71.04" y="78.24">.</text>
<text x="159.28" y="206.27">+</text>
<text x="306.74" y="124.24">.</text>
<text x="417.50" y="319.48">.</text>
<text x="132.44" y="155.04">*</text>
<text x="78.79" y="70.92">.</text>
<text x="276.08" y="414.44">+</text>
<text x="18.63" y="211.99">+</text>
<text x="14.43" y="350.77">.</text>
<text x="374.40" y="20.55">.</text>
<text x="4.06" y="180.84">+</text>
<text x="353.41" y="129.88">+</text>
<text x="77.86" y="269.95">.</text>
<text x="147.34" y="162.53">*</text>
<text x="407.63" y="455.66">+</text>
<text x="393.99" y="190.81">+</text>
<text x="71.60" y="463.24">*</text>
<text x="165.67" y="231.36">+</text>
<text x="475.07" y="269.44">+</text>
<text x="398.03" y="377.44">.</text>
<text x="317.65" y="191.24">.</text>
<text x="277.87" y="291.48">+</text>
<text x="158.33" y="190.49">+</text>
<text x="295.86" y="445.57">.</text>
<text x="163.33" y="332.27">.</text>
<text x="68.70" y="196.22">.</text>
<text x="243.12" y="204.17">.</text>
<text x="182.69" y="324.79">+</text>
<text x="272.62" y="424.84">.</text>
<text x="439.98" y="71.34">+</text>
<text x="53.27" y="196.53">.</text>
<text x="330.86" y="387.21">*</text>
<text x="156.66" y="132.51">+</text>
<text x="229.90" y="359.15">+</text>
<text x="459.22" y="417.20">.</text>
<text x="108.51" y="64.77">+</text>
<text x="148.91" y="96.82">.</text>
<text x="61.75" y="196.17">.</text>
<text x="188.10" y="265.97">.</text>
<text x="229.39" y="493.95">.</text>

</svg>