
<svg viewBox="0 0 500 500" xmlns="http://www.w.org/2000/svg" width="100%" height="100%" style="background-color: #0a0a14; font-family: 'Courier New', Courier, monospace;">
    <style>
        text { fill: #aaa; font-size: 10px; text-anchor: middle; dominant-baseline: middle; }
    </style>
    <text x="118.04" y="5.81">.</text>
<text x="370.32" y="283.87">+</text>
<text x="242.00" y="498.04">+</text>
<text x="386.10" y="239.76">*</text>
<text x="449.99" y="14.94">+</text>
<text x="335.02" y="299.12">.</text>
<text x="214.79" y="211.00">+</text>
<text x="268.69" y="410.21">.</text>
<text x="339.77" y="173.44">.</text>
<text x="85.64" y="294.85">+</text>
<text x="254.02" y="251.79">.</text>
<text x="386.65" y="114.50">+</text>
<text x="321.87" y="117.41">+</text>
<text x="50.70" y="53.24">+</text>
<text x="374.97" y="259.84">.</text>
<text x="410.36" y="399.74">.</text>
<text x="179.44" y="249.92">*</text>
<text x="191.94" y="309.49">+</text>
<text x="212.15" y="27.81">+</text>
<text x="195.63" y="185.11">.</text>
<text x="404.55" y="408.34">+</text>
<text x="198.33" y="498.32">+</text>
<text x="136.95" y="359.98">*</text>
<text x="273.46" y="469.48">*</text>
<text x="62.28" y="489.46">+</text>
<text x="134.41" y="278.29">+</text>
<text x="242.28" y="315.27">*</text>
<text x="17.99" y="153.12">+</text>
<text x="152.07" y="150.67">.</text>
<text x="377.44" y="245.65">+</text>
<text x="378.97" y="25.24">.</text>
<text x="312.18" y="137.15">+</text>
<text x="459.50" y="107.28">+</text>
<text x="371.02" y="385.02">+</text>
<text x="239.02" y="453.55">+</text>
<text x="479.44" y="349.82">+</text>
<text x="355.80" y="325.55">*</text>
<text x="288.24" y="237.26">.</text>
<text x="158.88" y="168.42">*</text>
<text x="297.13" y="485.88">+</text>
<text x="158.99" y="186.34">*</text>
<text x="55.84" y="193.35">.</text>
<text x="157.09" y="313.73">+</text>
<text x="309.37" y="307.71">*</text>
<text x="78.74" y="91.54">.</text>
<text x="81.73" y="82.49">+</text>
<text x="272.94" y="48.77">.</text>
<text x="71.03" y="109.40">*</text>
<text x="474.11" y="233.82">+</text>
<text x="189.14" y="355.79">*</text>
<text x="414.32" y="350.68">.</text>
<text x="103.33" y="176.02">+</text>
<text x="453.93" y="19.92">.</text>
<text x="280.07" y="219.65">+</text>
<text x="191.15" y="219.90">.</text>
<text x="396.78" y="389.19">.</text>
<text x="198.03" y="296.84">.</text>
<text x="331.02" y="428.83">+</text>
<text x="372.27" y="439.35">+</text>
<text x="254.59" y="373.54">*</text>
<text x="106.99" y="432.13">.</text>
<text x="56.06" y="73.94">+</text>
<text x="255.32" y="411.23">.</text>
<text x="19.91" y="351.34">+</text>
<text x="108.56" y="451.23">+</text>
<text x="146.53" y="170.59">.</text>
<text x="410.89" y="428.58">+</text>
<text x="55.45" y="406.51">+</text>
<text x="42.88" y="385.98">.</text>
<text x="205.59" y="457.14">*</text>
<text x="340.32" y="190.93">.</text>
<text x="304.89" y="318.21">+</text>
<text x="453.84" y="443.75">+</text>
<text x="205.15" y="350.02">+</text>
<text x="155.47" y="58.14">+</text>
<text x="330.67" y="321.68">*</text>
<text x="106.42" y="372.09">.</text>
<text x="489.72" y="195.99">.</text>
<text x="91.18" y="123.84">.</text>
<text x="259.49" y="86.96">*</text>
<text x="260.82" y="480.35">+</text>
<text x="437.46" y="137.45">.</text>
<text x="341.41" y="468.10">.</text>
<text x="176.64" y="476.91">.</text>
<text x="383.80" y="377.25">+</text>
<text x="113.40" y="489.80">.</text>
<text x="355.01" y="304.80">.</text>
<text x="266.61" y="327.41">.</text>
<text x="457.44" y="150.89">*</text>
<text x="245.92" y="449.27">+</text>
<text x="302.63" y="457.57">+</text>
<text x="396.45" y="294.33">.</text>
<text x="369.65" y="93.62">.</text>
<text x="98.41" y="438.83">+</text>
<text x="376.85" y="23.98">+</text>
<text x="101.31" y="324.41">*</text>
<text x="253.69" y="464.93">*</text>
<text x="429.56" y="138.88">.</text>
<text x="286.54" y="355.04">+</text>
<text x="228.33" y="221.09">+</text>
<text x="446.91" y="270.44">+</text>
<text x="394.42" y="486.73">*</text>
<text x="117.45" y="293.49">.</text>
<text x="13.96" y="107.03">.</text>
<text x="414.39" y="390.83">+</text>
<text x="291.99" y="150.95">+</text>
<text x="51.50" y="153.82">.</text>
<text x="168.41" y="239.60">+</text>
<text x="219.71" y="96.80">+</text>
<text x="424.62" y="127.75">+</text>
<text x="199.10" y="129.70">.</text>
<text x="116.71" y="142.88">*</text>
<text x="292.73" y="438.85">.</text>
<text x="195.71" y="62.34">.</text>
<text x="72.52" y="381.37">.</text>
<text x="385.98" y="442.94">.</text>
<text x="371.20" y="292.64">+</text>
<text x="226.83" y="420.87">.</text>
<text x="19.13" y="397.34">+</text>
<text x="159.17" y="280.70">.</text>
<text x="454.11" y="292.36">.</text>
<text x="246.47" y="272.41">.</text>
<text x="432.25" y="456.49">.</text>
<text x="150.13" y="232.10">*</text>
<text x="253.55" y="286.79">+</text>
<text x="197.27" y="408.05">.</text>
<text x="435.11" y="306.90">.</text>
<text x="172.86" y="223.12">.</text>
<text x="264.80" y="84.88">.</text>
<text x="411.70" y="77.14">+</text>
<text x="21.75" y="272.34">.</text>
<text x="205.78" y="159.89">*</text>
<text x="388.87" y="363.75">.</text>
<text x="98.81" y="227.80">.</text>
<text x="328.82" y="185.97">.</text>
<text x="223.91" y="389.14">.</text>
<text x="0.03" y="185.30">+</text>
<text x="92.80" y="475.87">.</text>
<text x="202.58" y="225.20">*</text>
<text x="392.04" y="219.44">.</text>
<text x="160.36" y="40.66">+</text>
<text x="140.55" y="106.60">+</text>
<text x="102.21" y="238.73">.</text>
<text x="368.48" y="131.25">+</text>
<text x="123.15" y="289.89">+</text>
<text x="405.21" y="99.72">.</text>
<text x="203.14" y="46.71">+</text>
<text x="299.71" y="185.32">.</text>
<text x="463.41" y="92.88">+</text>
<text x="359.35" y="401.92">*</text>
<text x="3.07" y="487.14">.</text>
<text x="409.19" y="85.12">+</text>
<text x="227.45" y="232.62">.</text>
<text x="480.14" y="167.19">.</text>
<text x="190.67" y="157.07">.</text>
<text x="294.40" y="12.44">+</text>
<text x="290.62" y="36.56">*</text>
<text x="130.52" y="232.66">+</text>
<text x="149.34" y="22.41">.</text>
<text x="225.02" y="17.39">.</text>
<text x="206.07" y="15.36">.</text>
<text x="215.67" y="166.66">+</text>
<text x="312.87" y="427.62">.</text>
<text x="241.79" y="338.12">+</text>
<text x="196.21" y="312.63">+</text>
<text x="131.16" y="136.13">.</text>
<text x="334.43" y="373.38">+</text>
<text x="465.41" y="246.13">.</text>
<text x="82.45" y="266.91">+</text>
<text x="461.67" y="202.28">*</text>
<text x="91.82" y="48.75">+</text>
<text x="327.48" y="209.88">.</text>
<text x="20.92" y="80.05">+</text>
<text x="285.61" y="451.76">+</text>
<text x="349.84" y="414.07">+</text>
<text x="36.40" y="403.21">.</text>
<text x="353.68" y="455.06">.</text>
<text x="471.20" y="272.28">.</text>
<text x="17.58" y="52.32">*</text>
<text x="193.60" y="145.44">*</text>
<text x="495.28" y="467.73">+</text>
<text x="321.28" y="143.11">*</text>
<text x="147.40" y="482.76">+</text>
<text x="407.85" y="187.04">.</text>
<text x="395.21" y="365.22">+</text>
<text x="113.68" y="383.98">+</text>
<text x="170.18" y="259.13">*</text>
<text x="16.08" y="80.47">.</text>
<text x="385.53" y="346.38">+</text>
<text x="6.41" y="200.71">*</text>
<text x="374.08" y="170.44">*</text>
<text x="15.70" y="418.20">+</text>
<text x="285.78" y="219.71">+</text>
<text x="339.72" y="393.69">+</text>
<text x="256.61" y="270.10">+</text>
<text x="361.59" y="450.95">*</text>
<text x="496.59" y="423.90">+</text>
<text x="14.06" y="163.90">.</text>
<text x="267.95" y="392.51">*</text>
<text x="477.83" y="385.44">+</text>
<text x="217.14" y="499.88">.</text>
<text x="38.35" y="3.41">+</text>
<text x="136.29" y="196.94">.</text>
<text x="80.92" y="195.62">+</text>
<text x="420.85" y="45.97">.</text>
<text x="238.73" y="39.38">+</text>
<text x="211.04" y="35.38">.</text>
<text x="293.31" y="196.52">*</text>
<text x="156.18" y="174.42">+</text>
<text x="94.90" y="414.02">+</text>
<text x="101.09" y="329.54">+</text>
<text x="476.91" y="140.14">.</text>
<text x="145.45" y="335.52">+</text>
<text x="361.73" y="492.29">+</text>
<text x="142.17" y="294.98">.</text>
<text x="352.29" y="93.32">+</text>
<text x="8.76" y="410.43">+</text>
<text x="410.40" y="147.00">+</text>
<text x="270.90" y="400.86">+</text>
<text x="368.22" y="268.21">.</text>
<text x="164.17" y="448.07">.</text>
<text x="361.00" y="235.35">*</text>
<text x="354.30" y="418.34">.</text>
<text x="357.21" y="214.37">*</text>
<text x="166.91" y="469.44">+</text>
<text x="272.49" y="193.61">*</text>
<text x="120.29" y="224.93">+</text>
<text x="68.34" y="153.89">.</text>

</svg>