
<svg viewBox="0 0 500 500" xmlns="http://www.w.org/2000/svg" width="100%" height="100%" style="background-color: #0a0a14; font-family: 'Courier New', Courier, monospace;">
    <style>
        text { fill: #aaa; font-size: 10px; text-anchor: middle; dominant-baseline: middle; }
    </style>
    <text x="452.04" y="388.95">.</text>
<text x="219.54" y="209.79">+</text>
<text x="357.78" y="9.36">+</text>
<text x="49.17" y="194.13">*</text>
<text x="188.43" y="422.31">*</text>
<text x="17.50" y="189.60">+</text>
<text x="80.59" y="302.65">.</text>
<text x="79.23" y="456.64">.</text>
<text x="409.15" y="375.07">+</text>
<text x="422.57" y="4.25">+</text>
<text x="407.81" y="125.71">+</text>
<text x="484.79" y="176.87">*</text>
<text x="19.07" y="202.36">+</text>
<text x="3.84" y="133.23">*</text>
<text x="400.33" y="331.65">+</text>
<text x="7.57" y="107.03">.</text>
<text x="250.64" y="123.95">*</text>
<text x="158.16" y="131.93">+</text>
<text x="10.03" y="51.31">.</text>
<text x="457.33" y="84.58">.</text>
<text x="499.79" y="99.29">.</text>
<text x="466.60" y="24.54">+</text>
<text x="452.28" y="236.20">.</text>
<text x="379.82" y="399.16">.</text>
<text x="402.99" y="231.53">.</text>
<text x="376.57" y="356.71">+</text>
<text x="192.35" y="484.54">+</text>
<text x="219.15" y="150.47">+</text>
<text x="40.83" y="49.91">*</text>
<text x="29.18" y="135.81">+</text>
<text x="356.06" y="414.34">+</text>
<text x="466.99" y="189.16">+</text>
<text x="376.20" y="197.61">*</text>
<text x="220.56" y="324.68">+</text>
<text x="424.46" y="300.64">.</text>
<text x="191.04" y="349.80">+</text>
<text x="315.61" y="39.83">+</text>
<text x="6.07" y="442.22">+</text>
<text x="79.30" y="12.14">.</text>
<text x="347.46" y="105.28">.</text>
<text x="211.38" y="175.89">+</text>
<text x="253.62" y="30.01">+</text>
<text x="102.72" y="223.70">*</text>
<text x="465.27" y="100.49">*</text>
<text x="147.40" y="297.81">+</text>
<text x="118.70" y="317.42">.</text>
<text x="429.45" y="472.21">*</text>
<text x="327.83" y="444.95">+</text>
<text x="364.82" y="39.30">.</text>
<text x="426.52" y="313.23">.</text>
<text x="380.88" y="40.36">+</text>
<text x="448.00" y="349.52">+</text>
<text x="217.30" y="254.49">+</text>
<text x="319.73" y="92.33">.</text>
<text x="118.17" y="294.34">.</text>
<text x="411.13" y="15.84">.</text>
<text x="68.55" y="281.61">.</text>
<text x="413.03" y="482.05">.</text>
<text x="196.66" y="496.99">+</text>
<text x="106.56" y="229.79">.</text>
<text x="254.54" y="5.96">.</text>
<text x="273.23" y="243.13">+</text>
<text x="34.21" y="460.72">+</text>
<text x="390.83" y="498.19">+</text>
<text x="73.79" y="97.30">.</text>
<text x="150.34" y="466.08">+</text>
<text x="457.81" y="41.01">.</text>
<text x="398.35" y="237.13">.</text>
<text x="204.25" y="203.84">.</text>
<text x="48.53" y="463.17">*</text>
<text x="337.94" y="342.78">.</text>
<text x="418.58" y="54.08">*</text>
<text x="163.01" y="331.36">+</text>
<text x="154.31" y="91.52">*</text>
<text x="405.63" y="393.19">+</text>
<text x="57.49" y="479.18">.</text>
<text x="44.50" y="260.40">.</text>
<text x="200.03" y="423.12">+</text>
<text x="112.06" y="180.74">.</text>
<text x="216.70" y="275.35">.</text>
<text x="344.76" y="193.17">.</text>
<text x="417.10" y="423.01">+</text>
<text x="464.51" y="331.76">.</text>
<text x="88.42" y="451.01">.</text>
<text x="0.45" y="229.04">.</text>
<text x="355.37" y="130.95">.</text>
<text x="499.03" y="342.34">.</text>
<text x="250.47" y="97.94">*</text>
<text x="154.04" y="131.42">.</text>
<text x="314.29" y="309.73">*</text>
<text x="325.27" y="179.58">+</text>
<text x="310.60" y="299.43">*</text>
<text x="464.01" y="251.98">.</text>
<text x="306.62" y="104.87">+</text>
<text x="458.37" y="56.20">+</text>
<text x="429.82" y="488.62">.</text>
<text x="410.97" y="365.07">.</text>
<text x="114.04" y="359.60">+</text>
<text x="291.05" y="474.03">*</text>
<text x="350.61" y="11.71">.</text>
<text x="73.03" y="219.77">.</text>
<text x="491.49" y="407.52">.</text>
<text x="270.30" y="436.31">*</text>
<text x="7.39" y="335.82">*</text>
<text x="245.39" y="421.88">+</text>
<text x="14.87" y="318.72">*</text>
<text x="176.37" y="46.92">.</text>
<text x="447.27" y="382.15">.</text>
<text x="271.48" y="7.98">.</text>
<text x="172.16" y="154.09">+</text>
<text x="165.31" y="368.54">.</text>
<text x="155.70" y="380.00">.</text>
<text x="304.93" y="304.68">+</text>
<text x="31.18" y="385.05">+</text>
<text x="235.19" y="140.59">+</text>
<text x="248.59" y="364.38">+</text>
<text x="196.62" y="388.21">+</text>
<text x="398.41" y="98.32">.</text>
<text x="164.41" y="17.49">.</text>
<text x="434.87" y="91.82">.</text>
<text x="186.29" y="299.62">.</text>
<text x="278.94" y="203.86">.</text>
<text x="299.58" y="208.25">+</text>
<text x="373.62" y="48.82">+</text>
<text x="147.51" y="206.02">+</text>
<text x="251.52" y="240.05">+</text>
<text x="9.93" y="263.05">.</text>
<text x="223.60" y="346.46">+</text>
<text x="286.60" y="309.23">+</text>
<text x="234.04" y="211.53">+</text>
<text x="438.82" y="100.83">*</text>
<text x="365.67" y="124.30">+</text>
<text x="48.69" y="341.48">.</text>
<text x="269.10" y="208.46">.</text>
<text x="88.53" y="124.86">.</text>
<text x="26.17" y="361.64">*</text>
<text x="228.92" y="366.20">.</text>
<text x="467.77" y="345.51">+</text>
<text x="428.43" y="348.40">+</text>
<text x="242.88" y="186.95">.</text>
<text x="315.99" y="325.66">*</text>
<text x="109.24" y="471.00">+</text>
<text x="85.32" y="252.47">.</text>
<text x="94.39" y="184.67">.</text>
<text x="422.83" y="293.34">*</text>
<text x="37.87" y="427.02">.</text>
<text x="478.10" y="434.01">+</text>
<text x="202.46" y="314.32">+</text>
<text x="148.98" y="338.26">.</text>
<text x="21.25" y="61.50">.</text>
<text x="233.41" y="47.74">.</text>
<text x="221.96" y="186.29">+</text>
<text x="316.56" y="487.40">+</text>
<text x="292.61" y="380.77">+</text>
<text x="346.51" y="148.97">*</text>
<text x="66.05" y="316.69">+</text>
<text x="300.30" y="99.51">+</text>
<text x="389.94" y="104.82">.</text>
<text x="53.23" y="478.22">+</text>
<text x="470.74" y="348.43">+</text>
<text x="293.91" y="447.74">+</text>
<text x="339.61" y="419.16">.</text>
<text x="25.07" y="411.31">+</text>
<text x="468.14" y="495.81">.</text>
<text x="251.76" y="449.93">.</text>
<text x="191.82" y="10.13">.</text>
<text x="282.58" y="371.66">.</text>
<text x="433.89" y="102.43">+</text>
<text x="215.57" y="458.66">+</text>
<text x="470.37" y="203.77">+</text>
<text x="319.44" y="269.62">*</text>
<text x="271.75" y="250.22">*</text>
<text x="398.52" y="19.63">+</text>
<text x="171.45" y="488.81">*</text>
<text x="214.03" y="360.51">+</text>
<text x="41.82" y="339.27">+</text>
<text x="99.81" y="334.68">*</text>
<text x="230.12" y="237.31">.</text>
<text x="264.52" y="273.92">+</text>
<text x="421.63" y="304.55">+</text>
<text x="451.31" y="73.10">.</text>
<text x="173.64" y="328.15">.</text>
<text x="324.35" y="170.92">+</text>
<text x="499.99" y="406.57">.</text>
<text x="357.79" y="219.44">+</text>
<text x="468.82" y="420.48">.</text>
<text x="439.57" y="468.48">+</text>
<text x="109.58" y="186.95">+</text>
<text x="56.26" y="115.31">.</text>
<text x="229.29" y="98.80">+</text>
<text x="262.89" y="248.91">.</text>
<text x="481.60" y="430.43">.</text>
<text x="250.03" y="161.69">+</text>
<text x="377.32" y="381.20">.</text>
<text x="392.18" y="328.36">.</text>
<text x="227.41" y="41.38">.</text>
<text x="90.86" y="143.84">+</text>
<text x="308.26" y="110.69">*</text>
<text x="359.36" y="328.07">.</text>
<text x="258.75" y="492.71">+</text>
<text x="302.86" y="65.34">+</text>
<text x="448.90" y="25.69">+</text>
<text x="376.96" y="123.83">.</text>
<text x="289.22" y="282.69">.</text>
<text x="95.15" y="114.27">.</text>
<text x="84.08" y="196.72">.</text>
<text x="24.71" y="464.30">.</text>
<text x="328.41" y="433.78">*</text>
<text x="332.17" y="318.89">.</text>
<text x="244.92" y="436.57">*</text>

</svg>