
<svg viewBox="0 0 500 500" xmlns="http://www.w.org/2000/svg" width="100%" height="100%" style="background-color: #0a0a14; font-family: 'Courier New', Courier, monospace;">
    <style>
        text { fill: #aaa; font-size: 10px; text-anchor: middle; dominant-baseline: middle; }
    </style>
    <text x="156.76" y="159.62">+</text>
<text x="46.68" y="479.43">*</text>
<text x="318.32" y="199.14">*</text>
<text x="223.16" y="407.82">*</text>
<text x="458.33" y="138.01">+</text>
<text x="386.79" y="99.91">+</text>
<text x="159.28" y="319.72">+</text>
<text x="362.49" y="217.71">.</text>
<text x="247.41" y="378.70">+</text>
<text x="174.64" y="76.62">+</text>
<text x="185.78" y="47.34">.</text>
<text x="129.09" y="208.97">+</text>
<text x="150.78" y="227.39">*</text>
<text x="205.78" y="275.87">.</text>
<text x="239.81" y="320.94">.</text>
<text x="494.56" y="255.46">*</text>
<text x="236.22" y="450.43">+</text>
<text x="270.37" y="216.92">.</text>
<text x="386.18" y="232.37">*</text>
<text x="338.99" y="123.44">*</text>
<text x="386.62" y="290.85">+</text>
<text x="402.94" y="68.95">.</text>
<text x="3.44" y="331.00">+</text>
<text x="92.34" y="185.24">.</text>
<text x="213.52" y="31.84">.</text>
<text x="445.35" y="129.05">.</text>
<text x="485.78" y="477.40">+</text>
<text x="458.72" y="216.44">.</text>
<text x="284.30" y="463.31">.</text>
<text x="302.28" y="334.56">.</text>
<text x="342.46" y="464.02">+</text>
<text x="146.39" y="344.58">+</text>
<text x="8.48" y="248.73">.</text>
<text x="81.35" y="207.33">+</text>
<text x="230.98" y="410.26">+</text>
<text x="153.92" y="232.43">+</text>
<text x="276.04" y="259.33">.</text>
<text x="472.47" y="391.69">.</text>
<text x="0.10" y="287.90">.</text>
<text x="310.19" y="321.95">.</text>
<text x="338.30" y="102.93">+</text>
<text x="456.95" y="348.11">.</text>
<text x="149.59" y="125.92">+</text>
<text x="192.41" y="236.21">+</text>
<text x="317.80" y="158.40">.</text>
<text x="439.41" y="199.94">.</text>
<text x="124.78" y="498.16">+</text>
<text x="222.11" y="71.88">.</text>
<text x="215.85" y="24.67">.</text>
<text x="103.60" y="290.82">+</text>
<text x="486.71" y="258.74">+</text>
<text x="383.74" y="401.73">.</text>
<text x="29.16" y="197.76">*</text>
<text x="461.80" y="374.84">+</text>
<text x="37.07" y="237.28">.</text>
<text x="178.14" y="469.14">.</text>
<text x="416.74" y="72.95">.</text>
<text x="489.75" y="271.72">+</text>
<text x="139.81" y="494.21">.</text>
<text x="232.03" y="86.17">+</text>
<text x="340.23" y="278.10">.</text>
<text x="28.59" y="463.90">.</text>
<text x="338.74" y="458.69">.</text>
<text x="86.38" y="33.71">+</text>
<text x="355.04" y="55.73">+</text>
<text x="255.78" y="131.06">+</text>
<text x="94.05" y="394.74">.</text>
<text x="420.67" y="226.05">+</text>
<text x="344.39" y="78.55">*</text>
<text x="7.31" y="151.36">*</text>
<text x="446.65" y="111.05">+</text>
<text x="349.16" y="276.28">+</text>
<text x="104.32" y="40.42">*</text>
<text x="218.82" y="376.71">.</text>
<text x="259.76" y="22.08">+</text>
<text x="471.01" y="21.01">.</text>
<text x="381.02" y="49.83">.</text>
<text x="452.34" y="139.27">+</text>
<text x="391.13" y="428.46">+</text>
<text x="318.05" y="53.73">*</text>
<text x="187.05" y="317.04">.</text>
<text x="239.27" y="152.10">+</text>
<text x="433.63" y="57.32">.</text>
<text x="91.61" y="309.35">.</text>
<text x="382.13" y="317.06">+</text>
<text x="429.04" y="494.40">.</text>
<text x="128.53" y="41.84">*</text>
<text x="379.10" y="414.65">.</text>
<text x="224.87" y="76.16">*</text>
<text x="192.74" y="150.99">.</text>
<text x="302.35" y="164.85">.</text>
<text x="402.64" y="222.01">*</text>
<text x="130.62" y="288.92">.</text>
<text x="167.32" y="378.39">.</text>
<text x="361.74" y="282.26">.</text>
<text x="149.63" y="354.50">*</text>
<text x="346.54" y="334.00">+</text>
<text x="65.45" y="438.32">+</text>
<text x="468.11" y="358.20">+</text>
<text x="240.33" y="189.01">+</text>
<text x="38.98" y="355.20">.</text>
<text x="21.66" y="229.37">+</text>
<text x="249.87" y="311.24">*</text>
<text x="470.21" y="319.82">.</text>
<text x="483.05" y="93.91">.</text>
<text x="89.85" y="307.33">+</text>
<text x="162.97" y="278.60">.</text>
<text x="19.03" y="470.05">.</text>
<text x="455.83" y="194.91">.</text>
<text x="29.36" y="418.75">.</text>
<text x="161.17" y="183.72">*</text>
<text x="190.77" y="185.39">.</text>
<text x="151.76" y="419.64">.</text>
<text x="452.07" y="405.25">.</text>
<text x="135.39" y="95.03">.</text>
<text x="253.98" y="485.97">+</text>
<text x="249.03" y="343.09">.</text>
<text x="439.03" y="186.68">.</text>
<text x="399.52" y="94.12">+</text>
<text x="279.06" y="39.36">.</text>
<text x="292.31" y="332.21">+</text>
<text x="424.02" y="278.19">+</text>
<text x="90.25" y="209.92">.</text>
<text x="92.54" y="156.98">+</text>
<text x="440.93" y="499.34">*</text>
<text x="261.08" y="130.85">*</text>
<text x="316.20" y="187.21">.</text>
<text x="374.64" y="400.25">+</text>
<text x="351.64" y="90.19">.</text>
<text x="466.86" y="449.93">.</text>
<text x="144.24" y="103.47">.</text>
<text x="366.89" y="125.38">.</text>
<text x="61.39" y="154.57">+</text>
<text x="94.84" y="347.82">.</text>
<text x="359.91" y="369.41">.</text>
<text x="198.82" y="470.37">+</text>
<text x="122.45" y="375.24">+</text>
<text x="29.87" y="486.69">+</text>
<text x="311.53" y="242.70">+</text>
<text x="29.66" y="210.80">.</text>
<text x="295.46" y="141.85">+</text>
<text x="405.96" y="149.31">.</text>
<text x="142.11" y="219.50">+</text>
<text x="76.29" y="444.68">.</text>
<text x="271.72" y="487.17">+</text>
<text x="420.25" y="285.56">+</text>
<text x="40.38" y="301.33">.</text>
<text x="179.86" y="223.34">+</text>
<text x="262.22" y="471.63">.</text>
<text x="28.96" y="443.91">.</text>
<text x="413.57" y="183.11">.</text>
<text x="250.24" y="165.88">*</text>
<text x="250.45" y="128.57">+</text>
<text x="328.02" y="112.68">+</text>
<text x="273.95" y="187.30">.</text>
<text x="445.45" y="2.32">+</text>
<text x="472.79" y="140.41">+</text>
<text x="107.90" y="414.28">.</text>
<text x="62.45" y="163.60">.</text>
<text x="220.02" y="392.15">*</text>
<text x="12.06" y="50.86">+</text>
<text x="290.80" y="14.74">+</text>
<text x="257.87" y="453.10">+</text>
<text x="36.28" y="444.05">*</text>
<text x="242.14" y="99.88">+</text>
<text x="116.54" y="457.33">*</text>
<text x="339.64" y="488.67">+</text>
<text x="295.67" y="208.33">.</text>
<text x="246.87" y="455.79">.</text>
<text x="375.16" y="451.47">*</text>
<text x="275.72" y="24.67">.</text>
<text x="251.28" y="86.01">.</text>
<text x="466.64" y="342.65">+</text>
<text x="408.30" y="406.18">*</text>
<text x="12.75" y="462.79">*</text>
<text x="442.23" y="316.54">.</text>
<text x="236.51" y="330.52">.</text>
<text x="335.06" y="424.42">.</text>
<text x="116.96" y="271.91">.</text>
<text x="400.08" y="283.69">+</text>
<text x="150.45" y="91.65">.</text>
<text x="106.66" y="63.37">.</text>
<text x="278.92" y="238.72">.</text>
<text x="359.20" y="479.24">.</text>
<text x="109.48" y="351.26">.</text>
<text x="412.57" y="347.44">.</text>
<text x="39.93" y="139.39">.</text>
<text x="204.93" y="294.77">+</text>
<text x="116.92" y="315.74">+</text>
<text x="117.37" y="336.93">.</text>
<text x="280.37" y="442.01">*</text>
<text x="394.12" y="103.63">.</text>
<text x="101.84" y="421.14">+</text>
<text x="71.67" y="14.62">+</text>
<text x="312.30" y="85.62">.</text>
<text x="291.99" y="193.86">.</text>
<text x="366.26" y="450.46">+</text>
<text x="350.36" y="10.84">+</text>
<text x="252.79" y="405.90">+</text>
<text x="347.90" y="84.47">+</text>
<text x="162.74" y="277.02">.</text>
<text x="11.55" y="220.50">.</text>
<text x="73.13" y="215.64">+</text>
<text x="192.45" y="177.77">+</text>
<text x="399.79" y="137.71">+</text>
<text x="53.11" y="409.89">*</text>
<text x="119.12" y="106.20">.</text>
<text x="197.28" y="281.76">*</text>
<text x="382.10" y="347.98">.</text>
<text x="219.22" y="196.69">+</text>
<text x="75.41" y="182.59">.</text>
<text x="58.78" y="425.98">.</text>
<text x="73.03" y="128.15">.</text>
<text x="82.71" y="453.22">.</text>
<text x="169.70" y="392.39">.</text>
<text x="67.34" y="296.58">*</text>

</svg>