
<svg viewBox="0 0 500 500" xmlns="http://www.w.org/2000/svg" width="100%" height="100%" style="background-color: #0a0a14; font-family: 'Courier New', Courier, monospace;">
    <style>
        text { fill: #aaa; font-size: 10px; text-anchor: middle; dominant-baseline: middle; }
    </style>
    <text x="456.98" y="148.40">.</text>
<text x="264.44" y="346.57">+</text>
<text x="430.94" y="94.23">+</text>
<text x="259.20" y="199.50">+</text>
<text x="31.54" y="333.58">.</text>
<text x="55.88" y="319.41">+</text>
<text x="265.94" y="303.37">+</text>
<text x="209.45" y="10.02">.</text>
<text x="104.43" y="336.99">+</text>
<text x="13.24" y="365.19">+</text>
<text x="9.83" y="209.43">.</text>
<text x="251.91" y="76.47">.</text>
<text x="7.21" y="425.80">+</text>
<text x="322.78" y="484.23">*</text>
<text x="141.73" y="35.85">+</text>
<text x="313.04" y="290.34">.</text>
<text x="203.28" y="371.78">+</text>
<text x="172.68" y="69.06">*</text>
<text x="419.00" y="325.94">+</text>
<text x="146.38" y="123.24">*</text>
<text x="318.49" y="209.64">+</text>
<text x="69.76" y="78.70">+</text>
<text x="42.28" y="9.77">.</text>
<text x="269.39" y="205.29">*</text>
<text x="44.01" y="138.81">.</text>
<text x="40.14" y="252.78">.</text>
<text x="42.06" y="361.09">+</text>
<text x="222.36" y="231.34">.</text>
<text x="15.12" y="395.68">+</text>
<text x="267.11" y="40.92">*</text>
<text x="76.68" y="377.09">*</text>
<text x="75.62" y="1.41">+</text>
<text x="139.56" y="298.74">.</text>
<text x="333.55" y="68.08">.</text>
<text x="233.23" y="130.06">.</text>
<text x="175.73" y="353.02">+</text>
<text x="32.46" y="461.10">+</text>
<text x="203.27" y="255.16">+</text>
<text x="413.34" y="214.79">*</text>
<text x="104.01" y="487.82">.</text>
<text x="168.25" y="457.72">.</text>
<text x="41.61" y="206.26">.</text>
<text x="43.90" y="400.67">.</text>
<text x="347.01" y="444.23">+</text>
<text x="379.71" y="50.06">+</text>
<text x="317.49" y="235.28">+</text>
<text x="242.01" y="75.00">.</text>
<text x="52.68" y="36.54">.</text>
<text x="381.18" y="88.71">.</text>
<text x="267.27" y="165.63">.</text>
<text x="129.34" y="49.77">.</text>
<text x="35.45" y="252.85">.</text>
<text x="91.29" y="451.00">.</text>
<text x="474.35" y="253.82">.</text>
<text x="179.52" y="243.15">.</text>
<text x="17.38" y="473.91">.</text>
<text x="366.11" y="88.20">.</text>
<text x="326.66" y="46.38">*</text>
<text x="376.37" y="177.38">+</text>
<text x="124.81" y="54.02">.</text>
<text x="59.66" y="252.20">+</text>
<text x="69.83" y="66.41">.</text>
<text x="180.13" y="240.97">+</text>
<text x="457.00" y="183.49">*</text>
<text x="61.92" y="21.09">.</text>
<text x="120.14" y="388.19">+</text>
<text x="283.07" y="239.68">*</text>
<text x="159.46" y="480.24">+</text>
<text x="107.48" y="226.72">.</text>
<text x="151.03" y="40.99">+</text>
<text x="97.51" y="18.83">.</text>
<text x="12.12" y="317.54">.</text>
<text x="124.60" y="99.52">+</text>
<text x="128.30" y="213.97">+</text>
<text x="157.84" y="116.56">+</text>
<text x="256.00" y="229.40">+</text>
<text x="222.93" y="414.26">+</text>
<text x="309.01" y="401.29">*</text>
<text x="400.31" y="332.86">+</text>
<text x="150.02" y="482.38">+</text>
<text x="115.92" y="102.50">.</text>
<text x="285.35" y="485.43">.</text>
<text x="191.67" y="93.38">+</text>
<text x="297.39" y="396.28">.</text>
<text x="139.96" y="393.09">.</text>
<text x="210.98" y="354.76">+</text>
<text x="329.59" y="53.69">+</text>
<text x="254.07" y="45.40">.</text>
<text x="367.91" y="489.57">.</text>
<text x="47.11" y="378.95">.</text>
<text x="354.28" y="352.32">+</text>
<text x="205.95" y="213.67">*</text>
<text x="152.91" y="447.81">+</text>
<text x="480.55" y="118.48">+</text>
<text x="268.98" y="36.98">*</text>
<text x="152.12" y="191.37">.</text>
<text x="92.12" y="246.25">*</text>
<text x="446.68" y="423.49">+</text>
<text x="143.97" y="345.04">+</text>
<text x="60.03" y="247.97">.</text>
<text x="175.97" y="478.77">.</text>
<text x="326.16" y="78.09">.</text>
<text x="69.18" y="22.64">.</text>
<text x="37.33" y="374.89">.</text>
<text x="215.40" y="320.57">.</text>
<text x="458.48" y="315.77">.</text>
<text x="451.10" y="322.50">.</text>
<text x="0.14" y="94.17">.</text>
<text x="420.00" y="416.25">+</text>
<text x="117.57" y="38.03">+</text>
<text x="143.99" y="495.69">.</text>
<text x="173.56" y="166.32">.</text>
<text x="229.39" y="334.44">.</text>
<text x="320.76" y="389.54">.</text>
<text x="411.01" y="125.21">+</text>
<text x="111.78" y="46.30">*</text>
<text x="177.21" y="96.19">.</text>
<text x="242.72" y="444.14">.</text>
<text x="464.40" y="262.38">*</text>
<text x="469.79" y="497.67">+</text>
<text x="494.64" y="72.35">.</text>
<text x="308.61" y="348.01">.</text>
<text x="391.17" y="128.81">+</text>
<text x="151.20" y="34.87">+</text>
<text x="219.87" y="107.06">.</text>
<text x="333.44" y="278.23">+</text>
<text x="386.89" y="283.70">.</text>
<text x="123.98" y="366.13">+</text>
<text x="79.63" y="264.52">+</text>
<text x="430.98" y="383.70">*</text>
<text x="77.95" y="238.93">*</text>
<text x="6.92" y="489.96">+</text>
<text x="289.66" y="187.37">.</text>
<text x="184.55" y="468.67">+</text>
<text x="251.83" y="1.69">+</text>
<text x="333.71" y="298.13">+</text>
<text x="188.44" y="461.94">+</text>
<text x="107.06" y="424.50">.</text>
<text x="318.47" y="425.15">+</text>
<text x="159.70" y="375.58">.</text>
<text x="344.79" y="463.13">+</text>
<text x="1.09" y="350.89">+</text>
<text x="220.68" y="25.00">.</text>
<text x="313.25" y="441.58">+</text>
<text x="322.69" y="187.80">+</text>
<text x="145.54" y="369.33">+</text>
<text x="270.99" y="274.64">+</text>
<text x="193.30" y="315.95">+</text>
<text x="61.99" y="403.83">*</text>
<text x="378.29" y="148.57">.</text>
<text x="298.30" y="383.16">.</text>
<text x="258.01" y="350.01">.</text>
<text x="454.97" y="312.42">+</text>
<text x="269.42" y="251.03">+</text>
<text x="397.23" y="404.96">+</text>
<text x="42.22" y="325.42">+</text>
<text x="193.43" y="300.12">.</text>
<text x="256.78" y="302.02">*</text>
<text x="472.49" y="182.39">+</text>
<text x="168.85" y="116.92">+</text>
<text x="39.72" y="484.30">.</text>
<text x="252.29" y="277.56">+</text>
<text x="52.72" y="444.57">.</text>
<text x="187.88" y="48.96">.</text>
<text x="438.23" y="378.40">*</text>
<text x="154.52" y="484.16">+</text>
<text x="207.55" y="242.25">+</text>
<text x="398.38" y="315.97">+</text>
<text x="250.27" y="441.37">.</text>
<text x="218.24" y="453.17">*</text>
<text x="2.55" y="317.24">+</text>
<text x="295.97" y="354.69">+</text>
<text x="467.73" y="465.57">+</text>
<text x="390.54" y="341.88">+</text>
<text x="159.80" y="133.99">+</text>
<text x="315.91" y="439.03">.</text>
<text x="13.67" y="442.81">.</text>
<text x="316.29" y="74.79">.</text>
<text x="285.62" y="47.20">+</text>
<text x="203.70" y="381.75">*</text>
<text x="53.07" y="224.14">.</text>
<text x="332.04" y="358.71">+</text>
<text x="243.71" y="433.67">.</text>
<text x="81.02" y="349.94">.</text>
<text x="177.34" y="289.60">+</text>
<text x="5.32" y="239.86">.</text>
<text x="11.25" y="326.95">+</text>
<text x="24.59" y="276.14">.</text>
<text x="79.67" y="283.05">+</text>
<text x="34.76" y="264.51">.</text>
<text x="93.96" y="394.88">.</text>
<text x="274.06" y="166.76">*</text>
<text x="28.11" y="336.69">+</text>
<text x="207.91" y="443.26">.</text>
<text x="334.55" y="483.44">.</text>
<text x="65.87" y="469.69">.</text>
<text x="217.55" y="275.61">.</text>
<text x="308.29" y="211.51">+</text>
<text x="141.70" y="19.58">+</text>
<text x="53.88" y="166.01">+</text>
<text x="47.51" y="69.13">.</text>
<text x="220.48" y="115.37">+</text>
<text x="306.14" y="24.52">.</text>
<text x="405.86" y="356.10">.</text>
<text x="309.72" y="183.06">*</text>
<text x="147.34" y="289.49">*</text>
<text x="73.14" y="283.49">+</text>
<text x="433.09" y="62.16">+</text>

</svg>