
<svg viewBox="0 0 500 500" xmlns="http://www.w.org/2000/svg" width="100%" height="100%" style="background-color: #0a0a14; font-family: 'Courier New', Courier, monospace;">
    <style>
        text { fill: #aaa; font-size: 10px; text-anchor: middle; dominant-baseline: middle; }
    </style>
    <text x="327.32" y="358.72">.</text>
<text x="114.60" y="308.26">+</text>
<text x="11.85" y="164.61">+</text>
<text x="456.49" y="441.70">*</text>
<text x="289.36" y="399.78">+</text>
<text x="236.99" y="398.49">.</text>
<text x="258.81" y="345.15">.</text>
<text x="218.31" y="234.22">*</text>
<text x="496.64" y="369.14">+</text>
<text x="14.61" y="477.44">+</text>
<text x="366.49" y="44.61">+</text>
<text x="174.07" y="267.99">*</text>
<text x="176.98" y="117.80">+</text>
<text x="81.69" y="491.22">+</text>
<text x="227.94" y="128.50">*</text>
<text x="232.00" y="338.53">.</text>
<text x="309.48" y="337.78">.</text>
<text x="142.67" y="479.60">+</text>
<text x="13.00" y="391.35">.</text>
<text x="427.72" y="76.34">+</text>
<text x="459.16" y="181.84">.</text>
<text x="181.45" y="77.26">.</text>
<text x="301.10" y="349.47">+</text>
<text x="197.19" y="48.44">+</text>
<text x="446.20" y="283.77">.</text>
<text x="200.69" y="432.07">+</text>
<text x="336.70" y="110.94">.</text>
<text x="367.25" y="149.84">+</text>
<text x="46.60" y="366.11">+</text>
<text x="162.54" y="309.13">+</text>
<text x="211.20" y="307.68">.</text>
<text x="1.92" y="409.23">.</text>
<text x="216.07" y="492.94">+</text>
<text x="470.27" y="407.85">.</text>
<text x="127.29" y="178.19">+</text>
<text x="360.02" y="82.56">+</text>
<text x="440.80" y="113.38">+</text>
<text x="162.68" y="325.57">.</text>
<text x="370.03" y="69.86">+</text>
<text x="227.24" y="240.44">.</text>
<text x="181.38" y="472.04">+</text>
<text x="389.90" y="374.87">+</text>
<text x="475.81" y="233.55">.</text>
<text x="489.22" y="5.62">+</text>
<text x="22.77" y="188.79">*</text>
<text x="104.65" y="283.70">+</text>
<text x="155.71" y="121.87">+</text>
<text x="309.86" y="56.74">+</text>
<text x="120.46" y="234.60">+</text>
<text x="215.15" y="374.97">.</text>
<text x="279.23" y="7.55">.</text>
<text x="301.47" y="495.57">.</text>
<text x="54.51" y="117.95">+</text>
<text x="249.57" y="380.61">+</text>
<text x="259.66" y="384.42">+</text>
<text x="304.96" y="268.08">.</text>
<text x="445.63" y="468.93">.</text>
<text x="81.99" y="406.68">+</text>
<text x="342.50" y="180.56">.</text>
<text x="434.57" y="240.55">+</text>
<text x="8.88" y="76.75">+</text>
<text x="492.37" y="23.80">*</text>
<text x="195.95" y="227.06">.</text>
<text x="464.18" y="238.50">+</text>
<text x="274.07" y="432.73">+</text>
<text x="84.06" y="174.60">+</text>
<text x="469.62" y="221.18">+</text>
<text x="204.33" y="240.85">.</text>
<text x="432.37" y="461.39">*</text>
<text x="189.47" y="331.59">+</text>
<text x="361.35" y="293.35">+</text>
<text x="227.68" y="174.63">+</text>
<text x="283.75" y="406.57">.</text>
<text x="422.93" y="51.13">.</text>
<text x="477.96" y="450.50">.</text>
<text x="485.19" y="407.97">+</text>
<text x="420.74" y="349.87">.</text>
<text x="349.71" y="316.87">+</text>
<text x="307.04" y="66.14">.</text>
<text x="220.38" y="125.59">.</text>
<text x="252.44" y="408.08">+</text>
<text x="256.39" y="275.72">+</text>
<text x="429.39" y="38.87">.</text>
<text x="283.35" y="1.74">+</text>
<text x="179.58" y="435.72">+</text>
<text x="431.57" y="15.95">.</text>
<text x="131.15" y="329.54">.</text>
<text x="363.88" y="283.28">.</text>
<text x="262.75" y="37.44">.</text>
<text x="63.02" y="153.51">+</text>
<text x="60.73" y="221.78">*</text>
<text x="392.91" y="174.81">+</text>
<text x="425.96" y="288.21">.</text>
<text x="72.39" y="23.77">.</text>
<text x="250.93" y="411.86">+</text>
<text x="350.23" y="199.12">+</text>
<text x="117.37" y="296.91">+</text>
<text x="36.25" y="8.89">*</text>
<text x="180.80" y="205.48">.</text>
<text x="10.70" y="223.06">+</text>
<text x="188.16" y="157.76">*</text>
<text x="181.47" y="296.22">.</text>
<text x="391.28" y="348.12">.</text>
<text x="129.48" y="288.20">+</text>
<text x="170.88" y="285.21">.</text>
<text x="265.93" y="301.76">*</text>
<text x="35.35" y="354.73">*</text>
<text x="285.59" y="256.50">.</text>
<text x="126.62" y="230.49">+</text>
<text x="12.79" y="243.53">+</text>
<text x="365.39" y="149.61">*</text>
<text x="83.23" y="173.19">+</text>
<text x="295.46" y="156.94">.</text>
<text x="92.78" y="275.00">*</text>
<text x="396.91" y="402.15">.</text>
<text x="120.42" y="316.25">.</text>
<text x="393.88" y="353.75">+</text>
<text x="150.64" y="10.38">+</text>
<text x="378.09" y="226.13">.</text>
<text x="232.47" y="400.80">.</text>
<text x="496.57" y="29.49">+</text>
<text x="253.32" y="411.09">+</text>
<text x="283.75" y="121.02">.</text>
<text x="29.15" y="106.64">+</text>
<text x="385.65" y="360.18">*</text>
<text x="105.25" y="305.90">.</text>
<text x="339.63" y="463.38">.</text>
<text x="42.23" y="181.97">+</text>
<text x="268.29" y="206.50">.</text>
<text x="222.56" y="396.07">+</text>
<text x="381.32" y="499.79">.</text>
<text x="81.33" y="277.65">+</text>
<text x="271.96" y="141.89">.</text>
<text x="428.39" y="497.83">.</text>
<text x="93.38" y="437.19">+</text>
<text x="207.81" y="246.99">+</text>
<text x="391.55" y="48.89">+</text>
<text x="417.23" y="373.64">+</text>
<text x="332.52" y="400.50">+</text>
<text x="354.81" y="357.59">+</text>
<text x="69.28" y="437.81">.</text>
<text x="272.46" y="384.68">.</text>
<text x="267.40" y="33.14">.</text>
<text x="116.35" y="426.49">.</text>
<text x="170.92" y="344.76">+</text>
<text x="40.32" y="310.79">.</text>
<text x="236.40" y="48.70">+</text>
<text x="391.84" y="321.10">+</text>
<text x="23.45" y="469.19">+</text>
<text x="145.89" y="0.60">.</text>
<text x="338.68" y="273.82">+</text>
<text x="171.92" y="242.40">+</text>
<text x="419.08" y="462.72">*</text>
<text x="307.68" y="326.76">.</text>
<text x="469.62" y="495.42">+</text>
<text x="422.04" y="344.53">+</text>
<text x="280.30" y="458.78">+</text>
<text x="178.76" y="419.57">+</text>
<text x="484.77" y="105.43">+</text>
<text x="370.28" y="186.85">.</text>
<text x="171.72" y="457.47">+</text>
<text x="179.54" y="406.27">+</text>
<text x="96.89" y="483.94">.</text>
<text x="156.14" y="288.08">+</text>
<text x="451.60" y="77.38">+</text>
<text x="119.69" y="197.61">.</text>
<text x="182.04" y="198.27">+</text>
<text x="164.85" y="56.99">+</text>
<text x="468.07" y="491.22">+</text>
<text x="44.61" y="477.36">.</text>
<text x="268.50" y="440.36">+</text>
<text x="68.41" y="405.69">.</text>
<text x="77.13" y="337.62">+</text>
<text x="139.19" y="480.66">*</text>
<text x="472.76" y="121.15">.</text>
<text x="438.46" y="250.48">+</text>
<text x="473.83" y="471.70">+</text>
<text x="316.53" y="498.76">+</text>
<text x="346.43" y="49.36">+</text>
<text x="392.41" y="458.73">*</text>
<text x="446.96" y="73.04">.</text>
<text x="173.82" y="8.62">+</text>
<text x="165.94" y="29.05">.</text>
<text x="258.89" y="256.73">.</text>
<text x="220.12" y="411.57">.</text>
<text x="57.22" y="35.81">.</text>
<text x="102.45" y="69.90">*</text>
<text x="57.11" y="318.15">+</text>
<text x="464.27" y="140.96">.</text>
<text x="55.29" y="415.43">+</text>
<text x="259.95" y="494.54">+</text>
<text x="122.90" y="451.76">.</text>
<text x="498.20" y="398.69">.</text>
<text x="489.29" y="52.22">*</text>
<text x="319.20" y="193.98">+</text>
<text x="76.17" y="143.88">.</text>
<text x="250.05" y="331.57">*</text>
<text x="260.30" y="78.34">.</text>
<text x="255.56" y="271.86">+</text>
<text x="275.04" y="452.32">+</text>
<text x="458.12" y="495.52">.</text>
<text x="74.26" y="475.69">.</text>
<text x="489.61" y="135.84">.</text>
<text x="282.92" y="339.78">.</text>

</svg>