
<svg viewBox="0 0 500 500" xmlns="http://www.w.org/2000/svg" width="100%" height="100%" style="background-color: #0a0a14; font-family: 'Courier New', Courier, monospace;">
    <style>
        text { fill: #aaa; font-size: 10px; text-anchor: middle; dominant-baseline: middle; }
    </style>
    <text x="274.60" y="230.00">+</text>
<text x="149.43" y="390.65">.</text>
<text x="245.33" y="284.85">+</text>
<text x="302.32" y="111.44">+</text>
<text x="292.50" y="219.88">+</text>
<text x="24.41" y="32.92">+</text>
<text x="464.75" y="120.50">.</text>
<text x="437.49" y="241.20">.</text>
<text x="446.33" y="20.78">+</text>
<text x="380.46" y="70.56">+</text>
<text x="203.17" y="98.33">.</text>
<text x="85.14" y="75.76">+</text>
<text x="237.09" y="151.97">+</text>
<text x="112.12" y="415.19">+</text>
<text x="85.65" y="349.20">+</text>
<text x="338.86" y="369.87">.</text>
<text x="244.17" y="432.82">.</text>
<text x="431.26" y="15.99">+</text>
<text x="302.80" y="173.36">.</text>
<text x="135.92" y="384.52">.</text>
<text x="8.27" y="156.54">+</text>
<text x="52.92" y="297.27">.</text>
<text x="478.62" y="320.40">.</text>
<text x="12.95" y="223.81">.</text>
<text x="438.56" y="215.60">+</text>
<text x="272.42" y="332.57">*</text>
<text x="353.75" y="100.93">.</text>
<text x="139.00" y="178.22">+</text>
<text x="21.07" y="73.45">.</text>
<text x="241.82" y="211.86">+</text>
<text x="148.51" y="285.59">+</text>
<text x="481.86" y="34.18">*</text>
<text x="130.45" y="77.82">*</text>
<text x="493.21" y="303.59">+</text>
<text x="300.32" y="297.24">.</text>
<text x="375.05" y="77.58">+</text>
<text x="184.68" y="344.53">+</text>
<text x="115.98" y="399.45">+</text>
<text x="149.75" y="380.60">.</text>
<text x="354.30" y="379.28">+</text>
<text x="292.57" y="487.24">+</text>
<text x="269.87" y="92.63">+</text>
<text x="12.76" y="474.94">*</text>
<text x="80.94" y="256.79">+</text>
<text x="403.49" y="457.07">+</text>
<text x="179.61" y="494.12">.</text>
<text x="113.85" y="357.22">+</text>
<text x="374.40" y="421.81">*</text>
<text x="375.59" y="87.41">*</text>
<text x="314.95" y="265.17">+</text>
<text x="381.39" y="339.64">+</text>
<text x="152.03" y="285.01">.</text>
<text x="209.26" y="420.34">+</text>
<text x="294.13" y="369.14">+</text>
<text x="14.01" y="480.63">+</text>
<text x="187.63" y="229.19">+</text>
<text x="126.67" y="345.72">+</text>
<text x="113.24" y="92.97">.</text>
<text x="462.70" y="357.61">+</text>
<text x="308.04" y="416.34">.</text>
<text x="490.16" y="472.27">+</text>
<text x="145.45" y="232.90">*</text>
<text x="316.09" y="402.54">.</text>
<text x="331.11" y="258.79">+</text>
<text x="67.53" y="253.75">.</text>
<text x="370.37" y="41.70">.</text>
<text x="431.70" y="127.60">+</text>
<text x="264.97" y="225.69">.</text>
<text x="276.44" y="46.14">.</text>
<text x="185.67" y="414.13">*</text>
<text x="67.19" y="159.18">.</text>
<text x="307.27" y="252.08">.</text>
<text x="111.11" y="493.75">*</text>
<text x="150.73" y="114.54">+</text>
<text x="296.67" y="64.14">+</text>
<text x="216.00" y="263.89">.</text>
<text x="425.40" y="480.80">.</text>
<text x="62.33" y="3.86">+</text>
<text x="79.14" y="77.39">+</text>
<text x="43.52" y="424.36">.</text>
<text x="44.77" y="8.02">.</text>
<text x="412.16" y="141.41">+</text>
<text x="31.93" y="256.90">+</text>
<text x="271.22" y="60.07">+</text>
<text x="491.96" y="479.21">+</text>
<text x="412.40" y="408.44">+</text>
<text x="195.14" y="326.34">.</text>
<text x="202.51" y="229.78">+</text>
<text x="307.99" y="4.12">*</text>
<text x="174.34" y="52.74">+</text>
<text x="39.99" y="447.16">.</text>
<text x="291.51" y="319.63">+</text>
<text x="492.18" y="128.52">.</text>
<text x="277.75" y="495.04">*</text>
<text x="409.39" y="242.61">.</text>
<text x="457.86" y="193.07">.</text>
<text x="33.08" y="6.32">+</text>
<text x="294.19" y="426.76">.</text>
<text x="442.69" y="111.00">+</text>
<text x="181.24" y="382.14">+</text>
<text x="426.37" y="486.54">*</text>
<text x="181.98" y="297.43">+</text>
<text x="404.79" y="410.06">.</text>
<text x="439.45" y="18.28">.</text>
<text x="181.94" y="360.78">+</text>
<text x="146.32" y="123.10">*</text>
<text x="72.89" y="172.67">*</text>
<text x="145.83" y="104.71">+</text>
<text x="463.78" y="200.21">+</text>
<text x="453.05" y="150.39">.</text>
<text x="291.18" y="308.65">.</text>
<text x="299.16" y="367.68">*</text>
<text x="468.06" y="302.36">.</text>
<text x="345.78" y="132.10">+</text>
<text x="210.51" y="459.38">+</text>
<text x="116.10" y="251.22">.</text>
<text x="6.84" y="118.72">.</text>
<text x="197.37" y="346.71">+</text>
<text x="219.15" y="306.14">.</text>
<text x="80.19" y="460.52">.</text>
<text x="281.05" y="228.42">+</text>
<text x="195.20" y="303.81">.</text>
<text x="9.41" y="2.10">.</text>
<text x="197.70" y="47.57">.</text>
<text x="324.04" y="140.22">*</text>
<text x="318.53" y="358.98">+</text>
<text x="255.73" y="283.01">*</text>
<text x="208.99" y="58.73">*</text>
<text x="187.91" y="342.59">.</text>
<text x="11.65" y="478.22">+</text>
<text x="420.79" y="65.80">*</text>
<text x="369.16" y="72.61">.</text>
<text x="436.30" y="463.68">.</text>
<text x="372.27" y="47.54">.</text>
<text x="393.64" y="278.79">*</text>
<text x="412.13" y="251.35">.</text>
<text x="434.36" y="134.36">.</text>
<text x="338.43" y="80.39">.</text>
<text x="339.40" y="18.17">+</text>
<text x="128.68" y="190.97">+</text>
<text x="310.73" y="458.45">+</text>
<text x="447.84" y="347.80">*</text>
<text x="457.99" y="254.89">+</text>
<text x="44.61" y="388.67">*</text>
<text x="143.28" y="442.23">*</text>
<text x="77.11" y="35.17">+</text>
<text x="193.96" y="397.68">.</text>
<text x="332.43" y="93.44">.</text>
<text x="61.02" y="483.29">+</text>
<text x="143.60" y="367.96">+</text>
<text x="35.92" y="96.64">+</text>
<text x="291.86" y="389.85">*</text>
<text x="236.99" y="411.66">.</text>
<text x="23.32" y="293.28">.</text>
<text x="361.19" y="174.06">+</text>
<text x="417.25" y="130.02">+</text>
<text x="177.66" y="209.22">*</text>
<text x="378.28" y="135.19">*</text>
<text x="236.83" y="279.95">.</text>
<text x="237.05" y="83.77">.</text>
<text x="73.05" y="394.74">.</text>
<text x="109.95" y="130.28">*</text>
<text x="275.00" y="235.87">+</text>
<text x="332.98" y="402.88">+</text>
<text x="242.58" y="335.80">+</text>
<text x="41.45" y="113.70">+</text>
<text x="350.79" y="383.99">+</text>
<text x="62.08" y="283.26">*</text>
<text x="50.93" y="454.92">*</text>
<text x="128.16" y="131.19">.</text>
<text x="331.53" y="47.13">+</text>
<text x="315.63" y="387.57">*</text>
<text x="64.75" y="263.92">+</text>
<text x="375.04" y="254.62">+</text>
<text x="83.22" y="296.63">*</text>
<text x="28.14" y="216.02">+</text>
<text x="128.26" y="261.99">.</text>
<text x="107.97" y="251.88">*</text>
<text x="119.39" y="0.26">+</text>
<text x="300.21" y="265.99">.</text>
<text x="12.02" y="281.55">.</text>
<text x="113.29" y="410.89">.</text>
<text x="269.73" y="237.55">+</text>
<text x="433.68" y="66.96">*</text>
<text x="289.98" y="418.83">+</text>
<text x="83.66" y="468.45">+</text>
<text x="455.71" y="211.63">+</text>
<text x="278.88" y="280.89">.</text>
<text x="341.64" y="464.42">*</text>
<text x="199.59" y="245.16">*</text>
<text x="26.51" y="313.46">+</text>
<text x="64.42" y="306.63">.</text>
<text x="272.75" y="489.49">+</text>
<text x="76.86" y="143.68">.</text>
<text x="131.93" y="313.28">+</text>
<text x="174.69" y="397.51">+</text>
<text x="165.16" y="184.12">+</text>
<text x="62.94" y="492.04">+</text>
<text x="88.14" y="261.76">.</text>
<text x="487.40" y="470.55">*</text>
<text x="143.99" y="289.79">.</text>
<text x="357.42" y="401.13">+</text>
<text x="193.29" y="158.28">+</text>
<text x="30.68" y="286.26">.</text>

</svg>