
<svg viewBox="0 0 500 500" xmlns="http://www.w.org/2000/svg" width="100%" height="100%" style="background-color: #0a0a14; font-family: 'Courier New', Courier, monospace;">
    <style>
        text { fill: #aaa; font-size: 10px; text-anchor: middle; dominant-baseline: middle; }
    </style>
    <text x="184.76" y="87.38">.</text>
<text x="257.80" y="24.64">.</text>
<text x="178.91" y="52.36">*</text>
<text x="71.52" y="113.06">*</text>
<text x="75.08" y="85.45">+</text>
<text x="145.28" y="483.65">+</text>
<text x="331.98" y="15.00">.</text>
<text x="430.94" y="214.45">.</text>
<text x="227.60" y="200.11">.</text>
<text x="263.97" y="444.76">+</text>
<text x="244.61" y="61.37">.</text>
<text x="265.17" y="47.88">*</text>
<text x="375.40" y="422.09">.</text>
<text x="196.87" y="463.40">.</text>
<text x="213.64" y="265.60">*</text>
<text x="396.24" y="499.68">+</text>
<text x="275.40" y="469.29">.</text>
<text x="329.76" y="466.27">.</text>
<text x="301.06" y="163.75">+</text>
<text x="229.70" y="14.72">.</text>
<text x="320.78" y="310.28">+</text>
<text x="332.97" y="319.13">+</text>
<text x="39.81" y="497.31">+</text>
<text x="443.72" y="272.83">+</text>
<text x="123.14" y="217.29">.</text>
<text x="386.00" y="148.69">.</text>
<text x="221.97" y="181.07">+</text>
<text x="218.68" y="283.89">.</text>
<text x="30.15" y="443.33">+</text>
<text x="274.28" y="146.96">*</text>
<text x="295.10" y="101.50">.</text>
<text x="366.78" y="433.59">*</text>
<text x="140.58" y="68.98">.</text>
<text x="333.33" y="171.59">*</text>
<text x="167.11" y="47.82">*</text>
<text x="48.21" y="74.60">.</text>
<text x="235.74" y="450.42">.</text>
<text x="497.37" y="337.61">*</text>
<text x="414.39" y="373.62">+</text>
<text x="253.52" y="88.02">.</text>
<text x="394.89" y="240.26">+</text>
<text x="53.10" y="191.09">.</text>
<text x="404.33" y="135.45">.</text>
<text x="436.16" y="94.55">+</text>
<text x="230.96" y="124.14">+</text>
<text x="471.39" y="447.25">*</text>
<text x="327.11" y="259.79">+</text>
<text x="441.64" y="255.59">.</text>
<text x="491.46" y="226.88">*</text>
<text x="130.80" y="61.27">.</text>
<text x="341.18" y="285.51">.</text>
<text x="352.04" y="227.81">.</text>
<text x="398.46" y="412.42">+</text>
<text x="17.05" y="449.69">*</text>
<text x="48.59" y="87.55">.</text>
<text x="285.47" y="402.02">.</text>
<text x="276.77" y="33.18">+</text>
<text x="459.60" y="306.19">+</text>
<text x="331.71" y="172.96">.</text>
<text x="281.64" y="143.10">.</text>
<text x="65.33" y="254.42">.</text>
<text x="466.43" y="108.94">.</text>
<text x="280.14" y="121.75">.</text>
<text x="12.51" y="271.44">.</text>
<text x="475.07" y="306.29">*</text>
<text x="209.37" y="31.07">.</text>
<text x="479.41" y="193.14">.</text>
<text x="203.59" y="136.78">+</text>
<text x="24.48" y="178.76">+</text>
<text x="220.07" y="286.09">.</text>
<text x="436.70" y="322.96">.</text>
<text x="230.13" y="17.51">.</text>
<text x="91.35" y="242.43">.</text>
<text x="376.64" y="185.46">*</text>
<text x="31.10" y="217.06">+</text>
<text x="275.19" y="410.03">.</text>
<text x="306.88" y="115.63">.</text>
<text x="291.46" y="154.84">.</text>
<text x="467.19" y="351.55">.</text>
<text x="411.64" y="466.92">+</text>
<text x="93.36" y="483.81">.</text>
<text x="423.09" y="95.92">+</text>
<text x="83.20" y="339.32">.</text>
<text x="18.92" y="318.59">+</text>
<text x="263.94" y="415.20">.</text>
<text x="98.79" y="339.22">+</text>
<text x="106.36" y="246.42">.</text>
<text x="467.98" y="283.69">*</text>
<text x="23.17" y="486.08">.</text>
<text x="95.94" y="32.05">+</text>
<text x="43.24" y="470.75">+</text>
<text x="65.95" y="401.93">+</text>
<text x="322.92" y="41.43">.</text>
<text x="47.13" y="296.00">.</text>
<text x="342.52" y="107.38">*</text>
<text x="429.48" y="256.93">.</text>
<text x="465.14" y="322.07">.</text>
<text x="363.10" y="228.55">.</text>
<text x="304.35" y="395.13">+</text>
<text x="102.94" y="346.67">.</text>
<text x="65.85" y="93.60">.</text>
<text x="106.75" y="103.29">+</text>
<text x="336.07" y="148.95">+</text>
<text x="115.98" y="311.36">+</text>
<text x="391.40" y="22.33">+</text>
<text x="411.23" y="245.87">+</text>
<text x="472.14" y="134.85">.</text>
<text x="206.21" y="435.18">.</text>
<text x="311.82" y="99.45">.</text>
<text x="325.88" y="109.55">.</text>
<text x="29.63" y="480.05">+</text>
<text x="320.58" y="172.36">.</text>
<text x="460.15" y="423.52">.</text>
<text x="278.68" y="6.15">+</text>
<text x="463.63" y="245.94">+</text>
<text x="318.97" y="330.64">.</text>
<text x="312.73" y="313.31">+</text>
<text x="358.36" y="104.10">+</text>
<text x="173.13" y="285.48">.</text>
<text x="145.35" y="314.28">.</text>
<text x="485.43" y="113.26">.</text>
<text x="243.84" y="129.97">+</text>
<text x="313.19" y="447.67">.</text>
<text x="144.73" y="367.36">.</text>
<text x="465.69" y="344.37">+</text>
<text x="85.28" y="9.70">.</text>
<text x="218.85" y="69.51">*</text>
<text x="255.02" y="345.91">.</text>
<text x="36.10" y="62.73">.</text>
<text x="134.16" y="338.06">.</text>
<text x="432.02" y="175.09">.</text>
<text x="233.60" y="487.91">+</text>
<text x="301.96" y="207.76">+</text>
<text x="191.04" y="275.91">+</text>
<text x="47.08" y="319.29">+</text>
<text x="46.73" y="226.76">+</text>
<text x="120.65" y="90.37">.</text>
<text x="374.78" y="154.10">+</text>
<text x="443.53" y="399.15">.</text>
<text x="423.12" y="127.02">.</text>
<text x="498.71" y="417.89">+</text>
<text x="326.39" y="38.20">.</text>
<text x="86.86" y="463.95">+</text>
<text x="344.29" y="376.27">+</text>
<text x="10.92" y="221.12">+</text>
<text x="278.54" y="99.29">*</text>
<text x="368.44" y="284.63">*</text>
<text x="184.43" y="35.62">.</text>
<text x="304.74" y="331.98">+</text>
<text x="58.70" y="422.89">+</text>
<text x="444.61" y="396.11">.</text>
<text x="158.55" y="387.61">+</text>
<text x="379.39" y="296.38">*</text>
<text x="392.48" y="31.73">+</text>
<text x="312.68" y="124.66">.</text>
<text x="120.41" y="94.48">.</text>
<text x="122.11" y="286.77">+</text>
<text x="262.66" y="427.62">.</text>
<text x="84.15" y="381.91">+</text>
<text x="332.27" y="120.43">+</text>
<text x="22.44" y="253.78">+</text>
<text x="83.76" y="498.67">+</text>
<text x="312.05" y="354.14">.</text>
<text x="281.40" y="277.26">+</text>
<text x="267.11" y="146.24">.</text>
<text x="210.84" y="102.53">*</text>
<text x="327.06" y="219.04">+</text>
<text x="488.36" y="106.87">.</text>
<text x="222.54" y="337.98">+</text>
<text x="55.73" y="463.62">*</text>
<text x="279.44" y="106.62">.</text>
<text x="296.08" y="308.80">+</text>
<text x="266.36" y="135.30">+</text>
<text x="462.41" y="342.87">+</text>
<text x="452.25" y="283.95">.</text>
<text x="35.05" y="300.58">.</text>
<text x="189.09" y="200.09">+</text>
<text x="270.06" y="319.88">+</text>
<text x="316.40" y="82.10">*</text>
<text x="172.63" y="9.44">+</text>
<text x="396.24" y="196.51">.</text>
<text x="327.88" y="484.63">+</text>
<text x="495.41" y="261.51">.</text>
<text x="289.24" y="31.79">+</text>
<text x="484.46" y="482.10">.</text>
<text x="374.48" y="347.65">.</text>
<text x="102.98" y="235.05">*</text>
<text x="384.41" y="489.51">*</text>
<text x="221.04" y="462.62">+</text>
<text x="242.98" y="8.46">+</text>
<text x="366.73" y="25.92">+</text>
<text x="29.27" y="265.43">*</text>
<text x="257.37" y="349.83">+</text>
<text x="480.69" y="438.06">+</text>
<text x="341.90" y="85.78">+</text>
<text x="304.69" y="417.14">+</text>
<text x="80.98" y="441.26">.</text>
<text x="353.14" y="405.99">+</text>
<text x="259.44" y="397.47">+</text>
<text x="259.39" y="262.15">.</text>
<text x="189.65" y="475.44">.</text>
<text x="161.15" y="339.36">.</text>
<text x="230.87" y="400.72">.</text>
<text x="124.49" y="399.91">*</text>
<text x="87.74" y="255.92">.</text>
<text x="250.69" y="432.08">+</text>
<text x="139.27" y="138.35">.</text>
<text x="236.09" y="316.42">.</text>
<text x="228.27" y="100.65">+</text>
<text x="209.34" y="120.69">.</text>
<text x="167.69" y="379.29">+</text>
<text x="285.65" y="168.53">.</text>
<text x="194.51" y="91.04">.</text>

</svg>