
<svg viewBox="0 0 500 500" xmlns="http://www.w.org/2000/svg" width="100%" height="100%" style="background-color: #0a0a14; font-family: 'Courier New', Courier, monospace;">
    <style>
        text { fill: #aaa; font-size: 10px; text-anchor: middle; dominant-baseline: middle; }
    </style>
    <text x="417.71" y="384.95">+</text>
<text x="198.61" y="210.12">+</text>
<text x="211.78" y="477.51">.</text>
<text x="317.90" y="339.45">.</text>
<text x="345.43" y="422.48">.</text>
<text x="7.45" y="455.80">+</text>
<text x="49.95" y="145.49">+</text>
<text x="433.01" y="168.18">.</text>
<text x="363.53" y="358.47">+</text>
<text x="250.20" y="145.56">.</text>
<text x="381.48" y="488.95">+</text>
<text x="412.17" y="310.71">+</text>
<text x="20.58" y="407.65">+</text>
<text x="400.48" y="84.66">.</text>
<text x="403.45" y="143.02">.</text>
<text x="196.80" y="161.75">.</text>
<text x="321.76" y="447.35">*</text>
<text x="303.55" y="271.22">.</text>
<text x="377.35" y="413.07">.</text>
<text x="328.42" y="21.98">.</text>
<text x="221.85" y="147.33">.</text>
<text x="166.29" y="317.24">.</text>
<text x="106.85" y="330.52">+</text>
<text x="201.23" y="35.48">.</text>
<text x="61.86" y="5.16">*</text>
<text x="313.61" y="214.19">.</text>
<text x="446.79" y="388.83">.</text>
<text x="382.55" y="23.21">+</text>
<text x="448.65" y="474.18">.</text>
<text x="275.63" y="207.27">.</text>
<text x="17.36" y="159.98">+</text>
<text x="219.12" y="5.85">.</text>
<text x="444.24" y="80.40">+</text>
<text x="317.35" y="414.91">+</text>
<text x="439.24" y="40.35">.</text>
<text x="96.80" y="99.54">.</text>
<text x="76.61" y="148.10">*</text>
<text x="412.35" y="373.01">.</text>
<text x="409.78" y="47.33">+</text>
<text x="255.18" y="408.38">.</text>
<text x="107.39" y="331.41">*</text>
<text x="18.60" y="275.07">*</text>
<text x="219.11" y="131.39">.</text>
<text x="495.41" y="68.52">.</text>
<text x="425.53" y="473.15">+</text>
<text x="297.31" y="91.63">.</text>
<text x="285.25" y="211.75">*</text>
<text x="313.66" y="282.37">+</text>
<text x="52.96" y="219.38">+</text>
<text x="226.30" y="48.74">.</text>
<text x="33.21" y="336.12">.</text>
<text x="400.41" y="112.40">.</text>
<text x="360.61" y="257.14">.</text>
<text x="437.17" y="102.63">.</text>
<text x="464.73" y="172.22">.</text>
<text x="295.93" y="403.39">+</text>
<text x="263.56" y="185.28">+</text>
<text x="38.05" y="265.49">.</text>
<text x="233.17" y="130.74">.</text>
<text x="253.15" y="105.07">.</text>
<text x="38.91" y="84.67">+</text>
<text x="430.92" y="75.69">+</text>
<text x="229.76" y="254.31">+</text>
<text x="360.78" y="129.86">.</text>
<text x="461.99" y="391.86">+</text>
<text x="334.58" y="283.02">+</text>
<text x="224.09" y="378.77">.</text>
<text x="119.61" y="130.60">.</text>
<text x="468.42" y="201.09">.</text>
<text x="36.09" y="172.64">+</text>
<text x="423.30" y="482.01">.</text>
<text x="286.77" y="190.17">*</text>
<text x="306.33" y="83.15">+</text>
<text x="109.78" y="391.58">.</text>
<text x="263.38" y="467.76">+</text>
<text x="344.79" y="121.54">+</text>
<text x="434.71" y="20.16">.</text>
<text x="431.12" y="436.22">.</text>
<text x="433.69" y="341.48">+</text>
<text x="231.97" y="118.65">.</text>
<text x="384.97" y="135.31">.</text>
<text x="279.65" y="115.38">+</text>
<text x="203.52" y="199.19">.</text>
<text x="72.74" y="138.31">+</text>
<text x="433.57" y="494.20">+</text>
<text x="354.59" y="192.85">*</text>
<text x="470.28" y="358.68">*</text>
<text x="422.51" y="258.45">.</text>
<text x="100.75" y="370.27">+</text>
<text x="38.86" y="78.58">.</text>
<text x="156.91" y="213.27">*</text>
<text x="154.83" y="242.28">+</text>
<text x="487.94" y="105.19">+</text>
<text x="479.92" y="276.85">+</text>
<text x="53.65" y="400.22">*</text>
<text x="349.66" y="330.66">.</text>
<text x="288.58" y="184.71">*</text>
<text x="370.58" y="469.52">.</text>
<text x="243.36" y="366.30">.</text>
<text x="390.51" y="434.76">.</text>
<text x="123.64" y="296.79">.</text>
<text x="110.99" y="134.18">+</text>
<text x="461.91" y="208.03">.</text>
<text x="272.36" y="453.24">+</text>
<text x="125.64" y="138.34">+</text>
<text x="277.23" y="440.35">.</text>
<text x="363.98" y="185.80">.</text>
<text x="104.73" y="73.50">+</text>
<text x="452.02" y="220.54">+</text>
<text x="121.70" y="292.35">.</text>
<text x="457.84" y="109.73">+</text>
<text x="236.88" y="163.81">.</text>
<text x="347.67" y="257.97">+</text>
<text x="223.31" y="14.47">*</text>
<text x="25.36" y="11.40">+</text>
<text x="356.63" y="314.54">.</text>
<text x="238.36" y="244.20">+</text>
<text x="106.74" y="412.87">+</text>
<text x="139.87" y="378.85">.</text>
<text x="352.44" y="444.77">+</text>
<text x="315.94" y="460.89">+</text>
<text x="420.10" y="469.51">*</text>
<text x="221.05" y="377.59">+</text>
<text x="282.87" y="198.99">.</text>
<text x="350.98" y="183.56">.</text>
<text x="277.07" y="379.18">+</text>
<text x="397.44" y="77.65">*</text>
<text x="480.60" y="251.84">.</text>
<text x="160.49" y="451.14">*</text>
<text x="139.24" y="466.57">*</text>
<text x="343.76" y="383.67">*</text>
<text x="479.80" y="492.58">+</text>
<text x="173.93" y="334.97">.</text>
<text x="246.94" y="375.90">.</text>
<text x="421.91" y="497.40">+</text>
<text x="179.84" y="51.75">*</text>
<text x="469.31" y="409.10">.</text>
<text x="314.61" y="427.87">+</text>
<text x="449.84" y="158.76">.</text>
<text x="172.28" y="416.43">+</text>
<text x="125.50" y="54.35">+</text>
<text x="368.60" y="190.09">+</text>
<text x="351.10" y="271.01">.</text>
<text x="21.03" y="364.21">.</text>
<text x="381.87" y="369.58">+</text>
<text x="358.44" y="151.33">.</text>
<text x="265.86" y="123.93">.</text>
<text x="6.99" y="462.76">.</text>
<text x="217.19" y="152.14">+</text>
<text x="333.87" y="223.39">.</text>
<text x="401.58" y="249.10">+</text>
<text x="26.21" y="52.05">.</text>
<text x="63.65" y="226.00">.</text>
<text x="126.22" y="226.51">.</text>
<text x="43.94" y="133.18">*</text>
<text x="385.68" y="458.53">*</text>
<text x="217.06" y="306.15">.</text>
<text x="417.99" y="41.02">+</text>
<text x="1.62" y="281.06">+</text>
<text x="138.76" y="213.88">.</text>
<text x="92.84" y="181.15">.</text>
<text x="162.94" y="62.16">+</text>
<text x="324.05" y="221.09">.</text>
<text x="281.60" y="276.75">+</text>
<text x="372.33" y="218.87">+</text>
<text x="18.69" y="94.19">+</text>
<text x="477.54" y="229.80">+</text>
<text x="335.67" y="311.54">*</text>
<text x="246.12" y="434.58">+</text>
<text x="4.47" y="81.41">*</text>
<text x="196.82" y="193.89">+</text>
<text x="121.52" y="302.25">.</text>
<text x="186.75" y="339.50">.</text>
<text x="101.23" y="286.38">+</text>
<text x="149.12" y="5.00">.</text>
<text x="364.70" y="300.14">.</text>
<text x="264.15" y="317.44">+</text>
<text x="81.44" y="146.99">.</text>
<text x="177.55" y="103.33">+</text>
<text x="233.55" y="321.09">+</text>
<text x="411.45" y="418.28">*</text>
<text x="181.41" y="454.63">.</text>
<text x="312.73" y="85.74">.</text>
<text x="278.96" y="423.25">+</text>
<text x="8.13" y="323.43">.</text>
<text x="494.18" y="145.99">+</text>
<text x="228.90" y="184.12">.</text>
<text x="353.62" y="147.19">.</text>
<text x="442.61" y="198.34">.</text>
<text x="372.18" y="456.15">.</text>
<text x="265.96" y="347.45">*</text>
<text x="278.39" y="282.90">*</text>
<text x="217.22" y="330.69">.</text>
<text x="294.17" y="313.85">+</text>
<text x="71.18" y="441.72">.</text>
<text x="68.50" y="247.20">*</text>
<text x="320.80" y="382.71">+</text>
<text x="322.14" y="162.91">.</text>
<text x="310.96" y="127.77">+</text>
<text x="220.39" y="199.93">+</text>
<text x="89.24" y="313.10">+</text>
<text x="96.46" y="44.96">.</text>
<text x="333.87" y="272.94">+</text>
<text x="396.77" y="390.11">+</text>
<text x="160.85" y="409.84">.</text>
<text x="175.73" y="477.91">.</text>

</svg>