
<svg viewBox="0 0 500 500" xmlns="http://www.w.org/2000/svg" width="100%" height="100%" style="background-color: #0a0a14; font-family: 'Courier New', Courier, monospace;">
    <style>
        text { fill: #aaa; font-size: 10px; text-anchor: middle; dominant-baseline: middle; }
    </style>
    <text x="250.34" y="138.04">+</text>
<text x="176.54" y="83.87">.</text>
<text x="1.48" y="80.29">+</text>
<text x="327.00" y="430.77">.</text>
<text x="284.43" y="273.70">+</text>
<text x="457.55" y="77.54">+</text>
<text x="219.49" y="372.26">.</text>
<text x="114.77" y="114.29">+</text>
<text x="105.77" y="481.20">+</text>
<text x="14.40" y="246.84">*</text>
<text x="373.70" y="142.59">+</text>
<text x="202.67" y="426.63">.</text>
<text x="283.80" y="346.35">.</text>
<text x="14.39" y="86.57">*</text>
<text x="428.23" y="460.86">.</text>
<text x="373.45" y="422.69">+</text>
<text x="344.24" y="355.91">.</text>
<text x="85.14" y="25.58">+</text>
<text x="300.90" y="72.08">+</text>
<text x="344.27" y="356.50">.</text>
<text x="293.84" y="491.57">.</text>
<text x="270.72" y="234.70">+</text>
<text x="159.06" y="208.72">+</text>
<text x="364.29" y="469.49">.</text>
<text x="31.61" y="355.22">.</text>
<text x="199.19" y="189.92">.</text>
<text x="299.86" y="147.15">.</text>
<text x="127.12" y="353.22">.</text>
<text x="141.87" y="417.48">.</text>
<text x="316.46" y="162.82">+</text>
<text x="48.00" y="89.39">*</text>
<text x="432.93" y="299.72">*</text>
<text x="349.18" y="270.61">*</text>
<text x="268.60" y="4.09">.</text>
<text x="319.26" y="401.32">+</text>
<text x="142.84" y="95.34">+</text>
<text x="259.57" y="490.85">.</text>
<text x="478.18" y="410.57">*</text>
<text x="436.85" y="148.15">*</text>
<text x="51.42" y="274.87">+</text>
<text x="177.69" y="300.25">+</text>
<text x="407.43" y="465.92">*</text>
<text x="321.31" y="405.82">+</text>
<text x="253.24" y="170.21">+</text>
<text x="115.13" y="173.17">+</text>
<text x="85.42" y="343.24">+</text>
<text x="125.86" y="421.31">+</text>
<text x="20.05" y="475.92">.</text>
<text x="16.59" y="375.74">.</text>
<text x="488.11" y="113.25">.</text>
<text x="414.20" y="200.64">.</text>
<text x="469.01" y="274.07">.</text>
<text x="361.43" y="115.82">+</text>
<text x="173.85" y="495.87">.</text>
<text x="0.51" y="354.28">.</text>
<text x="184.92" y="101.46">.</text>
<text x="158.56" y="73.03">.</text>
<text x="384.73" y="444.54">.</text>
<text x="132.13" y="230.21">+</text>
<text x="138.56" y="365.99">.</text>
<text x="436.35" y="93.39">+</text>
<text x="32.33" y="11.26">*</text>
<text x="202.89" y="191.75">.</text>
<text x="487.35" y="111.53">*</text>
<text x="88.38" y="224.63">*</text>
<text x="497.04" y="457.88">+</text>
<text x="271.79" y="443.20">.</text>
<text x="29.94" y="389.42">+</text>
<text x="312.97" y="236.76">+</text>
<text x="91.19" y="85.53">.</text>
<text x="363.72" y="361.05">.</text>
<text x="492.52" y="386.62">*</text>
<text x="90.65" y="231.38">*</text>
<text x="126.79" y="173.11">*</text>
<text x="291.29" y="302.42">+</text>
<text x="80.64" y="165.93">+</text>
<text x="159.24" y="408.78">+</text>
<text x="400.44" y="312.81">+</text>
<text x="306.22" y="3.98">+</text>
<text x="290.94" y="487.39">.</text>
<text x="206.44" y="49.33">.</text>
<text x="127.22" y="210.93">.</text>
<text x="485.60" y="98.27">+</text>
<text x="320.91" y="48.96">+</text>
<text x="54.27" y="32.76">+</text>
<text x="393.46" y="499.90">*</text>
<text x="121.83" y="313.81">*</text>
<text x="158.53" y="165.82">.</text>
<text x="338.12" y="493.09">.</text>
<text x="119.94" y="121.09">+</text>
<text x="267.07" y="112.22">+</text>
<text x="257.74" y="343.59">+</text>
<text x="236.88" y="293.97">.</text>
<text x="24.73" y="99.61">.</text>
<text x="279.24" y="17.63">+</text>
<text x="43.07" y="259.10">+</text>
<text x="221.55" y="232.47">+</text>
<text x="361.72" y="211.39">+</text>
<text x="241.15" y="266.34">+</text>
<text x="327.25" y="463.07">.</text>
<text x="93.33" y="483.49">.</text>
<text x="424.84" y="68.28">*</text>
<text x="63.59" y="478.15">.</text>
<text x="213.58" y="387.71">+</text>
<text x="281.69" y="379.72">.</text>
<text x="165.12" y="189.85">.</text>
<text x="298.58" y="163.20">+</text>
<text x="468.78" y="339.90">.</text>
<text x="395.84" y="457.96">+</text>
<text x="398.65" y="463.36">*</text>
<text x="220.83" y="336.68">.</text>
<text x="217.89" y="232.81">.</text>
<text x="32.31" y="153.83">+</text>
<text x="499.56" y="7.00">+</text>
<text x="473.90" y="146.88">.</text>
<text x="129.73" y="62.68">.</text>
<text x="366.59" y="53.28">+</text>
<text x="151.91" y="83.29">.</text>
<text x="130.41" y="210.64">+</text>
<text x="200.72" y="180.16">+</text>
<text x="379.75" y="323.72">.</text>
<text x="363.45" y="120.43">*</text>
<text x="216.41" y="217.32">+</text>
<text x="211.68" y="112.23">.</text>
<text x="346.03" y="56.47">.</text>
<text x="92.17" y="359.73">+</text>
<text x="477.12" y="245.46">.</text>
<text x="178.37" y="231.11">+</text>
<text x="18.67" y="44.15">.</text>
<text x="398.34" y="42.78">.</text>
<text x="102.06" y="86.04">+</text>
<text x="404.56" y="80.03">.</text>
<text x="98.88" y="450.74">.</text>
<text x="223.09" y="13.02">+</text>
<text x="277.52" y="450.65">.</text>
<text x="23.87" y="210.39">*</text>
<text x="435.32" y="118.60">+</text>
<text x="442.01" y="216.40">.</text>
<text x="65.37" y="28.63">.</text>
<text x="32.56" y="300.11">.</text>
<text x="139.71" y="340.94">+</text>
<text x="87.20" y="59.76">*</text>
<text x="320.91" y="423.52">+</text>
<text x="461.82" y="130.90">.</text>
<text x="139.22" y="385.44">+</text>
<text x="186.37" y="204.30">*</text>
<text x="469.00" y="312.17">.</text>
<text x="342.21" y="185.46">+</text>
<text x="415.19" y="170.91">+</text>
<text x="411.87" y="320.87">.</text>
<text x="297.40" y="7.55">+</text>
<text x="256.41" y="459.23">.</text>
<text x="438.48" y="213.66">.</text>
<text x="324.95" y="402.17">+</text>
<text x="28.66" y="484.63">.</text>
<text x="136.79" y="469.63">.</text>
<text x="382.47" y="220.92">+</text>
<text x="204.18" y="468.70">.</text>
<text x="65.46" y="217.05">+</text>
<text x="386.00" y="191.56">+</text>
<text x="174.14" y="158.00">+</text>
<text x="303.68" y="49.59">+</text>
<text x="262.40" y="237.90">*</text>
<text x="402.92" y="215.63">.</text>
<text x="44.81" y="106.99">+</text>
<text x="10.28" y="2.04">.</text>
<text x="48.68" y="237.08">.</text>
<text x="149.95" y="480.40">.</text>
<text x="41.43" y="287.44">*</text>
<text x="363.38" y="436.05">+</text>
<text x="47.59" y="279.60">+</text>
<text x="289.01" y="422.49">+</text>
<text x="135.53" y="341.29">+</text>
<text x="263.98" y="123.19">+</text>
<text x="347.48" y="487.96">.</text>
<text x="323.93" y="453.08">*</text>
<text x="0.29" y="325.49">.</text>
<text x="9.86" y="409.40">+</text>
<text x="324.82" y="18.57">.</text>
<text x="396.73" y="86.03">.</text>
<text x="235.85" y="195.67">+</text>
<text x="294.12" y="68.92">+</text>
<text x="201.14" y="31.32">+</text>
<text x="208.54" y="6.34">+</text>
<text x="343.47" y="427.49">*</text>
<text x="62.01" y="32.20">.</text>
<text x="161.08" y="461.64">.</text>
<text x="302.17" y="105.70">*</text>
<text x="240.92" y="433.53">+</text>
<text x="120.85" y="124.22">.</text>
<text x="473.33" y="426.60">.</text>
<text x="50.12" y="120.80">+</text>
<text x="75.65" y="16.54">+</text>
<text x="274.15" y="181.83">.</text>
<text x="424.10" y="331.35">.</text>
<text x="160.47" y="321.33">.</text>
<text x="163.43" y="254.01">+</text>
<text x="108.96" y="363.76">+</text>
<text x="249.48" y="237.23">+</text>
<text x="342.89" y="419.52">*</text>

</svg>