
<svg viewBox="0 0 500 500" xmlns="http://www.w.org/2000/svg" width="100%" height="100%" style="background-color: #0a0a14; font-family: 'Courier New', Courier, monospace;">
    <style>
        text { fill: #aaa; font-size: 10px; text-anchor: middle; dominant-baseline: middle; }
    </style>
    <text x="153.96" y="260.18">.</text>
<text x="337.96" y="385.31">+</text>
<text x="404.97" y="357.03">+</text>
<text x="217.79" y="108.60">+</text>
<text x="452.05" y="359.00">.</text>
<text x="430.61" y="166.92">.</text>
<text x="491.38" y="495.64">*</text>
<text x="221.74" y="364.33">+</text>
<text x="61.19" y="415.56">.</text>
<text x="86.59" y="458.63">.</text>
<text x="385.44" y="119.84">.</text>
<text x="300.70" y="121.84">+</text>
<text x="126.69" y="317.77">+</text>
<text x="200.00" y="255.91">+</text>
<text x="209.34" y="78.34">+</text>
<text x="214.86" y="125.55">*</text>
<text x="203.37" y="24.82">+</text>
<text x="393.82" y="279.31">+</text>
<text x="162.95" y="487.03">*</text>
<text x="418.84" y="16.87">.</text>
<text x="453.17" y="100.96">.</text>
<text x="312.74" y="450.41">.</text>
<text x="84.04" y="414.76">*</text>
<text x="124.74" y="157.97">+</text>
<text x="340.78" y="430.81">+</text>
<text x="97.71" y="262.62">.</text>
<text x="363.28" y="56.00">+</text>
<text x="26.99" y="186.53">+</text>
<text x="385.62" y="149.42">.</text>
<text x="217.60" y="393.53">.</text>
<text x="428.36" y="31.79">+</text>
<text x="193.14" y="364.55">.</text>
<text x="12.44" y="320.63">.</text>
<text x="372.86" y="64.97">.</text>
<text x="475.01" y="168.53">.</text>
<text x="43.49" y="360.79">*</text>
<text x="179.68" y="107.56">+</text>
<text x="282.61" y="265.37">.</text>
<text x="464.42" y="33.57">.</text>
<text x="377.90" y="325.20">+</text>
<text x="209.23" y="187.86">.</text>
<text x="176.04" y="197.11">.</text>
<text x="216.17" y="329.60">*</text>
<text x="65.48" y="372.72">*</text>
<text x="91.01" y="57.81">+</text>
<text x="250.04" y="237.08">.</text>
<text x="233.88" y="194.02">.</text>
<text x="22.60" y="130.07">+</text>
<text x="422.58" y="143.75">+</text>
<text x="377.12" y="68.64">+</text>
<text x="308.88" y="170.57">*</text>
<text x="63.30" y="448.04">+</text>
<text x="110.82" y="476.57">+</text>
<text x="360.03" y="72.97">*</text>
<text x="72.17" y="215.17">+</text>
<text x="127.71" y="143.12">+</text>
<text x="241.53" y="207.22">*</text>
<text x="98.98" y="404.37">.</text>
<text x="308.03" y="422.16">.</text>
<text x="19.93" y="134.55">.</text>
<text x="148.23" y="370.64">.</text>
<text x="388.11" y="270.69">.</text>
<text x="90.97" y="491.19">+</text>
<text x="185.42" y="223.65">.</text>
<text x="474.39" y="313.27">.</text>
<text x="450.28" y="115.19">.</text>
<text x="254.96" y="409.45">.</text>
<text x="288.95" y="470.56">.</text>
<text x="28.10" y="469.28">.</text>
<text x="26.20" y="54.94">+</text>
<text x="40.22" y="426.96">+</text>
<text x="38.59" y="149.07">+</text>
<text x="58.62" y="414.12">+</text>
<text x="223.65" y="200.96">*</text>
<text x="250.50" y="123.30">.</text>
<text x="417.39" y="97.06">+</text>
<text x="40.54" y="454.46">.</text>
<text x="265.57" y="331.39">+</text>
<text x="161.00" y="303.50">.</text>
<text x="300.63" y="54.80">.</text>
<text x="356.36" y="234.52">*</text>
<text x="94.11" y="172.10">.</text>
<text x="10.88" y="210.46">*</text>
<text x="273.94" y="493.10">+</text>
<text x="301.51" y="389.35">*</text>
<text x="142.18" y="264.66">+</text>
<text x="449.82" y="419.00">*</text>
<text x="410.79" y="38.15">.</text>
<text x="67.93" y="360.85">*</text>
<text x="14.55" y="446.97">+</text>
<text x="119.16" y="11.06">+</text>
<text x="48.10" y="94.14">+</text>
<text x="59.73" y="400.96">+</text>
<text x="194.27" y="242.71">*</text>
<text x="445.26" y="455.53">+</text>
<text x="201.37" y="202.02">+</text>
<text x="164.67" y="84.34">+</text>
<text x="189.33" y="210.44">+</text>
<text x="285.13" y="426.14">.</text>
<text x="107.45" y="33.40">+</text>
<text x="349.79" y="216.44">.</text>
<text x="459.92" y="318.00">+</text>
<text x="366.74" y="44.30">.</text>
<text x="350.94" y="439.88">+</text>
<text x="151.28" y="166.39">*</text>
<text x="343.06" y="421.50">.</text>
<text x="210.59" y="232.07">.</text>
<text x="115.54" y="199.15">.</text>
<text x="74.55" y="474.72">.</text>
<text x="12.25" y="360.16">.</text>
<text x="111.08" y="478.25">+</text>
<text x="134.17" y="343.97">+</text>
<text x="85.64" y="247.99">+</text>
<text x="270.03" y="439.13">+</text>
<text x="82.42" y="114.09">.</text>
<text x="87.12" y="359.25">*</text>
<text x="20.30" y="424.04">.</text>
<text x="475.06" y="334.01">+</text>
<text x="320.21" y="40.80">.</text>
<text x="34.26" y="361.95">.</text>
<text x="442.73" y="236.07">+</text>
<text x="437.93" y="479.31">+</text>
<text x="306.26" y="348.03">+</text>
<text x="41.09" y="90.02">+</text>
<text x="230.70" y="253.17">+</text>
<text x="201.09" y="47.15">.</text>
<text x="238.84" y="2.25">.</text>
<text x="273.25" y="434.86">.</text>
<text x="411.74" y="61.90">+</text>
<text x="122.89" y="298.32">.</text>
<text x="130.91" y="473.05">+</text>
<text x="71.40" y="377.15">+</text>
<text x="327.81" y="292.22">.</text>
<text x="382.37" y="349.96">.</text>
<text x="119.65" y="59.03">+</text>
<text x="335.13" y="111.48">+</text>
<text x="431.68" y="32.36">.</text>
<text x="308.95" y="390.42">+</text>
<text x="156.95" y="296.68">*</text>
<text x="328.75" y="239.73">+</text>
<text x="148.18" y="225.80">.</text>
<text x="453.08" y="463.35">.</text>
<text x="498.01" y="362.30">.</text>
<text x="351.07" y="56.30">.</text>
<text x="488.52" y="34.44">+</text>
<text x="177.46" y="312.77">+</text>
<text x="96.79" y="43.44">+</text>
<text x="365.49" y="391.12">*</text>
<text x="370.73" y="329.40">+</text>
<text x="481.11" y="438.08">*</text>
<text x="469.38" y="183.84">+</text>
<text x="314.74" y="240.53">.</text>
<text x="379.22" y="98.24">.</text>
<text x="26.56" y="449.48">+</text>
<text x="18.80" y="111.75">+</text>
<text x="400.30" y="61.89">*</text>
<text x="159.18" y="348.94">.</text>
<text x="160.59" y="381.00">+</text>
<text x="479.80" y="77.13">.</text>
<text x="273.69" y="62.91">.</text>
<text x="209.66" y="384.66">+</text>
<text x="138.12" y="424.33">.</text>
<text x="157.72" y="92.48">+</text>
<text x="439.80" y="486.53">.</text>
<text x="411.29" y="208.63">+</text>
<text x="44.85" y="345.60">.</text>
<text x="305.11" y="335.22">*</text>
<text x="32.92" y="200.92">.</text>
<text x="448.76" y="310.55">+</text>
<text x="215.31" y="74.82">.</text>
<text x="76.41" y="90.12">.</text>
<text x="417.32" y="208.65">*</text>
<text x="288.18" y="162.36">+</text>
<text x="162.41" y="464.66">.</text>
<text x="6.52" y="349.63">+</text>
<text x="147.87" y="290.92">+</text>
<text x="421.70" y="419.72">+</text>
<text x="191.86" y="419.75">.</text>
<text x="243.34" y="70.22">*</text>
<text x="381.85" y="290.93">+</text>
<text x="178.98" y="487.62">.</text>
<text x="458.50" y="28.04">.</text>
<text x="231.35" y="381.53">+</text>
<text x="17.36" y="222.74">*</text>
<text x="20.94" y="456.63">.</text>
<text x="285.62" y="464.57">+</text>
<text x="494.52" y="461.72">*</text>
<text x="300.69" y="267.47">+</text>
<text x="319.39" y="209.80">+</text>
<text x="142.77" y="284.99">*</text>
<text x="499.97" y="475.57">.</text>
<text x="457.99" y="142.62">*</text>
<text x="400.02" y="39.35">.</text>
<text x="15.76" y="441.38">*</text>
<text x="489.61" y="42.30">+</text>
<text x="340.48" y="200.64">.</text>
<text x="99.97" y="414.02">+</text>
<text x="95.46" y="97.51">.</text>
<text x="167.44" y="7.35">*</text>
<text x="124.75" y="99.05">+</text>
<text x="140.74" y="438.79">.</text>

</svg>