
<svg viewBox="0 0 500 500" xmlns="http://www.w.org/2000/svg" width="100%" height="100%" style="background-color: #0a0a14; font-family: 'Courier New', Courier, monospace;">
    <style>
        text { fill: #aaa; font-size: 10px; text-anchor: middle; dominant-baseline: middle; }
    </style>
    <text x="263.32" y="487.38">.</text>
<text x="327.72" y="412.81">+</text>
<text x="183.10" y="305.22">.</text>
<text x="244.89" y="298.35">.</text>
<text x="249.08" y="90.21">+</text>
<text x="357.54" y="57.32">.</text>
<text x="274.03" y="280.39">.</text>
<text x="322.17" y="31.16">+</text>
<text x="100.35" y="259.86">*</text>
<text x="55.20" y="168.15">*</text>
<text x="152.35" y="465.43">.</text>
<text x="221.01" y="229.16">+</text>
<text x="103.71" y="78.53">*</text>
<text x="477.66" y="312.44">.</text>
<text x="39.25" y="122.25">.</text>
<text x="85.08" y="254.23">.</text>
<text x="335.02" y="60.60">+</text>
<text x="273.12" y="244.18">.</text>
<text x="262.15" y="461.97">.</text>
<text x="348.89" y="4.07">+</text>
<text x="292.47" y="440.76">+</text>
<text x="179.20" y="433.43">+</text>
<text x="255.25" y="173.79">+</text>
<text x="71.33" y="12.06">+</text>
<text x="127.07" y="56.84">.</text>
<text x="221.45" y="132.74">*</text>
<text x="412.56" y="287.91">.</text>
<text x="242.91" y="101.80">.</text>
<text x="100.01" y="443.81">+</text>
<text x="183.74" y="353.77">.</text>
<text x="483.83" y="241.35">.</text>
<text x="254.16" y="443.62">.</text>
<text x="174.31" y="57.77">+</text>
<text x="424.53" y="277.70">.</text>
<text x="419.72" y="243.08">.</text>
<text x="261.66" y="462.76">.</text>
<text x="9.93" y="80.32">+</text>
<text x="243.97" y="479.38">.</text>
<text x="270.69" y="214.78">.</text>
<text x="405.26" y="306.24">*</text>
<text x="455.17" y="247.20">+</text>
<text x="279.16" y="496.56">+</text>
<text x="374.13" y="73.56">*</text>
<text x="109.14" y="118.98">+</text>
<text x="433.28" y="86.10">+</text>
<text x="204.18" y="436.49">+</text>
<text x="35.97" y="433.95">*</text>
<text x="225.41" y="436.26">.</text>
<text x="398.23" y="426.18">+</text>
<text x="88.51" y="72.75">.</text>
<text x="279.24" y="44.66">+</text>
<text x="346.53" y="465.55">+</text>
<text x="271.09" y="391.28">.</text>
<text x="230.43" y="233.95">+</text>
<text x="277.65" y="93.48">+</text>
<text x="198.60" y="172.02">+</text>
<text x="82.96" y="306.49">+</text>
<text x="442.20" y="324.10">+</text>
<text x="263.29" y="55.57">+</text>
<text x="462.89" y="376.80">.</text>
<text x="273.32" y="112.60">+</text>
<text x="147.82" y="476.91">.</text>
<text x="171.69" y="378.47">.</text>
<text x="484.76" y="103.11">.</text>
<text x="124.29" y="410.26">.</text>
<text x="354.49" y="108.67">.</text>
<text x="83.29" y="290.81">+</text>
<text x="376.75" y="453.66">+</text>
<text x="70.22" y="332.61">+</text>
<text x="493.91" y="103.04">.</text>
<text x="343.87" y="285.71">+</text>
<text x="413.07" y="485.09">+</text>
<text x="349.86" y="235.39">.</text>
<text x="63.44" y="80.85">.</text>
<text x="272.58" y="389.67">.</text>
<text x="66.00" y="279.35">.</text>
<text x="404.76" y="411.28">+</text>
<text x="108.50" y="192.74">*</text>
<text x="310.45" y="172.17">+</text>
<text x="348.03" y="228.24">.</text>
<text x="174.12" y="162.85">+</text>
<text x="423.84" y="426.33">.</text>
<text x="121.10" y="113.36">.</text>
<text x="2.82" y="322.46">+</text>
<text x="154.75" y="335.87">.</text>
<text x="226.39" y="337.02">.</text>
<text x="187.22" y="453.06">+</text>
<text x="291.30" y="281.41">+</text>
<text x="126.60" y="159.11">+</text>
<text x="271.20" y="307.03">*</text>
<text x="467.69" y="396.90">+</text>
<text x="155.12" y="195.28">.</text>
<text x="138.49" y="88.18">+</text>
<text x="159.33" y="173.15">.</text>
<text x="420.83" y="277.92">+</text>
<text x="298.11" y="391.80">*</text>
<text x="326.90" y="291.79">.</text>
<text x="187.39" y="492.05">+</text>
<text x="228.06" y="140.78">+</text>
<text x="6.35" y="113.29">.</text>
<text x="497.14" y="179.31">*</text>
<text x="7.46" y="364.47">.</text>
<text x="248.64" y="148.67">.</text>
<text x="308.80" y="429.92">+</text>
<text x="365.46" y="111.23">.</text>
<text x="152.27" y="433.98">+</text>
<text x="427.28" y="302.38">*</text>
<text x="146.34" y="269.48">+</text>
<text x="182.74" y="158.98">+</text>
<text x="212.46" y="186.86">.</text>
<text x="490.72" y="496.65">.</text>
<text x="73.21" y="35.21">*</text>
<text x="31.27" y="279.45">.</text>
<text x="290.84" y="389.12">.</text>
<text x="165.47" y="217.31">*</text>
<text x="203.30" y="279.67">+</text>
<text x="132.97" y="194.91">+</text>
<text x="278.49" y="459.95">+</text>
<text x="10.33" y="230.62">+</text>
<text x="499.62" y="467.55">+</text>
<text x="126.68" y="38.27">*</text>
<text x="372.27" y="394.03">+</text>
<text x="241.14" y="403.14">*</text>
<text x="455.47" y="154.40">+</text>
<text x="443.08" y="435.84">+</text>
<text x="396.86" y="287.46">+</text>
<text x="13.87" y="408.67">.</text>
<text x="473.74" y="186.13">+</text>
<text x="167.87" y="95.72">+</text>
<text x="291.13" y="262.62">.</text>
<text x="440.82" y="353.87">.</text>
<text x="55.97" y="320.17">+</text>
<text x="370.39" y="315.40">.</text>
<text x="148.44" y="37.67">.</text>
<text x="46.17" y="30.85">+</text>
<text x="348.84" y="404.26">+</text>
<text x="250.03" y="127.56">+</text>
<text x="31.45" y="73.50">.</text>
<text x="277.52" y="59.51">+</text>
<text x="442.36" y="116.11">+</text>
<text x="324.40" y="124.96">.</text>
<text x="426.04" y="390.84">+</text>
<text x="339.57" y="190.01">*</text>
<text x="281.67" y="341.47">+</text>
<text x="137.87" y="85.49">*</text>
<text x="135.24" y="433.99">+</text>
<text x="336.40" y="171.26">+</text>
<text x="69.93" y="164.09">+</text>
<text x="440.27" y="67.52">.</text>
<text x="493.03" y="40.13">+</text>
<text x="321.33" y="465.19">+</text>
<text x="404.84" y="468.74">*</text>
<text x="360.62" y="165.55">.</text>
<text x="246.46" y="158.74">.</text>
<text x="310.52" y="11.83">*</text>
<text x="155.32" y="308.08">+</text>
<text x="284.48" y="5.55">.</text>
<text x="47.20" y="465.66">+</text>
<text x="257.98" y="158.46">+</text>
<text x="80.70" y="75.70">.</text>
<text x="207.28" y="223.59">.</text>
<text x="451.43" y="51.03">+</text>
<text x="183.93" y="428.23">.</text>
<text x="67.46" y="113.28">*</text>
<text x="418.98" y="165.13">+</text>
<text x="254.55" y="132.53">+</text>
<text x="227.06" y="493.35">.</text>
<text x="147.52" y="99.03">*</text>
<text x="398.94" y="401.18">.</text>
<text x="37.32" y="109.99">+</text>
<text x="151.54" y="38.71">+</text>
<text x="163.52" y="430.14">.</text>
<text x="213.42" y="236.02">+</text>
<text x="456.15" y="166.05">*</text>
<text x="293.08" y="427.04">.</text>
<text x="37.15" y="323.06">.</text>
<text x="248.86" y="116.61">+</text>
<text x="173.23" y="21.17">+</text>
<text x="458.42" y="248.85">+</text>
<text x="252.63" y="356.13">.</text>
<text x="104.85" y="432.88">+</text>
<text x="175.19" y="422.69">+</text>
<text x="100.12" y="366.07">.</text>
<text x="304.58" y="474.04">+</text>
<text x="460.09" y="335.80">*</text>
<text x="195.99" y="488.64">.</text>
<text x="446.66" y="134.80">+</text>
<text x="9.35" y="180.44">+</text>
<text x="444.55" y="234.08">*</text>
<text x="199.00" y="279.15">.</text>
<text x="278.59" y="437.64">.</text>
<text x="205.28" y="365.22">.</text>
<text x="173.00" y="116.36">*</text>
<text x="376.81" y="459.85">.</text>
<text x="109.67" y="214.51">.</text>
<text x="415.92" y="420.59">.</text>
<text x="356.23" y="111.97">.</text>
<text x="128.67" y="338.08">*</text>
<text x="430.70" y="194.42">.</text>
<text x="184.89" y="160.75">.</text>
<text x="246.40" y="300.52">+</text>
<text x="363.70" y="27.99">.</text>
<text x="29.19" y="395.64">+</text>
<text x="283.73" y="8.64">.</text>
<text x="393.24" y="87.08">.</text>
<text x="399.80" y="341.60">.</text>
<text x="165.58" y="373.17">.</text>
<text x="497.94" y="194.60">.</text>
<text x="120.67" y="479.87">+</text>
<text x="201.50" y="342.49">.</text>
<text x="315.63" y="338.86">.</text>
<text x="461.26" y="203.76">.</text>
<text x="187.99" y="83.62">*</text>
<text x="217.71" y="166.05">+</text>

</svg>