
<svg viewBox="0 0 500 500" xmlns="http://www.w.org/2000/svg" width="100%" height="100%" style="background-color: #0a0a14; font-family: 'Courier New', Courier, monospace;">
    <style>
        text { fill: #aaa; font-size: 10px; text-anchor: middle; dominant-baseline: middle; }
    </style>
    <text x="313.23" y="453.49">+</text>
<text x="20.02" y="241.98">*</text>
<text x="417.91" y="130.35">*</text>
<text x="303.05" y="228.54">*</text>
<text x="62.20" y="419.72">.</text>
<text x="186.21" y="267.43">+</text>
<text x="401.96" y="355.42">.</text>
<text x="408.93" y="446.53">*</text>
<text x="263.42" y="409.40">+</text>
<text x="33.61" y="496.48">.</text>
<text x="371.05" y="71.44">+</text>
<text x="407.40" y="299.83">.</text>
<text x="206.71" y="123.12">.</text>
<text x="176.37" y="12.93">*</text>
<text x="314.59" y="262.62">.</text>
<text x="14.71" y="123.14">+</text>
<text x="243.71" y="367.28">+</text>
<text x="252.85" y="469.64">.</text>
<text x="47.28" y="242.53">*</text>
<text x="485.51" y="122.61">.</text>
<text x="391.19" y="460.03">.</text>
<text x="53.39" y="420.43">+</text>
<text x="372.32" y="170.91">.</text>
<text x="177.72" y="159.33">+</text>
<text x="254.41" y="486.57">+</text>
<text x="441.01" y="299.25">+</text>
<text x="75.77" y="437.10">+</text>
<text x="219.65" y="482.52">+</text>
<text x="201.83" y="364.10">*</text>
<text x="136.51" y="498.23">+</text>
<text x="14.96" y="336.90">+</text>
<text x="106.23" y="362.18">.</text>
<text x="437.57" y="133.63">+</text>
<text x="427.10" y="285.27">+</text>
<text x="180.71" y="271.30">+</text>
<text x="333.62" y="65.37">*</text>
<text x="219.64" y="109.90">.</text>
<text x="315.96" y="412.06">.</text>
<text x="298.04" y="383.95">+</text>
<text x="317.34" y="446.38">+</text>
<text x="4.06" y="157.51">.</text>
<text x="32.05" y="365.24">*</text>
<text x="386.20" y="392.96">*</text>
<text x="195.74" y="41.92">.</text>
<text x="183.72" y="395.22">+</text>
<text x="160.32" y="4.03">+</text>
<text x="143.77" y="31.20">.</text>
<text x="12.29" y="499.77">.</text>
<text x="372.68" y="378.50">+</text>
<text x="225.01" y="270.48">.</text>
<text x="213.30" y="157.90">+</text>
<text x="442.46" y="436.74">*</text>
<text x="76.16" y="1.66">.</text>
<text x="225.92" y="294.88">*</text>
<text x="485.08" y="178.62">+</text>
<text x="55.72" y="472.28">+</text>
<text x="27.89" y="285.01">.</text>
<text x="246.87" y="327.84">.</text>
<text x="208.46" y="272.97">.</text>
<text x="387.34" y="449.19">*</text>
<text x="307.24" y="197.63">.</text>
<text x="98.31" y="62.20">.</text>
<text x="348.82" y="61.18">+</text>
<text x="391.84" y="215.17">+</text>
<text x="273.84" y="99.41">*</text>
<text x="6.02" y="393.45">.</text>
<text x="308.27" y="30.85">.</text>
<text x="496.35" y="213.47">*</text>
<text x="444.24" y="282.81">.</text>
<text x="256.00" y="442.16">*</text>
<text x="12.00" y="137.74">.</text>
<text x="233.01" y="256.61">+</text>
<text x="5.11" y="258.28">.</text>
<text x="106.31" y="230.97">.</text>
<text x="410.89" y="179.05">+</text>
<text x="136.30" y="85.04">+</text>
<text x="86.73" y="169.59">+</text>
<text x="466.27" y="246.38">.</text>
<text x="469.50" y="336.52">.</text>
<text x="178.12" y="305.19">.</text>
<text x="146.63" y="378.26">*</text>
<text x="349.24" y="48.58">+</text>
<text x="455.99" y="229.16">+</text>
<text x="346.53" y="123.24">+</text>
<text x="50.07" y="4.22">.</text>
<text x="271.64" y="212.08">.</text>
<text x="133.77" y="152.30">+</text>
<text x="379.63" y="50.08">+</text>
<text x="190.86" y="92.73">+</text>
<text x="250.31" y="178.86">+</text>
<text x="53.22" y="60.42">.</text>
<text x="323.40" y="66.64">.</text>
<text x="420.79" y="329.47">.</text>
<text x="412.75" y="345.88">.</text>
<text x="182.38" y="201.47">.</text>
<text x="306.59" y="481.67">*</text>
<text x="490.70" y="299.18">+</text>
<text x="135.88" y="430.56">.</text>
<text x="113.14" y="458.49">*</text>
<text x="96.87" y="181.77">*</text>
<text x="65.65" y="80.03">+</text>
<text x="34.78" y="290.57">*</text>
<text x="145.52" y="218.29">.</text>
<text x="88.82" y="20.91">.</text>
<text x="299.30" y="98.34">*</text>
<text x="156.32" y="233.20">.</text>
<text x="392.48" y="495.77">*</text>
<text x="411.64" y="387.88">.</text>
<text x="28.11" y="79.63">+</text>
<text x="291.44" y="210.26">.</text>
<text x="286.14" y="400.62">.</text>
<text x="285.57" y="229.44">.</text>
<text x="337.15" y="135.71">.</text>
<text x="244.24" y="12.64">+</text>
<text x="462.10" y="212.78">.</text>
<text x="151.82" y="161.87">+</text>
<text x="329.75" y="382.91">.</text>
<text x="196.73" y="368.20">+</text>
<text x="182.62" y="463.71">.</text>
<text x="211.53" y="210.12">+</text>
<text x="485.66" y="168.35">.</text>
<text x="267.20" y="317.29">*</text>
<text x="417.31" y="44.21">+</text>
<text x="417.21" y="484.45">+</text>
<text x="234.28" y="307.92">+</text>
<text x="118.54" y="246.41">+</text>
<text x="233.94" y="282.33">*</text>
<text x="274.93" y="183.28">+</text>
<text x="303.03" y="432.96">+</text>
<text x="335.95" y="437.87">.</text>
<text x="259.17" y="269.71">.</text>
<text x="352.51" y="334.74">.</text>
<text x="344.20" y="251.64">+</text>
<text x="476.32" y="20.40">.</text>
<text x="273.05" y="441.09">+</text>
<text x="431.51" y="125.85">+</text>
<text x="95.42" y="251.15">+</text>
<text x="422.75" y="228.16">.</text>
<text x="68.76" y="371.64">+</text>
<text x="27.35" y="238.74">.</text>
<text x="319.71" y="14.41">+</text>
<text x="241.06" y="230.67">.</text>
<text x="187.16" y="120.25">.</text>
<text x="432.26" y="182.06">+</text>
<text x="17.90" y="38.53">+</text>
<text x="401.54" y="475.66">.</text>
<text x="93.44" y="283.97">+</text>
<text x="290.75" y="133.35">+</text>
<text x="104.62" y="114.31">+</text>
<text x="394.63" y="317.64">.</text>
<text x="303.60" y="250.02">.</text>
<text x="271.48" y="403.96">.</text>
<text x="301.47" y="169.62">.</text>
<text x="282.24" y="167.41">+</text>
<text x="361.81" y="158.80">+</text>
<text x="308.15" y="288.59">.</text>
<text x="278.81" y="90.42">.</text>
<text x="421.87" y="281.14">*</text>
<text x="479.96" y="67.92">+</text>
<text x="468.51" y="325.41">.</text>
<text x="258.02" y="380.81">.</text>
<text x="90.16" y="10.19">.</text>
<text x="186.96" y="360.56">+</text>
<text x="323.70" y="154.26">*</text>
<text x="289.14" y="464.57">.</text>
<text x="27.22" y="340.20">.</text>
<text x="188.64" y="412.78">.</text>
<text x="365.38" y="219.86">*</text>
<text x="54.27" y="132.05">+</text>
<text x="302.29" y="241.51">*</text>
<text x="212.54" y="358.95">.</text>
<text x="475.36" y="365.41">+</text>
<text x="155.14" y="393.91">.</text>
<text x="379.72" y="444.03">+</text>
<text x="172.41" y="275.88">*</text>
<text x="314.44" y="237.25">.</text>
<text x="192.23" y="110.05">.</text>
<text x="230.47" y="185.10">.</text>
<text x="287.49" y="43.00">.</text>
<text x="374.76" y="494.86">*</text>
<text x="216.62" y="213.31">.</text>
<text x="100.25" y="454.78">*</text>
<text x="334.33" y="18.94">+</text>
<text x="359.33" y="80.44">.</text>
<text x="333.42" y="163.74">+</text>
<text x="114.53" y="246.63">+</text>
<text x="194.50" y="100.69">.</text>
<text x="5.49" y="12.61">.</text>
<text x="194.63" y="54.44">+</text>
<text x="181.72" y="136.98">+</text>
<text x="383.73" y="149.37">.</text>
<text x="463.57" y="481.20">.</text>
<text x="164.75" y="16.85">.</text>
<text x="392.28" y="399.34">+</text>
<text x="12.59" y="131.34">.</text>
<text x="207.17" y="469.41">+</text>
<text x="37.44" y="205.69">.</text>
<text x="494.55" y="396.94">.</text>
<text x="234.47" y="175.13">.</text>
<text x="145.14" y="114.79">.</text>
<text x="123.59" y="151.55">+</text>
<text x="110.27" y="187.93">+</text>
<text x="111.87" y="429.02">.</text>
<text x="363.36" y="404.38">.</text>
<text x="227.67" y="110.77">*</text>
<text x="258.35" y="326.88">.</text>
<text x="237.83" y="153.81">*</text>
<text x="396.20" y="198.54">+</text>
<text x="166.61" y="338.54">*</text>
<text x="225.93" y="377.78">+</text>
<text x="461.77" y="395.92">*</text>
<text x="97.62" y="464.43">+</text>
<text x="236.54" y="100.57">.</text>
<text x="460.12" y="339.34">+</text>
<text x="191.64" y="232.11">+</text>
<text x="152.55" y="445.77">*</text>
<text x="121.10" y="277.72">*</text>

</svg>