
<svg viewBox="0 0 500 500" xmlns="http://www.w.org/2000/svg" width="100%" height="100%" style="background-color: #0a0a14; font-family: 'Courier New', Courier, monospace;">
    <style>
        text { fill: #aaa; font-size: 10px; text-anchor: middle; dominant-baseline: middle; }
    </style>
    <text x="194.62" y="168.79">+</text>
<text x="44.75" y="240.35">.</text>
<text x="59.44" y="3.13">*</text>
<text x="475.08" y="303.92">.</text>
<text x="267.48" y="124.47">*</text>
<text x="349.77" y="422.56">.</text>
<text x="61.55" y="282.96">.</text>
<text x="220.47" y="351.61">+</text>
<text x="40.31" y="167.95">+</text>
<text x="175.20" y="73.33">.</text>
<text x="216.81" y="486.29">+</text>
<text x="463.75" y="399.39">+</text>
<text x="329.65" y="281.58">.</text>
<text x="295.02" y="471.79">+</text>
<text x="233.23" y="37.17">+</text>
<text x="263.15" y="299.74">.</text>
<text x="58.15" y="318.49">*</text>
<text x="120.47" y="434.78">*</text>
<text x="43.93" y="459.04">.</text>
<text x="382.09" y="94.72">+</text>
<text x="252.73" y="69.60">+</text>
<text x="490.33" y="347.17">*</text>
<text x="3.01" y="308.32">+</text>
<text x="398.14" y="266.36">+</text>
<text x="77.73" y="18.42">+</text>
<text x="377.83" y="108.04">.</text>
<text x="93.18" y="232.92">.</text>
<text x="355.04" y="72.76">*</text>
<text x="4.60" y="34.05">*</text>
<text x="397.33" y="423.39">+</text>
<text x="20.63" y="194.80">.</text>
<text x="21.41" y="208.58">+</text>
<text x="147.68" y="60.04">+</text>
<text x="498.49" y="147.02">*</text>
<text x="158.93" y="379.01">+</text>
<text x="186.79" y="262.86">+</text>
<text x="208.97" y="36.26">+</text>
<text x="202.92" y="15.43">+</text>
<text x="23.13" y="377.75">+</text>
<text x="34.87" y="170.08">+</text>
<text x="412.92" y="71.68">.</text>
<text x="330.81" y="249.95">+</text>
<text x="88.00" y="161.75">.</text>
<text x="453.03" y="211.15">.</text>
<text x="269.54" y="36.98">+</text>
<text x="407.33" y="342.66">+</text>
<text x="32.59" y="119.04">+</text>
<text x="58.16" y="244.78">+</text>
<text x="156.67" y="249.86">.</text>
<text x="270.51" y="336.92">.</text>
<text x="96.03" y="255.04">+</text>
<text x="128.57" y="471.00">.</text>
<text x="468.76" y="175.68">.</text>
<text x="410.07" y="387.89">.</text>
<text x="335.44" y="65.69">.</text>
<text x="404.69" y="306.25">+</text>
<text x="473.36" y="68.80">.</text>
<text x="364.35" y="99.96">+</text>
<text x="361.13" y="233.74">.</text>
<text x="205.90" y="39.71">*</text>
<text x="165.75" y="305.57">.</text>
<text x="159.58" y="379.13">*</text>
<text x="340.24" y="297.00">.</text>
<text x="432.80" y="127.36">.</text>
<text x="66.49" y="417.76">.</text>
<text x="304.68" y="317.94">*</text>
<text x="113.96" y="398.75">+</text>
<text x="42.91" y="289.19">*</text>
<text x="102.00" y="321.45">.</text>
<text x="238.86" y="338.87">+</text>
<text x="431.43" y="193.91">.</text>
<text x="25.55" y="341.77">+</text>
<text x="195.64" y="400.01">.</text>
<text x="472.68" y="406.30">*</text>
<text x="218.64" y="285.39">.</text>
<text x="20.68" y="77.41">+</text>
<text x="458.10" y="313.95">.</text>
<text x="249.06" y="315.53">+</text>
<text x="61.99" y="135.12">.</text>
<text x="337.08" y="193.81">.</text>
<text x="219.46" y="199.29">+</text>
<text x="359.97" y="157.95">.</text>
<text x="241.71" y="267.85">.</text>
<text x="246.73" y="199.83">.</text>
<text x="63.05" y="19.69">*</text>
<text x="434.67" y="145.03">*</text>
<text x="413.85" y="412.73">.</text>
<text x="223.02" y="290.01">.</text>
<text x="435.07" y="137.61">+</text>
<text x="218.40" y="77.06">+</text>
<text x="338.78" y="489.00">*</text>
<text x="262.17" y="468.36">.</text>
<text x="52.19" y="59.37">.</text>
<text x="361.05" y="393.47">+</text>
<text x="258.28" y="291.92">+</text>
<text x="50.10" y="192.87">+</text>
<text x="24.32" y="448.56">+</text>
<text x="228.37" y="218.99">+</text>
<text x="256.85" y="162.18">+</text>
<text x="81.59" y="60.04">.</text>
<text x="496.71" y="133.83">*</text>
<text x="347.76" y="264.61">.</text>
<text x="421.98" y="220.45">.</text>
<text x="303.12" y="466.09">+</text>
<text x="440.96" y="172.58">+</text>
<text x="364.78" y="275.52">+</text>
<text x="44.35" y="354.93">.</text>
<text x="373.36" y="248.64">+</text>
<text x="276.86" y="56.10">+</text>
<text x="134.31" y="343.95">+</text>
<text x="48.64" y="476.81">+</text>
<text x="411.76" y="232.47">+</text>
<text x="193.64" y="468.03">.</text>
<text x="281.56" y="375.43">.</text>
<text x="168.47" y="296.16">+</text>
<text x="254.88" y="274.14">*</text>
<text x="286.29" y="47.55">.</text>
<text x="451.23" y="385.48">.</text>
<text x="304.90" y="11.48">+</text>
<text x="247.10" y="487.74">*</text>
<text x="235.52" y="113.16">+</text>
<text x="237.84" y="492.24">+</text>
<text x="236.99" y="239.56">.</text>
<text x="39.36" y="36.63">+</text>
<text x="253.43" y="262.28">*</text>
<text x="267.16" y="474.47">.</text>
<text x="468.02" y="112.37">+</text>
<text x="369.76" y="71.01">.</text>
<text x="226.10" y="227.08">+</text>
<text x="243.04" y="270.99">+</text>
<text x="47.12" y="440.11">.</text>
<text x="452.99" y="40.98">+</text>
<text x="412.07" y="135.08">.</text>
<text x="406.44" y="100.67">*</text>
<text x="421.34" y="25.22">+</text>
<text x="397.11" y="297.61">+</text>
<text x="468.19" y="339.70">.</text>
<text x="483.68" y="8.24">.</text>
<text x="452.72" y="391.50">+</text>
<text x="51.10" y="414.13">+</text>
<text x="329.51" y="116.26">+</text>
<text x="342.42" y="347.60">.</text>
<text x="299.28" y="408.16">.</text>
<text x="186.80" y="240.72">.</text>
<text x="286.60" y="444.12">.</text>
<text x="423.30" y="142.23">*</text>
<text x="387.30" y="45.27">.</text>
<text x="260.93" y="466.51">.</text>
<text x="401.70" y="184.01">.</text>
<text x="79.71" y="241.25">.</text>
<text x="24.91" y="26.67">.</text>
<text x="447.24" y="145.88">+</text>
<text x="50.68" y="488.73">.</text>
<text x="398.26" y="193.89">+</text>
<text x="49.18" y="28.54">.</text>
<text x="374.25" y="441.45">.</text>
<text x="483.16" y="461.12">.</text>
<text x="230.62" y="238.70">+</text>
<text x="492.78" y="207.11">.</text>
<text x="255.65" y="35.81">.</text>
<text x="39.81" y="281.79">+</text>
<text x="472.62" y="54.95">*</text>
<text x="196.25" y="359.77">.</text>
<text x="248.14" y="378.38">+</text>
<text x="375.58" y="386.18">.</text>
<text x="408.64" y="299.26">.</text>
<text x="82.87" y="186.20">+</text>
<text x="491.59" y="233.01">+</text>
<text x="68.19" y="275.52">.</text>
<text x="260.07" y="212.18">.</text>
<text x="309.02" y="369.84">.</text>
<text x="32.83" y="25.77">.</text>
<text x="356.92" y="134.65">.</text>
<text x="25.74" y="213.43">.</text>
<text x="421.35" y="57.18">+</text>
<text x="261.96" y="407.78">+</text>
<text x="119.63" y="366.97">*</text>
<text x="71.50" y="465.74">+</text>
<text x="371.09" y="214.08">+</text>
<text x="282.59" y="90.59">+</text>
<text x="416.41" y="209.29">+</text>
<text x="405.15" y="294.56">.</text>
<text x="302.53" y="430.53">.</text>
<text x="59.75" y="325.74">.</text>
<text x="138.58" y="344.74">.</text>
<text x="480.77" y="241.02">+</text>
<text x="442.95" y="416.23">.</text>
<text x="392.55" y="440.82">*</text>
<text x="107.86" y="25.41">+</text>
<text x="465.46" y="431.44">*</text>
<text x="429.75" y="55.66">+</text>
<text x="53.80" y="447.80">*</text>
<text x="417.57" y="208.55">*</text>
<text x="194.51" y="37.86">.</text>
<text x="395.98" y="12.03">*</text>
<text x="96.21" y="106.77">.</text>
<text x="38.05" y="69.10">+</text>
<text x="388.13" y="169.15">.</text>
<text x="170.99" y="234.65">+</text>
<text x="119.02" y="186.76">.</text>
<text x="78.50" y="196.21">+</text>
<text x="243.55" y="495.27">.</text>
<text x="256.97" y="425.94">*</text>
<text x="415.10" y="467.32">+</text>
<text x="64.88" y="190.22">+</text>
<text x="329.06" y="76.58">*</text>
<text x="380.99" y="276.05">+</text>
<text x="413.89" y="144.83">.</text>
<text x="430.69" y="438.33">*</text>
<text x="126.12" y="178.23">+</text>
<text x="133.97" y="90.36">.</text>
<text x="121.37" y="344.52">.</text>
<text x="424.65" y="182.95">.</text>
<text x="478.45" y="319.80">.</text>
<text x="454.64" y="71.45">.</text>
<text x="432.28" y="3.88">.</text>
<text x="209.38" y="177.50">+</text>
<text x="140.07" y="282.44">.</text>
<text x="102.15" y="416.41">+</text>
<text x="77.06" y="292.18">.</text>

</svg>