
<svg viewBox="0 0 500 500" xmlns="http://www.w.org/2000/svg" width="100%" height="100%" style="background-color: #0a0a14; font-family: 'Courier New', Courier, monospace;">
    <style>
        text { fill: #aaa; font-size: 10px; text-anchor: middle; dominant-baseline: middle; }
    </style>
    <text x="265.36" y="127.70">+</text>
<text x="253.68" y="41.74">*</text>
<text x="246.64" y="294.05">+</text>
<text x="288.96" y="118.64">.</text>
<text x="285.90" y="224.62">+</text>
<text x="135.59" y="219.70">.</text>
<text x="498.13" y="260.97">+</text>
<text x="55.10" y="374.47">+</text>
<text x="191.90" y="343.33">.</text>
<text x="335.25" y="288.94">*</text>
<text x="352.15" y="261.03">+</text>
<text x="379.01" y="134.50">+</text>
<text x="355.72" y="44.34">*</text>
<text x="441.32" y="52.14">*</text>
<text x="172.94" y="110.96">*</text>
<text x="270.83" y="199.16">*</text>
<text x="233.15" y="272.89">+</text>
<text x="132.20" y="259.48">+</text>
<text x="208.16" y="441.31">+</text>
<text x="410.85" y="12.89">+</text>
<text x="12.53" y="368.43">+</text>
<text x="77.99" y="271.44">+</text>
<text x="405.08" y="53.48">.</text>
<text x="113.50" y="76.49">.</text>
<text x="340.38" y="161.63">+</text>
<text x="370.61" y="246.04">.</text>
<text x="9.96" y="445.79">.</text>
<text x="264.72" y="17.27">+</text>
<text x="409.33" y="135.64">.</text>
<text x="465.56" y="248.25">+</text>
<text x="24.96" y="11.37">.</text>
<text x="129.57" y="103.44">.</text>
<text x="162.62" y="10.07">+</text>
<text x="466.06" y="212.40">.</text>
<text x="325.74" y="129.55">.</text>
<text x="210.05" y="123.73">+</text>
<text x="77.46" y="59.61">.</text>
<text x="177.01" y="9.75">*</text>
<text x="109.87" y="361.10">+</text>
<text x="306.02" y="356.91">+</text>
<text x="48.90" y="399.37">.</text>
<text x="66.52" y="13.64">.</text>
<text x="86.89" y="100.44">*</text>
<text x="17.56" y="133.03">*</text>
<text x="0.06" y="328.54">.</text>
<text x="134.38" y="429.90">*</text>
<text x="424.48" y="184.11">*</text>
<text x="294.15" y="73.97">.</text>
<text x="327.26" y="301.63">+</text>
<text x="18.37" y="316.96">.</text>
<text x="397.65" y="280.91">+</text>
<text x="335.00" y="218.88">.</text>
<text x="432.35" y="415.55">.</text>
<text x="168.42" y="213.31">+</text>
<text x="174.81" y="8.56">.</text>
<text x="444.44" y="394.94">.</text>
<text x="248.95" y="137.58">.</text>
<text x="352.53" y="392.61">*</text>
<text x="340.68" y="454.51">*</text>
<text x="33.70" y="181.82">+</text>
<text x="99.18" y="296.18">.</text>
<text x="481.63" y="313.16">+</text>
<text x="270.49" y="323.41">+</text>
<text x="446.79" y="2.62">.</text>
<text x="163.09" y="218.09">+</text>
<text x="381.99" y="132.67">+</text>
<text x="352.14" y="450.47">.</text>
<text x="178.65" y="136.45">.</text>
<text x="473.24" y="3.37">*</text>
<text x="53.25" y="393.14">+</text>
<text x="32.53" y="490.68">.</text>
<text x="96.72" y="256.41">+</text>
<text x="84.18" y="486.40">.</text>
<text x="286.13" y="171.51">.</text>
<text x="165.21" y="281.75">.</text>
<text x="470.43" y="64.29">+</text>
<text x="436.97" y="422.63">.</text>
<text x="273.51" y="82.36">.</text>
<text x="0.30" y="152.11">*</text>
<text x="164.56" y="229.19">*</text>
<text x="30.38" y="143.45">+</text>
<text x="475.15" y="35.44">+</text>
<text x="64.35" y="64.35">+</text>
<text x="426.40" y="179.06">.</text>
<text x="53.00" y="30.56">*</text>
<text x="140.62" y="303.42">+</text>
<text x="434.03" y="221.51">+</text>
<text x="432.07" y="3.53">.</text>
<text x="92.39" y="186.36">.</text>
<text x="417.71" y="269.11">.</text>
<text x="18.79" y="51.58">+</text>
<text x="336.51" y="243.48">*</text>
<text x="226.20" y="452.59">+</text>
<text x="443.04" y="452.50">+</text>
<text x="156.36" y="364.81">.</text>
<text x="311.12" y="140.86">.</text>
<text x="254.82" y="178.75">+</text>
<text x="356.24" y="383.15">+</text>
<text x="202.91" y="300.05">+</text>
<text x="341.59" y="36.90">.</text>
<text x="321.44" y="40.08">.</text>
<text x="284.23" y="8.42">+</text>
<text x="31.77" y="46.22">*</text>
<text x="47.15" y="455.89">*</text>
<text x="122.64" y="456.17">.</text>
<text x="330.12" y="162.40">.</text>
<text x="404.66" y="429.11">.</text>
<text x="496.99" y="277.97">.</text>
<text x="410.23" y="346.27">+</text>
<text x="41.08" y="216.63">+</text>
<text x="20.11" y="76.77">.</text>
<text x="14.60" y="337.28">.</text>
<text x="46.61" y="151.30">.</text>
<text x="428.70" y="410.28">.</text>
<text x="253.20" y="51.09">.</text>
<text x="125.29" y="117.26">+</text>
<text x="158.25" y="327.78">.</text>
<text x="439.99" y="38.88">.</text>
<text x="45.59" y="126.35">.</text>
<text x="495.76" y="9.77">+</text>
<text x="86.86" y="425.24">+</text>
<text x="396.34" y="121.11">*</text>
<text x="438.70" y="390.03">.</text>
<text x="325.04" y="289.31">.</text>
<text x="163.04" y="1.03">*</text>
<text x="192.09" y="276.53">+</text>
<text x="404.34" y="172.87">.</text>
<text x="205.78" y="159.15">+</text>
<text x="483.85" y="146.78">.</text>
<text x="472.40" y="329.28">+</text>
<text x="287.90" y="1.35">.</text>
<text x="426.03" y="435.50">*</text>
<text x="328.28" y="338.76">+</text>
<text x="272.03" y="221.31">.</text>
<text x="423.64" y="295.80">*</text>
<text x="92.79" y="317.35">.</text>
<text x="273.27" y="157.63">.</text>
<text x="73.09" y="459.11">+</text>
<text x="139.99" y="388.87">.</text>
<text x="304.96" y="166.64">+</text>
<text x="17.26" y="496.28">.</text>
<text x="400.94" y="490.31">.</text>
<text x="224.66" y="233.59">*</text>
<text x="295.94" y="32.01">+</text>
<text x="415.75" y="41.73">+</text>
<text x="379.58" y="275.43">.</text>
<text x="165.31" y="44.11">+</text>
<text x="163.75" y="81.04">.</text>
<text x="440.43" y="370.25">+</text>
<text x="387.69" y="431.55">*</text>
<text x="4.92" y="200.26">*</text>
<text x="199.11" y="325.38">.</text>
<text x="392.72" y="397.45">+</text>
<text x="90.02" y="3.51">+</text>
<text x="309.28" y="346.40">.</text>
<text x="259.42" y="223.68">+</text>
<text x="22.81" y="340.22">+</text>
<text x="346.21" y="451.00">+</text>
<text x="265.31" y="21.22">.</text>
<text x="105.67" y="19.84">+</text>
<text x="343.77" y="81.29">.</text>
<text x="75.11" y="40.27">*</text>
<text x="437.02" y="498.93">.</text>
<text x="429.40" y="372.61">.</text>
<text x="197.20" y="129.60">.</text>
<text x="393.51" y="138.33">+</text>
<text x="291.29" y="325.83">.</text>
<text x="252.54" y="410.80">+</text>
<text x="293.31" y="169.83">.</text>
<text x="341.04" y="484.53">+</text>
<text x="255.48" y="344.12">.</text>
<text x="122.46" y="297.93">.</text>
<text x="360.83" y="127.28">+</text>
<text x="259.28" y="304.86">+</text>
<text x="66.18" y="439.76">+</text>
<text x="420.56" y="434.35">.</text>
<text x="489.45" y="102.50">.</text>
<text x="268.37" y="282.25">*</text>
<text x="22.85" y="308.79">*</text>
<text x="284.81" y="350.76">+</text>
<text x="20.92" y="466.82">.</text>
<text x="455.18" y="462.56">+</text>
<text x="476.22" y="87.03">+</text>
<text x="478.53" y="247.16">*</text>
<text x="59.06" y="21.03">*</text>
<text x="57.52" y="434.40">+</text>
<text x="451.01" y="470.07">+</text>
<text x="337.85" y="293.25">+</text>
<text x="409.39" y="131.81">+</text>
<text x="327.35" y="487.69">+</text>
<text x="201.00" y="318.38">+</text>
<text x="97.05" y="145.07">.</text>
<text x="250.93" y="160.94">.</text>
<text x="304.51" y="154.55">+</text>
<text x="426.95" y="33.99">*</text>
<text x="175.48" y="128.74">*</text>
<text x="494.04" y="467.08">.</text>
<text x="331.65" y="366.52">*</text>
<text x="56.63" y="224.79">.</text>
<text x="103.42" y="393.17">+</text>
<text x="254.10" y="362.34">+</text>
<text x="300.74" y="222.24">.</text>
<text x="196.65" y="48.87">.</text>
<text x="237.50" y="171.75">.</text>
<text x="386.61" y="124.40">+</text>
<text x="330.04" y="487.31">.</text>
<text x="236.35" y="310.34">+</text>
<text x="252.17" y="33.83">+</text>
<text x="26.26" y="291.49">.</text>
<text x="235.51" y="48.94">*</text>
<text x="121.76" y="26.63">.</text>
<text x="167.38" y="191.69">*</text>
<text x="277.81" y="490.69">+</text>
<text x="213.05" y="338.49">+</text>
<text x="8.12" y="402.09">+</text>
<text x="226.61" y="233.10">.</text>
<text x="75.73" y="256.19">.</text>
<text x="174.28" y="317.01">.</text>
<text x="379.11" y="274.11">+</text>

</svg>