
<svg viewBox="0 0 500 500" xmlns="http://www.w.org/2000/svg" width="100%" height="100%" style="background-color: #0a0a14; font-family: 'Courier New', Courier, monospace;">
    <style>
        text { fill: #aaa; font-size: 10px; text-anchor: middle; dominant-baseline: middle; }
    </style>
    <text x="283.66" y="164.53">*</text>
<text x="133.88" y="203.78">+</text>
<text x="285.08" y="203.08">+</text>
<text x="196.00" y="134.22">.</text>
<text x="415.85" y="244.44">+</text>
<text x="344.54" y="314.52">.</text>
<text x="37.66" y="63.83">+</text>
<text x="135.08" y="395.98">.</text>
<text x="420.75" y="74.95">.</text>
<text x="147.09" y="467.65">.</text>
<text x="79.74" y="303.68">+</text>
<text x="274.31" y="83.54">.</text>
<text x="282.37" y="267.26">.</text>
<text x="456.79" y="367.35">+</text>
<text x="438.44" y="240.88">+</text>
<text x="245.04" y="115.63">.</text>
<text x="53.88" y="345.06">+</text>
<text x="311.81" y="198.95">+</text>
<text x="23.72" y="399.30">.</text>
<text x="240.21" y="30.51">+</text>
<text x="322.53" y="421.72">.</text>
<text x="150.09" y="231.33">.</text>
<text x="376.93" y="262.95">+</text>
<text x="483.92" y="338.68">.</text>
<text x="94.20" y="371.94">+</text>
<text x="362.06" y="150.20">.</text>
<text x="35.02" y="309.66">.</text>
<text x="319.60" y="415.14">+</text>
<text x="140.33" y="418.53">+</text>
<text x="27.80" y="18.19">.</text>
<text x="152.86" y="143.96">*</text>
<text x="379.26" y="81.85">.</text>
<text x="339.55" y="89.95">.</text>
<text x="409.93" y="76.84">+</text>
<text x="485.45" y="19.14">+</text>
<text x="476.75" y="105.53">+</text>
<text x="298.86" y="378.15">+</text>
<text x="176.47" y="356.95">+</text>
<text x="290.29" y="142.62">+</text>
<text x="289.19" y="284.43">.</text>
<text x="291.07" y="385.51">+</text>
<text x="38.53" y="419.17">+</text>
<text x="491.40" y="368.49">.</text>
<text x="81.37" y="118.75">.</text>
<text x="258.35" y="353.88">.</text>
<text x="127.54" y="77.69">.</text>
<text x="219.41" y="105.38">+</text>
<text x="184.85" y="52.45">.</text>
<text x="13.02" y="124.60">+</text>
<text x="29.17" y="227.43">*</text>
<text x="452.37" y="11.24">+</text>
<text x="21.87" y="390.31">+</text>
<text x="316.14" y="42.91">+</text>
<text x="430.84" y="104.46">+</text>
<text x="42.56" y="355.15">+</text>
<text x="370.00" y="70.76">+</text>
<text x="44.66" y="399.30">*</text>
<text x="230.52" y="471.99">+</text>
<text x="116.70" y="332.62">+</text>
<text x="37.97" y="120.68">.</text>
<text x="46.77" y="213.31">+</text>
<text x="55.08" y="202.65">+</text>
<text x="389.59" y="99.44">*</text>
<text x="188.47" y="111.87">.</text>
<text x="308.44" y="174.01">.</text>
<text x="430.84" y="35.08">.</text>
<text x="341.03" y="0.36">.</text>
<text x="291.59" y="26.44">.</text>
<text x="62.66" y="341.59">*</text>
<text x="138.01" y="348.25">.</text>
<text x="383.52" y="106.17">+</text>
<text x="153.26" y="200.06">+</text>
<text x="246.64" y="401.37">.</text>
<text x="238.94" y="263.10">+</text>
<text x="250.32" y="232.06">+</text>
<text x="365.44" y="333.05">.</text>
<text x="14.69" y="11.12">.</text>
<text x="135.20" y="332.80">+</text>
<text x="492.80" y="15.26">.</text>
<text x="441.60" y="89.69">.</text>
<text x="197.39" y="390.74">+</text>
<text x="443.30" y="40.64">+</text>
<text x="354.00" y="42.20">+</text>
<text x="417.36" y="275.50">.</text>
<text x="216.37" y="235.58">+</text>
<text x="75.64" y="265.78">+</text>
<text x="39.19" y="46.70">.</text>
<text x="350.57" y="201.96">.</text>
<text x="234.87" y="291.13">+</text>
<text x="36.33" y="143.55">+</text>
<text x="286.99" y="17.96">.</text>
<text x="220.26" y="19.79">.</text>
<text x="485.66" y="188.25">+</text>
<text x="38.44" y="203.65">.</text>
<text x="174.95" y="368.99">+</text>
<text x="105.83" y="43.44">+</text>
<text x="119.89" y="215.54">.</text>
<text x="318.51" y="487.18">.</text>
<text x="459.43" y="250.85">+</text>
<text x="12.93" y="57.28">.</text>
<text x="417.95" y="106.03">+</text>
<text x="125.67" y="158.01">.</text>
<text x="62.70" y="65.70">.</text>
<text x="109.78" y="471.49">*</text>
<text x="318.61" y="493.94">*</text>
<text x="194.90" y="328.17">.</text>
<text x="218.00" y="296.38">.</text>
<text x="301.18" y="462.03">+</text>
<text x="113.11" y="470.50">*</text>
<text x="112.91" y="31.03">+</text>
<text x="28.03" y="135.04">.</text>
<text x="398.18" y="90.64">+</text>
<text x="247.90" y="416.84">*</text>
<text x="414.73" y="142.83">+</text>
<text x="278.26" y="494.77">+</text>
<text x="436.73" y="395.37">+</text>
<text x="95.46" y="427.06">.</text>
<text x="283.95" y="462.88">*</text>
<text x="166.31" y="222.90">*</text>
<text x="81.01" y="94.38">.</text>
<text x="475.99" y="313.04">*</text>
<text x="130.12" y="481.26">*</text>
<text x="104.12" y="326.71">.</text>
<text x="23.41" y="233.26">+</text>
<text x="16.42" y="35.04">.</text>
<text x="167.31" y="488.16">*</text>
<text x="338.48" y="346.57">+</text>
<text x="144.06" y="265.05">*</text>
<text x="477.92" y="106.56">.</text>
<text x="140.01" y="95.60">+</text>
<text x="421.51" y="425.89">+</text>
<text x="172.43" y="60.67">.</text>
<text x="481.61" y="85.29">.</text>
<text x="472.74" y="124.24">.</text>
<text x="285.34" y="351.95">*</text>
<text x="124.00" y="483.57">+</text>
<text x="289.62" y="459.59">.</text>
<text x="287.27" y="472.37">+</text>
<text x="263.63" y="211.70">.</text>
<text x="394.54" y="157.75">+</text>
<text x="474.74" y="235.99">.</text>
<text x="423.36" y="345.06">.</text>
<text x="192.77" y="70.61">+</text>
<text x="74.27" y="80.67">+</text>
<text x="33.44" y="21.14">.</text>
<text x="58.94" y="56.56">+</text>
<text x="11.25" y="262.00">+</text>
<text x="37.11" y="250.47">*</text>
<text x="60.02" y="67.24">.</text>
<text x="381.96" y="418.78">+</text>
<text x="126.19" y="21.99">+</text>
<text x="59.07" y="214.76">.</text>
<text x="424.92" y="238.16">+</text>
<text x="201.38" y="125.05">+</text>
<text x="344.27" y="215.65">+</text>
<text x="467.52" y="173.63">.</text>
<text x="66.07" y="43.11">+</text>
<text x="311.96" y="351.40">*</text>
<text x="105.34" y="200.72">.</text>
<text x="315.83" y="433.65">.</text>
<text x="49.95" y="286.55">+</text>
<text x="341.66" y="152.75">+</text>
<text x="48.45" y="164.90">.</text>
<text x="109.84" y="284.96">.</text>
<text x="377.09" y="165.24">*</text>
<text x="377.96" y="381.70">.</text>
<text x="9.15" y="228.95">+</text>
<text x="190.15" y="52.55">.</text>
<text x="100.68" y="347.16">.</text>
<text x="248.55" y="95.26">+</text>
<text x="58.01" y="464.03">*</text>
<text x="41.68" y="242.84">.</text>
<text x="349.90" y="321.02">.</text>
<text x="206.97" y="19.82">.</text>
<text x="316.00" y="338.58">.</text>
<text x="163.72" y="376.26">.</text>
<text x="180.57" y="225.21">.</text>
<text x="306.39" y="256.19">+</text>
<text x="150.16" y="485.93">+</text>
<text x="303.83" y="236.05">*</text>
<text x="192.52" y="405.59">+</text>
<text x="373.70" y="36.23">.</text>
<text x="119.56" y="404.66">+</text>
<text x="381.12" y="56.17">+</text>
<text x="480.73" y="454.09">+</text>
<text x="301.05" y="46.64">.</text>
<text x="86.41" y="59.30">+</text>
<text x="68.61" y="205.62">.</text>
<text x="14.88" y="345.41">+</text>
<text x="450.32" y="185.88">+</text>
<text x="57.85" y="98.88">.</text>
<text x="425.78" y="175.42">+</text>
<text x="334.85" y="468.42">.</text>
<text x="360.24" y="125.63">+</text>
<text x="485.10" y="494.94">+</text>
<text x="347.22" y="375.58">+</text>
<text x="276.09" y="124.27">+</text>
<text x="168.62" y="221.84">.</text>
<text x="207.09" y="200.88">.</text>
<text x="204.52" y="139.34">.</text>
<text x="175.06" y="36.43">+</text>
<text x="72.80" y="221.41">.</text>
<text x="485.13" y="358.39">.</text>
<text x="8.38" y="340.12">.</text>
<text x="356.69" y="243.45">+</text>
<text x="75.88" y="51.58">*</text>
<text x="109.82" y="407.83">*</text>
<text x="108.64" y="142.22">.</text>
<text x="410.33" y="136.75">+</text>
<text x="477.48" y="112.75">+</text>
<text x="159.91" y="62.56">+</text>
<text x="129.89" y="190.88">+</text>
<text x="376.90" y="119.11">+</text>
<text x="307.74" y="224.10">.</text>
<text x="168.57" y="454.95">+</text>
<text x="137.71" y="205.76">*</text>
<text x="199.55" y="107.98">+</text>
<text x="58.76" y="29.56">+</text>
<text x="426.96" y="305.19">.</text>
<text x="301.55" y="206.60">+</text>
<text x="217.08" y="260.40">.</text>
<text x="462.15" y="181.58">+</text>

</svg>