
<svg viewBox="0 0 500 500" xmlns="http://www.w.org/2000/svg" width="100%" height="100%" style="background-color: #0a0a14; font-family: 'Courier New', Courier, monospace;">
    <style>
        text { fill: #aaa; font-size: 10px; text-anchor: middle; dominant-baseline: middle; }
    </style>
    <text x="388.81" y="154.85">.</text>
<text x="251.29" y="474.71">*</text>
<text x="248.81" y="350.77">+</text>
<text x="253.11" y="278.11">*</text>
<text x="325.90" y="385.21">*</text>
<text x="61.77" y="453.01">+</text>
<text x="379.42" y="448.73">*</text>
<text x="90.41" y="85.72">*</text>
<text x="26.76" y="248.92">+</text>
<text x="17.92" y="486.36">*</text>
<text x="374.30" y="93.47">+</text>
<text x="433.71" y="374.68">+</text>
<text x="165.61" y="276.29">*</text>
<text x="438.81" y="369.28">+</text>
<text x="34.11" y="211.97">.</text>
<text x="327.56" y="481.81">+</text>
<text x="183.68" y="142.38">.</text>
<text x="7.08" y="158.97">+</text>
<text x="172.92" y="355.71">.</text>
<text x="365.89" y="364.31">.</text>
<text x="161.52" y="178.54">*</text>
<text x="240.46" y="447.49">.</text>
<text x="286.62" y="486.68">.</text>
<text x="266.46" y="495.52">*</text>
<text x="245.54" y="319.07">*</text>
<text x="144.54" y="156.60">.</text>
<text x="298.50" y="464.28">*</text>
<text x="179.72" y="367.15">*</text>
<text x="261.28" y="169.61">.</text>
<text x="369.61" y="472.82">.</text>
<text x="230.48" y="485.30">+</text>
<text x="77.25" y="392.41">.</text>
<text x="444.43" y="160.02">+</text>
<text x="234.64" y="61.67">+</text>
<text x="98.44" y="264.63">+</text>
<text x="28.12" y="55.58">.</text>
<text x="154.25" y="14.73">*</text>
<text x="493.96" y="200.10">.</text>
<text x="212.23" y="6.27">*</text>
<text x="231.56" y="477.30">.</text>
<text x="266.15" y="55.38">.</text>
<text x="45.61" y="55.28">.</text>
<text x="193.43" y="430.67">+</text>
<text x="299.59" y="102.61">.</text>
<text x="455.40" y="470.62">+</text>
<text x="263.03" y="145.54">*</text>
<text x="253.92" y="418.37">+</text>
<text x="377.61" y="175.93">.</text>
<text x="237.66" y="168.96">.</text>
<text x="248.98" y="58.66">+</text>
<text x="215.85" y="362.63">.</text>
<text x="122.19" y="226.47">+</text>
<text x="438.77" y="331.01">.</text>
<text x="162.32" y="489.10">.</text>
<text x="240.03" y="286.25">.</text>
<text x="51.87" y="72.52">+</text>
<text x="423.64" y="364.23">+</text>
<text x="326.15" y="290.27">+</text>
<text x="60.46" y="172.35">.</text>
<text x="105.26" y="253.96">.</text>
<text x="85.35" y="495.45">+</text>
<text x="470.03" y="238.49">.</text>
<text x="495.66" y="498.18">.</text>
<text x="179.92" y="249.84">*</text>
<text x="130.55" y="456.95">+</text>
<text x="201.27" y="385.75">+</text>
<text x="405.42" y="27.78">.</text>
<text x="451.20" y="200.10">+</text>
<text x="445.31" y="403.18">.</text>
<text x="244.48" y="224.99">+</text>
<text x="327.17" y="240.00">.</text>
<text x="233.55" y="277.21">+</text>
<text x="484.50" y="29.73">*</text>
<text x="429.40" y="413.06">.</text>
<text x="328.65" y="185.95">.</text>
<text x="456.97" y="359.21">.</text>
<text x="193.28" y="113.45">*</text>
<text x="287.46" y="379.79">.</text>
<text x="476.05" y="46.96">.</text>
<text x="471.57" y="374.81">+</text>
<text x="289.21" y="137.79">*</text>
<text x="130.82" y="201.02">*</text>
<text x="147.87" y="257.01">*</text>
<text x="469.80" y="242.33">.</text>
<text x="334.58" y="97.24">+</text>
<text x="343.97" y="268.97">.</text>
<text x="99.23" y="66.25">+</text>
<text x="338.77" y="226.53">+</text>
<text x="449.74" y="246.10">*</text>
<text x="434.62" y="402.61">+</text>
<text x="473.51" y="134.37">*</text>
<text x="409.92" y="171.89">.</text>
<text x="439.62" y="133.06">*</text>
<text x="182.59" y="236.54">.</text>
<text x="298.20" y="216.56">.</text>
<text x="187.30" y="175.47">.</text>
<text x="21.96" y="44.46">+</text>
<text x="2.90" y="451.75">+</text>
<text x="226.21" y="387.62">.</text>
<text x="162.33" y="367.80">.</text>
<text x="466.83" y="73.98">+</text>
<text x="418.83" y="475.10">.</text>
<text x="367.70" y="148.59">.</text>
<text x="469.45" y="121.50">.</text>
<text x="137.48" y="310.20">+</text>
<text x="48.17" y="160.17">+</text>
<text x="440.82" y="21.84">+</text>
<text x="358.13" y="107.22">+</text>
<text x="228.40" y="84.99">.</text>
<text x="417.81" y="428.32">.</text>
<text x="48.39" y="156.10">.</text>
<text x="195.36" y="81.72">.</text>
<text x="181.26" y="174.45">+</text>
<text x="360.31" y="305.30">.</text>
<text x="265.75" y="185.93">*</text>
<text x="63.01" y="265.84">+</text>
<text x="381.05" y="175.27">+</text>
<text x="264.76" y="17.79">+</text>
<text x="234.06" y="497.54">.</text>
<text x="237.95" y="286.28">+</text>
<text x="402.95" y="458.70">+</text>
<text x="14.11" y="181.86">.</text>
<text x="419.06" y="464.87">.</text>
<text x="495.41" y="285.31">.</text>
<text x="252.01" y="456.64">+</text>
<text x="320.43" y="158.29">*</text>
<text x="234.40" y="77.50">+</text>
<text x="30.05" y="413.28">.</text>
<text x="422.27" y="384.21">+</text>
<text x="162.19" y="250.36">.</text>
<text x="446.63" y="449.84">+</text>
<text x="170.47" y="185.90">+</text>
<text x="144.70" y="352.44">.</text>
<text x="42.53" y="150.12">+</text>
<text x="75.34" y="345.80">+</text>
<text x="406.03" y="12.41">*</text>
<text x="198.99" y="57.16">.</text>
<text x="139.50" y="491.92">.</text>
<text x="191.37" y="371.93">+</text>
<text x="418.17" y="479.57">*</text>
<text x="256.35" y="152.30">+</text>
<text x="9.27" y="450.26">.</text>
<text x="31.86" y="487.06">+</text>
<text x="284.85" y="354.20">*</text>
<text x="4.05" y="104.67">+</text>
<text x="319.32" y="320.34">.</text>
<text x="258.30" y="352.32">*</text>
<text x="346.30" y="171.71">.</text>
<text x="206.11" y="428.84">.</text>
<text x="61.38" y="350.62">+</text>
<text x="176.10" y="133.39">*</text>
<text x="100.40" y="209.65">+</text>
<text x="221.06" y="431.29">.</text>
<text x="344.99" y="374.55">.</text>
<text x="163.70" y="295.38">+</text>
<text x="316.85" y="457.62">+</text>
<text x="459.66" y="123.12">.</text>
<text x="345.56" y="360.88">.</text>
<text x="459.31" y="71.07">.</text>
<text x="284.22" y="128.40">+</text>
<text x="470.21" y="4.80">.</text>
<text x="91.63" y="372.68">+</text>
<text x="87.05" y="330.56">+</text>
<text x="40.27" y="398.88">+</text>
<text x="229.48" y="216.63">+</text>
<text x="402.68" y="109.39">.</text>
<text x="105.62" y="231.12">.</text>
<text x="211.27" y="477.20">.</text>
<text x="17.01" y="306.09">.</text>
<text x="190.16" y="370.62">.</text>
<text x="348.62" y="51.38">.</text>
<text x="247.68" y="119.37">.</text>
<text x="330.51" y="254.03">*</text>
<text x="245.37" y="323.89">*</text>
<text x="441.73" y="467.46">+</text>
<text x="259.70" y="71.34">+</text>
<text x="55.44" y="182.92">+</text>
<text x="6.83" y="225.09">.</text>
<text x="179.53" y="298.61">+</text>
<text x="438.56" y="332.45">+</text>
<text x="279.91" y="296.05">+</text>
<text x="111.29" y="405.81">+</text>
<text x="380.86" y="47.28">.</text>
<text x="85.53" y="372.21">+</text>
<text x="102.59" y="222.06">.</text>
<text x="341.61" y="138.67">*</text>
<text x="130.43" y="331.39">.</text>
<text x="96.63" y="446.90">*</text>
<text x="71.40" y="466.30">.</text>
<text x="93.79" y="339.31">*</text>
<text x="297.92" y="452.75">+</text>
<text x="423.65" y="70.55">.</text>
<text x="132.72" y="418.79">+</text>
<text x="22.78" y="494.29">.</text>
<text x="174.96" y="117.48">.</text>
<text x="147.06" y="108.61">+</text>
<text x="200.36" y="308.24">.</text>
<text x="279.98" y="377.60">+</text>
<text x="183.25" y="436.12">+</text>
<text x="438.68" y="181.52">.</text>
<text x="388.49" y="248.48">.</text>
<text x="143.49" y="42.43">.</text>
<text x="148.37" y="272.81">+</text>
<text x="160.71" y="306.08">+</text>
<text x="224.58" y="273.20">.</text>
<text x="140.68" y="292.75">*</text>
<text x="37.39" y="386.15">*</text>
<text x="230.85" y="489.62">+</text>
<text x="305.51" y="222.88">.</text>
<text x="460.42" y="89.34">.</text>

</svg>