
<svg viewBox="0 0 500 500" xmlns="http://www.w.org/2000/svg" width="100%" height="100%" style="background-color: #0a0a14; font-family: 'Courier New', Courier, monospace;">
    <style>
        text { fill: #aaa; font-size: 10px; text-anchor: middle; dominant-baseline: middle; }
    </style>
    <text x="198.81" y="374.58">.</text>
<text x="327.16" y="495.23">+</text>
<text x="26.40" y="23.89">*</text>
<text x="59.08" y="206.88">+</text>
<text x="287.96" y="19.13">.</text>
<text x="472.37" y="152.36">*</text>
<text x="455.44" y="437.90">+</text>
<text x="201.97" y="70.43">+</text>
<text x="244.33" y="378.38">+</text>
<text x="147.54" y="166.01">+</text>
<text x="429.71" y="23.50">.</text>
<text x="394.57" y="216.79">.</text>
<text x="491.12" y="445.67">.</text>
<text x="395.89" y="310.58">.</text>
<text x="249.79" y="282.37">.</text>
<text x="120.61" y="194.61">+</text>
<text x="221.47" y="112.17">+</text>
<text x="209.15" y="188.90">.</text>
<text x="205.44" y="37.61">+</text>
<text x="8.14" y="489.00">.</text>
<text x="236.53" y="245.32">*</text>
<text x="314.09" y="63.74">+</text>
<text x="458.90" y="23.49">+</text>
<text x="155.06" y="173.40">*</text>
<text x="227.57" y="449.89">*</text>
<text x="45.67" y="203.23">.</text>
<text x="46.92" y="474.16">.</text>
<text x="461.98" y="325.29">.</text>
<text x="73.10" y="158.02">.</text>
<text x="491.42" y="316.48">+</text>
<text x="263.73" y="372.84">+</text>
<text x="1.95" y="97.23">*</text>
<text x="336.62" y="377.83">+</text>
<text x="184.18" y="495.77">.</text>
<text x="205.49" y="107.93">.</text>
<text x="20.88" y="394.46">+</text>
<text x="58.17" y="309.76">.</text>
<text x="335.62" y="90.08">.</text>
<text x="70.82" y="424.81">.</text>
<text x="177.21" y="38.55">*</text>
<text x="21.94" y="118.27">.</text>
<text x="327.15" y="337.85">.</text>
<text x="392.08" y="369.49">.</text>
<text x="272.60" y="235.09">+</text>
<text x="264.35" y="182.17">.</text>
<text x="272.91" y="499.07">.</text>
<text x="151.16" y="156.71">+</text>
<text x="92.20" y="80.44">.</text>
<text x="221.66" y="468.68">.</text>
<text x="230.77" y="460.83">+</text>
<text x="22.42" y="431.88">.</text>
<text x="139.34" y="148.38">*</text>
<text x="164.15" y="110.43">+</text>
<text x="218.82" y="340.44">+</text>
<text x="1.23" y="130.98">*</text>
<text x="326.92" y="39.98">+</text>
<text x="375.07" y="155.34">.</text>
<text x="41.57" y="457.25">.</text>
<text x="397.08" y="273.77">*</text>
<text x="393.98" y="205.28">.</text>
<text x="33.49" y="214.19">*</text>
<text x="210.36" y="163.05">*</text>
<text x="481.62" y="67.49">+</text>
<text x="102.12" y="311.31">*</text>
<text x="170.39" y="25.18">*</text>
<text x="333.78" y="285.26">.</text>
<text x="249.77" y="8.89">.</text>
<text x="97.51" y="171.62">+</text>
<text x="325.07" y="194.48">+</text>
<text x="245.61" y="450.51">+</text>
<text x="262.49" y="413.77">.</text>
<text x="374.27" y="11.18">+</text>
<text x="419.78" y="147.44">+</text>
<text x="350.71" y="66.69">*</text>
<text x="268.15" y="202.92">*</text>
<text x="448.45" y="415.30">*</text>
<text x="288.53" y="371.39">+</text>
<text x="288.86" y="131.09">+</text>
<text x="132.89" y="96.33">.</text>
<text x="488.06" y="233.29">+</text>
<text x="83.09" y="344.06">.</text>
<text x="282.61" y="263.28">+</text>
<text x="322.12" y="347.28">+</text>
<text x="167.39" y="72.06">*</text>
<text x="336.46" y="474.36">*</text>
<text x="67.83" y="382.25">.</text>
<text x="439.25" y="332.39">.</text>
<text x="72.70" y="148.50">+</text>
<text x="499.67" y="347.69">.</text>
<text x="231.45" y="439.67">*</text>
<text x="319.57" y="414.49">.</text>
<text x="106.72" y="449.42">*</text>
<text x="128.80" y="468.38">+</text>
<text x="143.47" y="10.54">+</text>
<text x="374.93" y="147.19">+</text>
<text x="400.84" y="321.92">.</text>
<text x="304.10" y="482.72">.</text>
<text x="131.00" y="499.42">*</text>
<text x="289.76" y="117.02">+</text>
<text x="64.13" y="370.60">.</text>
<text x="16.89" y="298.09">.</text>
<text x="345.21" y="64.81">+</text>
<text x="169.80" y="252.57">.</text>
<text x="283.97" y="364.72">.</text>
<text x="314.13" y="10.40">.</text>
<text x="285.78" y="41.49">+</text>
<text x="49.57" y="397.11">.</text>
<text x="247.30" y="261.30">+</text>
<text x="180.33" y="246.57">+</text>
<text x="253.92" y="370.53">+</text>
<text x="487.16" y="196.97">*</text>
<text x="245.31" y="314.93">.</text>
<text x="461.19" y="123.30">.</text>
<text x="382.14" y="246.81">+</text>
<text x="146.87" y="285.25">.</text>
<text x="372.87" y="3.59">+</text>
<text x="407.72" y="51.13">+</text>
<text x="318.05" y="10.51">*</text>
<text x="227.25" y="316.14">.</text>
<text x="291.34" y="285.10">.</text>
<text x="168.07" y="159.82">+</text>
<text x="474.31" y="328.42">*</text>
<text x="193.99" y="283.16">+</text>
<text x="253.28" y="374.69">.</text>
<text x="245.46" y="492.53">.</text>
<text x="233.70" y="119.79">+</text>
<text x="151.70" y="209.56">*</text>
<text x="131.78" y="368.52">.</text>
<text x="329.96" y="29.90">*</text>
<text x="490.48" y="349.01">*</text>
<text x="30.52" y="73.48">+</text>
<text x="362.20" y="261.90">*</text>
<text x="119.06" y="409.49">+</text>
<text x="258.94" y="95.21">.</text>
<text x="372.29" y="61.49">.</text>
<text x="49.82" y="234.29">+</text>
<text x="311.30" y="181.46">+</text>
<text x="21.83" y="179.25">*</text>
<text x="445.86" y="114.06">+</text>
<text x="84.84" y="331.73">.</text>
<text x="382.92" y="378.48">+</text>
<text x="7.35" y="76.54">+</text>
<text x="272.88" y="362.54">+</text>
<text x="108.01" y="250.86">+</text>
<text x="146.94" y="145.54">.</text>
<text x="307.49" y="48.92">*</text>
<text x="76.17" y="238.36">*</text>
<text x="152.93" y="436.08">.</text>
<text x="226.44" y="99.12">+</text>
<text x="43.10" y="495.15">.</text>
<text x="411.70" y="278.97">+</text>
<text x="443.87" y="244.26">.</text>
<text x="283.25" y="270.58">*</text>
<text x="296.73" y="159.12">*</text>
<text x="466.52" y="388.48">+</text>
<text x="379.27" y="177.60">+</text>
<text x="112.19" y="306.11">.</text>
<text x="344.46" y="212.05">*</text>
<text x="80.65" y="437.48">+</text>
<text x="295.71" y="275.83">.</text>
<text x="302.89" y="10.59">+</text>
<text x="33.94" y="468.37">.</text>
<text x="2.19" y="427.27">+</text>
<text x="332.72" y="455.24">+</text>
<text x="208.46" y="385.56">.</text>
<text x="139.77" y="19.19">+</text>
<text x="311.77" y="159.52">+</text>
<text x="106.45" y="178.97">+</text>
<text x="9.55" y="179.89">.</text>
<text x="414.32" y="119.38">.</text>
<text x="90.75" y="156.09">+</text>
<text x="80.99" y="479.46">+</text>
<text x="451.35" y="340.45">.</text>
<text x="116.42" y="330.55">.</text>
<text x="16.26" y="455.63">+</text>
<text x="164.22" y="18.50">+</text>
<text x="200.23" y="470.50">+</text>
<text x="459.25" y="17.95">+</text>
<text x="373.13" y="308.81">.</text>
<text x="363.75" y="265.27">+</text>
<text x="280.50" y="335.12">*</text>
<text x="316.94" y="19.56">+</text>
<text x="234.83" y="132.98">.</text>
<text x="234.13" y="366.83">*</text>
<text x="359.15" y="42.26">+</text>
<text x="119.16" y="137.10">+</text>
<text x="427.95" y="14.50">+</text>
<text x="239.89" y="385.67">+</text>
<text x="146.30" y="481.35">.</text>
<text x="110.91" y="420.60">*</text>
<text x="277.68" y="318.72">.</text>
<text x="420.02" y="159.97">*</text>
<text x="370.21" y="459.32">+</text>
<text x="203.60" y="482.87">+</text>
<text x="45.10" y="81.15">+</text>
<text x="131.08" y="311.39">+</text>
<text x="276.20" y="294.93">+</text>
<text x="316.56" y="469.06">+</text>
<text x="206.05" y="162.81">.</text>
<text x="308.09" y="56.22">*</text>
<text x="153.44" y="450.90">.</text>
<text x="68.22" y="182.84">*</text>
<text x="372.33" y="113.23">+</text>
<text x="482.47" y="308.95">+</text>
<text x="435.56" y="114.28">.</text>
<text x="125.62" y="493.38">*</text>
<text x="481.84" y="90.37">.</text>
<text x="101.87" y="309.09">+</text>
<text x="223.30" y="329.37">.</text>
<text x="406.37" y="465.75">.</text>
<text x="49.44" y="143.30">+</text>
<text x="313.95" y="110.66">+</text>
<text x="223.39" y="399.10">.</text>
<text x="427.01" y="152.18">+</text>
<text x="357.69" y="491.16">.</text>
<text x="448.51" y="198.26">.</text>
<text x="338.68" y="463.14">.</text>
<text x="150.95" y="325.27">*</text>
<text x="410.54" y="104.96">+</text>
<text x="118.39" y="77.04">*</text>

</svg>