
<svg viewBox="0 0 500 500" xmlns="http://www.w.org/2000/svg" width="100%" height="100%" style="background-color: #0a0a14; font-family: 'Courier New', Courier, monospace;">
    <style>
        text { fill: #aaa; font-size: 10px; text-anchor: middle; dominant-baseline: middle; }
    </style>
    <text x="310.73" y="154.94">.</text>
<text x="149.92" y="332.64">+</text>
<text x="104.24" y="155.34">+</text>
<text x="306.40" y="33.60">*</text>
<text x="426.45" y="220.85">.</text>
<text x="195.82" y="198.87">+</text>
<text x="304.33" y="172.96">.</text>
<text x="175.73" y="157.68">*</text>
<text x="81.50" y="323.28">+</text>
<text x="473.85" y="143.67">+</text>
<text x="475.36" y="128.23">+</text>
<text x="77.29" y="161.42">.</text>
<text x="20.89" y="101.70">.</text>
<text x="480.72" y="66.35">.</text>
<text x="18.69" y="90.11">.</text>
<text x="428.06" y="346.57">.</text>
<text x="47.78" y="129.17">*</text>
<text x="188.22" y="82.49">*</text>
<text x="159.51" y="499.39">.</text>
<text x="384.44" y="244.84">+</text>
<text x="149.51" y="396.00">+</text>
<text x="417.27" y="212.52">+</text>
<text x="156.09" y="86.08">.</text>
<text x="180.12" y="139.64">.</text>
<text x="37.38" y="235.63">.</text>
<text x="212.16" y="106.84">+</text>
<text x="78.88" y="391.00">+</text>
<text x="145.66" y="61.65">*</text>
<text x="111.67" y="434.05">+</text>
<text x="320.75" y="250.48">.</text>
<text x="255.94" y="158.07">.</text>
<text x="95.01" y="2.68">*</text>
<text x="42.44" y="380.76">+</text>
<text x="442.13" y="29.25">.</text>
<text x="7.92" y="274.79">+</text>
<text x="254.88" y="374.43">.</text>
<text x="31.26" y="452.46">+</text>
<text x="286.62" y="470.63">*</text>
<text x="250.24" y="343.97">+</text>
<text x="491.07" y="295.95">.</text>
<text x="66.62" y="402.59">+</text>
<text x="82.37" y="375.08">+</text>
<text x="338.43" y="283.06">.</text>
<text x="217.48" y="332.16">+</text>
<text x="153.89" y="355.78">*</text>
<text x="252.68" y="260.17">.</text>
<text x="305.39" y="261.90">*</text>
<text x="156.17" y="270.31">+</text>
<text x="403.18" y="163.61">+</text>
<text x="124.99" y="462.92">+</text>
<text x="45.17" y="455.48">+</text>
<text x="441.20" y="359.51">+</text>
<text x="493.03" y="12.98">*</text>
<text x="105.15" y="156.33">*</text>
<text x="252.02" y="308.50">+</text>
<text x="434.03" y="280.02">+</text>
<text x="253.71" y="330.62">+</text>
<text x="196.05" y="2.42">+</text>
<text x="202.02" y="41.52">+</text>
<text x="340.06" y="405.93">.</text>
<text x="121.75" y="69.39">*</text>
<text x="8.86" y="317.45">.</text>
<text x="363.58" y="78.75">.</text>
<text x="390.83" y="78.98">.</text>
<text x="77.22" y="164.57">.</text>
<text x="179.30" y="121.70">+</text>
<text x="238.74" y="471.31">.</text>
<text x="310.83" y="381.85">+</text>
<text x="110.72" y="190.68">+</text>
<text x="138.17" y="435.78">+</text>
<text x="48.05" y="338.33">.</text>
<text x="25.11" y="143.20">+</text>
<text x="476.61" y="194.68">+</text>
<text x="73.74" y="257.89">.</text>
<text x="248.14" y="178.22">.</text>
<text x="233.09" y="27.62">+</text>
<text x="353.73" y="407.04">.</text>
<text x="288.64" y="314.96">.</text>
<text x="298.96" y="102.44">.</text>
<text x="363.11" y="6.56">.</text>
<text x="158.22" y="343.53">.</text>
<text x="115.50" y="127.11">+</text>
<text x="331.20" y="146.15">.</text>
<text x="280.63" y="210.90">.</text>
<text x="257.78" y="341.84">+</text>
<text x="116.28" y="30.60">.</text>
<text x="353.27" y="145.29">+</text>
<text x="322.75" y="242.46">*</text>
<text x="407.80" y="205.00">*</text>
<text x="222.81" y="255.48">*</text>
<text x="45.50" y="118.69">+</text>
<text x="126.14" y="396.99">.</text>
<text x="442.19" y="182.47">*</text>
<text x="362.99" y="37.12">+</text>
<text x="139.91" y="224.87">.</text>
<text x="154.73" y="191.84">+</text>
<text x="315.13" y="368.61">+</text>
<text x="454.80" y="272.42">.</text>
<text x="261.89" y="349.96">+</text>
<text x="67.59" y="14.63">*</text>
<text x="82.15" y="50.37">+</text>
<text x="233.28" y="318.29">+</text>
<text x="497.46" y="168.59">*</text>
<text x="259.61" y="327.56">.</text>
<text x="11.54" y="375.88">+</text>
<text x="101.36" y="373.55">+</text>
<text x="35.25" y="166.07">+</text>
<text x="389.41" y="66.36">.</text>
<text x="318.30" y="266.66">*</text>
<text x="345.63" y="398.76">.</text>
<text x="298.23" y="427.01">.</text>
<text x="215.57" y="162.91">.</text>
<text x="351.89" y="388.24">+</text>
<text x="158.70" y="399.90">.</text>
<text x="175.85" y="91.77">.</text>
<text x="343.68" y="402.67">+</text>
<text x="372.16" y="330.90">*</text>
<text x="139.84" y="300.97">.</text>
<text x="280.83" y="189.68">+</text>
<text x="222.13" y="424.40">.</text>
<text x="63.03" y="266.43">*</text>
<text x="120.31" y="328.86">.</text>
<text x="147.71" y="494.04">+</text>
<text x="168.38" y="160.65">.</text>
<text x="29.21" y="409.88">.</text>
<text x="332.91" y="65.98">+</text>
<text x="298.28" y="446.29">.</text>
<text x="98.65" y="93.34">+</text>
<text x="465.08" y="223.05">+</text>
<text x="75.09" y="423.51">.</text>
<text x="30.78" y="399.40">+</text>
<text x="429.00" y="230.36">.</text>
<text x="249.76" y="257.92">*</text>
<text x="233.02" y="354.78">.</text>
<text x="328.32" y="28.65">.</text>
<text x="250.98" y="127.29">*</text>
<text x="230.99" y="185.74">+</text>
<text x="219.26" y="438.34">.</text>
<text x="115.31" y="288.31">.</text>
<text x="370.89" y="351.39">+</text>
<text x="100.05" y="367.69">.</text>
<text x="272.32" y="175.01">*</text>
<text x="351.02" y="401.35">.</text>
<text x="45.47" y="47.42">*</text>
<text x="153.07" y="21.89">+</text>
<text x="251.65" y="449.18">.</text>
<text x="455.04" y="336.81">.</text>
<text x="128.12" y="333.08">+</text>
<text x="254.22" y="319.34">+</text>
<text x="466.90" y="392.40">.</text>
<text x="246.30" y="122.28">.</text>
<text x="291.38" y="404.20">.</text>
<text x="482.77" y="298.47">.</text>
<text x="2.59" y="207.98">.</text>
<text x="339.53" y="375.02">*</text>
<text x="493.33" y="464.37">*</text>
<text x="348.52" y="481.74">*</text>
<text x="236.68" y="323.44">.</text>
<text x="303.51" y="145.71">+</text>
<text x="129.32" y="211.12">.</text>
<text x="164.24" y="432.83">+</text>
<text x="362.92" y="433.36">+</text>
<text x="255.65" y="242.39">*</text>
<text x="268.94" y="170.47">.</text>
<text x="257.14" y="16.04">+</text>
<text x="450.52" y="293.77">*</text>
<text x="342.60" y="446.04">.</text>
<text x="268.23" y="493.21">+</text>
<text x="375.68" y="75.24">.</text>
<text x="77.30" y="107.01">+</text>
<text x="259.28" y="224.22">.</text>
<text x="464.96" y="405.34">+</text>
<text x="41.59" y="224.12">+</text>
<text x="286.04" y="186.49">+</text>
<text x="443.35" y="105.61">+</text>
<text x="434.00" y="364.24">+</text>
<text x="363.06" y="201.45">.</text>
<text x="99.77" y="108.50">+</text>
<text x="415.94" y="230.67">+</text>
<text x="449.98" y="187.61">.</text>
<text x="412.59" y="298.81">+</text>
<text x="414.05" y="181.12">+</text>
<text x="474.99" y="431.31">.</text>
<text x="80.79" y="190.80">+</text>
<text x="468.32" y="64.49">.</text>
<text x="434.35" y="463.50">+</text>
<text x="179.71" y="69.50">.</text>
<text x="313.40" y="126.81">.</text>
<text x="145.42" y="337.92">.</text>
<text x="285.86" y="6.11">+</text>
<text x="480.92" y="238.21">+</text>
<text x="106.05" y="199.33">+</text>
<text x="319.44" y="95.54">+</text>
<text x="253.24" y="485.89">.</text>
<text x="41.80" y="387.49">.</text>
<text x="3.32" y="473.43">.</text>
<text x="410.59" y="193.67">+</text>
<text x="322.79" y="294.35">*</text>
<text x="462.61" y="417.73">+</text>
<text x="211.62" y="223.92">+</text>
<text x="143.04" y="83.62">.</text>
<text x="477.49" y="334.86">.</text>
<text x="93.84" y="14.74">+</text>
<text x="66.53" y="63.49">.</text>
<text x="29.54" y="221.70">.</text>
<text x="144.85" y="167.37">+</text>
<text x="205.62" y="212.56">*</text>
<text x="66.54" y="25.42">*</text>
<text x="350.93" y="488.32">.</text>
<text x="285.92" y="173.28">.</text>
<text x="93.56" y="132.35">+</text>
<text x="219.26" y="208.17">+</text>

</svg>