
<svg viewBox="0 0 500 500" xmlns="http://www.w.org/2000/svg" width="100%" height="100%" style="background-color: #0a0a14; font-family: 'Courier New', Courier, monospace;">
    <style>
        text { fill: #aaa; font-size: 10px; text-anchor: middle; dominant-baseline: middle; }
    </style>
    <text x="169.41" y="473.73">*</text>
<text x="143.41" y="128.29">*</text>
<text x="362.13" y="68.23">+</text>
<text x="466.06" y="289.77">.</text>
<text x="418.45" y="182.19">*</text>
<text x="409.39" y="315.20">.</text>
<text x="168.56" y="62.16">+</text>
<text x="421.31" y="456.87">+</text>
<text x="324.07" y="444.05">.</text>
<text x="140.11" y="326.45">.</text>
<text x="97.55" y="192.83">*</text>
<text x="404.77" y="368.69">*</text>
<text x="44.51" y="317.87">+</text>
<text x="236.82" y="277.45">*</text>
<text x="422.18" y="384.15">.</text>
<text x="209.81" y="13.72">.</text>
<text x="193.84" y="372.53">+</text>
<text x="180.29" y="128.84">.</text>
<text x="160.26" y="118.00">+</text>
<text x="497.72" y="46.13">.</text>
<text x="93.69" y="289.01">*</text>
<text x="469.17" y="133.17">.</text>
<text x="23.51" y="80.38">.</text>
<text x="265.25" y="101.39">*</text>
<text x="410.92" y="351.87">*</text>
<text x="201.09" y="154.58">+</text>
<text x="376.33" y="354.44">+</text>
<text x="167.29" y="379.20">*</text>
<text x="52.92" y="11.84">.</text>
<text x="168.31" y="331.01">+</text>
<text x="335.79" y="423.34">.</text>
<text x="274.16" y="92.10">*</text>
<text x="170.61" y="294.81">*</text>
<text x="210.22" y="161.02">+</text>
<text x="495.50" y="90.07">*</text>
<text x="128.40" y="437.32">*</text>
<text x="97.68" y="248.26">+</text>
<text x="453.12" y="415.76">+</text>
<text x="48.02" y="301.57">+</text>
<text x="159.85" y="39.05">.</text>
<text x="184.48" y="326.56">.</text>
<text x="39.46" y="293.22">.</text>
<text x="189.29" y="324.12">.</text>
<text x="119.62" y="160.79">.</text>
<text x="168.01" y="58.11">+</text>
<text x="348.96" y="388.23">+</text>
<text x="309.21" y="193.64">.</text>
<text x="113.02" y="158.15">*</text>
<text x="55.59" y="351.27">.</text>
<text x="118.11" y="231.43">*</text>
<text x="305.94" y="49.21">.</text>
<text x="202.27" y="299.98">.</text>
<text x="195.07" y="83.15">.</text>
<text x="412.15" y="383.84">*</text>
<text x="186.63" y="142.21">.</text>
<text x="412.96" y="37.77">.</text>
<text x="310.79" y="326.85">.</text>
<text x="461.17" y="31.32">+</text>
<text x="416.68" y="78.22">+</text>
<text x="111.02" y="368.71">*</text>
<text x="202.80" y="215.21">*</text>
<text x="218.81" y="198.62">+</text>
<text x="16.52" y="312.01">+</text>
<text x="135.95" y="396.46">*</text>
<text x="251.18" y="242.11">+</text>
<text x="414.25" y="487.53">.</text>
<text x="114.37" y="488.13">*</text>
<text x="483.64" y="484.81">.</text>
<text x="128.75" y="153.55">+</text>
<text x="303.13" y="497.58">+</text>
<text x="67.27" y="21.60">+</text>
<text x="266.45" y="75.74">.</text>
<text x="28.77" y="134.41">+</text>
<text x="329.63" y="331.56">+</text>
<text x="71.12" y="230.18">.</text>
<text x="180.08" y="400.09">+</text>
<text x="226.84" y="452.89">+</text>
<text x="372.16" y="176.18">*</text>
<text x="229.38" y="14.55">+</text>
<text x="161.54" y="275.94">+</text>
<text x="205.83" y="331.39">+</text>
<text x="77.14" y="229.41">+</text>
<text x="227.08" y="131.34">.</text>
<text x="61.38" y="61.07">+</text>
<text x="8.34" y="451.77">+</text>
<text x="307.25" y="433.59">.</text>
<text x="70.83" y="201.91">.</text>
<text x="203.36" y="291.31">+</text>
<text x="239.39" y="172.69">+</text>
<text x="120.50" y="263.04">+</text>
<text x="439.04" y="169.64">.</text>
<text x="328.42" y="232.40">+</text>
<text x="432.22" y="171.07">.</text>
<text x="57.50" y="454.88">+</text>
<text x="168.29" y="258.70">+</text>
<text x="422.83" y="206.54">+</text>
<text x="413.62" y="303.53">+</text>
<text x="144.25" y="389.30">.</text>
<text x="430.23" y="70.29">*</text>
<text x="275.20" y="169.33">.</text>
<text x="177.59" y="207.99">+</text>
<text x="316.72" y="460.46">*</text>
<text x="425.36" y="122.23">.</text>
<text x="136.45" y="427.58">+</text>
<text x="262.94" y="490.33">+</text>
<text x="451.21" y="62.11">*</text>
<text x="449.32" y="156.49">+</text>
<text x="123.14" y="259.87">+</text>
<text x="242.78" y="297.79">+</text>
<text x="188.43" y="440.05">+</text>
<text x="116.75" y="105.73">+</text>
<text x="325.89" y="6.30">*</text>
<text x="221.94" y="217.72">.</text>
<text x="57.86" y="400.37">+</text>
<text x="224.35" y="122.72">+</text>
<text x="198.30" y="16.03">+</text>
<text x="10.77" y="53.42">.</text>
<text x="314.15" y="27.40">+</text>
<text x="340.85" y="485.34">+</text>
<text x="469.77" y="480.82">+</text>
<text x="55.13" y="440.17">+</text>
<text x="208.85" y="301.71">+</text>
<text x="251.68" y="166.39">.</text>
<text x="5.29" y="442.38">+</text>
<text x="484.86" y="153.06">+</text>
<text x="484.16" y="446.53">+</text>
<text x="497.37" y="163.61">*</text>
<text x="73.76" y="50.37">+</text>
<text x="168.83" y="22.89">.</text>
<text x="169.43" y="388.97">.</text>
<text x="76.93" y="299.63">.</text>
<text x="457.18" y="61.15">+</text>
<text x="338.81" y="11.28">*</text>
<text x="356.99" y="321.30">.</text>
<text x="479.74" y="192.17">+</text>
<text x="268.67" y="499.20">.</text>
<text x="325.66" y="324.16">*</text>
<text x="122.95" y="12.69">.</text>
<text x="267.45" y="68.12">.</text>
<text x="119.43" y="226.54">.</text>
<text x="423.93" y="339.50">+</text>
<text x="469.64" y="321.27">*</text>
<text x="152.98" y="356.07">+</text>
<text x="341.89" y="367.58">*</text>
<text x="315.09" y="173.57">*</text>
<text x="190.78" y="38.29">+</text>
<text x="43.33" y="75.02">.</text>
<text x="352.72" y="274.40">+</text>
<text x="189.34" y="344.30">.</text>
<text x="243.98" y="49.33">.</text>
<text x="221.55" y="361.37">+</text>
<text x="168.94" y="413.97">+</text>
<text x="217.06" y="187.35">.</text>
<text x="468.43" y="190.85">.</text>
<text x="119.73" y="261.76">.</text>
<text x="282.69" y="228.92">+</text>
<text x="188.22" y="424.32">+</text>
<text x="123.25" y="245.91">+</text>
<text x="412.09" y="11.19">.</text>
<text x="147.62" y="188.47">+</text>
<text x="305.94" y="476.15">*</text>
<text x="461.15" y="234.00">.</text>
<text x="438.47" y="75.16">.</text>
<text x="48.05" y="96.84">*</text>
<text x="69.80" y="99.10">+</text>
<text x="314.92" y="396.51">.</text>
<text x="137.93" y="166.51">.</text>
<text x="165.05" y="378.56">.</text>
<text x="211.44" y="300.96">+</text>
<text x="375.23" y="360.16">+</text>
<text x="331.58" y="51.13">+</text>
<text x="462.69" y="241.77">.</text>
<text x="467.59" y="76.69">.</text>
<text x="443.04" y="373.10">*</text>
<text x="288.49" y="72.49">+</text>
<text x="54.25" y="257.87">.</text>
<text x="95.01" y="201.95">.</text>
<text x="434.72" y="340.32">+</text>
<text x="396.82" y="252.22">.</text>
<text x="421.97" y="283.53">*</text>
<text x="447.66" y="56.29">.</text>
<text x="462.24" y="89.89">+</text>
<text x="345.75" y="222.86">+</text>
<text x="471.16" y="330.09">+</text>
<text x="486.66" y="117.88">.</text>
<text x="347.46" y="328.10">.</text>
<text x="218.83" y="146.77">+</text>
<text x="197.61" y="18.06">.</text>
<text x="134.54" y="132.26">.</text>
<text x="131.45" y="491.89">.</text>
<text x="108.37" y="279.56">+</text>
<text x="107.49" y="39.05">.</text>
<text x="133.44" y="4.39">.</text>
<text x="152.43" y="333.41">+</text>
<text x="482.78" y="164.58">.</text>
<text x="144.30" y="352.90">+</text>
<text x="447.05" y="313.84">+</text>
<text x="202.18" y="94.45">.</text>
<text x="205.28" y="107.78">+</text>
<text x="289.73" y="480.20">+</text>
<text x="192.01" y="112.17">*</text>
<text x="409.99" y="177.65">.</text>
<text x="271.83" y="355.36">+</text>
<text x="404.07" y="353.08">+</text>
<text x="63.31" y="84.93">+</text>
<text x="253.70" y="98.90">+</text>
<text x="96.16" y="211.26">.</text>
<text x="437.12" y="70.42">.</text>
<text x="469.40" y="323.77">+</text>
<text x="457.99" y="342.44">*</text>
<text x="300.27" y="490.35">.</text>
<text x="207.98" y="477.42">+</text>
<text x="174.55" y="388.76">*</text>
<text x="491.41" y="274.06">*</text>
<text x="187.46" y="272.55">+</text>
<text x="343.92" y="423.99">.</text>
<text x="120.79" y="30.32">.</text>
<text x="110.92" y="463.37">.</text>
<text x="403.43" y="332.08">.</text>
<text x="206.44" y="310.78">+</text>

</svg>