
<svg viewBox="0 0 500 500" xmlns="http://www.w.org/2000/svg" width="100%" height="100%" style="background-color: #0a0a14; font-family: 'Courier New', Courier, monospace;">
    <style>
        text { fill: #aaa; font-size: 10px; text-anchor: middle; dominant-baseline: middle; }
    </style>
    <text x="485.89" y="69.30">+</text>
<text x="151.26" y="333.73">+</text>
<text x="140.70" y="122.69">+</text>
<text x="313.54" y="335.56">.</text>
<text x="117.31" y="497.22">.</text>
<text x="482.67" y="476.47">+</text>
<text x="222.18" y="98.68">.</text>
<text x="255.58" y="135.91">.</text>
<text x="390.64" y="304.17">+</text>
<text x="298.53" y="265.27">+</text>
<text x="459.37" y="180.93">.</text>
<text x="157.55" y="326.17">.</text>
<text x="41.05" y="386.71">*</text>
<text x="213.64" y="429.79">+</text>
<text x="132.16" y="226.33">+</text>
<text x="485.66" y="387.09">*</text>
<text x="258.42" y="358.78">+</text>
<text x="314.70" y="216.72">+</text>
<text x="255.49" y="318.32">.</text>
<text x="172.58" y="424.00">+</text>
<text x="20.02" y="150.09">+</text>
<text x="432.85" y="20.25">*</text>
<text x="11.53" y="155.16">.</text>
<text x="243.98" y="301.61">.</text>
<text x="497.08" y="34.34">+</text>
<text x="41.10" y="172.10">.</text>
<text x="249.84" y="321.41">+</text>
<text x="364.84" y="287.43">+</text>
<text x="117.20" y="92.78">+</text>
<text x="259.66" y="345.28">+</text>
<text x="319.34" y="240.87">+</text>
<text x="474.04" y="132.58">.</text>
<text x="170.34" y="242.69">+</text>
<text x="310.53" y="353.49">+</text>
<text x="57.64" y="211.99">+</text>
<text x="232.95" y="105.85">.</text>
<text x="147.82" y="287.47">+</text>
<text x="415.40" y="122.85">+</text>
<text x="242.08" y="14.93">.</text>
<text x="332.63" y="433.43">.</text>
<text x="493.72" y="327.35">+</text>
<text x="447.57" y="200.46">+</text>
<text x="439.98" y="108.34">.</text>
<text x="173.55" y="296.44">+</text>
<text x="100.65" y="414.79">.</text>
<text x="299.37" y="316.25">+</text>
<text x="321.16" y="483.77">.</text>
<text x="246.35" y="462.00">.</text>
<text x="378.15" y="7.11">.</text>
<text x="159.53" y="404.63">.</text>
<text x="105.25" y="252.65">+</text>
<text x="383.03" y="477.80">+</text>
<text x="147.34" y="483.22">+</text>
<text x="284.12" y="365.20">*</text>
<text x="245.88" y="418.79">+</text>
<text x="467.32" y="452.36">.</text>
<text x="127.72" y="489.10">.</text>
<text x="358.75" y="476.47">+</text>
<text x="463.69" y="107.32">+</text>
<text x="38.24" y="290.47">.</text>
<text x="56.21" y="398.43">+</text>
<text x="412.90" y="54.82">.</text>
<text x="317.33" y="440.10">+</text>
<text x="3.34" y="380.95">+</text>
<text x="275.09" y="344.41">.</text>
<text x="175.10" y="34.12">+</text>
<text x="250.45" y="459.12">.</text>
<text x="122.54" y="488.04">+</text>
<text x="153.53" y="159.23">*</text>
<text x="33.70" y="58.14">+</text>
<text x="270.94" y="338.13">+</text>
<text x="115.91" y="143.41">+</text>
<text x="424.16" y="97.07">.</text>
<text x="162.39" y="278.90">+</text>
<text x="40.61" y="443.32">+</text>
<text x="363.62" y="310.15">+</text>
<text x="278.17" y="196.23">+</text>
<text x="301.13" y="422.09">+</text>
<text x="78.02" y="118.25">+</text>
<text x="97.97" y="168.65">+</text>
<text x="334.60" y="200.35">.</text>
<text x="144.40" y="405.08">*</text>
<text x="48.57" y="160.07">.</text>
<text x="470.62" y="6.91">.</text>
<text x="401.01" y="113.24">+</text>
<text x="456.13" y="170.51">+</text>
<text x="83.65" y="137.59">.</text>
<text x="355.53" y="90.33">+</text>
<text x="62.40" y="91.37">+</text>
<text x="213.32" y="444.74">.</text>
<text x="278.48" y="318.66">.</text>
<text x="363.29" y="245.84">.</text>
<text x="479.74" y="193.69">+</text>
<text x="131.46" y="332.14">.</text>
<text x="222.68" y="368.52">*</text>
<text x="12.05" y="451.30">.</text>
<text x="93.45" y="468.93">+</text>
<text x="99.52" y="22.33">+</text>
<text x="349.18" y="6.67">.</text>
<text x="47.43" y="381.42">*</text>
<text x="239.63" y="157.05">+</text>
<text x="391.98" y="232.77">.</text>
<text x="219.43" y="177.67">+</text>
<text x="11.66" y="375.65">*</text>
<text x="345.33" y="43.80">.</text>
<text x="1.26" y="18.32">+</text>
<text x="322.48" y="329.68">.</text>
<text x="295.25" y="481.01">+</text>
<text x="434.15" y="214.16">.</text>
<text x="116.20" y="451.22">+</text>
<text x="358.74" y="396.50">.</text>
<text x="39.55" y="237.27">*</text>
<text x="23.98" y="267.89">.</text>
<text x="289.44" y="392.21">*</text>
<text x="335.60" y="91.78">+</text>
<text x="473.37" y="467.14">*</text>
<text x="370.86" y="389.83">*</text>
<text x="293.48" y="484.92">.</text>
<text x="234.70" y="419.51">.</text>
<text x="5.72" y="77.49">*</text>
<text x="485.15" y="424.82">.</text>
<text x="339.82" y="348.03">.</text>
<text x="123.27" y="151.44">.</text>
<text x="323.34" y="425.56">.</text>
<text x="150.53" y="182.52">+</text>
<text x="331.45" y="248.86">.</text>
<text x="428.05" y="476.41">.</text>
<text x="269.78" y="308.23">+</text>
<text x="96.36" y="121.55">*</text>
<text x="191.94" y="92.47">*</text>
<text x="251.66" y="426.40">*</text>
<text x="320.84" y="162.83">+</text>
<text x="473.25" y="205.81">.</text>
<text x="115.76" y="300.86">+</text>
<text x="445.71" y="112.53">.</text>
<text x="175.98" y="495.70">+</text>
<text x="17.46" y="478.61">.</text>
<text x="121.33" y="167.46">+</text>
<text x="186.08" y="333.60">*</text>
<text x="222.18" y="388.75">.</text>
<text x="187.62" y="469.84">*</text>
<text x="30.22" y="260.58">.</text>
<text x="200.90" y="431.29">+</text>
<text x="424.88" y="337.61">+</text>
<text x="210.77" y="418.05">.</text>
<text x="362.43" y="25.10">+</text>
<text x="31.34" y="156.16">+</text>
<text x="172.27" y="30.28">.</text>
<text x="256.83" y="429.78">+</text>
<text x="362.23" y="206.59">.</text>
<text x="2.14" y="71.81">.</text>
<text x="470.31" y="256.44">+</text>
<text x="131.59" y="322.08">+</text>
<text x="82.16" y="479.44">.</text>
<text x="185.09" y="352.70">*</text>
<text x="244.31" y="136.59">+</text>
<text x="319.71" y="29.01">.</text>
<text x="212.91" y="167.87">+</text>
<text x="158.29" y="111.71">+</text>
<text x="498.10" y="125.35">.</text>
<text x="417.92" y="23.16">.</text>
<text x="52.18" y="410.68">+</text>
<text x="81.07" y="163.92">+</text>
<text x="161.51" y="8.95">*</text>
<text x="242.31" y="208.50">.</text>
<text x="130.64" y="476.14">+</text>
<text x="112.85" y="400.87">*</text>
<text x="11.48" y="172.90">+</text>
<text x="234.01" y="378.93">.</text>
<text x="254.79" y="159.15">.</text>
<text x="151.01" y="65.41">+</text>
<text x="132.62" y="390.54">.</text>
<text x="4.85" y="68.61">*</text>
<text x="63.37" y="320.16">.</text>
<text x="2.85" y="440.87">.</text>
<text x="45.31" y="435.74">.</text>
<text x="42.51" y="0.80">.</text>
<text x="230.94" y="43.38">+</text>
<text x="384.50" y="99.01">.</text>
<text x="389.91" y="43.40">.</text>
<text x="352.65" y="285.72">+</text>
<text x="487.96" y="217.83">+</text>
<text x="278.34" y="424.05">+</text>
<text x="387.65" y="457.75">.</text>
<text x="205.98" y="10.71">+</text>
<text x="281.64" y="192.56">.</text>
<text x="205.17" y="126.55">.</text>
<text x="212.91" y="33.82">.</text>
<text x="456.51" y="43.81">.</text>
<text x="170.64" y="100.45">.</text>
<text x="23.15" y="69.81">.</text>
<text x="266.43" y="220.14">.</text>
<text x="322.97" y="134.93">+</text>
<text x="198.21" y="198.85">.</text>
<text x="162.63" y="369.11">.</text>
<text x="216.75" y="112.26">.</text>
<text x="270.02" y="233.13">.</text>
<text x="312.83" y="390.35">.</text>
<text x="357.84" y="415.66">.</text>
<text x="470.72" y="300.14">.</text>
<text x="8.26" y="279.36">.</text>
<text x="378.02" y="47.78">.</text>
<text x="72.41" y="223.23">*</text>
<text x="55.78" y="63.26">+</text>
<text x="364.89" y="407.83">.</text>
<text x="334.94" y="198.44">*</text>
<text x="445.24" y="476.06">+</text>
<text x="18.01" y="210.68">.</text>
<text x="206.81" y="252.72">.</text>
<text x="66.73" y="387.64">.</text>
<text x="17.79" y="463.68">.</text>
<text x="218.28" y="215.32">.</text>
<text x="331.32" y="88.21">*</text>
<text x="468.79" y="133.78">.</text>
<text x="204.64" y="29.97">+</text>
<text x="252.58" y="31.75">+</text>

</svg>