
<svg viewBox="0 0 500 500" xmlns="http://www.w.org/2000/svg" width="100%" height="100%" style="background-color: #0a0a14; font-family: 'Courier New', Courier, monospace;">
    <style>
        text { fill: #aaa; font-size: 10px; text-anchor: middle; dominant-baseline: middle; }
    </style>
    <text x="288.13" y="178.50">+</text>
<text x="20.39" y="65.62">+</text>
<text x="264.11" y="362.91">.</text>
<text x="495.27" y="390.62">+</text>
<text x="270.48" y="315.38">+</text>
<text x="306.26" y="230.67">*</text>
<text x="442.72" y="187.22">*</text>
<text x="323.04" y="384.00">+</text>
<text x="230.86" y="373.86">+</text>
<text x="280.51" y="301.58">+</text>
<text x="462.22" y="4.89">+</text>
<text x="325.66" y="314.66">.</text>
<text x="480.82" y="280.23">*</text>
<text x="245.67" y="350.50">.</text>
<text x="95.21" y="402.11">+</text>
<text x="162.06" y="302.03">+</text>
<text x="228.99" y="428.92">+</text>
<text x="453.70" y="451.34">.</text>
<text x="225.91" y="431.99">*</text>
<text x="466.85" y="111.70">*</text>
<text x="82.01" y="74.44">.</text>
<text x="409.53" y="459.17">.</text>
<text x="470.38" y="428.13">.</text>
<text x="107.19" y="72.46">+</text>
<text x="180.81" y="320.24">+</text>
<text x="291.11" y="246.01">+</text>
<text x="236.03" y="41.44">*</text>
<text x="238.31" y="172.33">.</text>
<text x="255.33" y="337.10">.</text>
<text x="362.76" y="216.28">+</text>
<text x="62.54" y="251.00">.</text>
<text x="166.74" y="338.55">*</text>
<text x="487.79" y="154.66">.</text>
<text x="106.98" y="268.05">*</text>
<text x="349.83" y="287.72">.</text>
<text x="301.36" y="241.47">.</text>
<text x="325.57" y="150.70">+</text>
<text x="282.21" y="281.56">+</text>
<text x="96.21" y="345.15">+</text>
<text x="308.91" y="206.26">.</text>
<text x="346.35" y="415.57">+</text>
<text x="423.72" y="67.64">+</text>
<text x="179.38" y="20.67">+</text>
<text x="198.66" y="145.45">.</text>
<text x="92.08" y="160.65">.</text>
<text x="215.53" y="110.07">+</text>
<text x="258.95" y="423.03">+</text>
<text x="434.01" y="119.34">.</text>
<text x="328.96" y="416.15">+</text>
<text x="154.71" y="55.44">+</text>
<text x="469.03" y="421.76">.</text>
<text x="267.23" y="276.49">+</text>
<text x="179.99" y="380.83">.</text>
<text x="345.32" y="457.54">+</text>
<text x="100.67" y="410.48">+</text>
<text x="73.91" y="385.05">+</text>
<text x="117.18" y="12.64">.</text>
<text x="163.71" y="114.19">.</text>
<text x="355.02" y="220.61">.</text>
<text x="45.17" y="331.47">+</text>
<text x="40.79" y="207.36">.</text>
<text x="296.03" y="192.82">.</text>
<text x="207.49" y="367.19">.</text>
<text x="444.83" y="133.97">+</text>
<text x="436.16" y="238.17">.</text>
<text x="335.43" y="164.04">+</text>
<text x="57.26" y="180.86">+</text>
<text x="241.56" y="278.12">.</text>
<text x="396.83" y="336.72">.</text>
<text x="432.01" y="237.12">+</text>
<text x="398.95" y="469.51">.</text>
<text x="478.08" y="259.22">+</text>
<text x="7.12" y="66.36">+</text>
<text x="199.23" y="353.75">*</text>
<text x="343.00" y="144.37">.</text>
<text x="153.61" y="415.91">+</text>
<text x="254.52" y="352.61">.</text>
<text x="129.18" y="251.55">+</text>
<text x="76.27" y="384.80">.</text>
<text x="57.72" y="73.98">+</text>
<text x="118.34" y="375.85">.</text>
<text x="331.42" y="76.37">+</text>
<text x="465.41" y="415.01">*</text>
<text x="274.49" y="199.83">+</text>
<text x="395.36" y="69.14">.</text>
<text x="422.19" y="316.56">+</text>
<text x="276.25" y="491.49">.</text>
<text x="192.42" y="358.37">+</text>
<text x="281.36" y="84.50">*</text>
<text x="476.12" y="184.30">.</text>
<text x="283.44" y="153.97">.</text>
<text x="358.16" y="216.28">+</text>
<text x="377.16" y="192.02">+</text>
<text x="358.18" y="443.05">.</text>
<text x="477.79" y="389.92">.</text>
<text x="233.47" y="163.52">+</text>
<text x="118.05" y="393.47">.</text>
<text x="324.09" y="188.70">.</text>
<text x="43.26" y="128.22">.</text>
<text x="237.70" y="224.55">+</text>
<text x="464.67" y="370.70">.</text>
<text x="324.97" y="136.45">.</text>
<text x="394.31" y="123.93">.</text>
<text x="247.22" y="111.82">.</text>
<text x="194.79" y="382.06">+</text>
<text x="3.65" y="32.16">.</text>
<text x="387.73" y="205.77">.</text>
<text x="197.50" y="488.34">+</text>
<text x="31.57" y="249.77">.</text>
<text x="421.94" y="82.89">+</text>
<text x="316.83" y="395.11">+</text>
<text x="49.76" y="451.85">*</text>
<text x="327.03" y="434.29">.</text>
<text x="162.54" y="217.03">.</text>
<text x="177.89" y="129.08">+</text>
<text x="411.89" y="217.32">+</text>
<text x="339.44" y="284.61">.</text>
<text x="415.64" y="242.98">+</text>
<text x="96.83" y="149.14">.</text>
<text x="276.85" y="80.66">+</text>
<text x="317.57" y="183.16">.</text>
<text x="116.12" y="256.93">+</text>
<text x="333.58" y="261.41">+</text>
<text x="400.51" y="10.74">+</text>
<text x="90.76" y="243.34">+</text>
<text x="33.20" y="460.34">+</text>
<text x="462.32" y="223.18">.</text>
<text x="306.31" y="292.34">.</text>
<text x="495.88" y="335.33">+</text>
<text x="247.10" y="395.72">*</text>
<text x="466.70" y="304.07">+</text>
<text x="231.21" y="341.08">+</text>
<text x="307.88" y="51.08">+</text>
<text x="356.03" y="343.90">*</text>
<text x="365.81" y="474.84">+</text>
<text x="77.64" y="356.18">*</text>
<text x="401.41" y="430.51">*</text>
<text x="480.61" y="118.79">+</text>
<text x="440.15" y="495.53">.</text>
<text x="435.09" y="10.12">.</text>
<text x="219.41" y="444.14">*</text>
<text x="172.19" y="43.52">.</text>
<text x="303.64" y="36.15">.</text>
<text x="316.91" y="108.29">.</text>
<text x="6.12" y="476.55">+</text>
<text x="270.12" y="76.61">+</text>
<text x="391.95" y="417.77">.</text>
<text x="407.74" y="478.77">+</text>
<text x="54.50" y="380.94">.</text>
<text x="43.93" y="448.46">+</text>
<text x="12.15" y="3.26">+</text>
<text x="66.14" y="262.20">.</text>
<text x="266.97" y="412.66">+</text>
<text x="415.39" y="139.66">+</text>
<text x="444.35" y="454.28">*</text>
<text x="240.09" y="14.98">+</text>
<text x="131.55" y="131.00">.</text>
<text x="70.20" y="43.08">.</text>
<text x="176.82" y="123.89">+</text>
<text x="436.34" y="102.70">.</text>
<text x="302.83" y="427.59">.</text>
<text x="477.89" y="8.50">+</text>
<text x="204.76" y="151.60">+</text>
<text x="234.59" y="295.69">.</text>
<text x="396.64" y="216.42">.</text>
<text x="127.31" y="145.91">.</text>
<text x="136.55" y="60.97">+</text>
<text x="16.82" y="306.13">.</text>
<text x="424.45" y="310.52">+</text>
<text x="356.78" y="146.69">*</text>
<text x="94.13" y="210.93">.</text>
<text x="352.89" y="295.80">.</text>
<text x="127.47" y="424.43">.</text>
<text x="336.97" y="426.21">.</text>
<text x="473.60" y="10.19">*</text>
<text x="73.09" y="317.08">+</text>
<text x="4.29" y="201.87">.</text>
<text x="291.35" y="498.20">.</text>
<text x="299.25" y="232.96">+</text>
<text x="332.04" y="54.11">*</text>
<text x="243.45" y="36.68">+</text>
<text x="130.01" y="336.25">.</text>
<text x="379.08" y="448.29">+</text>
<text x="491.46" y="122.48">+</text>
<text x="30.04" y="220.09">.</text>
<text x="424.24" y="412.93">+</text>
<text x="321.85" y="24.46">+</text>
<text x="266.49" y="362.07">*</text>
<text x="260.43" y="458.65">+</text>
<text x="451.11" y="59.66">*</text>
<text x="448.40" y="401.74">.</text>
<text x="396.51" y="442.74">+</text>
<text x="404.74" y="223.09">+</text>
<text x="265.57" y="467.11">+</text>
<text x="35.76" y="483.04">*</text>
<text x="365.43" y="400.68">*</text>
<text x="480.63" y="117.87">.</text>
<text x="278.01" y="449.15">+</text>
<text x="148.03" y="482.56">.</text>
<text x="494.52" y="320.63">+</text>
<text x="47.27" y="76.71">+</text>
<text x="489.19" y="38.28">.</text>
<text x="396.38" y="233.52">+</text>
<text x="292.66" y="297.22">+</text>
<text x="44.26" y="83.05">.</text>
<text x="156.10" y="68.23">.</text>
<text x="496.66" y="105.81">+</text>

</svg>