
<svg viewBox="0 0 500 500" xmlns="http://www.w.org/2000/svg" width="100%" height="100%" style="background-color: #0a0a14; font-family: 'Courier New', Courier, monospace;">
    <style>
        text { fill: #aaa; font-size: 10px; text-anchor: middle; dominant-baseline: middle; }
    </style>
    <text x="452.32" y="392.53">+</text>
<text x="356.84" y="465.14">+</text>
<text x="94.28" y="440.72">+</text>
<text x="266.14" y="376.07">+</text>
<text x="426.47" y="192.40">+</text>
<text x="440.58" y="125.96">.</text>
<text x="398.39" y="251.63">.</text>
<text x="82.31" y="313.36">+</text>
<text x="151.20" y="432.14">.</text>
<text x="417.76" y="316.94">+</text>
<text x="1.21" y="341.45">.</text>
<text x="344.90" y="301.83">*</text>
<text x="212.21" y="468.79">+</text>
<text x="268.17" y="476.40">+</text>
<text x="132.11" y="222.77">*</text>
<text x="24.28" y="23.36">+</text>
<text x="157.93" y="335.19">*</text>
<text x="398.05" y="144.29">+</text>
<text x="53.89" y="301.78">+</text>
<text x="173.55" y="215.82">+</text>
<text x="185.80" y="363.69">.</text>
<text x="361.34" y="215.68">.</text>
<text x="25.23" y="308.35">.</text>
<text x="137.52" y="22.96">+</text>
<text x="322.37" y="493.79">+</text>
<text x="456.18" y="118.94">.</text>
<text x="144.61" y="447.35">.</text>
<text x="172.88" y="254.28">+</text>
<text x="200.12" y="288.05">+</text>
<text x="481.86" y="34.06">+</text>
<text x="46.30" y="229.82">+</text>
<text x="237.25" y="379.17">+</text>
<text x="132.87" y="295.60">.</text>
<text x="24.79" y="346.97">.</text>
<text x="464.17" y="226.69">.</text>
<text x="16.57" y="55.12">.</text>
<text x="171.09" y="24.27">+</text>
<text x="94.42" y="416.86">.</text>
<text x="48.51" y="5.99">*</text>
<text x="243.38" y="458.22">.</text>
<text x="466.97" y="481.68">+</text>
<text x="297.49" y="225.24">.</text>
<text x="139.85" y="251.84">.</text>
<text x="264.42" y="129.81">+</text>
<text x="271.93" y="374.09">.</text>
<text x="458.62" y="482.94">*</text>
<text x="339.75" y="266.96">.</text>
<text x="91.28" y="140.79">.</text>
<text x="395.32" y="133.80">.</text>
<text x="3.35" y="100.23">+</text>
<text x="459.03" y="474.20">*</text>
<text x="247.41" y="167.43">+</text>
<text x="107.02" y="274.55">+</text>
<text x="79.45" y="177.11">.</text>
<text x="148.71" y="434.93">.</text>
<text x="165.25" y="387.41">.</text>
<text x="364.40" y="223.90">+</text>
<text x="361.06" y="232.42">.</text>
<text x="327.35" y="296.70">.</text>
<text x="334.88" y="228.09">+</text>
<text x="28.09" y="157.58">+</text>
<text x="115.31" y="252.45">+</text>
<text x="262.62" y="47.29">+</text>
<text x="458.47" y="289.45">.</text>
<text x="393.02" y="72.65">+</text>
<text x="278.64" y="98.78">+</text>
<text x="435.24" y="32.10">.</text>
<text x="485.24" y="19.90">+</text>
<text x="14.05" y="222.22">.</text>
<text x="256.80" y="253.88">+</text>
<text x="375.13" y="494.31">.</text>
<text x="195.27" y="100.08">+</text>
<text x="328.34" y="273.61">+</text>
<text x="284.13" y="397.04">*</text>
<text x="178.46" y="420.21">.</text>
<text x="108.30" y="303.56">.</text>
<text x="494.59" y="238.52">+</text>
<text x="101.14" y="167.74">+</text>
<text x="60.04" y="407.60">.</text>
<text x="397.50" y="409.79">+</text>
<text x="24.80" y="380.29">.</text>
<text x="278.64" y="8.93">*</text>
<text x="421.48" y="32.35">+</text>
<text x="120.83" y="252.44">.</text>
<text x="109.79" y="380.59">+</text>
<text x="245.82" y="130.29">.</text>
<text x="75.32" y="83.74">.</text>
<text x="195.59" y="125.89">*</text>
<text x="70.53" y="287.69">.</text>
<text x="366.75" y="386.32">.</text>
<text x="282.99" y="172.92">+</text>
<text x="72.55" y="373.77">+</text>
<text x="443.43" y="223.84">+</text>
<text x="117.27" y="44.37">+</text>
<text x="239.22" y="166.76">+</text>
<text x="239.39" y="167.47">+</text>
<text x="305.98" y="487.05">+</text>
<text x="488.34" y="310.30">.</text>
<text x="281.20" y="28.30">.</text>
<text x="434.56" y="26.51">+</text>
<text x="495.45" y="400.80">*</text>
<text x="67.40" y="362.36">*</text>
<text x="47.43" y="354.05">.</text>
<text x="284.99" y="46.96">*</text>
<text x="496.80" y="46.84">.</text>
<text x="310.47" y="463.21">+</text>
<text x="428.34" y="388.80">+</text>
<text x="445.50" y="472.20">+</text>
<text x="484.22" y="273.48">*</text>
<text x="89.52" y="104.21">+</text>
<text x="13.50" y="221.83">+</text>
<text x="122.70" y="124.93">.</text>
<text x="111.90" y="261.52">.</text>
<text x="405.03" y="468.93">+</text>
<text x="420.38" y="12.19">+</text>
<text x="6.33" y="98.35">.</text>
<text x="449.91" y="252.96">*</text>
<text x="109.76" y="97.65">*</text>
<text x="227.40" y="3.67">*</text>
<text x="328.25" y="287.04">+</text>
<text x="255.44" y="95.47">.</text>
<text x="216.54" y="365.48">+</text>
<text x="355.51" y="392.10">+</text>
<text x="487.69" y="118.75">+</text>
<text x="322.24" y="103.20">.</text>
<text x="163.09" y="12.54">+</text>
<text x="106.08" y="109.11">+</text>
<text x="290.09" y="101.06">+</text>
<text x="278.48" y="65.22">.</text>
<text x="235.39" y="239.58">.</text>
<text x="96.75" y="346.36">+</text>
<text x="453.12" y="321.06">+</text>
<text x="263.78" y="158.32">*</text>
<text x="151.91" y="347.02">.</text>
<text x="352.62" y="172.07">*</text>
<text x="458.82" y="79.17">+</text>
<text x="239.07" y="265.31">.</text>
<text x="134.52" y="319.06">.</text>
<text x="75.35" y="162.06">.</text>
<text x="28.61" y="92.37">+</text>
<text x="334.89" y="107.19">.</text>
<text x="358.64" y="0.92">.</text>
<text x="341.95" y="64.12">.</text>
<text x="78.69" y="202.61">+</text>
<text x="267.83" y="293.77">.</text>
<text x="59.33" y="418.59">.</text>
<text x="308.64" y="92.21">.</text>
<text x="0.96" y="119.88">+</text>
<text x="388.84" y="273.24">+</text>
<text x="180.04" y="123.83">+</text>
<text x="261.30" y="337.22">.</text>
<text x="389.91" y="28.09">.</text>
<text x="6.16" y="229.91">+</text>
<text x="487.34" y="444.74">*</text>
<text x="241.99" y="123.13">.</text>
<text x="310.82" y="94.37">*</text>
<text x="240.99" y="230.33">+</text>
<text x="200.95" y="97.16">+</text>
<text x="413.64" y="431.17">.</text>
<text x="104.78" y="435.89">.</text>
<text x="167.15" y="325.63">+</text>
<text x="208.26" y="152.25">.</text>
<text x="10.16" y="491.06">+</text>
<text x="111.67" y="36.80">.</text>
<text x="429.27" y="316.68">*</text>
<text x="220.95" y="440.52">.</text>
<text x="101.24" y="357.26">+</text>
<text x="60.13" y="450.26">*</text>
<text x="148.62" y="485.69">+</text>
<text x="68.37" y="302.88">+</text>
<text x="341.69" y="124.60">.</text>
<text x="422.64" y="217.19">+</text>
<text x="385.60" y="498.80">+</text>
<text x="170.17" y="480.17">+</text>
<text x="363.81" y="13.85">+</text>
<text x="370.28" y="447.66">+</text>
<text x="416.92" y="455.35">+</text>
<text x="151.45" y="486.77">+</text>
<text x="311.95" y="200.83">+</text>
<text x="194.49" y="337.14">+</text>
<text x="199.62" y="440.29">+</text>
<text x="75.17" y="349.76">.</text>
<text x="21.00" y="7.85">+</text>
<text x="330.50" y="282.59">+</text>
<text x="327.21" y="415.06">.</text>
<text x="439.91" y="270.91">*</text>
<text x="127.42" y="408.52">*</text>
<text x="492.80" y="344.64">.</text>
<text x="232.41" y="170.47">+</text>
<text x="79.14" y="394.08">.</text>
<text x="234.55" y="366.44">+</text>
<text x="237.91" y="460.42">.</text>
<text x="131.71" y="54.12">.</text>
<text x="440.16" y="279.34">.</text>
<text x="293.52" y="42.91">+</text>
<text x="393.82" y="243.64">.</text>
<text x="390.28" y="366.86">+</text>
<text x="25.01" y="395.80">+</text>
<text x="78.82" y="76.80">.</text>
<text x="132.09" y="498.15">.</text>
<text x="359.44" y="462.81">.</text>
<text x="104.16" y="497.82">.</text>
<text x="264.65" y="470.27">+</text>
<text x="283.95" y="434.64">.</text>
<text x="397.45" y="184.58">.</text>
<text x="336.18" y="20.75">.</text>
<text x="127.75" y="466.57">+</text>
<text x="458.21" y="171.15">+</text>
<text x="400.47" y="215.04">+</text>
<text x="133.36" y="181.09">+</text>
<text x="260.03" y="265.74">+</text>
<text x="137.50" y="201.00">.</text>
<text x="410.22" y="228.79">+</text>
<text x="339.16" y="58.64">+</text>
<text x="92.71" y="355.20">*</text>
<text x="19.18" y="339.52">+</text>
<text x="488.29" y="19.13">*</text>
<text x="446.85" y="377.12">+</text>
<text x="242.01" y="31.02">.</text>

</svg>