
<svg viewBox="0 0 500 500" xmlns="http://www.w.org/2000/svg" width="100%" height="100%" style="background-color: #0a0a14; font-family: 'Courier New', Courier, monospace;">
    <style>
        text { fill: #aaa; font-size: 10px; text-anchor: middle; dominant-baseline: middle; }
    </style>
    <text x="183.88" y="165.53">.</text>
<text x="105.67" y="246.73">.</text>
<text x="402.61" y="408.13">+</text>
<text x="311.67" y="299.04">+</text>
<text x="155.14" y="150.72">+</text>
<text x="222.93" y="107.76">.</text>
<text x="188.93" y="215.89">+</text>
<text x="99.08" y="350.52">+</text>
<text x="51.82" y="369.87">+</text>
<text x="282.29" y="230.35">.</text>
<text x="90.14" y="268.78">*</text>
<text x="443.95" y="76.71">.</text>
<text x="383.03" y="495.07">.</text>
<text x="225.17" y="411.09">*</text>
<text x="28.07" y="325.05">.</text>
<text x="44.55" y="323.86">*</text>
<text x="494.43" y="319.03">.</text>
<text x="328.59" y="24.59">*</text>
<text x="300.80" y="450.20">.</text>
<text x="154.75" y="438.49">+</text>
<text x="68.48" y="113.27">+</text>
<text x="252.19" y="451.03">+</text>
<text x="444.75" y="54.33">.</text>
<text x="277.12" y="342.80">.</text>
<text x="359.20" y="358.95">+</text>
<text x="332.09" y="368.52">+</text>
<text x="89.29" y="312.10">.</text>
<text x="365.43" y="414.01">.</text>
<text x="396.41" y="440.73">+</text>
<text x="246.64" y="437.55">.</text>
<text x="333.98" y="487.85">+</text>
<text x="120.72" y="300.63">.</text>
<text x="109.77" y="261.73">+</text>
<text x="136.40" y="214.18">.</text>
<text x="442.96" y="450.88">+</text>
<text x="304.39" y="183.18">+</text>
<text x="8.30" y="467.98">*</text>
<text x="490.26" y="184.46">*</text>
<text x="162.70" y="425.14">.</text>
<text x="123.19" y="279.22">+</text>
<text x="283.59" y="219.31">.</text>
<text x="241.96" y="99.36">.</text>
<text x="468.46" y="413.75">+</text>
<text x="455.14" y="451.07">.</text>
<text x="171.79" y="487.77">+</text>
<text x="224.70" y="372.48">+</text>
<text x="366.56" y="443.41">*</text>
<text x="32.45" y="334.93">.</text>
<text x="7.12" y="144.02">.</text>
<text x="183.41" y="79.86">*</text>
<text x="361.88" y="145.11">*</text>
<text x="120.13" y="57.34">+</text>
<text x="455.04" y="286.85">.</text>
<text x="144.51" y="170.90">+</text>
<text x="432.44" y="211.46">.</text>
<text x="223.78" y="121.15">+</text>
<text x="41.65" y="167.81">.</text>
<text x="404.75" y="206.70">.</text>
<text x="116.77" y="197.67">.</text>
<text x="115.18" y="323.73">*</text>
<text x="12.32" y="326.30">+</text>
<text x="323.60" y="182.89">*</text>
<text x="295.07" y="302.75">.</text>
<text x="387.25" y="244.10">*</text>
<text x="252.51" y="465.03">.</text>
<text x="397.84" y="93.18">.</text>
<text x="323.05" y="291.57">+</text>
<text x="418.85" y="52.77">+</text>
<text x="111.90" y="327.42">*</text>
<text x="192.30" y="401.18">+</text>
<text x="189.06" y="144.06">.</text>
<text x="324.89" y="40.35">.</text>
<text x="75.30" y="70.10">*</text>
<text x="307.88" y="210.63">+</text>
<text x="160.14" y="370.30">+</text>
<text x="316.69" y="117.28">+</text>
<text x="63.33" y="324.58">+</text>
<text x="278.16" y="346.19">+</text>
<text x="193.23" y="322.94">+</text>
<text x="441.55" y="270.56">+</text>
<text x="477.79" y="380.16">*</text>
<text x="365.56" y="208.33">+</text>
<text x="24.58" y="112.49">.</text>
<text x="109.15" y="447.89">+</text>
<text x="226.66" y="278.42">+</text>
<text x="318.97" y="371.04">+</text>
<text x="335.01" y="271.26">+</text>
<text x="455.58" y="294.22">.</text>
<text x="37.35" y="479.80">.</text>
<text x="228.63" y="201.50">+</text>
<text x="327.83" y="349.14">+</text>
<text x="391.76" y="256.65">.</text>
<text x="257.48" y="147.39">.</text>
<text x="304.69" y="363.65">+</text>
<text x="32.40" y="200.37">.</text>
<text x="391.55" y="478.03">+</text>
<text x="228.02" y="300.96">.</text>
<text x="483.54" y="169.71">.</text>
<text x="229.43" y="415.54">.</text>
<text x="200.36" y="251.21">.</text>
<text x="494.49" y="33.44">*</text>
<text x="93.07" y="335.54">.</text>
<text x="205.62" y="416.86">+</text>
<text x="355.49" y="415.26">+</text>
<text x="18.08" y="67.09">.</text>
<text x="327.47" y="27.28">+</text>
<text x="257.21" y="179.83">.</text>
<text x="179.44" y="308.96">.</text>
<text x="164.57" y="326.69">.</text>
<text x="134.64" y="51.39">+</text>
<text x="461.24" y="228.72">.</text>
<text x="319.51" y="127.96">+</text>
<text x="240.14" y="366.11">+</text>
<text x="257.95" y="369.92">.</text>
<text x="254.19" y="170.31">+</text>
<text x="19.86" y="397.16">+</text>
<text x="111.81" y="121.85">.</text>
<text x="72.81" y="221.39">*</text>
<text x="359.10" y="385.01">+</text>
<text x="220.84" y="466.50">*</text>
<text x="325.39" y="88.79">*</text>
<text x="196.79" y="240.69">.</text>
<text x="406.08" y="384.36">.</text>
<text x="298.56" y="108.72">*</text>
<text x="26.68" y="100.14">.</text>
<text x="15.31" y="412.66">+</text>
<text x="405.91" y="188.81">*</text>
<text x="348.25" y="316.23">+</text>
<text x="116.74" y="195.29">+</text>
<text x="212.06" y="370.10">.</text>
<text x="159.97" y="52.97">+</text>
<text x="470.34" y="395.16">+</text>
<text x="77.35" y="238.33">.</text>
<text x="66.88" y="311.52">+</text>
<text x="155.68" y="71.64">.</text>
<text x="310.51" y="17.61">+</text>
<text x="194.99" y="47.72">+</text>
<text x="129.51" y="479.57">+</text>
<text x="461.66" y="451.70">+</text>
<text x="466.26" y="420.93">+</text>
<text x="324.50" y="76.16">+</text>
<text x="291.50" y="150.60">+</text>
<text x="418.72" y="34.78">+</text>
<text x="260.65" y="160.60">.</text>
<text x="41.69" y="449.51">+</text>
<text x="452.43" y="369.33">.</text>
<text x="90.37" y="369.84">+</text>
<text x="431.96" y="248.16">.</text>
<text x="42.44" y="238.07">+</text>
<text x="94.78" y="490.91">+</text>
<text x="279.90" y="459.64">*</text>
<text x="385.86" y="396.12">.</text>
<text x="49.11" y="352.54">+</text>
<text x="201.71" y="43.55">.</text>
<text x="143.35" y="247.38">*</text>
<text x="191.21" y="237.20">.</text>
<text x="447.08" y="348.40">.</text>
<text x="470.94" y="200.61">*</text>
<text x="440.59" y="62.78">+</text>
<text x="261.89" y="162.70">+</text>
<text x="243.32" y="233.23">.</text>
<text x="86.81" y="200.00">+</text>
<text x="461.55" y="8.26">+</text>
<text x="469.97" y="85.43">*</text>
<text x="246.65" y="35.71">+</text>
<text x="198.27" y="275.59">.</text>
<text x="79.46" y="349.32">*</text>
<text x="177.12" y="74.30">+</text>
<text x="138.06" y="148.58">.</text>
<text x="403.94" y="164.47">.</text>
<text x="298.98" y="479.54">.</text>
<text x="69.08" y="179.75">+</text>
<text x="217.51" y="31.47">.</text>
<text x="377.42" y="146.16">.</text>
<text x="74.90" y="122.45">.</text>
<text x="91.71" y="207.78">.</text>
<text x="236.08" y="41.86">.</text>
<text x="142.86" y="328.52">.</text>
<text x="177.87" y="268.55">+</text>
<text x="192.70" y="101.31">.</text>
<text x="276.77" y="4.58">*</text>
<text x="391.42" y="351.49">*</text>
<text x="221.01" y="56.63">+</text>
<text x="414.43" y="251.50">+</text>
<text x="19.11" y="375.05">+</text>
<text x="280.91" y="60.76">.</text>
<text x="472.99" y="422.65">.</text>
<text x="379.90" y="275.64">+</text>
<text x="180.34" y="339.45">+</text>
<text x="232.67" y="459.03">+</text>
<text x="348.49" y="57.98">*</text>
<text x="426.36" y="218.25">*</text>
<text x="130.67" y="155.74">+</text>
<text x="488.13" y="333.84">.</text>
<text x="8.48" y="263.08">+</text>
<text x="394.73" y="81.79">.</text>
<text x="397.05" y="472.29">*</text>
<text x="14.94" y="423.04">.</text>
<text x="223.96" y="213.98">+</text>

</svg>