
<svg viewBox="0 0 500 500" xmlns="http://www.w.org/2000/svg" width="100%" height="100%" style="background-color: #0a0a14; font-family: 'Courier New', Courier, monospace;">
    <style>
        text { fill: #aaa; font-size: 10px; text-anchor: middle; dominant-baseline: middle; }
    </style>
    <text x="433.75" y="396.58">+</text>
<text x="104.88" y="107.21">+</text>
<text x="478.25" y="218.69">.</text>
<text x="261.98" y="408.73">.</text>
<text x="216.45" y="295.97">.</text>
<text x="136.37" y="201.37">.</text>
<text x="184.78" y="20.36">*</text>
<text x="205.25" y="435.93">.</text>
<text x="146.24" y="467.10">.</text>
<text x="398.06" y="182.59">.</text>
<text x="30.42" y="124.09">+</text>
<text x="411.56" y="253.30">+</text>
<text x="55.22" y="468.07">*</text>
<text x="250.91" y="113.21">*</text>
<text x="248.58" y="125.74">.</text>
<text x="202.18" y="142.01">.</text>
<text x="371.53" y="465.74">.</text>
<text x="319.56" y="224.74">+</text>
<text x="280.91" y="69.93">*</text>
<text x="98.93" y="201.43">.</text>
<text x="472.56" y="212.57">+</text>
<text x="301.33" y="364.68">*</text>
<text x="268.86" y="399.59">.</text>
<text x="439.24" y="132.29">.</text>
<text x="179.42" y="438.27">*</text>
<text x="137.36" y="3.40">.</text>
<text x="312.76" y="164.18">.</text>
<text x="492.56" y="435.96">+</text>
<text x="291.43" y="339.83">.</text>
<text x="185.36" y="307.72">+</text>
<text x="232.52" y="301.54">.</text>
<text x="231.21" y="307.94">*</text>
<text x="14.33" y="486.31">*</text>
<text x="269.79" y="238.73">.</text>
<text x="232.44" y="437.63">+</text>
<text x="193.89" y="291.35">+</text>
<text x="50.71" y="162.95">.</text>
<text x="61.67" y="138.95">.</text>
<text x="472.99" y="376.68">+</text>
<text x="182.73" y="384.83">+</text>
<text x="472.33" y="380.84">.</text>
<text x="272.79" y="208.83">+</text>
<text x="229.46" y="251.51">*</text>
<text x="343.88" y="122.52">+</text>
<text x="387.81" y="377.30">+</text>
<text x="373.17" y="340.65">+</text>
<text x="391.86" y="368.10">.</text>
<text x="138.97" y="71.12">+</text>
<text x="400.95" y="96.84">+</text>
<text x="91.08" y="183.25">*</text>
<text x="482.18" y="425.73">+</text>
<text x="435.82" y="353.17">.</text>
<text x="77.58" y="140.22">.</text>
<text x="255.32" y="119.19">.</text>
<text x="350.44" y="365.27">*</text>
<text x="449.62" y="237.18">.</text>
<text x="475.38" y="109.20">+</text>
<text x="392.09" y="88.92">.</text>
<text x="274.00" y="120.87">+</text>
<text x="248.31" y="196.92">+</text>
<text x="148.96" y="312.22">.</text>
<text x="401.91" y="359.16">.</text>
<text x="462.40" y="309.37">.</text>
<text x="256.76" y="437.20">+</text>
<text x="203.17" y="246.09">+</text>
<text x="497.77" y="206.06">+</text>
<text x="355.48" y="345.68">.</text>
<text x="167.01" y="235.57">.</text>
<text x="487.15" y="359.48">+</text>
<text x="97.96" y="101.57">+</text>
<text x="289.61" y="129.71">.</text>
<text x="126.27" y="459.79">+</text>
<text x="491.82" y="209.49">.</text>
<text x="415.42" y="356.40">.</text>
<text x="348.58" y="65.22">*</text>
<text x="14.54" y="400.44">+</text>
<text x="96.39" y="21.78">.</text>
<text x="134.82" y="12.72">+</text>
<text x="315.32" y="268.42">.</text>
<text x="274.42" y="164.85">.</text>
<text x="371.08" y="252.55">+</text>
<text x="433.63" y="187.60">.</text>
<text x="85.83" y="52.46">+</text>
<text x="497.90" y="360.02">.</text>
<text x="477.78" y="215.20">+</text>
<text x="80.91" y="141.42">.</text>
<text x="29.18" y="161.98">*</text>
<text x="472.01" y="426.63">*</text>
<text x="407.02" y="28.66">.</text>
<text x="245.05" y="178.71">+</text>
<text x="433.08" y="238.21">+</text>
<text x="209.29" y="128.79">.</text>
<text x="334.95" y="67.27">.</text>
<text x="196.92" y="303.07">.</text>
<text x="390.97" y="175.66">.</text>
<text x="222.77" y="481.99">*</text>
<text x="337.14" y="401.90">.</text>
<text x="188.38" y="112.08">.</text>
<text x="283.22" y="348.40">+</text>
<text x="209.32" y="183.16">+</text>
<text x="433.59" y="67.79">.</text>
<text x="417.74" y="435.72">+</text>
<text x="479.09" y="392.78">.</text>
<text x="351.15" y="13.53">.</text>
<text x="16.13" y="495.57">*</text>
<text x="456.33" y="219.08">.</text>
<text x="318.89" y="133.89">.</text>
<text x="255.43" y="471.52">*</text>
<text x="258.47" y="328.37">.</text>
<text x="399.86" y="408.04">+</text>
<text x="465.61" y="429.41">+</text>
<text x="236.23" y="221.85">+</text>
<text x="284.65" y="237.20">.</text>
<text x="451.90" y="492.80">+</text>
<text x="149.05" y="238.09">+</text>
<text x="26.21" y="110.61">+</text>
<text x="439.68" y="74.98">.</text>
<text x="466.40" y="400.10">.</text>
<text x="186.34" y="70.96">+</text>
<text x="450.87" y="19.12">.</text>
<text x="101.22" y="415.87">.</text>
<text x="304.82" y="386.57">+</text>
<text x="297.37" y="440.52">+</text>
<text x="387.99" y="453.93">+</text>
<text x="156.33" y="274.49">.</text>
<text x="68.50" y="285.40">.</text>
<text x="323.10" y="230.36">+</text>
<text x="313.44" y="160.93">.</text>
<text x="212.02" y="231.51">.</text>
<text x="161.84" y="11.36">+</text>
<text x="250.19" y="117.85">.</text>
<text x="179.77" y="171.10">*</text>
<text x="403.25" y="378.66">.</text>
<text x="239.74" y="29.54">.</text>
<text x="394.43" y="166.15">.</text>
<text x="15.06" y="23.83">*</text>
<text x="396.18" y="284.59">+</text>
<text x="449.15" y="476.90">+</text>
<text x="107.09" y="182.76">.</text>
<text x="68.01" y="248.12">.</text>
<text x="242.87" y="387.13">+</text>
<text x="246.88" y="485.07">.</text>
<text x="271.36" y="487.60">.</text>
<text x="444.49" y="202.15">+</text>
<text x="60.50" y="116.80">.</text>
<text x="371.92" y="20.33">.</text>
<text x="110.34" y="313.18">+</text>
<text x="477.13" y="57.53">.</text>
<text x="450.18" y="126.23">*</text>
<text x="72.54" y="127.96">.</text>
<text x="253.35" y="153.95">.</text>
<text x="358.59" y="344.22">.</text>
<text x="98.79" y="425.29">.</text>
<text x="38.87" y="22.68">+</text>
<text x="222.13" y="352.99">.</text>
<text x="226.72" y="7.19">+</text>
<text x="170.59" y="70.63">.</text>
<text x="10.51" y="347.49">.</text>
<text x="141.24" y="268.40">.</text>
<text x="196.66" y="189.17">.</text>
<text x="293.69" y="298.05">+</text>
<text x="93.31" y="426.37">+</text>
<text x="167.97" y="370.33">*</text>
<text x="142.13" y="322.74">.</text>
<text x="243.09" y="116.01">.</text>
<text x="394.15" y="293.94">.</text>
<text x="415.11" y="15.52">+</text>
<text x="283.77" y="358.80">.</text>
<text x="22.77" y="411.73">.</text>
<text x="248.20" y="292.47">+</text>
<text x="65.08" y="489.86">.</text>
<text x="180.35" y="160.17">.</text>
<text x="133.44" y="224.77">.</text>
<text x="427.50" y="167.33">.</text>
<text x="355.51" y="60.63">+</text>
<text x="94.15" y="452.69">.</text>
<text x="140.28" y="307.72">+</text>
<text x="39.99" y="245.40">*</text>
<text x="444.88" y="160.12">.</text>
<text x="6.03" y="400.76">*</text>
<text x="173.29" y="132.56">+</text>
<text x="403.62" y="483.03">+</text>
<text x="119.93" y="490.05">+</text>
<text x="421.28" y="7.90">+</text>
<text x="245.88" y="37.07">*</text>
<text x="349.50" y="244.00">+</text>
<text x="289.59" y="430.90">.</text>
<text x="252.87" y="410.62">*</text>
<text x="193.00" y="175.66">.</text>
<text x="315.63" y="247.12">+</text>
<text x="498.12" y="137.69">.</text>
<text x="433.42" y="169.04">.</text>
<text x="468.84" y="462.34">.</text>
<text x="452.90" y="109.81">.</text>
<text x="257.16" y="376.44">+</text>
<text x="88.19" y="370.64">.</text>
<text x="440.87" y="54.88">.</text>
<text x="441.84" y="299.84">.</text>
<text x="467.38" y="294.68">+</text>
<text x="390.62" y="245.35">.</text>
<text x="153.14" y="261.80">*</text>
<text x="137.33" y="63.31">.</text>

</svg>