
<svg viewBox="0 0 500 500" xmlns="http://www.w.org/2000/svg" width="100%" height="100%" style="background-color: #0a0a14; font-family: 'Courier New', Courier, monospace;">
    <style>
        text { fill: #aaa; font-size: 10px; text-anchor: middle; dominant-baseline: middle; }
    </style>
    <text x="98.32" y="430.33">*</text>
<text x="296.82" y="178.66">*</text>
<text x="21.08" y="11.94">*</text>
<text x="368.08" y="360.03">.</text>
<text x="447.95" y="48.35">.</text>
<text x="390.30" y="270.02">.</text>
<text x="424.29" y="190.88">.</text>
<text x="143.32" y="174.54">.</text>
<text x="416.67" y="43.11">.</text>
<text x="339.05" y="69.52">.</text>
<text x="110.07" y="77.08">+</text>
<text x="156.58" y="207.31">+</text>
<text x="195.13" y="187.81">*</text>
<text x="463.02" y="354.99">+</text>
<text x="125.19" y="80.08">.</text>
<text x="25.12" y="69.39">.</text>
<text x="159.98" y="298.10">+</text>
<text x="154.27" y="189.44">.</text>
<text x="382.77" y="202.44">.</text>
<text x="481.29" y="428.37">+</text>
<text x="446.46" y="73.39">+</text>
<text x="365.99" y="36.14">.</text>
<text x="201.27" y="334.09">*</text>
<text x="434.71" y="453.44">.</text>
<text x="195.14" y="329.90">+</text>
<text x="94.61" y="97.21">.</text>
<text x="453.03" y="212.95">.</text>
<text x="159.81" y="435.24">*</text>
<text x="468.20" y="88.97">.</text>
<text x="349.00" y="432.56">.</text>
<text x="208.31" y="248.79">*</text>
<text x="48.13" y="395.41">.</text>
<text x="16.32" y="446.72">.</text>
<text x="253.92" y="130.99">+</text>
<text x="274.34" y="478.75">+</text>
<text x="429.46" y="241.48">*</text>
<text x="37.91" y="446.75">+</text>
<text x="374.75" y="340.37">.</text>
<text x="470.37" y="142.86">+</text>
<text x="423.72" y="197.30">+</text>
<text x="269.96" y="352.67">+</text>
<text x="105.83" y="436.60">.</text>
<text x="184.24" y="384.66">+</text>
<text x="12.18" y="300.95">.</text>
<text x="371.34" y="433.97">+</text>
<text x="326.12" y="449.58">*</text>
<text x="167.86" y="352.93">+</text>
<text x="84.24" y="98.51">.</text>
<text x="111.52" y="341.81">.</text>
<text x="22.48" y="203.71">.</text>
<text x="475.13" y="133.35">+</text>
<text x="237.92" y="272.70">.</text>
<text x="267.86" y="216.35">.</text>
<text x="474.82" y="107.67">*</text>
<text x="52.91" y="418.93">.</text>
<text x="356.30" y="294.58">*</text>
<text x="62.23" y="465.46">+</text>
<text x="174.48" y="29.34">*</text>
<text x="430.77" y="53.76">.</text>
<text x="37.34" y="38.03">.</text>
<text x="297.47" y="72.30">+</text>
<text x="278.43" y="422.50">.</text>
<text x="418.31" y="343.93">+</text>
<text x="356.64" y="236.85">.</text>
<text x="10.96" y="112.97">.</text>
<text x="223.24" y="267.29">.</text>
<text x="84.53" y="165.83">.</text>
<text x="365.47" y="129.56">.</text>
<text x="387.90" y="483.95">.</text>
<text x="274.68" y="389.04">+</text>
<text x="107.63" y="294.01">.</text>
<text x="349.33" y="426.64">+</text>
<text x="407.50" y="493.46">+</text>
<text x="317.56" y="75.31">.</text>
<text x="196.09" y="366.10">+</text>
<text x="192.74" y="383.15">+</text>
<text x="123.97" y="136.78">+</text>
<text x="421.52" y="84.82">.</text>
<text x="257.60" y="459.86">*</text>
<text x="120.63" y="163.17">.</text>
<text x="84.26" y="97.27">.</text>
<text x="420.63" y="420.17">.</text>
<text x="250.74" y="432.09">.</text>
<text x="387.51" y="7.31">+</text>
<text x="89.42" y="130.36">.</text>
<text x="465.84" y="74.46">.</text>
<text x="231.75" y="47.10">+</text>
<text x="296.76" y="371.87">+</text>
<text x="346.02" y="96.60">.</text>
<text x="177.73" y="12.99">+</text>
<text x="25.81" y="235.51">.</text>
<text x="480.13" y="21.69">.</text>
<text x="319.35" y="284.89">+</text>
<text x="167.35" y="153.36">+</text>
<text x="181.84" y="353.78">+</text>
<text x="94.14" y="32.38">.</text>
<text x="339.44" y="49.01">+</text>
<text x="480.79" y="487.74">+</text>
<text x="444.64" y="488.44">*</text>
<text x="151.14" y="136.63">+</text>
<text x="199.85" y="292.69">+</text>
<text x="144.88" y="111.18">+</text>
<text x="181.25" y="343.93">.</text>
<text x="26.53" y="390.14">+</text>
<text x="134.65" y="52.03">.</text>
<text x="10.02" y="495.83">.</text>
<text x="203.39" y="367.37">.</text>
<text x="336.97" y="152.69">+</text>
<text x="250.97" y="475.13">*</text>
<text x="307.42" y="269.21">.</text>
<text x="378.14" y="332.24">.</text>
<text x="78.74" y="365.19">.</text>
<text x="426.36" y="328.12">.</text>
<text x="492.70" y="472.34">*</text>
<text x="135.21" y="210.61">.</text>
<text x="71.84" y="7.23">+</text>
<text x="428.34" y="122.98">*</text>
<text x="336.29" y="46.59">.</text>
<text x="33.28" y="66.26">.</text>
<text x="399.08" y="371.35">*</text>
<text x="430.02" y="249.01">.</text>
<text x="267.75" y="208.01">+</text>
<text x="365.97" y="16.50">.</text>
<text x="10.16" y="326.26">.</text>
<text x="141.33" y="489.66">.</text>
<text x="173.48" y="285.57">*</text>
<text x="458.91" y="25.41">.</text>
<text x="144.77" y="476.50">.</text>
<text x="435.40" y="304.29">+</text>
<text x="5.85" y="230.20">.</text>
<text x="473.28" y="51.52">.</text>
<text x="101.91" y="463.05">.</text>
<text x="241.38" y="103.61">+</text>
<text x="99.85" y="460.46">.</text>
<text x="22.09" y="154.70">.</text>
<text x="428.00" y="186.25">.</text>
<text x="314.36" y="195.31">*</text>
<text x="283.92" y="32.64">*</text>
<text x="302.83" y="389.58">.</text>
<text x="74.19" y="417.22">+</text>
<text x="236.39" y="269.66">+</text>
<text x="248.99" y="135.57">.</text>
<text x="63.70" y="463.61">.</text>
<text x="492.03" y="494.24">+</text>
<text x="403.08" y="201.84">.</text>
<text x="71.70" y="28.88">.</text>
<text x="288.10" y="222.55">.</text>
<text x="497.31" y="436.74">+</text>
<text x="281.62" y="395.49">.</text>
<text x="462.58" y="270.76">*</text>
<text x="369.90" y="377.09">.</text>
<text x="153.17" y="214.82">.</text>
<text x="471.03" y="132.60">.</text>
<text x="356.92" y="325.03">.</text>
<text x="228.60" y="387.81">+</text>
<text x="35.57" y="498.38">.</text>
<text x="253.08" y="233.79">+</text>
<text x="376.25" y="84.85">.</text>
<text x="309.92" y="170.30">.</text>
<text x="80.53" y="480.68">.</text>
<text x="272.80" y="178.90">+</text>
<text x="20.77" y="335.43">*</text>
<text x="68.84" y="109.61">+</text>
<text x="235.58" y="87.95">+</text>
<text x="250.57" y="121.01">+</text>
<text x="428.49" y="174.78">.</text>
<text x="322.25" y="102.92">+</text>
<text x="73.23" y="342.63">.</text>
<text x="15.59" y="466.78">+</text>
<text x="4.99" y="46.68">+</text>
<text x="401.16" y="292.86">+</text>
<text x="276.03" y="267.83">.</text>
<text x="346.50" y="319.46">.</text>
<text x="15.84" y="176.93">.</text>
<text x="210.17" y="3.97">.</text>
<text x="139.59" y="221.47">+</text>
<text x="492.96" y="389.36">+</text>
<text x="442.25" y="437.77">.</text>
<text x="280.38" y="449.21">+</text>
<text x="20.37" y="47.11">.</text>
<text x="84.15" y="398.07">.</text>
<text x="444.39" y="189.02">+</text>
<text x="463.70" y="166.47">+</text>
<text x="134.60" y="197.24">+</text>
<text x="419.25" y="198.88">.</text>
<text x="307.23" y="167.98">+</text>
<text x="195.30" y="326.25">+</text>
<text x="128.62" y="10.12">+</text>
<text x="129.56" y="160.04">*</text>
<text x="174.04" y="123.67">+</text>
<text x="400.30" y="247.31">.</text>
<text x="0.23" y="431.57">+</text>
<text x="108.72" y="196.92">+</text>
<text x="489.59" y="257.14">.</text>
<text x="418.50" y="151.58">+</text>
<text x="364.12" y="265.71">+</text>
<text x="383.53" y="160.63">.</text>
<text x="443.86" y="314.13">+</text>
<text x="418.74" y="448.23">.</text>
<text x="80.48" y="78.41">+</text>
<text x="92.70" y="86.20">+</text>
<text x="375.87" y="41.92">+</text>
<text x="489.38" y="153.05">.</text>
<text x="95.45" y="127.27">+</text>
<text x="19.02" y="342.73">+</text>
<text x="45.94" y="321.98">.</text>
<text x="44.28" y="456.56">*</text>
<text x="270.77" y="159.22">+</text>
<text x="252.17" y="435.55">.</text>
<text x="87.02" y="149.64">+</text>
<text x="41.89" y="209.76">.</text>
<text x="71.07" y="70.14">.</text>
<text x="161.01" y="164.33">+</text>
<text x="369.10" y="114.90">+</text>
<text x="257.06" y="95.20">*</text>
<text x="66.53" y="1.16">.</text>
<text x="281.46" y="356.18">*</text>
<text x="366.72" y="445.10">.</text>
<text x="129.60" y="290.83">*</text>

</svg>