
<svg viewBox="0 0 500 500" xmlns="http://www.w.org/2000/svg" width="100%" height="100%" style="background-color: #0a0a14; font-family: 'Courier New', Courier, monospace;">
    <style>
        text { fill: #aaa; font-size: 10px; text-anchor: middle; dominant-baseline: middle; }
    </style>
    <text x="32.92" y="189.55">*</text>
<text x="15.72" y="449.76">*</text>
<text x="296.59" y="231.71">+</text>
<text x="220.69" y="71.56">.</text>
<text x="1.41" y="80.98">+</text>
<text x="65.49" y="287.05">+</text>
<text x="257.70" y="267.71">*</text>
<text x="444.50" y="60.07">+</text>
<text x="244.33" y="355.96">+</text>
<text x="15.32" y="400.61">*</text>
<text x="423.45" y="172.90">.</text>
<text x="322.62" y="82.19">+</text>
<text x="488.90" y="93.86">.</text>
<text x="105.67" y="31.41">.</text>
<text x="193.75" y="339.36">.</text>
<text x="271.70" y="118.42">+</text>
<text x="134.60" y="238.50">.</text>
<text x="174.21" y="217.43">*</text>
<text x="267.02" y="338.57">+</text>
<text x="456.94" y="29.17">+</text>
<text x="108.10" y="434.79">.</text>
<text x="307.30" y="380.77">*</text>
<text x="317.96" y="313.01">*</text>
<text x="270.11" y="266.26">+</text>
<text x="101.32" y="198.20">.</text>
<text x="483.68" y="465.38">*</text>
<text x="4.94" y="200.74">.</text>
<text x="265.67" y="118.08">.</text>
<text x="391.42" y="57.57">.</text>
<text x="419.69" y="199.63">.</text>
<text x="394.33" y="408.39">+</text>
<text x="236.99" y="58.93">+</text>
<text x="105.32" y="272.06">.</text>
<text x="149.41" y="0.97">.</text>
<text x="118.24" y="352.52">.</text>
<text x="103.71" y="102.94">+</text>
<text x="478.89" y="392.82">.</text>
<text x="324.97" y="375.75">*</text>
<text x="186.33" y="30.82">.</text>
<text x="262.40" y="164.20">.</text>
<text x="250.49" y="235.41">+</text>
<text x="236.71" y="223.30">*</text>
<text x="289.84" y="210.20">*</text>
<text x="409.68" y="496.10">+</text>
<text x="246.49" y="478.60">*</text>
<text x="309.10" y="190.96">*</text>
<text x="264.02" y="258.45">.</text>
<text x="445.65" y="490.55">.</text>
<text x="399.95" y="199.99">.</text>
<text x="117.68" y="439.82">+</text>
<text x="253.06" y="266.05">+</text>
<text x="343.61" y="208.26">.</text>
<text x="273.57" y="413.23">+</text>
<text x="454.43" y="166.89">+</text>
<text x="355.05" y="74.08">+</text>
<text x="232.17" y="401.41">+</text>
<text x="440.87" y="447.73">+</text>
<text x="239.43" y="185.75">+</text>
<text x="28.89" y="39.32">+</text>
<text x="81.48" y="387.92">+</text>
<text x="469.75" y="114.11">*</text>
<text x="92.81" y="416.75">.</text>
<text x="106.94" y="27.13">+</text>
<text x="98.07" y="372.09">+</text>
<text x="304.31" y="349.00">*</text>
<text x="282.77" y="343.85">*</text>
<text x="64.44" y="246.02">*</text>
<text x="398.29" y="395.32">*</text>
<text x="408.99" y="353.09">*</text>
<text x="13.89" y="1.62">.</text>
<text x="386.55" y="297.14">.</text>
<text x="304.53" y="324.35">.</text>
<text x="292.05" y="203.80">.</text>
<text x="140.53" y="33.24">.</text>
<text x="261.80" y="215.43">.</text>
<text x="435.20" y="443.65">+</text>
<text x="77.31" y="475.93">*</text>
<text x="163.75" y="67.46">.</text>
<text x="36.10" y="313.13">.</text>
<text x="161.70" y="165.03">+</text>
<text x="102.07" y="469.96">+</text>
<text x="239.30" y="26.00">.</text>
<text x="200.01" y="458.54">+</text>
<text x="349.10" y="342.44">+</text>
<text x="437.67" y="200.30">.</text>
<text x="274.00" y="271.12">.</text>
<text x="378.55" y="309.68">+</text>
<text x="143.36" y="229.50">+</text>
<text x="214.75" y="429.64">.</text>
<text x="303.97" y="228.99">.</text>
<text x="479.23" y="456.85">+</text>
<text x="75.31" y="99.64">+</text>
<text x="46.69" y="262.17">.</text>
<text x="10.16" y="458.25">.</text>
<text x="12.03" y="62.51">+</text>
<text x="474.32" y="281.87">+</text>
<text x="489.31" y="357.51">+</text>
<text x="333.49" y="420.70">.</text>
<text x="404.00" y="128.02">+</text>
<text x="151.76" y="328.64">+</text>
<text x="179.88" y="158.81">.</text>
<text x="307.31" y="242.46">.</text>
<text x="452.74" y="26.83">.</text>
<text x="145.39" y="466.73">.</text>
<text x="478.14" y="272.83">.</text>
<text x="9.01" y="458.96">.</text>
<text x="210.54" y="277.84">+</text>
<text x="159.03" y="414.15">+</text>
<text x="188.27" y="275.86">.</text>
<text x="223.50" y="174.59">*</text>
<text x="28.68" y="429.67">+</text>
<text x="236.97" y="320.15">.</text>
<text x="360.32" y="463.54">+</text>
<text x="462.96" y="401.44">+</text>
<text x="147.63" y="325.93">+</text>
<text x="196.54" y="233.15">+</text>
<text x="290.47" y="17.29">+</text>
<text x="299.11" y="195.34">+</text>
<text x="363.87" y="394.49">+</text>
<text x="201.62" y="438.49">.</text>
<text x="356.27" y="206.42">+</text>
<text x="350.11" y="482.37">.</text>
<text x="362.99" y="282.76">*</text>
<text x="396.44" y="452.24">.</text>
<text x="120.58" y="122.70">.</text>
<text x="357.39" y="216.89">+</text>
<text x="371.80" y="16.22">*</text>
<text x="259.59" y="133.28">.</text>
<text x="106.42" y="227.96">.</text>
<text x="353.42" y="351.45">+</text>
<text x="28.49" y="87.34">.</text>
<text x="3.44" y="372.00">*</text>
<text x="350.25" y="334.35">*</text>
<text x="384.19" y="229.79">+</text>
<text x="140.67" y="243.36">.</text>
<text x="175.35" y="11.78">.</text>
<text x="320.74" y="211.07">+</text>
<text x="457.52" y="361.46">*</text>
<text x="66.50" y="374.21">+</text>
<text x="20.04" y="351.32">.</text>
<text x="70.11" y="125.17">.</text>
<text x="10.04" y="78.36">+</text>
<text x="141.74" y="308.03">.</text>
<text x="356.76" y="106.46">.</text>
<text x="277.48" y="6.13">+</text>
<text x="356.74" y="361.24">.</text>
<text x="242.27" y="432.83">.</text>
<text x="368.46" y="319.83">.</text>
<text x="445.24" y="492.78">+</text>
<text x="210.13" y="104.93">.</text>
<text x="416.69" y="95.33">.</text>
<text x="107.53" y="245.28">.</text>
<text x="422.50" y="243.99">+</text>
<text x="64.53" y="190.83">+</text>
<text x="179.11" y="210.53">+</text>
<text x="408.24" y="22.29">.</text>
<text x="325.12" y="225.45">+</text>
<text x="113.93" y="21.15">.</text>
<text x="488.55" y="175.76">.</text>
<text x="39.46" y="394.97">.</text>
<text x="97.32" y="498.79">.</text>
<text x="483.25" y="123.50">+</text>
<text x="77.38" y="167.31">+</text>
<text x="183.35" y="140.78">+</text>
<text x="227.53" y="416.80">.</text>
<text x="334.01" y="131.90">.</text>
<text x="18.54" y="196.95">.</text>
<text x="289.59" y="153.19">+</text>
<text x="215.89" y="88.65">.</text>
<text x="292.71" y="73.62">.</text>
<text x="73.90" y="396.21">+</text>
<text x="263.38" y="340.76">.</text>
<text x="198.29" y="449.13">.</text>
<text x="289.42" y="50.58">*</text>
<text x="367.82" y="205.06">+</text>
<text x="97.96" y="123.22">+</text>
<text x="294.79" y="291.25">*</text>
<text x="408.54" y="101.02">*</text>
<text x="419.20" y="226.48">+</text>
<text x="455.09" y="224.74">+</text>
<text x="263.57" y="291.67">+</text>
<text x="112.71" y="199.34">+</text>
<text x="375.78" y="488.50">+</text>
<text x="428.33" y="427.66">+</text>
<text x="9.68" y="325.80">.</text>
<text x="199.00" y="467.65">*</text>
<text x="175.97" y="92.72">.</text>
<text x="271.51" y="305.98">.</text>
<text x="393.95" y="51.42">.</text>
<text x="425.63" y="378.15">*</text>
<text x="82.15" y="0.96">.</text>
<text x="463.61" y="156.36">.</text>
<text x="416.34" y="381.34">.</text>
<text x="106.01" y="43.92">.</text>
<text x="499.37" y="92.69">+</text>
<text x="360.01" y="106.39">+</text>
<text x="370.38" y="489.31">*</text>
<text x="239.15" y="474.28">.</text>
<text x="329.97" y="422.61">+</text>
<text x="147.37" y="461.87">*</text>
<text x="471.62" y="63.12">.</text>
<text x="405.07" y="327.88">+</text>
<text x="299.04" y="230.02">.</text>
<text x="396.16" y="374.50">*</text>
<text x="103.07" y="477.12">.</text>
<text x="93.69" y="422.97">+</text>
<text x="155.33" y="240.13">*</text>
<text x="456.57" y="118.94">.</text>
<text x="195.27" y="111.34">+</text>
<text x="188.61" y="61.28">*</text>
<text x="361.85" y="498.10">.</text>
<text x="476.22" y="231.16">.</text>
<text x="398.87" y="163.68">+</text>
<text x="317.64" y="115.03">+</text>
<text x="379.15" y="126.25">.</text>
<text x="302.58" y="148.72">.</text>
<text x="141.07" y="30.11">*</text>

</svg>