
<svg viewBox="0 0 500 500" xmlns="http://www.w.org/2000/svg" width="100%" height="100%" style="background-color: #0a0a14; font-family: 'Courier New', Courier, monospace;">
    <style>
        text { fill: #aaa; font-size: 10px; text-anchor: middle; dominant-baseline: middle; }
    </style>
    <text x="35.22" y="87.18">+</text>
<text x="67.49" y="224.05">+</text>
<text x="471.55" y="132.92">+</text>
<text x="300.78" y="102.40">.</text>
<text x="40.74" y="130.44">+</text>
<text x="475.99" y="274.51">+</text>
<text x="362.65" y="114.26">.</text>
<text x="403.65" y="288.47">+</text>
<text x="319.19" y="180.25">.</text>
<text x="469.40" y="70.56">+</text>
<text x="478.18" y="198.95">.</text>
<text x="55.81" y="46.99">+</text>
<text x="2.61" y="163.54">+</text>
<text x="189.91" y="278.11">*</text>
<text x="30.58" y="320.47">+</text>
<text x="191.61" y="444.88">+</text>
<text x="417.20" y="478.35">.</text>
<text x="323.94" y="139.85">+</text>
<text x="401.31" y="94.69">.</text>
<text x="108.19" y="496.08">+</text>
<text x="368.81" y="182.02">.</text>
<text x="137.02" y="485.96">+</text>
<text x="188.37" y="29.68">.</text>
<text x="457.26" y="476.31">.</text>
<text x="52.81" y="229.03">*</text>
<text x="496.52" y="125.56">+</text>
<text x="51.87" y="1.10">.</text>
<text x="352.59" y="416.33">+</text>
<text x="499.77" y="493.60">.</text>
<text x="456.60" y="358.05">+</text>
<text x="166.77" y="246.28">.</text>
<text x="22.06" y="410.41">.</text>
<text x="353.73" y="451.24">.</text>
<text x="219.59" y="118.54">+</text>
<text x="205.11" y="49.28">+</text>
<text x="349.36" y="176.56">+</text>
<text x="221.76" y="238.95">+</text>
<text x="432.84" y="180.96">+</text>
<text x="350.77" y="272.80">+</text>
<text x="131.58" y="433.48">+</text>
<text x="252.98" y="207.62">.</text>
<text x="389.25" y="22.61">+</text>
<text x="256.81" y="388.73">+</text>
<text x="493.35" y="84.06">.</text>
<text x="429.65" y="123.14">+</text>
<text x="56.38" y="205.64">+</text>
<text x="461.66" y="104.27">.</text>
<text x="412.53" y="292.19">*</text>
<text x="247.12" y="32.74">.</text>
<text x="12.64" y="347.34">+</text>
<text x="471.21" y="38.00">+</text>
<text x="427.50" y="239.59">.</text>
<text x="499.50" y="152.93">+</text>
<text x="483.26" y="372.61">*</text>
<text x="239.70" y="172.17">+</text>
<text x="447.13" y="177.82">+</text>
<text x="28.14" y="355.34">+</text>
<text x="28.73" y="234.08">.</text>
<text x="467.85" y="242.58">.</text>
<text x="296.21" y="151.12">.</text>
<text x="315.97" y="261.62">.</text>
<text x="128.66" y="36.61">.</text>
<text x="320.50" y="63.30">.</text>
<text x="96.20" y="34.65">.</text>
<text x="418.21" y="344.81">*</text>
<text x="462.95" y="135.09">*</text>
<text x="290.16" y="443.20">+</text>
<text x="80.87" y="53.23">+</text>
<text x="410.86" y="381.87">.</text>
<text x="363.07" y="481.36">*</text>
<text x="488.23" y="452.37">.</text>
<text x="274.61" y="489.34">.</text>
<text x="247.26" y="167.99">+</text>
<text x="61.95" y="468.45">.</text>
<text x="254.02" y="359.45">.</text>
<text x="15.25" y="334.45">+</text>
<text x="474.01" y="342.82">+</text>
<text x="291.36" y="291.55">.</text>
<text x="374.60" y="107.80">.</text>
<text x="149.13" y="21.23">+</text>
<text x="132.09" y="477.68">.</text>
<text x="149.46" y="477.47">+</text>
<text x="424.79" y="255.25">.</text>
<text x="353.85" y="218.72">.</text>
<text x="290.54" y="381.18">*</text>
<text x="241.42" y="157.04">.</text>
<text x="186.60" y="172.11">+</text>
<text x="68.28" y="378.38">.</text>
<text x="159.02" y="299.13">+</text>
<text x="340.44" y="387.76">+</text>
<text x="116.30" y="491.12">+</text>
<text x="40.23" y="478.97">.</text>
<text x="151.04" y="301.05">.</text>
<text x="268.68" y="131.78">.</text>
<text x="329.00" y="72.82">+</text>
<text x="17.33" y="145.38">*</text>
<text x="433.87" y="313.41">.</text>
<text x="5.78" y="321.74">+</text>
<text x="190.45" y="238.74">+</text>
<text x="345.36" y="181.49">.</text>
<text x="19.69" y="420.75">.</text>
<text x="13.13" y="363.91">.</text>
<text x="92.21" y="361.50">+</text>
<text x="1.84" y="402.87">.</text>
<text x="248.90" y="50.52">.</text>
<text x="158.30" y="157.11">.</text>
<text x="153.93" y="193.86">*</text>
<text x="213.20" y="40.08">+</text>
<text x="258.01" y="408.17">.</text>
<text x="196.54" y="292.29">.</text>
<text x="187.66" y="475.03">+</text>
<text x="402.80" y="177.12">.</text>
<text x="307.13" y="326.56">+</text>
<text x="375.99" y="34.02">*</text>
<text x="452.33" y="141.83">+</text>
<text x="218.62" y="15.56">.</text>
<text x="282.50" y="189.19">.</text>
<text x="48.35" y="71.68">+</text>
<text x="6.95" y="288.97">.</text>
<text x="264.25" y="311.98">.</text>
<text x="149.74" y="303.69">*</text>
<text x="370.63" y="371.35">+</text>
<text x="21.58" y="48.45">+</text>
<text x="250.09" y="384.18">.</text>
<text x="79.94" y="385.23">.</text>
<text x="32.54" y="152.63">.</text>
<text x="309.91" y="92.36">.</text>
<text x="406.99" y="302.24">.</text>
<text x="140.14" y="421.85">.</text>
<text x="145.73" y="281.83">+</text>
<text x="175.15" y="284.73">*</text>
<text x="10.97" y="357.46">+</text>
<text x="284.03" y="460.41">.</text>
<text x="282.47" y="168.79">.</text>
<text x="85.03" y="151.86">.</text>
<text x="168.62" y="336.90">+</text>
<text x="429.29" y="22.67">.</text>
<text x="28.63" y="278.06">.</text>
<text x="365.88" y="362.81">.</text>
<text x="210.10" y="63.11">.</text>
<text x="446.52" y="272.90">*</text>
<text x="158.16" y="33.90">+</text>
<text x="344.91" y="229.60">.</text>
<text x="447.19" y="321.55">.</text>
<text x="352.77" y="207.35">.</text>
<text x="274.68" y="443.29">.</text>
<text x="195.79" y="146.45">.</text>
<text x="138.13" y="361.49">+</text>
<text x="434.55" y="241.76">.</text>
<text x="454.98" y="173.48">+</text>
<text x="176.32" y="466.98">.</text>
<text x="94.91" y="362.15">.</text>
<text x="173.10" y="405.43">*</text>
<text x="172.29" y="112.00">+</text>
<text x="438.19" y="291.38">*</text>
<text x="329.36" y="184.54">+</text>
<text x="86.53" y="435.24">.</text>
<text x="497.51" y="471.10">.</text>
<text x="340.91" y="432.23">.</text>
<text x="464.91" y="159.39">.</text>
<text x="30.93" y="170.83">*</text>
<text x="451.52" y="325.28">.</text>
<text x="308.12" y="221.46">.</text>
<text x="405.53" y="485.60">+</text>
<text x="168.17" y="35.94">*</text>
<text x="243.38" y="223.56">.</text>
<text x="421.72" y="41.78">.</text>
<text x="474.00" y="189.35">+</text>
<text x="430.26" y="236.72">.</text>
<text x="38.38" y="422.82">*</text>
<text x="4.60" y="185.38">+</text>
<text x="340.40" y="114.87">.</text>
<text x="450.22" y="190.23">*</text>
<text x="340.06" y="282.33">+</text>
<text x="104.54" y="432.96">+</text>
<text x="398.43" y="123.43">*</text>
<text x="441.71" y="339.81">.</text>
<text x="335.44" y="149.64">.</text>
<text x="491.22" y="86.48">.</text>
<text x="394.02" y="289.77">+</text>
<text x="328.48" y="294.57">.</text>
<text x="93.72" y="139.93">+</text>
<text x="429.05" y="293.72">+</text>
<text x="145.98" y="54.21">.</text>
<text x="26.84" y="183.45">.</text>
<text x="260.81" y="87.08">.</text>
<text x="4.06" y="341.24">+</text>
<text x="137.65" y="31.19">+</text>
<text x="472.58" y="341.67">+</text>
<text x="72.51" y="194.00">.</text>
<text x="375.42" y="98.83">+</text>
<text x="12.87" y="73.86">.</text>
<text x="34.32" y="427.03">.</text>
<text x="44.00" y="183.60">+</text>
<text x="127.76" y="178.49">.</text>
<text x="451.55" y="251.58">.</text>
<text x="267.33" y="362.87">*</text>
<text x="319.43" y="451.38">+</text>
<text x="207.17" y="292.43">+</text>
<text x="4.81" y="273.61">.</text>
<text x="129.63" y="106.35">.</text>
<text x="469.81" y="295.74">.</text>

</svg>