
<svg viewBox="0 0 500 500" xmlns="http://www.w.org/2000/svg" width="100%" height="100%" style="background-color: #0a0a14; font-family: 'Courier New', Courier, monospace;">
    <style>
        text { fill: #aaa; font-size: 10px; text-anchor: middle; dominant-baseline: middle; }
    </style>
    <text x="450.47" y="355.61">.</text>
<text x="289.44" y="415.34">.</text>
<text x="182.35" y="255.90">.</text>
<text x="78.34" y="280.09">+</text>
<text x="7.89" y="429.82">.</text>
<text x="401.32" y="373.61">+</text>
<text x="124.01" y="133.65">+</text>
<text x="84.55" y="299.65">.</text>
<text x="497.53" y="465.44">+</text>
<text x="97.43" y="257.23">.</text>
<text x="205.63" y="117.14">+</text>
<text x="114.73" y="73.69">.</text>
<text x="378.78" y="328.39">.</text>
<text x="31.04" y="404.27">.</text>
<text x="386.45" y="63.25">.</text>
<text x="240.51" y="411.85">.</text>
<text x="272.68" y="403.94">*</text>
<text x="151.50" y="223.57">+</text>
<text x="270.63" y="282.01">.</text>
<text x="146.16" y="458.31">*</text>
<text x="251.43" y="115.20">.</text>
<text x="151.83" y="30.76">+</text>
<text x="43.82" y="251.33">.</text>
<text x="30.17" y="143.76">+</text>
<text x="132.94" y="322.36">.</text>
<text x="185.06" y="111.39">*</text>
<text x="185.13" y="393.93">+</text>
<text x="246.20" y="24.06">+</text>
<text x="458.68" y="321.62">.</text>
<text x="144.62" y="497.92">.</text>
<text x="227.04" y="205.29">+</text>
<text x="74.19" y="264.96">*</text>
<text x="133.47" y="203.34">*</text>
<text x="302.45" y="448.40">+</text>
<text x="307.92" y="291.09">+</text>
<text x="266.19" y="471.11">+</text>
<text x="367.71" y="326.32">+</text>
<text x="320.37" y="467.60">.</text>
<text x="251.79" y="224.32">+</text>
<text x="295.94" y="302.42">.</text>
<text x="366.67" y="79.70">+</text>
<text x="123.24" y="89.32">.</text>
<text x="287.13" y="95.90">+</text>
<text x="435.14" y="90.40">+</text>
<text x="208.14" y="215.32">+</text>
<text x="393.46" y="279.39">+</text>
<text x="64.49" y="239.76">*</text>
<text x="435.61" y="331.95">+</text>
<text x="284.89" y="479.33">+</text>
<text x="411.29" y="123.25">+</text>
<text x="274.22" y="327.46">*</text>
<text x="4.95" y="209.66">.</text>
<text x="143.19" y="40.21">+</text>
<text x="235.74" y="28.57">+</text>
<text x="352.18" y="254.56">*</text>
<text x="253.02" y="479.38">.</text>
<text x="97.39" y="173.55">+</text>
<text x="40.69" y="267.35">.</text>
<text x="454.84" y="257.05">.</text>
<text x="337.42" y="435.04">.</text>
<text x="499.14" y="430.55">.</text>
<text x="149.41" y="3.91">*</text>
<text x="121.83" y="295.00">+</text>
<text x="467.75" y="222.86">+</text>
<text x="377.93" y="221.06">.</text>
<text x="293.38" y="438.02">+</text>
<text x="312.16" y="161.07">+</text>
<text x="398.05" y="113.29">*</text>
<text x="12.45" y="287.63">.</text>
<text x="481.44" y="107.03">.</text>
<text x="195.98" y="419.31">.</text>
<text x="413.03" y="224.90">*</text>
<text x="95.71" y="342.06">+</text>
<text x="354.56" y="338.81">.</text>
<text x="350.06" y="194.16">+</text>
<text x="331.39" y="299.95">.</text>
<text x="133.17" y="497.39">.</text>
<text x="489.43" y="323.42">*</text>
<text x="383.75" y="181.01">.</text>
<text x="359.40" y="54.85">+</text>
<text x="207.22" y="69.78">+</text>
<text x="140.13" y="478.55">.</text>
<text x="437.15" y="5.17">+</text>
<text x="58.25" y="432.94">.</text>
<text x="150.33" y="135.43">*</text>
<text x="267.69" y="167.91">.</text>
<text x="45.26" y="254.05">+</text>
<text x="326.06" y="353.75">+</text>
<text x="179.01" y="9.45">.</text>
<text x="1.77" y="116.32">+</text>
<text x="272.13" y="467.96">.</text>
<text x="350.92" y="218.33">.</text>
<text x="172.42" y="278.66">+</text>
<text x="252.73" y="170.91">.</text>
<text x="187.39" y="162.73">.</text>
<text x="495.17" y="175.64">+</text>
<text x="253.07" y="58.11">.</text>
<text x="97.83" y="330.34">+</text>
<text x="436.35" y="0.10">.</text>
<text x="404.97" y="173.60">*</text>
<text x="451.86" y="188.71">+</text>
<text x="246.12" y="230.56">*</text>
<text x="53.29" y="264.81">+</text>
<text x="30.63" y="148.43">+</text>
<text x="284.34" y="102.40">.</text>
<text x="377.73" y="93.77">.</text>
<text x="399.21" y="54.53">.</text>
<text x="47.74" y="73.33">.</text>
<text x="325.56" y="177.63">.</text>
<text x="130.62" y="474.95">.</text>
<text x="209.99" y="297.16">.</text>
<text x="373.49" y="217.73">+</text>
<text x="278.49" y="441.34">.</text>
<text x="281.13" y="263.46">+</text>
<text x="180.41" y="481.45">.</text>
<text x="95.88" y="456.36">+</text>
<text x="131.32" y="359.19">.</text>
<text x="154.35" y="408.22">.</text>
<text x="170.91" y="143.66">+</text>
<text x="360.04" y="359.40">.</text>
<text x="375.69" y="85.38">+</text>
<text x="302.66" y="422.98">*</text>
<text x="168.65" y="293.25">.</text>
<text x="61.09" y="464.88">.</text>
<text x="335.32" y="260.89">+</text>
<text x="220.50" y="430.40">+</text>
<text x="223.33" y="74.48">.</text>
<text x="109.15" y="11.50">+</text>
<text x="181.69" y="56.14">+</text>
<text x="314.80" y="403.05">.</text>
<text x="372.46" y="122.94">+</text>
<text x="443.92" y="475.21">+</text>
<text x="42.41" y="326.33">.</text>
<text x="366.56" y="21.60">*</text>
<text x="282.65" y="222.40">+</text>
<text x="409.65" y="201.82">*</text>
<text x="351.82" y="185.85">.</text>
<text x="230.45" y="16.04">+</text>
<text x="250.49" y="409.62">+</text>
<text x="498.11" y="411.99">.</text>
<text x="300.75" y="497.98">.</text>
<text x="3.51" y="102.28">+</text>
<text x="86.94" y="232.76">.</text>
<text x="451.68" y="158.43">.</text>
<text x="230.33" y="42.69">.</text>
<text x="11.98" y="244.08">.</text>
<text x="481.16" y="440.96">.</text>
<text x="142.84" y="77.79">.</text>
<text x="92.88" y="303.02">.</text>
<text x="368.36" y="99.96">+</text>
<text x="100.04" y="163.98">*</text>
<text x="56.35" y="346.97">+</text>
<text x="267.72" y="131.97">+</text>
<text x="121.38" y="469.16">+</text>
<text x="171.28" y="180.31">+</text>
<text x="120.38" y="308.65">+</text>
<text x="193.41" y="344.98">+</text>
<text x="83.30" y="105.14">+</text>
<text x="477.33" y="490.85">+</text>
<text x="92.09" y="469.18">+</text>
<text x="376.92" y="123.93">+</text>
<text x="143.02" y="454.13">.</text>
<text x="267.84" y="49.10">+</text>
<text x="381.64" y="155.86">.</text>
<text x="232.31" y="432.44">.</text>
<text x="17.05" y="260.07">.</text>
<text x="418.57" y="198.60">+</text>
<text x="310.70" y="157.13">+</text>
<text x="326.17" y="59.74">.</text>
<text x="289.77" y="100.08">.</text>
<text x="434.36" y="257.56">.</text>
<text x="80.06" y="224.44">+</text>
<text x="311.20" y="161.32">+</text>
<text x="332.20" y="478.17">+</text>
<text x="111.85" y="13.43">.</text>
<text x="196.81" y="32.10">*</text>
<text x="310.29" y="4.93">+</text>
<text x="403.75" y="428.79">+</text>
<text x="227.93" y="174.46">+</text>
<text x="464.38" y="245.16">*</text>
<text x="138.15" y="347.32">+</text>
<text x="100.70" y="456.22">.</text>
<text x="158.59" y="367.78">*</text>
<text x="301.35" y="390.74">.</text>
<text x="322.69" y="487.39">+</text>
<text x="131.70" y="422.99">.</text>
<text x="183.88" y="195.23">+</text>
<text x="223.91" y="146.37">+</text>
<text x="148.21" y="228.79">*</text>
<text x="393.05" y="252.81">.</text>
<text x="161.50" y="47.39">.</text>
<text x="93.60" y="266.95">+</text>
<text x="261.76" y="205.88">+</text>
<text x="484.90" y="428.85">.</text>
<text x="368.96" y="82.88">.</text>
<text x="329.31" y="90.06">+</text>
<text x="106.97" y="376.98">+</text>
<text x="295.03" y="216.47">+</text>
<text x="455.18" y="270.90">.</text>
<text x="422.77" y="68.88">+</text>
<text x="248.81" y="427.71">+</text>
<text x="288.72" y="246.59">+</text>
<text x="60.92" y="430.68">+</text>
<text x="247.65" y="68.03">.</text>
<text x="243.59" y="165.76">.</text>
<text x="52.29" y="244.34">+</text>
<text x="390.53" y="396.71">.</text>
<text x="89.89" y="375.85">+</text>
<text x="103.93" y="162.61">*</text>
<text x="83.71" y="156.73">+</text>
<text x="104.45" y="141.67">+</text>
<text x="43.84" y="45.14">+</text>
<text x="339.06" y="150.06">.</text>
<text x="420.72" y="107.52">+</text>
<text x="127.23" y="126.57">.</text>

</svg>