
<svg viewBox="0 0 500 500" xmlns="http://www.w.org/2000/svg" width="100%" height="100%" style="background-color: #0a0a14; font-family: 'Courier New', Courier, monospace;">
    <style>
        text { fill: #aaa; font-size: 10px; text-anchor: middle; dominant-baseline: middle; }
    </style>
    <text x="480.66" y="161.31">.</text>
<text x="395.57" y="403.54">+</text>
<text x="112.29" y="171.81">+</text>
<text x="362.96" y="348.79">+</text>
<text x="485.50" y="258.09">*</text>
<text x="67.85" y="429.12">+</text>
<text x="159.48" y="253.22">+</text>
<text x="110.77" y="265.00">*</text>
<text x="64.34" y="223.37">.</text>
<text x="474.27" y="390.47">+</text>
<text x="329.52" y="328.39">.</text>
<text x="233.59" y="80.25">+</text>
<text x="63.50" y="161.47">*</text>
<text x="115.89" y="232.34">+</text>
<text x="317.80" y="326.39">.</text>
<text x="249.09" y="359.06">+</text>
<text x="245.49" y="229.53">+</text>
<text x="318.45" y="108.44">+</text>
<text x="56.96" y="238.50">.</text>
<text x="357.08" y="440.59">.</text>
<text x="333.61" y="376.43">+</text>
<text x="445.58" y="270.55">.</text>
<text x="104.83" y="13.80">.</text>
<text x="139.96" y="171.07">.</text>
<text x="62.62" y="74.02">.</text>
<text x="451.90" y="207.71">.</text>
<text x="417.53" y="0.32">*</text>
<text x="232.69" y="424.69">+</text>
<text x="99.21" y="57.86">+</text>
<text x="90.92" y="21.18">.</text>
<text x="229.09" y="59.88">.</text>
<text x="338.19" y="199.74">.</text>
<text x="243.61" y="192.71">*</text>
<text x="422.54" y="358.18">*</text>
<text x="407.38" y="42.04">+</text>
<text x="148.01" y="410.17">+</text>
<text x="149.15" y="433.20">*</text>
<text x="308.43" y="470.65">.</text>
<text x="264.49" y="256.47">+</text>
<text x="376.65" y="38.25">.</text>
<text x="347.48" y="237.31">.</text>
<text x="485.89" y="35.07">.</text>
<text x="347.90" y="495.97">*</text>
<text x="335.30" y="296.78">+</text>
<text x="49.97" y="33.39">.</text>
<text x="35.01" y="203.55">*</text>
<text x="294.91" y="307.39">.</text>
<text x="368.47" y="134.15">+</text>
<text x="387.13" y="61.95">*</text>
<text x="497.90" y="120.84">+</text>
<text x="384.14" y="331.22">.</text>
<text x="65.38" y="470.93">*</text>
<text x="217.78" y="190.05">.</text>
<text x="357.60" y="199.05">.</text>
<text x="4.98" y="210.30">.</text>
<text x="23.45" y="322.88">.</text>
<text x="415.86" y="364.96">.</text>
<text x="194.05" y="330.00">.</text>
<text x="231.90" y="50.41">.</text>
<text x="299.23" y="324.29">.</text>
<text x="353.47" y="25.64">.</text>
<text x="202.36" y="199.92">.</text>
<text x="140.35" y="77.64">*</text>
<text x="495.56" y="492.98">*</text>
<text x="498.55" y="288.86">+</text>
<text x="167.36" y="122.30">+</text>
<text x="349.70" y="492.19">*</text>
<text x="337.30" y="236.50">*</text>
<text x="40.21" y="169.85">*</text>
<text x="239.82" y="366.48">.</text>
<text x="378.94" y="333.56">.</text>
<text x="52.46" y="140.26">*</text>
<text x="443.97" y="35.53">.</text>
<text x="286.10" y="448.61">+</text>
<text x="211.45" y="493.71">.</text>
<text x="266.85" y="29.22">.</text>
<text x="220.42" y="86.01">+</text>
<text x="411.05" y="370.64">+</text>
<text x="87.75" y="187.19">+</text>
<text x="193.69" y="431.97">.</text>
<text x="166.82" y="468.60">+</text>
<text x="165.82" y="356.44">+</text>
<text x="296.78" y="285.33">.</text>
<text x="375.89" y="481.99">+</text>
<text x="229.74" y="57.29">.</text>
<text x="476.31" y="342.15">.</text>
<text x="163.95" y="142.51">+</text>
<text x="275.10" y="376.18">+</text>
<text x="131.62" y="271.95">.</text>
<text x="336.93" y="394.05">.</text>
<text x="339.39" y="495.66">.</text>
<text x="312.01" y="66.48">.</text>
<text x="404.15" y="397.11">.</text>
<text x="256.80" y="165.86">+</text>
<text x="306.04" y="256.99">+</text>
<text x="130.66" y="84.94">+</text>
<text x="5.33" y="409.46">.</text>
<text x="423.30" y="101.77">.</text>
<text x="72.97" y="119.87">+</text>
<text x="191.89" y="447.45">+</text>
<text x="335.10" y="118.69">.</text>
<text x="257.22" y="268.94">+</text>
<text x="254.72" y="496.15">.</text>
<text x="125.13" y="146.20">.</text>
<text x="473.96" y="262.94">.</text>
<text x="37.74" y="390.10">+</text>
<text x="339.66" y="378.43">.</text>
<text x="112.39" y="359.72">.</text>
<text x="480.65" y="283.10">+</text>
<text x="254.91" y="455.48">.</text>
<text x="26.59" y="402.03">*</text>
<text x="49.31" y="125.82">+</text>
<text x="293.91" y="118.61">+</text>
<text x="120.37" y="253.12">.</text>
<text x="291.29" y="99.10">+</text>
<text x="230.16" y="45.10">.</text>
<text x="418.91" y="74.50">+</text>
<text x="221.20" y="414.67">.</text>
<text x="282.49" y="448.44">+</text>
<text x="67.63" y="51.67">.</text>
<text x="328.92" y="239.35">.</text>
<text x="392.85" y="361.19">+</text>
<text x="228.69" y="309.08">.</text>
<text x="2.65" y="486.04">.</text>
<text x="12.05" y="181.82">.</text>
<text x="127.01" y="332.32">.</text>
<text x="12.52" y="200.17">.</text>
<text x="281.84" y="250.85">.</text>
<text x="345.58" y="447.17">+</text>
<text x="237.65" y="72.67">.</text>
<text x="122.09" y="481.52">.</text>
<text x="47.99" y="286.57">+</text>
<text x="175.59" y="254.05">.</text>
<text x="62.53" y="176.77">+</text>
<text x="295.84" y="125.66">.</text>
<text x="463.54" y="417.14">.</text>
<text x="446.55" y="88.00">*</text>
<text x="253.66" y="238.86">+</text>
<text x="223.11" y="41.20">.</text>
<text x="26.79" y="211.71">+</text>
<text x="422.35" y="395.64">+</text>
<text x="175.92" y="332.13">.</text>
<text x="137.32" y="34.33">*</text>
<text x="381.62" y="23.87">*</text>
<text x="444.68" y="450.23">.</text>
<text x="183.61" y="115.62">+</text>
<text x="134.56" y="278.41">+</text>
<text x="237.66" y="201.05">+</text>
<text x="405.78" y="81.25">+</text>
<text x="74.79" y="32.11">+</text>
<text x="451.25" y="312.16">.</text>
<text x="257.82" y="29.49">+</text>
<text x="428.70" y="420.00">.</text>
<text x="421.27" y="137.67">.</text>
<text x="310.89" y="53.20">.</text>
<text x="299.98" y="235.58">+</text>
<text x="462.64" y="254.29">.</text>
<text x="401.99" y="366.92">+</text>
<text x="496.84" y="258.76">+</text>
<text x="246.78" y="460.31">.</text>
<text x="409.60" y="266.68">.</text>
<text x="430.09" y="195.72">+</text>
<text x="100.00" y="221.24">+</text>
<text x="93.71" y="347.87">.</text>
<text x="345.75" y="457.45">+</text>
<text x="243.40" y="304.89">+</text>
<text x="362.49" y="305.88">*</text>
<text x="421.64" y="476.98">+</text>
<text x="155.24" y="394.95">.</text>
<text x="104.98" y="148.21">*</text>
<text x="106.97" y="467.94">+</text>
<text x="458.86" y="454.31">+</text>
<text x="322.51" y="474.71">.</text>
<text x="384.76" y="256.73">+</text>
<text x="350.48" y="40.60">+</text>
<text x="218.76" y="112.86">+</text>
<text x="128.31" y="396.87">+</text>
<text x="194.93" y="400.31">+</text>
<text x="362.56" y="240.28">*</text>
<text x="262.88" y="460.84">+</text>
<text x="69.37" y="284.71">+</text>
<text x="83.47" y="468.67">.</text>
<text x="4.13" y="137.73">+</text>
<text x="347.86" y="407.45">+</text>
<text x="463.06" y="368.30">.</text>
<text x="390.91" y="460.16">.</text>
<text x="416.12" y="20.11">.</text>
<text x="473.29" y="132.83">+</text>
<text x="315.81" y="163.41">.</text>
<text x="420.07" y="362.96">+</text>
<text x="445.29" y="233.33">*</text>
<text x="11.72" y="127.94">.</text>
<text x="470.59" y="48.97">+</text>
<text x="323.13" y="425.51">.</text>
<text x="253.05" y="185.82">+</text>
<text x="215.20" y="0.04">+</text>
<text x="174.98" y="259.66">+</text>
<text x="435.15" y="394.77">.</text>
<text x="385.43" y="165.94">+</text>
<text x="476.19" y="186.94">+</text>
<text x="453.74" y="72.89">+</text>
<text x="483.95" y="422.81">.</text>
<text x="386.57" y="320.87">*</text>
<text x="206.09" y="481.40">.</text>
<text x="160.36" y="170.85">*</text>
<text x="432.11" y="333.30">+</text>
<text x="423.20" y="228.60">+</text>
<text x="229.17" y="108.53">+</text>
<text x="476.94" y="315.83">+</text>
<text x="480.03" y="2.68">+</text>

</svg>