
<svg viewBox="0 0 500 500" xmlns="http://www.w.org/2000/svg" width="100%" height="100%" style="background-color: #0a0a14; font-family: 'Courier New', Courier, monospace;">
    <style>
        text { fill: #aaa; font-size: 10px; text-anchor: middle; dominant-baseline: middle; }
    </style>
    <text x="380.10" y="247.98">.</text>
<text x="139.62" y="373.15">+</text>
<text x="437.29" y="360.97">.</text>
<text x="230.77" y="332.07">.</text>
<text x="79.63" y="434.38">.</text>
<text x="497.28" y="13.90">+</text>
<text x="381.70" y="385.41">.</text>
<text x="133.77" y="498.93">+</text>
<text x="285.77" y="55.40">.</text>
<text x="458.89" y="409.53">*</text>
<text x="60.95" y="488.71">.</text>
<text x="12.87" y="395.65">+</text>
<text x="26.58" y="236.95">+</text>
<text x="266.79" y="24.82">.</text>
<text x="387.95" y="179.92">+</text>
<text x="92.56" y="434.72">.</text>
<text x="41.18" y="459.18">.</text>
<text x="470.69" y="313.06">*</text>
<text x="195.55" y="423.15">+</text>
<text x="113.78" y="361.05">.</text>
<text x="68.34" y="159.21">.</text>
<text x="223.72" y="286.08">+</text>
<text x="156.17" y="342.18">+</text>
<text x="160.89" y="67.49">.</text>
<text x="423.87" y="2.16">+</text>
<text x="381.22" y="296.86">*</text>
<text x="90.57" y="3.17">.</text>
<text x="291.77" y="57.33">+</text>
<text x="340.16" y="319.71">*</text>
<text x="393.75" y="431.14">.</text>
<text x="198.48" y="161.60">+</text>
<text x="133.81" y="32.13">*</text>
<text x="272.78" y="360.58">.</text>
<text x="188.31" y="433.22">.</text>
<text x="351.35" y="202.14">.</text>
<text x="55.25" y="97.53">+</text>
<text x="496.38" y="3.18">*</text>
<text x="84.40" y="373.02">.</text>
<text x="292.30" y="140.16">.</text>
<text x="371.39" y="465.35">.</text>
<text x="49.04" y="366.13">*</text>
<text x="103.30" y="406.92">+</text>
<text x="71.46" y="241.80">.</text>
<text x="458.78" y="246.86">*</text>
<text x="112.05" y="311.03">+</text>
<text x="445.64" y="92.20">.</text>
<text x="323.85" y="375.67">.</text>
<text x="97.93" y="48.42">*</text>
<text x="210.89" y="93.68">+</text>
<text x="142.10" y="352.67">.</text>
<text x="226.11" y="19.62">.</text>
<text x="277.24" y="437.55">+</text>
<text x="369.94" y="142.45">+</text>
<text x="228.40" y="101.20">*</text>
<text x="470.07" y="244.45">.</text>
<text x="256.01" y="420.32">.</text>
<text x="80.24" y="2.77">+</text>
<text x="216.87" y="478.51">+</text>
<text x="65.09" y="4.51">*</text>
<text x="469.07" y="390.09">.</text>
<text x="441.57" y="24.55">+</text>
<text x="44.10" y="399.19">+</text>
<text x="458.66" y="3.00">*</text>
<text x="401.35" y="25.61">+</text>
<text x="309.09" y="436.02">+</text>
<text x="205.78" y="434.45">+</text>
<text x="343.64" y="223.04">+</text>
<text x="225.28" y="435.31">+</text>
<text x="236.29" y="267.07">+</text>
<text x="307.22" y="479.66">+</text>
<text x="447.38" y="418.23">.</text>
<text x="10.21" y="63.78">+</text>
<text x="439.76" y="135.37">.</text>
<text x="208.62" y="181.82">+</text>
<text x="221.72" y="148.33">+</text>
<text x="399.64" y="313.69">*</text>
<text x="38.26" y="33.39">*</text>
<text x="416.59" y="274.95">*</text>
<text x="373.35" y="499.58">.</text>
<text x="499.67" y="414.15">+</text>
<text x="112.31" y="128.30">+</text>
<text x="364.92" y="282.56">*</text>
<text x="153.51" y="318.02">+</text>
<text x="171.50" y="369.91">+</text>
<text x="65.88" y="372.61">.</text>
<text x="80.31" y="427.19">*</text>
<text x="495.15" y="76.34">.</text>
<text x="307.02" y="325.18">+</text>
<text x="102.54" y="122.42">.</text>
<text x="231.87" y="367.57">+</text>
<text x="483.85" y="360.26">+</text>
<text x="230.18" y="451.23">+</text>
<text x="240.40" y="281.80">.</text>
<text x="179.49" y="92.61">.</text>
<text x="122.95" y="344.59">.</text>
<text x="401.32" y="437.22">.</text>
<text x="462.91" y="313.35">+</text>
<text x="271.99" y="497.81">.</text>
<text x="6.97" y="380.65">.</text>
<text x="424.81" y="302.73">.</text>
<text x="3.34" y="57.45">+</text>
<text x="434.42" y="280.03">.</text>
<text x="149.98" y="169.09">.</text>
<text x="24.98" y="373.82">.</text>
<text x="185.83" y="262.28">.</text>
<text x="482.49" y="471.35">*</text>
<text x="426.99" y="228.71">*</text>
<text x="390.49" y="428.52">.</text>
<text x="53.03" y="274.77">+</text>
<text x="274.36" y="340.72">+</text>
<text x="296.78" y="357.86">.</text>
<text x="207.23" y="163.46">+</text>
<text x="378.31" y="364.97">+</text>
<text x="104.34" y="132.97">+</text>
<text x="206.94" y="16.08">.</text>
<text x="462.94" y="328.32">.</text>
<text x="368.20" y="434.95">.</text>
<text x="166.33" y="109.22">.</text>
<text x="342.58" y="138.79">+</text>
<text x="146.02" y="418.58">+</text>
<text x="85.11" y="310.01">+</text>
<text x="353.16" y="131.80">.</text>
<text x="390.81" y="83.11">.</text>
<text x="57.50" y="420.35">+</text>
<text x="174.30" y="158.77">.</text>
<text x="347.17" y="81.91">.</text>
<text x="446.63" y="241.95">.</text>
<text x="121.06" y="398.54">*</text>
<text x="386.30" y="419.23">+</text>
<text x="264.47" y="411.31">.</text>
<text x="228.31" y="251.42">+</text>
<text x="196.33" y="96.58">.</text>
<text x="190.47" y="110.21">*</text>
<text x="48.47" y="93.58">+</text>
<text x="494.47" y="497.28">.</text>
<text x="464.69" y="347.30">.</text>
<text x="283.60" y="486.44">.</text>
<text x="281.96" y="20.65">+</text>
<text x="224.65" y="80.29">*</text>
<text x="393.06" y="118.24">+</text>
<text x="30.47" y="184.54">.</text>
<text x="320.73" y="383.83">+</text>
<text x="406.52" y="34.66">.</text>
<text x="48.68" y="258.17">.</text>
<text x="21.20" y="283.88">+</text>
<text x="285.24" y="300.44">+</text>
<text x="21.84" y="179.98">.</text>
<text x="106.05" y="486.24">.</text>
<text x="362.67" y="347.14">.</text>
<text x="182.90" y="193.13">+</text>
<text x="348.13" y="370.12">+</text>
<text x="188.52" y="271.42">+</text>
<text x="248.80" y="148.55">+</text>
<text x="389.75" y="300.48">+</text>
<text x="441.71" y="434.93">*</text>
<text x="289.28" y="110.25">.</text>
<text x="491.75" y="420.77">*</text>
<text x="382.14" y="326.51">.</text>
<text x="220.87" y="43.10">.</text>
<text x="105.76" y="415.51">+</text>
<text x="93.42" y="130.78">+</text>
<text x="325.07" y="384.04">*</text>
<text x="140.78" y="344.28">.</text>
<text x="122.94" y="492.13">.</text>
<text x="333.48" y="229.57">+</text>
<text x="66.52" y="219.12">*</text>
<text x="394.75" y="344.82">+</text>
<text x="429.49" y="49.68">*</text>
<text x="18.65" y="381.39">+</text>
<text x="179.32" y="375.37">*</text>
<text x="365.41" y="277.00">*</text>
<text x="297.61" y="37.13">.</text>
<text x="437.84" y="145.04">.</text>
<text x="378.42" y="110.50">+</text>
<text x="451.28" y="22.29">+</text>
<text x="239.92" y="216.44">*</text>
<text x="71.83" y="184.39">*</text>
<text x="157.53" y="488.30">.</text>
<text x="242.91" y="466.45">+</text>
<text x="182.86" y="60.60">*</text>
<text x="61.85" y="276.24">+</text>
<text x="99.52" y="3.89">+</text>
<text x="469.94" y="53.19">+</text>
<text x="406.99" y="103.59">+</text>
<text x="242.85" y="15.51">*</text>
<text x="464.04" y="93.05">+</text>
<text x="248.76" y="373.31">+</text>
<text x="222.99" y="308.72">*</text>
<text x="76.11" y="388.86">.</text>
<text x="255.43" y="0.24">+</text>
<text x="85.69" y="137.08">+</text>
<text x="480.38" y="398.14">+</text>
<text x="309.80" y="466.60">.</text>
<text x="143.72" y="156.32">+</text>
<text x="94.99" y="361.74">+</text>
<text x="232.67" y="183.96">.</text>
<text x="424.76" y="319.35">*</text>
<text x="201.45" y="451.86">+</text>
<text x="240.08" y="371.03">.</text>
<text x="148.90" y="154.28">.</text>
<text x="88.41" y="441.79">+</text>
<text x="429.83" y="258.20">+</text>
<text x="274.98" y="106.79">+</text>
<text x="142.75" y="139.12">*</text>
<text x="476.62" y="86.44">.</text>
<text x="31.21" y="155.24">+</text>
<text x="43.31" y="188.89">.</text>
<text x="270.06" y="444.93">+</text>
<text x="84.16" y="182.04">.</text>
<text x="171.31" y="65.91">.</text>
<text x="403.77" y="6.48">.</text>
<text x="348.01" y="449.89">+</text>
<text x="425.47" y="135.88">+</text>
<text x="456.51" y="321.28">+</text>

</svg>