
<svg viewBox="0 0 500 500" xmlns="http://www.w.org/2000/svg" width="100%" height="100%" style="background-color: #0a0a14; font-family: 'Courier New', Courier, monospace;">
    <style>
        text { fill: #aaa; font-size: 10px; text-anchor: middle; dominant-baseline: middle; }
    </style>
    <text x="155.87" y="216.94">+</text>
<text x="404.38" y="324.65">+</text>
<text x="66.97" y="407.66">.</text>
<text x="208.01" y="412.33">*</text>
<text x="257.00" y="80.56">.</text>
<text x="76.08" y="330.39">.</text>
<text x="274.91" y="367.21">.</text>
<text x="191.16" y="334.93">.</text>
<text x="331.41" y="140.63">*</text>
<text x="335.05" y="151.85">.</text>
<text x="179.52" y="389.00">.</text>
<text x="351.47" y="462.02">.</text>
<text x="472.93" y="104.17">+</text>
<text x="167.29" y="284.27">.</text>
<text x="458.57" y="71.00">.</text>
<text x="294.44" y="74.37">.</text>
<text x="488.95" y="121.16">+</text>
<text x="79.95" y="221.19">.</text>
<text x="172.26" y="383.23">+</text>
<text x="387.34" y="117.32">.</text>
<text x="275.61" y="356.43">*</text>
<text x="322.07" y="464.51">.</text>
<text x="89.41" y="440.45">.</text>
<text x="392.00" y="210.72">.</text>
<text x="249.19" y="164.45">.</text>
<text x="218.29" y="379.89">.</text>
<text x="381.07" y="103.59">+</text>
<text x="176.67" y="108.55">*</text>
<text x="355.38" y="202.56">+</text>
<text x="339.77" y="355.50">*</text>
<text x="9.17" y="53.04">*</text>
<text x="60.50" y="278.75">.</text>
<text x="24.93" y="477.19">+</text>
<text x="451.03" y="102.43">+</text>
<text x="347.31" y="206.84">.</text>
<text x="123.53" y="307.43">.</text>
<text x="121.24" y="57.47">+</text>
<text x="47.45" y="165.42">.</text>
<text x="129.52" y="94.59">+</text>
<text x="472.59" y="42.17">*</text>
<text x="489.84" y="101.21">.</text>
<text x="212.96" y="114.47">*</text>
<text x="308.29" y="53.52">.</text>
<text x="362.80" y="91.45">*</text>
<text x="114.74" y="295.89">+</text>
<text x="353.94" y="306.80">+</text>
<text x="294.86" y="195.19">.</text>
<text x="365.32" y="418.12">.</text>
<text x="446.04" y="230.74">.</text>
<text x="387.84" y="292.96">.</text>
<text x="3.02" y="477.72">.</text>
<text x="118.32" y="333.41">+</text>
<text x="226.53" y="394.43">.</text>
<text x="465.58" y="152.68">+</text>
<text x="347.13" y="248.04">.</text>
<text x="40.00" y="36.44">*</text>
<text x="370.62" y="496.59">.</text>
<text x="465.21" y="375.15">+</text>
<text x="124.12" y="316.28">.</text>
<text x="479.81" y="183.91">+</text>
<text x="446.82" y="37.72">+</text>
<text x="310.60" y="22.82">.</text>
<text x="49.29" y="4.26">+</text>
<text x="466.64" y="70.59">.</text>
<text x="71.36" y="417.87">.</text>
<text x="475.81" y="427.74">.</text>
<text x="394.41" y="433.51">.</text>
<text x="56.24" y="99.88">.</text>
<text x="188.06" y="179.68">*</text>
<text x="170.97" y="374.56">.</text>
<text x="132.45" y="266.01">+</text>
<text x="338.36" y="304.34">+</text>
<text x="221.01" y="478.36">.</text>
<text x="330.50" y="411.76">.</text>
<text x="349.27" y="455.76">+</text>
<text x="310.16" y="157.73">+</text>
<text x="33.77" y="362.01">+</text>
<text x="179.00" y="55.33">+</text>
<text x="359.43" y="188.12">.</text>
<text x="449.49" y="213.74">.</text>
<text x="63.33" y="417.95">+</text>
<text x="300.26" y="320.02">.</text>
<text x="40.75" y="79.37">+</text>
<text x="268.78" y="182.00">*</text>
<text x="444.87" y="246.23">.</text>
<text x="388.14" y="187.57">*</text>
<text x="486.78" y="119.23">.</text>
<text x="390.68" y="229.66">.</text>
<text x="317.53" y="19.90">+</text>
<text x="334.98" y="452.97">+</text>
<text x="275.14" y="280.66">.</text>
<text x="128.71" y="411.44">.</text>
<text x="45.77" y="448.33">+</text>
<text x="60.46" y="1.88">.</text>
<text x="127.94" y="446.28">+</text>
<text x="93.94" y="476.75">*</text>
<text x="222.86" y="219.34">.</text>
<text x="345.78" y="378.10">.</text>
<text x="362.11" y="253.13">.</text>
<text x="22.43" y="484.48">+</text>
<text x="270.49" y="437.39">.</text>
<text x="213.21" y="2.24">+</text>
<text x="412.87" y="319.09">+</text>
<text x="111.44" y="92.37">+</text>
<text x="459.04" y="217.24">.</text>
<text x="432.82" y="131.77">+</text>
<text x="168.50" y="280.08">.</text>
<text x="77.07" y="460.95">*</text>
<text x="490.58" y="296.54">+</text>
<text x="416.28" y="269.20">+</text>
<text x="185.21" y="364.28">+</text>
<text x="42.85" y="73.38">.</text>
<text x="492.82" y="336.37">+</text>
<text x="70.18" y="446.91">+</text>
<text x="224.27" y="463.29">*</text>
<text x="135.85" y="340.27">.</text>
<text x="268.29" y="427.12">+</text>
<text x="360.06" y="380.17">.</text>
<text x="221.44" y="82.95">*</text>
<text x="228.42" y="467.73">.</text>
<text x="191.00" y="117.33">*</text>
<text x="428.04" y="65.04">.</text>
<text x="28.54" y="426.01">+</text>
<text x="136.85" y="46.18">+</text>
<text x="377.51" y="184.94">.</text>
<text x="135.91" y="93.26">*</text>
<text x="468.60" y="420.25">+</text>
<text x="337.24" y="231.16">+</text>
<text x="141.52" y="134.18">.</text>
<text x="260.45" y="442.69">.</text>
<text x="205.75" y="21.44">*</text>
<text x="53.42" y="460.26">+</text>
<text x="272.36" y="22.56">+</text>
<text x="95.21" y="68.21">+</text>
<text x="416.33" y="453.84">.</text>
<text x="190.19" y="21.29">.</text>
<text x="211.06" y="5.37">+</text>
<text x="256.64" y="396.49">+</text>
<text x="208.20" y="356.88">+</text>
<text x="236.63" y="194.21">+</text>
<text x="271.39" y="161.88">.</text>
<text x="153.08" y="295.16">.</text>
<text x="450.30" y="461.88">+</text>
<text x="71.23" y="178.28">.</text>
<text x="408.62" y="240.08">+</text>
<text x="168.24" y="308.93">.</text>
<text x="44.05" y="211.70">+</text>
<text x="204.66" y="392.48">+</text>
<text x="62.49" y="359.85">+</text>
<text x="270.62" y="139.38">+</text>
<text x="39.31" y="45.49">.</text>
<text x="248.27" y="150.79">+</text>
<text x="29.70" y="462.28">.</text>
<text x="111.68" y="276.39">+</text>
<text x="98.06" y="477.82">+</text>
<text x="449.70" y="267.19">+</text>
<text x="469.40" y="415.94">+</text>
<text x="186.68" y="61.20">+</text>
<text x="279.48" y="199.01">+</text>
<text x="309.46" y="363.43">*</text>
<text x="239.64" y="336.25">.</text>
<text x="257.70" y="50.38">*</text>
<text x="268.63" y="474.59">+</text>
<text x="104.80" y="229.25">.</text>
<text x="108.23" y="417.39">.</text>
<text x="226.55" y="279.65">+</text>
<text x="398.74" y="60.80">+</text>
<text x="85.21" y="391.35">.</text>
<text x="196.15" y="60.19">+</text>
<text x="379.35" y="309.10">.</text>
<text x="196.02" y="490.71">+</text>
<text x="293.20" y="230.52">.</text>
<text x="101.71" y="325.02">.</text>
<text x="377.43" y="38.84">.</text>
<text x="173.92" y="441.53">.</text>
<text x="341.51" y="93.25">*</text>
<text x="286.70" y="188.11">+</text>
<text x="297.06" y="203.21">.</text>
<text x="192.60" y="237.66">.</text>
<text x="372.07" y="223.86">+</text>
<text x="191.99" y="215.11">.</text>
<text x="430.33" y="31.36">.</text>
<text x="169.03" y="328.41">.</text>
<text x="345.40" y="322.85">+</text>
<text x="214.53" y="347.16">.</text>
<text x="183.96" y="339.58">.</text>
<text x="416.71" y="379.10">*</text>
<text x="106.58" y="426.52">*</text>
<text x="415.84" y="226.78">.</text>
<text x="398.33" y="210.05">+</text>
<text x="438.10" y="8.83">*</text>
<text x="261.35" y="486.39">+</text>
<text x="88.23" y="60.68">+</text>
<text x="136.34" y="133.44">.</text>
<text x="116.17" y="216.14">.</text>
<text x="444.07" y="330.14">.</text>
<text x="41.47" y="217.38">.</text>
<text x="114.24" y="394.08">.</text>
<text x="26.87" y="460.48">.</text>
<text x="426.45" y="298.14">.</text>
<text x="380.75" y="11.73">+</text>
<text x="23.83" y="13.14">*</text>
<text x="192.31" y="36.46">*</text>
<text x="415.72" y="351.37">.</text>
<text x="16.25" y="39.78">.</text>
<text x="396.56" y="113.00">+</text>
<text x="349.13" y="276.38">+</text>
<text x="362.55" y="141.28">+</text>
<text x="56.51" y="120.54">.</text>
<text x="90.16" y="62.76">.</text>
<text x="253.14" y="365.44">+</text>
<text x="324.31" y="68.40">.</text>
<text x="349.16" y="311.85">.</text>

</svg>