
<svg viewBox="0 0 500 500" xmlns="http://www.w.org/2000/svg" width="100%" height="100%" style="background-color: #0a0a14; font-family: 'Courier New', Courier, monospace;">
    <style>
        text { fill: #aaa; font-size: 10px; text-anchor: middle; dominant-baseline: middle; }
    </style>
    <text x="10.91" y="190.40">*</text>
<text x="129.12" y="193.90">+</text>
<text x="105.38" y="223.57">.</text>
<text x="186.21" y="263.53">*</text>
<text x="25.81" y="450.16">.</text>
<text x="20.31" y="386.67">*</text>
<text x="7.35" y="97.58">.</text>
<text x="447.79" y="306.21">.</text>
<text x="385.70" y="449.73">.</text>
<text x="22.18" y="114.94">.</text>
<text x="266.16" y="464.68">+</text>
<text x="216.95" y="491.29">+</text>
<text x="483.09" y="362.69">+</text>
<text x="455.54" y="452.93">.</text>
<text x="428.13" y="495.28">+</text>
<text x="135.02" y="482.15">.</text>
<text x="320.83" y="97.05">+</text>
<text x="466.04" y="9.51">+</text>
<text x="445.02" y="51.10">.</text>
<text x="112.69" y="222.28">.</text>
<text x="64.01" y="183.39">.</text>
<text x="33.04" y="330.10">.</text>
<text x="495.46" y="34.87">+</text>
<text x="476.41" y="203.74">+</text>
<text x="236.00" y="193.17">*</text>
<text x="125.14" y="262.20">+</text>
<text x="240.45" y="338.68">+</text>
<text x="28.83" y="350.77">+</text>
<text x="406.64" y="142.26">.</text>
<text x="308.33" y="366.21">+</text>
<text x="65.39" y="320.36">.</text>
<text x="129.43" y="110.99">.</text>
<text x="487.14" y="331.82">.</text>
<text x="363.75" y="149.29">+</text>
<text x="39.19" y="89.23">*</text>
<text x="499.22" y="84.36">+</text>
<text x="90.78" y="139.92">*</text>
<text x="57.36" y="358.74">.</text>
<text x="213.35" y="193.44">.</text>
<text x="370.91" y="185.85">+</text>
<text x="243.10" y="215.41">+</text>
<text x="159.00" y="226.55">*</text>
<text x="242.73" y="38.01">*</text>
<text x="486.22" y="55.13">+</text>
<text x="165.17" y="299.84">*</text>
<text x="373.49" y="298.98">.</text>
<text x="93.97" y="240.97">+</text>
<text x="172.19" y="246.85">*</text>
<text x="213.58" y="83.89">+</text>
<text x="210.01" y="129.22">*</text>
<text x="469.60" y="201.96">.</text>
<text x="46.97" y="283.84">*</text>
<text x="352.24" y="193.17">+</text>
<text x="436.95" y="492.44">.</text>
<text x="499.41" y="313.55">+</text>
<text x="3.93" y="118.15">*</text>
<text x="469.04" y="257.43">+</text>
<text x="417.55" y="131.09">.</text>
<text x="80.95" y="477.46">+</text>
<text x="462.33" y="20.65">*</text>
<text x="97.56" y="341.38">+</text>
<text x="0.67" y="361.44">.</text>
<text x="355.34" y="264.91">.</text>
<text x="164.46" y="103.27">*</text>
<text x="379.64" y="331.17">.</text>
<text x="195.68" y="126.31">.</text>
<text x="389.18" y="38.21">+</text>
<text x="84.74" y="157.82">+</text>
<text x="115.02" y="71.82">.</text>
<text x="245.45" y="302.22">.</text>
<text x="279.06" y="247.16">+</text>
<text x="9.46" y="174.33">.</text>
<text x="277.04" y="473.34">+</text>
<text x="285.82" y="84.79">.</text>
<text x="445.29" y="230.99">.</text>
<text x="277.58" y="388.39">*</text>
<text x="449.82" y="53.80">.</text>
<text x="98.40" y="398.20">.</text>
<text x="404.54" y="41.61">.</text>
<text x="462.27" y="372.45">+</text>
<text x="68.98" y="125.86">.</text>
<text x="11.34" y="195.12">+</text>
<text x="157.07" y="461.27">*</text>
<text x="174.48" y="253.57">.</text>
<text x="458.98" y="295.39">.</text>
<text x="170.56" y="348.09">+</text>
<text x="204.67" y="361.73">+</text>
<text x="203.50" y="246.25">+</text>
<text x="44.85" y="475.79">*</text>
<text x="408.58" y="339.89">+</text>
<text x="183.93" y="165.69">.</text>
<text x="51.69" y="127.51">*</text>
<text x="425.14" y="273.21">+</text>
<text x="404.44" y="138.15">+</text>
<text x="221.46" y="390.70">.</text>
<text x="146.87" y="296.38">+</text>
<text x="406.59" y="319.62">+</text>
<text x="117.66" y="295.29">+</text>
<text x="220.70" y="101.59">+</text>
<text x="382.58" y="391.58">+</text>
<text x="368.13" y="474.72">+</text>
<text x="241.24" y="240.92">+</text>
<text x="488.90" y="70.22">.</text>
<text x="321.40" y="10.24">+</text>
<text x="276.58" y="143.20">.</text>
<text x="228.30" y="249.36">+</text>
<text x="311.87" y="396.36">.</text>
<text x="463.99" y="252.99">*</text>
<text x="477.59" y="250.73">+</text>
<text x="368.69" y="392.72">.</text>
<text x="52.10" y="108.86">.</text>
<text x="377.35" y="343.08">.</text>
<text x="3.85" y="96.36">+</text>
<text x="137.06" y="267.71">+</text>
<text x="306.09" y="477.20">+</text>
<text x="253.89" y="399.82">.</text>
<text x="291.33" y="121.67">+</text>
<text x="233.32" y="129.41">*</text>
<text x="289.67" y="64.22">.</text>
<text x="9.44" y="114.42">+</text>
<text x="422.72" y="312.25">.</text>
<text x="188.29" y="412.42">.</text>
<text x="75.69" y="153.17">+</text>
<text x="483.57" y="434.72">.</text>
<text x="454.34" y="221.33">*</text>
<text x="137.37" y="187.82">.</text>
<text x="399.08" y="462.44">.</text>
<text x="300.63" y="479.33">+</text>
<text x="214.81" y="102.61">.</text>
<text x="160.42" y="355.79">*</text>
<text x="9.14" y="182.94">.</text>
<text x="63.21" y="476.69">.</text>
<text x="48.90" y="180.15">.</text>
<text x="87.46" y="187.14">.</text>
<text x="330.22" y="265.74">+</text>
<text x="189.43" y="389.14">+</text>
<text x="468.68" y="492.06">+</text>
<text x="390.32" y="71.62">.</text>
<text x="439.85" y="423.92">+</text>
<text x="331.13" y="168.50">.</text>
<text x="26.33" y="165.13">+</text>
<text x="0.51" y="0.74">+</text>
<text x="7.79" y="127.32">.</text>
<text x="100.80" y="316.54">+</text>
<text x="0.86" y="90.92">+</text>
<text x="262.90" y="384.33">*</text>
<text x="331.34" y="272.63">.</text>
<text x="260.64" y="456.63">.</text>
<text x="474.95" y="226.89">*</text>
<text x="184.62" y="149.64">+</text>
<text x="432.88" y="178.24">.</text>
<text x="357.20" y="248.53">+</text>
<text x="463.79" y="122.65">*</text>
<text x="56.85" y="446.10">+</text>
<text x="345.03" y="471.46">.</text>
<text x="465.31" y="450.72">+</text>
<text x="64.93" y="300.34">+</text>
<text x="13.24" y="377.57">+</text>
<text x="8.34" y="136.62">+</text>
<text x="136.46" y="357.48">+</text>
<text x="140.57" y="205.61">+</text>
<text x="196.63" y="356.26">.</text>
<text x="191.77" y="326.31">.</text>
<text x="465.03" y="275.64">.</text>
<text x="216.08" y="315.99">*</text>
<text x="9.22" y="227.16">*</text>
<text x="339.74" y="338.94">+</text>
<text x="205.76" y="266.43">+</text>
<text x="434.83" y="234.14">*</text>
<text x="126.29" y="320.01">+</text>
<text x="166.67" y="194.00">*</text>
<text x="24.60" y="333.65">+</text>
<text x="89.42" y="352.25">+</text>
<text x="345.42" y="453.29">.</text>
<text x="427.69" y="297.16">.</text>
<text x="206.75" y="468.49">*</text>
<text x="323.54" y="204.64">+</text>
<text x="119.85" y="452.03">.</text>
<text x="474.35" y="77.65">.</text>
<text x="14.94" y="186.95">.</text>
<text x="207.90" y="463.15">+</text>
<text x="412.42" y="173.66">*</text>
<text x="385.92" y="364.50">.</text>
<text x="161.62" y="159.60">.</text>
<text x="40.91" y="457.99">.</text>
<text x="234.79" y="175.43">*</text>
<text x="246.33" y="402.33">.</text>
<text x="393.37" y="133.02">.</text>
<text x="403.29" y="22.11">+</text>
<text x="33.92" y="130.76">+</text>
<text x="121.60" y="93.63">+</text>
<text x="68.18" y="184.84">+</text>
<text x="150.20" y="442.91">+</text>
<text x="168.29" y="445.26">.</text>
<text x="469.95" y="185.33">.</text>
<text x="222.28" y="125.94">.</text>
<text x="96.36" y="353.24">*</text>
<text x="308.57" y="60.12">.</text>
<text x="476.92" y="367.54">+</text>
<text x="133.48" y="130.61">+</text>
<text x="298.69" y="383.23">+</text>
<text x="92.68" y="380.70">+</text>
<text x="430.46" y="233.36">+</text>
<text x="387.25" y="194.63">+</text>
<text x="489.66" y="163.12">+</text>
<text x="96.39" y="439.40">.</text>
<text x="309.64" y="22.92">*</text>
<text x="15.21" y="345.64">.</text>
<text x="242.77" y="238.79">+</text>
<text x="147.52" y="222.42">.</text>
<text x="114.86" y="243.80">.</text>
<text x="176.04" y="399.98">+</text>
<text x="178.14" y="260.09">.</text>
<text x="69.49" y="114.11">+</text>
<text x="246.13" y="25.11">+</text>
<text x="72.14" y="239.04">.</text>
<text x="28.97" y="332.75">+</text>
<text x="132.31" y="19.65">*</text>
<text x="275.51" y="438.58">+</text>
<text x="335.91" y="389.19">+</text>
<text x="326.54" y="118.01">*</text>
<text x="37.71" y="200.62">+</text>
<text x="32.87" y="31.22">+</text>
<text x="335.55" y="55.06">+</text>
<text x="416.45" y="259.32">.</text>
<text x="442.24" y="352.52">+</text>
<text x="22.89" y="360.86">*</text>
<text x="117.30" y="11.52">*</text>

</svg>