
<svg viewBox="0 0 500 500" xmlns="http://www.w.org/2000/svg" width="100%" height="100%" style="background-color: #0a0a14; font-family: 'Courier New', Courier, monospace;">
    <style>
        text { fill: #aaa; font-size: 10px; text-anchor: middle; dominant-baseline: middle; }
    </style>
    <text x="364.67" y="153.94">*</text>
<text x="340.69" y="81.64">+</text>
<text x="252.69" y="58.31">*</text>
<text x="59.05" y="464.84">.</text>
<text x="69.79" y="140.65">*</text>
<text x="331.35" y="219.60">.</text>
<text x="47.75" y="70.88">*</text>
<text x="429.97" y="341.37">+</text>
<text x="448.94" y="33.93">+</text>
<text x="147.60" y="145.84">.</text>
<text x="304.99" y="275.95">+</text>
<text x="420.19" y="302.98">+</text>
<text x="50.94" y="393.22">+</text>
<text x="116.88" y="493.11">.</text>
<text x="421.65" y="113.21">*</text>
<text x="401.10" y="462.55">*</text>
<text x="193.03" y="234.10">+</text>
<text x="57.87" y="13.73">+</text>
<text x="410.58" y="281.68">+</text>
<text x="360.74" y="100.26">.</text>
<text x="328.71" y="280.82">+</text>
<text x="417.79" y="419.19">*</text>
<text x="206.90" y="240.20">*</text>
<text x="272.86" y="480.01">.</text>
<text x="476.58" y="491.71">*</text>
<text x="101.52" y="327.27">.</text>
<text x="181.73" y="175.22">.</text>
<text x="490.43" y="87.86">.</text>
<text x="495.75" y="348.66">*</text>
<text x="498.03" y="213.03">+</text>
<text x="117.42" y="478.73">.</text>
<text x="260.10" y="299.12">+</text>
<text x="13.11" y="354.75">.</text>
<text x="495.10" y="439.01">+</text>
<text x="415.59" y="312.54">+</text>
<text x="38.12" y="40.47">+</text>
<text x="411.28" y="279.42">.</text>
<text x="389.45" y="335.31">.</text>
<text x="242.01" y="497.73">+</text>
<text x="276.42" y="284.71">.</text>
<text x="162.56" y="210.56">+</text>
<text x="499.43" y="246.58">.</text>
<text x="449.51" y="221.82">+</text>
<text x="70.94" y="62.11">+</text>
<text x="313.50" y="224.83">+</text>
<text x="36.88" y="95.63">.</text>
<text x="329.78" y="381.31">.</text>
<text x="361.06" y="255.32">+</text>
<text x="223.50" y="29.56">+</text>
<text x="387.68" y="321.77">*</text>
<text x="92.62" y="2.18">.</text>
<text x="288.93" y="280.74">.</text>
<text x="402.03" y="291.07">+</text>
<text x="384.29" y="83.68">.</text>
<text x="337.03" y="48.04">.</text>
<text x="285.03" y="3.28">+</text>
<text x="202.81" y="464.06">.</text>
<text x="284.68" y="497.32">+</text>
<text x="302.94" y="267.60">+</text>
<text x="382.92" y="256.76">+</text>
<text x="301.72" y="319.29">.</text>
<text x="394.20" y="56.95">.</text>
<text x="228.83" y="482.67">.</text>
<text x="399.52" y="159.00">.</text>
<text x="472.87" y="185.04">.</text>
<text x="287.31" y="188.47">+</text>
<text x="17.28" y="109.48">.</text>
<text x="117.89" y="254.85">*</text>
<text x="229.31" y="31.69">.</text>
<text x="284.10" y="227.16">.</text>
<text x="302.34" y="263.32">+</text>
<text x="336.44" y="288.25">.</text>
<text x="422.77" y="344.76">+</text>
<text x="366.93" y="306.31">.</text>
<text x="479.48" y="355.77">+</text>
<text x="261.67" y="371.66">.</text>
<text x="385.05" y="328.00">+</text>
<text x="277.50" y="419.63">+</text>
<text x="30.89" y="178.53">.</text>
<text x="259.13" y="188.26">+</text>
<text x="264.49" y="158.28">+</text>
<text x="331.04" y="220.01">+</text>
<text x="195.69" y="45.74">.</text>
<text x="231.51" y="271.25">.</text>
<text x="354.37" y="64.69">+</text>
<text x="372.30" y="441.84">.</text>
<text x="303.81" y="0.51">.</text>
<text x="149.21" y="76.29">.</text>
<text x="363.01" y="148.71">.</text>
<text x="91.88" y="46.91">+</text>
<text x="220.26" y="125.13">.</text>
<text x="120.88" y="384.49">.</text>
<text x="200.91" y="249.68">+</text>
<text x="333.12" y="145.15">.</text>
<text x="1.60" y="199.16">+</text>
<text x="52.25" y="466.97">*</text>
<text x="279.63" y="296.02">+</text>
<text x="293.87" y="63.49">*</text>
<text x="166.06" y="338.48">+</text>
<text x="387.00" y="473.38">+</text>
<text x="479.52" y="271.42">+</text>
<text x="137.02" y="20.37">.</text>
<text x="288.12" y="371.68">.</text>
<text x="348.30" y="65.69">.</text>
<text x="119.16" y="200.74">+</text>
<text x="412.85" y="492.57">+</text>
<text x="414.87" y="181.89">*</text>
<text x="268.66" y="256.74">.</text>
<text x="312.41" y="108.78">.</text>
<text x="300.92" y="16.85">.</text>
<text x="178.87" y="239.92">.</text>
<text x="300.74" y="193.75">.</text>
<text x="348.72" y="227.60">+</text>
<text x="413.51" y="218.54">.</text>
<text x="433.79" y="40.98">+</text>
<text x="324.84" y="377.11">+</text>
<text x="318.25" y="6.59">.</text>
<text x="368.17" y="115.66">.</text>
<text x="449.93" y="143.10">+</text>
<text x="221.53" y="124.33">*</text>
<text x="362.15" y="88.81">.</text>
<text x="373.69" y="95.97">.</text>
<text x="155.67" y="308.57">.</text>
<text x="95.21" y="157.42">+</text>
<text x="284.44" y="74.21">+</text>
<text x="214.39" y="365.37">+</text>
<text x="255.99" y="151.13">.</text>
<text x="266.20" y="225.96">.</text>
<text x="146.23" y="466.33">.</text>
<text x="130.30" y="406.84">+</text>
<text x="457.80" y="283.24">.</text>
<text x="325.29" y="356.37">+</text>
<text x="423.69" y="389.59">+</text>
<text x="323.28" y="334.02">+</text>
<text x="331.70" y="284.39">.</text>
<text x="392.20" y="323.89">*</text>
<text x="483.35" y="353.30">.</text>
<text x="291.16" y="170.18">+</text>
<text x="450.73" y="316.03">.</text>
<text x="209.85" y="163.73">.</text>
<text x="148.43" y="179.92">+</text>
<text x="420.69" y="37.25">+</text>
<text x="238.77" y="60.70">.</text>
<text x="262.94" y="162.97">.</text>
<text x="293.08" y="275.87">+</text>
<text x="173.29" y="33.37">*</text>
<text x="288.52" y="415.28">+</text>
<text x="242.61" y="172.27">+</text>
<text x="5.58" y="128.93">*</text>
<text x="455.19" y="497.07">+</text>
<text x="159.00" y="103.80">+</text>
<text x="335.62" y="96.62">+</text>
<text x="111.07" y="20.58">*</text>
<text x="379.29" y="226.25">+</text>
<text x="20.46" y="44.85">.</text>
<text x="211.49" y="241.72">.</text>
<text x="190.43" y="209.27">.</text>
<text x="192.26" y="88.75">*</text>
<text x="138.23" y="498.17">.</text>
<text x="410.87" y="84.91">+</text>
<text x="255.73" y="438.61">.</text>
<text x="460.45" y="132.80">.</text>
<text x="136.15" y="169.55">*</text>
<text x="31.33" y="418.46">.</text>
<text x="491.59" y="60.79">.</text>
<text x="422.53" y="309.38">+</text>
<text x="167.97" y="160.60">+</text>
<text x="193.32" y="215.24">*</text>
<text x="368.96" y="257.29">.</text>
<text x="163.03" y="467.85">+</text>
<text x="377.94" y="86.34">.</text>
<text x="406.99" y="38.52">+</text>
<text x="59.49" y="221.42">+</text>
<text x="374.95" y="259.31">+</text>
<text x="141.08" y="137.58">.</text>
<text x="133.03" y="188.14">+</text>
<text x="64.11" y="403.80">+</text>
<text x="496.91" y="234.79">+</text>
<text x="132.14" y="225.87">*</text>
<text x="497.57" y="165.93">+</text>
<text x="44.73" y="229.62">*</text>
<text x="441.92" y="415.38">.</text>
<text x="336.19" y="311.30">.</text>
<text x="97.39" y="148.47">+</text>
<text x="71.60" y="34.30">.</text>
<text x="435.23" y="300.07">.</text>
<text x="322.28" y="241.68">+</text>
<text x="313.31" y="56.26">*</text>
<text x="464.35" y="274.43">.</text>
<text x="273.81" y="174.59">.</text>
<text x="415.92" y="296.17">.</text>
<text x="272.49" y="363.51">.</text>
<text x="191.58" y="54.27">.</text>
<text x="452.75" y="408.48">.</text>
<text x="109.75" y="57.86">.</text>
<text x="487.09" y="362.65">+</text>
<text x="333.95" y="287.56">+</text>
<text x="29.83" y="127.32">+</text>
<text x="127.96" y="436.93">.</text>
<text x="374.31" y="412.69">.</text>
<text x="427.71" y="275.78">+</text>
<text x="439.36" y="100.36">+</text>
<text x="60.68" y="352.71">.</text>
<text x="389.50" y="142.20">.</text>
<text x="311.43" y="206.44">.</text>
<text x="453.52" y="333.80">+</text>
<text x="95.08" y="158.19">.</text>
<text x="212.48" y="174.31">*</text>
<text x="140.60" y="335.07">.</text>
<text x="350.73" y="243.16">*</text>
<text x="119.13" y="394.85">+</text>
<text x="107.91" y="101.45">+</text>
<text x="224.38" y="350.09">+</text>
<text x="29.91" y="411.41">.</text>
<text x="242.99" y="167.23">.</text>
<text x="41.50" y="181.37">.</text>
<text x="258.73" y="159.61">.</text>
<text x="254.08" y="164.59">+</text>
<text x="321.03" y="403.11">*</text>

</svg>