
<svg viewBox="0 0 500 500" xmlns="http://www.w.org/2000/svg" width="100%" height="100%" style="background-color: #0a0a14; font-family: 'Courier New', Courier, monospace;">
    <style>
        text { fill: #aaa; font-size: 10px; text-anchor: middle; dominant-baseline: middle; }
    </style>
    <text x="19.10" y="136.63">+</text>
<text x="445.06" y="475.61">+</text>
<text x="497.26" y="56.82">.</text>
<text x="341.94" y="1.69">.</text>
<text x="452.68" y="400.61">+</text>
<text x="352.69" y="28.53">*</text>
<text x="399.84" y="105.59">+</text>
<text x="481.73" y="485.85">.</text>
<text x="64.08" y="300.76">.</text>
<text x="342.27" y="467.88">.</text>
<text x="312.51" y="149.44">*</text>
<text x="337.36" y="216.73">.</text>
<text x="406.57" y="365.34">+</text>
<text x="379.00" y="315.96">.</text>
<text x="231.08" y="159.49">+</text>
<text x="59.94" y="12.49">.</text>
<text x="239.50" y="467.87">+</text>
<text x="37.81" y="106.04">.</text>
<text x="295.71" y="330.60">+</text>
<text x="211.79" y="342.97">+</text>
<text x="311.25" y="135.54">.</text>
<text x="34.26" y="161.62">.</text>
<text x="59.03" y="252.35">*</text>
<text x="71.27" y="433.79">+</text>
<text x="403.70" y="70.84">+</text>
<text x="436.40" y="425.90">+</text>
<text x="185.79" y="327.74">+</text>
<text x="442.44" y="444.33">.</text>
<text x="320.02" y="48.39">.</text>
<text x="478.88" y="488.60">.</text>
<text x="231.19" y="130.44">.</text>
<text x="119.81" y="229.87">.</text>
<text x="26.66" y="479.17">.</text>
<text x="470.59" y="399.95">+</text>
<text x="200.94" y="195.84">+</text>
<text x="228.08" y="3.21">+</text>
<text x="425.80" y="276.52">+</text>
<text x="475.53" y="423.78">.</text>
<text x="50.40" y="241.90">*</text>
<text x="311.49" y="246.47">.</text>
<text x="300.96" y="122.70">.</text>
<text x="72.13" y="330.64">.</text>
<text x="36.58" y="357.68">*</text>
<text x="148.33" y="335.16">.</text>
<text x="106.95" y="40.37">.</text>
<text x="81.38" y="150.66">*</text>
<text x="427.64" y="159.31">+</text>
<text x="315.39" y="219.34">*</text>
<text x="178.66" y="386.63">.</text>
<text x="155.41" y="93.57">.</text>
<text x="264.02" y="283.85">+</text>
<text x="39.89" y="179.55">.</text>
<text x="365.40" y="408.69">.</text>
<text x="482.34" y="362.97">+</text>
<text x="223.02" y="227.58">*</text>
<text x="50.08" y="224.20">+</text>
<text x="182.88" y="478.64">+</text>
<text x="209.31" y="222.31">+</text>
<text x="375.73" y="270.86">.</text>
<text x="222.40" y="454.51">.</text>
<text x="80.22" y="348.31">*</text>
<text x="211.50" y="456.67">+</text>
<text x="395.27" y="326.18">+</text>
<text x="330.72" y="366.37">+</text>
<text x="286.17" y="174.06">*</text>
<text x="224.90" y="411.00">+</text>
<text x="466.88" y="127.02">+</text>
<text x="373.49" y="143.60">*</text>
<text x="0.23" y="247.76">.</text>
<text x="207.22" y="461.96">*</text>
<text x="162.67" y="0.73">.</text>
<text x="25.32" y="51.98">+</text>
<text x="368.62" y="217.21">*</text>
<text x="432.35" y="13.06">.</text>
<text x="419.81" y="495.71">.</text>
<text x="249.33" y="43.78">+</text>
<text x="299.52" y="294.54">.</text>
<text x="120.26" y="165.50">.</text>
<text x="17.46" y="9.10">+</text>
<text x="326.53" y="312.32">+</text>
<text x="245.92" y="40.23">+</text>
<text x="40.64" y="79.13">*</text>
<text x="22.81" y="407.83">+</text>
<text x="71.47" y="435.02">.</text>
<text x="428.79" y="208.07">*</text>
<text x="212.59" y="250.75">+</text>
<text x="369.72" y="141.44">+</text>
<text x="208.22" y="286.43">+</text>
<text x="208.25" y="347.38">.</text>
<text x="100.83" y="34.63">+</text>
<text x="0.41" y="1.18">+</text>
<text x="24.50" y="77.31">.</text>
<text x="147.40" y="427.62">+</text>
<text x="245.63" y="181.73">*</text>
<text x="294.31" y="353.03">.</text>
<text x="389.91" y="319.06">+</text>
<text x="57.05" y="46.41">.</text>
<text x="48.92" y="455.91">.</text>
<text x="36.75" y="341.49">*</text>
<text x="493.17" y="63.69">.</text>
<text x="62.33" y="360.99">+</text>
<text x="80.49" y="143.53">.</text>
<text x="393.43" y="387.59">*</text>
<text x="423.66" y="477.44">*</text>
<text x="396.79" y="379.20">*</text>
<text x="121.26" y="345.58">+</text>
<text x="234.23" y="184.25">.</text>
<text x="396.04" y="67.12">.</text>
<text x="88.84" y="312.73">+</text>
<text x="351.80" y="264.26">+</text>
<text x="421.47" y="95.23">*</text>
<text x="393.17" y="92.97">.</text>
<text x="426.20" y="482.95">.</text>
<text x="100.39" y="198.65">+</text>
<text x="360.85" y="85.74">*</text>
<text x="10.80" y="313.60">.</text>
<text x="77.45" y="345.18">+</text>
<text x="276.02" y="459.78">+</text>
<text x="29.47" y="457.95">.</text>
<text x="463.16" y="234.42">*</text>
<text x="139.80" y="357.63">+</text>
<text x="173.86" y="113.15">*</text>
<text x="264.64" y="242.40">*</text>
<text x="299.87" y="328.60">+</text>
<text x="327.49" y="28.17">*</text>
<text x="471.54" y="146.92">+</text>
<text x="17.32" y="463.68">.</text>
<text x="195.64" y="462.99">.</text>
<text x="116.83" y="357.80">*</text>
<text x="295.47" y="431.71">+</text>
<text x="84.23" y="231.53">+</text>
<text x="144.39" y="67.45">+</text>
<text x="218.58" y="385.42">*</text>
<text x="417.95" y="166.80">+</text>
<text x="187.46" y="12.01">*</text>
<text x="319.01" y="96.15">+</text>
<text x="476.15" y="473.06">.</text>
<text x="223.87" y="497.09">.</text>
<text x="151.87" y="154.32">+</text>
<text x="202.20" y="336.16">.</text>
<text x="278.08" y="182.02">+</text>
<text x="221.97" y="462.75">.</text>
<text x="170.24" y="193.73">*</text>
<text x="56.58" y="166.74">+</text>
<text x="321.61" y="403.66">+</text>
<text x="235.85" y="84.76">*</text>
<text x="207.04" y="243.64">*</text>
<text x="50.64" y="54.81">+</text>
<text x="168.97" y="37.62">*</text>
<text x="273.24" y="468.96">.</text>
<text x="20.85" y="144.77">+</text>
<text x="31.12" y="65.63">+</text>
<text x="353.83" y="269.26">+</text>
<text x="474.20" y="323.02">*</text>
<text x="477.41" y="124.92">.</text>
<text x="185.96" y="311.51">.</text>
<text x="99.69" y="186.76">+</text>
<text x="401.36" y="127.42">.</text>
<text x="305.30" y="440.01">.</text>
<text x="158.93" y="455.94">.</text>
<text x="459.12" y="361.33">+</text>
<text x="322.11" y="267.02">+</text>
<text x="290.37" y="35.01">.</text>
<text x="263.11" y="293.10">*</text>
<text x="123.26" y="170.21">.</text>
<text x="95.78" y="270.51">+</text>
<text x="24.38" y="29.10">*</text>
<text x="150.42" y="486.77">+</text>
<text x="206.88" y="444.25">+</text>
<text x="490.97" y="235.63">+</text>
<text x="116.08" y="490.89">.</text>
<text x="79.24" y="217.13">.</text>
<text x="396.03" y="317.01">+</text>
<text x="4.87" y="490.49">+</text>
<text x="294.52" y="483.94">+</text>
<text x="358.42" y="252.17">.</text>
<text x="338.02" y="465.52">*</text>
<text x="132.05" y="470.82">+</text>
<text x="329.05" y="267.96">.</text>
<text x="152.76" y="232.74">*</text>
<text x="88.83" y="338.72">+</text>
<text x="8.64" y="282.30">+</text>
<text x="210.71" y="259.12">.</text>
<text x="353.22" y="342.93">.</text>
<text x="8.00" y="409.00">*</text>
<text x="323.55" y="82.80">.</text>
<text x="376.81" y="331.33">.</text>
<text x="441.85" y="204.99">.</text>
<text x="250.18" y="12.58">.</text>
<text x="222.35" y="375.90">.</text>
<text x="381.32" y="27.25">.</text>
<text x="409.06" y="17.85">*</text>
<text x="207.02" y="448.18">.</text>
<text x="190.74" y="419.29">+</text>
<text x="438.62" y="342.64">.</text>
<text x="429.70" y="127.01">.</text>
<text x="474.38" y="417.02">.</text>
<text x="306.61" y="488.94">.</text>
<text x="493.03" y="405.24">+</text>
<text x="324.22" y="156.91">+</text>
<text x="167.86" y="312.59">.</text>
<text x="96.84" y="207.63">.</text>
<text x="483.32" y="41.75">.</text>
<text x="255.31" y="441.15">*</text>
<text x="361.36" y="490.22">.</text>
<text x="410.33" y="342.08">.</text>
<text x="59.94" y="381.81">.</text>
<text x="102.45" y="352.49">+</text>

</svg>