
<svg viewBox="0 0 500 500" xmlns="http://www.w.org/2000/svg" width="100%" height="100%" style="background-color: #0a0a14; font-family: 'Courier New', Courier, monospace;">
    <style>
        text { fill: #aaa; font-size: 10px; text-anchor: middle; dominant-baseline: middle; }
    </style>
    <text x="29.84" y="132.83">+</text>
<text x="178.34" y="251.28">.</text>
<text x="327.40" y="326.54">*</text>
<text x="387.84" y="263.38">*</text>
<text x="128.67" y="138.32">.</text>
<text x="395.57" y="361.74">+</text>
<text x="276.69" y="233.22">+</text>
<text x="184.73" y="424.58">.</text>
<text x="446.06" y="16.93">.</text>
<text x="259.89" y="18.14">.</text>
<text x="440.73" y="438.10">*</text>
<text x="218.08" y="279.22">*</text>
<text x="347.17" y="250.80">+</text>
<text x="447.76" y="297.58">+</text>
<text x="415.30" y="148.74">+</text>
<text x="376.57" y="215.03">+</text>
<text x="403.92" y="171.14">+</text>
<text x="218.85" y="293.23">.</text>
<text x="59.89" y="313.67">+</text>
<text x="384.93" y="217.37">.</text>
<text x="24.29" y="20.55">.</text>
<text x="194.21" y="49.47">+</text>
<text x="138.13" y="349.29">+</text>
<text x="143.34" y="370.72">+</text>
<text x="289.57" y="272.40">.</text>
<text x="423.56" y="113.07">.</text>
<text x="382.05" y="407.41">*</text>
<text x="50.43" y="68.44">.</text>
<text x="242.71" y="41.05">*</text>
<text x="130.53" y="41.08">+</text>
<text x="277.38" y="441.40">+</text>
<text x="245.47" y="37.22">.</text>
<text x="298.06" y="137.30">+</text>
<text x="88.44" y="13.19">.</text>
<text x="342.58" y="118.22">.</text>
<text x="197.79" y="492.94">+</text>
<text x="268.73" y="132.86">*</text>
<text x="213.08" y="177.00">+</text>
<text x="241.21" y="160.87">+</text>
<text x="323.55" y="412.86">.</text>
<text x="380.19" y="178.25">.</text>
<text x="382.65" y="146.55">+</text>
<text x="206.15" y="216.79">+</text>
<text x="109.02" y="292.67">*</text>
<text x="235.88" y="146.97">+</text>
<text x="199.15" y="360.14">.</text>
<text x="285.36" y="494.58">+</text>
<text x="76.24" y="155.81">+</text>
<text x="491.54" y="151.32">*</text>
<text x="158.40" y="234.56">+</text>
<text x="279.36" y="17.97">+</text>
<text x="403.46" y="347.75">.</text>
<text x="3.76" y="23.97">.</text>
<text x="81.54" y="64.09">.</text>
<text x="377.10" y="98.12">*</text>
<text x="238.14" y="90.78">.</text>
<text x="424.92" y="495.97">+</text>
<text x="387.98" y="498.98">.</text>
<text x="172.93" y="108.17">+</text>
<text x="336.19" y="271.74">.</text>
<text x="208.16" y="484.08">+</text>
<text x="336.80" y="59.42">.</text>
<text x="194.87" y="44.65">.</text>
<text x="269.61" y="33.27">.</text>
<text x="194.17" y="498.16">.</text>
<text x="183.30" y="382.90">*</text>
<text x="109.93" y="21.95">+</text>
<text x="330.14" y="288.56">*</text>
<text x="443.42" y="264.36">+</text>
<text x="414.83" y="377.10">+</text>
<text x="89.63" y="355.54">.</text>
<text x="323.31" y="235.97">*</text>
<text x="217.79" y="71.81">+</text>
<text x="217.00" y="56.66">.</text>
<text x="431.89" y="244.57">+</text>
<text x="66.39" y="369.08">+</text>
<text x="238.63" y="251.77">*</text>
<text x="470.68" y="24.49">.</text>
<text x="140.48" y="470.17">+</text>
<text x="347.02" y="438.51">.</text>
<text x="56.01" y="482.91">+</text>
<text x="126.77" y="68.69">.</text>
<text x="130.73" y="457.23">.</text>
<text x="481.57" y="239.83">.</text>
<text x="498.13" y="346.25">*</text>
<text x="271.56" y="98.49">.</text>
<text x="76.50" y="339.79">*</text>
<text x="247.92" y="69.27">.</text>
<text x="153.81" y="450.74">.</text>
<text x="291.87" y="479.54">.</text>
<text x="160.47" y="397.04">.</text>
<text x="33.11" y="121.84">.</text>
<text x="146.87" y="429.58">.</text>
<text x="410.67" y="409.73">+</text>
<text x="219.32" y="16.57">+</text>
<text x="478.11" y="493.22">.</text>
<text x="151.91" y="409.03">+</text>
<text x="19.77" y="240.73">.</text>
<text x="386.39" y="174.20">.</text>
<text x="40.47" y="336.62">*</text>
<text x="82.82" y="218.77">.</text>
<text x="170.91" y="197.18">+</text>
<text x="190.99" y="373.50">.</text>
<text x="247.61" y="24.29">+</text>
<text x="394.05" y="217.98">*</text>
<text x="281.33" y="138.64">.</text>
<text x="85.50" y="405.99">.</text>
<text x="314.87" y="41.03">+</text>
<text x="241.47" y="71.73">+</text>
<text x="293.22" y="256.98">+</text>
<text x="77.51" y="283.87">*</text>
<text x="88.50" y="442.60">+</text>
<text x="114.77" y="447.82">.</text>
<text x="348.10" y="311.25">*</text>
<text x="240.53" y="214.55">.</text>
<text x="4.03" y="146.97">+</text>
<text x="234.88" y="39.57">+</text>
<text x="246.67" y="251.11">.</text>
<text x="322.25" y="37.81">.</text>
<text x="369.88" y="146.38">+</text>
<text x="262.18" y="489.83">.</text>
<text x="435.81" y="10.36">+</text>
<text x="330.98" y="174.82">.</text>
<text x="282.94" y="179.85">+</text>
<text x="339.54" y="183.19">+</text>
<text x="316.16" y="101.00">+</text>
<text x="271.69" y="461.57">+</text>
<text x="187.73" y="294.20">+</text>
<text x="298.60" y="326.53">.</text>
<text x="239.87" y="412.31">+</text>
<text x="74.45" y="139.54">.</text>
<text x="486.10" y="209.68">+</text>
<text x="371.48" y="162.12">.</text>
<text x="157.99" y="413.96">.</text>
<text x="240.10" y="45.23">*</text>
<text x="327.84" y="302.80">.</text>
<text x="269.17" y="380.42">+</text>
<text x="428.69" y="74.15">.</text>
<text x="285.57" y="479.80">*</text>
<text x="451.85" y="116.40">*</text>
<text x="380.31" y="128.29">.</text>
<text x="397.23" y="306.90">+</text>
<text x="451.55" y="488.23">+</text>
<text x="145.80" y="125.29">.</text>
<text x="82.39" y="306.08">*</text>
<text x="26.21" y="10.42">+</text>
<text x="88.72" y="63.81">.</text>
<text x="2.78" y="73.73">+</text>
<text x="219.93" y="65.25">.</text>
<text x="223.59" y="328.29">*</text>
<text x="352.38" y="235.21">+</text>
<text x="48.90" y="72.05">+</text>
<text x="442.77" y="184.58">+</text>
<text x="192.20" y="218.75">+</text>
<text x="153.58" y="335.46">+</text>
<text x="210.29" y="137.49">.</text>
<text x="129.06" y="197.85">.</text>
<text x="277.18" y="332.90">+</text>
<text x="413.91" y="40.97">*</text>
<text x="329.59" y="225.52">+</text>
<text x="266.76" y="89.17">+</text>
<text x="494.06" y="239.76">+</text>
<text x="489.42" y="496.09">.</text>
<text x="279.22" y="222.47">.</text>
<text x="48.40" y="190.41">*</text>
<text x="318.72" y="381.01">.</text>
<text x="76.04" y="396.21">+</text>
<text x="126.86" y="269.07">*</text>
<text x="455.62" y="271.66">+</text>
<text x="179.98" y="275.16">.</text>
<text x="122.02" y="369.54">+</text>
<text x="447.46" y="2.47">.</text>
<text x="459.65" y="335.57">.</text>
<text x="402.54" y="413.30">.</text>
<text x="469.73" y="21.08">+</text>
<text x="459.61" y="210.62">*</text>
<text x="154.75" y="275.13">.</text>
<text x="39.77" y="434.24">.</text>
<text x="388.70" y="303.41">+</text>
<text x="283.03" y="497.62">.</text>
<text x="292.96" y="57.30">.</text>
<text x="207.24" y="72.48">.</text>
<text x="39.10" y="241.81">.</text>
<text x="106.25" y="457.72">+</text>
<text x="12.65" y="5.08">+</text>
<text x="286.93" y="199.13">+</text>
<text x="109.02" y="187.90">.</text>
<text x="331.22" y="338.83">+</text>
<text x="82.87" y="311.50">*</text>
<text x="32.54" y="171.34">.</text>
<text x="317.47" y="44.40">+</text>
<text x="351.51" y="335.44">*</text>
<text x="60.33" y="341.05">*</text>
<text x="103.42" y="318.73">.</text>
<text x="466.25" y="241.57">*</text>
<text x="43.03" y="123.20">+</text>
<text x="350.11" y="234.62">*</text>

</svg>