
<svg viewBox="0 0 500 500" xmlns="http://www.w.org/2000/svg" width="100%" height="100%" style="background-color: #0a0a14; font-family: 'Courier New', Courier, monospace;">
    <style>
        text { fill: #aaa; font-size: 10px; text-anchor: middle; dominant-baseline: middle; }
    </style>
    <text x="129.11" y="147.47">.</text>
<text x="245.28" y="8.17">+</text>
<text x="226.21" y="9.52">+</text>
<text x="361.26" y="300.80">*</text>
<text x="260.99" y="256.49">.</text>
<text x="177.61" y="163.23">+</text>
<text x="401.19" y="263.02">*</text>
<text x="447.29" y="57.93">+</text>
<text x="59.41" y="203.04">+</text>
<text x="105.07" y="3.78">+</text>
<text x="133.89" y="404.56">.</text>
<text x="246.13" y="465.17">.</text>
<text x="217.05" y="410.79">.</text>
<text x="224.95" y="99.46">.</text>
<text x="304.89" y="193.67">*</text>
<text x="44.94" y="120.17">+</text>
<text x="316.98" y="195.35">+</text>
<text x="285.10" y="29.94">*</text>
<text x="328.95" y="50.61">+</text>
<text x="100.18" y="352.03">.</text>
<text x="234.55" y="475.21">+</text>
<text x="150.76" y="490.19">.</text>
<text x="228.49" y="14.19">+</text>
<text x="459.79" y="352.03">+</text>
<text x="404.81" y="468.82">+</text>
<text x="94.89" y="290.59">.</text>
<text x="492.59" y="458.40">+</text>
<text x="439.86" y="392.14">.</text>
<text x="435.44" y="130.63">+</text>
<text x="495.77" y="256.95">+</text>
<text x="496.14" y="284.26">.</text>
<text x="215.97" y="398.38">+</text>
<text x="290.35" y="385.00">.</text>
<text x="375.25" y="347.27">.</text>
<text x="131.06" y="350.20">*</text>
<text x="165.94" y="353.68">.</text>
<text x="259.14" y="41.05">.</text>
<text x="459.76" y="352.94">+</text>
<text x="260.59" y="60.49">.</text>
<text x="317.08" y="31.44">.</text>
<text x="76.21" y="7.05">.</text>
<text x="382.16" y="68.28">+</text>
<text x="226.37" y="149.33">.</text>
<text x="313.17" y="133.83">+</text>
<text x="373.99" y="83.01">+</text>
<text x="414.24" y="246.58">+</text>
<text x="38.34" y="457.66">.</text>
<text x="496.06" y="175.87">.</text>
<text x="68.91" y="312.47">.</text>
<text x="128.89" y="423.05">+</text>
<text x="268.54" y="35.11">+</text>
<text x="42.64" y="61.21">.</text>
<text x="174.91" y="32.13">*</text>
<text x="444.02" y="87.26">+</text>
<text x="450.83" y="389.60">+</text>
<text x="119.03" y="96.07">.</text>
<text x="494.41" y="20.66">+</text>
<text x="99.50" y="215.65">.</text>
<text x="15.67" y="217.38">.</text>
<text x="492.10" y="354.14">*</text>
<text x="144.23" y="146.39">+</text>
<text x="55.36" y="401.55">.</text>
<text x="284.31" y="14.62">+</text>
<text x="390.44" y="263.30">.</text>
<text x="120.63" y="432.71">+</text>
<text x="43.94" y="309.09">+</text>
<text x="179.86" y="180.16">+</text>
<text x="106.67" y="7.81">.</text>
<text x="354.78" y="170.50">*</text>
<text x="374.18" y="64.12">+</text>
<text x="61.85" y="259.57">+</text>
<text x="72.41" y="445.39">+</text>
<text x="20.85" y="167.96">.</text>
<text x="189.57" y="422.07">.</text>
<text x="76.14" y="109.13">.</text>
<text x="261.20" y="443.34">+</text>
<text x="92.08" y="401.51">+</text>
<text x="450.98" y="184.40">*</text>
<text x="201.59" y="311.78">.</text>
<text x="106.38" y="417.84">+</text>
<text x="372.39" y="81.62">+</text>
<text x="246.05" y="52.31">.</text>
<text x="131.14" y="449.90">+</text>
<text x="220.96" y="20.50">.</text>
<text x="436.52" y="482.22">+</text>
<text x="266.24" y="76.92">.</text>
<text x="249.38" y="157.51">*</text>
<text x="37.74" y="65.48">+</text>
<text x="28.65" y="121.56">*</text>
<text x="452.98" y="102.79">.</text>
<text x="154.49" y="92.88">+</text>
<text x="90.37" y="465.89">.</text>
<text x="4.68" y="478.54">+</text>
<text x="189.43" y="313.38">.</text>
<text x="253.05" y="110.00">.</text>
<text x="442.73" y="80.27">.</text>
<text x="374.95" y="182.54">.</text>
<text x="70.81" y="60.86">.</text>
<text x="64.81" y="8.97">+</text>
<text x="388.47" y="150.03">.</text>
<text x="475.79" y="368.68">.</text>
<text x="257.26" y="165.27">.</text>
<text x="143.45" y="433.96">+</text>
<text x="191.25" y="28.99">+</text>
<text x="152.67" y="471.71">+</text>
<text x="428.53" y="303.90">+</text>
<text x="490.42" y="393.58">+</text>
<text x="97.05" y="39.14">+</text>
<text x="330.78" y="391.38">.</text>
<text x="284.55" y="407.66">+</text>
<text x="166.45" y="271.55">.</text>
<text x="448.14" y="294.53">.</text>
<text x="424.92" y="211.62">.</text>
<text x="192.63" y="372.07">+</text>
<text x="372.01" y="422.36">+</text>
<text x="66.97" y="366.09">.</text>
<text x="329.46" y="348.45">.</text>
<text x="293.60" y="392.28">.</text>
<text x="460.99" y="331.93">.</text>
<text x="252.28" y="249.17">+</text>
<text x="307.97" y="215.57">.</text>
<text x="248.14" y="112.87">.</text>
<text x="123.23" y="306.97">.</text>
<text x="475.65" y="441.04">.</text>
<text x="136.91" y="267.71">.</text>
<text x="378.00" y="271.19">*</text>
<text x="58.42" y="324.99">+</text>
<text x="413.23" y="51.52">.</text>
<text x="254.44" y="453.92">.</text>
<text x="338.81" y="321.39">.</text>
<text x="282.57" y="312.23">.</text>
<text x="297.82" y="374.80">.</text>
<text x="311.69" y="474.06">.</text>
<text x="272.50" y="11.85">+</text>
<text x="458.94" y="443.00">.</text>
<text x="29.89" y="103.08">*</text>
<text x="142.39" y="33.95">*</text>
<text x="114.31" y="361.35">.</text>
<text x="488.88" y="389.79">+</text>
<text x="446.88" y="442.08">+</text>
<text x="50.32" y="438.74">+</text>
<text x="29.38" y="85.84">.</text>
<text x="273.33" y="238.69">*</text>
<text x="316.21" y="72.78">*</text>
<text x="167.26" y="466.14">+</text>
<text x="281.72" y="393.56">.</text>
<text x="380.48" y="373.89">*</text>
<text x="143.39" y="147.34">+</text>
<text x="229.61" y="69.37">.</text>
<text x="144.84" y="398.53">.</text>
<text x="273.98" y="334.89">.</text>
<text x="59.67" y="233.00">.</text>
<text x="462.95" y="288.01">.</text>
<text x="198.67" y="444.35">+</text>
<text x="243.07" y="112.10">+</text>
<text x="364.55" y="289.06">+</text>
<text x="451.16" y="99.26">+</text>
<text x="156.89" y="186.00">.</text>
<text x="404.65" y="237.06">+</text>
<text x="326.11" y="286.88">.</text>
<text x="77.13" y="93.00">*</text>
<text x="179.39" y="79.27">*</text>
<text x="211.76" y="170.99">*</text>
<text x="328.43" y="207.01">.</text>
<text x="239.36" y="93.34">.</text>
<text x="63.63" y="204.56">+</text>
<text x="104.00" y="218.28">*</text>
<text x="14.43" y="414.31">.</text>
<text x="129.75" y="85.14">.</text>
<text x="475.18" y="258.08">.</text>
<text x="354.24" y="105.66">+</text>
<text x="411.97" y="443.91">+</text>
<text x="150.78" y="457.15">+</text>
<text x="309.47" y="469.70">+</text>
<text x="132.46" y="195.04">.</text>
<text x="269.04" y="45.03">*</text>
<text x="41.92" y="151.44">*</text>
<text x="244.97" y="16.48">+</text>
<text x="95.87" y="61.95">*</text>
<text x="21.03" y="321.80">.</text>
<text x="482.27" y="481.31">+</text>
<text x="139.48" y="47.64">.</text>
<text x="251.53" y="258.56">*</text>
<text x="70.14" y="238.82">*</text>
<text x="477.67" y="18.90">+</text>
<text x="425.88" y="268.09">*</text>
<text x="284.19" y="285.14">+</text>
<text x="145.01" y="365.18">.</text>
<text x="455.50" y="423.76">+</text>
<text x="239.68" y="329.87">*</text>
<text x="267.14" y="413.95">+</text>
<text x="300.32" y="188.98">+</text>
<text x="147.49" y="183.24">*</text>
<text x="225.07" y="385.52">+</text>
<text x="211.72" y="452.23">+</text>
<text x="160.02" y="275.23">.</text>
<text x="325.60" y="383.00">*</text>
<text x="69.87" y="286.30">+</text>
<text x="168.27" y="38.20">+</text>
<text x="358.11" y="224.82">+</text>
<text x="267.90" y="18.83">*</text>
<text x="206.69" y="135.61">.</text>
<text x="150.99" y="273.45">*</text>
<text x="351.13" y="52.35">.</text>
<text x="90.18" y="159.01">+</text>
<text x="40.47" y="0.62">.</text>
<text x="418.24" y="139.17">+</text>
<text x="146.72" y="19.35">.</text>
<text x="118.15" y="28.54">+</text>
<text x="47.36" y="461.85">.</text>

</svg>