
<svg viewBox="0 0 500 500" xmlns="http://www.w.org/2000/svg" width="100%" height="100%" style="background-color: #0a0a14; font-family: 'Courier New', Courier, monospace;">
    <style>
        text { fill: #aaa; font-size: 10px; text-anchor: middle; dominant-baseline: middle; }
    </style>
    <text x="305.58" y="425.23">+</text>
<text x="334.68" y="46.06">.</text>
<text x="241.17" y="144.56">+</text>
<text x="427.32" y="285.52">*</text>
<text x="423.53" y="438.63">+</text>
<text x="491.73" y="101.20">.</text>
<text x="436.94" y="498.41">+</text>
<text x="329.31" y="117.02">.</text>
<text x="468.04" y="107.64">.</text>
<text x="188.35" y="168.23">+</text>
<text x="361.69" y="51.11">*</text>
<text x="11.96" y="469.18">.</text>
<text x="111.11" y="59.69">.</text>
<text x="276.57" y="436.84">+</text>
<text x="356.87" y="305.35">+</text>
<text x="92.78" y="82.36">+</text>
<text x="435.54" y="275.68">*</text>
<text x="45.52" y="90.93">+</text>
<text x="449.00" y="154.82">.</text>
<text x="71.63" y="439.47">+</text>
<text x="44.59" y="417.05">*</text>
<text x="186.06" y="163.32">.</text>
<text x="386.15" y="497.95">+</text>
<text x="116.79" y="382.20">+</text>
<text x="395.77" y="491.66">+</text>
<text x="348.04" y="37.47">*</text>
<text x="109.48" y="302.59">+</text>
<text x="389.57" y="187.56">.</text>
<text x="483.71" y="431.07">+</text>
<text x="254.02" y="274.48">.</text>
<text x="224.51" y="12.03">.</text>
<text x="262.22" y="222.03">.</text>
<text x="307.46" y="317.89">.</text>
<text x="458.06" y="236.88">+</text>
<text x="122.29" y="315.60">.</text>
<text x="422.95" y="354.70">+</text>
<text x="309.41" y="45.40">+</text>
<text x="233.59" y="495.18">.</text>
<text x="262.12" y="245.42">+</text>
<text x="413.91" y="75.91">.</text>
<text x="284.02" y="475.49">+</text>
<text x="480.22" y="341.96">.</text>
<text x="241.67" y="68.62">*</text>
<text x="379.78" y="404.74">.</text>
<text x="83.20" y="281.85">+</text>
<text x="260.56" y="242.66">.</text>
<text x="94.29" y="356.26">*</text>
<text x="145.18" y="488.05">.</text>
<text x="453.53" y="382.99">.</text>
<text x="64.59" y="145.77">.</text>
<text x="224.70" y="367.35">.</text>
<text x="327.11" y="84.56">.</text>
<text x="335.27" y="78.92">.</text>
<text x="289.75" y="457.23">*</text>
<text x="102.93" y="13.72">+</text>
<text x="480.77" y="172.11">+</text>
<text x="195.93" y="349.02">+</text>
<text x="179.30" y="80.89">+</text>
<text x="107.87" y="139.74">.</text>
<text x="400.86" y="160.77">.</text>
<text x="228.43" y="375.95">+</text>
<text x="341.03" y="259.54">+</text>
<text x="78.62" y="461.21">.</text>
<text x="117.57" y="67.74">+</text>
<text x="176.69" y="411.95">+</text>
<text x="385.18" y="439.48">+</text>
<text x="496.18" y="47.87">.</text>
<text x="65.34" y="253.61">.</text>
<text x="272.88" y="424.19">+</text>
<text x="248.22" y="179.96">.</text>
<text x="2.83" y="304.91">.</text>
<text x="294.69" y="382.90">+</text>
<text x="85.94" y="109.35">+</text>
<text x="338.42" y="112.89">+</text>
<text x="245.15" y="448.44">*</text>
<text x="108.58" y="338.64">+</text>
<text x="53.55" y="118.07">+</text>
<text x="197.10" y="291.16">.</text>
<text x="482.78" y="104.11">.</text>
<text x="122.47" y="131.70">+</text>
<text x="277.82" y="324.66">.</text>
<text x="68.73" y="36.85">*</text>
<text x="273.28" y="64.49">+</text>
<text x="266.29" y="485.00">*</text>
<text x="145.06" y="304.41">+</text>
<text x="271.81" y="244.87">*</text>
<text x="39.84" y="142.25">+</text>
<text x="20.61" y="113.75">+</text>
<text x="90.95" y="226.52">.</text>
<text x="151.65" y="376.95">+</text>
<text x="266.02" y="351.22">.</text>
<text x="107.52" y="325.59">+</text>
<text x="467.85" y="259.96">.</text>
<text x="93.09" y="79.76">+</text>
<text x="228.87" y="382.95">*</text>
<text x="474.20" y="168.86">+</text>
<text x="459.92" y="297.82">*</text>
<text x="202.08" y="197.61">+</text>
<text x="468.45" y="422.78">+</text>
<text x="398.78" y="244.33">+</text>
<text x="133.79" y="163.96">.</text>
<text x="68.29" y="123.06">+</text>
<text x="461.07" y="421.20">+</text>
<text x="227.39" y="110.00">.</text>
<text x="481.19" y="221.57">+</text>
<text x="433.92" y="372.16">+</text>
<text x="415.89" y="454.63">+</text>
<text x="242.44" y="65.86">.</text>
<text x="197.79" y="190.77">.</text>
<text x="482.46" y="318.35">+</text>
<text x="5.87" y="196.35">+</text>
<text x="27.52" y="264.68">.</text>
<text x="477.40" y="431.54">+</text>
<text x="33.41" y="325.06">+</text>
<text x="266.02" y="356.00">+</text>
<text x="430.07" y="336.10">.</text>
<text x="365.43" y="333.36">.</text>
<text x="440.77" y="172.16">+</text>
<text x="18.37" y="173.18">.</text>
<text x="423.56" y="466.63">+</text>
<text x="495.75" y="279.80">+</text>
<text x="161.93" y="402.69">+</text>
<text x="165.50" y="287.22">.</text>
<text x="62.47" y="406.45">*</text>
<text x="173.01" y="61.81">+</text>
<text x="209.50" y="216.56">+</text>
<text x="71.63" y="147.09">.</text>
<text x="11.07" y="157.59">+</text>
<text x="324.11" y="454.97">+</text>
<text x="323.20" y="174.68">+</text>
<text x="7.54" y="25.72">.</text>
<text x="400.45" y="146.31">*</text>
<text x="155.22" y="50.85">+</text>
<text x="451.43" y="167.88">.</text>
<text x="493.35" y="460.26">+</text>
<text x="216.18" y="499.95">*</text>
<text x="184.00" y="398.96">+</text>
<text x="48.48" y="409.89">.</text>
<text x="124.17" y="224.13">.</text>
<text x="177.22" y="193.73">+</text>
<text x="325.14" y="51.58">+</text>
<text x="486.59" y="150.18">+</text>
<text x="335.34" y="238.21">.</text>
<text x="223.39" y="321.51">+</text>
<text x="257.08" y="251.96">.</text>
<text x="473.89" y="129.70">+</text>
<text x="87.29" y="325.73">.</text>
<text x="33.13" y="32.02">+</text>
<text x="124.95" y="81.23">.</text>
<text x="350.13" y="145.30">+</text>
<text x="91.10" y="497.60">.</text>
<text x="246.79" y="134.29">.</text>
<text x="236.07" y="344.08">.</text>
<text x="95.20" y="100.82">+</text>
<text x="129.98" y="447.03">.</text>
<text x="143.00" y="478.18">.</text>
<text x="113.75" y="280.64">+</text>
<text x="324.29" y="87.28">+</text>
<text x="381.04" y="83.65">*</text>
<text x="171.46" y="231.99">.</text>
<text x="497.98" y="379.25">.</text>
<text x="349.46" y="75.54">.</text>
<text x="186.38" y="411.38">+</text>
<text x="201.59" y="321.91">.</text>
<text x="250.10" y="38.38">+</text>
<text x="105.82" y="192.80">.</text>
<text x="247.50" y="319.03">+</text>
<text x="309.27" y="367.90">.</text>
<text x="104.09" y="93.49">+</text>
<text x="433.76" y="295.34">+</text>
<text x="77.39" y="56.83">*</text>
<text x="422.72" y="333.78">+</text>
<text x="323.70" y="199.11">.</text>
<text x="338.07" y="412.80">.</text>
<text x="192.03" y="318.42">.</text>
<text x="287.54" y="167.18">.</text>
<text x="44.80" y="216.04">*</text>
<text x="157.23" y="40.49">+</text>
<text x="219.17" y="69.85">*</text>
<text x="196.85" y="101.59">+</text>
<text x="484.75" y="453.91">*</text>
<text x="469.45" y="158.02">.</text>
<text x="117.30" y="230.74">*</text>
<text x="272.96" y="241.03">+</text>
<text x="413.63" y="138.16">+</text>
<text x="387.67" y="277.00">+</text>
<text x="177.71" y="334.02">*</text>
<text x="281.79" y="464.16">.</text>
<text x="473.10" y="40.51">+</text>
<text x="496.97" y="213.89">+</text>
<text x="88.88" y="75.40">.</text>
<text x="239.98" y="333.53">+</text>
<text x="453.99" y="126.61">+</text>
<text x="497.03" y="276.62">.</text>
<text x="71.41" y="404.44">.</text>
<text x="343.73" y="85.22">.</text>
<text x="217.73" y="107.79">*</text>
<text x="313.32" y="90.95">+</text>
<text x="133.27" y="339.11">.</text>
<text x="9.14" y="19.65">.</text>
<text x="443.54" y="448.65">+</text>
<text x="51.39" y="15.97">.</text>
<text x="214.01" y="22.94">.</text>
<text x="126.52" y="171.85">+</text>
<text x="268.76" y="163.05">.</text>
<text x="462.63" y="19.95">+</text>
<text x="455.96" y="242.21">*</text>
<text x="32.72" y="178.93">+</text>
<text x="386.81" y="360.30">.</text>
<text x="438.67" y="441.33">+</text>
<text x="430.46" y="190.80">.</text>
<text x="56.22" y="141.19">.</text>
<text x="189.85" y="274.83">.</text>

</svg>