
<svg viewBox="0 0 500 500" xmlns="http://www.w.org/2000/svg" width="100%" height="100%" style="background-color: #0a0a14; font-family: 'Courier New', Courier, monospace;">
    <style>
        text { fill: #aaa; font-size: 10px; text-anchor: middle; dominant-baseline: middle; }
    </style>
    <text x="10.78" y="163.68">.</text>
<text x="256.59" y="336.90">.</text>
<text x="182.96" y="41.49">.</text>
<text x="57.83" y="72.93">.</text>
<text x="107.53" y="177.37">+</text>
<text x="437.86" y="430.56">+</text>
<text x="469.47" y="11.03">.</text>
<text x="252.57" y="251.43">+</text>
<text x="210.67" y="115.95">+</text>
<text x="18.44" y="490.52">.</text>
<text x="166.39" y="398.39">+</text>
<text x="398.86" y="226.51">.</text>
<text x="404.84" y="244.74">*</text>
<text x="416.11" y="278.08">+</text>
<text x="20.14" y="9.43">.</text>
<text x="499.57" y="33.52">+</text>
<text x="418.30" y="479.88">+</text>
<text x="24.26" y="345.33">.</text>
<text x="136.90" y="271.43">.</text>
<text x="232.41" y="146.70">+</text>
<text x="48.14" y="385.91">.</text>
<text x="263.26" y="117.66">+</text>
<text x="220.31" y="361.83">.</text>
<text x="72.09" y="380.38">+</text>
<text x="205.57" y="348.04">.</text>
<text x="304.32" y="208.64">.</text>
<text x="134.74" y="302.98">*</text>
<text x="4.21" y="68.17">+</text>
<text x="182.51" y="257.15">+</text>
<text x="146.65" y="161.19">+</text>
<text x="190.31" y="185.20">+</text>
<text x="389.91" y="376.04">+</text>
<text x="346.18" y="238.97">+</text>
<text x="96.50" y="286.00">+</text>
<text x="302.71" y="20.69">.</text>
<text x="28.76" y="8.33">+</text>
<text x="71.01" y="187.64">+</text>
<text x="262.09" y="20.92">.</text>
<text x="230.51" y="468.83">*</text>
<text x="253.76" y="64.77">+</text>
<text x="238.26" y="305.71">.</text>
<text x="473.09" y="331.13">.</text>
<text x="464.04" y="341.57">+</text>
<text x="195.61" y="370.74">*</text>
<text x="73.84" y="360.10">+</text>
<text x="288.67" y="79.84">+</text>
<text x="101.12" y="497.28">.</text>
<text x="297.33" y="126.35">+</text>
<text x="374.85" y="157.89">+</text>
<text x="413.53" y="49.96">+</text>
<text x="450.26" y="35.30">*</text>
<text x="381.88" y="340.32">*</text>
<text x="366.29" y="269.46">.</text>
<text x="57.32" y="179.68">*</text>
<text x="137.77" y="432.83">+</text>
<text x="3.13" y="75.49">+</text>
<text x="399.99" y="191.67">+</text>
<text x="209.06" y="21.98">*</text>
<text x="195.23" y="246.14">.</text>
<text x="82.57" y="404.23">+</text>
<text x="39.68" y="230.25">.</text>
<text x="86.73" y="78.67">.</text>
<text x="84.77" y="269.52">+</text>
<text x="298.77" y="117.04">+</text>
<text x="27.33" y="298.99">.</text>
<text x="285.69" y="251.48">+</text>
<text x="393.83" y="438.59">.</text>
<text x="422.75" y="456.91">+</text>
<text x="178.14" y="169.91">*</text>
<text x="411.93" y="434.28">.</text>
<text x="420.74" y="180.48">.</text>
<text x="70.01" y="392.05">*</text>
<text x="350.19" y="449.06">+</text>
<text x="144.80" y="56.67">.</text>
<text x="248.11" y="432.05">*</text>
<text x="35.83" y="56.27">.</text>
<text x="433.96" y="208.03">.</text>
<text x="253.73" y="208.71">.</text>
<text x="497.58" y="256.67">.</text>
<text x="85.07" y="119.87">.</text>
<text x="128.70" y="62.35">.</text>
<text x="14.34" y="335.54">+</text>
<text x="161.58" y="251.75">+</text>
<text x="353.48" y="300.82">+</text>
<text x="239.33" y="350.92">*</text>
<text x="476.90" y="437.56">+</text>
<text x="155.95" y="170.15">.</text>
<text x="174.08" y="260.43">+</text>
<text x="343.79" y="346.29">.</text>
<text x="362.18" y="206.20">.</text>
<text x="148.27" y="329.22">*</text>
<text x="180.61" y="54.38">+</text>
<text x="153.44" y="373.03">+</text>
<text x="420.87" y="161.84">.</text>
<text x="302.65" y="289.48">+</text>
<text x="2.77" y="51.21">.</text>
<text x="250.49" y="184.67">+</text>
<text x="15.83" y="125.55">+</text>
<text x="253.05" y="82.49">+</text>
<text x="403.58" y="235.61">*</text>
<text x="416.65" y="472.22">.</text>
<text x="40.30" y="418.60">*</text>
<text x="56.79" y="411.97">.</text>
<text x="285.76" y="309.43">*</text>
<text x="210.83" y="442.23">.</text>
<text x="435.13" y="281.54">+</text>
<text x="229.43" y="117.52">*</text>
<text x="393.68" y="447.61">+</text>
<text x="227.49" y="50.94">+</text>
<text x="97.35" y="330.80">.</text>
<text x="478.07" y="270.30">.</text>
<text x="203.62" y="434.28">.</text>
<text x="414.06" y="95.57">+</text>
<text x="458.01" y="317.68">*</text>
<text x="402.53" y="314.09">+</text>
<text x="149.57" y="499.84">*</text>
<text x="248.66" y="13.97">+</text>
<text x="35.51" y="479.61">.</text>
<text x="453.54" y="332.03">+</text>
<text x="21.04" y="211.95">.</text>
<text x="86.83" y="216.29">.</text>
<text x="229.81" y="200.67">*</text>
<text x="127.89" y="136.36">.</text>
<text x="280.10" y="445.31">*</text>
<text x="498.67" y="110.89">.</text>
<text x="426.49" y="306.73">*</text>
<text x="398.07" y="400.03">.</text>
<text x="172.90" y="356.52">+</text>
<text x="335.35" y="248.30">.</text>
<text x="226.83" y="378.63">.</text>
<text x="399.19" y="494.34">.</text>
<text x="306.95" y="352.95">+</text>
<text x="234.33" y="294.23">+</text>
<text x="305.91" y="35.98">.</text>
<text x="93.02" y="174.73">+</text>
<text x="252.56" y="374.53">.</text>
<text x="441.88" y="340.40">.</text>
<text x="478.20" y="433.90">.</text>
<text x="306.94" y="211.84">.</text>
<text x="265.59" y="42.37">+</text>
<text x="471.59" y="165.89">*</text>
<text x="74.46" y="264.28">.</text>
<text x="154.62" y="343.56">+</text>
<text x="208.90" y="483.02">.</text>
<text x="145.37" y="39.24">+</text>
<text x="405.96" y="283.74">+</text>
<text x="183.03" y="494.41">+</text>
<text x="473.18" y="261.50">.</text>
<text x="391.49" y="60.43">*</text>
<text x="189.33" y="388.93">.</text>
<text x="235.66" y="6.89">.</text>
<text x="242.70" y="495.27">.</text>
<text x="185.64" y="267.35">+</text>
<text x="355.27" y="109.31">+</text>
<text x="122.47" y="400.04">.</text>
<text x="400.83" y="273.82">.</text>
<text x="143.48" y="308.96">.</text>
<text x="260.31" y="335.17">.</text>
<text x="287.94" y="356.53">*</text>
<text x="181.70" y="186.56">.</text>
<text x="423.97" y="391.07">.</text>
<text x="421.99" y="263.93">+</text>
<text x="358.38" y="237.50">*</text>
<text x="330.32" y="380.98">.</text>
<text x="248.16" y="22.67">.</text>
<text x="317.47" y="426.08">.</text>
<text x="107.85" y="153.00">*</text>
<text x="380.99" y="218.54">+</text>
<text x="313.56" y="142.98">.</text>
<text x="198.44" y="308.70">+</text>
<text x="280.91" y="320.57">.</text>
<text x="92.19" y="65.26">.</text>
<text x="375.57" y="182.98">.</text>
<text x="8.59" y="309.92">*</text>
<text x="429.58" y="197.94">+</text>
<text x="256.00" y="237.00">.</text>
<text x="383.15" y="209.87">+</text>
<text x="380.76" y="224.70">+</text>
<text x="220.94" y="52.33">*</text>
<text x="191.23" y="333.21">.</text>
<text x="250.39" y="465.43">.</text>
<text x="260.85" y="201.79">+</text>
<text x="484.14" y="287.46">.</text>
<text x="170.37" y="65.48">.</text>
<text x="115.61" y="444.82">+</text>
<text x="23.07" y="244.82">.</text>
<text x="429.75" y="213.44">.</text>
<text x="89.69" y="369.99">.</text>
<text x="205.73" y="474.98">.</text>
<text x="212.53" y="355.82">*</text>
<text x="307.28" y="15.69">.</text>
<text x="246.42" y="57.98">+</text>
<text x="180.15" y="198.59">+</text>
<text x="253.92" y="126.21">.</text>
<text x="82.62" y="183.36">.</text>
<text x="221.07" y="126.56">.</text>
<text x="360.46" y="285.21">.</text>
<text x="413.61" y="49.48">+</text>
<text x="44.42" y="429.63">.</text>
<text x="476.78" y="128.68">.</text>
<text x="67.62" y="130.92">*</text>
<text x="245.63" y="18.62">.</text>
<text x="159.91" y="422.78">.</text>
<text x="88.61" y="133.21">+</text>
<text x="449.76" y="122.64">.</text>
<text x="187.22" y="431.21">*</text>
<text x="498.56" y="417.91">.</text>
<text x="320.56" y="347.02">+</text>
<text x="14.88" y="423.25">*</text>

</svg>