
<svg viewBox="0 0 500 500" xmlns="http://www.w.org/2000/svg" width="100%" height="100%" style="background-color: #0a0a14; font-family: 'Courier New', Courier, monospace;">
    <style>
        text { fill: #aaa; font-size: 10px; text-anchor: middle; dominant-baseline: middle; }
    </style>
    <text x="498.03" y="336.79">.</text>
<text x="239.57" y="340.84">.</text>
<text x="447.27" y="463.52">.</text>
<text x="435.36" y="165.12">.</text>
<text x="404.63" y="431.98">+</text>
<text x="471.15" y="25.18">+</text>
<text x="398.60" y="475.53">+</text>
<text x="484.98" y="251.12">.</text>
<text x="441.17" y="138.75">.</text>
<text x="151.73" y="419.84">+</text>
<text x="28.08" y="139.26">.</text>
<text x="353.13" y="472.17">+</text>
<text x="366.69" y="356.14">.</text>
<text x="134.31" y="303.61">+</text>
<text x="91.49" y="79.38">.</text>
<text x="276.88" y="270.34">.</text>
<text x="458.06" y="171.16">.</text>
<text x="462.16" y="455.18">+</text>
<text x="439.77" y="460.54">.</text>
<text x="32.00" y="97.26">+</text>
<text x="407.20" y="23.76">+</text>
<text x="250.17" y="86.44">+</text>
<text x="391.31" y="275.96">*</text>
<text x="166.92" y="211.23">+</text>
<text x="264.16" y="335.79">*</text>
<text x="186.17" y="132.78">+</text>
<text x="66.14" y="297.28">.</text>
<text x="462.35" y="491.07">*</text>
<text x="204.26" y="443.87">.</text>
<text x="78.30" y="273.92">+</text>
<text x="368.47" y="473.72">+</text>
<text x="18.65" y="422.83">+</text>
<text x="349.99" y="269.61">+</text>
<text x="145.10" y="18.14">+</text>
<text x="243.61" y="409.98">+</text>
<text x="257.26" y="454.89">.</text>
<text x="322.80" y="224.11">*</text>
<text x="221.61" y="128.31">.</text>
<text x="460.57" y="319.59">+</text>
<text x="403.28" y="137.97">+</text>
<text x="4.78" y="267.12">+</text>
<text x="482.61" y="253.36">.</text>
<text x="12.35" y="75.71">.</text>
<text x="443.28" y="291.21">.</text>
<text x="152.77" y="119.10">.</text>
<text x="382.54" y="51.44">.</text>
<text x="96.18" y="139.40">.</text>
<text x="445.18" y="390.37">+</text>
<text x="144.44" y="183.53">.</text>
<text x="319.75" y="36.70">.</text>
<text x="262.46" y="65.13">.</text>
<text x="349.80" y="486.66">.</text>
<text x="387.59" y="213.89">+</text>
<text x="275.17" y="66.29">+</text>
<text x="446.34" y="356.66">*</text>
<text x="238.64" y="202.63">.</text>
<text x="415.12" y="303.88">.</text>
<text x="416.63" y="338.00">.</text>
<text x="63.01" y="30.02">.</text>
<text x="200.21" y="10.11">*</text>
<text x="160.14" y="58.20">+</text>
<text x="202.40" y="438.09">*</text>
<text x="307.09" y="92.01">.</text>
<text x="478.55" y="383.14">+</text>
<text x="57.82" y="235.80">+</text>
<text x="367.97" y="420.94">+</text>
<text x="32.89" y="162.81">.</text>
<text x="329.90" y="121.64">+</text>
<text x="426.98" y="447.14">+</text>
<text x="52.66" y="102.01">.</text>
<text x="281.77" y="209.45">+</text>
<text x="247.92" y="254.07">.</text>
<text x="76.31" y="262.65">.</text>
<text x="487.35" y="101.95">*</text>
<text x="363.14" y="191.16">+</text>
<text x="223.86" y="317.47">*</text>
<text x="421.78" y="326.21">.</text>
<text x="375.87" y="184.74">+</text>
<text x="102.74" y="29.38">+</text>
<text x="434.13" y="29.16">+</text>
<text x="432.24" y="114.46">+</text>
<text x="496.85" y="348.83">+</text>
<text x="74.90" y="331.77">+</text>
<text x="463.40" y="392.05">+</text>
<text x="396.19" y="437.97">+</text>
<text x="181.98" y="254.21">+</text>
<text x="375.66" y="407.22">.</text>
<text x="70.89" y="433.87">*</text>
<text x="325.90" y="245.07">.</text>
<text x="129.98" y="147.12">+</text>
<text x="27.28" y="400.50">+</text>
<text x="47.96" y="364.42">*</text>
<text x="155.58" y="290.95">.</text>
<text x="171.80" y="100.32">+</text>
<text x="372.24" y="291.50">.</text>
<text x="37.85" y="347.50">+</text>
<text x="43.87" y="411.44">.</text>
<text x="408.89" y="173.84">+</text>
<text x="197.40" y="471.51">.</text>
<text x="239.84" y="119.91">.</text>
<text x="329.40" y="204.18">+</text>
<text x="397.22" y="223.56">+</text>
<text x="85.60" y="467.53">.</text>
<text x="203.51" y="427.26">.</text>
<text x="236.01" y="403.66">+</text>
<text x="286.46" y="320.78">+</text>
<text x="469.63" y="104.92">+</text>
<text x="380.81" y="348.28">.</text>
<text x="180.51" y="375.15">+</text>
<text x="123.82" y="52.78">*</text>
<text x="185.01" y="393.26">+</text>
<text x="397.47" y="237.75">.</text>
<text x="109.19" y="103.39">+</text>
<text x="136.08" y="270.39">+</text>
<text x="36.99" y="153.27">.</text>
<text x="100.97" y="288.27">+</text>
<text x="148.83" y="105.22">.</text>
<text x="104.45" y="371.03">.</text>
<text x="416.25" y="148.02">+</text>
<text x="444.77" y="242.40">*</text>
<text x="476.78" y="297.51">.</text>
<text x="422.49" y="83.85">.</text>
<text x="406.71" y="188.35">*</text>
<text x="112.54" y="321.55">*</text>
<text x="126.30" y="361.94">.</text>
<text x="300.41" y="466.58">*</text>
<text x="293.07" y="104.52">.</text>
<text x="140.52" y="404.68">.</text>
<text x="386.80" y="208.61">+</text>
<text x="72.45" y="398.39">+</text>
<text x="334.25" y="243.59">.</text>
<text x="320.00" y="465.01">+</text>
<text x="368.84" y="185.13">+</text>
<text x="160.34" y="255.36">.</text>
<text x="104.02" y="251.78">+</text>
<text x="257.67" y="98.02">+</text>
<text x="419.04" y="233.58">*</text>
<text x="148.71" y="310.35">+</text>
<text x="48.63" y="177.01">.</text>
<text x="407.25" y="410.28">*</text>
<text x="21.25" y="403.96">.</text>
<text x="132.74" y="360.81">.</text>
<text x="432.08" y="331.25">+</text>
<text x="255.47" y="373.79">.</text>
<text x="172.25" y="223.28">+</text>
<text x="164.51" y="252.90">+</text>
<text x="313.44" y="194.60">+</text>
<text x="57.64" y="135.44">+</text>
<text x="305.43" y="463.06">+</text>
<text x="253.05" y="60.58">.</text>
<text x="442.64" y="393.02">+</text>
<text x="66.85" y="486.86">+</text>
<text x="439.39" y="156.51">.</text>
<text x="32.49" y="458.19">+</text>
<text x="281.25" y="129.99">+</text>
<text x="369.15" y="299.14">.</text>
<text x="129.81" y="131.40">*</text>
<text x="426.86" y="446.34">*</text>
<text x="417.82" y="26.79">+</text>
<text x="337.75" y="345.11">+</text>
<text x="494.41" y="366.35">.</text>
<text x="102.89" y="153.37">+</text>
<text x="279.51" y="79.00">.</text>
<text x="463.11" y="199.34">+</text>
<text x="44.86" y="374.34">+</text>
<text x="225.07" y="53.53">.</text>
<text x="311.58" y="24.59">.</text>
<text x="148.98" y="472.25">+</text>
<text x="310.88" y="488.17">+</text>
<text x="321.94" y="282.54">+</text>
<text x="297.08" y="245.20">.</text>
<text x="169.38" y="36.95">+</text>
<text x="36.09" y="406.00">*</text>
<text x="112.46" y="165.84">.</text>
<text x="464.68" y="365.58">*</text>
<text x="201.41" y="400.11">+</text>
<text x="476.71" y="274.19">*</text>
<text x="446.27" y="142.75">+</text>
<text x="295.06" y="235.74">.</text>
<text x="368.34" y="169.02">*</text>
<text x="122.97" y="134.22">.</text>
<text x="213.62" y="307.68">.</text>
<text x="44.33" y="422.00">.</text>
<text x="311.17" y="465.27">+</text>
<text x="440.62" y="190.45">.</text>
<text x="159.02" y="369.11">.</text>
<text x="300.17" y="261.02">+</text>
<text x="403.18" y="370.61">.</text>
<text x="349.80" y="496.12">.</text>
<text x="85.39" y="259.28">.</text>
<text x="6.22" y="133.73">+</text>
<text x="246.41" y="468.19">.</text>
<text x="317.74" y="310.91">.</text>
<text x="432.49" y="14.93">.</text>
<text x="156.64" y="462.11">*</text>
<text x="325.92" y="64.04">+</text>
<text x="464.13" y="292.79">.</text>
<text x="415.43" y="457.44">*</text>
<text x="247.73" y="34.46">*</text>
<text x="182.74" y="473.38">.</text>
<text x="129.19" y="376.50">.</text>
<text x="430.39" y="219.07">+</text>
<text x="394.84" y="464.67">.</text>
<text x="133.42" y="436.46">+</text>
<text x="71.49" y="493.95">+</text>
<text x="135.68" y="330.04">+</text>
<text x="9.23" y="410.12">.</text>
<text x="360.67" y="394.60">*</text>
<text x="18.23" y="147.73">.</text>
<text x="289.18" y="407.11">.</text>

</svg>