
<svg viewBox="0 0 500 500" xmlns="http://www.w.org/2000/svg" width="100%" height="100%" style="background-color: #0a0a14; font-family: 'Courier New', Courier, monospace;">
    <style>
        text { fill: #aaa; font-size: 10px; text-anchor: middle; dominant-baseline: middle; }
    </style>
    <text x="39.06" y="222.01">*</text>
<text x="74.37" y="44.31">+</text>
<text x="130.18" y="332.49">+</text>
<text x="111.31" y="205.19">*</text>
<text x="62.97" y="150.54">.</text>
<text x="495.70" y="293.16">+</text>
<text x="220.23" y="219.11">+</text>
<text x="438.78" y="152.92">+</text>
<text x="43.81" y="337.57">.</text>
<text x="363.68" y="484.04">+</text>
<text x="22.69" y="445.46">.</text>
<text x="176.06" y="32.80">.</text>
<text x="186.11" y="235.65">*</text>
<text x="439.14" y="157.76">+</text>
<text x="294.60" y="332.95">.</text>
<text x="371.11" y="207.14">+</text>
<text x="405.28" y="235.73">+</text>
<text x="466.46" y="185.28">.</text>
<text x="499.66" y="467.26">*</text>
<text x="14.81" y="308.64">+</text>
<text x="336.13" y="246.92">+</text>
<text x="369.01" y="157.86">.</text>
<text x="99.49" y="33.52">.</text>
<text x="118.31" y="308.74">.</text>
<text x="391.51" y="496.58">*</text>
<text x="475.87" y="367.18">+</text>
<text x="264.71" y="233.65">.</text>
<text x="232.38" y="240.72">.</text>
<text x="303.44" y="92.01">.</text>
<text x="87.61" y="299.52">.</text>
<text x="76.70" y="279.29">.</text>
<text x="405.35" y="271.67">+</text>
<text x="198.54" y="6.78">+</text>
<text x="360.31" y="86.68">+</text>
<text x="396.06" y="467.89">.</text>
<text x="293.64" y="96.31">+</text>
<text x="248.72" y="110.39">+</text>
<text x="0.44" y="158.09">+</text>
<text x="253.65" y="354.82">*</text>
<text x="35.64" y="374.83">+</text>
<text x="394.58" y="450.35">*</text>
<text x="173.20" y="413.74">*</text>
<text x="92.10" y="27.90">.</text>
<text x="461.31" y="110.62">.</text>
<text x="221.41" y="411.89">+</text>
<text x="200.64" y="251.47">+</text>
<text x="364.37" y="116.14">+</text>
<text x="347.45" y="326.90">.</text>
<text x="234.23" y="390.80">.</text>
<text x="427.61" y="334.82">+</text>
<text x="471.06" y="398.41">.</text>
<text x="302.34" y="489.72">.</text>
<text x="363.25" y="310.67">+</text>
<text x="38.76" y="397.92">.</text>
<text x="77.08" y="420.06">+</text>
<text x="172.21" y="296.87">*</text>
<text x="273.40" y="384.70">*</text>
<text x="44.52" y="88.60">.</text>
<text x="204.61" y="396.65">.</text>
<text x="276.20" y="122.70">+</text>
<text x="426.82" y="73.59">+</text>
<text x="120.36" y="134.51">*</text>
<text x="79.47" y="70.67">.</text>
<text x="334.76" y="255.06">+</text>
<text x="35.25" y="114.60">+</text>
<text x="348.01" y="267.71">+</text>
<text x="87.86" y="478.39">*</text>
<text x="59.68" y="74.13">*</text>
<text x="144.95" y="142.47">.</text>
<text x="3.13" y="141.64">+</text>
<text x="352.33" y="121.93">.</text>
<text x="383.39" y="290.70">.</text>
<text x="223.83" y="178.71">+</text>
<text x="483.09" y="264.86">*</text>
<text x="332.34" y="268.15">*</text>
<text x="379.03" y="384.01">.</text>
<text x="481.12" y="451.62">.</text>
<text x="129.78" y="212.75">*</text>
<text x="54.42" y="246.18">*</text>
<text x="360.47" y="71.46">.</text>
<text x="77.45" y="457.68">.</text>
<text x="293.22" y="305.06">.</text>
<text x="74.01" y="96.91">+</text>
<text x="302.06" y="106.16">+</text>
<text x="142.86" y="145.33">+</text>
<text x="212.86" y="252.10">.</text>
<text x="191.77" y="200.81">+</text>
<text x="237.72" y="156.47">.</text>
<text x="242.79" y="442.41">+</text>
<text x="359.34" y="432.02">+</text>
<text x="126.78" y="358.72">.</text>
<text x="406.08" y="221.27">.</text>
<text x="480.53" y="95.27">*</text>
<text x="320.52" y="51.00">*</text>
<text x="332.31" y="279.64">.</text>
<text x="142.35" y="154.28">.</text>
<text x="85.42" y="43.26">.</text>
<text x="379.39" y="51.48">+</text>
<text x="355.13" y="308.37">*</text>
<text x="303.78" y="344.92">+</text>
<text x="286.40" y="11.70">.</text>
<text x="53.11" y="170.38">+</text>
<text x="441.63" y="36.16">+</text>
<text x="352.85" y="496.20">.</text>
<text x="418.33" y="202.97">.</text>
<text x="104.86" y="82.67">+</text>
<text x="53.32" y="72.41">.</text>
<text x="414.63" y="245.57">+</text>
<text x="144.95" y="399.70">.</text>
<text x="160.21" y="333.19">+</text>
<text x="46.15" y="424.71">+</text>
<text x="72.20" y="392.12">*</text>
<text x="467.42" y="284.40">.</text>
<text x="145.95" y="266.21">.</text>
<text x="466.80" y="248.82">.</text>
<text x="371.15" y="323.49">+</text>
<text x="9.88" y="159.74">.</text>
<text x="408.84" y="57.99">.</text>
<text x="169.84" y="24.95">+</text>
<text x="282.50" y="306.56">.</text>
<text x="244.35" y="225.06">+</text>
<text x="242.69" y="91.05">.</text>
<text x="432.14" y="158.50">*</text>
<text x="483.73" y="380.68">+</text>
<text x="472.63" y="467.45">.</text>
<text x="256.42" y="308.35">+</text>
<text x="384.56" y="293.29">+</text>
<text x="56.21" y="190.38">*</text>
<text x="277.45" y="140.39">.</text>
<text x="101.30" y="384.02">+</text>
<text x="303.24" y="87.09">.</text>
<text x="479.00" y="96.94">.</text>
<text x="26.84" y="56.75">+</text>
<text x="304.06" y="276.35">+</text>
<text x="214.87" y="31.84">+</text>
<text x="217.47" y="12.68">+</text>
<text x="479.56" y="164.98">+</text>
<text x="100.04" y="158.92">+</text>
<text x="360.85" y="86.93">+</text>
<text x="164.06" y="277.10">+</text>
<text x="80.47" y="424.41">.</text>
<text x="155.04" y="416.12">.</text>
<text x="428.19" y="354.35">.</text>
<text x="284.20" y="200.22">.</text>
<text x="468.27" y="346.64">*</text>
<text x="126.51" y="391.92">*</text>
<text x="208.69" y="50.83">*</text>
<text x="325.28" y="366.39">.</text>
<text x="215.15" y="269.58">.</text>
<text x="351.24" y="0.06">.</text>
<text x="155.18" y="233.34">+</text>
<text x="33.38" y="289.91">+</text>
<text x="29.20" y="407.09">+</text>
<text x="76.02" y="262.48">.</text>
<text x="185.25" y="145.85">.</text>
<text x="105.56" y="236.92">.</text>
<text x="164.62" y="25.19">+</text>
<text x="422.72" y="8.76">+</text>
<text x="275.91" y="215.12">+</text>
<text x="373.69" y="333.70">*</text>
<text x="30.76" y="408.13">.</text>
<text x="145.39" y="328.77">.</text>
<text x="149.16" y="37.49">.</text>
<text x="183.20" y="189.54">+</text>
<text x="219.61" y="113.46">+</text>
<text x="248.95" y="473.17">*</text>
<text x="289.37" y="413.49">.</text>
<text x="160.75" y="245.28">.</text>
<text x="439.56" y="289.64">+</text>
<text x="145.79" y="370.16">.</text>
<text x="278.85" y="492.85">*</text>
<text x="462.95" y="177.33">+</text>
<text x="459.47" y="479.50">*</text>
<text x="141.24" y="463.30">*</text>
<text x="472.93" y="418.11">.</text>
<text x="264.16" y="97.50">+</text>
<text x="149.86" y="141.14">*</text>
<text x="230.05" y="132.51">*</text>
<text x="460.95" y="128.80">.</text>
<text x="403.00" y="174.52">+</text>
<text x="74.24" y="202.89">.</text>
<text x="88.29" y="65.39">.</text>
<text x="158.11" y="235.12">*</text>
<text x="81.83" y="1.73">.</text>
<text x="61.27" y="18.02">+</text>
<text x="142.31" y="36.36">+</text>
<text x="421.11" y="426.44">+</text>
<text x="13.92" y="164.10">.</text>
<text x="479.03" y="234.02">.</text>
<text x="420.19" y="243.81">.</text>
<text x="199.46" y="213.96">.</text>
<text x="262.16" y="323.95">.</text>
<text x="492.75" y="307.05">.</text>
<text x="292.15" y="181.11">.</text>
<text x="259.62" y="277.40">*</text>
<text x="447.37" y="2.48">.</text>
<text x="240.60" y="452.23">+</text>
<text x="317.37" y="368.99">.</text>
<text x="291.87" y="112.53">.</text>
<text x="261.29" y="36.24">+</text>
<text x="141.75" y="124.27">.</text>
<text x="216.66" y="253.21">.</text>
<text x="268.43" y="156.89">.</text>
<text x="279.45" y="394.24">+</text>
<text x="36.50" y="457.34">.</text>
<text x="269.31" y="223.52">*</text>
<text x="126.14" y="7.33">.</text>
<text x="260.24" y="164.27">+</text>
<text x="161.36" y="423.30">*</text>
<text x="276.11" y="321.50">.</text>
<text x="26.52" y="78.60">.</text>
<text x="455.19" y="209.21">.</text>
<text x="349.79" y="438.11">+</text>
<text x="422.36" y="356.09">+</text>
<text x="376.74" y="101.10">.</text>
<text x="174.79" y="316.68">.</text>
<text x="252.94" y="80.47">+</text>

</svg>