
<svg viewBox="0 0 500 500" xmlns="http://www.w.org/2000/svg" width="100%" height="100%" style="background-color: #0a0a14; font-family: 'Courier New', Courier, monospace;">
    <style>
        text { fill: #aaa; font-size: 10px; text-anchor: middle; dominant-baseline: middle; }
    </style>
    <text x="10.94" y="127.69">+</text>
<text x="307.55" y="117.53">.</text>
<text x="354.72" y="25.59">.</text>
<text x="341.14" y="42.30">.</text>
<text x="417.86" y="164.09">*</text>
<text x="244.87" y="456.72">+</text>
<text x="222.23" y="157.40">.</text>
<text x="131.89" y="244.17">+</text>
<text x="89.35" y="326.80">*</text>
<text x="287.41" y="394.71">.</text>
<text x="137.65" y="479.92">+</text>
<text x="322.13" y="423.67">.</text>
<text x="100.31" y="344.56">.</text>
<text x="195.16" y="109.23">+</text>
<text x="280.04" y="377.76">.</text>
<text x="173.64" y="224.18">+</text>
<text x="223.54" y="109.57">.</text>
<text x="172.99" y="220.90">.</text>
<text x="123.98" y="79.80">+</text>
<text x="476.78" y="495.60">*</text>
<text x="330.81" y="447.28">+</text>
<text x="370.02" y="391.93">.</text>
<text x="66.96" y="142.61">+</text>
<text x="436.82" y="420.66">+</text>
<text x="273.67" y="254.46">+</text>
<text x="389.67" y="226.82">+</text>
<text x="130.73" y="372.51">*</text>
<text x="301.07" y="38.95">.</text>
<text x="303.82" y="15.30">*</text>
<text x="398.60" y="144.56">*</text>
<text x="168.35" y="450.90">+</text>
<text x="150.19" y="323.41">.</text>
<text x="183.58" y="416.48">+</text>
<text x="164.05" y="107.18">+</text>
<text x="427.50" y="432.14">*</text>
<text x="153.73" y="293.67">+</text>
<text x="276.90" y="388.31">*</text>
<text x="71.40" y="239.48">.</text>
<text x="73.49" y="404.74">+</text>
<text x="370.44" y="450.11">+</text>
<text x="348.88" y="83.76">.</text>
<text x="98.27" y="463.57">.</text>
<text x="265.37" y="347.11">+</text>
<text x="58.47" y="56.44">+</text>
<text x="246.25" y="255.32">.</text>
<text x="483.89" y="155.47">*</text>
<text x="151.59" y="335.09">.</text>
<text x="470.90" y="392.85">.</text>
<text x="403.97" y="311.17">+</text>
<text x="484.90" y="22.33">.</text>
<text x="269.55" y="222.90">.</text>
<text x="433.34" y="475.35">+</text>
<text x="198.25" y="170.76">+</text>
<text x="310.31" y="410.40">+</text>
<text x="250.32" y="451.04">.</text>
<text x="198.00" y="235.40">.</text>
<text x="487.77" y="213.25">+</text>
<text x="268.94" y="273.01">.</text>
<text x="163.95" y="77.61">+</text>
<text x="238.09" y="499.39">.</text>
<text x="93.73" y="126.45">*</text>
<text x="147.77" y="167.66">+</text>
<text x="326.50" y="336.74">*</text>
<text x="495.93" y="230.63">.</text>
<text x="179.24" y="92.94">+</text>
<text x="55.30" y="295.49">+</text>
<text x="370.14" y="158.49">+</text>
<text x="243.92" y="373.83">.</text>
<text x="352.59" y="127.32">+</text>
<text x="110.80" y="29.42">.</text>
<text x="5.00" y="161.70">+</text>
<text x="487.76" y="163.24">.</text>
<text x="8.00" y="358.91">*</text>
<text x="490.36" y="498.72">+</text>
<text x="199.54" y="326.04">.</text>
<text x="337.54" y="375.22">+</text>
<text x="297.60" y="341.39">.</text>
<text x="288.54" y="139.25">.</text>
<text x="180.11" y="93.46">.</text>
<text x="278.65" y="251.80">*</text>
<text x="403.03" y="390.98">+</text>
<text x="379.17" y="254.36">+</text>
<text x="413.92" y="85.19">*</text>
<text x="373.38" y="26.27">+</text>
<text x="191.44" y="482.41">.</text>
<text x="145.38" y="124.67">*</text>
<text x="442.02" y="479.93">.</text>
<text x="403.19" y="258.80">.</text>
<text x="357.26" y="12.24">*</text>
<text x="230.01" y="277.51">*</text>
<text x="467.07" y="280.82">+</text>
<text x="238.71" y="119.88">*</text>
<text x="210.64" y="433.66">+</text>
<text x="136.77" y="27.46">.</text>
<text x="293.03" y="394.91">+</text>
<text x="132.28" y="296.20">+</text>
<text x="217.74" y="208.04">.</text>
<text x="267.31" y="229.01">+</text>
<text x="315.34" y="446.49">.</text>
<text x="51.70" y="151.39">.</text>
<text x="47.89" y="360.59">.</text>
<text x="384.87" y="492.60">.</text>
<text x="349.10" y="131.28">+</text>
<text x="16.73" y="167.19">.</text>
<text x="457.26" y="229.53">+</text>
<text x="486.32" y="448.88">.</text>
<text x="319.15" y="422.70">+</text>
<text x="390.47" y="463.35">.</text>
<text x="36.37" y="388.12">+</text>
<text x="394.50" y="89.96">+</text>
<text x="257.20" y="420.47">.</text>
<text x="447.39" y="359.50">.</text>
<text x="324.63" y="484.10">.</text>
<text x="271.07" y="27.47">+</text>
<text x="424.32" y="207.10">+</text>
<text x="499.72" y="46.30">+</text>
<text x="204.14" y="65.69">.</text>
<text x="233.51" y="424.54">.</text>
<text x="271.22" y="45.57">*</text>
<text x="162.76" y="351.04">.</text>
<text x="496.03" y="156.40">.</text>
<text x="13.53" y="20.61">+</text>
<text x="141.64" y="288.72">.</text>
<text x="480.81" y="204.32">.</text>
<text x="27.38" y="348.66">.</text>
<text x="361.71" y="22.57">.</text>
<text x="90.47" y="177.20">+</text>
<text x="178.12" y="383.84">.</text>
<text x="154.96" y="287.74">+</text>
<text x="440.93" y="64.80">*</text>
<text x="157.21" y="292.33">+</text>
<text x="407.98" y="469.90">.</text>
<text x="192.73" y="243.90">+</text>
<text x="248.14" y="169.46">*</text>
<text x="186.39" y="134.18">+</text>
<text x="347.20" y="463.47">.</text>
<text x="98.04" y="358.62">.</text>
<text x="296.88" y="452.90">.</text>
<text x="288.99" y="308.20">+</text>
<text x="293.40" y="450.17">.</text>
<text x="237.11" y="469.78">+</text>
<text x="27.05" y="22.21">*</text>
<text x="485.16" y="497.07">+</text>
<text x="26.65" y="60.49">.</text>
<text x="292.69" y="145.78">+</text>
<text x="104.46" y="153.55">+</text>
<text x="206.34" y="494.18">.</text>
<text x="498.08" y="220.10">.</text>
<text x="483.12" y="221.23">+</text>
<text x="440.75" y="231.09">.</text>
<text x="103.27" y="123.10">.</text>
<text x="207.13" y="481.03">.</text>
<text x="172.27" y="338.76">.</text>
<text x="393.52" y="386.17">.</text>
<text x="55.30" y="350.76">+</text>
<text x="105.32" y="253.29">+</text>
<text x="53.05" y="179.94">+</text>
<text x="57.26" y="421.83">.</text>
<text x="140.51" y="327.15">+</text>
<text x="458.63" y="127.95">*</text>
<text x="325.72" y="419.75">.</text>
<text x="21.80" y="306.13">.</text>
<text x="430.76" y="375.53">.</text>
<text x="44.86" y="25.29">.</text>
<text x="216.86" y="305.00">*</text>
<text x="143.42" y="385.18">.</text>
<text x="55.51" y="328.74">+</text>
<text x="50.38" y="410.64">+</text>
<text x="379.12" y="82.33">+</text>
<text x="266.56" y="65.93">*</text>
<text x="411.26" y="398.36">*</text>
<text x="167.07" y="410.88">+</text>
<text x="285.31" y="468.05">+</text>
<text x="105.69" y="408.29">*</text>
<text x="278.87" y="7.60">*</text>
<text x="144.86" y="249.69">.</text>
<text x="168.28" y="299.08">.</text>
<text x="179.79" y="302.48">.</text>
<text x="188.30" y="485.93">+</text>
<text x="276.64" y="4.52">.</text>
<text x="343.58" y="294.16">*</text>
<text x="41.79" y="376.01">.</text>
<text x="384.43" y="231.23">.</text>
<text x="319.62" y="432.05">+</text>
<text x="329.13" y="413.58">+</text>
<text x="61.42" y="159.67">+</text>
<text x="433.07" y="68.52">+</text>
<text x="464.47" y="121.51">+</text>
<text x="206.62" y="245.89">+</text>
<text x="452.01" y="430.29">*</text>
<text x="1.48" y="423.17">+</text>
<text x="358.49" y="283.54">.</text>
<text x="349.18" y="224.89">.</text>
<text x="326.15" y="473.28">*</text>
<text x="267.11" y="200.11">.</text>
<text x="58.34" y="330.12">+</text>
<text x="109.77" y="355.05">+</text>
<text x="373.77" y="470.15">+</text>
<text x="296.09" y="232.25">*</text>
<text x="13.09" y="440.72">+</text>
<text x="251.24" y="80.55">*</text>
<text x="298.44" y="44.61">*</text>
<text x="26.38" y="458.79">*</text>

</svg>