
<svg viewBox="0 0 500 500" xmlns="http://www.w.org/2000/svg" width="100%" height="100%" style="background-color: #0a0a14; font-family: 'Courier New', Courier, monospace;">
    <style>
        text { fill: #aaa; font-size: 10px; text-anchor: middle; dominant-baseline: middle; }
    </style>
    <text x="30.92" y="7.21">.</text>
<text x="53.43" y="276.73">+</text>
<text x="249.21" y="36.04">+</text>
<text x="44.88" y="32.64">*</text>
<text x="355.11" y="223.17">*</text>
<text x="415.21" y="263.66">+</text>
<text x="270.38" y="29.48">+</text>
<text x="344.32" y="342.32">+</text>
<text x="175.92" y="69.54">*</text>
<text x="444.93" y="54.45">.</text>
<text x="494.00" y="321.96">.</text>
<text x="310.67" y="28.77">+</text>
<text x="294.68" y="184.10">+</text>
<text x="498.00" y="265.33">.</text>
<text x="222.90" y="167.81">+</text>
<text x="341.53" y="231.33">+</text>
<text x="299.11" y="117.67">.</text>
<text x="491.13" y="295.67">.</text>
<text x="9.56" y="418.80">.</text>
<text x="151.00" y="297.12">.</text>
<text x="265.60" y="238.60">+</text>
<text x="397.58" y="186.47">.</text>
<text x="137.81" y="376.30">*</text>
<text x="287.17" y="96.24">*</text>
<text x="147.90" y="427.94">+</text>
<text x="154.96" y="197.10">.</text>
<text x="285.17" y="130.60">+</text>
<text x="348.15" y="375.27">+</text>
<text x="358.94" y="151.99">.</text>
<text x="275.94" y="136.93">.</text>
<text x="25.85" y="141.73">+</text>
<text x="322.66" y="240.01">+</text>
<text x="93.06" y="441.37">*</text>
<text x="248.29" y="263.37">.</text>
<text x="395.64" y="164.90">.</text>
<text x="433.23" y="123.85">*</text>
<text x="95.99" y="76.99">+</text>
<text x="336.30" y="28.75">.</text>
<text x="425.80" y="221.15">+</text>
<text x="326.89" y="115.24">+</text>
<text x="33.94" y="122.82">+</text>
<text x="423.98" y="96.13">*</text>
<text x="43.73" y="369.16">.</text>
<text x="157.48" y="22.87">+</text>
<text x="279.87" y="215.42">.</text>
<text x="398.99" y="416.84">.</text>
<text x="173.78" y="362.83">.</text>
<text x="228.17" y="359.32">+</text>
<text x="66.44" y="451.42">.</text>
<text x="371.41" y="412.38">*</text>
<text x="298.81" y="429.24">+</text>
<text x="103.32" y="257.22">+</text>
<text x="449.35" y="140.04">.</text>
<text x="147.51" y="345.06">+</text>
<text x="9.29" y="2.93">.</text>
<text x="42.40" y="429.69">*</text>
<text x="373.17" y="300.99">.</text>
<text x="11.80" y="37.31">.</text>
<text x="469.04" y="343.50">*</text>
<text x="144.43" y="429.23">.</text>
<text x="130.32" y="51.60">+</text>
<text x="30.89" y="411.40">*</text>
<text x="359.41" y="391.85">.</text>
<text x="316.70" y="147.66">+</text>
<text x="384.82" y="421.63">.</text>
<text x="477.56" y="29.27">+</text>
<text x="372.82" y="201.59">.</text>
<text x="145.38" y="10.67">.</text>
<text x="416.75" y="329.49">+</text>
<text x="172.58" y="108.56">*</text>
<text x="224.29" y="458.57">+</text>
<text x="248.49" y="7.54">+</text>
<text x="408.46" y="204.64">.</text>
<text x="53.12" y="413.18">.</text>
<text x="229.27" y="278.31">.</text>
<text x="249.52" y="335.63">.</text>
<text x="32.05" y="93.45">+</text>
<text x="226.62" y="275.40">+</text>
<text x="66.44" y="438.66">+</text>
<text x="373.77" y="1.17">.</text>
<text x="38.83" y="179.08">.</text>
<text x="405.20" y="152.39">+</text>
<text x="315.54" y="320.98">.</text>
<text x="333.90" y="401.48">.</text>
<text x="466.75" y="87.17">.</text>
<text x="339.44" y="427.56">+</text>
<text x="170.62" y="99.26">+</text>
<text x="112.08" y="20.11">+</text>
<text x="121.68" y="309.58">+</text>
<text x="13.20" y="23.86">.</text>
<text x="462.32" y="433.48">+</text>
<text x="334.61" y="78.15">+</text>
<text x="154.64" y="29.58">.</text>
<text x="372.79" y="310.65">.</text>
<text x="479.12" y="139.62">+</text>
<text x="102.43" y="257.41">.</text>
<text x="95.82" y="106.61">*</text>
<text x="221.83" y="66.98">+</text>
<text x="251.36" y="46.50">.</text>
<text x="147.42" y="232.69">.</text>
<text x="258.15" y="455.14">.</text>
<text x="22.28" y="90.56">.</text>
<text x="326.23" y="154.73">*</text>
<text x="237.83" y="52.02">+</text>
<text x="489.79" y="196.59">*</text>
<text x="455.91" y="98.19">+</text>
<text x="233.16" y="407.54">.</text>
<text x="194.59" y="137.87">.</text>
<text x="284.98" y="323.36">.</text>
<text x="10.24" y="209.18">.</text>
<text x="491.94" y="243.21">+</text>
<text x="238.06" y="279.31">.</text>
<text x="272.10" y="284.66">+</text>
<text x="258.92" y="98.68">.</text>
<text x="276.89" y="482.77">.</text>
<text x="179.97" y="43.35">+</text>
<text x="298.96" y="499.10">+</text>
<text x="208.36" y="68.12">+</text>
<text x="185.20" y="229.66">.</text>
<text x="379.70" y="474.35">+</text>
<text x="140.98" y="265.47">.</text>
<text x="472.94" y="133.19">.</text>
<text x="335.32" y="444.71">.</text>
<text x="450.13" y="447.42">*</text>
<text x="161.49" y="167.72">*</text>
<text x="394.43" y="41.39">+</text>
<text x="318.93" y="136.62">+</text>
<text x="468.66" y="220.98">+</text>
<text x="142.82" y="280.06">.</text>
<text x="278.65" y="431.66">+</text>
<text x="128.60" y="426.32">+</text>
<text x="385.65" y="12.45">+</text>
<text x="483.77" y="143.37">+</text>
<text x="94.67" y="458.40">*</text>
<text x="120.80" y="72.98">*</text>
<text x="135.00" y="237.68">.</text>
<text x="464.40" y="476.73">.</text>
<text x="204.13" y="265.96">*</text>
<text x="313.26" y="241.91">.</text>
<text x="59.98" y="368.09">+</text>
<text x="390.21" y="400.92">.</text>
<text x="160.04" y="133.99">.</text>
<text x="186.98" y="474.56">+</text>
<text x="453.59" y="85.91">+</text>
<text x="19.03" y="134.75">+</text>
<text x="397.14" y="2.61">*</text>
<text x="323.28" y="37.60">.</text>
<text x="106.32" y="152.88">.</text>
<text x="210.54" y="491.83">+</text>
<text x="51.46" y="279.78">+</text>
<text x="236.16" y="187.37">+</text>
<text x="331.60" y="168.19">+</text>
<text x="194.52" y="67.79">+</text>
<text x="481.49" y="494.10">.</text>
<text x="473.79" y="171.74">*</text>
<text x="392.69" y="464.19">+</text>
<text x="189.64" y="257.56">+</text>
<text x="430.53" y="139.39">.</text>
<text x="192.43" y="71.63">+</text>
<text x="300.15" y="345.34">.</text>
<text x="457.17" y="383.34">.</text>
<text x="375.77" y="119.36">.</text>
<text x="37.34" y="350.93">.</text>
<text x="253.30" y="460.57">+</text>
<text x="461.76" y="100.66">+</text>
<text x="151.48" y="98.60">+</text>
<text x="414.76" y="199.18">+</text>
<text x="189.98" y="320.93">.</text>
<text x="235.51" y="14.35">*</text>
<text x="156.47" y="128.76">.</text>
<text x="10.79" y="483.34">+</text>
<text x="474.59" y="4.29">+</text>
<text x="66.68" y="24.75">+</text>
<text x="305.06" y="199.90">.</text>
<text x="458.02" y="299.98">*</text>
<text x="159.16" y="85.25">*</text>
<text x="222.99" y="242.37">+</text>
<text x="278.02" y="325.73">+</text>
<text x="252.57" y="301.81">+</text>
<text x="377.64" y="125.87">+</text>
<text x="145.96" y="267.69">.</text>
<text x="311.24" y="17.51">.</text>
<text x="76.03" y="496.78">.</text>
<text x="336.56" y="142.78">+</text>
<text x="449.70" y="12.89">+</text>
<text x="392.34" y="324.86">+</text>
<text x="28.19" y="283.24">.</text>
<text x="458.07" y="386.66">+</text>
<text x="381.90" y="307.14">+</text>
<text x="378.07" y="243.51">+</text>
<text x="398.59" y="47.01">.</text>
<text x="100.39" y="11.61">.</text>
<text x="461.57" y="453.77">.</text>
<text x="312.12" y="445.75">.</text>
<text x="204.31" y="107.20">+</text>
<text x="46.84" y="398.21">.</text>
<text x="164.23" y="192.65">*</text>
<text x="157.20" y="0.23">*</text>
<text x="460.57" y="457.76">*</text>
<text x="335.78" y="305.06">.</text>
<text x="432.47" y="318.03">.</text>
<text x="342.99" y="41.73">.</text>
<text x="118.52" y="219.53">+</text>
<text x="490.80" y="92.57">.</text>
<text x="21.21" y="493.17">.</text>
<text x="56.75" y="18.58">+</text>
<text x="8.30" y="216.10">+</text>
<text x="150.33" y="176.81">.</text>
<text x="152.33" y="44.90">*</text>
<text x="402.58" y="330.78">+</text>
<text x="125.93" y="217.43">+</text>
<text x="301.36" y="70.93">.</text>
<text x="135.21" y="87.15">.</text>
<text x="417.21" y="104.39">.</text>
<text x="466.41" y="66.27">.</text>

</svg>