
<svg viewBox="0 0 500 500" xmlns="http://www.w.org/2000/svg" width="100%" height="100%" style="background-color: #0a0a14; font-family: 'Courier New', Courier, monospace;">
    <style>
        text { fill: #aaa; font-size: 10px; text-anchor: middle; dominant-baseline: middle; }
    </style>
    <text x="498.93" y="24.73">*</text>
<text x="310.21" y="13.93">+</text>
<text x="270.61" y="306.16">+</text>
<text x="191.93" y="189.27">+</text>
<text x="340.18" y="241.79">+</text>
<text x="118.00" y="340.44">+</text>
<text x="49.66" y="86.78">.</text>
<text x="406.42" y="395.24">+</text>
<text x="35.21" y="396.16">.</text>
<text x="266.72" y="118.25">.</text>
<text x="300.53" y="417.84">+</text>
<text x="196.00" y="451.37">+</text>
<text x="424.87" y="221.07">+</text>
<text x="281.33" y="52.71">.</text>
<text x="456.67" y="393.51">*</text>
<text x="69.36" y="416.60">.</text>
<text x="270.15" y="174.63">.</text>
<text x="383.90" y="66.67">+</text>
<text x="4.06" y="54.10">*</text>
<text x="177.86" y="197.02">.</text>
<text x="168.64" y="105.94">.</text>
<text x="104.99" y="23.49">+</text>
<text x="47.07" y="250.33">*</text>
<text x="218.96" y="361.27">*</text>
<text x="168.08" y="94.52">+</text>
<text x="482.45" y="67.96">.</text>
<text x="408.76" y="109.37">+</text>
<text x="371.07" y="202.36">*</text>
<text x="93.25" y="357.98">.</text>
<text x="184.88" y="300.04">+</text>
<text x="192.48" y="405.92">+</text>
<text x="482.33" y="28.73">.</text>
<text x="455.83" y="262.21">.</text>
<text x="238.44" y="314.07">+</text>
<text x="173.75" y="56.88">.</text>
<text x="330.58" y="446.68">+</text>
<text x="125.85" y="155.98">.</text>
<text x="18.43" y="281.88">.</text>
<text x="126.54" y="399.18">+</text>
<text x="307.87" y="426.72">+</text>
<text x="312.51" y="155.00">.</text>
<text x="258.54" y="341.19">+</text>
<text x="119.53" y="314.54">+</text>
<text x="105.37" y="474.43">.</text>
<text x="300.12" y="266.79">.</text>
<text x="427.95" y="338.19">+</text>
<text x="430.78" y="257.72">*</text>
<text x="375.99" y="287.52">+</text>
<text x="210.45" y="274.22">.</text>
<text x="187.10" y="362.11">.</text>
<text x="2.66" y="431.95">+</text>
<text x="380.47" y="295.26">.</text>
<text x="129.21" y="257.07">.</text>
<text x="436.70" y="426.11">+</text>
<text x="46.28" y="365.97">+</text>
<text x="219.76" y="258.18">*</text>
<text x="251.51" y="90.90">+</text>
<text x="431.27" y="112.65">.</text>
<text x="350.66" y="152.44">.</text>
<text x="413.05" y="215.42">+</text>
<text x="289.33" y="462.32">+</text>
<text x="391.58" y="218.14">.</text>
<text x="67.12" y="462.06">.</text>
<text x="173.37" y="55.65">+</text>
<text x="75.76" y="401.21">+</text>
<text x="452.45" y="405.06">+</text>
<text x="94.40" y="488.58">.</text>
<text x="374.31" y="391.35">+</text>
<text x="23.31" y="426.72">*</text>
<text x="280.60" y="218.51">+</text>
<text x="447.74" y="417.69">+</text>
<text x="19.68" y="145.15">+</text>
<text x="137.67" y="471.75">.</text>
<text x="18.18" y="158.10">+</text>
<text x="420.47" y="172.66">*</text>
<text x="112.13" y="244.50">+</text>
<text x="356.70" y="239.97">+</text>
<text x="200.79" y="119.11">*</text>
<text x="497.65" y="371.26">+</text>
<text x="298.17" y="255.21">.</text>
<text x="338.90" y="337.07">+</text>
<text x="301.43" y="341.65">.</text>
<text x="40.88" y="299.85">*</text>
<text x="171.53" y="478.44">+</text>
<text x="303.79" y="174.06">+</text>
<text x="130.16" y="401.07">+</text>
<text x="282.82" y="138.26">*</text>
<text x="351.40" y="303.85">+</text>
<text x="354.88" y="61.25">*</text>
<text x="92.09" y="289.68">.</text>
<text x="264.22" y="63.85">+</text>
<text x="368.91" y="341.72">+</text>
<text x="315.01" y="252.28">.</text>
<text x="73.79" y="219.95">*</text>
<text x="226.94" y="485.10">*</text>
<text x="158.66" y="168.58">+</text>
<text x="397.21" y="399.05">+</text>
<text x="109.45" y="25.37">+</text>
<text x="230.97" y="99.02">+</text>
<text x="263.05" y="459.79">+</text>
<text x="448.07" y="372.36">.</text>
<text x="127.91" y="11.61">*</text>
<text x="384.85" y="238.93">+</text>
<text x="187.06" y="407.91">*</text>
<text x="392.60" y="475.74">.</text>
<text x="445.09" y="37.79">+</text>
<text x="247.03" y="353.89">+</text>
<text x="1.14" y="192.76">+</text>
<text x="465.40" y="418.90">*</text>
<text x="131.56" y="275.81">+</text>
<text x="353.62" y="35.59">+</text>
<text x="382.35" y="212.17">.</text>
<text x="401.94" y="169.68">+</text>
<text x="248.08" y="120.57">+</text>
<text x="465.97" y="187.91">.</text>
<text x="329.04" y="468.29">+</text>
<text x="120.70" y="139.41">+</text>
<text x="244.77" y="447.02">*</text>
<text x="374.21" y="19.52">.</text>
<text x="343.01" y="274.62">.</text>
<text x="101.10" y="39.46">.</text>
<text x="160.66" y="221.67">+</text>
<text x="307.22" y="420.22">+</text>
<text x="9.97" y="433.10">+</text>
<text x="457.12" y="135.89">.</text>
<text x="215.73" y="266.21">*</text>
<text x="430.47" y="353.66">+</text>
<text x="337.10" y="62.44">+</text>
<text x="320.47" y="249.21">+</text>
<text x="358.23" y="287.25">*</text>
<text x="221.40" y="202.51">+</text>
<text x="229.77" y="285.39">+</text>
<text x="112.55" y="79.48">+</text>
<text x="256.17" y="395.85">+</text>
<text x="65.60" y="461.59">.</text>
<text x="24.38" y="207.55">.</text>
<text x="217.76" y="382.28">.</text>
<text x="264.93" y="222.69">.</text>
<text x="474.30" y="391.87">.</text>
<text x="412.20" y="181.25">+</text>
<text x="102.41" y="427.55">+</text>
<text x="363.91" y="188.20">*</text>
<text x="426.58" y="426.86">.</text>
<text x="22.82" y="419.73">.</text>
<text x="255.74" y="374.47">.</text>
<text x="395.53" y="275.37">.</text>
<text x="341.34" y="198.60">.</text>
<text x="446.80" y="177.77">+</text>
<text x="465.32" y="201.30">.</text>
<text x="15.81" y="376.56">.</text>
<text x="231.20" y="397.59">+</text>
<text x="202.28" y="258.76">*</text>
<text x="285.98" y="214.83">+</text>
<text x="12.76" y="292.68">+</text>
<text x="312.32" y="418.28">*</text>
<text x="257.05" y="358.79">+</text>
<text x="489.57" y="484.65">*</text>
<text x="203.98" y="101.59">+</text>
<text x="235.78" y="457.87">*</text>
<text x="419.21" y="315.63">*</text>
<text x="205.75" y="364.21">.</text>
<text x="245.83" y="266.91">+</text>
<text x="260.77" y="294.67">.</text>
<text x="451.77" y="327.21">+</text>
<text x="215.64" y="221.67">+</text>
<text x="407.51" y="269.69">.</text>
<text x="276.99" y="386.21">+</text>
<text x="191.44" y="174.16">+</text>
<text x="272.81" y="7.89">+</text>
<text x="155.13" y="437.79">.</text>
<text x="135.73" y="110.44">+</text>
<text x="348.28" y="237.23">.</text>
<text x="257.60" y="357.72">*</text>
<text x="250.78" y="431.24">+</text>
<text x="250.30" y="240.57">.</text>
<text x="64.68" y="317.30">.</text>
<text x="6.47" y="430.15">*</text>
<text x="177.57" y="50.57">+</text>
<text x="410.12" y="361.85">.</text>
<text x="272.93" y="386.58">*</text>
<text x="242.34" y="464.76">.</text>
<text x="379.99" y="490.96">.</text>
<text x="424.24" y="109.69">+</text>
<text x="252.90" y="431.69">.</text>
<text x="483.83" y="456.66">+</text>
<text x="165.51" y="52.41">+</text>
<text x="329.76" y="390.94">+</text>
<text x="228.80" y="456.01">.</text>
<text x="474.80" y="439.44">+</text>
<text x="72.71" y="152.99">.</text>
<text x="446.20" y="133.96">+</text>
<text x="379.03" y="123.70">*</text>

</svg>