
<svg viewBox="0 0 500 500" xmlns="http://www.w.org/2000/svg" width="100%" height="100%" style="background-color: #0a0a14; font-family: 'Courier New', Courier, monospace;">
    <style>
        text { fill: #aaa; font-size: 10px; text-anchor: middle; dominant-baseline: middle; }
    </style>
    <text x="279.18" y="62.21">+</text>
<text x="101.90" y="178.91">.</text>
<text x="421.89" y="466.26">.</text>
<text x="168.63" y="50.83">.</text>
<text x="250.72" y="136.66">+</text>
<text x="202.15" y="22.07">*</text>
<text x="39.01" y="326.94">.</text>
<text x="269.15" y="305.52">+</text>
<text x="56.15" y="401.81">+</text>
<text x="276.54" y="262.91">.</text>
<text x="395.53" y="475.07">+</text>
<text x="321.75" y="116.07">.</text>
<text x="161.77" y="292.46">.</text>
<text x="253.24" y="218.78">*</text>
<text x="106.88" y="82.69">+</text>
<text x="448.57" y="221.69">.</text>
<text x="215.33" y="57.41">+</text>
<text x="134.19" y="350.57">+</text>
<text x="401.89" y="398.62">.</text>
<text x="275.08" y="358.69">+</text>
<text x="257.21" y="429.99">+</text>
<text x="384.93" y="452.74">+</text>
<text x="99.96" y="102.84">+</text>
<text x="75.77" y="303.67">*</text>
<text x="191.76" y="354.87">+</text>
<text x="113.01" y="127.68">+</text>
<text x="457.62" y="393.84">.</text>
<text x="386.81" y="197.34">+</text>
<text x="43.80" y="156.28">*</text>
<text x="99.61" y="65.66">+</text>
<text x="408.70" y="127.69">+</text>
<text x="338.64" y="488.30">+</text>
<text x="127.64" y="97.89">+</text>
<text x="139.70" y="34.28">.</text>
<text x="215.12" y="495.24">+</text>
<text x="491.34" y="130.97">+</text>
<text x="22.06" y="161.12">+</text>
<text x="413.36" y="159.50">*</text>
<text x="487.66" y="429.75">.</text>
<text x="58.20" y="355.77">*</text>
<text x="280.86" y="290.25">.</text>
<text x="150.01" y="116.93">+</text>
<text x="257.02" y="23.16">+</text>
<text x="15.98" y="204.19">*</text>
<text x="460.03" y="433.35">.</text>
<text x="411.33" y="364.94">.</text>
<text x="172.86" y="106.83">.</text>
<text x="70.43" y="90.06">.</text>
<text x="157.17" y="316.15">+</text>
<text x="172.34" y="427.45">.</text>
<text x="320.23" y="395.47">+</text>
<text x="219.49" y="5.72">+</text>
<text x="143.42" y="69.25">.</text>
<text x="147.15" y="33.21">+</text>
<text x="196.33" y="64.32">*</text>
<text x="266.41" y="127.11">+</text>
<text x="121.13" y="342.57">+</text>
<text x="396.98" y="97.88">+</text>
<text x="28.13" y="454.13">+</text>
<text x="33.30" y="61.00">.</text>
<text x="10.04" y="196.62">+</text>
<text x="307.19" y="145.35">.</text>
<text x="485.30" y="182.27">.</text>
<text x="247.50" y="244.24">.</text>
<text x="115.70" y="178.20">+</text>
<text x="41.59" y="343.12">+</text>
<text x="456.12" y="391.17">+</text>
<text x="424.99" y="211.07">+</text>
<text x="125.72" y="375.51">+</text>
<text x="246.90" y="306.46">.</text>
<text x="337.69" y="289.12">+</text>
<text x="172.41" y="425.17">.</text>
<text x="77.69" y="19.26">+</text>
<text x="10.54" y="62.15">+</text>
<text x="427.33" y="275.43">.</text>
<text x="8.26" y="124.21">*</text>
<text x="93.62" y="135.97">+</text>
<text x="84.39" y="108.88">+</text>
<text x="262.97" y="455.68">+</text>
<text x="55.59" y="360.54">.</text>
<text x="169.20" y="321.71">.</text>
<text x="122.53" y="442.70">.</text>
<text x="211.93" y="152.68">.</text>
<text x="130.57" y="347.72">+</text>
<text x="49.86" y="132.34">+</text>
<text x="180.70" y="166.61">.</text>
<text x="81.55" y="303.94">+</text>
<text x="305.17" y="30.87">*</text>
<text x="274.19" y="66.54">+</text>
<text x="344.28" y="480.49">.</text>
<text x="233.14" y="197.26">.</text>
<text x="19.47" y="109.38">.</text>
<text x="393.89" y="75.90">.</text>
<text x="412.10" y="88.72">+</text>
<text x="332.30" y="71.97">.</text>
<text x="300.07" y="382.56">.</text>
<text x="148.16" y="152.93">.</text>
<text x="75.01" y="17.91">+</text>
<text x="60.28" y="489.08">.</text>
<text x="384.29" y="290.69">.</text>
<text x="181.16" y="178.38">.</text>
<text x="96.97" y="466.68">+</text>
<text x="392.67" y="380.09">.</text>
<text x="26.38" y="411.92">+</text>
<text x="283.17" y="66.73">+</text>
<text x="173.74" y="280.69">.</text>
<text x="0.19" y="3.03">+</text>
<text x="87.32" y="53.59">.</text>
<text x="421.98" y="183.99">*</text>
<text x="197.08" y="188.16">.</text>
<text x="148.61" y="233.21">.</text>
<text x="413.36" y="143.53">*</text>
<text x="174.70" y="344.63">.</text>
<text x="487.65" y="42.36">.</text>
<text x="371.27" y="386.13">.</text>
<text x="448.01" y="218.07">+</text>
<text x="87.65" y="175.03">.</text>
<text x="403.18" y="284.75">+</text>
<text x="308.04" y="377.10">*</text>
<text x="22.88" y="402.17">+</text>
<text x="249.08" y="205.08">.</text>
<text x="167.02" y="128.02">+</text>
<text x="358.71" y="145.96">.</text>
<text x="159.07" y="429.16">+</text>
<text x="135.02" y="492.24">.</text>
<text x="361.27" y="413.85">+</text>
<text x="418.41" y="225.72">+</text>
<text x="465.78" y="389.89">*</text>
<text x="289.79" y="498.35">+</text>
<text x="262.36" y="79.97">+</text>
<text x="236.76" y="261.93">.</text>
<text x="220.88" y="213.04">.</text>
<text x="31.61" y="346.96">*</text>
<text x="49.10" y="166.90">.</text>
<text x="179.58" y="188.90">*</text>
<text x="142.61" y="378.50">.</text>
<text x="381.13" y="253.61">.</text>
<text x="208.04" y="11.19">.</text>
<text x="372.35" y="245.64">+</text>
<text x="96.50" y="101.34">+</text>
<text x="213.24" y="292.83">.</text>
<text x="437.52" y="398.60">.</text>
<text x="99.15" y="338.25">.</text>
<text x="97.42" y="466.17">.</text>
<text x="475.59" y="215.35">+</text>
<text x="81.44" y="341.67">+</text>
<text x="41.89" y="80.32">+</text>
<text x="167.59" y="297.63">+</text>
<text x="126.17" y="289.58">.</text>
<text x="454.59" y="273.80">*</text>
<text x="65.47" y="115.85">*</text>
<text x="65.30" y="431.19">.</text>
<text x="438.22" y="375.27">+</text>
<text x="22.02" y="124.40">.</text>
<text x="106.16" y="455.50">*</text>
<text x="147.46" y="359.93">*</text>
<text x="170.56" y="379.11">+</text>
<text x="244.07" y="251.16">.</text>
<text x="155.41" y="418.05">.</text>
<text x="294.81" y="433.08">.</text>
<text x="479.17" y="362.99">+</text>
<text x="250.72" y="432.47">+</text>
<text x="350.25" y="256.48">+</text>
<text x="130.09" y="127.82">+</text>
<text x="139.35" y="97.58">.</text>
<text x="296.80" y="419.09">+</text>
<text x="356.20" y="281.62">+</text>
<text x="110.39" y="390.17">.</text>
<text x="52.41" y="166.19">+</text>
<text x="17.88" y="295.65">.</text>
<text x="187.71" y="82.58">.</text>
<text x="495.89" y="177.04">.</text>
<text x="353.05" y="395.31">.</text>
<text x="334.09" y="222.62">*</text>
<text x="146.20" y="139.66">*</text>
<text x="437.99" y="395.14">+</text>
<text x="105.34" y="54.80">*</text>
<text x="219.55" y="85.74">+</text>
<text x="174.74" y="14.29">+</text>
<text x="24.63" y="312.60">+</text>
<text x="19.03" y="275.23">+</text>
<text x="217.26" y="469.14">.</text>
<text x="51.73" y="402.63">+</text>
<text x="106.03" y="379.00">.</text>
<text x="209.94" y="74.44">*</text>
<text x="455.05" y="3.26">.</text>
<text x="338.76" y="417.37">*</text>
<text x="381.86" y="321.86">+</text>
<text x="146.16" y="407.17">.</text>
<text x="135.24" y="363.26">+</text>
<text x="18.76" y="75.38">.</text>
<text x="290.25" y="491.08">.</text>
<text x="253.58" y="228.48">.</text>
<text x="408.43" y="237.39">.</text>
<text x="27.27" y="166.02">.</text>
<text x="192.57" y="335.17">+</text>
<text x="117.25" y="184.68">+</text>
<text x="200.49" y="78.04">+</text>
<text x="358.72" y="146.82">+</text>
<text x="447.83" y="155.24">+</text>
<text x="333.21" y="346.25">.</text>
<text x="342.23" y="99.56">.</text>
<text x="189.25" y="38.07">+</text>
<text x="403.42" y="36.29">.</text>
<text x="338.86" y="293.32">.</text>
<text x="342.02" y="426.11">+</text>
<text x="448.84" y="467.34">+</text>
<text x="289.51" y="260.57">+</text>
<text x="192.47" y="290.54">+</text>
<text x="78.37" y="497.05">+</text>
<text x="26.12" y="434.76">+</text>
<text x="464.10" y="362.96">+</text>

</svg>