
<svg viewBox="0 0 500 500" xmlns="http://www.w.org/2000/svg" width="100%" height="100%" style="background-color: #0a0a14; font-family: 'Courier New', Courier, monospace;">
    <style>
        text { fill: #aaa; font-size: 10px; text-anchor: middle; dominant-baseline: middle; }
    </style>
    <text x="477.14" y="372.78">+</text>
<text x="229.72" y="250.56">+</text>
<text x="194.42" y="266.12">+</text>
<text x="290.40" y="46.69">+</text>
<text x="161.80" y="381.37">+</text>
<text x="282.50" y="38.31">.</text>
<text x="413.73" y="183.42">+</text>
<text x="388.75" y="196.12">.</text>
<text x="56.20" y="71.95">+</text>
<text x="186.28" y="401.15">+</text>
<text x="123.55" y="411.28">+</text>
<text x="55.20" y="307.03">*</text>
<text x="138.51" y="399.80">+</text>
<text x="443.44" y="301.41">.</text>
<text x="46.81" y="435.85">*</text>
<text x="456.49" y="443.99">+</text>
<text x="492.39" y="173.24">*</text>
<text x="454.17" y="337.32">+</text>
<text x="321.98" y="86.01">+</text>
<text x="206.73" y="421.51">+</text>
<text x="128.07" y="462.20">+</text>
<text x="475.50" y="418.05">+</text>
<text x="150.61" y="18.71">.</text>
<text x="144.43" y="221.39">*</text>
<text x="65.32" y="160.88">+</text>
<text x="241.43" y="443.35">+</text>
<text x="4.84" y="479.27">+</text>
<text x="249.53" y="224.70">.</text>
<text x="492.86" y="214.77">+</text>
<text x="457.00" y="435.43">.</text>
<text x="451.78" y="465.38">.</text>
<text x="351.88" y="273.23">.</text>
<text x="365.48" y="236.25">.</text>
<text x="92.21" y="301.61">+</text>
<text x="353.74" y="386.93">+</text>
<text x="272.67" y="409.61">+</text>
<text x="247.86" y="371.01">+</text>
<text x="99.00" y="285.04">+</text>
<text x="40.39" y="407.77">+</text>
<text x="462.87" y="498.50">.</text>
<text x="309.77" y="173.84">.</text>
<text x="309.18" y="312.78">.</text>
<text x="485.71" y="167.12">+</text>
<text x="228.75" y="364.94">+</text>
<text x="358.59" y="384.23">.</text>
<text x="173.81" y="306.89">+</text>
<text x="271.59" y="418.94">+</text>
<text x="333.94" y="220.15">+</text>
<text x="100.94" y="171.35">*</text>
<text x="179.36" y="106.47">+</text>
<text x="288.91" y="368.73">+</text>
<text x="146.26" y="448.94">.</text>
<text x="223.30" y="14.63">+</text>
<text x="321.13" y="437.52">+</text>
<text x="250.91" y="192.05">.</text>
<text x="105.22" y="286.81">+</text>
<text x="226.98" y="156.97">*</text>
<text x="383.39" y="384.29">.</text>
<text x="441.96" y="290.23">+</text>
<text x="207.46" y="378.43">*</text>
<text x="26.86" y="173.65">*</text>
<text x="373.61" y="314.36">+</text>
<text x="162.92" y="133.57">.</text>
<text x="321.42" y="456.72">*</text>
<text x="401.36" y="26.45">.</text>
<text x="42.58" y="343.34">+</text>
<text x="473.78" y="64.85">+</text>
<text x="196.19" y="460.65">+</text>
<text x="95.13" y="72.87">+</text>
<text x="400.86" y="383.87">.</text>
<text x="463.40" y="2.41">+</text>
<text x="209.75" y="179.17">*</text>
<text x="216.85" y="392.82">+</text>
<text x="418.16" y="246.46">.</text>
<text x="479.43" y="81.94">.</text>
<text x="289.67" y="450.97">*</text>
<text x="274.85" y="69.93">+</text>
<text x="148.04" y="487.27">+</text>
<text x="466.74" y="353.36">.</text>
<text x="393.53" y="99.60">*</text>
<text x="342.11" y="145.94">+</text>
<text x="197.76" y="96.82">+</text>
<text x="401.68" y="356.74">+</text>
<text x="124.35" y="29.80">.</text>
<text x="336.68" y="4.29">.</text>
<text x="3.41" y="338.04">.</text>
<text x="325.36" y="413.56">+</text>
<text x="235.48" y="473.61">*</text>
<text x="337.06" y="258.78">+</text>
<text x="257.12" y="18.57">+</text>
<text x="121.33" y="277.29">.</text>
<text x="14.54" y="436.57">+</text>
<text x="489.32" y="48.79">+</text>
<text x="241.51" y="320.16">.</text>
<text x="236.58" y="297.21">*</text>
<text x="257.47" y="105.99">+</text>
<text x="323.23" y="442.47">.</text>
<text x="433.87" y="477.06">.</text>
<text x="288.26" y="289.55">.</text>
<text x="326.19" y="364.64">.</text>
<text x="204.19" y="160.05">+</text>
<text x="169.24" y="372.51">+</text>
<text x="105.51" y="463.64">*</text>
<text x="291.18" y="135.49">+</text>
<text x="195.00" y="459.00">.</text>
<text x="469.38" y="272.33">.</text>
<text x="490.43" y="368.32">+</text>
<text x="111.03" y="484.77">+</text>
<text x="13.46" y="363.93">.</text>
<text x="351.07" y="378.91">.</text>
<text x="86.28" y="102.81">.</text>
<text x="13.27" y="63.99">+</text>
<text x="153.38" y="305.85">.</text>
<text x="419.77" y="471.04">*</text>
<text x="307.56" y="412.90">*</text>
<text x="321.25" y="407.59">.</text>
<text x="11.28" y="94.70">+</text>
<text x="245.88" y="49.78">.</text>
<text x="80.03" y="53.83">.</text>
<text x="363.53" y="400.81">.</text>
<text x="221.46" y="66.11">*</text>
<text x="461.12" y="290.25">*</text>
<text x="155.43" y="167.05">.</text>
<text x="421.07" y="52.64">+</text>
<text x="407.92" y="75.83">+</text>
<text x="497.14" y="465.38">.</text>
<text x="354.26" y="43.85">*</text>
<text x="226.56" y="436.25">+</text>
<text x="310.91" y="297.37">+</text>
<text x="450.05" y="219.76">.</text>
<text x="409.96" y="359.87">+</text>
<text x="213.82" y="437.66">.</text>
<text x="480.58" y="238.18">.</text>
<text x="331.67" y="183.49">+</text>
<text x="448.38" y="88.24">.</text>
<text x="376.92" y="51.99">.</text>
<text x="214.82" y="91.90">.</text>
<text x="295.79" y="265.91">.</text>
<text x="287.46" y="26.53">+</text>
<text x="407.77" y="450.19">+</text>
<text x="374.07" y="198.13">+</text>
<text x="76.01" y="148.65">.</text>
<text x="138.67" y="14.35">.</text>
<text x="20.72" y="357.81">*</text>
<text x="316.10" y="100.71">.</text>
<text x="492.42" y="26.27">+</text>
<text x="374.78" y="464.74">.</text>
<text x="338.22" y="3.77">.</text>
<text x="10.29" y="341.79">+</text>
<text x="437.80" y="121.23">.</text>
<text x="268.25" y="367.68">*</text>
<text x="423.60" y="104.57">+</text>
<text x="489.77" y="269.92">+</text>
<text x="286.09" y="89.66">.</text>
<text x="85.53" y="127.93">.</text>
<text x="248.88" y="360.82">+</text>
<text x="143.65" y="176.13">.</text>
<text x="382.33" y="344.95">.</text>
<text x="403.38" y="31.40">.</text>
<text x="317.90" y="248.84">+</text>
<text x="57.10" y="350.58">.</text>
<text x="159.39" y="303.09">.</text>
<text x="283.44" y="408.23">+</text>
<text x="321.20" y="150.10">.</text>
<text x="394.03" y="28.66">.</text>
<text x="112.44" y="483.82">+</text>
<text x="7.82" y="456.14">+</text>
<text x="340.41" y="149.66">.</text>
<text x="125.39" y="58.61">+</text>
<text x="67.44" y="483.83">.</text>
<text x="495.26" y="454.88">*</text>
<text x="173.67" y="459.49">+</text>
<text x="120.56" y="190.78">+</text>
<text x="379.19" y="290.09">+</text>
<text x="333.13" y="267.00">*</text>
<text x="27.44" y="78.10">.</text>
<text x="151.69" y="454.64">*</text>
<text x="273.13" y="79.86">.</text>
<text x="268.33" y="489.04">+</text>
<text x="264.46" y="440.77">.</text>
<text x="394.46" y="168.73">*</text>
<text x="154.73" y="221.54">+</text>
<text x="308.79" y="114.32">+</text>
<text x="186.91" y="273.79">.</text>
<text x="1.14" y="185.99">+</text>
<text x="167.03" y="433.30">+</text>
<text x="229.48" y="210.00">.</text>
<text x="91.92" y="472.71">.</text>
<text x="381.07" y="267.98">*</text>
<text x="92.61" y="367.67">.</text>
<text x="271.88" y="323.53">*</text>
<text x="9.04" y="300.67">.</text>
<text x="370.74" y="269.18">+</text>
<text x="390.95" y="268.55">+</text>
<text x="396.10" y="347.59">.</text>
<text x="2.04" y="405.84">+</text>
<text x="319.64" y="397.70">+</text>
<text x="199.26" y="131.55">.</text>
<text x="497.79" y="258.91">.</text>
<text x="351.81" y="132.13">+</text>
<text x="276.99" y="226.41">+</text>
<text x="295.98" y="387.80">.</text>
<text x="276.22" y="169.75">.</text>
<text x="18.35" y="71.74">.</text>
<text x="408.65" y="111.20">.</text>
<text x="79.07" y="1.84">+</text>
<text x="400.80" y="30.23">+</text>
<text x="138.31" y="171.26">*</text>

</svg>