
<svg viewBox="0 0 500 500" xmlns="http://www.w.org/2000/svg" width="100%" height="100%" style="background-color: #0a0a14; font-family: 'Courier New', Courier, monospace;">
    <style>
        text { fill: #aaa; font-size: 10px; text-anchor: middle; dominant-baseline: middle; }
    </style>
    <text x="295.64" y="273.74">.</text>
<text x="396.95" y="403.60">+</text>
<text x="28.54" y="245.67">.</text>
<text x="479.89" y="398.22">.</text>
<text x="388.03" y="338.94">+</text>
<text x="349.26" y="108.50">.</text>
<text x="416.58" y="161.27">.</text>
<text x="286.49" y="214.54">.</text>
<text x="38.66" y="486.86">+</text>
<text x="263.94" y="226.34">.</text>
<text x="283.99" y="363.63">.</text>
<text x="419.22" y="98.88">+</text>
<text x="405.30" y="466.85">+</text>
<text x="110.49" y="379.76">+</text>
<text x="344.27" y="328.15">*</text>
<text x="483.76" y="410.61">.</text>
<text x="237.57" y="459.39">*</text>
<text x="168.98" y="31.17">*</text>
<text x="46.39" y="120.09">.</text>
<text x="422.59" y="467.52">*</text>
<text x="266.43" y="135.16">+</text>
<text x="328.66" y="383.87">+</text>
<text x="326.52" y="435.24">+</text>
<text x="444.86" y="490.64">*</text>
<text x="129.19" y="466.57">+</text>
<text x="264.44" y="105.53">.</text>
<text x="411.08" y="312.29">.</text>
<text x="175.60" y="113.62">+</text>
<text x="341.79" y="15.56">+</text>
<text x="484.43" y="387.00">*</text>
<text x="62.98" y="36.43">.</text>
<text x="57.92" y="152.32">.</text>
<text x="395.87" y="475.36">+</text>
<text x="458.35" y="390.85">+</text>
<text x="461.17" y="300.24">.</text>
<text x="423.94" y="78.17">.</text>
<text x="110.28" y="74.16">.</text>
<text x="356.77" y="382.37">*</text>
<text x="25.51" y="256.91">*</text>
<text x="26.09" y="76.56">*</text>
<text x="473.69" y="296.08">.</text>
<text x="455.63" y="303.73">+</text>
<text x="219.90" y="356.14">+</text>
<text x="227.31" y="406.69">+</text>
<text x="480.56" y="465.32">.</text>
<text x="382.38" y="274.80">*</text>
<text x="375.58" y="275.26">.</text>
<text x="456.57" y="185.12">.</text>
<text x="290.78" y="20.55">+</text>
<text x="128.20" y="285.97">.</text>
<text x="412.98" y="429.42">+</text>
<text x="3.88" y="394.69">*</text>
<text x="366.08" y="499.20">+</text>
<text x="94.73" y="434.43">+</text>
<text x="73.90" y="116.49">.</text>
<text x="206.20" y="335.71">*</text>
<text x="465.36" y="261.92">+</text>
<text x="176.95" y="388.44">+</text>
<text x="141.19" y="25.82">*</text>
<text x="423.57" y="331.88">+</text>
<text x="270.90" y="245.47">.</text>
<text x="65.17" y="124.16">.</text>
<text x="456.21" y="354.65">+</text>
<text x="202.65" y="141.80">.</text>
<text x="445.75" y="282.99">.</text>
<text x="53.49" y="88.37">*</text>
<text x="415.67" y="228.84">+</text>
<text x="121.77" y="99.01">.</text>
<text x="135.79" y="463.08">+</text>
<text x="112.18" y="239.90">+</text>
<text x="132.12" y="143.51">+</text>
<text x="28.99" y="309.96">.</text>
<text x="299.88" y="114.73">+</text>
<text x="120.91" y="18.94">+</text>
<text x="238.11" y="456.36">*</text>
<text x="42.83" y="388.75">.</text>
<text x="55.36" y="366.41">.</text>
<text x="398.89" y="438.52">+</text>
<text x="488.56" y="126.79">+</text>
<text x="308.06" y="247.59">.</text>
<text x="176.20" y="351.34">+</text>
<text x="345.97" y="436.25">.</text>
<text x="20.49" y="15.41">*</text>
<text x="160.46" y="354.14">.</text>
<text x="3.22" y="9.86">*</text>
<text x="289.35" y="379.23">+</text>
<text x="278.02" y="367.47">+</text>
<text x="172.95" y="354.29">+</text>
<text x="118.28" y="281.62">+</text>
<text x="164.23" y="28.85">+</text>
<text x="118.38" y="324.38">.</text>
<text x="434.86" y="237.00">.</text>
<text x="28.22" y="266.78">.</text>
<text x="273.47" y="254.88">+</text>
<text x="31.33" y="13.18">.</text>
<text x="124.03" y="348.03">*</text>
<text x="362.45" y="132.19">+</text>
<text x="100.08" y="323.39">.</text>
<text x="251.36" y="229.97">+</text>
<text x="421.41" y="310.96">.</text>
<text x="430.66" y="210.53">+</text>
<text x="143.23" y="34.20">*</text>
<text x="351.93" y="392.99">.</text>
<text x="11.23" y="20.59">.</text>
<text x="413.76" y="469.38">+</text>
<text x="447.60" y="260.94">*</text>
<text x="79.84" y="231.92">+</text>
<text x="398.93" y="234.11">+</text>
<text x="438.93" y="68.86">.</text>
<text x="63.70" y="385.43">+</text>
<text x="250.21" y="212.23">*</text>
<text x="272.07" y="78.74">+</text>
<text x="152.04" y="451.93">+</text>
<text x="133.24" y="49.20">.</text>
<text x="309.74" y="122.44">.</text>
<text x="193.56" y="159.47">.</text>
<text x="426.69" y="490.67">*</text>
<text x="338.78" y="492.94">*</text>
<text x="425.99" y="284.64">+</text>
<text x="238.18" y="90.72">.</text>
<text x="318.79" y="112.18">.</text>
<text x="261.89" y="283.36">+</text>
<text x="28.08" y="361.04">+</text>
<text x="419.60" y="416.73">+</text>
<text x="328.85" y="106.85">+</text>
<text x="265.93" y="496.09">*</text>
<text x="450.29" y="227.68">+</text>
<text x="175.03" y="29.44">+</text>
<text x="258.49" y="270.67">+</text>
<text x="150.69" y="261.71">*</text>
<text x="183.20" y="85.92">.</text>
<text x="126.28" y="176.29">+</text>
<text x="405.54" y="2.64">+</text>
<text x="217.78" y="382.18">+</text>
<text x="357.64" y="109.54">.</text>
<text x="66.64" y="128.21">.</text>
<text x="128.91" y="64.00">+</text>
<text x="80.43" y="493.03">+</text>
<text x="164.15" y="92.51">.</text>
<text x="442.76" y="398.06">+</text>
<text x="21.27" y="21.87">.</text>
<text x="445.10" y="439.23">.</text>
<text x="146.62" y="296.36">+</text>
<text x="89.79" y="196.51">.</text>
<text x="382.36" y="322.78">.</text>
<text x="108.99" y="251.21">+</text>
<text x="37.25" y="134.79">+</text>
<text x="472.15" y="453.68">.</text>
<text x="440.22" y="122.77">.</text>
<text x="431.15" y="358.31">.</text>
<text x="374.99" y="344.95">+</text>
<text x="201.60" y="40.70">+</text>
<text x="384.30" y="141.47">.</text>
<text x="265.90" y="18.51">*</text>
<text x="346.23" y="82.51">+</text>
<text x="315.91" y="306.94">+</text>
<text x="60.85" y="112.22">.</text>
<text x="449.70" y="181.78">.</text>
<text x="469.24" y="280.22">.</text>
<text x="187.53" y="473.94">+</text>
<text x="49.31" y="121.93">*</text>
<text x="169.45" y="139.92">+</text>
<text x="343.77" y="128.68">.</text>
<text x="347.28" y="125.47">.</text>
<text x="302.45" y="34.21">.</text>
<text x="329.55" y="81.78">+</text>
<text x="412.25" y="229.18">+</text>
<text x="404.07" y="264.18">+</text>
<text x="126.57" y="434.48">.</text>
<text x="363.53" y="21.88">+</text>
<text x="389.15" y="342.72">.</text>
<text x="458.78" y="134.02">.</text>
<text x="73.32" y="486.77">.</text>
<text x="252.66" y="346.12">*</text>
<text x="175.87" y="32.80">+</text>
<text x="157.64" y="25.28">.</text>
<text x="347.32" y="315.98">+</text>
<text x="456.02" y="327.53">*</text>
<text x="389.00" y="167.31">.</text>
<text x="79.64" y="39.15">.</text>
<text x="27.79" y="499.72">.</text>
<text x="28.22" y="28.37">.</text>
<text x="404.71" y="487.87">.</text>
<text x="254.60" y="252.68">*</text>
<text x="404.40" y="273.04">.</text>
<text x="134.82" y="151.78">+</text>
<text x="465.12" y="242.20">.</text>
<text x="188.14" y="162.97">+</text>
<text x="297.48" y="163.47">.</text>
<text x="65.60" y="391.76">.</text>

</svg>