
<svg viewBox="0 0 500 500" xmlns="http://www.w.org/2000/svg" width="100%" height="100%" style="background-color: #0a0a14; font-family: 'Courier New', Courier, monospace;">
    <style>
        text { fill: #aaa; font-size: 10px; text-anchor: middle; dominant-baseline: middle; }
    </style>
    <text x="203.40" y="235.61">+</text>
<text x="130.69" y="150.73">+</text>
<text x="78.61" y="163.95">+</text>
<text x="48.62" y="238.36">+</text>
<text x="248.07" y="388.44">+</text>
<text x="98.03" y="406.26">.</text>
<text x="191.43" y="260.11">.</text>
<text x="367.00" y="50.17">.</text>
<text x="350.03" y="315.34">.</text>
<text x="202.20" y="496.84">*</text>
<text x="174.25" y="215.81">.</text>
<text x="172.59" y="219.53">+</text>
<text x="290.27" y="81.40">+</text>
<text x="278.47" y="205.64">+</text>
<text x="144.79" y="386.09">.</text>
<text x="476.55" y="112.27">.</text>
<text x="205.52" y="456.99">.</text>
<text x="120.42" y="399.53">.</text>
<text x="377.61" y="413.56">.</text>
<text x="481.60" y="351.34">+</text>
<text x="47.51" y="35.69">.</text>
<text x="342.54" y="177.00">+</text>
<text x="291.64" y="482.96">.</text>
<text x="250.60" y="129.12">*</text>
<text x="491.17" y="262.41">.</text>
<text x="8.42" y="443.35">+</text>
<text x="237.81" y="383.12">+</text>
<text x="459.40" y="292.05">+</text>
<text x="189.99" y="287.88">+</text>
<text x="477.98" y="192.66">*</text>
<text x="489.79" y="45.87">+</text>
<text x="392.86" y="82.18">*</text>
<text x="42.34" y="270.94">.</text>
<text x="91.53" y="66.20">.</text>
<text x="0.36" y="302.59">+</text>
<text x="473.41" y="229.14">.</text>
<text x="482.51" y="361.28">.</text>
<text x="116.33" y="29.34">+</text>
<text x="111.81" y="327.34">.</text>
<text x="40.67" y="494.75">+</text>
<text x="396.80" y="14.30">*</text>
<text x="442.35" y="314.77">+</text>
<text x="136.30" y="472.48">.</text>
<text x="186.85" y="147.14">*</text>
<text x="420.84" y="177.44">*</text>
<text x="423.06" y="34.70">.</text>
<text x="370.48" y="456.94">.</text>
<text x="250.38" y="109.46">.</text>
<text x="224.24" y="302.13">+</text>
<text x="453.97" y="38.68">.</text>
<text x="178.19" y="371.36">+</text>
<text x="489.16" y="245.92">.</text>
<text x="235.18" y="365.75">+</text>
<text x="324.35" y="425.98">+</text>
<text x="97.91" y="263.07">.</text>
<text x="256.33" y="32.89">.</text>
<text x="334.50" y="54.60">+</text>
<text x="464.64" y="330.96">.</text>
<text x="376.06" y="172.01">.</text>
<text x="44.01" y="149.96">.</text>
<text x="198.78" y="355.28">.</text>
<text x="465.92" y="159.74">.</text>
<text x="5.16" y="56.57">.</text>
<text x="273.43" y="466.43">+</text>
<text x="450.55" y="466.96">.</text>
<text x="365.48" y="387.04">.</text>
<text x="473.92" y="366.22">.</text>
<text x="117.55" y="100.41">+</text>
<text x="242.73" y="380.70">+</text>
<text x="371.31" y="295.98">+</text>
<text x="368.24" y="58.75">.</text>
<text x="226.15" y="466.61">.</text>
<text x="434.91" y="9.68">.</text>
<text x="118.53" y="84.56">.</text>
<text x="483.87" y="3.52">+</text>
<text x="302.52" y="491.55">.</text>
<text x="265.60" y="322.34">.</text>
<text x="314.95" y="76.23">.</text>
<text x="196.58" y="409.49">.</text>
<text x="71.08" y="357.44">*</text>
<text x="193.86" y="118.38">*</text>
<text x="377.03" y="472.36">.</text>
<text x="73.46" y="324.17">+</text>
<text x="244.38" y="53.69">.</text>
<text x="339.36" y="146.59">.</text>
<text x="57.35" y="148.70">.</text>
<text x="335.40" y="142.17">+</text>
<text x="421.01" y="346.71">.</text>
<text x="107.96" y="412.89">.</text>
<text x="179.90" y="252.05">.</text>
<text x="393.28" y="135.72">+</text>
<text x="418.38" y="359.03">.</text>
<text x="326.84" y="457.24">.</text>
<text x="117.89" y="156.93">+</text>
<text x="448.83" y="398.37">.</text>
<text x="28.72" y="260.84">*</text>
<text x="200.77" y="418.28">*</text>
<text x="386.75" y="283.75">.</text>
<text x="97.69" y="356.89">*</text>
<text x="175.66" y="336.24">+</text>
<text x="9.00" y="270.92">.</text>
<text x="376.96" y="394.06">.</text>
<text x="325.81" y="140.79">*</text>
<text x="82.26" y="170.82">.</text>
<text x="418.56" y="311.85">.</text>
<text x="390.47" y="324.26">.</text>
<text x="192.98" y="109.53">+</text>
<text x="419.36" y="446.16">.</text>
<text x="316.44" y="325.00">+</text>
<text x="376.63" y="373.19">.</text>
<text x="476.69" y="26.58">*</text>
<text x="486.72" y="310.36">*</text>
<text x="262.60" y="239.80">+</text>
<text x="265.24" y="206.56">*</text>
<text x="478.98" y="171.33">+</text>
<text x="235.32" y="179.81">*</text>
<text x="277.33" y="51.88">.</text>
<text x="258.54" y="412.13">+</text>
<text x="180.89" y="237.65">.</text>
<text x="57.74" y="210.28">+</text>
<text x="33.10" y="453.29">+</text>
<text x="256.77" y="459.09">+</text>
<text x="229.53" y="337.69">+</text>
<text x="20.46" y="41.67">.</text>
<text x="484.20" y="195.71">*</text>
<text x="270.89" y="433.36">+</text>
<text x="146.60" y="343.41">*</text>
<text x="125.92" y="315.44">.</text>
<text x="80.77" y="170.85">.</text>
<text x="55.08" y="192.68">.</text>
<text x="91.86" y="460.03">.</text>
<text x="335.09" y="409.17">.</text>
<text x="236.24" y="39.20">.</text>
<text x="85.83" y="228.22">+</text>
<text x="418.67" y="70.69">*</text>
<text x="157.71" y="380.86">.</text>
<text x="258.79" y="352.12">*</text>
<text x="161.61" y="305.90">+</text>
<text x="224.04" y="166.92">.</text>
<text x="145.72" y="218.43">+</text>
<text x="85.53" y="359.83">.</text>
<text x="79.29" y="364.72">.</text>
<text x="422.78" y="317.85">.</text>
<text x="441.66" y="462.22">.</text>
<text x="225.92" y="464.82">+</text>
<text x="161.06" y="141.69">+</text>
<text x="8.86" y="187.59">+</text>
<text x="490.42" y="402.14">+</text>
<text x="280.43" y="22.87">+</text>
<text x="324.48" y="24.84">*</text>
<text x="269.40" y="160.29">.</text>
<text x="367.43" y="187.42">+</text>
<text x="308.96" y="113.28">+</text>
<text x="241.76" y="441.17">+</text>
<text x="428.07" y="206.29">.</text>
<text x="166.28" y="242.37">*</text>
<text x="443.00" y="312.76">*</text>
<text x="39.90" y="219.94">.</text>
<text x="271.03" y="353.26">+</text>
<text x="473.82" y="119.64">*</text>
<text x="462.29" y="478.44">.</text>
<text x="426.57" y="41.73">+</text>
<text x="370.01" y="204.84">+</text>
<text x="140.41" y="404.19">.</text>
<text x="299.65" y="221.91">*</text>
<text x="140.73" y="67.07">+</text>
<text x="83.76" y="411.65">.</text>
<text x="22.21" y="113.31">+</text>
<text x="267.75" y="115.09">.</text>
<text x="232.30" y="277.24">.</text>
<text x="141.11" y="73.23">.</text>
<text x="144.81" y="54.67">.</text>
<text x="212.22" y="410.35">+</text>
<text x="254.35" y="163.98">+</text>
<text x="248.87" y="489.13">.</text>
<text x="219.22" y="248.25">*</text>
<text x="191.53" y="379.98">*</text>
<text x="20.49" y="388.97">+</text>
<text x="201.46" y="120.32">.</text>
<text x="455.30" y="249.84">+</text>
<text x="391.60" y="499.00">+</text>
<text x="376.45" y="131.32">.</text>
<text x="204.19" y="298.86">.</text>
<text x="477.94" y="304.70">.</text>
<text x="292.92" y="156.57">.</text>
<text x="95.45" y="317.55">+</text>
<text x="482.52" y="33.86">*</text>
<text x="255.43" y="185.78">+</text>
<text x="407.45" y="449.47">+</text>
<text x="342.86" y="355.54">.</text>
<text x="357.01" y="425.58">*</text>
<text x="327.71" y="30.11">.</text>
<text x="164.20" y="302.76">+</text>
<text x="154.38" y="16.32">+</text>
<text x="61.66" y="44.67">+</text>
<text x="291.79" y="396.28">.</text>
<text x="440.02" y="334.07">.</text>
<text x="123.42" y="115.62">.</text>
<text x="159.48" y="469.98">+</text>
<text x="183.37" y="119.96">.</text>
<text x="55.53" y="47.28">*</text>
<text x="479.74" y="115.16">+</text>
<text x="280.11" y="306.08">+</text>
<text x="270.22" y="142.35">.</text>
<text x="52.00" y="367.39">*</text>
<text x="195.45" y="415.91">+</text>
<text x="88.31" y="385.34">.</text>
<text x="182.91" y="92.28">.</text>
<text x="113.35" y="148.53">.</text>
<text x="258.21" y="341.25">.</text>
<text x="470.96" y="412.47">+</text>
<text x="429.47" y="124.26">+</text>
<text x="338.54" y="211.47">.</text>
<text x="340.87" y="311.36">.</text>
<text x="375.48" y="245.46">+</text>

</svg>