
<svg viewBox="0 0 500 500" xmlns="http://www.w.org/2000/svg" width="100%" height="100%" style="background-color: #0a0a14; font-family: 'Courier New', Courier, monospace;">
    <style>
        text { fill: #aaa; font-size: 10px; text-anchor: middle; dominant-baseline: middle; }
    </style>
    <text x="307.70" y="267.01">+</text>
<text x="301.27" y="361.97">.</text>
<text x="351.19" y="436.98">*</text>
<text x="16.10" y="392.53">.</text>
<text x="277.42" y="257.99">+</text>
<text x="319.44" y="33.22">+</text>
<text x="436.41" y="455.24">*</text>
<text x="450.99" y="140.71">*</text>
<text x="436.86" y="290.58">.</text>
<text x="31.95" y="476.75">.</text>
<text x="23.95" y="428.72">+</text>
<text x="95.07" y="377.43">.</text>
<text x="382.08" y="97.10">.</text>
<text x="18.46" y="183.91">*</text>
<text x="371.83" y="466.58">.</text>
<text x="103.04" y="444.62">+</text>
<text x="474.79" y="292.40">+</text>
<text x="260.51" y="2.35">.</text>
<text x="99.33" y="354.50">.</text>
<text x="235.59" y="458.97">+</text>
<text x="449.18" y="303.82">.</text>
<text x="112.70" y="427.33">.</text>
<text x="144.96" y="49.26">+</text>
<text x="50.16" y="313.28">.</text>
<text x="449.85" y="181.50">.</text>
<text x="400.69" y="283.00">.</text>
<text x="292.26" y="125.63">.</text>
<text x="438.68" y="364.90">+</text>
<text x="33.31" y="373.11">+</text>
<text x="356.20" y="278.19">.</text>
<text x="30.83" y="306.79">*</text>
<text x="279.87" y="288.59">+</text>
<text x="483.88" y="181.89">*</text>
<text x="334.55" y="185.38">+</text>
<text x="405.79" y="496.51">+</text>
<text x="160.32" y="479.04">*</text>
<text x="276.41" y="405.66">.</text>
<text x="135.95" y="140.85">.</text>
<text x="199.41" y="36.66">+</text>
<text x="483.96" y="309.88">.</text>
<text x="382.85" y="365.62">+</text>
<text x="209.30" y="293.94">+</text>
<text x="487.32" y="57.98">+</text>
<text x="4.66" y="42.29">.</text>
<text x="11.84" y="228.15">+</text>
<text x="388.71" y="454.58">*</text>
<text x="39.28" y="401.15">.</text>
<text x="95.41" y="259.38">+</text>
<text x="107.66" y="402.93">*</text>
<text x="44.29" y="331.10">.</text>
<text x="241.57" y="488.49">+</text>
<text x="211.52" y="459.32">.</text>
<text x="117.78" y="29.14">*</text>
<text x="454.08" y="120.40">*</text>
<text x="158.81" y="54.40">.</text>
<text x="122.22" y="136.60">.</text>
<text x="416.12" y="40.14">+</text>
<text x="474.41" y="301.47">.</text>
<text x="69.18" y="137.16">.</text>
<text x="312.92" y="401.98">+</text>
<text x="121.60" y="458.88">*</text>
<text x="196.40" y="222.88">.</text>
<text x="352.08" y="449.84">+</text>
<text x="314.43" y="121.65">.</text>
<text x="113.10" y="462.50">*</text>
<text x="438.33" y="166.15">.</text>
<text x="115.55" y="461.51">+</text>
<text x="24.41" y="66.48">*</text>
<text x="24.99" y="464.30">+</text>
<text x="130.94" y="229.94">*</text>
<text x="85.79" y="239.66">+</text>
<text x="123.83" y="190.52">.</text>
<text x="273.65" y="56.02">+</text>
<text x="56.03" y="132.46">.</text>
<text x="120.23" y="3.32">.</text>
<text x="142.74" y="321.40">+</text>
<text x="272.42" y="6.26">.</text>
<text x="430.66" y="82.72">+</text>
<text x="470.84" y="308.86">*</text>
<text x="336.81" y="326.77">*</text>
<text x="89.52" y="361.79">.</text>
<text x="34.26" y="73.69">.</text>
<text x="333.32" y="12.12">.</text>
<text x="199.26" y="313.89">+</text>
<text x="473.80" y="67.95">.</text>
<text x="449.41" y="221.44">+</text>
<text x="478.04" y="114.75">+</text>
<text x="17.05" y="294.62">+</text>
<text x="431.70" y="476.09">*</text>
<text x="100.15" y="211.76">.</text>
<text x="496.62" y="113.23">*</text>
<text x="480.10" y="309.38">.</text>
<text x="332.24" y="289.10">+</text>
<text x="337.87" y="397.43">.</text>
<text x="22.81" y="363.09">.</text>
<text x="185.65" y="497.75">+</text>
<text x="38.72" y="461.17">+</text>
<text x="6.41" y="228.96">.</text>
<text x="385.40" y="233.93">*</text>
<text x="96.27" y="410.98">.</text>
<text x="190.18" y="194.64">+</text>
<text x="93.18" y="269.25">.</text>
<text x="254.07" y="434.04">.</text>
<text x="23.29" y="197.97">+</text>
<text x="358.35" y="291.16">*</text>
<text x="329.92" y="149.17">.</text>
<text x="20.81" y="238.29">.</text>
<text x="402.87" y="22.15">*</text>
<text x="5.32" y="110.32">.</text>
<text x="100.82" y="116.73">+</text>
<text x="101.13" y="466.93">*</text>
<text x="128.43" y="66.04">+</text>
<text x="203.13" y="91.70">+</text>
<text x="179.10" y="489.90">.</text>
<text x="454.22" y="4.14">+</text>
<text x="181.31" y="361.23">+</text>
<text x="397.92" y="212.69">+</text>
<text x="247.42" y="338.16">.</text>
<text x="385.21" y="132.11">+</text>
<text x="25.72" y="248.72">.</text>
<text x="334.44" y="434.31">+</text>
<text x="22.62" y="388.49">+</text>
<text x="466.53" y="304.16">*</text>
<text x="21.39" y="123.05">*</text>
<text x="381.75" y="313.90">.</text>
<text x="0.21" y="370.76">+</text>
<text x="325.94" y="121.95">.</text>
<text x="143.66" y="126.64">.</text>
<text x="286.55" y="400.18">.</text>
<text x="192.07" y="311.28">+</text>
<text x="470.56" y="164.45">.</text>
<text x="225.83" y="247.33">+</text>
<text x="6.05" y="364.85">.</text>
<text x="298.04" y="398.87">+</text>
<text x="188.43" y="114.54">.</text>
<text x="307.80" y="419.81">*</text>
<text x="498.55" y="428.42">+</text>
<text x="499.62" y="75.26">*</text>
<text x="274.33" y="0.45">.</text>
<text x="209.38" y="397.83">*</text>
<text x="447.38" y="161.20">+</text>
<text x="293.84" y="326.96">+</text>
<text x="313.28" y="418.94">+</text>
<text x="106.17" y="151.53">+</text>
<text x="454.97" y="367.75">+</text>
<text x="414.63" y="131.96">*</text>
<text x="400.93" y="72.20">.</text>
<text x="204.82" y="117.33">.</text>
<text x="10.64" y="127.33">+</text>
<text x="280.80" y="213.14">*</text>
<text x="269.25" y="481.71">+</text>
<text x="59.77" y="206.52">+</text>
<text x="496.97" y="255.78">.</text>
<text x="276.35" y="185.89">+</text>
<text x="354.75" y="107.52">.</text>
<text x="242.69" y="85.95">+</text>
<text x="256.15" y="124.27">.</text>
<text x="235.47" y="325.50">+</text>
<text x="40.67" y="409.90">*</text>
<text x="158.46" y="337.53">*</text>
<text x="373.44" y="348.20">+</text>
<text x="163.21" y="88.19">*</text>
<text x="412.50" y="55.42">.</text>
<text x="275.08" y="264.14">.</text>
<text x="424.00" y="119.36">.</text>
<text x="15.98" y="201.58">.</text>
<text x="181.19" y="178.29">*</text>
<text x="438.49" y="326.83">.</text>
<text x="242.06" y="225.21">.</text>
<text x="192.55" y="41.91">.</text>
<text x="168.30" y="181.68">.</text>
<text x="386.72" y="115.99">*</text>
<text x="429.67" y="200.89">.</text>
<text x="442.47" y="271.39">+</text>
<text x="129.96" y="47.99">.</text>
<text x="295.06" y="345.23">*</text>
<text x="422.69" y="29.27">.</text>
<text x="79.44" y="362.96">.</text>
<text x="405.67" y="283.70">.</text>
<text x="244.45" y="282.18">.</text>
<text x="163.27" y="123.49">.</text>
<text x="76.11" y="268.30">*</text>
<text x="14.63" y="186.97">.</text>
<text x="306.12" y="111.44">*</text>
<text x="342.71" y="184.64">*</text>
<text x="22.72" y="431.01">+</text>
<text x="175.13" y="260.10">*</text>
<text x="433.49" y="76.68">+</text>
<text x="195.34" y="80.78">.</text>
<text x="107.33" y="475.71">.</text>
<text x="412.96" y="184.00">.</text>
<text x="108.33" y="432.88">.</text>
<text x="217.41" y="3.76">+</text>
<text x="58.31" y="192.03">.</text>
<text x="266.44" y="302.72">.</text>
<text x="257.88" y="92.39">+</text>
<text x="370.94" y="92.28">+</text>
<text x="32.37" y="60.31">+</text>
<text x="320.62" y="209.73">.</text>
<text x="36.65" y="141.73">+</text>
<text x="302.26" y="42.98">.</text>

</svg>