
<svg viewBox="0 0 500 500" xmlns="http://www.w.org/2000/svg" width="100%" height="100%" style="background-color: #0a0a14; font-family: 'Courier New', Courier, monospace;">
    <style>
        text { fill: #aaa; font-size: 10px; text-anchor: middle; dominant-baseline: middle; }
    </style>
    <text x="36.69" y="34.82">+</text>
<text x="494.21" y="164.32">.</text>
<text x="110.85" y="142.83">.</text>
<text x="206.56" y="66.39">.</text>
<text x="426.26" y="306.17">.</text>
<text x="305.44" y="330.85">.</text>
<text x="222.45" y="229.29">*</text>
<text x="37.28" y="7.78">.</text>
<text x="17.15" y="304.95">.</text>
<text x="355.77" y="254.75">.</text>
<text x="376.33" y="199.08">.</text>
<text x="319.23" y="317.30">.</text>
<text x="408.56" y="85.42">.</text>
<text x="87.24" y="260.03">.</text>
<text x="225.84" y="481.42">+</text>
<text x="498.51" y="365.09">+</text>
<text x="435.02" y="245.76">+</text>
<text x="346.12" y="275.38">.</text>
<text x="4.17" y="354.47">+</text>
<text x="174.95" y="211.54">.</text>
<text x="362.97" y="344.63">+</text>
<text x="259.57" y="82.37">+</text>
<text x="115.61" y="453.42">+</text>
<text x="228.31" y="346.27">.</text>
<text x="424.35" y="274.74">.</text>
<text x="163.96" y="217.09">.</text>
<text x="338.35" y="273.18">*</text>
<text x="18.74" y="273.54">+</text>
<text x="93.31" y="131.57">.</text>
<text x="337.51" y="82.58">+</text>
<text x="447.71" y="11.00">+</text>
<text x="125.20" y="76.40">.</text>
<text x="262.86" y="53.10">+</text>
<text x="26.34" y="373.67">*</text>
<text x="34.17" y="314.35">+</text>
<text x="58.19" y="122.50">.</text>
<text x="465.38" y="449.96">*</text>
<text x="208.89" y="449.22">.</text>
<text x="358.27" y="51.05">*</text>
<text x="147.56" y="384.24">+</text>
<text x="408.03" y="343.69">.</text>
<text x="191.68" y="165.47">.</text>
<text x="430.36" y="287.41">.</text>
<text x="57.12" y="421.34">.</text>
<text x="164.45" y="266.51">.</text>
<text x="49.79" y="10.43">+</text>
<text x="84.25" y="117.30">+</text>
<text x="15.74" y="364.36">+</text>
<text x="401.71" y="279.53">.</text>
<text x="422.68" y="404.54">.</text>
<text x="486.28" y="38.18">*</text>
<text x="384.33" y="146.19">+</text>
<text x="104.42" y="238.97">.</text>
<text x="163.97" y="385.44">+</text>
<text x="361.00" y="152.80">+</text>
<text x="499.47" y="278.74">.</text>
<text x="492.37" y="458.23">*</text>
<text x="271.59" y="148.14">+</text>
<text x="58.67" y="239.38">+</text>
<text x="463.30" y="450.28">+</text>
<text x="406.11" y="372.68">+</text>
<text x="365.52" y="186.51">.</text>
<text x="41.41" y="184.51">+</text>
<text x="152.90" y="122.97">+</text>
<text x="75.18" y="236.44">+</text>
<text x="170.79" y="379.91">.</text>
<text x="188.12" y="210.91">.</text>
<text x="387.43" y="138.00">+</text>
<text x="169.66" y="189.30">.</text>
<text x="155.55" y="4.09">.</text>
<text x="445.27" y="216.57">+</text>
<text x="72.74" y="81.88">.</text>
<text x="190.18" y="114.36">*</text>
<text x="300.38" y="169.42">.</text>
<text x="440.92" y="162.85">+</text>
<text x="72.59" y="286.63">.</text>
<text x="279.22" y="5.68">+</text>
<text x="221.91" y="111.58">*</text>
<text x="257.99" y="170.58">+</text>
<text x="127.13" y="317.51">.</text>
<text x="95.30" y="354.89">*</text>
<text x="192.41" y="108.41">.</text>
<text x="242.34" y="474.15">.</text>
<text x="220.08" y="183.67">+</text>
<text x="461.94" y="163.14">+</text>
<text x="338.08" y="436.25">+</text>
<text x="177.52" y="406.43">+</text>
<text x="380.74" y="291.01">.</text>
<text x="18.72" y="269.04">+</text>
<text x="248.71" y="61.12">+</text>
<text x="378.89" y="374.63">+</text>
<text x="344.28" y="125.24">*</text>
<text x="27.31" y="149.74">*</text>
<text x="202.31" y="344.80">+</text>
<text x="499.46" y="373.74">+</text>
<text x="223.43" y="310.38">+</text>
<text x="229.18" y="215.36">+</text>
<text x="298.32" y="187.12">.</text>
<text x="426.96" y="453.38">.</text>
<text x="154.91" y="13.26">.</text>
<text x="151.81" y="194.83">+</text>
<text x="471.68" y="80.26">.</text>
<text x="198.29" y="480.75">+</text>
<text x="369.28" y="95.21">.</text>
<text x="205.47" y="461.34">+</text>
<text x="39.80" y="80.89">+</text>
<text x="455.94" y="377.41">+</text>
<text x="464.95" y="468.31">.</text>
<text x="413.34" y="50.82">+</text>
<text x="275.34" y="431.68">+</text>
<text x="12.21" y="130.29">+</text>
<text x="467.25" y="205.23">+</text>
<text x="462.67" y="188.15">*</text>
<text x="179.46" y="374.34">+</text>
<text x="2.00" y="376.53">+</text>
<text x="369.88" y="454.29">*</text>
<text x="218.05" y="469.35">+</text>
<text x="54.10" y="34.13">.</text>
<text x="381.74" y="87.42">.</text>
<text x="163.17" y="467.64">.</text>
<text x="191.81" y="287.61">.</text>
<text x="182.88" y="396.71">.</text>
<text x="63.29" y="231.93">+</text>
<text x="75.13" y="205.71">.</text>
<text x="234.89" y="334.87">.</text>
<text x="226.22" y="206.49">*</text>
<text x="244.73" y="186.65">+</text>
<text x="74.87" y="455.82">.</text>
<text x="110.31" y="408.29">.</text>
<text x="288.10" y="391.56">+</text>
<text x="83.27" y="186.98">.</text>
<text x="406.70" y="71.04">+</text>
<text x="254.16" y="418.85">.</text>
<text x="85.26" y="324.53">.</text>
<text x="495.56" y="413.46">+</text>
<text x="203.32" y="316.42">+</text>
<text x="474.37" y="38.73">.</text>
<text x="148.68" y="260.89">*</text>
<text x="109.71" y="150.07">.</text>
<text x="49.49" y="11.93">*</text>
<text x="320.13" y="59.35">+</text>
<text x="458.63" y="165.74">.</text>
<text x="339.13" y="442.02">+</text>
<text x="405.62" y="464.16">+</text>
<text x="9.80" y="443.83">.</text>
<text x="26.25" y="151.56">.</text>
<text x="227.05" y="345.57">*</text>
<text x="458.59" y="301.41">+</text>
<text x="0.65" y="314.48">*</text>
<text x="439.19" y="298.88">+</text>
<text x="368.58" y="276.09">+</text>
<text x="241.52" y="209.74">.</text>
<text x="335.74" y="119.78">+</text>
<text x="24.25" y="172.77">+</text>
<text x="131.51" y="196.56">+</text>
<text x="447.09" y="485.55">+</text>
<text x="290.59" y="330.29">+</text>
<text x="401.25" y="178.92">.</text>
<text x="478.93" y="105.35">.</text>
<text x="86.63" y="116.54">+</text>
<text x="188.82" y="338.81">.</text>
<text x="304.29" y="395.01">*</text>
<text x="462.23" y="35.68">+</text>
<text x="0.26" y="69.66">*</text>
<text x="441.50" y="336.75">.</text>
<text x="87.85" y="372.48">.</text>
<text x="313.47" y="419.38">.</text>
<text x="409.17" y="185.50">.</text>
<text x="410.98" y="247.85">.</text>
<text x="477.09" y="164.85">.</text>
<text x="421.16" y="99.04">.</text>
<text x="159.64" y="111.07">*</text>
<text x="16.63" y="286.95">.</text>
<text x="303.09" y="328.70">.</text>
<text x="70.64" y="61.02">+</text>
<text x="434.82" y="268.44">*</text>
<text x="345.57" y="39.63">+</text>
<text x="66.30" y="197.36">.</text>
<text x="101.21" y="462.97">.</text>
<text x="123.37" y="79.29">.</text>
<text x="449.67" y="485.84">*</text>
<text x="417.04" y="151.26">.</text>
<text x="278.56" y="57.64">+</text>
<text x="26.61" y="12.77">+</text>
<text x="224.61" y="264.56">+</text>
<text x="38.68" y="237.02">*</text>
<text x="432.10" y="80.50">+</text>
<text x="370.54" y="84.40">*</text>
<text x="40.08" y="103.64">+</text>
<text x="458.67" y="303.02">+</text>
<text x="292.49" y="420.56">+</text>
<text x="412.02" y="59.68">.</text>
<text x="400.28" y="439.50">+</text>
<text x="175.68" y="420.57">+</text>
<text x="259.57" y="167.34">.</text>
<text x="463.94" y="437.27">.</text>
<text x="497.97" y="266.49">+</text>
<text x="168.42" y="468.60">+</text>
<text x="386.60" y="1.86">.</text>
<text x="252.47" y="343.70">*</text>
<text x="345.19" y="42.21">+</text>
<text x="260.00" y="319.67">+</text>
<text x="483.38" y="33.90">+</text>
<text x="182.08" y="62.09">.</text>
<text x="325.66" y="427.36">.</text>
<text x="479.57" y="117.35">.</text>
<text x="392.31" y="136.29">.</text>
<text x="255.34" y="378.08">+</text>
<text x="120.98" y="92.37">.</text>
<text x="385.91" y="261.29">+</text>

</svg>