
<svg viewBox="0 0 500 500" xmlns="http://www.w.org/2000/svg" width="100%" height="100%" style="background-color: #0a0a14; font-family: 'Courier New', Courier, monospace;">
    <style>
        text { fill: #aaa; font-size: 10px; text-anchor: middle; dominant-baseline: middle; }
    </style>
    <text x="287.47" y="423.92">.</text>
<text x="96.54" y="19.26">+</text>
<text x="136.62" y="170.68">+</text>
<text x="55.20" y="87.74">+</text>
<text x="6.74" y="114.66">.</text>
<text x="164.09" y="385.63">.</text>
<text x="253.14" y="342.86">.</text>
<text x="263.88" y="275.34">+</text>
<text x="404.74" y="427.63">.</text>
<text x="215.49" y="176.36">+</text>
<text x="355.77" y="144.76">+</text>
<text x="28.19" y="205.39">.</text>
<text x="232.53" y="150.57">+</text>
<text x="260.48" y="177.82">.</text>
<text x="290.53" y="479.14">.</text>
<text x="142.22" y="11.86">.</text>
<text x="188.81" y="459.71">+</text>
<text x="56.41" y="456.17">.</text>
<text x="109.82" y="11.88">.</text>
<text x="369.41" y="439.49">.</text>
<text x="178.78" y="3.20">+</text>
<text x="68.16" y="127.59">.</text>
<text x="310.60" y="426.72">+</text>
<text x="150.81" y="214.74">+</text>
<text x="450.76" y="344.52">+</text>
<text x="276.29" y="78.64">+</text>
<text x="304.57" y="289.12">*</text>
<text x="353.45" y="123.17">.</text>
<text x="424.37" y="118.46">+</text>
<text x="202.51" y="6.27">.</text>
<text x="127.48" y="59.39">+</text>
<text x="462.89" y="361.39">+</text>
<text x="355.48" y="189.77">+</text>
<text x="423.50" y="311.60">.</text>
<text x="374.20" y="475.17">.</text>
<text x="255.21" y="336.34">.</text>
<text x="17.65" y="346.87">+</text>
<text x="361.14" y="62.53">.</text>
<text x="324.40" y="471.04">.</text>
<text x="69.02" y="229.21">+</text>
<text x="122.35" y="280.47">+</text>
<text x="44.44" y="376.61">.</text>
<text x="114.95" y="455.06">+</text>
<text x="291.03" y="170.29">+</text>
<text x="85.44" y="385.64">.</text>
<text x="412.81" y="62.83">+</text>
<text x="388.41" y="202.24">.</text>
<text x="364.98" y="422.20">+</text>
<text x="66.04" y="492.62">*</text>
<text x="137.43" y="206.05">.</text>
<text x="241.24" y="265.28">.</text>
<text x="306.08" y="479.18">.</text>
<text x="482.31" y="296.45">*</text>
<text x="276.01" y="213.88">.</text>
<text x="61.14" y="170.98">.</text>
<text x="208.34" y="35.64">+</text>
<text x="489.49" y="329.80">+</text>
<text x="147.80" y="426.51">.</text>
<text x="326.06" y="216.42">*</text>
<text x="192.20" y="454.72">.</text>
<text x="18.90" y="494.27">+</text>
<text x="366.61" y="129.44">*</text>
<text x="108.91" y="273.24">.</text>
<text x="6.11" y="356.50">.</text>
<text x="249.46" y="107.89">.</text>
<text x="242.34" y="360.88">.</text>
<text x="36.05" y="271.35">.</text>
<text x="140.99" y="114.71">*</text>
<text x="316.31" y="313.17">+</text>
<text x="439.25" y="336.54">.</text>
<text x="154.40" y="351.65">.</text>
<text x="278.47" y="335.03">.</text>
<text x="72.68" y="72.73">+</text>
<text x="87.33" y="19.49">*</text>
<text x="102.51" y="276.26">+</text>
<text x="252.89" y="29.27">*</text>
<text x="257.76" y="390.83">.</text>
<text x="156.85" y="371.56">.</text>
<text x="138.31" y="214.36">+</text>
<text x="453.67" y="443.16">.</text>
<text x="202.15" y="46.07">+</text>
<text x="18.38" y="172.87">+</text>
<text x="495.53" y="457.06">+</text>
<text x="109.15" y="373.91">+</text>
<text x="462.01" y="489.17">.</text>
<text x="397.42" y="50.49">*</text>
<text x="497.77" y="250.30">+</text>
<text x="150.86" y="279.29">.</text>
<text x="102.39" y="103.82">+</text>
<text x="362.92" y="67.36">+</text>
<text x="111.03" y="290.34">.</text>
<text x="449.04" y="281.54">+</text>
<text x="252.03" y="134.36">.</text>
<text x="260.32" y="199.89">+</text>
<text x="186.73" y="259.70">*</text>
<text x="457.86" y="72.91">.</text>
<text x="395.36" y="413.11">.</text>
<text x="240.10" y="33.40">.</text>
<text x="337.07" y="245.96">.</text>
<text x="431.31" y="150.87">.</text>
<text x="235.38" y="191.57">*</text>
<text x="405.67" y="303.23">+</text>
<text x="20.49" y="435.21">*</text>
<text x="228.33" y="200.03">*</text>
<text x="363.76" y="123.67">.</text>
<text x="487.91" y="471.69">.</text>
<text x="376.12" y="306.74">.</text>
<text x="125.50" y="58.57">.</text>
<text x="293.94" y="84.73">.</text>
<text x="140.54" y="128.94">+</text>
<text x="9.70" y="98.23">+</text>
<text x="29.69" y="461.30">+</text>
<text x="373.13" y="406.42">.</text>
<text x="248.38" y="188.60">.</text>
<text x="354.93" y="453.37">+</text>
<text x="63.35" y="265.49">+</text>
<text x="335.80" y="343.48">+</text>
<text x="72.40" y="391.92">+</text>
<text x="489.25" y="437.42">+</text>
<text x="172.27" y="349.48">+</text>
<text x="242.36" y="247.34">.</text>
<text x="41.20" y="320.91">.</text>
<text x="305.53" y="304.13">.</text>
<text x="472.61" y="290.62">+</text>
<text x="236.15" y="14.06">.</text>
<text x="275.52" y="368.56">+</text>
<text x="415.93" y="381.88">+</text>
<text x="114.51" y="415.56">.</text>
<text x="21.91" y="368.03">.</text>
<text x="241.06" y="217.95">+</text>
<text x="148.23" y="309.65">.</text>
<text x="259.57" y="48.95">.</text>
<text x="275.34" y="42.68">+</text>
<text x="153.42" y="179.67">+</text>
<text x="131.44" y="448.73">+</text>
<text x="479.22" y="221.44">+</text>
<text x="300.43" y="176.92">.</text>
<text x="40.25" y="343.33">.</text>
<text x="339.47" y="206.33">*</text>
<text x="117.06" y="228.65">+</text>
<text x="340.15" y="372.14">.</text>
<text x="170.67" y="420.30">.</text>
<text x="178.16" y="37.74">+</text>
<text x="371.79" y="280.83">*</text>
<text x="413.21" y="134.35">+</text>
<text x="352.35" y="476.16">*</text>
<text x="139.32" y="43.24">+</text>
<text x="173.63" y="106.80">*</text>
<text x="245.08" y="438.74">.</text>
<text x="2.01" y="368.83">.</text>
<text x="27.90" y="358.06">+</text>
<text x="92.72" y="144.61">+</text>
<text x="0.22" y="48.04">+</text>
<text x="164.13" y="164.05">.</text>
<text x="112.04" y="273.38">+</text>
<text x="167.80" y="6.63">+</text>
<text x="212.86" y="439.97">.</text>
<text x="18.22" y="161.72">.</text>
<text x="218.85" y="467.83">.</text>
<text x="0.49" y="84.57">+</text>
<text x="400.57" y="163.32">+</text>
<text x="111.44" y="74.45">.</text>
<text x="98.41" y="111.73">+</text>
<text x="489.84" y="393.06">+</text>
<text x="416.61" y="444.75">+</text>
<text x="301.07" y="154.04">.</text>
<text x="357.65" y="380.79">.</text>
<text x="66.56" y="487.92">.</text>
<text x="195.42" y="148.47">*</text>
<text x="49.44" y="177.54">+</text>
<text x="183.80" y="430.34">.</text>
<text x="409.99" y="14.17">+</text>
<text x="222.74" y="430.32">.</text>
<text x="424.96" y="90.11">+</text>
<text x="386.42" y="326.56">.</text>
<text x="478.44" y="299.61">+</text>
<text x="16.96" y="69.33">.</text>
<text x="361.96" y="311.48">.</text>
<text x="439.41" y="240.82">.</text>
<text x="480.90" y="33.21">+</text>
<text x="182.87" y="480.90">*</text>
<text x="357.99" y="187.69">.</text>
<text x="210.68" y="366.08">.</text>
<text x="195.03" y="412.90">.</text>
<text x="180.73" y="373.14">*</text>
<text x="414.04" y="474.82">.</text>
<text x="484.90" y="56.17">.</text>
<text x="491.21" y="343.24">+</text>
<text x="365.00" y="411.06">*</text>
<text x="126.16" y="257.79">*</text>
<text x="207.36" y="95.29">+</text>
<text x="129.40" y="464.90">+</text>
<text x="167.77" y="65.44">+</text>
<text x="495.71" y="244.66">+</text>
<text x="375.30" y="372.62">+</text>
<text x="157.33" y="499.84">+</text>
<text x="467.41" y="441.48">.</text>
<text x="443.36" y="491.05">.</text>
<text x="448.05" y="491.94">+</text>
<text x="484.54" y="185.47">+</text>
<text x="121.62" y="257.07">+</text>
<text x="475.97" y="84.35">+</text>
<text x="311.68" y="188.54">.</text>
<text x="425.72" y="492.40">*</text>
<text x="470.66" y="406.96">.</text>
<text x="230.09" y="307.82">*</text>
<text x="354.23" y="268.19">+</text>

</svg>