
<svg viewBox="0 0 500 500" xmlns="http://www.w.org/2000/svg" width="100%" height="100%" style="background-color: #0a0a14; font-family: 'Courier New', Courier, monospace;">
    <style>
        text { fill: #aaa; font-size: 10px; text-anchor: middle; dominant-baseline: middle; }
    </style>
    <text x="474.23" y="164.67">.</text>
<text x="3.89" y="399.85">*</text>
<text x="471.38" y="412.50">.</text>
<text x="76.64" y="406.52">+</text>
<text x="203.48" y="280.48">+</text>
<text x="63.41" y="61.72">*</text>
<text x="367.18" y="137.99">.</text>
<text x="161.97" y="44.29">.</text>
<text x="304.11" y="195.42">+</text>
<text x="475.37" y="100.74">+</text>
<text x="415.18" y="65.98">*</text>
<text x="74.54" y="49.63">.</text>
<text x="79.79" y="159.70">*</text>
<text x="398.01" y="429.84">.</text>
<text x="259.05" y="306.32">.</text>
<text x="117.99" y="275.44">.</text>
<text x="473.26" y="441.55">*</text>
<text x="424.50" y="335.47">*</text>
<text x="189.77" y="299.21">+</text>
<text x="23.65" y="364.34">+</text>
<text x="406.66" y="88.08">.</text>
<text x="196.87" y="254.00">+</text>
<text x="38.66" y="186.61">+</text>
<text x="411.22" y="466.25">+</text>
<text x="300.12" y="82.93">+</text>
<text x="319.46" y="223.06">.</text>
<text x="429.23" y="466.11">.</text>
<text x="296.74" y="459.56">+</text>
<text x="325.87" y="295.22">+</text>
<text x="465.92" y="456.99">+</text>
<text x="114.10" y="481.59">*</text>
<text x="420.36" y="60.94">.</text>
<text x="420.24" y="105.65">.</text>
<text x="139.99" y="388.00">.</text>
<text x="90.16" y="68.32">+</text>
<text x="305.49" y="268.05">.</text>
<text x="261.95" y="398.64">+</text>
<text x="122.55" y="356.38">.</text>
<text x="137.99" y="454.80">*</text>
<text x="263.00" y="341.63">.</text>
<text x="211.55" y="412.33">.</text>
<text x="311.69" y="325.09">.</text>
<text x="3.25" y="119.68">.</text>
<text x="67.96" y="42.96">+</text>
<text x="198.27" y="334.96">+</text>
<text x="455.31" y="163.54">.</text>
<text x="255.38" y="331.63">+</text>
<text x="202.55" y="200.88">*</text>
<text x="328.25" y="317.43">*</text>
<text x="191.07" y="198.49">+</text>
<text x="49.61" y="51.85">.</text>
<text x="190.51" y="123.40">+</text>
<text x="374.10" y="114.23">+</text>
<text x="403.33" y="146.09">.</text>
<text x="92.43" y="329.14">+</text>
<text x="455.63" y="88.76">+</text>
<text x="254.49" y="239.13">+</text>
<text x="309.65" y="141.21">.</text>
<text x="454.21" y="103.35">.</text>
<text x="103.05" y="157.70">.</text>
<text x="223.07" y="27.57">*</text>
<text x="224.59" y="279.03">*</text>
<text x="24.33" y="367.59">+</text>
<text x="275.11" y="102.63">+</text>
<text x="365.70" y="482.05">+</text>
<text x="93.01" y="188.16">+</text>
<text x="74.43" y="36.70">+</text>
<text x="304.79" y="287.88">+</text>
<text x="210.85" y="428.42">+</text>
<text x="416.63" y="308.58">+</text>
<text x="28.04" y="402.44">.</text>
<text x="105.21" y="22.51">+</text>
<text x="211.95" y="132.39">.</text>
<text x="324.19" y="13.14">+</text>
<text x="222.94" y="68.11">+</text>
<text x="187.01" y="215.47">.</text>
<text x="8.25" y="345.07">.</text>
<text x="246.63" y="307.93">.</text>
<text x="356.97" y="247.50">.</text>
<text x="471.91" y="3.11">+</text>
<text x="463.99" y="198.86">+</text>
<text x="261.16" y="279.83">+</text>
<text x="1.49" y="437.45">+</text>
<text x="95.05" y="474.03">+</text>
<text x="3.46" y="319.05">*</text>
<text x="497.23" y="51.97">.</text>
<text x="243.65" y="499.30">+</text>
<text x="308.02" y="271.32">.</text>
<text x="475.12" y="110.93">.</text>
<text x="90.03" y="72.92">*</text>
<text x="388.86" y="370.76">.</text>
<text x="158.92" y="29.35">*</text>
<text x="275.98" y="49.22">+</text>
<text x="146.33" y="431.23">.</text>
<text x="14.62" y="214.36">+</text>
<text x="79.34" y="172.57">.</text>
<text x="487.70" y="345.51">.</text>
<text x="455.65" y="460.36">+</text>
<text x="325.93" y="66.72">+</text>
<text x="384.25" y="279.54">*</text>
<text x="487.51" y="160.45">+</text>
<text x="113.27" y="450.68">+</text>
<text x="317.74" y="203.41">.</text>
<text x="81.13" y="29.59">+</text>
<text x="418.21" y="337.64">*</text>
<text x="316.47" y="101.62">.</text>
<text x="321.81" y="117.54">+</text>
<text x="384.16" y="374.21">*</text>
<text x="497.22" y="51.63">+</text>
<text x="51.39" y="158.82">.</text>
<text x="76.00" y="436.47">.</text>
<text x="207.58" y="208.72">.</text>
<text x="405.83" y="276.29">+</text>
<text x="436.91" y="299.74">.</text>
<text x="372.41" y="363.60">+</text>
<text x="373.08" y="304.30">+</text>
<text x="299.94" y="250.79">*</text>
<text x="301.94" y="137.36">.</text>
<text x="250.25" y="141.59">.</text>
<text x="388.18" y="57.40">.</text>
<text x="44.55" y="469.95">+</text>
<text x="325.32" y="370.32">+</text>
<text x="361.40" y="365.06">.</text>
<text x="15.99" y="297.14">+</text>
<text x="164.14" y="376.43">+</text>
<text x="27.33" y="353.48">+</text>
<text x="384.59" y="272.98">.</text>
<text x="216.35" y="365.44">.</text>
<text x="384.84" y="17.70">+</text>
<text x="22.11" y="495.79">*</text>
<text x="59.34" y="87.55">+</text>
<text x="220.48" y="311.02">*</text>
<text x="154.98" y="326.48">.</text>
<text x="249.76" y="113.92">.</text>
<text x="244.54" y="25.63">.</text>
<text x="397.89" y="221.40">.</text>
<text x="75.83" y="159.41">*</text>
<text x="188.04" y="6.65">.</text>
<text x="107.34" y="164.50">.</text>
<text x="349.32" y="193.15">+</text>
<text x="116.78" y="300.23">+</text>
<text x="476.34" y="317.01">.</text>
<text x="151.84" y="190.16">*</text>
<text x="364.91" y="95.15">.</text>
<text x="184.36" y="316.61">.</text>
<text x="225.11" y="224.97">.</text>
<text x="380.45" y="39.47">*</text>
<text x="110.69" y="419.31">.</text>
<text x="62.96" y="351.45">.</text>
<text x="119.69" y="249.57">.</text>
<text x="254.75" y="200.81">.</text>
<text x="325.55" y="253.20">.</text>
<text x="453.47" y="109.47">+</text>
<text x="70.20" y="77.19">*</text>
<text x="358.18" y="408.69">+</text>
<text x="207.63" y="353.93">.</text>
<text x="477.61" y="261.54">+</text>
<text x="50.63" y="413.04">.</text>
<text x="192.05" y="142.43">.</text>
<text x="365.74" y="396.57">+</text>
<text x="257.14" y="361.35">.</text>
<text x="154.24" y="410.98">+</text>
<text x="198.13" y="405.42">.</text>
<text x="87.31" y="197.46">+</text>
<text x="240.99" y="346.19">+</text>
<text x="189.32" y="15.42">.</text>
<text x="394.89" y="169.93">.</text>
<text x="334.67" y="414.18">.</text>
<text x="185.89" y="198.47">*</text>
<text x="486.83" y="112.48">+</text>
<text x="394.15" y="182.74">+</text>
<text x="21.01" y="407.54">+</text>
<text x="188.35" y="348.14">.</text>
<text x="6.05" y="432.71">+</text>
<text x="80.06" y="0.72">+</text>
<text x="60.21" y="171.49">+</text>
<text x="307.86" y="16.80">*</text>
<text x="108.96" y="420.44">.</text>
<text x="268.97" y="117.13">+</text>
<text x="240.90" y="59.47">.</text>
<text x="444.22" y="380.52">.</text>
<text x="362.41" y="107.72">.</text>
<text x="115.69" y="86.70">.</text>
<text x="37.39" y="369.93">+</text>
<text x="296.05" y="376.11">+</text>
<text x="258.07" y="58.03">+</text>
<text x="494.88" y="492.75">.</text>
<text x="231.95" y="74.66">+</text>
<text x="392.36" y="432.75">+</text>
<text x="261.85" y="151.52">.</text>
<text x="415.60" y="419.15">.</text>
<text x="417.88" y="259.62">*</text>
<text x="182.53" y="274.74">*</text>
<text x="124.88" y="85.59">+</text>
<text x="91.46" y="113.89">*</text>
<text x="326.40" y="482.80">.</text>
<text x="239.30" y="131.17">+</text>
<text x="431.28" y="337.72">.</text>
<text x="172.73" y="214.40">.</text>
<text x="139.58" y="356.56">.</text>
<text x="480.24" y="165.12">+</text>
<text x="145.92" y="348.63">+</text>
<text x="395.28" y="24.57">.</text>
<text x="118.57" y="358.62">+</text>
<text x="129.73" y="251.23">+</text>
<text x="122.50" y="492.70">+</text>
<text x="244.83" y="38.08">*</text>
<text x="93.37" y="41.31">.</text>
<text x="344.76" y="424.59">.</text>
<text x="265.41" y="459.70">+</text>
<text x="392.18" y="420.90">+</text>
<text x="242.43" y="77.61">+</text>
<text x="123.56" y="474.68">+</text>
<text x="472.68" y="33.81">.</text>
<text x="171.51" y="9.52">+</text>
<text x="248.60" y="215.02">.</text>
<text x="231.46" y="490.65">+</text>
<text x="323.17" y="362.13">.</text>
<text x="110.65" y="189.28">.</text>

</svg>