
<svg viewBox="0 0 500 500" xmlns="http://www.w.org/2000/svg" width="100%" height="100%" style="background-color: #0a0a14; font-family: 'Courier New', Courier, monospace;">
    <style>
        text { fill: #aaa; font-size: 10px; text-anchor: middle; dominant-baseline: middle; }
    </style>
    <text x="476.62" y="410.14">.</text>
<text x="127.62" y="248.65">*</text>
<text x="258.04" y="173.94">+</text>
<text x="379.27" y="241.73">+</text>
<text x="289.08" y="18.15">.</text>
<text x="105.04" y="460.02">+</text>
<text x="398.32" y="313.19">.</text>
<text x="412.29" y="218.96">.</text>
<text x="340.56" y="458.12">.</text>
<text x="217.29" y="196.98">+</text>
<text x="186.09" y="365.09">.</text>
<text x="436.40" y="372.88">+</text>
<text x="182.41" y="113.55">+</text>
<text x="268.91" y="70.66">+</text>
<text x="396.03" y="241.30">.</text>
<text x="389.40" y="136.65">.</text>
<text x="156.32" y="301.24">+</text>
<text x="81.47" y="195.52">*</text>
<text x="14.39" y="327.57">*</text>
<text x="485.29" y="388.11">+</text>
<text x="275.82" y="489.46">+</text>
<text x="278.21" y="53.00">*</text>
<text x="254.98" y="237.77">.</text>
<text x="250.93" y="33.49">+</text>
<text x="443.68" y="486.80">.</text>
<text x="143.78" y="213.58">.</text>
<text x="60.14" y="266.09">+</text>
<text x="443.73" y="456.62">+</text>
<text x="304.94" y="377.47">+</text>
<text x="107.71" y="458.01">+</text>
<text x="17.42" y="285.12">.</text>
<text x="371.64" y="181.84">.</text>
<text x="279.64" y="51.53">*</text>
<text x="177.41" y="400.44">+</text>
<text x="180.25" y="75.46">+</text>
<text x="184.50" y="441.53">+</text>
<text x="141.60" y="98.95">.</text>
<text x="186.16" y="214.71">+</text>
<text x="186.03" y="402.76">.</text>
<text x="210.45" y="106.06">+</text>
<text x="243.35" y="476.56">.</text>
<text x="78.31" y="36.55">+</text>
<text x="222.51" y="495.22">.</text>
<text x="108.88" y="431.68">+</text>
<text x="476.13" y="248.99">+</text>
<text x="222.95" y="79.29">.</text>
<text x="150.88" y="194.64">+</text>
<text x="338.24" y="363.79">+</text>
<text x="279.69" y="439.53">+</text>
<text x="453.65" y="20.80">.</text>
<text x="441.93" y="252.21">.</text>
<text x="28.52" y="6.65">+</text>
<text x="244.34" y="239.30">+</text>
<text x="492.74" y="243.14">+</text>
<text x="325.31" y="475.05">.</text>
<text x="425.38" y="468.21">.</text>
<text x="398.66" y="436.64">+</text>
<text x="213.41" y="209.36">.</text>
<text x="317.89" y="381.59">.</text>
<text x="98.99" y="427.81">+</text>
<text x="237.68" y="337.60">+</text>
<text x="190.29" y="415.70">+</text>
<text x="346.86" y="440.96">+</text>
<text x="22.99" y="218.77">.</text>
<text x="76.43" y="321.26">+</text>
<text x="197.34" y="473.43">.</text>
<text x="45.35" y="484.48">.</text>
<text x="213.27" y="214.01">+</text>
<text x="363.32" y="88.25">.</text>
<text x="348.22" y="456.81">.</text>
<text x="156.42" y="474.49">+</text>
<text x="479.73" y="209.55">.</text>
<text x="172.60" y="306.49">.</text>
<text x="365.55" y="113.24">+</text>
<text x="267.83" y="419.82">+</text>
<text x="379.89" y="462.72">+</text>
<text x="383.27" y="309.74">*</text>
<text x="153.20" y="44.61">*</text>
<text x="358.58" y="463.13">*</text>
<text x="68.24" y="426.30">.</text>
<text x="149.70" y="160.12">*</text>
<text x="434.43" y="46.30">+</text>
<text x="424.27" y="375.23">*</text>
<text x="214.06" y="166.02">+</text>
<text x="264.23" y="389.32">+</text>
<text x="429.26" y="349.80">.</text>
<text x="442.04" y="405.52">.</text>
<text x="438.56" y="159.37">.</text>
<text x="323.67" y="154.87">+</text>
<text x="91.41" y="423.74">.</text>
<text x="324.00" y="378.53">+</text>
<text x="197.26" y="19.22">.</text>
<text x="135.72" y="452.35">.</text>
<text x="118.56" y="19.10">+</text>
<text x="17.06" y="12.93">+</text>
<text x="96.40" y="251.58">+</text>
<text x="95.14" y="122.52">.</text>
<text x="56.52" y="368.42">+</text>
<text x="262.85" y="175.63">+</text>
<text x="394.20" y="81.44">+</text>
<text x="72.72" y="140.34">.</text>
<text x="481.46" y="480.01">.</text>
<text x="290.96" y="7.08">*</text>
<text x="260.19" y="161.96">.</text>
<text x="4.21" y="339.85">.</text>
<text x="190.60" y="494.14">*</text>
<text x="117.24" y="35.59">+</text>
<text x="85.47" y="166.60">*</text>
<text x="294.82" y="421.86">.</text>
<text x="346.45" y="17.10">+</text>
<text x="272.27" y="321.93">+</text>
<text x="360.04" y="499.57">+</text>
<text x="72.57" y="228.42">.</text>
<text x="156.95" y="196.62">.</text>
<text x="285.89" y="199.41">+</text>
<text x="248.15" y="195.88">+</text>
<text x="433.47" y="141.00">+</text>
<text x="373.17" y="107.70">+</text>
<text x="205.80" y="411.36">.</text>
<text x="155.96" y="165.01">.</text>
<text x="436.84" y="347.10">+</text>
<text x="188.40" y="65.75">+</text>
<text x="369.80" y="363.72">.</text>
<text x="496.04" y="335.24">+</text>
<text x="65.87" y="153.76">.</text>
<text x="458.46" y="499.78">+</text>
<text x="128.06" y="146.26">+</text>
<text x="424.47" y="83.07">+</text>
<text x="405.21" y="194.10">+</text>
<text x="417.47" y="26.43">+</text>
<text x="108.98" y="165.74">+</text>
<text x="398.99" y="363.85">+</text>
<text x="327.78" y="271.84">*</text>
<text x="70.71" y="216.48">*</text>
<text x="216.69" y="343.09">+</text>
<text x="430.41" y="456.73">+</text>
<text x="282.34" y="326.94">.</text>
<text x="209.96" y="187.06">+</text>
<text x="410.94" y="96.37">*</text>
<text x="418.80" y="280.83">+</text>
<text x="29.20" y="1.38">.</text>
<text x="341.31" y="236.30">+</text>
<text x="45.56" y="146.01">.</text>
<text x="80.47" y="234.41">*</text>
<text x="138.05" y="238.45">.</text>
<text x="284.99" y="177.83">+</text>
<text x="223.65" y="127.37">.</text>
<text x="94.24" y="247.48">+</text>
<text x="324.73" y="155.48">.</text>
<text x="188.79" y="200.68">+</text>
<text x="218.47" y="208.29">+</text>
<text x="284.35" y="283.69">+</text>
<text x="65.76" y="231.50">.</text>
<text x="448.50" y="1.97">.</text>
<text x="52.54" y="131.32">+</text>
<text x="134.52" y="313.52">.</text>
<text x="126.67" y="16.25">.</text>
<text x="79.94" y="341.92">+</text>
<text x="317.04" y="433.33">.</text>
<text x="498.88" y="482.02">.</text>
<text x="255.15" y="403.32">+</text>
<text x="368.53" y="465.95">.</text>
<text x="181.50" y="75.91">.</text>
<text x="362.16" y="292.40">+</text>
<text x="178.43" y="246.25">.</text>
<text x="474.16" y="5.41">+</text>
<text x="335.33" y="247.05">.</text>
<text x="322.89" y="158.92">.</text>
<text x="251.97" y="133.33">.</text>
<text x="460.67" y="142.77">.</text>
<text x="111.11" y="49.70">+</text>
<text x="476.19" y="63.69">.</text>
<text x="94.76" y="259.76">.</text>
<text x="312.32" y="267.86">+</text>
<text x="475.10" y="13.52">.</text>
<text x="380.29" y="83.77">*</text>
<text x="72.49" y="231.72">+</text>
<text x="426.10" y="52.15">*</text>
<text x="421.96" y="268.83">+</text>
<text x="261.37" y="218.86">+</text>
<text x="235.38" y="394.02">*</text>
<text x="68.59" y="9.50">+</text>
<text x="130.40" y="231.31">+</text>
<text x="149.05" y="177.43">+</text>
<text x="81.46" y="241.40">+</text>
<text x="182.39" y="424.37">+</text>
<text x="302.81" y="470.35">.</text>
<text x="44.67" y="283.17">.</text>
<text x="369.50" y="149.05">*</text>
<text x="376.42" y="253.26">+</text>
<text x="407.32" y="401.17">+</text>
<text x="63.26" y="225.82">+</text>
<text x="151.22" y="478.66">*</text>
<text x="430.73" y="356.21">.</text>
<text x="25.20" y="71.68">.</text>
<text x="49.88" y="420.78">.</text>
<text x="236.71" y="476.19">+</text>
<text x="138.28" y="57.74">.</text>
<text x="295.09" y="30.81">.</text>
<text x="204.44" y="56.52">+</text>
<text x="308.42" y="327.13">+</text>
<text x="462.74" y="111.24">+</text>

</svg>