
<svg viewBox="0 0 500 500" xmlns="http://www.w.org/2000/svg" width="100%" height="100%" style="background-color: #0a0a14; font-family: 'Courier New', Courier, monospace;">
    <style>
        text { fill: #aaa; font-size: 10px; text-anchor: middle; dominant-baseline: middle; }
    </style>
    <text x="167.43" y="238.92">.</text>
<text x="2.87" y="139.08">+</text>
<text x="202.44" y="20.72">+</text>
<text x="137.96" y="200.59">.</text>
<text x="359.07" y="294.04">+</text>
<text x="428.88" y="146.03">*</text>
<text x="419.93" y="410.93">+</text>
<text x="324.89" y="127.25">.</text>
<text x="287.43" y="254.07">.</text>
<text x="315.03" y="240.28">.</text>
<text x="383.42" y="217.40">+</text>
<text x="171.53" y="270.92">+</text>
<text x="59.72" y="201.22">.</text>
<text x="311.39" y="485.69">.</text>
<text x="44.81" y="486.62">.</text>
<text x="185.15" y="7.08">+</text>
<text x="229.50" y="175.27">+</text>
<text x="389.97" y="403.74">+</text>
<text x="228.56" y="281.35">.</text>
<text x="27.60" y="37.32">.</text>
<text x="344.15" y="490.96">.</text>
<text x="434.07" y="481.54">*</text>
<text x="315.62" y="362.66">*</text>
<text x="357.09" y="449.37">+</text>
<text x="287.15" y="257.07">+</text>
<text x="454.63" y="12.30">+</text>
<text x="317.53" y="68.33">.</text>
<text x="411.56" y="84.19">*</text>
<text x="93.37" y="228.85">*</text>
<text x="48.63" y="192.28">+</text>
<text x="64.49" y="229.49">.</text>
<text x="298.79" y="499.80">+</text>
<text x="15.73" y="408.83">+</text>
<text x="334.43" y="134.72">.</text>
<text x="194.12" y="428.63">.</text>
<text x="29.91" y="76.09">.</text>
<text x="300.77" y="407.75">+</text>
<text x="367.69" y="498.57">*</text>
<text x="174.01" y="473.09">.</text>
<text x="156.51" y="402.48">*</text>
<text x="243.43" y="63.10">+</text>
<text x="437.56" y="408.46">.</text>
<text x="235.13" y="229.67">.</text>
<text x="193.54" y="56.27">+</text>
<text x="362.38" y="244.53">+</text>
<text x="41.05" y="79.97">*</text>
<text x="414.51" y="150.46">+</text>
<text x="94.52" y="70.73">.</text>
<text x="20.92" y="410.91">*</text>
<text x="368.98" y="444.00">.</text>
<text x="26.53" y="341.75">+</text>
<text x="408.22" y="203.46">.</text>
<text x="443.19" y="279.07">*</text>
<text x="424.57" y="184.40">+</text>
<text x="395.67" y="387.58">.</text>
<text x="269.08" y="8.31">+</text>
<text x="105.61" y="386.82">.</text>
<text x="408.95" y="468.10">+</text>
<text x="240.42" y="464.91">.</text>
<text x="413.07" y="111.70">+</text>
<text x="259.45" y="161.34">+</text>
<text x="156.21" y="0.74">+</text>
<text x="259.56" y="155.41">.</text>
<text x="268.84" y="261.54">.</text>
<text x="311.07" y="14.41">*</text>
<text x="178.62" y="452.30">.</text>
<text x="282.85" y="44.77">.</text>
<text x="382.36" y="333.76">*</text>
<text x="280.56" y="229.41">.</text>
<text x="140.04" y="229.67">+</text>
<text x="177.81" y="75.35">*</text>
<text x="219.97" y="361.68">.</text>
<text x="181.68" y="446.61">+</text>
<text x="222.72" y="218.01">+</text>
<text x="62.21" y="292.21">+</text>
<text x="196.31" y="477.18">.</text>
<text x="471.31" y="396.18">.</text>
<text x="381.96" y="19.01">.</text>
<text x="435.97" y="482.56">*</text>
<text x="357.74" y="30.63">.</text>
<text x="63.20" y="147.31">+</text>
<text x="430.14" y="98.95">+</text>
<text x="77.66" y="443.10">.</text>
<text x="149.28" y="45.08">.</text>
<text x="172.16" y="176.90">.</text>
<text x="340.95" y="177.20">.</text>
<text x="412.44" y="479.65">.</text>
<text x="162.39" y="183.45">+</text>
<text x="44.21" y="477.27">.</text>
<text x="72.09" y="85.21">+</text>
<text x="334.40" y="19.90">+</text>
<text x="4.24" y="165.19">+</text>
<text x="74.48" y="186.00">+</text>
<text x="94.34" y="104.86">+</text>
<text x="227.68" y="64.47">+</text>
<text x="8.55" y="349.21">.</text>
<text x="408.88" y="467.13">+</text>
<text x="42.62" y="463.54">+</text>
<text x="289.03" y="316.85">+</text>
<text x="186.76" y="390.94">.</text>
<text x="342.43" y="99.67">+</text>
<text x="33.44" y="89.81">.</text>
<text x="432.21" y="459.98">.</text>
<text x="76.36" y="438.05">+</text>
<text x="329.58" y="279.94">.</text>
<text x="21.72" y="256.55">+</text>
<text x="229.45" y="118.15">.</text>
<text x="98.07" y="467.49">+</text>
<text x="369.06" y="370.58">*</text>
<text x="242.38" y="5.10">.</text>
<text x="169.35" y="364.72">+</text>
<text x="109.18" y="76.55">+</text>
<text x="237.60" y="354.77">+</text>
<text x="382.58" y="298.99">.</text>
<text x="283.46" y="283.57">+</text>
<text x="283.84" y="484.52">+</text>
<text x="117.11" y="89.30">+</text>
<text x="3.40" y="480.96">*</text>
<text x="34.25" y="175.59">+</text>
<text x="426.52" y="131.80">*</text>
<text x="469.18" y="105.40">+</text>
<text x="155.83" y="480.95">.</text>
<text x="81.10" y="302.82">+</text>
<text x="443.64" y="479.80">.</text>
<text x="474.96" y="250.52">.</text>
<text x="186.51" y="312.96">.</text>
<text x="484.60" y="437.37">.</text>
<text x="64.54" y="314.91">+</text>
<text x="366.16" y="462.34">.</text>
<text x="243.16" y="361.13">.</text>
<text x="84.13" y="242.28">.</text>
<text x="433.10" y="413.92">+</text>
<text x="370.08" y="46.77">*</text>
<text x="32.51" y="97.43">*</text>
<text x="181.16" y="54.37">.</text>
<text x="443.89" y="16.15">.</text>
<text x="479.86" y="357.77">.</text>
<text x="152.26" y="43.65">.</text>
<text x="184.96" y="290.03">+</text>
<text x="96.95" y="282.43">.</text>
<text x="224.10" y="71.60">.</text>
<text x="380.97" y="242.47">.</text>
<text x="38.83" y="448.87">.</text>
<text x="191.09" y="160.76">.</text>
<text x="371.29" y="493.24">.</text>
<text x="173.04" y="2.59">+</text>
<text x="283.51" y="303.71">.</text>
<text x="383.69" y="430.10">.</text>
<text x="64.08" y="296.83">.</text>
<text x="235.68" y="64.00">+</text>
<text x="387.15" y="396.91">+</text>
<text x="401.12" y="298.07">.</text>
<text x="262.49" y="239.79">+</text>
<text x="116.75" y="270.80">.</text>
<text x="49.11" y="269.60">+</text>
<text x="285.93" y="296.40">.</text>
<text x="343.80" y="265.67">+</text>
<text x="430.68" y="117.57">*</text>
<text x="127.88" y="312.26">+</text>
<text x="148.15" y="115.30">*</text>
<text x="190.54" y="347.96">.</text>
<text x="22.60" y="174.34">.</text>
<text x="498.78" y="244.54">+</text>
<text x="420.24" y="279.28">.</text>
<text x="118.64" y="153.05">+</text>
<text x="218.44" y="51.04">.</text>
<text x="121.46" y="298.38">.</text>
<text x="428.70" y="384.79">.</text>
<text x="479.90" y="463.12">+</text>
<text x="325.99" y="460.16">.</text>
<text x="45.68" y="133.89">.</text>
<text x="353.49" y="359.36">+</text>
<text x="25.43" y="79.07">+</text>
<text x="405.49" y="303.64">.</text>
<text x="274.73" y="271.84">+</text>
<text x="165.08" y="150.12">+</text>
<text x="274.04" y="232.85">+</text>
<text x="211.90" y="132.39">*</text>
<text x="112.53" y="15.08">.</text>
<text x="176.79" y="416.10">.</text>
<text x="156.12" y="402.57">.</text>
<text x="49.22" y="366.65">.</text>
<text x="360.70" y="5.42">.</text>
<text x="14.64" y="173.75">*</text>
<text x="91.87" y="22.70">+</text>
<text x="413.08" y="237.70">+</text>
<text x="95.44" y="335.00">+</text>
<text x="306.58" y="37.00">.</text>
<text x="343.49" y="170.45">.</text>
<text x="206.33" y="252.02">.</text>
<text x="456.26" y="320.24">*</text>
<text x="215.00" y="134.55">.</text>
<text x="93.22" y="21.92">.</text>
<text x="135.67" y="259.72">.</text>
<text x="190.38" y="63.62">+</text>
<text x="245.39" y="454.28">.</text>
<text x="109.28" y="454.40">.</text>
<text x="124.97" y="82.71">*</text>
<text x="157.12" y="128.29">.</text>
<text x="255.41" y="232.43">+</text>
<text x="147.21" y="367.59">*</text>
<text x="372.97" y="190.08">.</text>
<text x="326.62" y="111.16">.</text>
<text x="305.62" y="317.99">.</text>
<text x="282.82" y="251.08">*</text>
<text x="481.92" y="479.93">.</text>
<text x="264.77" y="184.25">+</text>
<text x="5.92" y="128.50">+</text>
<text x="247.90" y="400.44">+</text>
<text x="499.71" y="306.28">+</text>
<text x="77.56" y="379.06">.</text>
<text x="299.67" y="217.51">.</text>
<text x="18.29" y="101.25">+</text>
<text x="163.33" y="65.74">.</text>
<text x="288.53" y="243.76">+</text>
<text x="312.70" y="324.35">.</text>
<text x="312.37" y="441.00">*</text>
<text x="442.37" y="225.90">+</text>
<text x="322.82" y="372.61">.</text>

</svg>