
<svg viewBox="0 0 500 500" xmlns="http://www.w.org/2000/svg" width="100%" height="100%" style="background-color: #0a0a14; font-family: 'Courier New', Courier, monospace;">
    <style>
        text { fill: #aaa; font-size: 10px; text-anchor: middle; dominant-baseline: middle; }
    </style>
    <text x="131.93" y="496.17">.</text>
<text x="291.42" y="475.53">.</text>
<text x="89.32" y="287.59">+</text>
<text x="194.11" y="350.42">.</text>
<text x="195.21" y="30.04">+</text>
<text x="339.92" y="473.44">*</text>
<text x="36.42" y="188.40">*</text>
<text x="224.10" y="458.67">*</text>
<text x="4.43" y="467.41">*</text>
<text x="163.28" y="156.94">+</text>
<text x="263.78" y="67.46">+</text>
<text x="474.79" y="309.68">.</text>
<text x="94.17" y="59.99">.</text>
<text x="171.44" y="123.92">.</text>
<text x="276.75" y="247.23">+</text>
<text x="307.95" y="445.43">.</text>
<text x="456.87" y="22.68">.</text>
<text x="155.94" y="109.92">+</text>
<text x="403.51" y="399.41">*</text>
<text x="329.11" y="183.97">+</text>
<text x="237.13" y="382.21">.</text>
<text x="161.16" y="304.77">.</text>
<text x="265.53" y="29.74">+</text>
<text x="315.11" y="434.43">+</text>
<text x="493.59" y="210.65">.</text>
<text x="424.79" y="371.96">+</text>
<text x="396.42" y="33.48">*</text>
<text x="204.47" y="87.08">.</text>
<text x="7.28" y="248.84">*</text>
<text x="365.28" y="496.25">.</text>
<text x="135.30" y="298.48">+</text>
<text x="338.60" y="191.51">.</text>
<text x="115.00" y="312.20">.</text>
<text x="431.35" y="327.86">.</text>
<text x="272.78" y="158.89">.</text>
<text x="76.71" y="132.02">.</text>
<text x="134.40" y="76.50">.</text>
<text x="261.21" y="69.77">*</text>
<text x="226.69" y="160.66">.</text>
<text x="467.34" y="440.11">+</text>
<text x="294.69" y="191.43">*</text>
<text x="116.17" y="480.37">+</text>
<text x="189.72" y="398.44">+</text>
<text x="425.36" y="105.79">+</text>
<text x="125.66" y="244.47">.</text>
<text x="17.01" y="498.49">.</text>
<text x="55.05" y="354.02">+</text>
<text x="124.43" y="154.03">.</text>
<text x="122.74" y="0.87">.</text>
<text x="446.40" y="103.41">.</text>
<text x="168.52" y="93.87">+</text>
<text x="252.43" y="219.98">.</text>
<text x="146.26" y="101.40">*</text>
<text x="341.64" y="221.86">*</text>
<text x="339.89" y="416.23">+</text>
<text x="248.63" y="443.49">+</text>
<text x="346.16" y="411.71">*</text>
<text x="429.73" y="329.06">.</text>
<text x="50.28" y="439.78">+</text>
<text x="495.89" y="347.25">.</text>
<text x="345.05" y="253.36">+</text>
<text x="77.20" y="476.70">*</text>
<text x="184.38" y="237.58">.</text>
<text x="483.89" y="25.17">+</text>
<text x="345.53" y="477.73">*</text>
<text x="226.20" y="357.56">+</text>
<text x="219.28" y="129.28">.</text>
<text x="17.84" y="248.13">+</text>
<text x="368.87" y="347.00">.</text>
<text x="53.92" y="450.26">+</text>
<text x="309.66" y="431.12">+</text>
<text x="269.44" y="110.06">.</text>
<text x="84.58" y="401.16">*</text>
<text x="133.30" y="105.89">*</text>
<text x="30.24" y="494.69">.</text>
<text x="446.81" y="246.18">+</text>
<text x="357.50" y="212.64">.</text>
<text x="263.60" y="98.36">+</text>
<text x="199.30" y="105.27">+</text>
<text x="279.39" y="286.86">+</text>
<text x="379.84" y="483.26">+</text>
<text x="130.03" y="11.78">+</text>
<text x="232.68" y="471.31">+</text>
<text x="277.26" y="147.03">+</text>
<text x="433.85" y="255.38">+</text>
<text x="397.20" y="90.04">*</text>
<text x="139.24" y="326.59">.</text>
<text x="13.40" y="333.70">.</text>
<text x="376.51" y="282.20">*</text>
<text x="389.73" y="373.49">+</text>
<text x="283.21" y="443.57">+</text>
<text x="493.43" y="410.03">*</text>
<text x="464.55" y="460.31">+</text>
<text x="395.99" y="98.08">+</text>
<text x="60.36" y="189.92">*</text>
<text x="159.56" y="219.29">+</text>
<text x="302.42" y="9.42">+</text>
<text x="197.16" y="200.18">+</text>
<text x="224.89" y="171.66">+</text>
<text x="38.71" y="302.92">.</text>
<text x="294.72" y="59.65">.</text>
<text x="221.72" y="379.26">*</text>
<text x="245.80" y="51.04">*</text>
<text x="439.33" y="376.14">+</text>
<text x="317.60" y="498.01">+</text>
<text x="116.81" y="427.63">+</text>
<text x="232.38" y="226.57">.</text>
<text x="385.26" y="181.02">+</text>
<text x="400.07" y="481.31">.</text>
<text x="90.16" y="60.29">.</text>
<text x="212.14" y="367.87">+</text>
<text x="262.83" y="321.14">*</text>
<text x="14.79" y="195.27">+</text>
<text x="283.36" y="65.55">+</text>
<text x="465.27" y="287.25">.</text>
<text x="167.82" y="189.53">.</text>
<text x="188.12" y="328.85">.</text>
<text x="262.54" y="307.33">+</text>
<text x="88.38" y="45.60">+</text>
<text x="278.18" y="131.67">.</text>
<text x="4.01" y="448.46">*</text>
<text x="28.26" y="207.29">+</text>
<text x="148.51" y="4.63">.</text>
<text x="386.24" y="429.52">+</text>
<text x="260.26" y="311.53">.</text>
<text x="461.81" y="478.73">+</text>
<text x="462.71" y="251.67">.</text>
<text x="277.06" y="73.29">.</text>
<text x="405.53" y="40.65">*</text>
<text x="102.88" y="401.98">.</text>
<text x="460.66" y="332.33">+</text>
<text x="313.82" y="332.88">.</text>
<text x="348.41" y="408.00">.</text>
<text x="46.14" y="102.67">.</text>
<text x="273.93" y="348.37">.</text>
<text x="491.53" y="1.78">.</text>
<text x="408.84" y="472.68">+</text>
<text x="351.89" y="10.28">.</text>
<text x="87.02" y="398.45">+</text>
<text x="264.46" y="286.51">*</text>
<text x="450.91" y="75.91">+</text>
<text x="212.42" y="297.62">+</text>
<text x="362.45" y="480.70">+</text>
<text x="457.72" y="25.37">.</text>
<text x="3.79" y="147.87">+</text>
<text x="66.38" y="256.13">+</text>
<text x="278.16" y="255.21">*</text>
<text x="37.69" y="173.78">+</text>
<text x="316.89" y="13.64">.</text>
<text x="15.57" y="232.25">+</text>
<text x="328.67" y="202.42">.</text>
<text x="307.25" y="216.48">+</text>
<text x="303.79" y="403.79">+</text>
<text x="111.21" y="226.05">+</text>
<text x="439.98" y="44.98">.</text>
<text x="258.33" y="322.41">+</text>
<text x="310.47" y="438.60">+</text>
<text x="298.72" y="203.38">+</text>
<text x="449.06" y="65.85">.</text>
<text x="322.76" y="461.19">*</text>
<text x="310.06" y="462.61">.</text>
<text x="116.12" y="79.31">+</text>
<text x="108.31" y="183.97">*</text>
<text x="117.84" y="475.97">+</text>
<text x="246.07" y="381.18">.</text>
<text x="395.13" y="102.31">*</text>
<text x="486.47" y="255.41">.</text>
<text x="24.92" y="119.54">*</text>
<text x="215.78" y="392.77">.</text>
<text x="250.27" y="239.98">+</text>
<text x="38.06" y="88.64">+</text>
<text x="36.14" y="71.36">.</text>
<text x="124.48" y="49.67">+</text>
<text x="0.70" y="229.11">+</text>
<text x="425.93" y="44.54">.</text>
<text x="255.75" y="233.75">+</text>
<text x="97.93" y="345.90">+</text>
<text x="211.69" y="432.31">.</text>
<text x="363.52" y="231.88">+</text>
<text x="163.88" y="297.19">+</text>
<text x="330.89" y="7.48">+</text>
<text x="58.09" y="5.68">+</text>
<text x="38.86" y="433.10">.</text>
<text x="154.02" y="96.34">.</text>
<text x="266.53" y="385.01">*</text>
<text x="490.77" y="280.51">.</text>
<text x="342.94" y="238.79">+</text>
<text x="307.35" y="244.55">+</text>
<text x="189.99" y="195.42">*</text>
<text x="365.48" y="51.45">.</text>
<text x="52.11" y="38.26">+</text>
<text x="323.76" y="39.09">+</text>
<text x="369.86" y="468.72">*</text>
<text x="74.54" y="330.64">+</text>
<text x="297.12" y="89.41">*</text>
<text x="180.65" y="293.30">+</text>
<text x="52.04" y="469.53">.</text>
<text x="183.10" y="185.76">+</text>
<text x="64.75" y="442.06">*</text>
<text x="239.01" y="338.82">+</text>
<text x="290.71" y="67.50">.</text>
<text x="277.22" y="16.01">.</text>
<text x="296.38" y="151.20">+</text>
<text x="172.32" y="332.52">+</text>
<text x="57.13" y="52.80">+</text>

</svg>