
<svg viewBox="0 0 500 500" xmlns="http://www.w.org/2000/svg" width="100%" height="100%" style="background-color: #0a0a14; font-family: 'Courier New', Courier, monospace;">
    <style>
        text { fill: #aaa; font-size: 10px; text-anchor: middle; dominant-baseline: middle; }
    </style>
    <text x="244.90" y="185.10">+</text>
<text x="440.04" y="225.28">.</text>
<text x="243.96" y="63.10">.</text>
<text x="132.12" y="174.46">.</text>
<text x="38.28" y="435.73">.</text>
<text x="247.49" y="155.01">+</text>
<text x="220.43" y="279.71">.</text>
<text x="452.20" y="473.06">+</text>
<text x="248.86" y="300.24">*</text>
<text x="105.53" y="204.78">*</text>
<text x="301.17" y="249.78">+</text>
<text x="102.98" y="445.47">*</text>
<text x="470.98" y="457.60">+</text>
<text x="430.51" y="89.45">.</text>
<text x="321.65" y="189.08">.</text>
<text x="91.31" y="197.39">.</text>
<text x="154.01" y="122.75">.</text>
<text x="368.77" y="453.54">+</text>
<text x="387.80" y="457.76">.</text>
<text x="59.55" y="18.16">+</text>
<text x="184.26" y="359.90">.</text>
<text x="257.53" y="494.86">.</text>
<text x="66.97" y="422.31">.</text>
<text x="300.21" y="242.47">+</text>
<text x="375.01" y="22.29">+</text>
<text x="47.84" y="64.52">.</text>
<text x="331.73" y="191.54">+</text>
<text x="88.61" y="476.18">+</text>
<text x="180.61" y="281.45">+</text>
<text x="100.49" y="399.67">*</text>
<text x="365.22" y="272.53">.</text>
<text x="319.98" y="424.84">.</text>
<text x="22.72" y="435.90">*</text>
<text x="196.52" y="344.79">.</text>
<text x="15.44" y="364.75">+</text>
<text x="24.36" y="189.25">.</text>
<text x="61.58" y="219.51">.</text>
<text x="105.14" y="290.26">+</text>
<text x="204.24" y="254.76">*</text>
<text x="394.04" y="437.92">*</text>
<text x="295.24" y="494.14">.</text>
<text x="323.05" y="276.43">.</text>
<text x="335.61" y="207.82">*</text>
<text x="225.95" y="469.22">+</text>
<text x="488.52" y="436.47">+</text>
<text x="61.85" y="262.57">+</text>
<text x="92.25" y="45.91">+</text>
<text x="138.27" y="174.90">+</text>
<text x="68.84" y="292.23">.</text>
<text x="493.46" y="346.96">*</text>
<text x="308.62" y="453.65">.</text>
<text x="27.06" y="475.61">+</text>
<text x="276.96" y="193.19">.</text>
<text x="450.01" y="54.48">.</text>
<text x="44.40" y="458.95">+</text>
<text x="289.23" y="347.47">.</text>
<text x="101.94" y="62.87">+</text>
<text x="173.72" y="113.35">+</text>
<text x="294.88" y="225.56">*</text>
<text x="455.07" y="224.46">+</text>
<text x="106.87" y="437.45">+</text>
<text x="384.04" y="378.89">+</text>
<text x="132.67" y="264.44">.</text>
<text x="429.38" y="403.17">.</text>
<text x="463.78" y="212.62">.</text>
<text x="220.51" y="227.78">*</text>
<text x="87.97" y="331.70">*</text>
<text x="147.26" y="11.69">+</text>
<text x="302.46" y="444.84">+</text>
<text x="409.75" y="414.01">+</text>
<text x="489.09" y="53.86">+</text>
<text x="83.72" y="113.45">.</text>
<text x="44.18" y="491.96">+</text>
<text x="493.61" y="257.84">*</text>
<text x="181.67" y="345.60">.</text>
<text x="255.37" y="363.56">+</text>
<text x="92.09" y="190.17">.</text>
<text x="251.21" y="375.93">*</text>
<text x="303.61" y="17.04">.</text>
<text x="108.73" y="363.58">+</text>
<text x="477.76" y="423.70">.</text>
<text x="144.27" y="405.04">*</text>
<text x="211.02" y="397.92">+</text>
<text x="415.46" y="230.50">.</text>
<text x="456.26" y="450.45">*</text>
<text x="472.60" y="406.35">.</text>
<text x="245.61" y="205.72">.</text>
<text x="499.10" y="37.00">.</text>
<text x="211.79" y="221.27">+</text>
<text x="414.51" y="258.93">+</text>
<text x="206.96" y="47.54">.</text>
<text x="448.19" y="50.01">+</text>
<text x="94.62" y="18.53">+</text>
<text x="226.19" y="465.02">*</text>
<text x="185.09" y="217.11">.</text>
<text x="366.33" y="365.57">+</text>
<text x="14.75" y="89.61">.</text>
<text x="150.93" y="482.27">.</text>
<text x="177.57" y="122.52">.</text>
<text x="16.11" y="466.67">.</text>
<text x="87.11" y="76.26">+</text>
<text x="210.32" y="142.41">.</text>
<text x="435.49" y="161.60">+</text>
<text x="228.90" y="206.89">.</text>
<text x="426.34" y="164.25">+</text>
<text x="372.40" y="403.02">.</text>
<text x="144.71" y="486.49">*</text>
<text x="478.16" y="147.86">+</text>
<text x="309.32" y="363.72">+</text>
<text x="237.02" y="144.71">.</text>
<text x="254.16" y="491.46">+</text>
<text x="180.40" y="394.78">*</text>
<text x="326.89" y="66.35">*</text>
<text x="188.23" y="2.60">+</text>
<text x="102.89" y="488.01">+</text>
<text x="206.56" y="398.40">.</text>
<text x="119.44" y="284.57">+</text>
<text x="318.37" y="131.49">.</text>
<text x="451.24" y="238.35">+</text>
<text x="257.51" y="247.54">+</text>
<text x="211.13" y="424.23">+</text>
<text x="468.11" y="81.80">+</text>
<text x="281.39" y="307.00">+</text>
<text x="358.90" y="120.50">.</text>
<text x="275.46" y="470.74">*</text>
<text x="271.61" y="333.65">.</text>
<text x="71.92" y="324.91">+</text>
<text x="327.23" y="172.20">+</text>
<text x="36.67" y="60.58">*</text>
<text x="46.89" y="411.93">.</text>
<text x="88.26" y="477.80">*</text>
<text x="32.80" y="179.57">+</text>
<text x="398.68" y="28.27">.</text>
<text x="83.96" y="233.65">*</text>
<text x="69.61" y="62.92">+</text>
<text x="4.79" y="107.08">*</text>
<text x="290.13" y="325.29">+</text>
<text x="498.27" y="185.65">.</text>
<text x="266.01" y="81.28">*</text>
<text x="400.66" y="160.16">+</text>
<text x="405.60" y="90.33">+</text>
<text x="274.76" y="283.12">.</text>
<text x="112.21" y="290.69">*</text>
<text x="452.82" y="438.38">.</text>
<text x="229.57" y="34.38">+</text>
<text x="372.77" y="312.18">+</text>
<text x="295.29" y="254.58">*</text>
<text x="489.65" y="372.37">.</text>
<text x="181.53" y="377.64">.</text>
<text x="348.36" y="120.04">+</text>
<text x="240.39" y="318.90">+</text>
<text x="190.89" y="489.15">.</text>
<text x="414.37" y="270.11">*</text>
<text x="444.49" y="124.56">.</text>
<text x="119.35" y="12.46">*</text>
<text x="305.50" y="485.40">.</text>
<text x="260.11" y="445.87">+</text>
<text x="435.75" y="431.90">.</text>
<text x="350.67" y="201.76">+</text>
<text x="303.42" y="162.88">.</text>
<text x="117.91" y="452.05">.</text>
<text x="412.06" y="329.97">.</text>
<text x="290.00" y="269.43">.</text>
<text x="440.49" y="394.03">*</text>
<text x="201.41" y="493.08">.</text>
<text x="145.42" y="444.37">*</text>
<text x="385.55" y="382.30">+</text>
<text x="358.27" y="409.62">.</text>
<text x="181.95" y="38.29">.</text>
<text x="214.84" y="487.29">+</text>
<text x="119.64" y="458.58">.</text>
<text x="474.06" y="385.10">+</text>
<text x="331.69" y="194.32">.</text>
<text x="285.44" y="293.43">+</text>
<text x="87.31" y="493.67">.</text>
<text x="212.71" y="82.92">.</text>
<text x="19.92" y="458.08">+</text>
<text x="83.89" y="262.35">+</text>
<text x="100.27" y="469.23">.</text>
<text x="145.88" y="194.15">.</text>
<text x="160.76" y="218.35">+</text>
<text x="39.12" y="280.39">+</text>
<text x="499.59" y="315.23">.</text>
<text x="254.81" y="59.02">+</text>
<text x="255.11" y="241.50">.</text>
<text x="250.23" y="327.20">+</text>
<text x="486.23" y="163.34">.</text>
<text x="340.44" y="174.02">+</text>
<text x="179.30" y="20.13">+</text>
<text x="474.65" y="373.66">+</text>
<text x="40.06" y="24.19">*</text>
<text x="209.36" y="307.57">.</text>
<text x="376.64" y="339.07">.</text>
<text x="253.29" y="395.28">.</text>
<text x="407.21" y="92.26">.</text>
<text x="157.79" y="10.70">*</text>
<text x="438.13" y="26.17">+</text>
<text x="341.31" y="63.17">.</text>
<text x="456.89" y="346.47">+</text>
<text x="278.43" y="460.45">+</text>
<text x="126.42" y="258.73">+</text>
<text x="387.37" y="29.88">+</text>
<text x="322.02" y="118.61">+</text>
<text x="251.49" y="429.49">+</text>
<text x="247.56" y="259.71">+</text>
<text x="203.13" y="229.77">+</text>
<text x="491.70" y="19.94">+</text>
<text x="265.92" y="383.69">.</text>
<text x="280.53" y="379.28">.</text>
<text x="151.58" y="108.08">.</text>
<text x="269.78" y="139.82">+</text>
<text x="150.96" y="176.14">+</text>
<text x="261.06" y="0.85">.</text>
<text x="222.78" y="26.27">+</text>
<text x="204.17" y="325.89">.</text>

</svg>