
<svg viewBox="0 0 500 500" xmlns="http://www.w.org/2000/svg" width="100%" height="100%" style="background-color: #0a0a14; font-family: 'Courier New', Courier, monospace;">
    <style>
        text { fill: #aaa; font-size: 10px; text-anchor: middle; dominant-baseline: middle; }
    </style>
    <text x="360.26" y="426.17">+</text>
<text x="121.26" y="70.35">+</text>
<text x="42.27" y="11.73">+</text>
<text x="437.32" y="359.50">+</text>
<text x="371.46" y="293.47">.</text>
<text x="187.46" y="75.16">*</text>
<text x="490.86" y="105.53">+</text>
<text x="32.79" y="284.52">.</text>
<text x="220.76" y="379.38">*</text>
<text x="478.11" y="169.40">.</text>
<text x="489.81" y="245.51">+</text>
<text x="461.13" y="381.37">+</text>
<text x="363.77" y="137.26">.</text>
<text x="198.90" y="116.56">+</text>
<text x="321.19" y="462.21">+</text>
<text x="52.86" y="150.90">.</text>
<text x="176.56" y="482.66">*</text>
<text x="208.95" y="242.67">*</text>
<text x="39.07" y="156.84">*</text>
<text x="368.80" y="281.12">+</text>
<text x="249.70" y="117.51">+</text>
<text x="120.85" y="50.57">*</text>
<text x="214.53" y="41.96">*</text>
<text x="349.49" y="347.52">.</text>
<text x="487.57" y="143.94">.</text>
<text x="339.38" y="486.99">.</text>
<text x="189.91" y="400.41">.</text>
<text x="369.93" y="292.03">+</text>
<text x="18.81" y="147.00">+</text>
<text x="179.51" y="166.76">.</text>
<text x="133.83" y="496.01">+</text>
<text x="211.64" y="364.25">.</text>
<text x="282.96" y="147.25">+</text>
<text x="365.31" y="97.75">+</text>
<text x="102.64" y="311.25">.</text>
<text x="456.48" y="167.27">*</text>
<text x="412.89" y="221.10">+</text>
<text x="23.78" y="287.76">+</text>
<text x="373.74" y="396.43">+</text>
<text x="483.54" y="350.32">.</text>
<text x="235.85" y="148.05">+</text>
<text x="57.89" y="378.77">+</text>
<text x="452.93" y="306.98">.</text>
<text x="121.48" y="423.95">.</text>
<text x="273.31" y="340.68">+</text>
<text x="164.41" y="274.56">*</text>
<text x="395.03" y="469.06">+</text>
<text x="241.81" y="171.35">.</text>
<text x="22.00" y="59.45">+</text>
<text x="420.19" y="82.81">+</text>
<text x="271.74" y="408.88">+</text>
<text x="291.10" y="369.97">+</text>
<text x="30.90" y="205.45">+</text>
<text x="115.85" y="49.84">.</text>
<text x="292.88" y="204.14">+</text>
<text x="133.35" y="350.85">.</text>
<text x="38.96" y="243.40">*</text>
<text x="265.71" y="397.24">.</text>
<text x="144.02" y="4.22">+</text>
<text x="127.52" y="17.57">+</text>
<text x="154.65" y="353.65">+</text>
<text x="211.19" y="474.19">.</text>
<text x="343.13" y="17.37">*</text>
<text x="406.59" y="241.30">+</text>
<text x="199.00" y="467.15">.</text>
<text x="332.34" y="37.60">.</text>
<text x="488.83" y="157.90">+</text>
<text x="51.62" y="457.78">+</text>
<text x="119.02" y="360.34">+</text>
<text x="274.97" y="171.54">.</text>
<text x="103.47" y="356.46">+</text>
<text x="239.12" y="93.55">.</text>
<text x="317.29" y="224.82">*</text>
<text x="59.70" y="392.30">+</text>
<text x="434.54" y="63.37">.</text>
<text x="437.63" y="479.68">.</text>
<text x="495.76" y="75.85">+</text>
<text x="443.65" y="327.87">+</text>
<text x="117.48" y="168.94">.</text>
<text x="353.45" y="266.76">.</text>
<text x="373.77" y="404.89">+</text>
<text x="215.77" y="334.80">.</text>
<text x="118.98" y="393.40">+</text>
<text x="158.25" y="60.70">*</text>
<text x="45.63" y="295.49">.</text>
<text x="178.99" y="371.15">*</text>
<text x="447.02" y="84.54">.</text>
<text x="114.91" y="297.02">.</text>
<text x="227.37" y="471.81">+</text>
<text x="29.54" y="407.24">.</text>
<text x="454.64" y="265.42">+</text>
<text x="46.63" y="443.41">+</text>
<text x="229.16" y="438.52">.</text>
<text x="92.80" y="493.21">.</text>
<text x="276.22" y="248.93">.</text>
<text x="127.24" y="236.39">+</text>
<text x="183.71" y="210.07">.</text>
<text x="153.82" y="269.47">.</text>
<text x="420.60" y="56.64">.</text>
<text x="467.02" y="45.99">*</text>
<text x="267.79" y="375.15">*</text>
<text x="270.20" y="291.57">.</text>
<text x="11.73" y="317.27">+</text>
<text x="114.92" y="20.07">.</text>
<text x="233.36" y="395.26">.</text>
<text x="102.43" y="265.21">+</text>
<text x="266.67" y="373.65">.</text>
<text x="172.52" y="68.41">.</text>
<text x="23.47" y="200.42">+</text>
<text x="204.72" y="156.67">+</text>
<text x="242.51" y="214.93">.</text>
<text x="138.52" y="109.84">.</text>
<text x="274.19" y="429.58">+</text>
<text x="193.65" y="152.34">+</text>
<text x="264.62" y="459.26">+</text>
<text x="264.47" y="48.47">*</text>
<text x="149.18" y="227.63">+</text>
<text x="229.47" y="114.38">.</text>
<text x="189.95" y="195.52">+</text>
<text x="402.37" y="233.43">+</text>
<text x="167.00" y="12.07">.</text>
<text x="215.60" y="442.27">.</text>
<text x="378.90" y="334.36">+</text>
<text x="242.12" y="470.67">.</text>
<text x="139.05" y="264.85">.</text>
<text x="402.68" y="133.99">.</text>
<text x="158.26" y="8.34">+</text>
<text x="29.28" y="115.59">.</text>
<text x="281.30" y="236.75">+</text>
<text x="12.85" y="415.71">+</text>
<text x="164.69" y="147.81">.</text>
<text x="491.88" y="325.38">+</text>
<text x="364.56" y="436.00">+</text>
<text x="35.49" y="183.53">.</text>
<text x="131.22" y="51.29">+</text>
<text x="414.90" y="233.19">*</text>
<text x="43.27" y="314.85">+</text>
<text x="80.05" y="244.83">*</text>
<text x="382.82" y="223.84">.</text>
<text x="315.25" y="280.15">+</text>
<text x="275.13" y="57.71">.</text>
<text x="15.37" y="107.84">.</text>
<text x="298.14" y="342.88">+</text>
<text x="328.79" y="361.12">.</text>
<text x="335.02" y="17.10">+</text>
<text x="472.05" y="278.66">+</text>
<text x="401.35" y="143.25">+</text>
<text x="445.41" y="22.83">+</text>
<text x="88.09" y="142.38">*</text>
<text x="232.05" y="379.13">+</text>
<text x="194.88" y="161.11">+</text>
<text x="37.70" y="28.13">+</text>
<text x="370.60" y="256.96">+</text>
<text x="454.50" y="427.40">.</text>
<text x="481.28" y="495.41">+</text>
<text x="221.12" y="51.37">+</text>
<text x="418.29" y="188.31">+</text>
<text x="227.66" y="96.94">+</text>
<text x="489.93" y="438.45">.</text>
<text x="1.04" y="312.23">.</text>
<text x="217.97" y="470.98">.</text>
<text x="431.37" y="207.78">.</text>
<text x="473.77" y="290.93">.</text>
<text x="282.01" y="93.99">.</text>
<text x="118.24" y="342.94">.</text>
<text x="106.94" y="275.30">+</text>
<text x="286.62" y="95.07">+</text>
<text x="334.01" y="361.57">+</text>
<text x="56.59" y="474.88">+</text>
<text x="236.58" y="109.20">*</text>
<text x="75.80" y="105.91">+</text>
<text x="58.15" y="198.61">.</text>
<text x="46.08" y="425.40">.</text>
<text x="71.32" y="103.42">.</text>
<text x="156.51" y="166.36">*</text>
<text x="244.91" y="103.96">+</text>
<text x="312.54" y="358.33">+</text>
<text x="272.25" y="68.87">+</text>
<text x="352.21" y="22.88">+</text>
<text x="354.48" y="205.67">+</text>
<text x="395.50" y="478.07">.</text>
<text x="112.83" y="253.10">+</text>
<text x="334.09" y="25.73">+</text>
<text x="47.09" y="367.63">*</text>
<text x="247.30" y="172.72">+</text>
<text x="66.52" y="72.84">+</text>
<text x="150.17" y="119.81">.</text>
<text x="372.19" y="14.53">.</text>
<text x="230.99" y="434.86">.</text>
<text x="34.50" y="419.62">.</text>
<text x="354.36" y="188.49">+</text>
<text x="351.92" y="401.00">+</text>
<text x="107.78" y="38.65">.</text>
<text x="472.81" y="399.34">.</text>
<text x="422.81" y="11.63">*</text>
<text x="366.51" y="80.96">*</text>
<text x="298.24" y="76.61">+</text>
<text x="203.72" y="155.62">.</text>
<text x="0.61" y="460.70">.</text>
<text x="286.01" y="29.54">*</text>
<text x="217.02" y="9.45">.</text>
<text x="104.35" y="477.80">.</text>
<text x="174.92" y="221.86">.</text>
<text x="352.41" y="319.64">*</text>
<text x="367.05" y="163.67">.</text>
<text x="467.12" y="404.44">.</text>
<text x="498.22" y="313.14">*</text>
<text x="354.12" y="27.21">+</text>
<text x="198.88" y="81.77">.</text>
<text x="103.45" y="116.10">+</text>
<text x="142.92" y="463.80">.</text>
<text x="288.44" y="8.91">+</text>
<text x="124.69" y="84.67">.</text>
<text x="233.00" y="162.74">+</text>
<text x="114.59" y="465.95">+</text>
<text x="62.94" y="166.89">.</text>
<text x="432.16" y="281.49">+</text>
<text x="451.81" y="286.43">+</text>
<text x="487.89" y="253.65">.</text>

</svg>