
<svg viewBox="0 0 500 500" xmlns="http://www.w.org/2000/svg" width="100%" height="100%" style="background-color: #0a0a14; font-family: 'Courier New', Courier, monospace;">
    <style>
        text { fill: #aaa; font-size: 10px; text-anchor: middle; dominant-baseline: middle; }
    </style>
    <text x="483.48" y="318.57">.</text>
<text x="101.03" y="64.82">+</text>
<text x="18.30" y="364.94">.</text>
<text x="16.66" y="78.44">+</text>
<text x="277.71" y="225.34">+</text>
<text x="159.15" y="263.27">+</text>
<text x="420.43" y="229.03">+</text>
<text x="271.12" y="399.90">*</text>
<text x="9.13" y="152.35">+</text>
<text x="104.39" y="310.33">+</text>
<text x="273.51" y="398.76">.</text>
<text x="485.08" y="252.85">+</text>
<text x="79.86" y="331.20">+</text>
<text x="311.93" y="212.39">+</text>
<text x="161.02" y="173.61">+</text>
<text x="451.40" y="410.08">*</text>
<text x="421.94" y="224.92">+</text>
<text x="415.51" y="85.45">+</text>
<text x="110.26" y="149.28">*</text>
<text x="58.18" y="340.19">+</text>
<text x="24.44" y="31.87">.</text>
<text x="118.32" y="330.33">.</text>
<text x="147.80" y="226.07">.</text>
<text x="230.18" y="86.86">*</text>
<text x="490.83" y="379.50">*</text>
<text x="244.93" y="101.02">*</text>
<text x="289.31" y="220.39">+</text>
<text x="110.88" y="481.83">.</text>
<text x="499.57" y="62.86">+</text>
<text x="58.91" y="442.62">.</text>
<text x="95.19" y="414.99">.</text>
<text x="283.29" y="291.70">.</text>
<text x="379.32" y="375.87">*</text>
<text x="446.90" y="128.15">.</text>
<text x="147.70" y="262.62">+</text>
<text x="452.55" y="5.61">*</text>
<text x="8.85" y="442.31">+</text>
<text x="241.81" y="349.17">.</text>
<text x="452.08" y="230.57">+</text>
<text x="116.26" y="218.29">+</text>
<text x="366.56" y="471.93">.</text>
<text x="295.12" y="94.43">+</text>
<text x="201.85" y="380.98">.</text>
<text x="9.41" y="3.54">.</text>
<text x="376.41" y="225.37">*</text>
<text x="4.26" y="72.69">+</text>
<text x="151.53" y="471.61">.</text>
<text x="273.80" y="67.82">+</text>
<text x="488.75" y="45.32">+</text>
<text x="208.30" y="230.28">.</text>
<text x="254.39" y="481.09">+</text>
<text x="273.87" y="331.35">*</text>
<text x="360.61" y="422.77">.</text>
<text x="469.72" y="320.90">+</text>
<text x="44.44" y="220.74">.</text>
<text x="219.55" y="162.32">*</text>
<text x="10.03" y="131.53">.</text>
<text x="393.82" y="198.64">.</text>
<text x="161.92" y="404.72">+</text>
<text x="392.93" y="122.46">+</text>
<text x="186.91" y="337.15">+</text>
<text x="328.84" y="14.81">+</text>
<text x="322.00" y="136.86">+</text>
<text x="483.84" y="315.82">*</text>
<text x="377.30" y="251.66">+</text>
<text x="359.66" y="71.76">.</text>
<text x="12.84" y="265.44">.</text>
<text x="230.57" y="264.61">+</text>
<text x="296.79" y="251.31">.</text>
<text x="158.68" y="28.86">+</text>
<text x="470.79" y="497.50">.</text>
<text x="220.34" y="22.41">+</text>
<text x="316.02" y="108.22">*</text>
<text x="213.58" y="365.87">.</text>
<text x="477.15" y="259.92">*</text>
<text x="409.13" y="426.30">+</text>
<text x="266.79" y="198.08">.</text>
<text x="72.45" y="8.88">+</text>
<text x="298.04" y="400.12">+</text>
<text x="71.63" y="422.57">.</text>
<text x="86.86" y="267.31">.</text>
<text x="96.82" y="325.63">+</text>
<text x="129.96" y="19.81">*</text>
<text x="295.40" y="433.96">+</text>
<text x="378.06" y="218.10">*</text>
<text x="156.47" y="327.86">.</text>
<text x="222.40" y="386.94">.</text>
<text x="295.78" y="381.67">.</text>
<text x="141.26" y="447.39">.</text>
<text x="452.08" y="489.74">+</text>
<text x="127.82" y="21.94">.</text>
<text x="61.68" y="276.30">+</text>
<text x="491.90" y="360.04">.</text>
<text x="208.82" y="124.89">+</text>
<text x="493.66" y="439.53">.</text>
<text x="303.81" y="35.82">+</text>
<text x="136.09" y="410.31">+</text>
<text x="104.38" y="495.94">+</text>
<text x="388.59" y="335.01">*</text>
<text x="274.59" y="223.19">+</text>
<text x="407.64" y="232.34">.</text>
<text x="61.86" y="199.35">.</text>
<text x="294.05" y="454.61">.</text>
<text x="413.96" y="439.25">.</text>
<text x="150.36" y="373.52">+</text>
<text x="437.55" y="193.64">.</text>
<text x="357.26" y="260.95">.</text>
<text x="304.20" y="326.34">.</text>
<text x="108.89" y="153.66">*</text>
<text x="166.63" y="380.10">.</text>
<text x="91.33" y="301.85">.</text>
<text x="170.00" y="20.62">+</text>
<text x="323.30" y="380.87">.</text>
<text x="330.79" y="107.63">+</text>
<text x="423.67" y="241.72">+</text>
<text x="331.38" y="64.43">+</text>
<text x="122.12" y="307.34">*</text>
<text x="60.00" y="462.24">+</text>
<text x="46.40" y="155.40">+</text>
<text x="253.98" y="219.02">+</text>
<text x="104.95" y="489.46">.</text>
<text x="132.37" y="425.11">+</text>
<text x="251.47" y="204.88">.</text>
<text x="263.27" y="436.20">+</text>
<text x="364.15" y="285.39">+</text>
<text x="448.27" y="166.70">.</text>
<text x="233.86" y="138.32">.</text>
<text x="475.29" y="48.69">+</text>
<text x="483.45" y="64.17">+</text>
<text x="470.39" y="359.45">+</text>
<text x="470.52" y="64.21">+</text>
<text x="314.65" y="365.29">.</text>
<text x="272.98" y="374.07">+</text>
<text x="357.36" y="236.97">*</text>
<text x="316.22" y="180.29">*</text>
<text x="129.52" y="469.12">+</text>
<text x="388.35" y="403.73">.</text>
<text x="20.88" y="460.84">+</text>
<text x="20.73" y="5.88">*</text>
<text x="107.95" y="486.45">+</text>
<text x="38.79" y="270.27">.</text>
<text x="20.72" y="65.72">+</text>
<text x="74.91" y="446.09">+</text>
<text x="54.24" y="425.63">*</text>
<text x="458.82" y="45.44">.</text>
<text x="278.89" y="88.83">+</text>
<text x="477.31" y="494.05">.</text>
<text x="57.54" y="362.14">+</text>
<text x="492.86" y="349.76">.</text>
<text x="238.81" y="80.14">.</text>
<text x="237.47" y="349.59">.</text>
<text x="407.33" y="157.69">+</text>
<text x="64.91" y="124.85">+</text>
<text x="177.40" y="321.90">.</text>
<text x="282.85" y="310.49">+</text>
<text x="327.98" y="386.59">*</text>
<text x="444.04" y="455.68">+</text>
<text x="212.18" y="406.41">.</text>
<text x="281.11" y="96.73">.</text>
<text x="156.29" y="388.07">+</text>
<text x="234.89" y="168.96">+</text>
<text x="23.00" y="328.58">.</text>
<text x="418.10" y="361.93">.</text>
<text x="136.76" y="198.89">+</text>
<text x="132.05" y="38.88">+</text>
<text x="313.01" y="467.40">+</text>
<text x="411.11" y="15.51">.</text>
<text x="7.70" y="392.71">*</text>
<text x="396.45" y="167.09">.</text>
<text x="81.57" y="389.70">*</text>
<text x="292.87" y="25.68">.</text>
<text x="346.22" y="93.96">+</text>
<text x="341.16" y="285.48">.</text>
<text x="268.06" y="367.58">+</text>
<text x="26.54" y="56.50">*</text>
<text x="230.67" y="147.57">+</text>
<text x="298.25" y="126.12">.</text>
<text x="314.90" y="22.41">+</text>
<text x="188.28" y="121.45">.</text>
<text x="363.50" y="480.46">.</text>
<text x="449.24" y="224.26">+</text>
<text x="167.74" y="252.83">+</text>
<text x="488.65" y="318.77">.</text>
<text x="200.70" y="122.65">*</text>
<text x="207.27" y="385.69">+</text>
<text x="61.66" y="363.99">+</text>
<text x="434.63" y="169.64">.</text>
<text x="71.49" y="401.88">+</text>
<text x="492.39" y="231.48">*</text>
<text x="404.78" y="243.80">+</text>
<text x="185.10" y="248.36">+</text>
<text x="18.51" y="339.31">+</text>
<text x="188.36" y="417.10">.</text>
<text x="55.75" y="139.04">+</text>
<text x="110.19" y="479.49">*</text>
<text x="269.90" y="85.47">.</text>
<text x="57.88" y="164.74">*</text>
<text x="28.64" y="101.92">+</text>
<text x="158.93" y="202.45">+</text>
<text x="166.40" y="278.15">.</text>
<text x="161.57" y="345.51">+</text>
<text x="474.20" y="432.51">+</text>

</svg>