
<svg viewBox="0 0 500 500" xmlns="http://www.w.org/2000/svg" width="100%" height="100%" style="background-color: #0a0a14; font-family: 'Courier New', Courier, monospace;">
    <style>
        text { fill: #aaa; font-size: 10px; text-anchor: middle; dominant-baseline: middle; }
    </style>
    <text x="239.45" y="54.84">+</text>
<text x="330.18" y="222.94">.</text>
<text x="438.46" y="7.38">+</text>
<text x="315.78" y="2.36">.</text>
<text x="321.26" y="93.52">*</text>
<text x="478.66" y="195.94">.</text>
<text x="493.53" y="142.95">*</text>
<text x="274.14" y="320.55">+</text>
<text x="78.43" y="373.69">.</text>
<text x="145.13" y="196.64">+</text>
<text x="275.05" y="365.93">+</text>
<text x="473.10" y="135.34">.</text>
<text x="100.37" y="181.20">+</text>
<text x="241.85" y="289.66">*</text>
<text x="446.26" y="450.00">.</text>
<text x="25.75" y="154.38">.</text>
<text x="243.00" y="376.18">+</text>
<text x="112.76" y="120.35">*</text>
<text x="258.52" y="499.19">.</text>
<text x="280.08" y="65.32">.</text>
<text x="181.72" y="28.80">+</text>
<text x="438.89" y="443.29">+</text>
<text x="417.67" y="406.12">+</text>
<text x="103.09" y="475.26">*</text>
<text x="468.60" y="356.79">*</text>
<text x="73.35" y="153.73">+</text>
<text x="145.84" y="312.92">+</text>
<text x="406.65" y="272.33">+</text>
<text x="349.90" y="376.55">*</text>
<text x="364.94" y="236.66">+</text>
<text x="196.10" y="3.45">.</text>
<text x="274.71" y="378.23">.</text>
<text x="335.72" y="468.13">*</text>
<text x="381.10" y="245.78">+</text>
<text x="468.32" y="329.59">.</text>
<text x="63.30" y="119.88">+</text>
<text x="97.06" y="302.17">+</text>
<text x="466.17" y="84.33">+</text>
<text x="235.03" y="74.34">+</text>
<text x="275.38" y="146.43">.</text>
<text x="389.23" y="410.36">.</text>
<text x="400.48" y="232.70">+</text>
<text x="134.17" y="290.03">.</text>
<text x="377.34" y="0.10">.</text>
<text x="134.67" y="324.27">.</text>
<text x="491.70" y="105.12">+</text>
<text x="68.93" y="341.89">+</text>
<text x="239.52" y="362.85">.</text>
<text x="295.69" y="272.53">.</text>
<text x="280.44" y="417.28">+</text>
<text x="154.56" y="57.54">.</text>
<text x="388.84" y="288.51">+</text>
<text x="103.71" y="156.31">+</text>
<text x="12.43" y="70.84">.</text>
<text x="469.31" y="260.93">+</text>
<text x="421.87" y="170.21">+</text>
<text x="164.73" y="360.83">+</text>
<text x="95.48" y="366.13">.</text>
<text x="227.29" y="192.60">.</text>
<text x="215.29" y="298.51">.</text>
<text x="340.29" y="374.21">+</text>
<text x="80.35" y="434.98">.</text>
<text x="356.10" y="49.44">.</text>
<text x="479.34" y="48.78">+</text>
<text x="352.74" y="425.47">.</text>
<text x="135.16" y="320.79">.</text>
<text x="27.03" y="483.00">*</text>
<text x="142.55" y="231.10">+</text>
<text x="232.82" y="199.03">+</text>
<text x="125.15" y="138.50">+</text>
<text x="351.54" y="112.53">.</text>
<text x="342.52" y="398.94">*</text>
<text x="238.15" y="196.37">*</text>
<text x="475.35" y="327.77">+</text>
<text x="393.78" y="458.83">+</text>
<text x="349.21" y="3.86">+</text>
<text x="135.79" y="33.08">.</text>
<text x="230.40" y="476.94">+</text>
<text x="405.11" y="178.47">+</text>
<text x="345.72" y="304.69">.</text>
<text x="20.37" y="117.05">.</text>
<text x="3.45" y="310.10">.</text>
<text x="199.51" y="33.25">+</text>
<text x="176.96" y="224.94">+</text>
<text x="490.88" y="48.03">.</text>
<text x="32.42" y="377.24">.</text>
<text x="187.93" y="95.87">+</text>
<text x="306.97" y="494.35">+</text>
<text x="17.94" y="320.43">+</text>
<text x="170.31" y="32.03">+</text>
<text x="350.71" y="243.22">+</text>
<text x="131.07" y="280.14">*</text>
<text x="366.45" y="108.02">+</text>
<text x="10.87" y="435.48">+</text>
<text x="397.83" y="183.97">+</text>
<text x="405.96" y="47.11">*</text>
<text x="414.95" y="142.21">.</text>
<text x="150.72" y="497.39">.</text>
<text x="21.14" y="205.01">.</text>
<text x="213.60" y="366.98">+</text>
<text x="204.38" y="489.93">.</text>
<text x="379.93" y="217.38">+</text>
<text x="192.86" y="430.91">*</text>
<text x="357.07" y="401.14">+</text>
<text x="485.13" y="118.57">.</text>
<text x="354.98" y="234.77">*</text>
<text x="411.26" y="74.02">.</text>
<text x="300.44" y="367.90">.</text>
<text x="133.85" y="494.15">*</text>
<text x="130.69" y="100.71">+</text>
<text x="444.18" y="233.70">*</text>
<text x="23.64" y="431.65">.</text>
<text x="5.30" y="375.46">+</text>
<text x="229.30" y="90.80">+</text>
<text x="499.42" y="372.36">+</text>
<text x="321.15" y="236.39">+</text>
<text x="405.07" y="238.18">.</text>
<text x="245.04" y="323.12">.</text>
<text x="389.62" y="159.69">+</text>
<text x="20.20" y="418.32">+</text>
<text x="230.55" y="487.89">+</text>
<text x="484.98" y="11.96">.</text>
<text x="306.31" y="479.07">.</text>
<text x="322.14" y="449.08">.</text>
<text x="247.63" y="455.75">.</text>
<text x="78.45" y="278.70">+</text>
<text x="122.35" y="491.82">*</text>
<text x="218.49" y="61.16">.</text>
<text x="346.71" y="404.18">+</text>
<text x="233.73" y="436.70">+</text>
<text x="342.91" y="407.55">*</text>
<text x="429.74" y="462.62">.</text>
<text x="148.53" y="338.58">+</text>
<text x="89.21" y="313.07">+</text>
<text x="98.22" y="6.46">+</text>
<text x="394.40" y="328.58">+</text>
<text x="19.76" y="246.04">+</text>
<text x="190.84" y="127.45">+</text>
<text x="385.41" y="484.94">.</text>
<text x="249.88" y="144.30">*</text>
<text x="112.07" y="168.92">.</text>
<text x="45.34" y="353.89">.</text>
<text x="437.68" y="168.25">+</text>
<text x="26.31" y="128.80">+</text>
<text x="156.90" y="139.21">*</text>
<text x="470.36" y="394.19">.</text>
<text x="119.87" y="34.00">+</text>
<text x="144.38" y="304.55">+</text>
<text x="328.10" y="405.93">.</text>
<text x="18.99" y="228.97">.</text>
<text x="80.66" y="266.73">+</text>
<text x="173.73" y="179.55">*</text>
<text x="373.51" y="155.99">+</text>
<text x="333.87" y="369.33">.</text>
<text x="192.29" y="377.69">.</text>
<text x="177.85" y="119.74">+</text>
<text x="285.72" y="462.93">.</text>
<text x="397.70" y="493.89">*</text>
<text x="144.19" y="427.53">.</text>
<text x="443.17" y="190.38">.</text>
<text x="272.74" y="130.47">.</text>
<text x="5.89" y="389.54">.</text>
<text x="226.95" y="170.15">.</text>
<text x="215.60" y="35.99">+</text>
<text x="21.26" y="423.26">+</text>
<text x="398.51" y="88.61">+</text>
<text x="346.20" y="139.03">.</text>
<text x="138.18" y="189.95">*</text>
<text x="499.99" y="447.68">+</text>
<text x="210.76" y="127.87">.</text>
<text x="231.13" y="128.20">.</text>
<text x="120.20" y="271.87">+</text>
<text x="267.15" y="483.57">.</text>
<text x="204.79" y="482.26">*</text>
<text x="350.31" y="421.68">.</text>
<text x="477.61" y="445.30">.</text>
<text x="52.40" y="461.89">.</text>
<text x="328.91" y="94.73">*</text>
<text x="158.36" y="13.76">+</text>
<text x="114.09" y="348.44">*</text>
<text x="303.64" y="369.12">+</text>
<text x="231.08" y="449.73">.</text>
<text x="313.93" y="144.77">+</text>
<text x="475.28" y="384.23">+</text>
<text x="419.42" y="87.63">.</text>
<text x="402.57" y="117.30">+</text>
<text x="222.68" y="428.83">.</text>
<text x="82.86" y="409.17">.</text>
<text x="215.21" y="336.09">.</text>
<text x="258.56" y="490.81">+</text>
<text x="320.52" y="226.14">+</text>
<text x="42.46" y="106.03">+</text>
<text x="382.29" y="362.84">+</text>
<text x="202.25" y="446.65">+</text>
<text x="219.02" y="33.00">.</text>
<text x="441.74" y="310.13">+</text>
<text x="376.95" y="208.93">+</text>
<text x="110.33" y="285.97">+</text>
<text x="456.55" y="376.40">+</text>
<text x="250.56" y="322.19">.</text>
<text x="276.47" y="400.31">*</text>
<text x="224.31" y="419.85">+</text>
<text x="390.33" y="459.34">+</text>
<text x="3.79" y="312.33">.</text>

</svg>