
<svg viewBox="0 0 500 500" xmlns="http://www.w.org/2000/svg" width="100%" height="100%" style="background-color: #0a0a14; font-family: 'Courier New', Courier, monospace;">
    <style>
        text { fill: #aaa; font-size: 10px; text-anchor: middle; dominant-baseline: middle; }
    </style>
    <text x="257.92" y="103.23">.</text>
<text x="325.99" y="499.93">.</text>
<text x="497.97" y="89.75">+</text>
<text x="140.03" y="265.28">+</text>
<text x="246.41" y="343.13">.</text>
<text x="377.67" y="104.25">+</text>
<text x="136.52" y="480.23">+</text>
<text x="161.68" y="264.90">.</text>
<text x="332.95" y="444.15">+</text>
<text x="112.36" y="64.35">.</text>
<text x="313.45" y="192.07">*</text>
<text x="453.18" y="254.65">+</text>
<text x="493.70" y="437.65">+</text>
<text x="110.38" y="320.19">.</text>
<text x="229.68" y="162.94">+</text>
<text x="446.01" y="419.74">*</text>
<text x="213.11" y="147.60">.</text>
<text x="241.07" y="240.26">.</text>
<text x="237.59" y="167.92">.</text>
<text x="426.37" y="470.74">+</text>
<text x="95.60" y="278.52">.</text>
<text x="154.11" y="275.38">.</text>
<text x="263.27" y="11.15">+</text>
<text x="489.49" y="202.28">+</text>
<text x="343.15" y="438.98">.</text>
<text x="443.93" y="78.47">.</text>
<text x="121.58" y="73.95">.</text>
<text x="4.70" y="389.40">+</text>
<text x="41.86" y="310.08">.</text>
<text x="368.66" y="185.01">+</text>
<text x="315.05" y="134.67">+</text>
<text x="475.49" y="17.66">*</text>
<text x="209.66" y="23.65">.</text>
<text x="17.44" y="150.09">.</text>
<text x="370.54" y="381.66">.</text>
<text x="72.17" y="295.09">+</text>
<text x="201.81" y="460.14">.</text>
<text x="134.62" y="440.51">+</text>
<text x="296.48" y="438.33">+</text>
<text x="177.64" y="57.51">.</text>
<text x="134.32" y="407.63">*</text>
<text x="128.92" y="296.15">.</text>
<text x="88.29" y="164.98">+</text>
<text x="135.95" y="324.04">.</text>
<text x="397.82" y="456.40">.</text>
<text x="308.93" y="140.28">+</text>
<text x="446.44" y="34.01">+</text>
<text x="356.89" y="240.04">*</text>
<text x="206.37" y="224.38">+</text>
<text x="88.03" y="69.80">+</text>
<text x="274.84" y="215.71">.</text>
<text x="310.58" y="282.91">+</text>
<text x="100.18" y="487.66">+</text>
<text x="485.79" y="496.72">.</text>
<text x="279.55" y="237.90">+</text>
<text x="393.64" y="491.36">.</text>
<text x="492.94" y="490.59">+</text>
<text x="145.59" y="145.45">+</text>
<text x="73.00" y="36.38">+</text>
<text x="312.90" y="473.38">*</text>
<text x="306.13" y="459.21">.</text>
<text x="17.12" y="194.79">+</text>
<text x="459.28" y="454.58">+</text>
<text x="281.30" y="132.35">+</text>
<text x="365.59" y="301.90">+</text>
<text x="396.47" y="26.07">*</text>
<text x="325.54" y="264.42">.</text>
<text x="357.57" y="39.93">.</text>
<text x="225.59" y="328.67">.</text>
<text x="367.81" y="174.32">+</text>
<text x="296.75" y="35.04">+</text>
<text x="215.62" y="486.93">*</text>
<text x="254.94" y="342.39">.</text>
<text x="28.10" y="299.71">+</text>
<text x="136.17" y="400.30">.</text>
<text x="258.67" y="221.38">+</text>
<text x="52.78" y="84.99">+</text>
<text x="491.67" y="63.18">+</text>
<text x="333.08" y="230.41">+</text>
<text x="125.59" y="42.92">*</text>
<text x="217.32" y="256.86">+</text>
<text x="308.09" y="285.72">.</text>
<text x="487.98" y="288.65">*</text>
<text x="48.27" y="86.92">+</text>
<text x="122.97" y="50.12">+</text>
<text x="478.26" y="337.37">+</text>
<text x="386.46" y="185.86">+</text>
<text x="121.30" y="148.59">.</text>
<text x="416.66" y="85.76">.</text>
<text x="103.45" y="405.81">.</text>
<text x="60.30" y="30.20">+</text>
<text x="24.86" y="175.28">+</text>
<text x="60.93" y="102.34">+</text>
<text x="355.17" y="350.36">.</text>
<text x="280.41" y="440.01">.</text>
<text x="246.88" y="348.80">+</text>
<text x="206.08" y="286.54">.</text>
<text x="344.97" y="238.19">+</text>
<text x="154.85" y="255.19">+</text>
<text x="226.13" y="24.25">+</text>
<text x="474.34" y="439.56">+</text>
<text x="410.63" y="23.22">.</text>
<text x="491.38" y="217.24">.</text>
<text x="391.33" y="408.58">+</text>
<text x="396.99" y="372.74">+</text>
<text x="83.69" y="143.90">+</text>
<text x="292.36" y="460.12">+</text>
<text x="342.25" y="134.49">.</text>
<text x="87.82" y="3.01">.</text>
<text x="251.84" y="368.77">+</text>
<text x="346.98" y="220.34">.</text>
<text x="367.08" y="160.59">.</text>
<text x="315.56" y="277.10">.</text>
<text x="373.87" y="180.36">*</text>
<text x="296.94" y="210.67">+</text>
<text x="156.11" y="159.62">+</text>
<text x="36.09" y="292.08">+</text>
<text x="472.35" y="145.05">+</text>
<text x="211.05" y="116.28">.</text>
<text x="232.53" y="447.84">.</text>
<text x="9.04" y="238.34">+</text>
<text x="205.63" y="302.60">.</text>
<text x="216.93" y="82.09">.</text>
<text x="25.59" y="131.52">+</text>
<text x="69.58" y="315.54">+</text>
<text x="474.05" y="453.99">.</text>
<text x="138.77" y="29.55">.</text>
<text x="92.99" y="379.11">.</text>
<text x="434.37" y="301.64">.</text>
<text x="483.67" y="205.66">*</text>
<text x="479.00" y="375.45">+</text>
<text x="176.40" y="251.09">.</text>
<text x="277.93" y="139.89">+</text>
<text x="9.77" y="91.50">+</text>
<text x="326.22" y="87.57">+</text>
<text x="327.54" y="310.55">+</text>
<text x="311.39" y="312.79">+</text>
<text x="159.82" y="112.40">+</text>
<text x="12.09" y="60.22">+</text>
<text x="162.38" y="8.37">.</text>
<text x="259.66" y="458.55">+</text>
<text x="249.81" y="296.01">+</text>
<text x="405.19" y="490.27">.</text>
<text x="329.50" y="461.90">.</text>
<text x="407.02" y="294.29">.</text>
<text x="347.15" y="205.74">+</text>
<text x="21.39" y="174.68">.</text>
<text x="217.18" y="179.82">.</text>
<text x="377.68" y="27.85">+</text>
<text x="498.87" y="431.37">.</text>
<text x="329.98" y="474.66">.</text>
<text x="130.03" y="436.62">*</text>
<text x="329.14" y="349.53">+</text>
<text x="455.04" y="286.58">.</text>
<text x="243.90" y="236.89">*</text>
<text x="347.76" y="242.06">*</text>
<text x="113.99" y="492.20">+</text>
<text x="416.07" y="186.36">+</text>
<text x="168.34" y="34.77">.</text>
<text x="24.11" y="91.28">.</text>
<text x="171.50" y="77.32">+</text>
<text x="82.20" y="404.64">*</text>
<text x="499.34" y="348.97">+</text>
<text x="178.32" y="392.92">+</text>
<text x="310.34" y="382.93">.</text>
<text x="201.11" y="211.94">+</text>
<text x="147.18" y="440.90">.</text>
<text x="153.93" y="319.16">+</text>
<text x="224.65" y="122.04">+</text>
<text x="254.36" y="210.70">.</text>
<text x="401.04" y="107.49">*</text>
<text x="406.95" y="5.74">.</text>
<text x="114.11" y="362.47">.</text>
<text x="486.36" y="473.02">+</text>
<text x="477.19" y="466.04">.</text>
<text x="168.97" y="69.71">+</text>
<text x="275.46" y="32.27">.</text>
<text x="235.01" y="68.50">+</text>
<text x="196.87" y="338.74">.</text>
<text x="461.68" y="250.38">*</text>
<text x="452.10" y="371.96">*</text>
<text x="271.72" y="197.49">.</text>
<text x="353.93" y="420.69">+</text>
<text x="43.17" y="471.80">+</text>
<text x="205.89" y="21.16">.</text>
<text x="169.84" y="466.83">.</text>
<text x="12.78" y="327.82">.</text>
<text x="475.54" y="404.76">+</text>
<text x="484.27" y="120.54">.</text>
<text x="163.18" y="276.78">.</text>
<text x="372.59" y="17.63">+</text>
<text x="195.66" y="149.87">+</text>
<text x="312.80" y="390.73">+</text>
<text x="374.73" y="90.51">*</text>
<text x="40.85" y="149.67">.</text>
<text x="207.03" y="369.10">+</text>
<text x="14.22" y="297.21">+</text>
<text x="256.47" y="139.19">+</text>
<text x="350.18" y="293.46">+</text>
<text x="340.62" y="81.99">*</text>
<text x="366.68" y="162.25">*</text>
<text x="301.10" y="169.58">.</text>
<text x="408.57" y="138.57">+</text>
<text x="347.33" y="33.50">+</text>
<text x="239.78" y="358.98">+</text>
<text x="296.49" y="144.48">+</text>
<text x="78.75" y="319.44">+</text>
<text x="322.55" y="293.31">.</text>
<text x="478.39" y="112.42">.</text>
<text x="27.83" y="413.93">+</text>
<text x="368.23" y="69.11">.</text>
<text x="10.89" y="19.92">+</text>
<text x="273.62" y="162.55">.</text>
<text x="131.94" y="273.95">*</text>
<text x="210.09" y="139.64">.</text>
<text x="286.60" y="206.75">+</text>
<text x="319.32" y="188.77">.</text>

</svg>