
<svg viewBox="0 0 500 500" xmlns="http://www.w.org/2000/svg" width="100%" height="100%" style="background-color: #0a0a14; font-family: 'Courier New', Courier, monospace;">
    <style>
        text { fill: #aaa; font-size: 10px; text-anchor: middle; dominant-baseline: middle; }
    </style>
    <text x="481.27" y="300.76">.</text>
<text x="192.40" y="6.35">+</text>
<text x="93.15" y="145.20">+</text>
<text x="408.65" y="342.89">.</text>
<text x="215.62" y="474.48">.</text>
<text x="330.49" y="237.54">+</text>
<text x="39.41" y="309.59">.</text>
<text x="108.69" y="254.61">+</text>
<text x="28.59" y="401.48">.</text>
<text x="489.16" y="31.61">+</text>
<text x="10.86" y="375.69">.</text>
<text x="478.54" y="61.21">.</text>
<text x="285.02" y="75.57">.</text>
<text x="417.10" y="173.97">+</text>
<text x="430.42" y="442.61">+</text>
<text x="169.86" y="498.01">+</text>
<text x="280.55" y="345.11">.</text>
<text x="313.45" y="107.06">.</text>
<text x="117.61" y="140.30">+</text>
<text x="45.52" y="86.82">*</text>
<text x="208.11" y="316.39">+</text>
<text x="400.29" y="472.58">+</text>
<text x="118.81" y="480.68">.</text>
<text x="8.30" y="315.89">+</text>
<text x="65.21" y="419.46">+</text>
<text x="450.82" y="483.85">.</text>
<text x="1.86" y="311.81">.</text>
<text x="115.22" y="243.45">.</text>
<text x="468.38" y="369.36">.</text>
<text x="222.58" y="105.69">+</text>
<text x="399.81" y="392.60">.</text>
<text x="224.88" y="294.11">+</text>
<text x="215.35" y="243.13">.</text>
<text x="420.78" y="237.16">.</text>
<text x="437.73" y="376.81">+</text>
<text x="162.15" y="282.51">.</text>
<text x="317.45" y="225.45">+</text>
<text x="179.11" y="30.13">+</text>
<text x="203.38" y="10.55">+</text>
<text x="2.18" y="29.66">+</text>
<text x="239.81" y="149.31">*</text>
<text x="229.03" y="398.87">.</text>
<text x="307.54" y="444.48">*</text>
<text x="42.03" y="179.94">+</text>
<text x="347.73" y="127.10">+</text>
<text x="460.14" y="248.85">*</text>
<text x="480.24" y="357.55">+</text>
<text x="221.47" y="159.11">+</text>
<text x="279.82" y="225.32">.</text>
<text x="491.01" y="63.89">.</text>
<text x="162.13" y="91.28">*</text>
<text x="416.06" y="47.02">*</text>
<text x="256.94" y="219.63">+</text>
<text x="437.46" y="330.36">.</text>
<text x="359.24" y="262.49">.</text>
<text x="416.50" y="184.08">.</text>
<text x="197.57" y="72.83">.</text>
<text x="404.36" y="337.67">+</text>
<text x="85.12" y="290.49">.</text>
<text x="196.68" y="350.35">.</text>
<text x="281.50" y="147.60">+</text>
<text x="310.06" y="54.06">*</text>
<text x="307.30" y="297.17">.</text>
<text x="7.87" y="467.51">+</text>
<text x="7.22" y="224.10">.</text>
<text x="158.36" y="474.88">+</text>
<text x="247.33" y="448.64">.</text>
<text x="204.92" y="6.44">.</text>
<text x="232.16" y="450.88">*</text>
<text x="432.89" y="126.21">.</text>
<text x="216.02" y="393.80">.</text>
<text x="194.60" y="389.62">.</text>
<text x="299.83" y="93.52">+</text>
<text x="130.27" y="459.25">.</text>
<text x="84.92" y="498.12">.</text>
<text x="257.77" y="275.98">.</text>
<text x="368.46" y="474.28">+</text>
<text x="325.67" y="494.69">*</text>
<text x="454.20" y="183.88">+</text>
<text x="431.63" y="186.31">.</text>
<text x="131.27" y="127.58">.</text>
<text x="159.74" y="148.53">*</text>
<text x="315.98" y="211.78">+</text>
<text x="97.78" y="3.01">+</text>
<text x="1.40" y="80.31">+</text>
<text x="125.56" y="32.11">+</text>
<text x="237.70" y="86.39">+</text>
<text x="63.15" y="429.67">.</text>
<text x="472.16" y="160.25">.</text>
<text x="302.89" y="390.62">+</text>
<text x="8.86" y="180.10">.</text>
<text x="265.00" y="257.76">.</text>
<text x="356.58" y="84.52">.</text>
<text x="195.26" y="480.26">.</text>
<text x="497.15" y="333.77">*</text>
<text x="243.93" y="209.52">+</text>
<text x="448.09" y="417.10">*</text>
<text x="87.91" y="430.64">.</text>
<text x="328.65" y="375.81">+</text>
<text x="172.88" y="418.85">+</text>
<text x="245.21" y="153.36">+</text>
<text x="446.33" y="87.36">.</text>
<text x="493.07" y="428.20">+</text>
<text x="332.83" y="80.29">+</text>
<text x="110.37" y="153.25">+</text>
<text x="246.00" y="386.47">*</text>
<text x="279.91" y="177.89">+</text>
<text x="12.34" y="166.22">*</text>
<text x="132.40" y="298.48">+</text>
<text x="334.52" y="447.78">+</text>
<text x="336.78" y="86.47">+</text>
<text x="420.72" y="346.34">*</text>
<text x="348.69" y="279.28">.</text>
<text x="438.90" y="421.88">+</text>
<text x="86.95" y="68.51">+</text>
<text x="164.47" y="66.94">*</text>
<text x="343.77" y="153.02">.</text>
<text x="90.47" y="290.79">.</text>
<text x="438.12" y="417.59">*</text>
<text x="14.82" y="457.42">+</text>
<text x="288.20" y="110.91">.</text>
<text x="70.08" y="210.64">+</text>
<text x="417.81" y="12.87">.</text>
<text x="124.09" y="217.16">.</text>
<text x="319.60" y="224.10">.</text>
<text x="224.96" y="163.07">.</text>
<text x="288.20" y="298.09">+</text>
<text x="474.19" y="133.51">.</text>
<text x="343.90" y="117.47">.</text>
<text x="113.52" y="88.38">.</text>
<text x="35.17" y="341.26">.</text>
<text x="480.46" y="109.49">*</text>
<text x="69.91" y="284.93">.</text>
<text x="158.53" y="289.06">+</text>
<text x="91.62" y="394.40">+</text>
<text x="152.71" y="413.87">.</text>
<text x="408.66" y="73.81">+</text>
<text x="95.37" y="325.89">.</text>
<text x="60.68" y="38.96">.</text>
<text x="470.95" y="8.73">+</text>
<text x="233.79" y="66.30">*</text>
<text x="73.32" y="132.53">+</text>
<text x="184.94" y="42.62">+</text>
<text x="427.07" y="213.75">+</text>
<text x="394.79" y="470.82">.</text>
<text x="373.12" y="151.42">.</text>
<text x="154.32" y="27.00">*</text>
<text x="29.90" y="376.78">+</text>
<text x="166.56" y="265.85">+</text>
<text x="172.88" y="323.76">+</text>
<text x="136.52" y="253.72">.</text>
<text x="248.92" y="289.20">*</text>
<text x="292.95" y="413.25">+</text>
<text x="284.90" y="162.74">.</text>
<text x="73.67" y="338.44">+</text>
<text x="378.61" y="133.32">*</text>
<text x="271.03" y="426.08">+</text>
<text x="124.69" y="2.62">.</text>
<text x="8.32" y="165.79">*</text>
<text x="286.95" y="180.52">+</text>
<text x="290.17" y="148.73">.</text>
<text x="475.85" y="197.46">+</text>
<text x="462.45" y="127.59">*</text>
<text x="302.15" y="185.06">*</text>
<text x="169.99" y="409.71">+</text>
<text x="81.01" y="443.34">.</text>
<text x="174.26" y="485.46">*</text>
<text x="119.70" y="283.90">+</text>
<text x="68.46" y="332.24">+</text>
<text x="438.00" y="143.66">+</text>
<text x="226.26" y="352.68">.</text>
<text x="45.41" y="121.15">+</text>
<text x="413.16" y="149.66">+</text>
<text x="142.24" y="95.79">.</text>
<text x="219.53" y="111.95">*</text>
<text x="245.24" y="235.02">.</text>
<text x="365.67" y="495.79">.</text>
<text x="132.33" y="97.80">+</text>
<text x="412.87" y="357.49">+</text>
<text x="206.01" y="280.55">+</text>
<text x="152.84" y="15.52">.</text>
<text x="37.49" y="334.31">+</text>
<text x="108.20" y="197.14">+</text>
<text x="461.23" y="202.63">.</text>
<text x="337.93" y="49.93">.</text>
<text x="310.98" y="62.26">.</text>
<text x="292.15" y="140.82">.</text>
<text x="121.35" y="204.35">.</text>
<text x="104.37" y="345.78">+</text>
<text x="246.63" y="40.12">.</text>
<text x="410.20" y="242.84">*</text>
<text x="131.29" y="341.87">+</text>
<text x="496.68" y="43.38">*</text>
<text x="289.79" y="250.37">.</text>
<text x="368.84" y="313.02">.</text>
<text x="221.09" y="181.33">+</text>
<text x="485.27" y="69.02">.</text>
<text x="116.27" y="255.11">*</text>
<text x="248.59" y="300.93">.</text>
<text x="89.58" y="465.70">.</text>
<text x="13.27" y="444.70">.</text>
<text x="176.12" y="378.90">+</text>
<text x="330.08" y="292.90">.</text>
<text x="0.62" y="479.58">*</text>
<text x="339.15" y="324.09">+</text>
<text x="189.36" y="296.76">.</text>
<text x="203.49" y="457.25">+</text>

</svg>