
<svg viewBox="0 0 500 500" xmlns="http://www.w.org/2000/svg" width="100%" height="100%" style="background-color: #0a0a14; font-family: 'Courier New', Courier, monospace;">
    <style>
        text { fill: #aaa; font-size: 10px; text-anchor: middle; dominant-baseline: middle; }
    </style>
    <text x="398.51" y="15.85">+</text>
<text x="156.15" y="257.24">.</text>
<text x="291.70" y="303.86">+</text>
<text x="116.62" y="182.86">.</text>
<text x="424.92" y="300.30">+</text>
<text x="138.79" y="263.56">+</text>
<text x="466.97" y="197.90">.</text>
<text x="435.36" y="451.55">.</text>
<text x="149.78" y="113.63">.</text>
<text x="34.21" y="237.36">*</text>
<text x="239.04" y="7.39">*</text>
<text x="452.76" y="496.77">+</text>
<text x="128.59" y="36.41">+</text>
<text x="292.23" y="275.09">.</text>
<text x="99.45" y="23.09">+</text>
<text x="169.43" y="11.00">+</text>
<text x="45.13" y="162.10">.</text>
<text x="189.79" y="61.58">+</text>
<text x="114.52" y="109.83">.</text>
<text x="486.98" y="194.77">+</text>
<text x="430.66" y="77.50">.</text>
<text x="3.72" y="33.36">.</text>
<text x="25.23" y="287.51">+</text>
<text x="308.23" y="59.31">+</text>
<text x="359.29" y="264.65">+</text>
<text x="428.34" y="205.56">*</text>
<text x="183.28" y="188.40">.</text>
<text x="409.63" y="470.32">+</text>
<text x="172.03" y="9.82">*</text>
<text x="36.64" y="57.55">+</text>
<text x="136.30" y="470.35">.</text>
<text x="303.86" y="106.97">+</text>
<text x="215.97" y="383.63">+</text>
<text x="438.94" y="108.15">*</text>
<text x="79.12" y="483.90">+</text>
<text x="175.35" y="68.44">.</text>
<text x="372.20" y="299.46">.</text>
<text x="230.93" y="94.97">.</text>
<text x="249.28" y="430.60">+</text>
<text x="208.08" y="302.71">.</text>
<text x="372.13" y="425.30">.</text>
<text x="465.83" y="170.93">.</text>
<text x="153.05" y="308.46">.</text>
<text x="144.33" y="390.78">*</text>
<text x="371.20" y="80.83">*</text>
<text x="356.14" y="114.58">.</text>
<text x="291.95" y="372.37">.</text>
<text x="242.75" y="231.72">+</text>
<text x="401.08" y="8.86">.</text>
<text x="46.75" y="83.78">+</text>
<text x="186.63" y="154.33">+</text>
<text x="217.99" y="137.70">+</text>
<text x="14.03" y="279.12">.</text>
<text x="101.96" y="270.36">*</text>
<text x="26.07" y="310.88">+</text>
<text x="222.24" y="117.10">.</text>
<text x="155.68" y="317.27">+</text>
<text x="310.17" y="51.55">+</text>
<text x="320.98" y="341.18">*</text>
<text x="166.90" y="434.72">+</text>
<text x="374.83" y="476.08">+</text>
<text x="200.26" y="330.97">.</text>
<text x="141.76" y="396.30">.</text>
<text x="155.90" y="7.92">.</text>
<text x="339.77" y="83.15">.</text>
<text x="404.21" y="46.14">.</text>
<text x="411.28" y="229.53">.</text>
<text x="47.73" y="166.30">.</text>
<text x="282.37" y="377.95">.</text>
<text x="388.48" y="337.82">*</text>
<text x="488.57" y="216.45">+</text>
<text x="186.04" y="267.48">.</text>
<text x="35.12" y="316.73">+</text>
<text x="478.65" y="228.22">.</text>
<text x="228.45" y="192.20">*</text>
<text x="476.81" y="190.78">+</text>
<text x="50.61" y="241.12">.</text>
<text x="319.77" y="55.99">.</text>
<text x="21.50" y="347.41">.</text>
<text x="85.31" y="438.49">.</text>
<text x="312.02" y="487.57">+</text>
<text x="284.32" y="143.78">.</text>
<text x="246.59" y="304.14">+</text>
<text x="400.27" y="64.72">+</text>
<text x="166.95" y="38.47">.</text>
<text x="371.43" y="67.52">+</text>
<text x="445.59" y="1.69">*</text>
<text x="218.01" y="187.00">.</text>
<text x="369.95" y="242.59">*</text>
<text x="364.69" y="124.97">.</text>
<text x="144.56" y="231.96">*</text>
<text x="498.13" y="469.00">.</text>
<text x="169.59" y="272.65">+</text>
<text x="136.14" y="278.17">+</text>
<text x="252.87" y="182.30">.</text>
<text x="342.38" y="78.89">+</text>
<text x="496.49" y="485.07">+</text>
<text x="145.99" y="259.63">+</text>
<text x="16.25" y="273.67">.</text>
<text x="100.78" y="477.32">+</text>
<text x="423.98" y="130.82">.</text>
<text x="30.56" y="391.02">+</text>
<text x="354.18" y="192.70">+</text>
<text x="384.93" y="360.43">+</text>
<text x="480.82" y="421.92">*</text>
<text x="464.98" y="442.92">.</text>
<text x="126.52" y="368.23">+</text>
<text x="321.35" y="429.76">+</text>
<text x="422.66" y="171.03">.</text>
<text x="409.86" y="268.35">+</text>
<text x="290.02" y="304.00">.</text>
<text x="481.59" y="424.20">+</text>
<text x="147.92" y="363.60">.</text>
<text x="415.22" y="411.59">.</text>
<text x="71.08" y="35.96">*</text>
<text x="2.21" y="320.80">+</text>
<text x="466.47" y="462.14">+</text>
<text x="446.96" y="142.07">.</text>
<text x="331.86" y="327.81">.</text>
<text x="113.50" y="77.88">+</text>
<text x="202.18" y="189.68">+</text>
<text x="222.86" y="0.16">+</text>
<text x="365.39" y="498.51">*</text>
<text x="291.66" y="244.56">+</text>
<text x="301.06" y="116.10">.</text>
<text x="255.05" y="212.36">+</text>
<text x="63.74" y="232.85">+</text>
<text x="457.03" y="69.83">+</text>
<text x="321.22" y="120.03">+</text>
<text x="249.83" y="321.72">+</text>
<text x="374.30" y="48.77">+</text>
<text x="368.59" y="80.25">+</text>
<text x="499.58" y="445.72">+</text>
<text x="181.83" y="113.36">.</text>
<text x="21.30" y="242.43">.</text>
<text x="4.24" y="187.04">.</text>
<text x="342.28" y="261.89">+</text>
<text x="483.35" y="242.81">+</text>
<text x="458.99" y="265.54">+</text>
<text x="192.37" y="458.17">*</text>
<text x="98.13" y="454.24">.</text>
<text x="298.62" y="445.14">.</text>
<text x="496.72" y="474.42">+</text>
<text x="457.93" y="151.00">+</text>
<text x="175.03" y="479.61">.</text>
<text x="402.65" y="230.76">+</text>
<text x="425.77" y="107.52">.</text>
<text x="317.12" y="55.88">.</text>
<text x="367.45" y="239.12">+</text>
<text x="145.13" y="380.94">.</text>
<text x="136.74" y="403.89">*</text>
<text x="233.31" y="257.49">+</text>
<text x="305.78" y="251.10">+</text>
<text x="457.16" y="297.28">+</text>
<text x="63.62" y="132.41">.</text>
<text x="344.88" y="92.84">.</text>
<text x="284.49" y="375.77">+</text>
<text x="357.06" y="434.02">+</text>
<text x="254.22" y="280.01">+</text>
<text x="321.42" y="465.58">*</text>
<text x="8.91" y="122.46">*</text>
<text x="316.50" y="132.58">*</text>
<text x="332.94" y="40.46">.</text>
<text x="85.94" y="46.49">*</text>
<text x="412.91" y="296.51">.</text>
<text x="423.18" y="463.61">.</text>
<text x="172.05" y="428.23">.</text>
<text x="347.65" y="247.76">.</text>
<text x="256.78" y="234.95">*</text>
<text x="373.09" y="425.62">.</text>
<text x="233.88" y="277.76">+</text>
<text x="389.00" y="413.87">+</text>
<text x="490.00" y="445.47">.</text>
<text x="176.18" y="368.80">.</text>
<text x="15.58" y="243.69">+</text>
<text x="136.59" y="40.53">+</text>
<text x="446.92" y="444.89">+</text>
<text x="93.12" y="103.69">+</text>
<text x="216.33" y="309.86">+</text>
<text x="481.98" y="121.05">+</text>
<text x="127.22" y="237.70">+</text>
<text x="31.29" y="401.58">*</text>
<text x="483.63" y="136.11">.</text>
<text x="382.55" y="58.91">+</text>
<text x="204.90" y="402.99">*</text>
<text x="20.34" y="279.72">*</text>
<text x="36.15" y="125.88">.</text>
<text x="304.90" y="206.80">*</text>
<text x="193.58" y="275.22">.</text>
<text x="146.99" y="452.55">*</text>
<text x="156.57" y="373.92">.</text>
<text x="57.32" y="343.93">+</text>
<text x="285.89" y="339.95">+</text>
<text x="389.96" y="221.28">.</text>
<text x="491.34" y="113.36">*</text>
<text x="218.75" y="432.72">+</text>
<text x="452.30" y="320.91">.</text>
<text x="243.27" y="238.13">*</text>
<text x="256.65" y="319.47">.</text>
<text x="213.96" y="19.71">+</text>
<text x="368.68" y="24.38">+</text>
<text x="72.46" y="126.56">*</text>
<text x="457.21" y="235.85">.</text>
<text x="9.28" y="465.10">+</text>
<text x="65.63" y="218.68">.</text>
<text x="23.09" y="48.93">.</text>
<text x="69.07" y="276.37">.</text>
<text x="292.49" y="169.18">.</text>
<text x="137.94" y="283.00">.</text>
<text x="259.35" y="205.81">+</text>
<text x="68.90" y="239.45">+</text>
<text x="386.04" y="462.69">+</text>
<text x="108.28" y="9.18">+</text>
<text x="468.14" y="492.20">+</text>
<text x="403.78" y="173.10">.</text>
<text x="280.59" y="202.21">.</text>
<text x="273.33" y="449.53">+</text>
<text x="328.54" y="391.86">+</text>
<text x="205.75" y="183.87">+</text>
<text x="177.09" y="66.37">+</text>
<text x="65.15" y="187.43">+</text>
<text x="393.69" y="132.68">.</text>

</svg>