
<svg viewBox="0 0 500 500" xmlns="http://www.w.org/2000/svg" width="100%" height="100%" style="background-color: #0a0a14; font-family: 'Courier New', Courier, monospace;">
    <style>
        text { fill: #aaa; font-size: 10px; text-anchor: middle; dominant-baseline: middle; }
    </style>
    <text x="70.37" y="454.48">.</text>
<text x="456.66" y="43.95">*</text>
<text x="31.79" y="262.40">*</text>
<text x="406.32" y="323.27">+</text>
<text x="465.33" y="306.29">.</text>
<text x="216.44" y="440.58">+</text>
<text x="444.82" y="362.45">+</text>
<text x="92.53" y="37.35">*</text>
<text x="431.88" y="159.46">+</text>
<text x="191.17" y="0.97">*</text>
<text x="149.14" y="408.98">+</text>
<text x="495.02" y="415.74">.</text>
<text x="399.79" y="156.26">+</text>
<text x="91.32" y="253.73">+</text>
<text x="333.96" y="318.52">+</text>
<text x="298.06" y="285.39">+</text>
<text x="414.51" y="254.30">.</text>
<text x="345.04" y="84.79">.</text>
<text x="44.13" y="254.63">.</text>
<text x="10.94" y="170.04">*</text>
<text x="172.83" y="355.82">.</text>
<text x="211.54" y="376.38">*</text>
<text x="180.72" y="369.44">*</text>
<text x="424.02" y="78.50">*</text>
<text x="35.78" y="123.82">+</text>
<text x="487.94" y="53.28">+</text>
<text x="460.83" y="62.51">+</text>
<text x="427.68" y="176.96">.</text>
<text x="133.22" y="499.84">.</text>
<text x="358.70" y="267.24">+</text>
<text x="167.15" y="399.39">+</text>
<text x="37.59" y="64.46">+</text>
<text x="336.37" y="56.96">.</text>
<text x="320.29" y="265.27">.</text>
<text x="396.22" y="108.09">+</text>
<text x="129.54" y="442.36">+</text>
<text x="335.10" y="478.12">+</text>
<text x="494.47" y="367.34">.</text>
<text x="333.25" y="1.18">+</text>
<text x="368.86" y="202.92">.</text>
<text x="52.56" y="91.06">+</text>
<text x="165.73" y="397.26">.</text>
<text x="311.38" y="412.02">.</text>
<text x="394.85" y="390.85">.</text>
<text x="388.69" y="291.79">.</text>
<text x="400.30" y="64.95">+</text>
<text x="115.95" y="170.17">.</text>
<text x="339.73" y="55.12">.</text>
<text x="391.43" y="20.43">+</text>
<text x="33.82" y="120.58">.</text>
<text x="1.85" y="489.27">.</text>
<text x="154.97" y="406.47">+</text>
<text x="384.80" y="36.69">+</text>
<text x="257.20" y="255.79">.</text>
<text x="494.68" y="3.21">+</text>
<text x="377.78" y="149.97">*</text>
<text x="488.02" y="265.02">+</text>
<text x="202.53" y="45.64">.</text>
<text x="118.78" y="170.08">.</text>
<text x="358.90" y="41.54">.</text>
<text x="127.19" y="334.06">+</text>
<text x="472.67" y="225.57">.</text>
<text x="409.56" y="161.13">.</text>
<text x="250.17" y="196.78">+</text>
<text x="291.45" y="388.11">*</text>
<text x="490.45" y="245.14">*</text>
<text x="364.48" y="199.15">+</text>
<text x="246.45" y="324.42">.</text>
<text x="177.61" y="363.75">*</text>
<text x="369.64" y="482.68">.</text>
<text x="108.82" y="75.24">+</text>
<text x="317.20" y="154.41">+</text>
<text x="468.12" y="112.43">+</text>
<text x="451.07" y="285.63">.</text>
<text x="12.92" y="437.59">.</text>
<text x="291.74" y="308.95">*</text>
<text x="122.97" y="281.21">.</text>
<text x="245.59" y="48.98">.</text>
<text x="454.34" y="258.27">.</text>
<text x="290.26" y="173.89">+</text>
<text x="379.83" y="315.06">.</text>
<text x="261.81" y="176.02">*</text>
<text x="468.06" y="64.91">+</text>
<text x="268.65" y="474.19">.</text>
<text x="95.93" y="93.11">.</text>
<text x="432.54" y="267.12">.</text>
<text x="62.85" y="436.51">.</text>
<text x="138.17" y="260.07">.</text>
<text x="223.06" y="104.61">.</text>
<text x="54.44" y="461.98">*</text>
<text x="303.88" y="195.00">.</text>
<text x="227.03" y="397.31">.</text>
<text x="6.81" y="442.35">.</text>
<text x="48.59" y="494.80">.</text>
<text x="372.03" y="485.32">*</text>
<text x="357.43" y="377.26">+</text>
<text x="410.23" y="341.35">+</text>
<text x="268.65" y="37.67">.</text>
<text x="206.79" y="73.25">+</text>
<text x="475.84" y="4.90">+</text>
<text x="265.21" y="248.85">+</text>
<text x="409.70" y="215.34">+</text>
<text x="143.27" y="173.80">.</text>
<text x="490.61" y="389.38">.</text>
<text x="427.81" y="391.21">+</text>
<text x="5.43" y="438.38">.</text>
<text x="305.35" y="486.45">+</text>
<text x="175.68" y="468.80">+</text>
<text x="384.77" y="369.03">.</text>
<text x="443.81" y="269.69">+</text>
<text x="215.26" y="318.18">+</text>
<text x="219.92" y="419.95">.</text>
<text x="83.10" y="114.00">+</text>
<text x="87.47" y="278.70">+</text>
<text x="114.05" y="77.15">+</text>
<text x="116.81" y="477.92">+</text>
<text x="8.47" y="412.25">+</text>
<text x="272.36" y="176.48">+</text>
<text x="11.80" y="378.60">+</text>
<text x="135.65" y="355.96">+</text>
<text x="197.30" y="205.66">*</text>
<text x="208.18" y="447.08">+</text>
<text x="238.33" y="152.27">.</text>
<text x="362.27" y="180.33">.</text>
<text x="231.92" y="160.09">+</text>
<text x="140.11" y="256.76">+</text>
<text x="389.52" y="448.69">*</text>
<text x="175.42" y="419.32">.</text>
<text x="51.82" y="218.43">.</text>
<text x="247.64" y="143.99">+</text>
<text x="440.31" y="375.73">.</text>
<text x="117.25" y="143.35">.</text>
<text x="499.03" y="29.04">+</text>
<text x="280.42" y="433.67">.</text>
<text x="252.74" y="226.20">.</text>
<text x="295.19" y="99.66">+</text>
<text x="35.11" y="368.03">+</text>
<text x="59.81" y="185.94">.</text>
<text x="169.38" y="268.45">+</text>
<text x="480.24" y="479.34">*</text>
<text x="102.28" y="4.46">.</text>
<text x="446.45" y="179.98">+</text>
<text x="481.42" y="138.06">+</text>
<text x="179.25" y="475.03">+</text>
<text x="40.51" y="340.58">+</text>
<text x="156.23" y="40.74">*</text>
<text x="230.21" y="230.56">*</text>
<text x="37.57" y="65.08">*</text>
<text x="384.20" y="219.75">+</text>
<text x="47.96" y="16.57">.</text>
<text x="8.71" y="35.30">*</text>
<text x="150.18" y="147.22">+</text>
<text x="380.19" y="275.80">.</text>
<text x="462.71" y="6.60">+</text>
<text x="372.86" y="305.67">+</text>
<text x="299.85" y="201.92">+</text>
<text x="205.77" y="242.63">+</text>
<text x="455.66" y="140.62">*</text>
<text x="145.79" y="216.20">.</text>
<text x="149.47" y="266.36">.</text>
<text x="6.82" y="234.80">.</text>
<text x="145.22" y="219.63">.</text>
<text x="40.66" y="28.90">.</text>
<text x="103.31" y="164.51">+</text>
<text x="316.41" y="440.83">.</text>
<text x="72.25" y="107.43">+</text>
<text x="119.60" y="180.10">.</text>
<text x="371.00" y="277.44">.</text>
<text x="371.93" y="12.61">.</text>
<text x="348.52" y="304.20">+</text>
<text x="67.13" y="185.79">+</text>
<text x="489.03" y="19.01">+</text>
<text x="29.90" y="312.24">+</text>
<text x="125.06" y="345.02">.</text>
<text x="429.54" y="368.63">+</text>
<text x="38.61" y="22.83">+</text>
<text x="189.31" y="263.81">+</text>
<text x="346.36" y="319.49">.</text>
<text x="207.94" y="22.33">.</text>
<text x="428.79" y="44.83">+</text>
<text x="294.92" y="135.43">*</text>
<text x="313.81" y="198.90">.</text>
<text x="454.85" y="130.11">.</text>
<text x="10.44" y="412.11">+</text>
<text x="456.07" y="360.60">+</text>
<text x="170.38" y="182.54">.</text>
<text x="238.82" y="408.95">.</text>
<text x="94.52" y="478.30">.</text>
<text x="188.77" y="20.51">.</text>
<text x="187.19" y="490.33">+</text>
<text x="428.25" y="184.30">.</text>
<text x="226.22" y="454.26">.</text>
<text x="140.44" y="50.24">*</text>
<text x="375.72" y="129.23">.</text>
<text x="220.84" y="219.42">.</text>
<text x="21.59" y="121.82">.</text>
<text x="414.13" y="328.17">+</text>
<text x="54.19" y="252.71">.</text>
<text x="91.08" y="392.38">.</text>
<text x="63.38" y="306.41">+</text>
<text x="310.47" y="312.21">*</text>
<text x="179.95" y="208.74">.</text>
<text x="353.01" y="96.24">.</text>
<text x="154.95" y="453.43">+</text>
<text x="24.33" y="486.08">+</text>
<text x="495.66" y="183.87">+</text>
<text x="96.01" y="116.26">+</text>
<text x="213.69" y="494.36">.</text>
<text x="36.32" y="409.53">+</text>
<text x="184.51" y="96.37">+</text>
<text x="431.55" y="435.12">+</text>
<text x="15.88" y="339.97">+</text>

</svg>