
<svg viewBox="0 0 500 500" xmlns="http://www.w.org/2000/svg" width="100%" height="100%" style="background-color: #0a0a14; font-family: 'Courier New', Courier, monospace;">
    <style>
        text { fill: #aaa; font-size: 10px; text-anchor: middle; dominant-baseline: middle; }
    </style>
    <text x="381.41" y="389.75">+</text>
<text x="440.96" y="361.78">.</text>
<text x="322.70" y="214.93">+</text>
<text x="27.27" y="407.08">+</text>
<text x="22.78" y="417.13">.</text>
<text x="269.11" y="211.73">.</text>
<text x="34.45" y="233.69">+</text>
<text x="232.71" y="191.77">.</text>
<text x="332.30" y="83.65">.</text>
<text x="373.77" y="131.44">.</text>
<text x="326.60" y="200.68">+</text>
<text x="409.84" y="107.70">.</text>
<text x="56.97" y="114.31">.</text>
<text x="75.04" y="332.93">.</text>
<text x="124.61" y="208.79">+</text>
<text x="359.85" y="412.14">*</text>
<text x="201.93" y="496.08">+</text>
<text x="454.53" y="273.46">+</text>
<text x="211.03" y="254.20">.</text>
<text x="46.58" y="380.81">*</text>
<text x="393.80" y="172.68">*</text>
<text x="409.09" y="371.11">+</text>
<text x="458.72" y="237.10">.</text>
<text x="251.24" y="31.73">+</text>
<text x="333.10" y="437.08">+</text>
<text x="451.14" y="465.94">+</text>
<text x="126.90" y="154.04">.</text>
<text x="492.17" y="20.14">+</text>
<text x="127.22" y="68.20">.</text>
<text x="188.29" y="471.42">.</text>
<text x="168.60" y="228.08">+</text>
<text x="339.92" y="269.37">*</text>
<text x="165.45" y="409.45">+</text>
<text x="60.04" y="405.84">.</text>
<text x="39.41" y="45.14">+</text>
<text x="363.17" y="370.02">*</text>
<text x="378.04" y="389.41">+</text>
<text x="442.47" y="263.32">.</text>
<text x="166.55" y="121.26">*</text>
<text x="268.78" y="386.51">.</text>
<text x="283.60" y="476.11">+</text>
<text x="159.16" y="290.44">+</text>
<text x="194.04" y="288.87">.</text>
<text x="81.29" y="456.56">.</text>
<text x="116.83" y="286.16">.</text>
<text x="415.26" y="222.07">+</text>
<text x="83.96" y="380.49">.</text>
<text x="63.14" y="153.86">.</text>
<text x="312.30" y="50.62">.</text>
<text x="105.13" y="288.31">.</text>
<text x="289.39" y="440.42">.</text>
<text x="357.61" y="395.41">.</text>
<text x="427.43" y="337.66">.</text>
<text x="154.45" y="444.59">.</text>
<text x="473.03" y="26.40">+</text>
<text x="130.33" y="129.31">.</text>
<text x="280.20" y="32.36">.</text>
<text x="12.06" y="102.08">.</text>
<text x="135.58" y="154.55">.</text>
<text x="311.89" y="436.89">+</text>
<text x="315.81" y="495.93">*</text>
<text x="300.95" y="378.82">+</text>
<text x="81.23" y="55.73">+</text>
<text x="256.49" y="343.97">+</text>
<text x="431.80" y="205.25">+</text>
<text x="123.79" y="255.20">+</text>
<text x="293.31" y="94.04">.</text>
<text x="189.96" y="325.12">.</text>
<text x="310.98" y="242.89">.</text>
<text x="354.01" y="444.97">.</text>
<text x="392.77" y="65.02">*</text>
<text x="90.14" y="156.17">.</text>
<text x="123.37" y="278.56">.</text>
<text x="348.67" y="196.75">+</text>
<text x="289.08" y="478.17">+</text>
<text x="46.58" y="368.01">.</text>
<text x="439.17" y="479.01">+</text>
<text x="223.25" y="234.72">*</text>
<text x="213.97" y="467.39">*</text>
<text x="54.53" y="213.11">.</text>
<text x="299.14" y="59.14">+</text>
<text x="480.06" y="137.55">+</text>
<text x="77.03" y="17.48">+</text>
<text x="176.21" y="177.89">*</text>
<text x="290.22" y="295.78">+</text>
<text x="320.73" y="107.80">.</text>
<text x="270.99" y="334.87">+</text>
<text x="422.15" y="148.50">.</text>
<text x="243.32" y="327.89">+</text>
<text x="305.81" y="134.77">+</text>
<text x="301.04" y="265.06">+</text>
<text x="48.76" y="323.22">+</text>
<text x="443.76" y="480.76">*</text>
<text x="416.94" y="289.06">+</text>
<text x="206.78" y="215.92">+</text>
<text x="293.99" y="316.87">*</text>
<text x="431.31" y="401.57">.</text>
<text x="305.05" y="243.24">+</text>
<text x="20.49" y="59.32">.</text>
<text x="190.84" y="414.42">.</text>
<text x="17.11" y="389.50">+</text>
<text x="351.43" y="342.29">+</text>
<text x="305.37" y="108.28">.</text>
<text x="497.66" y="396.33">+</text>
<text x="88.36" y="250.34">.</text>
<text x="359.26" y="333.48">+</text>
<text x="348.52" y="230.81">.</text>
<text x="215.15" y="352.98">.</text>
<text x="62.57" y="303.91">+</text>
<text x="141.19" y="359.46">.</text>
<text x="285.39" y="324.04">*</text>
<text x="12.25" y="11.59">.</text>
<text x="484.38" y="171.41">*</text>
<text x="275.39" y="43.44">+</text>
<text x="127.01" y="180.91">.</text>
<text x="328.42" y="372.93">.</text>
<text x="427.66" y="133.01">+</text>
<text x="392.95" y="253.55">.</text>
<text x="129.68" y="452.77">.</text>
<text x="430.70" y="381.48">+</text>
<text x="308.62" y="382.14">.</text>
<text x="131.36" y="207.59">.</text>
<text x="105.05" y="333.18">.</text>
<text x="323.82" y="124.81">.</text>
<text x="170.28" y="122.25">+</text>
<text x="421.51" y="206.89">+</text>
<text x="64.83" y="477.00">.</text>
<text x="8.82" y="42.69">+</text>
<text x="351.26" y="329.32">.</text>
<text x="488.27" y="13.36">+</text>
<text x="486.94" y="348.87">.</text>
<text x="165.62" y="145.92">+</text>
<text x="472.28" y="342.50">+</text>
<text x="49.73" y="177.16">*</text>
<text x="244.81" y="489.33">.</text>
<text x="311.44" y="231.61">+</text>
<text x="268.23" y="208.28">.</text>
<text x="107.25" y="117.12">.</text>
<text x="126.59" y="488.22">+</text>
<text x="454.76" y="385.18">*</text>
<text x="380.21" y="203.14">.</text>
<text x="267.02" y="350.90">+</text>
<text x="85.46" y="300.05">.</text>
<text x="268.23" y="437.63">+</text>
<text x="140.06" y="133.41">.</text>
<text x="329.29" y="116.92">*</text>
<text x="434.99" y="441.08">+</text>
<text x="162.63" y="159.76">+</text>
<text x="41.81" y="243.58">+</text>
<text x="224.20" y="288.31">.</text>
<text x="477.20" y="278.79">+</text>
<text x="121.93" y="79.07">.</text>
<text x="266.10" y="132.56">+</text>
<text x="3.71" y="54.10">+</text>
<text x="362.13" y="326.32">.</text>
<text x="347.16" y="459.19">.</text>
<text x="263.45" y="342.70">.</text>
<text x="120.98" y="165.26">.</text>
<text x="497.05" y="279.36">+</text>
<text x="132.85" y="80.14">.</text>
<text x="99.01" y="316.10">+</text>
<text x="499.57" y="380.62">+</text>
<text x="465.72" y="399.98">.</text>
<text x="490.27" y="331.73">.</text>
<text x="355.34" y="67.42">.</text>
<text x="145.58" y="150.71">.</text>
<text x="13.79" y="248.51">.</text>
<text x="225.23" y="121.66">.</text>
<text x="485.88" y="137.19">.</text>
<text x="495.05" y="471.58">+</text>
<text x="306.61" y="196.25">*</text>
<text x="350.42" y="432.09">+</text>
<text x="147.94" y="257.20">.</text>
<text x="372.95" y="465.91">*</text>
<text x="313.98" y="190.95">+</text>
<text x="153.34" y="244.06">+</text>
<text x="282.96" y="187.28">*</text>
<text x="457.28" y="101.59">.</text>
<text x="300.03" y="381.79">+</text>
<text x="435.41" y="74.00">+</text>
<text x="128.67" y="351.02">.</text>
<text x="325.48" y="28.36">+</text>
<text x="67.70" y="414.98">.</text>
<text x="371.10" y="300.38">*</text>
<text x="331.74" y="95.04">.</text>
<text x="446.17" y="30.30">*</text>
<text x="235.76" y="459.65">+</text>
<text x="467.71" y="391.65">+</text>
<text x="8.17" y="440.15">.</text>
<text x="206.47" y="81.79">.</text>
<text x="104.67" y="444.49">.</text>
<text x="227.77" y="130.72">+</text>
<text x="112.37" y="202.58">.</text>
<text x="453.75" y="439.00">+</text>
<text x="266.60" y="420.76">.</text>
<text x="434.57" y="428.93">+</text>
<text x="38.25" y="318.64">+</text>
<text x="328.62" y="429.15">+</text>
<text x="324.35" y="203.72">.</text>
<text x="119.63" y="275.26">.</text>
<text x="398.86" y="26.87">+</text>
<text x="81.43" y="103.30">*</text>
<text x="144.79" y="17.87">+</text>
<text x="267.37" y="95.33">.</text>
<text x="257.11" y="169.86">.</text>
<text x="435.62" y="466.10">+</text>
<text x="56.67" y="131.67">+</text>
<text x="171.29" y="306.38">.</text>
<text x="414.68" y="334.42">*</text>
<text x="363.47" y="138.50">+</text>
<text x="41.98" y="296.78">.</text>
<text x="197.16" y="366.63">+</text>
<text x="322.62" y="423.67">+</text>
<text x="435.13" y="100.48">.</text>
<text x="205.85" y="320.38">*</text>
<text x="438.71" y="80.59">.</text>
<text x="240.87" y="234.40">+</text>
<text x="228.34" y="153.36">.</text>
<text x="342.35" y="438.83">.</text>
<text x="105.63" y="46.35">.</text>
<text x="35.89" y="496.64">*</text>
<text x="50.56" y="312.37">+</text>
<text x="69.62" y="15.32">+</text>
<text x="68.69" y="244.48">.</text>
<text x="194.25" y="486.34">*</text>
<text x="78.19" y="308.96">.</text>

</svg>