
<svg viewBox="0 0 500 500" xmlns="http://www.w.org/2000/svg" width="100%" height="100%" style="background-color: #0a0a14; font-family: 'Courier New', Courier, monospace;">
    <style>
        text { fill: #aaa; font-size: 10px; text-anchor: middle; dominant-baseline: middle; }
    </style>
    <text x="172.48" y="285.74">+</text>
<text x="362.30" y="413.16">+</text>
<text x="386.66" y="163.11">*</text>
<text x="134.67" y="315.67">.</text>
<text x="13.23" y="351.16">*</text>
<text x="456.03" y="493.03">+</text>
<text x="259.61" y="225.05">+</text>
<text x="8.78" y="305.99">+</text>
<text x="169.64" y="240.82">+</text>
<text x="363.56" y="52.50">.</text>
<text x="89.44" y="193.20">*</text>
<text x="80.84" y="220.74">+</text>
<text x="114.46" y="325.59">.</text>
<text x="459.17" y="333.08">+</text>
<text x="217.78" y="232.75">.</text>
<text x="251.59" y="409.54">+</text>
<text x="263.57" y="486.19">+</text>
<text x="52.33" y="409.92">+</text>
<text x="281.00" y="360.51">.</text>
<text x="60.59" y="184.48">.</text>
<text x="169.92" y="425.11">+</text>
<text x="317.01" y="209.14">.</text>
<text x="453.49" y="28.47">.</text>
<text x="178.60" y="132.02">.</text>
<text x="99.00" y="288.92">+</text>
<text x="411.18" y="410.97">.</text>
<text x="86.83" y="131.05">+</text>
<text x="449.89" y="305.99">.</text>
<text x="312.51" y="232.78">*</text>
<text x="447.70" y="360.20">.</text>
<text x="92.93" y="330.98">*</text>
<text x="188.71" y="126.95">*</text>
<text x="457.37" y="430.56">.</text>
<text x="466.87" y="348.26">.</text>
<text x="182.20" y="457.08">+</text>
<text x="346.56" y="158.25">.</text>
<text x="174.07" y="330.19">+</text>
<text x="381.20" y="287.89">*</text>
<text x="32.67" y="383.11">.</text>
<text x="42.66" y="98.46">.</text>
<text x="81.08" y="108.51">+</text>
<text x="32.42" y="329.43">+</text>
<text x="487.51" y="79.50">.</text>
<text x="478.11" y="372.69">+</text>
<text x="200.84" y="182.55">.</text>
<text x="49.70" y="374.65">.</text>
<text x="352.55" y="21.51">.</text>
<text x="423.62" y="368.44">+</text>
<text x="64.62" y="442.59">+</text>
<text x="452.03" y="112.67">+</text>
<text x="369.56" y="176.93">.</text>
<text x="163.89" y="411.34">.</text>
<text x="485.64" y="158.15">.</text>
<text x="275.85" y="166.47">+</text>
<text x="471.14" y="124.42">*</text>
<text x="67.44" y="378.93">.</text>
<text x="4.41" y="496.83">.</text>
<text x="360.85" y="61.26">+</text>
<text x="178.09" y="428.24">+</text>
<text x="332.39" y="374.55">+</text>
<text x="252.27" y="89.72">+</text>
<text x="242.45" y="476.23">.</text>
<text x="41.49" y="240.20">+</text>
<text x="421.51" y="49.69">+</text>
<text x="367.09" y="169.83">+</text>
<text x="38.13" y="340.56">.</text>
<text x="407.87" y="460.24">+</text>
<text x="292.88" y="43.67">+</text>
<text x="163.47" y="276.29">+</text>
<text x="38.45" y="287.79">.</text>
<text x="376.74" y="87.85">+</text>
<text x="303.11" y="189.13">.</text>
<text x="48.46" y="426.65">+</text>
<text x="396.58" y="296.89">+</text>
<text x="114.97" y="42.51">+</text>
<text x="111.21" y="3.85">+</text>
<text x="96.14" y="450.00">+</text>
<text x="161.83" y="178.34">.</text>
<text x="254.46" y="491.52">.</text>
<text x="151.14" y="28.39">.</text>
<text x="198.61" y="396.09">*</text>
<text x="409.59" y="402.48">.</text>
<text x="442.47" y="258.76">*</text>
<text x="211.08" y="113.60">.</text>
<text x="183.22" y="460.13">+</text>
<text x="34.83" y="433.59">*</text>
<text x="181.38" y="259.08">+</text>
<text x="322.11" y="86.98">.</text>
<text x="333.10" y="108.59">.</text>
<text x="159.67" y="19.37">+</text>
<text x="254.90" y="189.39">.</text>
<text x="88.93" y="176.77">.</text>
<text x="372.99" y="359.32">+</text>
<text x="218.22" y="468.75">.</text>
<text x="236.32" y="110.78">.</text>
<text x="220.42" y="442.40">.</text>
<text x="198.11" y="359.63">.</text>
<text x="415.93" y="295.31">+</text>
<text x="293.22" y="311.33">.</text>
<text x="338.43" y="439.16">.</text>
<text x="206.27" y="88.28">+</text>
<text x="323.25" y="443.70">.</text>
<text x="375.55" y="139.11">*</text>
<text x="329.71" y="478.09">.</text>
<text x="88.17" y="173.71">+</text>
<text x="57.66" y="309.57">*</text>
<text x="404.51" y="218.44">.</text>
<text x="313.90" y="413.66">.</text>
<text x="312.87" y="213.91">+</text>
<text x="475.55" y="167.89">*</text>
<text x="56.52" y="295.23">+</text>
<text x="4.37" y="326.74">+</text>
<text x="71.74" y="158.86">.</text>
<text x="424.42" y="432.74">+</text>
<text x="186.40" y="76.31">+</text>
<text x="356.21" y="288.05">.</text>
<text x="481.96" y="18.12">+</text>
<text x="241.40" y="174.83">*</text>
<text x="277.57" y="366.08">.</text>
<text x="474.29" y="264.36">+</text>
<text x="186.88" y="162.94">*</text>
<text x="52.82" y="386.31">+</text>
<text x="373.79" y="321.13">.</text>
<text x="448.16" y="202.43">.</text>
<text x="170.30" y="286.10">+</text>
<text x="109.30" y="104.77">+</text>
<text x="112.49" y="77.97">+</text>
<text x="105.40" y="210.40">*</text>
<text x="393.40" y="432.41">+</text>
<text x="368.82" y="88.35">.</text>
<text x="11.37" y="286.72">.</text>
<text x="256.39" y="75.40">*</text>
<text x="68.16" y="95.00">+</text>
<text x="444.17" y="370.59">.</text>
<text x="7.33" y="149.49">.</text>
<text x="407.45" y="117.21">*</text>
<text x="45.45" y="406.95">*</text>
<text x="215.69" y="306.70">+</text>
<text x="419.83" y="301.92">.</text>
<text x="484.21" y="243.35">.</text>
<text x="414.06" y="268.00">+</text>
<text x="73.90" y="32.93">.</text>
<text x="495.51" y="104.00">+</text>
<text x="344.12" y="349.29">.</text>
<text x="62.45" y="376.37">*</text>
<text x="476.45" y="432.21">+</text>
<text x="242.91" y="286.36">.</text>
<text x="38.77" y="2.35">.</text>
<text x="204.51" y="446.18">.</text>
<text x="243.27" y="204.14">+</text>
<text x="347.76" y="229.14">.</text>
<text x="296.82" y="388.48">.</text>
<text x="319.62" y="376.20">+</text>
<text x="279.70" y="224.09">*</text>
<text x="359.76" y="398.18">.</text>
<text x="2.31" y="177.46">*</text>
<text x="74.80" y="281.05">+</text>
<text x="14.85" y="437.21">.</text>
<text x="72.14" y="348.96">+</text>
<text x="281.91" y="263.51">.</text>
<text x="143.52" y="81.92">+</text>
<text x="113.30" y="331.34">+</text>
<text x="65.72" y="300.24">+</text>
<text x="28.64" y="195.92">.</text>
<text x="346.25" y="255.00">*</text>
<text x="75.33" y="11.96">+</text>
<text x="402.78" y="139.87">*</text>
<text x="344.02" y="468.12">*</text>
<text x="301.38" y="368.55">.</text>
<text x="146.90" y="225.89">+</text>
<text x="195.72" y="282.11">+</text>
<text x="211.93" y="129.67">+</text>
<text x="304.12" y="125.90">+</text>
<text x="303.25" y="61.89">.</text>
<text x="11.28" y="378.20">.</text>
<text x="49.49" y="70.46">*</text>
<text x="364.51" y="267.72">.</text>
<text x="383.16" y="494.46">+</text>
<text x="386.72" y="337.52">*</text>
<text x="479.06" y="197.18">.</text>
<text x="453.61" y="88.90">+</text>
<text x="328.22" y="463.90">.</text>
<text x="97.65" y="448.89">.</text>
<text x="423.19" y="288.35">+</text>
<text x="202.12" y="372.62">.</text>
<text x="239.65" y="118.35">*</text>
<text x="65.20" y="100.23">+</text>
<text x="149.23" y="55.66">+</text>
<text x="220.34" y="66.90">.</text>
<text x="176.96" y="157.62">+</text>
<text x="197.01" y="395.03">.</text>
<text x="56.57" y="349.64">+</text>
<text x="263.37" y="46.89">.</text>
<text x="56.30" y="128.00">.</text>
<text x="1.38" y="455.82">.</text>
<text x="384.10" y="395.97">.</text>
<text x="365.47" y="169.59">+</text>
<text x="336.85" y="313.70">+</text>
<text x="483.71" y="459.81">*</text>
<text x="214.18" y="201.86">.</text>
<text x="179.35" y="53.20">.</text>
<text x="301.42" y="257.24">.</text>
<text x="387.95" y="466.99">.</text>
<text x="132.83" y="153.20">.</text>
<text x="370.97" y="100.11">+</text>
<text x="470.70" y="496.61">+</text>
<text x="50.90" y="343.58">.</text>

</svg>