
<svg viewBox="0 0 500 500" xmlns="http://www.w.org/2000/svg" width="100%" height="100%" style="background-color: #0a0a14; font-family: 'Courier New', Courier, monospace;">
    <style>
        text { fill: #aaa; font-size: 10px; text-anchor: middle; dominant-baseline: middle; }
    </style>
    <text x="36.62" y="69.53">*</text>
<text x="319.24" y="95.31">+</text>
<text x="411.24" y="164.29">*</text>
<text x="146.18" y="292.80">+</text>
<text x="388.33" y="368.80">.</text>
<text x="168.56" y="412.04">.</text>
<text x="142.32" y="250.84">.</text>
<text x="64.41" y="174.37">.</text>
<text x="11.00" y="452.29">+</text>
<text x="238.52" y="375.49">.</text>
<text x="366.10" y="335.28">*</text>
<text x="158.42" y="33.76">+</text>
<text x="154.35" y="478.73">+</text>
<text x="3.85" y="266.29">.</text>
<text x="400.17" y="432.99">*</text>
<text x="62.79" y="405.05">.</text>
<text x="117.51" y="215.34">+</text>
<text x="469.76" y="334.64">*</text>
<text x="305.77" y="75.56">+</text>
<text x="405.96" y="497.76">+</text>
<text x="283.51" y="199.00">+</text>
<text x="164.88" y="12.78">+</text>
<text x="210.77" y="42.31">*</text>
<text x="181.40" y="214.92">+</text>
<text x="259.61" y="352.45">.</text>
<text x="304.26" y="468.77">.</text>
<text x="301.72" y="249.52">*</text>
<text x="269.13" y="66.86">.</text>
<text x="217.21" y="273.52">*</text>
<text x="255.97" y="424.38">+</text>
<text x="429.60" y="141.05">+</text>
<text x="288.47" y="23.04">+</text>
<text x="204.29" y="284.45">+</text>
<text x="83.13" y="295.37">+</text>
<text x="93.39" y="276.25">*</text>
<text x="303.33" y="218.66">.</text>
<text x="433.94" y="50.69">*</text>
<text x="241.48" y="109.33">+</text>
<text x="109.13" y="70.38">.</text>
<text x="388.74" y="146.64">+</text>
<text x="304.98" y="141.96">+</text>
<text x="102.84" y="330.87">.</text>
<text x="30.53" y="164.83">*</text>
<text x="421.49" y="378.49">.</text>
<text x="75.57" y="91.82">.</text>
<text x="467.91" y="233.24">*</text>
<text x="395.45" y="107.32">+</text>
<text x="62.27" y="69.52">+</text>
<text x="121.32" y="263.27">+</text>
<text x="130.59" y="87.62">+</text>
<text x="290.08" y="156.39">.</text>
<text x="344.51" y="496.57">+</text>
<text x="358.27" y="204.72">+</text>
<text x="476.93" y="286.89">.</text>
<text x="426.41" y="151.96">+</text>
<text x="257.66" y="170.41">.</text>
<text x="154.73" y="474.61">.</text>
<text x="401.21" y="229.74">+</text>
<text x="144.04" y="291.09">+</text>
<text x="454.71" y="448.89">.</text>
<text x="315.33" y="246.04">.</text>
<text x="426.04" y="316.90">+</text>
<text x="438.61" y="497.56">+</text>
<text x="139.22" y="319.25">+</text>
<text x="98.51" y="42.10">+</text>
<text x="471.68" y="52.68">+</text>
<text x="361.83" y="307.55">+</text>
<text x="493.07" y="266.18">+</text>
<text x="462.85" y="238.64">.</text>
<text x="377.64" y="448.42">+</text>
<text x="473.34" y="111.74">+</text>
<text x="428.12" y="305.89">*</text>
<text x="417.38" y="153.40">*</text>
<text x="116.14" y="158.12">*</text>
<text x="52.48" y="276.77">+</text>
<text x="84.99" y="199.06">+</text>
<text x="360.00" y="59.44">+</text>
<text x="472.15" y="380.46">*</text>
<text x="471.43" y="488.87">+</text>
<text x="185.47" y="88.38">.</text>
<text x="271.25" y="275.72">.</text>
<text x="363.70" y="6.63">.</text>
<text x="374.19" y="195.02">+</text>
<text x="368.30" y="277.83">+</text>
<text x="247.65" y="257.44">.</text>
<text x="340.91" y="153.03">+</text>
<text x="75.88" y="0.48">*</text>
<text x="140.67" y="202.80">*</text>
<text x="13.34" y="457.19">.</text>
<text x="282.52" y="107.45">.</text>
<text x="462.20" y="224.07">*</text>
<text x="307.09" y="133.14">.</text>
<text x="431.01" y="184.48">+</text>
<text x="161.18" y="437.53">+</text>
<text x="288.53" y="292.72">.</text>
<text x="223.60" y="308.80">.</text>
<text x="176.59" y="386.79">.</text>
<text x="203.46" y="124.05">*</text>
<text x="79.96" y="493.50">+</text>
<text x="358.64" y="437.53">.</text>
<text x="75.21" y="80.32">+</text>
<text x="367.18" y="306.56">.</text>
<text x="495.67" y="208.97">.</text>
<text x="345.98" y="425.63">.</text>
<text x="242.15" y="44.76">.</text>
<text x="470.04" y="25.70">.</text>
<text x="318.63" y="381.44">.</text>
<text x="277.83" y="188.16">+</text>
<text x="379.62" y="133.36">+</text>
<text x="186.96" y="324.86">.</text>
<text x="203.34" y="58.45">+</text>
<text x="358.77" y="168.29">+</text>
<text x="194.90" y="100.40">.</text>
<text x="196.47" y="44.97">+</text>
<text x="487.61" y="101.47">.</text>
<text x="478.71" y="174.07">.</text>
<text x="228.42" y="237.07">*</text>
<text x="200.89" y="263.06">*</text>
<text x="436.93" y="428.03">+</text>
<text x="230.20" y="248.72">.</text>
<text x="354.09" y="46.11">.</text>
<text x="96.83" y="173.72">.</text>
<text x="397.38" y="369.67">.</text>
<text x="495.78" y="344.90">.</text>
<text x="53.47" y="189.18">+</text>
<text x="107.34" y="432.04">+</text>
<text x="85.14" y="350.65">+</text>
<text x="430.90" y="131.14">.</text>
<text x="414.10" y="216.02">+</text>
<text x="5.30" y="335.29">*</text>
<text x="201.64" y="277.60">+</text>
<text x="440.17" y="118.17">*</text>
<text x="212.35" y="443.62">+</text>
<text x="130.99" y="218.91">+</text>
<text x="415.40" y="283.57">.</text>
<text x="59.31" y="236.26">+</text>
<text x="235.92" y="305.94">+</text>
<text x="411.60" y="444.89">.</text>
<text x="333.96" y="58.31">+</text>
<text x="307.95" y="485.11">*</text>
<text x="114.79" y="200.76">.</text>
<text x="147.36" y="433.12">.</text>
<text x="166.54" y="247.66">.</text>
<text x="348.23" y="334.49">+</text>
<text x="388.44" y="251.94">+</text>
<text x="156.70" y="29.69">.</text>
<text x="286.36" y="231.38">*</text>
<text x="23.87" y="52.63">*</text>
<text x="337.79" y="174.00">.</text>
<text x="102.72" y="170.96">.</text>
<text x="414.45" y="457.15">+</text>
<text x="135.81" y="427.59">+</text>
<text x="414.14" y="239.39">+</text>
<text x="235.11" y="337.02">.</text>
<text x="317.77" y="89.13">.</text>
<text x="12.32" y="314.23">.</text>
<text x="115.30" y="274.27">+</text>
<text x="119.44" y="23.62">*</text>
<text x="389.84" y="264.98">+</text>
<text x="100.05" y="492.84">+</text>
<text x="384.37" y="324.98">.</text>
<text x="200.13" y="43.70">.</text>
<text x="387.35" y="339.34">.</text>
<text x="271.57" y="249.42">+</text>
<text x="328.23" y="222.02">+</text>
<text x="361.41" y="331.61">+</text>
<text x="176.54" y="278.10">+</text>
<text x="155.53" y="465.57">.</text>
<text x="284.62" y="133.71">+</text>
<text x="277.29" y="142.29">*</text>
<text x="160.51" y="256.82">+</text>
<text x="430.67" y="266.49">*</text>
<text x="143.91" y="105.07">.</text>
<text x="70.63" y="76.38">+</text>
<text x="394.02" y="71.54">*</text>
<text x="194.89" y="243.26">+</text>
<text x="150.72" y="143.14">+</text>
<text x="496.74" y="18.35">+</text>
<text x="152.76" y="99.43">+</text>
<text x="183.92" y="5.19">.</text>
<text x="20.43" y="16.71">+</text>
<text x="98.69" y="460.10">.</text>
<text x="171.06" y="362.93">+</text>
<text x="145.84" y="402.15">.</text>
<text x="231.22" y="108.86">+</text>
<text x="401.79" y="2.60">+</text>
<text x="271.19" y="131.03">*</text>
<text x="86.29" y="79.97">+</text>
<text x="457.68" y="322.56">+</text>
<text x="377.77" y="165.00">*</text>
<text x="123.10" y="446.89">*</text>
<text x="183.50" y="463.94">.</text>
<text x="423.31" y="461.72">.</text>
<text x="331.91" y="17.81">.</text>
<text x="125.50" y="471.96">.</text>
<text x="101.96" y="449.22">*</text>
<text x="136.09" y="287.83">+</text>
<text x="40.26" y="317.15">.</text>
<text x="161.14" y="150.74">*</text>
<text x="498.31" y="370.35">+</text>
<text x="394.95" y="119.29">+</text>
<text x="431.88" y="371.19">+</text>
<text x="326.80" y="37.15">.</text>
<text x="260.09" y="458.53">.</text>
<text x="345.43" y="56.47">+</text>
<text x="32.53" y="169.06">*</text>
<text x="423.60" y="424.98">+</text>
<text x="270.20" y="388.19">.</text>
<text x="476.93" y="460.04">*</text>
<text x="195.96" y="19.21">+</text>
<text x="444.38" y="137.74">+</text>
<text x="499.31" y="499.37">+</text>
<text x="52.62" y="39.58">+</text>
<text x="400.19" y="440.81">+</text>
<text x="272.57" y="467.77">.</text>
<text x="134.38" y="294.54">+</text>

</svg>