
<svg viewBox="0 0 500 500" xmlns="http://www.w.org/2000/svg" width="100%" height="100%" style="background-color: #0a0a14; font-family: 'Courier New', Courier, monospace;">
    <style>
        text { fill: #aaa; font-size: 10px; text-anchor: middle; dominant-baseline: middle; }
    </style>
    <text x="162.96" y="5.42">+</text>
<text x="166.44" y="257.63">+</text>
<text x="250.12" y="101.64">+</text>
<text x="182.41" y="419.94">+</text>
<text x="124.52" y="297.05">.</text>
<text x="341.14" y="434.92">.</text>
<text x="231.44" y="5.73">+</text>
<text x="392.40" y="494.02">+</text>
<text x="300.84" y="107.79">.</text>
<text x="29.36" y="464.76">*</text>
<text x="338.73" y="250.99">+</text>
<text x="90.27" y="357.54">*</text>
<text x="373.84" y="19.84">+</text>
<text x="108.04" y="122.02">+</text>
<text x="265.16" y="441.56">.</text>
<text x="6.12" y="211.42">.</text>
<text x="298.15" y="250.78">+</text>
<text x="444.73" y="83.42">.</text>
<text x="63.93" y="230.76">+</text>
<text x="494.07" y="489.42">+</text>
<text x="362.83" y="324.27">*</text>
<text x="181.61" y="334.67">.</text>
<text x="225.76" y="343.97">.</text>
<text x="189.99" y="63.08">+</text>
<text x="498.68" y="330.90">.</text>
<text x="369.32" y="136.83">+</text>
<text x="406.51" y="223.47">.</text>
<text x="13.12" y="20.49">.</text>
<text x="85.77" y="25.10">.</text>
<text x="468.37" y="394.49">.</text>
<text x="180.98" y="438.13">.</text>
<text x="303.35" y="468.73">+</text>
<text x="137.15" y="21.30">.</text>
<text x="258.86" y="244.23">*</text>
<text x="360.38" y="148.84">.</text>
<text x="493.10" y="94.09">*</text>
<text x="458.22" y="333.84">.</text>
<text x="97.94" y="434.56">.</text>
<text x="226.26" y="272.24">.</text>
<text x="281.48" y="202.91">*</text>
<text x="251.06" y="76.57">+</text>
<text x="437.50" y="56.97">.</text>
<text x="478.63" y="443.78">.</text>
<text x="485.59" y="390.07">+</text>
<text x="400.93" y="419.68">+</text>
<text x="239.16" y="146.20">+</text>
<text x="11.27" y="285.02">+</text>
<text x="57.76" y="441.50">*</text>
<text x="223.36" y="337.88">.</text>
<text x="376.26" y="219.32">+</text>
<text x="81.47" y="361.33">+</text>
<text x="296.05" y="229.33">*</text>
<text x="382.36" y="319.73">+</text>
<text x="165.59" y="438.97">+</text>
<text x="274.80" y="452.87">.</text>
<text x="282.13" y="478.82">+</text>
<text x="157.96" y="154.69">.</text>
<text x="442.52" y="190.39">+</text>
<text x="436.72" y="11.70">*</text>
<text x="121.16" y="481.53">+</text>
<text x="174.25" y="87.11">.</text>
<text x="34.58" y="199.63">.</text>
<text x="243.31" y="29.10">+</text>
<text x="285.90" y="319.55">+</text>
<text x="125.71" y="134.38">+</text>
<text x="127.97" y="433.18">*</text>
<text x="447.03" y="393.12">.</text>
<text x="391.32" y="61.69">+</text>
<text x="446.04" y="27.02">+</text>
<text x="291.19" y="270.18">.</text>
<text x="106.41" y="132.33">*</text>
<text x="43.46" y="298.58">+</text>
<text x="9.69" y="458.88">*</text>
<text x="491.21" y="459.79">.</text>
<text x="239.32" y="227.16">+</text>
<text x="190.35" y="345.97">.</text>
<text x="161.44" y="323.82">.</text>
<text x="31.14" y="242.68">.</text>
<text x="22.30" y="371.64">*</text>
<text x="458.33" y="486.49">+</text>
<text x="148.00" y="236.75">.</text>
<text x="181.99" y="55.09">+</text>
<text x="278.73" y="490.52">.</text>
<text x="151.71" y="294.36">+</text>
<text x="354.89" y="130.60">+</text>
<text x="141.01" y="96.16">+</text>
<text x="248.03" y="227.51">+</text>
<text x="414.51" y="281.71">+</text>
<text x="247.27" y="476.54">+</text>
<text x="475.88" y="17.61">.</text>
<text x="90.47" y="214.11">+</text>
<text x="49.41" y="379.09">.</text>
<text x="16.28" y="245.87">.</text>
<text x="2.73" y="181.82">.</text>
<text x="466.38" y="264.74">+</text>
<text x="293.53" y="423.75">.</text>
<text x="18.75" y="3.52">+</text>
<text x="134.39" y="357.94">+</text>
<text x="246.46" y="149.11">.</text>
<text x="412.88" y="294.96">+</text>
<text x="493.16" y="21.89">*</text>
<text x="299.69" y="343.07">+</text>
<text x="375.75" y="43.29">.</text>
<text x="465.80" y="17.79">.</text>
<text x="156.53" y="480.89">+</text>
<text x="372.99" y="20.45">.</text>
<text x="287.51" y="294.58">+</text>
<text x="250.47" y="15.48">+</text>
<text x="45.58" y="361.75">+</text>
<text x="47.59" y="419.75">+</text>
<text x="331.69" y="24.08">.</text>
<text x="376.37" y="225.69">+</text>
<text x="343.03" y="240.46">.</text>
<text x="225.12" y="298.67">*</text>
<text x="12.71" y="255.09">.</text>
<text x="442.98" y="79.63">.</text>
<text x="72.17" y="297.28">.</text>
<text x="353.45" y="182.42">+</text>
<text x="414.84" y="108.36">+</text>
<text x="462.51" y="258.07">*</text>
<text x="340.24" y="331.15">.</text>
<text x="77.83" y="106.14">.</text>
<text x="357.82" y="171.20">+</text>
<text x="62.79" y="93.94">.</text>
<text x="177.81" y="172.33">+</text>
<text x="65.99" y="127.45">.</text>
<text x="220.23" y="128.59">+</text>
<text x="337.62" y="422.55">+</text>
<text x="153.48" y="84.21">+</text>
<text x="418.96" y="297.59">.</text>
<text x="139.58" y="361.95">.</text>
<text x="55.93" y="337.26">*</text>
<text x="361.41" y="13.49">.</text>
<text x="363.96" y="1.07">.</text>
<text x="293.67" y="447.51">+</text>
<text x="43.56" y="14.40">+</text>
<text x="15.64" y="11.25">.</text>
<text x="443.20" y="161.67">+</text>
<text x="419.33" y="179.02">.</text>
<text x="182.80" y="42.62">.</text>
<text x="223.71" y="0.85">+</text>
<text x="347.76" y="287.03">*</text>
<text x="304.23" y="72.66">.</text>
<text x="482.87" y="270.74">.</text>
<text x="40.93" y="331.87">+</text>
<text x="148.34" y="446.44">.</text>
<text x="163.20" y="86.39">*</text>
<text x="64.12" y="201.28">.</text>
<text x="126.82" y="266.75">*</text>
<text x="264.64" y="454.22">*</text>
<text x="283.08" y="112.60">+</text>
<text x="94.41" y="428.86">.</text>
<text x="404.45" y="314.69">+</text>
<text x="16.87" y="214.80">+</text>
<text x="353.99" y="303.37">.</text>
<text x="214.20" y="361.84">.</text>
<text x="401.81" y="479.47">.</text>
<text x="270.28" y="269.78">+</text>
<text x="461.90" y="471.48">+</text>
<text x="357.97" y="172.06">*</text>
<text x="339.85" y="254.31">+</text>
<text x="80.41" y="180.12">.</text>
<text x="471.49" y="323.54">+</text>
<text x="371.62" y="104.63">*</text>
<text x="137.89" y="388.55">.</text>
<text x="201.63" y="167.21">+</text>
<text x="271.80" y="355.30">*</text>
<text x="54.61" y="196.76">*</text>
<text x="397.77" y="189.76">+</text>
<text x="391.60" y="15.90">+</text>
<text x="448.79" y="407.04">+</text>
<text x="32.51" y="265.86">.</text>
<text x="281.62" y="86.03">+</text>
<text x="71.01" y="472.79">.</text>
<text x="237.37" y="422.97">.</text>
<text x="422.73" y="372.70">+</text>
<text x="213.51" y="190.25">+</text>
<text x="125.33" y="126.29">+</text>
<text x="16.07" y="335.01">*</text>
<text x="324.83" y="165.79">.</text>
<text x="169.52" y="235.89">.</text>
<text x="64.49" y="384.68">+</text>
<text x="245.39" y="432.48">.</text>
<text x="269.37" y="291.05">*</text>
<text x="102.52" y="3.79">*</text>
<text x="362.01" y="345.68">+</text>
<text x="145.72" y="46.55">+</text>
<text x="419.14" y="98.00">+</text>
<text x="4.09" y="40.13">*</text>
<text x="329.69" y="348.79">+</text>
<text x="128.55" y="242.88">.</text>
<text x="141.67" y="136.70">+</text>
<text x="129.09" y="242.86">+</text>
<text x="75.16" y="483.94">.</text>
<text x="425.39" y="107.39">.</text>
<text x="431.18" y="355.29">.</text>
<text x="341.49" y="330.92">+</text>
<text x="177.67" y="221.61">+</text>
<text x="14.15" y="222.41">+</text>
<text x="205.07" y="473.89">+</text>
<text x="73.55" y="209.12">.</text>
<text x="448.01" y="464.79">.</text>
<text x="374.49" y="342.15">*</text>
<text x="136.86" y="224.89">+</text>
<text x="329.27" y="402.27">.</text>
<text x="242.39" y="142.53">.</text>
<text x="47.40" y="148.48">+</text>
<text x="433.00" y="210.03">.</text>
<text x="104.58" y="380.38">+</text>
<text x="404.02" y="483.70">+</text>
<text x="346.65" y="412.92">*</text>
<text x="97.90" y="55.31">*</text>
<text x="395.45" y="31.44">+</text>
<text x="420.85" y="240.97">+</text>
<text x="383.17" y="405.56">+</text>
<text x="391.56" y="21.32">+</text>
<text x="300.31" y="307.21">.</text>
<text x="186.03" y="41.16">+</text>
<text x="41.08" y="81.04">.</text>
<text x="434.02" y="173.29">*</text>

</svg>