
<svg viewBox="0 0 500 500" xmlns="http://www.w.org/2000/svg" width="100%" height="100%" style="background-color: #0a0a14; font-family: 'Courier New', Courier, monospace;">
    <style>
        text { fill: #aaa; font-size: 10px; text-anchor: middle; dominant-baseline: middle; }
    </style>
    <text x="49.67" y="143.99">.</text>
<text x="43.36" y="342.43">+</text>
<text x="255.56" y="309.01">.</text>
<text x="343.91" y="171.39">+</text>
<text x="447.21" y="417.49">.</text>
<text x="78.93" y="366.94">*</text>
<text x="355.86" y="156.75">+</text>
<text x="489.33" y="470.16">.</text>
<text x="152.69" y="366.65">+</text>
<text x="71.50" y="331.14">.</text>
<text x="87.57" y="187.34">.</text>
<text x="150.99" y="457.42">.</text>
<text x="220.00" y="158.49">+</text>
<text x="495.74" y="288.38">+</text>
<text x="17.10" y="324.12">.</text>
<text x="217.53" y="4.74">+</text>
<text x="448.06" y="313.95">.</text>
<text x="293.66" y="240.45">+</text>
<text x="230.14" y="54.13">.</text>
<text x="367.06" y="416.36">+</text>
<text x="462.50" y="494.62">*</text>
<text x="237.61" y="453.40">+</text>
<text x="147.74" y="284.89">+</text>
<text x="103.00" y="217.13">*</text>
<text x="177.78" y="478.92">+</text>
<text x="485.20" y="321.11">+</text>
<text x="405.29" y="313.56">+</text>
<text x="37.30" y="194.05">.</text>
<text x="197.93" y="75.27">+</text>
<text x="458.54" y="30.62">+</text>
<text x="375.96" y="46.46">+</text>
<text x="187.04" y="327.02">*</text>
<text x="495.95" y="129.30">+</text>
<text x="439.31" y="9.13">+</text>
<text x="254.73" y="300.58">.</text>
<text x="28.72" y="379.56">.</text>
<text x="249.86" y="324.01">+</text>
<text x="67.41" y="356.67">+</text>
<text x="456.14" y="477.99">.</text>
<text x="447.13" y="81.66">*</text>
<text x="256.28" y="8.75">+</text>
<text x="155.23" y="39.30">+</text>
<text x="268.97" y="353.51">.</text>
<text x="275.67" y="331.38">.</text>
<text x="396.66" y="274.66">+</text>
<text x="160.72" y="441.39">.</text>
<text x="433.71" y="42.16">+</text>
<text x="112.88" y="403.75">.</text>
<text x="466.27" y="329.25">.</text>
<text x="295.58" y="321.57">+</text>
<text x="290.33" y="322.36">*</text>
<text x="170.07" y="13.70">+</text>
<text x="417.71" y="227.71">.</text>
<text x="234.20" y="469.46">+</text>
<text x="399.70" y="271.37">.</text>
<text x="478.90" y="217.08">.</text>
<text x="362.28" y="17.10">.</text>
<text x="479.00" y="259.02">+</text>
<text x="199.64" y="178.94">.</text>
<text x="367.53" y="159.21">.</text>
<text x="220.52" y="318.35">+</text>
<text x="158.64" y="67.04">*</text>
<text x="41.00" y="158.81">.</text>
<text x="493.83" y="395.87">+</text>
<text x="173.00" y="146.32">+</text>
<text x="43.35" y="190.72">*</text>
<text x="126.40" y="63.69">+</text>
<text x="169.64" y="378.36">*</text>
<text x="261.87" y="275.68">+</text>
<text x="208.11" y="235.41">+</text>
<text x="87.82" y="94.38">.</text>
<text x="309.89" y="271.83">+</text>
<text x="305.22" y="333.22">+</text>
<text x="24.65" y="52.93">+</text>
<text x="283.65" y="86.02">.</text>
<text x="340.84" y="87.97">.</text>
<text x="335.57" y="492.98">.</text>
<text x="326.96" y="458.30">*</text>
<text x="249.55" y="346.61">.</text>
<text x="469.79" y="228.44">+</text>
<text x="43.99" y="308.08">.</text>
<text x="285.52" y="422.64">.</text>
<text x="380.71" y="228.58">*</text>
<text x="492.79" y="292.59">+</text>
<text x="59.54" y="372.83">+</text>
<text x="205.50" y="457.15">+</text>
<text x="455.80" y="424.24">.</text>
<text x="216.90" y="499.01">*</text>
<text x="385.43" y="175.10">*</text>
<text x="233.77" y="401.44">+</text>
<text x="338.60" y="455.65">*</text>
<text x="395.64" y="223.27">*</text>
<text x="44.32" y="120.63">.</text>
<text x="122.11" y="39.88">+</text>
<text x="469.61" y="155.62">*</text>
<text x="74.46" y="157.61">*</text>
<text x="316.39" y="408.24">.</text>
<text x="250.05" y="147.75">+</text>
<text x="179.67" y="91.48">.</text>
<text x="260.55" y="74.56">*</text>
<text x="20.16" y="367.97">.</text>
<text x="333.66" y="354.00">.</text>
<text x="203.80" y="326.38">.</text>
<text x="147.20" y="86.93">.</text>
<text x="163.61" y="179.63">+</text>
<text x="95.61" y="77.97">.</text>
<text x="269.66" y="304.21">+</text>
<text x="10.81" y="419.97">+</text>
<text x="268.47" y="481.00">+</text>
<text x="390.32" y="366.51">+</text>
<text x="14.93" y="35.17">.</text>
<text x="169.92" y="75.73">.</text>
<text x="362.07" y="53.11">.</text>
<text x="138.64" y="286.64">.</text>
<text x="484.20" y="86.30">+</text>
<text x="15.43" y="177.22">+</text>
<text x="348.14" y="86.90">+</text>
<text x="378.19" y="40.50">.</text>
<text x="224.04" y="496.73">+</text>
<text x="386.73" y="241.23">*</text>
<text x="86.58" y="186.27">.</text>
<text x="129.64" y="232.83">.</text>
<text x="470.41" y="357.49">.</text>
<text x="272.76" y="27.06">*</text>
<text x="76.94" y="331.77">*</text>
<text x="196.46" y="103.48">.</text>
<text x="456.12" y="459.58">.</text>
<text x="379.54" y="123.94">*</text>
<text x="206.83" y="34.95">+</text>
<text x="22.62" y="477.92">*</text>
<text x="90.15" y="298.15">*</text>
<text x="248.70" y="350.29">*</text>
<text x="44.16" y="349.54">+</text>
<text x="123.45" y="50.84">.</text>
<text x="38.36" y="283.83">.</text>
<text x="220.64" y="170.15">+</text>
<text x="42.62" y="177.54">+</text>
<text x="413.55" y="495.53">+</text>
<text x="211.35" y="143.31">+</text>
<text x="145.46" y="333.08">+</text>
<text x="478.51" y="374.06">.</text>
<text x="18.44" y="416.12">+</text>
<text x="447.23" y="121.06">+</text>
<text x="424.93" y="136.84">+</text>
<text x="77.97" y="325.48">+</text>
<text x="168.26" y="444.26">.</text>
<text x="325.43" y="208.05">.</text>
<text x="482.25" y="26.80">+</text>
<text x="248.15" y="98.29">+</text>
<text x="485.29" y="325.86">+</text>
<text x="202.52" y="166.72">+</text>
<text x="301.72" y="29.93">.</text>
<text x="377.73" y="323.54">+</text>
<text x="364.69" y="261.28">.</text>
<text x="89.95" y="17.53">*</text>
<text x="284.02" y="166.46">+</text>
<text x="422.49" y="407.30">+</text>
<text x="274.29" y="137.96">*</text>
<text x="343.17" y="43.50">+</text>
<text x="445.70" y="174.28">*</text>
<text x="488.47" y="249.89">.</text>
<text x="230.36" y="494.21">+</text>
<text x="317.50" y="162.60">.</text>
<text x="348.51" y="128.12">+</text>
<text x="63.71" y="272.34">+</text>
<text x="462.32" y="175.95">+</text>
<text x="94.34" y="392.13">*</text>
<text x="496.38" y="170.87">+</text>
<text x="101.10" y="461.23">*</text>
<text x="215.42" y="213.95">.</text>
<text x="27.43" y="499.87">.</text>
<text x="240.67" y="432.61">.</text>
<text x="307.33" y="344.15">+</text>
<text x="222.75" y="220.68">.</text>
<text x="235.49" y="276.90">+</text>
<text x="347.77" y="463.94">.</text>
<text x="160.18" y="369.18">*</text>
<text x="392.39" y="460.84">+</text>
<text x="404.61" y="264.81">*</text>
<text x="207.63" y="349.42">+</text>
<text x="160.50" y="132.59">+</text>
<text x="292.72" y="109.64">+</text>
<text x="276.48" y="222.63">+</text>
<text x="325.80" y="40.75">+</text>
<text x="356.15" y="63.92">+</text>
<text x="468.14" y="385.61">+</text>
<text x="189.33" y="452.71">.</text>
<text x="448.68" y="74.83">+</text>
<text x="193.75" y="196.59">.</text>
<text x="416.84" y="130.10">*</text>
<text x="468.18" y="352.17">+</text>
<text x="294.02" y="232.51">+</text>
<text x="209.95" y="495.71">.</text>
<text x="170.43" y="481.53">.</text>
<text x="273.32" y="55.57">.</text>
<text x="371.37" y="184.36">+</text>
<text x="447.09" y="68.93">+</text>
<text x="456.76" y="353.04">.</text>
<text x="309.12" y="355.83">+</text>
<text x="326.86" y="334.14">.</text>
<text x="155.95" y="116.16">+</text>
<text x="441.53" y="381.71">.</text>
<text x="44.31" y="122.94">.</text>
<text x="342.88" y="52.59">*</text>
<text x="326.22" y="150.55">*</text>
<text x="478.64" y="155.20">.</text>
<text x="416.66" y="291.17">+</text>
<text x="168.22" y="393.81">.</text>
<text x="323.25" y="178.08">+</text>
<text x="323.40" y="363.29">*</text>
<text x="147.36" y="248.32">.</text>
<text x="4.10" y="416.91">*</text>
<text x="3.27" y="76.69">+</text>
<text x="186.48" y="89.81">*</text>
<text x="175.94" y="236.21">+</text>
<text x="387.56" y="313.51">.</text>
<text x="84.00" y="143.21">+</text>
<text x="314.27" y="402.33">.</text>
<text x="320.77" y="145.84">.</text>
<text x="360.71" y="350.40">.</text>
<text x="469.27" y="327.02">+</text>

</svg>