
<svg viewBox="0 0 500 500" xmlns="http://www.w.org/2000/svg" width="100%" height="100%" style="background-color: #0a0a14; font-family: 'Courier New', Courier, monospace;">
    <style>
        text { fill: #aaa; font-size: 10px; text-anchor: middle; dominant-baseline: middle; }
    </style>
    <text x="42.26" y="29.20">+</text>
<text x="295.14" y="132.99">.</text>
<text x="241.20" y="87.23">*</text>
<text x="269.09" y="283.70">*</text>
<text x="242.84" y="335.03">.</text>
<text x="178.13" y="293.53">.</text>
<text x="248.23" y="325.64">+</text>
<text x="98.81" y="240.56">*</text>
<text x="386.95" y="219.23">*</text>
<text x="167.52" y="135.63">+</text>
<text x="257.92" y="68.01">.</text>
<text x="147.90" y="396.73">+</text>
<text x="115.17" y="191.54">+</text>
<text x="447.96" y="186.06">+</text>
<text x="455.62" y="235.86">.</text>
<text x="169.76" y="418.61">*</text>
<text x="434.65" y="290.58">.</text>
<text x="134.43" y="441.76">.</text>
<text x="107.48" y="461.60">*</text>
<text x="403.10" y="271.16">+</text>
<text x="449.62" y="158.35">*</text>
<text x="251.16" y="471.38">.</text>
<text x="117.82" y="76.45">*</text>
<text x="315.41" y="25.65">.</text>
<text x="235.33" y="230.07">+</text>
<text x="175.20" y="84.39">+</text>
<text x="310.48" y="90.48">+</text>
<text x="430.55" y="463.04">.</text>
<text x="52.06" y="299.90">*</text>
<text x="311.66" y="203.97">+</text>
<text x="137.21" y="22.11">.</text>
<text x="0.94" y="49.45">+</text>
<text x="275.40" y="419.22">+</text>
<text x="251.08" y="95.41">+</text>
<text x="85.23" y="22.54">.</text>
<text x="226.59" y="414.10">+</text>
<text x="369.74" y="452.26">+</text>
<text x="36.82" y="366.41">+</text>
<text x="320.46" y="302.14">*</text>
<text x="346.63" y="228.12">.</text>
<text x="230.83" y="85.60">.</text>
<text x="194.01" y="479.67">.</text>
<text x="238.90" y="49.79">+</text>
<text x="100.35" y="246.02">+</text>
<text x="221.19" y="280.87">+</text>
<text x="81.20" y="342.57">+</text>
<text x="369.76" y="223.18">*</text>
<text x="81.07" y="363.88">+</text>
<text x="408.16" y="18.78">.</text>
<text x="43.98" y="254.24">+</text>
<text x="332.23" y="147.88">.</text>
<text x="121.11" y="313.32">+</text>
<text x="116.34" y="194.09">*</text>
<text x="423.73" y="201.98">+</text>
<text x="39.50" y="397.02">.</text>
<text x="12.87" y="491.18">+</text>
<text x="20.43" y="93.61">+</text>
<text x="101.56" y="345.63">+</text>
<text x="217.83" y="384.83">+</text>
<text x="238.38" y="257.19">*</text>
<text x="459.20" y="292.77">+</text>
<text x="111.06" y="490.60">.</text>
<text x="275.07" y="499.11">.</text>
<text x="300.58" y="324.49">+</text>
<text x="290.30" y="67.71">+</text>
<text x="113.37" y="295.58">*</text>
<text x="283.58" y="149.69">.</text>
<text x="132.52" y="434.79">.</text>
<text x="318.22" y="359.61">.</text>
<text x="113.24" y="266.23">.</text>
<text x="31.56" y="426.28">*</text>
<text x="493.31" y="132.47">.</text>
<text x="112.39" y="22.78">.</text>
<text x="301.58" y="202.99">.</text>
<text x="244.86" y="285.18">+</text>
<text x="141.49" y="377.18">+</text>
<text x="406.60" y="472.64">+</text>
<text x="326.81" y="402.65">.</text>
<text x="11.49" y="472.32">+</text>
<text x="307.50" y="487.62">.</text>
<text x="255.89" y="115.45">*</text>
<text x="312.05" y="411.00">*</text>
<text x="469.42" y="267.74">.</text>
<text x="80.76" y="173.08">*</text>
<text x="295.24" y="144.28">+</text>
<text x="474.04" y="358.44">.</text>
<text x="324.12" y="102.18">.</text>
<text x="201.85" y="469.18">*</text>
<text x="112.05" y="427.23">+</text>
<text x="35.85" y="201.79">+</text>
<text x="19.23" y="114.53">*</text>
<text x="452.70" y="20.83">.</text>
<text x="247.10" y="205.59">+</text>
<text x="248.68" y="291.86">*</text>
<text x="266.98" y="152.74">.</text>
<text x="109.24" y="473.53">.</text>
<text x="129.39" y="64.64">.</text>
<text x="297.90" y="425.13">.</text>
<text x="374.37" y="420.15">+</text>
<text x="328.12" y="480.74">*</text>
<text x="75.56" y="380.36">+</text>
<text x="442.70" y="220.16">*</text>
<text x="285.87" y="281.97">.</text>
<text x="310.96" y="257.15">+</text>
<text x="131.19" y="309.01">.</text>
<text x="18.45" y="54.14">+</text>
<text x="98.72" y="248.22">+</text>
<text x="26.04" y="395.41">*</text>
<text x="88.84" y="334.98">*</text>
<text x="425.21" y="437.74">*</text>
<text x="459.17" y="218.76">.</text>
<text x="469.62" y="88.05">+</text>
<text x="345.66" y="246.05">.</text>
<text x="403.14" y="69.49">+</text>
<text x="262.07" y="217.19">*</text>
<text x="273.38" y="26.60">*</text>
<text x="456.03" y="16.39">+</text>
<text x="341.93" y="436.53">+</text>
<text x="198.76" y="354.34">*</text>
<text x="289.27" y="495.75">+</text>
<text x="79.00" y="443.49">+</text>
<text x="468.65" y="200.75">+</text>
<text x="395.84" y="370.83">*</text>
<text x="347.15" y="20.17">*</text>
<text x="215.53" y="45.19">.</text>
<text x="475.22" y="223.00">+</text>
<text x="43.53" y="234.13">.</text>
<text x="213.02" y="14.13">*</text>
<text x="33.51" y="56.37">.</text>
<text x="70.65" y="19.66">.</text>
<text x="362.36" y="339.37">+</text>
<text x="406.97" y="203.15">+</text>
<text x="172.96" y="190.21">+</text>
<text x="301.91" y="483.10">.</text>
<text x="93.29" y="471.45">*</text>
<text x="69.95" y="311.60">*</text>
<text x="217.12" y="442.48">.</text>
<text x="234.92" y="30.94">.</text>
<text x="143.72" y="261.83">*</text>
<text x="348.02" y="111.14">.</text>
<text x="201.29" y="299.56">.</text>
<text x="224.99" y="278.23">.</text>
<text x="285.26" y="22.95">.</text>
<text x="278.43" y="433.30">.</text>
<text x="330.80" y="208.38">*</text>
<text x="204.86" y="236.32">.</text>
<text x="258.41" y="444.53">*</text>
<text x="63.74" y="17.25">+</text>
<text x="3.06" y="138.29">.</text>
<text x="145.56" y="183.33">.</text>
<text x="67.42" y="252.42">.</text>
<text x="291.39" y="374.45">.</text>
<text x="379.23" y="484.06">.</text>
<text x="201.76" y="385.30">+</text>
<text x="123.14" y="279.71">+</text>
<text x="247.96" y="275.05">.</text>
<text x="193.21" y="474.91">+</text>
<text x="242.92" y="396.32">*</text>
<text x="365.24" y="187.43">.</text>
<text x="11.79" y="400.07">.</text>
<text x="474.03" y="431.02">.</text>
<text x="292.18" y="155.15">.</text>
<text x="239.30" y="174.13">+</text>
<text x="156.64" y="216.88">+</text>
<text x="249.04" y="164.22">.</text>
<text x="421.61" y="468.29">.</text>
<text x="172.98" y="358.89">+</text>
<text x="478.01" y="327.13">+</text>
<text x="66.20" y="489.69">.</text>
<text x="189.70" y="78.27">.</text>
<text x="39.29" y="341.20">.</text>
<text x="101.81" y="487.37">+</text>
<text x="301.00" y="62.09">+</text>
<text x="28.91" y="25.52">+</text>
<text x="1.14" y="151.11">.</text>
<text x="44.20" y="215.02">+</text>
<text x="148.01" y="211.92">+</text>
<text x="153.72" y="334.56">.</text>
<text x="388.25" y="359.40">+</text>
<text x="41.18" y="465.89">*</text>
<text x="102.49" y="306.55">+</text>
<text x="77.36" y="358.91">+</text>
<text x="408.91" y="97.71">.</text>
<text x="399.57" y="409.22">+</text>
<text x="386.33" y="410.51">+</text>
<text x="126.10" y="16.25">.</text>
<text x="251.35" y="477.33">+</text>
<text x="281.31" y="307.15">+</text>
<text x="282.14" y="351.18">*</text>
<text x="385.37" y="375.22">+</text>
<text x="440.47" y="363.33">.</text>
<text x="29.33" y="481.78">+</text>
<text x="103.39" y="374.43">+</text>
<text x="75.60" y="44.52">+</text>
<text x="152.83" y="246.83">+</text>
<text x="115.97" y="380.04">+</text>
<text x="133.61" y="252.51">.</text>
<text x="33.71" y="411.66">.</text>
<text x="176.14" y="121.12">+</text>
<text x="246.88" y="260.84">+</text>
<text x="413.74" y="186.50">.</text>
<text x="111.24" y="305.03">*</text>
<text x="237.15" y="128.97">.</text>
<text x="465.71" y="18.36">.</text>
<text x="360.72" y="395.46">.</text>
<text x="272.10" y="197.00">+</text>
<text x="341.90" y="50.60">.</text>
<text x="52.96" y="55.71">+</text>
<text x="120.13" y="0.16">*</text>
<text x="303.45" y="435.86">+</text>
<text x="43.73" y="317.43">+</text>

</svg>