
<svg viewBox="0 0 500 500" xmlns="http://www.w.org/2000/svg" width="100%" height="100%" style="background-color: #0a0a14; font-family: 'Courier New', Courier, monospace;">
    <style>
        text { fill: #aaa; font-size: 10px; text-anchor: middle; dominant-baseline: middle; }
    </style>
    <text x="409.84" y="124.92">.</text>
<text x="284.01" y="1.73">+</text>
<text x="218.25" y="224.85">.</text>
<text x="290.97" y="51.90">+</text>
<text x="239.42" y="135.24">.</text>
<text x="407.96" y="71.13">.</text>
<text x="260.83" y="75.35">.</text>
<text x="303.21" y="291.57">.</text>
<text x="219.46" y="307.64">.</text>
<text x="394.37" y="282.75">*</text>
<text x="372.20" y="425.02">+</text>
<text x="416.83" y="405.63">.</text>
<text x="475.09" y="180.84">*</text>
<text x="488.76" y="482.99">+</text>
<text x="270.85" y="317.25">.</text>
<text x="61.57" y="184.28">.</text>
<text x="263.91" y="341.61">+</text>
<text x="143.56" y="81.00">*</text>
<text x="205.43" y="74.87">+</text>
<text x="35.83" y="454.87">+</text>
<text x="76.76" y="16.41">+</text>
<text x="318.03" y="157.89">+</text>
<text x="332.74" y="476.02">.</text>
<text x="235.42" y="453.76">+</text>
<text x="233.22" y="287.50">+</text>
<text x="403.30" y="112.35">*</text>
<text x="201.36" y="235.22">.</text>
<text x="240.87" y="347.86">+</text>
<text x="371.27" y="44.10">+</text>
<text x="108.34" y="25.94">.</text>
<text x="395.82" y="279.58">+</text>
<text x="179.22" y="338.72">*</text>
<text x="40.77" y="208.53">.</text>
<text x="401.81" y="151.03">+</text>
<text x="373.39" y="367.55">*</text>
<text x="219.81" y="120.35">.</text>
<text x="313.78" y="96.57">.</text>
<text x="121.40" y="369.17">+</text>
<text x="77.48" y="413.04">.</text>
<text x="471.48" y="442.89">+</text>
<text x="108.66" y="352.23">+</text>
<text x="239.62" y="72.28">.</text>
<text x="499.24" y="406.46">+</text>
<text x="438.49" y="296.68">.</text>
<text x="1.48" y="357.26">+</text>
<text x="24.55" y="396.54">.</text>
<text x="412.14" y="225.15">+</text>
<text x="349.53" y="87.79">*</text>
<text x="43.43" y="430.07">.</text>
<text x="108.45" y="325.89">+</text>
<text x="461.09" y="85.77">+</text>
<text x="470.29" y="292.69">.</text>
<text x="494.97" y="352.11">.</text>
<text x="3.98" y="286.70">.</text>
<text x="498.10" y="52.65">.</text>
<text x="72.72" y="425.24">+</text>
<text x="499.17" y="336.21">+</text>
<text x="364.62" y="219.46">+</text>
<text x="207.21" y="79.65">+</text>
<text x="422.60" y="329.54">+</text>
<text x="360.48" y="150.52">*</text>
<text x="472.37" y="27.36">+</text>
<text x="395.83" y="248.65">*</text>
<text x="143.10" y="363.12">.</text>
<text x="12.57" y="169.74">+</text>
<text x="406.61" y="68.89">+</text>
<text x="308.07" y="256.15">+</text>
<text x="211.63" y="286.65">.</text>
<text x="346.30" y="128.37">*</text>
<text x="379.34" y="208.91">+</text>
<text x="142.49" y="208.43">+</text>
<text x="262.81" y="313.65">.</text>
<text x="316.62" y="269.89">*</text>
<text x="73.78" y="240.44">+</text>
<text x="237.03" y="497.71">+</text>
<text x="46.38" y="487.78">+</text>
<text x="398.24" y="293.33">.</text>
<text x="401.99" y="470.91">.</text>
<text x="254.34" y="480.11">*</text>
<text x="474.51" y="356.36">.</text>
<text x="404.64" y="95.71">.</text>
<text x="290.35" y="210.40">+</text>
<text x="289.65" y="480.08">+</text>
<text x="66.59" y="199.15">+</text>
<text x="156.98" y="458.39">.</text>
<text x="147.46" y="348.47">+</text>
<text x="481.79" y="243.44">*</text>
<text x="232.36" y="427.08">.</text>
<text x="404.14" y="27.12">+</text>
<text x="335.88" y="438.74">+</text>
<text x="410.69" y="316.54">+</text>
<text x="255.87" y="120.49">+</text>
<text x="421.73" y="53.15">+</text>
<text x="93.18" y="56.04">+</text>
<text x="66.46" y="239.93">+</text>
<text x="193.09" y="402.54">.</text>
<text x="359.30" y="73.50">+</text>
<text x="10.15" y="84.55">+</text>
<text x="92.79" y="388.02">.</text>
<text x="161.89" y="149.05">*</text>
<text x="21.35" y="424.16">+</text>
<text x="471.99" y="444.37">+</text>
<text x="435.60" y="349.11">.</text>
<text x="89.96" y="179.36">.</text>
<text x="135.64" y="272.48">.</text>
<text x="264.76" y="159.77">*</text>
<text x="428.88" y="26.87">+</text>
<text x="474.63" y="376.03">+</text>
<text x="449.56" y="266.80">.</text>
<text x="227.37" y="252.33">.</text>
<text x="249.32" y="211.31">.</text>
<text x="160.17" y="96.30">.</text>
<text x="8.42" y="20.54">.</text>
<text x="256.07" y="412.28">+</text>
<text x="30.03" y="175.98">+</text>
<text x="308.74" y="202.87">+</text>
<text x="453.09" y="291.57">*</text>
<text x="78.30" y="408.57">.</text>
<text x="79.01" y="383.11">+</text>
<text x="380.86" y="51.38">+</text>
<text x="99.99" y="307.06">+</text>
<text x="266.22" y="112.85">+</text>
<text x="283.09" y="111.10">+</text>
<text x="388.05" y="294.38">.</text>
<text x="488.61" y="343.99">.</text>
<text x="52.70" y="90.81">.</text>
<text x="79.48" y="125.95">.</text>
<text x="286.06" y="272.68">+</text>
<text x="385.35" y="214.13">+</text>
<text x="238.39" y="62.65">.</text>
<text x="5.89" y="492.56">+</text>
<text x="99.26" y="266.02">.</text>
<text x="372.48" y="321.76">.</text>
<text x="260.97" y="110.26">+</text>
<text x="189.69" y="229.33">.</text>
<text x="205.37" y="182.06">*</text>
<text x="281.91" y="32.79">+</text>
<text x="350.23" y="316.95">+</text>
<text x="21.46" y="44.26">*</text>
<text x="356.97" y="220.10">.</text>
<text x="223.64" y="184.17">+</text>
<text x="10.70" y="346.90">+</text>
<text x="119.88" y="406.73">.</text>
<text x="169.87" y="92.34">*</text>
<text x="436.11" y="26.80">*</text>
<text x="93.90" y="65.07">.</text>
<text x="9.60" y="378.50">*</text>
<text x="233.97" y="430.19">+</text>
<text x="121.33" y="171.35">.</text>
<text x="159.05" y="403.62">.</text>
<text x="478.74" y="492.03">.</text>
<text x="38.94" y="100.63">+</text>
<text x="332.85" y="295.58">+</text>
<text x="295.33" y="111.40">*</text>
<text x="109.52" y="186.96">+</text>
<text x="10.96" y="88.27">.</text>
<text x="399.64" y="422.04">+</text>
<text x="37.63" y="497.17">+</text>
<text x="490.22" y="318.18">+</text>
<text x="337.73" y="234.38">+</text>
<text x="133.92" y="425.01">+</text>
<text x="27.40" y="150.13">.</text>
<text x="486.54" y="86.16">+</text>
<text x="414.12" y="203.30">+</text>
<text x="425.71" y="499.39">+</text>
<text x="156.69" y="27.79">.</text>
<text x="152.34" y="426.07">+</text>
<text x="15.76" y="336.79">*</text>
<text x="96.18" y="161.86">+</text>
<text x="31.34" y="67.54">*</text>
<text x="33.24" y="384.04">+</text>
<text x="409.44" y="26.59">.</text>
<text x="239.91" y="255.70">.</text>
<text x="251.04" y="389.14">*</text>
<text x="198.39" y="147.02">*</text>
<text x="380.44" y="394.35">.</text>
<text x="80.45" y="245.67">.</text>
<text x="494.97" y="465.69">.</text>
<text x="314.80" y="214.69">*</text>
<text x="413.01" y="308.89">*</text>
<text x="248.39" y="213.53">.</text>
<text x="7.43" y="376.19">+</text>
<text x="65.73" y="96.30">+</text>
<text x="234.93" y="381.94">+</text>
<text x="32.67" y="430.05">+</text>
<text x="332.47" y="48.26">.</text>
<text x="96.05" y="262.15">.</text>
<text x="251.75" y="339.60">.</text>
<text x="147.67" y="127.83">*</text>
<text x="391.74" y="24.01">*</text>
<text x="442.04" y="467.13">.</text>
<text x="49.92" y="328.15">+</text>
<text x="227.12" y="446.88">.</text>
<text x="206.40" y="156.39">+</text>
<text x="371.14" y="217.87">*</text>
<text x="127.29" y="327.16">.</text>
<text x="118.12" y="75.73">+</text>
<text x="200.14" y="292.10">+</text>
<text x="178.20" y="329.32">*</text>
<text x="66.18" y="354.93">.</text>
<text x="266.09" y="84.68">.</text>
<text x="470.63" y="127.25">.</text>
<text x="76.87" y="422.74">.</text>
<text x="230.86" y="294.49">.</text>
<text x="403.70" y="316.80">*</text>
<text x="4.81" y="85.04">.</text>
<text x="77.92" y="49.94">+</text>
<text x="482.19" y="114.38">*</text>
<text x="43.73" y="395.48">+</text>
<text x="372.40" y="359.33">+</text>
<text x="80.21" y="275.52">+</text>
<text x="133.92" y="5.92">.</text>

</svg>