
<svg viewBox="0 0 500 500" xmlns="http://www.w.org/2000/svg" width="100%" height="100%" style="background-color: #0a0a14; font-family: 'Courier New', Courier, monospace;">
    <style>
        text { fill: #aaa; font-size: 10px; text-anchor: middle; dominant-baseline: middle; }
    </style>
    <text x="160.06" y="489.17">+</text>
<text x="51.32" y="132.39">.</text>
<text x="242.84" y="92.99">+</text>
<text x="434.34" y="133.29">*</text>
<text x="132.17" y="334.48">.</text>
<text x="235.25" y="297.87">.</text>
<text x="258.86" y="347.14">.</text>
<text x="22.01" y="53.64">.</text>
<text x="109.47" y="481.32">+</text>
<text x="241.36" y="32.70">.</text>
<text x="91.17" y="3.16">+</text>
<text x="77.27" y="200.42">+</text>
<text x="407.86" y="422.78">.</text>
<text x="79.71" y="175.31">*</text>
<text x="310.36" y="361.68">+</text>
<text x="140.02" y="74.52">+</text>
<text x="324.84" y="71.44">.</text>
<text x="118.83" y="497.21">.</text>
<text x="249.45" y="42.21">+</text>
<text x="355.12" y="248.29">.</text>
<text x="115.45" y="28.85">.</text>
<text x="33.73" y="398.48">.</text>
<text x="476.29" y="190.73">.</text>
<text x="45.13" y="86.31">+</text>
<text x="100.95" y="181.20">.</text>
<text x="85.99" y="386.44">*</text>
<text x="417.46" y="319.86">*</text>
<text x="378.75" y="4.58">+</text>
<text x="80.03" y="179.66">+</text>
<text x="109.01" y="494.07">.</text>
<text x="337.50" y="454.56">.</text>
<text x="342.08" y="367.49">.</text>
<text x="34.57" y="396.95">.</text>
<text x="166.95" y="445.74">+</text>
<text x="263.48" y="357.50">*</text>
<text x="375.07" y="51.58">.</text>
<text x="324.46" y="55.33">+</text>
<text x="245.64" y="489.60">+</text>
<text x="387.83" y="154.12">.</text>
<text x="169.86" y="219.87">.</text>
<text x="394.26" y="349.54">+</text>
<text x="117.37" y="308.19">*</text>
<text x="393.97" y="55.28">*</text>
<text x="113.77" y="211.98">.</text>
<text x="59.04" y="447.70">+</text>
<text x="134.13" y="490.59">.</text>
<text x="221.67" y="213.90">.</text>
<text x="199.97" y="358.38">.</text>
<text x="55.23" y="400.13">.</text>
<text x="313.78" y="300.64">.</text>
<text x="194.49" y="32.75">.</text>
<text x="327.06" y="290.99">.</text>
<text x="453.06" y="444.57">+</text>
<text x="109.10" y="226.04">*</text>
<text x="13.10" y="162.36">*</text>
<text x="298.13" y="91.41">+</text>
<text x="103.21" y="499.29">.</text>
<text x="424.22" y="91.67">+</text>
<text x="440.22" y="156.40">+</text>
<text x="443.62" y="342.61">.</text>
<text x="471.45" y="317.49">+</text>
<text x="232.15" y="23.26">.</text>
<text x="311.53" y="39.89">+</text>
<text x="89.63" y="281.80">.</text>
<text x="305.34" y="368.57">.</text>
<text x="254.01" y="335.61">+</text>
<text x="175.04" y="305.52">.</text>
<text x="11.39" y="455.97">+</text>
<text x="376.19" y="241.65">+</text>
<text x="487.98" y="4.37">+</text>
<text x="137.50" y="11.57">+</text>
<text x="376.77" y="0.80">.</text>
<text x="28.88" y="259.51">.</text>
<text x="358.46" y="8.28">+</text>
<text x="16.11" y="84.53">.</text>
<text x="247.58" y="362.01">.</text>
<text x="483.17" y="151.24">+</text>
<text x="89.85" y="449.09">.</text>
<text x="274.01" y="263.81">+</text>
<text x="285.81" y="220.10">*</text>
<text x="315.36" y="327.12">.</text>
<text x="225.04" y="113.63">*</text>
<text x="131.80" y="147.85">.</text>
<text x="74.20" y="297.23">.</text>
<text x="124.33" y="381.52">+</text>
<text x="42.90" y="378.33">.</text>
<text x="347.01" y="60.94">.</text>
<text x="490.72" y="136.81">+</text>
<text x="259.13" y="59.07">.</text>
<text x="115.01" y="259.78">+</text>
<text x="227.97" y="279.15">+</text>
<text x="124.02" y="158.17">.</text>
<text x="20.24" y="116.61">.</text>
<text x="283.62" y="115.14">.</text>
<text x="2.73" y="462.36">.</text>
<text x="424.60" y="442.05">+</text>
<text x="421.53" y="388.64">.</text>
<text x="314.40" y="80.73">.</text>
<text x="159.29" y="196.81">+</text>
<text x="428.29" y="484.21">+</text>
<text x="274.94" y="281.47">+</text>
<text x="281.45" y="326.24">+</text>
<text x="261.47" y="18.83">+</text>
<text x="350.17" y="153.83">.</text>
<text x="362.89" y="378.70">+</text>
<text x="316.19" y="47.15">+</text>
<text x="269.06" y="248.37">+</text>
<text x="277.55" y="442.96">.</text>
<text x="207.56" y="476.42">.</text>
<text x="275.01" y="157.59">.</text>
<text x="198.04" y="394.15">*</text>
<text x="306.76" y="329.39">.</text>
<text x="478.82" y="11.76">.</text>
<text x="263.54" y="32.49">+</text>
<text x="24.78" y="265.87">+</text>
<text x="187.08" y="159.18">+</text>
<text x="326.45" y="479.42">+</text>
<text x="101.35" y="372.43">.</text>
<text x="235.01" y="358.62">+</text>
<text x="307.96" y="323.07">+</text>
<text x="210.43" y="345.32">+</text>
<text x="234.93" y="91.68">+</text>
<text x="90.36" y="253.39">+</text>
<text x="314.06" y="475.92">.</text>
<text x="484.19" y="14.38">+</text>
<text x="243.41" y="143.49">.</text>
<text x="132.09" y="451.99">+</text>
<text x="433.58" y="15.36">+</text>
<text x="462.69" y="98.17">.</text>
<text x="226.49" y="198.44">.</text>
<text x="214.85" y="468.86">+</text>
<text x="187.19" y="221.39">.</text>
<text x="144.55" y="452.51">*</text>
<text x="204.49" y="448.78">+</text>
<text x="493.89" y="66.41">*</text>
<text x="200.74" y="17.88">+</text>
<text x="444.92" y="303.65">+</text>
<text x="321.02" y="23.89">+</text>
<text x="451.03" y="286.17">.</text>
<text x="36.27" y="270.12">+</text>
<text x="408.95" y="80.79">.</text>
<text x="494.89" y="126.75">.</text>
<text x="235.45" y="450.99">.</text>
<text x="495.62" y="75.69">*</text>
<text x="81.91" y="113.93">.</text>
<text x="73.95" y="84.31">.</text>
<text x="47.15" y="37.67">+</text>
<text x="143.21" y="203.00">.</text>
<text x="474.50" y="267.00">.</text>
<text x="258.67" y="490.45">+</text>
<text x="477.98" y="355.35">*</text>
<text x="89.57" y="424.53">.</text>
<text x="436.47" y="354.02">.</text>
<text x="300.30" y="185.67">+</text>
<text x="364.27" y="360.46">.</text>
<text x="408.05" y="157.38">.</text>
<text x="428.07" y="235.92">.</text>
<text x="53.86" y="11.14">.</text>
<text x="56.46" y="287.51">.</text>
<text x="198.39" y="286.99">+</text>
<text x="156.55" y="410.14">.</text>
<text x="155.87" y="22.05">*</text>
<text x="155.80" y="204.27">.</text>
<text x="379.22" y="14.98">+</text>
<text x="136.65" y="472.09">+</text>
<text x="113.29" y="309.47">.</text>
<text x="12.57" y="149.40">*</text>
<text x="132.22" y="465.53">+</text>
<text x="7.24" y="275.26">+</text>
<text x="339.57" y="59.30">+</text>
<text x="24.32" y="106.44">+</text>
<text x="436.70" y="327.35">.</text>
<text x="54.35" y="175.39">.</text>
<text x="96.58" y="219.16">*</text>
<text x="307.36" y="393.22">*</text>
<text x="17.27" y="318.54">+</text>
<text x="328.58" y="482.24">+</text>
<text x="171.32" y="42.00">+</text>
<text x="261.78" y="281.01">.</text>
<text x="497.14" y="266.60">*</text>
<text x="59.82" y="110.94">+</text>
<text x="354.02" y="488.17">.</text>
<text x="27.07" y="465.44">+</text>
<text x="142.36" y="120.25">.</text>
<text x="385.02" y="131.27">.</text>
<text x="80.77" y="208.20">.</text>
<text x="191.77" y="374.27">.</text>
<text x="366.51" y="471.90">.</text>
<text x="295.00" y="12.44">*</text>
<text x="422.24" y="242.46">+</text>
<text x="305.56" y="246.68">*</text>
<text x="44.59" y="188.14">.</text>
<text x="404.96" y="391.16">+</text>
<text x="174.14" y="104.91">.</text>
<text x="435.88" y="168.34">+</text>
<text x="266.97" y="119.17">*</text>
<text x="7.55" y="316.50">+</text>
<text x="272.98" y="488.03">+</text>
<text x="179.85" y="432.25">*</text>
<text x="239.92" y="224.11">+</text>
<text x="466.16" y="42.41">*</text>
<text x="117.46" y="36.84">.</text>
<text x="304.93" y="72.58">.</text>
<text x="398.97" y="393.31">+</text>
<text x="328.92" y="453.07">.</text>
<text x="2.02" y="77.05">+</text>
<text x="312.52" y="345.37">+</text>
<text x="352.18" y="422.24">.</text>
<text x="479.70" y="117.14">+</text>
<text x="463.80" y="119.05">.</text>
<text x="158.59" y="458.71">+</text>
<text x="368.33" y="301.85">*</text>
<text x="441.57" y="470.92">.</text>

</svg>