
<svg viewBox="0 0 500 500" xmlns="http://www.w.org/2000/svg" width="100%" height="100%" style="background-color: #0a0a14; font-family: 'Courier New', Courier, monospace;">
    <style>
        text { fill: #aaa; font-size: 10px; text-anchor: middle; dominant-baseline: middle; }
    </style>
    <text x="34.96" y="62.96">+</text>
<text x="408.34" y="28.91">+</text>
<text x="470.28" y="304.16">.</text>
<text x="310.48" y="225.75">+</text>
<text x="161.92" y="447.17">+</text>
<text x="251.71" y="114.23">.</text>
<text x="351.36" y="235.99">+</text>
<text x="294.68" y="397.89">.</text>
<text x="92.21" y="168.28">.</text>
<text x="430.77" y="91.55">*</text>
<text x="417.20" y="481.59">+</text>
<text x="218.96" y="100.31">.</text>
<text x="181.36" y="54.71">+</text>
<text x="265.65" y="218.79">+</text>
<text x="331.31" y="441.95">+</text>
<text x="68.61" y="96.68">.</text>
<text x="28.56" y="399.10">.</text>
<text x="245.22" y="328.11">+</text>
<text x="438.41" y="395.60">+</text>
<text x="61.98" y="281.37">+</text>
<text x="379.75" y="258.16">+</text>
<text x="60.84" y="325.44">.</text>
<text x="426.94" y="438.18">*</text>
<text x="59.91" y="335.27">.</text>
<text x="290.17" y="222.35">+</text>
<text x="237.90" y="364.78">+</text>
<text x="86.23" y="49.69">.</text>
<text x="245.42" y="87.76">.</text>
<text x="110.40" y="398.44">.</text>
<text x="356.11" y="156.25">+</text>
<text x="269.53" y="120.71">.</text>
<text x="24.75" y="282.14">.</text>
<text x="8.32" y="188.33">.</text>
<text x="2.27" y="289.71">+</text>
<text x="252.82" y="118.17">.</text>
<text x="447.46" y="107.80">.</text>
<text x="64.20" y="396.65">*</text>
<text x="252.27" y="352.85">+</text>
<text x="168.23" y="114.87">+</text>
<text x="276.51" y="12.47">+</text>
<text x="345.74" y="194.84">+</text>
<text x="496.50" y="304.39">.</text>
<text x="462.39" y="117.81">+</text>
<text x="206.34" y="425.68">+</text>
<text x="47.50" y="427.27">+</text>
<text x="81.05" y="132.62">.</text>
<text x="225.99" y="86.79">+</text>
<text x="68.64" y="4.85">.</text>
<text x="12.75" y="366.09">+</text>
<text x="202.73" y="229.43">.</text>
<text x="459.53" y="243.21">+</text>
<text x="102.91" y="85.77">.</text>
<text x="498.17" y="80.69">+</text>
<text x="388.25" y="151.36">.</text>
<text x="405.35" y="182.23">.</text>
<text x="184.07" y="187.00">.</text>
<text x="132.46" y="469.74">*</text>
<text x="219.34" y="408.16">+</text>
<text x="293.22" y="118.73">*</text>
<text x="410.51" y="45.81">+</text>
<text x="28.90" y="14.50">*</text>
<text x="194.74" y="56.12">*</text>
<text x="483.15" y="106.08">.</text>
<text x="393.95" y="304.90">.</text>
<text x="179.44" y="478.99">+</text>
<text x="250.62" y="139.09">+</text>
<text x="456.45" y="198.11">+</text>
<text x="470.97" y="439.48">+</text>
<text x="228.42" y="259.14">.</text>
<text x="330.27" y="357.85">+</text>
<text x="318.06" y="494.30">+</text>
<text x="51.52" y="300.23">.</text>
<text x="276.25" y="331.22">+</text>
<text x="428.61" y="309.78">+</text>
<text x="217.93" y="484.99">+</text>
<text x="208.43" y="413.86">.</text>
<text x="392.65" y="140.33">.</text>
<text x="141.27" y="224.12">+</text>
<text x="270.49" y="163.53">+</text>
<text x="225.04" y="464.05">.</text>
<text x="127.77" y="159.16">+</text>
<text x="19.24" y="305.12">*</text>
<text x="371.26" y="456.35">.</text>
<text x="72.13" y="188.25">.</text>
<text x="493.57" y="19.67">+</text>
<text x="8.54" y="378.17">.</text>
<text x="125.89" y="130.84">+</text>
<text x="363.27" y="208.76">+</text>
<text x="451.90" y="295.87">*</text>
<text x="352.78" y="19.65">.</text>
<text x="153.37" y="197.20">.</text>
<text x="108.32" y="405.15">+</text>
<text x="286.62" y="197.98">.</text>
<text x="37.39" y="483.31">+</text>
<text x="52.20" y="105.46">+</text>
<text x="102.68" y="178.77">*</text>
<text x="280.80" y="23.34">+</text>
<text x="48.82" y="236.88">+</text>
<text x="402.39" y="459.15">.</text>
<text x="21.19" y="190.19">*</text>
<text x="477.86" y="374.51">.</text>
<text x="76.07" y="223.59">+</text>
<text x="140.57" y="499.29">.</text>
<text x="64.22" y="364.14">+</text>
<text x="73.22" y="327.87">+</text>
<text x="4.42" y="60.62">.</text>
<text x="87.92" y="356.75">*</text>
<text x="91.66" y="48.01">+</text>
<text x="261.55" y="209.80">+</text>
<text x="177.14" y="71.05">+</text>
<text x="177.06" y="39.71">.</text>
<text x="419.50" y="208.80">+</text>
<text x="476.41" y="493.84">+</text>
<text x="247.30" y="108.00">.</text>
<text x="75.56" y="330.87">.</text>
<text x="101.64" y="293.06">.</text>
<text x="111.58" y="337.18">*</text>
<text x="350.59" y="127.06">.</text>
<text x="452.78" y="320.90">.</text>
<text x="200.52" y="338.36">+</text>
<text x="28.41" y="139.68">+</text>
<text x="408.35" y="293.21">.</text>
<text x="315.30" y="149.74">.</text>
<text x="70.66" y="257.18">+</text>
<text x="294.15" y="119.37">+</text>
<text x="489.49" y="48.09">.</text>
<text x="92.95" y="178.32">.</text>
<text x="418.35" y="374.40">+</text>
<text x="472.40" y="338.06">+</text>
<text x="184.55" y="190.48">.</text>
<text x="491.42" y="225.48">+</text>
<text x="496.90" y="316.05">*</text>
<text x="178.17" y="157.94">.</text>
<text x="236.02" y="10.47">.</text>
<text x="350.87" y="75.38">+</text>
<text x="201.54" y="222.39">.</text>
<text x="218.25" y="257.19">.</text>
<text x="112.55" y="454.45">+</text>
<text x="9.85" y="473.32">+</text>
<text x="146.24" y="368.75">+</text>
<text x="63.80" y="389.25">.</text>
<text x="71.44" y="215.74">*</text>
<text x="252.26" y="478.72">+</text>
<text x="348.17" y="25.12">.</text>
<text x="46.46" y="250.75">*</text>
<text x="230.70" y="227.47">+</text>
<text x="178.05" y="4.06">*</text>
<text x="336.66" y="248.85">+</text>
<text x="487.79" y="289.30">.</text>
<text x="119.80" y="193.09">*</text>
<text x="316.40" y="54.18">+</text>
<text x="322.55" y="255.07">+</text>
<text x="240.78" y="160.79">+</text>
<text x="416.67" y="4.66">+</text>
<text x="77.03" y="148.48">*</text>
<text x="120.86" y="142.59">+</text>
<text x="369.09" y="264.88">.</text>
<text x="476.65" y="446.39">+</text>
<text x="76.54" y="479.38">.</text>
<text x="118.67" y="463.72">+</text>
<text x="462.85" y="43.52">.</text>
<text x="185.84" y="143.33">*</text>
<text x="325.24" y="226.02">+</text>
<text x="222.97" y="152.45">+</text>
<text x="205.97" y="358.61">+</text>
<text x="198.68" y="341.60">+</text>
<text x="475.80" y="199.05">+</text>
<text x="153.23" y="96.26">.</text>
<text x="311.04" y="4.20">.</text>
<text x="17.35" y="86.89">*</text>
<text x="275.18" y="207.66">+</text>
<text x="39.65" y="488.71">+</text>
<text x="339.55" y="59.10">+</text>
<text x="427.38" y="294.92">+</text>
<text x="376.89" y="385.07">*</text>
<text x="216.85" y="27.74">.</text>
<text x="255.15" y="472.01">.</text>
<text x="30.06" y="463.36">+</text>
<text x="206.14" y="367.05">.</text>
<text x="124.76" y="304.81">.</text>
<text x="161.47" y="411.52">*</text>
<text x="150.41" y="204.95">+</text>
<text x="185.05" y="84.30">.</text>
<text x="261.57" y="234.13">+</text>
<text x="379.36" y="353.60">+</text>
<text x="37.82" y="346.17">*</text>
<text x="293.02" y="290.66">+</text>
<text x="27.56" y="334.07">*</text>
<text x="307.51" y="123.91">+</text>
<text x="434.11" y="434.55">+</text>
<text x="197.77" y="398.02">+</text>
<text x="229.94" y="427.69">.</text>
<text x="89.39" y="344.77">.</text>
<text x="363.71" y="449.68">+</text>
<text x="172.95" y="466.28">.</text>
<text x="128.62" y="160.57">+</text>
<text x="48.50" y="444.09">*</text>
<text x="182.44" y="362.05">.</text>
<text x="324.07" y="342.71">.</text>
<text x="117.07" y="41.75">*</text>
<text x="238.31" y="118.60">+</text>
<text x="470.10" y="347.86">.</text>
<text x="105.84" y="449.71">+</text>
<text x="425.04" y="453.68">+</text>

</svg>