
<svg viewBox="0 0 500 500" xmlns="http://www.w.org/2000/svg" width="100%" height="100%" style="background-color: #0a0a14; font-family: 'Courier New', Courier, monospace;">
    <style>
        text { fill: #aaa; font-size: 10px; text-anchor: middle; dominant-baseline: middle; }
    </style>
    <text x="297.72" y="269.21">+</text>
<text x="316.15" y="422.52">*</text>
<text x="148.57" y="426.00">+</text>
<text x="162.22" y="131.58">.</text>
<text x="37.46" y="12.90">.</text>
<text x="320.01" y="308.64">.</text>
<text x="398.32" y="471.77">.</text>
<text x="333.29" y="155.17">+</text>
<text x="207.91" y="403.62">.</text>
<text x="257.80" y="467.96">.</text>
<text x="488.54" y="464.71">+</text>
<text x="238.43" y="306.00">.</text>
<text x="122.25" y="82.11">.</text>
<text x="390.04" y="460.57">+</text>
<text x="121.64" y="281.90">+</text>
<text x="163.02" y="469.79">+</text>
<text x="486.53" y="115.88">+</text>
<text x="15.62" y="316.58">.</text>
<text x="113.10" y="288.64">*</text>
<text x="473.82" y="479.54">*</text>
<text x="56.30" y="226.33">+</text>
<text x="401.39" y="347.49">.</text>
<text x="81.86" y="477.26">.</text>
<text x="169.15" y="134.60">+</text>
<text x="442.79" y="264.99">+</text>
<text x="441.65" y="237.31">.</text>
<text x="343.27" y="333.82">+</text>
<text x="397.22" y="46.52">.</text>
<text x="377.79" y="256.61">+</text>
<text x="297.67" y="440.73">.</text>
<text x="339.49" y="125.17">.</text>
<text x="318.00" y="493.68">+</text>
<text x="109.03" y="352.71">.</text>
<text x="364.73" y="287.76">.</text>
<text x="247.00" y="300.69">+</text>
<text x="283.07" y="29.82">*</text>
<text x="203.62" y="253.06">+</text>
<text x="105.66" y="117.99">*</text>
<text x="349.38" y="374.26">.</text>
<text x="319.36" y="438.98">.</text>
<text x="297.11" y="467.90">+</text>
<text x="303.12" y="478.90">+</text>
<text x="300.51" y="329.74">*</text>
<text x="438.66" y="117.39">.</text>
<text x="410.65" y="149.81">*</text>
<text x="29.34" y="218.31">+</text>
<text x="26.26" y="217.30">.</text>
<text x="56.99" y="456.13">.</text>
<text x="428.51" y="18.96">.</text>
<text x="203.40" y="395.20">+</text>
<text x="463.26" y="498.44">.</text>
<text x="347.82" y="83.08">+</text>
<text x="112.16" y="6.95">.</text>
<text x="292.28" y="299.42">*</text>
<text x="127.37" y="436.24">.</text>
<text x="206.08" y="32.45">+</text>
<text x="237.73" y="400.58">+</text>
<text x="88.99" y="485.24">.</text>
<text x="458.76" y="19.45">*</text>
<text x="192.29" y="107.38">*</text>
<text x="172.96" y="47.42">.</text>
<text x="177.98" y="208.77">.</text>
<text x="101.79" y="486.96">+</text>
<text x="248.48" y="160.78">+</text>
<text x="295.58" y="138.88">.</text>
<text x="335.82" y="81.81">+</text>
<text x="182.40" y="462.54">.</text>
<text x="96.41" y="220.15">.</text>
<text x="89.93" y="347.53">*</text>
<text x="394.79" y="5.07">.</text>
<text x="217.73" y="89.11">.</text>
<text x="460.41" y="165.41">+</text>
<text x="181.99" y="269.53">.</text>
<text x="416.77" y="148.07">*</text>
<text x="224.98" y="93.95">+</text>
<text x="488.70" y="200.24">+</text>
<text x="193.23" y="26.87">.</text>
<text x="327.73" y="229.44">*</text>
<text x="414.33" y="365.46">.</text>
<text x="488.64" y="128.47">.</text>
<text x="284.38" y="85.82">.</text>
<text x="277.39" y="104.05">+</text>
<text x="84.42" y="296.15">.</text>
<text x="167.61" y="236.39">.</text>
<text x="412.05" y="312.47">+</text>
<text x="414.09" y="91.55">+</text>
<text x="91.44" y="92.59">.</text>
<text x="237.84" y="327.19">+</text>
<text x="97.22" y="85.51">.</text>
<text x="433.14" y="42.60">*</text>
<text x="167.53" y="127.33">.</text>
<text x="206.51" y="135.16">.</text>
<text x="73.91" y="290.86">*</text>
<text x="472.64" y="153.79">+</text>
<text x="283.95" y="432.91">.</text>
<text x="430.97" y="72.01">*</text>
<text x="317.02" y="233.19">+</text>
<text x="101.87" y="232.91">+</text>
<text x="164.75" y="4.79">.</text>
<text x="197.47" y="330.69">.</text>
<text x="481.97" y="239.99">.</text>
<text x="178.53" y="9.59">+</text>
<text x="52.50" y="397.45">.</text>
<text x="479.50" y="322.63">.</text>
<text x="291.12" y="9.77">.</text>
<text x="117.31" y="472.31">+</text>
<text x="30.72" y="51.13">+</text>
<text x="279.15" y="99.15">+</text>
<text x="69.56" y="69.98">.</text>
<text x="356.22" y="450.58">.</text>
<text x="103.15" y="180.54">+</text>
<text x="290.82" y="19.46">*</text>
<text x="93.58" y="262.23">.</text>
<text x="248.97" y="372.69">.</text>
<text x="274.73" y="77.16">*</text>
<text x="14.20" y="90.08">.</text>
<text x="225.91" y="273.78">*</text>
<text x="488.75" y="455.57">.</text>
<text x="449.93" y="29.65">.</text>
<text x="179.88" y="186.17">+</text>
<text x="397.57" y="130.12">.</text>
<text x="392.51" y="266.89">+</text>
<text x="421.34" y="405.71">+</text>
<text x="307.05" y="494.15">.</text>
<text x="175.87" y="105.13">.</text>
<text x="316.89" y="136.18">+</text>
<text x="68.00" y="7.13">*</text>
<text x="333.81" y="455.17">*</text>
<text x="312.00" y="221.23">+</text>
<text x="10.10" y="350.26">+</text>
<text x="499.40" y="144.74">+</text>
<text x="115.05" y="104.03">.</text>
<text x="180.32" y="4.81">.</text>
<text x="188.46" y="143.97">+</text>
<text x="367.32" y="145.03">.</text>
<text x="14.60" y="177.25">.</text>
<text x="459.89" y="243.27">+</text>
<text x="81.22" y="131.22">.</text>
<text x="470.56" y="493.22">+</text>
<text x="319.33" y="100.22">.</text>
<text x="283.68" y="111.09">.</text>
<text x="220.88" y="425.32">*</text>
<text x="216.96" y="470.53">*</text>
<text x="295.63" y="81.53">.</text>
<text x="442.77" y="371.59">.</text>
<text x="53.43" y="231.04">+</text>
<text x="333.93" y="182.30">+</text>
<text x="96.67" y="107.40">+</text>
<text x="255.88" y="205.99">.</text>
<text x="380.19" y="196.83">+</text>
<text x="174.53" y="280.47">.</text>
<text x="278.38" y="255.40">+</text>
<text x="164.63" y="452.67">+</text>
<text x="482.87" y="246.06">.</text>
<text x="6.04" y="410.48">.</text>
<text x="45.17" y="203.22">*</text>
<text x="317.56" y="476.26">.</text>
<text x="18.77" y="435.76">.</text>
<text x="0.84" y="269.71">.</text>
<text x="442.53" y="449.64">.</text>
<text x="23.01" y="107.35">.</text>
<text x="169.17" y="179.21">.</text>
<text x="257.80" y="215.77">+</text>
<text x="432.23" y="479.15">.</text>
<text x="270.74" y="330.95">+</text>
<text x="132.30" y="493.73">.</text>
<text x="369.13" y="83.02">.</text>
<text x="219.21" y="163.78">+</text>
<text x="39.85" y="48.42">*</text>
<text x="326.05" y="185.68">.</text>
<text x="162.22" y="234.21">.</text>
<text x="193.04" y="25.10">+</text>
<text x="212.47" y="20.07">+</text>
<text x="427.15" y="397.31">+</text>
<text x="240.58" y="313.13">.</text>
<text x="363.63" y="372.49">+</text>
<text x="436.92" y="184.15">+</text>
<text x="7.99" y="231.04">+</text>
<text x="483.81" y="426.16">+</text>
<text x="121.34" y="113.75">.</text>
<text x="495.05" y="167.58">*</text>
<text x="84.86" y="329.97">.</text>
<text x="480.24" y="339.18">*</text>
<text x="439.99" y="467.73">+</text>
<text x="278.44" y="318.85">.</text>
<text x="98.54" y="228.51">*</text>
<text x="443.66" y="231.71">.</text>
<text x="446.10" y="313.91">.</text>
<text x="230.56" y="111.56">.</text>
<text x="32.14" y="288.76">+</text>
<text x="382.43" y="125.07">.</text>
<text x="208.00" y="289.88">.</text>
<text x="194.19" y="429.55">*</text>
<text x="460.00" y="298.88">+</text>
<text x="273.28" y="4.57">+</text>
<text x="168.27" y="238.91">+</text>
<text x="314.09" y="447.52">.</text>
<text x="37.31" y="205.21">+</text>

</svg>