
<svg viewBox="0 0 500 500" xmlns="http://www.w.org/2000/svg" width="100%" height="100%" style="background-color: #0a0a14; font-family: 'Courier New', Courier, monospace;">
    <style>
        text { fill: #aaa; font-size: 10px; text-anchor: middle; dominant-baseline: middle; }
    </style>
    <text x="219.06" y="211.39">.</text>
<text x="167.84" y="225.05">*</text>
<text x="106.85" y="154.88">+</text>
<text x="476.74" y="150.31">+</text>
<text x="27.01" y="107.52">+</text>
<text x="324.17" y="170.72">+</text>
<text x="85.01" y="473.51">.</text>
<text x="355.51" y="306.81">.</text>
<text x="19.28" y="68.32">*</text>
<text x="212.12" y="394.73">.</text>
<text x="447.11" y="228.83">.</text>
<text x="412.49" y="248.22">.</text>
<text x="475.55" y="179.04">.</text>
<text x="123.04" y="176.85">.</text>
<text x="150.05" y="296.76">+</text>
<text x="6.81" y="165.01">.</text>
<text x="324.92" y="381.00">.</text>
<text x="207.53" y="185.01">+</text>
<text x="344.45" y="220.28">+</text>
<text x="53.81" y="437.89">*</text>
<text x="290.00" y="480.88">+</text>
<text x="362.94" y="298.38">*</text>
<text x="146.31" y="191.06">+</text>
<text x="197.48" y="55.22">+</text>
<text x="78.36" y="182.54">.</text>
<text x="443.36" y="385.52">+</text>
<text x="333.66" y="247.14">+</text>
<text x="245.70" y="403.04">*</text>
<text x="191.23" y="333.30">.</text>
<text x="139.57" y="57.34">.</text>
<text x="108.40" y="371.45">.</text>
<text x="160.44" y="398.40">.</text>
<text x="296.72" y="258.23">+</text>
<text x="102.92" y="240.11">+</text>
<text x="348.43" y="474.08">+</text>
<text x="94.44" y="33.03">+</text>
<text x="486.51" y="285.02">.</text>
<text x="94.37" y="403.15">.</text>
<text x="203.57" y="242.85">+</text>
<text x="111.88" y="255.66">+</text>
<text x="260.56" y="418.33">*</text>
<text x="11.10" y="368.72">+</text>
<text x="126.17" y="420.68">.</text>
<text x="187.83" y="103.25">+</text>
<text x="174.68" y="297.88">+</text>
<text x="475.03" y="457.39">.</text>
<text x="355.01" y="216.89">+</text>
<text x="194.02" y="375.23">+</text>
<text x="200.66" y="443.62">+</text>
<text x="488.14" y="15.55">.</text>
<text x="246.21" y="78.68">.</text>
<text x="461.37" y="142.07">.</text>
<text x="235.99" y="262.84">+</text>
<text x="4.94" y="427.46">+</text>
<text x="451.90" y="305.09">+</text>
<text x="363.76" y="239.07">+</text>
<text x="137.33" y="261.19">.</text>
<text x="498.91" y="169.77">+</text>
<text x="95.72" y="332.79">.</text>
<text x="48.36" y="322.78">.</text>
<text x="221.12" y="405.88">+</text>
<text x="491.58" y="103.18">+</text>
<text x="430.05" y="330.88">*</text>
<text x="28.95" y="340.42">+</text>
<text x="151.16" y="101.46">.</text>
<text x="320.72" y="54.21">.</text>
<text x="71.20" y="463.30">+</text>
<text x="86.24" y="314.95">.</text>
<text x="69.07" y="335.18">+</text>
<text x="429.43" y="196.41">.</text>
<text x="279.56" y="462.71">.</text>
<text x="34.87" y="479.28">+</text>
<text x="490.44" y="333.98">*</text>
<text x="332.28" y="251.63">*</text>
<text x="132.86" y="198.88">+</text>
<text x="239.27" y="373.82">+</text>
<text x="162.79" y="350.13">*</text>
<text x="346.06" y="263.32">+</text>
<text x="204.42" y="195.30">+</text>
<text x="115.86" y="457.58">*</text>
<text x="294.41" y="408.08">.</text>
<text x="463.04" y="197.73">+</text>
<text x="331.52" y="379.73">+</text>
<text x="91.03" y="275.60">.</text>
<text x="96.39" y="61.40">.</text>
<text x="230.16" y="177.51">.</text>
<text x="452.09" y="310.82">.</text>
<text x="412.84" y="414.17">.</text>
<text x="149.26" y="185.58">*</text>
<text x="499.86" y="309.66">+</text>
<text x="157.68" y="420.01">+</text>
<text x="352.71" y="122.91">.</text>
<text x="234.89" y="365.54">.</text>
<text x="31.33" y="402.89">+</text>
<text x="36.39" y="434.19">+</text>
<text x="51.86" y="244.49">.</text>
<text x="173.59" y="221.06">*</text>
<text x="483.96" y="269.70">+</text>
<text x="191.77" y="155.52">+</text>
<text x="230.36" y="476.84">+</text>
<text x="359.90" y="100.02">+</text>
<text x="100.82" y="131.07">*</text>
<text x="245.27" y="400.64">*</text>
<text x="105.84" y="382.61">.</text>
<text x="110.00" y="190.42">.</text>
<text x="432.75" y="309.77">+</text>
<text x="460.45" y="158.98">*</text>
<text x="387.73" y="280.32">.</text>
<text x="17.48" y="3.89">.</text>
<text x="108.25" y="470.43">.</text>
<text x="41.26" y="346.87">.</text>
<text x="362.82" y="102.75">.</text>
<text x="179.68" y="41.05">.</text>
<text x="249.08" y="481.73">.</text>
<text x="325.06" y="221.50">.</text>
<text x="102.75" y="368.21">.</text>
<text x="453.20" y="306.23">*</text>
<text x="490.21" y="299.73">*</text>
<text x="181.71" y="251.00">+</text>
<text x="11.13" y="329.58">.</text>
<text x="115.05" y="446.56">.</text>
<text x="464.85" y="119.34">+</text>
<text x="9.73" y="126.39">*</text>
<text x="209.61" y="114.09">.</text>
<text x="417.83" y="172.26">.</text>
<text x="120.75" y="461.72">.</text>
<text x="317.43" y="467.39">.</text>
<text x="388.44" y="437.45">.</text>
<text x="268.26" y="439.60">.</text>
<text x="335.25" y="353.81">.</text>
<text x="189.92" y="86.52">+</text>
<text x="173.89" y="139.70">*</text>
<text x="407.89" y="362.14">.</text>
<text x="359.33" y="59.59">+</text>
<text x="109.86" y="73.57">.</text>
<text x="435.57" y="306.94">+</text>
<text x="46.81" y="186.35">.</text>
<text x="388.22" y="65.78">.</text>
<text x="37.55" y="425.39">.</text>
<text x="277.80" y="476.92">+</text>
<text x="1.15" y="202.38">*</text>
<text x="357.54" y="244.97">.</text>
<text x="308.09" y="76.93">*</text>
<text x="364.80" y="431.38">*</text>
<text x="412.66" y="173.37">+</text>
<text x="39.14" y="299.78">.</text>
<text x="166.46" y="344.89">.</text>
<text x="144.94" y="380.46">+</text>
<text x="117.33" y="102.47">.</text>
<text x="221.45" y="27.91">+</text>
<text x="174.41" y="60.97">.</text>
<text x="416.34" y="215.49">+</text>
<text x="488.60" y="390.68">.</text>
<text x="307.50" y="136.11">+</text>
<text x="340.75" y="415.17">.</text>
<text x="151.56" y="51.00">+</text>
<text x="441.96" y="180.81">+</text>
<text x="287.67" y="4.43">+</text>
<text x="349.28" y="460.84">+</text>
<text x="463.58" y="182.19">+</text>
<text x="209.03" y="141.15">.</text>
<text x="79.87" y="387.98">.</text>
<text x="317.11" y="386.15">.</text>
<text x="197.64" y="410.61">.</text>
<text x="60.00" y="289.73">+</text>
<text x="265.42" y="357.51">.</text>
<text x="171.48" y="25.49">.</text>
<text x="50.61" y="481.73">+</text>
<text x="148.54" y="418.67">+</text>
<text x="180.55" y="265.82">+</text>
<text x="216.95" y="386.48">.</text>
<text x="180.70" y="229.59">.</text>
<text x="171.58" y="56.48">+</text>
<text x="387.48" y="200.52">*</text>
<text x="218.39" y="193.48">*</text>
<text x="226.14" y="140.43">+</text>
<text x="309.45" y="8.38">+</text>
<text x="209.83" y="178.26">+</text>
<text x="395.79" y="246.11">+</text>
<text x="262.75" y="148.21">+</text>
<text x="304.97" y="419.96">.</text>
<text x="75.79" y="149.69">*</text>
<text x="153.59" y="387.36">+</text>
<text x="424.31" y="397.17">*</text>
<text x="293.01" y="296.51">.</text>
<text x="327.64" y="142.26">*</text>
<text x="442.63" y="477.52">+</text>
<text x="350.89" y="321.26">+</text>
<text x="466.08" y="333.64">.</text>
<text x="245.25" y="272.77">+</text>
<text x="424.32" y="79.14">.</text>
<text x="191.73" y="325.37">*</text>
<text x="22.50" y="82.71">+</text>
<text x="411.35" y="497.05">.</text>
<text x="457.37" y="94.28">+</text>
<text x="416.79" y="10.90">.</text>

</svg>