
<svg viewBox="0 0 500 500" xmlns="http://www.w.org/2000/svg" width="100%" height="100%" style="background-color: #0a0a14; font-family: 'Courier New', Courier, monospace;">
    <style>
        text { fill: #aaa; font-size: 10px; text-anchor: middle; dominant-baseline: middle; }
    </style>
    <text x="282.36" y="459.50">+</text>
<text x="492.30" y="410.73">.</text>
<text x="159.59" y="317.19">.</text>
<text x="219.20" y="135.66">+</text>
<text x="311.18" y="436.94">.</text>
<text x="322.84" y="366.02">+</text>
<text x="7.24" y="479.63">.</text>
<text x="88.87" y="339.26">+</text>
<text x="116.50" y="326.21">+</text>
<text x="12.23" y="198.59">.</text>
<text x="410.73" y="438.31">.</text>
<text x="397.01" y="154.27">+</text>
<text x="98.43" y="269.48">.</text>
<text x="326.28" y="49.80">+</text>
<text x="220.37" y="416.42">+</text>
<text x="405.55" y="161.13">.</text>
<text x="461.11" y="481.90">+</text>
<text x="397.49" y="385.39">.</text>
<text x="380.66" y="274.65">.</text>
<text x="355.61" y="36.43">+</text>
<text x="240.55" y="73.40">*</text>
<text x="396.09" y="237.91">.</text>
<text x="192.45" y="405.60">.</text>
<text x="204.69" y="413.41">.</text>
<text x="152.35" y="459.86">.</text>
<text x="96.05" y="331.75">.</text>
<text x="253.72" y="403.27">+</text>
<text x="419.22" y="77.79">.</text>
<text x="217.08" y="124.03">+</text>
<text x="400.57" y="36.31">+</text>
<text x="485.57" y="302.76">.</text>
<text x="493.42" y="261.17">.</text>
<text x="47.69" y="129.14">.</text>
<text x="112.19" y="235.23">.</text>
<text x="474.28" y="40.74">.</text>
<text x="121.87" y="86.27">*</text>
<text x="180.98" y="120.39">+</text>
<text x="331.18" y="433.17">+</text>
<text x="124.67" y="84.95">*</text>
<text x="235.29" y="21.62">+</text>
<text x="85.83" y="493.05">.</text>
<text x="28.79" y="273.97">*</text>
<text x="230.54" y="294.57">.</text>
<text x="53.55" y="57.90">.</text>
<text x="64.04" y="29.32">+</text>
<text x="350.90" y="9.76">+</text>
<text x="107.12" y="25.56">.</text>
<text x="9.17" y="494.14">+</text>
<text x="105.62" y="491.41">.</text>
<text x="484.61" y="371.77">+</text>
<text x="442.77" y="321.54">+</text>
<text x="255.86" y="55.12">+</text>
<text x="287.38" y="408.98">.</text>
<text x="478.41" y="150.32">.</text>
<text x="361.25" y="32.56">.</text>
<text x="155.48" y="101.59">+</text>
<text x="477.81" y="10.43">*</text>
<text x="214.04" y="394.49">.</text>
<text x="359.83" y="423.27">+</text>
<text x="10.06" y="465.15">.</text>
<text x="38.16" y="1.77">+</text>
<text x="425.48" y="308.46">+</text>
<text x="277.05" y="68.97">.</text>
<text x="42.69" y="419.68">*</text>
<text x="420.11" y="446.27">+</text>
<text x="166.67" y="370.80">+</text>
<text x="253.52" y="294.93">.</text>
<text x="60.79" y="88.39">.</text>
<text x="237.84" y="480.32">+</text>
<text x="148.84" y="387.17">.</text>
<text x="489.59" y="137.63">.</text>
<text x="154.38" y="445.70">.</text>
<text x="429.76" y="335.96">+</text>
<text x="355.13" y="423.52">+</text>
<text x="17.16" y="26.72">.</text>
<text x="200.00" y="228.96">*</text>
<text x="136.07" y="469.25">.</text>
<text x="392.68" y="24.75">.</text>
<text x="312.39" y="463.95">.</text>
<text x="142.67" y="400.41">.</text>
<text x="487.74" y="254.05">.</text>
<text x="420.76" y="434.32">+</text>
<text x="108.76" y="429.68">+</text>
<text x="417.12" y="433.70">.</text>
<text x="331.71" y="268.62">+</text>
<text x="405.65" y="442.02">.</text>
<text x="395.45" y="474.23">+</text>
<text x="414.36" y="189.44">+</text>
<text x="47.96" y="18.28">+</text>
<text x="198.95" y="408.03">.</text>
<text x="152.92" y="301.27">.</text>
<text x="399.53" y="59.65">.</text>
<text x="463.63" y="57.49">*</text>
<text x="392.75" y="388.13">+</text>
<text x="182.45" y="148.73">.</text>
<text x="171.12" y="405.17">.</text>
<text x="349.52" y="401.64">.</text>
<text x="450.00" y="257.41">*</text>
<text x="367.59" y="483.31">.</text>
<text x="176.76" y="343.41">*</text>
<text x="309.83" y="145.62">.</text>
<text x="186.32" y="435.91">+</text>
<text x="310.99" y="272.45">+</text>
<text x="311.80" y="414.23">+</text>
<text x="202.43" y="396.04">.</text>
<text x="214.53" y="288.32">*</text>
<text x="83.78" y="8.67">+</text>
<text x="128.45" y="258.31">+</text>
<text x="361.02" y="202.59">.</text>
<text x="399.55" y="40.15">+</text>
<text x="386.55" y="82.66">+</text>
<text x="488.83" y="359.20">.</text>
<text x="278.34" y="198.89">+</text>
<text x="162.02" y="81.24">.</text>
<text x="126.01" y="124.30">.</text>
<text x="267.14" y="449.88">.</text>
<text x="98.34" y="366.22">+</text>
<text x="338.06" y="270.64">+</text>
<text x="160.75" y="197.51">.</text>
<text x="426.19" y="186.07">+</text>
<text x="411.63" y="447.84">*</text>
<text x="332.33" y="147.00">.</text>
<text x="123.69" y="50.10">.</text>
<text x="465.45" y="60.34">.</text>
<text x="129.50" y="192.64">+</text>
<text x="109.85" y="268.13">.</text>
<text x="439.02" y="100.19">+</text>
<text x="66.35" y="444.99">+</text>
<text x="62.40" y="104.38">.</text>
<text x="125.31" y="28.53">+</text>
<text x="460.80" y="124.44">+</text>
<text x="111.25" y="54.00">*</text>
<text x="317.00" y="223.04">+</text>
<text x="487.89" y="327.52">+</text>
<text x="373.69" y="452.08">.</text>
<text x="223.40" y="315.53">+</text>
<text x="435.05" y="47.56">+</text>
<text x="293.60" y="308.29">*</text>
<text x="137.81" y="68.45">+</text>
<text x="22.64" y="248.79">.</text>
<text x="438.56" y="141.62">.</text>
<text x="185.02" y="86.92">.</text>
<text x="35.72" y="481.59">.</text>
<text x="349.69" y="291.12">*</text>
<text x="191.51" y="159.26">+</text>
<text x="141.57" y="104.35">*</text>
<text x="478.08" y="377.71">.</text>
<text x="268.86" y="343.51">.</text>
<text x="445.08" y="234.89">+</text>
<text x="22.56" y="335.74">+</text>
<text x="87.35" y="33.68">.</text>
<text x="181.01" y="441.31">.</text>
<text x="279.61" y="31.13">.</text>
<text x="28.94" y="138.51">+</text>
<text x="442.19" y="320.80">*</text>
<text x="481.14" y="203.02">*</text>
<text x="273.27" y="345.11">.</text>
<text x="308.77" y="228.82">+</text>
<text x="377.62" y="371.41">.</text>
<text x="285.05" y="405.87">+</text>
<text x="122.63" y="327.07">.</text>
<text x="205.25" y="124.36">.</text>
<text x="284.14" y="352.47">.</text>
<text x="362.64" y="409.01">*</text>
<text x="116.55" y="393.71">.</text>
<text x="408.33" y="237.54">+</text>
<text x="96.09" y="404.28">+</text>
<text x="123.95" y="337.57">.</text>
<text x="202.35" y="276.41">+</text>
<text x="183.11" y="171.06">+</text>
<text x="69.42" y="230.93">.</text>
<text x="75.59" y="131.27">+</text>
<text x="142.32" y="379.15">+</text>
<text x="478.42" y="432.98">+</text>
<text x="38.52" y="340.98">+</text>
<text x="324.23" y="478.74">.</text>
<text x="311.54" y="138.96">.</text>
<text x="393.63" y="249.32">+</text>
<text x="196.65" y="193.92">*</text>
<text x="262.14" y="401.36">.</text>
<text x="247.43" y="324.61">*</text>
<text x="405.73" y="265.46">+</text>
<text x="450.76" y="350.97">.</text>
<text x="18.15" y="399.09">+</text>
<text x="414.47" y="488.56">+</text>
<text x="64.52" y="3.79">.</text>
<text x="26.80" y="191.30">+</text>
<text x="106.25" y="353.42">.</text>
<text x="462.82" y="200.25">+</text>
<text x="94.18" y="439.89">+</text>
<text x="300.81" y="293.97">*</text>
<text x="308.22" y="272.19">.</text>
<text x="405.43" y="61.81">.</text>
<text x="325.24" y="183.13">.</text>
<text x="276.05" y="383.73">.</text>
<text x="309.97" y="303.56">+</text>
<text x="448.67" y="100.07">.</text>
<text x="187.25" y="21.46">.</text>
<text x="11.74" y="21.32">+</text>
<text x="221.54" y="492.63">*</text>
<text x="44.02" y="335.48">+</text>
<text x="97.63" y="173.55">+</text>
<text x="186.62" y="338.27">.</text>
<text x="309.49" y="495.56">+</text>

</svg>