
<svg viewBox="0 0 500 500" xmlns="http://www.w.org/2000/svg" width="100%" height="100%" style="background-color: #0a0a14; font-family: 'Courier New', Courier, monospace;">
    <style>
        text { fill: #aaa; font-size: 10px; text-anchor: middle; dominant-baseline: middle; }
    </style>
    <text x="14.00" y="417.94">.</text>
<text x="434.81" y="448.05">.</text>
<text x="276.13" y="200.22">.</text>
<text x="122.44" y="195.76">.</text>
<text x="52.22" y="136.83">+</text>
<text x="318.00" y="401.55">.</text>
<text x="205.35" y="91.54">.</text>
<text x="115.55" y="300.09">+</text>
<text x="329.09" y="340.09">*</text>
<text x="453.56" y="66.98">+</text>
<text x="234.91" y="343.90">.</text>
<text x="378.31" y="315.35">+</text>
<text x="64.70" y="14.94">.</text>
<text x="74.52" y="360.31">.</text>
<text x="53.54" y="269.19">+</text>
<text x="3.75" y="33.83">.</text>
<text x="366.07" y="230.42">.</text>
<text x="153.01" y="493.67">.</text>
<text x="248.42" y="38.73">+</text>
<text x="430.66" y="129.25">.</text>
<text x="117.32" y="43.85">*</text>
<text x="109.47" y="246.18">+</text>
<text x="119.44" y="264.08">+</text>
<text x="256.70" y="114.13">.</text>
<text x="92.03" y="250.68">.</text>
<text x="464.25" y="145.88">*</text>
<text x="257.26" y="17.30">+</text>
<text x="235.91" y="129.87">+</text>
<text x="400.67" y="162.96">+</text>
<text x="347.31" y="25.10">.</text>
<text x="164.14" y="195.13">+</text>
<text x="243.58" y="171.35">+</text>
<text x="484.40" y="147.74">+</text>
<text x="494.53" y="272.29">+</text>
<text x="399.84" y="165.69">.</text>
<text x="102.57" y="329.52">*</text>
<text x="61.86" y="432.15">.</text>
<text x="104.21" y="95.83">*</text>
<text x="264.07" y="499.24">.</text>
<text x="149.87" y="158.17">*</text>
<text x="26.31" y="31.53">.</text>
<text x="301.42" y="52.26">*</text>
<text x="138.09" y="379.50">+</text>
<text x="472.58" y="440.99">.</text>
<text x="284.31" y="318.42">.</text>
<text x="87.03" y="143.57">.</text>
<text x="25.69" y="103.73">.</text>
<text x="485.07" y="27.97">.</text>
<text x="262.72" y="481.36">+</text>
<text x="215.80" y="359.81">.</text>
<text x="0.91" y="296.59">.</text>
<text x="274.89" y="246.88">*</text>
<text x="486.57" y="363.83">+</text>
<text x="159.80" y="58.41">.</text>
<text x="175.58" y="19.73">.</text>
<text x="234.62" y="2.53">+</text>
<text x="289.80" y="76.36">+</text>
<text x="284.14" y="297.16">+</text>
<text x="287.40" y="279.59">+</text>
<text x="467.24" y="18.15">+</text>
<text x="257.82" y="152.97">.</text>
<text x="446.57" y="106.19">+</text>
<text x="211.03" y="184.29">.</text>
<text x="448.34" y="174.66">+</text>
<text x="207.33" y="156.96">*</text>
<text x="175.18" y="222.34">.</text>
<text x="102.66" y="111.65">.</text>
<text x="270.83" y="134.22">.</text>
<text x="161.87" y="253.96">+</text>
<text x="236.75" y="244.69">.</text>
<text x="447.58" y="378.08">.</text>
<text x="469.34" y="68.68">+</text>
<text x="269.37" y="383.27">.</text>
<text x="299.95" y="133.93">+</text>
<text x="50.25" y="65.16">+</text>
<text x="86.30" y="151.65">+</text>
<text x="116.67" y="239.49">.</text>
<text x="310.53" y="331.52">+</text>
<text x="199.61" y="80.51">.</text>
<text x="87.44" y="41.89">.</text>
<text x="113.41" y="142.63">.</text>
<text x="13.23" y="121.81">.</text>
<text x="164.97" y="121.65">.</text>
<text x="7.37" y="152.08">.</text>
<text x="425.47" y="427.09">.</text>
<text x="436.52" y="84.94">+</text>
<text x="147.38" y="424.62">+</text>
<text x="81.75" y="368.30">.</text>
<text x="268.46" y="39.28">*</text>
<text x="426.38" y="101.55">+</text>
<text x="413.20" y="93.23">+</text>
<text x="54.61" y="256.15">+</text>
<text x="437.70" y="440.76">.</text>
<text x="383.77" y="100.32">.</text>
<text x="71.52" y="194.66">+</text>
<text x="430.73" y="328.13">+</text>
<text x="465.43" y="270.27">.</text>
<text x="324.09" y="104.69">.</text>
<text x="484.83" y="322.78">.</text>
<text x="81.10" y="157.95">.</text>
<text x="115.90" y="28.45">+</text>
<text x="348.31" y="57.09">.</text>
<text x="464.47" y="243.32">.</text>
<text x="412.76" y="82.97">+</text>
<text x="65.60" y="260.12">+</text>
<text x="6.10" y="278.42">*</text>
<text x="13.13" y="349.86">.</text>
<text x="397.18" y="371.26">+</text>
<text x="489.66" y="436.66">.</text>
<text x="379.63" y="310.02">+</text>
<text x="348.70" y="160.97">.</text>
<text x="54.98" y="394.47">+</text>
<text x="109.76" y="327.21">+</text>
<text x="340.76" y="390.01">+</text>
<text x="393.33" y="487.38">.</text>
<text x="346.57" y="243.31">.</text>
<text x="96.51" y="430.56">+</text>
<text x="374.58" y="404.21">.</text>
<text x="151.12" y="40.60">+</text>
<text x="477.70" y="454.89">.</text>
<text x="390.96" y="89.05">*</text>
<text x="202.13" y="452.04">*</text>
<text x="254.28" y="289.13">+</text>
<text x="385.29" y="401.14">.</text>
<text x="338.95" y="437.76">*</text>
<text x="229.03" y="494.79">+</text>
<text x="267.71" y="255.24">+</text>
<text x="75.78" y="464.93">+</text>
<text x="434.02" y="29.24">.</text>
<text x="105.05" y="390.11">+</text>
<text x="173.52" y="114.72">.</text>
<text x="446.90" y="119.49">+</text>
<text x="183.35" y="162.15">.</text>
<text x="197.85" y="457.29">+</text>
<text x="448.63" y="76.21">.</text>
<text x="408.84" y="476.67">+</text>
<text x="398.59" y="143.22">+</text>
<text x="242.17" y="436.58">+</text>
<text x="341.96" y="488.36">.</text>
<text x="373.23" y="160.09">+</text>
<text x="54.71" y="265.29">.</text>
<text x="438.81" y="492.67">+</text>
<text x="88.74" y="239.12">+</text>
<text x="307.58" y="175.73">+</text>
<text x="99.50" y="102.64">+</text>
<text x="345.04" y="41.13">+</text>
<text x="484.00" y="421.88">.</text>
<text x="388.07" y="430.63">+</text>
<text x="212.38" y="29.88">+</text>
<text x="196.44" y="418.31">+</text>
<text x="334.96" y="209.53">.</text>
<text x="237.56" y="46.97">+</text>
<text x="398.83" y="342.61">.</text>
<text x="20.22" y="220.80">.</text>
<text x="250.89" y="82.33">.</text>
<text x="52.65" y="303.11">+</text>
<text x="207.37" y="477.16">.</text>
<text x="13.78" y="36.90">.</text>
<text x="46.24" y="251.65">.</text>
<text x="119.23" y="131.21">*</text>
<text x="150.79" y="293.23">*</text>
<text x="122.15" y="443.98">*</text>
<text x="18.75" y="112.28">.</text>
<text x="313.84" y="253.43">.</text>
<text x="99.77" y="307.73">+</text>
<text x="185.35" y="351.98">+</text>
<text x="199.40" y="221.89">.</text>
<text x="252.07" y="237.65">+</text>
<text x="294.37" y="18.56">.</text>
<text x="61.36" y="484.43">.</text>
<text x="77.95" y="57.44">.</text>
<text x="372.72" y="214.92">.</text>
<text x="413.26" y="484.61">+</text>
<text x="277.54" y="324.37">+</text>
<text x="87.80" y="420.74">.</text>
<text x="136.61" y="135.69">.</text>
<text x="308.27" y="339.92">.</text>
<text x="417.92" y="448.65">*</text>
<text x="57.48" y="370.80">.</text>
<text x="230.83" y="382.38">.</text>
<text x="137.50" y="90.17">+</text>
<text x="291.13" y="64.67">.</text>
<text x="374.76" y="405.86">.</text>
<text x="377.21" y="176.17">*</text>
<text x="213.44" y="499.61">.</text>
<text x="329.03" y="447.63">*</text>
<text x="310.31" y="16.80">.</text>
<text x="46.33" y="56.22">+</text>
<text x="6.21" y="144.12">.</text>
<text x="150.82" y="310.26">.</text>
<text x="145.83" y="143.85">+</text>
<text x="371.14" y="198.94">.</text>
<text x="247.30" y="479.32">+</text>
<text x="263.52" y="295.18">.</text>
<text x="24.69" y="194.04">.</text>
<text x="146.81" y="373.73">*</text>
<text x="40.64" y="247.32">.</text>
<text x="105.85" y="119.55">.</text>
<text x="115.93" y="24.42">.</text>
<text x="378.50" y="171.61">*</text>
<text x="90.85" y="106.62">+</text>
<text x="166.93" y="191.26">+</text>
<text x="164.93" y="448.49">.</text>
<text x="150.64" y="126.41">.</text>
<text x="387.73" y="224.47">.</text>
<text x="187.24" y="269.80">*</text>
<text x="17.82" y="319.02">.</text>
<text x="233.54" y="440.79">.</text>
<text x="135.04" y="92.65">.</text>
<text x="34.66" y="322.49">.</text>
<text x="274.84" y="365.16">*</text>
<text x="175.24" y="382.18">+</text>
<text x="108.18" y="250.48">+</text>

</svg>