
<svg viewBox="0 0 500 500" xmlns="http://www.w.org/2000/svg" width="100%" height="100%" style="background-color: #0a0a14; font-family: 'Courier New', Courier, monospace;">
    <style>
        text { fill: #aaa; font-size: 10px; text-anchor: middle; dominant-baseline: middle; }
    </style>
    <text x="40.55" y="150.06">.</text>
<text x="401.90" y="160.13">.</text>
<text x="240.23" y="454.28">*</text>
<text x="280.88" y="359.26">+</text>
<text x="353.31" y="133.69">.</text>
<text x="444.49" y="407.08">+</text>
<text x="26.46" y="283.32">+</text>
<text x="493.73" y="373.08">+</text>
<text x="313.20" y="353.81">+</text>
<text x="12.58" y="220.36">+</text>
<text x="196.49" y="56.00">.</text>
<text x="154.07" y="12.54">.</text>
<text x="363.07" y="56.95">.</text>
<text x="198.15" y="375.27">+</text>
<text x="330.72" y="219.76">.</text>
<text x="53.93" y="449.37">+</text>
<text x="284.86" y="287.03">.</text>
<text x="119.85" y="142.15">+</text>
<text x="488.83" y="207.55">.</text>
<text x="496.86" y="90.24">*</text>
<text x="202.49" y="162.18">.</text>
<text x="454.09" y="91.97">+</text>
<text x="261.67" y="19.62">*</text>
<text x="426.50" y="402.62">.</text>
<text x="65.64" y="266.31">.</text>
<text x="225.33" y="300.10">*</text>
<text x="150.75" y="389.43">*</text>
<text x="373.79" y="418.56">.</text>
<text x="334.91" y="353.87">.</text>
<text x="335.66" y="308.85">+</text>
<text x="41.68" y="474.39">+</text>
<text x="198.15" y="269.68">.</text>
<text x="59.44" y="68.00">+</text>
<text x="154.95" y="444.21">+</text>
<text x="24.27" y="244.37">.</text>
<text x="27.54" y="264.71">*</text>
<text x="204.45" y="246.74">.</text>
<text x="496.83" y="440.46">+</text>
<text x="155.29" y="173.61">+</text>
<text x="433.96" y="390.77">.</text>
<text x="396.81" y="152.46">.</text>
<text x="285.36" y="416.27">*</text>
<text x="362.70" y="200.14">.</text>
<text x="299.19" y="7.03">.</text>
<text x="334.82" y="18.44">.</text>
<text x="52.08" y="85.04">*</text>
<text x="50.51" y="82.52">+</text>
<text x="310.36" y="475.46">+</text>
<text x="453.36" y="334.70">.</text>
<text x="406.67" y="111.93">.</text>
<text x="214.22" y="73.91">.</text>
<text x="184.09" y="403.80">*</text>
<text x="397.22" y="39.44">.</text>
<text x="219.70" y="333.97">+</text>
<text x="153.83" y="63.99">+</text>
<text x="448.68" y="119.15">+</text>
<text x="422.64" y="148.03">*</text>
<text x="445.00" y="309.92">*</text>
<text x="315.71" y="175.87">.</text>
<text x="4.89" y="226.20">+</text>
<text x="56.74" y="269.84">*</text>
<text x="108.28" y="26.45">.</text>
<text x="418.83" y="413.91">+</text>
<text x="424.16" y="71.66">+</text>
<text x="204.32" y="321.76">+</text>
<text x="89.47" y="287.59">.</text>
<text x="350.53" y="99.40">*</text>
<text x="54.94" y="31.74">.</text>
<text x="368.03" y="164.19">.</text>
<text x="475.45" y="173.84">.</text>
<text x="356.12" y="209.58">+</text>
<text x="154.58" y="174.71">*</text>
<text x="467.48" y="233.03">.</text>
<text x="109.87" y="451.55">+</text>
<text x="379.02" y="107.04">+</text>
<text x="357.87" y="45.59">+</text>
<text x="220.23" y="170.91">.</text>
<text x="89.08" y="429.37">.</text>
<text x="437.99" y="237.16">+</text>
<text x="13.02" y="352.98">.</text>
<text x="272.35" y="493.43">.</text>
<text x="130.73" y="490.36">.</text>
<text x="452.26" y="114.93">*</text>
<text x="298.72" y="64.87">+</text>
<text x="259.57" y="242.76">*</text>
<text x="68.77" y="342.88">+</text>
<text x="65.41" y="373.92">+</text>
<text x="97.57" y="356.97">.</text>
<text x="497.54" y="333.29">.</text>
<text x="466.11" y="198.36">+</text>
<text x="399.09" y="330.84">+</text>
<text x="280.53" y="111.42">+</text>
<text x="62.12" y="163.08">+</text>
<text x="428.49" y="436.49">.</text>
<text x="34.03" y="326.91">*</text>
<text x="421.15" y="351.39">.</text>
<text x="41.75" y="378.89">.</text>
<text x="407.64" y="288.59">+</text>
<text x="362.00" y="113.02">.</text>
<text x="419.69" y="265.54">+</text>
<text x="123.71" y="47.81">*</text>
<text x="476.09" y="267.82">*</text>
<text x="149.18" y="12.78">+</text>
<text x="333.39" y="377.98">.</text>
<text x="339.56" y="164.16">+</text>
<text x="159.74" y="375.18">.</text>
<text x="493.29" y="86.28">.</text>
<text x="272.27" y="336.81">+</text>
<text x="406.54" y="497.09">.</text>
<text x="295.24" y="467.81">.</text>
<text x="51.61" y="487.62">+</text>
<text x="219.80" y="345.72">.</text>
<text x="67.89" y="430.75">.</text>
<text x="345.48" y="297.32">.</text>
<text x="315.60" y="442.86">+</text>
<text x="486.62" y="17.06">+</text>
<text x="478.45" y="130.59">+</text>
<text x="421.86" y="35.77">+</text>
<text x="171.01" y="150.46">+</text>
<text x="33.30" y="60.07">+</text>
<text x="444.85" y="205.69">+</text>
<text x="218.37" y="124.57">+</text>
<text x="103.27" y="21.99">+</text>
<text x="384.89" y="408.55">.</text>
<text x="144.53" y="485.35">+</text>
<text x="415.21" y="54.59">+</text>
<text x="196.75" y="108.64">.</text>
<text x="480.91" y="172.50">*</text>
<text x="166.61" y="153.84">+</text>
<text x="317.97" y="261.33">.</text>
<text x="321.24" y="40.88">.</text>
<text x="424.03" y="36.88">+</text>
<text x="362.64" y="421.47">.</text>
<text x="412.55" y="230.37">.</text>
<text x="273.65" y="442.74">+</text>
<text x="250.44" y="165.07">*</text>
<text x="213.56" y="415.02">.</text>
<text x="112.65" y="309.25">.</text>
<text x="127.65" y="77.90">.</text>
<text x="371.21" y="447.18">.</text>
<text x="30.87" y="461.62">.</text>
<text x="447.05" y="36.29">.</text>
<text x="380.21" y="248.97">*</text>
<text x="279.92" y="310.83">.</text>
<text x="439.62" y="230.98">+</text>
<text x="133.77" y="392.45">+</text>
<text x="342.80" y="373.12">.</text>
<text x="305.32" y="371.01">.</text>
<text x="176.75" y="359.74">.</text>
<text x="350.28" y="195.00">.</text>
<text x="91.75" y="387.30">.</text>
<text x="412.33" y="298.80">*</text>
<text x="174.93" y="314.02">+</text>
<text x="185.31" y="430.60">+</text>
<text x="369.98" y="459.16">+</text>
<text x="213.03" y="67.22">.</text>
<text x="21.99" y="43.09">*</text>
<text x="133.40" y="394.10">*</text>
<text x="486.48" y="422.62">+</text>
<text x="180.35" y="329.61">.</text>
<text x="216.08" y="380.88">.</text>
<text x="360.74" y="376.20">+</text>
<text x="43.78" y="349.68">.</text>
<text x="317.90" y="78.43">.</text>
<text x="110.65" y="458.57">.</text>
<text x="477.88" y="299.48">.</text>
<text x="163.53" y="478.21">.</text>
<text x="350.87" y="15.24">+</text>
<text x="427.58" y="280.26">.</text>
<text x="411.04" y="342.16">+</text>
<text x="30.19" y="382.95">+</text>
<text x="433.29" y="159.99">+</text>
<text x="393.31" y="397.05">.</text>
<text x="446.53" y="433.08">*</text>
<text x="181.57" y="435.34">+</text>
<text x="59.23" y="471.26">.</text>
<text x="193.78" y="339.49">*</text>
<text x="370.66" y="189.86">.</text>
<text x="486.03" y="268.71">.</text>
<text x="33.06" y="84.34">.</text>
<text x="195.25" y="442.78">.</text>
<text x="20.01" y="139.86">+</text>
<text x="493.52" y="1.93">+</text>
<text x="120.38" y="254.06">.</text>
<text x="448.68" y="249.28">+</text>
<text x="21.60" y="499.57">+</text>
<text x="195.94" y="473.29">+</text>
<text x="24.55" y="490.52">+</text>
<text x="298.95" y="268.25">.</text>
<text x="329.08" y="247.04">*</text>
<text x="415.18" y="157.07">*</text>
<text x="246.70" y="465.70">.</text>
<text x="337.96" y="142.51">.</text>
<text x="148.56" y="78.09">.</text>
<text x="426.51" y="195.35">+</text>
<text x="340.42" y="406.79">+</text>
<text x="254.19" y="419.16">.</text>
<text x="474.44" y="453.11">*</text>
<text x="365.43" y="82.69">+</text>
<text x="290.43" y="354.63">+</text>
<text x="21.62" y="202.13">*</text>
<text x="447.41" y="466.53">.</text>
<text x="209.52" y="347.58">.</text>
<text x="366.83" y="216.27">*</text>
<text x="135.53" y="413.32">.</text>
<text x="417.95" y="439.85">+</text>
<text x="487.85" y="45.21">.</text>
<text x="480.87" y="426.61">.</text>
<text x="332.34" y="395.50">.</text>
<text x="2.94" y="152.54">+</text>
<text x="35.84" y="167.26">+</text>
<text x="404.70" y="266.49">+</text>
<text x="473.31" y="139.48">+</text>
<text x="240.80" y="474.46">*</text>
<text x="27.33" y="463.70">.</text>

</svg>