
<svg viewBox="0 0 500 500" xmlns="http://www.w.org/2000/svg" width="100%" height="100%" style="background-color: #0a0a14; font-family: 'Courier New', Courier, monospace;">
    <style>
        text { fill: #aaa; font-size: 10px; text-anchor: middle; dominant-baseline: middle; }
    </style>
    <text x="209.86" y="467.53">+</text>
<text x="186.81" y="108.30">.</text>
<text x="466.49" y="478.01">.</text>
<text x="1.22" y="149.56">.</text>
<text x="138.50" y="244.99">+</text>
<text x="418.42" y="147.30">+</text>
<text x="466.63" y="90.68">+</text>
<text x="474.00" y="476.07">+</text>
<text x="428.43" y="248.75">+</text>
<text x="12.12" y="244.12">+</text>
<text x="307.29" y="212.20">+</text>
<text x="379.65" y="129.31">+</text>
<text x="145.51" y="111.50">+</text>
<text x="105.72" y="446.01">.</text>
<text x="432.23" y="384.75">+</text>
<text x="410.49" y="13.57">+</text>
<text x="24.85" y="471.26">+</text>
<text x="170.51" y="243.38">+</text>
<text x="124.34" y="476.44">.</text>
<text x="199.85" y="73.88">*</text>
<text x="75.94" y="181.73">+</text>
<text x="233.55" y="422.59">*</text>
<text x="454.49" y="351.77">*</text>
<text x="349.72" y="463.27">*</text>
<text x="64.46" y="494.13">*</text>
<text x="279.94" y="209.72">+</text>
<text x="458.94" y="20.87">+</text>
<text x="240.57" y="74.76">.</text>
<text x="402.92" y="239.50">*</text>
<text x="329.23" y="86.31">.</text>
<text x="161.28" y="436.07">+</text>
<text x="439.48" y="72.64">+</text>
<text x="65.26" y="332.37">+</text>
<text x="472.96" y="444.82">+</text>
<text x="71.79" y="8.15">*</text>
<text x="53.61" y="211.40">.</text>
<text x="43.58" y="482.61">.</text>
<text x="445.18" y="236.41">*</text>
<text x="330.79" y="199.21">+</text>
<text x="306.07" y="159.54">*</text>
<text x="184.44" y="2.68">+</text>
<text x="281.87" y="286.71">.</text>
<text x="357.21" y="361.60">+</text>
<text x="337.11" y="114.66">*</text>
<text x="496.99" y="321.11">+</text>
<text x="21.42" y="145.72">+</text>
<text x="236.91" y="292.17">*</text>
<text x="58.04" y="259.25">.</text>
<text x="357.28" y="201.64">+</text>
<text x="108.84" y="124.31">+</text>
<text x="134.52" y="213.31">.</text>
<text x="496.42" y="223.93">.</text>
<text x="53.47" y="30.93">.</text>
<text x="232.75" y="258.64">*</text>
<text x="282.32" y="108.74">.</text>
<text x="366.99" y="325.42">+</text>
<text x="52.50" y="456.32">.</text>
<text x="366.02" y="291.44">+</text>
<text x="278.65" y="249.33">.</text>
<text x="32.50" y="398.88">*</text>
<text x="458.33" y="412.74">.</text>
<text x="476.00" y="374.06">.</text>
<text x="35.50" y="380.39">+</text>
<text x="146.76" y="10.82">+</text>
<text x="183.40" y="29.54">.</text>
<text x="56.59" y="192.83">+</text>
<text x="457.13" y="431.06">+</text>
<text x="388.67" y="372.00">+</text>
<text x="464.31" y="135.70">.</text>
<text x="494.89" y="256.24">+</text>
<text x="197.17" y="450.55">+</text>
<text x="293.07" y="467.91">+</text>
<text x="88.70" y="164.17">.</text>
<text x="96.66" y="390.82">.</text>
<text x="267.41" y="367.08">.</text>
<text x="241.93" y="33.08">.</text>
<text x="178.22" y="170.10">.</text>
<text x="166.64" y="330.28">.</text>
<text x="253.09" y="399.25">.</text>
<text x="224.52" y="107.31">+</text>
<text x="306.68" y="297.27">.</text>
<text x="85.99" y="20.65">.</text>
<text x="272.02" y="45.31">+</text>
<text x="489.61" y="319.91">+</text>
<text x="151.96" y="140.26">+</text>
<text x="333.55" y="202.12">.</text>
<text x="51.09" y="114.34">+</text>
<text x="14.29" y="414.18">+</text>
<text x="376.06" y="133.69">.</text>
<text x="242.32" y="282.78">+</text>
<text x="304.91" y="404.67">+</text>
<text x="155.81" y="8.57">.</text>
<text x="56.01" y="224.51">.</text>
<text x="462.62" y="27.89">+</text>
<text x="109.80" y="24.44">.</text>
<text x="428.06" y="327.18">.</text>
<text x="190.12" y="3.92">.</text>
<text x="395.38" y="476.10">.</text>
<text x="450.60" y="109.41">+</text>
<text x="312.73" y="183.66">.</text>
<text x="121.41" y="59.94">+</text>
<text x="279.30" y="192.07">+</text>
<text x="125.19" y="119.34">.</text>
<text x="119.08" y="238.98">.</text>
<text x="280.69" y="491.45">.</text>
<text x="134.38" y="336.85">+</text>
<text x="49.19" y="461.44">*</text>
<text x="315.03" y="402.62">+</text>
<text x="59.33" y="273.05">.</text>
<text x="25.11" y="195.53">+</text>
<text x="179.81" y="458.44">.</text>
<text x="474.45" y="193.54">+</text>
<text x="4.14" y="410.72">.</text>
<text x="152.04" y="328.72">+</text>
<text x="495.73" y="334.51">*</text>
<text x="328.23" y="190.11">.</text>
<text x="354.65" y="396.81">.</text>
<text x="259.94" y="365.63">.</text>
<text x="130.83" y="303.41">+</text>
<text x="330.11" y="443.72">*</text>
<text x="289.96" y="445.74">.</text>
<text x="116.66" y="197.45">+</text>
<text x="122.80" y="17.25">.</text>
<text x="48.18" y="207.58">+</text>
<text x="309.00" y="253.44">+</text>
<text x="82.18" y="299.51">.</text>
<text x="349.32" y="429.81">+</text>
<text x="470.78" y="229.97">*</text>
<text x="410.99" y="39.24">.</text>
<text x="47.81" y="348.68">+</text>
<text x="297.96" y="172.00">+</text>
<text x="365.30" y="405.92">.</text>
<text x="119.71" y="71.48">.</text>
<text x="199.52" y="320.43">+</text>
<text x="152.17" y="65.51">+</text>
<text x="148.07" y="112.23">*</text>
<text x="131.04" y="38.90">.</text>
<text x="25.39" y="89.55">.</text>
<text x="131.74" y="315.21">*</text>
<text x="472.88" y="59.70">+</text>
<text x="253.68" y="363.56">.</text>
<text x="483.39" y="114.95">.</text>
<text x="114.88" y="129.78">+</text>
<text x="303.50" y="215.40">.</text>
<text x="81.16" y="377.88">*</text>
<text x="88.12" y="206.57">.</text>
<text x="259.65" y="229.43">+</text>
<text x="221.65" y="390.57">.</text>
<text x="466.76" y="296.86">.</text>
<text x="464.93" y="45.11">.</text>
<text x="224.78" y="154.90">+</text>
<text x="341.11" y="230.90">*</text>
<text x="419.98" y="285.00">+</text>
<text x="384.58" y="440.75">.</text>
<text x="291.36" y="449.21">+</text>
<text x="60.09" y="227.41">*</text>
<text x="135.68" y="70.09">+</text>
<text x="326.42" y="291.25">*</text>
<text x="93.27" y="269.30">+</text>
<text x="219.19" y="20.17">.</text>
<text x="489.72" y="234.99">.</text>
<text x="271.41" y="434.61">+</text>
<text x="287.30" y="400.90">+</text>
<text x="214.30" y="32.19">.</text>
<text x="330.38" y="232.68">*</text>
<text x="5.29" y="420.36">.</text>
<text x="312.03" y="166.10">.</text>
<text x="211.64" y="337.88">.</text>
<text x="485.17" y="249.38">+</text>
<text x="112.80" y="85.18">+</text>
<text x="364.24" y="66.36">+</text>
<text x="182.31" y="29.75">*</text>
<text x="445.61" y="420.61">*</text>
<text x="349.53" y="164.88">.</text>
<text x="429.01" y="399.43">.</text>
<text x="54.32" y="218.03">.</text>
<text x="123.15" y="79.12">+</text>
<text x="456.68" y="401.99">*</text>
<text x="69.56" y="428.09">+</text>
<text x="96.11" y="26.05">*</text>
<text x="62.37" y="58.66">.</text>
<text x="106.86" y="132.87">.</text>
<text x="109.35" y="162.55">+</text>
<text x="322.45" y="99.88">.</text>
<text x="96.12" y="242.17">.</text>
<text x="258.42" y="308.81">+</text>
<text x="39.66" y="294.95">+</text>
<text x="308.58" y="365.42">.</text>
<text x="396.14" y="443.57">+</text>
<text x="381.30" y="121.47">*</text>
<text x="473.30" y="342.35">.</text>
<text x="477.42" y="114.50">.</text>
<text x="493.22" y="319.11">+</text>
<text x="298.50" y="133.08">.</text>
<text x="66.42" y="168.99">+</text>
<text x="126.12" y="427.09">.</text>
<text x="224.33" y="344.47">.</text>
<text x="499.80" y="280.80">+</text>
<text x="322.97" y="377.99">.</text>
<text x="11.52" y="418.55">+</text>
<text x="165.95" y="407.58">.</text>
<text x="18.79" y="25.50">+</text>
<text x="311.42" y="287.51">.</text>
<text x="483.36" y="269.85">.</text>
<text x="308.13" y="92.83">+</text>

</svg>