
<svg viewBox="0 0 500 500" xmlns="http://www.w.org/2000/svg" width="100%" height="100%" style="background-color: #0a0a14; font-family: 'Courier New', Courier, monospace;">
    <style>
        text { fill: #aaa; font-size: 10px; text-anchor: middle; dominant-baseline: middle; }
    </style>
    <text x="374.23" y="272.18">+</text>
<text x="422.02" y="428.02">.</text>
<text x="416.88" y="254.63">*</text>
<text x="112.53" y="168.41">*</text>
<text x="158.77" y="116.85">+</text>
<text x="378.01" y="485.93">+</text>
<text x="9.77" y="67.24">+</text>
<text x="287.39" y="15.04">+</text>
<text x="63.70" y="410.33">.</text>
<text x="183.18" y="300.22">.</text>
<text x="388.62" y="92.65">+</text>
<text x="101.53" y="363.36">+</text>
<text x="495.33" y="273.70">.</text>
<text x="132.18" y="9.92">+</text>
<text x="123.25" y="138.60">+</text>
<text x="335.31" y="365.03">+</text>
<text x="195.40" y="434.37">.</text>
<text x="315.30" y="125.06">+</text>
<text x="306.33" y="271.57">+</text>
<text x="316.95" y="373.28">+</text>
<text x="120.37" y="349.52">+</text>
<text x="85.36" y="274.93">+</text>
<text x="199.95" y="333.59">.</text>
<text x="125.13" y="40.09">.</text>
<text x="63.07" y="113.64">+</text>
<text x="128.75" y="467.56">+</text>
<text x="158.66" y="462.96">.</text>
<text x="293.21" y="149.84">*</text>
<text x="69.91" y="30.49">.</text>
<text x="132.37" y="250.56">.</text>
<text x="338.54" y="185.85">*</text>
<text x="243.14" y="43.89">.</text>
<text x="372.27" y="466.12">+</text>
<text x="44.48" y="434.89">+</text>
<text x="70.08" y="322.70">+</text>
<text x="83.01" y="495.95">+</text>
<text x="122.92" y="324.33">*</text>
<text x="17.70" y="357.73">*</text>
<text x="273.62" y="64.09">*</text>
<text x="70.79" y="333.09">+</text>
<text x="424.88" y="100.68">.</text>
<text x="396.60" y="132.17">.</text>
<text x="264.69" y="158.43">+</text>
<text x="470.39" y="307.94">+</text>
<text x="256.80" y="166.89">.</text>
<text x="338.80" y="146.24">.</text>
<text x="441.85" y="153.47">.</text>
<text x="378.55" y="218.79">.</text>
<text x="254.36" y="37.40">+</text>
<text x="111.01" y="445.97">+</text>
<text x="115.68" y="69.91">*</text>
<text x="194.13" y="367.84">.</text>
<text x="392.34" y="104.26">.</text>
<text x="168.78" y="435.03">.</text>
<text x="29.82" y="277.27">.</text>
<text x="87.52" y="288.40">.</text>
<text x="159.96" y="427.56">+</text>
<text x="295.15" y="152.69">.</text>
<text x="52.45" y="258.97">+</text>
<text x="172.74" y="61.30">+</text>
<text x="233.90" y="315.36">+</text>
<text x="257.27" y="468.52">+</text>
<text x="47.23" y="63.56">+</text>
<text x="364.02" y="464.15">*</text>
<text x="307.26" y="1.27">+</text>
<text x="405.31" y="91.45">+</text>
<text x="180.65" y="147.53">.</text>
<text x="40.23" y="80.63">.</text>
<text x="211.39" y="202.88">.</text>
<text x="481.51" y="246.36">+</text>
<text x="313.93" y="476.66">.</text>
<text x="273.94" y="223.90">.</text>
<text x="219.04" y="112.96">.</text>
<text x="452.97" y="197.02">+</text>
<text x="233.18" y="181.05">.</text>
<text x="205.44" y="429.71">+</text>
<text x="182.63" y="369.90">+</text>
<text x="458.75" y="185.32">+</text>
<text x="66.22" y="270.97">.</text>
<text x="432.04" y="18.95">.</text>
<text x="114.08" y="376.64">.</text>
<text x="272.70" y="296.49">.</text>
<text x="180.51" y="267.04">+</text>
<text x="310.30" y="424.94">.</text>
<text x="449.06" y="381.44">.</text>
<text x="89.20" y="217.70">.</text>
<text x="486.16" y="57.57">+</text>
<text x="71.26" y="127.55">+</text>
<text x="149.99" y="54.23">.</text>
<text x="379.85" y="131.93">.</text>
<text x="161.85" y="378.12">.</text>
<text x="153.66" y="106.92">*</text>
<text x="457.54" y="374.68">+</text>
<text x="300.78" y="282.90">.</text>
<text x="330.34" y="165.46">+</text>
<text x="137.78" y="210.86">.</text>
<text x="338.76" y="425.83">.</text>
<text x="57.06" y="418.19">.</text>
<text x="222.07" y="411.94">+</text>
<text x="336.72" y="252.41">*</text>
<text x="197.36" y="318.96">+</text>
<text x="485.10" y="118.12">*</text>
<text x="293.21" y="449.05">*</text>
<text x="490.30" y="428.99">+</text>
<text x="318.20" y="234.42">.</text>
<text x="308.20" y="278.78">.</text>
<text x="149.11" y="372.67">.</text>
<text x="259.27" y="58.50">.</text>
<text x="307.15" y="447.05">.</text>
<text x="280.78" y="87.68">+</text>
<text x="20.47" y="463.74">.</text>
<text x="201.84" y="254.68">.</text>
<text x="163.91" y="318.93">.</text>
<text x="378.00" y="54.58">+</text>
<text x="300.89" y="192.15">+</text>
<text x="163.54" y="137.64">+</text>
<text x="110.60" y="26.94">.</text>
<text x="58.36" y="183.61">*</text>
<text x="149.89" y="475.40">+</text>
<text x="14.01" y="192.43">+</text>
<text x="56.84" y="162.91">*</text>
<text x="353.03" y="86.70">+</text>
<text x="234.88" y="116.85">+</text>
<text x="9.78" y="16.92">.</text>
<text x="111.75" y="11.06">*</text>
<text x="360.26" y="210.26">.</text>
<text x="26.90" y="8.32">+</text>
<text x="204.46" y="423.67">*</text>
<text x="209.69" y="299.72">+</text>
<text x="425.29" y="397.79">.</text>
<text x="284.25" y="97.27">.</text>
<text x="21.34" y="56.72">*</text>
<text x="214.11" y="103.04">*</text>
<text x="273.52" y="85.01">+</text>
<text x="21.32" y="419.51">+</text>
<text x="254.82" y="137.35">*</text>
<text x="26.41" y="351.87">.</text>
<text x="403.89" y="338.78">.</text>
<text x="455.48" y="347.89">*</text>
<text x="54.42" y="374.75">.</text>
<text x="310.27" y="498.71">+</text>
<text x="101.74" y="260.46">.</text>
<text x="59.65" y="289.51">.</text>
<text x="230.29" y="289.01">+</text>
<text x="302.32" y="295.73">+</text>
<text x="356.08" y="75.26">.</text>
<text x="368.15" y="202.86">.</text>
<text x="71.12" y="412.64">.</text>
<text x="62.96" y="406.25">*</text>
<text x="199.47" y="191.96">+</text>
<text x="337.15" y="214.20">+</text>
<text x="441.12" y="84.97">*</text>
<text x="225.54" y="56.74">+</text>
<text x="323.51" y="74.88">*</text>
<text x="185.88" y="31.19">+</text>
<text x="480.97" y="325.08">+</text>
<text x="160.91" y="448.98">+</text>
<text x="292.91" y="84.51">.</text>
<text x="468.41" y="265.26">*</text>
<text x="207.41" y="122.94">.</text>
<text x="268.16" y="281.76">+</text>
<text x="295.38" y="224.72">+</text>
<text x="452.70" y="54.13">+</text>
<text x="295.24" y="294.62">.</text>
<text x="454.37" y="326.54">+</text>
<text x="375.21" y="473.25">.</text>
<text x="120.49" y="14.88">+</text>
<text x="388.01" y="433.83">.</text>
<text x="175.44" y="471.13">.</text>
<text x="419.65" y="420.59">+</text>
<text x="94.25" y="119.22">.</text>
<text x="48.38" y="255.78">.</text>
<text x="409.21" y="69.64">+</text>
<text x="222.99" y="428.22">.</text>
<text x="339.32" y="471.65">.</text>
<text x="271.89" y="20.02">+</text>
<text x="4.25" y="260.21">+</text>
<text x="80.86" y="2.01">.</text>
<text x="375.56" y="46.09">*</text>
<text x="301.19" y="286.96">.</text>
<text x="290.75" y="110.62">.</text>
<text x="349.48" y="432.95">+</text>
<text x="496.23" y="225.07">+</text>
<text x="299.42" y="222.37">*</text>
<text x="414.74" y="368.34">*</text>
<text x="164.57" y="435.38">+</text>
<text x="145.77" y="380.68">.</text>
<text x="284.78" y="488.42">+</text>
<text x="233.91" y="146.49">+</text>
<text x="407.53" y="316.84">+</text>
<text x="317.22" y="418.90">.</text>
<text x="116.09" y="259.47">.</text>
<text x="283.96" y="299.37">.</text>
<text x="164.22" y="104.98">.</text>
<text x="276.16" y="245.66">.</text>
<text x="395.58" y="47.49">+</text>
<text x="49.63" y="166.75">*</text>
<text x="308.86" y="355.41">.</text>
<text x="338.41" y="390.46">.</text>
<text x="489.04" y="300.81">.</text>
<text x="492.35" y="269.36">.</text>
<text x="490.35" y="200.68">+</text>
<text x="115.28" y="268.23">.</text>
<text x="96.85" y="75.30">.</text>
<text x="119.58" y="171.77">.</text>
<text x="499.40" y="119.34">+</text>
<text x="412.12" y="52.87">.</text>
<text x="268.24" y="401.55">.</text>
<text x="453.48" y="393.02">.</text>
<text x="318.28" y="370.81">+</text>
<text x="223.18" y="465.97">+</text>
<text x="345.80" y="461.47">+</text>
<text x="29.84" y="466.55">.</text>
<text x="92.26" y="378.14">.</text>

</svg>