
<svg viewBox="0 0 500 500" xmlns="http://www.w.org/2000/svg" width="100%" height="100%" style="background-color: #0a0a14; font-family: 'Courier New', Courier, monospace;">
    <style>
        text { fill: #aaa; font-size: 10px; text-anchor: middle; dominant-baseline: middle; }
    </style>
    <text x="286.98" y="44.81">.</text>
<text x="457.94" y="124.99">+</text>
<text x="492.34" y="158.26">*</text>
<text x="33.56" y="130.35">.</text>
<text x="38.49" y="492.31">+</text>
<text x="468.01" y="222.63">.</text>
<text x="387.13" y="103.84">+</text>
<text x="328.02" y="264.63">.</text>
<text x="138.24" y="476.88">.</text>
<text x="41.43" y="145.09">*</text>
<text x="259.86" y="459.95">.</text>
<text x="327.64" y="24.05">.</text>
<text x="189.04" y="81.00">*</text>
<text x="239.42" y="458.36">+</text>
<text x="116.64" y="391.88">.</text>
<text x="176.99" y="137.39">*</text>
<text x="24.87" y="267.61">.</text>
<text x="64.10" y="45.16">+</text>
<text x="263.79" y="367.14">.</text>
<text x="367.88" y="397.41">+</text>
<text x="3.73" y="62.98">.</text>
<text x="266.94" y="260.96">.</text>
<text x="454.53" y="52.49">.</text>
<text x="92.17" y="266.07">+</text>
<text x="103.71" y="465.04">+</text>
<text x="59.27" y="201.24">.</text>
<text x="13.53" y="301.94">.</text>
<text x="85.14" y="346.27">+</text>
<text x="495.23" y="16.94">+</text>
<text x="157.79" y="75.92">.</text>
<text x="437.61" y="347.03">.</text>
<text x="133.11" y="325.39">*</text>
<text x="346.74" y="271.68">.</text>
<text x="481.82" y="182.97">+</text>
<text x="351.94" y="232.17">.</text>
<text x="334.74" y="490.62">+</text>
<text x="296.55" y="27.88">+</text>
<text x="485.86" y="357.46">.</text>
<text x="290.23" y="259.89">.</text>
<text x="22.83" y="100.54">+</text>
<text x="354.99" y="284.34">+</text>
<text x="353.14" y="84.33">*</text>
<text x="81.18" y="169.32">.</text>
<text x="42.88" y="285.21">+</text>
<text x="179.14" y="471.52">.</text>
<text x="311.11" y="36.62">+</text>
<text x="190.17" y="207.58">+</text>
<text x="416.40" y="231.34">.</text>
<text x="204.41" y="309.27">+</text>
<text x="342.01" y="400.26">.</text>
<text x="461.77" y="223.50">+</text>
<text x="49.39" y="224.47">.</text>
<text x="126.64" y="443.06">+</text>
<text x="293.84" y="376.36">+</text>
<text x="11.72" y="317.67">+</text>
<text x="377.73" y="340.51">+</text>
<text x="317.39" y="82.14">.</text>
<text x="149.08" y="367.55">.</text>
<text x="405.41" y="493.43">.</text>
<text x="467.86" y="12.77">.</text>
<text x="364.11" y="238.58">.</text>
<text x="461.99" y="378.10">+</text>
<text x="52.47" y="44.80">*</text>
<text x="411.89" y="492.34">+</text>
<text x="77.16" y="5.96">+</text>
<text x="83.23" y="383.53">+</text>
<text x="12.56" y="411.31">+</text>
<text x="485.10" y="332.93">.</text>
<text x="160.87" y="29.95">+</text>
<text x="169.62" y="27.99">.</text>
<text x="75.68" y="405.60">+</text>
<text x="153.53" y="365.77">+</text>
<text x="238.76" y="477.93">.</text>
<text x="278.85" y="485.70">+</text>
<text x="276.56" y="137.86">+</text>
<text x="266.11" y="90.91">+</text>
<text x="211.70" y="295.24">+</text>
<text x="207.54" y="263.77">+</text>
<text x="364.68" y="81.15">.</text>
<text x="362.27" y="400.86">.</text>
<text x="349.31" y="234.88">.</text>
<text x="205.81" y="73.59">.</text>
<text x="70.17" y="212.64">+</text>
<text x="297.49" y="188.21">.</text>
<text x="328.98" y="112.78">.</text>
<text x="36.48" y="407.74">.</text>
<text x="443.77" y="198.22">+</text>
<text x="261.45" y="182.02">+</text>
<text x="229.68" y="30.97">+</text>
<text x="471.55" y="453.60">*</text>
<text x="246.12" y="277.20">*</text>
<text x="22.57" y="46.47">.</text>
<text x="254.29" y="301.48">+</text>
<text x="365.05" y="156.55">.</text>
<text x="132.94" y="318.24">+</text>
<text x="173.27" y="146.94">+</text>
<text x="444.99" y="79.86">.</text>
<text x="160.04" y="173.88">+</text>
<text x="125.56" y="318.53">.</text>
<text x="308.34" y="9.72">+</text>
<text x="179.25" y="393.22">+</text>
<text x="498.56" y="290.92">+</text>
<text x="87.18" y="215.76">+</text>
<text x="399.41" y="129.39">.</text>
<text x="199.54" y="127.16">+</text>
<text x="328.90" y="365.60">+</text>
<text x="184.94" y="197.49">+</text>
<text x="131.07" y="110.53">+</text>
<text x="403.33" y="248.58">*</text>
<text x="163.37" y="423.45">+</text>
<text x="265.98" y="369.89">.</text>
<text x="378.72" y="422.48">.</text>
<text x="436.34" y="445.26">+</text>
<text x="156.81" y="168.70">.</text>
<text x="336.70" y="73.80">+</text>
<text x="474.93" y="443.29">.</text>
<text x="423.40" y="329.70">+</text>
<text x="290.53" y="421.00">*</text>
<text x="68.31" y="447.96">.</text>
<text x="81.17" y="57.74">+</text>
<text x="475.69" y="190.02">.</text>
<text x="266.24" y="498.82">*</text>
<text x="150.28" y="497.54">+</text>
<text x="287.00" y="225.16">.</text>
<text x="80.65" y="493.49">+</text>
<text x="74.54" y="463.23">.</text>
<text x="104.18" y="191.92">.</text>
<text x="486.04" y="401.33">+</text>
<text x="226.14" y="170.44">+</text>
<text x="214.65" y="127.79">+</text>
<text x="456.39" y="23.46">+</text>
<text x="430.86" y="285.25">+</text>
<text x="350.10" y="290.37">.</text>
<text x="494.35" y="126.98">.</text>
<text x="169.03" y="220.25">.</text>
<text x="184.12" y="8.75">+</text>
<text x="125.04" y="145.79">+</text>
<text x="30.69" y="219.84">+</text>
<text x="116.59" y="329.28">.</text>
<text x="10.98" y="379.04">+</text>
<text x="120.44" y="205.58">.</text>
<text x="269.35" y="212.34">+</text>
<text x="186.46" y="231.37">+</text>
<text x="149.26" y="78.79">+</text>
<text x="29.00" y="472.55">.</text>
<text x="459.68" y="181.16">+</text>
<text x="161.21" y="451.56">+</text>
<text x="420.43" y="443.60">+</text>
<text x="397.65" y="330.20">+</text>
<text x="178.99" y="62.83">+</text>
<text x="28.70" y="149.80">*</text>
<text x="209.58" y="496.85">.</text>
<text x="36.47" y="342.00">+</text>
<text x="249.77" y="460.47">.</text>
<text x="113.60" y="292.56">+</text>
<text x="361.41" y="404.82">*</text>
<text x="34.40" y="297.17">.</text>
<text x="123.84" y="160.29">+</text>
<text x="439.53" y="25.26">+</text>
<text x="298.87" y="49.70">+</text>
<text x="289.61" y="96.37">+</text>
<text x="231.65" y="253.19">+</text>
<text x="50.36" y="286.90">*</text>
<text x="26.62" y="447.56">+</text>
<text x="475.93" y="230.30">.</text>
<text x="155.78" y="46.67">+</text>
<text x="13.55" y="181.18">+</text>
<text x="102.23" y="252.55">.</text>
<text x="372.07" y="372.23">+</text>
<text x="91.41" y="206.88">+</text>
<text x="469.09" y="165.15">+</text>
<text x="252.51" y="126.76">*</text>
<text x="459.44" y="103.00">.</text>
<text x="242.70" y="245.17">+</text>
<text x="482.50" y="57.17">.</text>
<text x="446.78" y="226.42">+</text>
<text x="340.56" y="59.23">+</text>
<text x="188.33" y="331.46">.</text>
<text x="346.37" y="415.82">+</text>
<text x="211.02" y="482.18">.</text>
<text x="148.11" y="341.35">.</text>
<text x="254.40" y="490.56">.</text>
<text x="207.00" y="17.48">.</text>
<text x="115.15" y="373.97">+</text>
<text x="152.15" y="429.25">.</text>
<text x="60.74" y="27.51">*</text>
<text x="337.15" y="124.31">.</text>
<text x="453.06" y="35.75">.</text>
<text x="324.37" y="204.28">+</text>
<text x="380.87" y="487.53">.</text>
<text x="182.57" y="183.15">+</text>
<text x="404.20" y="122.48">.</text>
<text x="63.58" y="154.97">+</text>
<text x="380.06" y="302.87">+</text>
<text x="121.00" y="215.98">.</text>
<text x="170.79" y="68.56">.</text>
<text x="279.12" y="453.26">.</text>
<text x="273.52" y="306.70">.</text>
<text x="389.06" y="148.79">+</text>
<text x="39.64" y="416.16">+</text>
<text x="121.92" y="264.38">.</text>
<text x="128.23" y="301.62">*</text>
<text x="430.31" y="430.56">+</text>
<text x="84.11" y="119.07">.</text>
<text x="183.74" y="113.66">.</text>
<text x="58.69" y="303.39">.</text>
<text x="135.77" y="29.54">.</text>
<text x="390.31" y="229.06">+</text>
<text x="256.55" y="360.53">.</text>
<text x="180.10" y="400.28">*</text>
<text x="69.31" y="91.62">+</text>
<text x="495.07" y="294.82">+</text>
<text x="358.04" y="238.03">.</text>
<text x="319.59" y="112.37">.</text>
<text x="344.10" y="93.08">.</text>
<text x="89.95" y="333.51">*</text>
<text x="392.57" y="125.79">+</text>
<text x="387.69" y="202.51">+</text>
<text x="492.81" y="360.96">.</text>
<text x="191.75" y="177.38">.</text>
<text x="324.54" y="427.14">.</text>
<text x="50.01" y="241.20">.</text>
<text x="481.07" y="468.89">.</text>
<text x="32.45" y="488.92">.</text>
<text x="71.32" y="346.23">+</text>
<text x="227.85" y="124.37">+</text>
<text x="484.61" y="313.22">+</text>

</svg>