
<svg viewBox="0 0 500 500" xmlns="http://www.w.org/2000/svg" width="100%" height="100%" style="background-color: #0a0a14; font-family: 'Courier New', Courier, monospace;">
    <style>
        text { fill: #aaa; font-size: 10px; text-anchor: middle; dominant-baseline: middle; }
    </style>
    <text x="439.30" y="412.82">.</text>
<text x="69.33" y="162.24">*</text>
<text x="140.14" y="98.93">.</text>
<text x="310.45" y="14.47">.</text>
<text x="468.60" y="374.52">+</text>
<text x="371.84" y="271.74">+</text>
<text x="449.45" y="179.64">+</text>
<text x="145.99" y="415.98">+</text>
<text x="360.10" y="122.34">+</text>
<text x="162.49" y="478.80">+</text>
<text x="387.18" y="347.41">.</text>
<text x="485.46" y="48.30">.</text>
<text x="147.73" y="468.08">.</text>
<text x="216.77" y="484.51">+</text>
<text x="389.55" y="20.95">*</text>
<text x="28.71" y="434.70">+</text>
<text x="452.67" y="384.60">.</text>
<text x="351.61" y="38.65">.</text>
<text x="287.72" y="23.74">.</text>
<text x="144.95" y="300.70">+</text>
<text x="159.26" y="327.15">*</text>
<text x="480.11" y="234.45">.</text>
<text x="266.02" y="314.97">+</text>
<text x="75.62" y="311.65">+</text>
<text x="361.60" y="405.21">+</text>
<text x="214.67" y="180.05">+</text>
<text x="297.40" y="335.12">.</text>
<text x="333.32" y="302.69">.</text>
<text x="478.00" y="347.97">*</text>
<text x="410.93" y="338.08">+</text>
<text x="452.67" y="433.96">.</text>
<text x="482.06" y="229.78">.</text>
<text x="479.91" y="248.79">.</text>
<text x="16.56" y="215.46">*</text>
<text x="27.79" y="38.36">.</text>
<text x="320.46" y="494.05">+</text>
<text x="159.59" y="18.84">.</text>
<text x="241.15" y="213.55">*</text>
<text x="480.64" y="113.43">+</text>
<text x="457.65" y="253.84">+</text>
<text x="489.27" y="269.94">+</text>
<text x="323.13" y="410.56">.</text>
<text x="78.19" y="7.41">+</text>
<text x="312.75" y="342.63">.</text>
<text x="291.61" y="163.03">.</text>
<text x="20.61" y="415.01">+</text>
<text x="121.12" y="429.30">+</text>
<text x="78.33" y="498.56">.</text>
<text x="150.17" y="222.43">.</text>
<text x="78.52" y="343.53">.</text>
<text x="263.13" y="269.83">+</text>
<text x="464.06" y="109.12">+</text>
<text x="430.14" y="453.14">.</text>
<text x="245.11" y="82.07">.</text>
<text x="436.76" y="377.39">.</text>
<text x="250.40" y="116.56">+</text>
<text x="120.46" y="443.73">+</text>
<text x="148.39" y="254.85">+</text>
<text x="363.75" y="226.41">.</text>
<text x="205.70" y="187.37">.</text>
<text x="171.43" y="77.27">+</text>
<text x="410.68" y="87.53">*</text>
<text x="94.91" y="149.49">+</text>
<text x="368.46" y="433.49">+</text>
<text x="20.70" y="296.37">.</text>
<text x="438.78" y="265.96">*</text>
<text x="348.18" y="275.67">.</text>
<text x="214.61" y="405.77">+</text>
<text x="407.72" y="117.12">.</text>
<text x="418.62" y="461.31">+</text>
<text x="348.74" y="207.44">*</text>
<text x="249.72" y="31.96">*</text>
<text x="222.11" y="446.43">*</text>
<text x="403.79" y="194.99">*</text>
<text x="71.21" y="175.52">.</text>
<text x="147.94" y="144.38">.</text>
<text x="434.91" y="496.08">.</text>
<text x="277.68" y="360.52">+</text>
<text x="367.72" y="123.29">.</text>
<text x="137.60" y="356.70">+</text>
<text x="121.00" y="220.20">.</text>
<text x="415.39" y="215.27">.</text>
<text x="190.64" y="472.07">.</text>
<text x="137.40" y="414.20">.</text>
<text x="415.07" y="496.34">+</text>
<text x="372.87" y="189.49">*</text>
<text x="208.07" y="143.56">.</text>
<text x="177.49" y="96.78">.</text>
<text x="360.39" y="40.61">*</text>
<text x="440.48" y="307.69">.</text>
<text x="5.10" y="394.75">+</text>
<text x="450.77" y="153.73">+</text>
<text x="16.59" y="30.90">.</text>
<text x="214.59" y="218.15">+</text>
<text x="244.73" y="478.89">.</text>
<text x="451.40" y="40.87">*</text>
<text x="447.87" y="151.57">.</text>
<text x="357.21" y="194.30">.</text>
<text x="105.32" y="147.33">+</text>
<text x="361.48" y="461.35">.</text>
<text x="246.51" y="248.16">.</text>
<text x="370.23" y="452.71">.</text>
<text x="167.93" y="162.30">+</text>
<text x="111.30" y="431.90">+</text>
<text x="162.57" y="17.95">.</text>
<text x="83.44" y="429.86">.</text>
<text x="180.04" y="171.99">+</text>
<text x="150.92" y="10.69">.</text>
<text x="371.57" y="66.18">+</text>
<text x="479.86" y="308.89">.</text>
<text x="378.61" y="269.52">+</text>
<text x="498.72" y="64.14">+</text>
<text x="205.36" y="82.12">*</text>
<text x="493.69" y="79.02">*</text>
<text x="105.97" y="299.33">.</text>
<text x="136.54" y="144.40">.</text>
<text x="111.28" y="458.83">.</text>
<text x="368.96" y="261.10">*</text>
<text x="466.99" y="301.33">+</text>
<text x="496.45" y="389.22">.</text>
<text x="104.23" y="371.08">.</text>
<text x="243.98" y="104.96">+</text>
<text x="38.37" y="293.90">.</text>
<text x="289.25" y="81.31">.</text>
<text x="346.60" y="72.27">.</text>
<text x="139.31" y="181.96">.</text>
<text x="311.47" y="38.79">.</text>
<text x="497.43" y="108.78">+</text>
<text x="304.46" y="206.36">.</text>
<text x="361.85" y="403.55">.</text>
<text x="325.94" y="383.82">+</text>
<text x="28.19" y="332.76">.</text>
<text x="354.68" y="10.18">+</text>
<text x="280.86" y="150.99">+</text>
<text x="354.22" y="435.51">+</text>
<text x="353.59" y="306.60">.</text>
<text x="136.45" y="437.27">.</text>
<text x="412.33" y="285.01">.</text>
<text x="129.45" y="276.94">.</text>
<text x="360.66" y="34.96">+</text>
<text x="265.56" y="370.87">+</text>
<text x="72.22" y="229.59">.</text>
<text x="395.94" y="282.25">.</text>
<text x="408.61" y="115.18">*</text>
<text x="155.60" y="24.20">*</text>
<text x="437.11" y="344.32">.</text>
<text x="82.01" y="144.25">+</text>
<text x="201.83" y="181.65">.</text>
<text x="251.28" y="447.29">+</text>
<text x="147.54" y="127.93">+</text>
<text x="249.66" y="186.84">.</text>
<text x="13.87" y="435.21">.</text>
<text x="198.69" y="106.14">.</text>
<text x="24.50" y="495.54">.</text>
<text x="50.63" y="296.70">*</text>
<text x="238.98" y="20.51">.</text>
<text x="239.63" y="234.89">+</text>
<text x="79.67" y="26.25">.</text>
<text x="379.02" y="382.90">+</text>
<text x="275.31" y="47.34">+</text>
<text x="37.02" y="92.12">*</text>
<text x="64.84" y="498.39">.</text>
<text x="44.48" y="169.03">.</text>
<text x="147.42" y="363.75">.</text>
<text x="354.31" y="311.69">+</text>
<text x="429.48" y="416.63">.</text>
<text x="171.69" y="393.76">+</text>
<text x="373.13" y="338.07">+</text>
<text x="90.02" y="9.63">+</text>
<text x="73.28" y="259.52">*</text>
<text x="462.06" y="329.54">+</text>
<text x="430.32" y="339.56">.</text>
<text x="342.58" y="258.45">.</text>
<text x="424.43" y="231.27">.</text>
<text x="369.92" y="234.18">.</text>
<text x="378.03" y="60.35">.</text>
<text x="128.32" y="205.85">.</text>
<text x="155.72" y="425.10">.</text>
<text x="459.31" y="368.08">+</text>
<text x="268.34" y="205.19">*</text>
<text x="142.04" y="220.55">.</text>
<text x="288.92" y="466.51">+</text>
<text x="457.43" y="60.85">.</text>
<text x="327.96" y="305.54">*</text>
<text x="395.09" y="111.73">.</text>
<text x="412.59" y="249.03">.</text>
<text x="328.86" y="116.80">+</text>
<text x="435.57" y="373.95">.</text>
<text x="348.88" y="440.67">+</text>
<text x="449.55" y="407.76">+</text>
<text x="182.85" y="337.60">*</text>
<text x="139.10" y="448.55">+</text>
<text x="103.17" y="164.97">.</text>
<text x="242.20" y="109.77">.</text>
<text x="337.31" y="457.40">+</text>
<text x="222.02" y="63.18">+</text>
<text x="85.23" y="165.81">*</text>
<text x="409.74" y="470.56">+</text>
<text x="250.08" y="475.46">+</text>
<text x="32.40" y="419.95">+</text>
<text x="425.20" y="457.54">.</text>
<text x="133.99" y="446.50">+</text>
<text x="209.06" y="225.31">+</text>
<text x="370.80" y="118.22">.</text>
<text x="52.54" y="292.90">*</text>
<text x="43.07" y="182.86">.</text>
<text x="198.74" y="429.88">.</text>
<text x="77.84" y="310.77">*</text>

</svg>