
<svg viewBox="0 0 500 500" xmlns="http://www.w.org/2000/svg" width="100%" height="100%" style="background-color: #0a0a14; font-family: 'Courier New', Courier, monospace;">
    <style>
        text { fill: #aaa; font-size: 10px; text-anchor: middle; dominant-baseline: middle; }
    </style>
    <text x="498.69" y="350.51">.</text>
<text x="54.76" y="487.61">.</text>
<text x="50.68" y="134.83">+</text>
<text x="58.29" y="167.55">+</text>
<text x="264.95" y="491.92">.</text>
<text x="183.90" y="296.89">.</text>
<text x="10.05" y="438.65">+</text>
<text x="427.32" y="319.61">.</text>
<text x="165.63" y="338.57">.</text>
<text x="185.74" y="196.59">.</text>
<text x="318.91" y="75.38">*</text>
<text x="286.80" y="425.08">+</text>
<text x="241.42" y="35.46">*</text>
<text x="120.82" y="382.23">.</text>
<text x="162.97" y="296.67">*</text>
<text x="253.68" y="51.28">+</text>
<text x="483.31" y="124.64">+</text>
<text x="232.23" y="197.36">+</text>
<text x="202.43" y="34.82">+</text>
<text x="407.20" y="462.26">+</text>
<text x="30.41" y="334.15">.</text>
<text x="134.17" y="154.65">*</text>
<text x="121.32" y="293.76">.</text>
<text x="6.35" y="473.41">+</text>
<text x="120.77" y="414.31">+</text>
<text x="21.72" y="424.06">.</text>
<text x="234.67" y="374.96">.</text>
<text x="262.76" y="271.77">+</text>
<text x="249.20" y="275.24">+</text>
<text x="454.59" y="87.30">*</text>
<text x="100.33" y="108.68">.</text>
<text x="329.58" y="133.69">.</text>
<text x="198.73" y="310.33">+</text>
<text x="46.30" y="351.72">.</text>
<text x="169.46" y="386.08">*</text>
<text x="145.99" y="84.39">+</text>
<text x="187.83" y="172.88">.</text>
<text x="414.28" y="362.75">.</text>
<text x="341.71" y="457.04">+</text>
<text x="408.23" y="198.09">.</text>
<text x="379.92" y="17.33">.</text>
<text x="284.35" y="241.84">*</text>
<text x="492.63" y="12.82">.</text>
<text x="148.80" y="208.41">*</text>
<text x="63.13" y="257.58">.</text>
<text x="332.44" y="189.65">.</text>
<text x="270.68" y="445.68">.</text>
<text x="473.91" y="92.03">.</text>
<text x="367.94" y="298.50">+</text>
<text x="178.26" y="371.19">*</text>
<text x="359.54" y="166.33">+</text>
<text x="76.58" y="481.73">+</text>
<text x="377.03" y="388.10">*</text>
<text x="69.46" y="151.58">.</text>
<text x="480.36" y="469.59">+</text>
<text x="100.02" y="55.55">.</text>
<text x="466.36" y="364.66">.</text>
<text x="245.83" y="141.68">.</text>
<text x="181.84" y="378.33">.</text>
<text x="472.45" y="140.87">+</text>
<text x="372.64" y="28.21">*</text>
<text x="455.57" y="66.83">*</text>
<text x="380.01" y="375.52">+</text>
<text x="277.04" y="474.44">.</text>
<text x="380.60" y="153.74">+</text>
<text x="444.27" y="294.62">.</text>
<text x="314.68" y="41.85">+</text>
<text x="401.65" y="103.03">.</text>
<text x="25.30" y="395.04">+</text>
<text x="171.86" y="54.97">+</text>
<text x="165.19" y="31.78">.</text>
<text x="122.49" y="410.13">+</text>
<text x="300.85" y="348.54">.</text>
<text x="156.71" y="168.35">.</text>
<text x="417.82" y="163.74">+</text>
<text x="76.89" y="108.46">.</text>
<text x="475.52" y="390.13">+</text>
<text x="368.60" y="165.81">+</text>
<text x="373.48" y="337.44">*</text>
<text x="16.88" y="287.45">.</text>
<text x="419.76" y="125.22">+</text>
<text x="20.88" y="172.81">+</text>
<text x="116.73" y="377.40">*</text>
<text x="345.62" y="140.85">.</text>
<text x="289.29" y="289.59">+</text>
<text x="66.70" y="34.65">+</text>
<text x="205.78" y="282.09">.</text>
<text x="9.46" y="179.75">.</text>
<text x="67.72" y="90.24">.</text>
<text x="314.79" y="469.60">.</text>
<text x="431.42" y="192.77">.</text>
<text x="462.50" y="374.92">+</text>
<text x="342.67" y="177.11">+</text>
<text x="494.44" y="457.32">*</text>
<text x="171.32" y="262.59">+</text>
<text x="298.74" y="315.48">.</text>
<text x="263.09" y="178.07">+</text>
<text x="297.74" y="239.46">.</text>
<text x="463.52" y="101.24">*</text>
<text x="230.64" y="77.71">+</text>
<text x="349.55" y="367.00">+</text>
<text x="318.33" y="484.48">+</text>
<text x="291.32" y="53.17">.</text>
<text x="24.02" y="245.77">.</text>
<text x="228.18" y="404.10">*</text>
<text x="33.99" y="61.04">*</text>
<text x="216.31" y="320.32">.</text>
<text x="246.02" y="163.97">.</text>
<text x="165.35" y="249.69">+</text>
<text x="399.37" y="254.45">.</text>
<text x="401.04" y="474.72">+</text>
<text x="236.50" y="92.73">+</text>
<text x="428.95" y="102.52">*</text>
<text x="198.87" y="122.93">.</text>
<text x="439.33" y="475.37">.</text>
<text x="267.06" y="273.32">.</text>
<text x="185.07" y="297.52">+</text>
<text x="296.54" y="174.88">*</text>
<text x="429.69" y="340.47">+</text>
<text x="178.18" y="25.93">+</text>
<text x="315.40" y="34.88">+</text>
<text x="22.71" y="229.90">.</text>
<text x="247.43" y="47.78">.</text>
<text x="465.45" y="76.89">+</text>
<text x="423.02" y="153.63">*</text>
<text x="230.64" y="309.65">+</text>
<text x="400.95" y="71.02">.</text>
<text x="275.78" y="73.72">+</text>
<text x="157.03" y="281.16">.</text>
<text x="346.54" y="432.91">+</text>
<text x="472.89" y="327.68">.</text>
<text x="371.54" y="320.64">+</text>
<text x="371.43" y="128.16">.</text>
<text x="446.30" y="25.00">+</text>
<text x="160.58" y="81.73">+</text>
<text x="360.71" y="79.60">*</text>
<text x="224.10" y="180.66">+</text>
<text x="343.62" y="377.10">+</text>
<text x="219.83" y="157.44">.</text>
<text x="20.15" y="440.05">*</text>
<text x="368.56" y="5.36">.</text>
<text x="208.98" y="241.40">+</text>
<text x="458.51" y="442.91">+</text>
<text x="224.84" y="66.53">*</text>
<text x="71.77" y="272.02">*</text>
<text x="100.92" y="261.97">+</text>
<text x="17.17" y="456.31">.</text>
<text x="63.92" y="69.77">.</text>
<text x="95.65" y="408.75">.</text>
<text x="29.13" y="382.43">.</text>
<text x="213.10" y="21.74">+</text>
<text x="432.20" y="465.80">.</text>
<text x="97.39" y="231.18">+</text>
<text x="23.99" y="128.21">+</text>
<text x="223.28" y="32.97">.</text>
<text x="34.25" y="76.92">+</text>
<text x="483.65" y="250.56">.</text>
<text x="383.60" y="440.29">.</text>
<text x="93.32" y="163.68">+</text>
<text x="101.64" y="455.24">.</text>
<text x="415.92" y="316.76">+</text>
<text x="26.29" y="113.03">.</text>
<text x="448.87" y="384.96">.</text>
<text x="494.50" y="189.85">.</text>
<text x="462.00" y="163.53">+</text>
<text x="388.76" y="247.99">.</text>
<text x="244.73" y="311.52">+</text>
<text x="8.44" y="45.55">.</text>
<text x="80.52" y="247.79">+</text>
<text x="190.19" y="464.35">.</text>
<text x="223.39" y="428.44">+</text>
<text x="99.93" y="424.45">*</text>
<text x="238.34" y="123.21">+</text>
<text x="496.82" y="459.01">.</text>
<text x="2.99" y="487.87">.</text>
<text x="186.00" y="455.19">*</text>
<text x="14.79" y="42.22">.</text>
<text x="457.30" y="192.99">+</text>
<text x="174.96" y="397.82">*</text>
<text x="280.32" y="143.37">+</text>
<text x="431.54" y="298.37">.</text>
<text x="400.16" y="169.07">.</text>
<text x="32.04" y="398.94">.</text>
<text x="432.91" y="496.29">.</text>
<text x="63.56" y="19.09">.</text>
<text x="353.21" y="67.52">+</text>
<text x="496.22" y="100.12">*</text>
<text x="327.66" y="419.10">+</text>
<text x="152.72" y="111.72">*</text>
<text x="305.34" y="367.56">.</text>
<text x="141.29" y="286.36">.</text>
<text x="467.54" y="363.98">*</text>
<text x="119.54" y="421.06">+</text>
<text x="414.44" y="157.16">.</text>
<text x="278.99" y="395.53">+</text>
<text x="117.32" y="471.82">*</text>
<text x="441.56" y="21.14">*</text>
<text x="337.03" y="208.43">+</text>
<text x="213.28" y="173.08">.</text>
<text x="114.18" y="416.19">.</text>
<text x="102.96" y="418.86">.</text>
<text x="72.73" y="8.52">+</text>
<text x="242.59" y="439.76">+</text>
<text x="469.54" y="461.71">*</text>
<text x="175.79" y="133.90">+</text>
<text x="424.33" y="330.56">.</text>
<text x="480.20" y="84.81">.</text>
<text x="152.44" y="441.91">.</text>
<text x="318.73" y="362.53">*</text>

</svg>