
<svg viewBox="0 0 500 500" xmlns="http://www.w.org/2000/svg" width="100%" height="100%" style="background-color: #0a0a14; font-family: 'Courier New', Courier, monospace;">
    <style>
        text { fill: #aaa; font-size: 10px; text-anchor: middle; dominant-baseline: middle; }
    </style>
    <text x="215.61" y="348.37">+</text>
<text x="325.96" y="260.08">+</text>
<text x="186.21" y="54.97">+</text>
<text x="268.23" y="272.24">*</text>
<text x="254.88" y="167.23">.</text>
<text x="301.93" y="303.85">+</text>
<text x="34.36" y="14.62">*</text>
<text x="163.17" y="241.19">*</text>
<text x="407.01" y="40.13">.</text>
<text x="173.22" y="346.12">+</text>
<text x="129.69" y="379.25">.</text>
<text x="150.26" y="401.09">.</text>
<text x="8.28" y="131.25">.</text>
<text x="444.88" y="103.44">.</text>
<text x="152.35" y="171.26">+</text>
<text x="203.79" y="347.54">*</text>
<text x="267.07" y="434.40">+</text>
<text x="486.48" y="421.86">.</text>
<text x="41.52" y="197.62">.</text>
<text x="165.33" y="109.89">.</text>
<text x="427.61" y="267.36">.</text>
<text x="221.70" y="464.70">+</text>
<text x="265.47" y="67.99">.</text>
<text x="460.78" y="438.13">*</text>
<text x="326.21" y="293.60">.</text>
<text x="193.93" y="292.24">+</text>
<text x="67.79" y="391.65">*</text>
<text x="203.20" y="74.88">.</text>
<text x="194.69" y="13.17">+</text>
<text x="487.68" y="276.01">+</text>
<text x="474.28" y="186.87">*</text>
<text x="130.16" y="476.23">*</text>
<text x="409.89" y="381.69">*</text>
<text x="464.37" y="323.89">*</text>
<text x="447.51" y="335.61">+</text>
<text x="178.95" y="264.80">+</text>
<text x="274.24" y="499.84">.</text>
<text x="267.65" y="236.66">.</text>
<text x="321.30" y="87.70">+</text>
<text x="211.66" y="182.51">+</text>
<text x="55.59" y="340.05">.</text>
<text x="184.05" y="44.20">.</text>
<text x="465.22" y="341.46">.</text>
<text x="87.06" y="295.81">*</text>
<text x="67.69" y="185.21">+</text>
<text x="94.18" y="244.18">*</text>
<text x="213.53" y="483.05">.</text>
<text x="100.83" y="46.20">.</text>
<text x="194.81" y="25.65">*</text>
<text x="77.61" y="233.99">+</text>
<text x="309.03" y="59.08">+</text>
<text x="393.85" y="383.70">.</text>
<text x="248.80" y="433.94">*</text>
<text x="124.73" y="60.30">.</text>
<text x="331.01" y="166.43">.</text>
<text x="273.99" y="454.99">+</text>
<text x="330.62" y="252.11">.</text>
<text x="309.94" y="385.02">+</text>
<text x="499.04" y="364.96">.</text>
<text x="420.25" y="216.35">+</text>
<text x="143.62" y="335.54">*</text>
<text x="349.07" y="357.41">*</text>
<text x="386.97" y="46.87">+</text>
<text x="112.63" y="110.15">.</text>
<text x="6.93" y="474.29">+</text>
<text x="24.47" y="74.15">+</text>
<text x="175.84" y="65.20">.</text>
<text x="187.31" y="18.82">+</text>
<text x="447.78" y="105.19">+</text>
<text x="60.22" y="328.67">+</text>
<text x="30.09" y="61.29">+</text>
<text x="280.75" y="109.58">+</text>
<text x="48.87" y="358.62">.</text>
<text x="115.54" y="497.83">+</text>
<text x="397.54" y="374.34">.</text>
<text x="247.52" y="143.73">.</text>
<text x="165.28" y="129.19">.</text>
<text x="40.44" y="74.25">.</text>
<text x="314.64" y="473.64">+</text>
<text x="393.74" y="398.02">.</text>
<text x="347.76" y="152.17">.</text>
<text x="88.53" y="160.90">.</text>
<text x="429.45" y="312.59">.</text>
<text x="161.65" y="241.70">+</text>
<text x="15.34" y="332.75">.</text>
<text x="29.49" y="155.95">*</text>
<text x="186.25" y="373.73">+</text>
<text x="255.85" y="415.83">.</text>
<text x="85.00" y="423.66">.</text>
<text x="290.15" y="468.05">.</text>
<text x="386.81" y="391.27">+</text>
<text x="212.88" y="193.47">+</text>
<text x="64.93" y="493.80">.</text>
<text x="108.87" y="124.13">+</text>
<text x="139.37" y="110.26">*</text>
<text x="365.61" y="21.10">.</text>
<text x="304.37" y="396.66">.</text>
<text x="271.09" y="425.53">+</text>
<text x="344.53" y="167.22">+</text>
<text x="67.54" y="97.85">*</text>
<text x="253.36" y="59.34">.</text>
<text x="461.65" y="110.77">.</text>
<text x="312.09" y="116.32">+</text>
<text x="127.91" y="351.99">.</text>
<text x="458.26" y="158.53">+</text>
<text x="49.55" y="76.30">*</text>
<text x="398.74" y="366.60">.</text>
<text x="106.99" y="277.18">+</text>
<text x="88.81" y="207.34">.</text>
<text x="61.71" y="418.00">.</text>
<text x="440.26" y="423.08">+</text>
<text x="188.62" y="257.89">+</text>
<text x="205.05" y="327.52">+</text>
<text x="260.81" y="17.71">+</text>
<text x="190.29" y="112.07">*</text>
<text x="491.74" y="343.14">+</text>
<text x="313.81" y="374.46">*</text>
<text x="427.32" y="9.29">+</text>
<text x="367.67" y="91.56">+</text>
<text x="216.51" y="352.21">+</text>
<text x="373.74" y="198.94">+</text>
<text x="34.74" y="407.09">+</text>
<text x="89.43" y="274.96">+</text>
<text x="332.11" y="61.47">+</text>
<text x="96.62" y="15.33">+</text>
<text x="367.94" y="358.99">.</text>
<text x="461.35" y="472.52">*</text>
<text x="33.55" y="9.26">*</text>
<text x="471.92" y="19.48">+</text>
<text x="385.48" y="389.56">+</text>
<text x="87.55" y="262.39">.</text>
<text x="396.59" y="82.33">.</text>
<text x="96.11" y="385.96">.</text>
<text x="467.54" y="414.70">*</text>
<text x="95.88" y="177.40">*</text>
<text x="161.42" y="482.62">+</text>
<text x="335.19" y="116.31">*</text>
<text x="288.31" y="359.34">+</text>
<text x="278.60" y="310.54">*</text>
<text x="51.62" y="108.23">*</text>
<text x="417.36" y="449.55">*</text>
<text x="273.23" y="92.86">.</text>
<text x="477.49" y="417.86">.</text>
<text x="365.89" y="207.27">+</text>
<text x="450.06" y="456.49">.</text>
<text x="473.67" y="103.42">*</text>
<text x="239.13" y="491.23">.</text>
<text x="335.40" y="258.34">+</text>
<text x="323.86" y="432.41">.</text>
<text x="95.10" y="149.36">+</text>
<text x="370.77" y="479.04">+</text>
<text x="103.86" y="250.81">+</text>
<text x="273.13" y="320.80">*</text>
<text x="59.16" y="443.61">+</text>
<text x="469.12" y="249.42">.</text>
<text x="368.36" y="125.65">.</text>
<text x="169.75" y="270.41">.</text>
<text x="202.10" y="147.44">.</text>
<text x="52.03" y="126.06">*</text>
<text x="20.93" y="264.59">.</text>
<text x="239.08" y="369.27">.</text>
<text x="185.57" y="9.15">+</text>
<text x="295.41" y="318.29">.</text>
<text x="53.02" y="428.66">*</text>
<text x="271.75" y="469.39">.</text>
<text x="158.60" y="411.06">+</text>
<text x="242.68" y="315.55">+</text>
<text x="62.78" y="290.05">.</text>
<text x="487.79" y="299.03">+</text>
<text x="169.65" y="183.20">.</text>
<text x="277.94" y="350.53">.</text>
<text x="361.67" y="76.88">+</text>
<text x="95.40" y="470.82">.</text>
<text x="54.88" y="26.45">.</text>
<text x="397.28" y="311.61">+</text>
<text x="409.77" y="57.81">+</text>
<text x="368.36" y="464.21">.</text>
<text x="98.16" y="397.76">.</text>
<text x="347.96" y="323.02">+</text>
<text x="205.30" y="270.24">.</text>
<text x="431.34" y="335.31">+</text>
<text x="423.02" y="138.09">*</text>
<text x="213.85" y="479.93">+</text>
<text x="29.54" y="226.25">.</text>
<text x="475.36" y="453.05">.</text>
<text x="168.71" y="419.36">*</text>
<text x="97.19" y="67.30">.</text>
<text x="367.54" y="31.36">.</text>
<text x="368.78" y="47.10">+</text>
<text x="111.34" y="158.69">.</text>
<text x="233.14" y="424.26">+</text>
<text x="360.04" y="59.65">+</text>
<text x="261.22" y="98.60">*</text>
<text x="218.47" y="178.24">*</text>
<text x="360.15" y="272.62">+</text>
<text x="290.22" y="441.93">+</text>
<text x="201.30" y="121.38">+</text>
<text x="479.11" y="486.34">*</text>
<text x="18.68" y="16.63">.</text>

</svg>