
<svg viewBox="0 0 500 500" xmlns="http://www.w.org/2000/svg" width="100%" height="100%" style="background-color: #0a0a14; font-family: 'Courier New', Courier, monospace;">
    <style>
        text { fill: #aaa; font-size: 10px; text-anchor: middle; dominant-baseline: middle; }
    </style>
    <text x="79.90" y="202.74">.</text>
<text x="457.13" y="375.97">+</text>
<text x="338.68" y="237.92">.</text>
<text x="66.68" y="126.90">+</text>
<text x="310.14" y="198.73">+</text>
<text x="344.81" y="165.28">.</text>
<text x="427.50" y="360.31">+</text>
<text x="300.60" y="117.05">+</text>
<text x="37.98" y="365.14">*</text>
<text x="56.07" y="357.01">+</text>
<text x="295.58" y="476.05">+</text>
<text x="285.08" y="53.57">+</text>
<text x="314.07" y="78.81">*</text>
<text x="17.93" y="466.44">*</text>
<text x="456.22" y="368.05">*</text>
<text x="305.42" y="480.14">*</text>
<text x="335.03" y="324.60">.</text>
<text x="291.15" y="321.26">+</text>
<text x="186.80" y="337.13">.</text>
<text x="93.86" y="428.99">+</text>
<text x="434.62" y="70.03">.</text>
<text x="334.04" y="486.79">.</text>
<text x="163.07" y="69.64">.</text>
<text x="149.26" y="10.44">.</text>
<text x="90.74" y="186.96">.</text>
<text x="242.04" y="17.91">.</text>
<text x="44.48" y="479.33">+</text>
<text x="338.32" y="100.92">+</text>
<text x="23.07" y="263.66">+</text>
<text x="445.89" y="268.64">+</text>
<text x="148.17" y="175.30">.</text>
<text x="491.21" y="159.75">.</text>
<text x="113.68" y="495.57">.</text>
<text x="323.48" y="443.33">+</text>
<text x="366.39" y="344.62">+</text>
<text x="451.66" y="179.32">*</text>
<text x="242.02" y="138.84">+</text>
<text x="481.00" y="5.42">.</text>
<text x="134.47" y="4.63">+</text>
<text x="309.37" y="23.91">+</text>
<text x="80.74" y="239.27">+</text>
<text x="24.73" y="179.67">.</text>
<text x="171.19" y="344.23">+</text>
<text x="477.90" y="50.75">.</text>
<text x="116.32" y="385.81">.</text>
<text x="67.30" y="365.86">.</text>
<text x="178.90" y="59.20">+</text>
<text x="71.76" y="114.02">+</text>
<text x="351.96" y="64.26">+</text>
<text x="342.91" y="351.93">+</text>
<text x="45.79" y="452.12">+</text>
<text x="391.11" y="288.60">+</text>
<text x="204.65" y="420.78">.</text>
<text x="465.60" y="84.71">+</text>
<text x="83.89" y="117.45">+</text>
<text x="85.17" y="470.20">+</text>
<text x="21.43" y="224.82">.</text>
<text x="196.75" y="290.89">+</text>
<text x="13.21" y="275.21">*</text>
<text x="214.15" y="308.47">*</text>
<text x="377.67" y="265.73">+</text>
<text x="276.19" y="128.59">.</text>
<text x="496.17" y="24.98">.</text>
<text x="186.66" y="19.03">+</text>
<text x="83.24" y="424.77">+</text>
<text x="283.48" y="27.37">.</text>
<text x="180.10" y="327.29">+</text>
<text x="384.71" y="357.20">*</text>
<text x="49.23" y="31.79">.</text>
<text x="413.58" y="119.17">+</text>
<text x="347.58" y="160.03">.</text>
<text x="482.23" y="464.99">.</text>
<text x="8.86" y="204.73">+</text>
<text x="202.90" y="488.62">.</text>
<text x="216.49" y="313.25">.</text>
<text x="154.96" y="305.85">*</text>
<text x="153.11" y="346.03">+</text>
<text x="336.96" y="304.18">.</text>
<text x="200.40" y="420.12">.</text>
<text x="462.88" y="259.17">*</text>
<text x="167.06" y="109.74">.</text>
<text x="465.77" y="4.70">+</text>
<text x="316.07" y="318.99">.</text>
<text x="54.77" y="299.50">*</text>
<text x="150.35" y="179.40">+</text>
<text x="80.45" y="37.75">.</text>
<text x="321.40" y="287.87">+</text>
<text x="167.38" y="479.22">*</text>
<text x="296.75" y="29.70">+</text>
<text x="419.62" y="235.25">.</text>
<text x="152.95" y="190.75">.</text>
<text x="293.40" y="276.09">.</text>
<text x="226.45" y="486.27">+</text>
<text x="57.68" y="80.65">.</text>
<text x="183.29" y="473.93">.</text>
<text x="459.60" y="424.36">*</text>
<text x="411.49" y="100.66">.</text>
<text x="278.59" y="20.75">+</text>
<text x="465.02" y="303.61">*</text>
<text x="454.78" y="454.91">+</text>
<text x="70.08" y="15.95">.</text>
<text x="226.79" y="405.49">+</text>
<text x="477.00" y="90.24">+</text>
<text x="329.98" y="42.78">.</text>
<text x="175.40" y="32.74">.</text>
<text x="149.09" y="19.74">+</text>
<text x="292.77" y="482.79">*</text>
<text x="453.14" y="222.78">+</text>
<text x="373.44" y="296.91">.</text>
<text x="211.56" y="175.08">*</text>
<text x="341.21" y="159.43">+</text>
<text x="120.97" y="141.12">.</text>
<text x="280.21" y="329.74">*</text>
<text x="257.53" y="72.07">*</text>
<text x="345.31" y="26.51">.</text>
<text x="441.47" y="74.41">.</text>
<text x="82.61" y="400.76">+</text>
<text x="196.84" y="13.18">+</text>
<text x="169.58" y="259.35">+</text>
<text x="44.86" y="157.69">.</text>
<text x="131.34" y="214.83">*</text>
<text x="229.85" y="281.81">.</text>
<text x="294.03" y="59.11">*</text>
<text x="419.77" y="209.53">.</text>
<text x="251.04" y="404.82">+</text>
<text x="49.74" y="350.28">+</text>
<text x="120.44" y="89.97">+</text>
<text x="16.51" y="82.48">.</text>
<text x="429.15" y="223.56">*</text>
<text x="229.78" y="374.10">+</text>
<text x="15.82" y="142.08">.</text>
<text x="373.88" y="184.26">+</text>
<text x="328.81" y="39.00">*</text>
<text x="231.25" y="101.12">+</text>
<text x="71.90" y="279.34">.</text>
<text x="434.75" y="184.79">.</text>
<text x="191.15" y="20.96">+</text>
<text x="459.59" y="457.61">+</text>
<text x="272.61" y="330.41">+</text>
<text x="497.60" y="247.77">.</text>
<text x="262.15" y="475.63">.</text>
<text x="287.32" y="273.13">+</text>
<text x="131.57" y="75.11">.</text>
<text x="99.42" y="423.78">+</text>
<text x="9.02" y="397.65">*</text>
<text x="25.45" y="433.06">.</text>
<text x="254.32" y="330.24">.</text>
<text x="324.22" y="48.13">*</text>
<text x="168.10" y="486.76">.</text>
<text x="201.56" y="175.63">+</text>
<text x="205.75" y="34.90">+</text>
<text x="298.35" y="300.76">+</text>
<text x="340.81" y="410.01">.</text>
<text x="44.00" y="345.23">.</text>
<text x="388.82" y="207.72">.</text>
<text x="70.62" y="206.30">+</text>
<text x="66.60" y="398.84">+</text>
<text x="335.72" y="79.93">*</text>
<text x="14.43" y="69.63">+</text>
<text x="410.84" y="148.03">+</text>
<text x="41.10" y="455.52">.</text>
<text x="221.43" y="496.34">+</text>
<text x="281.31" y="25.84">.</text>
<text x="217.30" y="0.04">*</text>
<text x="343.53" y="146.93">+</text>
<text x="23.25" y="451.87">*</text>
<text x="209.92" y="319.82">.</text>
<text x="229.19" y="109.32">+</text>
<text x="92.26" y="123.67">.</text>
<text x="269.52" y="376.91">+</text>
<text x="5.80" y="442.25">+</text>
<text x="222.23" y="62.98">+</text>
<text x="360.15" y="373.04">+</text>
<text x="357.90" y="68.00">.</text>
<text x="114.44" y="292.18">+</text>
<text x="226.01" y="263.27">.</text>
<text x="326.77" y="463.33">.</text>
<text x="161.64" y="91.76">.</text>
<text x="275.73" y="470.56">+</text>
<text x="258.35" y="421.12">+</text>
<text x="277.34" y="188.02">.</text>
<text x="164.60" y="470.92">+</text>
<text x="184.58" y="228.06">*</text>
<text x="104.98" y="313.12">.</text>
<text x="313.30" y="476.69">+</text>
<text x="440.69" y="120.31">*</text>
<text x="463.43" y="391.56">+</text>
<text x="244.21" y="144.50">.</text>
<text x="96.79" y="98.22">+</text>
<text x="325.18" y="358.86">*</text>
<text x="345.14" y="321.71">.</text>
<text x="446.80" y="435.26">+</text>
<text x="80.75" y="96.69">.</text>
<text x="397.82" y="473.87">.</text>
<text x="416.10" y="242.56">+</text>
<text x="314.80" y="467.10">.</text>
<text x="369.95" y="339.19">+</text>
<text x="218.20" y="148.00">.</text>
<text x="192.31" y="74.59">.</text>
<text x="75.75" y="158.61">.</text>
<text x="99.65" y="473.03">+</text>
<text x="287.32" y="219.81">.</text>
<text x="341.32" y="116.46">.</text>
<text x="25.08" y="380.11">.</text>
<text x="259.80" y="343.09">.</text>
<text x="35.79" y="259.61">*</text>
<text x="453.73" y="88.08">+</text>
<text x="417.84" y="417.49">*</text>
<text x="235.56" y="352.83">.</text>
<text x="459.29" y="44.65">+</text>
<text x="37.25" y="210.06">+</text>
<text x="243.46" y="139.52">.</text>
<text x="485.21" y="233.18">+</text>
<text x="196.34" y="227.82">.</text>
<text x="240.69" y="32.07">.</text>
<text x="144.98" y="405.74">+</text>
<text x="337.56" y="283.27">*</text>
<text x="324.03" y="475.16">+</text>
<text x="239.21" y="20.11">*</text>
<text x="252.69" y="164.95">*</text>
<text x="9.77" y="173.08">+</text>
<text x="95.42" y="181.21">.</text>

</svg>