
<svg viewBox="0 0 500 500" xmlns="http://www.w.org/2000/svg" width="100%" height="100%" style="background-color: #0a0a14; font-family: 'Courier New', Courier, monospace;">
    <style>
        text { fill: #aaa; font-size: 10px; text-anchor: middle; dominant-baseline: middle; }
    </style>
    <text x="118.89" y="207.14">+</text>
<text x="105.30" y="363.84">.</text>
<text x="143.87" y="451.77">.</text>
<text x="491.61" y="381.90">.</text>
<text x="277.42" y="185.45">+</text>
<text x="198.35" y="301.43">.</text>
<text x="107.40" y="462.71">+</text>
<text x="208.06" y="404.95">+</text>
<text x="169.07" y="102.80">+</text>
<text x="105.18" y="356.56">.</text>
<text x="389.91" y="19.41">+</text>
<text x="361.40" y="195.70">.</text>
<text x="221.78" y="219.05">+</text>
<text x="376.07" y="383.38">.</text>
<text x="64.26" y="207.99">+</text>
<text x="365.02" y="479.99">.</text>
<text x="419.06" y="204.62">+</text>
<text x="83.67" y="69.94">.</text>
<text x="337.77" y="374.29">.</text>
<text x="8.51" y="216.47">*</text>
<text x="323.44" y="172.95">+</text>
<text x="18.59" y="60.97">+</text>
<text x="294.17" y="205.15">.</text>
<text x="474.85" y="296.69">.</text>
<text x="429.65" y="408.21">.</text>
<text x="154.13" y="399.23">.</text>
<text x="17.96" y="231.85">+</text>
<text x="321.53" y="336.21">.</text>
<text x="164.63" y="234.82">.</text>
<text x="25.48" y="397.86">.</text>
<text x="242.21" y="411.12">+</text>
<text x="188.17" y="180.45">+</text>
<text x="208.35" y="180.83">+</text>
<text x="99.32" y="427.23">+</text>
<text x="301.79" y="174.62">*</text>
<text x="215.17" y="5.61">.</text>
<text x="274.00" y="318.87">.</text>
<text x="170.09" y="280.00">+</text>
<text x="50.15" y="5.79">+</text>
<text x="380.91" y="492.38">.</text>
<text x="356.95" y="342.53">+</text>
<text x="107.98" y="250.92">+</text>
<text x="442.53" y="20.21">+</text>
<text x="377.73" y="116.04">*</text>
<text x="236.91" y="13.02">+</text>
<text x="144.29" y="363.69">+</text>
<text x="30.55" y="356.32">.</text>
<text x="56.95" y="408.39">.</text>
<text x="103.11" y="489.89">+</text>
<text x="287.96" y="28.01">+</text>
<text x="50.40" y="91.07">+</text>
<text x="447.31" y="60.23">.</text>
<text x="230.40" y="212.91">+</text>
<text x="125.66" y="337.60">+</text>
<text x="268.44" y="461.08">+</text>
<text x="108.28" y="436.30">.</text>
<text x="483.63" y="193.56">.</text>
<text x="468.49" y="153.99">.</text>
<text x="316.72" y="225.27">+</text>
<text x="100.46" y="251.14">.</text>
<text x="423.52" y="392.51">.</text>
<text x="112.92" y="221.57">+</text>
<text x="450.05" y="277.81">.</text>
<text x="42.68" y="400.35">.</text>
<text x="364.63" y="336.57">.</text>
<text x="70.47" y="418.83">+</text>
<text x="342.90" y="225.99">*</text>
<text x="7.17" y="462.34">.</text>
<text x="272.85" y="42.41">.</text>
<text x="170.21" y="244.28">.</text>
<text x="245.58" y="213.17">*</text>
<text x="179.54" y="220.96">.</text>
<text x="261.54" y="423.11">+</text>
<text x="340.87" y="316.15">*</text>
<text x="418.28" y="412.85">.</text>
<text x="204.19" y="86.39">.</text>
<text x="12.59" y="404.00">.</text>
<text x="334.56" y="412.88">+</text>
<text x="303.77" y="231.90">.</text>
<text x="85.26" y="269.24">+</text>
<text x="483.16" y="276.26">+</text>
<text x="197.19" y="195.18">+</text>
<text x="296.83" y="227.79">.</text>
<text x="322.87" y="236.04">+</text>
<text x="0.25" y="456.05">*</text>
<text x="497.74" y="17.45">.</text>
<text x="272.17" y="274.39">+</text>
<text x="418.48" y="454.57">.</text>
<text x="348.43" y="466.24">+</text>
<text x="477.06" y="380.57">.</text>
<text x="305.37" y="14.57">+</text>
<text x="477.94" y="31.00">.</text>
<text x="107.20" y="372.85">.</text>
<text x="498.17" y="467.54">+</text>
<text x="448.35" y="343.97">+</text>
<text x="265.45" y="440.04">+</text>
<text x="492.47" y="322.05">+</text>
<text x="392.78" y="146.63">.</text>
<text x="226.03" y="13.45">+</text>
<text x="140.70" y="464.75">+</text>
<text x="227.28" y="53.35">.</text>
<text x="299.14" y="57.86">.</text>
<text x="160.61" y="68.32">.</text>
<text x="479.21" y="273.74">.</text>
<text x="63.04" y="441.12">+</text>
<text x="363.19" y="483.73">+</text>
<text x="362.32" y="359.79">.</text>
<text x="269.65" y="114.94">+</text>
<text x="493.31" y="121.69">.</text>
<text x="147.11" y="249.87">.</text>
<text x="254.26" y="296.40">+</text>
<text x="41.00" y="57.03">.</text>
<text x="85.97" y="335.85">+</text>
<text x="339.02" y="487.60">+</text>
<text x="48.22" y="55.89">.</text>
<text x="277.52" y="146.35">.</text>
<text x="388.34" y="446.15">.</text>
<text x="363.50" y="188.56">.</text>
<text x="283.79" y="436.55">.</text>
<text x="415.52" y="305.12">.</text>
<text x="70.37" y="393.93">.</text>
<text x="43.30" y="355.79">+</text>
<text x="439.93" y="173.14">+</text>
<text x="477.42" y="11.96">+</text>
<text x="444.42" y="264.71">.</text>
<text x="251.36" y="47.05">.</text>
<text x="405.15" y="304.19">.</text>
<text x="390.95" y="110.45">+</text>
<text x="235.29" y="79.56">+</text>
<text x="461.78" y="403.86">+</text>
<text x="89.75" y="15.62">+</text>
<text x="235.12" y="83.57">+</text>
<text x="435.95" y="474.13">+</text>
<text x="192.46" y="27.43">+</text>
<text x="161.24" y="446.81">*</text>
<text x="138.86" y="282.28">*</text>
<text x="319.95" y="305.74">+</text>
<text x="0.95" y="468.39">.</text>
<text x="366.25" y="475.93">.</text>
<text x="218.09" y="163.55">.</text>
<text x="55.85" y="28.08">.</text>
<text x="88.66" y="413.40">.</text>
<text x="433.54" y="464.16">.</text>
<text x="400.55" y="162.32">.</text>
<text x="122.75" y="55.22">.</text>
<text x="418.20" y="340.89">+</text>
<text x="166.75" y="8.50">.</text>
<text x="376.43" y="39.47">.</text>
<text x="16.79" y="219.06">*</text>
<text x="480.86" y="35.18">+</text>
<text x="231.15" y="243.90">.</text>
<text x="32.47" y="307.45">.</text>
<text x="97.48" y="444.06">.</text>
<text x="358.98" y="233.57">+</text>
<text x="116.09" y="166.33">.</text>
<text x="185.88" y="348.44">.</text>
<text x="375.01" y="486.40">.</text>
<text x="443.30" y="318.30">.</text>
<text x="395.62" y="368.20">.</text>
<text x="71.43" y="331.26">.</text>
<text x="458.57" y="57.92">+</text>
<text x="328.09" y="446.96">.</text>
<text x="457.03" y="305.47">.</text>
<text x="2.12" y="145.87">.</text>
<text x="298.98" y="88.90">+</text>
<text x="364.65" y="440.37">.</text>
<text x="305.57" y="416.78">.</text>
<text x="154.30" y="151.23">+</text>
<text x="377.64" y="183.03">.</text>
<text x="450.30" y="202.99">.</text>
<text x="217.90" y="453.77">+</text>
<text x="47.97" y="200.67">.</text>
<text x="481.97" y="29.72">*</text>
<text x="190.72" y="301.94">.</text>
<text x="65.28" y="214.08">.</text>
<text x="430.56" y="350.49">.</text>
<text x="155.08" y="318.91">+</text>
<text x="387.85" y="351.14">.</text>
<text x="259.84" y="257.04">*</text>
<text x="250.77" y="392.63">.</text>
<text x="191.14" y="15.57">.</text>
<text x="483.16" y="318.68">.</text>
<text x="489.89" y="201.43">.</text>
<text x="365.55" y="112.14">.</text>
<text x="414.36" y="176.44">.</text>
<text x="318.69" y="310.87">+</text>
<text x="63.20" y="168.33">*</text>
<text x="417.45" y="467.86">*</text>
<text x="190.71" y="237.13">*</text>
<text x="199.86" y="135.66">+</text>
<text x="345.78" y="265.33">.</text>
<text x="295.17" y="375.74">+</text>
<text x="291.81" y="448.30">.</text>
<text x="385.61" y="226.69">+</text>
<text x="58.55" y="467.34">.</text>
<text x="454.78" y="493.40">.</text>
<text x="370.83" y="491.01">+</text>
<text x="115.14" y="33.02">.</text>
<text x="480.12" y="325.84">+</text>
<text x="155.09" y="391.87">+</text>
<text x="459.09" y="55.67">+</text>
<text x="311.67" y="201.69">+</text>
<text x="173.51" y="400.86">*</text>
<text x="326.83" y="392.99">.</text>
<text x="331.29" y="28.00">+</text>
<text x="253.03" y="451.49">.</text>
<text x="236.19" y="139.21">.</text>
<text x="484.85" y="144.61">.</text>
<text x="221.62" y="450.83">.</text>
<text x="236.56" y="170.60">+</text>
<text x="238.02" y="270.11">.</text>
<text x="220.89" y="111.07">+</text>
<text x="359.36" y="265.46">+</text>
<text x="401.31" y="220.48">.</text>
<text x="47.47" y="249.75">*</text>

</svg>