
<svg viewBox="0 0 500 500" xmlns="http://www.w.org/2000/svg" width="100%" height="100%" style="background-color: #0a0a14; font-family: 'Courier New', Courier, monospace;">
    <style>
        text { fill: #aaa; font-size: 10px; text-anchor: middle; dominant-baseline: middle; }
    </style>
    <text x="117.64" y="227.63">.</text>
<text x="482.23" y="466.97">.</text>
<text x="298.78" y="254.14">+</text>
<text x="362.11" y="184.72">+</text>
<text x="59.18" y="246.34">+</text>
<text x="458.62" y="398.97">.</text>
<text x="405.39" y="266.05">.</text>
<text x="404.39" y="135.26">.</text>
<text x="493.85" y="37.79">*</text>
<text x="410.63" y="74.31">+</text>
<text x="352.36" y="134.41">.</text>
<text x="84.71" y="106.70">+</text>
<text x="115.59" y="253.45">.</text>
<text x="447.31" y="337.91">+</text>
<text x="265.35" y="381.00">+</text>
<text x="118.89" y="445.19">+</text>
<text x="419.19" y="452.76">.</text>
<text x="116.37" y="404.84">.</text>
<text x="47.40" y="478.04">*</text>
<text x="415.05" y="20.03">+</text>
<text x="116.88" y="61.00">.</text>
<text x="120.33" y="71.07">*</text>
<text x="388.73" y="57.93">.</text>
<text x="479.87" y="17.63">+</text>
<text x="114.32" y="433.90">.</text>
<text x="351.33" y="376.59">*</text>
<text x="294.72" y="330.78">+</text>
<text x="80.53" y="498.29">.</text>
<text x="466.90" y="351.09">+</text>
<text x="485.21" y="46.10">.</text>
<text x="451.49" y="177.80">.</text>
<text x="220.42" y="5.54">+</text>
<text x="177.61" y="433.72">.</text>
<text x="410.96" y="285.23">+</text>
<text x="1.19" y="242.90">.</text>
<text x="120.36" y="96.01">*</text>
<text x="488.92" y="25.51">.</text>
<text x="462.05" y="148.02">+</text>
<text x="219.84" y="120.56">.</text>
<text x="406.56" y="259.70">.</text>
<text x="42.44" y="255.30">+</text>
<text x="172.14" y="84.88">.</text>
<text x="65.91" y="167.38">+</text>
<text x="287.85" y="230.00">+</text>
<text x="452.84" y="162.38">.</text>
<text x="475.23" y="207.45">+</text>
<text x="35.57" y="21.98">+</text>
<text x="51.11" y="356.92">+</text>
<text x="456.46" y="18.70">.</text>
<text x="348.02" y="24.44">+</text>
<text x="355.59" y="375.97">+</text>
<text x="423.31" y="346.12">*</text>
<text x="97.17" y="166.98">.</text>
<text x="222.16" y="66.73">+</text>
<text x="458.99" y="171.99">+</text>
<text x="185.09" y="121.01">.</text>
<text x="268.67" y="102.39">.</text>
<text x="360.87" y="426.50">+</text>
<text x="190.30" y="232.55">.</text>
<text x="335.80" y="176.11">*</text>
<text x="303.64" y="303.56">.</text>
<text x="135.12" y="393.77">+</text>
<text x="234.79" y="274.25">+</text>
<text x="313.51" y="384.06">+</text>
<text x="332.93" y="189.05">*</text>
<text x="162.14" y="405.78">+</text>
<text x="120.13" y="137.37">+</text>
<text x="328.91" y="87.02">+</text>
<text x="87.53" y="51.62">+</text>
<text x="244.80" y="402.53">*</text>
<text x="100.43" y="430.67">+</text>
<text x="105.77" y="146.12">+</text>
<text x="76.33" y="388.59">+</text>
<text x="397.85" y="319.86">+</text>
<text x="230.06" y="338.86">*</text>
<text x="342.27" y="110.75">+</text>
<text x="10.08" y="184.18">.</text>
<text x="20.94" y="71.54">+</text>
<text x="89.41" y="286.13">+</text>
<text x="162.12" y="426.09">.</text>
<text x="333.32" y="74.36">.</text>
<text x="154.28" y="37.50">+</text>
<text x="97.49" y="396.01">.</text>
<text x="45.41" y="355.73">+</text>
<text x="435.65" y="149.22">+</text>
<text x="233.17" y="488.41">.</text>
<text x="117.96" y="485.08">+</text>
<text x="493.71" y="305.87">*</text>
<text x="470.79" y="83.30">+</text>
<text x="430.85" y="51.15">+</text>
<text x="428.31" y="138.65">*</text>
<text x="288.72" y="365.44">+</text>
<text x="182.63" y="67.54">+</text>
<text x="15.02" y="162.21">.</text>
<text x="221.21" y="428.55">.</text>
<text x="475.25" y="466.57">+</text>
<text x="23.12" y="135.76">+</text>
<text x="74.45" y="410.41">.</text>
<text x="57.94" y="432.42">+</text>
<text x="237.32" y="160.85">.</text>
<text x="222.21" y="301.64">+</text>
<text x="227.99" y="34.12">+</text>
<text x="226.84" y="38.25">.</text>
<text x="30.01" y="18.88">.</text>
<text x="31.24" y="251.53">+</text>
<text x="469.03" y="459.85">.</text>
<text x="167.07" y="72.72">+</text>
<text x="415.89" y="28.20">+</text>
<text x="252.20" y="76.98">.</text>
<text x="142.51" y="13.64">+</text>
<text x="206.57" y="165.66">+</text>
<text x="102.56" y="439.43">+</text>
<text x="216.98" y="257.81">.</text>
<text x="305.11" y="268.79">.</text>
<text x="422.22" y="75.41">*</text>
<text x="466.60" y="489.32">+</text>
<text x="278.31" y="235.16">*</text>
<text x="285.83" y="167.55">+</text>
<text x="134.90" y="409.27">+</text>
<text x="244.63" y="125.60">.</text>
<text x="149.10" y="60.05">*</text>
<text x="277.03" y="233.00">*</text>
<text x="74.69" y="335.13">.</text>
<text x="491.32" y="401.82">*</text>
<text x="158.74" y="163.97">.</text>
<text x="63.34" y="37.83">+</text>
<text x="317.86" y="59.03">+</text>
<text x="388.01" y="258.96">+</text>
<text x="89.69" y="190.08">+</text>
<text x="391.93" y="78.12">*</text>
<text x="157.53" y="482.68">+</text>
<text x="108.30" y="150.22">.</text>
<text x="333.20" y="294.43">+</text>
<text x="61.14" y="66.82">*</text>
<text x="206.05" y="401.24">+</text>
<text x="37.82" y="54.24">+</text>
<text x="478.17" y="0.14">.</text>
<text x="362.62" y="203.99">.</text>
<text x="162.82" y="410.26">+</text>
<text x="480.32" y="403.02">.</text>
<text x="209.52" y="247.50">.</text>
<text x="231.28" y="258.55">.</text>
<text x="118.95" y="364.89">.</text>
<text x="45.26" y="16.19">+</text>
<text x="113.29" y="482.88">+</text>
<text x="105.86" y="424.74">.</text>
<text x="321.12" y="352.63">+</text>
<text x="126.46" y="390.34">+</text>
<text x="331.15" y="43.75">.</text>
<text x="123.82" y="196.66">.</text>
<text x="445.79" y="285.02">.</text>
<text x="443.40" y="1.44">+</text>
<text x="315.45" y="184.10">*</text>
<text x="93.92" y="35.53">.</text>
<text x="91.70" y="196.77">+</text>
<text x="318.76" y="285.08">.</text>
<text x="260.51" y="432.74">*</text>
<text x="332.30" y="414.35">+</text>
<text x="262.15" y="165.20">.</text>
<text x="98.18" y="235.91">+</text>
<text x="285.60" y="419.56">+</text>
<text x="463.10" y="285.48">*</text>
<text x="16.21" y="468.13">+</text>
<text x="180.01" y="124.80">+</text>
<text x="467.40" y="354.13">*</text>
<text x="215.50" y="194.23">.</text>
<text x="229.41" y="318.17">+</text>
<text x="214.83" y="367.82">+</text>
<text x="227.33" y="110.49">+</text>
<text x="74.85" y="207.78">+</text>
<text x="189.02" y="214.68">.</text>
<text x="413.11" y="444.88">+</text>
<text x="188.19" y="32.97">.</text>
<text x="485.03" y="391.58">+</text>
<text x="256.26" y="171.72">.</text>
<text x="430.40" y="9.18">*</text>
<text x="7.05" y="172.07">+</text>
<text x="333.92" y="339.77">.</text>
<text x="112.81" y="490.18">+</text>
<text x="288.74" y="385.07">.</text>
<text x="151.58" y="183.69">+</text>
<text x="297.28" y="68.95">.</text>
<text x="438.54" y="419.45">.</text>
<text x="199.48" y="379.03">.</text>
<text x="300.78" y="47.98">+</text>
<text x="207.88" y="364.17">+</text>
<text x="243.89" y="391.62">.</text>
<text x="316.99" y="154.68">+</text>
<text x="370.65" y="355.37">*</text>
<text x="279.40" y="341.13">.</text>
<text x="468.02" y="337.68">*</text>
<text x="345.12" y="368.91">.</text>
<text x="214.76" y="428.44">+</text>
<text x="193.97" y="230.70">.</text>
<text x="217.00" y="57.39">.</text>
<text x="188.54" y="330.20">+</text>
<text x="254.08" y="499.32">+</text>
<text x="54.63" y="264.48">.</text>
<text x="105.77" y="457.25">*</text>
<text x="446.33" y="433.90">+</text>

</svg>