
<svg viewBox="0 0 500 500" xmlns="http://www.w.org/2000/svg" width="100%" height="100%" style="background-color: #0a0a14; font-family: 'Courier New', Courier, monospace;">
    <style>
        text { fill: #aaa; font-size: 10px; text-anchor: middle; dominant-baseline: middle; }
    </style>
    <text x="368.66" y="371.38">+</text>
<text x="492.49" y="447.39">+</text>
<text x="64.74" y="102.01">.</text>
<text x="432.46" y="140.36">.</text>
<text x="298.00" y="78.91">.</text>
<text x="59.49" y="56.93">*</text>
<text x="352.81" y="97.95">.</text>
<text x="165.87" y="472.77">*</text>
<text x="452.20" y="163.78">+</text>
<text x="108.76" y="214.13">+</text>
<text x="198.17" y="114.64">+</text>
<text x="444.67" y="336.54">*</text>
<text x="157.97" y="489.27">+</text>
<text x="117.44" y="50.27">.</text>
<text x="490.00" y="479.67">*</text>
<text x="4.85" y="428.20">+</text>
<text x="475.17" y="32.18">.</text>
<text x="310.09" y="111.09">.</text>
<text x="300.12" y="5.56">.</text>
<text x="220.67" y="378.01">+</text>
<text x="326.20" y="279.53">*</text>
<text x="201.83" y="467.83">+</text>
<text x="454.24" y="381.09">*</text>
<text x="295.15" y="177.02">*</text>
<text x="179.28" y="157.00">.</text>
<text x="119.26" y="154.71">+</text>
<text x="123.67" y="229.91">+</text>
<text x="473.23" y="88.36">.</text>
<text x="92.64" y="299.51">.</text>
<text x="106.49" y="64.40">.</text>
<text x="391.83" y="274.27">.</text>
<text x="104.73" y="458.69">+</text>
<text x="245.94" y="180.92">.</text>
<text x="106.64" y="190.66">+</text>
<text x="66.30" y="250.61">+</text>
<text x="484.55" y="28.72">+</text>
<text x="408.90" y="242.49">+</text>
<text x="152.19" y="153.14">+</text>
<text x="276.36" y="61.67">.</text>
<text x="378.69" y="307.00">.</text>
<text x="181.80" y="331.23">*</text>
<text x="211.27" y="369.26">+</text>
<text x="354.14" y="133.91">.</text>
<text x="158.15" y="12.36">+</text>
<text x="350.88" y="371.51">.</text>
<text x="135.06" y="79.75">.</text>
<text x="359.45" y="137.55">.</text>
<text x="490.84" y="184.69">+</text>
<text x="112.66" y="51.00">.</text>
<text x="499.65" y="226.58">.</text>
<text x="145.01" y="342.90">.</text>
<text x="161.98" y="311.54">.</text>
<text x="276.75" y="460.02">+</text>
<text x="223.01" y="75.50">+</text>
<text x="98.26" y="266.40">+</text>
<text x="202.99" y="93.42">.</text>
<text x="56.05" y="365.74">*</text>
<text x="97.26" y="490.92">+</text>
<text x="219.86" y="476.13">+</text>
<text x="275.89" y="104.19">*</text>
<text x="110.70" y="99.49">.</text>
<text x="39.36" y="165.05">*</text>
<text x="33.80" y="357.48">.</text>
<text x="256.04" y="283.41">+</text>
<text x="71.44" y="365.11">.</text>
<text x="332.90" y="394.79">.</text>
<text x="41.97" y="452.94">.</text>
<text x="243.17" y="38.87">*</text>
<text x="32.55" y="397.55">.</text>
<text x="128.82" y="216.25">.</text>
<text x="70.18" y="138.76">.</text>
<text x="52.61" y="336.69">.</text>
<text x="471.03" y="82.23">*</text>
<text x="316.93" y="228.48">+</text>
<text x="397.91" y="395.13">.</text>
<text x="215.59" y="298.92">*</text>
<text x="290.21" y="486.89">.</text>
<text x="446.22" y="288.95">+</text>
<text x="67.31" y="499.64">.</text>
<text x="472.69" y="98.63">+</text>
<text x="180.52" y="466.81">*</text>
<text x="461.16" y="37.18">.</text>
<text x="173.20" y="134.69">.</text>
<text x="378.21" y="18.38">+</text>
<text x="5.68" y="339.99">+</text>
<text x="145.42" y="485.55">+</text>
<text x="417.32" y="343.36">+</text>
<text x="131.56" y="138.29">+</text>
<text x="132.70" y="101.43">+</text>
<text x="183.16" y="142.66">*</text>
<text x="242.25" y="145.81">.</text>
<text x="445.97" y="333.89">+</text>
<text x="305.17" y="477.82">*</text>
<text x="36.43" y="422.82">+</text>
<text x="35.82" y="209.69">.</text>
<text x="16.10" y="326.29">.</text>
<text x="73.94" y="163.22">+</text>
<text x="438.84" y="130.85">+</text>
<text x="73.71" y="371.42">.</text>
<text x="139.24" y="418.89">*</text>
<text x="338.03" y="406.44">*</text>
<text x="383.86" y="196.08">+</text>
<text x="205.89" y="115.86">+</text>
<text x="100.22" y="140.24">+</text>
<text x="405.80" y="403.72">+</text>
<text x="375.91" y="327.12">+</text>
<text x="2.94" y="185.64">.</text>
<text x="24.98" y="117.20">.</text>
<text x="294.21" y="298.80">+</text>
<text x="120.60" y="318.83">+</text>
<text x="203.84" y="221.09">.</text>
<text x="341.12" y="139.43">.</text>
<text x="269.78" y="268.33">+</text>
<text x="460.78" y="348.19">+</text>
<text x="37.04" y="306.76">+</text>
<text x="11.98" y="298.77">.</text>
<text x="268.71" y="472.04">+</text>
<text x="67.41" y="20.23">.</text>
<text x="477.99" y="202.48">+</text>
<text x="274.94" y="280.17">+</text>
<text x="445.73" y="230.98">.</text>
<text x="387.93" y="258.11">.</text>
<text x="112.45" y="448.68">+</text>
<text x="41.38" y="403.26">+</text>
<text x="394.29" y="67.98">.</text>
<text x="50.19" y="45.29">+</text>
<text x="161.33" y="189.71">.</text>
<text x="414.27" y="471.55">.</text>
<text x="232.04" y="134.94">.</text>
<text x="123.67" y="210.81">.</text>
<text x="323.16" y="117.58">.</text>
<text x="167.38" y="422.70">+</text>
<text x="51.33" y="16.07">*</text>
<text x="93.81" y="155.56">+</text>
<text x="206.83" y="334.53">+</text>
<text x="25.33" y="258.49">+</text>
<text x="121.77" y="4.41">+</text>
<text x="111.17" y="263.90">.</text>
<text x="391.91" y="235.42">+</text>
<text x="389.04" y="379.46">.</text>
<text x="38.86" y="13.81">+</text>
<text x="156.82" y="223.77">+</text>
<text x="210.33" y="287.09">*</text>
<text x="19.46" y="182.68">+</text>
<text x="164.76" y="352.46">.</text>
<text x="27.91" y="1.19">+</text>
<text x="164.60" y="352.45">.</text>
<text x="19.83" y="48.02">+</text>
<text x="314.92" y="436.92">+</text>
<text x="212.65" y="497.68">.</text>
<text x="256.57" y="293.05">+</text>
<text x="15.26" y="389.30">.</text>
<text x="278.31" y="402.61">.</text>
<text x="171.47" y="98.56">.</text>
<text x="398.08" y="177.24">*</text>
<text x="57.72" y="3.68">+</text>
<text x="278.21" y="74.17">.</text>
<text x="336.50" y="261.90">.</text>
<text x="61.31" y="190.29">.</text>
<text x="65.09" y="215.96">+</text>
<text x="215.86" y="211.75">.</text>
<text x="374.23" y="99.31">*</text>
<text x="212.86" y="456.23">.</text>
<text x="74.64" y="262.77">.</text>
<text x="41.44" y="258.93">*</text>
<text x="261.25" y="491.39">+</text>
<text x="87.02" y="15.84">.</text>
<text x="451.49" y="336.18">*</text>
<text x="127.41" y="330.39">.</text>
<text x="285.90" y="225.54">+</text>
<text x="31.47" y="324.02">.</text>
<text x="496.65" y="238.34">*</text>
<text x="153.62" y="483.25">.</text>
<text x="15.40" y="409.89">*</text>
<text x="162.79" y="338.13">+</text>
<text x="411.80" y="482.54">.</text>
<text x="7.40" y="303.46">+</text>
<text x="225.51" y="380.75">*</text>
<text x="88.81" y="443.27">+</text>
<text x="406.23" y="227.61">.</text>
<text x="100.35" y="387.27">.</text>
<text x="137.13" y="395.01">*</text>
<text x="170.71" y="410.75">*</text>
<text x="55.82" y="101.13">.</text>
<text x="337.99" y="388.44">*</text>
<text x="380.18" y="133.06">.</text>
<text x="0.46" y="467.75">.</text>
<text x="433.66" y="405.42">+</text>
<text x="305.86" y="424.91">+</text>
<text x="312.93" y="489.51">.</text>
<text x="24.58" y="430.27">+</text>
<text x="87.97" y="219.32">+</text>
<text x="204.78" y="402.15">*</text>
<text x="46.38" y="71.48">+</text>
<text x="41.04" y="104.10">+</text>
<text x="414.87" y="322.22">+</text>
<text x="148.08" y="63.60">+</text>
<text x="133.08" y="143.83">.</text>
<text x="387.91" y="367.58">+</text>
<text x="420.72" y="178.89">*</text>
<text x="89.72" y="37.80">+</text>
<text x="138.06" y="423.38">.</text>
<text x="49.18" y="286.64">+</text>
<text x="25.71" y="17.12">+</text>
<text x="274.67" y="93.62">.</text>
<text x="339.39" y="120.87">+</text>
<text x="400.10" y="339.49">.</text>
<text x="172.55" y="320.47">*</text>
<text x="185.41" y="229.74">.</text>
<text x="133.49" y="396.68">.</text>
<text x="273.90" y="393.72">*</text>

</svg>