
<svg viewBox="0 0 500 500" xmlns="http://www.w.org/2000/svg" width="100%" height="100%" style="background-color: #0a0a14; font-family: 'Courier New', Courier, monospace;">
    <style>
        text { fill: #aaa; font-size: 10px; text-anchor: middle; dominant-baseline: middle; }
    </style>
    <text x="386.37" y="135.03">*</text>
<text x="40.39" y="424.45">.</text>
<text x="115.52" y="480.13">.</text>
<text x="290.78" y="184.47">.</text>
<text x="280.00" y="432.30">*</text>
<text x="243.81" y="284.99">+</text>
<text x="482.84" y="202.54">.</text>
<text x="286.49" y="422.41">.</text>
<text x="367.27" y="493.40">.</text>
<text x="122.33" y="193.10">.</text>
<text x="489.43" y="250.89">*</text>
<text x="468.37" y="153.49">+</text>
<text x="96.27" y="162.75">+</text>
<text x="377.51" y="281.23">+</text>
<text x="101.30" y="319.86">*</text>
<text x="458.69" y="4.31">.</text>
<text x="302.49" y="294.32">.</text>
<text x="194.31" y="195.67">*</text>
<text x="226.77" y="55.07">+</text>
<text x="424.89" y="352.75">+</text>
<text x="485.51" y="411.52">+</text>
<text x="475.34" y="471.19">.</text>
<text x="296.46" y="241.72">+</text>
<text x="198.74" y="290.53">+</text>
<text x="304.77" y="28.57">*</text>
<text x="5.82" y="191.04">*</text>
<text x="121.70" y="390.87">+</text>
<text x="457.06" y="491.56">.</text>
<text x="438.45" y="91.39">+</text>
<text x="150.30" y="415.73">.</text>
<text x="326.19" y="257.17">.</text>
<text x="439.00" y="338.59">*</text>
<text x="321.77" y="223.92">+</text>
<text x="110.01" y="291.39">+</text>
<text x="87.87" y="404.61">+</text>
<text x="389.18" y="188.50">+</text>
<text x="68.06" y="356.49">.</text>
<text x="263.04" y="433.11">*</text>
<text x="39.99" y="456.47">+</text>
<text x="315.02" y="420.65">.</text>
<text x="257.73" y="314.45">.</text>
<text x="170.87" y="165.07">.</text>
<text x="62.52" y="122.43">.</text>
<text x="440.28" y="325.79">+</text>
<text x="423.47" y="269.79">.</text>
<text x="296.15" y="380.46">.</text>
<text x="97.08" y="195.44">.</text>
<text x="185.40" y="271.83">*</text>
<text x="266.84" y="78.64">*</text>
<text x="55.35" y="494.24">.</text>
<text x="262.07" y="419.57">.</text>
<text x="12.56" y="72.07">+</text>
<text x="446.72" y="327.26">*</text>
<text x="265.87" y="429.31">.</text>
<text x="12.71" y="390.33">+</text>
<text x="225.16" y="104.50">+</text>
<text x="384.37" y="261.56">*</text>
<text x="233.62" y="112.52">+</text>
<text x="246.41" y="164.54">.</text>
<text x="335.26" y="101.42">*</text>
<text x="162.23" y="483.37">.</text>
<text x="155.97" y="146.22">.</text>
<text x="419.58" y="122.77">+</text>
<text x="333.50" y="20.41">.</text>
<text x="340.49" y="463.61">*</text>
<text x="125.20" y="201.78">+</text>
<text x="264.19" y="23.34">.</text>
<text x="295.03" y="73.31">+</text>
<text x="265.25" y="313.28">.</text>
<text x="224.11" y="304.00">.</text>
<text x="224.90" y="31.25">+</text>
<text x="210.04" y="437.31">*</text>
<text x="115.54" y="76.23">.</text>
<text x="422.22" y="143.81">.</text>
<text x="40.15" y="379.62">*</text>
<text x="166.37" y="492.59">+</text>
<text x="205.58" y="139.33">.</text>
<text x="238.67" y="354.43">.</text>
<text x="275.63" y="492.13">.</text>
<text x="425.93" y="177.08">*</text>
<text x="70.17" y="337.95">.</text>
<text x="369.73" y="272.20">+</text>
<text x="417.25" y="147.89">*</text>
<text x="363.89" y="344.65">+</text>
<text x="237.86" y="170.09">.</text>
<text x="109.16" y="195.23">.</text>
<text x="34.24" y="218.01">+</text>
<text x="459.12" y="300.62">.</text>
<text x="102.56" y="14.40">+</text>
<text x="154.08" y="280.38">+</text>
<text x="318.20" y="427.06">*</text>
<text x="131.18" y="241.16">.</text>
<text x="269.56" y="220.17">+</text>
<text x="251.28" y="296.09">*</text>
<text x="58.22" y="410.20">+</text>
<text x="320.90" y="307.82">.</text>
<text x="499.82" y="286.09">+</text>
<text x="93.48" y="441.18">.</text>
<text x="393.99" y="249.44">+</text>
<text x="202.06" y="420.82">+</text>
<text x="23.86" y="379.01">.</text>
<text x="300.27" y="335.03">.</text>
<text x="413.89" y="421.03">+</text>
<text x="274.32" y="190.14">.</text>
<text x="140.76" y="294.87">*</text>
<text x="16.30" y="75.96">+</text>
<text x="273.48" y="34.96">+</text>
<text x="152.51" y="5.54">.</text>
<text x="103.71" y="53.61">+</text>
<text x="210.86" y="380.33">+</text>
<text x="278.04" y="186.69">*</text>
<text x="235.15" y="136.63">*</text>
<text x="388.34" y="428.68">*</text>
<text x="143.46" y="97.42">.</text>
<text x="20.01" y="179.44">+</text>
<text x="233.90" y="165.71">.</text>
<text x="184.60" y="73.65">+</text>
<text x="403.71" y="432.35">.</text>
<text x="430.76" y="284.86">+</text>
<text x="404.24" y="2.19">+</text>
<text x="3.95" y="178.96">.</text>
<text x="58.27" y="190.66">+</text>
<text x="318.01" y="105.03">+</text>
<text x="431.74" y="471.93">+</text>
<text x="425.79" y="387.56">+</text>
<text x="441.48" y="210.21">.</text>
<text x="471.96" y="303.54">*</text>
<text x="140.67" y="445.79">.</text>
<text x="454.26" y="260.08">*</text>
<text x="9.11" y="113.69">+</text>
<text x="320.26" y="275.66">.</text>
<text x="27.01" y="435.20">.</text>
<text x="171.38" y="462.13">.</text>
<text x="489.02" y="293.47">+</text>
<text x="467.21" y="120.19">.</text>
<text x="435.77" y="48.81">.</text>
<text x="272.50" y="145.61">*</text>
<text x="113.06" y="184.27">+</text>
<text x="110.09" y="44.35">*</text>
<text x="407.49" y="161.68">+</text>
<text x="21.75" y="251.45">+</text>
<text x="14.47" y="36.70">*</text>
<text x="403.40" y="282.28">.</text>
<text x="191.40" y="1.01">+</text>
<text x="430.45" y="361.94">*</text>
<text x="483.78" y="0.42">.</text>
<text x="290.94" y="196.59">+</text>
<text x="100.12" y="453.48">.</text>
<text x="67.58" y="64.56">+</text>
<text x="334.69" y="388.92">.</text>
<text x="404.65" y="288.95">+</text>
<text x="383.42" y="196.79">.</text>
<text x="291.04" y="421.96">+</text>
<text x="92.51" y="57.62">*</text>
<text x="475.62" y="213.56">+</text>
<text x="263.59" y="135.28">.</text>
<text x="290.13" y="268.57">.</text>
<text x="52.29" y="328.86">.</text>
<text x="99.59" y="87.53">+</text>
<text x="81.40" y="33.27">+</text>
<text x="446.98" y="291.26">+</text>
<text x="307.41" y="288.07">+</text>
<text x="289.99" y="92.55">*</text>
<text x="70.36" y="198.07">+</text>
<text x="126.38" y="60.15">.</text>
<text x="100.52" y="495.02">.</text>
<text x="354.87" y="99.34">.</text>
<text x="261.15" y="252.15">+</text>
<text x="391.56" y="220.21">.</text>
<text x="194.43" y="161.14">+</text>
<text x="257.19" y="113.09">*</text>
<text x="460.48" y="63.85">+</text>
<text x="321.78" y="58.69">+</text>
<text x="224.28" y="77.36">+</text>
<text x="350.52" y="136.60">*</text>
<text x="157.37" y="7.98">+</text>
<text x="122.47" y="235.03">.</text>
<text x="28.86" y="482.19">+</text>
<text x="380.23" y="243.21">+</text>
<text x="361.96" y="314.62">+</text>
<text x="144.29" y="209.69">.</text>
<text x="188.28" y="341.71">+</text>
<text x="369.08" y="477.52">*</text>
<text x="60.37" y="145.24">*</text>
<text x="492.77" y="382.96">.</text>
<text x="200.72" y="60.11">.</text>
<text x="0.54" y="476.35">.</text>
<text x="62.15" y="206.68">+</text>
<text x="361.09" y="395.29">+</text>
<text x="45.66" y="79.50">*</text>
<text x="128.96" y="45.31">+</text>
<text x="493.96" y="380.41">+</text>
<text x="29.43" y="21.53">.</text>
<text x="409.12" y="158.73">.</text>
<text x="194.64" y="108.49">+</text>
<text x="289.90" y="202.15">.</text>
<text x="87.62" y="206.51">.</text>
<text x="440.66" y="157.69">.</text>
<text x="341.95" y="251.50">+</text>
<text x="461.44" y="431.44">+</text>
<text x="44.50" y="488.65">.</text>
<text x="109.25" y="74.70">*</text>

</svg>