
<svg viewBox="0 0 500 500" xmlns="http://www.w.org/2000/svg" width="100%" height="100%" style="background-color: #0a0a14; font-family: 'Courier New', Courier, monospace;">
    <style>
        text { fill: #aaa; font-size: 10px; text-anchor: middle; dominant-baseline: middle; }
    </style>
    <text x="98.81" y="412.57">.</text>
<text x="285.57" y="334.87">.</text>
<text x="269.50" y="307.64">+</text>
<text x="405.37" y="268.77">+</text>
<text x="376.58" y="71.45">.</text>
<text x="24.10" y="406.33">+</text>
<text x="152.61" y="164.30">.</text>
<text x="455.45" y="70.60">+</text>
<text x="108.87" y="371.97">.</text>
<text x="464.15" y="227.35">+</text>
<text x="203.92" y="259.62">.</text>
<text x="223.38" y="170.66">.</text>
<text x="33.21" y="45.81">.</text>
<text x="232.57" y="150.32">.</text>
<text x="58.25" y="262.51">+</text>
<text x="265.56" y="240.93">+</text>
<text x="190.17" y="374.53">.</text>
<text x="224.25" y="121.82">+</text>
<text x="385.21" y="424.21">.</text>
<text x="381.68" y="28.08">.</text>
<text x="484.99" y="255.60">+</text>
<text x="382.19" y="233.70">+</text>
<text x="272.58" y="331.90">*</text>
<text x="192.74" y="55.39">.</text>
<text x="170.90" y="76.90">+</text>
<text x="435.20" y="360.97">+</text>
<text x="203.71" y="56.23">+</text>
<text x="274.03" y="43.07">*</text>
<text x="40.93" y="403.54">*</text>
<text x="62.62" y="476.05">*</text>
<text x="38.82" y="167.83">*</text>
<text x="94.99" y="379.42">+</text>
<text x="141.06" y="335.10">.</text>
<text x="495.88" y="222.35">*</text>
<text x="406.66" y="276.11">*</text>
<text x="202.84" y="131.74">+</text>
<text x="461.80" y="305.44">+</text>
<text x="278.24" y="338.14">+</text>
<text x="212.41" y="411.77">.</text>
<text x="485.59" y="295.78">+</text>
<text x="301.30" y="372.53">*</text>
<text x="458.18" y="162.62">*</text>
<text x="103.51" y="486.66">.</text>
<text x="198.29" y="483.61">.</text>
<text x="215.56" y="359.57">*</text>
<text x="188.29" y="417.01">.</text>
<text x="378.29" y="406.83">.</text>
<text x="424.63" y="411.48">+</text>
<text x="120.34" y="7.36">.</text>
<text x="343.97" y="202.11">.</text>
<text x="188.69" y="461.41">+</text>
<text x="403.94" y="300.34">.</text>
<text x="193.09" y="32.52">+</text>
<text x="286.89" y="124.37">.</text>
<text x="281.37" y="29.99">+</text>
<text x="153.02" y="381.45">.</text>
<text x="383.76" y="19.03">+</text>
<text x="427.65" y="462.38">.</text>
<text x="240.68" y="198.46">*</text>
<text x="45.05" y="28.22">+</text>
<text x="166.28" y="172.78">.</text>
<text x="263.43" y="252.96">+</text>
<text x="64.97" y="306.03">.</text>
<text x="17.23" y="10.94">+</text>
<text x="69.69" y="410.45">+</text>
<text x="32.95" y="55.89">.</text>
<text x="102.41" y="19.76">+</text>
<text x="451.60" y="318.16">+</text>
<text x="294.40" y="172.91">.</text>
<text x="425.17" y="323.58">.</text>
<text x="266.11" y="13.04">+</text>
<text x="374.43" y="46.02">*</text>
<text x="271.07" y="371.03">.</text>
<text x="63.84" y="151.14">.</text>
<text x="330.13" y="78.81">*</text>
<text x="126.71" y="307.01">.</text>
<text x="251.36" y="471.89">+</text>
<text x="490.75" y="21.39">.</text>
<text x="34.24" y="196.61">.</text>
<text x="426.20" y="313.89">.</text>
<text x="341.48" y="229.72">.</text>
<text x="251.27" y="444.21">.</text>
<text x="298.39" y="143.10">.</text>
<text x="221.52" y="201.55">.</text>
<text x="298.48" y="266.59">+</text>
<text x="170.45" y="471.11">.</text>
<text x="148.72" y="136.03">.</text>
<text x="160.28" y="306.67">.</text>
<text x="55.04" y="25.12">*</text>
<text x="482.31" y="407.75">.</text>
<text x="217.97" y="137.25">.</text>
<text x="103.64" y="483.29">*</text>
<text x="291.23" y="322.60">.</text>
<text x="483.00" y="424.44">*</text>
<text x="81.21" y="291.65">+</text>
<text x="190.66" y="160.57">.</text>
<text x="484.26" y="115.18">+</text>
<text x="227.51" y="232.31">.</text>
<text x="264.28" y="103.36">+</text>
<text x="118.51" y="289.31">.</text>
<text x="173.49" y="363.73">.</text>
<text x="384.91" y="367.78">+</text>
<text x="99.77" y="483.30">+</text>
<text x="303.21" y="369.16">+</text>
<text x="479.47" y="395.19">.</text>
<text x="120.74" y="318.46">*</text>
<text x="186.34" y="195.66">.</text>
<text x="208.32" y="184.39">.</text>
<text x="343.08" y="38.57">.</text>
<text x="178.24" y="98.95">+</text>
<text x="218.79" y="420.86">*</text>
<text x="222.47" y="397.95">*</text>
<text x="346.21" y="476.19">+</text>
<text x="251.85" y="211.17">.</text>
<text x="243.05" y="354.20">.</text>
<text x="286.32" y="157.69">*</text>
<text x="332.35" y="313.40">+</text>
<text x="310.95" y="334.54">.</text>
<text x="153.49" y="430.45">.</text>
<text x="140.66" y="474.90">+</text>
<text x="81.79" y="88.41">*</text>
<text x="23.44" y="369.46">.</text>
<text x="5.07" y="198.28">.</text>
<text x="350.42" y="246.98">+</text>
<text x="186.39" y="138.98">.</text>
<text x="420.61" y="148.65">.</text>
<text x="385.58" y="49.46">.</text>
<text x="374.65" y="225.34">+</text>
<text x="494.11" y="252.43">.</text>
<text x="76.31" y="47.30">.</text>
<text x="357.24" y="266.01">+</text>
<text x="332.16" y="471.47">+</text>
<text x="464.72" y="263.33">+</text>
<text x="259.79" y="247.84">+</text>
<text x="154.26" y="284.30">+</text>
<text x="443.56" y="477.51">.</text>
<text x="381.96" y="66.94">.</text>
<text x="283.06" y="269.14">+</text>
<text x="462.11" y="264.09">+</text>
<text x="175.59" y="404.55">+</text>
<text x="14.45" y="38.88">+</text>
<text x="449.91" y="409.84">+</text>
<text x="314.57" y="56.95">.</text>
<text x="430.17" y="123.78">*</text>
<text x="245.29" y="480.70">.</text>
<text x="284.78" y="481.69">.</text>
<text x="202.53" y="155.70">.</text>
<text x="360.07" y="102.17">.</text>
<text x="78.13" y="83.90">.</text>
<text x="30.78" y="275.99">+</text>
<text x="299.48" y="185.82">.</text>
<text x="248.13" y="359.84">.</text>
<text x="240.38" y="210.49">.</text>
<text x="490.16" y="447.89">*</text>
<text x="103.04" y="172.10">+</text>
<text x="0.45" y="494.88">*</text>
<text x="319.59" y="1.25">+</text>
<text x="390.86" y="193.94">.</text>
<text x="251.54" y="67.80">+</text>
<text x="387.41" y="56.07">+</text>
<text x="401.71" y="203.51">*</text>
<text x="407.14" y="452.04">*</text>
<text x="387.14" y="364.09">.</text>
<text x="481.70" y="359.15">+</text>
<text x="415.47" y="329.90">.</text>
<text x="75.68" y="259.22">.</text>
<text x="494.36" y="430.92">+</text>
<text x="137.70" y="394.57">.</text>
<text x="339.71" y="344.51">+</text>
<text x="82.09" y="177.78">+</text>
<text x="31.32" y="174.89">+</text>
<text x="257.85" y="22.92">+</text>
<text x="112.84" y="233.45">+</text>
<text x="363.67" y="402.43">*</text>
<text x="349.37" y="169.75">.</text>
<text x="166.83" y="236.60">+</text>
<text x="98.81" y="303.33">.</text>
<text x="460.46" y="58.46">+</text>
<text x="140.23" y="249.92">*</text>
<text x="481.45" y="51.18">*</text>
<text x="149.93" y="59.97">+</text>
<text x="373.91" y="452.09">+</text>
<text x="278.90" y="1.44">*</text>
<text x="6.67" y="341.03">+</text>
<text x="278.33" y="478.04">.</text>
<text x="25.95" y="155.98">+</text>
<text x="197.55" y="219.40">*</text>
<text x="339.36" y="287.42">+</text>
<text x="32.91" y="379.50">+</text>
<text x="33.49" y="368.08">+</text>
<text x="317.13" y="274.59">+</text>
<text x="470.78" y="2.31">+</text>
<text x="227.44" y="499.29">.</text>
<text x="40.29" y="157.31">.</text>
<text x="459.41" y="336.36">+</text>
<text x="288.59" y="122.04">+</text>
<text x="111.31" y="343.62">.</text>
<text x="205.02" y="228.70">.</text>
<text x="55.74" y="154.93">+</text>
<text x="3.18" y="362.71">*</text>
<text x="452.42" y="161.36">+</text>
<text x="33.47" y="392.59">+</text>

</svg>