
<svg viewBox="0 0 500 500" xmlns="http://www.w3.org/2000/svg" width="100%" height="100%" style="background-color: #0a0a14; font-family: 'Courier New', Courier, monospace;">
    <style>
        text { fill: #aaa; font-size: 10px; text-anchor: middle; dominant-baseline: middle; }
    </style>
    <text x="5.01" y="0.00">.</text>
<text x="145.00" y="46.65">.</text>
<text x="284.97" y="163.75">.</text>
<text x="424.90" y="291.17">+</text>
<text x="64.74" y="353.90">+</text>
<text x="204.49" y="291.16">+</text>
<text x="344.12" y="82.39">+</text>
<text x="483.61" y="261.08">+</text>
<text x="122.94" y="410.90">+</text>
<text x="262.09" y="143.98">+</text>
<text x="401.04" y="66.97">*</text>
<text x="39.79" y="244.86">*</text>
<text x="178.31" y="173.75">*</text>
<text x="316.60" y="272.11">*</text>
<text x="454.64" y="394.95">*</text>
<text x="92.45" y="369.01">*</text>
<text x="230.00" y="40.23">*</text>
<text x="367.30" y="320.78">*</text>
<text x="4.35" y="221.78">*</text>
<text x="141.17" y="361.07">*</text>
<text x="277.74" y="441.33">*</text>
<text x="414.09" y="202.52">*</text>
<text x="50.22" y="359.42">*</text>
<text x="186.15" y="40.83">+</text>
<text x="321.89" y="246.99">+</text>
<text x="457.47" y="338.67">+</text>
<text x="92.90" y="62.94">+</text>
<text x="228.19" y="111.62">+</text>
<text x="363.38" y="198.81">+</text>
<text x="498.49" y="137.99">+</text>
<text x="133.54" y="398.19">.</text>
<text x="268.55" y="122.77">.</text>
<text x="403.55" y="103.58">.</text>
<text x="38.56" y="214.53">.</text>
<text x="173.62" y="319.50">.</text>
<text x="308.74" y="177.51">.</text>
<text x="108.16" y="97.82">.</text>
<text x="248.02" y="231.87">.</text>
<text x="387.95" y="292.55">.</text>
<text x="27.93" y="62.60">.</text>
<text x="167.93" y="14.76">.</text>
<text x="307.92" y="433.84">.</text>
<text x="447.89" y="90.04">+</text>
<text x="87.80" y="421.23">+</text>
<text x="227.63" y="179.05">+</text>
<text x="367.36" y="0.62">+</text>
<text x="6.97" y="385.95">+</text>
<text x="146.43" y="83.65">+</text>
<text x="285.73" y="411.06">+</text>
<text x="424.85" y="51.99">+</text>
<text x="63.77" y="382.11">*</text>
<text x="202.48" y="366.40">*</text>
<text x="340.96" y="56.56">*</text>
<text x="479.21" y="191.59">*</text>
<text x="117.21" y="379.14">*</text>
<text x="254.97" y="314.63">*</text>
<text x="392.48" y="484.12">*</text>
<text x="29.74" y="299.96">*</text>
<text x="166.76" y="133.55">*</text>
<text x="303.53" y="234.41">*</text>
<text x="440.06" y="53.03">*</text>
<text x="76.37" y="9.09">*</text>
<text x="212.47" y="261.87">+</text>
<text x="348.37" y="39.88">+</text>
<text x="484.08" y="73.76">+</text>
<text x="119.63" y="151.57">+</text>
<text x="255.03" y="285.56">+</text>
<text x="390.31" y="451.36">+</text>
<text x="25.49" y="341.82">+</text>
<text x="160.58" y="72.45">+</text>
<text x="295.62" y="286.34">.</text>
<text x="430.63" y="130.22">.</text>
<text x="65.63" y="104.81">.</text>
<text x="200.65" y="323.89">.</text>
<text x="335.71" y="240.20">.</text>
<text x="470.85" y="405.59">.</text>
<text x="271.05" y="31.60">.</text>
<text x="410.93" y="372.12">.</text>
<text x="50.87" y="81.64">.</text>
<text x="190.85" y="37.51">.</text>
<text x="330.85" y="51.75">.</text>
<text x="470.84" y="155.62">.</text>
<text x="110.80" y="458.37">+</text>
<text x="250.69" y="492.27">+</text>
<text x="390.51" y="458.56">+</text>
<text x="30.22" y="311.75">+</text>
<text x="169.81" y="158.99">+</text>
<text x="309.25" y="496.46">+</text>
<text x="448.52" y="345.56">+</text>
<text x="87.60" y="377.35">*</text>
<text x="226.49" y="117.90">*</text>
<text x="365.16" y="308.67">*</text>
<text x="3.60" y="458.74">*</text>
<text x="141.81" y="78.84">*</text>
<text x="279.77" y="41.94">*</text>
<text x="417.49" y="483.09">*</text>
<text x="54.96" y="140.34">*</text>
<text x="192.18" y="51.55">*</text>
<text x="329.15" y="56.37">*</text>
<text x="465.88" y="100.22">*</text>
<text x="102.38" y="385.91">*</text>
<text x="238.65" y="456.78">*</text>
<text x="374.71" y="313.50">+</text>
<text x="10.58" y="159.59">+</text>
<text x="146.27" y="340.33">+</text>
<text x="281.79" y="492.75">+</text>
<text x="417.17" y="372.51">+</text>
<text x="52.43" y="279.29">+</text>
<text x="187.59" y="477.01">+</text>
<text x="322.67" y="4.95">+</text>
<text x="457.70" y="301.58">.</text>
<text x="92.71" y="108.08">.</text>
<text x="227.71" y="172.48">.</text>
<text x="362.74" y="324.90">.</text>
<text x="497.81" y="27.14">.</text>
<text x="132.96" y="7.38">.</text>
<text x="433.95" y="280.68">.</text>
<text x="73.83" y="338.18">.</text>
<text x="213.78" y="127.11">.</text>
<text x="353.77" y="13.75">.</text>
<text x="493.77" y="89.24">.</text>
<text x="133.75" y="131.46">.</text>
<text x="273.70" y="149.18">+</text>
<text x="413.59" y="374.99">+</text>
<text x="53.39" y="85.13">+</text>
<text x="193.08" y="165.55">+</text>
<text x="332.65" y="405.28">+</text>
<text x="472.06" y="65.15">+</text>
<text x="111.30" y="325.81">+</text>
<text x="250.35" y="249.88">*</text>
<text x="389.20" y="390.77">*</text>
<text x="27.83" y="146.12">*</text>
<text x="166.24" y="394.51">*</text>
<text x="304.40" y="384.39">*</text>
<text x="442.33" y="282.28">*</text>
<text x="80.00" y="246.52">*</text>
<text x="217.43" y="385.60">*</text>
<text x="354.61" y="487.06">*</text>
<text x="491.54" y="458.28">*</text>
<text x="128.23" y="490.88">*</text>
<text x="264.69" y="28.80">*</text>
<text x="400.92" y="169.05">*</text>
<text x="36.95" y="142.13">+</text>
<text x="172.79" y="0.80">+</text>
<text x="308.44" y="95.83">+</text>
<text x="443.94" y="347.56">+</text>
<text x="79.30" y="248.97">+</text>
<text x="214.54" y="478.76">+</text>
<text x="349.68" y="474.51">+</text>
<text x="484.76" y="324.25">.</text>
<text x="119.78" y="378.59">.</text>
<text x="254.79" y="52.94">.</text>
<text x="389.79" y="365.96">.</text>
<text x="24.82" y="325.17">.</text>
<text x="159.91" y="309.74">.</text>
<text x="295.07" y="102.37">.</text>
<text x="96.84" y="473.67">.</text>
<text x="236.74" y="252.26">.</text>
<text x="376.70" y="14.82">.</text>
<text x="16.69" y="19.75">.</text>
<text x="156.69" y="91.24">.</text>
<text x="296.67" y="269.78">.</text>
<text x="436.61" y="37.77">+</text>
<text x="76.48" y="442.16">+</text>
<text x="216.27" y="460.18">+</text>
<text x="355.94" y="16.29">+</text>
<text x="495.48" y="143.16">+</text>
<text x="134.86" y="367.62">+</text>
<text x="274.07" y="470.18">+</text>
<text x="413.09" y="299.39">*</text>
<text x="51.91" y="310.12">*</text>
<text x="190.50" y="440.96">*</text>
<text x="328.87" y="363.57">*</text>
<text x="466.99" y="45.50">*</text>
<text x="104.87" y="490.40">*</text>
<text x="242.51" y="475.04">*</text>
<text x="379.89" y="101.73">*</text>
<text x="17.03" y="29.04">*</text>
<text x="153.92" y="321.53">*</text>
<text x="290.57" y="452.70">*</text>
<text x="426.99" y="80.71">*</text>
<text x="63.19" y="273.34">*</text>
<text x="199.19" y="372.38">+</text>
<text x="334.99" y="154.71">+</text>
<text x="470.62" y="375.70">+</text>
<text x="106.09" y="186.98">+</text>
<text x="241.43" y="328.55">+</text>
<text x="376.65" y="427.22">+</text>
<text x="11.78" y="205.65">+</text>
<text x="146.84" y="427.15">.</text>
<text x="281.86" y="464.91">.</text>
<text x="416.87" y="475.99">.</text>
<text x="51.87" y="257.34">.</text>
<text x="186.91" y="439.98">.</text>
<text x="322.01" y="218.24">.</text>

</svg>