
<svg viewBox="0 0 500 500" xmlns="http://www.w.org/2000/svg" width="100%" height="100%" style="background-color: #0a0a14; font-family: 'Courier New', Courier, monospace;">
    <style>
        text { fill: #aaa; font-size: 10px; text-anchor: middle; dominant-baseline: middle; }
    </style>
    <text x="25.95" y="92.74">.</text>
<text x="346.78" y="410.11">+</text>
<text x="485.71" y="33.79">.</text>
<text x="243.14" y="156.88">.</text>
<text x="415.29" y="432.19">+</text>
<text x="304.28" y="437.21">.</text>
<text x="40.57" y="36.91">.</text>
<text x="103.13" y="84.99">.</text>
<text x="477.18" y="90.89">*</text>
<text x="209.15" y="345.66">+</text>
<text x="184.22" y="274.78">+</text>
<text x="209.16" y="153.05">.</text>
<text x="274.80" y="150.98">*</text>
<text x="355.08" y="390.04">*</text>
<text x="45.99" y="133.51">+</text>
<text x="244.66" y="374.45">*</text>
<text x="345.82" y="266.94">.</text>
<text x="396.79" y="486.68">*</text>
<text x="310.53" y="402.31">.</text>
<text x="265.19" y="421.63">.</text>
<text x="387.87" y="466.32">+</text>
<text x="339.86" y="380.17">.</text>
<text x="404.34" y="362.47">*</text>
<text x="132.60" y="300.26">.</text>
<text x="435.87" y="270.54">*</text>
<text x="308.15" y="248.39">+</text>
<text x="440.12" y="124.29">.</text>
<text x="264.96" y="113.43">*</text>
<text x="278.15" y="298.41">*</text>
<text x="379.34" y="440.09">.</text>
<text x="35.99" y="312.16">.</text>
<text x="14.81" y="97.26">+</text>
<text x="240.72" y="238.71">.</text>
<text x="331.43" y="390.51">+</text>
<text x="305.60" y="464.28">+</text>
<text x="391.19" y="168.73">+</text>
<text x="488.36" y="400.86">+</text>
<text x="85.59" y="412.61">+</text>
<text x="405.59" y="307.17">.</text>
<text x="449.71" y="360.75">.</text>
<text x="284.64" y="261.80">*</text>
<text x="295.30" y="130.93">.</text>
<text x="206.36" y="152.16">.</text>
<text x="314.00" y="128.75">.</text>
<text x="136.97" y="23.70">.</text>
<text x="125.45" y="104.39">+</text>
<text x="444.77" y="341.90">*</text>
<text x="389.44" y="4.42">+</text>
<text x="12.09" y="381.60">.</text>
<text x="91.07" y="246.67">+</text>
<text x="188.75" y="39.42">*</text>
<text x="362.41" y="2.70">+</text>
<text x="488.24" y="318.62">.</text>
<text x="56.01" y="429.76">+</text>
<text x="152.79" y="19.37">*</text>
<text x="454.35" y="440.57">.</text>
<text x="17.31" y="211.26">.</text>
<text x="301.73" y="455.04">+</text>
<text x="264.25" y="465.55">.</text>
<text x="280.38" y="474.23">.</text>
<text x="215.42" y="423.25">+</text>
<text x="304.81" y="453.91">*</text>
<text x="338.06" y="390.69">*</text>
<text x="174.60" y="405.66">*</text>
<text x="132.80" y="236.18">.</text>
<text x="496.85" y="106.82">+</text>
<text x="26.49" y="420.56">+</text>
<text x="433.17" y="332.69">+</text>
<text x="173.88" y="378.01">*</text>
<text x="268.53" y="216.42">*</text>
<text x="136.52" y="453.67">+</text>
<text x="244.43" y="20.47">+</text>
<text x="476.05" y="224.70">+</text>
<text x="270.57" y="194.53">+</text>
<text x="454.33" y="138.93">+</text>
<text x="74.60" y="39.94">.</text>
<text x="146.92" y="26.54">.</text>
<text x="87.96" y="11.94">.</text>
<text x="135.91" y="260.10">+</text>
<text x="290.50" y="432.33">.</text>
<text x="135.55" y="274.11">.</text>
<text x="4.78" y="304.08">+</text>
<text x="275.58" y="327.09">*</text>
<text x="198.06" y="439.29">.</text>
<text x="414.93" y="231.24">*</text>
<text x="417.58" y="464.04">.</text>
<text x="10.48" y="171.86">+</text>
<text x="118.93" y="125.39">.</text>
<text x="142.56" y="354.01">.</text>
<text x="316.26" y="43.01">+</text>
<text x="197.32" y="113.60">*</text>
<text x="459.71" y="425.79">+</text>
<text x="439.06" y="440.02">*</text>
<text x="229.46" y="403.82">+</text>
<text x="223.60" y="324.52">+</text>
<text x="276.20" y="238.66">.</text>
<text x="141.52" y="488.95">.</text>
<text x="464.43" y="219.59">+</text>
<text x="341.10" y="411.76">+</text>
<text x="317.19" y="140.54">*</text>
<text x="390.87" y="337.28">+</text>
<text x="195.66" y="381.67">+</text>
<text x="294.13" y="18.77">+</text>
<text x="145.64" y="329.88">*</text>
<text x="116.09" y="58.91">.</text>
<text x="188.55" y="57.61">*</text>
<text x="103.36" y="58.25">*</text>
<text x="320.78" y="337.91">+</text>
<text x="369.37" y="354.58">+</text>
<text x="192.71" y="202.18">+</text>
<text x="447.25" y="126.51">+</text>
<text x="457.15" y="440.85">.</text>
<text x="109.41" y="196.35">+</text>
<text x="54.31" y="391.48">+</text>
<text x="218.04" y="312.36">+</text>
<text x="316.29" y="10.43">*</text>
<text x="255.89" y="32.63">.</text>
<text x="258.90" y="205.64">*</text>
<text x="99.29" y="346.35">+</text>
<text x="241.67" y="456.71">.</text>
<text x="423.64" y="56.77">+</text>
<text x="361.84" y="422.67">.</text>
<text x="211.39" y="272.33">+</text>
<text x="113.91" y="450.03">+</text>
<text x="410.62" y="154.32">.</text>
<text x="12.50" y="213.77">+</text>
<text x="439.85" y="202.24">.</text>
<text x="331.40" y="305.80">+</text>
<text x="388.46" y="81.80">.</text>
<text x="112.02" y="4.11">.</text>
<text x="277.60" y="387.92">+</text>
<text x="104.44" y="282.17">.</text>
<text x="254.65" y="225.78">.</text>
<text x="272.92" y="358.77">+</text>
<text x="238.09" y="19.71">+</text>
<text x="15.21" y="11.45">+</text>
<text x="314.83" y="269.42">.</text>
<text x="141.20" y="274.73">.</text>
<text x="26.55" y="469.24">*</text>
<text x="445.29" y="452.29">*</text>
<text x="84.05" y="209.32">+</text>
<text x="467.84" y="181.93">+</text>
<text x="384.03" y="409.95">*</text>
<text x="363.35" y="407.92">+</text>
<text x="154.16" y="91.95">+</text>
<text x="280.94" y="480.33">+</text>
<text x="226.09" y="7.53">+</text>
<text x="384.84" y="199.42">+</text>
<text x="145.76" y="412.14">.</text>
<text x="305.04" y="491.35">.</text>
<text x="317.34" y="209.80">+</text>
<text x="465.30" y="499.13">.</text>
<text x="113.22" y="122.61">.</text>
<text x="173.60" y="344.99">.</text>
<text x="295.70" y="435.79">.</text>
<text x="129.09" y="175.58">+</text>
<text x="379.63" y="233.77">.</text>
<text x="460.08" y="124.83">.</text>
<text x="491.05" y="46.94">+</text>
<text x="199.84" y="326.44">+</text>
<text x="229.89" y="193.53">.</text>
<text x="250.45" y="439.83">+</text>
<text x="374.75" y="181.00">*</text>
<text x="345.71" y="97.81">+</text>
<text x="479.31" y="248.70">*</text>
<text x="19.11" y="333.78">.</text>
<text x="37.14" y="120.81">+</text>
<text x="194.09" y="339.99">*</text>
<text x="356.54" y="175.17">.</text>
<text x="205.99" y="71.98">*</text>
<text x="496.95" y="434.82">*</text>
<text x="273.15" y="41.04">.</text>
<text x="470.20" y="407.86">.</text>
<text x="48.52" y="362.32">+</text>
<text x="319.81" y="496.50">.</text>
<text x="448.95" y="108.62">+</text>
<text x="87.05" y="258.10">+</text>
<text x="370.53" y="341.12">*</text>
<text x="73.42" y="464.65">*</text>
<text x="497.70" y="37.41">+</text>
<text x="35.14" y="375.34">+</text>
<text x="85.45" y="123.27">.</text>
<text x="322.07" y="10.69">.</text>
<text x="399.82" y="212.48">.</text>
<text x="12.73" y="190.55">+</text>
<text x="324.31" y="351.94">.</text>
<text x="270.47" y="110.52">.</text>
<text x="140.41" y="233.90">.</text>
<text x="67.65" y="379.42">.</text>
<text x="22.73" y="0.79">.</text>
<text x="109.59" y="341.68">+</text>
<text x="156.37" y="78.26">.</text>
<text x="358.83" y="142.46">.</text>
<text x="212.14" y="143.78">.</text>
<text x="318.47" y="285.59">.</text>
<text x="412.54" y="215.91">*</text>
<text x="295.34" y="191.23">.</text>
<text x="356.19" y="283.15">.</text>
<text x="409.88" y="209.85">+</text>
<text x="68.33" y="246.86">.</text>
<text x="415.75" y="197.62">.</text>
<text x="21.79" y="167.04">*</text>
<text x="242.46" y="86.46">+</text>
<text x="428.42" y="45.02">+</text>
<text x="191.42" y="244.21">.</text>
<text x="78.39" y="475.79">.</text>
<text x="142.55" y="213.86">+</text>
<text x="333.04" y="221.45">*</text>
<text x="424.51" y="218.21">.</text>
<text x="269.05" y="449.74">+</text>
<text x="142.52" y="363.55">+</text>
<text x="141.95" y="315.49">.</text>
<text x="231.65" y="376.16">.</text>
<text x="397.47" y="475.23">+</text>
<text x="196.00" y="411.96">.</text>
<text x="379.47" y="477.11">+</text>
<text x="163.04" y="170.73">.</text>
<text x="14.20" y="9.44">+</text>
<text x="236.07" y="378.02">+</text>
<text x="324.73" y="421.95">.</text>
<text x="461.09" y="258.63">+</text>
<text x="383.16" y="16.64">+</text>

</svg>