
<svg viewBox="0 0 500 500" xmlns="http://www.w.org/2000/svg" width="100%" height="100%" style="background-color: #0a0a14; font-family: 'Courier New', Courier, monospace;">
    <style>
        text { fill: #aaa; font-size: 10px; text-anchor: middle; dominant-baseline: middle; }
    </style>
    <text x="25.20" y="485.29">.</text>
<text x="360.88" y="7.29">*</text>
<text x="82.42" y="240.68">.</text>
<text x="202.27" y="330.00">+</text>
<text x="70.91" y="126.56">.</text>
<text x="41.28" y="19.76">.</text>
<text x="249.30" y="332.09">+</text>
<text x="459.40" y="70.16">+</text>
<text x="427.61" y="38.11">.</text>
<text x="106.73" y="210.14">+</text>
<text x="489.52" y="483.79">.</text>
<text x="372.61" y="46.04">+</text>
<text x="457.50" y="115.45">.</text>
<text x="382.63" y="157.70">+</text>
<text x="173.43" y="485.34">+</text>
<text x="345.21" y="355.35">+</text>
<text x="59.69" y="498.29">.</text>
<text x="247.31" y="456.31">.</text>
<text x="299.63" y="97.91">+</text>
<text x="178.92" y="111.96">+</text>
<text x="124.42" y="209.52">.</text>
<text x="250.16" y="321.70">.</text>
<text x="112.54" y="236.61">*</text>
<text x="402.01" y="350.23">+</text>
<text x="49.57" y="97.70">.</text>
<text x="302.64" y="344.43">.</text>
<text x="89.92" y="261.44">.</text>
<text x="171.63" y="328.15">+</text>
<text x="478.01" y="313.21">.</text>
<text x="92.18" y="139.89">*</text>
<text x="2.71" y="230.15">+</text>
<text x="138.37" y="408.99">.</text>
<text x="294.81" y="265.46">.</text>
<text x="117.76" y="475.04">*</text>
<text x="222.09" y="69.33">.</text>
<text x="287.55" y="329.63">.</text>
<text x="11.77" y="253.13">+</text>
<text x="323.05" y="349.64">+</text>
<text x="396.10" y="140.92">*</text>
<text x="153.50" y="198.96">.</text>
<text x="413.03" y="465.07">+</text>
<text x="344.70" y="24.19">.</text>
<text x="129.42" y="28.29">+</text>
<text x="169.15" y="79.50">.</text>
<text x="422.97" y="446.32">.</text>
<text x="287.65" y="28.45">.</text>
<text x="23.30" y="452.09">*</text>
<text x="412.30" y="241.72">.</text>
<text x="115.07" y="430.39">+</text>
<text x="89.73" y="60.16">+</text>
<text x="382.72" y="199.69">.</text>
<text x="436.64" y="345.80">+</text>
<text x="217.78" y="229.96">.</text>
<text x="192.42" y="411.83">+</text>
<text x="446.48" y="228.61">.</text>
<text x="195.42" y="142.56">.</text>
<text x="26.21" y="471.64">*</text>
<text x="447.59" y="23.60">.</text>
<text x="116.61" y="166.59">.</text>
<text x="303.99" y="312.93">+</text>
<text x="405.89" y="100.56">.</text>
<text x="314.30" y="239.27">*</text>
<text x="129.79" y="253.09">+</text>
<text x="381.14" y="114.49">.</text>
<text x="203.91" y="413.74">.</text>
<text x="140.76" y="223.99">.</text>
<text x="229.07" y="227.97">+</text>
<text x="335.93" y="197.75">.</text>
<text x="303.78" y="170.38">+</text>
<text x="125.51" y="376.79">.</text>
<text x="413.33" y="474.76">.</text>
<text x="277.34" y="170.62">*</text>
<text x="361.01" y="463.65">.</text>
<text x="31.47" y="479.57">+</text>
<text x="257.92" y="149.18">.</text>
<text x="408.89" y="439.38">+</text>
<text x="130.78" y="462.98">.</text>
<text x="194.77" y="25.80">*</text>
<text x="205.95" y="177.79">*</text>
<text x="21.79" y="488.73">*</text>
<text x="96.46" y="335.18">.</text>
<text x="357.27" y="287.10">+</text>
<text x="330.25" y="112.39">+</text>
<text x="446.03" y="55.57">+</text>
<text x="35.99" y="202.89">+</text>
<text x="365.99" y="345.39">.</text>
<text x="165.43" y="393.52">.</text>
<text x="37.05" y="185.52">+</text>
<text x="46.13" y="489.43">.</text>
<text x="193.28" y="365.12">+</text>
<text x="213.99" y="216.44">+</text>
<text x="448.14" y="282.60">+</text>
<text x="382.55" y="472.65">.</text>
<text x="24.35" y="9.13">.</text>
<text x="204.41" y="92.36">+</text>
<text x="248.37" y="468.03">+</text>
<text x="238.72" y="285.05">*</text>
<text x="395.73" y="145.86">+</text>
<text x="143.29" y="126.92">*</text>
<text x="116.08" y="84.19">+</text>
<text x="145.17" y="480.58">+</text>
<text x="81.23" y="495.20">.</text>
<text x="154.05" y="489.10">*</text>
<text x="42.21" y="422.24">.</text>
<text x="57.37" y="322.37">+</text>
<text x="186.30" y="165.17">.</text>
<text x="330.72" y="203.12">.</text>
<text x="167.12" y="229.45">+</text>
<text x="39.88" y="465.58">+</text>
<text x="403.73" y="178.24">.</text>
<text x="483.06" y="303.66">+</text>
<text x="347.98" y="373.21">.</text>
<text x="43.79" y="211.98">*</text>
<text x="345.73" y="304.63">+</text>
<text x="231.70" y="395.69">.</text>
<text x="312.62" y="186.15">+</text>
<text x="35.16" y="286.49">*</text>
<text x="308.12" y="408.39">+</text>
<text x="297.30" y="410.06">+</text>
<text x="333.70" y="395.93">+</text>
<text x="343.01" y="36.30">.</text>
<text x="478.27" y="30.09">*</text>
<text x="174.85" y="75.22">.</text>
<text x="153.00" y="209.46">+</text>
<text x="461.08" y="100.86">+</text>
<text x="174.65" y="300.02">*</text>
<text x="265.14" y="210.33">+</text>
<text x="140.15" y="429.93">+</text>
<text x="354.29" y="200.11">.</text>
<text x="241.24" y="373.10">*</text>
<text x="329.50" y="450.31">.</text>
<text x="131.82" y="159.19">.</text>
<text x="43.93" y="7.79">*</text>
<text x="228.61" y="256.33">+</text>
<text x="49.60" y="471.02">*</text>
<text x="381.89" y="214.20">.</text>
<text x="379.76" y="53.97">+</text>
<text x="190.84" y="307.95">+</text>
<text x="216.18" y="119.27">+</text>
<text x="469.05" y="0.26">+</text>
<text x="52.17" y="193.80">.</text>
<text x="239.16" y="436.50">+</text>
<text x="30.03" y="332.70">+</text>
<text x="152.36" y="448.67">.</text>
<text x="310.46" y="112.42">+</text>
<text x="323.77" y="317.43">+</text>
<text x="191.28" y="471.47">*</text>
<text x="420.98" y="300.83">.</text>
<text x="364.01" y="107.75">.</text>
<text x="252.85" y="399.30">.</text>
<text x="472.78" y="241.63">+</text>
<text x="80.07" y="375.94">+</text>
<text x="485.80" y="416.50">+</text>
<text x="359.77" y="269.45">*</text>
<text x="412.55" y="436.86">+</text>
<text x="238.32" y="16.55">+</text>
<text x="402.20" y="230.01">+</text>
<text x="199.12" y="189.82">+</text>
<text x="301.78" y="117.94">+</text>
<text x="225.55" y="427.55">.</text>
<text x="30.38" y="90.17">.</text>
<text x="155.11" y="238.73">+</text>
<text x="136.99" y="340.89">+</text>
<text x="123.61" y="489.56">+</text>
<text x="164.18" y="292.70">.</text>
<text x="209.61" y="71.67">.</text>
<text x="477.34" y="25.98">+</text>
<text x="136.20" y="340.34">.</text>
<text x="421.01" y="241.64">.</text>
<text x="312.66" y="362.23">+</text>
<text x="291.53" y="116.20">.</text>
<text x="308.15" y="454.36">+</text>
<text x="424.99" y="389.78">.</text>
<text x="214.18" y="130.35">+</text>
<text x="355.67" y="355.28">*</text>
<text x="430.35" y="55.02">+</text>
<text x="320.23" y="336.20">+</text>
<text x="216.81" y="230.52">+</text>
<text x="396.33" y="497.87">.</text>
<text x="389.24" y="215.58">.</text>
<text x="66.75" y="346.03">.</text>
<text x="418.43" y="446.16">+</text>
<text x="365.29" y="457.87">+</text>
<text x="247.01" y="345.87">.</text>
<text x="58.16" y="204.96">.</text>
<text x="55.22" y="226.39">.</text>
<text x="194.18" y="185.35">+</text>
<text x="203.71" y="338.19">.</text>
<text x="380.88" y="209.14">+</text>
<text x="309.87" y="74.94">+</text>
<text x="335.54" y="299.54">+</text>
<text x="497.62" y="13.30">+</text>
<text x="330.68" y="208.02">.</text>
<text x="147.61" y="304.23">.</text>
<text x="58.98" y="150.32">*</text>
<text x="229.91" y="259.46">.</text>
<text x="334.92" y="93.12">+</text>
<text x="458.53" y="379.18">+</text>
<text x="135.03" y="259.44">+</text>
<text x="192.60" y="9.66">+</text>
<text x="479.01" y="176.69">.</text>
<text x="6.88" y="427.38">.</text>

</svg>