
<svg viewBox="0 0 500 500" xmlns="http://www.w.org/2000/svg" width="100%" height="100%" style="background-color: #0a0a14; font-family: 'Courier New', Courier, monospace;">
    <style>
        text { fill: #aaa; font-size: 10px; text-anchor: middle; dominant-baseline: middle; }
    </style>
    <text x="150.39" y="23.56">+</text>
<text x="424.33" y="96.88">*</text>
<text x="443.73" y="104.27">+</text>
<text x="72.61" y="386.21">*</text>
<text x="242.12" y="298.94">.</text>
<text x="263.83" y="68.81">+</text>
<text x="457.26" y="399.83">+</text>
<text x="151.88" y="363.77">+</text>
<text x="24.43" y="199.98">.</text>
<text x="386.29" y="262.88">.</text>
<text x="229.92" y="466.09">*</text>
<text x="89.39" y="343.26">+</text>
<text x="235.74" y="25.92">*</text>
<text x="397.33" y="181.10">.</text>
<text x="285.51" y="68.10">.</text>
<text x="55.09" y="1.21">.</text>
<text x="476.51" y="298.66">.</text>
<text x="364.54" y="28.32">.</text>
<text x="28.25" y="266.88">.</text>
<text x="146.18" y="125.91">.</text>
<text x="366.75" y="48.95">.</text>
<text x="211.80" y="490.46">.</text>
<text x="180.29" y="35.33">+</text>
<text x="427.40" y="233.71">.</text>
<text x="302.82" y="256.79">+</text>
<text x="260.45" y="25.85">.</text>
<text x="185.96" y="443.52">.</text>
<text x="104.87" y="333.72">+</text>
<text x="115.62" y="288.81">.</text>
<text x="273.73" y="265.19">+</text>
<text x="46.58" y="173.09">+</text>
<text x="91.54" y="392.96">+</text>
<text x="136.53" y="446.92">+</text>
<text x="380.71" y="105.07">+</text>
<text x="374.33" y="288.95">+</text>
<text x="55.10" y="146.75">+</text>
<text x="363.82" y="146.05">+</text>
<text x="212.59" y="272.76">.</text>
<text x="484.70" y="191.38">.</text>
<text x="95.33" y="160.55">.</text>
<text x="442.91" y="309.56">.</text>
<text x="179.93" y="80.89">*</text>
<text x="248.42" y="81.49">+</text>
<text x="58.77" y="18.56">.</text>
<text x="242.06" y="109.39">+</text>
<text x="9.06" y="138.47">+</text>
<text x="380.25" y="475.82">.</text>
<text x="388.30" y="392.68">.</text>
<text x="491.99" y="332.11">*</text>
<text x="395.48" y="259.65">+</text>
<text x="450.31" y="157.97">+</text>
<text x="81.60" y="430.69">+</text>
<text x="444.88" y="242.65">.</text>
<text x="485.40" y="30.16">.</text>
<text x="93.19" y="487.62">.</text>
<text x="492.51" y="185.72">.</text>
<text x="398.43" y="72.80">.</text>
<text x="448.22" y="38.82">.</text>
<text x="387.92" y="27.31">.</text>
<text x="166.69" y="407.57">.</text>
<text x="206.80" y="270.19">.</text>
<text x="159.43" y="59.20">*</text>
<text x="470.46" y="187.68">.</text>
<text x="282.25" y="49.94">+</text>
<text x="442.32" y="122.35">*</text>
<text x="114.75" y="241.78">.</text>
<text x="130.53" y="191.48">+</text>
<text x="104.89" y="201.78">+</text>
<text x="453.53" y="10.32">.</text>
<text x="361.91" y="438.71">+</text>
<text x="65.69" y="381.31">.</text>
<text x="188.47" y="257.88">+</text>
<text x="92.26" y="214.47">+</text>
<text x="405.61" y="106.24">+</text>
<text x="78.80" y="471.11">+</text>
<text x="8.56" y="58.30">+</text>
<text x="451.98" y="350.08">*</text>
<text x="267.90" y="366.32">+</text>
<text x="93.31" y="412.79">+</text>
<text x="106.81" y="10.32">.</text>
<text x="139.53" y="355.84">+</text>
<text x="417.19" y="286.25">+</text>
<text x="319.74" y="105.19">.</text>
<text x="35.72" y="439.93">+</text>
<text x="63.19" y="95.54">+</text>
<text x="163.19" y="469.72">.</text>
<text x="435.70" y="52.31">.</text>
<text x="78.29" y="317.36">.</text>
<text x="378.23" y="417.90">.</text>
<text x="376.64" y="367.55">+</text>
<text x="473.50" y="492.57">.</text>
<text x="270.13" y="81.20">+</text>
<text x="280.73" y="156.37">.</text>
<text x="292.93" y="423.24">.</text>
<text x="134.20" y="392.78">.</text>
<text x="167.66" y="440.60">+</text>
<text x="149.92" y="87.40">+</text>
<text x="6.29" y="38.70">.</text>
<text x="0.62" y="176.43">.</text>
<text x="458.15" y="65.43">*</text>
<text x="481.81" y="146.04">+</text>
<text x="268.18" y="23.53">.</text>
<text x="201.06" y="398.20">.</text>
<text x="317.71" y="399.92">.</text>
<text x="230.30" y="153.07">+</text>
<text x="138.54" y="455.83">.</text>
<text x="200.76" y="396.66">+</text>
<text x="259.43" y="15.68">.</text>
<text x="204.62" y="401.43">*</text>
<text x="336.68" y="333.27">.</text>
<text x="204.42" y="2.33">+</text>
<text x="300.47" y="368.86">.</text>
<text x="171.94" y="237.97">+</text>
<text x="127.73" y="272.39">+</text>
<text x="266.06" y="242.42">+</text>
<text x="402.77" y="177.46">*</text>
<text x="481.42" y="22.63">.</text>
<text x="75.58" y="142.15">+</text>
<text x="346.35" y="320.53">+</text>
<text x="134.26" y="385.60">.</text>
<text x="226.95" y="71.34">+</text>
<text x="432.67" y="245.77">+</text>
<text x="322.69" y="0.36">+</text>
<text x="309.08" y="238.78">+</text>
<text x="6.04" y="358.23">+</text>
<text x="51.36" y="7.78">+</text>
<text x="129.87" y="428.72">.</text>
<text x="103.70" y="75.71">.</text>
<text x="149.71" y="275.52">+</text>
<text x="12.37" y="404.92">+</text>
<text x="397.79" y="15.98">+</text>
<text x="486.88" y="386.24">+</text>
<text x="36.21" y="396.09">*</text>
<text x="295.18" y="462.55">.</text>
<text x="288.94" y="216.15">.</text>
<text x="358.10" y="412.24">*</text>
<text x="439.20" y="255.98">+</text>
<text x="304.17" y="257.11">*</text>
<text x="96.28" y="307.55">.</text>
<text x="251.88" y="302.35">*</text>
<text x="386.18" y="311.23">+</text>
<text x="226.37" y="164.74">.</text>
<text x="135.92" y="288.82">+</text>
<text x="257.35" y="156.96">+</text>
<text x="104.05" y="137.87">*</text>
<text x="321.61" y="250.64">.</text>
<text x="333.88" y="66.14">+</text>
<text x="253.19" y="272.72">+</text>
<text x="474.87" y="278.06">+</text>
<text x="296.88" y="382.20">+</text>
<text x="304.23" y="151.73">+</text>
<text x="71.03" y="146.30">+</text>
<text x="4.13" y="216.81">+</text>
<text x="446.49" y="51.25">.</text>
<text x="78.80" y="263.41">+</text>
<text x="386.25" y="292.90">+</text>
<text x="161.82" y="146.30">.</text>
<text x="110.61" y="390.59">.</text>
<text x="22.89" y="303.32">*</text>
<text x="268.21" y="498.95">.</text>
<text x="224.45" y="118.02">.</text>
<text x="12.94" y="81.38">+</text>
<text x="306.38" y="379.78">+</text>
<text x="301.57" y="158.35">+</text>
<text x="321.71" y="97.03">+</text>
<text x="220.11" y="15.56">.</text>
<text x="14.96" y="233.80">+</text>
<text x="425.08" y="317.87">+</text>
<text x="315.63" y="141.13">+</text>
<text x="55.24" y="33.86">+</text>
<text x="155.17" y="31.99">*</text>
<text x="104.75" y="144.91">+</text>
<text x="175.63" y="247.99">*</text>
<text x="40.34" y="487.28">+</text>
<text x="351.87" y="176.55">.</text>
<text x="214.49" y="294.31">.</text>
<text x="223.82" y="144.46">+</text>
<text x="399.62" y="480.66">+</text>
<text x="214.80" y="239.81">*</text>
<text x="79.34" y="288.76">+</text>
<text x="312.55" y="365.02">+</text>
<text x="39.14" y="83.93">+</text>
<text x="426.84" y="7.59">+</text>
<text x="373.30" y="28.20">.</text>
<text x="110.51" y="487.91">.</text>
<text x="417.57" y="54.50">.</text>
<text x="377.96" y="327.61">.</text>
<text x="382.24" y="186.07">+</text>
<text x="14.56" y="116.06">*</text>
<text x="30.39" y="343.74">+</text>
<text x="45.19" y="29.30">.</text>
<text x="113.55" y="66.38">+</text>
<text x="398.68" y="278.11">.</text>
<text x="140.20" y="216.38">.</text>
<text x="190.90" y="466.14">.</text>
<text x="352.14" y="313.28">+</text>
<text x="343.38" y="90.14">*</text>
<text x="156.29" y="434.70">+</text>
<text x="374.25" y="199.12">+</text>
<text x="486.99" y="38.06">.</text>
<text x="15.88" y="401.40">+</text>
<text x="193.92" y="365.61">.</text>
<text x="279.78" y="248.25">.</text>
<text x="326.66" y="150.51">.</text>
<text x="54.78" y="248.63">+</text>
<text x="19.49" y="445.49">+</text>
<text x="221.64" y="41.85">+</text>
<text x="445.14" y="168.48">+</text>
<text x="276.21" y="490.79">+</text>
<text x="243.84" y="366.78">+</text>
<text x="464.04" y="271.10">.</text>

</svg>