
<svg viewBox="0 0 500 500" xmlns="http://www.w.org/2000/svg" width="100%" height="100%" style="background-color: #0a0a14; font-family: 'Courier New', Courier, monospace;">
    <style>
        text { fill: #aaa; font-size: 10px; text-anchor: middle; dominant-baseline: middle; }
    </style>
    <text x="153.42" y="78.19">.</text>
<text x="138.59" y="186.44">.</text>
<text x="320.97" y="24.44">+</text>
<text x="85.86" y="344.35">.</text>
<text x="404.74" y="339.02">+</text>
<text x="325.94" y="186.18">.</text>
<text x="116.47" y="266.02">.</text>
<text x="400.93" y="239.66">.</text>
<text x="165.32" y="92.13">.</text>
<text x="299.21" y="99.93">.</text>
<text x="390.20" y="93.14">*</text>
<text x="189.81" y="60.53">.</text>
<text x="149.72" y="237.38">+</text>
<text x="486.89" y="250.02">.</text>
<text x="498.58" y="121.27">.</text>
<text x="284.42" y="347.29">+</text>
<text x="296.58" y="193.50">.</text>
<text x="269.78" y="50.25">+</text>
<text x="239.97" y="422.08">+</text>
<text x="212.77" y="103.13">.</text>
<text x="60.38" y="149.27">+</text>
<text x="446.82" y="48.33">+</text>
<text x="183.69" y="360.13">+</text>
<text x="347.01" y="71.89">+</text>
<text x="252.81" y="18.46">.</text>
<text x="5.90" y="204.05">+</text>
<text x="348.68" y="322.81">+</text>
<text x="158.52" y="321.55">.</text>
<text x="479.86" y="458.52">+</text>
<text x="452.18" y="318.25">.</text>
<text x="459.31" y="315.83">*</text>
<text x="415.90" y="37.63">+</text>
<text x="157.25" y="313.91">.</text>
<text x="344.69" y="177.92">.</text>
<text x="428.63" y="138.88">.</text>
<text x="201.03" y="372.81">.</text>
<text x="350.61" y="486.17">.</text>
<text x="212.72" y="451.64">+</text>
<text x="300.54" y="69.80">+</text>
<text x="420.54" y="116.68">+</text>
<text x="263.32" y="404.35">.</text>
<text x="57.27" y="96.87">.</text>
<text x="11.80" y="7.65">.</text>
<text x="305.80" y="420.84">.</text>
<text x="12.65" y="335.67">.</text>
<text x="411.70" y="112.88">+</text>
<text x="328.81" y="396.40">.</text>
<text x="140.83" y="442.30">*</text>
<text x="185.07" y="73.86">.</text>
<text x="360.04" y="204.34">*</text>
<text x="363.53" y="379.26">.</text>
<text x="162.65" y="401.97">+</text>
<text x="367.11" y="66.19">+</text>
<text x="133.88" y="86.91">.</text>
<text x="366.84" y="287.83">.</text>
<text x="59.84" y="270.87">.</text>
<text x="104.29" y="256.46">+</text>
<text x="285.58" y="392.23">.</text>
<text x="394.83" y="395.56">+</text>
<text x="285.06" y="40.60">+</text>
<text x="44.11" y="101.55">+</text>
<text x="8.44" y="240.99">+</text>
<text x="348.78" y="358.11">+</text>
<text x="70.63" y="196.49">+</text>
<text x="35.83" y="120.96">.</text>
<text x="229.95" y="316.40">.</text>
<text x="173.51" y="94.46">.</text>
<text x="448.66" y="252.67">*</text>
<text x="377.07" y="353.42">+</text>
<text x="329.37" y="397.47">*</text>
<text x="45.18" y="116.99">.</text>
<text x="98.19" y="188.30">+</text>
<text x="268.51" y="389.14">+</text>
<text x="204.97" y="99.83">+</text>
<text x="345.70" y="303.83">.</text>
<text x="127.81" y="393.53">.</text>
<text x="191.61" y="3.09">+</text>
<text x="118.48" y="140.67">.</text>
<text x="365.00" y="24.66">.</text>
<text x="399.64" y="194.10">+</text>
<text x="248.42" y="428.21">+</text>
<text x="385.80" y="364.59">+</text>
<text x="169.23" y="381.23">+</text>
<text x="300.62" y="281.01">.</text>
<text x="242.02" y="247.33">.</text>
<text x="70.30" y="260.33">+</text>
<text x="433.83" y="134.50">+</text>
<text x="304.90" y="89.42">+</text>
<text x="8.05" y="365.77">+</text>
<text x="116.58" y="248.80">.</text>
<text x="246.13" y="399.03">+</text>
<text x="167.22" y="31.81">*</text>
<text x="138.38" y="180.76">.</text>
<text x="462.69" y="145.90">+</text>
<text x="285.50" y="71.64">+</text>
<text x="393.65" y="56.74">.</text>
<text x="118.88" y="356.05">+</text>
<text x="331.83" y="66.12">.</text>
<text x="219.39" y="202.73">+</text>
<text x="251.37" y="463.65">*</text>
<text x="34.24" y="444.20">+</text>
<text x="371.88" y="329.93">+</text>
<text x="148.67" y="137.05">.</text>
<text x="271.03" y="113.52">.</text>
<text x="141.52" y="272.42">+</text>
<text x="469.08" y="224.41">.</text>
<text x="206.23" y="322.54">.</text>
<text x="169.85" y="418.76">+</text>
<text x="0.58" y="78.50">.</text>
<text x="61.98" y="175.78">*</text>
<text x="52.31" y="280.98">*</text>
<text x="406.72" y="426.32">*</text>
<text x="393.83" y="397.06">+</text>
<text x="6.31" y="183.41">.</text>
<text x="19.91" y="30.47">.</text>
<text x="477.93" y="334.48">*</text>
<text x="142.11" y="179.77">+</text>
<text x="355.91" y="414.48">.</text>
<text x="410.40" y="457.02">*</text>
<text x="98.71" y="456.60">.</text>
<text x="333.68" y="360.46">.</text>
<text x="339.83" y="173.62">.</text>
<text x="162.35" y="68.79">+</text>
<text x="141.96" y="20.14">.</text>
<text x="260.99" y="344.15">.</text>
<text x="148.72" y="151.89">+</text>
<text x="470.48" y="173.55">.</text>
<text x="454.18" y="153.76">.</text>
<text x="268.91" y="181.12">*</text>
<text x="351.63" y="478.21">.</text>
<text x="334.37" y="446.54">.</text>
<text x="489.14" y="295.93">+</text>
<text x="497.77" y="69.90">*</text>
<text x="115.11" y="270.79">+</text>
<text x="367.92" y="330.97">.</text>
<text x="85.52" y="423.30">.</text>
<text x="310.33" y="255.99">+</text>
<text x="180.69" y="36.86">.</text>
<text x="444.22" y="76.95">+</text>
<text x="264.96" y="277.18">+</text>
<text x="408.93" y="438.72">.</text>
<text x="316.28" y="124.57">.</text>
<text x="106.99" y="211.84">.</text>
<text x="44.23" y="22.64">.</text>
<text x="138.34" y="330.61">+</text>
<text x="143.37" y="296.37">*</text>
<text x="194.20" y="346.89">*</text>
<text x="446.02" y="268.48">+</text>
<text x="9.67" y="289.13">.</text>
<text x="360.94" y="83.87">*</text>
<text x="396.46" y="272.24">+</text>
<text x="186.16" y="62.69">.</text>
<text x="464.82" y="457.44">+</text>
<text x="221.68" y="441.55">*</text>
<text x="156.36" y="242.10">+</text>
<text x="401.78" y="16.19">.</text>
<text x="217.96" y="194.28">.</text>
<text x="403.60" y="1.39">.</text>
<text x="147.54" y="398.93">+</text>
<text x="239.73" y="52.79">.</text>
<text x="134.64" y="112.90">.</text>
<text x="111.93" y="92.65">.</text>
<text x="224.62" y="182.75">+</text>
<text x="460.37" y="9.34">*</text>
<text x="370.23" y="409.29">+</text>
<text x="256.18" y="474.80">*</text>
<text x="29.31" y="281.47">.</text>
<text x="223.79" y="92.73">+</text>
<text x="490.39" y="281.24">+</text>
<text x="11.99" y="483.33">.</text>
<text x="45.09" y="180.82">.</text>
<text x="164.91" y="401.36">+</text>
<text x="88.63" y="192.69">.</text>
<text x="471.41" y="363.47">+</text>
<text x="234.84" y="133.24">*</text>
<text x="409.78" y="485.80">.</text>
<text x="268.87" y="349.09">.</text>
<text x="332.86" y="262.79">+</text>
<text x="128.07" y="152.07">*</text>
<text x="165.79" y="412.10">+</text>
<text x="125.51" y="293.13">+</text>
<text x="128.42" y="494.64">*</text>
<text x="267.83" y="345.70">+</text>
<text x="438.35" y="260.14">+</text>
<text x="153.96" y="192.62">.</text>
<text x="182.96" y="491.63">.</text>
<text x="175.81" y="17.92">.</text>
<text x="163.44" y="44.42">.</text>
<text x="304.04" y="260.61">.</text>
<text x="216.35" y="289.52">+</text>
<text x="43.04" y="385.66">.</text>
<text x="93.94" y="53.07">+</text>
<text x="216.93" y="376.49">.</text>
<text x="54.49" y="77.41">+</text>
<text x="237.28" y="291.31">.</text>
<text x="168.34" y="35.35">*</text>
<text x="324.62" y="330.49">.</text>
<text x="161.07" y="19.21">*</text>
<text x="219.53" y="94.73">+</text>
<text x="141.68" y="381.18">.</text>
<text x="311.79" y="188.14">+</text>
<text x="321.80" y="165.93">+</text>
<text x="199.85" y="344.14">+</text>
<text x="369.18" y="53.64">.</text>
<text x="171.56" y="54.49">+</text>
<text x="417.09" y="183.34">*</text>
<text x="321.40" y="343.52">.</text>
<text x="236.78" y="23.44">+</text>
<text x="385.95" y="300.39">.</text>

</svg>