
<svg viewBox="0 0 500 500" xmlns="http://www.w.org/2000/svg" width="100%" height="100%" style="background-color: #0a0a14; font-family: 'Courier New', Courier, monospace;">
    <style>
        text { fill: #aaa; font-size: 10px; text-anchor: middle; dominant-baseline: middle; }
    </style>
    <text x="333.28" y="12.15">*</text>
<text x="232.89" y="454.12">.</text>
<text x="295.27" y="69.48">.</text>
<text x="145.16" y="494.76">*</text>
<text x="422.16" y="454.03">.</text>
<text x="424.45" y="40.80">+</text>
<text x="437.90" y="460.04">+</text>
<text x="403.59" y="101.13">*</text>
<text x="451.82" y="257.96">*</text>
<text x="74.04" y="451.45">.</text>
<text x="440.20" y="440.14">.</text>
<text x="138.26" y="345.93">+</text>
<text x="245.06" y="476.75">.</text>
<text x="154.05" y="279.81">*</text>
<text x="186.51" y="117.02">.</text>
<text x="61.28" y="339.89">+</text>
<text x="405.36" y="195.14">+</text>
<text x="179.28" y="271.70">.</text>
<text x="378.59" y="435.96">.</text>
<text x="201.93" y="435.06">.</text>
<text x="200.14" y="140.78">.</text>
<text x="279.99" y="250.99">.</text>
<text x="112.54" y="440.28">+</text>
<text x="161.45" y="209.79">.</text>
<text x="378.88" y="284.15">.</text>
<text x="326.50" y="173.00">+</text>
<text x="276.20" y="304.64">*</text>
<text x="245.82" y="431.24">*</text>
<text x="112.09" y="455.79">+</text>
<text x="181.23" y="341.94">*</text>
<text x="285.59" y="39.58">.</text>
<text x="99.38" y="354.26">*</text>
<text x="80.85" y="407.30">*</text>
<text x="272.12" y="147.87">+</text>
<text x="399.89" y="198.11">+</text>
<text x="180.95" y="459.19">+</text>
<text x="144.40" y="103.14">.</text>
<text x="197.09" y="147.70">.</text>
<text x="381.14" y="4.50">+</text>
<text x="367.28" y="223.20">.</text>
<text x="376.29" y="334.49">.</text>
<text x="25.52" y="366.53">+</text>
<text x="458.38" y="465.35">+</text>
<text x="157.19" y="205.44">+</text>
<text x="356.70" y="192.04">+</text>
<text x="498.53" y="393.41">+</text>
<text x="127.06" y="82.95">.</text>
<text x="241.43" y="10.28">+</text>
<text x="444.84" y="489.39">*</text>
<text x="445.01" y="402.43">.</text>
<text x="475.06" y="30.07">.</text>
<text x="380.88" y="342.55">.</text>
<text x="380.22" y="63.18">.</text>
<text x="458.49" y="48.33">+</text>
<text x="248.80" y="377.54">*</text>
<text x="36.78" y="355.09">.</text>
<text x="30.88" y="355.06">+</text>
<text x="480.59" y="485.37">.</text>
<text x="109.70" y="386.63">.</text>
<text x="5.08" y="439.28">+</text>
<text x="379.44" y="230.81">.</text>
<text x="245.02" y="141.15">+</text>
<text x="431.16" y="7.58">+</text>
<text x="97.49" y="251.91">+</text>
<text x="480.61" y="160.21">+</text>
<text x="417.44" y="326.35">+</text>
<text x="353.90" y="117.10">.</text>
<text x="478.19" y="419.04">*</text>
<text x="184.46" y="490.13">.</text>
<text x="482.68" y="377.36">.</text>
<text x="335.29" y="415.99">.</text>
<text x="392.64" y="401.14">+</text>
<text x="113.18" y="331.93">*</text>
<text x="207.67" y="25.18">.</text>
<text x="24.31" y="403.80">*</text>
<text x="284.84" y="481.96">+</text>
<text x="451.79" y="255.97">.</text>
<text x="109.29" y="328.28">.</text>
<text x="410.98" y="376.33">+</text>
<text x="402.25" y="66.59">.</text>
<text x="271.74" y="332.05">+</text>
<text x="367.50" y="212.04">+</text>
<text x="297.93" y="358.16">*</text>
<text x="46.56" y="356.87">*</text>
<text x="299.40" y="144.51">+</text>
<text x="202.36" y="478.93">+</text>
<text x="318.01" y="31.19">+</text>
<text x="377.26" y="58.29">+</text>
<text x="92.64" y="285.00">+</text>
<text x="243.80" y="31.44">*</text>
<text x="398.94" y="495.07">.</text>
<text x="175.27" y="474.03">.</text>
<text x="173.77" y="239.28">.</text>
<text x="424.20" y="427.32">+</text>
<text x="300.26" y="167.03">.</text>
<text x="240.15" y="251.12">.</text>
<text x="60.07" y="332.20">+</text>
<text x="369.00" y="114.10">.</text>
<text x="332.06" y="295.67">.</text>
<text x="354.09" y="267.22">+</text>
<text x="347.03" y="10.03">+</text>
<text x="22.92" y="74.67">+</text>
<text x="110.04" y="94.24">.</text>
<text x="289.44" y="142.52">+</text>
<text x="486.83" y="61.81">.</text>
<text x="63.32" y="86.98">.</text>
<text x="189.87" y="271.70">.</text>
<text x="223.59" y="494.63">+</text>
<text x="331.49" y="63.91">+</text>
<text x="315.26" y="475.52">*</text>
<text x="487.19" y="275.75">+</text>
<text x="476.91" y="358.74">+</text>
<text x="419.17" y="392.90">*</text>
<text x="73.61" y="312.18">+</text>
<text x="167.22" y="405.62">*</text>
<text x="398.12" y="303.44">*</text>
<text x="348.78" y="497.11">+</text>
<text x="186.93" y="433.59">.</text>
<text x="496.89" y="378.23">.</text>
<text x="169.03" y="469.72">.</text>
<text x="16.52" y="377.23">+</text>
<text x="417.06" y="140.21">.</text>
<text x="65.02" y="367.54">.</text>
<text x="187.87" y="214.39">+</text>
<text x="344.78" y="135.24">+</text>
<text x="259.51" y="281.11">+</text>
<text x="211.49" y="88.11">+</text>
<text x="467.55" y="129.22">*</text>
<text x="259.81" y="268.53">.</text>
<text x="491.05" y="431.22">.</text>
<text x="390.18" y="158.14">.</text>
<text x="142.40" y="173.85">+</text>
<text x="217.18" y="155.20">.</text>
<text x="32.08" y="160.38">.</text>
<text x="315.20" y="353.17">.</text>
<text x="230.23" y="477.89">+</text>
<text x="168.46" y="88.94">.</text>
<text x="202.25" y="147.55">*</text>
<text x="200.48" y="298.56">+</text>
<text x="76.97" y="455.51">+</text>
<text x="256.97" y="195.13">+</text>
<text x="362.82" y="78.48">*</text>
<text x="249.70" y="121.58">.</text>
<text x="340.56" y="370.95">*</text>
<text x="143.17" y="215.69">+</text>
<text x="100.46" y="109.11">.</text>
<text x="411.81" y="159.47">.</text>
<text x="88.83" y="261.61">*</text>
<text x="385.25" y="176.21">.</text>
<text x="71.29" y="493.01">+</text>
<text x="128.74" y="210.80">+</text>
<text x="358.50" y="471.54">.</text>
<text x="87.55" y="25.67">+</text>
<text x="166.39" y="182.60">.</text>
<text x="354.70" y="217.21">+</text>
<text x="189.60" y="397.76">+</text>
<text x="195.17" y="266.94">+</text>
<text x="447.85" y="171.63">.</text>
<text x="167.34" y="234.83">.</text>
<text x="220.41" y="475.08">*</text>
<text x="185.95" y="18.18">.</text>
<text x="466.22" y="363.88">+</text>
<text x="72.64" y="125.56">*</text>
<text x="307.04" y="81.84">.</text>
<text x="145.50" y="401.59">+</text>
<text x="402.99" y="452.92">.</text>
<text x="78.13" y="138.21">.</text>
<text x="235.36" y="427.51">*</text>
<text x="80.34" y="49.80">*</text>
<text x="377.26" y="448.47">+</text>
<text x="217.04" y="259.92">.</text>
<text x="249.66" y="7.41">+</text>
<text x="296.01" y="325.14">+</text>
<text x="312.35" y="436.83">.</text>
<text x="75.01" y="191.18">*</text>
<text x="12.71" y="157.00">+</text>
<text x="46.69" y="236.27">.</text>
<text x="170.89" y="485.41">.</text>
<text x="321.49" y="345.88">+</text>
<text x="159.54" y="256.59">.</text>
<text x="421.04" y="386.88">*</text>
<text x="339.74" y="421.00">.</text>
<text x="427.23" y="415.10">.</text>
<text x="85.63" y="62.90">*</text>
<text x="321.79" y="447.98">*</text>
<text x="274.12" y="200.05">+</text>
<text x="459.96" y="499.76">+</text>
<text x="137.31" y="111.53">.</text>
<text x="89.55" y="101.20">+</text>
<text x="492.46" y="64.72">+</text>
<text x="477.47" y="454.30">.</text>
<text x="245.66" y="146.64">+</text>
<text x="147.35" y="283.78">+</text>
<text x="271.52" y="51.56">+</text>
<text x="235.40" y="72.59">.</text>
<text x="158.21" y="477.66">.</text>
<text x="229.41" y="404.10">.</text>
<text x="380.72" y="353.90">+</text>
<text x="345.27" y="446.42">.</text>
<text x="460.55" y="319.72">.</text>
<text x="146.21" y="31.90">.</text>
<text x="376.09" y="86.55">+</text>
<text x="147.44" y="83.89">+</text>

</svg>