
<svg viewBox="0 0 500 500" xmlns="http://www.w.org/2000/svg" width="100%" height="100%" style="background-color: #0a0a14; font-family: 'Courier New', Courier, monospace;">
    <style>
        text { fill: #aaa; font-size: 10px; text-anchor: middle; dominant-baseline: middle; }
    </style>
    <text x="496.94" y="209.49">.</text>
<text x="271.43" y="189.32">+</text>
<text x="109.82" y="381.83">.</text>
<text x="298.35" y="258.26">.</text>
<text x="80.73" y="233.87">*</text>
<text x="37.29" y="96.45">+</text>
<text x="369.50" y="411.83">*</text>
<text x="35.59" y="309.02">+</text>
<text x="376.23" y="7.85">.</text>
<text x="1.18" y="50.07">.</text>
<text x="460.49" y="137.26">.</text>
<text x="315.38" y="349.31">.</text>
<text x="41.27" y="187.15">*</text>
<text x="385.38" y="178.72">+</text>
<text x="371.06" y="408.35">.</text>
<text x="448.43" y="470.44">+</text>
<text x="187.09" y="0.47">.</text>
<text x="167.77" y="326.89">+</text>
<text x="497.12" y="199.85">*</text>
<text x="270.64" y="111.03">+</text>
<text x="166.68" y="312.48">.</text>
<text x="13.48" y="1.07">.</text>
<text x="213.13" y="166.33">*</text>
<text x="23.37" y="268.09">.</text>
<text x="159.07" y="129.41">*</text>
<text x="308.83" y="128.33">.</text>
<text x="483.05" y="197.24">*</text>
<text x="287.60" y="154.48">+</text>
<text x="63.95" y="153.77">.</text>
<text x="237.42" y="286.27">+</text>
<text x="63.59" y="174.00">+</text>
<text x="5.62" y="367.86">+</text>
<text x="301.18" y="31.34">.</text>
<text x="196.85" y="98.11">.</text>
<text x="410.51" y="296.42">+</text>
<text x="16.59" y="163.11">.</text>
<text x="39.39" y="65.39">.</text>
<text x="149.41" y="210.84">+</text>
<text x="429.85" y="81.09">+</text>
<text x="414.04" y="284.92">.</text>
<text x="357.81" y="133.49">+</text>
<text x="251.58" y="216.12">+</text>
<text x="10.46" y="341.96">+</text>
<text x="170.16" y="217.90">+</text>
<text x="489.35" y="278.48">.</text>
<text x="111.98" y="320.01">+</text>
<text x="178.06" y="324.37">*</text>
<text x="155.43" y="102.28">+</text>
<text x="451.74" y="440.19">.</text>
<text x="427.42" y="120.20">+</text>
<text x="110.99" y="40.98">.</text>
<text x="49.97" y="339.79">+</text>
<text x="89.25" y="470.15">+</text>
<text x="262.32" y="328.67">+</text>
<text x="156.13" y="397.11">+</text>
<text x="312.01" y="434.60">.</text>
<text x="361.08" y="251.87">.</text>
<text x="34.85" y="347.64">.</text>
<text x="27.50" y="261.86">+</text>
<text x="166.85" y="456.38">+</text>
<text x="217.35" y="377.71">.</text>
<text x="135.69" y="478.80">*</text>
<text x="271.84" y="488.03">+</text>
<text x="243.10" y="135.49">*</text>
<text x="366.91" y="490.67">+</text>
<text x="246.12" y="172.23">.</text>
<text x="341.10" y="262.45">.</text>
<text x="12.98" y="11.85">+</text>
<text x="177.11" y="481.49">*</text>
<text x="455.41" y="237.26">.</text>
<text x="472.73" y="262.06">+</text>
<text x="472.95" y="278.62">*</text>
<text x="281.75" y="12.73">.</text>
<text x="330.78" y="35.60">*</text>
<text x="146.24" y="186.22">+</text>
<text x="277.79" y="416.45">.</text>
<text x="148.72" y="312.38">+</text>
<text x="462.65" y="330.82">.</text>
<text x="297.89" y="8.88">.</text>
<text x="105.78" y="174.48">.</text>
<text x="195.72" y="470.87">.</text>
<text x="257.47" y="344.52">*</text>
<text x="174.43" y="275.36">.</text>
<text x="359.41" y="496.03">+</text>
<text x="212.73" y="421.69">*</text>
<text x="315.25" y="170.71">*</text>
<text x="351.64" y="114.97">.</text>
<text x="23.05" y="204.94">.</text>
<text x="225.58" y="468.03">.</text>
<text x="170.12" y="28.49">+</text>
<text x="455.39" y="439.48">.</text>
<text x="243.02" y="49.54">+</text>
<text x="387.41" y="265.98">+</text>
<text x="458.87" y="484.50">.</text>
<text x="285.17" y="76.45">.</text>
<text x="431.95" y="444.57">+</text>
<text x="141.98" y="113.72">.</text>
<text x="138.46" y="348.33">*</text>
<text x="47.94" y="60.77">.</text>
<text x="364.17" y="287.65">+</text>
<text x="59.79" y="66.22">.</text>
<text x="364.55" y="335.59">+</text>
<text x="138.40" y="5.19">+</text>
<text x="171.43" y="41.08">.</text>
<text x="462.80" y="301.95">+</text>
<text x="219.44" y="468.74">+</text>
<text x="465.68" y="77.93">+</text>
<text x="298.95" y="315.15">+</text>
<text x="90.80" y="163.06">*</text>
<text x="345.12" y="287.24">.</text>
<text x="392.66" y="265.05">.</text>
<text x="488.98" y="210.45">.</text>
<text x="430.39" y="437.59">+</text>
<text x="441.44" y="469.16">+</text>
<text x="429.27" y="316.69">+</text>
<text x="336.38" y="395.31">.</text>
<text x="361.91" y="40.48">+</text>
<text x="409.39" y="393.15">.</text>
<text x="428.06" y="362.07">*</text>
<text x="218.77" y="82.23">.</text>
<text x="430.75" y="357.15">+</text>
<text x="342.59" y="484.36">.</text>
<text x="89.88" y="336.46">+</text>
<text x="83.44" y="28.73">.</text>
<text x="60.41" y="68.29">.</text>
<text x="91.54" y="215.15">+</text>
<text x="179.54" y="364.30">.</text>
<text x="48.19" y="449.64">+</text>
<text x="272.39" y="418.99">.</text>
<text x="132.70" y="239.85">.</text>
<text x="458.81" y="203.36">+</text>
<text x="450.65" y="317.12">+</text>
<text x="184.68" y="107.92">.</text>
<text x="374.80" y="277.72">.</text>
<text x="298.36" y="274.64">+</text>
<text x="313.49" y="445.95">+</text>
<text x="462.06" y="37.01">+</text>
<text x="390.07" y="74.25">+</text>
<text x="111.19" y="207.36">.</text>
<text x="290.51" y="363.21">*</text>
<text x="452.50" y="267.08">+</text>
<text x="109.38" y="233.99">*</text>
<text x="309.07" y="246.38">.</text>
<text x="22.10" y="67.63">.</text>
<text x="459.28" y="31.92">*</text>
<text x="425.13" y="124.89">.</text>
<text x="221.37" y="334.94">+</text>
<text x="407.29" y="108.81">*</text>
<text x="450.41" y="365.82">+</text>
<text x="442.93" y="325.80">.</text>
<text x="370.64" y="68.20">+</text>
<text x="361.43" y="22.34">+</text>
<text x="241.53" y="106.95">+</text>
<text x="27.54" y="165.32">.</text>
<text x="360.89" y="416.67">.</text>
<text x="227.97" y="416.06">.</text>
<text x="496.95" y="444.39">.</text>
<text x="348.22" y="22.39">*</text>
<text x="109.48" y="37.36">*</text>
<text x="414.30" y="166.35">+</text>
<text x="8.78" y="17.49">.</text>
<text x="68.14" y="247.15">*</text>
<text x="21.69" y="269.97">.</text>
<text x="269.77" y="269.23">+</text>
<text x="432.16" y="397.29">.</text>
<text x="51.97" y="217.17">.</text>
<text x="273.46" y="341.71">+</text>
<text x="64.14" y="160.23">.</text>
<text x="156.48" y="325.32">*</text>
<text x="377.25" y="39.78">.</text>
<text x="225.32" y="344.93">+</text>
<text x="3.89" y="400.13">.</text>
<text x="444.58" y="35.93">+</text>
<text x="174.04" y="251.72">.</text>
<text x="148.44" y="359.94">*</text>
<text x="440.22" y="217.43">.</text>
<text x="201.82" y="251.94">+</text>
<text x="463.97" y="153.77">.</text>
<text x="238.18" y="404.87">*</text>
<text x="134.61" y="170.46">+</text>
<text x="405.84" y="282.97">+</text>
<text x="203.50" y="423.35">.</text>
<text x="284.59" y="294.28">.</text>
<text x="59.13" y="308.25">+</text>
<text x="444.12" y="148.28">+</text>
<text x="20.64" y="467.88">+</text>
<text x="310.84" y="202.24">.</text>
<text x="95.98" y="238.00">+</text>
<text x="267.09" y="172.95">+</text>
<text x="349.02" y="112.17">+</text>
<text x="426.17" y="280.79">.</text>
<text x="66.23" y="188.83">+</text>
<text x="408.10" y="15.55">.</text>
<text x="51.69" y="208.01">+</text>
<text x="36.72" y="231.57">+</text>
<text x="277.93" y="99.28">+</text>
<text x="237.87" y="379.23">+</text>
<text x="356.08" y="163.76">*</text>
<text x="64.54" y="89.23">+</text>
<text x="51.63" y="92.04">+</text>
<text x="177.40" y="353.15">.</text>
<text x="392.87" y="172.39">.</text>
<text x="69.43" y="14.25">.</text>
<text x="138.74" y="384.10">.</text>
<text x="470.02" y="202.33">.</text>
<text x="410.01" y="318.68">.</text>

</svg>