
<svg viewBox="0 0 500 500" xmlns="http://www.w.org/2000/svg" width="100%" height="100%" style="background-color: #0a0a14; font-family: 'Courier New', Courier, monospace;">
    <style>
        text { fill: #aaa; font-size: 10px; text-anchor: middle; dominant-baseline: middle; }
    </style>
    <text x="95.16" y="111.21">.</text>
<text x="324.94" y="468.32">.</text>
<text x="113.80" y="181.76">.</text>
<text x="278.22" y="100.92">+</text>
<text x="8.26" y="13.37">+</text>
<text x="319.15" y="83.10">+</text>
<text x="255.66" y="233.57">.</text>
<text x="91.00" y="126.67">+</text>
<text x="48.50" y="269.43">+</text>
<text x="141.08" y="324.51">.</text>
<text x="111.93" y="232.45">.</text>
<text x="468.92" y="187.62">.</text>
<text x="154.63" y="430.70">+</text>
<text x="327.98" y="116.89">.</text>
<text x="347.13" y="70.02">.</text>
<text x="146.53" y="265.94">.</text>
<text x="303.02" y="13.81">+</text>
<text x="257.36" y="265.73">.</text>
<text x="396.10" y="176.92">.</text>
<text x="226.36" y="488.07">.</text>
<text x="160.81" y="17.63">.</text>
<text x="72.94" y="274.23">*</text>
<text x="10.76" y="228.06">.</text>
<text x="108.76" y="370.01">.</text>
<text x="44.75" y="220.37">.</text>
<text x="263.12" y="212.70">+</text>
<text x="476.07" y="496.72">+</text>
<text x="92.14" y="420.91">*</text>
<text x="291.90" y="397.82">*</text>
<text x="435.32" y="243.71">.</text>
<text x="363.27" y="346.51">+</text>
<text x="198.03" y="35.46">.</text>
<text x="119.55" y="438.33">+</text>
<text x="184.00" y="440.90">+</text>
<text x="9.89" y="182.33">+</text>
<text x="376.89" y="494.59">+</text>
<text x="196.24" y="164.17">.</text>
<text x="430.45" y="22.25">*</text>
<text x="355.82" y="257.64">*</text>
<text x="428.98" y="465.70">.</text>
<text x="98.22" y="331.60">+</text>
<text x="480.20" y="227.18">.</text>
<text x="1.51" y="206.99">*</text>
<text x="361.91" y="431.11">.</text>
<text x="483.17" y="107.87">*</text>
<text x="235.45" y="56.20">.</text>
<text x="312.01" y="191.63">.</text>
<text x="443.07" y="163.69">+</text>
<text x="88.91" y="420.51">.</text>
<text x="375.84" y="425.11">*</text>
<text x="425.57" y="222.92">.</text>
<text x="224.86" y="5.16">*</text>
<text x="422.57" y="297.30">.</text>
<text x="103.47" y="429.98">.</text>
<text x="238.34" y="72.05">.</text>
<text x="243.03" y="21.48">+</text>
<text x="148.35" y="281.91">.</text>
<text x="260.25" y="135.02">+</text>
<text x="248.96" y="293.65">+</text>
<text x="498.61" y="59.97">.</text>
<text x="82.48" y="83.16">.</text>
<text x="27.47" y="210.70">+</text>
<text x="395.66" y="357.50">+</text>
<text x="202.00" y="417.75">.</text>
<text x="65.18" y="259.30">.</text>
<text x="166.59" y="0.82">*</text>
<text x="183.89" y="157.83">.</text>
<text x="229.34" y="88.87">.</text>
<text x="317.53" y="143.55">.</text>
<text x="217.20" y="231.49">+</text>
<text x="95.72" y="389.50">+</text>
<text x="330.04" y="174.07">.</text>
<text x="7.08" y="303.20">.</text>
<text x="14.32" y="100.38">+</text>
<text x="409.64" y="197.30">+</text>
<text x="208.36" y="155.17">*</text>
<text x="197.81" y="462.51">*</text>
<text x="482.74" y="494.62">.</text>
<text x="134.55" y="209.05">.</text>
<text x="245.73" y="485.94">.</text>
<text x="387.40" y="337.53">.</text>
<text x="314.64" y="492.83">+</text>
<text x="132.52" y="299.27">*</text>
<text x="188.99" y="278.11">.</text>
<text x="237.55" y="197.69">+</text>
<text x="300.76" y="365.92">+</text>
<text x="336.24" y="12.66">.</text>
<text x="111.82" y="36.52">.</text>
<text x="360.70" y="274.25">+</text>
<text x="216.70" y="32.05">+</text>
<text x="373.14" y="90.53">.</text>
<text x="37.35" y="161.25">.</text>
<text x="389.08" y="250.86">.</text>
<text x="12.45" y="33.13">.</text>
<text x="125.17" y="138.39">.</text>
<text x="425.74" y="204.20">+</text>
<text x="134.62" y="107.16">+</text>
<text x="267.79" y="386.52">.</text>
<text x="249.55" y="101.91">.</text>
<text x="218.07" y="38.35">+</text>
<text x="425.79" y="426.65">+</text>
<text x="184.24" y="195.31">.</text>
<text x="458.54" y="405.50">.</text>
<text x="144.55" y="360.94">.</text>
<text x="86.54" y="178.60">+</text>
<text x="266.46" y="277.87">.</text>
<text x="422.78" y="187.09">+</text>
<text x="119.29" y="387.99">+</text>
<text x="412.26" y="391.03">.</text>
<text x="379.25" y="201.54">.</text>
<text x="142.75" y="76.33">+</text>
<text x="18.08" y="61.28">+</text>
<text x="413.55" y="465.57">+</text>
<text x="54.55" y="10.14">.</text>
<text x="399.04" y="356.90">*</text>
<text x="175.82" y="96.17">*</text>
<text x="47.47" y="166.54">+</text>
<text x="110.07" y="452.22">.</text>
<text x="138.46" y="32.74">+</text>
<text x="67.18" y="265.15">.</text>
<text x="112.94" y="167.96">.</text>
<text x="430.63" y="344.46">+</text>
<text x="387.35" y="39.28">.</text>
<text x="203.65" y="312.10">+</text>
<text x="253.43" y="181.01">+</text>
<text x="47.94" y="272.75">.</text>
<text x="394.11" y="22.61">.</text>
<text x="35.52" y="65.49">.</text>
<text x="150.37" y="243.05">.</text>
<text x="23.51" y="349.54">.</text>
<text x="340.39" y="48.32">.</text>
<text x="419.49" y="273.61">.</text>
<text x="10.48" y="2.11">.</text>
<text x="302.01" y="424.50">.</text>
<text x="326.07" y="432.58">+</text>
<text x="361.50" y="96.58">*</text>
<text x="97.04" y="241.53">+</text>
<text x="323.47" y="459.93">.</text>
<text x="19.30" y="212.91">.</text>
<text x="7.17" y="296.63">+</text>
<text x="290.92" y="192.64">+</text>
<text x="172.94" y="364.37">+</text>
<text x="343.82" y="445.84">.</text>
<text x="175.64" y="78.62">.</text>
<text x="495.73" y="74.32">*</text>
<text x="369.86" y="162.67">*</text>
<text x="133.26" y="81.83">*</text>
<text x="30.25" y="485.10">.</text>
<text x="88.75" y="121.38">+</text>
<text x="83.29" y="367.31">+</text>
<text x="276.72" y="261.92">*</text>
<text x="143.62" y="94.70">.</text>
<text x="337.76" y="295.75">+</text>
<text x="459.52" y="221.76">.</text>
<text x="217.08" y="293.59">.</text>
<text x="291.40" y="272.87">.</text>
<text x="134.93" y="290.69">+</text>
<text x="484.77" y="308.32">.</text>
<text x="230.37" y="459.02">+</text>
<text x="95.06" y="42.28">.</text>
<text x="439.31" y="345.83">*</text>
<text x="80.47" y="74.72">.</text>
<text x="292.80" y="268.09">+</text>
<text x="369.15" y="414.16">+</text>
<text x="201.36" y="50.15">.</text>
<text x="385.62" y="330.48">.</text>
<text x="211.36" y="226.89">.</text>
<text x="115.63" y="165.41">+</text>
<text x="479.36" y="277.32">+</text>
<text x="186.35" y="393.05">.</text>
<text x="432.26" y="412.01">*</text>
<text x="128.60" y="405.81">+</text>
<text x="417.61" y="361.97">+</text>
<text x="429.09" y="68.16">*</text>
<text x="476.73" y="19.96">.</text>
<text x="129.73" y="333.11">+</text>
<text x="187.96" y="2.52">.</text>
<text x="364.12" y="277.72">.</text>
<text x="56.21" y="138.84">.</text>
<text x="15.47" y="327.65">+</text>
<text x="251.34" y="390.33">+</text>
<text x="249.64" y="293.73">.</text>
<text x="121.49" y="181.42">.</text>
<text x="45.50" y="378.68">.</text>
<text x="112.22" y="251.58">.</text>
<text x="26.62" y="291.18">.</text>
<text x="459.45" y="307.17">*</text>
<text x="386.45" y="475.71">+</text>
<text x="297.20" y="477.87">+</text>
<text x="233.06" y="328.42">*</text>
<text x="73.80" y="11.33">+</text>
<text x="374.77" y="4.34">+</text>
<text x="463.04" y="426.03">.</text>
<text x="381.74" y="233.81">+</text>
<text x="480.88" y="289.24">*</text>
<text x="68.36" y="150.69">.</text>
<text x="202.43" y="419.86">+</text>
<text x="187.91" y="260.02">.</text>
<text x="162.31" y="181.61">.</text>
<text x="226.31" y="348.60">+</text>
<text x="267.66" y="147.07">.</text>
<text x="332.98" y="264.54">+</text>
<text x="429.98" y="91.91">+</text>
<text x="355.06" y="96.82">.</text>
<text x="485.83" y="333.64">*</text>
<text x="393.35" y="181.01">.</text>
<text x="452.89" y="443.69">+</text>
<text x="376.47" y="230.43">+</text>

</svg>