
<svg viewBox="0 0 500 500" xmlns="http://www.w.org/2000/svg" width="100%" height="100%" style="background-color: #0a0a14; font-family: 'Courier New', Courier, monospace;">
    <style>
        text { fill: #aaa; font-size: 10px; text-anchor: middle; dominant-baseline: middle; }
    </style>
    <text x="343.11" y="446.62">.</text>
<text x="89.13" y="389.17">+</text>
<text x="241.86" y="481.39">.</text>
<text x="125.83" y="4.76">*</text>
<text x="326.45" y="304.01">.</text>
<text x="419.16" y="347.20">.</text>
<text x="183.09" y="172.34">*</text>
<text x="390.00" y="324.57">*</text>
<text x="274.97" y="223.74">+</text>
<text x="467.01" y="39.86">.</text>
<text x="99.60" y="409.09">+</text>
<text x="277.19" y="278.31">+</text>
<text x="176.11" y="280.64">.</text>
<text x="392.42" y="186.34">+</text>
<text x="224.71" y="110.39">.</text>
<text x="52.88" y="324.92">.</text>
<text x="238.88" y="488.99">+</text>
<text x="279.86" y="130.18">.</text>
<text x="100.95" y="50.17">+</text>
<text x="420.97" y="140.47">+</text>
<text x="90.25" y="125.57">*</text>
<text x="57.87" y="395.00">.</text>
<text x="429.18" y="61.85">*</text>
<text x="64.53" y="33.96">+</text>
<text x="454.07" y="8.61">+</text>
<text x="349.02" y="88.38">+</text>
<text x="283.58" y="386.10">+</text>
<text x="205.82" y="223.69">+</text>
<text x="499.56" y="112.02">.</text>
<text x="9.20" y="217.17">*</text>
<text x="380.06" y="133.92">*</text>
<text x="436.31" y="279.07">.</text>
<text x="391.99" y="351.76">+</text>
<text x="26.24" y="365.21">.</text>
<text x="148.73" y="199.90">.</text>
<text x="148.76" y="425.98">.</text>
<text x="228.25" y="318.58">*</text>
<text x="77.15" y="83.73">.</text>
<text x="359.37" y="228.68">*</text>
<text x="82.57" y="334.06">.</text>
<text x="318.65" y="455.13">+</text>
<text x="413.84" y="296.15">.</text>
<text x="6.63" y="382.41">.</text>
<text x="103.19" y="73.76">*</text>
<text x="461.03" y="234.97">.</text>
<text x="370.96" y="420.80">+</text>
<text x="263.59" y="0.30">+</text>
<text x="64.96" y="20.19">+</text>
<text x="46.10" y="126.90">.</text>
<text x="436.89" y="306.73">.</text>
<text x="257.36" y="225.16">+</text>
<text x="438.30" y="146.95">.</text>
<text x="30.86" y="65.13">.</text>
<text x="79.38" y="289.93">+</text>
<text x="254.99" y="220.38">+</text>
<text x="270.23" y="103.88">+</text>
<text x="176.72" y="176.63">.</text>
<text x="237.46" y="493.55">+</text>
<text x="380.24" y="82.09">.</text>
<text x="240.76" y="231.95">.</text>
<text x="124.60" y="214.79">.</text>
<text x="10.44" y="481.04">+</text>
<text x="342.67" y="155.42">+</text>
<text x="230.59" y="280.14">.</text>
<text x="251.86" y="79.69">+</text>
<text x="420.86" y="141.89">.</text>
<text x="317.08" y="121.34">+</text>
<text x="469.53" y="491.10">*</text>
<text x="382.95" y="177.68">.</text>
<text x="430.64" y="277.77">+</text>
<text x="470.50" y="55.03">+</text>
<text x="181.60" y="57.91">*</text>
<text x="297.83" y="366.14">.</text>
<text x="131.45" y="326.67">+</text>
<text x="430.42" y="267.53">+</text>
<text x="254.90" y="3.69">+</text>
<text x="162.43" y="226.08">*</text>
<text x="304.79" y="184.42">.</text>
<text x="323.54" y="497.89">.</text>
<text x="253.33" y="317.91">.</text>
<text x="93.16" y="226.16">.</text>
<text x="195.36" y="429.61">+</text>
<text x="19.67" y="478.50">.</text>
<text x="431.83" y="159.30">+</text>
<text x="245.77" y="356.15">+</text>
<text x="186.34" y="42.04">+</text>
<text x="191.09" y="321.49">.</text>
<text x="236.21" y="68.70">+</text>
<text x="175.48" y="30.06">.</text>
<text x="308.60" y="194.93">+</text>
<text x="316.00" y="271.29">.</text>
<text x="450.06" y="55.00">.</text>
<text x="43.63" y="469.04">+</text>
<text x="483.70" y="227.16">.</text>
<text x="448.75" y="70.70">.</text>
<text x="170.27" y="119.12">+</text>
<text x="88.59" y="121.29">*</text>
<text x="306.73" y="405.56">.</text>
<text x="99.25" y="480.45">+</text>
<text x="208.35" y="292.06">*</text>
<text x="58.67" y="181.23">*</text>
<text x="298.18" y="404.52">+</text>
<text x="379.81" y="397.14">*</text>
<text x="264.60" y="109.25">.</text>
<text x="495.11" y="398.16">*</text>
<text x="482.60" y="273.06">+</text>
<text x="151.32" y="21.57">*</text>
<text x="22.00" y="267.19">.</text>
<text x="319.44" y="13.01">.</text>
<text x="98.64" y="276.80">*</text>
<text x="379.01" y="46.14">+</text>
<text x="161.73" y="71.30">+</text>
<text x="465.82" y="374.83">.</text>
<text x="284.06" y="430.50">*</text>
<text x="8.83" y="20.39">+</text>
<text x="55.85" y="367.83">+</text>
<text x="177.90" y="388.80">+</text>
<text x="197.09" y="308.20">+</text>
<text x="141.84" y="282.76">*</text>
<text x="15.02" y="219.64">+</text>
<text x="295.75" y="467.84">.</text>
<text x="350.50" y="70.81">.</text>
<text x="465.93" y="286.22">+</text>
<text x="139.29" y="436.82">.</text>
<text x="1.08" y="275.38">.</text>
<text x="313.20" y="290.47">.</text>
<text x="105.08" y="20.43">.</text>
<text x="465.69" y="256.13">+</text>
<text x="137.40" y="87.69">*</text>
<text x="54.21" y="477.91">.</text>
<text x="204.35" y="491.38">+</text>
<text x="268.82" y="134.09">*</text>
<text x="228.80" y="224.87">.</text>
<text x="223.59" y="140.82">+</text>
<text x="456.47" y="144.79">.</text>
<text x="148.72" y="266.11">+</text>
<text x="258.81" y="159.48">+</text>
<text x="123.51" y="385.51">.</text>
<text x="372.72" y="165.80">.</text>
<text x="341.04" y="292.39">.</text>
<text x="18.88" y="488.16">+</text>
<text x="336.83" y="400.89">*</text>
<text x="459.18" y="328.38">.</text>
<text x="320.06" y="55.83">*</text>
<text x="145.83" y="289.98">*</text>
<text x="92.43" y="487.84">.</text>
<text x="469.76" y="170.61">+</text>
<text x="26.55" y="383.04">*</text>
<text x="11.07" y="94.51">.</text>
<text x="371.52" y="49.72">.</text>
<text x="274.51" y="201.31">.</text>
<text x="139.14" y="273.91">.</text>
<text x="185.10" y="326.92">.</text>
<text x="260.01" y="311.93">.</text>
<text x="173.28" y="384.02">+</text>
<text x="470.50" y="473.09">*</text>
<text x="37.11" y="208.21">.</text>
<text x="67.12" y="33.02">.</text>
<text x="157.72" y="11.90">.</text>
<text x="169.89" y="437.60">.</text>
<text x="472.05" y="441.01">*</text>
<text x="246.21" y="164.88">+</text>
<text x="264.67" y="271.54">+</text>
<text x="306.32" y="457.49">+</text>
<text x="90.26" y="87.72">*</text>
<text x="303.34" y="258.39">+</text>
<text x="189.44" y="371.77">+</text>
<text x="484.89" y="289.80">.</text>
<text x="211.55" y="360.11">*</text>
<text x="151.53" y="80.59">+</text>
<text x="206.95" y="348.01">+</text>
<text x="282.91" y="456.62">.</text>
<text x="192.41" y="444.97">.</text>
<text x="453.96" y="318.61">.</text>
<text x="107.80" y="86.97">.</text>
<text x="79.82" y="158.52">.</text>
<text x="492.40" y="301.11">.</text>
<text x="203.29" y="130.31">+</text>
<text x="404.21" y="306.95">+</text>
<text x="373.71" y="304.54">*</text>
<text x="78.80" y="207.36">*</text>
<text x="257.78" y="309.16">.</text>
<text x="384.51" y="460.92">.</text>
<text x="254.96" y="484.41">.</text>
<text x="336.19" y="19.47">+</text>
<text x="313.43" y="76.05">.</text>
<text x="44.01" y="314.77">+</text>
<text x="315.54" y="408.45">.</text>
<text x="495.08" y="289.35">+</text>
<text x="464.50" y="283.48">*</text>
<text x="173.43" y="281.25">.</text>
<text x="404.57" y="272.92">.</text>
<text x="34.87" y="479.75">+</text>
<text x="448.16" y="319.39">.</text>
<text x="409.11" y="462.28">*</text>
<text x="71.68" y="205.29">+</text>
<text x="340.19" y="206.24">.</text>
<text x="308.42" y="66.28">+</text>
<text x="396.02" y="127.80">+</text>
<text x="290.51" y="125.99">+</text>
<text x="65.88" y="421.74">*</text>
<text x="254.36" y="348.39">+</text>
<text x="237.41" y="328.13">.</text>
<text x="247.71" y="298.07">*</text>
<text x="329.13" y="445.84">+</text>
<text x="129.85" y="11.88">+</text>

</svg>