
<svg viewBox="0 0 500 500" xmlns="http://www.w.org/2000/svg" width="100%" height="100%" style="background-color: #0a0a14; font-family: 'Courier New', Courier, monospace;">
    <style>
        text { fill: #aaa; font-size: 10px; text-anchor: middle; dominant-baseline: middle; }
    </style>
    <text x="454.60" y="321.07">*</text>
<text x="358.61" y="225.01">.</text>
<text x="348.64" y="58.18">+</text>
<text x="228.67" y="144.49">.</text>
<text x="30.82" y="204.50">*</text>
<text x="394.75" y="10.56">+</text>
<text x="129.73" y="322.91">+</text>
<text x="390.30" y="432.08">+</text>
<text x="90.94" y="145.75">+</text>
<text x="337.87" y="66.15">+</text>
<text x="97.26" y="420.80">*</text>
<text x="129.25" y="367.38">.</text>
<text x="491.15" y="178.34">*</text>
<text x="231.69" y="274.80">.</text>
<text x="101.26" y="469.28">+</text>
<text x="126.47" y="116.77">+</text>
<text x="271.80" y="332.99">.</text>
<text x="302.83" y="441.59">+</text>
<text x="491.17" y="228.33">+</text>
<text x="21.72" y="406.06">+</text>
<text x="122.40" y="477.46">+</text>
<text x="246.02" y="21.84">.</text>
<text x="450.21" y="33.44">.</text>
<text x="79.71" y="270.24">.</text>
<text x="419.55" y="118.41">+</text>
<text x="312.72" y="177.81">.</text>
<text x="168.64" y="57.45">.</text>
<text x="79.08" y="344.10">+</text>
<text x="382.06" y="321.63">.</text>
<text x="312.07" y="130.11">.</text>
<text x="182.00" y="262.16">.</text>
<text x="476.19" y="135.28">+</text>
<text x="487.41" y="442.52">+</text>
<text x="353.62" y="265.48">.</text>
<text x="497.34" y="376.44">+</text>
<text x="97.84" y="390.10">+</text>
<text x="349.39" y="222.34">+</text>
<text x="402.65" y="153.45">.</text>
<text x="77.27" y="29.57">.</text>
<text x="267.62" y="489.77">.</text>
<text x="445.16" y="55.86">.</text>
<text x="93.37" y="149.60">+</text>
<text x="308.36" y="306.32">+</text>
<text x="213.61" y="298.91">.</text>
<text x="421.43" y="316.80">+</text>
<text x="419.69" y="322.85">.</text>
<text x="411.98" y="43.72">.</text>
<text x="79.41" y="334.10">+</text>
<text x="7.37" y="64.86">.</text>
<text x="62.50" y="213.37">.</text>
<text x="313.94" y="107.00">.</text>
<text x="40.51" y="338.05">+</text>
<text x="288.19" y="437.70">+</text>
<text x="145.42" y="362.77">.</text>
<text x="431.09" y="293.03">+</text>
<text x="104.97" y="242.71">+</text>
<text x="227.28" y="134.55">.</text>
<text x="311.41" y="56.67">.</text>
<text x="483.67" y="92.14">.</text>
<text x="174.82" y="401.84">.</text>
<text x="344.49" y="102.78">+</text>
<text x="397.84" y="11.46">+</text>
<text x="492.73" y="423.71">*</text>
<text x="59.17" y="38.17">.</text>
<text x="134.02" y="302.19">+</text>
<text x="8.71" y="455.23">+</text>
<text x="378.02" y="428.81">+</text>
<text x="114.19" y="130.02">+</text>
<text x="318.21" y="254.83">+</text>
<text x="151.25" y="355.49">+</text>
<text x="5.18" y="486.32">.</text>
<text x="303.44" y="418.78">.</text>
<text x="36.93" y="164.06">+</text>
<text x="467.10" y="77.67">+</text>
<text x="37.57" y="308.38">+</text>
<text x="147.79" y="444.67">*</text>
<text x="50.03" y="416.05">.</text>
<text x="68.28" y="206.57">.</text>
<text x="469.61" y="420.52">.</text>
<text x="158.44" y="208.38">*</text>
<text x="79.90" y="395.58">*</text>
<text x="263.17" y="401.85">.</text>
<text x="195.44" y="188.69">+</text>
<text x="198.11" y="356.09">.</text>
<text x="305.17" y="350.35">.</text>
<text x="431.83" y="347.36">+</text>
<text x="181.60" y="363.18">.</text>
<text x="236.13" y="57.04">*</text>
<text x="176.73" y="78.03">.</text>
<text x="406.18" y="127.03">.</text>
<text x="342.86" y="23.20">*</text>
<text x="335.45" y="47.15">.</text>
<text x="196.66" y="205.96">.</text>
<text x="149.44" y="455.53">.</text>
<text x="401.82" y="29.91">+</text>
<text x="131.59" y="470.46">*</text>
<text x="330.30" y="117.89">+</text>
<text x="65.17" y="269.66">.</text>
<text x="147.77" y="55.13">+</text>
<text x="96.98" y="82.74">.</text>
<text x="352.00" y="195.04">.</text>
<text x="197.19" y="2.81">*</text>
<text x="287.05" y="5.07">+</text>
<text x="233.63" y="36.80">*</text>
<text x="489.12" y="465.83">.</text>
<text x="170.51" y="90.55">+</text>
<text x="32.91" y="292.45">+</text>
<text x="4.55" y="168.07">.</text>
<text x="114.58" y="391.11">.</text>
<text x="8.16" y="408.00">.</text>
<text x="62.45" y="438.29">.</text>
<text x="87.28" y="360.79">+</text>
<text x="169.88" y="456.04">+</text>
<text x="245.64" y="117.94">+</text>
<text x="494.66" y="12.09">.</text>
<text x="26.91" y="134.81">+</text>
<text x="482.16" y="283.61">+</text>
<text x="86.81" y="50.61">.</text>
<text x="318.79" y="302.46">.</text>
<text x="150.86" y="31.08">+</text>
<text x="388.32" y="483.28">+</text>
<text x="453.31" y="311.00">.</text>
<text x="173.04" y="235.93">.</text>
<text x="258.54" y="100.18">.</text>
<text x="435.78" y="68.83">*</text>
<text x="205.36" y="212.09">*</text>
<text x="306.88" y="34.24">.</text>
<text x="34.33" y="40.18">.</text>
<text x="355.82" y="390.42">+</text>
<text x="133.97" y="60.03">+</text>
<text x="483.10" y="270.57">.</text>
<text x="2.84" y="199.69">.</text>
<text x="92.81" y="329.97">+</text>
<text x="81.53" y="298.42">+</text>
<text x="436.83" y="301.81">.</text>
<text x="213.91" y="423.34">.</text>
<text x="381.08" y="437.30">.</text>
<text x="124.54" y="411.92">.</text>
<text x="271.45" y="26.49">+</text>
<text x="136.49" y="266.17">*</text>
<text x="350.75" y="397.25">.</text>
<text x="3.95" y="326.48">.</text>
<text x="187.69" y="345.94">.</text>
<text x="194.20" y="216.73">.</text>
<text x="223.96" y="169.64">+</text>
<text x="88.29" y="312.08">.</text>
<text x="185.37" y="49.16">+</text>
<text x="269.38" y="202.02">.</text>
<text x="485.14" y="375.63">.</text>
<text x="20.02" y="194.98">+</text>
<text x="411.70" y="448.54">+</text>
<text x="276.24" y="414.27">+</text>
<text x="65.77" y="169.04">.</text>
<text x="91.76" y="316.64">+</text>
<text x="471.39" y="49.30">*</text>
<text x="449.28" y="82.34">+</text>
<text x="255.86" y="46.02">.</text>
<text x="493.34" y="60.46">.</text>
<text x="275.87" y="91.71">+</text>
<text x="429.82" y="253.24">+</text>
<text x="176.91" y="391.28">*</text>
<text x="475.83" y="497.42">+</text>
<text x="206.04" y="492.79">.</text>
<text x="137.51" y="270.96">+</text>
<text x="257.23" y="397.20">+</text>
<text x="4.25" y="487.19">*</text>
<text x="12.70" y="306.37">+</text>
<text x="264.20" y="338.28">.</text>
<text x="227.13" y="326.24">+</text>
<text x="391.48" y="401.97">.</text>
<text x="182.96" y="29.02">.</text>
<text x="154.86" y="464.09">*</text>
<text x="211.70" y="73.85">+</text>
<text x="71.64" y="463.26">+</text>
<text x="197.17" y="399.73">.</text>
<text x="459.80" y="244.70">+</text>
<text x="233.23" y="387.43">+</text>
<text x="214.13" y="204.32">.</text>
<text x="101.14" y="323.39">+</text>
<text x="183.79" y="431.30">+</text>
<text x="435.46" y="187.93">+</text>
<text x="23.90" y="338.10">.</text>
<text x="283.23" y="312.59">.</text>
<text x="267.61" y="60.20">+</text>
<text x="126.95" y="159.22">*</text>
<text x="412.57" y="101.13">+</text>
<text x="212.43" y="85.88">.</text>
<text x="77.12" y="311.62">+</text>
<text x="56.38" y="418.46">.</text>
<text x="31.63" y="137.22">+</text>
<text x="215.63" y="22.51">*</text>
<text x="269.49" y="30.94">+</text>
<text x="303.93" y="225.98">.</text>
<text x="262.22" y="32.81">+</text>
<text x="238.24" y="74.26">+</text>
<text x="304.47" y="386.80">*</text>
<text x="169.04" y="488.02">.</text>

</svg>