
<svg viewBox="0 0 500 500" xmlns="http://www.w.org/2000/svg" width="100%" height="100%" style="background-color: #0a0a14; font-family: 'Courier New', Courier, monospace;">
    <style>
        text { fill: #aaa; font-size: 10px; text-anchor: middle; dominant-baseline: middle; }
    </style>
    <text x="437.45" y="405.04">.</text>
<text x="164.62" y="250.06">+</text>
<text x="121.17" y="121.20">+</text>
<text x="349.16" y="48.10">*</text>
<text x="391.61" y="277.44">+</text>
<text x="435.21" y="338.96">+</text>
<text x="196.88" y="78.59">.</text>
<text x="264.07" y="269.47">+</text>
<text x="143.00" y="426.09">.</text>
<text x="394.50" y="179.93">+</text>
<text x="284.72" y="481.82">*</text>
<text x="401.60" y="211.31">*</text>
<text x="126.15" y="291.07">.</text>
<text x="181.62" y="365.44">+</text>
<text x="394.52" y="85.80">+</text>
<text x="63.00" y="75.12">.</text>
<text x="433.65" y="378.39">.</text>
<text x="217.97" y="153.00">+</text>
<text x="371.21" y="480.11">.</text>
<text x="269.28" y="354.49">+</text>
<text x="123.52" y="123.48">.</text>
<text x="225.00" y="103.36">+</text>
<text x="78.32" y="283.14">*</text>
<text x="192.47" y="133.68">+</text>
<text x="182.18" y="195.54">.</text>
<text x="472.45" y="226.61">+</text>
<text x="44.73" y="441.47">+</text>
<text x="90.28" y="248.94">.</text>
<text x="363.10" y="419.99">+</text>
<text x="290.35" y="326.95">.</text>
<text x="230.46" y="414.70">*</text>
<text x="117.49" y="490.01">.</text>
<text x="92.03" y="413.08">.</text>
<text x="91.09" y="119.57">+</text>
<text x="45.32" y="408.05">.</text>
<text x="44.11" y="89.40">.</text>
<text x="280.75" y="484.51">.</text>
<text x="306.31" y="15.46">+</text>
<text x="408.02" y="64.93">+</text>
<text x="370.69" y="195.30">*</text>
<text x="425.81" y="213.34">.</text>
<text x="275.36" y="179.88">.</text>
<text x="143.58" y="254.60">+</text>
<text x="247.47" y="186.66">.</text>
<text x="121.29" y="331.12">.</text>
<text x="95.42" y="352.64">.</text>
<text x="257.34" y="465.77">+</text>
<text x="414.88" y="305.76">+</text>
<text x="262.99" y="216.87">.</text>
<text x="347.04" y="161.02">*</text>
<text x="122.18" y="74.23">.</text>
<text x="368.68" y="86.72">+</text>
<text x="216.82" y="83.40">.</text>
<text x="435.89" y="102.32">+</text>
<text x="10.36" y="395.72">.</text>
<text x="390.12" y="427.63">.</text>
<text x="184.98" y="61.54">+</text>
<text x="164.65" y="74.55">.</text>
<text x="363.53" y="179.88">.</text>
<text x="414.97" y="200.36">+</text>
<text x="487.58" y="113.69">*</text>
<text x="126.32" y="314.62">+</text>
<text x="151.41" y="116.60">+</text>
<text x="470.39" y="466.37">.</text>
<text x="209.47" y="204.98">*</text>
<text x="323.08" y="457.94">+</text>
<text x="94.93" y="61.86">+</text>
<text x="294.50" y="202.77">.</text>
<text x="150.15" y="119.29">.</text>
<text x="113.54" y="365.35">.</text>
<text x="285.07" y="60.91">+</text>
<text x="90.85" y="448.98">*</text>
<text x="319.76" y="462.40">+</text>
<text x="470.38" y="256.34">+</text>
<text x="361.00" y="336.92">+</text>
<text x="404.62" y="482.59">+</text>
<text x="160.57" y="178.96">+</text>
<text x="498.54" y="130.83">*</text>
<text x="261.34" y="4.68">.</text>
<text x="499.05" y="0.30">.</text>
<text x="207.89" y="46.86">.</text>
<text x="417.36" y="123.90">+</text>
<text x="451.05" y="265.51">.</text>
<text x="337.49" y="260.00">*</text>
<text x="451.87" y="325.39">+</text>
<text x="451.23" y="152.25">+</text>
<text x="179.47" y="121.75">.</text>
<text x="44.29" y="184.83">+</text>
<text x="229.66" y="192.25">+</text>
<text x="80.74" y="334.09">.</text>
<text x="452.02" y="32.23">.</text>
<text x="149.44" y="246.74">.</text>
<text x="372.10" y="248.95">*</text>
<text x="417.15" y="118.77">+</text>
<text x="231.60" y="360.90">.</text>
<text x="385.29" y="114.26">.</text>
<text x="393.29" y="148.99">.</text>
<text x="102.48" y="60.12">.</text>
<text x="381.52" y="114.81">+</text>
<text x="104.12" y="139.39">.</text>
<text x="170.11" y="496.35">+</text>
<text x="418.07" y="72.52">.</text>
<text x="84.32" y="375.97">*</text>
<text x="449.86" y="203.89">+</text>
<text x="412.88" y="475.37">+</text>
<text x="466.08" y="277.80">+</text>
<text x="321.81" y="190.44">*</text>
<text x="413.88" y="5.55">+</text>
<text x="468.89" y="18.16">.</text>
<text x="490.23" y="3.88">.</text>
<text x="24.68" y="288.92">.</text>
<text x="194.28" y="40.64">*</text>
<text x="117.83" y="46.17">.</text>
<text x="28.10" y="304.09">+</text>
<text x="184.12" y="208.29">+</text>
<text x="300.35" y="283.53">+</text>
<text x="249.50" y="367.91">.</text>
<text x="476.42" y="473.21">.</text>
<text x="254.03" y="74.11">.</text>
<text x="480.49" y="277.47">+</text>
<text x="222.78" y="461.32">+</text>
<text x="242.06" y="377.62">+</text>
<text x="80.24" y="33.52">*</text>
<text x="84.61" y="291.38">.</text>
<text x="420.92" y="26.51">+</text>
<text x="234.05" y="264.40">.</text>
<text x="177.84" y="367.92">.</text>
<text x="427.57" y="388.04">+</text>
<text x="133.90" y="412.72">.</text>
<text x="406.41" y="309.71">.</text>
<text x="263.99" y="37.82">.</text>
<text x="373.64" y="11.52">.</text>
<text x="172.80" y="329.35">.</text>
<text x="105.27" y="106.34">.</text>
<text x="244.30" y="333.03">.</text>
<text x="176.91" y="44.54">+</text>
<text x="354.62" y="412.62">+</text>
<text x="244.81" y="338.94">+</text>
<text x="458.55" y="84.78">*</text>
<text x="56.98" y="381.90">.</text>
<text x="6.55" y="472.47">.</text>
<text x="353.71" y="267.70">.</text>
<text x="119.83" y="173.41">*</text>
<text x="59.09" y="413.68">+</text>
<text x="140.31" y="152.17">.</text>
<text x="133.88" y="45.20">.</text>
<text x="64.06" y="477.91">.</text>
<text x="40.04" y="281.39">*</text>
<text x="305.42" y="210.79">*</text>
<text x="230.16" y="245.03">+</text>
<text x="457.40" y="90.85">*</text>
<text x="181.42" y="293.45">.</text>
<text x="97.54" y="468.65">.</text>
<text x="2.54" y="285.86">.</text>
<text x="498.72" y="430.49">*</text>
<text x="376.95" y="209.09">*</text>
<text x="362.61" y="144.01">+</text>
<text x="381.43" y="492.29">.</text>
<text x="300.80" y="382.44">+</text>
<text x="428.51" y="252.54">+</text>
<text x="229.21" y="450.41">*</text>
<text x="448.32" y="224.48">.</text>
<text x="193.38" y="63.80">.</text>
<text x="84.21" y="205.14">.</text>
<text x="254.08" y="354.56">.</text>
<text x="349.46" y="311.13">+</text>
<text x="55.46" y="321.03">.</text>
<text x="199.79" y="208.76">+</text>
<text x="429.51" y="25.95">+</text>
<text x="314.02" y="91.37">.</text>
<text x="82.47" y="362.19">+</text>
<text x="434.20" y="99.08">+</text>
<text x="99.01" y="146.60">.</text>
<text x="278.34" y="437.09">*</text>
<text x="492.65" y="126.86">.</text>
<text x="33.84" y="288.48">.</text>
<text x="176.60" y="398.08">+</text>
<text x="181.65" y="294.47">.</text>
<text x="124.78" y="119.28">*</text>
<text x="104.34" y="202.29">.</text>
<text x="18.30" y="224.76">+</text>
<text x="304.44" y="1.75">+</text>
<text x="55.79" y="218.56">.</text>
<text x="258.45" y="304.69">+</text>
<text x="360.93" y="173.05">.</text>
<text x="424.91" y="497.55">*</text>
<text x="256.42" y="453.86">+</text>
<text x="268.97" y="449.88">.</text>
<text x="333.03" y="137.57">*</text>
<text x="23.70" y="245.27">*</text>
<text x="321.97" y="104.53">.</text>
<text x="410.45" y="390.24">+</text>
<text x="13.13" y="96.80">+</text>
<text x="351.79" y="324.97">.</text>
<text x="321.40" y="394.06">+</text>
<text x="453.41" y="95.55">.</text>
<text x="259.09" y="39.45">.</text>
<text x="162.64" y="370.39">+</text>
<text x="68.67" y="105.87">*</text>
<text x="184.72" y="98.99">+</text>
<text x="174.94" y="117.98">*</text>
<text x="469.36" y="58.61">.</text>
<text x="325.48" y="207.84">*</text>
<text x="323.55" y="28.72">.</text>
<text x="72.77" y="46.04">*</text>
<text x="85.87" y="67.93">+</text>
<text x="394.36" y="442.03">+</text>
<text x="350.95" y="101.62">+</text>
<text x="186.62" y="350.84">.</text>
<text x="405.11" y="188.76">+</text>
<text x="479.06" y="185.66">+</text>
<text x="339.23" y="295.66">.</text>
<text x="39.42" y="333.90">*</text>

</svg>