
<svg viewBox="0 0 500 500" xmlns="http://www.w.org/2000/svg" width="100%" height="100%" style="background-color: #0a0a14; font-family: 'Courier New', Courier, monospace;">
    <style>
        text { fill: #aaa; font-size: 10px; text-anchor: middle; dominant-baseline: middle; }
    </style>
    <text x="358.70" y="380.72">.</text>
<text x="38.30" y="107.28">+</text>
<text x="265.84" y="17.77">*</text>
<text x="94.84" y="367.55">.</text>
<text x="208.10" y="167.84">+</text>
<text x="376.80" y="0.46">+</text>
<text x="325.95" y="115.16">.</text>
<text x="15.75" y="451.97">+</text>
<text x="179.96" y="13.24">+</text>
<text x="298.27" y="167.44">+</text>
<text x="40.98" y="237.18">.</text>
<text x="81.20" y="468.76">+</text>
<text x="499.99" y="433.91">*</text>
<text x="165.01" y="108.66">.</text>
<text x="212.36" y="203.94">.</text>
<text x="429.98" y="125.78">+</text>
<text x="41.68" y="304.30">.</text>
<text x="74.92" y="65.72">*</text>
<text x="431.95" y="448.77">.</text>
<text x="292.52" y="415.26">.</text>
<text x="322.03" y="159.83">+</text>
<text x="48.50" y="40.83">*</text>
<text x="323.56" y="229.41">+</text>
<text x="100.87" y="498.97">*</text>
<text x="340.77" y="175.84">.</text>
<text x="374.82" y="151.06">+</text>
<text x="221.70" y="147.82">.</text>
<text x="442.37" y="471.26">*</text>
<text x="474.19" y="142.23">+</text>
<text x="467.32" y="343.30">+</text>
<text x="5.21" y="129.82">*</text>
<text x="284.31" y="264.60">+</text>
<text x="5.33" y="14.31">*</text>
<text x="101.99" y="286.23">*</text>
<text x="139.92" y="15.07">.</text>
<text x="491.51" y="124.27">*</text>
<text x="156.62" y="45.01">.</text>
<text x="221.27" y="464.54">.</text>
<text x="377.31" y="486.85">.</text>
<text x="69.06" y="216.80">+</text>
<text x="361.59" y="1.90">.</text>
<text x="464.55" y="360.81">.</text>
<text x="137.18" y="390.75">.</text>
<text x="435.06" y="0.88">+</text>
<text x="58.80" y="273.19">+</text>
<text x="40.45" y="81.96">+</text>
<text x="32.97" y="52.19">.</text>
<text x="147.62" y="2.89">+</text>
<text x="135.13" y="313.95">+</text>
<text x="263.31" y="271.48">+</text>
<text x="104.59" y="178.81">.</text>
<text x="283.09" y="13.53">.</text>
<text x="98.21" y="43.28">+</text>
<text x="320.89" y="396.88">.</text>
<text x="41.83" y="114.18">.</text>
<text x="480.87" y="87.61">.</text>
<text x="423.18" y="225.18">+</text>
<text x="217.36" y="226.57">.</text>
<text x="377.59" y="326.96">+</text>
<text x="336.82" y="122.30">.</text>
<text x="384.34" y="249.41">.</text>
<text x="463.28" y="420.45">.</text>
<text x="486.70" y="97.89">+</text>
<text x="336.41" y="362.24">.</text>
<text x="128.00" y="93.60">.</text>
<text x="384.07" y="19.14">+</text>
<text x="274.54" y="220.64">.</text>
<text x="78.85" y="188.96">+</text>
<text x="314.34" y="30.09">.</text>
<text x="7.06" y="451.02">+</text>
<text x="174.40" y="472.80">.</text>
<text x="347.62" y="52.47">+</text>
<text x="153.61" y="294.50">.</text>
<text x="391.81" y="310.08">+</text>
<text x="320.34" y="429.41">+</text>
<text x="17.33" y="47.00">+</text>
<text x="428.50" y="442.32">.</text>
<text x="183.19" y="154.12">.</text>
<text x="99.71" y="96.02">+</text>
<text x="147.11" y="273.82">+</text>
<text x="122.50" y="251.50">.</text>
<text x="227.64" y="78.48">.</text>
<text x="482.82" y="85.57">+</text>
<text x="210.26" y="82.35">.</text>
<text x="0.77" y="386.63">*</text>
<text x="160.81" y="151.28">+</text>
<text x="305.18" y="251.10">.</text>
<text x="224.62" y="385.86">.</text>
<text x="453.75" y="386.36">.</text>
<text x="44.68" y="242.54">*</text>
<text x="58.54" y="329.77">.</text>
<text x="110.31" y="120.30">+</text>
<text x="84.72" y="382.60">+</text>
<text x="125.69" y="471.06">+</text>
<text x="163.73" y="487.38">+</text>
<text x="31.22" y="125.27">+</text>
<text x="96.95" y="39.36">.</text>
<text x="115.01" y="38.11">*</text>
<text x="199.11" y="210.66">.</text>
<text x="186.92" y="378.39">*</text>
<text x="110.02" y="255.24">+</text>
<text x="436.72" y="258.09">.</text>
<text x="457.87" y="146.78">*</text>
<text x="113.84" y="377.98">*</text>
<text x="407.09" y="158.56">+</text>
<text x="295.80" y="482.03">.</text>
<text x="96.42" y="417.93">+</text>
<text x="163.22" y="227.14">.</text>
<text x="68.11" y="44.94">*</text>
<text x="459.89" y="323.63">.</text>
<text x="86.69" y="7.04">+</text>
<text x="113.20" y="83.98">.</text>
<text x="362.98" y="383.19">*</text>
<text x="40.11" y="130.90">.</text>
<text x="446.47" y="211.38">.</text>
<text x="72.73" y="0.08">.</text>
<text x="348.55" y="176.98">*</text>
<text x="422.59" y="119.82">+</text>
<text x="41.91" y="275.35">+</text>
<text x="279.62" y="274.05">*</text>
<text x="389.40" y="17.39">*</text>
<text x="438.12" y="183.08">.</text>
<text x="252.56" y="427.31">.</text>
<text x="246.28" y="465.31">.</text>
<text x="496.32" y="463.44">.</text>
<text x="229.59" y="163.38">.</text>
<text x="449.09" y="295.39">.</text>
<text x="126.77" y="215.56">*</text>
<text x="59.18" y="191.92">+</text>
<text x="237.53" y="241.75">+</text>
<text x="222.87" y="170.86">+</text>
<text x="27.56" y="413.37">+</text>
<text x="93.95" y="314.52">.</text>
<text x="499.66" y="252.01">*</text>
<text x="319.67" y="478.39">+</text>
<text x="123.76" y="223.80">+</text>
<text x="115.41" y="302.73">+</text>
<text x="56.88" y="279.34">.</text>
<text x="325.84" y="12.25">.</text>
<text x="400.22" y="256.48">.</text>
<text x="33.27" y="433.94">+</text>
<text x="456.39" y="196.51">+</text>
<text x="258.53" y="77.50">+</text>
<text x="333.06" y="281.25">*</text>
<text x="369.02" y="173.05">*</text>
<text x="355.21" y="182.80">.</text>
<text x="388.42" y="369.04">+</text>
<text x="357.39" y="388.10">.</text>
<text x="151.62" y="171.92">.</text>
<text x="389.72" y="294.59">+</text>
<text x="377.49" y="430.68">+</text>
<text x="103.37" y="346.46">*</text>
<text x="343.02" y="437.38">+</text>
<text x="75.27" y="404.24">+</text>
<text x="265.53" y="251.47">.</text>
<text x="228.82" y="309.53">+</text>
<text x="55.84" y="386.66">*</text>
<text x="211.55" y="115.85">+</text>
<text x="166.11" y="227.56">*</text>
<text x="338.00" y="247.24">+</text>
<text x="120.76" y="301.89">.</text>
<text x="312.65" y="480.24">.</text>
<text x="360.82" y="113.40">*</text>
<text x="183.68" y="188.05">.</text>
<text x="288.37" y="165.01">.</text>
<text x="48.29" y="471.42">*</text>
<text x="405.05" y="269.10">+</text>
<text x="19.41" y="35.67">+</text>
<text x="279.22" y="330.38">.</text>
<text x="153.23" y="389.99">+</text>
<text x="431.02" y="134.76">*</text>
<text x="173.83" y="328.41">*</text>
<text x="489.73" y="340.86">+</text>
<text x="2.33" y="81.35">*</text>
<text x="383.23" y="289.81">.</text>
<text x="171.84" y="333.96">.</text>
<text x="166.05" y="104.95">.</text>
<text x="489.70" y="61.98">+</text>
<text x="422.41" y="448.63">.</text>
<text x="176.54" y="279.76">+</text>
<text x="283.07" y="271.21">+</text>
<text x="339.67" y="223.65">.</text>
<text x="317.30" y="78.00">.</text>
<text x="317.97" y="18.10">.</text>
<text x="349.17" y="151.50">+</text>
<text x="3.11" y="176.82">+</text>
<text x="439.61" y="76.79">.</text>
<text x="460.08" y="474.49">+</text>
<text x="27.21" y="177.06">*</text>
<text x="228.25" y="21.77">+</text>
<text x="152.57" y="321.76">+</text>
<text x="364.28" y="38.30">+</text>
<text x="232.58" y="289.22">.</text>
<text x="254.95" y="173.34">.</text>
<text x="323.09" y="411.80">*</text>
<text x="343.78" y="204.34">.</text>
<text x="386.77" y="248.16">+</text>
<text x="411.53" y="439.82">+</text>
<text x="50.25" y="167.22">+</text>
<text x="299.29" y="493.65">.</text>
<text x="472.27" y="381.85">+</text>
<text x="54.57" y="88.21">+</text>
<text x="8.30" y="344.98">.</text>
<text x="83.77" y="318.17">.</text>
<text x="164.20" y="392.84">.</text>

</svg>