
<svg viewBox="0 0 500 500" xmlns="http://www.w.org/2000/svg" width="100%" height="100%" style="background-color: #0a0a14; font-family: 'Courier New', Courier, monospace;">
    <style>
        text { fill: #aaa; font-size: 10px; text-anchor: middle; dominant-baseline: middle; }
    </style>
    <text x="274.48" y="35.72">+</text>
<text x="439.21" y="343.00">.</text>
<text x="63.04" y="498.09">.</text>
<text x="7.50" y="321.87">.</text>
<text x="140.88" y="473.70">.</text>
<text x="438.83" y="322.30">+</text>
<text x="9.22" y="282.03">.</text>
<text x="48.42" y="448.53">.</text>
<text x="89.45" y="204.52">.</text>
<text x="323.28" y="291.27">*</text>
<text x="90.02" y="12.67">.</text>
<text x="358.66" y="157.47">.</text>
<text x="250.81" y="105.51">+</text>
<text x="406.66" y="285.22">*</text>
<text x="318.71" y="488.66">.</text>
<text x="453.66" y="314.89">+</text>
<text x="78.80" y="222.64">*</text>
<text x="463.47" y="157.41">*</text>
<text x="424.14" y="197.10">.</text>
<text x="209.04" y="371.94">*</text>
<text x="154.16" y="195.94">.</text>
<text x="5.29" y="347.60">.</text>
<text x="26.62" y="102.23">+</text>
<text x="339.38" y="112.63">+</text>
<text x="232.24" y="107.67">.</text>
<text x="53.84" y="126.40">+</text>
<text x="394.21" y="400.73">+</text>
<text x="368.42" y="227.87">+</text>
<text x="252.20" y="54.78">.</text>
<text x="277.09" y="282.27">.</text>
<text x="114.46" y="487.36">+</text>
<text x="436.80" y="236.03">.</text>
<text x="357.74" y="60.75">.</text>
<text x="100.44" y="395.76">+</text>
<text x="139.69" y="191.35">+</text>
<text x="160.40" y="174.57">*</text>
<text x="226.24" y="293.45">+</text>
<text x="391.53" y="473.19">+</text>
<text x="338.37" y="160.32">+</text>
<text x="430.74" y="152.89">.</text>
<text x="397.27" y="25.67">.</text>
<text x="389.57" y="377.95">+</text>
<text x="403.68" y="153.96">.</text>
<text x="234.39" y="114.45">+</text>
<text x="181.92" y="422.37">+</text>
<text x="227.42" y="189.20">.</text>
<text x="291.04" y="488.53">+</text>
<text x="98.11" y="75.77">+</text>
<text x="316.81" y="327.39">.</text>
<text x="381.89" y="166.87">.</text>
<text x="6.49" y="128.10">+</text>
<text x="402.07" y="132.12">*</text>
<text x="57.53" y="355.20">+</text>
<text x="464.88" y="441.56">+</text>
<text x="20.44" y="92.96">+</text>
<text x="423.25" y="245.32">+</text>
<text x="465.61" y="215.46">+</text>
<text x="61.64" y="249.13">+</text>
<text x="402.45" y="224.83">.</text>
<text x="171.18" y="281.90">+</text>
<text x="38.46" y="26.91">+</text>
<text x="246.07" y="255.83">.</text>
<text x="287.38" y="307.32">.</text>
<text x="386.91" y="179.78">*</text>
<text x="188.11" y="144.82">.</text>
<text x="162.84" y="245.22">.</text>
<text x="306.00" y="106.51">+</text>
<text x="17.97" y="217.51">+</text>
<text x="98.48" y="145.78">.</text>
<text x="299.50" y="397.94">+</text>
<text x="190.05" y="87.48">*</text>
<text x="435.18" y="144.55">*</text>
<text x="193.44" y="343.08">.</text>
<text x="386.23" y="330.32">+</text>
<text x="490.00" y="100.42">.</text>
<text x="46.48" y="81.10">.</text>
<text x="192.37" y="32.36">+</text>
<text x="366.55" y="220.76">+</text>
<text x="269.10" y="411.11">*</text>
<text x="86.71" y="233.80">+</text>
<text x="9.05" y="59.47">.</text>
<text x="355.22" y="117.45">.</text>
<text x="253.04" y="451.31">+</text>
<text x="107.12" y="192.15">.</text>
<text x="263.29" y="252.44">*</text>
<text x="191.26" y="204.17">+</text>
<text x="328.67" y="312.39">.</text>
<text x="345.45" y="296.55">+</text>
<text x="13.59" y="412.15">.</text>
<text x="251.51" y="403.29">+</text>
<text x="167.96" y="290.02">+</text>
<text x="368.26" y="477.79">.</text>
<text x="475.55" y="424.64">.</text>
<text x="276.81" y="301.59">*</text>
<text x="17.80" y="433.81">.</text>
<text x="96.86" y="257.59">+</text>
<text x="259.37" y="337.02">.</text>
<text x="435.71" y="1.48">+</text>
<text x="94.78" y="341.89">*</text>
<text x="405.87" y="474.92">.</text>
<text x="161.72" y="288.11">+</text>
<text x="293.08" y="447.39">*</text>
<text x="311.34" y="444.44">+</text>
<text x="285.47" y="427.97">+</text>
<text x="67.21" y="159.02">+</text>
<text x="398.85" y="242.11">.</text>
<text x="57.60" y="15.47">+</text>
<text x="490.95" y="175.06">+</text>
<text x="375.58" y="422.95">+</text>
<text x="119.27" y="255.73">.</text>
<text x="389.70" y="200.20">+</text>
<text x="174.31" y="468.17">*</text>
<text x="126.15" y="490.32">.</text>
<text x="490.66" y="57.95">.</text>
<text x="402.50" y="25.63">.</text>
<text x="372.34" y="167.15">.</text>
<text x="51.07" y="153.25">.</text>
<text x="246.29" y="320.90">.</text>
<text x="278.56" y="45.25">+</text>
<text x="115.65" y="115.44">+</text>
<text x="320.09" y="312.83">+</text>
<text x="101.75" y="60.61">*</text>
<text x="312.18" y="254.21">+</text>
<text x="96.81" y="239.80">+</text>
<text x="439.01" y="44.60">.</text>
<text x="206.91" y="332.39">*</text>
<text x="134.78" y="361.18">+</text>
<text x="65.15" y="218.91">+</text>
<text x="197.22" y="212.07">+</text>
<text x="16.12" y="355.42">+</text>
<text x="411.17" y="329.87">*</text>
<text x="153.66" y="244.99">+</text>
<text x="460.45" y="483.80">.</text>
<text x="209.33" y="296.17">+</text>
<text x="3.85" y="276.82">.</text>
<text x="419.12" y="103.49">+</text>
<text x="311.36" y="383.97">+</text>
<text x="498.57" y="367.76">+</text>
<text x="370.43" y="188.75">.</text>
<text x="382.66" y="479.95">.</text>
<text x="480.05" y="448.44">.</text>
<text x="185.37" y="10.32">.</text>
<text x="220.46" y="426.52">+</text>
<text x="391.46" y="329.26">*</text>
<text x="344.71" y="109.29">.</text>
<text x="148.39" y="8.35">.</text>
<text x="363.30" y="214.10">.</text>
<text x="237.57" y="227.11">.</text>
<text x="113.38" y="37.45">*</text>
<text x="342.47" y="189.24">.</text>
<text x="415.62" y="485.32">.</text>
<text x="339.84" y="27.48">+</text>
<text x="192.23" y="362.96">.</text>
<text x="404.29" y="481.14">.</text>
<text x="333.61" y="49.75">+</text>
<text x="401.61" y="434.93">*</text>
<text x="152.56" y="333.88">+</text>
<text x="336.76" y="283.62">.</text>
<text x="213.74" y="247.75">*</text>
<text x="3.33" y="138.81">.</text>
<text x="200.71" y="88.13">.</text>
<text x="387.45" y="339.06">+</text>
<text x="253.24" y="58.48">.</text>
<text x="249.56" y="438.90">.</text>
<text x="177.69" y="438.79">*</text>
<text x="422.10" y="49.52">+</text>
<text x="112.29" y="87.12">.</text>
<text x="143.90" y="77.99">.</text>
<text x="270.72" y="497.41">.</text>
<text x="124.45" y="225.07">+</text>
<text x="456.66" y="408.70">.</text>
<text x="458.65" y="424.65">.</text>
<text x="209.50" y="243.52">.</text>
<text x="260.92" y="114.85">*</text>
<text x="407.92" y="244.39">*</text>
<text x="64.82" y="233.63">+</text>
<text x="38.57" y="324.33">+</text>
<text x="101.56" y="150.92">.</text>
<text x="359.07" y="367.26">+</text>
<text x="474.33" y="113.63">+</text>
<text x="221.07" y="183.52">*</text>
<text x="482.84" y="166.67">+</text>
<text x="370.58" y="77.02">.</text>
<text x="312.04" y="41.75">.</text>
<text x="306.36" y="183.86">+</text>
<text x="349.35" y="216.20">+</text>
<text x="126.95" y="424.38">.</text>
<text x="28.35" y="9.71">+</text>
<text x="390.20" y="471.98">.</text>
<text x="410.09" y="154.78">.</text>
<text x="58.00" y="483.68">.</text>
<text x="355.62" y="97.32">*</text>
<text x="480.05" y="488.58">.</text>
<text x="213.56" y="237.71">.</text>
<text x="30.63" y="449.80">+</text>
<text x="84.74" y="249.16">.</text>
<text x="305.24" y="335.45">+</text>

</svg>