
<svg viewBox="0 0 500 500" xmlns="http://www.w.org/2000/svg" width="100%" height="100%" style="background-color: #0a0a14; font-family: 'Courier New', Courier, monospace;">
    <style>
        text { fill: #aaa; font-size: 10px; text-anchor: middle; dominant-baseline: middle; }
    </style>
    <text x="284.34" y="311.38">+</text>
<text x="8.45" y="206.31">+</text>
<text x="286.18" y="242.36">+</text>
<text x="283.40" y="24.12">+</text>
<text x="80.16" y="29.35">+</text>
<text x="142.98" y="237.63">*</text>
<text x="400.73" y="417.24">+</text>
<text x="166.23" y="150.62">.</text>
<text x="216.98" y="212.91">.</text>
<text x="315.63" y="366.38">+</text>
<text x="193.79" y="173.57">.</text>
<text x="322.21" y="448.82">.</text>
<text x="50.48" y="473.09">.</text>
<text x="277.39" y="271.41">+</text>
<text x="362.06" y="112.70">+</text>
<text x="68.20" y="266.93">.</text>
<text x="471.16" y="115.77">*</text>
<text x="408.87" y="121.91">+</text>
<text x="27.80" y="391.05">.</text>
<text x="54.18" y="434.90">+</text>
<text x="106.26" y="386.64">.</text>
<text x="88.51" y="290.55">+</text>
<text x="75.09" y="163.42">*</text>
<text x="493.10" y="462.80">*</text>
<text x="454.34" y="476.28">+</text>
<text x="355.08" y="37.21">+</text>
<text x="278.13" y="478.55">.</text>
<text x="22.75" y="220.55">.</text>
<text x="129.87" y="80.70">*</text>
<text x="338.87" y="238.60">+</text>
<text x="442.69" y="121.14">.</text>
<text x="426.33" y="359.23">+</text>
<text x="125.03" y="305.75">*</text>
<text x="153.13" y="130.33">.</text>
<text x="228.07" y="490.34">.</text>
<text x="328.87" y="302.33">+</text>
<text x="446.36" y="364.86">.</text>
<text x="207.02" y="278.39">+</text>
<text x="212.65" y="104.29">.</text>
<text x="344.95" y="311.97">.</text>
<text x="469.46" y="170.27">.</text>
<text x="261.04" y="19.78">.</text>
<text x="249.53" y="64.77">.</text>
<text x="372.38" y="432.56">+</text>
<text x="39.68" y="88.78">*</text>
<text x="456.42" y="154.90">.</text>
<text x="490.55" y="184.97">+</text>
<text x="260.68" y="223.86">*</text>
<text x="64.91" y="415.96">.</text>
<text x="402.40" y="167.27">.</text>
<text x="359.75" y="334.91">+</text>
<text x="334.30" y="295.98">*</text>
<text x="16.21" y="130.59">.</text>
<text x="453.05" y="462.42">+</text>
<text x="67.55" y="364.34">+</text>
<text x="52.92" y="269.77">.</text>
<text x="16.78" y="418.05">+</text>
<text x="472.30" y="115.57">.</text>
<text x="43.86" y="85.46">+</text>
<text x="114.75" y="373.63">.</text>
<text x="73.09" y="293.72">*</text>
<text x="476.31" y="158.64">.</text>
<text x="458.07" y="310.62">+</text>
<text x="6.02" y="108.04">*</text>
<text x="21.00" y="261.70">+</text>
<text x="441.75" y="35.12">*</text>
<text x="24.91" y="218.20">*</text>
<text x="189.35" y="479.91">*</text>
<text x="269.67" y="189.09">.</text>
<text x="450.51" y="436.21">*</text>
<text x="419.03" y="460.60">*</text>
<text x="132.41" y="383.33">*</text>
<text x="172.20" y="457.89">.</text>
<text x="155.60" y="48.32">+</text>
<text x="136.37" y="184.47">.</text>
<text x="499.73" y="269.86">+</text>
<text x="328.31" y="294.86">.</text>
<text x="155.95" y="457.05">.</text>
<text x="311.40" y="118.02">.</text>
<text x="323.71" y="207.80">+</text>
<text x="279.80" y="341.54">+</text>
<text x="289.56" y="221.22">+</text>
<text x="62.40" y="417.79">+</text>
<text x="362.84" y="451.18">*</text>
<text x="4.84" y="1.29">.</text>
<text x="156.09" y="95.72">.</text>
<text x="273.66" y="7.75">.</text>
<text x="110.94" y="109.40">.</text>
<text x="351.90" y="228.00">*</text>
<text x="60.57" y="491.91">+</text>
<text x="94.78" y="409.77">.</text>
<text x="322.62" y="148.84">+</text>
<text x="316.00" y="155.43">.</text>
<text x="452.05" y="73.15">.</text>
<text x="487.79" y="416.42">.</text>
<text x="398.41" y="260.57">.</text>
<text x="13.34" y="460.12">*</text>
<text x="330.57" y="123.05">+</text>
<text x="406.58" y="85.87">+</text>
<text x="196.57" y="120.30">*</text>
<text x="356.57" y="473.72">*</text>
<text x="71.58" y="107.10">+</text>
<text x="136.18" y="393.21">.</text>
<text x="410.56" y="237.10">*</text>
<text x="252.71" y="26.37">+</text>
<text x="389.07" y="365.21">.</text>
<text x="411.16" y="318.53">.</text>
<text x="326.36" y="252.45">+</text>
<text x="161.66" y="448.52">*</text>
<text x="196.27" y="290.59">.</text>
<text x="35.44" y="132.22">+</text>
<text x="147.85" y="363.15">+</text>
<text x="397.21" y="479.57">+</text>
<text x="88.85" y="1.79">.</text>
<text x="115.00" y="259.97">.</text>
<text x="179.74" y="155.75">+</text>
<text x="38.56" y="220.30">+</text>
<text x="339.49" y="263.12">.</text>
<text x="260.46" y="314.75">+</text>
<text x="65.79" y="415.78">+</text>
<text x="31.98" y="403.55">.</text>
<text x="188.19" y="281.26">+</text>
<text x="267.56" y="207.36">+</text>
<text x="326.30" y="195.75">+</text>
<text x="231.96" y="394.19">.</text>
<text x="306.24" y="487.26">+</text>
<text x="464.56" y="354.16">.</text>
<text x="460.79" y="316.92">.</text>
<text x="109.57" y="392.44">+</text>
<text x="42.34" y="79.49">*</text>
<text x="185.90" y="127.86">*</text>
<text x="303.13" y="279.06">.</text>
<text x="223.00" y="25.58">.</text>
<text x="230.68" y="26.68">.</text>
<text x="42.90" y="407.12">+</text>
<text x="449.78" y="385.79">*</text>
<text x="382.50" y="39.06">.</text>
<text x="119.86" y="447.28">+</text>
<text x="470.86" y="270.48">.</text>
<text x="461.23" y="141.10">+</text>
<text x="76.41" y="262.32">.</text>
<text x="390.36" y="25.65">+</text>
<text x="30.15" y="44.80">+</text>
<text x="437.55" y="169.53">*</text>
<text x="443.39" y="434.18">.</text>
<text x="46.78" y="65.02">.</text>
<text x="183.35" y="339.92">*</text>
<text x="398.90" y="32.58">.</text>
<text x="321.69" y="240.20">+</text>
<text x="14.61" y="221.07">.</text>
<text x="242.29" y="499.61">.</text>
<text x="377.32" y="452.47">.</text>
<text x="329.31" y="368.46">.</text>
<text x="176.74" y="318.84">+</text>
<text x="209.51" y="371.31">.</text>
<text x="257.81" y="321.07">+</text>
<text x="328.77" y="13.09">*</text>
<text x="366.73" y="265.53">*</text>
<text x="189.06" y="163.78">.</text>
<text x="273.97" y="265.19">+</text>
<text x="251.96" y="305.33">*</text>
<text x="390.84" y="42.04">.</text>
<text x="216.53" y="287.59">+</text>
<text x="180.14" y="499.32">+</text>
<text x="356.95" y="48.07">+</text>
<text x="100.02" y="310.61">.</text>
<text x="498.30" y="384.80">*</text>
<text x="264.15" y="131.57">.</text>
<text x="180.51" y="169.95">.</text>
<text x="391.63" y="197.13">.</text>
<text x="391.30" y="302.86">+</text>
<text x="267.15" y="64.72">.</text>
<text x="53.87" y="190.70">.</text>
<text x="404.06" y="244.21">+</text>
<text x="82.27" y="472.13">.</text>
<text x="270.66" y="492.98">*</text>
<text x="224.11" y="190.28">.</text>
<text x="160.14" y="376.60">+</text>
<text x="143.04" y="489.50">+</text>
<text x="163.16" y="89.17">+</text>
<text x="44.46" y="184.74">+</text>
<text x="376.84" y="435.05">.</text>
<text x="269.64" y="213.81">+</text>
<text x="323.58" y="5.96">+</text>
<text x="268.46" y="460.60">.</text>
<text x="84.38" y="163.22">*</text>
<text x="465.26" y="170.34">.</text>
<text x="33.76" y="431.21">+</text>
<text x="234.34" y="261.67">.</text>
<text x="212.45" y="300.44">.</text>
<text x="326.65" y="342.88">.</text>
<text x="84.58" y="449.71">.</text>
<text x="429.25" y="123.37">*</text>
<text x="460.57" y="473.99">+</text>
<text x="265.58" y="408.37">+</text>
<text x="38.01" y="124.34">+</text>
<text x="167.11" y="192.98">+</text>
<text x="279.89" y="170.49">*</text>

</svg>