
<svg viewBox="0 0 500 500" xmlns="http://www.w.org/2000/svg" width="100%" height="100%" style="background-color: #0a0a14; font-family: 'Courier New', Courier, monospace;">
    <style>
        text { fill: #aaa; font-size: 10px; text-anchor: middle; dominant-baseline: middle; }
    </style>
    <text x="406.98" y="121.42">+</text>
<text x="232.28" y="148.92">*</text>
<text x="205.67" y="69.78">+</text>
<text x="315.02" y="88.45">*</text>
<text x="184.47" y="158.05">.</text>
<text x="63.16" y="342.26">+</text>
<text x="356.47" y="222.62">+</text>
<text x="179.42" y="498.40">.</text>
<text x="172.98" y="306.52">+</text>
<text x="436.07" y="249.95">+</text>
<text x="161.38" y="443.65">+</text>
<text x="300.48" y="415.16">.</text>
<text x="283.41" y="97.59">.</text>
<text x="471.45" y="467.78">+</text>
<text x="19.68" y="178.78">+</text>
<text x="31.32" y="89.47">+</text>
<text x="488.78" y="25.82">.</text>
<text x="368.12" y="261.14">+</text>
<text x="421.89" y="223.97">*</text>
<text x="12.94" y="429.17">+</text>
<text x="109.41" y="492.76">.</text>
<text x="415.23" y="168.14">.</text>
<text x="344.28" y="76.40">.</text>
<text x="351.56" y="6.93">*</text>
<text x="153.65" y="229.95">.</text>
<text x="119.56" y="149.73">.</text>
<text x="252.81" y="436.30">+</text>
<text x="214.80" y="70.80">.</text>
<text x="151.39" y="204.87">+</text>
<text x="434.67" y="440.76">+</text>
<text x="380.42" y="463.43">*</text>
<text x="393.97" y="456.76">*</text>
<text x="158.86" y="246.35">+</text>
<text x="214.11" y="477.28">*</text>
<text x="303.63" y="213.93">+</text>
<text x="281.44" y="391.37">+</text>
<text x="462.49" y="91.87">.</text>
<text x="100.43" y="106.54">.</text>
<text x="229.21" y="189.33">.</text>
<text x="344.36" y="367.36">+</text>
<text x="343.41" y="211.04">.</text>
<text x="112.13" y="165.73">+</text>
<text x="187.42" y="194.53">+</text>
<text x="390.12" y="346.04">+</text>
<text x="118.14" y="74.61">+</text>
<text x="0.22" y="438.78">+</text>
<text x="334.03" y="364.81">+</text>
<text x="25.65" y="438.01">+</text>
<text x="499.44" y="465.89">+</text>
<text x="266.56" y="371.42">+</text>
<text x="325.29" y="100.64">.</text>
<text x="212.60" y="158.66">+</text>
<text x="383.06" y="30.04">+</text>
<text x="465.51" y="398.46">+</text>
<text x="335.58" y="32.72">.</text>
<text x="19.58" y="455.59">.</text>
<text x="115.73" y="319.74">+</text>
<text x="291.57" y="427.20">+</text>
<text x="338.24" y="169.37">.</text>
<text x="438.52" y="457.55">.</text>
<text x="19.76" y="215.28">*</text>
<text x="191.97" y="470.78">.</text>
<text x="347.77" y="360.64">.</text>
<text x="391.81" y="403.75">.</text>
<text x="2.81" y="48.17">*</text>
<text x="440.43" y="395.15">+</text>
<text x="473.48" y="240.59">.</text>
<text x="351.85" y="262.48">*</text>
<text x="371.98" y="415.75">.</text>
<text x="436.79" y="193.86">+</text>
<text x="459.16" y="142.78">+</text>
<text x="130.89" y="422.43">+</text>
<text x="485.40" y="35.95">+</text>
<text x="411.91" y="92.40">.</text>
<text x="412.11" y="454.14">+</text>
<text x="32.83" y="13.29">.</text>
<text x="102.76" y="382.35">+</text>
<text x="235.25" y="243.38">.</text>
<text x="288.02" y="438.40">+</text>
<text x="431.69" y="47.85">*</text>
<text x="474.76" y="471.08">.</text>
<text x="19.12" y="301.43">*</text>
<text x="266.23" y="279.43">+</text>
<text x="119.25" y="283.26">.</text>
<text x="498.85" y="127.75">+</text>
<text x="312.76" y="214.04">.</text>
<text x="26.32" y="110.07">*</text>
<text x="364.81" y="391.04">+</text>
<text x="493.54" y="338.06">.</text>
<text x="100.25" y="233.24">.</text>
<text x="176.78" y="77.03">.</text>
<text x="16.28" y="468.24">*</text>
<text x="225.95" y="386.83">+</text>
<text x="231.03" y="464.35">+</text>
<text x="469.35" y="106.16">+</text>
<text x="42.91" y="8.30">+</text>
<text x="328.12" y="52.14">.</text>
<text x="186.68" y="9.39">+</text>
<text x="273.68" y="246.19">.</text>
<text x="265.33" y="406.49">*</text>
<text x="233.73" y="4.97">*</text>
<text x="490.83" y="31.20">.</text>
<text x="232.21" y="143.34">+</text>
<text x="261.85" y="306.54">+</text>
<text x="279.16" y="49.74">+</text>
<text x="65.77" y="275.70">.</text>
<text x="476.99" y="123.63">+</text>
<text x="45.35" y="370.21">.</text>
<text x="260.59" y="38.79">.</text>
<text x="171.36" y="405.92">+</text>
<text x="106.61" y="133.10">+</text>
<text x="284.79" y="299.01">*</text>
<text x="315.01" y="404.38">+</text>
<text x="277.83" y="300.79">.</text>
<text x="434.39" y="445.68">+</text>
<text x="288.51" y="101.97">+</text>
<text x="115.73" y="385.71">+</text>
<text x="187.73" y="458.52">+</text>
<text x="104.77" y="192.81">.</text>
<text x="213.43" y="444.99">.</text>
<text x="328.75" y="379.39">*</text>
<text x="59.90" y="307.25">.</text>
<text x="466.89" y="399.40">.</text>
<text x="325.03" y="82.53">+</text>
<text x="99.87" y="479.13">.</text>
<text x="359.46" y="356.18">.</text>
<text x="81.72" y="101.55">.</text>
<text x="7.23" y="20.22">.</text>
<text x="315.95" y="486.19">+</text>
<text x="256.45" y="474.18">.</text>
<text x="103.26" y="413.08">.</text>
<text x="336.71" y="264.03">.</text>
<text x="275.45" y="228.47">*</text>
<text x="35.04" y="317.08">.</text>
<text x="244.76" y="431.20">+</text>
<text x="149.38" y="444.62">.</text>
<text x="256.74" y="362.30">.</text>
<text x="482.89" y="351.91">.</text>
<text x="421.72" y="394.60">.</text>
<text x="210.57" y="136.03">+</text>
<text x="419.39" y="312.96">.</text>
<text x="189.12" y="145.46">+</text>
<text x="485.60" y="3.76">+</text>
<text x="183.09" y="333.41">+</text>
<text x="480.57" y="310.11">.</text>
<text x="447.18" y="331.17">.</text>
<text x="438.08" y="140.85">+</text>
<text x="329.51" y="331.91">.</text>
<text x="60.86" y="318.52">.</text>
<text x="223.47" y="397.40">.</text>
<text x="33.69" y="247.50">+</text>
<text x="315.97" y="156.25">*</text>
<text x="292.68" y="326.10">+</text>
<text x="26.13" y="398.90">*</text>
<text x="181.71" y="34.49">+</text>
<text x="131.16" y="373.08">+</text>
<text x="463.15" y="262.15">+</text>
<text x="280.95" y="377.95">*</text>
<text x="89.76" y="451.40">.</text>
<text x="303.39" y="227.97">.</text>
<text x="22.71" y="10.42">.</text>
<text x="320.51" y="218.03">+</text>
<text x="88.77" y="381.67">+</text>
<text x="299.84" y="9.20">*</text>
<text x="436.91" y="394.85">*</text>
<text x="379.77" y="65.04">.</text>
<text x="472.63" y="144.28">.</text>
<text x="404.02" y="285.23">.</text>
<text x="126.88" y="158.51">.</text>
<text x="461.37" y="212.42">*</text>
<text x="320.05" y="215.70">*</text>
<text x="268.59" y="359.78">*</text>
<text x="127.40" y="18.44">+</text>
<text x="211.38" y="282.29">*</text>
<text x="19.12" y="69.67">*</text>
<text x="465.14" y="295.84">.</text>
<text x="321.94" y="261.51">.</text>
<text x="99.01" y="266.98">.</text>
<text x="351.54" y="156.76">*</text>
<text x="142.68" y="146.96">+</text>
<text x="236.95" y="179.72">+</text>
<text x="126.53" y="397.40">*</text>
<text x="413.44" y="473.18">.</text>
<text x="48.80" y="276.88">+</text>
<text x="159.34" y="246.97">+</text>
<text x="483.98" y="23.63">.</text>
<text x="40.59" y="431.69">.</text>
<text x="5.91" y="20.25">+</text>
<text x="137.24" y="150.12">.</text>
<text x="337.26" y="399.39">.</text>
<text x="160.65" y="14.52">.</text>
<text x="14.75" y="320.20">.</text>
<text x="0.85" y="413.92">.</text>
<text x="343.36" y="262.49">+</text>
<text x="220.90" y="466.59">.</text>
<text x="386.95" y="150.49">+</text>
<text x="35.93" y="344.08">.</text>
<text x="295.64" y="259.22">.</text>
<text x="227.44" y="334.50">+</text>
<text x="475.40" y="55.57">.</text>
<text x="384.05" y="347.17">*</text>
<text x="316.43" y="347.56">+</text>
<text x="271.96" y="54.48">.</text>
<text x="290.24" y="297.81">*</text>
<text x="117.49" y="151.96">+</text>
<text x="367.45" y="1.38">.</text>
<text x="434.96" y="410.82">+</text>
<text x="346.93" y="449.96">.</text>
<text x="48.73" y="40.04">+</text>
<text x="335.63" y="352.47">.</text>
<text x="142.83" y="7.36">+</text>
<text x="104.97" y="380.90">*</text>
<text x="14.16" y="170.83">.</text>

</svg>