
<svg viewBox="0 0 500 500" xmlns="http://www.w.org/2000/svg" width="100%" height="100%" style="background-color: #0a0a14; font-family: 'Courier New', Courier, monospace;">
    <style>
        text { fill: #aaa; font-size: 10px; text-anchor: middle; dominant-baseline: middle; }
    </style>
    <text x="404.34" y="306.24">+</text>
<text x="384.74" y="220.89">+</text>
<text x="107.15" y="221.65">.</text>
<text x="364.71" y="271.05">+</text>
<text x="133.82" y="459.36">.</text>
<text x="371.28" y="22.36">+</text>
<text x="120.67" y="357.81">+</text>
<text x="213.51" y="23.37">+</text>
<text x="136.57" y="256.51">.</text>
<text x="345.53" y="331.99">.</text>
<text x="448.41" y="499.99">*</text>
<text x="432.82" y="81.70">.</text>
<text x="179.34" y="422.60">+</text>
<text x="225.82" y="224.73">.</text>
<text x="67.42" y="253.26">+</text>
<text x="387.29" y="156.20">+</text>
<text x="128.02" y="427.87">*</text>
<text x="239.93" y="305.35">.</text>
<text x="199.06" y="194.96">+</text>
<text x="265.00" y="479.94">+</text>
<text x="204.44" y="187.93">.</text>
<text x="161.83" y="492.78">.</text>
<text x="302.28" y="152.81">.</text>
<text x="237.92" y="116.89">.</text>
<text x="204.01" y="283.62">.</text>
<text x="47.00" y="402.19">.</text>
<text x="27.38" y="82.27">.</text>
<text x="269.43" y="129.75">+</text>
<text x="332.42" y="145.48">+</text>
<text x="13.23" y="387.65">.</text>
<text x="343.95" y="73.24">+</text>
<text x="406.96" y="297.21">.</text>
<text x="394.28" y="142.48">.</text>
<text x="63.80" y="265.06">.</text>
<text x="365.24" y="396.41">.</text>
<text x="239.70" y="223.85">.</text>
<text x="125.23" y="361.92">+</text>
<text x="50.32" y="151.70">+</text>
<text x="35.04" y="155.40">+</text>
<text x="171.09" y="323.67">+</text>
<text x="95.37" y="268.53">.</text>
<text x="49.34" y="195.53">+</text>
<text x="471.58" y="271.88">.</text>
<text x="141.38" y="444.55">+</text>
<text x="339.60" y="366.21">+</text>
<text x="138.67" y="460.84">*</text>
<text x="307.86" y="221.62">.</text>
<text x="359.39" y="462.96">+</text>
<text x="131.23" y="438.30">+</text>
<text x="136.21" y="347.81">+</text>
<text x="466.48" y="88.41">.</text>
<text x="182.39" y="178.31">*</text>
<text x="300.30" y="284.88">+</text>
<text x="275.60" y="200.38">.</text>
<text x="53.03" y="180.66">+</text>
<text x="82.44" y="157.46">.</text>
<text x="173.09" y="138.33">*</text>
<text x="329.86" y="468.36">.</text>
<text x="95.59" y="250.21">+</text>
<text x="41.81" y="100.42">+</text>
<text x="434.08" y="342.52">.</text>
<text x="221.05" y="199.62">+</text>
<text x="122.62" y="286.23">.</text>
<text x="0.79" y="453.91">.</text>
<text x="325.13" y="275.74">.</text>
<text x="36.66" y="155.83">.</text>
<text x="140.01" y="493.05">.</text>
<text x="12.96" y="12.65">*</text>
<text x="339.33" y="449.50">.</text>
<text x="274.11" y="68.36">+</text>
<text x="117.34" y="236.44">*</text>
<text x="187.81" y="84.33">+</text>
<text x="433.58" y="165.74">*</text>
<text x="441.58" y="162.21">+</text>
<text x="336.35" y="149.92">.</text>
<text x="238.89" y="324.80">+</text>
<text x="341.95" y="111.87">.</text>
<text x="407.64" y="169.29">+</text>
<text x="356.68" y="326.45">*</text>
<text x="253.57" y="149.16">.</text>
<text x="235.17" y="113.10">.</text>
<text x="124.14" y="275.17">*</text>
<text x="214.91" y="421.39">.</text>
<text x="58.48" y="306.94">.</text>
<text x="347.91" y="363.31">+</text>
<text x="65.67" y="112.41">+</text>
<text x="228.76" y="65.20">.</text>
<text x="436.27" y="283.11">.</text>
<text x="183.09" y="290.40">+</text>
<text x="47.14" y="152.63">+</text>
<text x="43.88" y="64.93">+</text>
<text x="8.64" y="253.34">+</text>
<text x="312.22" y="281.38">+</text>
<text x="11.29" y="222.98">*</text>
<text x="326.90" y="370.81">+</text>
<text x="290.20" y="287.40">.</text>
<text x="349.21" y="480.51">.</text>
<text x="17.43" y="67.13">*</text>
<text x="446.76" y="128.05">+</text>
<text x="38.29" y="212.18">*</text>
<text x="240.01" y="8.74">+</text>
<text x="307.67" y="31.18">*</text>
<text x="387.52" y="374.74">+</text>
<text x="381.71" y="162.70">+</text>
<text x="211.74" y="367.31">.</text>
<text x="243.44" y="192.83">+</text>
<text x="72.91" y="217.33">*</text>
<text x="9.99" y="1.04">+</text>
<text x="292.40" y="280.17">.</text>
<text x="44.41" y="286.54">+</text>
<text x="127.65" y="102.98">.</text>
<text x="420.62" y="136.89">.</text>
<text x="286.35" y="434.31">.</text>
<text x="371.09" y="302.09">.</text>
<text x="108.10" y="105.33">+</text>
<text x="341.18" y="402.09">.</text>
<text x="314.45" y="483.16">+</text>
<text x="316.26" y="201.88">+</text>
<text x="85.98" y="242.61">+</text>
<text x="420.57" y="381.27">*</text>
<text x="135.21" y="150.33">+</text>
<text x="349.47" y="196.25">*</text>
<text x="342.75" y="142.73">.</text>
<text x="99.09" y="457.33">+</text>
<text x="224.75" y="103.10">+</text>
<text x="112.87" y="85.11">+</text>
<text x="98.62" y="241.80">+</text>
<text x="132.55" y="185.83">*</text>
<text x="57.48" y="122.56">*</text>
<text x="1.21" y="283.02">*</text>
<text x="34.61" y="463.38">.</text>
<text x="2.86" y="56.17">*</text>
<text x="273.05" y="266.81">.</text>
<text x="499.00" y="80.77">+</text>
<text x="224.00" y="125.41">+</text>
<text x="433.21" y="433.74">*</text>
<text x="41.48" y="187.33">.</text>
<text x="429.23" y="251.13">+</text>
<text x="69.34" y="382.80">.</text>
<text x="423.44" y="191.24">*</text>
<text x="388.66" y="321.72">+</text>
<text x="492.94" y="233.79">+</text>
<text x="233.27" y="444.27">*</text>
<text x="125.07" y="271.91">+</text>
<text x="274.69" y="324.68">.</text>
<text x="319.38" y="333.45">+</text>
<text x="286.99" y="294.92">*</text>
<text x="30.21" y="281.79">+</text>
<text x="2.03" y="293.52">*</text>
<text x="195.86" y="120.66">.</text>
<text x="94.67" y="41.05">+</text>
<text x="447.36" y="459.36">+</text>
<text x="151.93" y="165.25">.</text>
<text x="295.74" y="130.75">.</text>
<text x="159.23" y="396.19">.</text>
<text x="382.18" y="173.79">*</text>
<text x="335.23" y="302.80">+</text>
<text x="310.87" y="306.32">.</text>
<text x="38.25" y="207.05">.</text>
<text x="272.25" y="240.78">+</text>
<text x="164.95" y="156.47">.</text>
<text x="13.37" y="320.44">.</text>
<text x="290.77" y="345.00">.</text>
<text x="356.70" y="137.18">.</text>
<text x="382.24" y="82.51">+</text>
<text x="218.79" y="53.70">*</text>
<text x="457.42" y="278.86">+</text>
<text x="406.50" y="108.57">+</text>
<text x="341.92" y="424.76">.</text>
<text x="129.00" y="93.44">.</text>
<text x="214.32" y="129.82">*</text>
<text x="30.56" y="120.68">*</text>
<text x="202.51" y="284.70">.</text>
<text x="176.83" y="47.00">.</text>
<text x="311.21" y="122.41">*</text>
<text x="414.89" y="130.67">.</text>
<text x="400.85" y="242.47">.</text>
<text x="59.00" y="496.58">+</text>
<text x="9.00" y="35.04">*</text>
<text x="406.56" y="37.50">.</text>
<text x="435.64" y="137.23">.</text>
<text x="378.82" y="431.37">*</text>
<text x="225.18" y="162.90">+</text>
<text x="178.97" y="180.25">*</text>
<text x="93.85" y="359.35">.</text>
<text x="254.79" y="477.70">.</text>
<text x="62.29" y="231.66">*</text>
<text x="144.69" y="5.33">+</text>
<text x="473.61" y="493.67">+</text>
<text x="496.27" y="423.38">+</text>
<text x="144.11" y="50.15">+</text>
<text x="332.23" y="351.63">+</text>
<text x="75.55" y="363.32">.</text>
<text x="251.66" y="275.96">+</text>
<text x="309.80" y="455.99">+</text>
<text x="489.09" y="257.33">*</text>
<text x="317.21" y="408.27">+</text>
<text x="228.01" y="95.51">+</text>
<text x="488.08" y="93.96">+</text>
<text x="297.60" y="359.06">*</text>
<text x="134.11" y="255.32">+</text>
<text x="297.83" y="453.61">+</text>
<text x="211.12" y="386.41">+</text>
<text x="282.75" y="438.81">.</text>
<text x="438.72" y="239.57">+</text>
<text x="243.58" y="117.39">*</text>

</svg>