
<svg viewBox="0 0 500 500" xmlns="http://www.w.org/2000/svg" width="100%" height="100%" style="background-color: #0a0a14; font-family: 'Courier New', Courier, monospace;">
    <style>
        text { fill: #aaa; font-size: 10px; text-anchor: middle; dominant-baseline: middle; }
    </style>
    <text x="52.41" y="146.39">.</text>
<text x="191.00" y="85.00">.</text>
<text x="103.60" y="131.12">.</text>
<text x="328.33" y="139.86">+</text>
<text x="199.74" y="378.72">+</text>
<text x="102.19" y="73.03">+</text>
<text x="451.59" y="164.90">+</text>
<text x="446.22" y="381.77">.</text>
<text x="494.52" y="250.10">.</text>
<text x="408.72" y="87.57">*</text>
<text x="119.70" y="174.21">.</text>
<text x="32.21" y="273.93">+</text>
<text x="284.58" y="144.94">+</text>
<text x="337.00" y="1.72">+</text>
<text x="28.35" y="158.25">+</text>
<text x="461.08" y="437.21">*</text>
<text x="93.17" y="340.47">*</text>
<text x="230.47" y="15.02">.</text>
<text x="75.82" y="248.80">+</text>
<text x="352.69" y="108.53">+</text>
<text x="427.55" y="1.22">.</text>
<text x="444.69" y="271.45">.</text>
<text x="345.20" y="357.69">+</text>
<text x="195.17" y="128.92">+</text>
<text x="453.68" y="160.99">+</text>
<text x="104.09" y="372.12">+</text>
<text x="295.43" y="147.62">*</text>
<text x="119.60" y="388.77">+</text>
<text x="291.32" y="11.91">.</text>
<text x="143.03" y="213.92">.</text>
<text x="113.40" y="67.90">+</text>
<text x="471.54" y="180.97">*</text>
<text x="371.35" y="98.07">.</text>
<text x="371.42" y="75.13">.</text>
<text x="198.73" y="348.22">*</text>
<text x="321.88" y="26.66">.</text>
<text x="65.72" y="88.88">*</text>
<text x="309.43" y="31.35">.</text>
<text x="319.88" y="152.82">.</text>
<text x="188.28" y="322.20">+</text>
<text x="268.41" y="351.71">+</text>
<text x="233.06" y="19.96">.</text>
<text x="317.81" y="273.34">+</text>
<text x="147.75" y="231.42">*</text>
<text x="458.15" y="207.69">.</text>
<text x="32.39" y="239.38">.</text>
<text x="346.50" y="2.90">.</text>
<text x="224.63" y="464.65">.</text>
<text x="29.31" y="108.62">*</text>
<text x="485.39" y="112.63">.</text>
<text x="350.12" y="345.80">+</text>
<text x="41.75" y="125.89">.</text>
<text x="151.37" y="370.37">+</text>
<text x="75.29" y="190.48">.</text>
<text x="238.52" y="386.29">+</text>
<text x="381.49" y="206.76">+</text>
<text x="15.74" y="231.15">+</text>
<text x="364.11" y="210.55">+</text>
<text x="412.21" y="351.41">*</text>
<text x="159.18" y="138.58">*</text>
<text x="146.68" y="380.17">.</text>
<text x="378.75" y="78.04">.</text>
<text x="117.68" y="54.26">.</text>
<text x="237.45" y="278.88">*</text>
<text x="469.85" y="238.25">+</text>
<text x="175.57" y="207.17">+</text>
<text x="101.88" y="39.35">.</text>
<text x="330.44" y="265.53">.</text>
<text x="198.58" y="151.58">+</text>
<text x="381.35" y="382.56">.</text>
<text x="347.60" y="205.73">.</text>
<text x="243.89" y="352.77">+</text>
<text x="213.13" y="462.75">+</text>
<text x="246.80" y="414.17">+</text>
<text x="454.62" y="484.95">+</text>
<text x="100.87" y="23.28">+</text>
<text x="230.44" y="320.26">+</text>
<text x="58.62" y="386.89">.</text>
<text x="485.23" y="49.45">.</text>
<text x="90.16" y="282.05">+</text>
<text x="441.72" y="157.01">+</text>
<text x="413.42" y="217.28">.</text>
<text x="9.90" y="255.09">.</text>
<text x="212.33" y="77.39">.</text>
<text x="324.44" y="249.13">+</text>
<text x="291.45" y="331.11">+</text>
<text x="430.38" y="168.99">.</text>
<text x="315.62" y="400.09">.</text>
<text x="18.91" y="350.99">*</text>
<text x="337.60" y="26.85">+</text>
<text x="433.61" y="108.35">.</text>
<text x="138.01" y="387.64">+</text>
<text x="405.52" y="206.27">*</text>
<text x="495.60" y="244.46">.</text>
<text x="299.98" y="283.59">+</text>
<text x="301.43" y="413.96">+</text>
<text x="37.22" y="403.68">.</text>
<text x="368.87" y="367.00">+</text>
<text x="247.92" y="305.62">+</text>
<text x="404.85" y="289.63">.</text>
<text x="436.42" y="259.73">+</text>
<text x="126.54" y="110.26">*</text>
<text x="426.03" y="406.55">+</text>
<text x="283.69" y="367.63">+</text>
<text x="20.26" y="395.90">+</text>
<text x="251.66" y="130.12">.</text>
<text x="96.26" y="322.59">+</text>
<text x="220.85" y="491.14">+</text>
<text x="227.58" y="387.14">.</text>
<text x="103.56" y="118.27">.</text>
<text x="305.55" y="453.46">*</text>
<text x="467.09" y="260.74">.</text>
<text x="466.80" y="81.96">+</text>
<text x="70.64" y="24.80">.</text>
<text x="255.85" y="403.50">+</text>
<text x="74.56" y="467.88">.</text>
<text x="32.05" y="368.24">+</text>
<text x="68.69" y="377.68">.</text>
<text x="314.06" y="320.52">+</text>
<text x="321.19" y="345.15">.</text>
<text x="281.51" y="240.46">*</text>
<text x="99.41" y="434.18">+</text>
<text x="266.71" y="464.76">*</text>
<text x="364.61" y="377.51">.</text>
<text x="123.83" y="362.34">*</text>
<text x="55.28" y="425.77">.</text>
<text x="391.91" y="218.92">*</text>
<text x="3.42" y="158.59">+</text>
<text x="317.72" y="49.43">.</text>
<text x="248.58" y="234.41">+</text>
<text x="451.19" y="356.38">.</text>
<text x="231.18" y="426.23">.</text>
<text x="426.77" y="477.70">.</text>
<text x="358.31" y="78.90">+</text>
<text x="468.04" y="146.04">.</text>
<text x="20.95" y="276.00">.</text>
<text x="287.33" y="449.53">+</text>
<text x="370.54" y="286.78">.</text>
<text x="409.80" y="263.00">*</text>
<text x="153.03" y="181.48">+</text>
<text x="495.70" y="444.01">*</text>
<text x="311.69" y="319.94">.</text>
<text x="464.57" y="150.87">+</text>
<text x="122.73" y="343.99">+</text>
<text x="375.45" y="415.54">+</text>
<text x="496.09" y="128.48">+</text>
<text x="478.16" y="217.69">.</text>
<text x="422.56" y="480.62">.</text>
<text x="422.60" y="361.45">.</text>
<text x="441.36" y="425.40">*</text>
<text x="400.90" y="303.47">*</text>
<text x="203.24" y="440.03">.</text>
<text x="312.60" y="331.18">.</text>
<text x="38.78" y="85.75">+</text>
<text x="126.09" y="464.95">+</text>
<text x="490.40" y="451.94">+</text>
<text x="126.87" y="99.37">*</text>
<text x="159.73" y="304.91">+</text>
<text x="172.80" y="165.63">+</text>
<text x="232.26" y="182.10">.</text>
<text x="468.33" y="36.25">+</text>
<text x="363.69" y="369.49">.</text>
<text x="39.09" y="389.15">.</text>
<text x="136.04" y="312.78">+</text>
<text x="195.54" y="489.70">*</text>
<text x="483.20" y="50.13">.</text>
<text x="352.73" y="190.33">.</text>
<text x="258.27" y="101.87">.</text>
<text x="365.14" y="356.66">.</text>
<text x="496.03" y="361.23">.</text>
<text x="119.21" y="326.10">.</text>
<text x="300.32" y="62.13">.</text>
<text x="27.01" y="341.10">.</text>
<text x="278.66" y="188.03">.</text>
<text x="378.84" y="429.53">.</text>
<text x="436.52" y="322.77">.</text>
<text x="377.41" y="380.66">*</text>
<text x="139.87" y="497.36">+</text>
<text x="261.69" y="279.46">+</text>
<text x="65.12" y="330.70">.</text>
<text x="263.07" y="322.46">+</text>
<text x="431.28" y="153.20">+</text>
<text x="225.53" y="290.88">.</text>
<text x="93.48" y="405.50">.</text>
<text x="239.91" y="469.11">*</text>
<text x="487.69" y="223.34">+</text>
<text x="307.51" y="374.28">*</text>
<text x="153.85" y="72.47">.</text>
<text x="105.45" y="209.30">+</text>
<text x="136.04" y="9.75">+</text>
<text x="267.93" y="25.03">+</text>
<text x="133.62" y="405.05">+</text>
<text x="467.68" y="368.08">+</text>
<text x="304.84" y="131.83">.</text>
<text x="381.37" y="232.19">.</text>
<text x="498.98" y="74.67">.</text>
<text x="300.48" y="46.35">.</text>
<text x="313.98" y="398.75">+</text>
<text x="218.13" y="479.76">+</text>
<text x="367.81" y="321.56">.</text>
<text x="227.67" y="309.74">*</text>
<text x="241.09" y="17.92">.</text>
<text x="474.99" y="463.42">+</text>
<text x="165.04" y="194.61">+</text>
<text x="107.83" y="371.79">+</text>
<text x="434.30" y="220.42">+</text>
<text x="45.38" y="66.88">.</text>
<text x="51.86" y="302.21">.</text>
<text x="251.94" y="378.29">+</text>
<text x="30.29" y="363.08">.</text>
<text x="237.23" y="236.02">+</text>
<text x="116.66" y="203.22">.</text>
<text x="149.97" y="35.42">.</text>
<text x="65.67" y="358.74">+</text>
<text x="408.49" y="280.97">.</text>
<text x="365.63" y="68.52">*</text>
<text x="99.93" y="232.18">.</text>

</svg>