
<svg viewBox="0 0 500 500" xmlns="http://www.w.org/2000/svg" width="100%" height="100%" style="background-color: #0a0a14; font-family: 'Courier New', Courier, monospace;">
    <style>
        text { fill: #aaa; font-size: 10px; text-anchor: middle; dominant-baseline: middle; }
    </style>
    <text x="32.96" y="242.63">+</text>
<text x="186.65" y="142.76">+</text>
<text x="332.40" y="480.56">+</text>
<text x="200.28" y="449.92">.</text>
<text x="66.80" y="246.23">+</text>
<text x="221.36" y="171.08">+</text>
<text x="236.14" y="171.65">.</text>
<text x="8.48" y="485.02">+</text>
<text x="308.61" y="257.30">.</text>
<text x="102.22" y="10.75">+</text>
<text x="481.89" y="256.82">+</text>
<text x="303.62" y="0.16">+</text>
<text x="118.44" y="411.03">.</text>
<text x="48.70" y="234.25">.</text>
<text x="223.09" y="251.39">.</text>
<text x="104.40" y="67.85">+</text>
<text x="351.70" y="355.13">+</text>
<text x="274.45" y="213.08">.</text>
<text x="4.74" y="230.02">.</text>
<text x="337.90" y="446.44">.</text>
<text x="59.30" y="458.27">*</text>
<text x="144.70" y="453.70">.</text>
<text x="5.42" y="35.40">+</text>
<text x="385.15" y="174.52">*</text>
<text x="288.24" y="65.64">.</text>
<text x="329.54" y="235.79">*</text>
<text x="253.62" y="459.39">+</text>
<text x="272.80" y="339.81">.</text>
<text x="83.02" y="273.46">.</text>
<text x="148.82" y="414.27">+</text>
<text x="354.38" y="170.62">+</text>
<text x="330.19" y="74.93">.</text>
<text x="388.68" y="385.78">+</text>
<text x="196.97" y="65.78">+</text>
<text x="301.45" y="383.42">.</text>
<text x="24.84" y="29.02">+</text>
<text x="80.12" y="321.65">.</text>
<text x="430.17" y="106.89">.</text>
<text x="216.82" y="170.87">+</text>
<text x="263.40" y="156.05">+</text>
<text x="158.12" y="53.86">+</text>
<text x="380.20" y="91.41">.</text>
<text x="34.87" y="108.46">.</text>
<text x="29.08" y="34.49">*</text>
<text x="92.13" y="394.55">.</text>
<text x="140.51" y="370.91">+</text>
<text x="86.66" y="321.12">.</text>
<text x="380.30" y="262.07">.</text>
<text x="189.65" y="305.22">.</text>
<text x="234.35" y="223.82">.</text>
<text x="374.30" y="132.85">+</text>
<text x="273.38" y="262.97">.</text>
<text x="457.61" y="0.03">+</text>
<text x="186.74" y="58.68">*</text>
<text x="295.40" y="463.01">.</text>
<text x="360.51" y="478.37">+</text>
<text x="52.05" y="224.97">.</text>
<text x="254.19" y="465.88">+</text>
<text x="209.35" y="405.67">+</text>
<text x="15.43" y="67.82">*</text>
<text x="302.38" y="49.66">.</text>
<text x="211.46" y="256.93">+</text>
<text x="23.52" y="452.35">+</text>
<text x="388.93" y="23.57">*</text>
<text x="73.75" y="392.13">.</text>
<text x="120.23" y="474.61">+</text>
<text x="170.13" y="322.78">*</text>
<text x="397.76" y="54.58">+</text>
<text x="266.35" y="446.20">+</text>
<text x="185.72" y="129.64">.</text>
<text x="227.94" y="57.32">.</text>
<text x="219.19" y="227.59">+</text>
<text x="220.87" y="307.75">+</text>
<text x="422.65" y="121.23">.</text>
<text x="65.80" y="129.44">+</text>
<text x="72.58" y="457.70">.</text>
<text x="400.89" y="381.49">+</text>
<text x="139.86" y="249.68">+</text>
<text x="253.17" y="297.48">.</text>
<text x="367.17" y="217.24">*</text>
<text x="404.42" y="25.55">+</text>
<text x="410.59" y="199.23">.</text>
<text x="37.96" y="52.17">.</text>
<text x="254.48" y="448.95">.</text>
<text x="455.69" y="349.40">.</text>
<text x="122.68" y="325.85">.</text>
<text x="9.55" y="342.62">+</text>
<text x="289.98" y="24.31">*</text>
<text x="493.74" y="262.25">+</text>
<text x="344.79" y="296.27">+</text>
<text x="22.06" y="283.12">.</text>
<text x="13.17" y="208.16">*</text>
<text x="147.88" y="197.32">+</text>
<text x="301.03" y="154.90">*</text>
<text x="470.95" y="213.45">.</text>
<text x="46.58" y="227.49">.</text>
<text x="341.55" y="110.63">.</text>
<text x="376.70" y="36.84">+</text>
<text x="417.36" y="12.72">.</text>
<text x="4.68" y="307.42">.</text>
<text x="375.17" y="136.12">+</text>
<text x="298.58" y="64.58">+</text>
<text x="347.00" y="26.53">.</text>
<text x="334.95" y="312.26">.</text>
<text x="259.50" y="94.34">.</text>
<text x="419.28" y="292.73">*</text>
<text x="82.37" y="252.02">+</text>
<text x="114.23" y="418.64">+</text>
<text x="176.51" y="304.68">.</text>
<text x="329.71" y="148.62">+</text>
<text x="379.63" y="171.74">.</text>
<text x="316.26" y="252.37">.</text>
<text x="372.39" y="16.54">.</text>
<text x="497.21" y="191.18">.</text>
<text x="345.70" y="121.20">*</text>
<text x="93.99" y="97.17">.</text>
<text x="157.54" y="476.42">+</text>
<text x="376.49" y="455.77">.</text>
<text x="184.14" y="111.85">.</text>
<text x="146.63" y="89.89">.</text>
<text x="412.59" y="376.01">+</text>
<text x="457.98" y="289.68">+</text>
<text x="220.22" y="469.13">*</text>
<text x="314.50" y="224.41">.</text>
<text x="451.42" y="271.20">+</text>
<text x="326.76" y="216.74">.</text>
<text x="137.55" y="2.04">.</text>
<text x="381.14" y="478.12">+</text>
<text x="86.36" y="313.29">+</text>
<text x="465.83" y="58.95">+</text>
<text x="475.17" y="428.46">+</text>
<text x="64.93" y="54.64">.</text>
<text x="13.15" y="491.32">.</text>
<text x="310.48" y="265.90">+</text>
<text x="420.61" y="196.36">.</text>
<text x="190.33" y="130.73">.</text>
<text x="19.95" y="284.95">.</text>
<text x="415.94" y="421.45">+</text>
<text x="410.98" y="131.98">.</text>
<text x="305.27" y="16.41">*</text>
<text x="115.43" y="285.55">*</text>
<text x="310.76" y="326.63">.</text>
<text x="150.73" y="289.47">.</text>
<text x="367.06" y="404.87">*</text>
<text x="373.91" y="250.41">.</text>
<text x="329.03" y="133.21">.</text>
<text x="145.60" y="398.50">.</text>
<text x="442.10" y="196.49">*</text>
<text x="424.88" y="262.08">+</text>
<text x="113.82" y="147.87">+</text>
<text x="407.64" y="374.71">+</text>
<text x="275.78" y="427.12">+</text>
<text x="232.23" y="248.88">.</text>
<text x="56.08" y="322.44">+</text>
<text x="286.89" y="449.73">.</text>
<text x="378.53" y="159.31">.</text>
<text x="145.33" y="249.14">+</text>
<text x="77.61" y="304.99">+</text>
<text x="307.67" y="241.25">.</text>
<text x="248.70" y="366.49">.</text>
<text x="425.17" y="194.23">.</text>
<text x="462.18" y="260.31">*</text>
<text x="350.11" y="277.64">.</text>
<text x="237.53" y="128.61">*</text>
<text x="56.94" y="31.43">+</text>
<text x="417.27" y="373.14">+</text>
<text x="472.80" y="176.50">+</text>
<text x="446.82" y="253.13">.</text>
<text x="193.43" y="192.68">+</text>
<text x="92.13" y="226.68">.</text>
<text x="367.58" y="257.72">*</text>
<text x="250.71" y="24.73">+</text>
<text x="448.07" y="371.37">.</text>
<text x="281.68" y="116.19">.</text>
<text x="423.16" y="161.63">.</text>
<text x="416.90" y="143.71">+</text>
<text x="116.29" y="435.05">*</text>
<text x="412.94" y="453.32">+</text>
<text x="155.79" y="382.82">+</text>
<text x="328.20" y="167.20">.</text>
<text x="415.16" y="266.14">+</text>
<text x="498.06" y="84.77">+</text>
<text x="244.80" y="185.67">.</text>
<text x="224.76" y="381.46">.</text>
<text x="215.75" y="379.03">.</text>
<text x="193.09" y="347.00">+</text>
<text x="130.33" y="354.00">.</text>
<text x="32.53" y="67.69">+</text>
<text x="486.56" y="249.82">+</text>
<text x="60.55" y="84.52">.</text>
<text x="412.59" y="43.32">.</text>
<text x="230.71" y="385.66">+</text>
<text x="195.03" y="417.64">.</text>
<text x="146.70" y="210.78">.</text>
<text x="86.12" y="480.84">.</text>
<text x="312.33" y="16.68">.</text>
<text x="267.26" y="82.63">+</text>
<text x="496.40" y="46.89">+</text>
<text x="333.41" y="314.91">.</text>
<text x="123.28" y="49.29">.</text>
<text x="234.34" y="147.09">*</text>
<text x="319.52" y="251.16">+</text>
<text x="133.72" y="43.78">+</text>
<text x="216.90" y="144.89">*</text>
<text x="20.78" y="27.98">*</text>
<text x="317.81" y="276.96">+</text>
<text x="463.78" y="322.45">*</text>
<text x="166.25" y="168.16">*</text>
<text x="4.89" y="100.27">.</text>
<text x="45.83" y="152.99">*</text>

</svg>