
<svg viewBox="0 0 500 500" xmlns="http://www.w.org/2000/svg" width="100%" height="100%" style="background-color: #0a0a14; font-family: 'Courier New', Courier, monospace;">
    <style>
        text { fill: #aaa; font-size: 10px; text-anchor: middle; dominant-baseline: middle; }
    </style>
    <text x="2.72" y="29.43">*</text>
<text x="112.47" y="212.81">.</text>
<text x="402.42" y="80.22">.</text>
<text x="175.18" y="379.36">+</text>
<text x="396.40" y="139.13">+</text>
<text x="94.98" y="257.52">+</text>
<text x="308.76" y="121.30">+</text>
<text x="421.14" y="247.30">.</text>
<text x="257.83" y="299.35">.</text>
<text x="498.33" y="118.08">.</text>
<text x="265.19" y="147.56">*</text>
<text x="464.55" y="401.06">+</text>
<text x="450.77" y="225.81">+</text>
<text x="196.43" y="441.17">.</text>
<text x="73.22" y="45.67">*</text>
<text x="194.29" y="154.13">.</text>
<text x="34.30" y="116.25">.</text>
<text x="472.74" y="294.48">.</text>
<text x="495.02" y="122.79">*</text>
<text x="164.73" y="138.27">*</text>
<text x="20.37" y="256.86">.</text>
<text x="51.60" y="318.73">*</text>
<text x="40.74" y="50.17">+</text>
<text x="380.27" y="265.27">+</text>
<text x="451.37" y="26.08">.</text>
<text x="162.37" y="136.13">.</text>
<text x="2.44" y="0.43">*</text>
<text x="485.91" y="228.76">.</text>
<text x="37.59" y="327.15">.</text>
<text x="206.89" y="474.33">.</text>
<text x="122.47" y="227.64">.</text>
<text x="315.77" y="5.10">*</text>
<text x="271.77" y="467.79">+</text>
<text x="276.38" y="66.19">+</text>
<text x="216.30" y="10.26">.</text>
<text x="476.39" y="147.28">.</text>
<text x="360.79" y="363.33">+</text>
<text x="124.91" y="20.95">+</text>
<text x="232.11" y="184.01">+</text>
<text x="105.52" y="263.09">.</text>
<text x="308.50" y="38.97">+</text>
<text x="248.99" y="441.99">.</text>
<text x="351.24" y="342.59">.</text>
<text x="1.32" y="172.38">+</text>
<text x="79.64" y="487.48">+</text>
<text x="293.24" y="32.05">+</text>
<text x="118.03" y="324.04">.</text>
<text x="484.55" y="321.06">*</text>
<text x="116.88" y="289.01">+</text>
<text x="181.82" y="478.58">+</text>
<text x="99.85" y="54.78">+</text>
<text x="136.02" y="131.63">.</text>
<text x="317.78" y="356.98">*</text>
<text x="252.23" y="58.62">.</text>
<text x="20.10" y="490.44">+</text>
<text x="420.89" y="256.81">+</text>
<text x="429.48" y="384.19">+</text>
<text x="140.86" y="166.93">*</text>
<text x="307.24" y="445.75">.</text>
<text x="496.74" y="449.78">+</text>
<text x="16.70" y="318.62">.</text>
<text x="266.22" y="104.37">.</text>
<text x="304.37" y="127.79">+</text>
<text x="139.13" y="49.41">.</text>
<text x="186.89" y="365.29">+</text>
<text x="175.47" y="465.26">+</text>
<text x="381.20" y="224.20">+</text>
<text x="22.38" y="184.98">.</text>
<text x="353.54" y="36.83">.</text>
<text x="206.30" y="361.05">.</text>
<text x="470.71" y="221.45">*</text>
<text x="423.63" y="51.51">+</text>
<text x="314.39" y="316.29">+</text>
<text x="428.36" y="109.96">*</text>
<text x="72.69" y="332.27">+</text>
<text x="322.08" y="366.40">.</text>
<text x="274.36" y="225.45">+</text>
<text x="185.18" y="94.31">*</text>
<text x="144.24" y="301.12">.</text>
<text x="132.27" y="481.45">+</text>
<text x="349.37" y="251.41">.</text>
<text x="393.07" y="142.58">.</text>
<text x="479.49" y="90.47">.</text>
<text x="144.58" y="0.76">.</text>
<text x="486.24" y="382.94">+</text>
<text x="403.78" y="38.99">+</text>
<text x="450.35" y="321.73">*</text>
<text x="205.97" y="334.48">.</text>
<text x="375.91" y="370.44">.</text>
<text x="472.47" y="251.92">.</text>
<text x="443.22" y="46.59">.</text>
<text x="423.65" y="349.74">+</text>
<text x="43.69" y="495.37">*</text>
<text x="262.33" y="124.57">+</text>
<text x="277.99" y="467.46">.</text>
<text x="178.80" y="495.02">+</text>
<text x="475.98" y="132.47">.</text>
<text x="114.91" y="478.32">+</text>
<text x="464.37" y="443.13">.</text>
<text x="224.67" y="151.51">.</text>
<text x="483.64" y="115.17">+</text>
<text x="464.22" y="274.43">.</text>
<text x="173.03" y="292.07">+</text>
<text x="291.01" y="41.59">.</text>
<text x="422.25" y="64.10">.</text>
<text x="39.71" y="6.53">+</text>
<text x="160.96" y="162.65">+</text>
<text x="195.30" y="135.71">.</text>
<text x="19.08" y="198.81">+</text>
<text x="443.10" y="310.21">+</text>
<text x="287.80" y="269.12">.</text>
<text x="156.54" y="252.53">*</text>
<text x="455.85" y="180.01">+</text>
<text x="272.33" y="110.44">.</text>
<text x="405.79" y="488.17">*</text>
<text x="269.20" y="36.05">.</text>
<text x="306.48" y="34.24">.</text>
<text x="404.17" y="128.04">+</text>
<text x="341.59" y="246.18">+</text>
<text x="274.07" y="47.07">.</text>
<text x="59.80" y="391.46">.</text>
<text x="47.48" y="460.23">.</text>
<text x="443.69" y="170.97">.</text>
<text x="455.94" y="143.86">.</text>
<text x="114.98" y="284.61">.</text>
<text x="93.90" y="151.64">+</text>
<text x="465.63" y="374.51">*</text>
<text x="288.95" y="136.37">.</text>
<text x="305.45" y="306.84">+</text>
<text x="400.64" y="401.56">+</text>
<text x="218.93" y="45.45">+</text>
<text x="410.10" y="287.57">.</text>
<text x="21.53" y="194.11">+</text>
<text x="481.81" y="491.46">+</text>
<text x="183.30" y="382.87">.</text>
<text x="119.20" y="413.36">.</text>
<text x="149.93" y="374.48">.</text>
<text x="51.73" y="215.60">+</text>
<text x="105.10" y="281.53">+</text>
<text x="206.19" y="182.72">*</text>
<text x="485.99" y="383.41">+</text>
<text x="413.42" y="259.88">+</text>
<text x="393.78" y="397.66">.</text>
<text x="201.83" y="160.58">*</text>
<text x="310.81" y="451.49">+</text>
<text x="447.96" y="425.51">.</text>
<text x="360.00" y="52.62">+</text>
<text x="85.52" y="301.61">+</text>
<text x="453.62" y="467.78">+</text>
<text x="191.28" y="104.83">+</text>
<text x="285.97" y="237.98">+</text>
<text x="134.95" y="2.12">+</text>
<text x="440.50" y="499.91">+</text>
<text x="81.03" y="168.62">+</text>
<text x="88.20" y="261.33">.</text>
<text x="169.37" y="213.87">+</text>
<text x="224.82" y="325.35">+</text>
<text x="410.75" y="157.97">*</text>
<text x="348.04" y="98.63">*</text>
<text x="185.83" y="357.89">.</text>
<text x="317.88" y="395.51">.</text>
<text x="358.29" y="469.82">.</text>
<text x="132.11" y="291.70">.</text>
<text x="113.72" y="51.92">+</text>
<text x="444.12" y="29.76">.</text>
<text x="233.43" y="24.18">+</text>
<text x="123.66" y="230.04">+</text>
<text x="491.88" y="236.99">+</text>
<text x="7.63" y="64.67">+</text>
<text x="487.94" y="274.25">.</text>
<text x="212.88" y="273.78">.</text>
<text x="200.69" y="31.91">+</text>
<text x="227.07" y="108.04">.</text>
<text x="442.52" y="339.33">.</text>
<text x="308.10" y="283.59">+</text>
<text x="379.94" y="168.90">.</text>
<text x="301.23" y="81.17">+</text>
<text x="123.92" y="106.51">.</text>
<text x="194.50" y="471.19">.</text>
<text x="170.89" y="365.18">*</text>
<text x="66.85" y="375.66">*</text>
<text x="451.03" y="483.50">.</text>
<text x="27.71" y="402.97">+</text>
<text x="220.63" y="8.48">*</text>
<text x="167.18" y="29.24">+</text>
<text x="392.05" y="98.71">*</text>
<text x="223.75" y="488.15">.</text>
<text x="375.26" y="84.44">.</text>
<text x="16.02" y="423.17">*</text>
<text x="290.15" y="443.91">*</text>
<text x="1.09" y="372.24">+</text>
<text x="482.83" y="268.78">+</text>
<text x="340.85" y="422.83">+</text>
<text x="140.64" y="317.50">*</text>
<text x="282.90" y="68.05">+</text>
<text x="426.63" y="281.36">.</text>
<text x="455.21" y="83.59">.</text>
<text x="385.90" y="116.71">*</text>
<text x="479.11" y="100.06">+</text>
<text x="235.48" y="365.59">.</text>
<text x="426.55" y="388.64">.</text>
<text x="161.54" y="149.43">+</text>
<text x="194.60" y="239.68">.</text>
<text x="149.03" y="55.05">.</text>
<text x="214.73" y="445.90">.</text>
<text x="4.26" y="29.90">+</text>
<text x="162.79" y="102.33">*</text>
<text x="45.77" y="298.95">+</text>
<text x="220.34" y="309.46">+</text>
<text x="99.20" y="331.90">*</text>
<text x="453.40" y="429.81">+</text>
<text x="321.83" y="207.01">+</text>
<text x="453.36" y="135.91">+</text>

</svg>