
<svg viewBox="0 0 500 500" xmlns="http://www.w.org/2000/svg" width="100%" height="100%" style="background-color: #0a0a14; font-family: 'Courier New', Courier, monospace;">
    <style>
        text { fill: #aaa; font-size: 10px; text-anchor: middle; dominant-baseline: middle; }
    </style>
    <text x="267.94" y="292.81">*</text>
<text x="392.91" y="253.09">.</text>
<text x="202.66" y="335.26">.</text>
<text x="159.31" y="290.52">.</text>
<text x="119.77" y="7.56">+</text>
<text x="254.68" y="66.36">+</text>
<text x="31.01" y="189.24">+</text>
<text x="316.94" y="180.43">.</text>
<text x="213.05" y="70.73">+</text>
<text x="361.57" y="31.05">+</text>
<text x="12.05" y="167.74">.</text>
<text x="101.27" y="429.26">.</text>
<text x="414.46" y="402.88">+</text>
<text x="308.31" y="93.25">.</text>
<text x="61.91" y="149.92">+</text>
<text x="175.40" y="273.81">.</text>
<text x="124.63" y="101.54">*</text>
<text x="395.90" y="363.78">+</text>
<text x="203.37" y="314.97">+</text>
<text x="56.91" y="23.71">*</text>
<text x="471.04" y="128.45">.</text>
<text x="93.00" y="471.42">.</text>
<text x="383.39" y="214.05">+</text>
<text x="268.02" y="124.42">+</text>
<text x="339.78" y="214.85">.</text>
<text x="32.84" y="99.64">.</text>
<text x="150.88" y="212.51">.</text>
<text x="180.77" y="286.00">+</text>
<text x="173.88" y="234.69">+</text>
<text x="82.46" y="372.38">+</text>
<text x="396.73" y="115.62">+</text>
<text x="147.94" y="170.98">+</text>
<text x="9.40" y="410.28">+</text>
<text x="70.39" y="229.70">.</text>
<text x="488.95" y="42.83">+</text>
<text x="18.95" y="267.94">.</text>
<text x="212.51" y="115.61">*</text>
<text x="259.62" y="144.50">+</text>
<text x="382.86" y="224.27">.</text>
<text x="199.79" y="499.69">.</text>
<text x="131.53" y="221.75">*</text>
<text x="354.67" y="16.21">.</text>
<text x="226.32" y="484.15">.</text>
<text x="33.49" y="274.66">+</text>
<text x="207.62" y="445.35">.</text>
<text x="273.53" y="255.47">+</text>
<text x="228.75" y="51.00">.</text>
<text x="163.72" y="88.44">+</text>
<text x="43.47" y="457.10">+</text>
<text x="174.25" y="244.17">+</text>
<text x="296.03" y="268.03">.</text>
<text x="16.15" y="392.21">+</text>
<text x="402.97" y="121.24">+</text>
<text x="127.85" y="496.84">.</text>
<text x="38.39" y="65.92">+</text>
<text x="76.47" y="201.81">.</text>
<text x="152.87" y="204.95">+</text>
<text x="318.87" y="11.32">*</text>
<text x="252.34" y="303.82">*</text>
<text x="61.75" y="112.75">.</text>
<text x="102.34" y="298.76">*</text>
<text x="131.88" y="478.00">+</text>
<text x="90.17" y="33.32">.</text>
<text x="465.46" y="432.91">+</text>
<text x="464.92" y="170.25">.</text>
<text x="418.40" y="276.48">*</text>
<text x="18.85" y="180.07">.</text>
<text x="306.46" y="253.23">+</text>
<text x="78.67" y="157.81">.</text>
<text x="425.37" y="48.72">.</text>
<text x="68.66" y="181.78">.</text>
<text x="234.65" y="451.52">.</text>
<text x="211.43" y="120.06">.</text>
<text x="219.38" y="493.83">.</text>
<text x="109.87" y="62.26">+</text>
<text x="85.80" y="21.64">+</text>
<text x="145.58" y="394.70">.</text>
<text x="424.51" y="359.05">.</text>
<text x="175.38" y="15.84">*</text>
<text x="337.93" y="93.15">+</text>
<text x="304.00" y="275.26">*</text>
<text x="326.70" y="269.88">.</text>
<text x="490.37" y="481.88">+</text>
<text x="467.83" y="342.09">.</text>
<text x="304.59" y="46.04">.</text>
<text x="13.89" y="96.29">+</text>
<text x="450.03" y="27.25">+</text>
<text x="31.86" y="89.73">+</text>
<text x="105.62" y="443.59">.</text>
<text x="314.21" y="126.77">.</text>
<text x="58.71" y="271.70">+</text>
<text x="432.00" y="116.10">*</text>
<text x="278.52" y="316.19">.</text>
<text x="267.73" y="379.77">+</text>
<text x="409.88" y="64.73">.</text>
<text x="64.27" y="136.65">+</text>
<text x="485.64" y="280.30">*</text>
<text x="99.76" y="297.24">+</text>
<text x="124.89" y="488.63">+</text>
<text x="61.13" y="394.58">.</text>
<text x="28.28" y="138.24">.</text>
<text x="70.87" y="51.52">.</text>
<text x="42.61" y="489.57">.</text>
<text x="47.63" y="78.80">.</text>
<text x="495.54" y="421.53">+</text>
<text x="207.99" y="154.44">.</text>
<text x="346.56" y="385.61">+</text>
<text x="486.32" y="98.38">.</text>
<text x="16.87" y="362.21">+</text>
<text x="342.88" y="404.53">+</text>
<text x="154.30" y="105.43">+</text>
<text x="16.95" y="130.75">.</text>
<text x="397.57" y="58.59">.</text>
<text x="26.18" y="170.66">.</text>
<text x="312.78" y="135.14">+</text>
<text x="175.65" y="426.84">.</text>
<text x="227.06" y="38.87">.</text>
<text x="110.43" y="352.23">+</text>
<text x="394.63" y="118.28">.</text>
<text x="281.17" y="391.72">+</text>
<text x="469.62" y="127.62">.</text>
<text x="363.94" y="24.18">.</text>
<text x="462.32" y="477.48">+</text>
<text x="225.62" y="285.00">.</text>
<text x="238.57" y="111.02">+</text>
<text x="289.08" y="469.07">*</text>
<text x="142.43" y="217.92">+</text>
<text x="361.80" y="430.46">.</text>
<text x="202.19" y="483.79">.</text>
<text x="453.92" y="164.29">*</text>
<text x="408.73" y="317.29">.</text>
<text x="305.67" y="337.22">+</text>
<text x="34.27" y="22.04">.</text>
<text x="286.51" y="263.21">+</text>
<text x="440.84" y="120.18">+</text>
<text x="411.75" y="261.72">+</text>
<text x="461.75" y="230.03">+</text>
<text x="81.26" y="352.70">.</text>
<text x="51.25" y="151.31">.</text>
<text x="331.56" y="86.76">+</text>
<text x="384.87" y="281.97">+</text>
<text x="408.89" y="30.03">.</text>
<text x="415.80" y="477.50">+</text>
<text x="342.91" y="215.35">+</text>
<text x="435.70" y="87.29">+</text>
<text x="47.69" y="259.76">.</text>
<text x="161.62" y="192.91">.</text>
<text x="246.87" y="474.02">.</text>
<text x="302.10" y="9.11">+</text>
<text x="410.00" y="17.51">.</text>
<text x="254.78" y="294.74">+</text>
<text x="90.94" y="120.24">+</text>
<text x="324.40" y="267.78">+</text>
<text x="192.26" y="349.30">.</text>
<text x="336.27" y="457.55">.</text>
<text x="276.47" y="44.43">*</text>
<text x="383.89" y="368.39">.</text>
<text x="190.29" y="285.64">*</text>
<text x="479.66" y="307.76">.</text>
<text x="179.63" y="212.66">*</text>
<text x="282.16" y="220.99">.</text>
<text x="25.98" y="92.45">+</text>
<text x="463.58" y="491.68">+</text>
<text x="28.88" y="254.39">.</text>
<text x="415.36" y="261.78">*</text>
<text x="374.98" y="148.72">+</text>
<text x="352.48" y="480.38">+</text>
<text x="315.86" y="166.31">.</text>
<text x="118.19" y="78.41">+</text>
<text x="318.28" y="121.98">.</text>
<text x="142.03" y="161.39">+</text>
<text x="54.16" y="59.48">+</text>
<text x="466.02" y="463.23">.</text>
<text x="280.88" y="159.18">+</text>
<text x="49.85" y="499.70">+</text>
<text x="181.32" y="395.90">.</text>
<text x="351.96" y="366.60">+</text>
<text x="174.92" y="234.62">*</text>
<text x="168.25" y="358.73">+</text>
<text x="331.87" y="480.47">+</text>
<text x="454.71" y="152.02">+</text>
<text x="147.33" y="366.52">.</text>
<text x="353.50" y="279.86">*</text>
<text x="121.35" y="186.31">+</text>
<text x="340.01" y="349.49">+</text>
<text x="158.14" y="286.31">*</text>
<text x="433.74" y="412.63">+</text>
<text x="284.21" y="334.36">+</text>
<text x="301.95" y="162.03">.</text>
<text x="286.13" y="159.08">+</text>
<text x="208.08" y="65.75">+</text>
<text x="435.20" y="468.60">+</text>
<text x="295.55" y="45.70">.</text>
<text x="466.24" y="97.60">*</text>
<text x="47.37" y="50.55">*</text>
<text x="371.34" y="446.56">.</text>
<text x="447.40" y="416.03">.</text>
<text x="326.47" y="71.82">.</text>
<text x="81.43" y="412.71">+</text>
<text x="252.68" y="144.72">.</text>
<text x="420.47" y="3.43">.</text>
<text x="182.33" y="89.92">+</text>

</svg>