
<svg viewBox="0 0 500 500" xmlns="http://www.w.org/2000/svg" width="100%" height="100%" style="background-color: #0a0a14; font-family: 'Courier New', Courier, monospace;">
    <style>
        text { fill: #aaa; font-size: 10px; text-anchor: middle; dominant-baseline: middle; }
    </style>
    <text x="318.11" y="282.34">.</text>
<text x="203.76" y="235.53">.</text>
<text x="25.46" y="283.49">.</text>
<text x="411.05" y="148.87">.</text>
<text x="376.82" y="230.31">.</text>
<text x="48.51" y="390.59">.</text>
<text x="449.19" y="199.43">+</text>
<text x="79.81" y="51.42">*</text>
<text x="284.59" y="62.02">.</text>
<text x="40.29" y="421.17">+</text>
<text x="107.55" y="111.24">.</text>
<text x="269.58" y="313.85">+</text>
<text x="68.05" y="159.13">+</text>
<text x="190.78" y="49.59">.</text>
<text x="336.07" y="254.59">.</text>
<text x="6.31" y="361.60">.</text>
<text x="352.49" y="465.13">.</text>
<text x="215.87" y="245.48">*</text>
<text x="253.68" y="7.29">+</text>
<text x="48.58" y="450.24">.</text>
<text x="258.83" y="330.13">*</text>
<text x="182.47" y="128.92">.</text>
<text x="148.99" y="172.59">+</text>
<text x="57.07" y="406.75">+</text>
<text x="487.11" y="281.39">.</text>
<text x="152.75" y="300.55">.</text>
<text x="51.17" y="369.57">.</text>
<text x="171.52" y="262.61">.</text>
<text x="153.18" y="411.58">.</text>
<text x="219.05" y="496.60">+</text>
<text x="94.24" y="207.91">+</text>
<text x="163.28" y="185.99">*</text>
<text x="201.50" y="68.28">.</text>
<text x="200.45" y="72.54">+</text>
<text x="120.46" y="59.23">+</text>
<text x="374.69" y="177.58">.</text>
<text x="418.55" y="185.75">+</text>
<text x="122.51" y="257.61">.</text>
<text x="50.81" y="99.75">.</text>
<text x="289.72" y="246.47">*</text>
<text x="432.33" y="439.76">+</text>
<text x="66.55" y="459.88">+</text>
<text x="65.53" y="129.34">.</text>
<text x="439.13" y="56.89">.</text>
<text x="128.37" y="112.00">+</text>
<text x="351.45" y="367.34">.</text>
<text x="470.11" y="231.09">+</text>
<text x="178.10" y="352.90">.</text>
<text x="232.63" y="445.64">*</text>
<text x="271.73" y="320.69">+</text>
<text x="25.82" y="10.93">.</text>
<text x="122.24" y="208.94">.</text>
<text x="154.30" y="309.61">+</text>
<text x="50.05" y="385.78">.</text>
<text x="470.84" y="214.19">*</text>
<text x="344.48" y="476.35">.</text>
<text x="275.24" y="487.95">.</text>
<text x="163.64" y="437.59">+</text>
<text x="103.31" y="465.57">+</text>
<text x="30.29" y="109.88">+</text>
<text x="444.90" y="27.84">+</text>
<text x="409.33" y="242.91">*</text>
<text x="459.13" y="245.50">.</text>
<text x="191.39" y="72.25">+</text>
<text x="226.07" y="296.95">.</text>
<text x="107.44" y="139.66">.</text>
<text x="300.18" y="57.38">*</text>
<text x="241.26" y="149.91">.</text>
<text x="71.65" y="115.98">.</text>
<text x="387.70" y="131.75">+</text>
<text x="220.81" y="341.45">.</text>
<text x="324.30" y="406.74">+</text>
<text x="364.51" y="71.60">+</text>
<text x="185.14" y="184.52">*</text>
<text x="140.94" y="363.52">+</text>
<text x="157.42" y="391.02">.</text>
<text x="336.32" y="49.76">+</text>
<text x="496.41" y="121.20">.</text>
<text x="80.11" y="474.35">.</text>
<text x="133.26" y="202.27">*</text>
<text x="375.22" y="460.08">+</text>
<text x="495.08" y="353.33">*</text>
<text x="208.17" y="155.88">.</text>
<text x="100.25" y="454.00">.</text>
<text x="21.26" y="288.74">+</text>
<text x="87.57" y="419.43">*</text>
<text x="144.72" y="272.15">.</text>
<text x="354.95" y="280.37">.</text>
<text x="65.09" y="386.05">.</text>
<text x="236.92" y="462.40">*</text>
<text x="222.48" y="50.05">+</text>
<text x="84.82" y="341.27">+</text>
<text x="40.78" y="44.29">*</text>
<text x="325.11" y="135.58">*</text>
<text x="459.18" y="63.17">.</text>
<text x="232.06" y="165.42">+</text>
<text x="52.27" y="125.44">*</text>
<text x="133.91" y="220.65">+</text>
<text x="163.33" y="246.87">+</text>
<text x="119.30" y="253.58">+</text>
<text x="290.42" y="298.48">.</text>
<text x="287.08" y="429.10">.</text>
<text x="401.32" y="163.04">.</text>
<text x="55.95" y="294.70">*</text>
<text x="119.00" y="3.05">+</text>
<text x="355.48" y="248.29">+</text>
<text x="51.48" y="369.08">+</text>
<text x="273.30" y="91.05">.</text>
<text x="431.99" y="63.64">.</text>
<text x="289.91" y="385.63">.</text>
<text x="209.53" y="62.26">+</text>
<text x="147.88" y="285.15">+</text>
<text x="75.06" y="156.59">.</text>
<text x="159.17" y="303.21">*</text>
<text x="408.80" y="322.66">.</text>
<text x="156.16" y="284.74">.</text>
<text x="350.03" y="172.81">+</text>
<text x="475.95" y="337.02">.</text>
<text x="141.33" y="85.23">.</text>
<text x="109.18" y="476.72">+</text>
<text x="8.95" y="9.90">+</text>
<text x="211.37" y="383.42">.</text>
<text x="375.43" y="494.29">+</text>
<text x="323.14" y="296.98">.</text>
<text x="469.16" y="88.01">.</text>
<text x="455.58" y="87.39">+</text>
<text x="294.89" y="434.06">+</text>
<text x="476.72" y="70.28">+</text>
<text x="167.84" y="262.37">.</text>
<text x="421.81" y="487.05">+</text>
<text x="316.03" y="247.05">.</text>
<text x="444.32" y="277.09">.</text>
<text x="167.86" y="218.24">+</text>
<text x="365.64" y="174.93">*</text>
<text x="280.50" y="303.98">+</text>
<text x="186.17" y="34.55">.</text>
<text x="346.05" y="360.95">.</text>
<text x="327.61" y="391.44">+</text>
<text x="469.74" y="425.61">.</text>
<text x="128.55" y="320.30">*</text>
<text x="381.15" y="233.34">*</text>
<text x="61.47" y="271.85">+</text>
<text x="347.10" y="412.99">.</text>
<text x="452.12" y="291.93">.</text>
<text x="222.76" y="172.14">+</text>
<text x="451.90" y="291.51">.</text>
<text x="169.80" y="9.12">*</text>
<text x="122.74" y="390.62">+</text>
<text x="205.73" y="339.59">.</text>
<text x="196.21" y="410.21">.</text>
<text x="39.52" y="209.28">.</text>
<text x="129.71" y="80.31">+</text>
<text x="440.85" y="407.82">+</text>
<text x="461.35" y="131.13">+</text>
<text x="470.40" y="268.96">.</text>
<text x="197.30" y="498.51">.</text>
<text x="324.56" y="440.10">.</text>
<text x="455.05" y="5.27">.</text>
<text x="378.45" y="225.85">*</text>
<text x="419.73" y="223.50">+</text>
<text x="191.53" y="277.38">+</text>
<text x="300.96" y="281.40">*</text>
<text x="282.65" y="181.83">.</text>
<text x="386.40" y="54.79">+</text>
<text x="215.04" y="384.84">.</text>
<text x="102.96" y="210.95">.</text>
<text x="393.25" y="322.17">+</text>
<text x="442.03" y="319.63">+</text>
<text x="255.00" y="320.89">+</text>
<text x="441.57" y="10.82">+</text>
<text x="456.74" y="1.07">*</text>
<text x="400.79" y="99.73">+</text>
<text x="326.86" y="133.83">.</text>
<text x="197.51" y="473.98">.</text>
<text x="265.12" y="101.62">.</text>
<text x="288.70" y="123.37">+</text>
<text x="167.84" y="294.95">+</text>
<text x="486.80" y="387.17">*</text>
<text x="401.80" y="368.13">*</text>
<text x="140.96" y="470.67">*</text>
<text x="254.88" y="134.52">+</text>
<text x="464.72" y="431.84">+</text>
<text x="279.10" y="149.93">*</text>
<text x="270.91" y="169.23">.</text>
<text x="249.68" y="327.44">.</text>
<text x="444.08" y="433.39">*</text>
<text x="271.11" y="138.85">.</text>
<text x="156.62" y="291.61">.</text>
<text x="432.24" y="269.79">.</text>
<text x="446.58" y="191.41">.</text>
<text x="449.88" y="366.70">+</text>
<text x="400.76" y="163.47">+</text>
<text x="258.51" y="56.34">+</text>
<text x="13.28" y="491.15">*</text>
<text x="148.13" y="449.58">.</text>
<text x="243.03" y="359.44">.</text>

</svg>