
<svg viewBox="0 0 500 500" xmlns="http://www.w.org/2000/svg" width="100%" height="100%" style="background-color: #0a0a14; font-family: 'Courier New', Courier, monospace;">
    <style>
        text { fill: #aaa; font-size: 10px; text-anchor: middle; dominant-baseline: middle; }
    </style>
    <text x="365.09" y="433.91">+</text>
<text x="349.33" y="320.47">*</text>
<text x="162.43" y="65.05">+</text>
<text x="202.62" y="490.66">.</text>
<text x="135.86" y="238.99">.</text>
<text x="7.90" y="192.58">.</text>
<text x="311.53" y="364.25">.</text>
<text x="93.42" y="34.22">.</text>
<text x="302.61" y="321.32">.</text>
<text x="140.58" y="459.25">*</text>
<text x="478.57" y="378.90">.</text>
<text x="376.69" y="149.69">+</text>
<text x="355.32" y="485.61">+</text>
<text x="297.33" y="416.81">*</text>
<text x="309.68" y="393.53">+</text>
<text x="18.78" y="156.41">.</text>
<text x="262.90" y="457.66">.</text>
<text x="377.03" y="225.88">+</text>
<text x="370.28" y="189.85">+</text>
<text x="238.17" y="493.28">.</text>
<text x="466.40" y="302.11">+</text>
<text x="285.25" y="336.27">*</text>
<text x="265.81" y="291.26">+</text>
<text x="493.69" y="174.31">+</text>
<text x="141.77" y="412.60">.</text>
<text x="6.27" y="430.16">.</text>
<text x="204.23" y="288.84">+</text>
<text x="256.10" y="166.35">+</text>
<text x="99.81" y="85.81">.</text>
<text x="195.36" y="85.97">.</text>
<text x="175.94" y="259.96">+</text>
<text x="434.52" y="43.58">+</text>
<text x="246.25" y="233.98">.</text>
<text x="437.19" y="346.20">+</text>
<text x="325.54" y="280.13">*</text>
<text x="396.35" y="230.48">+</text>
<text x="235.85" y="123.43">+</text>
<text x="238.00" y="267.27">*</text>
<text x="57.73" y="287.05">+</text>
<text x="39.71" y="449.24">.</text>
<text x="25.13" y="50.28">+</text>
<text x="246.71" y="461.16">*</text>
<text x="34.24" y="309.87">.</text>
<text x="282.42" y="75.37">+</text>
<text x="226.13" y="154.73">*</text>
<text x="467.82" y="175.60">*</text>
<text x="297.49" y="429.13">+</text>
<text x="61.73" y="86.53">*</text>
<text x="26.89" y="418.06">+</text>
<text x="42.68" y="12.72">.</text>
<text x="457.73" y="152.27">*</text>
<text x="210.27" y="44.54">.</text>
<text x="247.14" y="281.74">+</text>
<text x="33.56" y="275.85">*</text>
<text x="338.70" y="73.63">.</text>
<text x="411.21" y="33.33">+</text>
<text x="208.93" y="354.19">.</text>
<text x="323.83" y="438.35">+</text>
<text x="399.91" y="490.79">.</text>
<text x="336.52" y="450.00">*</text>
<text x="266.63" y="473.35">.</text>
<text x="496.22" y="430.69">.</text>
<text x="101.94" y="148.68">.</text>
<text x="430.69" y="439.94">+</text>
<text x="430.69" y="344.09">+</text>
<text x="349.75" y="229.36">+</text>
<text x="32.69" y="453.13">.</text>
<text x="326.35" y="118.88">.</text>
<text x="33.39" y="221.06">*</text>
<text x="81.84" y="442.65">+</text>
<text x="216.91" y="324.41">.</text>
<text x="154.46" y="482.02">*</text>
<text x="178.22" y="180.61">*</text>
<text x="8.69" y="337.26">+</text>
<text x="381.58" y="254.70">+</text>
<text x="296.62" y="329.52">.</text>
<text x="55.98" y="275.26">+</text>
<text x="120.40" y="464.87">.</text>
<text x="185.95" y="264.30">.</text>
<text x="450.38" y="24.82">+</text>
<text x="34.80" y="374.21">.</text>
<text x="205.04" y="121.82">.</text>
<text x="363.46" y="499.52">.</text>
<text x="438.71" y="135.20">.</text>
<text x="161.35" y="190.67">.</text>
<text x="209.39" y="256.51">.</text>
<text x="347.22" y="224.99">+</text>
<text x="448.86" y="125.41">+</text>
<text x="307.70" y="255.00">.</text>
<text x="421.16" y="429.95">+</text>
<text x="116.19" y="197.32">.</text>
<text x="210.01" y="217.86">+</text>
<text x="151.17" y="252.89">+</text>
<text x="318.53" y="452.00">.</text>
<text x="137.26" y="376.99">*</text>
<text x="153.52" y="400.89">*</text>
<text x="275.82" y="78.71">+</text>
<text x="91.35" y="423.09">+</text>
<text x="361.37" y="175.42">+</text>
<text x="118.55" y="285.85">.</text>
<text x="360.68" y="48.72">+</text>
<text x="205.30" y="460.67">+</text>
<text x="178.53" y="202.23">.</text>
<text x="368.62" y="414.51">.</text>
<text x="148.99" y="397.30">*</text>
<text x="358.38" y="96.31">.</text>
<text x="314.51" y="254.19">*</text>
<text x="61.38" y="407.87">.</text>
<text x="485.27" y="344.51">.</text>
<text x="87.46" y="497.16">*</text>
<text x="89.15" y="415.02">+</text>
<text x="68.72" y="267.48">.</text>
<text x="462.25" y="118.03">*</text>
<text x="464.02" y="480.23">*</text>
<text x="415.23" y="264.88">.</text>
<text x="358.00" y="454.71">*</text>
<text x="142.39" y="407.14">.</text>
<text x="272.29" y="242.72">*</text>
<text x="91.43" y="420.10">.</text>
<text x="67.24" y="66.48">+</text>
<text x="292.85" y="146.87">+</text>
<text x="276.42" y="339.48">+</text>
<text x="248.58" y="359.70">.</text>
<text x="163.11" y="317.42">+</text>
<text x="97.94" y="231.37">+</text>
<text x="228.87" y="368.70">+</text>
<text x="326.17" y="481.79">*</text>
<text x="354.45" y="148.80">+</text>
<text x="491.58" y="372.85">.</text>
<text x="259.50" y="33.14">.</text>
<text x="219.06" y="181.88">+</text>
<text x="367.23" y="130.70">.</text>
<text x="156.91" y="8.03">.</text>
<text x="19.42" y="85.44">+</text>
<text x="230.49" y="229.91">.</text>
<text x="136.02" y="164.41">.</text>
<text x="101.01" y="144.93">.</text>
<text x="190.34" y="411.29">.</text>
<text x="29.61" y="319.68">+</text>
<text x="320.47" y="100.40">.</text>
<text x="31.71" y="369.28">+</text>
<text x="85.46" y="339.06">*</text>
<text x="125.53" y="409.29">.</text>
<text x="462.73" y="243.28">.</text>
<text x="257.96" y="44.17">+</text>
<text x="245.83" y="3.42">+</text>
<text x="158.18" y="484.79">.</text>
<text x="116.06" y="346.39">.</text>
<text x="282.06" y="27.91">+</text>
<text x="391.52" y="224.77">+</text>
<text x="460.21" y="36.17">*</text>
<text x="263.90" y="199.99">.</text>
<text x="217.29" y="92.35">+</text>
<text x="434.89" y="471.57">.</text>
<text x="193.40" y="333.35">.</text>
<text x="321.48" y="165.62">+</text>
<text x="457.97" y="203.05">+</text>
<text x="243.94" y="260.36">+</text>
<text x="175.67" y="116.07">+</text>
<text x="254.39" y="143.57">+</text>
<text x="461.29" y="445.99">.</text>
<text x="281.44" y="442.13">+</text>
<text x="491.82" y="213.50">.</text>
<text x="299.14" y="0.75">.</text>
<text x="132.14" y="406.97">.</text>
<text x="84.26" y="330.35">+</text>
<text x="59.91" y="498.21">+</text>
<text x="459.25" y="243.73">+</text>
<text x="240.25" y="262.34">+</text>
<text x="221.25" y="377.87">+</text>
<text x="451.79" y="50.85">.</text>
<text x="424.71" y="436.78">*</text>
<text x="273.02" y="360.00">+</text>
<text x="351.93" y="229.48">.</text>
<text x="496.95" y="426.32">+</text>
<text x="271.02" y="339.19">*</text>
<text x="112.79" y="404.50">.</text>
<text x="334.08" y="322.37">.</text>
<text x="272.03" y="54.38">+</text>
<text x="394.09" y="155.79">.</text>
<text x="448.40" y="31.72">+</text>
<text x="182.24" y="118.05">+</text>
<text x="30.08" y="363.62">+</text>
<text x="369.20" y="220.23">+</text>
<text x="70.36" y="154.81">+</text>
<text x="95.46" y="194.63">+</text>
<text x="122.91" y="424.08">.</text>
<text x="215.22" y="208.55">+</text>
<text x="92.15" y="78.90">+</text>
<text x="241.29" y="355.31">*</text>
<text x="183.89" y="308.99">.</text>
<text x="18.65" y="111.89">.</text>
<text x="124.55" y="15.17">*</text>
<text x="75.80" y="427.78">+</text>
<text x="446.84" y="16.01">.</text>
<text x="465.20" y="378.00">+</text>
<text x="61.31" y="161.27">.</text>
<text x="431.12" y="82.12">+</text>
<text x="387.62" y="338.59">+</text>
<text x="67.14" y="415.58">*</text>
<text x="64.21" y="310.28">+</text>
<text x="293.20" y="287.18">*</text>
<text x="39.30" y="339.86">.</text>
<text x="197.85" y="266.38">*</text>
<text x="283.31" y="101.66">.</text>
<text x="288.44" y="166.11">.</text>
<text x="42.18" y="285.48">.</text>
<text x="199.88" y="492.97">+</text>
<text x="251.09" y="176.17">+</text>
<text x="364.10" y="268.54">+</text>
<text x="371.88" y="330.34">.</text>
<text x="130.68" y="378.81">+</text>
<text x="472.25" y="144.47">.</text>
<text x="482.54" y="396.68">+</text>
<text x="0.97" y="336.17">.</text>
<text x="316.82" y="158.79">.</text>
<text x="67.20" y="472.16">+</text>

</svg>