
<svg viewBox="0 0 500 500" xmlns="http://www.w.org/2000/svg" width="100%" height="100%" style="background-color: #0a0a14; font-family: 'Courier New', Courier, monospace;">
    <style>
        text { fill: #aaa; font-size: 10px; text-anchor: middle; dominant-baseline: middle; }
    </style>
    <text x="331.62" y="344.03">+</text>
<text x="311.89" y="150.82">+</text>
<text x="73.15" y="330.69">+</text>
<text x="222.15" y="19.21">+</text>
<text x="223.83" y="206.49">.</text>
<text x="389.90" y="494.21">*</text>
<text x="118.48" y="212.23">+</text>
<text x="441.39" y="261.85">.</text>
<text x="120.10" y="4.85">+</text>
<text x="98.44" y="55.97">+</text>
<text x="245.90" y="171.67">.</text>
<text x="124.44" y="408.84">+</text>
<text x="169.85" y="239.31">+</text>
<text x="439.38" y="226.50">+</text>
<text x="379.30" y="284.20">.</text>
<text x="39.29" y="164.58">+</text>
<text x="340.75" y="10.72">+</text>
<text x="2.53" y="468.82">+</text>
<text x="344.93" y="433.54">.</text>
<text x="132.74" y="196.39">.</text>
<text x="105.04" y="285.65">.</text>
<text x="281.77" y="84.66">.</text>
<text x="400.98" y="135.88">*</text>
<text x="266.20" y="123.30">*</text>
<text x="262.26" y="296.18">.</text>
<text x="268.19" y="132.81">.</text>
<text x="224.16" y="354.99">+</text>
<text x="467.99" y="270.83">.</text>
<text x="5.93" y="235.53">.</text>
<text x="198.38" y="486.56">*</text>
<text x="335.41" y="214.07">*</text>
<text x="237.45" y="221.79">.</text>
<text x="171.97" y="447.22">.</text>
<text x="269.23" y="287.58">.</text>
<text x="50.44" y="156.15">.</text>
<text x="391.05" y="406.06">+</text>
<text x="481.97" y="139.59">.</text>
<text x="205.97" y="393.87">+</text>
<text x="409.45" y="293.29">*</text>
<text x="399.59" y="11.86">.</text>
<text x="452.63" y="437.87">+</text>
<text x="382.76" y="47.39">*</text>
<text x="329.25" y="277.95">+</text>
<text x="7.77" y="158.24">.</text>
<text x="221.03" y="363.95">*</text>
<text x="275.34" y="382.89">.</text>
<text x="210.77" y="234.38">.</text>
<text x="155.96" y="98.45">.</text>
<text x="461.67" y="171.02">+</text>
<text x="313.25" y="319.20">+</text>
<text x="42.80" y="491.66">.</text>
<text x="401.89" y="141.32">+</text>
<text x="186.27" y="405.87">+</text>
<text x="341.89" y="353.82">+</text>
<text x="6.81" y="233.20">+</text>
<text x="240.32" y="165.07">+</text>
<text x="408.52" y="423.13">.</text>
<text x="148.17" y="58.99">.</text>
<text x="6.86" y="185.75">+</text>
<text x="360.94" y="232.70">.</text>
<text x="259.15" y="463.67">+</text>
<text x="346.49" y="250.79">.</text>
<text x="197.71" y="90.93">.</text>
<text x="332.34" y="313.99">.</text>
<text x="11.83" y="84.57">*</text>
<text x="372.62" y="154.95">.</text>
<text x="327.86" y="255.34">+</text>
<text x="316.32" y="257.45">.</text>
<text x="333.33" y="289.88">+</text>
<text x="153.92" y="69.69">+</text>
<text x="164.65" y="411.90">.</text>
<text x="119.98" y="438.64">.</text>
<text x="377.35" y="129.64">.</text>
<text x="216.30" y="69.97">.</text>
<text x="216.35" y="54.81">.</text>
<text x="440.37" y="208.46">*</text>
<text x="495.71" y="93.62">.</text>
<text x="391.82" y="58.14">+</text>
<text x="495.11" y="276.07">.</text>
<text x="84.75" y="454.93">.</text>
<text x="237.86" y="465.90">+</text>
<text x="277.46" y="141.14">.</text>
<text x="385.02" y="106.66">+</text>
<text x="142.35" y="229.32">*</text>
<text x="320.52" y="59.78">+</text>
<text x="436.42" y="417.46">+</text>
<text x="441.72" y="209.08">+</text>
<text x="260.96" y="359.85">.</text>
<text x="68.15" y="212.29">.</text>
<text x="294.63" y="121.95">.</text>
<text x="288.06" y="155.97">+</text>
<text x="463.18" y="89.84">*</text>
<text x="56.10" y="81.88">.</text>
<text x="17.75" y="22.85">.</text>
<text x="383.92" y="478.84">+</text>
<text x="359.99" y="477.51">+</text>
<text x="229.44" y="190.40">.</text>
<text x="131.09" y="323.41">*</text>
<text x="14.58" y="480.79">.</text>
<text x="200.73" y="317.84">+</text>
<text x="92.22" y="275.68">+</text>
<text x="442.13" y="408.67">+</text>
<text x="418.80" y="437.96">.</text>
<text x="164.41" y="61.61">.</text>
<text x="207.18" y="123.42">+</text>
<text x="379.27" y="447.61">+</text>
<text x="242.35" y="159.73">.</text>
<text x="183.91" y="151.89">+</text>
<text x="310.51" y="449.30">.</text>
<text x="350.12" y="472.63">+</text>
<text x="343.60" y="54.00">+</text>
<text x="84.26" y="51.09">+</text>
<text x="102.32" y="159.37">.</text>
<text x="109.71" y="419.20">+</text>
<text x="41.15" y="379.35">+</text>
<text x="272.42" y="449.13">+</text>
<text x="325.93" y="46.96">*</text>
<text x="103.30" y="403.91">.</text>
<text x="448.43" y="51.41">+</text>
<text x="292.21" y="349.45">.</text>
<text x="72.59" y="11.93">.</text>
<text x="165.17" y="258.00">.</text>
<text x="498.13" y="382.90">.</text>
<text x="23.33" y="41.39">.</text>
<text x="186.41" y="169.35">+</text>
<text x="243.81" y="10.90">.</text>
<text x="385.06" y="37.41">.</text>
<text x="487.82" y="441.91">.</text>
<text x="78.81" y="431.30">.</text>
<text x="172.48" y="416.95">+</text>
<text x="156.66" y="326.72">+</text>
<text x="4.29" y="117.70">*</text>
<text x="24.76" y="29.30">.</text>
<text x="403.74" y="182.71">+</text>
<text x="342.68" y="115.59">.</text>
<text x="282.57" y="489.20">+</text>
<text x="290.47" y="296.27">.</text>
<text x="455.45" y="86.17">+</text>
<text x="54.62" y="338.90">.</text>
<text x="284.22" y="108.33">.</text>
<text x="11.81" y="2.57">*</text>
<text x="480.57" y="292.24">*</text>
<text x="496.37" y="499.56">*</text>
<text x="498.04" y="383.52">*</text>
<text x="400.72" y="34.57">+</text>
<text x="457.19" y="250.92">+</text>
<text x="362.91" y="310.80">.</text>
<text x="227.70" y="345.81">.</text>
<text x="7.37" y="354.60">.</text>
<text x="367.35" y="427.59">+</text>
<text x="166.91" y="363.97">+</text>
<text x="321.65" y="297.76">.</text>
<text x="25.53" y="461.65">+</text>
<text x="26.96" y="309.50">+</text>
<text x="14.24" y="303.83">*</text>
<text x="320.49" y="403.71">+</text>
<text x="375.93" y="19.14">+</text>
<text x="266.92" y="423.48">*</text>
<text x="159.92" y="234.11">+</text>
<text x="424.32" y="41.30">+</text>
<text x="273.32" y="328.57">.</text>
<text x="468.75" y="23.35">*</text>
<text x="483.32" y="486.21">.</text>
<text x="249.73" y="489.91">+</text>
<text x="279.56" y="373.03">*</text>
<text x="253.31" y="215.73">+</text>
<text x="105.81" y="454.31">.</text>
<text x="489.26" y="403.58">*</text>
<text x="115.75" y="121.47">+</text>
<text x="216.70" y="21.19">.</text>
<text x="199.08" y="262.11">+</text>
<text x="174.79" y="389.95">.</text>
<text x="372.33" y="309.59">+</text>
<text x="497.95" y="178.93">+</text>
<text x="450.28" y="369.85">.</text>
<text x="125.29" y="252.40">.</text>
<text x="240.71" y="478.84">+</text>
<text x="393.17" y="452.09">*</text>
<text x="60.82" y="428.65">*</text>
<text x="401.26" y="358.05">+</text>
<text x="252.67" y="299.29">.</text>
<text x="98.49" y="73.76">*</text>
<text x="68.98" y="241.44">+</text>
<text x="253.17" y="416.16">+</text>
<text x="320.13" y="470.36">+</text>
<text x="179.87" y="198.47">*</text>
<text x="27.27" y="371.09">.</text>
<text x="478.83" y="486.76">.</text>
<text x="481.20" y="6.40">*</text>
<text x="455.30" y="428.99">.</text>
<text x="221.58" y="293.90">.</text>
<text x="449.87" y="117.98">+</text>
<text x="475.34" y="311.50">.</text>
<text x="80.00" y="167.44">+</text>
<text x="167.29" y="476.49">.</text>
<text x="32.25" y="72.70">.</text>
<text x="474.39" y="308.92">+</text>
<text x="455.31" y="385.00">*</text>
<text x="462.94" y="326.32">+</text>
<text x="82.81" y="243.77">.</text>
<text x="194.86" y="139.46">.</text>
<text x="208.38" y="97.36">*</text>
<text x="221.86" y="421.81">.</text>
<text x="250.10" y="112.84">+</text>
<text x="300.42" y="488.92">.</text>
<text x="309.88" y="84.80">.</text>
<text x="103.07" y="304.85">+</text>
<text x="352.05" y="453.44">*</text>
<text x="242.20" y="126.92">.</text>
<text x="23.16" y="496.18">+</text>
<text x="337.73" y="461.04">*</text>
<text x="48.06" y="75.69">+</text>
<text x="119.40" y="224.20">*</text>
<text x="320.63" y="224.55">*</text>

</svg>