
<svg viewBox="0 0 500 500" xmlns="http://www.w.org/2000/svg" width="100%" height="100%" style="background-color: #0a0a14; font-family: 'Courier New', Courier, monospace;">
    <style>
        text { fill: #aaa; font-size: 10px; text-anchor: middle; dominant-baseline: middle; }
    </style>
    <text x="42.38" y="364.01">.</text>
<text x="21.29" y="181.25">+</text>
<text x="432.89" y="40.58">+</text>
<text x="447.75" y="131.34">*</text>
<text x="317.41" y="308.49">*</text>
<text x="211.30" y="77.85">+</text>
<text x="162.37" y="457.82">+</text>
<text x="471.96" y="80.75">+</text>
<text x="191.39" y="379.03">+</text>
<text x="291.68" y="394.77">.</text>
<text x="154.00" y="26.09">+</text>
<text x="295.85" y="10.07">*</text>
<text x="482.88" y="259.77">.</text>
<text x="268.53" y="102.38">+</text>
<text x="369.49" y="295.68">.</text>
<text x="159.17" y="204.44">.</text>
<text x="264.14" y="355.97">+</text>
<text x="13.90" y="201.57">+</text>
<text x="342.17" y="80.32">.</text>
<text x="487.77" y="75.96">+</text>
<text x="68.93" y="102.43">*</text>
<text x="237.62" y="384.67">+</text>
<text x="416.58" y="198.19">+</text>
<text x="28.72" y="257.66">+</text>
<text x="72.46" y="406.08">+</text>
<text x="90.63" y="36.13">+</text>
<text x="156.66" y="415.71">.</text>
<text x="447.03" y="275.33">+</text>
<text x="235.68" y="343.24">+</text>
<text x="456.98" y="237.77">+</text>
<text x="408.92" y="23.27">.</text>
<text x="74.25" y="479.46">.</text>
<text x="274.72" y="35.27">.</text>
<text x="265.46" y="180.23">.</text>
<text x="223.67" y="145.85">.</text>
<text x="455.87" y="492.23">.</text>
<text x="177.86" y="452.14">+</text>
<text x="356.24" y="103.23">+</text>
<text x="448.35" y="76.78">*</text>
<text x="209.04" y="50.96">+</text>
<text x="389.29" y="347.02">.</text>
<text x="34.44" y="116.39">.</text>
<text x="299.92" y="32.52">*</text>
<text x="226.82" y="417.04">+</text>
<text x="45.31" y="342.47">.</text>
<text x="125.61" y="158.15">.</text>
<text x="282.82" y="322.23">.</text>
<text x="431.94" y="139.37">+</text>
<text x="168.46" y="165.96">+</text>
<text x="499.46" y="61.65">.</text>
<text x="162.08" y="16.35">.</text>
<text x="462.34" y="177.94">+</text>
<text x="295.29" y="230.29">+</text>
<text x="349.35" y="149.82">+</text>
<text x="234.36" y="221.72">+</text>
<text x="309.06" y="208.54">+</text>
<text x="350.75" y="103.67">+</text>
<text x="15.45" y="448.09">*</text>
<text x="423.11" y="305.71">.</text>
<text x="19.17" y="265.49">*</text>
<text x="10.85" y="398.98">.</text>
<text x="384.96" y="287.54">.</text>
<text x="183.98" y="345.95">.</text>
<text x="66.27" y="407.89">.</text>
<text x="130.80" y="44.80">+</text>
<text x="405.42" y="399.35">.</text>
<text x="251.17" y="96.67">.</text>
<text x="495.60" y="412.71">+</text>
<text x="97.31" y="131.67">+</text>
<text x="198.42" y="149.95">+</text>
<text x="487.87" y="388.08">.</text>
<text x="329.08" y="94.98">+</text>
<text x="174.97" y="380.23">+</text>
<text x="439.02" y="486.86">.</text>
<text x="157.81" y="174.01">.</text>
<text x="327.07" y="91.59">.</text>
<text x="271.10" y="254.76">.</text>
<text x="268.81" y="304.94">.</text>
<text x="99.44" y="20.95">.</text>
<text x="149.38" y="229.98">.</text>
<text x="240.75" y="208.60">.</text>
<text x="355.70" y="11.39">.</text>
<text x="65.65" y="69.74">.</text>
<text x="398.71" y="447.66">.</text>
<text x="345.57" y="142.43">*</text>
<text x="321.96" y="21.18">.</text>
<text x="316.56" y="418.23">.</text>
<text x="219.62" y="142.99">*</text>
<text x="302.82" y="213.63">+</text>
<text x="485.24" y="225.91">+</text>
<text x="483.07" y="321.11">+</text>
<text x="451.18" y="453.00">+</text>
<text x="141.07" y="11.27">+</text>
<text x="327.82" y="140.40">+</text>
<text x="436.46" y="244.77">+</text>
<text x="200.04" y="431.04">+</text>
<text x="423.37" y="50.57">.</text>
<text x="66.43" y="441.62">.</text>
<text x="26.43" y="436.21">.</text>
<text x="84.08" y="482.46">*</text>
<text x="74.15" y="342.48">+</text>
<text x="163.58" y="183.42">+</text>
<text x="381.16" y="144.42">*</text>
<text x="9.10" y="36.51">.</text>
<text x="331.51" y="292.59">.</text>
<text x="220.34" y="469.92">+</text>
<text x="129.17" y="143.07">*</text>
<text x="77.32" y="184.41">*</text>
<text x="423.23" y="83.18">+</text>
<text x="186.04" y="422.01">+</text>
<text x="244.76" y="470.03">.</text>
<text x="199.14" y="200.95">.</text>
<text x="295.73" y="271.62">*</text>
<text x="22.98" y="480.30">+</text>
<text x="114.46" y="312.91">*</text>
<text x="94.96" y="279.28">+</text>
<text x="145.09" y="410.64">*</text>
<text x="406.22" y="162.27">.</text>
<text x="338.25" y="274.45">.</text>
<text x="206.00" y="464.72">+</text>
<text x="137.25" y="70.91">+</text>
<text x="188.77" y="108.07">+</text>
<text x="381.12" y="140.55">*</text>
<text x="495.19" y="127.07">+</text>
<text x="430.50" y="497.07">+</text>
<text x="476.85" y="395.30">+</text>
<text x="143.73" y="325.72">.</text>
<text x="395.89" y="174.95">+</text>
<text x="385.27" y="178.61">.</text>
<text x="434.63" y="31.92">+</text>
<text x="473.08" y="213.75">*</text>
<text x="222.51" y="430.90">+</text>
<text x="442.77" y="27.61">*</text>
<text x="149.37" y="275.30">+</text>
<text x="498.95" y="438.90">.</text>
<text x="16.00" y="286.41">+</text>
<text x="186.92" y="474.23">.</text>
<text x="251.20" y="142.26">+</text>
<text x="499.31" y="417.86">+</text>
<text x="246.95" y="313.07">.</text>
<text x="158.96" y="400.12">+</text>
<text x="470.30" y="238.26">.</text>
<text x="497.82" y="463.76">+</text>
<text x="22.43" y="401.46">.</text>
<text x="362.29" y="62.65">+</text>
<text x="318.05" y="30.95">+</text>
<text x="190.44" y="498.19">.</text>
<text x="209.85" y="354.82">.</text>
<text x="145.33" y="328.09">+</text>
<text x="442.56" y="99.81">.</text>
<text x="478.16" y="381.43">.</text>
<text x="9.42" y="328.47">.</text>
<text x="365.94" y="94.51">+</text>
<text x="52.86" y="421.38">+</text>
<text x="397.44" y="22.61">.</text>
<text x="19.15" y="313.39">+</text>
<text x="73.91" y="133.14">.</text>
<text x="107.89" y="340.26">*</text>
<text x="273.79" y="141.44">.</text>
<text x="98.04" y="234.41">.</text>
<text x="353.39" y="138.51">.</text>
<text x="325.63" y="302.82">+</text>
<text x="231.16" y="120.37">.</text>
<text x="344.80" y="31.50">+</text>
<text x="238.89" y="97.87">.</text>
<text x="455.76" y="58.84">+</text>
<text x="196.73" y="245.49">.</text>
<text x="217.93" y="78.77">+</text>
<text x="267.01" y="46.79">.</text>
<text x="361.44" y="257.67">+</text>
<text x="322.79" y="450.52">.</text>
<text x="81.20" y="266.90">.</text>
<text x="139.66" y="25.67">.</text>
<text x="86.75" y="69.76">.</text>
<text x="210.58" y="182.32">+</text>
<text x="225.82" y="174.84">+</text>
<text x="180.75" y="250.43">*</text>
<text x="204.84" y="369.69">*</text>
<text x="379.87" y="185.04">+</text>
<text x="118.19" y="223.52">.</text>
<text x="378.17" y="468.44">+</text>
<text x="29.86" y="325.98">*</text>
<text x="468.03" y="187.47">+</text>
<text x="415.26" y="316.45">.</text>
<text x="373.99" y="336.01">.</text>
<text x="168.15" y="281.65">+</text>
<text x="246.41" y="396.42">+</text>
<text x="25.88" y="485.14">*</text>
<text x="338.90" y="61.55">.</text>
<text x="348.34" y="24.96">.</text>
<text x="327.60" y="373.10">+</text>
<text x="137.99" y="163.51">.</text>
<text x="130.83" y="262.12">+</text>
<text x="333.74" y="111.43">.</text>
<text x="300.42" y="461.97">.</text>
<text x="176.47" y="35.47">*</text>
<text x="324.44" y="356.97">*</text>
<text x="51.21" y="198.41">+</text>
<text x="168.37" y="229.01">+</text>
<text x="286.14" y="327.16">*</text>
<text x="33.77" y="316.45">+</text>
<text x="207.55" y="376.13">*</text>
<text x="86.23" y="250.05">.</text>
<text x="305.67" y="95.87">.</text>
<text x="30.37" y="94.19">+</text>
<text x="477.32" y="140.21">+</text>
<text x="132.56" y="266.69">+</text>
<text x="275.90" y="497.77">.</text>
<text x="31.24" y="335.97">.</text>
<text x="74.37" y="52.66">+</text>

</svg>