
<svg viewBox="0 0 500 500" xmlns="http://www.w.org/2000/svg" width="100%" height="100%" style="background-color: #0a0a14; font-family: 'Courier New', Courier, monospace;">
    <style>
        text { fill: #aaa; font-size: 10px; text-anchor: middle; dominant-baseline: middle; }
    </style>
    <text x="201.92" y="241.50">.</text>
<text x="93.77" y="414.55">+</text>
<text x="461.80" y="217.64">.</text>
<text x="171.69" y="442.50">.</text>
<text x="84.25" y="18.98">*</text>
<text x="316.32" y="310.36">.</text>
<text x="160.42" y="25.66">.</text>
<text x="183.87" y="421.59">.</text>
<text x="238.30" y="193.65">.</text>
<text x="334.01" y="232.60">.</text>
<text x="237.72" y="158.55">*</text>
<text x="473.05" y="477.24">.</text>
<text x="480.63" y="436.20">+</text>
<text x="146.57" y="493.67">+</text>
<text x="285.20" y="409.73">+</text>
<text x="203.97" y="1.91">.</text>
<text x="314.50" y="23.44">+</text>
<text x="436.47" y="332.09">+</text>
<text x="417.93" y="377.73">*</text>
<text x="296.55" y="128.69">+</text>
<text x="360.91" y="447.74">+</text>
<text x="36.25" y="292.05">+</text>
<text x="451.98" y="264.81">+</text>
<text x="65.13" y="318.81">+</text>
<text x="17.22" y="79.96">+</text>
<text x="8.74" y="152.95">+</text>
<text x="415.56" y="202.08">+</text>
<text x="421.66" y="233.42">.</text>
<text x="76.13" y="404.72">+</text>
<text x="382.99" y="425.83">.</text>
<text x="7.44" y="360.55">+</text>
<text x="343.98" y="166.96">+</text>
<text x="435.82" y="324.65">+</text>
<text x="233.42" y="234.58">+</text>
<text x="151.32" y="437.57">.</text>
<text x="198.89" y="269.73">+</text>
<text x="256.04" y="8.94">+</text>
<text x="174.46" y="329.43">*</text>
<text x="416.97" y="209.10">+</text>
<text x="190.69" y="299.46">+</text>
<text x="304.31" y="24.57">.</text>
<text x="74.29" y="250.56">.</text>
<text x="134.94" y="289.97">.</text>
<text x="83.79" y="330.60">.</text>
<text x="359.76" y="375.91">*</text>
<text x="288.40" y="6.46">+</text>
<text x="62.49" y="387.00">.</text>
<text x="452.30" y="409.17">.</text>
<text x="344.12" y="498.24">+</text>
<text x="308.03" y="103.63">+</text>
<text x="237.31" y="436.50">.</text>
<text x="71.79" y="91.55">.</text>
<text x="414.72" y="230.28">+</text>
<text x="357.59" y="255.50">+</text>
<text x="106.40" y="16.73">+</text>
<text x="311.45" y="451.01">*</text>
<text x="417.15" y="214.37">+</text>
<text x="355.83" y="304.01">.</text>
<text x="66.42" y="179.69">+</text>
<text x="125.43" y="356.86">+</text>
<text x="302.07" y="4.73">.</text>
<text x="55.52" y="483.09">.</text>
<text x="66.94" y="17.03">.</text>
<text x="281.08" y="463.76">+</text>
<text x="431.18" y="19.24">*</text>
<text x="295.45" y="218.52">.</text>
<text x="99.40" y="125.36">.</text>
<text x="129.86" y="379.94">.</text>
<text x="338.57" y="379.11">.</text>
<text x="493.15" y="260.63">.</text>
<text x="201.05" y="150.66">+</text>
<text x="55.11" y="240.69">+</text>
<text x="341.76" y="84.20">+</text>
<text x="156.00" y="25.64">.</text>
<text x="339.56" y="447.58">.</text>
<text x="175.68" y="421.54">*</text>
<text x="386.80" y="154.95">*</text>
<text x="412.97" y="205.66">+</text>
<text x="439.98" y="391.01">+</text>
<text x="121.49" y="140.67">+</text>
<text x="316.44" y="343.57">.</text>
<text x="119.69" y="455.22">+</text>
<text x="486.77" y="432.98">*</text>
<text x="431.73" y="432.61">.</text>
<text x="379.19" y="147.78">+</text>
<text x="188.37" y="251.73">+</text>
<text x="146.05" y="168.75">.</text>
<text x="181.21" y="16.23">+</text>
<text x="260.73" y="483.12">+</text>
<text x="41.08" y="17.00">.</text>
<text x="266.90" y="2.55">.</text>
<text x="43.42" y="166.02">*</text>
<text x="162.25" y="136.61">+</text>
<text x="373.56" y="399.49">.</text>
<text x="298.76" y="11.58">+</text>
<text x="235.41" y="386.32">.</text>
<text x="311.66" y="439.09">+</text>
<text x="476.23" y="39.62">+</text>
<text x="70.19" y="476.13">+</text>
<text x="387.10" y="375.47">+</text>
<text x="496.72" y="239.38">.</text>
<text x="329.88" y="223.56">.</text>
<text x="92.40" y="9.93">.</text>
<text x="237.92" y="30.61">*</text>
<text x="313.26" y="348.53">.</text>
<text x="301.65" y="427.61">*</text>
<text x="321.32" y="396.15">.</text>
<text x="372.78" y="295.48">.</text>
<text x="364.38" y="140.76">+</text>
<text x="332.22" y="403.66">+</text>
<text x="154.01" y="457.39">+</text>
<text x="101.50" y="35.82">.</text>
<text x="352.65" y="322.07">+</text>
<text x="381.81" y="320.82">.</text>
<text x="296.05" y="402.88">+</text>
<text x="99.19" y="312.42">+</text>
<text x="353.38" y="93.34">+</text>
<text x="185.23" y="104.33">.</text>
<text x="365.18" y="191.08">+</text>
<text x="206.77" y="85.49">.</text>
<text x="406.68" y="261.68">+</text>
<text x="496.81" y="440.38">.</text>
<text x="324.86" y="87.46">+</text>
<text x="474.77" y="40.50">+</text>
<text x="238.02" y="203.70">.</text>
<text x="270.37" y="485.98">*</text>
<text x="42.46" y="348.85">.</text>
<text x="497.45" y="191.51">.</text>
<text x="489.07" y="170.62">+</text>
<text x="417.62" y="393.58">+</text>
<text x="473.57" y="130.33">+</text>
<text x="310.88" y="174.49">+</text>
<text x="334.96" y="41.62">+</text>
<text x="464.88" y="369.02">*</text>
<text x="203.85" y="93.48">+</text>
<text x="329.44" y="400.75">.</text>
<text x="371.40" y="39.01">.</text>
<text x="240.44" y="341.29">+</text>
<text x="20.45" y="351.40">*</text>
<text x="70.85" y="376.88">+</text>
<text x="119.89" y="84.67">*</text>
<text x="449.08" y="13.42">*</text>
<text x="21.23" y="248.18">+</text>
<text x="216.55" y="489.27">+</text>
<text x="215.90" y="258.64">+</text>
<text x="417.58" y="76.52">.</text>
<text x="201.60" y="147.38">+</text>
<text x="23.53" y="111.83">*</text>
<text x="422.64" y="494.14">+</text>
<text x="478.94" y="37.02">*</text>
<text x="460.14" y="405.11">+</text>
<text x="432.09" y="424.52">*</text>
<text x="240.07" y="348.73">+</text>
<text x="349.79" y="20.54">*</text>
<text x="300.81" y="281.47">.</text>
<text x="315.59" y="411.17">.</text>
<text x="80.14" y="17.58">.</text>
<text x="48.33" y="243.45">.</text>
<text x="114.88" y="53.96">+</text>
<text x="139.02" y="268.98">.</text>
<text x="499.19" y="16.21">*</text>
<text x="394.88" y="155.26">.</text>
<text x="220.99" y="37.41">.</text>
<text x="394.09" y="179.95">.</text>
<text x="149.62" y="442.84">.</text>
<text x="347.61" y="498.96">+</text>
<text x="338.19" y="60.82">+</text>
<text x="326.66" y="405.48">+</text>
<text x="336.40" y="432.60">.</text>
<text x="232.05" y="177.73">.</text>
<text x="385.10" y="326.38">+</text>
<text x="325.09" y="408.01">.</text>
<text x="56.35" y="260.51">+</text>
<text x="307.90" y="183.63">+</text>
<text x="333.04" y="445.43">+</text>
<text x="383.34" y="413.39">+</text>
<text x="206.33" y="384.10">.</text>
<text x="109.92" y="318.74">.</text>
<text x="16.47" y="88.80">+</text>
<text x="215.40" y="48.10">+</text>
<text x="17.44" y="70.54">.</text>
<text x="359.03" y="109.46">.</text>
<text x="436.44" y="363.20">+</text>
<text x="181.67" y="325.01">+</text>
<text x="459.61" y="308.88">+</text>
<text x="438.31" y="241.76">+</text>
<text x="442.74" y="432.78">*</text>
<text x="5.14" y="249.15">+</text>
<text x="50.46" y="290.50">*</text>
<text x="255.65" y="161.85">.</text>
<text x="419.66" y="454.38">+</text>
<text x="441.06" y="93.06">.</text>
<text x="239.81" y="31.21">.</text>
<text x="371.77" y="197.55">.</text>
<text x="371.55" y="8.73">+</text>
<text x="182.70" y="184.18">.</text>
<text x="64.59" y="3.70">.</text>
<text x="419.65" y="482.66">+</text>
<text x="467.09" y="73.01">+</text>
<text x="46.81" y="320.59">.</text>
<text x="457.08" y="386.31">.</text>
<text x="347.72" y="187.89">*</text>
<text x="400.27" y="153.48">*</text>

</svg>