
<svg viewBox="0 0 500 500" xmlns="http://www.w.org/2000/svg" width="100%" height="100%" style="background-color: #0a0a14; font-family: 'Courier New', Courier, monospace;">
    <style>
        text { fill: #aaa; font-size: 10px; text-anchor: middle; dominant-baseline: middle; }
    </style>
    <text x="293.21" y="134.89">.</text>
<text x="449.59" y="149.15">.</text>
<text x="152.22" y="159.11">.</text>
<text x="100.74" y="212.78">.</text>
<text x="478.11" y="66.91">+</text>
<text x="129.17" y="155.93">+</text>
<text x="90.67" y="497.26">.</text>
<text x="352.25" y="148.97">.</text>
<text x="333.73" y="344.12">*</text>
<text x="176.42" y="241.11">.</text>
<text x="281.13" y="138.22">+</text>
<text x="238.53" y="233.09">*</text>
<text x="491.51" y="447.41">+</text>
<text x="157.95" y="321.04">.</text>
<text x="424.40" y="386.29">+</text>
<text x="349.82" y="121.94">.</text>
<text x="363.96" y="110.82">+</text>
<text x="207.50" y="419.03">.</text>
<text x="403.01" y="258.57">*</text>
<text x="477.02" y="84.10">*</text>
<text x="181.47" y="378.39">+</text>
<text x="135.82" y="473.02">*</text>
<text x="221.06" y="121.55">+</text>
<text x="33.98" y="308.63">*</text>
<text x="84.43" y="33.63">.</text>
<text x="345.90" y="334.99">+</text>
<text x="375.25" y="406.40">+</text>
<text x="258.60" y="165.25">+</text>
<text x="87.23" y="348.69">.</text>
<text x="374.93" y="339.12">.</text>
<text x="348.74" y="19.89">+</text>
<text x="466.27" y="439.94">*</text>
<text x="376.70" y="462.27">*</text>
<text x="409.84" y="315.58">+</text>
<text x="135.25" y="377.64">+</text>
<text x="357.43" y="467.08">+</text>
<text x="402.20" y="323.37">+</text>
<text x="275.90" y="255.22">+</text>
<text x="467.82" y="52.54">.</text>
<text x="482.63" y="319.01">+</text>
<text x="490.46" y="197.87">+</text>
<text x="332.83" y="330.61">+</text>
<text x="219.23" y="342.13">+</text>
<text x="2.33" y="166.86">.</text>
<text x="342.31" y="295.32">+</text>
<text x="224.66" y="88.33">*</text>
<text x="131.05" y="299.28">+</text>
<text x="302.23" y="135.50">+</text>
<text x="405.93" y="155.75">+</text>
<text x="153.68" y="262.99">+</text>
<text x="4.22" y="30.92">+</text>
<text x="495.45" y="28.61">.</text>
<text x="458.15" y="493.13">+</text>
<text x="145.40" y="76.13">.</text>
<text x="171.56" y="31.13">.</text>
<text x="209.81" y="395.35">.</text>
<text x="264.49" y="134.52">+</text>
<text x="101.47" y="198.15">+</text>
<text x="365.07" y="45.19">.</text>
<text x="153.17" y="495.43">+</text>
<text x="94.02" y="243.43">.</text>
<text x="60.57" y="417.92">.</text>
<text x="455.58" y="238.11">+</text>
<text x="491.73" y="274.85">+</text>
<text x="374.93" y="63.60">.</text>
<text x="71.32" y="247.63">*</text>
<text x="252.65" y="128.79">.</text>
<text x="335.23" y="204.28">+</text>
<text x="361.90" y="404.99">*</text>
<text x="330.71" y="190.33">+</text>
<text x="352.67" y="1.36">.</text>
<text x="85.65" y="356.62">*</text>
<text x="329.47" y="413.82">*</text>
<text x="92.78" y="144.69">+</text>
<text x="485.50" y="397.28">+</text>
<text x="85.88" y="125.15">*</text>
<text x="238.10" y="390.95">.</text>
<text x="296.88" y="436.04">.</text>
<text x="238.35" y="179.31">.</text>
<text x="352.08" y="369.56">*</text>
<text x="137.19" y="8.56">+</text>
<text x="94.47" y="346.06">+</text>
<text x="454.07" y="78.37">*</text>
<text x="475.60" y="449.70">+</text>
<text x="149.18" y="222.27">*</text>
<text x="419.95" y="71.71">.</text>
<text x="71.24" y="309.99">+</text>
<text x="306.59" y="272.55">.</text>
<text x="148.61" y="90.42">+</text>
<text x="90.91" y="173.83">+</text>
<text x="239.43" y="341.75">.</text>
<text x="7.16" y="95.92">+</text>
<text x="468.78" y="480.22">.</text>
<text x="445.71" y="256.68">*</text>
<text x="263.66" y="378.89">.</text>
<text x="194.22" y="28.24">.</text>
<text x="304.74" y="203.73">.</text>
<text x="387.11" y="110.68">.</text>
<text x="286.69" y="365.29">.</text>
<text x="152.22" y="136.83">*</text>
<text x="386.48" y="260.33">.</text>
<text x="5.46" y="91.53">.</text>
<text x="351.01" y="340.03">.</text>
<text x="39.91" y="400.59">.</text>
<text x="349.84" y="487.78">.</text>
<text x="163.90" y="376.61">.</text>
<text x="250.06" y="92.98">*</text>
<text x="69.95" y="324.10">.</text>
<text x="121.61" y="266.29">*</text>
<text x="208.60" y="403.60">+</text>
<text x="206.64" y="15.41">+</text>
<text x="187.05" y="389.59">+</text>
<text x="484.27" y="114.23">+</text>
<text x="421.78" y="17.25">.</text>
<text x="259.93" y="29.78">+</text>
<text x="21.24" y="121.48">+</text>
<text x="48.07" y="86.32">+</text>
<text x="480.03" y="444.81">.</text>
<text x="449.69" y="467.49">+</text>
<text x="299.44" y="196.98">.</text>
<text x="305.35" y="429.06">.</text>
<text x="214.33" y="188.34">+</text>
<text x="60.11" y="337.53">.</text>
<text x="42.75" y="187.11">.</text>
<text x="242.95" y="161.42">+</text>
<text x="33.96" y="251.28">.</text>
<text x="431.90" y="5.45">*</text>
<text x="317.70" y="291.93">+</text>
<text x="342.05" y="78.47">.</text>
<text x="463.04" y="406.70">.</text>
<text x="259.19" y="355.75">.</text>
<text x="110.32" y="339.30">*</text>
<text x="306.45" y="488.66">.</text>
<text x="295.48" y="313.83">*</text>
<text x="127.38" y="463.99">.</text>
<text x="35.73" y="307.39">+</text>
<text x="442.56" y="103.12">+</text>
<text x="219.75" y="53.80">.</text>
<text x="295.10" y="248.90">.</text>
<text x="216.14" y="425.00">.</text>
<text x="7.52" y="179.84">*</text>
<text x="213.56" y="384.30">+</text>
<text x="326.19" y="369.10">+</text>
<text x="151.66" y="136.92">.</text>
<text x="17.16" y="272.58">.</text>
<text x="137.69" y="7.24">.</text>
<text x="280.91" y="267.05">.</text>
<text x="154.67" y="41.08">+</text>
<text x="462.93" y="170.38">+</text>
<text x="228.67" y="227.09">+</text>
<text x="150.55" y="417.98">+</text>
<text x="93.06" y="338.67">.</text>
<text x="244.57" y="106.22">.</text>
<text x="346.97" y="499.35">+</text>
<text x="333.74" y="136.91">.</text>
<text x="435.61" y="315.67">.</text>
<text x="329.96" y="336.01">+</text>
<text x="345.67" y="135.04">+</text>
<text x="365.62" y="218.04">*</text>
<text x="63.24" y="7.59">.</text>
<text x="109.39" y="443.18">.</text>
<text x="290.70" y="198.52">.</text>
<text x="216.38" y="392.26">*</text>
<text x="372.40" y="365.53">+</text>
<text x="475.91" y="327.83">.</text>
<text x="177.71" y="40.09">+</text>
<text x="429.96" y="360.92">+</text>
<text x="12.58" y="283.16">*</text>
<text x="121.69" y="236.60">.</text>
<text x="57.40" y="482.11">.</text>
<text x="48.70" y="75.80">.</text>
<text x="41.88" y="409.24">.</text>
<text x="481.22" y="402.74">.</text>
<text x="435.39" y="471.81">.</text>
<text x="322.92" y="204.54">.</text>
<text x="489.60" y="185.71">+</text>
<text x="486.64" y="288.93">+</text>
<text x="299.68" y="257.16">+</text>
<text x="70.11" y="291.69">.</text>
<text x="218.90" y="129.49">+</text>
<text x="248.18" y="181.77">+</text>
<text x="451.33" y="489.60">+</text>
<text x="237.81" y="497.43">.</text>
<text x="51.72" y="82.26">+</text>
<text x="422.65" y="125.47">+</text>
<text x="462.16" y="170.29">+</text>
<text x="217.57" y="143.40">.</text>
<text x="188.70" y="101.88">.</text>
<text x="288.52" y="207.70">+</text>
<text x="458.05" y="270.08">+</text>
<text x="274.15" y="141.24">+</text>
<text x="161.39" y="404.37">+</text>
<text x="476.46" y="235.16">+</text>
<text x="49.29" y="100.44">+</text>
<text x="17.60" y="420.49">*</text>
<text x="17.61" y="28.90">.</text>
<text x="273.37" y="461.64">+</text>
<text x="347.23" y="222.80">*</text>
<text x="202.44" y="469.15">+</text>
<text x="6.64" y="271.71">+</text>
<text x="49.62" y="368.19">+</text>
<text x="452.96" y="390.00">+</text>
<text x="267.49" y="295.44">+</text>
<text x="228.19" y="28.50">.</text>
<text x="496.67" y="18.64">+</text>
<text x="388.85" y="193.80">*</text>
<text x="3.73" y="326.22">+</text>
<text x="247.13" y="499.75">.</text>
<text x="62.73" y="336.19">.</text>
<text x="309.29" y="214.14">+</text>
<text x="76.19" y="17.81">+</text>
<text x="474.21" y="189.14">+</text>

</svg>