
<svg viewBox="0 0 500 500" xmlns="http://www.w.org/2000/svg" width="100%" height="100%" style="background-color: #0a0a14; font-family: 'Courier New', Courier, monospace;">
    <style>
        text { fill: #aaa; font-size: 10px; text-anchor: middle; dominant-baseline: middle; }
    </style>
    <text x="255.36" y="45.45">*</text>
<text x="65.15" y="364.93">+</text>
<text x="317.34" y="63.46">+</text>
<text x="400.52" y="224.93">+</text>
<text x="179.89" y="48.87">+</text>
<text x="330.19" y="273.01">*</text>
<text x="136.11" y="386.67">.</text>
<text x="243.43" y="195.91">+</text>
<text x="455.35" y="268.22">+</text>
<text x="333.05" y="191.05">.</text>
<text x="33.09" y="285.29">+</text>
<text x="402.86" y="168.86">+</text>
<text x="471.79" y="359.75">.</text>
<text x="137.43" y="398.81">+</text>
<text x="287.08" y="192.89">*</text>
<text x="462.01" y="190.34">+</text>
<text x="405.96" y="172.65">*</text>
<text x="464.35" y="160.94">.</text>
<text x="190.79" y="6.12">.</text>
<text x="338.80" y="337.96">+</text>
<text x="417.47" y="165.31">.</text>
<text x="416.30" y="139.54">+</text>
<text x="435.29" y="269.09">+</text>
<text x="457.02" y="10.88">+</text>
<text x="151.63" y="434.00">.</text>
<text x="425.17" y="6.72">+</text>
<text x="383.92" y="484.33">+</text>
<text x="278.00" y="429.69">.</text>
<text x="11.59" y="106.28">.</text>
<text x="98.42" y="63.82">.</text>
<text x="414.97" y="414.69">*</text>
<text x="207.46" y="142.89">*</text>
<text x="114.44" y="315.60">+</text>
<text x="196.41" y="211.78">.</text>
<text x="175.42" y="485.74">*</text>
<text x="251.99" y="462.72">+</text>
<text x="70.09" y="57.91">.</text>
<text x="62.66" y="338.41">+</text>
<text x="379.25" y="118.08">+</text>
<text x="487.86" y="437.74">.</text>
<text x="153.78" y="185.56">.</text>
<text x="306.64" y="279.02">+</text>
<text x="342.92" y="55.84">+</text>
<text x="30.57" y="37.17">+</text>
<text x="457.85" y="244.19">+</text>
<text x="199.17" y="221.44">+</text>
<text x="377.69" y="271.82">*</text>
<text x="111.84" y="280.37">*</text>
<text x="26.59" y="351.10">+</text>
<text x="329.48" y="2.05">+</text>
<text x="241.64" y="486.19">.</text>
<text x="396.29" y="184.76">.</text>
<text x="260.98" y="4.48">.</text>
<text x="209.01" y="81.56">+</text>
<text x="59.67" y="165.07">+</text>
<text x="127.12" y="482.96">+</text>
<text x="121.32" y="162.87">*</text>
<text x="134.04" y="321.18">+</text>
<text x="366.29" y="50.45">+</text>
<text x="374.89" y="167.49">+</text>
<text x="476.68" y="42.60">+</text>
<text x="488.98" y="406.62">*</text>
<text x="46.83" y="20.46">.</text>
<text x="322.94" y="392.20">.</text>
<text x="209.13" y="461.82">+</text>
<text x="159.01" y="66.97">+</text>
<text x="56.39" y="442.14">.</text>
<text x="54.79" y="403.23">+</text>
<text x="241.96" y="177.33">.</text>
<text x="179.25" y="148.79">+</text>
<text x="327.69" y="240.41">.</text>
<text x="250.32" y="336.94">+</text>
<text x="372.73" y="405.21">+</text>
<text x="260.09" y="24.83">+</text>
<text x="470.52" y="16.15">+</text>
<text x="375.83" y="393.21">.</text>
<text x="137.23" y="304.42">+</text>
<text x="79.58" y="336.78">+</text>
<text x="22.54" y="10.48">*</text>
<text x="404.73" y="109.09">+</text>
<text x="220.19" y="438.27">+</text>
<text x="408.78" y="273.05">.</text>
<text x="67.20" y="301.87">+</text>
<text x="37.40" y="256.40">*</text>
<text x="71.71" y="393.07">+</text>
<text x="185.92" y="363.25">.</text>
<text x="343.78" y="386.19">.</text>
<text x="279.96" y="493.59">+</text>
<text x="2.30" y="264.00">+</text>
<text x="176.76" y="78.19">.</text>
<text x="133.25" y="429.66">+</text>
<text x="192.94" y="236.81">+</text>
<text x="416.88" y="241.57">*</text>
<text x="378.76" y="31.88">+</text>
<text x="411.85" y="311.83">.</text>
<text x="338.71" y="207.76">.</text>
<text x="311.25" y="410.76">.</text>
<text x="155.65" y="415.88">+</text>
<text x="326.80" y="389.70">.</text>
<text x="164.15" y="172.08">.</text>
<text x="64.99" y="368.65">+</text>
<text x="210.89" y="37.33">*</text>
<text x="184.01" y="270.21">.</text>
<text x="71.83" y="440.08">+</text>
<text x="285.07" y="303.11">+</text>
<text x="164.62" y="228.01">+</text>
<text x="30.01" y="115.93">+</text>
<text x="0.93" y="351.37">.</text>
<text x="206.40" y="495.66">+</text>
<text x="199.04" y="363.83">.</text>
<text x="262.70" y="368.64">+</text>
<text x="344.44" y="11.72">.</text>
<text x="413.85" y="33.13">.</text>
<text x="408.92" y="362.81">+</text>
<text x="42.22" y="98.96">.</text>
<text x="179.79" y="70.50">*</text>
<text x="34.14" y="356.72">+</text>
<text x="345.46" y="230.08">.</text>
<text x="44.33" y="416.51">+</text>
<text x="249.52" y="18.57">.</text>
<text x="8.48" y="262.28">.</text>
<text x="493.61" y="310.82">.</text>
<text x="268.86" y="115.46">+</text>
<text x="94.60" y="114.24">+</text>
<text x="350.71" y="439.84">+</text>
<text x="238.36" y="488.44">.</text>
<text x="405.65" y="256.64">+</text>
<text x="356.30" y="439.41">+</text>
<text x="113.32" y="10.63">.</text>
<text x="368.82" y="49.25">+</text>
<text x="472.80" y="399.52">.</text>
<text x="411.21" y="331.70">.</text>
<text x="472.50" y="486.22">.</text>
<text x="10.38" y="321.23">*</text>
<text x="480.36" y="102.48">+</text>
<text x="273.23" y="407.55">.</text>
<text x="424.97" y="195.08">*</text>
<text x="171.49" y="132.33">.</text>
<text x="223.41" y="166.51">+</text>
<text x="415.94" y="364.96">+</text>
<text x="159.84" y="389.63">+</text>
<text x="334.49" y="287.16">+</text>
<text x="209.12" y="120.58">+</text>
<text x="191.15" y="99.78">+</text>
<text x="7.29" y="251.77">.</text>
<text x="220.10" y="134.65">+</text>
<text x="152.75" y="473.99">+</text>
<text x="278.99" y="370.84">+</text>
<text x="143.06" y="453.52">+</text>
<text x="139.76" y="323.02">+</text>
<text x="97.40" y="235.64">.</text>
<text x="216.13" y="238.08">+</text>
<text x="435.74" y="102.82">+</text>
<text x="334.16" y="138.29">*</text>
<text x="465.82" y="106.87">.</text>
<text x="324.40" y="168.52">.</text>
<text x="174.90" y="107.69">.</text>
<text x="449.85" y="244.77">.</text>
<text x="290.91" y="136.59">+</text>
<text x="464.15" y="129.72">+</text>
<text x="390.58" y="489.12">.</text>
<text x="284.01" y="189.47">+</text>
<text x="283.90" y="356.67">*</text>
<text x="204.15" y="382.60">.</text>
<text x="406.10" y="367.65">.</text>
<text x="106.65" y="143.81">+</text>
<text x="32.75" y="93.97">.</text>
<text x="41.57" y="356.83">.</text>
<text x="152.53" y="141.61">+</text>
<text x="425.54" y="325.90">+</text>
<text x="459.72" y="245.09">.</text>
<text x="269.05" y="163.89">.</text>
<text x="191.97" y="230.97">+</text>
<text x="313.10" y="23.89">+</text>
<text x="135.04" y="308.38">.</text>
<text x="295.27" y="60.95">*</text>
<text x="6.49" y="249.70">.</text>
<text x="101.23" y="236.81">+</text>
<text x="15.70" y="186.39">+</text>
<text x="253.36" y="369.59">.</text>
<text x="174.63" y="204.54">*</text>
<text x="163.69" y="488.97">.</text>
<text x="318.04" y="343.71">*</text>
<text x="281.03" y="83.29">.</text>
<text x="81.13" y="326.30">+</text>
<text x="482.28" y="295.66">*</text>
<text x="13.83" y="220.38">.</text>
<text x="459.05" y="232.35">.</text>
<text x="360.92" y="472.38">*</text>
<text x="292.21" y="373.85">*</text>
<text x="200.36" y="208.21">+</text>
<text x="270.19" y="228.62">*</text>
<text x="63.77" y="197.62">+</text>
<text x="362.73" y="344.61">.</text>
<text x="469.14" y="27.62">+</text>
<text x="38.78" y="320.14">.</text>
<text x="488.27" y="124.65">.</text>
<text x="398.55" y="306.97">.</text>
<text x="257.42" y="88.54">*</text>
<text x="340.43" y="336.09">.</text>
<text x="408.62" y="270.09">.</text>
<text x="487.87" y="267.55">+</text>
<text x="109.86" y="123.95">.</text>
<text x="425.04" y="269.99">+</text>
<text x="180.39" y="147.37">.</text>
<text x="486.20" y="104.00">+</text>

</svg>