
<svg viewBox="0 0 500 500" xmlns="http://www.w.org/2000/svg" width="100%" height="100%" style="background-color: #0a0a14; font-family: 'Courier New', Courier, monospace;">
    <style>
        text { fill: #aaa; font-size: 10px; text-anchor: middle; dominant-baseline: middle; }
    </style>
    <text x="18.31" y="445.07">+</text>
<text x="128.81" y="291.85">+</text>
<text x="430.77" y="224.03">+</text>
<text x="449.96" y="237.54">+</text>
<text x="201.82" y="260.60">.</text>
<text x="146.74" y="363.25">*</text>
<text x="115.92" y="96.06">*</text>
<text x="312.57" y="172.16">*</text>
<text x="51.50" y="129.30">+</text>
<text x="452.70" y="292.57">+</text>
<text x="71.26" y="45.03">.</text>
<text x="449.04" y="327.95">+</text>
<text x="292.99" y="356.82">+</text>
<text x="204.24" y="244.73">.</text>
<text x="171.46" y="468.86">.</text>
<text x="323.79" y="236.09">.</text>
<text x="343.76" y="224.82">+</text>
<text x="195.54" y="383.87">*</text>
<text x="482.16" y="409.51">+</text>
<text x="243.28" y="431.34">.</text>
<text x="442.77" y="335.88">+</text>
<text x="74.91" y="235.18">.</text>
<text x="120.45" y="407.24">+</text>
<text x="449.61" y="194.23">+</text>
<text x="191.45" y="204.06">+</text>
<text x="308.85" y="175.90">+</text>
<text x="230.75" y="211.10">+</text>
<text x="465.05" y="313.77">+</text>
<text x="337.85" y="333.37">.</text>
<text x="497.18" y="472.69">.</text>
<text x="29.93" y="431.85">+</text>
<text x="64.00" y="260.60">*</text>
<text x="277.40" y="194.23">*</text>
<text x="35.65" y="83.06">.</text>
<text x="389.76" y="283.23">.</text>
<text x="423.85" y="347.25">+</text>
<text x="469.93" y="250.57">.</text>
<text x="13.55" y="472.65">.</text>
<text x="27.51" y="485.63">.</text>
<text x="348.20" y="69.87">.</text>
<text x="128.64" y="115.52">.</text>
<text x="425.67" y="67.79">.</text>
<text x="109.53" y="173.29">+</text>
<text x="219.91" y="483.47">.</text>
<text x="447.52" y="272.80">*</text>
<text x="249.45" y="208.24">+</text>
<text x="187.05" y="9.27">.</text>
<text x="179.53" y="276.36">.</text>
<text x="366.65" y="475.32">.</text>
<text x="287.73" y="85.33">+</text>
<text x="175.45" y="156.13">+</text>
<text x="316.71" y="408.76">.</text>
<text x="27.47" y="458.49">+</text>
<text x="448.07" y="100.88">+</text>
<text x="26.12" y="225.70">.</text>
<text x="283.02" y="282.03">+</text>
<text x="437.06" y="258.96">.</text>
<text x="487.10" y="408.93">.</text>
<text x="321.06" y="112.46">.</text>
<text x="158.64" y="409.92">.</text>
<text x="27.47" y="166.97">.</text>
<text x="394.04" y="269.40">+</text>
<text x="264.01" y="188.07">.</text>
<text x="347.90" y="119.82">+</text>
<text x="386.64" y="285.90">.</text>
<text x="27.15" y="472.31">.</text>
<text x="388.84" y="369.72">+</text>
<text x="410.81" y="64.99">.</text>
<text x="450.21" y="26.56">+</text>
<text x="431.18" y="88.99">+</text>
<text x="167.45" y="483.80">.</text>
<text x="89.85" y="141.22">.</text>
<text x="484.53" y="369.35">*</text>
<text x="185.11" y="57.62">.</text>
<text x="40.36" y="369.64">.</text>
<text x="8.82" y="209.64">+</text>
<text x="69.79" y="218.85">+</text>
<text x="76.20" y="56.16">+</text>
<text x="267.73" y="235.44">.</text>
<text x="227.57" y="116.50">.</text>
<text x="295.99" y="343.13">.</text>
<text x="60.60" y="272.98">.</text>
<text x="158.71" y="30.55">.</text>
<text x="116.99" y="32.91">.</text>
<text x="400.42" y="384.24">.</text>
<text x="98.65" y="169.15">.</text>
<text x="468.19" y="284.09">+</text>
<text x="194.94" y="368.12">+</text>
<text x="160.32" y="491.98">.</text>
<text x="490.28" y="252.77">.</text>
<text x="128.72" y="230.95">*</text>
<text x="219.03" y="347.52">.</text>
<text x="220.53" y="259.64">+</text>
<text x="392.78" y="232.59">+</text>
<text x="359.55" y="359.45">+</text>
<text x="497.73" y="430.94">+</text>
<text x="103.21" y="59.40">+</text>
<text x="448.45" y="340.54">.</text>
<text x="443.09" y="230.02">.</text>
<text x="382.07" y="149.97">+</text>
<text x="349.68" y="320.72">.</text>
<text x="295.50" y="115.00">*</text>
<text x="378.40" y="488.38">+</text>
<text x="115.05" y="15.90">.</text>
<text x="386.45" y="410.31">+</text>
<text x="158.58" y="146.97">*</text>
<text x="119.25" y="398.13">.</text>
<text x="46.66" y="107.86">.</text>
<text x="401.35" y="24.99">.</text>
<text x="246.54" y="208.39">+</text>
<text x="496.21" y="374.39">.</text>
<text x="82.87" y="265.16">+</text>
<text x="341.91" y="422.35">.</text>
<text x="255.04" y="6.04">.</text>
<text x="146.63" y="276.35">.</text>
<text x="97.67" y="497.17">+</text>
<text x="226.27" y="267.76">.</text>
<text x="14.81" y="366.72">.</text>
<text x="373.07" y="42.96">*</text>
<text x="351.20" y="26.33">*</text>
<text x="301.68" y="103.30">+</text>
<text x="140.43" y="320.04">+</text>
<text x="202.17" y="163.33">.</text>
<text x="263.02" y="332.03">*</text>
<text x="115.26" y="114.85">.</text>
<text x="497.45" y="278.02">.</text>
<text x="256.13" y="287.45">*</text>
<text x="125.07" y="49.73">.</text>
<text x="147.94" y="347.79">.</text>
<text x="315.96" y="384.30">+</text>
<text x="313.03" y="160.38">.</text>
<text x="407.42" y="498.38">+</text>
<text x="323.19" y="238.54">+</text>
<text x="367.51" y="282.71">.</text>
<text x="227.48" y="68.09">*</text>
<text x="177.81" y="301.18">.</text>
<text x="375.15" y="178.88">.</text>
<text x="99.37" y="329.60">+</text>
<text x="63.79" y="313.48">.</text>
<text x="159.09" y="363.32">.</text>
<text x="131.74" y="301.98">*</text>
<text x="395.23" y="279.15">*</text>
<text x="54.85" y="138.55">+</text>
<text x="274.23" y="496.18">*</text>
<text x="296.93" y="268.56">.</text>
<text x="315.95" y="348.59">+</text>
<text x="121.86" y="184.16">+</text>
<text x="1.25" y="268.38">.</text>
<text x="129.57" y="247.60">+</text>
<text x="210.16" y="257.62">+</text>
<text x="453.09" y="383.36">.</text>
<text x="454.74" y="156.13">+</text>
<text x="111.80" y="194.43">.</text>
<text x="321.83" y="369.29">+</text>
<text x="151.59" y="249.21">.</text>
<text x="101.08" y="325.89">*</text>
<text x="207.26" y="346.85">+</text>
<text x="47.26" y="55.71">+</text>
<text x="484.82" y="102.35">+</text>
<text x="122.90" y="102.67">*</text>
<text x="309.01" y="56.56">+</text>
<text x="163.26" y="276.36">*</text>
<text x="440.96" y="496.97">+</text>
<text x="358.55" y="360.60">.</text>
<text x="259.24" y="175.04">.</text>
<text x="193.17" y="8.09">.</text>
<text x="59.53" y="355.80">+</text>
<text x="109.72" y="478.23">*</text>
<text x="390.50" y="472.97">*</text>
<text x="96.82" y="404.06">.</text>
<text x="111.30" y="12.77">.</text>
<text x="294.38" y="437.77">.</text>
<text x="14.85" y="350.15">.</text>
<text x="318.41" y="209.80">+</text>
<text x="284.74" y="346.80">.</text>
<text x="66.40" y="379.25">+</text>
<text x="330.14" y="26.96">.</text>
<text x="354.15" y="84.01">+</text>
<text x="245.99" y="297.46">+</text>
<text x="139.19" y="67.73">.</text>
<text x="251.89" y="278.25">*</text>
<text x="494.70" y="356.90">+</text>
<text x="96.87" y="457.10">+</text>
<text x="357.29" y="145.82">.</text>
<text x="85.89" y="153.51">.</text>
<text x="168.17" y="99.93">.</text>
<text x="412.34" y="45.35">.</text>
<text x="285.35" y="93.38">.</text>
<text x="235.96" y="353.45">.</text>
<text x="238.73" y="448.87">+</text>
<text x="47.95" y="93.63">.</text>
<text x="376.61" y="405.09">+</text>
<text x="20.66" y="71.44">.</text>
<text x="456.82" y="65.22">.</text>
<text x="302.68" y="283.84">.</text>
<text x="435.18" y="303.40">.</text>
<text x="331.20" y="262.05">.</text>
<text x="219.21" y="221.81">*</text>
<text x="326.85" y="175.82">+</text>
<text x="225.34" y="254.03">+</text>
<text x="147.91" y="27.04">*</text>
<text x="471.90" y="341.90">*</text>
<text x="450.70" y="29.39">+</text>
<text x="332.44" y="165.24">*</text>
<text x="432.06" y="357.10">.</text>

</svg>