
<svg viewBox="0 0 500 500" xmlns="http://www.w.org/2000/svg" width="100%" height="100%" style="background-color: #0a0a14; font-family: 'Courier New', Courier, monospace;">
    <style>
        text { fill: #aaa; font-size: 10px; text-anchor: middle; dominant-baseline: middle; }
    </style>
    <text x="25.62" y="87.68">.</text>
<text x="487.30" y="58.35">+</text>
<text x="459.69" y="239.94">*</text>
<text x="162.02" y="495.77">.</text>
<text x="51.91" y="497.04">+</text>
<text x="190.70" y="373.73">+</text>
<text x="83.29" y="348.91">*</text>
<text x="57.99" y="447.09">+</text>
<text x="403.14" y="82.77">+</text>
<text x="308.02" y="288.67">*</text>
<text x="341.75" y="213.51">.</text>
<text x="290.75" y="455.61">+</text>
<text x="222.01" y="183.76">+</text>
<text x="432.64" y="441.15">.</text>
<text x="62.89" y="261.55">.</text>
<text x="91.00" y="323.53">.</text>
<text x="370.22" y="385.86">.</text>
<text x="146.33" y="79.24">*</text>
<text x="427.67" y="375.81">+</text>
<text x="411.38" y="412.34">.</text>
<text x="90.98" y="384.46">+</text>
<text x="470.08" y="150.56">.</text>
<text x="106.29" y="445.82">+</text>
<text x="69.00" y="143.54">.</text>
<text x="92.07" y="201.74">.</text>
<text x="103.93" y="403.61">.</text>
<text x="332.42" y="80.35">.</text>
<text x="28.94" y="28.46">.</text>
<text x="279.10" y="414.71">.</text>
<text x="412.03" y="69.03">+</text>
<text x="175.77" y="221.18">*</text>
<text x="257.15" y="44.18">.</text>
<text x="224.18" y="492.45">+</text>
<text x="92.36" y="80.85">.</text>
<text x="21.69" y="65.46">.</text>
<text x="219.20" y="71.15">.</text>
<text x="240.16" y="168.61">.</text>
<text x="340.71" y="97.74">+</text>
<text x="412.18" y="243.01">.</text>
<text x="142.95" y="203.44">.</text>
<text x="48.95" y="192.20">.</text>
<text x="63.16" y="172.52">.</text>
<text x="147.45" y="320.60">+</text>
<text x="215.93" y="21.52">+</text>
<text x="402.39" y="82.16">.</text>
<text x="373.02" y="415.18">.</text>
<text x="105.47" y="363.22">.</text>
<text x="242.74" y="308.98">+</text>
<text x="368.90" y="304.36">*</text>
<text x="59.99" y="234.56">*</text>
<text x="354.85" y="113.87">*</text>
<text x="392.47" y="176.87">*</text>
<text x="211.18" y="368.91">+</text>
<text x="95.59" y="43.81">.</text>
<text x="95.83" y="64.56">*</text>
<text x="46.19" y="422.59">+</text>
<text x="139.67" y="289.90">+</text>
<text x="292.75" y="354.24">.</text>
<text x="451.63" y="50.43">.</text>
<text x="370.66" y="267.57">.</text>
<text x="243.56" y="58.52">+</text>
<text x="236.41" y="489.68">+</text>
<text x="420.81" y="19.43">*</text>
<text x="423.64" y="350.22">.</text>
<text x="196.99" y="132.65">*</text>
<text x="410.63" y="371.72">+</text>
<text x="227.08" y="36.09">.</text>
<text x="371.64" y="445.44">*</text>
<text x="189.95" y="218.80">.</text>
<text x="140.74" y="282.65">*</text>
<text x="268.10" y="446.37">.</text>
<text x="149.75" y="224.78">*</text>
<text x="72.02" y="399.70">.</text>
<text x="475.39" y="363.07">+</text>
<text x="427.05" y="420.85">.</text>
<text x="348.33" y="217.90">+</text>
<text x="317.50" y="448.11">+</text>
<text x="46.35" y="66.44">+</text>
<text x="388.30" y="197.94">+</text>
<text x="490.38" y="45.43">.</text>
<text x="250.77" y="47.50">.</text>
<text x="345.90" y="46.29">+</text>
<text x="110.32" y="175.53">*</text>
<text x="28.04" y="300.19">.</text>
<text x="178.16" y="382.99">+</text>
<text x="356.47" y="124.88">.</text>
<text x="113.45" y="52.02">+</text>
<text x="9.75" y="411.85">+</text>
<text x="180.80" y="295.83">.</text>
<text x="285.74" y="17.74">.</text>
<text x="178.73" y="472.73">*</text>
<text x="399.62" y="327.67">+</text>
<text x="139.45" y="340.93">+</text>
<text x="214.28" y="266.10">.</text>
<text x="217.65" y="261.99">+</text>
<text x="289.18" y="473.84">*</text>
<text x="288.57" y="406.02">.</text>
<text x="305.97" y="455.77">+</text>
<text x="276.59" y="402.98">+</text>
<text x="298.08" y="275.17">*</text>
<text x="494.47" y="112.24">*</text>
<text x="283.69" y="135.46">+</text>
<text x="227.47" y="74.31">+</text>
<text x="481.22" y="84.64">+</text>
<text x="28.43" y="167.12">.</text>
<text x="290.80" y="238.02">*</text>
<text x="24.09" y="168.03">+</text>
<text x="215.42" y="492.87">.</text>
<text x="60.72" y="431.55">+</text>
<text x="365.17" y="471.30">.</text>
<text x="222.25" y="259.67">+</text>
<text x="244.46" y="138.55">+</text>
<text x="409.21" y="60.77">.</text>
<text x="55.07" y="226.12">+</text>
<text x="335.85" y="311.32">*</text>
<text x="21.58" y="340.54">.</text>
<text x="462.59" y="465.89">.</text>
<text x="258.29" y="361.05">+</text>
<text x="496.73" y="147.81">.</text>
<text x="172.71" y="255.48">+</text>
<text x="302.09" y="336.57">.</text>
<text x="162.68" y="127.60">+</text>
<text x="243.97" y="276.30">+</text>
<text x="79.29" y="206.28">+</text>
<text x="341.86" y="104.11">*</text>
<text x="109.43" y="106.46">*</text>
<text x="419.45" y="102.21">+</text>
<text x="135.50" y="167.57">+</text>
<text x="141.72" y="383.77">+</text>
<text x="15.91" y="308.42">.</text>
<text x="128.74" y="378.68">.</text>
<text x="324.04" y="296.64">*</text>
<text x="205.08" y="97.54">+</text>
<text x="287.56" y="112.69">+</text>
<text x="348.23" y="129.50">+</text>
<text x="210.93" y="122.69">.</text>
<text x="417.46" y="239.45">.</text>
<text x="232.49" y="100.95">+</text>
<text x="364.01" y="415.62">+</text>
<text x="375.76" y="123.82">+</text>
<text x="137.92" y="327.00">+</text>
<text x="3.51" y="469.70">+</text>
<text x="25.65" y="454.82">.</text>
<text x="397.11" y="24.77">.</text>
<text x="257.11" y="441.63">+</text>
<text x="272.19" y="444.88">+</text>
<text x="358.09" y="245.89">.</text>
<text x="171.12" y="152.25">+</text>
<text x="78.93" y="32.75">+</text>
<text x="20.56" y="483.66">*</text>
<text x="453.44" y="187.55">+</text>
<text x="146.42" y="23.32">.</text>
<text x="189.68" y="270.52">.</text>
<text x="400.47" y="398.78">.</text>
<text x="241.89" y="39.92">.</text>
<text x="496.81" y="475.12">.</text>
<text x="109.91" y="408.85">+</text>
<text x="247.60" y="60.44">.</text>
<text x="160.91" y="14.24">.</text>
<text x="489.35" y="468.16">.</text>
<text x="470.83" y="279.42">.</text>
<text x="100.09" y="415.14">.</text>
<text x="458.07" y="492.99">+</text>
<text x="115.02" y="305.94">.</text>
<text x="376.60" y="141.68">+</text>
<text x="3.42" y="320.24">.</text>
<text x="315.91" y="339.01">*</text>
<text x="4.36" y="81.60">.</text>
<text x="72.37" y="364.67">+</text>
<text x="349.03" y="45.02">*</text>
<text x="350.46" y="306.03">+</text>
<text x="418.75" y="466.92">+</text>
<text x="364.76" y="121.19">*</text>
<text x="410.19" y="462.70">.</text>
<text x="369.97" y="219.18">+</text>
<text x="254.50" y="311.81">.</text>
<text x="411.96" y="60.51">.</text>
<text x="345.09" y="258.59">+</text>
<text x="48.20" y="253.50">.</text>
<text x="482.51" y="484.10">.</text>
<text x="394.54" y="483.42">*</text>
<text x="360.57" y="472.30">.</text>
<text x="330.87" y="485.31">.</text>
<text x="444.96" y="307.06">+</text>
<text x="475.01" y="82.42">.</text>
<text x="119.96" y="197.44">.</text>
<text x="136.80" y="78.82">+</text>
<text x="486.98" y="354.97">+</text>
<text x="303.93" y="377.52">+</text>
<text x="469.01" y="104.03">+</text>
<text x="490.78" y="1.37">.</text>
<text x="384.53" y="137.17">+</text>
<text x="215.37" y="277.36">+</text>
<text x="154.54" y="206.72">*</text>
<text x="183.63" y="323.88">*</text>
<text x="113.26" y="148.59">.</text>
<text x="68.42" y="234.58">*</text>
<text x="381.08" y="251.52">.</text>
<text x="293.09" y="449.50">.</text>
<text x="224.38" y="342.45">+</text>
<text x="297.80" y="181.65">.</text>
<text x="441.93" y="99.93">.</text>
<text x="329.40" y="488.25">+</text>
<text x="480.44" y="259.45">+</text>
<text x="116.57" y="46.38">.</text>
<text x="70.66" y="237.18">.</text>
<text x="491.59" y="462.60">.</text>
<text x="485.07" y="477.86">*</text>
<text x="171.72" y="393.19">+</text>
<text x="141.32" y="54.54">+</text>
<text x="304.87" y="426.24">+</text>
<text x="89.39" y="323.05">*</text>

</svg>