
<svg viewBox="0 0 500 500" xmlns="http://www.w.org/2000/svg" width="100%" height="100%" style="background-color: #0a0a14; font-family: 'Courier New', Courier, monospace;">
    <style>
        text { fill: #aaa; font-size: 10px; text-anchor: middle; dominant-baseline: middle; }
    </style>
    <text x="69.14" y="1.42">.</text>
<text x="278.10" y="455.14">*</text>
<text x="381.24" y="168.61">*</text>
<text x="124.54" y="443.82">.</text>
<text x="88.43" y="247.82">+</text>
<text x="152.31" y="260.81">+</text>
<text x="409.23" y="67.67">*</text>
<text x="373.26" y="301.03">.</text>
<text x="408.63" y="22.26">.</text>
<text x="359.02" y="340.29">*</text>
<text x="354.64" y="70.53">+</text>
<text x="167.89" y="422.73">+</text>
<text x="406.84" y="92.87">.</text>
<text x="167.13" y="388.12">.</text>
<text x="206.38" y="265.75">+</text>
<text x="66.95" y="102.39">.</text>
<text x="122.13" y="96.48">.</text>
<text x="191.00" y="46.53">+</text>
<text x="379.83" y="307.57">+</text>
<text x="467.36" y="407.85">.</text>
<text x="376.51" y="311.01">+</text>
<text x="486.89" y="271.20">.</text>
<text x="234.13" y="276.19">*</text>
<text x="295.48" y="27.13">+</text>
<text x="332.24" y="39.60">*</text>
<text x="78.67" y="56.90">+</text>
<text x="142.37" y="92.84">.</text>
<text x="390.02" y="254.89">.</text>
<text x="168.99" y="239.51">.</text>
<text x="141.25" y="471.62">.</text>
<text x="44.15" y="290.07">.</text>
<text x="75.49" y="321.97">+</text>
<text x="350.94" y="82.34">*</text>
<text x="361.97" y="33.71">.</text>
<text x="448.25" y="144.73">+</text>
<text x="47.62" y="497.48">.</text>
<text x="54.90" y="141.58">.</text>
<text x="220.22" y="339.81">*</text>
<text x="254.11" y="107.93">+</text>
<text x="366.50" y="425.46">.</text>
<text x="259.40" y="440.36">+</text>
<text x="225.45" y="228.16">+</text>
<text x="218.79" y="349.44">+</text>
<text x="77.97" y="177.22">+</text>
<text x="449.47" y="460.64">.</text>
<text x="388.22" y="487.74">.</text>
<text x="131.08" y="433.94">.</text>
<text x="479.47" y="392.72">*</text>
<text x="211.41" y="339.75">.</text>
<text x="478.68" y="291.21">+</text>
<text x="20.95" y="333.84">.</text>
<text x="286.18" y="411.43">+</text>
<text x="242.59" y="272.11">.</text>
<text x="434.97" y="28.28">.</text>
<text x="8.09" y="78.18">.</text>
<text x="225.32" y="302.63">.</text>
<text x="155.88" y="276.37">*</text>
<text x="463.34" y="406.49">*</text>
<text x="50.10" y="329.05">+</text>
<text x="361.53" y="363.37">.</text>
<text x="230.43" y="491.40">.</text>
<text x="157.23" y="102.31">+</text>
<text x="302.17" y="215.66">+</text>
<text x="391.74" y="74.05">+</text>
<text x="349.67" y="308.83">*</text>
<text x="333.96" y="15.60">+</text>
<text x="220.51" y="9.40">.</text>
<text x="146.53" y="257.86">+</text>
<text x="94.60" y="49.13">.</text>
<text x="88.52" y="87.45">*</text>
<text x="173.90" y="450.96">.</text>
<text x="356.28" y="342.12">.</text>
<text x="381.09" y="218.03">.</text>
<text x="60.47" y="104.93">.</text>
<text x="448.08" y="84.92">*</text>
<text x="344.13" y="245.84">.</text>
<text x="172.92" y="89.69">.</text>
<text x="303.46" y="329.44">.</text>
<text x="434.12" y="12.96">.</text>
<text x="68.52" y="26.91">.</text>
<text x="405.40" y="353.71">+</text>
<text x="266.88" y="38.28">.</text>
<text x="440.60" y="204.35">+</text>
<text x="14.34" y="483.80">+</text>
<text x="125.47" y="5.51">+</text>
<text x="12.24" y="26.09">*</text>
<text x="108.66" y="431.65">+</text>
<text x="345.19" y="429.07">+</text>
<text x="488.93" y="187.21">*</text>
<text x="40.35" y="158.00">.</text>
<text x="384.28" y="475.17">.</text>
<text x="331.29" y="186.15">.</text>
<text x="334.49" y="395.35">.</text>
<text x="251.78" y="72.31">+</text>
<text x="11.25" y="437.27">+</text>
<text x="322.31" y="476.23">.</text>
<text x="30.41" y="423.63">.</text>
<text x="359.98" y="224.56">.</text>
<text x="94.19" y="116.63">+</text>
<text x="461.96" y="499.74">+</text>
<text x="448.15" y="492.27">.</text>
<text x="176.78" y="201.48">.</text>
<text x="490.13" y="4.25">+</text>
<text x="291.94" y="166.36">.</text>
<text x="321.80" y="443.13">*</text>
<text x="106.65" y="382.32">.</text>
<text x="300.44" y="223.36">+</text>
<text x="135.99" y="158.74">.</text>
<text x="193.01" y="51.63">.</text>
<text x="116.43" y="369.15">*</text>
<text x="376.41" y="458.79">+</text>
<text x="354.71" y="471.70">.</text>
<text x="159.54" y="93.63">+</text>
<text x="491.74" y="266.53">+</text>
<text x="255.53" y="211.17">.</text>
<text x="289.58" y="305.53">*</text>
<text x="411.85" y="14.65">.</text>
<text x="73.88" y="443.06">+</text>
<text x="311.97" y="434.49">*</text>
<text x="419.79" y="101.27">+</text>
<text x="157.73" y="368.13">+</text>
<text x="299.31" y="478.89">+</text>
<text x="300.25" y="195.84">.</text>
<text x="275.11" y="459.97">.</text>
<text x="179.08" y="386.14">+</text>
<text x="368.24" y="444.35">*</text>
<text x="337.11" y="55.08">.</text>
<text x="278.96" y="256.16">.</text>
<text x="63.46" y="309.87">+</text>
<text x="209.68" y="240.75">+</text>
<text x="212.68" y="102.49">.</text>
<text x="194.49" y="280.25">+</text>
<text x="3.38" y="448.54">.</text>
<text x="63.89" y="191.41">+</text>
<text x="288.66" y="271.82">+</text>
<text x="217.92" y="475.54">+</text>
<text x="267.56" y="118.53">+</text>
<text x="133.28" y="20.37">+</text>
<text x="87.18" y="317.57">*</text>
<text x="372.60" y="81.30">+</text>
<text x="183.59" y="496.54">.</text>
<text x="453.07" y="92.97">.</text>
<text x="468.85" y="107.01">+</text>
<text x="343.24" y="452.91">+</text>
<text x="20.33" y="392.87">+</text>
<text x="330.76" y="172.15">.</text>
<text x="96.30" y="285.87">.</text>
<text x="489.55" y="290.87">+</text>
<text x="45.25" y="21.91">+</text>
<text x="126.86" y="74.86">+</text>
<text x="33.76" y="46.71">.</text>
<text x="367.25" y="117.73">.</text>
<text x="288.14" y="171.96">+</text>
<text x="147.62" y="257.43">+</text>
<text x="337.36" y="161.98">+</text>
<text x="441.92" y="42.82">.</text>
<text x="305.25" y="444.91">+</text>
<text x="499.78" y="90.20">+</text>
<text x="79.11" y="455.17">*</text>
<text x="15.53" y="319.62">*</text>
<text x="335.21" y="306.59">+</text>
<text x="354.12" y="333.32">.</text>
<text x="379.24" y="38.54">+</text>
<text x="43.52" y="404.18">+</text>
<text x="248.48" y="470.21">*</text>
<text x="401.95" y="431.42">.</text>
<text x="377.99" y="172.24">.</text>
<text x="462.07" y="208.84">.</text>
<text x="498.58" y="296.66">+</text>
<text x="262.20" y="161.41">.</text>
<text x="132.94" y="347.29">.</text>
<text x="393.74" y="283.20">*</text>
<text x="4.40" y="285.11">.</text>
<text x="249.27" y="23.07">.</text>
<text x="359.50" y="64.08">.</text>
<text x="184.25" y="113.66">+</text>
<text x="299.07" y="394.16">+</text>
<text x="164.28" y="272.09">+</text>
<text x="448.08" y="453.64">+</text>
<text x="268.87" y="489.41">+</text>
<text x="23.67" y="337.59">*</text>
<text x="448.73" y="191.69">+</text>
<text x="139.17" y="77.78">.</text>
<text x="218.37" y="144.63">+</text>
<text x="26.77" y="262.22">+</text>
<text x="176.91" y="496.07">+</text>
<text x="98.58" y="176.27">.</text>
<text x="392.30" y="444.09">*</text>
<text x="164.43" y="405.38">.</text>
<text x="383.89" y="240.74">.</text>
<text x="328.78" y="60.77">.</text>
<text x="468.88" y="180.07">+</text>
<text x="367.10" y="49.14">+</text>
<text x="124.65" y="188.41">+</text>
<text x="351.19" y="381.04">.</text>
<text x="151.82" y="290.60">.</text>
<text x="299.74" y="479.70">+</text>
<text x="106.70" y="241.56">.</text>
<text x="203.51" y="336.93">+</text>
<text x="361.90" y="116.63">.</text>
<text x="497.86" y="68.97">*</text>
<text x="155.27" y="420.27">.</text>
<text x="118.12" y="261.85">.</text>
<text x="198.73" y="435.86">*</text>
<text x="7.47" y="77.08">.</text>
<text x="220.80" y="77.22">.</text>
<text x="475.05" y="18.22">+</text>
<text x="241.84" y="496.86">.</text>
<text x="373.09" y="177.98">+</text>
<text x="240.48" y="407.50">.</text>
<text x="193.12" y="208.05">+</text>
<text x="494.34" y="220.35">*</text>
<text x="67.85" y="321.86">+</text>
<text x="38.82" y="250.16">.</text>
<text x="181.15" y="43.43">.</text>

</svg>