
<svg viewBox="0 0 500 500" xmlns="http://www.w.org/2000/svg" width="100%" height="100%" style="background-color: #0a0a14; font-family: 'Courier New', Courier, monospace;">
    <style>
        text { fill: #aaa; font-size: 10px; text-anchor: middle; dominant-baseline: middle; }
    </style>
    <text x="127.57" y="10.54">.</text>
<text x="443.21" y="343.31">.</text>
<text x="77.73" y="225.23">.</text>
<text x="303.44" y="154.35">*</text>
<text x="230.11" y="159.81">+</text>
<text x="217.33" y="145.74">+</text>
<text x="164.92" y="297.28">.</text>
<text x="263.13" y="50.60">*</text>
<text x="50.19" y="302.92">+</text>
<text x="130.96" y="215.54">+</text>
<text x="150.31" y="405.11">.</text>
<text x="204.73" y="14.33">.</text>
<text x="473.01" y="439.72">.</text>
<text x="291.54" y="88.36">+</text>
<text x="209.78" y="242.73">+</text>
<text x="34.43" y="445.61">*</text>
<text x="265.09" y="173.63">+</text>
<text x="465.25" y="432.66">+</text>
<text x="235.41" y="344.31">+</text>
<text x="447.89" y="261.74">+</text>
<text x="70.83" y="143.84">.</text>
<text x="137.98" y="478.06">+</text>
<text x="283.06" y="124.19">+</text>
<text x="381.48" y="115.72">+</text>
<text x="107.73" y="472.99">.</text>
<text x="100.38" y="33.46">+</text>
<text x="276.79" y="84.63">+</text>
<text x="226.56" y="9.59">.</text>
<text x="417.81" y="375.52">.</text>
<text x="351.60" y="339.44">*</text>
<text x="285.75" y="254.89">+</text>
<text x="160.47" y="278.19">.</text>
<text x="365.36" y="88.86">*</text>
<text x="356.32" y="265.21">.</text>
<text x="299.01" y="125.73">.</text>
<text x="427.51" y="415.75">.</text>
<text x="380.88" y="30.30">+</text>
<text x="332.06" y="416.72">+</text>
<text x="3.11" y="259.71">.</text>
<text x="6.85" y="55.48">.</text>
<text x="313.88" y="310.47">+</text>
<text x="420.08" y="452.81">+</text>
<text x="390.79" y="69.95">+</text>
<text x="291.36" y="222.62">+</text>
<text x="32.85" y="126.89">+</text>
<text x="279.29" y="432.81">+</text>
<text x="392.47" y="54.87">.</text>
<text x="13.33" y="94.40">.</text>
<text x="270.55" y="123.77">+</text>
<text x="261.74" y="185.44">*</text>
<text x="200.27" y="446.38">.</text>
<text x="366.19" y="27.43">+</text>
<text x="304.13" y="256.46">+</text>
<text x="94.29" y="376.21">*</text>
<text x="187.98" y="445.65">.</text>
<text x="309.64" y="411.92">.</text>
<text x="333.15" y="317.76">+</text>
<text x="393.72" y="13.29">+</text>
<text x="144.34" y="433.94">.</text>
<text x="96.12" y="496.38">.</text>
<text x="339.59" y="397.94">.</text>
<text x="126.48" y="372.82">.</text>
<text x="416.00" y="472.97">*</text>
<text x="14.73" y="105.12">.</text>
<text x="284.30" y="121.25">.</text>
<text x="128.96" y="135.12">+</text>
<text x="188.92" y="444.64">*</text>
<text x="385.02" y="33.44">+</text>
<text x="131.01" y="228.59">+</text>
<text x="265.40" y="438.08">+</text>
<text x="335.48" y="166.78">+</text>
<text x="62.03" y="215.48">+</text>
<text x="463.59" y="13.76">.</text>
<text x="195.76" y="476.00">.</text>
<text x="490.76" y="384.59">+</text>
<text x="247.49" y="275.44">+</text>
<text x="186.55" y="221.31">.</text>
<text x="84.97" y="431.45">+</text>
<text x="159.09" y="257.54">+</text>
<text x="241.55" y="42.39">+</text>
<text x="17.71" y="359.85">+</text>
<text x="287.56" y="340.05">+</text>
<text x="478.86" y="197.35">*</text>
<text x="166.28" y="1.50">*</text>
<text x="123.69" y="410.87">+</text>
<text x="454.98" y="209.66">*</text>
<text x="107.48" y="17.98">+</text>
<text x="266.10" y="358.49">+</text>
<text x="153.97" y="410.19">+</text>
<text x="275.87" y="193.84">.</text>
<text x="168.76" y="41.21">+</text>
<text x="416.37" y="328.98">+</text>
<text x="498.07" y="275.82">+</text>
<text x="167.19" y="290.35">.</text>
<text x="51.50" y="393.44">.</text>
<text x="313.63" y="215.28">+</text>
<text x="412.51" y="434.69">.</text>
<text x="156.55" y="72.31">+</text>
<text x="319.59" y="88.66">+</text>
<text x="386.65" y="400.35">.</text>
<text x="355.30" y="457.49">.</text>
<text x="237.30" y="354.96">+</text>
<text x="136.85" y="287.39">.</text>
<text x="210.57" y="243.98">+</text>
<text x="347.46" y="146.15">+</text>
<text x="465.27" y="94.88">.</text>
<text x="247.66" y="318.37">+</text>
<text x="117.73" y="488.78">.</text>
<text x="105.22" y="321.32">*</text>
<text x="81.31" y="4.06">+</text>
<text x="190.91" y="279.16">.</text>
<text x="55.00" y="489.86">+</text>
<text x="144.67" y="98.80">+</text>
<text x="41.98" y="380.69">.</text>
<text x="340.65" y="450.74">+</text>
<text x="50.53" y="445.00">.</text>
<text x="281.45" y="465.71">.</text>
<text x="76.14" y="272.54">+</text>
<text x="279.28" y="414.72">.</text>
<text x="486.02" y="398.56">+</text>
<text x="195.81" y="360.81">*</text>
<text x="237.00" y="223.79">.</text>
<text x="464.81" y="243.40">+</text>
<text x="489.29" y="68.48">*</text>
<text x="371.21" y="336.12">+</text>
<text x="26.09" y="439.94">+</text>
<text x="392.57" y="58.21">+</text>
<text x="305.17" y="9.75">+</text>
<text x="399.22" y="231.89">+</text>
<text x="336.80" y="390.66">*</text>
<text x="450.42" y="215.24">*</text>
<text x="154.29" y="32.33">+</text>
<text x="382.86" y="14.51">+</text>
<text x="279.32" y="493.63">+</text>
<text x="479.17" y="191.93">+</text>
<text x="205.57" y="67.81">+</text>
<text x="412.03" y="102.94">*</text>
<text x="379.16" y="427.59">+</text>
<text x="436.77" y="254.82">.</text>
<text x="123.45" y="209.09">*</text>
<text x="470.65" y="444.33">+</text>
<text x="423.10" y="487.79">+</text>
<text x="298.78" y="24.38">.</text>
<text x="391.01" y="338.72">*</text>
<text x="10.83" y="473.44">+</text>
<text x="367.09" y="346.99">+</text>
<text x="341.17" y="317.60">.</text>
<text x="91.50" y="29.74">+</text>
<text x="96.91" y="267.07">.</text>
<text x="372.01" y="188.90">+</text>
<text x="88.01" y="484.62">+</text>
<text x="31.87" y="496.32">.</text>
<text x="8.94" y="168.67">+</text>
<text x="424.73" y="80.05">+</text>
<text x="308.00" y="37.48">+</text>
<text x="433.82" y="99.60">.</text>
<text x="78.17" y="38.06">.</text>
<text x="270.82" y="310.66">.</text>
<text x="378.15" y="148.50">+</text>
<text x="135.52" y="112.45">.</text>
<text x="174.65" y="46.80">+</text>
<text x="481.16" y="191.90">.</text>
<text x="141.49" y="324.15">.</text>
<text x="456.82" y="131.70">+</text>
<text x="209.81" y="34.12">+</text>
<text x="379.36" y="237.95">*</text>
<text x="442.33" y="90.51">*</text>
<text x="259.72" y="365.80">.</text>
<text x="62.52" y="443.58">.</text>
<text x="281.39" y="290.79">+</text>
<text x="437.52" y="413.38">+</text>
<text x="424.83" y="413.94">+</text>
<text x="64.66" y="64.99">.</text>
<text x="485.00" y="342.88">+</text>
<text x="163.70" y="100.11">.</text>
<text x="120.64" y="280.33">.</text>
<text x="206.58" y="134.47">+</text>
<text x="476.89" y="304.24">.</text>
<text x="304.66" y="210.80">.</text>
<text x="359.55" y="27.35">+</text>
<text x="227.60" y="49.52">+</text>
<text x="126.46" y="467.86">.</text>
<text x="415.50" y="435.82">.</text>
<text x="445.44" y="13.52">+</text>
<text x="260.97" y="173.50">.</text>
<text x="150.79" y="150.65">+</text>
<text x="193.58" y="126.52">*</text>
<text x="448.15" y="337.06">.</text>
<text x="473.32" y="169.85">.</text>
<text x="445.45" y="225.83">.</text>
<text x="95.36" y="441.17">.</text>
<text x="260.20" y="131.59">.</text>
<text x="462.70" y="270.26">.</text>
<text x="250.72" y="25.43">+</text>
<text x="156.99" y="386.20">*</text>
<text x="494.06" y="414.49">.</text>
<text x="13.96" y="402.15">*</text>
<text x="162.87" y="355.32">.</text>
<text x="158.81" y="308.75">+</text>
<text x="338.80" y="253.77">+</text>
<text x="107.60" y="102.32">+</text>
<text x="325.03" y="335.17">+</text>
<text x="289.00" y="151.88">+</text>
<text x="384.75" y="332.33">+</text>
<text x="173.02" y="69.06">*</text>
<text x="67.44" y="201.38">+</text>
<text x="379.20" y="159.16">.</text>
<text x="345.11" y="123.71">.</text>

</svg>