
<svg viewBox="0 0 500 500" xmlns="http://www.w.org/2000/svg" width="100%" height="100%" style="background-color: #0a0a14; font-family: 'Courier New', Courier, monospace;">
    <style>
        text { fill: #aaa; font-size: 10px; text-anchor: middle; dominant-baseline: middle; }
    </style>
    <text x="286.73" y="430.68">.</text>
<text x="75.05" y="1.58">+</text>
<text x="75.75" y="267.19">+</text>
<text x="38.13" y="440.69">.</text>
<text x="296.11" y="455.58">.</text>
<text x="219.05" y="329.60">.</text>
<text x="344.17" y="305.11">*</text>
<text x="429.23" y="242.34">+</text>
<text x="459.71" y="112.71">*</text>
<text x="222.95" y="496.51">.</text>
<text x="153.87" y="177.03">+</text>
<text x="469.63" y="412.86">+</text>
<text x="204.46" y="488.21">.</text>
<text x="41.78" y="449.51">.</text>
<text x="163.57" y="149.88">+</text>
<text x="178.82" y="429.62">+</text>
<text x="498.76" y="400.99">.</text>
<text x="163.48" y="54.91">+</text>
<text x="43.71" y="115.58">*</text>
<text x="219.94" y="6.59">*</text>
<text x="445.70" y="230.09">.</text>
<text x="271.85" y="8.92">.</text>
<text x="43.77" y="328.32">.</text>
<text x="13.98" y="128.18">.</text>
<text x="281.23" y="246.12">.</text>
<text x="333.31" y="269.51">.</text>
<text x="309.94" y="400.70">.</text>
<text x="141.45" y="461.32">.</text>
<text x="472.66" y="312.85">.</text>
<text x="151.71" y="105.81">+</text>
<text x="108.57" y="200.96">.</text>
<text x="246.85" y="246.67">*</text>
<text x="169.78" y="371.24">.</text>
<text x="312.67" y="395.16">*</text>
<text x="126.08" y="128.89">+</text>
<text x="405.77" y="457.73">.</text>
<text x="137.27" y="394.20">+</text>
<text x="56.30" y="404.16">.</text>
<text x="405.29" y="156.63">+</text>
<text x="459.57" y="162.80">+</text>
<text x="263.48" y="298.79">+</text>
<text x="381.99" y="407.29">+</text>
<text x="151.16" y="32.35">+</text>
<text x="203.17" y="195.95">+</text>
<text x="352.37" y="462.99">+</text>
<text x="394.95" y="133.64">+</text>
<text x="438.75" y="473.26">.</text>
<text x="227.99" y="488.70">+</text>
<text x="392.32" y="17.81">.</text>
<text x="275.93" y="198.51">.</text>
<text x="37.83" y="327.76">.</text>
<text x="181.47" y="58.99">+</text>
<text x="463.88" y="346.18">.</text>
<text x="397.04" y="246.80">.</text>
<text x="256.44" y="270.68">+</text>
<text x="188.30" y="343.50">+</text>
<text x="471.44" y="66.54">+</text>
<text x="490.97" y="333.21">.</text>
<text x="205.68" y="446.82">*</text>
<text x="437.09" y="10.00">.</text>
<text x="146.54" y="122.95">+</text>
<text x="126.40" y="177.91">.</text>
<text x="411.91" y="148.20">+</text>
<text x="335.57" y="289.56">+</text>
<text x="446.95" y="51.58">+</text>
<text x="273.92" y="304.65">.</text>
<text x="270.86" y="179.60">*</text>
<text x="283.78" y="171.22">.</text>
<text x="129.23" y="173.99">.</text>
<text x="177.05" y="45.75">.</text>
<text x="430.77" y="51.33">.</text>
<text x="143.35" y="294.18">.</text>
<text x="182.96" y="232.90">+</text>
<text x="280.47" y="378.84">+</text>
<text x="177.69" y="234.34">.</text>
<text x="405.00" y="97.04">.</text>
<text x="236.47" y="294.88">.</text>
<text x="103.58" y="315.68">+</text>
<text x="436.34" y="367.79">*</text>
<text x="422.01" y="252.79">+</text>
<text x="193.42" y="228.51">.</text>
<text x="283.81" y="399.01">.</text>
<text x="451.60" y="413.10">+</text>
<text x="357.15" y="403.25">.</text>
<text x="494.72" y="185.51">+</text>
<text x="320.66" y="294.16">+</text>
<text x="487.93" y="245.28">+</text>
<text x="349.54" y="211.88">.</text>
<text x="412.99" y="229.78">+</text>
<text x="334.97" y="358.85">.</text>
<text x="490.94" y="239.08">+</text>
<text x="1.35" y="249.83">+</text>
<text x="147.81" y="244.73">+</text>
<text x="444.07" y="335.84">*</text>
<text x="401.25" y="324.15">.</text>
<text x="306.42" y="446.55">.</text>
<text x="5.17" y="333.99">.</text>
<text x="152.77" y="129.94">*</text>
<text x="186.34" y="381.16">+</text>
<text x="274.90" y="304.91">.</text>
<text x="58.94" y="82.25">.</text>
<text x="304.95" y="115.29">+</text>
<text x="350.60" y="208.53">+</text>
<text x="375.41" y="497.13">+</text>
<text x="428.75" y="399.99">*</text>
<text x="97.21" y="284.07">+</text>
<text x="84.84" y="195.07">.</text>
<text x="392.04" y="187.52">.</text>
<text x="386.23" y="337.25">+</text>
<text x="247.39" y="450.48">.</text>
<text x="485.37" y="294.06">+</text>
<text x="92.55" y="270.24">.</text>
<text x="152.28" y="313.05">.</text>
<text x="264.25" y="175.39">+</text>
<text x="53.59" y="263.61">.</text>
<text x="137.38" y="13.63">*</text>
<text x="300.25" y="119.67">+</text>
<text x="133.23" y="264.99">+</text>
<text x="328.48" y="144.93">.</text>
<text x="456.38" y="324.84">+</text>
<text x="491.68" y="170.19">.</text>
<text x="148.74" y="10.55">+</text>
<text x="229.31" y="404.60">.</text>
<text x="232.08" y="312.97">.</text>
<text x="438.38" y="382.44">.</text>
<text x="196.70" y="32.84">+</text>
<text x="101.07" y="299.38">.</text>
<text x="362.36" y="187.38">+</text>
<text x="403.20" y="88.03">+</text>
<text x="52.58" y="454.41">+</text>
<text x="123.66" y="276.05">.</text>
<text x="434.79" y="328.91">*</text>
<text x="142.30" y="285.39">.</text>
<text x="82.80" y="374.71">.</text>
<text x="295.90" y="211.07">*</text>
<text x="112.22" y="479.20">.</text>
<text x="243.64" y="496.66">+</text>
<text x="186.06" y="373.97">.</text>
<text x="158.62" y="82.73">*</text>
<text x="21.48" y="488.43">.</text>
<text x="404.03" y="167.20">*</text>
<text x="203.70" y="174.11">+</text>
<text x="289.44" y="187.57">.</text>
<text x="136.36" y="234.23">.</text>
<text x="451.12" y="349.41">+</text>
<text x="241.63" y="230.48">.</text>
<text x="0.16" y="419.68">+</text>
<text x="278.21" y="256.44">*</text>
<text x="137.12" y="232.69">.</text>
<text x="388.79" y="464.42">.</text>
<text x="121.15" y="443.37">.</text>
<text x="392.65" y="243.07">.</text>
<text x="60.23" y="242.45">.</text>
<text x="499.58" y="442.37">+</text>
<text x="472.82" y="62.69">+</text>
<text x="483.74" y="230.70">+</text>
<text x="346.37" y="140.13">+</text>
<text x="269.77" y="81.57">+</text>
<text x="167.47" y="263.61">*</text>
<text x="447.29" y="474.02">.</text>
<text x="489.63" y="110.48">+</text>
<text x="287.93" y="378.98">.</text>
<text x="343.21" y="231.24">.</text>
<text x="189.88" y="136.31">.</text>
<text x="164.00" y="34.23">+</text>
<text x="384.97" y="256.82">.</text>
<text x="315.00" y="140.44">+</text>
<text x="258.97" y="73.24">.</text>
<text x="403.19" y="154.98">*</text>
<text x="373.91" y="418.97">.</text>
<text x="381.67" y="347.72">.</text>
<text x="427.11" y="425.27">*</text>
<text x="165.35" y="343.93">+</text>
<text x="121.82" y="465.43">.</text>
<text x="47.98" y="4.16">.</text>
<text x="471.30" y="415.45">+</text>
<text x="109.01" y="315.43">.</text>
<text x="106.36" y="496.60">.</text>
<text x="179.26" y="496.85">.</text>
<text x="272.30" y="139.07">.</text>
<text x="106.91" y="85.53">+</text>
<text x="468.47" y="2.46">+</text>
<text x="400.69" y="176.28">+</text>
<text x="365.54" y="295.31">.</text>
<text x="486.97" y="32.15">.</text>
<text x="380.26" y="450.99">*</text>
<text x="122.65" y="368.17">.</text>
<text x="27.49" y="130.46">+</text>
<text x="237.11" y="252.05">+</text>
<text x="419.44" y="491.89">+</text>
<text x="147.06" y="177.13">.</text>
<text x="271.98" y="153.49">*</text>
<text x="359.35" y="387.00">+</text>
<text x="58.40" y="245.51">.</text>
<text x="186.85" y="346.74">.</text>
<text x="124.86" y="186.44">.</text>
<text x="52.41" y="57.62">+</text>
<text x="73.68" y="175.20">*</text>
<text x="297.58" y="65.54">+</text>
<text x="57.46" y="40.40">*</text>
<text x="438.49" y="460.48">.</text>
<text x="96.17" y="205.38">+</text>
<text x="214.29" y="48.78">+</text>
<text x="390.49" y="417.16">.</text>
<text x="22.87" y="141.72">.</text>
<text x="363.77" y="21.80">+</text>
<text x="425.50" y="252.04">.</text>
<text x="29.49" y="440.28">+</text>
<text x="342.93" y="393.15">+</text>
<text x="497.65" y="80.52">.</text>
<text x="107.00" y="482.07">*</text>
<text x="97.50" y="252.97">+</text>
<text x="452.89" y="358.64">+</text>
<text x="250.96" y="84.45">*</text>
<text x="227.70" y="2.63">.</text>
<text x="309.53" y="229.87">.</text>
<text x="430.39" y="114.13">+</text>
<text x="1.28" y="498.78">+</text>
<text x="247.86" y="128.54">.</text>
<text x="104.64" y="370.82">+</text>
<text x="361.26" y="341.19">.</text>
<text x="9.05" y="201.58">.</text>
<text x="433.99" y="343.37">.</text>
<text x="487.09" y="441.51">.</text>
<text x="462.92" y="167.21">+</text>
<text x="395.22" y="9.98">+</text>

</svg>