
<svg viewBox="0 0 500 500" xmlns="http://www.w.org/2000/svg" width="100%" height="100%" style="background-color: #0a0a14; font-family: 'Courier New', Courier, monospace;">
    <style>
        text { fill: #aaa; font-size: 10px; text-anchor: middle; dominant-baseline: middle; }
    </style>
    <text x="208.38" y="119.50">+</text>
<text x="493.78" y="6.75">+</text>
<text x="264.18" y="464.23">.</text>
<text x="57.72" y="185.63">.</text>
<text x="318.81" y="26.57">.</text>
<text x="327.81" y="41.89">.</text>
<text x="486.52" y="175.39">.</text>
<text x="174.95" y="89.78">+</text>
<text x="267.70" y="14.86">.</text>
<text x="213.91" y="85.52">+</text>
<text x="132.66" y="132.33">.</text>
<text x="352.83" y="332.62">+</text>
<text x="123.78" y="236.98">+</text>
<text x="106.14" y="399.87">+</text>
<text x="203.89" y="321.16">*</text>
<text x="126.94" y="146.37">+</text>
<text x="79.60" y="144.48">+</text>
<text x="87.58" y="46.09">*</text>
<text x="228.41" y="352.41">+</text>
<text x="309.97" y="259.06">+</text>
<text x="460.14" y="49.37">.</text>
<text x="114.96" y="408.53">.</text>
<text x="496.66" y="170.26">+</text>
<text x="447.74" y="217.96">.</text>
<text x="71.75" y="352.60">+</text>
<text x="200.84" y="246.93">*</text>
<text x="290.95" y="253.05">+</text>
<text x="333.65" y="262.44">.</text>
<text x="347.80" y="148.22">.</text>
<text x="487.50" y="56.13">.</text>
<text x="492.20" y="133.93">+</text>
<text x="157.19" y="35.77">+</text>
<text x="47.51" y="432.74">*</text>
<text x="368.29" y="101.30">*</text>
<text x="473.89" y="260.74">.</text>
<text x="33.62" y="279.12">.</text>
<text x="36.64" y="30.25">.</text>
<text x="220.05" y="158.49">+</text>
<text x="120.48" y="428.63">.</text>
<text x="190.02" y="46.17">+</text>
<text x="178.01" y="410.68">*</text>
<text x="115.40" y="442.46">+</text>
<text x="172.06" y="262.83">+</text>
<text x="199.27" y="453.96">.</text>
<text x="406.60" y="311.33">+</text>
<text x="146.80" y="196.68">.</text>
<text x="385.72" y="496.47">.</text>
<text x="86.59" y="53.45">.</text>
<text x="172.17" y="24.59">.</text>
<text x="469.97" y="197.53">.</text>
<text x="319.40" y="84.80">.</text>
<text x="372.74" y="18.06">.</text>
<text x="192.79" y="211.84">*</text>
<text x="57.13" y="436.05">.</text>
<text x="478.47" y="181.62">.</text>
<text x="18.03" y="158.41">.</text>
<text x="320.20" y="247.75">+</text>
<text x="391.29" y="142.44">.</text>
<text x="240.45" y="178.05">.</text>
<text x="216.43" y="24.12">.</text>
<text x="481.68" y="357.60">.</text>
<text x="354.56" y="328.98">.</text>
<text x="263.22" y="288.20">+</text>
<text x="231.84" y="255.23">+</text>
<text x="2.34" y="170.70">+</text>
<text x="159.51" y="141.84">+</text>
<text x="241.58" y="405.77">+</text>
<text x="393.93" y="33.13">+</text>
<text x="240.17" y="45.00">.</text>
<text x="493.87" y="84.76">.</text>
<text x="250.17" y="68.92">+</text>
<text x="20.25" y="314.14">.</text>
<text x="268.81" y="60.68">*</text>
<text x="329.23" y="397.48">.</text>
<text x="228.37" y="366.53">.</text>
<text x="219.81" y="304.94">.</text>
<text x="42.17" y="178.38">*</text>
<text x="442.25" y="122.64">+</text>
<text x="411.76" y="351.49">.</text>
<text x="426.12" y="469.56">+</text>
<text x="117.16" y="88.63">*</text>
<text x="474.43" y="499.79">+</text>
<text x="430.56" y="291.42">+</text>
<text x="298.13" y="472.12">.</text>
<text x="281.06" y="240.96">+</text>
<text x="43.05" y="257.35">.</text>
<text x="396.99" y="282.50">+</text>
<text x="295.28" y="187.70">+</text>
<text x="97.69" y="6.74">.</text>
<text x="237.31" y="476.22">.</text>
<text x="130.92" y="290.56">.</text>
<text x="360.02" y="445.29">+</text>
<text x="173.23" y="266.77">*</text>
<text x="88.01" y="455.90">.</text>
<text x="431.13" y="354.85">.</text>
<text x="431.95" y="392.12">*</text>
<text x="135.13" y="212.07">.</text>
<text x="158.95" y="204.94">.</text>
<text x="44.57" y="19.03">.</text>
<text x="172.60" y="209.35">+</text>
<text x="78.15" y="69.81">.</text>
<text x="8.50" y="225.47">.</text>
<text x="54.63" y="11.48">.</text>
<text x="218.19" y="455.83">+</text>
<text x="342.22" y="39.42">*</text>
<text x="479.36" y="49.61">*</text>
<text x="434.37" y="76.53">+</text>
<text x="481.82" y="199.11">.</text>
<text x="85.93" y="208.04">.</text>
<text x="441.97" y="12.58">.</text>
<text x="142.73" y="473.69">.</text>
<text x="98.81" y="181.06">.</text>
<text x="117.11" y="161.18">.</text>
<text x="483.52" y="388.10">.</text>
<text x="35.37" y="104.53">+</text>
<text x="31.96" y="371.89">.</text>
<text x="349.87" y="327.59">.</text>
<text x="157.48" y="298.71">+</text>
<text x="215.23" y="482.29">+</text>
<text x="236.63" y="289.96">*</text>
<text x="84.05" y="334.95">+</text>
<text x="458.61" y="394.98">.</text>
<text x="493.51" y="218.24">.</text>
<text x="456.37" y="442.57">.</text>
<text x="120.17" y="156.81">.</text>
<text x="332.18" y="407.34">.</text>
<text x="361.60" y="237.77">+</text>
<text x="172.73" y="432.21">+</text>
<text x="220.29" y="84.94">+</text>
<text x="173.91" y="158.86">+</text>
<text x="81.50" y="464.07">+</text>
<text x="8.35" y="115.73">.</text>
<text x="445.84" y="64.08">+</text>
<text x="35.16" y="463.70">*</text>
<text x="134.23" y="122.37">.</text>
<text x="247.45" y="443.45">.</text>
<text x="315.28" y="186.98">+</text>
<text x="417.42" y="376.52">+</text>
<text x="345.34" y="468.65">+</text>
<text x="279.06" y="489.80">+</text>
<text x="201.61" y="389.20">.</text>
<text x="270.71" y="353.84">.</text>
<text x="362.96" y="428.81">.</text>
<text x="466.33" y="137.10">*</text>
<text x="315.70" y="275.04">.</text>
<text x="480.08" y="281.56">.</text>
<text x="215.06" y="209.04">.</text>
<text x="312.99" y="276.03">+</text>
<text x="146.72" y="236.69">.</text>
<text x="315.42" y="97.57">+</text>
<text x="400.85" y="261.13">.</text>
<text x="41.43" y="213.24">*</text>
<text x="216.10" y="134.76">.</text>
<text x="148.60" y="307.45">+</text>
<text x="138.88" y="293.79">.</text>
<text x="215.41" y="253.02">.</text>
<text x="134.88" y="319.35">+</text>
<text x="453.40" y="226.36">.</text>
<text x="312.45" y="304.82">+</text>
<text x="309.40" y="421.79">.</text>
<text x="435.06" y="493.77">+</text>
<text x="463.25" y="414.30">*</text>
<text x="439.70" y="130.97">.</text>
<text x="80.16" y="492.00">.</text>
<text x="458.94" y="87.08">+</text>
<text x="257.31" y="480.32">.</text>
<text x="389.31" y="419.13">+</text>
<text x="254.08" y="336.16">+</text>
<text x="173.90" y="423.75">.</text>
<text x="357.16" y="254.82">.</text>
<text x="307.49" y="36.91">*</text>
<text x="349.02" y="38.48">*</text>
<text x="246.43" y="387.90">.</text>
<text x="77.36" y="288.36">+</text>
<text x="423.57" y="357.55">*</text>
<text x="122.49" y="164.75">+</text>
<text x="459.26" y="176.74">.</text>
<text x="395.65" y="63.94">.</text>
<text x="394.11" y="495.27">.</text>
<text x="56.35" y="243.63">+</text>
<text x="217.98" y="451.91">.</text>
<text x="359.25" y="262.79">+</text>
<text x="75.35" y="8.94">.</text>
<text x="369.27" y="423.54">+</text>
<text x="424.16" y="261.24">.</text>
<text x="453.99" y="36.13">+</text>
<text x="177.42" y="459.00">.</text>
<text x="415.85" y="109.60">+</text>
<text x="187.81" y="198.14">*</text>
<text x="177.45" y="166.64">+</text>
<text x="214.44" y="64.74">+</text>
<text x="26.35" y="447.51">+</text>
<text x="243.00" y="34.53">+</text>
<text x="222.54" y="187.28">*</text>
<text x="394.15" y="292.47">.</text>
<text x="161.93" y="437.80">.</text>
<text x="408.80" y="410.44">+</text>
<text x="132.88" y="491.70">.</text>
<text x="352.75" y="426.69">+</text>
<text x="389.60" y="243.53">*</text>
<text x="145.08" y="185.00">.</text>
<text x="446.55" y="475.36">.</text>
<text x="411.63" y="247.56">.</text>
<text x="293.22" y="364.96">.</text>
<text x="357.22" y="437.53">.</text>
<text x="145.31" y="347.70">.</text>
<text x="50.55" y="383.62">+</text>
<text x="186.03" y="127.55">.</text>
<text x="98.95" y="274.89">.</text>
<text x="495.04" y="183.16">+</text>
<text x="152.98" y="262.89">*</text>
<text x="275.18" y="235.27">+</text>
<text x="420.84" y="373.63">.</text>
<text x="4.45" y="445.22">.</text>
<text x="336.14" y="377.86">+</text>
<text x="487.55" y="190.07">+</text>
<text x="26.97" y="89.09">.</text>
<text x="83.57" y="433.75">+</text>
<text x="170.80" y="112.94">*</text>
<text x="399.35" y="258.38">.</text>
<text x="244.04" y="491.45">+</text>

</svg>