
<svg viewBox="0 0 500 500" xmlns="http://www.w.org/2000/svg" width="100%" height="100%" style="background-color: #0a0a14; font-family: 'Courier New', Courier, monospace;">
    <style>
        text { fill: #aaa; font-size: 10px; text-anchor: middle; dominant-baseline: middle; }
    </style>
    <text x="79.31" y="244.81">+</text>
<text x="479.64" y="108.81">*</text>
<text x="58.67" y="338.41">+</text>
<text x="279.06" y="27.64">+</text>
<text x="486.36" y="109.35">.</text>
<text x="489.99" y="158.19">+</text>
<text x="120.68" y="247.82">+</text>
<text x="414.61" y="111.16">.</text>
<text x="280.87" y="296.37">+</text>
<text x="475.31" y="345.63">.</text>
<text x="63.37" y="257.91">.</text>
<text x="48.35" y="191.49">.</text>
<text x="323.34" y="255.61">+</text>
<text x="361.81" y="182.12">.</text>
<text x="288.34" y="139.78">+</text>
<text x="112.12" y="268.75">.</text>
<text x="407.89" y="278.15">.</text>
<text x="375.11" y="172.81">+</text>
<text x="190.54" y="24.50">+</text>
<text x="326.14" y="193.32">+</text>
<text x="19.30" y="28.03">*</text>
<text x="169.86" y="44.31">+</text>
<text x="341.36" y="334.21">.</text>
<text x="420.43" y="70.58">.</text>
<text x="353.85" y="415.94">+</text>
<text x="446.52" y="171.36">+</text>
<text x="21.73" y="161.49">.</text>
<text x="318.11" y="441.90">*</text>
<text x="297.46" y="104.67">+</text>
<text x="72.75" y="241.35">+</text>
<text x="91.40" y="28.23">.</text>
<text x="397.41" y="490.26">.</text>
<text x="300.00" y="41.22">+</text>
<text x="469.54" y="396.30">.</text>
<text x="446.09" y="237.91">*</text>
<text x="246.77" y="185.50">*</text>
<text x="141.31" y="405.29">*</text>
<text x="256.88" y="132.42">+</text>
<text x="490.45" y="225.13">.</text>
<text x="8.15" y="52.73">+</text>
<text x="312.85" y="388.39">+</text>
<text x="361.88" y="78.48">.</text>
<text x="312.10" y="221.51">.</text>
<text x="400.70" y="207.28">+</text>
<text x="400.96" y="97.05">+</text>
<text x="462.96" y="161.45">.</text>
<text x="230.29" y="268.76">.</text>
<text x="203.04" y="236.87">.</text>
<text x="146.75" y="309.69">.</text>
<text x="283.85" y="328.04">.</text>
<text x="50.41" y="386.70">.</text>
<text x="216.11" y="252.93">.</text>
<text x="377.04" y="325.83">*</text>
<text x="8.05" y="422.78">.</text>
<text x="453.53" y="33.40">+</text>
<text x="180.83" y="492.59">+</text>
<text x="144.33" y="116.09">.</text>
<text x="405.36" y="303.32">+</text>
<text x="150.83" y="415.07">.</text>
<text x="288.12" y="122.16">.</text>
<text x="217.68" y="13.25">*</text>
<text x="174.58" y="238.25">*</text>
<text x="265.11" y="35.49">.</text>
<text x="272.50" y="319.99">.</text>
<text x="436.73" y="224.57">.</text>
<text x="91.60" y="94.20">+</text>
<text x="290.79" y="34.38">+</text>
<text x="475.50" y="400.27">+</text>
<text x="445.00" y="227.43">+</text>
<text x="464.13" y="464.32">.</text>
<text x="60.70" y="55.02">+</text>
<text x="82.16" y="113.88">+</text>
<text x="430.21" y="381.75">.</text>
<text x="69.27" y="22.60">.</text>
<text x="52.11" y="139.20">+</text>
<text x="280.04" y="80.03">.</text>
<text x="76.84" y="244.98">+</text>
<text x="285.70" y="148.80">+</text>
<text x="482.94" y="275.14">.</text>
<text x="176.10" y="119.05">.</text>
<text x="287.98" y="309.49">.</text>
<text x="473.16" y="182.99">.</text>
<text x="446.76" y="238.22">.</text>
<text x="474.85" y="229.09">*</text>
<text x="391.47" y="251.56">+</text>
<text x="145.42" y="435.04">.</text>
<text x="257.82" y="399.30">.</text>
<text x="378.11" y="475.41">+</text>
<text x="293.01" y="333.10">+</text>
<text x="204.52" y="82.38">.</text>
<text x="14.83" y="246.99">+</text>
<text x="125.18" y="202.91">+</text>
<text x="34.69" y="291.77">*</text>
<text x="64.82" y="180.56">+</text>
<text x="315.40" y="128.53">.</text>
<text x="331.24" y="363.01">+</text>
<text x="362.76" y="397.66">.</text>
<text x="216.56" y="265.02">.</text>
<text x="416.29" y="195.32">.</text>
<text x="471.24" y="197.61">.</text>
<text x="354.02" y="159.41">*</text>
<text x="425.81" y="444.89">.</text>
<text x="103.47" y="141.08">+</text>
<text x="498.61" y="47.60">.</text>
<text x="231.54" y="249.57">.</text>
<text x="99.60" y="495.85">.</text>
<text x="347.87" y="449.04">.</text>
<text x="116.97" y="370.50">+</text>
<text x="193.85" y="205.81">+</text>
<text x="206.99" y="336.58">.</text>
<text x="183.56" y="482.43">.</text>
<text x="118.19" y="86.02">.</text>
<text x="421.91" y="382.87">*</text>
<text x="11.41" y="259.40">.</text>
<text x="319.48" y="386.78">.</text>
<text x="91.36" y="142.48">.</text>
<text x="200.25" y="145.73">*</text>
<text x="90.36" y="93.94">+</text>
<text x="176.97" y="225.28">.</text>
<text x="391.34" y="233.01">.</text>
<text x="259.27" y="78.42">+</text>
<text x="426.34" y="121.69">+</text>
<text x="116.03" y="484.21">.</text>
<text x="270.77" y="95.75">*</text>
<text x="440.07" y="229.57">*</text>
<text x="177.93" y="338.17">+</text>
<text x="88.96" y="475.03">.</text>
<text x="466.19" y="295.12">+</text>
<text x="25.61" y="311.97">.</text>
<text x="38.81" y="458.27">+</text>
<text x="390.84" y="120.97">.</text>
<text x="6.56" y="180.07">+</text>
<text x="16.61" y="231.77">.</text>
<text x="493.19" y="426.33">+</text>
<text x="63.09" y="14.63">.</text>
<text x="146.68" y="447.54">.</text>
<text x="39.73" y="237.48">+</text>
<text x="349.11" y="457.36">.</text>
<text x="294.79" y="230.73">+</text>
<text x="416.30" y="271.99">+</text>
<text x="244.09" y="289.70">.</text>
<text x="385.31" y="72.67">.</text>
<text x="446.82" y="186.23">.</text>
<text x="313.89" y="23.62">*</text>
<text x="183.81" y="288.98">+</text>
<text x="96.90" y="277.75">.</text>
<text x="418.01" y="382.53">+</text>
<text x="349.79" y="401.90">+</text>
<text x="225.42" y="203.89">+</text>
<text x="151.56" y="270.06">+</text>
<text x="195.24" y="397.57">.</text>
<text x="86.31" y="456.28">*</text>
<text x="366.30" y="402.06">+</text>
<text x="290.44" y="229.06">.</text>
<text x="141.52" y="178.46">.</text>
<text x="270.23" y="483.26">.</text>
<text x="124.89" y="319.05">+</text>
<text x="155.68" y="286.63">+</text>
<text x="245.03" y="84.47">+</text>
<text x="205.62" y="157.62">*</text>
<text x="228.25" y="406.43">+</text>
<text x="265.83" y="246.33">+</text>
<text x="249.75" y="151.19">+</text>
<text x="202.00" y="181.98">.</text>
<text x="68.16" y="368.83">+</text>
<text x="30.64" y="105.86">.</text>
<text x="348.84" y="103.15">.</text>
<text x="1.19" y="483.33">*</text>
<text x="134.48" y="210.75">.</text>
<text x="467.26" y="477.41">.</text>
<text x="38.27" y="59.70">.</text>
<text x="117.43" y="159.53">.</text>
<text x="455.66" y="127.20">+</text>
<text x="482.84" y="321.25">+</text>
<text x="198.40" y="366.24">.</text>
<text x="134.67" y="464.25">*</text>
<text x="259.74" y="366.86">.</text>
<text x="222.14" y="198.43">.</text>
<text x="268.50" y="227.34">.</text>
<text x="106.09" y="445.68">*</text>
<text x="315.58" y="53.52">+</text>
<text x="281.33" y="305.15">+</text>
<text x="284.30" y="327.31">*</text>
<text x="306.12" y="296.69">*</text>
<text x="478.64" y="422.13">+</text>
<text x="479.69" y="475.86">.</text>
<text x="238.41" y="47.44">+</text>
<text x="499.44" y="45.35">+</text>
<text x="423.35" y="154.45">*</text>
<text x="88.00" y="134.76">+</text>
<text x="269.51" y="124.82">.</text>
<text x="318.03" y="372.65">.</text>
<text x="252.87" y="233.35">.</text>
<text x="455.64" y="200.43">.</text>
<text x="390.35" y="446.18">.</text>
<text x="290.11" y="77.58">*</text>
<text x="373.03" y="416.87">.</text>
<text x="26.15" y="2.93">.</text>
<text x="427.00" y="327.80">*</text>
<text x="177.05" y="285.59">+</text>
<text x="32.66" y="141.02">+</text>
<text x="119.92" y="178.09">+</text>
<text x="337.04" y="457.05">.</text>

</svg>