
<svg viewBox="0 0 500 500" xmlns="http://www.w.org/2000/svg" width="100%" height="100%" style="background-color: #0a0a14; font-family: 'Courier New', Courier, monospace;">
    <style>
        text { fill: #aaa; font-size: 10px; text-anchor: middle; dominant-baseline: middle; }
    </style>
    <text x="118.80" y="159.76">.</text>
<text x="66.94" y="483.79">+</text>
<text x="128.87" y="306.14">.</text>
<text x="196.89" y="478.64">*</text>
<text x="173.99" y="372.45">.</text>
<text x="494.78" y="175.27">+</text>
<text x="494.17" y="12.82">+</text>
<text x="348.59" y="406.85">*</text>
<text x="36.10" y="60.13">+</text>
<text x="365.98" y="254.94">*</text>
<text x="247.60" y="2.05">.</text>
<text x="177.62" y="349.25">.</text>
<text x="358.75" y="412.81">.</text>
<text x="387.49" y="65.36">+</text>
<text x="49.65" y="399.85">+</text>
<text x="144.59" y="468.06">*</text>
<text x="95.84" y="236.33">.</text>
<text x="260.78" y="191.45">.</text>
<text x="339.24" y="93.13">+</text>
<text x="128.33" y="69.29">+</text>
<text x="95.32" y="215.86">+</text>
<text x="106.58" y="456.26">*</text>
<text x="16.10" y="354.30">+</text>
<text x="307.88" y="22.73">.</text>
<text x="58.23" y="370.27">+</text>
<text x="233.80" y="390.91">+</text>
<text x="297.48" y="342.94">+</text>
<text x="21.74" y="150.69">.</text>
<text x="215.17" y="457.12">.</text>
<text x="391.99" y="74.58">.</text>
<text x="357.35" y="365.04">.</text>
<text x="113.61" y="360.46">+</text>
<text x="251.95" y="417.60">+</text>
<text x="442.96" y="452.23">*</text>
<text x="254.98" y="410.43">.</text>
<text x="196.69" y="249.43">*</text>
<text x="100.10" y="313.98">.</text>
<text x="499.72" y="424.83">.</text>
<text x="444.59" y="235.59">.</text>
<text x="31.62" y="474.68">+</text>
<text x="134.54" y="13.96">+</text>
<text x="166.28" y="195.76">.</text>
<text x="147.54" y="351.12">+</text>
<text x="183.52" y="422.71">+</text>
<text x="295.35" y="140.61">+</text>
<text x="285.69" y="489.95">+</text>
<text x="238.64" y="399.35">.</text>
<text x="1.66" y="290.67">+</text>
<text x="14.54" y="25.55">.</text>
<text x="399.23" y="2.29">+</text>
<text x="76.67" y="117.20">+</text>
<text x="458.23" y="249.66">.</text>
<text x="309.88" y="277.38">+</text>
<text x="136.90" y="483.84">.</text>
<text x="254.40" y="363.55">*</text>
<text x="97.58" y="360.69">+</text>
<text x="381.22" y="209.06">.</text>
<text x="325.45" y="59.61">+</text>
<text x="178.62" y="436.01">*</text>
<text x="35.39" y="359.97">*</text>
<text x="422.39" y="9.22">*</text>
<text x="213.73" y="162.36">+</text>
<text x="58.49" y="391.45">.</text>
<text x="340.11" y="465.93">.</text>
<text x="430.26" y="52.34">.</text>
<text x="308.24" y="194.89">.</text>
<text x="228.98" y="76.21">.</text>
<text x="191.58" y="0.12">.</text>
<text x="92.53" y="36.46">.</text>
<text x="26.78" y="452.83">.</text>
<text x="134.66" y="195.10">+</text>
<text x="407.99" y="195.13">+</text>
<text x="416.46" y="154.27">.</text>
<text x="16.84" y="86.56">.</text>
<text x="222.85" y="282.93">+</text>
<text x="38.44" y="373.62">.</text>
<text x="78.76" y="375.81">+</text>
<text x="465.58" y="191.83">+</text>
<text x="482.45" y="32.09">.</text>
<text x="399.92" y="249.34">+</text>
<text x="55.41" y="76.36">+</text>
<text x="237.42" y="352.66">.</text>
<text x="263.62" y="181.02">+</text>
<text x="131.02" y="246.38">+</text>
<text x="290.46" y="78.04">+</text>
<text x="4.27" y="352.56">+</text>
<text x="212.31" y="63.67">+</text>
<text x="473.06" y="118.49">.</text>
<text x="379.00" y="397.90">+</text>
<text x="209.45" y="379.99">.</text>
<text x="314.73" y="412.28">.</text>
<text x="379.61" y="370.44">.</text>
<text x="444.63" y="350.96">+</text>
<text x="334.24" y="156.02">+</text>
<text x="74.22" y="456.25">+</text>
<text x="485.12" y="165.51">.</text>
<text x="233.03" y="375.06">+</text>
<text x="255.65" y="299.56">.</text>
<text x="329.88" y="264.75">.</text>
<text x="296.35" y="255.01">+</text>
<text x="405.93" y="125.42">*</text>
<text x="290.96" y="72.08">+</text>
<text x="219.20" y="448.91">.</text>
<text x="21.44" y="39.35">.</text>
<text x="58.29" y="180.32">*</text>
<text x="193.47" y="302.43">.</text>
<text x="205.51" y="285.58">+</text>
<text x="351.10" y="405.83">.</text>
<text x="257.72" y="348.90">.</text>
<text x="224.00" y="453.42">+</text>
<text x="369.76" y="129.69">*</text>
<text x="456.36" y="486.21">+</text>
<text x="373.47" y="394.99">+</text>
<text x="87.40" y="320.44">.</text>
<text x="336.97" y="455.83">+</text>
<text x="141.94" y="485.12">.</text>
<text x="115.38" y="205.84">.</text>
<text x="85.96" y="151.03">.</text>
<text x="206.23" y="167.16">.</text>
<text x="140.63" y="299.11">+</text>
<text x="170.53" y="225.93">.</text>
<text x="296.52" y="268.94">.</text>
<text x="161.17" y="99.59">+</text>
<text x="403.40" y="148.61">.</text>
<text x="380.04" y="20.16">*</text>
<text x="362.18" y="463.12">+</text>
<text x="203.29" y="303.53">.</text>
<text x="495.37" y="303.73">.</text>
<text x="385.05" y="476.35">+</text>
<text x="37.22" y="265.85">*</text>
<text x="482.56" y="259.22">.</text>
<text x="228.34" y="50.33">*</text>
<text x="105.24" y="496.30">+</text>
<text x="414.45" y="230.72">.</text>
<text x="387.50" y="297.18">.</text>
<text x="207.55" y="76.54">+</text>
<text x="448.24" y="221.81">.</text>
<text x="4.80" y="332.74">+</text>
<text x="120.24" y="102.55">.</text>
<text x="160.87" y="288.43">*</text>
<text x="101.66" y="361.30">+</text>
<text x="101.77" y="436.00">.</text>
<text x="181.41" y="467.38">.</text>
<text x="100.80" y="74.25">+</text>
<text x="291.85" y="286.68">.</text>
<text x="218.46" y="204.46">.</text>
<text x="11.19" y="413.86">.</text>
<text x="437.80" y="43.11">+</text>
<text x="334.20" y="59.15">+</text>
<text x="490.06" y="63.51">+</text>
<text x="305.40" y="296.38">.</text>
<text x="464.67" y="135.69">+</text>
<text x="470.26" y="377.94">.</text>
<text x="427.40" y="129.21">+</text>
<text x="15.32" y="496.53">.</text>
<text x="292.67" y="499.99">+</text>
<text x="81.72" y="84.18">.</text>
<text x="193.95" y="352.97">.</text>
<text x="206.26" y="121.63">.</text>
<text x="346.07" y="351.20">+</text>
<text x="152.31" y="117.36">+</text>
<text x="404.20" y="306.37">+</text>
<text x="98.86" y="77.25">+</text>
<text x="479.36" y="146.16">*</text>
<text x="36.24" y="478.57">.</text>
<text x="480.03" y="5.10">.</text>
<text x="382.52" y="206.95">+</text>
<text x="210.50" y="29.23">+</text>
<text x="125.46" y="497.74">.</text>
<text x="482.29" y="59.34">+</text>
<text x="29.27" y="408.01">*</text>
<text x="298.05" y="24.30">+</text>
<text x="29.37" y="297.00">+</text>
<text x="454.34" y="103.92">+</text>
<text x="222.69" y="15.98">*</text>
<text x="489.44" y="216.26">+</text>
<text x="309.92" y="164.86">+</text>
<text x="194.27" y="149.44">.</text>
<text x="494.64" y="288.46">.</text>
<text x="235.74" y="365.91">+</text>
<text x="350.48" y="146.14">+</text>
<text x="490.08" y="74.55">+</text>
<text x="220.74" y="156.55">+</text>
<text x="104.39" y="378.79">*</text>
<text x="334.08" y="216.26">.</text>
<text x="351.08" y="52.34">.</text>
<text x="338.96" y="87.61">.</text>
<text x="44.46" y="6.38">+</text>
<text x="308.21" y="496.39">+</text>
<text x="216.41" y="346.42">.</text>
<text x="339.30" y="148.19">.</text>
<text x="28.93" y="491.81">*</text>
<text x="120.91" y="241.85">.</text>
<text x="458.67" y="278.51">.</text>
<text x="55.94" y="308.58">.</text>
<text x="240.51" y="165.10">+</text>
<text x="187.77" y="113.11">*</text>
<text x="288.39" y="485.13">.</text>
<text x="61.52" y="37.29">.</text>
<text x="448.46" y="120.97">*</text>
<text x="43.10" y="463.63">+</text>
<text x="146.10" y="269.92">.</text>
<text x="319.91" y="217.75">+</text>
<text x="0.54" y="224.34">.</text>
<text x="93.15" y="324.41">.</text>

</svg>