
<svg viewBox="0 0 500 500" xmlns="http://www.w.org/2000/svg" width="100%" height="100%" style="background-color: #0a0a14; font-family: 'Courier New', Courier, monospace;">
    <style>
        text { fill: #aaa; font-size: 10px; text-anchor: middle; dominant-baseline: middle; }
    </style>
    <text x="351.85" y="229.95">+</text>
<text x="457.21" y="46.22">+</text>
<text x="212.11" y="451.38">*</text>
<text x="329.75" y="289.36">+</text>
<text x="150.90" y="368.06">*</text>
<text x="210.66" y="422.90">.</text>
<text x="188.61" y="240.49">.</text>
<text x="50.21" y="413.12">+</text>
<text x="282.67" y="497.84">.</text>
<text x="85.62" y="300.20">*</text>
<text x="73.57" y="46.79">*</text>
<text x="463.71" y="141.40">+</text>
<text x="29.26" y="407.18">+</text>
<text x="106.43" y="220.28">+</text>
<text x="76.39" y="228.01">+</text>
<text x="461.69" y="64.24">+</text>
<text x="486.94" y="325.56">.</text>
<text x="370.50" y="193.40">.</text>
<text x="92.62" y="468.48">.</text>
<text x="388.53" y="181.07">.</text>
<text x="306.42" y="155.30">+</text>
<text x="10.84" y="250.92">.</text>
<text x="45.69" y="342.51">*</text>
<text x="284.67" y="79.02">+</text>
<text x="135.96" y="231.74">.</text>
<text x="431.81" y="27.51">.</text>
<text x="229.31" y="326.25">+</text>
<text x="465.92" y="445.55">*</text>
<text x="435.43" y="210.18">*</text>
<text x="167.99" y="334.27">.</text>
<text x="268.94" y="50.13">+</text>
<text x="396.59" y="436.34">*</text>
<text x="487.26" y="484.80">+</text>
<text x="344.07" y="367.71">+</text>
<text x="227.17" y="419.86">+</text>
<text x="215.42" y="353.73">.</text>
<text x="383.44" y="463.18">+</text>
<text x="252.94" y="495.16">*</text>
<text x="207.72" y="446.70">*</text>
<text x="64.21" y="31.04">.</text>
<text x="73.72" y="132.09">+</text>
<text x="95.49" y="209.32">.</text>
<text x="205.10" y="258.65">.</text>
<text x="162.89" y="386.81">*</text>
<text x="17.95" y="220.55">.</text>
<text x="139.94" y="198.85">.</text>
<text x="499.37" y="278.51">.</text>
<text x="232.39" y="192.33">+</text>
<text x="349.75" y="178.19">+</text>
<text x="386.74" y="296.34">*</text>
<text x="248.54" y="304.00">.</text>
<text x="317.74" y="299.31">+</text>
<text x="305.49" y="443.21">.</text>
<text x="195.74" y="90.64">+</text>
<text x="212.43" y="160.86">.</text>
<text x="499.74" y="74.69">+</text>
<text x="20.12" y="405.33">*</text>
<text x="256.66" y="282.10">+</text>
<text x="429.43" y="436.40">*</text>
<text x="443.90" y="210.97">*</text>
<text x="72.48" y="89.41">.</text>
<text x="127.05" y="393.89">+</text>
<text x="13.00" y="135.28">*</text>
<text x="162.67" y="183.13">.</text>
<text x="220.26" y="296.98">.</text>
<text x="119.50" y="498.89">.</text>
<text x="301.34" y="140.42">.</text>
<text x="100.78" y="266.72">+</text>
<text x="326.15" y="374.36">+</text>
<text x="497.24" y="424.89">+</text>
<text x="225.09" y="291.30">.</text>
<text x="109.63" y="377.45">.</text>
<text x="354.56" y="376.38">.</text>
<text x="173.68" y="137.45">+</text>
<text x="206.51" y="85.81">+</text>
<text x="431.94" y="475.20">+</text>
<text x="261.46" y="493.40">+</text>
<text x="242.62" y="124.54">+</text>
<text x="324.97" y="433.37">+</text>
<text x="68.80" y="145.98">.</text>
<text x="131.15" y="263.77">*</text>
<text x="232.89" y="339.34">+</text>
<text x="205.05" y="320.34">.</text>
<text x="388.72" y="26.28">*</text>
<text x="83.91" y="224.67">+</text>
<text x="266.92" y="49.05">.</text>
<text x="314.26" y="453.37">+</text>
<text x="142.68" y="178.77">.</text>
<text x="467.59" y="200.32">+</text>
<text x="140.64" y="410.02">+</text>
<text x="184.49" y="408.26">*</text>
<text x="266.16" y="22.83">.</text>
<text x="399.35" y="43.07">.</text>
<text x="238.38" y="132.11">+</text>
<text x="193.73" y="126.09">+</text>
<text x="217.47" y="496.50">+</text>
<text x="128.19" y="381.03">.</text>
<text x="82.70" y="330.50">+</text>
<text x="270.51" y="122.42">.</text>
<text x="149.43" y="333.65">+</text>
<text x="225.78" y="225.66">.</text>
<text x="430.91" y="145.13">+</text>
<text x="171.21" y="279.52">.</text>
<text x="105.43" y="306.24">+</text>
<text x="433.36" y="347.09">.</text>
<text x="451.13" y="208.76">+</text>
<text x="7.30" y="291.04">+</text>
<text x="359.67" y="393.38">.</text>
<text x="128.12" y="56.97">+</text>
<text x="29.34" y="82.77">.</text>
<text x="201.14" y="475.05">+</text>
<text x="404.71" y="454.91">+</text>
<text x="209.79" y="289.08">+</text>
<text x="496.51" y="193.72">+</text>
<text x="87.49" y="434.91">.</text>
<text x="498.13" y="355.69">+</text>
<text x="382.29" y="16.68">.</text>
<text x="383.71" y="297.78">*</text>
<text x="2.25" y="305.76">.</text>
<text x="237.35" y="459.78">.</text>
<text x="7.28" y="315.96">+</text>
<text x="305.48" y="311.18">*</text>
<text x="228.68" y="384.18">+</text>
<text x="195.58" y="264.14">.</text>
<text x="332.10" y="237.18">.</text>
<text x="9.75" y="110.73">.</text>
<text x="392.28" y="104.76">.</text>
<text x="259.06" y="86.49">+</text>
<text x="281.88" y="56.71">+</text>
<text x="444.94" y="173.76">+</text>
<text x="219.67" y="79.29">.</text>
<text x="482.03" y="328.46">.</text>
<text x="140.60" y="335.66">+</text>
<text x="473.64" y="106.36">*</text>
<text x="348.17" y="96.49">+</text>
<text x="181.66" y="210.47">+</text>
<text x="435.93" y="313.22">+</text>
<text x="488.52" y="142.15">.</text>
<text x="295.19" y="125.11">.</text>
<text x="149.84" y="442.10">.</text>
<text x="334.71" y="248.22">.</text>
<text x="112.01" y="388.28">*</text>
<text x="383.96" y="134.10">*</text>
<text x="138.14" y="83.90">*</text>
<text x="32.36" y="195.51">.</text>
<text x="1.72" y="147.97">+</text>
<text x="281.94" y="384.85">.</text>
<text x="57.39" y="486.39">*</text>
<text x="448.63" y="186.79">+</text>
<text x="399.10" y="70.56">+</text>
<text x="215.13" y="19.84">+</text>
<text x="406.14" y="180.28">+</text>
<text x="329.60" y="310.90">+</text>
<text x="147.55" y="118.37">+</text>
<text x="450.64" y="28.71">.</text>
<text x="346.06" y="473.60">+</text>
<text x="373.60" y="369.30">.</text>
<text x="225.01" y="25.78">.</text>
<text x="145.77" y="267.45">.</text>
<text x="389.60" y="76.30">.</text>
<text x="117.15" y="353.82">.</text>
<text x="393.24" y="495.11">.</text>
<text x="293.88" y="25.68">.</text>
<text x="114.56" y="452.99">+</text>
<text x="14.48" y="208.56">.</text>
<text x="199.85" y="91.94">.</text>
<text x="364.23" y="224.28">.</text>
<text x="437.49" y="244.12">.</text>
<text x="296.02" y="464.86">.</text>
<text x="327.30" y="93.20">+</text>
<text x="365.29" y="387.83">.</text>
<text x="144.18" y="142.52">.</text>
<text x="133.85" y="332.90">+</text>
<text x="233.98" y="455.77">+</text>
<text x="368.83" y="209.32">*</text>
<text x="263.66" y="208.28">+</text>
<text x="3.65" y="130.16">+</text>
<text x="460.27" y="264.24">*</text>
<text x="95.23" y="1.92">*</text>
<text x="4.04" y="274.19">.</text>
<text x="234.95" y="475.27">*</text>
<text x="330.50" y="276.44">+</text>
<text x="296.79" y="323.02">.</text>
<text x="403.47" y="142.61">+</text>
<text x="239.01" y="10.99">+</text>
<text x="226.24" y="54.23">+</text>
<text x="351.37" y="42.95">+</text>
<text x="14.79" y="102.11">+</text>
<text x="411.09" y="372.67">+</text>
<text x="476.15" y="322.08">+</text>
<text x="234.30" y="371.09">.</text>
<text x="315.44" y="129.36">+</text>
<text x="450.25" y="276.14">.</text>
<text x="479.19" y="2.53">.</text>
<text x="169.70" y="164.11">*</text>
<text x="226.30" y="102.42">+</text>
<text x="105.67" y="128.05">+</text>
<text x="78.31" y="299.83">+</text>
<text x="234.74" y="494.42">.</text>
<text x="145.88" y="31.86">+</text>
<text x="173.61" y="355.10">+</text>
<text x="335.27" y="240.98">.</text>
<text x="82.28" y="360.26">*</text>
<text x="293.80" y="44.70">+</text>
<text x="28.60" y="187.60">.</text>

</svg>