
<svg viewBox="0 0 500 500" xmlns="http://www.w.org/2000/svg" width="100%" height="100%" style="background-color: #0a0a14; font-family: 'Courier New', Courier, monospace;">
    <style>
        text { fill: #aaa; font-size: 10px; text-anchor: middle; dominant-baseline: middle; }
    </style>
    <text x="374.36" y="20.82">*</text>
<text x="205.99" y="438.17">.</text>
<text x="464.28" y="251.12">+</text>
<text x="58.54" y="124.84">.</text>
<text x="235.44" y="108.16">+</text>
<text x="309.07" y="119.26">.</text>
<text x="301.96" y="481.53">+</text>
<text x="392.93" y="261.39">.</text>
<text x="25.18" y="28.44">.</text>
<text x="338.96" y="475.45">+</text>
<text x="97.36" y="203.91">+</text>
<text x="96.85" y="178.11">.</text>
<text x="385.87" y="135.41">.</text>
<text x="458.18" y="382.40">.</text>
<text x="327.97" y="138.33">.</text>
<text x="67.38" y="101.94">+</text>
<text x="170.99" y="92.48">.</text>
<text x="81.11" y="154.63">+</text>
<text x="159.59" y="383.39">.</text>
<text x="447.79" y="10.46">.</text>
<text x="156.09" y="340.48">.</text>
<text x="55.76" y="497.73">+</text>
<text x="101.09" y="191.05">+</text>
<text x="230.44" y="165.17">.</text>
<text x="415.14" y="415.68">+</text>
<text x="207.47" y="488.65">+</text>
<text x="72.31" y="474.89">.</text>
<text x="22.90" y="153.78">+</text>
<text x="392.81" y="84.78">+</text>
<text x="196.46" y="265.97">.</text>
<text x="391.64" y="495.59">.</text>
<text x="349.89" y="412.79">.</text>
<text x="18.11" y="479.23">+</text>
<text x="210.58" y="288.41">+</text>
<text x="145.64" y="223.96">.</text>
<text x="139.03" y="234.98">.</text>
<text x="121.31" y="484.46">*</text>
<text x="71.22" y="321.53">.</text>
<text x="130.38" y="404.82">+</text>
<text x="339.17" y="283.30">+</text>
<text x="395.54" y="169.82">+</text>
<text x="435.02" y="429.88">*</text>
<text x="312.92" y="238.12">.</text>
<text x="401.40" y="198.65">+</text>
<text x="199.35" y="105.16">.</text>
<text x="167.53" y="324.59">*</text>
<text x="186.70" y="465.90">+</text>
<text x="479.88" y="380.13">*</text>
<text x="478.61" y="74.56">+</text>
<text x="349.60" y="159.22">.</text>
<text x="110.41" y="93.28">.</text>
<text x="381.14" y="413.22">.</text>
<text x="352.69" y="337.11">.</text>
<text x="337.47" y="295.26">+</text>
<text x="398.08" y="211.96">.</text>
<text x="43.26" y="259.85">.</text>
<text x="373.48" y="281.86">+</text>
<text x="340.18" y="113.47">+</text>
<text x="441.04" y="244.33">+</text>
<text x="28.93" y="430.84">.</text>
<text x="192.42" y="3.57">.</text>
<text x="477.44" y="464.20">.</text>
<text x="52.36" y="102.78">.</text>
<text x="259.85" y="397.66">+</text>
<text x="43.28" y="68.30">+</text>
<text x="60.16" y="40.67">+</text>
<text x="17.55" y="411.15">*</text>
<text x="474.73" y="388.07">.</text>
<text x="391.66" y="21.39">.</text>
<text x="43.25" y="446.62">+</text>
<text x="350.19" y="204.38">+</text>
<text x="179.54" y="409.54">+</text>
<text x="430.41" y="421.92">.</text>
<text x="268.11" y="358.74">.</text>
<text x="216.48" y="165.08">.</text>
<text x="274.63" y="478.20">*</text>
<text x="218.86" y="272.03">+</text>
<text x="283.30" y="408.61">+</text>
<text x="424.73" y="225.23">+</text>
<text x="299.17" y="376.66">.</text>
<text x="235.35" y="385.25">.</text>
<text x="77.28" y="499.44">.</text>
<text x="294.64" y="465.74">+</text>
<text x="195.63" y="5.56">+</text>
<text x="328.97" y="460.14">.</text>
<text x="121.66" y="66.64">+</text>
<text x="460.49" y="228.62">.</text>
<text x="34.51" y="119.44">+</text>
<text x="374.90" y="201.27">+</text>
<text x="260.46" y="96.86">.</text>
<text x="69.30" y="424.16">+</text>
<text x="377.26" y="251.36">.</text>
<text x="16.35" y="312.01">+</text>
<text x="23.24" y="338.10">+</text>
<text x="85.24" y="140.60">+</text>
<text x="302.21" y="492.83">.</text>
<text x="450.36" y="426.75">+</text>
<text x="443.07" y="479.62">.</text>
<text x="430.31" y="23.98">*</text>
<text x="167.40" y="119.66">+</text>
<text x="298.79" y="330.49">+</text>
<text x="27.33" y="390.41">.</text>
<text x="190.54" y="307.16">+</text>
<text x="446.60" y="482.85">+</text>
<text x="8.28" y="118.45">+</text>
<text x="412.57" y="174.98">+</text>
<text x="261.67" y="256.68">+</text>
<text x="345.04" y="261.27">+</text>
<text x="76.66" y="177.64">.</text>
<text x="255.98" y="36.83">+</text>
<text x="220.50" y="288.17">.</text>
<text x="258.30" y="84.11">.</text>
<text x="211.05" y="93.32">*</text>
<text x="309.69" y="313.55">+</text>
<text x="430.63" y="137.39">*</text>
<text x="104.96" y="30.51">*</text>
<text x="107.84" y="425.48">*</text>
<text x="192.00" y="22.46">+</text>
<text x="445.09" y="70.36">.</text>
<text x="294.27" y="169.18">.</text>
<text x="211.46" y="99.15">.</text>
<text x="42.38" y="448.37">.</text>
<text x="189.33" y="93.55">.</text>
<text x="299.91" y="316.84">.</text>
<text x="335.25" y="365.35">.</text>
<text x="276.41" y="75.18">.</text>
<text x="83.20" y="268.16">.</text>
<text x="80.99" y="140.02">.</text>
<text x="453.16" y="245.35">.</text>
<text x="422.85" y="110.55">*</text>
<text x="121.70" y="396.66">.</text>
<text x="33.65" y="286.53">+</text>
<text x="74.69" y="194.76">+</text>
<text x="372.36" y="300.23">+</text>
<text x="115.89" y="368.38">.</text>
<text x="147.46" y="157.53">+</text>
<text x="82.28" y="498.72">+</text>
<text x="364.07" y="493.21">+</text>
<text x="183.50" y="298.31">+</text>
<text x="90.61" y="0.20">.</text>
<text x="148.00" y="275.02">.</text>
<text x="314.44" y="42.66">+</text>
<text x="72.08" y="27.57">.</text>
<text x="394.49" y="481.52">*</text>
<text x="290.43" y="124.01">.</text>
<text x="208.45" y="345.32">+</text>
<text x="140.40" y="394.97">.</text>
<text x="226.54" y="437.70">.</text>
<text x="324.51" y="426.56">+</text>
<text x="404.15" y="290.47">.</text>
<text x="172.46" y="277.53">*</text>
<text x="307.97" y="485.14">*</text>
<text x="395.15" y="114.35">+</text>
<text x="383.28" y="132.57">+</text>
<text x="180.77" y="105.88">*</text>
<text x="120.63" y="362.42">*</text>
<text x="281.23" y="57.80">.</text>
<text x="308.54" y="399.92">.</text>
<text x="352.32" y="26.05">*</text>
<text x="58.88" y="468.56">.</text>
<text x="38.51" y="378.63">+</text>
<text x="217.49" y="200.69">+</text>
<text x="310.02" y="16.60">+</text>
<text x="292.61" y="441.10">+</text>
<text x="364.36" y="127.18">.</text>
<text x="224.53" y="420.06">.</text>
<text x="238.52" y="144.13">+</text>
<text x="300.76" y="254.96">.</text>
<text x="46.21" y="237.28">+</text>
<text x="478.45" y="438.46">.</text>
<text x="316.08" y="143.90">.</text>
<text x="490.98" y="461.11">+</text>
<text x="14.87" y="72.77">+</text>
<text x="192.24" y="395.66">.</text>
<text x="408.75" y="184.59">.</text>
<text x="343.86" y="491.75">.</text>
<text x="335.42" y="144.79">.</text>
<text x="252.98" y="88.64">.</text>
<text x="307.83" y="280.74">.</text>
<text x="237.70" y="262.65">.</text>
<text x="69.91" y="452.86">+</text>
<text x="204.33" y="227.23">.</text>
<text x="35.94" y="353.62">+</text>
<text x="440.55" y="406.34">*</text>
<text x="474.57" y="378.39">.</text>
<text x="394.96" y="245.73">+</text>
<text x="149.93" y="271.42">+</text>
<text x="224.98" y="391.51">.</text>
<text x="194.43" y="272.60">+</text>
<text x="225.84" y="86.80">*</text>
<text x="452.94" y="201.40">*</text>
<text x="321.46" y="281.63">.</text>
<text x="265.13" y="49.86">+</text>
<text x="353.72" y="31.68">+</text>
<text x="22.62" y="212.73">.</text>
<text x="473.79" y="158.94">+</text>
<text x="175.24" y="251.55">*</text>
<text x="366.85" y="330.82">+</text>
<text x="1.35" y="101.39">.</text>
<text x="224.78" y="473.55">*</text>
<text x="494.81" y="127.53">.</text>
<text x="304.33" y="411.38">.</text>
<text x="203.94" y="322.26">+</text>
<text x="494.64" y="162.37">.</text>
<text x="282.10" y="306.20">.</text>
<text x="447.02" y="218.41">*</text>
<text x="201.49" y="372.57">+</text>
<text x="474.46" y="282.44">.</text>
<text x="56.20" y="60.78">+</text>
<text x="76.13" y="267.42">*</text>
<text x="269.98" y="85.68">+</text>
<text x="333.87" y="329.96">.</text>
<text x="226.56" y="261.44">+</text>

</svg>