
<svg viewBox="0 0 500 500" xmlns="http://www.w.org/2000/svg" width="100%" height="100%" style="background-color: #0a0a14; font-family: 'Courier New', Courier, monospace;">
    <style>
        text { fill: #aaa; font-size: 10px; text-anchor: middle; dominant-baseline: middle; }
    </style>
    <text x="272.29" y="317.68">+</text>
<text x="272.22" y="56.65">.</text>
<text x="135.24" y="56.44">.</text>
<text x="326.21" y="402.89">+</text>
<text x="29.45" y="97.90">+</text>
<text x="234.62" y="57.27">+</text>
<text x="310.13" y="382.39">.</text>
<text x="359.41" y="410.88">.</text>
<text x="64.50" y="305.93">+</text>
<text x="300.62" y="394.80">.</text>
<text x="70.04" y="130.49">*</text>
<text x="61.69" y="189.17">+</text>
<text x="214.80" y="227.92">+</text>
<text x="438.37" y="78.22">.</text>
<text x="169.94" y="165.03">.</text>
<text x="264.67" y="459.47">*</text>
<text x="258.65" y="378.95">+</text>
<text x="335.69" y="283.63">.</text>
<text x="335.81" y="174.25">*</text>
<text x="88.30" y="235.10">.</text>
<text x="290.84" y="266.88">.</text>
<text x="102.13" y="384.81">+</text>
<text x="1.83" y="342.09">.</text>
<text x="458.58" y="278.86">.</text>
<text x="437.45" y="113.52">.</text>
<text x="205.86" y="231.02">.</text>
<text x="324.79" y="154.70">+</text>
<text x="208.62" y="148.44">+</text>
<text x="179.51" y="376.36">+</text>
<text x="496.66" y="308.27">.</text>
<text x="288.25" y="489.86">*</text>
<text x="406.73" y="385.18">.</text>
<text x="107.59" y="405.48">+</text>
<text x="127.31" y="468.97">+</text>
<text x="416.34" y="354.62">+</text>
<text x="448.96" y="208.32">+</text>
<text x="285.71" y="278.73">+</text>
<text x="171.52" y="270.00">+</text>
<text x="82.30" y="325.97">*</text>
<text x="314.48" y="362.32">+</text>
<text x="45.21" y="98.90">.</text>
<text x="91.54" y="481.04">+</text>
<text x="145.45" y="465.71">+</text>
<text x="304.09" y="203.33">.</text>
<text x="143.99" y="93.83">.</text>
<text x="51.66" y="362.63">.</text>
<text x="59.97" y="326.68">+</text>
<text x="466.28" y="377.81">+</text>
<text x="34.77" y="347.63">+</text>
<text x="378.17" y="252.94">+</text>
<text x="307.57" y="379.64">+</text>
<text x="425.93" y="386.76">*</text>
<text x="33.96" y="107.30">+</text>
<text x="363.18" y="216.52">*</text>
<text x="149.65" y="329.26">+</text>
<text x="160.48" y="79.84">+</text>
<text x="337.46" y="462.12">+</text>
<text x="35.26" y="96.93">.</text>
<text x="47.65" y="436.02">+</text>
<text x="93.13" y="140.65">.</text>
<text x="105.00" y="346.07">+</text>
<text x="198.01" y="73.91">+</text>
<text x="444.41" y="446.72">.</text>
<text x="64.83" y="457.34">+</text>
<text x="13.33" y="242.53">+</text>
<text x="160.35" y="342.12">.</text>
<text x="404.90" y="189.09">.</text>
<text x="237.48" y="147.89">.</text>
<text x="89.00" y="305.66">.</text>
<text x="231.62" y="405.04">.</text>
<text x="421.61" y="257.07">.</text>
<text x="78.67" y="495.73">.</text>
<text x="154.46" y="65.80">+</text>
<text x="186.46" y="194.37">*</text>
<text x="72.39" y="320.16">*</text>
<text x="159.21" y="465.39">+</text>
<text x="232.67" y="142.71">.</text>
<text x="445.48" y="354.91">*</text>
<text x="130.61" y="246.37">.</text>
<text x="107.77" y="254.30">.</text>
<text x="60.81" y="127.51">+</text>
<text x="355.56" y="333.49">.</text>
<text x="137.29" y="242.85">*</text>
<text x="453.21" y="140.60">*</text>
<text x="209.99" y="319.77">+</text>
<text x="351.98" y="444.46">*</text>
<text x="95.10" y="486.61">.</text>
<text x="235.11" y="235.55">+</text>
<text x="105.31" y="381.43">*</text>
<text x="499.97" y="423.88">*</text>
<text x="59.72" y="402.67">+</text>
<text x="146.41" y="499.69">*</text>
<text x="260.32" y="476.18">+</text>
<text x="436.44" y="178.27">+</text>
<text x="215.97" y="85.44">+</text>
<text x="361.09" y="282.96">.</text>
<text x="200.73" y="454.93">.</text>
<text x="200.18" y="367.28">+</text>
<text x="50.22" y="23.89">.</text>
<text x="193.09" y="56.58">+</text>
<text x="444.40" y="470.49">.</text>
<text x="85.63" y="428.76">+</text>
<text x="89.67" y="108.40">.</text>
<text x="47.85" y="180.32">.</text>
<text x="415.35" y="439.57">.</text>
<text x="439.22" y="250.70">+</text>
<text x="317.01" y="258.39">+</text>
<text x="282.34" y="470.91">+</text>
<text x="115.64" y="342.34">.</text>
<text x="157.97" y="386.22">.</text>
<text x="51.79" y="94.31">+</text>
<text x="442.87" y="322.66">.</text>
<text x="183.70" y="149.30">+</text>
<text x="161.31" y="365.09">+</text>
<text x="414.24" y="490.49">.</text>
<text x="345.42" y="386.82">.</text>
<text x="230.32" y="362.87">.</text>
<text x="306.25" y="336.26">*</text>
<text x="266.63" y="122.26">.</text>
<text x="13.16" y="450.41">.</text>
<text x="404.38" y="329.42">*</text>
<text x="156.53" y="53.76">.</text>
<text x="195.95" y="157.33">+</text>
<text x="265.22" y="398.72">.</text>
<text x="348.09" y="317.12">+</text>
<text x="322.93" y="347.89">.</text>
<text x="229.99" y="307.09">+</text>
<text x="34.37" y="72.27">+</text>
<text x="368.22" y="261.74">+</text>
<text x="483.81" y="277.50">*</text>
<text x="50.81" y="213.48">+</text>
<text x="18.09" y="136.77">+</text>
<text x="488.02" y="41.44">.</text>
<text x="176.67" y="147.70">+</text>
<text x="342.59" y="490.58">*</text>
<text x="382.32" y="358.16">*</text>
<text x="408.18" y="408.02">.</text>
<text x="316.64" y="157.81">+</text>
<text x="346.75" y="221.59">.</text>
<text x="214.46" y="110.62">+</text>
<text x="192.34" y="469.49">+</text>
<text x="142.29" y="38.21">*</text>
<text x="72.45" y="124.74">.</text>
<text x="186.93" y="391.24">.</text>
<text x="200.91" y="477.37">.</text>
<text x="439.18" y="389.97">.</text>
<text x="131.85" y="196.35">+</text>
<text x="400.91" y="106.63">+</text>
<text x="29.82" y="330.18">+</text>
<text x="84.40" y="441.11">.</text>
<text x="433.41" y="107.48">.</text>
<text x="216.26" y="113.68">.</text>
<text x="99.85" y="285.98">+</text>
<text x="377.60" y="276.94">+</text>
<text x="297.14" y="354.34">.</text>
<text x="76.53" y="152.06">+</text>
<text x="24.54" y="442.23">.</text>
<text x="25.96" y="124.32">+</text>
<text x="162.11" y="407.80">*</text>
<text x="464.77" y="344.37">+</text>
<text x="485.57" y="128.07">.</text>
<text x="46.70" y="415.70">.</text>
<text x="320.85" y="378.17">+</text>
<text x="39.49" y="187.68">+</text>
<text x="178.64" y="230.55">.</text>
<text x="446.56" y="185.78">+</text>
<text x="384.21" y="450.00">.</text>
<text x="138.75" y="378.43">.</text>
<text x="54.64" y="208.45">+</text>
<text x="449.39" y="191.19">+</text>
<text x="236.44" y="311.92">*</text>
<text x="452.47" y="213.30">.</text>
<text x="136.86" y="279.01">*</text>
<text x="263.94" y="177.43">+</text>
<text x="307.70" y="285.29">*</text>
<text x="351.11" y="391.34">.</text>
<text x="266.11" y="15.85">+</text>
<text x="393.02" y="47.96">.</text>
<text x="123.69" y="171.81">.</text>
<text x="290.12" y="162.31">+</text>
<text x="204.48" y="257.33">.</text>
<text x="150.39" y="218.59">+</text>
<text x="180.98" y="271.15">*</text>
<text x="430.43" y="122.89">+</text>
<text x="20.44" y="317.17">.</text>
<text x="135.34" y="323.89">.</text>
<text x="155.64" y="55.77">.</text>
<text x="359.68" y="273.50">+</text>
<text x="145.34" y="436.67">+</text>
<text x="15.86" y="46.96">*</text>
<text x="47.27" y="39.62">+</text>
<text x="138.17" y="284.74">.</text>
<text x="251.46" y="222.67">.</text>
<text x="254.53" y="407.65">.</text>
<text x="98.76" y="70.18">.</text>
<text x="129.17" y="81.43">.</text>
<text x="149.86" y="356.76">+</text>
<text x="186.43" y="37.00">+</text>
<text x="334.16" y="89.32">.</text>
<text x="94.45" y="475.36">*</text>
<text x="209.00" y="87.90">+</text>
<text x="256.86" y="350.59">*</text>
<text x="172.13" y="442.00">.</text>
<text x="313.32" y="66.73">.</text>
<text x="156.13" y="222.09">+</text>
<text x="113.04" y="229.91">+</text>
<text x="83.06" y="412.45">*</text>
<text x="380.42" y="296.40">.</text>
<text x="304.58" y="252.82">.</text>
<text x="292.08" y="336.72">.</text>
<text x="391.02" y="299.08">+</text>

</svg>