
<svg viewBox="0 0 500 500" xmlns="http://www.w.org/2000/svg" width="100%" height="100%" style="background-color: #0a0a14; font-family: 'Courier New', Courier, monospace;">
    <style>
        text { fill: #aaa; font-size: 10px; text-anchor: middle; dominant-baseline: middle; }
    </style>
    <text x="345.65" y="82.23">.</text>
<text x="232.49" y="378.39">+</text>
<text x="258.27" y="147.44">.</text>
<text x="394.85" y="105.30">+</text>
<text x="455.13" y="423.16">*</text>
<text x="361.67" y="383.41">.</text>
<text x="84.38" y="490.80">.</text>
<text x="123.35" y="400.63">.</text>
<text x="133.67" y="124.28">+</text>
<text x="421.71" y="398.44">+</text>
<text x="65.69" y="433.43">*</text>
<text x="170.59" y="403.36">+</text>
<text x="70.86" y="429.77">+</text>
<text x="14.91" y="163.71">.</text>
<text x="66.42" y="27.77">+</text>
<text x="492.96" y="273.21">+</text>
<text x="164.93" y="311.47">.</text>
<text x="151.94" y="93.05">*</text>
<text x="189.37" y="486.40">*</text>
<text x="487.25" y="186.97">.</text>
<text x="315.04" y="269.45">+</text>
<text x="126.42" y="296.44">.</text>
<text x="17.13" y="28.87">+</text>
<text x="312.73" y="250.58">.</text>
<text x="420.44" y="388.85">.</text>
<text x="62.76" y="226.39">+</text>
<text x="169.71" y="120.39">+</text>
<text x="166.16" y="218.87">.</text>
<text x="15.55" y="221.45">.</text>
<text x="273.79" y="359.58">.</text>
<text x="228.06" y="238.45">*</text>
<text x="454.60" y="269.44">*</text>
<text x="99.16" y="450.06">.</text>
<text x="257.19" y="330.13">+</text>
<text x="249.07" y="172.29">+</text>
<text x="110.55" y="437.23">+</text>
<text x="68.34" y="112.05">.</text>
<text x="37.01" y="73.70">+</text>
<text x="374.04" y="64.58">.</text>
<text x="48.06" y="289.60">.</text>
<text x="464.43" y="262.70">.</text>
<text x="30.14" y="248.89">+</text>
<text x="263.54" y="459.17">+</text>
<text x="190.68" y="241.37">.</text>
<text x="257.50" y="197.71">+</text>
<text x="76.47" y="100.82">+</text>
<text x="264.64" y="43.82">*</text>
<text x="151.83" y="467.15">.</text>
<text x="36.69" y="285.69">*</text>
<text x="280.90" y="112.07">.</text>
<text x="388.87" y="73.77">+</text>
<text x="209.56" y="134.16">.</text>
<text x="471.11" y="176.00">.</text>
<text x="89.18" y="350.59">+</text>
<text x="417.39" y="186.64">.</text>
<text x="54.81" y="432.95">+</text>
<text x="456.39" y="18.66">+</text>
<text x="309.58" y="400.41">*</text>
<text x="275.84" y="69.63">.</text>
<text x="258.77" y="491.85">+</text>
<text x="4.34" y="280.20">*</text>
<text x="210.16" y="184.26">+</text>
<text x="296.24" y="77.70">+</text>
<text x="11.05" y="218.88">.</text>
<text x="220.24" y="351.00">+</text>
<text x="196.13" y="341.96">.</text>
<text x="177.65" y="77.93">+</text>
<text x="399.25" y="48.92">.</text>
<text x="427.43" y="175.87">+</text>
<text x="59.36" y="375.04">.</text>
<text x="350.08" y="384.76">.</text>
<text x="490.62" y="499.57">.</text>
<text x="444.73" y="266.82">+</text>
<text x="104.99" y="405.99">.</text>
<text x="319.68" y="386.05">+</text>
<text x="1.47" y="307.75">.</text>
<text x="428.97" y="159.38">*</text>
<text x="217.45" y="422.12">.</text>
<text x="321.43" y="269.04">+</text>
<text x="463.45" y="350.52">+</text>
<text x="75.02" y="168.24">+</text>
<text x="145.36" y="258.44">+</text>
<text x="313.84" y="231.19">+</text>
<text x="311.08" y="89.57">*</text>
<text x="232.22" y="214.14">.</text>
<text x="132.63" y="496.53">+</text>
<text x="273.73" y="78.44">+</text>
<text x="97.91" y="462.12">.</text>
<text x="338.90" y="448.50">+</text>
<text x="135.40" y="48.24">.</text>
<text x="40.14" y="412.28">+</text>
<text x="459.72" y="441.28">+</text>
<text x="498.94" y="204.28">+</text>
<text x="292.20" y="117.26">+</text>
<text x="151.96" y="107.41">*</text>
<text x="334.11" y="284.92">.</text>
<text x="245.91" y="145.28">.</text>
<text x="275.33" y="376.66">+</text>
<text x="138.81" y="171.70">+</text>
<text x="62.25" y="77.49">.</text>
<text x="129.18" y="227.65">.</text>
<text x="109.06" y="257.32">+</text>
<text x="196.61" y="494.05">.</text>
<text x="181.93" y="11.20">+</text>
<text x="286.48" y="138.78">.</text>
<text x="29.07" y="403.06">+</text>
<text x="75.00" y="219.87">+</text>
<text x="267.27" y="286.01">+</text>
<text x="431.25" y="383.79">+</text>
<text x="108.42" y="348.77">.</text>
<text x="362.73" y="15.82">+</text>
<text x="171.42" y="367.43">*</text>
<text x="366.26" y="43.06">*</text>
<text x="11.93" y="249.84">+</text>
<text x="371.35" y="288.12">.</text>
<text x="248.12" y="351.82">*</text>
<text x="147.18" y="72.44">+</text>
<text x="280.37" y="198.22">.</text>
<text x="333.66" y="458.67">.</text>
<text x="312.36" y="350.86">+</text>
<text x="360.62" y="382.81">+</text>
<text x="270.69" y="231.83">.</text>
<text x="106.97" y="181.67">.</text>
<text x="265.09" y="52.70">.</text>
<text x="190.84" y="75.09">+</text>
<text x="398.98" y="315.54">+</text>
<text x="250.76" y="72.55">+</text>
<text x="119.45" y="66.08">+</text>
<text x="38.95" y="142.34">+</text>
<text x="165.67" y="385.87">+</text>
<text x="218.94" y="312.91">.</text>
<text x="82.30" y="336.34">.</text>
<text x="261.07" y="286.48">+</text>
<text x="202.13" y="470.78">+</text>
<text x="392.12" y="118.12">+</text>
<text x="148.52" y="291.19">+</text>
<text x="375.80" y="51.06">.</text>
<text x="37.69" y="405.91">+</text>
<text x="440.13" y="284.66">.</text>
<text x="274.60" y="439.03">.</text>
<text x="128.59" y="134.81">.</text>
<text x="23.32" y="231.46">*</text>
<text x="363.73" y="364.25">+</text>
<text x="231.35" y="175.71">.</text>
<text x="346.26" y="226.88">+</text>
<text x="382.75" y="482.75">+</text>
<text x="300.36" y="26.20">+</text>
<text x="47.43" y="490.96">+</text>
<text x="19.93" y="212.61">+</text>
<text x="195.73" y="98.44">.</text>
<text x="282.81" y="288.90">+</text>
<text x="199.44" y="396.02">+</text>
<text x="145.39" y="334.64">+</text>
<text x="360.29" y="220.05">*</text>
<text x="361.63" y="54.51">+</text>
<text x="335.01" y="324.61">.</text>
<text x="484.25" y="46.70">+</text>
<text x="165.79" y="157.40">+</text>
<text x="91.71" y="456.41">+</text>
<text x="432.15" y="165.37">+</text>
<text x="75.29" y="324.34">+</text>
<text x="33.31" y="481.44">+</text>
<text x="470.11" y="364.85">+</text>
<text x="411.48" y="298.42">.</text>
<text x="223.34" y="110.21">*</text>
<text x="296.61" y="448.83">.</text>
<text x="171.94" y="308.97">+</text>
<text x="466.12" y="136.17">+</text>
<text x="494.25" y="177.50">.</text>
<text x="464.68" y="128.55">+</text>
<text x="342.39" y="127.26">+</text>
<text x="57.70" y="272.81">.</text>
<text x="359.43" y="298.86">+</text>
<text x="474.20" y="79.26">.</text>
<text x="108.68" y="482.16">.</text>
<text x="482.55" y="41.18">*</text>
<text x="358.44" y="435.63">*</text>
<text x="260.78" y="273.25">*</text>
<text x="208.47" y="243.95">+</text>
<text x="490.48" y="25.83">*</text>
<text x="486.82" y="318.82">.</text>
<text x="441.90" y="343.72">+</text>
<text x="48.78" y="96.89">.</text>
<text x="445.12" y="35.34">.</text>
<text x="103.65" y="209.04">*</text>
<text x="215.92" y="50.28">.</text>
<text x="0.86" y="196.06">+</text>
<text x="362.14" y="367.43">+</text>
<text x="247.42" y="126.32">.</text>
<text x="318.40" y="138.14">+</text>
<text x="51.53" y="210.43">*</text>
<text x="497.25" y="189.59">*</text>
<text x="473.04" y="457.66">+</text>
<text x="405.37" y="83.08">*</text>
<text x="24.02" y="250.79">*</text>
<text x="69.01" y="136.29">.</text>
<text x="423.02" y="81.89">+</text>
<text x="378.54" y="224.22">+</text>
<text x="328.46" y="342.82">.</text>
<text x="16.11" y="417.75">*</text>
<text x="75.39" y="382.71">.</text>
<text x="164.25" y="32.42">.</text>
<text x="228.47" y="13.55">+</text>
<text x="425.03" y="251.29">.</text>
<text x="89.18" y="59.28">+</text>
<text x="396.92" y="254.30">.</text>
<text x="15.92" y="280.52">+</text>
<text x="394.70" y="93.43">.</text>
<text x="72.94" y="123.03">+</text>
<text x="267.15" y="52.06">+</text>
<text x="194.22" y="123.78">*</text>

</svg>