
<svg viewBox="0 0 500 500" xmlns="http://www.w.org/2000/svg" width="100%" height="100%" style="background-color: #0a0a14; font-family: 'Courier New', Courier, monospace;">
    <style>
        text { fill: #aaa; font-size: 10px; text-anchor: middle; dominant-baseline: middle; }
    </style>
    <text x="404.19" y="218.24">*</text>
<text x="215.38" y="387.03">+</text>
<text x="303.18" y="266.09">+</text>
<text x="338.34" y="171.00">*</text>
<text x="275.45" y="483.38">.</text>
<text x="237.90" y="131.83">.</text>
<text x="259.06" y="498.28">*</text>
<text x="439.92" y="333.23">.</text>
<text x="401.82" y="63.58">+</text>
<text x="353.09" y="406.58">*</text>
<text x="419.21" y="209.10">+</text>
<text x="187.37" y="60.56">.</text>
<text x="302.09" y="116.71">.</text>
<text x="200.74" y="397.95">.</text>
<text x="448.74" y="371.68">+</text>
<text x="361.58" y="229.57">+</text>
<text x="267.80" y="9.90">+</text>
<text x="366.47" y="371.53">*</text>
<text x="287.04" y="230.42">+</text>
<text x="268.08" y="411.53">+</text>
<text x="345.20" y="427.90">.</text>
<text x="436.57" y="247.70">.</text>
<text x="27.97" y="285.05">.</text>
<text x="294.52" y="26.09">+</text>
<text x="352.89" y="42.28">+</text>
<text x="440.56" y="98.54">+</text>
<text x="185.72" y="16.60">.</text>
<text x="190.39" y="1.75">+</text>
<text x="196.65" y="193.31">.</text>
<text x="493.44" y="67.31">+</text>
<text x="243.49" y="351.33">+</text>
<text x="317.72" y="336.83">+</text>
<text x="241.18" y="489.38">+</text>
<text x="436.45" y="405.71">.</text>
<text x="347.33" y="354.25">.</text>
<text x="146.61" y="220.43">+</text>
<text x="288.87" y="368.06">+</text>
<text x="45.44" y="35.00">.</text>
<text x="175.05" y="477.27">*</text>
<text x="452.43" y="142.74">*</text>
<text x="465.14" y="437.02">*</text>
<text x="282.90" y="432.31">+</text>
<text x="499.64" y="147.01">+</text>
<text x="43.28" y="22.65">.</text>
<text x="198.26" y="361.10">+</text>
<text x="312.05" y="274.87">.</text>
<text x="78.05" y="59.46">+</text>
<text x="175.57" y="10.97">.</text>
<text x="103.68" y="261.86">+</text>
<text x="425.04" y="453.14">.</text>
<text x="204.16" y="111.66">+</text>
<text x="215.98" y="8.03">+</text>
<text x="32.03" y="330.06">+</text>
<text x="383.47" y="13.04">.</text>
<text x="108.54" y="14.67">+</text>
<text x="176.45" y="45.02">.</text>
<text x="490.43" y="30.77">.</text>
<text x="372.96" y="348.69">.</text>
<text x="106.80" y="426.42">*</text>
<text x="64.79" y="9.51">.</text>
<text x="463.40" y="94.37">+</text>
<text x="438.18" y="402.32">+</text>
<text x="362.48" y="199.90">+</text>
<text x="492.98" y="225.59">.</text>
<text x="345.90" y="360.18">+</text>
<text x="1.52" y="313.65">.</text>
<text x="271.63" y="324.17">+</text>
<text x="441.43" y="324.10">.</text>
<text x="154.69" y="102.72">+</text>
<text x="184.37" y="311.75">+</text>
<text x="470.67" y="196.06">+</text>
<text x="14.69" y="104.42">+</text>
<text x="82.65" y="436.29">+</text>
<text x="336.47" y="80.29">+</text>
<text x="112.99" y="228.56">+</text>
<text x="430.94" y="196.51">+</text>
<text x="143.13" y="474.34">.</text>
<text x="463.83" y="338.04">*</text>
<text x="243.63" y="374.03">.</text>
<text x="204.02" y="467.30">.</text>
<text x="291.77" y="47.60">.</text>
<text x="383.17" y="3.55">.</text>
<text x="89.96" y="106.78">+</text>
<text x="368.12" y="245.41">.</text>
<text x="17.09" y="260.58">*</text>
<text x="40.82" y="443.65">+</text>
<text x="39.00" y="285.43">+</text>
<text x="48.18" y="365.41">.</text>
<text x="305.37" y="115.28">+</text>
<text x="231.07" y="123.32">+</text>
<text x="465.93" y="338.24">.</text>
<text x="257.27" y="332.62">.</text>
<text x="381.09" y="74.32">*</text>
<text x="355.02" y="196.30">.</text>
<text x="256.65" y="314.86">.</text>
<text x="94.73" y="156.97">+</text>
<text x="98.97" y="36.63">.</text>
<text x="343.77" y="446.60">.</text>
<text x="348.33" y="459.58">+</text>
<text x="36.24" y="253.49">*</text>
<text x="218.18" y="266.54">.</text>
<text x="318.08" y="241.68">+</text>
<text x="28.79" y="468.94">.</text>
<text x="99.41" y="195.06">*</text>
<text x="51.58" y="74.39">+</text>
<text x="117.62" y="341.75">.</text>
<text x="408.12" y="251.35">+</text>
<text x="133.86" y="262.66">+</text>
<text x="417.70" y="191.34">+</text>
<text x="5.42" y="123.38">.</text>
<text x="269.47" y="264.72">.</text>
<text x="309.46" y="165.98">+</text>
<text x="427.82" y="195.30">.</text>
<text x="433.49" y="13.48">.</text>
<text x="489.65" y="23.67">+</text>
<text x="222.48" y="461.06">.</text>
<text x="476.91" y="492.75">+</text>
<text x="156.63" y="67.11">+</text>
<text x="182.98" y="72.95">*</text>
<text x="422.04" y="489.50">.</text>
<text x="393.46" y="401.84">.</text>
<text x="428.88" y="379.23">+</text>
<text x="436.89" y="40.45">+</text>
<text x="443.84" y="381.42">*</text>
<text x="491.71" y="147.66">*</text>
<text x="251.03" y="373.73">*</text>
<text x="479.17" y="228.57">+</text>
<text x="345.83" y="111.63">.</text>
<text x="112.16" y="116.71">+</text>
<text x="330.71" y="423.62">+</text>
<text x="74.61" y="231.18">+</text>
<text x="49.74" y="203.17">.</text>
<text x="53.25" y="15.46">+</text>
<text x="403.33" y="347.28">+</text>
<text x="351.82" y="37.09">.</text>
<text x="348.27" y="155.04">.</text>
<text x="455.61" y="139.25">.</text>
<text x="40.56" y="118.68">+</text>
<text x="312.70" y="386.95">.</text>
<text x="223.91" y="95.45">+</text>
<text x="45.89" y="248.05">.</text>
<text x="281.12" y="385.03">.</text>
<text x="34.64" y="246.27">+</text>
<text x="201.63" y="495.50">+</text>
<text x="275.88" y="465.79">+</text>
<text x="73.31" y="396.90">+</text>
<text x="323.03" y="136.82">*</text>
<text x="417.59" y="345.11">.</text>
<text x="260.78" y="71.26">+</text>
<text x="99.05" y="313.97">+</text>
<text x="81.54" y="133.71">*</text>
<text x="216.19" y="41.09">.</text>
<text x="398.73" y="351.69">.</text>
<text x="157.98" y="364.33">+</text>
<text x="318.26" y="422.25">.</text>
<text x="78.60" y="22.52">+</text>
<text x="235.50" y="170.71">+</text>
<text x="427.59" y="354.74">+</text>
<text x="0.75" y="315.68">+</text>
<text x="46.71" y="185.84">*</text>
<text x="451.90" y="492.73">+</text>
<text x="477.30" y="77.56">+</text>
<text x="195.78" y="97.80">.</text>
<text x="347.77" y="389.47">.</text>
<text x="457.23" y="143.37">+</text>
<text x="255.82" y="428.43">+</text>
<text x="126.34" y="253.78">.</text>
<text x="320.78" y="439.02">+</text>
<text x="393.99" y="298.43">.</text>
<text x="275.99" y="452.05">+</text>
<text x="405.23" y="7.62">+</text>
<text x="293.76" y="257.02">+</text>
<text x="398.46" y="430.57">.</text>
<text x="77.22" y="497.56">+</text>
<text x="370.82" y="52.75">+</text>
<text x="105.62" y="120.49">.</text>
<text x="200.60" y="251.33">+</text>
<text x="473.42" y="141.41">+</text>
<text x="408.73" y="232.53">+</text>
<text x="376.97" y="66.62">.</text>
<text x="431.14" y="99.77">+</text>
<text x="449.04" y="55.60">*</text>
<text x="453.12" y="274.96">+</text>
<text x="150.28" y="44.11">+</text>
<text x="419.11" y="384.39">+</text>
<text x="304.55" y="79.46">.</text>
<text x="13.21" y="398.80">.</text>
<text x="40.00" y="198.80">+</text>
<text x="269.21" y="188.43">.</text>
<text x="180.63" y="125.65">+</text>
<text x="167.43" y="196.20">+</text>
<text x="224.05" y="471.37">+</text>
<text x="311.12" y="5.85">.</text>
<text x="137.35" y="93.43">.</text>
<text x="70.80" y="96.23">.</text>
<text x="425.37" y="333.45">+</text>
<text x="408.77" y="283.11">.</text>
<text x="149.51" y="447.10">.</text>
<text x="300.03" y="108.06">+</text>
<text x="169.34" y="40.08">+</text>
<text x="320.39" y="89.24">.</text>
<text x="292.55" y="21.93">.</text>
<text x="417.73" y="42.45">.</text>
<text x="300.16" y="305.82">.</text>
<text x="58.25" y="287.09">+</text>
<text x="4.22" y="319.26">.</text>
<text x="168.25" y="341.86">*</text>
<text x="368.74" y="426.34">+</text>
<text x="273.85" y="327.02">+</text>

</svg>