
<svg viewBox="0 0 500 500" xmlns="http://www.w.org/2000/svg" width="100%" height="100%" style="background-color: #0a0a14; font-family: 'Courier New', Courier, monospace;">
    <style>
        text { fill: #aaa; font-size: 10px; text-anchor: middle; dominant-baseline: middle; }
    </style>
    <text x="489.77" y="304.64">*</text>
<text x="12.32" y="233.45">.</text>
<text x="274.04" y="72.84">.</text>
<text x="436.22" y="165.25">.</text>
<text x="329.85" y="128.85">.</text>
<text x="412.89" y="289.95">*</text>
<text x="404.57" y="27.13">+</text>
<text x="119.11" y="352.27">.</text>
<text x="460.09" y="385.27">*</text>
<text x="192.47" y="56.06">+</text>
<text x="270.90" y="485.38">+</text>
<text x="323.19" y="487.65">.</text>
<text x="194.92" y="49.05">+</text>
<text x="96.12" y="137.29">*</text>
<text x="253.17" y="366.27">.</text>
<text x="196.09" y="43.19">.</text>
<text x="417.75" y="393.18">.</text>
<text x="23.80" y="227.07">+</text>
<text x="148.42" y="312.73">*</text>
<text x="369.85" y="43.18">.</text>
<text x="271.27" y="404.78">*</text>
<text x="231.26" y="493.71">.</text>
<text x="15.99" y="330.51">+</text>
<text x="385.03" y="201.54">+</text>
<text x="455.22" y="259.91">+</text>
<text x="135.11" y="428.91">.</text>
<text x="333.05" y="9.29">.</text>
<text x="185.74" y="279.09">.</text>
<text x="406.63" y="95.73">+</text>
<text x="251.66" y="478.28">.</text>
<text x="488.03" y="291.00">.</text>
<text x="491.15" y="42.38">+</text>
<text x="81.40" y="93.00">+</text>
<text x="356.82" y="75.61">+</text>
<text x="419.62" y="410.94">.</text>
<text x="203.55" y="125.53">+</text>
<text x="175.09" y="467.74">.</text>
<text x="312.05" y="21.69">.</text>
<text x="45.35" y="411.87">+</text>
<text x="185.49" y="412.56">+</text>
<text x="25.36" y="79.53">.</text>
<text x="170.39" y="45.53">.</text>
<text x="362.08" y="382.91">.</text>
<text x="286.61" y="186.81">.</text>
<text x="337.73" y="134.46">.</text>
<text x="299.95" y="186.71">+</text>
<text x="10.93" y="163.91">+</text>
<text x="362.88" y="249.11">.</text>
<text x="189.69" y="117.42">+</text>
<text x="248.68" y="97.55">.</text>
<text x="226.43" y="380.18">.</text>
<text x="91.24" y="73.45">+</text>
<text x="117.32" y="247.00">+</text>
<text x="144.15" y="135.79">.</text>
<text x="322.75" y="243.65">+</text>
<text x="238.38" y="302.59">+</text>
<text x="441.47" y="485.49">+</text>
<text x="206.77" y="135.39">.</text>
<text x="46.42" y="206.78">+</text>
<text x="130.02" y="263.41">.</text>
<text x="343.55" y="213.02">.</text>
<text x="256.48" y="185.02">+</text>
<text x="184.83" y="417.62">.</text>
<text x="44.40" y="367.56">.</text>
<text x="320.67" y="227.03">+</text>
<text x="17.01" y="345.18">.</text>
<text x="143.10" y="378.68">*</text>
<text x="356.56" y="430.11">+</text>
<text x="397.96" y="209.75">.</text>
<text x="294.81" y="78.37">*</text>
<text x="342.14" y="151.12">+</text>
<text x="44.56" y="38.41">.</text>
<text x="368.46" y="303.65">+</text>
<text x="332.16" y="195.98">*</text>
<text x="104.93" y="30.91">*</text>
<text x="49.98" y="282.79">*</text>
<text x="133.33" y="156.26">.</text>
<text x="118.34" y="94.98">.</text>
<text x="15.94" y="234.71">.</text>
<text x="69.23" y="270.11">.</text>
<text x="0.13" y="85.97">.</text>
<text x="243.05" y="120.00">.</text>
<text x="406.31" y="425.66">*</text>
<text x="105.81" y="323.98">*</text>
<text x="66.05" y="206.82">+</text>
<text x="238.38" y="259.53">.</text>
<text x="341.66" y="469.70">.</text>
<text x="490.81" y="244.03">+</text>
<text x="219.13" y="260.73">.</text>
<text x="159.51" y="135.05">.</text>
<text x="96.93" y="169.06">.</text>
<text x="193.35" y="467.62">.</text>
<text x="13.31" y="274.76">.</text>
<text x="283.50" y="431.79">+</text>
<text x="258.54" y="161.14">*</text>
<text x="251.08" y="304.05">.</text>
<text x="167.67" y="326.65">.</text>
<text x="189.10" y="63.27">+</text>
<text x="353.80" y="433.47">+</text>
<text x="135.63" y="44.49">.</text>
<text x="90.23" y="159.88">.</text>
<text x="19.33" y="377.42">+</text>
<text x="430.85" y="373.44">.</text>
<text x="195.77" y="157.01">+</text>
<text x="361.03" y="113.56">+</text>
<text x="112.23" y="342.78">+</text>
<text x="5.62" y="151.91">*</text>
<text x="38.72" y="100.35">.</text>
<text x="191.91" y="148.68">+</text>
<text x="90.38" y="128.95">.</text>
<text x="498.35" y="287.98">.</text>
<text x="81.69" y="498.08">+</text>
<text x="439.71" y="401.28">.</text>
<text x="451.55" y="77.83">*</text>
<text x="300.24" y="40.92">+</text>
<text x="471.61" y="272.67">*</text>
<text x="277.97" y="100.37">+</text>
<text x="372.60" y="51.18">+</text>
<text x="386.73" y="153.39">.</text>
<text x="232.46" y="5.47">.</text>
<text x="61.57" y="236.78">.</text>
<text x="209.27" y="105.83">.</text>
<text x="34.40" y="452.35">+</text>
<text x="421.33" y="475.56">.</text>
<text x="389.05" y="4.81">.</text>
<text x="255.67" y="408.27">+</text>
<text x="324.17" y="80.40">.</text>
<text x="488.03" y="448.32">+</text>
<text x="81.42" y="167.53">+</text>
<text x="317.24" y="129.12">+</text>
<text x="498.05" y="342.35">.</text>
<text x="349.54" y="20.80">+</text>
<text x="315.48" y="105.20">.</text>
<text x="217.31" y="192.87">+</text>
<text x="460.29" y="195.52">.</text>
<text x="480.08" y="153.93">+</text>
<text x="243.92" y="190.88">.</text>
<text x="140.18" y="456.88">+</text>
<text x="172.06" y="267.50">+</text>
<text x="288.36" y="189.45">.</text>
<text x="33.75" y="224.68">.</text>
<text x="79.74" y="274.69">.</text>
<text x="353.56" y="345.01">+</text>
<text x="362.98" y="437.44">.</text>
<text x="357.90" y="329.84">.</text>
<text x="418.45" y="118.39">.</text>
<text x="402.18" y="14.81">*</text>
<text x="129.41" y="317.25">+</text>
<text x="146.53" y="483.36">+</text>
<text x="66.00" y="200.67">.</text>
<text x="116.46" y="133.49">.</text>
<text x="377.12" y="274.55">+</text>
<text x="348.08" y="7.65">+</text>
<text x="248.45" y="10.22">.</text>
<text x="122.50" y="189.05">.</text>
<text x="459.61" y="387.24">*</text>
<text x="124.37" y="233.69">.</text>
<text x="244.03" y="465.35">+</text>
<text x="85.00" y="236.83">.</text>
<text x="448.71" y="156.10">.</text>
<text x="105.01" y="43.64">+</text>
<text x="11.43" y="286.89">.</text>
<text x="17.01" y="158.12">*</text>
<text x="137.84" y="88.75">+</text>
<text x="388.66" y="26.90">+</text>
<text x="490.02" y="433.09">+</text>
<text x="60.40" y="420.27">*</text>
<text x="211.31" y="198.81">+</text>
<text x="256.11" y="157.55">+</text>
<text x="479.28" y="279.59">*</text>
<text x="187.63" y="27.32">+</text>
<text x="363.28" y="438.14">.</text>
<text x="301.49" y="234.87">+</text>
<text x="341.11" y="84.20">.</text>
<text x="313.89" y="123.46">.</text>
<text x="399.42" y="43.46">.</text>
<text x="287.87" y="169.64">+</text>
<text x="220.19" y="100.41">.</text>
<text x="477.61" y="114.44">+</text>
<text x="341.80" y="298.42">.</text>
<text x="410.73" y="230.68">+</text>
<text x="221.99" y="41.54">*</text>
<text x="23.76" y="136.43">+</text>
<text x="492.09" y="115.33">.</text>
<text x="408.49" y="37.88">+</text>
<text x="305.88" y="214.27">.</text>
<text x="349.60" y="373.26">+</text>
<text x="389.46" y="495.37">+</text>
<text x="384.07" y="115.09">+</text>
<text x="320.37" y="24.54">*</text>
<text x="312.04" y="309.15">*</text>

</svg>