
<svg viewBox="0 0 500 500" xmlns="http://www.w.org/2000/svg" width="100%" height="100%" style="background-color: #0a0a14; font-family: 'Courier New', Courier, monospace;">
    <style>
        text { fill: #aaa; font-size: 10px; text-anchor: middle; dominant-baseline: middle; }
    </style>
    <text x="443.46" y="440.05">+</text>
<text x="98.68" y="237.71">*</text>
<text x="463.21" y="289.29">.</text>
<text x="366.15" y="275.81">*</text>
<text x="114.59" y="420.36">.</text>
<text x="27.31" y="45.91">+</text>
<text x="318.68" y="495.41">.</text>
<text x="338.65" y="274.65">+</text>
<text x="262.46" y="350.26">.</text>
<text x="370.49" y="10.40">+</text>
<text x="418.82" y="496.60">.</text>
<text x="464.43" y="56.44">+</text>
<text x="437.42" y="472.10">.</text>
<text x="36.18" y="241.08">.</text>
<text x="339.69" y="382.62">.</text>
<text x="136.02" y="23.82">+</text>
<text x="451.40" y="224.11">+</text>
<text x="228.85" y="73.71">+</text>
<text x="410.61" y="185.68">+</text>
<text x="145.87" y="70.08">+</text>
<text x="393.09" y="76.84">*</text>
<text x="121.78" y="69.70">+</text>
<text x="497.18" y="236.89">.</text>
<text x="127.81" y="80.04">.</text>
<text x="274.15" y="11.70">*</text>
<text x="199.95" y="136.93">+</text>
<text x="315.21" y="236.18">+</text>
<text x="412.06" y="384.31">*</text>
<text x="303.75" y="398.85">+</text>
<text x="318.62" y="56.05">+</text>
<text x="196.59" y="4.47">.</text>
<text x="399.70" y="281.79">+</text>
<text x="203.94" y="275.83">.</text>
<text x="177.06" y="452.84">+</text>
<text x="248.85" y="305.12">*</text>
<text x="136.03" y="104.07">+</text>
<text x="419.65" y="295.79">+</text>
<text x="491.74" y="93.05">.</text>
<text x="449.69" y="88.23">+</text>
<text x="429.30" y="305.91">+</text>
<text x="446.09" y="468.56">.</text>
<text x="312.23" y="258.49">+</text>
<text x="356.97" y="39.47">+</text>
<text x="228.25" y="245.51">+</text>
<text x="235.81" y="327.18">+</text>
<text x="425.49" y="321.44">*</text>
<text x="485.89" y="225.14">*</text>
<text x="194.09" y="448.58">+</text>
<text x="243.69" y="29.64">.</text>
<text x="347.08" y="453.10">+</text>
<text x="304.21" y="148.66">.</text>
<text x="362.10" y="10.85">.</text>
<text x="176.41" y="497.62">.</text>
<text x="53.90" y="400.52">.</text>
<text x="303.71" y="494.99">+</text>
<text x="396.07" y="485.23">*</text>
<text x="352.89" y="331.24">+</text>
<text x="489.85" y="224.46">+</text>
<text x="322.59" y="238.75">*</text>
<text x="458.49" y="156.10">.</text>
<text x="306.57" y="342.15">.</text>
<text x="184.10" y="153.75">.</text>
<text x="479.00" y="97.25">.</text>
<text x="89.12" y="241.00">+</text>
<text x="28.63" y="438.42">+</text>
<text x="244.80" y="367.73">*</text>
<text x="334.12" y="259.42">+</text>
<text x="340.68" y="125.30">.</text>
<text x="58.11" y="220.46">.</text>
<text x="497.15" y="183.16">+</text>
<text x="443.15" y="313.09">+</text>
<text x="437.80" y="44.39">+</text>
<text x="58.28" y="122.02">.</text>
<text x="490.78" y="56.80">+</text>
<text x="278.05" y="490.67">+</text>
<text x="300.71" y="8.25">.</text>
<text x="182.84" y="166.01">+</text>
<text x="175.61" y="269.75">+</text>
<text x="288.36" y="252.40">*</text>
<text x="109.06" y="45.07">+</text>
<text x="468.48" y="467.59">*</text>
<text x="478.49" y="312.92">+</text>
<text x="263.62" y="353.89">.</text>
<text x="409.64" y="314.60">*</text>
<text x="227.44" y="67.72">.</text>
<text x="408.48" y="312.36">+</text>
<text x="19.76" y="272.05">+</text>
<text x="463.44" y="281.66">+</text>
<text x="141.59" y="342.12">.</text>
<text x="202.14" y="449.15">.</text>
<text x="249.48" y="358.08">+</text>
<text x="8.93" y="152.70">.</text>
<text x="29.85" y="309.89">+</text>
<text x="193.04" y="56.04">.</text>
<text x="383.71" y="372.68">.</text>
<text x="237.23" y="350.00">.</text>
<text x="187.92" y="258.04">*</text>
<text x="180.06" y="189.32">+</text>
<text x="137.92" y="430.00">+</text>
<text x="108.77" y="39.75">.</text>
<text x="62.35" y="230.06">*</text>
<text x="402.45" y="50.47">+</text>
<text x="483.91" y="446.13">+</text>
<text x="426.29" y="363.96">+</text>
<text x="208.17" y="265.22">.</text>
<text x="358.37" y="303.31">.</text>
<text x="338.23" y="132.05">+</text>
<text x="475.45" y="308.97">+</text>
<text x="316.71" y="371.40">+</text>
<text x="6.85" y="461.11">*</text>
<text x="309.70" y="199.06">.</text>
<text x="421.54" y="216.14">.</text>
<text x="283.26" y="399.44">.</text>
<text x="477.56" y="445.44">*</text>
<text x="10.23" y="329.03">+</text>
<text x="368.02" y="330.46">*</text>
<text x="392.69" y="86.45">+</text>
<text x="111.82" y="429.43">.</text>
<text x="125.96" y="149.29">.</text>
<text x="471.86" y="427.61">+</text>
<text x="390.18" y="260.16">+</text>
<text x="393.97" y="402.99">*</text>
<text x="108.91" y="44.36">+</text>
<text x="464.23" y="361.55">+</text>
<text x="383.35" y="298.92">*</text>
<text x="79.04" y="290.77">.</text>
<text x="181.89" y="475.87">.</text>
<text x="35.34" y="156.68">.</text>
<text x="184.99" y="225.55">.</text>
<text x="16.04" y="106.54">.</text>
<text x="216.03" y="41.70">*</text>
<text x="461.37" y="94.92">*</text>
<text x="198.04" y="87.61">+</text>
<text x="302.10" y="339.62">+</text>
<text x="428.71" y="17.54">+</text>
<text x="424.74" y="322.61">+</text>
<text x="195.84" y="145.35">*</text>
<text x="263.08" y="206.86">+</text>
<text x="433.89" y="405.27">.</text>
<text x="50.02" y="332.94">*</text>
<text x="100.06" y="377.01">+</text>
<text x="80.88" y="115.76">+</text>
<text x="422.97" y="206.32">*</text>
<text x="311.07" y="108.32">+</text>
<text x="170.92" y="259.92">*</text>
<text x="64.58" y="396.64">*</text>
<text x="467.92" y="245.63">+</text>
<text x="126.68" y="483.73">+</text>
<text x="206.54" y="245.69">.</text>
<text x="279.71" y="319.69">.</text>
<text x="349.95" y="181.48">.</text>
<text x="251.54" y="227.74">.</text>
<text x="3.11" y="121.53">*</text>
<text x="461.31" y="397.06">*</text>
<text x="318.58" y="80.39">+</text>
<text x="361.60" y="484.04">.</text>
<text x="450.81" y="248.23">+</text>
<text x="34.19" y="36.00">+</text>
<text x="334.26" y="189.80">+</text>
<text x="69.53" y="352.17">*</text>
<text x="171.68" y="277.49">.</text>
<text x="327.44" y="410.55">*</text>
<text x="17.61" y="12.63">.</text>
<text x="24.36" y="483.21">+</text>
<text x="270.80" y="287.08">+</text>
<text x="388.24" y="90.09">.</text>
<text x="399.57" y="363.63">+</text>
<text x="55.99" y="156.92">+</text>
<text x="28.70" y="450.49">.</text>
<text x="150.00" y="144.61">.</text>
<text x="287.60" y="410.75">.</text>
<text x="130.88" y="90.77">.</text>
<text x="386.48" y="174.48">+</text>
<text x="143.08" y="332.86">+</text>
<text x="36.00" y="169.33">.</text>
<text x="56.68" y="463.73">+</text>
<text x="376.26" y="419.28">+</text>
<text x="367.13" y="172.09">.</text>
<text x="452.84" y="194.86">+</text>
<text x="34.05" y="50.81">+</text>
<text x="212.89" y="225.26">+</text>
<text x="416.42" y="402.00">+</text>
<text x="165.06" y="185.78">+</text>
<text x="260.89" y="314.66">.</text>
<text x="451.71" y="20.53">+</text>
<text x="359.07" y="421.18">+</text>
<text x="319.66" y="462.01">+</text>
<text x="39.60" y="495.23">.</text>
<text x="256.85" y="432.90">.</text>
<text x="231.19" y="45.92">.</text>
<text x="435.97" y="63.36">+</text>
<text x="13.97" y="393.55">+</text>
<text x="402.10" y="72.93">+</text>
<text x="428.25" y="102.65">+</text>
<text x="65.33" y="156.24">.</text>
<text x="180.77" y="467.49">+</text>
<text x="182.81" y="105.95">.</text>
<text x="264.94" y="79.46">*</text>
<text x="294.92" y="7.81">.</text>
<text x="315.61" y="277.79">.</text>
<text x="31.77" y="179.33">*</text>
<text x="427.65" y="289.57">+</text>
<text x="357.55" y="209.05">+</text>
<text x="192.22" y="459.72">*</text>
<text x="162.20" y="281.61">+</text>

</svg>