
<svg viewBox="0 0 500 500" xmlns="http://www.w.org/2000/svg" width="100%" height="100%" style="background-color: #0a0a14; font-family: 'Courier New', Courier, monospace;">
    <style>
        text { fill: #aaa; font-size: 10px; text-anchor: middle; dominant-baseline: middle; }
    </style>
    <text x="498.54" y="362.64">.</text>
<text x="38.12" y="352.11">+</text>
<text x="109.45" y="128.02">*</text>
<text x="97.42" y="429.46">*</text>
<text x="3.10" y="30.43">.</text>
<text x="471.50" y="436.32">.</text>
<text x="440.34" y="278.86">.</text>
<text x="82.98" y="350.95">.</text>
<text x="85.92" y="146.60">.</text>
<text x="241.55" y="492.93">+</text>
<text x="218.81" y="72.05">.</text>
<text x="476.39" y="151.30">.</text>
<text x="157.12" y="150.19">+</text>
<text x="402.83" y="128.26">.</text>
<text x="48.50" y="412.10">+</text>
<text x="2.73" y="398.06">+</text>
<text x="195.79" y="122.03">.</text>
<text x="205.54" y="23.58">.</text>
<text x="443.26" y="398.67">.</text>
<text x="459.94" y="123.89">*</text>
<text x="458.58" y="495.97">+</text>
<text x="446.74" y="391.93">*</text>
<text x="252.63" y="22.75">.</text>
<text x="100.88" y="407.94">.</text>
<text x="265.77" y="11.51">+</text>
<text x="471.24" y="113.76">+</text>
<text x="146.04" y="17.85">+</text>
<text x="390.86" y="498.82">*</text>
<text x="447.16" y="259.33">*</text>
<text x="101.90" y="254.66">.</text>
<text x="11.51" y="400.35">+</text>
<text x="142.06" y="43.56">+</text>
<text x="340.37" y="418.80">+</text>
<text x="456.77" y="167.79">.</text>
<text x="82.34" y="1.43">+</text>
<text x="91.37" y="289.67">+</text>
<text x="279.74" y="12.21">+</text>
<text x="414.94" y="132.52">+</text>
<text x="203.12" y="234.52">*</text>
<text x="3.81" y="309.83">.</text>
<text x="161.46" y="13.43">+</text>
<text x="313.98" y="425.12">.</text>
<text x="49.53" y="271.19">+</text>
<text x="68.25" y="97.44">+</text>
<text x="8.57" y="64.54">.</text>
<text x="461.97" y="56.16">+</text>
<text x="373.75" y="429.07">*</text>
<text x="325.12" y="290.58">.</text>
<text x="282.05" y="305.96">.</text>
<text x="310.63" y="92.58">*</text>
<text x="377.97" y="79.77">+</text>
<text x="296.94" y="202.19">+</text>
<text x="298.58" y="327.13">.</text>
<text x="246.73" y="94.60">+</text>
<text x="156.24" y="153.91">*</text>
<text x="64.71" y="458.06">.</text>
<text x="147.31" y="112.61">+</text>
<text x="124.91" y="88.34">.</text>
<text x="370.89" y="97.29">+</text>
<text x="254.30" y="331.50">+</text>
<text x="161.88" y="32.41">+</text>
<text x="216.98" y="355.02">*</text>
<text x="116.34" y="468.31">+</text>
<text x="62.84" y="157.04">.</text>
<text x="32.68" y="396.00">.</text>
<text x="46.48" y="192.01">+</text>
<text x="12.89" y="453.12">*</text>
<text x="449.61" y="293.82">.</text>
<text x="107.45" y="409.53">+</text>
<text x="4.72" y="402.79">*</text>
<text x="424.22" y="400.15">.</text>
<text x="162.84" y="333.34">+</text>
<text x="209.13" y="6.53">+</text>
<text x="35.82" y="295.53">.</text>
<text x="444.57" y="64.70">+</text>
<text x="86.84" y="296.50">.</text>
<text x="120.43" y="427.56">.</text>
<text x="250.56" y="416.55">+</text>
<text x="128.58" y="426.69">+</text>
<text x="224.70" y="459.79">.</text>
<text x="135.94" y="277.06">+</text>
<text x="141.52" y="493.72">+</text>
<text x="38.92" y="308.06">*</text>
<text x="40.15" y="353.21">*</text>
<text x="42.98" y="71.04">+</text>
<text x="459.72" y="126.51">.</text>
<text x="311.40" y="121.35">+</text>
<text x="297.46" y="407.35">.</text>
<text x="103.14" y="418.61">+</text>
<text x="75.05" y="87.30">+</text>
<text x="269.30" y="27.12">+</text>
<text x="244.00" y="103.20">.</text>
<text x="180.29" y="56.36">+</text>
<text x="243.96" y="348.29">+</text>
<text x="105.63" y="427.98">.</text>
<text x="169.05" y="45.68">*</text>
<text x="23.55" y="147.21">*</text>
<text x="418.79" y="480.63">+</text>
<text x="72.05" y="495.12">+</text>
<text x="44.77" y="139.83">*</text>
<text x="188.32" y="378.55">.</text>
<text x="236.13" y="169.35">.</text>
<text x="179.16" y="302.91">.</text>
<text x="412.45" y="326.91">*</text>
<text x="231.06" y="174.83">+</text>
<text x="229.83" y="244.65">+</text>
<text x="391.07" y="314.36">*</text>
<text x="43.20" y="394.44">+</text>
<text x="296.90" y="337.06">*</text>
<text x="313.28" y="272.08">+</text>
<text x="28.79" y="144.56">.</text>
<text x="336.02" y="94.68">+</text>
<text x="148.87" y="193.09">+</text>
<text x="388.70" y="383.16">+</text>
<text x="30.90" y="490.93">.</text>
<text x="41.32" y="230.65">.</text>
<text x="325.95" y="448.00">.</text>
<text x="292.19" y="302.57">+</text>
<text x="171.94" y="58.27">.</text>
<text x="493.39" y="414.52">+</text>
<text x="390.15" y="351.25">.</text>
<text x="454.42" y="323.95">*</text>
<text x="272.23" y="42.40">.</text>
<text x="33.52" y="257.28">.</text>
<text x="201.21" y="93.26">+</text>
<text x="158.18" y="144.36">+</text>
<text x="36.46" y="140.73">.</text>
<text x="458.18" y="103.05">+</text>
<text x="430.87" y="446.30">+</text>
<text x="116.37" y="153.74">+</text>
<text x="97.16" y="105.93">+</text>
<text x="53.54" y="363.73">.</text>
<text x="305.31" y="310.94">.</text>
<text x="338.22" y="58.99">+</text>
<text x="210.03" y="203.20">*</text>
<text x="100.36" y="154.35">+</text>
<text x="174.61" y="59.94">.</text>
<text x="386.37" y="263.38">+</text>
<text x="174.44" y="199.45">*</text>
<text x="404.91" y="215.34">.</text>
<text x="497.68" y="243.55">+</text>
<text x="112.02" y="474.23">*</text>
<text x="288.71" y="246.16">.</text>
<text x="9.19" y="492.68">.</text>
<text x="427.54" y="48.15">+</text>
<text x="288.10" y="233.09">*</text>
<text x="73.88" y="255.80">.</text>
<text x="51.87" y="56.22">+</text>
<text x="238.07" y="380.75">.</text>
<text x="177.71" y="131.64">.</text>
<text x="356.32" y="495.14">.</text>
<text x="282.85" y="419.83">+</text>
<text x="135.58" y="315.92">.</text>
<text x="396.41" y="301.07">.</text>
<text x="31.45" y="155.87">+</text>
<text x="217.42" y="485.01">+</text>
<text x="106.86" y="107.11">+</text>
<text x="24.48" y="131.02">+</text>
<text x="492.60" y="280.22">+</text>
<text x="327.33" y="347.86">+</text>
<text x="389.98" y="243.75">.</text>
<text x="226.32" y="281.44">.</text>
<text x="379.14" y="137.26">+</text>
<text x="232.67" y="85.75">.</text>
<text x="325.64" y="10.55">+</text>
<text x="384.36" y="106.16">*</text>
<text x="3.04" y="388.54">.</text>
<text x="439.04" y="362.76">+</text>
<text x="339.54" y="381.60">+</text>
<text x="397.93" y="441.32">.</text>
<text x="360.81" y="181.88">+</text>
<text x="465.51" y="186.04">.</text>
<text x="214.19" y="135.90">.</text>
<text x="331.87" y="440.33">*</text>
<text x="305.38" y="328.95">*</text>
<text x="249.38" y="211.03">.</text>
<text x="141.95" y="169.41">*</text>
<text x="250.33" y="110.47">+</text>
<text x="65.46" y="182.15">+</text>
<text x="379.55" y="406.22">*</text>
<text x="107.43" y="225.99">+</text>
<text x="483.25" y="289.04">+</text>
<text x="79.10" y="225.30">.</text>
<text x="490.26" y="353.71">+</text>
<text x="31.29" y="10.58">.</text>
<text x="0.26" y="394.76">.</text>
<text x="94.47" y="303.17">.</text>
<text x="389.64" y="53.24">.</text>
<text x="334.84" y="114.76">.</text>
<text x="268.78" y="210.17">+</text>
<text x="123.81" y="172.39">+</text>
<text x="189.27" y="317.93">.</text>
<text x="318.25" y="201.68">.</text>
<text x="451.51" y="258.24">+</text>
<text x="141.35" y="77.52">*</text>
<text x="327.74" y="439.89">+</text>
<text x="42.86" y="152.54">+</text>
<text x="321.82" y="100.13">.</text>
<text x="463.25" y="20.29">.</text>
<text x="465.51" y="494.64">.</text>
<text x="147.93" y="105.38">+</text>
<text x="173.36" y="462.38">.</text>
<text x="126.51" y="90.53">.</text>
<text x="390.70" y="77.68">.</text>
<text x="393.29" y="433.84">.</text>
<text x="313.98" y="219.02">*</text>
<text x="265.43" y="210.89">.</text>
<text x="419.16" y="410.24">.</text>
<text x="365.87" y="345.77">*</text>
<text x="175.83" y="334.66">+</text>
<text x="41.97" y="213.68">+</text>
<text x="209.99" y="151.79">.</text>
<text x="145.50" y="102.82">+</text>
<text x="328.63" y="348.58">.</text>
<text x="306.19" y="293.33">*</text>
<text x="452.81" y="176.20">+</text>
<text x="251.78" y="336.47">+</text>
<text x="415.79" y="475.80">.</text>
<text x="172.39" y="73.93">*</text>

</svg>