
<svg viewBox="0 0 500 500" xmlns="http://www.w.org/2000/svg" width="100%" height="100%" style="background-color: #0a0a14; font-family: 'Courier New', Courier, monospace;">
    <style>
        text { fill: #aaa; font-size: 10px; text-anchor: middle; dominant-baseline: middle; }
    </style>
    <text x="340.96" y="415.78">.</text>
<text x="116.85" y="52.35">.</text>
<text x="359.21" y="29.24">+</text>
<text x="60.33" y="15.89">.</text>
<text x="18.74" y="295.59">+</text>
<text x="271.00" y="69.86">.</text>
<text x="177.62" y="204.13">.</text>
<text x="192.10" y="46.17">.</text>
<text x="55.58" y="217.98">+</text>
<text x="27.63" y="383.89">.</text>
<text x="481.98" y="367.23">+</text>
<text x="372.96" y="213.40">*</text>
<text x="182.73" y="240.82">*</text>
<text x="195.96" y="171.19">+</text>
<text x="163.72" y="115.44">*</text>
<text x="377.07" y="32.71">.</text>
<text x="361.48" y="357.74">.</text>
<text x="43.63" y="19.85">+</text>
<text x="201.10" y="329.21">+</text>
<text x="396.15" y="329.13">+</text>
<text x="17.99" y="311.55">.</text>
<text x="234.10" y="381.18">.</text>
<text x="214.54" y="482.20">.</text>
<text x="405.95" y="390.89">+</text>
<text x="166.59" y="490.93">+</text>
<text x="393.13" y="403.98">*</text>
<text x="253.69" y="411.59">+</text>
<text x="401.92" y="379.38">+</text>
<text x="326.21" y="168.83">+</text>
<text x="417.89" y="404.54">+</text>
<text x="114.04" y="330.30">.</text>
<text x="335.20" y="47.36">.</text>
<text x="151.60" y="380.06">.</text>
<text x="320.12" y="86.45">*</text>
<text x="170.75" y="347.95">+</text>
<text x="204.77" y="7.54">.</text>
<text x="215.64" y="148.98">.</text>
<text x="274.13" y="198.26">*</text>
<text x="136.25" y="166.31">*</text>
<text x="220.59" y="226.92">+</text>
<text x="128.68" y="117.19">.</text>
<text x="422.92" y="331.42">+</text>
<text x="405.40" y="10.01">.</text>
<text x="374.79" y="255.43">.</text>
<text x="208.62" y="142.72">.</text>
<text x="427.50" y="236.36">+</text>
<text x="426.10" y="315.87">+</text>
<text x="216.67" y="75.54">+</text>
<text x="162.66" y="477.25">+</text>
<text x="295.13" y="489.05">.</text>
<text x="137.44" y="72.21">.</text>
<text x="296.18" y="49.01">+</text>
<text x="232.33" y="396.42">*</text>
<text x="217.60" y="485.86">.</text>
<text x="93.33" y="447.21">+</text>
<text x="20.61" y="166.34">.</text>
<text x="166.49" y="430.29">+</text>
<text x="152.82" y="421.19">.</text>
<text x="461.86" y="260.52">.</text>
<text x="170.64" y="136.30">.</text>
<text x="98.67" y="384.94">+</text>
<text x="377.37" y="426.47">.</text>
<text x="18.60" y="491.87">+</text>
<text x="272.37" y="485.42">.</text>
<text x="24.94" y="243.06">.</text>
<text x="343.25" y="238.95">*</text>
<text x="259.12" y="297.21">.</text>
<text x="227.22" y="46.04">*</text>
<text x="321.22" y="369.14">+</text>
<text x="323.97" y="469.48">*</text>
<text x="90.98" y="308.06">.</text>
<text x="430.72" y="218.32">*</text>
<text x="97.80" y="240.18">.</text>
<text x="187.45" y="2.03">+</text>
<text x="155.55" y="7.82">+</text>
<text x="472.74" y="467.27">.</text>
<text x="317.49" y="417.18">+</text>
<text x="110.62" y="250.62">+</text>
<text x="86.84" y="135.25">.</text>
<text x="412.90" y="302.62">.</text>
<text x="38.09" y="473.95">+</text>
<text x="178.00" y="371.88">.</text>
<text x="413.61" y="396.03">+</text>
<text x="165.40" y="152.05">.</text>
<text x="219.13" y="3.39">.</text>
<text x="250.91" y="215.09">+</text>
<text x="123.53" y="456.27">+</text>
<text x="277.06" y="93.82">.</text>
<text x="343.18" y="299.23">*</text>
<text x="77.00" y="10.88">+</text>
<text x="0.52" y="23.29">+</text>
<text x="366.05" y="469.26">+</text>
<text x="62.04" y="343.52">+</text>
<text x="298.14" y="270.33">*</text>
<text x="210.01" y="180.10">+</text>
<text x="414.26" y="38.13">.</text>
<text x="184.47" y="229.60">.</text>
<text x="209.33" y="160.01">.</text>
<text x="392.22" y="468.96">.</text>
<text x="424.02" y="309.10">+</text>
<text x="168.04" y="226.83">.</text>
<text x="444.34" y="119.30">*</text>
<text x="370.48" y="353.94">*</text>
<text x="418.66" y="279.48">*</text>
<text x="305.34" y="404.86">*</text>
<text x="218.25" y="161.81">*</text>
<text x="179.15" y="153.93">+</text>
<text x="370.17" y="411.86">+</text>
<text x="409.26" y="498.13">+</text>
<text x="263.45" y="112.41">*</text>
<text x="452.74" y="376.23">.</text>
<text x="147.71" y="108.82">.</text>
<text x="481.11" y="272.63">.</text>
<text x="472.89" y="409.18">+</text>
<text x="243.84" y="136.76">.</text>
<text x="470.38" y="90.66">.</text>
<text x="393.86" y="264.80">.</text>
<text x="10.21" y="409.27">+</text>
<text x="241.28" y="18.49">.</text>
<text x="325.50" y="479.57">+</text>
<text x="261.78" y="83.34">+</text>
<text x="98.84" y="486.51">.</text>
<text x="465.71" y="83.80">+</text>
<text x="187.85" y="8.19">*</text>
<text x="374.09" y="346.79">+</text>
<text x="378.68" y="43.25">*</text>
<text x="50.53" y="357.46">.</text>
<text x="391.27" y="447.50">.</text>
<text x="325.33" y="343.02">+</text>
<text x="75.06" y="295.22">+</text>
<text x="423.25" y="238.30">.</text>
<text x="30.28" y="239.91">+</text>
<text x="460.00" y="129.17">.</text>
<text x="101.21" y="201.76">+</text>
<text x="269.29" y="427.80">.</text>
<text x="390.07" y="32.34">*</text>
<text x="174.09" y="248.36">.</text>
<text x="485.92" y="182.82">+</text>
<text x="206.20" y="66.50">.</text>
<text x="229.23" y="265.91">+</text>
<text x="183.08" y="42.09">+</text>
<text x="425.56" y="88.34">.</text>
<text x="452.77" y="279.64">+</text>
<text x="453.46" y="108.35">*</text>
<text x="482.65" y="14.65">.</text>
<text x="192.84" y="162.41">+</text>
<text x="92.85" y="82.89">*</text>
<text x="314.64" y="370.73">.</text>
<text x="458.74" y="344.16">+</text>
<text x="359.64" y="392.20">+</text>
<text x="467.68" y="424.39">+</text>
<text x="402.26" y="403.38">+</text>
<text x="452.04" y="166.33">+</text>
<text x="369.09" y="355.68">+</text>
<text x="423.87" y="197.94">+</text>
<text x="149.29" y="94.95">.</text>
<text x="104.57" y="34.41">+</text>
<text x="410.15" y="71.74">+</text>
<text x="359.19" y="108.08">+</text>
<text x="472.82" y="493.24">.</text>
<text x="151.13" y="156.52">.</text>
<text x="35.42" y="484.19">.</text>
<text x="229.98" y="91.74">+</text>
<text x="2.36" y="411.24">+</text>
<text x="213.92" y="230.27">*</text>
<text x="481.87" y="233.63">.</text>
<text x="237.54" y="438.85">.</text>
<text x="457.44" y="113.54">+</text>
<text x="113.55" y="224.92">.</text>
<text x="416.47" y="96.07">*</text>
<text x="28.26" y="87.43">*</text>
<text x="481.34" y="201.63">.</text>
<text x="106.73" y="250.34">.</text>
<text x="301.77" y="488.47">*</text>
<text x="9.83" y="107.58">.</text>
<text x="302.28" y="164.68">+</text>
<text x="327.73" y="293.95">*</text>
<text x="45.85" y="458.03">.</text>
<text x="84.35" y="361.06">.</text>
<text x="249.38" y="20.07">.</text>
<text x="363.23" y="21.99">.</text>
<text x="243.41" y="258.16">*</text>
<text x="344.62" y="193.04">.</text>
<text x="406.70" y="103.99">+</text>
<text x="473.50" y="442.45">.</text>
<text x="195.61" y="327.63">+</text>
<text x="402.88" y="172.50">+</text>
<text x="212.65" y="58.12">*</text>
<text x="478.00" y="484.48">.</text>
<text x="418.16" y="245.64">+</text>
<text x="254.79" y="139.99">.</text>
<text x="148.49" y="167.59">.</text>
<text x="177.27" y="302.75">.</text>
<text x="324.33" y="252.91">+</text>
<text x="293.97" y="377.04">.</text>
<text x="8.61" y="238.87">+</text>
<text x="146.50" y="3.88">.</text>
<text x="473.34" y="244.79">+</text>
<text x="334.87" y="29.62">.</text>
<text x="161.92" y="319.17">.</text>
<text x="259.21" y="451.59">*</text>
<text x="425.99" y="182.84">.</text>
<text x="484.75" y="223.59">.</text>
<text x="197.74" y="222.49">+</text>
<text x="361.22" y="42.25">+</text>

</svg>