
<svg viewBox="0 0 500 500" xmlns="http://www.w.org/2000/svg" width="100%" height="100%" style="background-color: #0a0a14; font-family: 'Courier New', Courier, monospace;">
    <style>
        text { fill: #aaa; font-size: 10px; text-anchor: middle; dominant-baseline: middle; }
    </style>
    <text x="286.35" y="274.20">*</text>
<text x="141.80" y="97.06">.</text>
<text x="116.80" y="333.84">.</text>
<text x="342.03" y="372.98">.</text>
<text x="218.10" y="490.06">*</text>
<text x="13.83" y="161.29">*</text>
<text x="62.11" y="31.96">.</text>
<text x="179.04" y="276.19">.</text>
<text x="343.76" y="45.92">*</text>
<text x="305.78" y="295.26">+</text>
<text x="91.81" y="132.69">+</text>
<text x="290.21" y="440.33">+</text>
<text x="274.11" y="106.77">+</text>
<text x="22.21" y="359.71">+</text>
<text x="126.10" y="432.50">.</text>
<text x="199.87" y="460.43">.</text>
<text x="300.30" y="1.67">.</text>
<text x="348.53" y="329.81">*</text>
<text x="295.36" y="186.43">+</text>
<text x="100.12" y="87.10">.</text>
<text x="451.27" y="443.37">*</text>
<text x="327.46" y="300.27">*</text>
<text x="390.79" y="209.37">.</text>
<text x="51.26" y="424.42">.</text>
<text x="76.50" y="379.84">+</text>
<text x="461.75" y="488.62">+</text>
<text x="376.98" y="192.72">.</text>
<text x="441.81" y="78.21">.</text>
<text x="323.37" y="435.53">+</text>
<text x="226.55" y="238.41">.</text>
<text x="351.47" y="55.57">+</text>
<text x="171.20" y="45.50">.</text>
<text x="29.43" y="280.43">.</text>
<text x="391.23" y="465.68">.</text>
<text x="179.26" y="229.75">*</text>
<text x="295.54" y="404.58">*</text>
<text x="480.00" y="337.58">+</text>
<text x="327.80" y="113.04">+</text>
<text x="417.39" y="212.31">.</text>
<text x="30.96" y="174.05">+</text>
<text x="413.43" y="348.52">*</text>
<text x="362.46" y="287.69">*</text>
<text x="199.86" y="328.18">*</text>
<text x="61.23" y="154.15">+</text>
<text x="310.76" y="190.42">+</text>
<text x="114.13" y="307.16">*</text>
<text x="10.76" y="188.65">*</text>
<text x="127.47" y="211.00">+</text>
<text x="41.36" y="137.75">.</text>
<text x="129.10" y="322.73">.</text>
<text x="322.23" y="97.65">+</text>
<text x="323.36" y="138.04">.</text>
<text x="292.99" y="11.38">+</text>
<text x="421.88" y="73.20">.</text>
<text x="278.14" y="355.34">+</text>
<text x="313.81" y="436.60">+</text>
<text x="421.50" y="197.25">*</text>
<text x="152.74" y="283.18">+</text>
<text x="121.48" y="339.27">+</text>
<text x="256.82" y="22.44">.</text>
<text x="256.93" y="223.64">+</text>
<text x="280.99" y="328.04">+</text>
<text x="306.05" y="54.91">+</text>
<text x="18.22" y="185.90">+</text>
<text x="489.19" y="210.28">.</text>
<text x="87.65" y="405.90">+</text>
<text x="192.15" y="10.45">+</text>
<text x="143.00" y="338.16">+</text>
<text x="173.53" y="410.85">+</text>
<text x="1.28" y="169.65">+</text>
<text x="95.92" y="173.03">.</text>
<text x="229.52" y="24.73">.</text>
<text x="461.03" y="358.59">+</text>
<text x="345.51" y="427.22">+</text>
<text x="57.51" y="388.90">.</text>
<text x="157.52" y="378.57">.</text>
<text x="163.60" y="445.68">*</text>
<text x="145.90" y="99.68">*</text>
<text x="54.12" y="123.29">.</text>
<text x="310.89" y="114.39">*</text>
<text x="37.74" y="408.92">*</text>
<text x="183.70" y="291.66">.</text>
<text x="129.67" y="494.40">.</text>
<text x="233.57" y="190.02">+</text>
<text x="157.00" y="44.41">.</text>
<text x="52.12" y="430.04">+</text>
<text x="387.11" y="334.02">+</text>
<text x="49.27" y="108.48">+</text>
<text x="472.64" y="43.08">+</text>
<text x="184.82" y="378.40">+</text>
<text x="116.44" y="47.32">+</text>
<text x="444.94" y="384.19">+</text>
<text x="392.58" y="395.25">+</text>
<text x="110.25" y="467.83">.</text>
<text x="380.36" y="13.33">+</text>
<text x="323.83" y="251.68">+</text>
<text x="327.10" y="102.15">.</text>
<text x="239.39" y="218.27">*</text>
<text x="190.40" y="38.58">.</text>
<text x="33.16" y="30.57">+</text>
<text x="432.86" y="125.17">.</text>
<text x="370.80" y="28.47">.</text>
<text x="419.57" y="499.00">*</text>
<text x="440.57" y="306.47">+</text>
<text x="343.00" y="152.29">*</text>
<text x="46.72" y="139.43">.</text>
<text x="401.81" y="333.04">*</text>
<text x="68.39" y="219.80">+</text>
<text x="274.58" y="321.04">*</text>
<text x="164.93" y="411.53">+</text>
<text x="395.14" y="138.80">+</text>
<text x="85.35" y="200.68">.</text>
<text x="421.12" y="383.52">+</text>
<text x="14.63" y="451.99">.</text>
<text x="329.98" y="409.00">+</text>
<text x="6.90" y="184.34">+</text>
<text x="419.37" y="32.89">+</text>
<text x="32.43" y="494.90">*</text>
<text x="156.74" y="377.95">.</text>
<text x="469.50" y="170.80">.</text>
<text x="155.42" y="273.78">+</text>
<text x="69.58" y="15.64">+</text>
<text x="253.86" y="396.13">.</text>
<text x="36.33" y="71.56">.</text>
<text x="334.91" y="67.55">*</text>
<text x="155.20" y="239.75">.</text>
<text x="34.67" y="279.88">.</text>
<text x="251.03" y="193.51">.</text>
<text x="480.76" y="369.23">*</text>
<text x="111.93" y="433.34">+</text>
<text x="483.65" y="143.52">.</text>
<text x="358.75" y="411.90">.</text>
<text x="259.15" y="418.62">.</text>
<text x="78.56" y="439.88">*</text>
<text x="144.25" y="205.20">.</text>
<text x="319.53" y="4.31">+</text>
<text x="179.65" y="285.63">*</text>
<text x="47.04" y="350.52">.</text>
<text x="5.20" y="482.63">+</text>
<text x="328.96" y="240.87">+</text>
<text x="144.20" y="18.86">+</text>
<text x="286.85" y="437.31">.</text>
<text x="245.85" y="436.71">.</text>
<text x="55.14" y="457.63">.</text>
<text x="136.22" y="280.58">*</text>
<text x="312.28" y="410.26">.</text>
<text x="162.37" y="92.00">*</text>
<text x="0.87" y="45.78">.</text>
<text x="406.98" y="208.92">.</text>
<text x="249.22" y="99.63">+</text>
<text x="151.00" y="116.47">.</text>
<text x="95.59" y="129.67">.</text>
<text x="405.04" y="485.31">.</text>
<text x="6.47" y="258.16">.</text>
<text x="359.54" y="439.26">.</text>
<text x="244.62" y="63.75">.</text>
<text x="397.03" y="176.64">.</text>
<text x="380.05" y="323.09">+</text>
<text x="331.12" y="110.54">.</text>
<text x="229.69" y="43.42">+</text>
<text x="83.70" y="250.89">.</text>
<text x="366.22" y="206.50">*</text>
<text x="151.69" y="157.94">.</text>
<text x="214.20" y="157.18">.</text>
<text x="36.49" y="385.44">.</text>
<text x="334.91" y="345.93">+</text>
<text x="396.27" y="245.87">+</text>
<text x="245.31" y="341.25">.</text>
<text x="42.64" y="345.64">.</text>
<text x="253.63" y="172.07">+</text>
<text x="211.26" y="155.50">*</text>
<text x="163.67" y="405.33">+</text>
<text x="184.00" y="94.72">.</text>
<text x="273.43" y="325.25">+</text>
<text x="452.03" y="439.45">.</text>
<text x="103.99" y="223.17">.</text>
<text x="282.66" y="199.68">+</text>
<text x="398.11" y="248.10">*</text>
<text x="316.70" y="39.04">.</text>
<text x="149.95" y="281.38">+</text>
<text x="255.70" y="342.59">+</text>
<text x="68.05" y="202.06">+</text>
<text x="104.11" y="15.92">*</text>
<text x="286.22" y="393.41">+</text>
<text x="248.53" y="114.28">.</text>
<text x="169.48" y="352.37">.</text>
<text x="124.17" y="46.69">.</text>
<text x="92.84" y="109.69">.</text>
<text x="100.97" y="389.69">.</text>
<text x="396.17" y="299.45">.</text>
<text x="423.08" y="48.38">+</text>
<text x="258.44" y="126.00">*</text>
<text x="214.84" y="206.77">+</text>
<text x="258.63" y="406.75">.</text>
<text x="352.97" y="293.66">+</text>
<text x="399.95" y="113.20">.</text>
<text x="164.62" y="80.63">+</text>
<text x="350.79" y="39.74">+</text>
<text x="462.18" y="46.97">+</text>
<text x="393.03" y="169.96">+</text>
<text x="356.51" y="165.77">+</text>
<text x="100.40" y="203.46">.</text>
<text x="344.24" y="94.17">+</text>
<text x="167.65" y="44.14">+</text>
<text x="407.68" y="462.81">+</text>
<text x="263.75" y="452.22">+</text>
<text x="248.00" y="464.37">.</text>
<text x="444.25" y="465.56">+</text>
<text x="160.49" y="149.05">.</text>
<text x="46.76" y="353.02">.</text>
<text x="149.95" y="47.23">*</text>
<text x="324.45" y="396.55">*</text>
<text x="475.89" y="480.58">.</text>
<text x="213.61" y="195.27">.</text>
<text x="170.07" y="496.51">+</text>

</svg>