
<svg viewBox="0 0 500 500" xmlns="http://www.w.org/2000/svg" width="100%" height="100%" style="background-color: #0a0a14; font-family: 'Courier New', Courier, monospace;">
    <style>
        text { fill: #aaa; font-size: 10px; text-anchor: middle; dominant-baseline: middle; }
    </style>
    <text x="55.25" y="482.78">.</text>
<text x="299.18" y="239.01">+</text>
<text x="226.57" y="62.57">+</text>
<text x="78.91" y="415.05">+</text>
<text x="364.31" y="437.80">.</text>
<text x="491.43" y="76.71">+</text>
<text x="485.83" y="142.22">.</text>
<text x="245.19" y="377.26">.</text>
<text x="280.70" y="67.82">+</text>
<text x="224.88" y="113.44">.</text>
<text x="491.57" y="169.96">.</text>
<text x="493.59" y="214.35">+</text>
<text x="140.01" y="131.09">+</text>
<text x="438.03" y="244.90">+</text>
<text x="112.52" y="86.13">.</text>
<text x="428.60" y="375.08">.</text>
<text x="318.22" y="453.86">*</text>
<text x="114.56" y="281.92">.</text>
<text x="282.14" y="346.47">+</text>
<text x="148.14" y="137.93">+</text>
<text x="318.75" y="490.80">.</text>
<text x="449.85" y="350.66">*</text>
<text x="486.26" y="128.52">.</text>
<text x="269.45" y="439.76">.</text>
<text x="260.80" y="287.76">*</text>
<text x="359.73" y="202.06">+</text>
<text x="401.86" y="373.28">.</text>
<text x="325.83" y="272.29">.</text>
<text x="80.92" y="461.29">.</text>
<text x="169.67" y="221.80">.</text>
<text x="181.00" y="452.91">+</text>
<text x="259.42" y="92.24">+</text>
<text x="66.98" y="346.97">*</text>
<text x="424.48" y="478.55">*</text>
<text x="394.42" y="153.96">.</text>
<text x="192.78" y="210.21">.</text>
<text x="28.77" y="3.94">*</text>
<text x="166.87" y="190.96">.</text>
<text x="6.68" y="380.70">*</text>
<text x="261.98" y="110.19">+</text>
<text x="226.15" y="350.12">*</text>
<text x="478.48" y="297.67">+</text>
<text x="463.60" y="432.63">.</text>
<text x="290.15" y="424.07">+</text>
<text x="41.66" y="437.57">.</text>
<text x="299.69" y="186.95">+</text>
<text x="77.36" y="461.01">+</text>
<text x="330.79" y="444.87">+</text>
<text x="328.82" y="52.87">.</text>
<text x="243.99" y="306.23">*</text>
<text x="479.81" y="398.47">.</text>
<text x="70.23" y="234.76">.</text>
<text x="206.59" y="352.88">.</text>
<text x="41.38" y="419.17">.</text>
<text x="432.75" y="453.90">+</text>
<text x="329.02" y="175.84">+</text>
<text x="294.02" y="114.04">+</text>
<text x="442.65" y="172.36">+</text>
<text x="240.13" y="54.14">+</text>
<text x="462.46" y="494.96">.</text>
<text x="438.70" y="251.03">*</text>
<text x="52.76" y="321.01">+</text>
<text x="454.17" y="476.18">+</text>
<text x="366.48" y="302.40">.</text>
<text x="392.83" y="103.58">*</text>
<text x="120.70" y="227.71">*</text>
<text x="184.22" y="156.39">*</text>
<text x="223.58" y="442.80">.</text>
<text x="345.24" y="362.20">.</text>
<text x="493.16" y="229.69">*</text>
<text x="345.47" y="33.15">.</text>
<text x="6.91" y="419.56">+</text>
<text x="128.86" y="479.05">.</text>
<text x="56.74" y="452.11">+</text>
<text x="95.42" y="103.30">.</text>
<text x="446.79" y="278.71">.</text>
<text x="306.61" y="378.74">*</text>
<text x="499.85" y="50.71">+</text>
<text x="368.67" y="124.20">.</text>
<text x="207.28" y="247.37">.</text>
<text x="147.41" y="291.31">.</text>
<text x="128.40" y="14.55">+</text>
<text x="473.31" y="445.34">.</text>
<text x="300.41" y="95.82">+</text>
<text x="36.15" y="33.28">.</text>
<text x="279.40" y="436.74">.</text>
<text x="37.79" y="394.25">*</text>
<text x="8.15" y="157.37">.</text>
<text x="336.87" y="33.78">+</text>
<text x="252.66" y="124.05">.</text>
<text x="426.01" y="9.16">+</text>
<text x="355.72" y="397.81">+</text>
<text x="422.77" y="164.59">+</text>
<text x="389.99" y="238.06">.</text>
<text x="264.40" y="356.23">.</text>
<text x="48.49" y="300.94">+</text>
<text x="416.14" y="198.95">*</text>
<text x="364.53" y="212.04">.</text>
<text x="115.23" y="35.36">.</text>
<text x="479.43" y="226.42">.</text>
<text x="297.76" y="225.55">*</text>
<text x="271.81" y="249.27">+</text>
<text x="43.49" y="96.37">+</text>
<text x="65.17" y="170.66">.</text>
<text x="27.78" y="451.39">+</text>
<text x="154.26" y="88.69">.</text>
<text x="153.87" y="62.17">+</text>
<text x="109.57" y="213.08">.</text>
<text x="381.24" y="313.46">*</text>
<text x="202.69" y="482.85">+</text>
<text x="34.36" y="143.07">.</text>
<text x="305.25" y="400.64">.</text>
<text x="406.76" y="340.89">.</text>
<text x="260.70" y="438.08">*</text>
<text x="494.50" y="345.22">+</text>
<text x="183.44" y="420.74">+</text>
<text x="277.16" y="155.70">.</text>
<text x="71.73" y="454.98">.</text>
<text x="250.67" y="244.22">+</text>
<text x="429.95" y="230.22">.</text>
<text x="348.50" y="61.26">.</text>
<text x="145.33" y="130.22">.</text>
<text x="197.98" y="304.50">+</text>
<text x="401.49" y="475.17">.</text>
<text x="213.74" y="62.30">+</text>
<text x="1.56" y="74.40">*</text>
<text x="469.06" y="376.76">+</text>
<text x="104.07" y="102.21">+</text>
<text x="179.53" y="255.85">.</text>
<text x="79.68" y="495.00">.</text>
<text x="369.65" y="168.89">+</text>
<text x="416.15" y="134.40">.</text>
<text x="190.65" y="408.99">.</text>
<text x="310.93" y="43.81">+</text>
<text x="134.06" y="336.17">+</text>
<text x="19.19" y="497.25">.</text>
<text x="441.40" y="145.71">.</text>
<text x="98.96" y="338.81">+</text>
<text x="142.35" y="67.28">.</text>
<text x="471.56" y="352.62">*</text>
<text x="252.38" y="176.85">.</text>
<text x="462.37" y="248.76">.</text>
<text x="379.34" y="3.30">+</text>
<text x="196.15" y="72.60">+</text>
<text x="335.38" y="124.05">.</text>
<text x="417.66" y="55.46">.</text>
<text x="366.94" y="224.72">.</text>
<text x="458.89" y="193.72">.</text>
<text x="346.65" y="312.29">+</text>
<text x="141.20" y="153.23">*</text>
<text x="234.28" y="307.69">+</text>
<text x="151.02" y="312.88">*</text>
<text x="125.44" y="152.65">+</text>
<text x="322.88" y="432.79">.</text>
<text x="476.78" y="67.43">+</text>
<text x="187.99" y="22.25">.</text>
<text x="201.02" y="254.77">.</text>
<text x="215.72" y="262.92">+</text>
<text x="168.51" y="275.11">+</text>
<text x="349.55" y="315.10">.</text>
<text x="313.82" y="217.19">*</text>
<text x="294.72" y="80.85">+</text>
<text x="349.45" y="397.67">+</text>
<text x="360.36" y="113.00">.</text>
<text x="274.45" y="194.03">.</text>
<text x="128.70" y="70.80">.</text>
<text x="22.21" y="63.03">+</text>
<text x="386.39" y="196.04">.</text>
<text x="478.68" y="195.59">*</text>
<text x="446.56" y="69.34">.</text>
<text x="24.40" y="88.76">.</text>
<text x="307.19" y="173.05">+</text>
<text x="460.17" y="230.39">+</text>
<text x="111.57" y="65.94">.</text>
<text x="172.26" y="371.64">+</text>
<text x="478.24" y="81.13">+</text>
<text x="59.67" y="207.32">.</text>
<text x="162.12" y="29.04">+</text>
<text x="359.43" y="293.25">.</text>
<text x="21.27" y="475.43">.</text>
<text x="32.28" y="197.64">.</text>
<text x="153.38" y="300.07">+</text>
<text x="13.95" y="129.92">+</text>
<text x="57.62" y="453.45">+</text>
<text x="208.45" y="36.06">*</text>
<text x="274.95" y="297.23">.</text>
<text x="311.77" y="214.94">*</text>
<text x="477.43" y="467.97">.</text>
<text x="302.53" y="474.82">.</text>
<text x="103.92" y="67.62">+</text>
<text x="226.16" y="233.52">.</text>
<text x="427.41" y="359.82">.</text>
<text x="449.35" y="29.38">.</text>
<text x="130.44" y="175.48">*</text>
<text x="67.44" y="138.18">.</text>
<text x="160.27" y="157.01">+</text>
<text x="226.69" y="347.26">.</text>
<text x="268.07" y="377.52">*</text>
<text x="246.92" y="378.98">.</text>
<text x="182.25" y="350.70">.</text>
<text x="470.56" y="132.45">+</text>
<text x="321.74" y="255.24">+</text>
<text x="228.06" y="180.34">+</text>
<text x="478.47" y="278.84">.</text>
<text x="478.41" y="116.26">.</text>
<text x="277.25" y="249.05">+</text>
<text x="297.02" y="182.46">.</text>
<text x="168.35" y="355.20">.</text>
<text x="493.97" y="63.28">*</text>
<text x="264.40" y="246.82">+</text>

</svg>