
<svg viewBox="0 0 500 500" xmlns="http://www.w.org/2000/svg" width="100%" height="100%" style="background-color: #0a0a14; font-family: 'Courier New', Courier, monospace;">
    <style>
        text { fill: #aaa; font-size: 10px; text-anchor: middle; dominant-baseline: middle; }
    </style>
    <text x="130.32" y="351.72">*</text>
<text x="158.10" y="3.58">+</text>
<text x="229.33" y="239.55">+</text>
<text x="266.40" y="299.46">.</text>
<text x="167.76" y="454.95">+</text>
<text x="226.86" y="372.31">.</text>
<text x="458.39" y="132.59">.</text>
<text x="298.16" y="256.02">+</text>
<text x="240.54" y="451.27">.</text>
<text x="486.59" y="204.01">.</text>
<text x="398.01" y="115.05">+</text>
<text x="250.20" y="291.32">+</text>
<text x="473.65" y="44.70">.</text>
<text x="66.69" y="140.09">.</text>
<text x="430.92" y="438.97">.</text>
<text x="69.28" y="9.54">.</text>
<text x="299.51" y="387.19">+</text>
<text x="213.41" y="466.90">+</text>
<text x="444.20" y="279.79">+</text>
<text x="158.52" y="193.92">*</text>
<text x="65.79" y="240.31">.</text>
<text x="234.68" y="153.37">.</text>
<text x="98.58" y="168.86">.</text>
<text x="3.13" y="192.96">.</text>
<text x="62.03" y="413.87">.</text>
<text x="257.62" y="251.13">.</text>
<text x="410.03" y="87.40">.</text>
<text x="62.22" y="441.71">+</text>
<text x="242.53" y="0.70">+</text>
<text x="272.24" y="53.15">+</text>
<text x="453.21" y="116.24">.</text>
<text x="499.15" y="496.26">.</text>
<text x="383.57" y="403.17">+</text>
<text x="47.14" y="119.65">+</text>
<text x="216.51" y="358.24">+</text>
<text x="149.34" y="357.18">+</text>
<text x="398.92" y="385.27">.</text>
<text x="59.94" y="474.06">+</text>
<text x="261.06" y="353.49">.</text>
<text x="223.25" y="85.60">.</text>
<text x="302.24" y="27.65">+</text>
<text x="366.17" y="340.90">.</text>
<text x="295.43" y="144.70">+</text>
<text x="182.49" y="175.12">.</text>
<text x="322.69" y="248.08">.</text>
<text x="79.28" y="260.81">*</text>
<text x="387.12" y="159.21">.</text>
<text x="45.44" y="476.95">+</text>
<text x="401.67" y="67.53">+</text>
<text x="26.43" y="182.99">*</text>
<text x="233.22" y="440.84">+</text>
<text x="361.23" y="131.41">+</text>
<text x="375.39" y="204.97">+</text>
<text x="441.32" y="424.85">*</text>
<text x="68.94" y="108.64">.</text>
<text x="244.98" y="387.16">*</text>
<text x="178.70" y="221.81">+</text>
<text x="85.36" y="381.26">+</text>
<text x="187.68" y="179.31">.</text>
<text x="220.13" y="58.39">+</text>
<text x="351.62" y="87.65">.</text>
<text x="78.60" y="181.93">.</text>
<text x="88.27" y="76.22">.</text>
<text x="498.07" y="32.34">+</text>
<text x="180.74" y="80.34">*</text>
<text x="55.39" y="451.33">+</text>
<text x="342.44" y="81.32">+</text>
<text x="38.00" y="336.82">+</text>
<text x="303.95" y="320.81">.</text>
<text x="42.60" y="451.77">*</text>
<text x="499.97" y="397.44">.</text>
<text x="105.60" y="395.27">.</text>
<text x="3.15" y="376.61">.</text>
<text x="77.34" y="122.70">.</text>
<text x="50.18" y="433.17">*</text>
<text x="302.22" y="286.34">.</text>
<text x="202.34" y="498.16">.</text>
<text x="57.17" y="213.27">.</text>
<text x="371.85" y="226.48">+</text>
<text x="346.93" y="69.10">+</text>
<text x="247.26" y="32.57">.</text>
<text x="165.13" y="167.35">+</text>
<text x="420.64" y="207.26">+</text>
<text x="408.56" y="404.54">+</text>
<text x="99.51" y="210.72">.</text>
<text x="304.84" y="466.60">+</text>
<text x="294.68" y="283.85">.</text>
<text x="300.15" y="190.35">+</text>
<text x="60.66" y="120.00">.</text>
<text x="76.39" y="193.32">+</text>
<text x="285.31" y="150.11">+</text>
<text x="393.92" y="283.83">+</text>
<text x="6.55" y="376.67">+</text>
<text x="437.91" y="393.16">.</text>
<text x="43.27" y="455.88">+</text>
<text x="53.70" y="438.25">+</text>
<text x="171.00" y="262.16">+</text>
<text x="252.16" y="160.76">.</text>
<text x="346.09" y="49.92">+</text>
<text x="207.66" y="492.78">+</text>
<text x="339.72" y="121.11">.</text>
<text x="54.69" y="43.30">.</text>
<text x="480.71" y="470.31">.</text>
<text x="349.04" y="119.30">+</text>
<text x="159.15" y="310.29">+</text>
<text x="12.69" y="395.73">+</text>
<text x="83.90" y="287.59">.</text>
<text x="51.65" y="131.23">.</text>
<text x="78.94" y="442.92">+</text>
<text x="418.88" y="494.89">.</text>
<text x="139.90" y="150.71">.</text>
<text x="25.10" y="250.28">+</text>
<text x="414.10" y="335.11">.</text>
<text x="260.65" y="32.10">+</text>
<text x="48.23" y="281.77">+</text>
<text x="321.85" y="234.22">.</text>
<text x="350.22" y="89.45">.</text>
<text x="327.26" y="29.52">+</text>
<text x="176.34" y="180.10">*</text>
<text x="472.74" y="268.04">.</text>
<text x="208.38" y="83.38">.</text>
<text x="302.23" y="86.11">+</text>
<text x="29.26" y="94.57">+</text>
<text x="23.50" y="46.69">+</text>
<text x="34.31" y="52.33">.</text>
<text x="370.37" y="247.32">+</text>
<text x="145.30" y="262.04">.</text>
<text x="47.46" y="268.91">.</text>
<text x="75.31" y="205.12">+</text>
<text x="147.50" y="336.33">*</text>
<text x="10.21" y="448.02">*</text>
<text x="371.40" y="11.92">.</text>
<text x="341.96" y="218.71">.</text>
<text x="367.09" y="396.38">.</text>
<text x="452.14" y="103.55">+</text>
<text x="103.81" y="22.37">+</text>
<text x="365.33" y="326.54">+</text>
<text x="389.98" y="477.78">*</text>
<text x="219.65" y="281.35">.</text>
<text x="91.75" y="92.29">+</text>
<text x="292.09" y="479.86">*</text>
<text x="292.62" y="387.99">.</text>
<text x="381.31" y="88.34">.</text>
<text x="295.32" y="304.26">.</text>
<text x="53.77" y="437.11">+</text>
<text x="74.30" y="174.67">.</text>
<text x="198.57" y="458.12">.</text>
<text x="269.23" y="51.63">+</text>
<text x="84.44" y="438.67">.</text>
<text x="61.68" y="211.49">+</text>
<text x="176.39" y="142.36">+</text>
<text x="405.21" y="265.19">+</text>
<text x="343.06" y="211.55">.</text>
<text x="439.73" y="178.13">+</text>
<text x="4.69" y="414.70">+</text>
<text x="355.54" y="69.22">.</text>
<text x="55.11" y="285.27">.</text>
<text x="142.96" y="128.46">.</text>
<text x="38.89" y="476.88">+</text>
<text x="386.08" y="247.86">+</text>
<text x="40.77" y="117.35">.</text>
<text x="227.57" y="23.38">.</text>
<text x="100.71" y="377.23">.</text>
<text x="370.29" y="265.61">+</text>
<text x="134.44" y="384.56">.</text>
<text x="14.14" y="397.86">+</text>
<text x="432.78" y="252.09">.</text>
<text x="11.21" y="101.15">+</text>
<text x="455.45" y="96.19">.</text>
<text x="100.19" y="258.59">+</text>
<text x="59.43" y="200.12">.</text>
<text x="165.33" y="484.97">.</text>
<text x="242.74" y="209.99">+</text>
<text x="363.44" y="450.19">.</text>
<text x="126.88" y="41.54">+</text>
<text x="116.80" y="162.62">.</text>
<text x="153.21" y="108.65">*</text>
<text x="169.40" y="221.85">*</text>
<text x="93.66" y="438.17">.</text>
<text x="185.63" y="304.93">*</text>
<text x="331.79" y="250.14">+</text>
<text x="101.56" y="200.48">+</text>
<text x="302.03" y="147.06">.</text>
<text x="97.50" y="339.06">+</text>
<text x="41.40" y="155.43">.</text>
<text x="266.95" y="315.06">.</text>
<text x="403.74" y="298.37">.</text>
<text x="333.08" y="169.15">+</text>
<text x="104.39" y="4.89">+</text>
<text x="422.53" y="463.70">*</text>
<text x="186.16" y="376.96">+</text>
<text x="463.04" y="220.71">+</text>
<text x="186.44" y="447.98">.</text>
<text x="477.89" y="19.71">+</text>
<text x="26.98" y="134.55">.</text>
<text x="272.62" y="147.88">*</text>
<text x="184.65" y="263.87">*</text>
<text x="68.62" y="81.64">+</text>
<text x="481.96" y="311.14">.</text>
<text x="202.39" y="450.96">.</text>
<text x="359.52" y="126.69">+</text>
<text x="66.91" y="247.31">+</text>
<text x="120.59" y="104.52">.</text>
<text x="426.73" y="184.91">.</text>
<text x="374.90" y="53.78">+</text>
<text x="299.29" y="491.74">*</text>
<text x="395.25" y="108.25">.</text>
<text x="89.81" y="126.02">+</text>
<text x="329.13" y="16.15">.</text>
<text x="249.38" y="30.06">.</text>

</svg>