
<svg viewBox="0 0 500 500" xmlns="http://www.w.org/2000/svg" width="100%" height="100%" style="background-color: #0a0a14; font-family: 'Courier New', Courier, monospace;">
    <style>
        text { fill: #aaa; font-size: 10px; text-anchor: middle; dominant-baseline: middle; }
    </style>
    <text x="142.10" y="279.75">.</text>
<text x="335.08" y="473.04">.</text>
<text x="61.24" y="245.45">.</text>
<text x="364.85" y="236.26">+</text>
<text x="321.03" y="400.52">+</text>
<text x="315.16" y="30.24">.</text>
<text x="453.08" y="220.73">*</text>
<text x="349.46" y="424.21">.</text>
<text x="15.99" y="163.08">+</text>
<text x="274.87" y="91.84">.</text>
<text x="140.69" y="421.04">+</text>
<text x="9.90" y="446.18">+</text>
<text x="343.12" y="400.25">*</text>
<text x="421.67" y="448.04">+</text>
<text x="75.18" y="95.15">.</text>
<text x="448.54" y="351.71">+</text>
<text x="203.00" y="22.22">+</text>
<text x="482.63" y="310.51">.</text>
<text x="366.74" y="307.17">*</text>
<text x="247.33" y="404.40">+</text>
<text x="377.36" y="83.19">.</text>
<text x="475.60" y="411.55">+</text>
<text x="190.43" y="16.07">.</text>
<text x="35.95" y="324.35">.</text>
<text x="11.21" y="465.84">.</text>
<text x="377.70" y="45.29">+</text>
<text x="313.67" y="270.85">.</text>
<text x="392.13" y="480.87">*</text>
<text x="286.93" y="238.66">+</text>
<text x="142.93" y="5.09">+</text>
<text x="217.81" y="202.27">.</text>
<text x="364.93" y="153.91">+</text>
<text x="244.12" y="19.35">+</text>
<text x="471.51" y="160.82">.</text>
<text x="331.87" y="405.30">.</text>
<text x="263.69" y="395.28">.</text>
<text x="176.93" y="12.08">.</text>
<text x="267.78" y="167.05">.</text>
<text x="56.43" y="98.74">*</text>
<text x="440.05" y="254.56">+</text>
<text x="476.57" y="335.34">*</text>
<text x="184.15" y="15.99">+</text>
<text x="69.92" y="463.09">+</text>
<text x="221.51" y="267.77">.</text>
<text x="371.02" y="36.38">.</text>
<text x="253.86" y="122.15">+</text>
<text x="80.22" y="464.30">.</text>
<text x="375.15" y="91.35">.</text>
<text x="234.08" y="183.32">.</text>
<text x="491.06" y="133.87">.</text>
<text x="330.20" y="319.20">.</text>
<text x="486.07" y="47.91">.</text>
<text x="421.31" y="45.74">.</text>
<text x="431.79" y="296.30">*</text>
<text x="29.26" y="419.21">+</text>
<text x="300.90" y="472.22">+</text>
<text x="4.87" y="494.94">*</text>
<text x="355.60" y="138.41">.</text>
<text x="11.42" y="115.97">.</text>
<text x="387.27" y="484.40">+</text>
<text x="154.27" y="372.75">+</text>
<text x="27.41" y="213.90">+</text>
<text x="340.79" y="164.54">*</text>
<text x="165.37" y="97.10">+</text>
<text x="4.44" y="2.99">.</text>
<text x="276.83" y="377.46">.</text>
<text x="66.70" y="42.58">+</text>
<text x="62.74" y="157.48">.</text>
<text x="381.06" y="17.21">+</text>
<text x="353.54" y="3.07">+</text>
<text x="110.33" y="19.57">.</text>
<text x="360.06" y="446.61">.</text>
<text x="4.87" y="495.44">.</text>
<text x="162.68" y="248.03">.</text>
<text x="477.02" y="238.57">.</text>
<text x="288.41" y="55.64">.</text>
<text x="434.16" y="386.24">+</text>
<text x="166.43" y="215.64">+</text>
<text x="35.36" y="472.81">+</text>
<text x="453.39" y="211.36">+</text>
<text x="375.33" y="281.01">*</text>
<text x="48.92" y="404.12">.</text>
<text x="35.92" y="270.10">.</text>
<text x="364.40" y="265.94">.</text>
<text x="455.25" y="350.26">*</text>
<text x="138.02" y="458.73">.</text>
<text x="337.77" y="153.75">+</text>
<text x="57.22" y="92.76">.</text>
<text x="420.81" y="378.17">.</text>
<text x="125.05" y="484.60">.</text>
<text x="363.17" y="461.83">+</text>
<text x="12.15" y="477.88">.</text>
<text x="169.37" y="241.45">+</text>
<text x="217.01" y="88.24">+</text>
<text x="155.90" y="499.61">.</text>
<text x="28.99" y="201.19">.</text>
<text x="370.45" y="422.72">+</text>
<text x="173.34" y="413.62">+</text>
<text x="430.24" y="287.83">.</text>
<text x="252.83" y="252.79">*</text>
<text x="73.76" y="38.65">.</text>
<text x="58.32" y="412.23">.</text>
<text x="47.80" y="411.94">.</text>
<text x="289.05" y="325.55">+</text>
<text x="121.91" y="86.97">*</text>
<text x="85.23" y="338.13">+</text>
<text x="358.52" y="492.32">.</text>
<text x="127.88" y="224.17">+</text>
<text x="376.37" y="143.56">*</text>
<text x="229.65" y="190.20">.</text>
<text x="250.50" y="476.81">+</text>
<text x="335.05" y="463.43">.</text>
<text x="114.38" y="447.74">+</text>
<text x="276.62" y="220.78">.</text>
<text x="403.15" y="412.47">+</text>
<text x="3.18" y="320.89">.</text>
<text x="65.10" y="207.54">.</text>
<text x="376.92" y="412.06">+</text>
<text x="186.64" y="436.96">+</text>
<text x="489.01" y="369.18">+</text>
<text x="294.70" y="90.27">.</text>
<text x="53.37" y="246.24">+</text>
<text x="221.46" y="197.72">+</text>
<text x="307.64" y="109.06">.</text>
<text x="423.98" y="473.98">.</text>
<text x="287.79" y="49.56">+</text>
<text x="208.96" y="376.09">.</text>
<text x="58.84" y="166.65">*</text>
<text x="12.70" y="390.23">.</text>
<text x="93.73" y="189.00">*</text>
<text x="73.34" y="176.22">.</text>
<text x="62.99" y="212.85">*</text>
<text x="473.99" y="204.85">*</text>
<text x="215.28" y="97.40">+</text>
<text x="452.77" y="347.38">+</text>
<text x="455.92" y="200.23">.</text>
<text x="436.44" y="75.72">.</text>
<text x="398.22" y="153.09">+</text>
<text x="68.58" y="428.34">+</text>
<text x="310.12" y="233.53">.</text>
<text x="92.79" y="182.06">*</text>
<text x="200.38" y="403.16">.</text>
<text x="118.55" y="492.67">+</text>
<text x="53.71" y="286.27">.</text>
<text x="441.11" y="186.09">*</text>
<text x="256.45" y="51.70">.</text>
<text x="252.87" y="2.35">+</text>
<text x="342.63" y="219.75">*</text>
<text x="216.35" y="20.96">+</text>
<text x="468.82" y="254.74">.</text>
<text x="364.53" y="76.57">*</text>
<text x="122.33" y="164.73">+</text>
<text x="110.43" y="284.21">*</text>
<text x="35.95" y="329.86">+</text>
<text x="299.50" y="37.64">.</text>
<text x="462.63" y="20.01">.</text>
<text x="228.11" y="495.92">.</text>
<text x="113.03" y="71.65">.</text>
<text x="291.11" y="12.39">.</text>
<text x="375.83" y="301.72">+</text>
<text x="56.53" y="62.44">*</text>
<text x="25.63" y="318.87">+</text>
<text x="444.36" y="90.88">*</text>
<text x="485.81" y="478.95">.</text>
<text x="263.00" y="182.66">.</text>
<text x="35.13" y="24.34">*</text>
<text x="276.18" y="311.54">.</text>
<text x="327.49" y="333.33">.</text>
<text x="155.54" y="9.54">+</text>
<text x="321.26" y="169.31">.</text>
<text x="405.88" y="438.57">.</text>
<text x="55.93" y="368.97">+</text>
<text x="300.80" y="314.44">+</text>
<text x="318.36" y="19.65">.</text>
<text x="288.52" y="495.94">.</text>
<text x="255.28" y="408.48">+</text>
<text x="418.71" y="463.32">*</text>
<text x="143.48" y="413.37">+</text>
<text x="110.62" y="465.04">+</text>
<text x="8.55" y="397.38">*</text>
<text x="207.60" y="131.14">.</text>
<text x="451.52" y="378.27">.</text>
<text x="199.72" y="337.21">.</text>
<text x="297.08" y="323.28">.</text>
<text x="224.01" y="45.48">+</text>
<text x="261.44" y="373.65">+</text>
<text x="197.96" y="76.36">+</text>
<text x="432.65" y="459.72">+</text>
<text x="407.91" y="398.06">*</text>
<text x="389.73" y="245.44">*</text>
<text x="15.84" y="306.72">.</text>
<text x="148.57" y="126.32">*</text>
<text x="309.51" y="38.62">+</text>
<text x="72.58" y="180.26">+</text>
<text x="270.30" y="87.43">*</text>
<text x="204.57" y="476.97">.</text>
<text x="438.80" y="356.89">+</text>
<text x="322.21" y="241.10">+</text>
<text x="375.09" y="408.10">+</text>

</svg>