
<svg viewBox="0 0 500 500" xmlns="http://www.w.org/2000/svg" width="100%" height="100%" style="background-color: #0a0a14; font-family: 'Courier New', Courier, monospace;">
    <style>
        text { fill: #aaa; font-size: 10px; text-anchor: middle; dominant-baseline: middle; }
    </style>
    <text x="301.14" y="441.92">.</text>
<text x="140.11" y="292.29">+</text>
<text x="326.91" y="173.16">.</text>
<text x="492.74" y="408.79">+</text>
<text x="449.19" y="48.29">+</text>
<text x="171.64" y="288.65">+</text>
<text x="251.99" y="479.04">+</text>
<text x="459.75" y="37.23">.</text>
<text x="335.89" y="80.05">*</text>
<text x="250.93" y="132.35">+</text>
<text x="368.30" y="352.94">.</text>
<text x="460.72" y="4.56">+</text>
<text x="293.76" y="376.34">+</text>
<text x="149.40" y="445.72">.</text>
<text x="280.00" y="321.34">.</text>
<text x="327.86" y="277.65">+</text>
<text x="205.67" y="255.77">.</text>
<text x="78.06" y="284.40">+</text>
<text x="195.62" y="225.46">.</text>
<text x="32.90" y="124.61">.</text>
<text x="84.59" y="103.39">+</text>
<text x="440.99" y="245.62">+</text>
<text x="472.27" y="365.88">+</text>
<text x="394.60" y="259.74">+</text>
<text x="478.40" y="10.78">.</text>
<text x="481.99" y="278.84">.</text>
<text x="395.30" y="171.31">+</text>
<text x="285.31" y="394.88">+</text>
<text x="150.28" y="90.80">.</text>
<text x="390.49" y="126.84">.</text>
<text x="171.66" y="303.62">.</text>
<text x="103.68" y="49.46">.</text>
<text x="381.92" y="59.31">+</text>
<text x="66.40" y="316.87">*</text>
<text x="156.25" y="213.43">.</text>
<text x="218.97" y="402.81">+</text>
<text x="7.08" y="292.97">.</text>
<text x="447.26" y="189.61">.</text>
<text x="33.15" y="289.60">*</text>
<text x="315.39" y="371.98">.</text>
<text x="177.51" y="428.64">.</text>
<text x="460.78" y="320.16">+</text>
<text x="145.05" y="196.31">.</text>
<text x="1.08" y="393.24">*</text>
<text x="257.56" y="480.05">.</text>
<text x="480.63" y="435.15">.</text>
<text x="87.93" y="39.79">.</text>
<text x="215.54" y="479.67">.</text>
<text x="297.04" y="437.49">.</text>
<text x="76.21" y="454.03">.</text>
<text x="139.94" y="324.09">.</text>
<text x="129.71" y="77.11">.</text>
<text x="428.11" y="205.79">+</text>
<text x="499.24" y="313.01">+</text>
<text x="437.60" y="310.38">*</text>
<text x="92.33" y="420.67">.</text>
<text x="270.42" y="430.10">*</text>
<text x="62.59" y="454.09">*</text>
<text x="341.68" y="403.35">+</text>
<text x="302.47" y="468.57">.</text>
<text x="93.12" y="196.95">*</text>
<text x="396.36" y="41.92">+</text>
<text x="235.03" y="291.03">.</text>
<text x="77.57" y="179.00">.</text>
<text x="490.54" y="439.00">+</text>
<text x="457.66" y="412.65">+</text>
<text x="142.41" y="101.68">.</text>
<text x="130.80" y="98.98">.</text>
<text x="238.46" y="485.25">.</text>
<text x="163.61" y="343.87">.</text>
<text x="421.19" y="346.63">+</text>
<text x="424.03" y="179.93">.</text>
<text x="159.58" y="438.56">+</text>
<text x="466.78" y="120.81">*</text>
<text x="364.54" y="322.37">+</text>
<text x="289.33" y="220.74">.</text>
<text x="274.78" y="20.12">.</text>
<text x="380.71" y="467.37">.</text>
<text x="483.25" y="72.59">+</text>
<text x="101.97" y="333.97">+</text>
<text x="170.07" y="89.69">+</text>
<text x="415.59" y="340.28">.</text>
<text x="221.66" y="332.99">+</text>
<text x="426.06" y="118.74">.</text>
<text x="438.93" y="407.86">*</text>
<text x="435.36" y="29.00">.</text>
<text x="487.55" y="448.05">+</text>
<text x="43.30" y="98.05">.</text>
<text x="429.56" y="246.14">.</text>
<text x="335.58" y="349.81">.</text>
<text x="101.68" y="368.64">+</text>
<text x="270.74" y="150.16">*</text>
<text x="74.72" y="364.13">+</text>
<text x="212.46" y="112.56">*</text>
<text x="198.62" y="24.27">+</text>
<text x="236.42" y="111.36">.</text>
<text x="229.50" y="201.53">+</text>
<text x="456.91" y="281.92">+</text>
<text x="409.41" y="313.35">.</text>
<text x="160.01" y="237.01">.</text>
<text x="408.69" y="295.76">+</text>
<text x="33.69" y="122.27">+</text>
<text x="284.16" y="367.01">.</text>
<text x="188.40" y="235.57">.</text>
<text x="296.01" y="155.21">*</text>
<text x="469.90" y="374.75">.</text>
<text x="293.24" y="106.05">*</text>
<text x="209.47" y="293.13">+</text>
<text x="16.36" y="232.34">+</text>
<text x="198.29" y="132.54">.</text>
<text x="371.15" y="304.96">.</text>
<text x="123.32" y="413.78">.</text>
<text x="21.62" y="165.89">+</text>
<text x="221.72" y="231.58">.</text>
<text x="40.68" y="456.42">.</text>
<text x="491.26" y="454.75">+</text>
<text x="484.67" y="247.54">+</text>
<text x="57.01" y="226.55">+</text>
<text x="9.00" y="384.67">.</text>
<text x="388.23" y="397.20">.</text>
<text x="410.35" y="454.35">.</text>
<text x="156.74" y="32.96">+</text>
<text x="407.43" y="451.47">.</text>
<text x="110.40" y="315.56">+</text>
<text x="287.08" y="161.62">+</text>
<text x="167.57" y="485.09">+</text>
<text x="93.91" y="92.38">.</text>
<text x="184.10" y="182.92">.</text>
<text x="397.35" y="146.18">.</text>
<text x="257.92" y="186.93">+</text>
<text x="146.15" y="451.02">.</text>
<text x="136.74" y="335.25">.</text>
<text x="288.41" y="308.24">.</text>
<text x="251.57" y="22.75">.</text>
<text x="202.43" y="429.99">+</text>
<text x="498.14" y="161.63">.</text>
<text x="488.16" y="363.54">*</text>
<text x="160.79" y="70.39">.</text>
<text x="218.67" y="75.50">+</text>
<text x="325.40" y="226.05">.</text>
<text x="471.77" y="444.16">+</text>
<text x="73.10" y="74.15">+</text>
<text x="405.48" y="198.69">+</text>
<text x="385.20" y="195.14">+</text>
<text x="298.89" y="160.96">.</text>
<text x="405.76" y="4.75">.</text>
<text x="393.46" y="434.19">+</text>
<text x="398.62" y="340.24">.</text>
<text x="122.03" y="133.02">+</text>
<text x="455.19" y="236.30">.</text>
<text x="326.38" y="74.59">.</text>
<text x="25.63" y="169.92">*</text>
<text x="295.16" y="300.78">+</text>
<text x="193.56" y="403.02">+</text>
<text x="8.14" y="412.90">+</text>
<text x="137.89" y="186.58">.</text>
<text x="36.27" y="423.63">+</text>
<text x="171.98" y="372.65">+</text>
<text x="470.19" y="255.49">.</text>
<text x="12.77" y="195.23">.</text>
<text x="410.48" y="112.19">.</text>
<text x="401.93" y="419.64">.</text>
<text x="135.24" y="245.99">.</text>
<text x="464.05" y="306.02">.</text>
<text x="82.85" y="325.40">*</text>
<text x="79.13" y="161.65">+</text>
<text x="137.94" y="10.00">+</text>
<text x="327.76" y="237.98">.</text>
<text x="382.54" y="272.50">.</text>
<text x="391.96" y="32.70">.</text>
<text x="109.83" y="375.11">.</text>
<text x="411.62" y="44.49">+</text>
<text x="223.97" y="316.76">.</text>
<text x="81.48" y="70.54">.</text>
<text x="58.91" y="274.57">+</text>
<text x="272.86" y="173.99">.</text>
<text x="63.96" y="13.98">.</text>
<text x="285.86" y="88.87">+</text>
<text x="424.34" y="482.02">.</text>
<text x="135.26" y="339.90">.</text>
<text x="4.09" y="495.31">+</text>
<text x="54.36" y="415.01">.</text>
<text x="277.13" y="155.73">.</text>
<text x="81.71" y="209.44">.</text>
<text x="188.81" y="445.30">+</text>
<text x="412.64" y="289.10">+</text>
<text x="460.81" y="302.52">.</text>
<text x="200.76" y="139.35">*</text>
<text x="416.12" y="481.03">.</text>
<text x="424.33" y="377.48">*</text>
<text x="417.74" y="196.77">+</text>
<text x="398.23" y="88.21">+</text>
<text x="288.23" y="256.69">+</text>
<text x="398.07" y="499.76">+</text>
<text x="66.54" y="267.96">.</text>
<text x="375.89" y="405.63">+</text>
<text x="271.95" y="228.75">+</text>
<text x="139.09" y="44.44">.</text>
<text x="51.88" y="436.14">+</text>
<text x="327.76" y="278.86">+</text>
<text x="121.81" y="326.37">.</text>
<text x="282.79" y="159.97">.</text>
<text x="424.86" y="171.84">*</text>
<text x="84.07" y="108.26">+</text>
<text x="48.27" y="427.74">.</text>
<text x="56.37" y="453.60">+</text>
<text x="286.40" y="389.43">+</text>
<text x="177.00" y="97.57">+</text>
<text x="86.52" y="461.67">.</text>
<text x="376.54" y="141.14">*</text>
<text x="150.84" y="79.09">.</text>
<text x="253.30" y="333.81">*</text>
<text x="364.02" y="430.00">+</text>
<text x="9.27" y="175.32">+</text>
<text x="480.18" y="174.15">.</text>

</svg>