
<svg viewBox="0 0 500 500" xmlns="http://www.w.org/2000/svg" width="100%" height="100%" style="background-color: #0a0a14; font-family: 'Courier New', Courier, monospace;">
    <style>
        text { fill: #aaa; font-size: 10px; text-anchor: middle; dominant-baseline: middle; }
    </style>
    <text x="172.05" y="267.40">+</text>
<text x="244.89" y="248.65">.</text>
<text x="167.26" y="366.58">.</text>
<text x="261.81" y="357.40">.</text>
<text x="290.20" y="22.39">.</text>
<text x="175.96" y="78.19">.</text>
<text x="169.83" y="390.11">.</text>
<text x="204.23" y="104.87">.</text>
<text x="293.59" y="116.12">+</text>
<text x="470.51" y="86.40">.</text>
<text x="498.34" y="6.42">.</text>
<text x="230.42" y="150.82">.</text>
<text x="128.28" y="317.54">+</text>
<text x="2.92" y="304.65">.</text>
<text x="128.09" y="71.54">.</text>
<text x="53.09" y="233.42">.</text>
<text x="74.85" y="458.62">.</text>
<text x="395.27" y="437.78">+</text>
<text x="179.84" y="360.31">.</text>
<text x="331.41" y="364.05">.</text>
<text x="36.46" y="431.14">.</text>
<text x="266.44" y="402.27">+</text>
<text x="462.15" y="68.84">+</text>
<text x="306.48" y="187.47">+</text>
<text x="450.15" y="155.03">*</text>
<text x="457.26" y="184.96">+</text>
<text x="224.42" y="307.77">+</text>
<text x="151.15" y="148.87">*</text>
<text x="254.49" y="55.94">+</text>
<text x="175.77" y="56.71">.</text>
<text x="484.87" y="484.91">+</text>
<text x="358.60" y="394.88">*</text>
<text x="107.38" y="77.03">+</text>
<text x="241.79" y="273.25">.</text>
<text x="483.61" y="294.66">.</text>
<text x="44.82" y="380.32">.</text>
<text x="201.39" y="36.58">+</text>
<text x="395.68" y="346.21">+</text>
<text x="281.59" y="493.07">.</text>
<text x="334.90" y="387.65">+</text>
<text x="0.20" y="219.44">.</text>
<text x="186.15" y="170.16">+</text>
<text x="315.52" y="390.69">+</text>
<text x="401.56" y="161.06">+</text>
<text x="465.83" y="71.40">.</text>
<text x="445.08" y="382.95">.</text>
<text x="49.38" y="319.17">+</text>
<text x="155.34" y="145.74">+</text>
<text x="20.58" y="377.67">+</text>
<text x="25.56" y="190.27">+</text>
<text x="423.01" y="70.97">+</text>
<text x="178.85" y="324.40">+</text>
<text x="105.18" y="29.96">*</text>
<text x="378.89" y="64.54">.</text>
<text x="260.07" y="260.81">.</text>
<text x="312.84" y="137.83">+</text>
<text x="385.77" y="43.42">.</text>
<text x="429.70" y="237.33">+</text>
<text x="228.19" y="394.36">+</text>
<text x="10.64" y="133.00">.</text>
<text x="76.49" y="274.92">+</text>
<text x="106.11" y="21.70">+</text>
<text x="172.80" y="50.72">+</text>
<text x="196.21" y="362.65">.</text>
<text x="172.81" y="234.71">*</text>
<text x="452.49" y="210.40">.</text>
<text x="408.52" y="368.16">+</text>
<text x="89.72" y="28.36">.</text>
<text x="107.88" y="139.19">+</text>
<text x="57.26" y="50.32">+</text>
<text x="386.04" y="90.08">.</text>
<text x="51.84" y="434.90">*</text>
<text x="375.90" y="73.58">+</text>
<text x="292.83" y="2.99">+</text>
<text x="254.45" y="47.13">.</text>
<text x="462.72" y="389.17">.</text>
<text x="299.04" y="463.87">.</text>
<text x="294.62" y="110.75">+</text>
<text x="407.79" y="473.39">+</text>
<text x="301.99" y="236.23">*</text>
<text x="147.14" y="196.60">.</text>
<text x="225.13" y="394.76">.</text>
<text x="398.17" y="303.79">.</text>
<text x="309.19" y="123.54">*</text>
<text x="361.40" y="144.91">.</text>
<text x="350.03" y="183.42">+</text>
<text x="444.02" y="350.07">*</text>
<text x="185.16" y="468.49">+</text>
<text x="469.46" y="155.16">.</text>
<text x="286.48" y="166.91">*</text>
<text x="267.79" y="81.19">+</text>
<text x="87.96" y="437.20">+</text>
<text x="251.92" y="23.85">+</text>
<text x="366.48" y="14.76">.</text>
<text x="412.87" y="342.66">*</text>
<text x="306.14" y="360.48">+</text>
<text x="438.41" y="318.49">+</text>
<text x="89.43" y="240.77">.</text>
<text x="14.81" y="357.89">.</text>
<text x="182.81" y="7.95">+</text>
<text x="362.86" y="128.74">*</text>
<text x="216.66" y="243.82">+</text>
<text x="377.18" y="344.40">+</text>
<text x="410.55" y="284.34">.</text>
<text x="83.46" y="355.94">.</text>
<text x="374.12" y="386.99">+</text>
<text x="422.37" y="107.70">.</text>
<text x="476.82" y="421.53">*</text>
<text x="331.36" y="277.92">.</text>
<text x="317.07" y="428.28">.</text>
<text x="61.28" y="238.21">+</text>
<text x="426.03" y="88.88">*</text>
<text x="282.66" y="481.04">.</text>
<text x="266.13" y="288.73">+</text>
<text x="123.50" y="62.87">+</text>
<text x="57.49" y="99.01">+</text>
<text x="348.78" y="35.79">.</text>
<text x="405.38" y="77.10">+</text>
<text x="395.91" y="316.06">.</text>
<text x="358.19" y="248.37">+</text>
<text x="352.64" y="438.01">+</text>
<text x="455.00" y="274.61">*</text>
<text x="324.93" y="232.02">+</text>
<text x="339.42" y="353.76">+</text>
<text x="359.18" y="92.38">*</text>
<text x="237.12" y="230.90">+</text>
<text x="397.24" y="39.04">.</text>
<text x="425.55" y="83.85">+</text>
<text x="464.98" y="140.13">+</text>
<text x="391.29" y="24.68">.</text>
<text x="336.74" y="408.76">+</text>
<text x="221.67" y="153.46">+</text>
<text x="119.85" y="241.98">.</text>
<text x="45.76" y="218.71">+</text>
<text x="375.88" y="380.80">.</text>
<text x="17.94" y="228.48">+</text>
<text x="469.34" y="147.44">.</text>
<text x="347.69" y="322.26">+</text>
<text x="97.62" y="165.08">+</text>
<text x="147.58" y="372.36">.</text>
<text x="499.90" y="48.97">+</text>
<text x="42.08" y="480.04">+</text>
<text x="133.10" y="90.98">.</text>
<text x="391.87" y="402.86">+</text>
<text x="70.87" y="395.25">+</text>
<text x="263.78" y="53.86">.</text>
<text x="136.49" y="348.58">.</text>
<text x="66.44" y="73.00">+</text>
<text x="210.16" y="243.83">.</text>
<text x="53.27" y="424.60">.</text>
<text x="36.78" y="106.93">+</text>
<text x="447.27" y="51.57">.</text>
<text x="94.60" y="8.14">.</text>
<text x="321.38" y="437.50">.</text>
<text x="14.58" y="156.10">+</text>
<text x="288.69" y="129.27">.</text>
<text x="24.63" y="471.45">.</text>
<text x="36.33" y="260.70">.</text>
<text x="313.82" y="419.72">.</text>
<text x="435.89" y="265.35">+</text>
<text x="315.44" y="283.67">*</text>
<text x="31.46" y="423.18">.</text>
<text x="493.49" y="57.94">+</text>
<text x="484.57" y="487.90">.</text>
<text x="276.90" y="153.97">*</text>
<text x="266.30" y="49.33">.</text>
<text x="303.92" y="66.25">+</text>
<text x="174.57" y="36.15">+</text>
<text x="314.58" y="177.30">+</text>
<text x="40.70" y="317.81">.</text>
<text x="447.09" y="389.13">+</text>
<text x="418.63" y="317.66">*</text>
<text x="401.87" y="15.75">.</text>
<text x="152.54" y="53.33">+</text>
<text x="432.18" y="154.23">+</text>
<text x="294.56" y="58.09">.</text>
<text x="495.60" y="161.21">.</text>
<text x="421.49" y="414.05">.</text>
<text x="465.01" y="317.08">*</text>
<text x="125.21" y="240.53">+</text>
<text x="22.71" y="127.33">+</text>
<text x="154.15" y="56.15">+</text>
<text x="401.76" y="217.25">.</text>
<text x="446.81" y="312.71">+</text>
<text x="168.91" y="461.24">.</text>
<text x="394.56" y="372.53">+</text>
<text x="2.78" y="436.59">*</text>
<text x="50.72" y="36.25">+</text>
<text x="479.28" y="249.13">.</text>
<text x="294.72" y="145.48">.</text>
<text x="142.54" y="396.72">+</text>
<text x="74.06" y="348.06">+</text>
<text x="382.32" y="348.86">+</text>
<text x="207.92" y="331.88">.</text>
<text x="357.73" y="412.01">.</text>
<text x="328.79" y="414.20">.</text>
<text x="207.42" y="222.80">+</text>
<text x="341.92" y="265.06">+</text>
<text x="156.77" y="84.10">*</text>
<text x="296.43" y="321.83">.</text>
<text x="187.02" y="474.42">.</text>
<text x="47.19" y="268.52">.</text>
<text x="373.39" y="355.30">+</text>
<text x="453.41" y="151.27">+</text>
<text x="163.56" y="303.69">.</text>

</svg>