
<svg viewBox="0 0 500 500" xmlns="http://www.w.org/2000/svg" width="100%" height="100%" style="background-color: #0a0a14; font-family: 'Courier New', Courier, monospace;">
    <style>
        text { fill: #aaa; font-size: 10px; text-anchor: middle; dominant-baseline: middle; }
    </style>
    <text x="357.66" y="164.85">.</text>
<text x="95.45" y="335.20">.</text>
<text x="486.82" y="318.91">.</text>
<text x="384.50" y="46.71">*</text>
<text x="463.48" y="413.25">*</text>
<text x="202.44" y="257.37">+</text>
<text x="217.26" y="76.97">*</text>
<text x="272.68" y="273.62">.</text>
<text x="273.07" y="5.49">.</text>
<text x="285.48" y="465.74">.</text>
<text x="458.75" y="356.12">+</text>
<text x="271.75" y="23.85">+</text>
<text x="290.77" y="480.69">.</text>
<text x="335.16" y="496.14">.</text>
<text x="75.71" y="409.88">+</text>
<text x="113.65" y="248.85">.</text>
<text x="235.69" y="128.12">+</text>
<text x="229.00" y="69.42">+</text>
<text x="137.57" y="107.93">+</text>
<text x="334.46" y="187.25">+</text>
<text x="498.94" y="277.98">+</text>
<text x="30.93" y="46.27">+</text>
<text x="41.80" y="205.71">*</text>
<text x="11.58" y="395.37">.</text>
<text x="3.39" y="388.37">+</text>
<text x="239.15" y="267.92">+</text>
<text x="326.23" y="304.37">+</text>
<text x="482.15" y="43.52">+</text>
<text x="329.70" y="471.50">.</text>
<text x="49.72" y="328.01">+</text>
<text x="289.79" y="14.00">+</text>
<text x="36.18" y="470.05">+</text>
<text x="225.72" y="185.39">.</text>
<text x="4.42" y="356.61">.</text>
<text x="430.85" y="68.70">+</text>
<text x="23.10" y="235.90">+</text>
<text x="318.98" y="223.26">+</text>
<text x="375.93" y="99.47">+</text>
<text x="163.90" y="19.39">.</text>
<text x="255.19" y="265.40">.</text>
<text x="352.83" y="436.50">+</text>
<text x="453.09" y="121.23">.</text>
<text x="15.89" y="348.20">.</text>
<text x="74.92" y="286.01">.</text>
<text x="410.03" y="18.37">+</text>
<text x="249.08" y="212.01">.</text>
<text x="33.20" y="308.43">.</text>
<text x="331.51" y="482.47">*</text>
<text x="434.52" y="398.03">*</text>
<text x="283.66" y="197.37">.</text>
<text x="324.41" y="351.07">.</text>
<text x="243.46" y="450.14">+</text>
<text x="214.29" y="242.24">.</text>
<text x="36.37" y="436.44">+</text>
<text x="340.02" y="27.64">+</text>
<text x="486.71" y="397.74">.</text>
<text x="134.21" y="400.46">+</text>
<text x="361.30" y="156.03">+</text>
<text x="359.48" y="429.88">.</text>
<text x="447.80" y="308.46">.</text>
<text x="256.03" y="453.08">*</text>
<text x="171.10" y="329.94">+</text>
<text x="62.05" y="328.67">+</text>
<text x="343.05" y="11.79">.</text>
<text x="432.94" y="449.96">+</text>
<text x="214.97" y="27.87">.</text>
<text x="57.38" y="82.95">+</text>
<text x="396.60" y="141.15">+</text>
<text x="394.33" y="464.53">.</text>
<text x="470.85" y="72.07">.</text>
<text x="448.68" y="152.69">+</text>
<text x="418.86" y="260.89">+</text>
<text x="256.79" y="58.86">+</text>
<text x="407.37" y="124.80">.</text>
<text x="52.25" y="123.88">+</text>
<text x="32.74" y="473.65">.</text>
<text x="176.97" y="210.08">*</text>
<text x="454.29" y="219.11">+</text>
<text x="222.05" y="401.80">.</text>
<text x="492.53" y="482.59">.</text>
<text x="32.21" y="163.71">.</text>
<text x="216.69" y="382.34">+</text>
<text x="382.87" y="272.55">.</text>
<text x="62.76" y="60.75">+</text>
<text x="150.65" y="48.19">+</text>
<text x="63.82" y="225.76">.</text>
<text x="120.85" y="485.54">+</text>
<text x="329.70" y="278.34">.</text>
<text x="381.06" y="323.47">.</text>
<text x="88.85" y="193.40">*</text>
<text x="258.95" y="141.49">.</text>
<text x="15.10" y="65.77">+</text>
<text x="378.45" y="248.40">.</text>
<text x="357.23" y="197.23">+</text>
<text x="139.25" y="215.24">.</text>
<text x="264.78" y="123.17">+</text>
<text x="157.68" y="392.19">.</text>
<text x="21.74" y="118.76">.</text>
<text x="102.20" y="81.07">*</text>
<text x="310.28" y="23.13">+</text>
<text x="171.06" y="26.91">.</text>
<text x="400.97" y="180.23">+</text>
<text x="91.86" y="431.76">.</text>
<text x="168.06" y="62.46">.</text>
<text x="460.90" y="154.87">.</text>
<text x="327.25" y="251.37">.</text>
<text x="488.07" y="426.25">+</text>
<text x="167.23" y="469.80">+</text>
<text x="190.93" y="177.54">.</text>
<text x="95.70" y="41.84">+</text>
<text x="213.18" y="316.03">*</text>
<text x="199.06" y="318.88">.</text>
<text x="32.91" y="236.14">.</text>
<text x="91.81" y="398.12">+</text>
<text x="112.44" y="491.98">*</text>
<text x="115.27" y="81.58">.</text>
<text x="280.64" y="284.46">.</text>
<text x="111.73" y="128.81">+</text>
<text x="318.98" y="130.41">+</text>
<text x="0.09" y="337.64">+</text>
<text x="226.13" y="184.27">*</text>
<text x="101.29" y="102.09">+</text>
<text x="58.13" y="195.99">.</text>
<text x="431.76" y="478.21">.</text>
<text x="232.76" y="475.10">+</text>
<text x="391.73" y="370.10">*</text>
<text x="11.42" y="111.67">+</text>
<text x="287.63" y="349.64">+</text>
<text x="338.85" y="52.88">+</text>
<text x="388.35" y="136.09">+</text>
<text x="190.91" y="327.07">*</text>
<text x="464.87" y="21.33">.</text>
<text x="236.26" y="412.75">*</text>
<text x="150.38" y="130.25">*</text>
<text x="101.58" y="122.27">+</text>
<text x="71.01" y="394.29">+</text>
<text x="444.74" y="357.68">+</text>
<text x="449.91" y="464.66">.</text>
<text x="235.37" y="22.99">+</text>
<text x="56.50" y="250.17">+</text>
<text x="360.10" y="2.99">.</text>
<text x="412.08" y="92.38">+</text>
<text x="246.04" y="310.03">+</text>
<text x="104.00" y="304.53">*</text>
<text x="434.68" y="360.25">.</text>
<text x="40.07" y="372.76">.</text>
<text x="254.24" y="291.31">+</text>
<text x="138.87" y="216.34">.</text>
<text x="273.65" y="232.29">*</text>
<text x="49.19" y="338.13">+</text>
<text x="111.57" y="100.82">.</text>
<text x="160.61" y="471.72">+</text>
<text x="228.30" y="201.08">*</text>
<text x="75.53" y="35.76">+</text>
<text x="157.44" y="260.98">+</text>
<text x="265.82" y="108.63">.</text>
<text x="58.27" y="423.34">+</text>
<text x="498.17" y="10.70">+</text>
<text x="377.36" y="378.66">+</text>
<text x="25.20" y="316.98">*</text>
<text x="362.24" y="115.74">+</text>
<text x="87.10" y="212.83">+</text>
<text x="254.13" y="48.58">.</text>
<text x="292.78" y="396.43">+</text>
<text x="476.56" y="24.51">.</text>
<text x="382.95" y="333.65">+</text>
<text x="216.88" y="153.85">+</text>
<text x="376.47" y="419.29">.</text>
<text x="190.13" y="232.72">+</text>
<text x="151.10" y="463.14">+</text>
<text x="97.09" y="113.48">.</text>
<text x="15.09" y="76.65">.</text>
<text x="164.91" y="469.66">+</text>
<text x="332.83" y="85.26">.</text>
<text x="195.45" y="180.30">.</text>
<text x="400.40" y="261.07">.</text>
<text x="123.99" y="377.14">+</text>
<text x="73.84" y="392.55">.</text>
<text x="39.44" y="327.56">.</text>
<text x="408.50" y="483.22">.</text>
<text x="34.68" y="58.11">+</text>
<text x="326.66" y="420.09">.</text>
<text x="486.85" y="277.77">+</text>
<text x="490.89" y="464.44">+</text>
<text x="189.99" y="488.33">.</text>
<text x="436.05" y="25.38">.</text>
<text x="170.78" y="141.83">+</text>
<text x="35.36" y="111.55">.</text>
<text x="40.79" y="359.10">.</text>
<text x="131.32" y="281.68">+</text>
<text x="236.86" y="19.97">+</text>
<text x="95.22" y="270.21">.</text>
<text x="248.55" y="181.71">+</text>
<text x="290.47" y="388.41">+</text>
<text x="242.93" y="489.60">+</text>
<text x="427.71" y="348.38">.</text>
<text x="89.88" y="37.21">.</text>
<text x="291.09" y="376.03">+</text>
<text x="42.91" y="255.07">.</text>
<text x="180.24" y="339.92">.</text>
<text x="243.44" y="4.43">.</text>
<text x="398.48" y="230.43">.</text>
<text x="380.51" y="166.64">.</text>
<text x="151.25" y="454.84">+</text>
<text x="115.31" y="205.30">+</text>
<text x="72.46" y="12.18">+</text>
<text x="216.93" y="247.43">+</text>
<text x="272.98" y="53.78">+</text>
<text x="142.94" y="488.29">.</text>
<text x="482.90" y="117.51">.</text>

</svg>