
<svg viewBox="0 0 500 500" xmlns="http://www.w.org/2000/svg" width="100%" height="100%" style="background-color: #0a0a14; font-family: 'Courier New', Courier, monospace;">
    <style>
        text { fill: #aaa; font-size: 10px; text-anchor: middle; dominant-baseline: middle; }
    </style>
    <text x="185.69" y="446.82">.</text>
<text x="41.04" y="395.32">+</text>
<text x="440.81" y="318.84">*</text>
<text x="372.11" y="309.71">+</text>
<text x="214.18" y="31.15">+</text>
<text x="276.79" y="205.60">+</text>
<text x="51.69" y="289.55">.</text>
<text x="168.12" y="329.74">+</text>
<text x="161.17" y="278.80">+</text>
<text x="399.80" y="253.83">+</text>
<text x="370.40" y="76.76">+</text>
<text x="146.18" y="280.91">+</text>
<text x="399.21" y="151.62">.</text>
<text x="2.02" y="439.71">+</text>
<text x="182.40" y="499.76">.</text>
<text x="233.71" y="396.08">*</text>
<text x="96.28" y="185.25">+</text>
<text x="28.93" y="344.08">+</text>
<text x="290.52" y="248.91">+</text>
<text x="213.09" y="22.91">*</text>
<text x="141.76" y="283.40">.</text>
<text x="343.11" y="22.27">.</text>
<text x="83.84" y="412.64">+</text>
<text x="490.55" y="446.57">+</text>
<text x="149.24" y="2.86">.</text>
<text x="443.28" y="295.96">.</text>
<text x="104.92" y="474.12">*</text>
<text x="479.02" y="365.20">+</text>
<text x="224.64" y="275.76">+</text>
<text x="35.70" y="443.97">.</text>
<text x="492.34" y="83.04">.</text>
<text x="114.80" y="243.12">.</text>
<text x="223.04" y="233.65">.</text>
<text x="474.70" y="139.79">.</text>
<text x="154.34" y="234.71">+</text>
<text x="192.45" y="285.72">+</text>
<text x="498.19" y="178.08">+</text>
<text x="358.76" y="307.18">.</text>
<text x="254.29" y="27.69">.</text>
<text x="477.01" y="143.46">+</text>
<text x="421.91" y="334.60">+</text>
<text x="250.29" y="352.79">*</text>
<text x="405.67" y="196.75">+</text>
<text x="165.35" y="220.94">.</text>
<text x="130.26" y="30.44">+</text>
<text x="8.83" y="173.38">+</text>
<text x="195.30" y="480.16">+</text>
<text x="114.71" y="100.43">+</text>
<text x="66.74" y="337.79">*</text>
<text x="194.52" y="171.55">.</text>
<text x="43.99" y="267.31">+</text>
<text x="284.45" y="253.37">*</text>
<text x="439.64" y="368.81">.</text>
<text x="98.07" y="148.66">*</text>
<text x="50.90" y="323.62">+</text>
<text x="284.85" y="221.84">*</text>
<text x="202.29" y="344.91">+</text>
<text x="0.38" y="294.17">+</text>
<text x="285.69" y="406.98">.</text>
<text x="64.56" y="351.11">.</text>
<text x="293.91" y="450.11">.</text>
<text x="410.16" y="60.55">.</text>
<text x="59.27" y="358.30">*</text>
<text x="492.17" y="257.18">+</text>
<text x="150.68" y="286.52">.</text>
<text x="157.18" y="299.11">+</text>
<text x="172.11" y="385.71">*</text>
<text x="36.14" y="12.43">+</text>
<text x="424.36" y="416.72">.</text>
<text x="170.76" y="158.72">.</text>
<text x="485.65" y="468.97">+</text>
<text x="316.47" y="477.41">*</text>
<text x="264.57" y="340.64">.</text>
<text x="166.90" y="404.70">.</text>
<text x="451.09" y="356.07">+</text>
<text x="139.42" y="147.45">+</text>
<text x="397.12" y="8.00">.</text>
<text x="383.73" y="462.26">.</text>
<text x="77.76" y="178.92">+</text>
<text x="478.94" y="101.27">+</text>
<text x="126.15" y="478.26">.</text>
<text x="304.27" y="79.46">.</text>
<text x="341.38" y="189.41">.</text>
<text x="402.50" y="333.60">.</text>
<text x="377.00" y="216.63">*</text>
<text x="10.64" y="374.72">*</text>
<text x="7.48" y="130.60">*</text>
<text x="257.16" y="210.10">+</text>
<text x="34.72" y="116.89">.</text>
<text x="84.77" y="399.74">*</text>
<text x="140.96" y="38.92">+</text>
<text x="204.33" y="445.50">.</text>
<text x="1.08" y="23.70">.</text>
<text x="263.12" y="418.39">.</text>
<text x="399.32" y="207.42">.</text>
<text x="421.28" y="262.20">*</text>
<text x="157.84" y="125.38">.</text>
<text x="206.38" y="163.14">*</text>
<text x="78.76" y="376.16">+</text>
<text x="288.35" y="250.33">+</text>
<text x="449.55" y="236.15">*</text>
<text x="473.14" y="195.54">+</text>
<text x="212.49" y="289.22">.</text>
<text x="248.73" y="389.82">+</text>
<text x="75.27" y="47.81">.</text>
<text x="232.40" y="176.84">.</text>
<text x="403.22" y="337.57">.</text>
<text x="379.74" y="218.96">*</text>
<text x="250.13" y="77.80">+</text>
<text x="346.23" y="195.53">.</text>
<text x="81.24" y="54.27">+</text>
<text x="201.45" y="403.44">+</text>
<text x="28.04" y="161.98">+</text>
<text x="115.86" y="203.11">.</text>
<text x="330.69" y="355.60">+</text>
<text x="81.04" y="86.42">*</text>
<text x="267.90" y="373.09">+</text>
<text x="472.03" y="114.11">+</text>
<text x="182.44" y="219.24">.</text>
<text x="232.00" y="274.08">+</text>
<text x="115.58" y="247.23">.</text>
<text x="114.40" y="34.10">.</text>
<text x="293.21" y="485.46">+</text>
<text x="372.94" y="8.17">.</text>
<text x="271.79" y="94.92">+</text>
<text x="352.56" y="323.11">+</text>
<text x="253.64" y="457.43">+</text>
<text x="428.67" y="438.02">+</text>
<text x="371.15" y="307.82">+</text>
<text x="470.85" y="235.61">.</text>
<text x="298.42" y="42.34">+</text>
<text x="211.37" y="444.88">+</text>
<text x="241.73" y="451.71">.</text>
<text x="64.14" y="443.22">+</text>
<text x="56.38" y="0.80">.</text>
<text x="153.47" y="156.48">+</text>
<text x="186.68" y="173.77">*</text>
<text x="204.31" y="67.90">.</text>
<text x="433.36" y="282.55">.</text>
<text x="9.63" y="368.05">.</text>
<text x="108.75" y="165.16">+</text>
<text x="117.36" y="437.77">+</text>
<text x="69.76" y="108.26">.</text>
<text x="130.27" y="285.98">.</text>
<text x="356.81" y="342.68">*</text>
<text x="428.94" y="194.71">.</text>
<text x="302.51" y="497.58">*</text>
<text x="475.00" y="147.14">+</text>
<text x="422.12" y="287.06">.</text>
<text x="325.94" y="5.66">.</text>
<text x="364.18" y="16.71">*</text>
<text x="253.80" y="117.22">.</text>
<text x="81.45" y="402.59">.</text>
<text x="228.63" y="217.33">+</text>
<text x="45.84" y="104.30">+</text>
<text x="56.61" y="396.95">.</text>
<text x="446.27" y="261.71">.</text>
<text x="233.37" y="386.60">.</text>
<text x="350.77" y="12.65">*</text>
<text x="230.64" y="318.09">*</text>
<text x="308.76" y="77.48">+</text>
<text x="283.69" y="341.23">+</text>
<text x="406.11" y="124.39">+</text>
<text x="29.71" y="13.70">+</text>
<text x="28.62" y="138.40">+</text>
<text x="387.71" y="24.75">.</text>
<text x="486.23" y="472.36">.</text>
<text x="258.70" y="111.08">.</text>
<text x="287.81" y="461.10">+</text>
<text x="263.25" y="233.64">.</text>
<text x="197.54" y="469.62">*</text>
<text x="94.78" y="151.12">*</text>
<text x="213.46" y="408.49">+</text>
<text x="201.53" y="100.78">*</text>
<text x="144.07" y="204.90">.</text>
<text x="334.69" y="404.67">+</text>
<text x="283.09" y="439.50">+</text>
<text x="471.23" y="121.66">+</text>
<text x="349.00" y="24.87">.</text>
<text x="121.76" y="72.68">+</text>
<text x="113.26" y="277.49">+</text>
<text x="48.99" y="129.72">+</text>
<text x="115.04" y="62.24">*</text>
<text x="175.08" y="445.26">+</text>
<text x="451.06" y="288.96">+</text>
<text x="472.16" y="477.34">.</text>
<text x="437.14" y="372.42">+</text>
<text x="445.26" y="254.00">.</text>
<text x="140.89" y="59.01">.</text>
<text x="101.86" y="314.86">+</text>
<text x="2.00" y="50.22">+</text>
<text x="398.09" y="386.33">+</text>
<text x="465.45" y="208.61">*</text>
<text x="414.24" y="460.36">+</text>
<text x="51.21" y="353.16">+</text>
<text x="17.13" y="345.63">.</text>
<text x="4.15" y="319.60">.</text>
<text x="76.66" y="152.37">.</text>
<text x="162.72" y="369.51">.</text>
<text x="295.52" y="340.32">.</text>
<text x="61.94" y="358.52">+</text>
<text x="320.10" y="210.15">*</text>
<text x="244.18" y="444.70">+</text>
<text x="274.24" y="364.88">+</text>
<text x="19.79" y="96.83">.</text>
<text x="340.72" y="371.81">.</text>
<text x="138.66" y="32.37">+</text>
<text x="188.99" y="398.71">.</text>
<text x="48.81" y="454.38">+</text>
<text x="119.27" y="319.00">.</text>
<text x="233.21" y="158.37">+</text>
<text x="239.41" y="406.18">.</text>
<text x="128.54" y="117.20">.</text>
<text x="404.12" y="474.36">+</text>

</svg>