
<svg viewBox="0 0 500 500" xmlns="http://www.w.org/2000/svg" width="100%" height="100%" style="background-color: #0a0a14; font-family: 'Courier New', Courier, monospace;">
    <style>
        text { fill: #aaa; font-size: 10px; text-anchor: middle; dominant-baseline: middle; }
    </style>
    <text x="415.63" y="269.25">+</text>
<text x="433.88" y="310.32">+</text>
<text x="337.63" y="189.95">+</text>
<text x="442.92" y="153.32">.</text>
<text x="133.58" y="147.65">+</text>
<text x="237.12" y="351.34">.</text>
<text x="133.49" y="139.81">.</text>
<text x="347.61" y="266.38">+</text>
<text x="417.17" y="300.21">.</text>
<text x="204.69" y="486.73">.</text>
<text x="106.17" y="304.10">+</text>
<text x="112.36" y="33.16">.</text>
<text x="288.05" y="192.82">+</text>
<text x="48.13" y="356.73">+</text>
<text x="347.94" y="169.68">+</text>
<text x="368.90" y="312.48">+</text>
<text x="105.89" y="320.22">+</text>
<text x="486.45" y="202.78">.</text>
<text x="19.57" y="265.89">+</text>
<text x="300.94" y="65.60">.</text>
<text x="66.24" y="53.60">+</text>
<text x="15.87" y="347.78">+</text>
<text x="250.30" y="8.74">*</text>
<text x="345.84" y="199.29">+</text>
<text x="283.91" y="86.65">.</text>
<text x="311.22" y="231.43">*</text>
<text x="57.68" y="261.90">+</text>
<text x="407.34" y="148.98">*</text>
<text x="124.00" y="41.71">.</text>
<text x="275.65" y="288.00">+</text>
<text x="327.41" y="331.79">.</text>
<text x="150.15" y="387.45">.</text>
<text x="216.12" y="277.68">+</text>
<text x="446.92" y="64.40">*</text>
<text x="192.33" y="4.03">+</text>
<text x="459.10" y="329.69">*</text>
<text x="65.70" y="112.86">.</text>
<text x="9.02" y="84.73">.</text>
<text x="70.84" y="381.34">.</text>
<text x="416.99" y="16.14">.</text>
<text x="374.26" y="374.50">*</text>
<text x="185.58" y="140.99">.</text>
<text x="197.86" y="405.00">.</text>
<text x="303.45" y="415.21">+</text>
<text x="264.33" y="471.37">.</text>
<text x="344.39" y="249.94">+</text>
<text x="184.32" y="199.60">+</text>
<text x="70.58" y="33.91">+</text>
<text x="110.90" y="430.26">+</text>
<text x="135.52" y="459.27">.</text>
<text x="252.20" y="141.27">+</text>
<text x="481.19" y="497.57">.</text>
<text x="7.69" y="163.91">+</text>
<text x="271.38" y="74.51">+</text>
<text x="199.27" y="247.98">+</text>
<text x="136.54" y="246.30">+</text>
<text x="310.19" y="405.76">.</text>
<text x="200.51" y="226.84">.</text>
<text x="303.55" y="167.01">+</text>
<text x="405.04" y="65.57">+</text>
<text x="404.96" y="494.28">+</text>
<text x="194.45" y="337.48">*</text>
<text x="333.28" y="201.00">*</text>
<text x="423.60" y="437.50">.</text>
<text x="163.78" y="96.82">.</text>
<text x="35.03" y="471.19">+</text>
<text x="281.92" y="373.63">+</text>
<text x="432.79" y="175.20">+</text>
<text x="129.91" y="49.22">.</text>
<text x="406.15" y="338.17">+</text>
<text x="470.82" y="184.91">.</text>
<text x="484.24" y="178.69">.</text>
<text x="374.18" y="205.33">+</text>
<text x="480.66" y="408.79">.</text>
<text x="220.11" y="479.02">.</text>
<text x="285.09" y="283.65">+</text>
<text x="224.66" y="63.46">.</text>
<text x="402.20" y="148.46">+</text>
<text x="210.20" y="348.63">+</text>
<text x="261.15" y="169.18">*</text>
<text x="117.15" y="297.98">*</text>
<text x="440.84" y="69.02">.</text>
<text x="413.92" y="474.94">.</text>
<text x="368.66" y="400.46">+</text>
<text x="57.12" y="235.16">.</text>
<text x="480.90" y="343.80">.</text>
<text x="65.05" y="2.09">+</text>
<text x="424.98" y="257.66">+</text>
<text x="399.02" y="57.21">+</text>
<text x="342.33" y="266.34">.</text>
<text x="18.06" y="497.27">+</text>
<text x="219.90" y="394.87">.</text>
<text x="235.57" y="96.48">+</text>
<text x="210.13" y="153.78">+</text>
<text x="323.88" y="230.51">+</text>
<text x="353.18" y="216.37">.</text>
<text x="302.75" y="151.54">+</text>
<text x="437.91" y="193.89">+</text>
<text x="194.54" y="368.02">+</text>
<text x="132.08" y="48.75">*</text>
<text x="291.49" y="110.14">+</text>
<text x="251.16" y="145.91">+</text>
<text x="329.15" y="300.28">+</text>
<text x="277.50" y="266.65">+</text>
<text x="468.69" y="355.69">+</text>
<text x="341.08" y="376.95">+</text>
<text x="26.23" y="0.01">+</text>
<text x="117.93" y="284.74">.</text>
<text x="74.07" y="473.11">+</text>
<text x="214.71" y="210.17">+</text>
<text x="4.22" y="353.40">+</text>
<text x="11.57" y="7.92">+</text>
<text x="261.43" y="164.25">.</text>
<text x="259.35" y="57.23">+</text>
<text x="149.03" y="103.83">+</text>
<text x="278.49" y="404.16">.</text>
<text x="48.42" y="460.44">.</text>
<text x="79.75" y="478.51">.</text>
<text x="453.49" y="46.34">.</text>
<text x="293.91" y="23.33">.</text>
<text x="243.20" y="245.68">+</text>
<text x="15.95" y="493.08">+</text>
<text x="282.07" y="87.75">+</text>
<text x="455.30" y="435.84">.</text>
<text x="219.32" y="131.64">+</text>
<text x="484.05" y="337.40">*</text>
<text x="371.63" y="274.39">*</text>
<text x="401.97" y="218.99">.</text>
<text x="100.70" y="293.46">+</text>
<text x="447.30" y="85.20">.</text>
<text x="169.22" y="78.55">*</text>
<text x="104.13" y="398.85">.</text>
<text x="113.97" y="365.27">+</text>
<text x="380.91" y="224.58">+</text>
<text x="327.44" y="38.85">.</text>
<text x="213.94" y="210.87">+</text>
<text x="155.58" y="273.50">.</text>
<text x="374.92" y="4.98">.</text>
<text x="440.60" y="344.40">+</text>
<text x="56.52" y="14.92">*</text>
<text x="329.43" y="2.53">+</text>
<text x="296.07" y="395.35">+</text>
<text x="287.57" y="183.78">+</text>
<text x="263.06" y="474.04">.</text>
<text x="104.52" y="86.22">+</text>
<text x="438.25" y="359.03">+</text>
<text x="360.38" y="175.38">*</text>
<text x="313.47" y="436.14">.</text>
<text x="249.53" y="197.54">.</text>
<text x="136.72" y="480.28">+</text>
<text x="11.04" y="478.08">+</text>
<text x="16.66" y="376.39">.</text>
<text x="53.77" y="344.34">.</text>
<text x="257.42" y="73.30">+</text>
<text x="190.70" y="229.97">+</text>
<text x="39.65" y="490.01">+</text>
<text x="272.76" y="310.60">+</text>
<text x="41.22" y="184.48">*</text>
<text x="23.77" y="316.32">.</text>
<text x="433.31" y="394.35">.</text>
<text x="256.98" y="487.01">.</text>
<text x="467.38" y="88.90">.</text>
<text x="65.08" y="164.16">+</text>
<text x="479.02" y="318.03">+</text>
<text x="353.39" y="258.17">.</text>
<text x="28.12" y="454.27">+</text>
<text x="484.81" y="168.40">+</text>
<text x="255.77" y="50.25">.</text>
<text x="474.70" y="1.90">+</text>
<text x="79.56" y="308.59">.</text>
<text x="417.13" y="248.91">.</text>
<text x="497.23" y="126.04">.</text>
<text x="167.28" y="70.17">+</text>
<text x="21.33" y="315.18">.</text>
<text x="332.40" y="360.57">+</text>
<text x="488.55" y="1.43">*</text>
<text x="32.99" y="425.73">.</text>
<text x="276.22" y="434.52">+</text>
<text x="167.35" y="62.36">+</text>
<text x="347.58" y="287.70">+</text>
<text x="113.62" y="216.68">.</text>
<text x="470.22" y="24.52">.</text>
<text x="317.37" y="264.85">+</text>
<text x="358.03" y="329.39">*</text>
<text x="65.73" y="429.33">.</text>
<text x="333.11" y="462.77">.</text>
<text x="159.89" y="366.67">*</text>
<text x="267.10" y="44.86">+</text>
<text x="20.34" y="276.11">+</text>
<text x="138.03" y="189.39">+</text>
<text x="147.39" y="132.90">*</text>
<text x="149.74" y="8.58">+</text>
<text x="76.63" y="272.23">.</text>
<text x="466.26" y="405.55">.</text>
<text x="226.98" y="398.57">+</text>
<text x="187.41" y="22.31">+</text>
<text x="19.29" y="55.72">+</text>
<text x="465.21" y="63.92">.</text>
<text x="302.43" y="384.45">*</text>
<text x="248.67" y="383.60">.</text>
<text x="2.33" y="146.47">+</text>
<text x="164.60" y="112.81">+</text>
<text x="336.23" y="330.41">.</text>
<text x="328.02" y="490.58">.</text>
<text x="162.08" y="283.49">+</text>
<text x="66.17" y="457.21">+</text>
<text x="420.02" y="186.68">.</text>
<text x="373.37" y="304.14">*</text>
<text x="346.25" y="17.48">.</text>
<text x="324.72" y="271.61">+</text>
<text x="453.37" y="234.25">.</text>
<text x="372.78" y="114.12">.</text>
<text x="58.19" y="173.71">*</text>
<text x="100.17" y="77.31">.</text>
<text x="321.77" y="405.07">+</text>
<text x="323.65" y="274.72">.</text>
<text x="341.18" y="49.12">*</text>
<text x="170.57" y="184.30">+</text>
<text x="268.80" y="205.99">.</text>
<text x="316.58" y="134.33">+</text>
<text x="221.59" y="319.72">+</text>
<text x="73.39" y="308.63">.</text>
<text x="310.89" y="202.37">.</text>
<text x="484.80" y="401.60">.</text>
<text x="423.50" y="56.26">.</text>
<text x="296.93" y="260.14">.</text>
<text x="27.79" y="216.86">+</text>
<text x="465.41" y="68.52">.</text>
<text x="83.03" y="118.90">.</text>
<text x="106.17" y="286.17">+</text>

</svg>