
<svg viewBox="0 0 500 500" xmlns="http://www.w.org/2000/svg" width="100%" height="100%" style="background-color: #0a0a14; font-family: 'Courier New', Courier, monospace;">
    <style>
        text { fill: #aaa; font-size: 10px; text-anchor: middle; dominant-baseline: middle; }
    </style>
    <text x="408.02" y="40.50">.</text>
<text x="453.29" y="312.17">+</text>
<text x="93.67" y="314.16">+</text>
<text x="329.02" y="284.19">+</text>
<text x="191.34" y="62.61">.</text>
<text x="481.84" y="345.71">+</text>
<text x="70.81" y="90.55">*</text>
<text x="89.98" y="198.51">+</text>
<text x="65.28" y="184.35">+</text>
<text x="9.54" y="53.70">+</text>
<text x="396.74" y="362.42">+</text>
<text x="368.02" y="261.31">+</text>
<text x="260.31" y="392.83">*</text>
<text x="291.03" y="113.54">+</text>
<text x="219.40" y="102.84">*</text>
<text x="74.27" y="288.96">+</text>
<text x="426.14" y="407.70">+</text>
<text x="96.31" y="187.92">+</text>
<text x="116.12" y="116.87">+</text>
<text x="318.84" y="33.92">.</text>
<text x="292.96" y="253.63">*</text>
<text x="48.92" y="390.53">+</text>
<text x="497.23" y="427.32">.</text>
<text x="112.59" y="307.30">+</text>
<text x="362.06" y="395.86">+</text>
<text x="325.50" y="90.36">*</text>
<text x="325.42" y="253.00">.</text>
<text x="152.25" y="331.17">.</text>
<text x="248.92" y="497.37">.</text>
<text x="252.19" y="258.68">+</text>
<text x="57.08" y="172.01">+</text>
<text x="240.35" y="399.98">.</text>
<text x="404.42" y="151.08">+</text>
<text x="486.28" y="193.33">.</text>
<text x="283.73" y="271.18">+</text>
<text x="367.10" y="339.29">.</text>
<text x="464.52" y="274.02">+</text>
<text x="361.45" y="122.78">.</text>
<text x="59.16" y="105.26">.</text>
<text x="172.47" y="312.00">*</text>
<text x="218.12" y="210.88">+</text>
<text x="474.04" y="108.42">.</text>
<text x="167.52" y="365.08">.</text>
<text x="325.43" y="126.55">.</text>
<text x="86.41" y="224.84">.</text>
<text x="263.15" y="272.40">+</text>
<text x="225.91" y="153.56">+</text>
<text x="337.37" y="132.77">.</text>
<text x="267.53" y="179.67">.</text>
<text x="294.58" y="254.82">*</text>
<text x="362.59" y="52.21">+</text>
<text x="349.78" y="399.44">*</text>
<text x="220.58" y="61.48">+</text>
<text x="153.45" y="450.09">.</text>
<text x="473.67" y="134.50">+</text>
<text x="432.64" y="314.19">+</text>
<text x="63.99" y="221.31">+</text>
<text x="366.07" y="276.70">.</text>
<text x="452.95" y="258.40">+</text>
<text x="206.32" y="418.05">.</text>
<text x="80.45" y="116.98">+</text>
<text x="237.16" y="367.28">.</text>
<text x="310.80" y="22.21">.</text>
<text x="93.26" y="282.78">+</text>
<text x="420.83" y="125.84">+</text>
<text x="329.09" y="62.47">.</text>
<text x="344.46" y="333.92">.</text>
<text x="73.52" y="425.27">.</text>
<text x="482.64" y="358.53">+</text>
<text x="89.96" y="353.24">+</text>
<text x="44.36" y="389.28">.</text>
<text x="154.79" y="406.52">.</text>
<text x="20.92" y="41.68">.</text>
<text x="389.37" y="256.72">*</text>
<text x="13.76" y="377.63">.</text>
<text x="238.34" y="423.75">+</text>
<text x="133.36" y="443.63">.</text>
<text x="175.39" y="100.45">+</text>
<text x="15.33" y="477.54">+</text>
<text x="218.30" y="271.78">.</text>
<text x="240.40" y="63.14">+</text>
<text x="298.88" y="222.92">+</text>
<text x="425.25" y="34.96">.</text>
<text x="196.31" y="282.65">+</text>
<text x="30.26" y="214.26">+</text>
<text x="207.75" y="383.60">.</text>
<text x="347.34" y="239.02">+</text>
<text x="149.85" y="398.34">+</text>
<text x="202.85" y="180.31">.</text>
<text x="428.51" y="380.02">.</text>
<text x="404.84" y="124.87">*</text>
<text x="281.52" y="2.44">*</text>
<text x="144.39" y="484.50">*</text>
<text x="113.34" y="443.35">+</text>
<text x="180.20" y="70.42">+</text>
<text x="250.20" y="475.84">+</text>
<text x="310.22" y="172.03">*</text>
<text x="332.42" y="190.27">*</text>
<text x="277.87" y="260.43">.</text>
<text x="264.77" y="262.27">+</text>
<text x="290.92" y="472.35">+</text>
<text x="350.01" y="45.44">.</text>
<text x="39.21" y="63.78">*</text>
<text x="438.43" y="330.74">+</text>
<text x="281.18" y="300.78">+</text>
<text x="404.71" y="90.09">.</text>
<text x="321.24" y="329.20">.</text>
<text x="408.21" y="470.26">+</text>
<text x="22.95" y="166.41">+</text>
<text x="26.01" y="291.68">+</text>
<text x="421.96" y="438.60">*</text>
<text x="40.59" y="0.81">+</text>
<text x="181.25" y="470.82">.</text>
<text x="455.77" y="149.86">.</text>
<text x="444.98" y="239.18">+</text>
<text x="182.52" y="283.31">.</text>
<text x="57.60" y="240.29">+</text>
<text x="134.53" y="221.90">.</text>
<text x="324.04" y="93.99">+</text>
<text x="125.79" y="57.16">.</text>
<text x="3.81" y="369.05">+</text>
<text x="476.05" y="143.35">.</text>
<text x="470.58" y="465.99">.</text>
<text x="409.58" y="437.90">*</text>
<text x="137.86" y="384.84">.</text>
<text x="497.50" y="14.33">.</text>
<text x="105.82" y="257.25">.</text>
<text x="183.12" y="3.09">.</text>
<text x="243.09" y="204.56">+</text>
<text x="56.94" y="342.73">+</text>
<text x="363.44" y="488.96">.</text>
<text x="215.21" y="446.18">+</text>
<text x="400.09" y="268.91">.</text>
<text x="194.45" y="414.10">*</text>
<text x="329.52" y="405.43">+</text>
<text x="70.86" y="327.18">.</text>
<text x="430.04" y="8.78">+</text>
<text x="311.28" y="479.73">.</text>
<text x="487.92" y="340.18">+</text>
<text x="38.46" y="191.22">+</text>
<text x="418.16" y="351.65">*</text>
<text x="413.56" y="290.30">+</text>
<text x="436.01" y="415.03">.</text>
<text x="353.54" y="441.33">*</text>
<text x="101.07" y="245.23">.</text>
<text x="237.31" y="41.48">+</text>
<text x="201.88" y="141.35">*</text>
<text x="167.10" y="342.01">.</text>
<text x="210.43" y="260.42">+</text>
<text x="180.86" y="147.66">+</text>
<text x="166.06" y="480.80">.</text>
<text x="2.17" y="45.37">.</text>
<text x="454.74" y="266.19">.</text>
<text x="140.74" y="106.63">*</text>
<text x="113.21" y="22.89">.</text>
<text x="232.17" y="309.78">.</text>
<text x="485.07" y="365.21">.</text>
<text x="217.84" y="81.37">+</text>
<text x="98.95" y="106.23">.</text>
<text x="215.61" y="157.50">*</text>
<text x="392.70" y="136.58">+</text>
<text x="376.85" y="266.94">.</text>
<text x="184.74" y="413.54">.</text>
<text x="28.95" y="487.06">.</text>
<text x="389.38" y="163.51">.</text>
<text x="495.52" y="409.35">.</text>
<text x="200.49" y="298.14">+</text>
<text x="287.60" y="398.32">.</text>
<text x="158.81" y="113.49">.</text>
<text x="281.87" y="173.51">.</text>
<text x="324.51" y="77.85">+</text>
<text x="450.55" y="37.56">+</text>
<text x="451.18" y="132.19">*</text>
<text x="347.51" y="498.60">.</text>
<text x="400.30" y="315.18">+</text>
<text x="469.09" y="99.00">.</text>
<text x="268.39" y="0.56">+</text>
<text x="76.56" y="14.63">.</text>
<text x="134.10" y="44.61">+</text>
<text x="428.79" y="445.11">*</text>
<text x="382.18" y="160.32">.</text>
<text x="164.00" y="1.97">+</text>
<text x="459.60" y="9.10">+</text>
<text x="297.23" y="149.58">+</text>
<text x="57.17" y="265.83">+</text>
<text x="120.86" y="177.47">*</text>
<text x="130.72" y="435.92">.</text>
<text x="161.52" y="496.10">*</text>
<text x="307.11" y="228.92">.</text>
<text x="220.84" y="52.51">.</text>
<text x="422.78" y="151.72">.</text>
<text x="158.80" y="460.96">+</text>
<text x="462.03" y="138.39">.</text>
<text x="194.19" y="174.54">+</text>
<text x="71.93" y="38.29">+</text>
<text x="69.63" y="445.22">+</text>
<text x="344.34" y="256.88">*</text>
<text x="60.07" y="102.41">+</text>
<text x="84.96" y="385.88">.</text>
<text x="156.69" y="275.20">+</text>
<text x="239.26" y="451.13">.</text>
<text x="250.81" y="160.31">.</text>
<text x="84.62" y="99.58">.</text>
<text x="132.63" y="260.68">.</text>
<text x="499.89" y="365.69">*</text>
<text x="80.99" y="480.32">.</text>
<text x="479.69" y="187.81">.</text>
<text x="150.93" y="66.53">.</text>
<text x="333.09" y="209.91">+</text>
<text x="257.82" y="467.96">+</text>
<text x="496.41" y="256.22">.</text>
<text x="84.08" y="234.19">.</text>
<text x="377.82" y="49.90">.</text>
<text x="126.55" y="256.55">.</text>
<text x="119.30" y="74.27">.</text>
<text x="433.94" y="129.17">.</text>
<text x="452.57" y="177.21">*</text>
<text x="433.33" y="279.00">*</text>

</svg>