
<svg viewBox="0 0 500 500" xmlns="http://www.w.org/2000/svg" width="100%" height="100%" style="background-color: #0a0a14; font-family: 'Courier New', Courier, monospace;">
    <style>
        text { fill: #aaa; font-size: 10px; text-anchor: middle; dominant-baseline: middle; }
    </style>
    <text x="28.05" y="386.94">+</text>
<text x="406.28" y="435.85">+</text>
<text x="238.77" y="371.80">*</text>
<text x="83.75" y="70.80">.</text>
<text x="407.04" y="489.19">+</text>
<text x="453.27" y="384.07">+</text>
<text x="104.50" y="153.45">.</text>
<text x="465.03" y="433.27">.</text>
<text x="99.25" y="83.74">.</text>
<text x="407.66" y="234.26">.</text>
<text x="447.28" y="180.00">+</text>
<text x="434.49" y="260.88">.</text>
<text x="95.79" y="260.60">.</text>
<text x="42.94" y="352.52">+</text>
<text x="176.32" y="181.47">+</text>
<text x="369.63" y="359.66">+</text>
<text x="47.60" y="212.77">+</text>
<text x="325.96" y="297.78">.</text>
<text x="361.79" y="189.53">+</text>
<text x="487.23" y="235.45">+</text>
<text x="171.96" y="194.07">+</text>
<text x="142.35" y="492.95">.</text>
<text x="156.46" y="460.37">.</text>
<text x="34.90" y="268.74">*</text>
<text x="338.44" y="56.51">+</text>
<text x="199.16" y="409.19">+</text>
<text x="368.22" y="476.52">.</text>
<text x="434.34" y="418.45">+</text>
<text x="453.48" y="274.80">.</text>
<text x="113.92" y="311.92">+</text>
<text x="148.27" y="379.44">.</text>
<text x="246.96" y="99.70">.</text>
<text x="311.29" y="229.45">.</text>
<text x="394.34" y="189.24">+</text>
<text x="397.09" y="232.67">.</text>
<text x="45.55" y="405.88">.</text>
<text x="222.57" y="301.71">.</text>
<text x="95.47" y="200.61">+</text>
<text x="84.52" y="394.75">.</text>
<text x="252.76" y="215.47">*</text>
<text x="381.16" y="237.89">*</text>
<text x="109.28" y="295.65">.</text>
<text x="463.50" y="53.17">.</text>
<text x="167.76" y="221.70">.</text>
<text x="204.84" y="240.14">.</text>
<text x="152.65" y="99.98">+</text>
<text x="12.47" y="316.38">.</text>
<text x="108.50" y="227.49">.</text>
<text x="13.01" y="276.74">*</text>
<text x="124.95" y="283.89">+</text>
<text x="68.06" y="261.67">*</text>
<text x="284.15" y="326.34">.</text>
<text x="229.01" y="179.24">+</text>
<text x="15.06" y="448.54">+</text>
<text x="108.29" y="363.08">*</text>
<text x="126.58" y="106.56">.</text>
<text x="288.18" y="312.59">*</text>
<text x="219.99" y="216.29">+</text>
<text x="408.41" y="493.44">+</text>
<text x="264.07" y="348.52">+</text>
<text x="117.36" y="456.95">*</text>
<text x="438.06" y="343.92">+</text>
<text x="139.04" y="230.10">*</text>
<text x="270.11" y="297.06">.</text>
<text x="380.64" y="91.39">+</text>
<text x="374.09" y="341.41">.</text>
<text x="282.37" y="82.63">+</text>
<text x="324.47" y="123.20">+</text>
<text x="384.52" y="427.25">+</text>
<text x="343.97" y="365.09">.</text>
<text x="346.81" y="70.62">.</text>
<text x="116.96" y="107.88">+</text>
<text x="381.90" y="354.66">+</text>
<text x="119.83" y="283.67">*</text>
<text x="296.17" y="333.24">.</text>
<text x="426.37" y="418.92">+</text>
<text x="418.11" y="129.30">.</text>
<text x="215.61" y="374.41">.</text>
<text x="316.04" y="484.92">.</text>
<text x="353.82" y="159.67">+</text>
<text x="50.07" y="431.77">.</text>
<text x="196.51" y="8.39">+</text>
<text x="446.44" y="477.94">*</text>
<text x="441.59" y="319.22">+</text>
<text x="380.49" y="381.49">+</text>
<text x="64.90" y="316.70">+</text>
<text x="123.87" y="85.31">.</text>
<text x="83.06" y="482.83">*</text>
<text x="461.38" y="65.48">.</text>
<text x="375.02" y="431.40">+</text>
<text x="304.21" y="107.45">*</text>
<text x="459.99" y="442.54">*</text>
<text x="348.69" y="273.99">.</text>
<text x="477.19" y="283.42">+</text>
<text x="218.43" y="155.23">+</text>
<text x="46.04" y="346.18">.</text>
<text x="350.28" y="460.28">.</text>
<text x="275.17" y="163.07">.</text>
<text x="320.14" y="175.80">+</text>
<text x="190.79" y="371.24">.</text>
<text x="190.09" y="8.39">.</text>
<text x="199.92" y="476.86">+</text>
<text x="321.97" y="446.03">.</text>
<text x="30.03" y="150.31">*</text>
<text x="274.73" y="162.22">*</text>
<text x="124.31" y="258.66">+</text>
<text x="338.26" y="383.94">.</text>
<text x="359.74" y="179.48">+</text>
<text x="499.66" y="27.61">*</text>
<text x="404.58" y="40.76">+</text>
<text x="366.15" y="221.45">+</text>
<text x="135.90" y="318.81">.</text>
<text x="42.05" y="358.01">.</text>
<text x="87.12" y="378.67">.</text>
<text x="499.28" y="52.76">+</text>
<text x="229.72" y="434.70">+</text>
<text x="294.54" y="437.82">+</text>
<text x="171.70" y="263.63">+</text>
<text x="322.72" y="343.64">+</text>
<text x="343.60" y="395.26">+</text>
<text x="448.16" y="39.36">+</text>
<text x="170.08" y="391.17">.</text>
<text x="441.40" y="115.40">*</text>
<text x="118.41" y="42.62">+</text>
<text x="378.06" y="51.54">+</text>
<text x="203.92" y="378.27">.</text>
<text x="147.46" y="157.94">+</text>
<text x="352.07" y="70.06">+</text>
<text x="289.30" y="464.38">*</text>
<text x="481.74" y="20.44">.</text>
<text x="100.24" y="69.28">.</text>
<text x="448.84" y="493.45">.</text>
<text x="225.87" y="123.61">.</text>
<text x="242.96" y="156.77">.</text>
<text x="495.42" y="31.44">*</text>
<text x="174.75" y="453.70">*</text>
<text x="125.04" y="126.97">+</text>
<text x="232.38" y="337.50">+</text>
<text x="267.20" y="232.73">+</text>
<text x="415.13" y="119.09">.</text>
<text x="238.63" y="3.51">.</text>
<text x="259.59" y="323.69">.</text>
<text x="235.33" y="415.87">.</text>
<text x="182.01" y="270.64">+</text>
<text x="198.74" y="71.02">+</text>
<text x="409.69" y="55.02">*</text>
<text x="181.50" y="442.26">*</text>
<text x="65.32" y="330.44">.</text>
<text x="336.20" y="164.36">+</text>
<text x="342.32" y="458.65">+</text>
<text x="14.37" y="258.83">.</text>
<text x="0.05" y="152.57">+</text>
<text x="306.92" y="304.79">.</text>
<text x="339.07" y="269.31">.</text>
<text x="231.04" y="329.17">+</text>
<text x="337.20" y="157.61">.</text>
<text x="428.03" y="382.31">.</text>
<text x="138.54" y="403.09">.</text>
<text x="280.59" y="59.65">+</text>
<text x="78.75" y="483.90">*</text>
<text x="214.72" y="71.28">.</text>
<text x="273.51" y="231.28">.</text>
<text x="493.70" y="76.31">*</text>
<text x="340.83" y="272.57">.</text>
<text x="280.08" y="328.72">.</text>
<text x="137.55" y="106.94">+</text>
<text x="139.74" y="436.29">.</text>
<text x="149.41" y="232.42">*</text>
<text x="144.61" y="439.68">*</text>
<text x="32.21" y="263.61">+</text>
<text x="80.50" y="404.84">+</text>
<text x="402.15" y="411.36">*</text>
<text x="454.69" y="268.34">*</text>
<text x="269.43" y="444.14">*</text>
<text x="413.84" y="456.80">.</text>
<text x="426.71" y="31.93">.</text>
<text x="347.36" y="439.24">.</text>
<text x="444.54" y="268.68">.</text>
<text x="335.79" y="419.24">+</text>
<text x="391.59" y="66.24">+</text>
<text x="60.45" y="248.05">*</text>
<text x="61.74" y="470.30">+</text>
<text x="342.89" y="104.78">+</text>
<text x="315.81" y="443.54">*</text>
<text x="408.68" y="315.51">*</text>
<text x="276.71" y="87.68">+</text>
<text x="191.12" y="450.81">+</text>
<text x="448.71" y="216.45">*</text>
<text x="189.28" y="339.54">+</text>
<text x="252.78" y="331.10">+</text>
<text x="134.67" y="390.42">.</text>
<text x="314.62" y="122.34">+</text>
<text x="139.07" y="56.28">+</text>
<text x="343.42" y="91.17">.</text>
<text x="270.23" y="112.77">+</text>
<text x="487.57" y="425.10">.</text>
<text x="454.05" y="212.38">+</text>
<text x="79.59" y="321.94">*</text>
<text x="264.79" y="41.95">+</text>
<text x="172.65" y="366.48">.</text>
<text x="352.56" y="229.11">*</text>
<text x="285.46" y="260.84">+</text>
<text x="321.70" y="235.87">+</text>
<text x="162.91" y="367.66">+</text>
<text x="429.02" y="198.40">.</text>

</svg>