
<svg viewBox="0 0 500 500" xmlns="http://www.w.org/2000/svg" width="100%" height="100%" style="background-color: #0a0a14; font-family: 'Courier New', Courier, monospace;">
    <style>
        text { fill: #aaa; font-size: 10px; text-anchor: middle; dominant-baseline: middle; }
    </style>
    <text x="320.37" y="443.51">.</text>
<text x="19.22" y="451.91">*</text>
<text x="399.67" y="459.29">.</text>
<text x="362.07" y="37.84">.</text>
<text x="69.82" y="380.39">.</text>
<text x="218.15" y="444.03">+</text>
<text x="451.92" y="221.00">.</text>
<text x="445.53" y="398.28">.</text>
<text x="13.59" y="382.78">+</text>
<text x="432.88" y="71.52">.</text>
<text x="148.08" y="446.50">.</text>
<text x="284.40" y="331.59">+</text>
<text x="208.87" y="469.10">+</text>
<text x="136.15" y="386.48">+</text>
<text x="473.73" y="77.32">.</text>
<text x="329.81" y="279.53">+</text>
<text x="473.07" y="328.91">+</text>
<text x="327.60" y="400.21">+</text>
<text x="168.92" y="462.31">.</text>
<text x="408.71" y="324.47">+</text>
<text x="48.87" y="39.03">.</text>
<text x="291.50" y="63.67">*</text>
<text x="255.93" y="485.31">*</text>
<text x="419.79" y="92.06">.</text>
<text x="223.61" y="62.18">+</text>
<text x="192.42" y="124.61">+</text>
<text x="373.15" y="357.87">+</text>
<text x="388.79" y="230.17">+</text>
<text x="139.74" y="332.65">.</text>
<text x="230.13" y="484.30">+</text>
<text x="453.77" y="16.02">.</text>
<text x="84.06" y="214.34">+</text>
<text x="447.69" y="183.20">.</text>
<text x="428.94" y="272.41">*</text>
<text x="449.61" y="395.58">*</text>
<text x="467.94" y="134.78">+</text>
<text x="330.65" y="325.29">*</text>
<text x="490.16" y="149.86">+</text>
<text x="481.40" y="336.79">+</text>
<text x="369.41" y="479.50">+</text>
<text x="415.94" y="346.66">*</text>
<text x="348.65" y="117.92">.</text>
<text x="92.68" y="196.90">+</text>
<text x="471.78" y="461.41">+</text>
<text x="360.83" y="106.25">+</text>
<text x="192.21" y="156.33">+</text>
<text x="324.35" y="69.69">.</text>
<text x="78.27" y="153.03">.</text>
<text x="104.29" y="266.72">*</text>
<text x="320.61" y="312.62">.</text>
<text x="33.80" y="285.36">.</text>
<text x="13.60" y="55.14">+</text>
<text x="280.33" y="296.69">+</text>
<text x="134.70" y="443.49">.</text>
<text x="197.92" y="307.07">.</text>
<text x="65.37" y="91.92">*</text>
<text x="374.62" y="33.92">.</text>
<text x="138.17" y="250.49">.</text>
<text x="219.92" y="55.62">*</text>
<text x="282.78" y="258.02">*</text>
<text x="279.93" y="26.33">.</text>
<text x="295.86" y="427.71">.</text>
<text x="276.72" y="110.64">.</text>
<text x="455.75" y="340.96">+</text>
<text x="136.15" y="15.07">.</text>
<text x="120.33" y="331.29">+</text>
<text x="19.44" y="170.82">+</text>
<text x="480.48" y="246.68">*</text>
<text x="252.93" y="470.27">+</text>
<text x="221.10" y="233.92">*</text>
<text x="389.23" y="418.94">.</text>
<text x="139.37" y="379.45">.</text>
<text x="35.71" y="304.74">.</text>
<text x="139.35" y="154.50">*</text>
<text x="414.62" y="44.61">.</text>
<text x="196.25" y="358.84">+</text>
<text x="105.02" y="421.95">+</text>
<text x="347.35" y="230.71">.</text>
<text x="344.14" y="316.21">+</text>
<text x="392.62" y="275.50">+</text>
<text x="251.52" y="198.32">+</text>
<text x="395.37" y="396.01">+</text>
<text x="44.88" y="445.95">+</text>
<text x="231.48" y="85.03">+</text>
<text x="88.31" y="209.79">.</text>
<text x="58.46" y="136.28">+</text>
<text x="163.31" y="333.96">.</text>
<text x="39.46" y="466.21">.</text>
<text x="28.41" y="183.29">+</text>
<text x="165.35" y="307.15">+</text>
<text x="289.25" y="417.41">.</text>
<text x="308.33" y="199.67">+</text>
<text x="198.01" y="307.06">.</text>
<text x="332.06" y="465.39">+</text>
<text x="59.50" y="215.24">.</text>
<text x="419.07" y="289.29">+</text>
<text x="413.71" y="112.15">+</text>
<text x="227.65" y="354.72">*</text>
<text x="339.34" y="2.80">+</text>
<text x="317.57" y="262.22">+</text>
<text x="296.17" y="285.03">*</text>
<text x="237.27" y="86.28">.</text>
<text x="402.34" y="247.10">.</text>
<text x="302.44" y="312.76">.</text>
<text x="326.72" y="40.37">+</text>
<text x="327.46" y="178.44">+</text>
<text x="377.72" y="254.95">+</text>
<text x="172.49" y="7.37">.</text>
<text x="466.80" y="378.68">+</text>
<text x="307.05" y="49.57">+</text>
<text x="445.15" y="112.64">+</text>
<text x="429.73" y="273.72">+</text>
<text x="269.01" y="377.57">+</text>
<text x="391.42" y="421.24">+</text>
<text x="481.56" y="364.84">+</text>
<text x="118.76" y="361.27">+</text>
<text x="293.62" y="248.47">+</text>
<text x="322.72" y="422.01">*</text>
<text x="479.96" y="20.48">+</text>
<text x="193.17" y="459.19">+</text>
<text x="158.48" y="263.50">.</text>
<text x="491.18" y="452.11">+</text>
<text x="429.63" y="483.98">.</text>
<text x="157.26" y="125.92">+</text>
<text x="454.66" y="61.21">.</text>
<text x="91.66" y="414.70">*</text>
<text x="55.18" y="377.06">+</text>
<text x="159.96" y="399.65">.</text>
<text x="240.87" y="90.77">.</text>
<text x="132.66" y="393.11">+</text>
<text x="25.56" y="254.58">.</text>
<text x="438.10" y="496.63">.</text>
<text x="395.56" y="106.53">.</text>
<text x="124.16" y="262.34">+</text>
<text x="435.35" y="210.59">.</text>
<text x="190.29" y="134.00">+</text>
<text x="145.65" y="29.51">*</text>
<text x="310.28" y="175.08">+</text>
<text x="36.98" y="282.57">.</text>
<text x="149.51" y="83.71">+</text>
<text x="325.57" y="45.27">+</text>
<text x="478.70" y="219.25">+</text>
<text x="409.30" y="293.77">+</text>
<text x="311.11" y="217.90">.</text>
<text x="23.43" y="475.65">*</text>
<text x="285.51" y="317.75">.</text>
<text x="461.26" y="493.07">*</text>
<text x="202.82" y="272.37">+</text>
<text x="252.55" y="28.88">.</text>
<text x="184.36" y="207.19">+</text>
<text x="72.84" y="448.32">+</text>
<text x="448.36" y="468.77">+</text>
<text x="236.40" y="367.01">+</text>
<text x="154.92" y="296.77">*</text>
<text x="99.66" y="297.35">.</text>
<text x="311.37" y="459.17">.</text>
<text x="471.20" y="402.95">*</text>
<text x="492.10" y="65.05">.</text>
<text x="19.79" y="462.12">+</text>
<text x="279.47" y="433.86">+</text>
<text x="269.65" y="133.45">*</text>
<text x="77.95" y="132.55">.</text>
<text x="135.88" y="238.19">+</text>
<text x="63.96" y="258.41">+</text>
<text x="191.52" y="196.11">.</text>
<text x="207.77" y="237.74">+</text>
<text x="180.88" y="439.26">+</text>
<text x="306.08" y="35.63">+</text>
<text x="221.84" y="143.02">.</text>
<text x="420.91" y="467.44">.</text>
<text x="243.19" y="104.99">+</text>
<text x="186.19" y="89.10">+</text>
<text x="115.19" y="98.67">.</text>
<text x="35.51" y="229.07">.</text>
<text x="195.01" y="195.63">.</text>
<text x="362.98" y="155.60">+</text>
<text x="209.20" y="448.83">+</text>
<text x="342.44" y="79.27">+</text>
<text x="186.34" y="59.48">+</text>
<text x="420.28" y="466.58">+</text>
<text x="260.79" y="316.68">+</text>
<text x="23.76" y="319.97">+</text>
<text x="348.03" y="73.89">+</text>
<text x="460.73" y="71.71">+</text>
<text x="469.34" y="378.45">+</text>
<text x="141.35" y="454.58">+</text>
<text x="109.69" y="317.05">*</text>
<text x="153.78" y="369.38">+</text>
<text x="298.69" y="43.47">.</text>
<text x="197.90" y="190.23">.</text>
<text x="49.37" y="107.59">.</text>
<text x="98.56" y="127.58">.</text>
<text x="429.57" y="268.64">.</text>
<text x="410.47" y="85.06">+</text>
<text x="145.06" y="202.42">.</text>
<text x="295.28" y="53.88">*</text>
<text x="486.28" y="359.44">+</text>
<text x="293.83" y="279.76">.</text>
<text x="305.93" y="19.90">+</text>
<text x="104.10" y="206.13">+</text>
<text x="0.95" y="241.94">+</text>
<text x="116.26" y="131.34">+</text>
<text x="106.49" y="195.08">+</text>
<text x="83.48" y="367.33">.</text>
<text x="300.33" y="358.44">+</text>
<text x="106.01" y="224.67">+</text>
<text x="287.13" y="295.03">*</text>
<text x="481.51" y="248.42">.</text>
<text x="478.31" y="4.13">.</text>
<text x="68.94" y="88.42">+</text>
<text x="19.19" y="394.84">+</text>
<text x="353.03" y="300.81">*</text>
<text x="364.32" y="154.53">*</text>
<text x="237.70" y="39.86">+</text>
<text x="247.37" y="121.84">.</text>
<text x="265.69" y="104.80">*</text>
<text x="133.41" y="445.95">+</text>
<text x="139.56" y="101.42">.</text>
<text x="428.63" y="467.12">.</text>
<text x="48.20" y="334.09">+</text>
<text x="299.17" y="226.00">*</text>
<text x="344.13" y="220.51">*</text>
<text x="167.93" y="44.25">+</text>
<text x="498.47" y="398.23">+</text>
<text x="290.63" y="473.20">+</text>
<text x="275.56" y="426.83">*</text>
<text x="410.25" y="400.40">+</text>

</svg>