
<svg viewBox="0 0 500 500" xmlns="http://www.w.org/2000/svg" width="100%" height="100%" style="background-color: #0a0a14; font-family: 'Courier New', Courier, monospace;">
    <style>
        text { fill: #aaa; font-size: 10px; text-anchor: middle; dominant-baseline: middle; }
    </style>
    <text x="257.58" y="101.94">*</text>
<text x="472.75" y="337.57">+</text>
<text x="259.91" y="482.79">+</text>
<text x="296.75" y="470.01">.</text>
<text x="368.06" y="478.39">*</text>
<text x="309.88" y="356.31">*</text>
<text x="314.31" y="259.19">.</text>
<text x="442.39" y="342.23">+</text>
<text x="432.56" y="49.80">.</text>
<text x="497.82" y="215.65">.</text>
<text x="71.39" y="116.12">*</text>
<text x="482.24" y="229.82">+</text>
<text x="440.26" y="372.18">+</text>
<text x="413.85" y="171.15">*</text>
<text x="432.71" y="309.41">+</text>
<text x="19.73" y="136.15">+</text>
<text x="407.01" y="87.38">.</text>
<text x="305.94" y="477.00">.</text>
<text x="38.73" y="313.69">*</text>
<text x="441.14" y="496.54">*</text>
<text x="388.83" y="350.54">+</text>
<text x="499.80" y="162.61">+</text>
<text x="79.05" y="276.68">.</text>
<text x="200.83" y="239.17">.</text>
<text x="124.51" y="166.53">+</text>
<text x="180.57" y="287.90">.</text>
<text x="41.83" y="233.86">.</text>
<text x="86.00" y="423.04">.</text>
<text x="495.41" y="82.70">+</text>
<text x="216.90" y="361.65">.</text>
<text x="17.37" y="72.78">.</text>
<text x="436.56" y="323.72">.</text>
<text x="453.87" y="466.29">+</text>
<text x="169.80" y="351.57">+</text>
<text x="125.45" y="236.92">.</text>
<text x="166.53" y="221.57">+</text>
<text x="45.52" y="42.49">.</text>
<text x="203.93" y="64.38">.</text>
<text x="294.40" y="285.33">.</text>
<text x="465.43" y="152.26">.</text>
<text x="457.39" y="61.87">.</text>
<text x="418.21" y="387.92">.</text>
<text x="121.81" y="428.60">.</text>
<text x="335.05" y="461.80">+</text>
<text x="350.91" y="414.85">.</text>
<text x="410.03" y="438.70">.</text>
<text x="457.08" y="326.86">+</text>
<text x="485.75" y="455.47">.</text>
<text x="14.22" y="0.72">+</text>
<text x="85.71" y="180.34">.</text>
<text x="201.84" y="58.64">+</text>
<text x="463.09" y="395.65">+</text>
<text x="379.32" y="275.45">.</text>
<text x="245.67" y="422.10">.</text>
<text x="89.68" y="349.41">+</text>
<text x="485.02" y="108.57">*</text>
<text x="216.79" y="415.24">+</text>
<text x="153.63" y="418.65">.</text>
<text x="125.90" y="290.98">+</text>
<text x="349.12" y="306.45">+</text>
<text x="66.11" y="226.07">.</text>
<text x="99.94" y="488.95">.</text>
<text x="71.89" y="211.58">.</text>
<text x="443.86" y="349.35">+</text>
<text x="342.48" y="276.15">.</text>
<text x="172.84" y="187.01">+</text>
<text x="217.41" y="207.17">.</text>
<text x="360.46" y="43.50">.</text>
<text x="199.51" y="437.54">+</text>
<text x="285.29" y="313.87">+</text>
<text x="241.28" y="366.63">.</text>
<text x="398.65" y="163.26">+</text>
<text x="290.85" y="451.75">+</text>
<text x="22.95" y="227.03">.</text>
<text x="284.23" y="34.50">*</text>
<text x="265.99" y="175.73">*</text>
<text x="102.07" y="410.78">+</text>
<text x="164.40" y="451.16">*</text>
<text x="147.62" y="150.12">*</text>
<text x="216.06" y="86.38">.</text>
<text x="175.89" y="251.76">.</text>
<text x="177.24" y="146.64">+</text>
<text x="120.51" y="331.17">+</text>
<text x="404.00" y="371.84">.</text>
<text x="6.24" y="358.92">.</text>
<text x="251.41" y="159.90">+</text>
<text x="161.98" y="465.58">*</text>
<text x="285.56" y="322.91">.</text>
<text x="495.44" y="499.18">.</text>
<text x="92.47" y="247.26">+</text>
<text x="200.09" y="189.97">*</text>
<text x="455.88" y="102.32">.</text>
<text x="488.01" y="384.56">*</text>
<text x="203.05" y="384.09">*</text>
<text x="436.71" y="305.52">+</text>
<text x="3.18" y="256.56">.</text>
<text x="439.11" y="390.77">+</text>
<text x="232.84" y="302.66">+</text>
<text x="405.40" y="67.25">.</text>
<text x="246.20" y="61.91">.</text>
<text x="10.46" y="438.33">.</text>
<text x="271.14" y="131.14">.</text>
<text x="380.76" y="228.59">.</text>
<text x="272.79" y="314.68">+</text>
<text x="387.96" y="51.55">.</text>
<text x="433.69" y="171.18">+</text>
<text x="188.05" y="91.15">+</text>
<text x="29.00" y="439.22">+</text>
<text x="393.47" y="295.62">+</text>
<text x="361.49" y="401.28">.</text>
<text x="16.33" y="267.49">*</text>
<text x="467.41" y="377.99">+</text>
<text x="306.05" y="124.20">.</text>
<text x="120.80" y="180.70">.</text>
<text x="246.07" y="254.06">.</text>
<text x="402.52" y="281.49">.</text>
<text x="459.10" y="231.76">+</text>
<text x="12.94" y="32.34">.</text>
<text x="120.07" y="440.24">.</text>
<text x="121.16" y="329.64">+</text>
<text x="263.32" y="199.98">.</text>
<text x="11.56" y="413.46">.</text>
<text x="262.54" y="408.36">*</text>
<text x="472.58" y="66.08">+</text>
<text x="31.81" y="219.87">.</text>
<text x="83.12" y="212.71">+</text>
<text x="120.37" y="477.95">.</text>
<text x="43.39" y="123.07">+</text>
<text x="499.69" y="72.39">+</text>
<text x="249.80" y="454.65">+</text>
<text x="102.72" y="174.67">.</text>
<text x="390.02" y="392.68">*</text>
<text x="422.81" y="35.49">.</text>
<text x="28.11" y="311.62">*</text>
<text x="138.58" y="469.50">+</text>
<text x="30.98" y="21.61">*</text>
<text x="240.50" y="87.18">.</text>
<text x="200.34" y="431.33">*</text>
<text x="416.17" y="157.65">+</text>
<text x="157.37" y="161.10">.</text>
<text x="253.26" y="243.08">*</text>
<text x="338.92" y="482.49">.</text>
<text x="471.61" y="435.96">+</text>
<text x="34.35" y="153.07">+</text>
<text x="458.69" y="365.14">.</text>
<text x="436.87" y="310.00">+</text>
<text x="372.90" y="224.51">.</text>
<text x="409.80" y="14.42">+</text>
<text x="90.36" y="319.30">.</text>
<text x="34.98" y="439.66">+</text>
<text x="162.07" y="221.12">.</text>
<text x="59.41" y="105.69">*</text>
<text x="192.34" y="415.90">.</text>
<text x="418.91" y="129.63">.</text>
<text x="199.18" y="17.99">+</text>
<text x="137.53" y="49.16">+</text>
<text x="345.84" y="138.08">.</text>
<text x="377.00" y="427.76">.</text>
<text x="39.60" y="245.66">+</text>
<text x="477.98" y="94.93">+</text>
<text x="310.02" y="321.90">.</text>
<text x="100.87" y="157.92">+</text>
<text x="190.69" y="482.83">.</text>
<text x="138.52" y="96.03">+</text>
<text x="104.05" y="236.00">+</text>
<text x="487.02" y="281.88">+</text>
<text x="105.55" y="188.58">.</text>
<text x="31.90" y="189.67">+</text>
<text x="295.55" y="423.15">.</text>
<text x="478.89" y="171.27">*</text>
<text x="150.36" y="369.46">+</text>
<text x="425.60" y="434.37">.</text>
<text x="162.42" y="124.22">.</text>
<text x="429.71" y="341.29">+</text>
<text x="204.74" y="332.12">*</text>
<text x="136.78" y="254.27">+</text>
<text x="128.41" y="116.45">+</text>
<text x="183.68" y="334.11">+</text>
<text x="73.74" y="499.32">.</text>
<text x="358.61" y="367.66">+</text>
<text x="327.16" y="303.76">+</text>
<text x="347.91" y="37.84">+</text>
<text x="17.37" y="265.56">+</text>
<text x="155.04" y="14.64">.</text>
<text x="29.25" y="391.31">+</text>
<text x="128.25" y="82.63">+</text>
<text x="162.63" y="85.32">.</text>
<text x="362.16" y="497.84">*</text>
<text x="293.58" y="437.18">*</text>
<text x="354.09" y="242.77">+</text>
<text x="305.92" y="146.84">+</text>
<text x="402.80" y="327.44">.</text>
<text x="137.58" y="15.98">*</text>
<text x="65.08" y="65.41">.</text>
<text x="49.49" y="244.61">*</text>
<text x="288.56" y="46.45">.</text>
<text x="29.79" y="409.59">+</text>
<text x="449.24" y="204.94">.</text>
<text x="246.19" y="330.01">.</text>
<text x="203.88" y="2.27">.</text>
<text x="306.19" y="330.66">+</text>
<text x="408.41" y="443.72">+</text>
<text x="477.38" y="117.93">.</text>
<text x="91.46" y="110.04">.</text>
<text x="100.25" y="367.33">+</text>
<text x="165.55" y="355.12">.</text>
<text x="83.10" y="228.40">*</text>
<text x="296.82" y="381.19">.</text>
<text x="259.36" y="82.13">.</text>
<text x="321.26" y="183.44">+</text>
<text x="85.24" y="257.65">.</text>
<text x="314.35" y="45.44">*</text>
<text x="491.44" y="484.52">.</text>
<text x="133.94" y="322.53">+</text>

</svg>