
<svg viewBox="0 0 500 500" xmlns="http://www.w.org/2000/svg" width="100%" height="100%" style="background-color: #0a0a14; font-family: 'Courier New', Courier, monospace;">
    <style>
        text { fill: #aaa; font-size: 10px; text-anchor: middle; dominant-baseline: middle; }
    </style>
    <text x="465.31" y="381.87">.</text>
<text x="386.05" y="347.31">.</text>
<text x="104.20" y="231.33">+</text>
<text x="132.41" y="380.22">.</text>
<text x="482.66" y="257.22">.</text>
<text x="435.96" y="11.19">+</text>
<text x="338.74" y="66.30">*</text>
<text x="75.50" y="77.14">.</text>
<text x="6.09" y="432.10">*</text>
<text x="337.50" y="166.76">+</text>
<text x="479.00" y="256.67">.</text>
<text x="413.13" y="428.02">+</text>
<text x="52.20" y="27.61">+</text>
<text x="357.55" y="379.57">.</text>
<text x="428.53" y="61.86">.</text>
<text x="219.81" y="427.40">*</text>
<text x="399.87" y="173.07">+</text>
<text x="10.48" y="168.95">.</text>
<text x="327.76" y="164.50">+</text>
<text x="136.00" y="250.20">+</text>
<text x="219.53" y="90.66">.</text>
<text x="464.49" y="48.56">*</text>
<text x="281.68" y="129.09">.</text>
<text x="228.62" y="207.73">.</text>
<text x="102.73" y="428.34">.</text>
<text x="50.55" y="60.46">+</text>
<text x="26.75" y="390.57">+</text>
<text x="279.59" y="28.17">+</text>
<text x="173.07" y="380.84">.</text>
<text x="411.00" y="268.39">.</text>
<text x="415.74" y="272.23">*</text>
<text x="128.20" y="142.79">*</text>
<text x="314.24" y="433.23">+</text>
<text x="470.38" y="275.05">.</text>
<text x="472.01" y="390.04">*</text>
<text x="495.00" y="441.81">.</text>
<text x="51.91" y="262.34">*</text>
<text x="193.30" y="467.45">+</text>
<text x="39.37" y="149.70">.</text>
<text x="114.05" y="100.01">.</text>
<text x="442.86" y="55.07">.</text>
<text x="432.12" y="198.47">.</text>
<text x="349.24" y="380.84">.</text>
<text x="274.47" y="417.25">.</text>
<text x="414.04" y="76.43">+</text>
<text x="2.24" y="144.05">.</text>
<text x="413.37" y="302.09">*</text>
<text x="428.05" y="22.90">.</text>
<text x="322.20" y="449.34">+</text>
<text x="461.69" y="164.05">.</text>
<text x="151.53" y="44.87">.</text>
<text x="217.67" y="48.21">.</text>
<text x="228.37" y="271.24">.</text>
<text x="240.46" y="302.00">.</text>
<text x="280.49" y="397.32">+</text>
<text x="258.39" y="407.40">.</text>
<text x="189.31" y="427.20">.</text>
<text x="451.53" y="46.24">*</text>
<text x="206.90" y="270.06">.</text>
<text x="102.69" y="439.52">+</text>
<text x="327.43" y="62.95">*</text>
<text x="279.72" y="452.88">+</text>
<text x="101.92" y="80.00">.</text>
<text x="283.90" y="205.86">*</text>
<text x="192.60" y="365.38">+</text>
<text x="499.97" y="76.58">+</text>
<text x="398.25" y="71.31">+</text>
<text x="143.18" y="408.65">*</text>
<text x="112.64" y="40.36">+</text>
<text x="325.70" y="17.18">*</text>
<text x="485.58" y="457.27">+</text>
<text x="344.80" y="190.83">.</text>
<text x="78.15" y="448.88">.</text>
<text x="168.88" y="30.53">*</text>
<text x="162.97" y="481.67">.</text>
<text x="40.61" y="200.79">+</text>
<text x="95.25" y="406.21">*</text>
<text x="307.33" y="237.42">.</text>
<text x="171.89" y="484.56">.</text>
<text x="133.41" y="223.67">.</text>
<text x="201.40" y="454.92">+</text>
<text x="259.28" y="282.38">+</text>
<text x="76.99" y="102.72">.</text>
<text x="409.55" y="136.68">+</text>
<text x="213.27" y="368.86">+</text>
<text x="440.82" y="381.52">.</text>
<text x="497.54" y="341.48">.</text>
<text x="89.52" y="18.45">.</text>
<text x="291.83" y="359.18">+</text>
<text x="288.32" y="263.28">.</text>
<text x="139.03" y="306.04">.</text>
<text x="245.95" y="176.49">.</text>
<text x="337.52" y="11.17">.</text>
<text x="331.75" y="193.29">.</text>
<text x="40.44" y="263.48">.</text>
<text x="299.80" y="355.57">*</text>
<text x="241.08" y="29.32">+</text>
<text x="273.87" y="285.54">+</text>
<text x="286.24" y="342.80">+</text>
<text x="64.19" y="439.37">.</text>
<text x="321.57" y="194.47">+</text>
<text x="386.24" y="119.20">+</text>
<text x="183.25" y="90.42">.</text>
<text x="260.44" y="208.83">+</text>
<text x="245.64" y="325.06">*</text>
<text x="479.27" y="173.60">.</text>
<text x="117.74" y="458.13">*</text>
<text x="346.35" y="289.81">+</text>
<text x="222.99" y="35.92">+</text>
<text x="402.16" y="189.00">+</text>
<text x="208.70" y="115.09">.</text>
<text x="69.02" y="485.48">.</text>
<text x="189.22" y="222.12">.</text>
<text x="322.72" y="421.52">+</text>
<text x="402.71" y="372.56">.</text>
<text x="324.35" y="268.48">+</text>
<text x="49.44" y="97.79">+</text>
<text x="42.29" y="128.64">+</text>
<text x="12.05" y="382.89">+</text>
<text x="395.61" y="350.79">.</text>
<text x="314.63" y="312.50">.</text>
<text x="230.15" y="161.71">*</text>
<text x="264.82" y="76.50">+</text>
<text x="493.53" y="377.28">.</text>
<text x="430.65" y="389.68">*</text>
<text x="133.50" y="322.28">.</text>
<text x="461.86" y="30.01">+</text>
<text x="400.90" y="94.86">+</text>
<text x="359.62" y="271.61">.</text>
<text x="474.62" y="496.89">+</text>
<text x="165.56" y="283.87">.</text>
<text x="125.05" y="213.68">.</text>
<text x="17.84" y="349.87">+</text>
<text x="52.77" y="245.72">.</text>
<text x="65.66" y="268.75">+</text>
<text x="368.88" y="427.57">*</text>
<text x="487.29" y="333.84">.</text>
<text x="79.41" y="488.70">+</text>
<text x="202.73" y="89.28">+</text>
<text x="170.34" y="167.20">+</text>
<text x="69.77" y="419.90">.</text>
<text x="368.61" y="7.82">+</text>
<text x="89.77" y="140.81">*</text>
<text x="418.18" y="329.43">.</text>
<text x="419.85" y="213.29">.</text>
<text x="327.56" y="187.25">+</text>
<text x="471.45" y="344.07">+</text>
<text x="39.08" y="459.24">*</text>
<text x="143.37" y="249.20">.</text>
<text x="464.61" y="105.84">.</text>
<text x="179.77" y="257.55">+</text>
<text x="124.18" y="148.52">+</text>
<text x="333.05" y="199.27">.</text>
<text x="478.89" y="226.51">*</text>
<text x="172.42" y="318.03">+</text>
<text x="291.53" y="431.40">+</text>
<text x="142.86" y="423.15">*</text>
<text x="133.65" y="233.82">*</text>
<text x="18.80" y="169.28">.</text>
<text x="167.28" y="238.10">*</text>
<text x="377.67" y="394.75">.</text>
<text x="127.85" y="358.59">+</text>
<text x="144.64" y="39.91">.</text>
<text x="39.46" y="16.72">+</text>
<text x="380.44" y="35.73">+</text>
<text x="23.48" y="182.03">+</text>
<text x="153.39" y="112.82">.</text>
<text x="68.82" y="324.77">.</text>
<text x="74.58" y="309.87">.</text>
<text x="85.41" y="292.99">.</text>
<text x="308.44" y="344.70">*</text>
<text x="248.17" y="7.20">*</text>
<text x="58.30" y="48.65">+</text>
<text x="247.68" y="196.81">+</text>
<text x="23.75" y="268.39">+</text>
<text x="114.41" y="4.05">+</text>
<text x="61.95" y="332.61">+</text>
<text x="87.08" y="11.26">.</text>
<text x="362.07" y="128.91">+</text>
<text x="492.80" y="26.05">.</text>
<text x="308.34" y="396.00">*</text>
<text x="21.80" y="392.40">*</text>
<text x="279.42" y="317.78">+</text>
<text x="331.14" y="46.53">*</text>
<text x="342.22" y="453.39">+</text>
<text x="186.12" y="112.50">*</text>
<text x="289.59" y="110.88">.</text>
<text x="71.84" y="62.92">+</text>
<text x="432.28" y="194.65">.</text>
<text x="274.27" y="268.96">+</text>
<text x="172.66" y="139.77">+</text>
<text x="295.21" y="473.82">*</text>
<text x="484.94" y="342.80">+</text>
<text x="129.72" y="369.21">+</text>
<text x="305.84" y="217.49">+</text>

</svg>