
<svg viewBox="0 0 500 500" xmlns="http://www.w.org/2000/svg" width="100%" height="100%" style="background-color: #0a0a14; font-family: 'Courier New', Courier, monospace;">
    <style>
        text { fill: #aaa; font-size: 10px; text-anchor: middle; dominant-baseline: middle; }
    </style>
    <text x="316.35" y="377.20">*</text>
<text x="81.57" y="228.86">.</text>
<text x="266.24" y="19.07">+</text>
<text x="430.04" y="183.37">.</text>
<text x="172.07" y="201.05">+</text>
<text x="52.70" y="247.92">*</text>
<text x="181.25" y="27.81">+</text>
<text x="119.55" y="379.77">+</text>
<text x="495.18" y="100.66">.</text>
<text x="205.79" y="340.75">.</text>
<text x="306.79" y="149.73">.</text>
<text x="239.19" y="451.04">.</text>
<text x="352.11" y="269.47">*</text>
<text x="446.22" y="418.59">+</text>
<text x="399.58" y="175.99">*</text>
<text x="57.33" y="242.57">*</text>
<text x="47.24" y="343.35">.</text>
<text x="394.13" y="376.38">*</text>
<text x="425.32" y="83.40">.</text>
<text x="132.67" y="407.38">.</text>
<text x="481.50" y="467.45">.</text>
<text x="329.06" y="398.58">.</text>
<text x="472.05" y="163.20">*</text>
<text x="93.78" y="302.44">+</text>
<text x="23.80" y="33.04">+</text>
<text x="455.37" y="208.45">+</text>
<text x="370.35" y="350.79">.</text>
<text x="153.77" y="301.21">.</text>
<text x="260.81" y="406.20">*</text>
<text x="426.92" y="118.67">.</text>
<text x="120.86" y="324.51">+</text>
<text x="470.89" y="44.27">+</text>
<text x="393.37" y="386.67">.</text>
<text x="315.95" y="170.71">.</text>
<text x="123.85" y="444.35">.</text>
<text x="417.23" y="279.78">+</text>
<text x="392.94" y="411.73">.</text>
<text x="476.63" y="355.15">.</text>
<text x="33.90" y="157.52">.</text>
<text x="5.62" y="8.33">.</text>
<text x="305.55" y="300.18">*</text>
<text x="210.13" y="212.75">+</text>
<text x="184.51" y="351.00">+</text>
<text x="13.78" y="237.64">.</text>
<text x="347.83" y="250.63">+</text>
<text x="491.44" y="252.35">.</text>
<text x="444.81" y="184.88">.</text>
<text x="443.22" y="165.21">+</text>
<text x="28.60" y="216.99">+</text>
<text x="424.45" y="410.06">*</text>
<text x="23.93" y="297.26">.</text>
<text x="456.19" y="281.05">+</text>
<text x="250.29" y="100.93">.</text>
<text x="431.27" y="38.35">+</text>
<text x="292.12" y="418.65">+</text>
<text x="185.88" y="354.07">*</text>
<text x="249.70" y="464.03">*</text>
<text x="36.64" y="268.21">.</text>
<text x="348.27" y="325.59">+</text>
<text x="364.95" y="171.58">+</text>
<text x="144.44" y="312.44">*</text>
<text x="207.75" y="309.14">.</text>
<text x="85.66" y="397.73">+</text>
<text x="330.57" y="323.94">+</text>
<text x="169.39" y="181.50">+</text>
<text x="341.69" y="295.85">.</text>
<text x="95.21" y="355.09">.</text>
<text x="40.68" y="125.70">+</text>
<text x="478.12" y="343.12">.</text>
<text x="257.26" y="438.54">.</text>
<text x="417.65" y="89.41">+</text>
<text x="321.98" y="407.22">.</text>
<text x="265.52" y="101.07">+</text>
<text x="205.44" y="451.67">.</text>
<text x="172.16" y="499.90">.</text>
<text x="321.82" y="440.65">+</text>
<text x="312.20" y="101.89">.</text>
<text x="25.38" y="111.62">+</text>
<text x="419.52" y="288.76">*</text>
<text x="303.15" y="223.77">+</text>
<text x="37.27" y="419.68">+</text>
<text x="441.56" y="469.68">.</text>
<text x="89.34" y="352.65">+</text>
<text x="118.93" y="422.65">+</text>
<text x="389.10" y="479.40">+</text>
<text x="423.00" y="327.96">+</text>
<text x="449.37" y="54.03">.</text>
<text x="164.29" y="349.69">.</text>
<text x="330.30" y="230.02">.</text>
<text x="267.35" y="161.97">*</text>
<text x="486.67" y="401.95">.</text>
<text x="74.11" y="349.91">.</text>
<text x="40.60" y="404.31">+</text>
<text x="101.71" y="453.24">.</text>
<text x="429.70" y="400.03">.</text>
<text x="405.61" y="317.36">*</text>
<text x="141.63" y="266.65">*</text>
<text x="395.58" y="57.40">+</text>
<text x="60.20" y="425.02">+</text>
<text x="460.14" y="195.79">+</text>
<text x="437.48" y="32.72">.</text>
<text x="64.29" y="443.16">.</text>
<text x="225.28" y="249.16">.</text>
<text x="63.30" y="237.25">+</text>
<text x="495.76" y="404.73">+</text>
<text x="491.58" y="470.77">.</text>
<text x="412.76" y="385.46">+</text>
<text x="94.46" y="489.79">.</text>
<text x="58.91" y="7.65">.</text>
<text x="481.92" y="24.35">*</text>
<text x="379.11" y="101.39">.</text>
<text x="305.53" y="363.90">+</text>
<text x="185.85" y="456.80">+</text>
<text x="279.19" y="465.28">+</text>
<text x="79.60" y="454.91">*</text>
<text x="322.51" y="185.88">.</text>
<text x="292.45" y="248.10">.</text>
<text x="56.51" y="429.55">+</text>
<text x="450.85" y="264.51">+</text>
<text x="380.30" y="237.51">+</text>
<text x="187.64" y="46.94">+</text>
<text x="204.90" y="410.68">*</text>
<text x="16.79" y="479.94">+</text>
<text x="494.79" y="198.71">.</text>
<text x="202.24" y="35.29">+</text>
<text x="245.98" y="32.32">.</text>
<text x="279.31" y="415.17">*</text>
<text x="311.69" y="96.14">+</text>
<text x="205.41" y="152.40">+</text>
<text x="139.14" y="139.01">*</text>
<text x="472.29" y="46.27">.</text>
<text x="23.06" y="221.28">.</text>
<text x="451.59" y="69.99">*</text>
<text x="172.75" y="154.91">+</text>
<text x="147.03" y="158.88">+</text>
<text x="382.76" y="47.10">.</text>
<text x="19.70" y="477.33">+</text>
<text x="197.80" y="426.49">+</text>
<text x="58.16" y="458.27">+</text>
<text x="52.67" y="219.93">*</text>
<text x="29.91" y="391.11">.</text>
<text x="393.76" y="146.14">+</text>
<text x="137.13" y="189.54">.</text>
<text x="417.34" y="21.23">*</text>
<text x="95.39" y="10.23">+</text>
<text x="213.93" y="26.47">+</text>
<text x="91.43" y="305.03">+</text>
<text x="13.47" y="444.78">.</text>
<text x="24.86" y="278.51">+</text>
<text x="287.63" y="321.89">.</text>
<text x="174.47" y="221.79">+</text>
<text x="317.50" y="452.05">*</text>
<text x="331.32" y="110.91">.</text>
<text x="488.72" y="215.95">*</text>
<text x="116.28" y="250.23">.</text>
<text x="64.78" y="51.24">.</text>
<text x="331.35" y="382.25">.</text>
<text x="148.99" y="403.37">+</text>
<text x="262.11" y="11.76">+</text>
<text x="269.47" y="312.89">*</text>
<text x="165.09" y="196.17">.</text>
<text x="69.74" y="0.01">*</text>
<text x="288.74" y="322.52">+</text>
<text x="173.40" y="191.44">.</text>
<text x="203.36" y="395.54">.</text>
<text x="242.14" y="34.10">+</text>
<text x="33.73" y="190.70">.</text>
<text x="437.21" y="271.76">+</text>
<text x="298.96" y="243.46">.</text>
<text x="354.00" y="255.61">.</text>
<text x="419.80" y="231.00">.</text>
<text x="354.58" y="478.47">+</text>
<text x="78.81" y="203.12">+</text>
<text x="257.07" y="324.99">*</text>
<text x="366.04" y="209.93">+</text>
<text x="195.28" y="205.97">.</text>
<text x="74.34" y="352.10">*</text>
<text x="496.30" y="110.85">.</text>
<text x="448.41" y="74.43">.</text>
<text x="363.67" y="55.10">*</text>
<text x="324.80" y="130.13">+</text>
<text x="224.27" y="493.91">+</text>
<text x="394.17" y="164.29">*</text>
<text x="83.65" y="303.58">.</text>
<text x="417.60" y="140.37">+</text>
<text x="151.02" y="432.01">.</text>
<text x="29.41" y="187.70">.</text>
<text x="251.72" y="55.62">+</text>
<text x="402.35" y="99.05">*</text>
<text x="283.34" y="379.45">+</text>
<text x="286.52" y="256.10">*</text>
<text x="193.34" y="267.57">.</text>
<text x="104.65" y="79.27">.</text>
<text x="70.21" y="266.89">+</text>
<text x="447.06" y="427.91">*</text>
<text x="1.35" y="139.61">+</text>
<text x="321.54" y="288.30">.</text>
<text x="280.84" y="378.88">.</text>
<text x="317.94" y="420.72">.</text>
<text x="354.11" y="480.07">+</text>
<text x="437.06" y="266.33">*</text>
<text x="392.81" y="119.61">.</text>
<text x="273.43" y="296.53">+</text>
<text x="323.58" y="259.99">+</text>
<text x="50.72" y="429.54">.</text>
<text x="355.65" y="346.27">.</text>
<text x="485.63" y="499.35">+</text>
<text x="38.35" y="464.42">+</text>
<text x="146.38" y="411.09">.</text>
<text x="30.62" y="484.10">.</text>
<text x="365.98" y="490.52">.</text>
<text x="238.23" y="221.14">.</text>
<text x="429.82" y="135.59">+</text>

</svg>