
<svg viewBox="0 0 500 500" xmlns="http://www.w.org/2000/svg" width="100%" height="100%" style="background-color: #0a0a14; font-family: 'Courier New', Courier, monospace;">
    <style>
        text { fill: #aaa; font-size: 10px; text-anchor: middle; dominant-baseline: middle; }
    </style>
    <text x="250.51" y="313.51">*</text>
<text x="460.37" y="24.66">+</text>
<text x="171.78" y="251.12">.</text>
<text x="205.13" y="77.09">*</text>
<text x="358.87" y="418.27">.</text>
<text x="136.32" y="154.20">.</text>
<text x="193.91" y="407.90">.</text>
<text x="165.39" y="421.45">.</text>
<text x="355.13" y="21.77">+</text>
<text x="476.43" y="235.97">+</text>
<text x="477.28" y="186.23">.</text>
<text x="142.10" y="368.56">+</text>
<text x="9.39" y="164.31">*</text>
<text x="3.97" y="335.43">+</text>
<text x="488.60" y="142.12">+</text>
<text x="182.43" y="172.78">.</text>
<text x="434.29" y="334.21">.</text>
<text x="288.94" y="369.96">*</text>
<text x="456.29" y="446.70">+</text>
<text x="374.96" y="34.06">.</text>
<text x="333.25" y="182.61">.</text>
<text x="41.79" y="349.09">.</text>
<text x="401.94" y="357.78">*</text>
<text x="404.20" y="125.55">.</text>
<text x="445.00" y="311.64">.</text>
<text x="499.81" y="478.20">*</text>
<text x="462.64" y="450.62">+</text>
<text x="125.86" y="301.50">.</text>
<text x="391.15" y="113.79">.</text>
<text x="406.61" y="164.58">+</text>
<text x="100.70" y="259.67">+</text>
<text x="53.96" y="346.96">.</text>
<text x="330.43" y="220.19">.</text>
<text x="427.48" y="496.83">+</text>
<text x="80.71" y="201.70">+</text>
<text x="121.43" y="386.27">+</text>
<text x="435.71" y="94.15">.</text>
<text x="228.48" y="231.53">.</text>
<text x="156.69" y="289.57">*</text>
<text x="40.48" y="33.63">.</text>
<text x="377.05" y="260.80">.</text>
<text x="309.39" y="388.23">.</text>
<text x="202.80" y="122.62">+</text>
<text x="75.89" y="232.61">+</text>
<text x="338.47" y="379.11">+</text>
<text x="305.55" y="377.86">+</text>
<text x="247.40" y="375.57">+</text>
<text x="282.46" y="10.45">.</text>
<text x="476.85" y="424.01">+</text>
<text x="352.02" y="36.68">*</text>
<text x="243.65" y="172.37">+</text>
<text x="138.12" y="347.60">.</text>
<text x="484.00" y="12.80">+</text>
<text x="499.23" y="269.16">+</text>
<text x="102.21" y="414.68">+</text>
<text x="285.94" y="185.54">*</text>
<text x="426.82" y="75.16">.</text>
<text x="164.14" y="77.56">+</text>
<text x="182.42" y="285.50">+</text>
<text x="421.53" y="469.20">*</text>
<text x="56.42" y="236.62">+</text>
<text x="442.51" y="8.62">.</text>
<text x="37.07" y="78.16">+</text>
<text x="467.88" y="425.92">+</text>
<text x="486.34" y="275.18">.</text>
<text x="291.57" y="401.75">+</text>
<text x="144.37" y="374.07">*</text>
<text x="294.56" y="239.16">+</text>
<text x="73.69" y="322.34">+</text>
<text x="418.39" y="11.38">*</text>
<text x="207.12" y="473.88">*</text>
<text x="264.21" y="420.56">+</text>
<text x="351.53" y="497.72">.</text>
<text x="111.55" y="390.56">.</text>
<text x="353.32" y="38.13">+</text>
<text x="15.32" y="211.77">+</text>
<text x="246.88" y="335.56">.</text>
<text x="431.00" y="433.08">.</text>
<text x="226.66" y="66.67">.</text>
<text x="436.05" y="56.75">.</text>
<text x="486.93" y="328.56">.</text>
<text x="240.45" y="331.13">.</text>
<text x="98.26" y="212.61">+</text>
<text x="363.65" y="109.42">.</text>
<text x="277.32" y="258.53">+</text>
<text x="190.29" y="333.35">+</text>
<text x="24.59" y="190.14">+</text>
<text x="380.40" y="183.97">+</text>
<text x="315.94" y="205.47">+</text>
<text x="245.46" y="227.77">*</text>
<text x="225.28" y="34.74">+</text>
<text x="185.44" y="398.02">+</text>
<text x="16.53" y="60.66">+</text>
<text x="249.44" y="409.81">*</text>
<text x="3.59" y="141.63">+</text>
<text x="261.80" y="33.60">.</text>
<text x="462.73" y="55.42">.</text>
<text x="430.34" y="51.32">.</text>
<text x="55.10" y="178.95">.</text>
<text x="118.60" y="493.89">*</text>
<text x="13.71" y="476.76">+</text>
<text x="326.20" y="496.65">+</text>
<text x="282.05" y="265.82">+</text>
<text x="365.71" y="113.61">+</text>
<text x="327.36" y="25.77">.</text>
<text x="26.12" y="499.24">.</text>
<text x="246.12" y="491.71">.</text>
<text x="433.21" y="3.87">.</text>
<text x="47.20" y="296.11">.</text>
<text x="172.09" y="446.40">+</text>
<text x="423.24" y="7.98">+</text>
<text x="240.88" y="343.58">.</text>
<text x="292.83" y="302.50">+</text>
<text x="450.47" y="0.78">.</text>
<text x="498.42" y="181.83">*</text>
<text x="161.31" y="64.68">.</text>
<text x="73.09" y="337.63">.</text>
<text x="80.58" y="446.78">*</text>
<text x="63.66" y="389.80">.</text>
<text x="12.79" y="129.94">+</text>
<text x="412.55" y="47.89">.</text>
<text x="106.05" y="227.86">+</text>
<text x="0.43" y="364.84">.</text>
<text x="368.78" y="128.16">+</text>
<text x="229.25" y="323.82">.</text>
<text x="395.72" y="256.70">.</text>
<text x="39.90" y="13.03">+</text>
<text x="9.82" y="408.46">+</text>
<text x="76.13" y="488.01">.</text>
<text x="73.99" y="105.14">.</text>
<text x="136.52" y="269.06">.</text>
<text x="107.26" y="286.26">.</text>
<text x="132.06" y="446.64">.</text>
<text x="424.79" y="53.72">*</text>
<text x="6.47" y="40.71">.</text>
<text x="259.03" y="291.61">+</text>
<text x="318.56" y="403.76">.</text>
<text x="287.90" y="314.87">+</text>
<text x="460.27" y="343.81">.</text>
<text x="36.91" y="209.31">+</text>
<text x="15.58" y="310.62">*</text>
<text x="341.37" y="57.29">+</text>
<text x="440.19" y="186.56">*</text>
<text x="272.91" y="34.39">.</text>
<text x="260.95" y="207.30">+</text>
<text x="70.00" y="370.53">+</text>
<text x="480.77" y="130.09">.</text>
<text x="172.09" y="96.14">.</text>
<text x="163.43" y="245.54">.</text>
<text x="311.36" y="341.57">+</text>
<text x="259.02" y="95.75">.</text>
<text x="472.81" y="363.10">.</text>
<text x="60.57" y="201.64">.</text>
<text x="252.20" y="355.53">.</text>
<text x="361.43" y="355.31">.</text>
<text x="377.66" y="343.19">+</text>
<text x="378.02" y="154.74">+</text>
<text x="379.37" y="454.95">.</text>
<text x="261.90" y="340.66">.</text>
<text x="224.25" y="405.22">.</text>
<text x="470.91" y="262.57">+</text>
<text x="326.72" y="461.53">.</text>
<text x="218.02" y="118.94">+</text>
<text x="372.99" y="373.40">.</text>
<text x="190.28" y="297.10">.</text>
<text x="13.65" y="347.24">+</text>
<text x="447.50" y="480.70">+</text>
<text x="137.70" y="169.75">.</text>
<text x="108.40" y="148.82">*</text>
<text x="16.16" y="356.40">.</text>
<text x="184.43" y="198.65">*</text>
<text x="355.70" y="131.44">.</text>
<text x="25.97" y="103.44">.</text>
<text x="136.05" y="223.26">+</text>
<text x="293.14" y="439.09">.</text>
<text x="89.74" y="5.91">+</text>
<text x="323.62" y="111.45">+</text>
<text x="79.30" y="338.41">.</text>
<text x="102.84" y="464.28">.</text>
<text x="494.07" y="497.76">.</text>
<text x="23.07" y="82.24">+</text>
<text x="53.63" y="91.68">+</text>
<text x="360.78" y="335.44">+</text>
<text x="253.89" y="259.27">+</text>
<text x="431.88" y="54.35">.</text>
<text x="189.89" y="350.73">*</text>
<text x="103.49" y="495.05">*</text>
<text x="226.50" y="278.64">*</text>
<text x="235.94" y="486.59">.</text>
<text x="117.60" y="346.28">.</text>
<text x="338.25" y="201.13">+</text>
<text x="124.92" y="61.02">*</text>
<text x="353.63" y="403.39">.</text>
<text x="481.78" y="233.68">.</text>
<text x="288.37" y="186.91">.</text>
<text x="483.83" y="172.84">+</text>
<text x="403.51" y="101.53">+</text>
<text x="260.00" y="59.72">+</text>
<text x="143.47" y="368.94">+</text>
<text x="427.89" y="94.48">.</text>
<text x="211.27" y="139.53">+</text>
<text x="39.68" y="299.42">.</text>
<text x="105.62" y="480.60">.</text>
<text x="385.19" y="497.45">+</text>
<text x="424.22" y="168.02">+</text>
<text x="329.90" y="302.89">.</text>
<text x="399.32" y="479.19">.</text>
<text x="313.86" y="290.34">*</text>
<text x="124.85" y="378.08">*</text>
<text x="82.18" y="415.38">+</text>
<text x="27.24" y="163.77">.</text>
<text x="9.44" y="464.65">.</text>
<text x="56.31" y="126.32">.</text>
<text x="16.44" y="300.40">*</text>
<text x="66.57" y="268.18">.</text>
<text x="465.89" y="423.78">+</text>
<text x="107.11" y="449.39">+</text>
<text x="102.11" y="293.32">+</text>

</svg>