
<svg viewBox="0 0 500 500" xmlns="http://www.w.org/2000/svg" width="100%" height="100%" style="background-color: #0a0a14; font-family: 'Courier New', Courier, monospace;">
    <style>
        text { fill: #aaa; font-size: 10px; text-anchor: middle; dominant-baseline: middle; }
    </style>
    <text x="181.66" y="16.82">.</text>
<text x="440.44" y="109.07">.</text>
<text x="495.06" y="212.64">+</text>
<text x="215.14" y="30.74">+</text>
<text x="159.21" y="18.88">+</text>
<text x="388.23" y="455.50">.</text>
<text x="128.18" y="497.91">*</text>
<text x="447.71" y="274.25">+</text>
<text x="129.16" y="289.36">+</text>
<text x="416.59" y="88.17">.</text>
<text x="496.66" y="329.37">+</text>
<text x="446.37" y="115.30">.</text>
<text x="117.68" y="106.02">.</text>
<text x="3.06" y="385.94">.</text>
<text x="36.69" y="406.88">.</text>
<text x="337.50" y="103.34">+</text>
<text x="79.76" y="158.91">+</text>
<text x="456.99" y="146.00">*</text>
<text x="9.75" y="59.80">*</text>
<text x="26.39" y="419.26">*</text>
<text x="418.62" y="422.88">.</text>
<text x="404.91" y="192.15">+</text>
<text x="63.69" y="251.36">+</text>
<text x="50.81" y="366.92">+</text>
<text x="215.46" y="54.04">+</text>
<text x="182.04" y="463.68">.</text>
<text x="155.05" y="322.04">.</text>
<text x="438.79" y="108.83">.</text>
<text x="262.96" y="234.73">+</text>
<text x="33.46" y="398.19">+</text>
<text x="104.31" y="354.65">+</text>
<text x="369.36" y="497.63">.</text>
<text x="152.07" y="390.06">+</text>
<text x="381.25" y="410.19">+</text>
<text x="117.21" y="157.21">.</text>
<text x="36.07" y="497.07">+</text>
<text x="490.31" y="427.49">.</text>
<text x="495.58" y="479.99">.</text>
<text x="250.16" y="59.03">+</text>
<text x="201.31" y="160.98">*</text>
<text x="263.87" y="15.31">+</text>
<text x="434.55" y="266.88">.</text>
<text x="196.28" y="487.88">.</text>
<text x="1.70" y="403.67">+</text>
<text x="372.23" y="102.52">.</text>
<text x="164.98" y="249.76">.</text>
<text x="459.32" y="71.65">.</text>
<text x="270.31" y="389.47">.</text>
<text x="264.41" y="406.86">+</text>
<text x="146.67" y="182.17">.</text>
<text x="408.18" y="95.30">.</text>
<text x="339.71" y="345.25">+</text>
<text x="171.22" y="48.58">.</text>
<text x="371.53" y="163.25">*</text>
<text x="242.63" y="119.50">.</text>
<text x="228.99" y="387.90">*</text>
<text x="191.56" y="23.62">*</text>
<text x="40.42" y="435.30">*</text>
<text x="223.01" y="318.96">.</text>
<text x="30.58" y="188.56">.</text>
<text x="65.41" y="168.47">.</text>
<text x="335.15" y="137.32">*</text>
<text x="417.83" y="198.80">.</text>
<text x="123.44" y="189.73">+</text>
<text x="148.92" y="255.44">+</text>
<text x="85.18" y="137.31">+</text>
<text x="399.41" y="312.17">+</text>
<text x="142.03" y="355.12">+</text>
<text x="199.84" y="173.08">.</text>
<text x="79.71" y="171.77">.</text>
<text x="468.88" y="251.16">.</text>
<text x="338.49" y="268.27">*</text>
<text x="309.46" y="351.38">*</text>
<text x="240.93" y="227.04">+</text>
<text x="446.28" y="446.80">.</text>
<text x="452.69" y="10.62">.</text>
<text x="247.45" y="408.07">+</text>
<text x="12.85" y="46.82">.</text>
<text x="307.21" y="455.64">.</text>
<text x="267.39" y="273.44">+</text>
<text x="423.05" y="403.21">.</text>
<text x="59.09" y="173.14">*</text>
<text x="318.73" y="80.20">*</text>
<text x="163.35" y="0.77">.</text>
<text x="413.24" y="351.06">.</text>
<text x="479.38" y="291.00">.</text>
<text x="230.45" y="439.75">+</text>
<text x="288.83" y="395.77">+</text>
<text x="171.86" y="236.27">.</text>
<text x="231.25" y="245.12">+</text>
<text x="179.39" y="26.32">.</text>
<text x="240.20" y="413.24">+</text>
<text x="34.85" y="496.86">+</text>
<text x="100.11" y="43.55">+</text>
<text x="408.68" y="120.22">+</text>
<text x="447.61" y="133.14">+</text>
<text x="332.00" y="338.78">+</text>
<text x="394.69" y="376.16">*</text>
<text x="12.98" y="436.53">+</text>
<text x="449.08" y="186.85">.</text>
<text x="258.47" y="325.49">+</text>
<text x="51.48" y="150.26">*</text>
<text x="401.36" y="216.11">.</text>
<text x="489.17" y="310.12">+</text>
<text x="12.73" y="358.88">.</text>
<text x="291.44" y="32.38">+</text>
<text x="235.90" y="445.58">+</text>
<text x="80.16" y="262.94">.</text>
<text x="310.68" y="394.03">+</text>
<text x="121.73" y="319.33">.</text>
<text x="133.76" y="73.61">+</text>
<text x="335.13" y="277.97">+</text>
<text x="240.73" y="67.50">+</text>
<text x="335.05" y="351.29">*</text>
<text x="314.04" y="396.05">+</text>
<text x="361.13" y="233.11">+</text>
<text x="341.62" y="10.91">+</text>
<text x="446.05" y="213.23">*</text>
<text x="224.31" y="459.15">.</text>
<text x="201.86" y="209.16">.</text>
<text x="240.64" y="109.70">+</text>
<text x="232.23" y="487.33">.</text>
<text x="202.71" y="468.15">.</text>
<text x="480.39" y="178.33">+</text>
<text x="171.63" y="270.93">+</text>
<text x="38.05" y="235.43">+</text>
<text x="447.97" y="486.31">.</text>
<text x="87.48" y="380.34">*</text>
<text x="244.83" y="176.48">.</text>
<text x="277.87" y="334.22">.</text>
<text x="200.66" y="82.51">+</text>
<text x="308.64" y="443.24">*</text>
<text x="316.72" y="139.01">+</text>
<text x="87.42" y="462.72">+</text>
<text x="102.06" y="188.67">+</text>
<text x="241.81" y="278.94">.</text>
<text x="366.44" y="470.95">.</text>
<text x="283.99" y="136.06">+</text>
<text x="251.55" y="318.17">+</text>
<text x="492.30" y="392.24">.</text>
<text x="56.95" y="88.06">+</text>
<text x="206.09" y="123.21">*</text>
<text x="95.98" y="5.17">+</text>
<text x="304.34" y="335.42">+</text>
<text x="313.08" y="306.15">.</text>
<text x="308.22" y="223.13">+</text>
<text x="498.40" y="110.79">+</text>
<text x="360.18" y="81.19">.</text>
<text x="492.53" y="361.42">.</text>
<text x="435.82" y="263.93">.</text>
<text x="367.24" y="203.54">.</text>
<text x="108.86" y="158.97">+</text>
<text x="285.67" y="427.10">.</text>
<text x="318.34" y="493.99">+</text>
<text x="488.64" y="408.99">.</text>
<text x="333.06" y="250.68">.</text>
<text x="466.78" y="488.13">.</text>
<text x="193.45" y="253.21">.</text>
<text x="484.60" y="101.51">+</text>
<text x="138.75" y="283.11">*</text>
<text x="448.51" y="295.85">.</text>
<text x="433.95" y="11.76">+</text>
<text x="485.25" y="254.13">+</text>
<text x="302.81" y="307.38">.</text>
<text x="398.41" y="371.03">.</text>
<text x="473.65" y="35.50">.</text>
<text x="16.12" y="59.58">.</text>
<text x="285.29" y="447.18">+</text>
<text x="0.73" y="61.87">+</text>
<text x="356.11" y="86.59">.</text>
<text x="54.20" y="18.78">+</text>
<text x="132.19" y="418.79">*</text>
<text x="246.49" y="498.05">+</text>
<text x="49.54" y="414.63">.</text>
<text x="281.97" y="141.72">*</text>
<text x="36.56" y="304.13">.</text>
<text x="200.80" y="73.35">.</text>
<text x="88.88" y="478.37">*</text>
<text x="287.03" y="455.00">.</text>
<text x="491.49" y="150.37">+</text>
<text x="329.40" y="405.17">*</text>
<text x="8.35" y="111.93">.</text>
<text x="114.71" y="228.36">+</text>
<text x="494.07" y="365.94">.</text>
<text x="1.99" y="54.63">.</text>
<text x="358.04" y="156.41">.</text>
<text x="269.69" y="471.23">+</text>
<text x="244.95" y="86.61">+</text>
<text x="292.61" y="326.42">+</text>
<text x="140.97" y="107.41">*</text>
<text x="126.54" y="253.25">.</text>
<text x="207.58" y="290.98">+</text>
<text x="5.62" y="9.73">+</text>
<text x="455.58" y="51.59">+</text>
<text x="82.51" y="268.65">+</text>
<text x="319.03" y="89.16">.</text>
<text x="55.44" y="340.19">+</text>
<text x="209.55" y="345.51">+</text>
<text x="195.59" y="432.76">*</text>
<text x="375.30" y="160.81">.</text>
<text x="363.04" y="49.84">+</text>
<text x="121.89" y="106.71">*</text>
<text x="226.25" y="108.31">.</text>
<text x="272.10" y="271.43">+</text>
<text x="396.40" y="170.93">+</text>
<text x="308.45" y="404.45">.</text>

</svg>