
<svg viewBox="0 0 500 500" xmlns="http://www.w.org/2000/svg" width="100%" height="100%" style="background-color: #0a0a14; font-family: 'Courier New', Courier, monospace;">
    <style>
        text { fill: #aaa; font-size: 10px; text-anchor: middle; dominant-baseline: middle; }
    </style>
    <text x="470.13" y="191.96">.</text>
<text x="21.69" y="411.13">+</text>
<text x="484.41" y="241.53">.</text>
<text x="319.62" y="105.79">.</text>
<text x="388.92" y="171.90">.</text>
<text x="473.52" y="226.23">+</text>
<text x="346.51" y="80.53">.</text>
<text x="17.83" y="232.47">.</text>
<text x="239.01" y="18.19">.</text>
<text x="286.88" y="456.85">*</text>
<text x="220.46" y="203.85">+</text>
<text x="286.96" y="268.02">+</text>
<text x="82.30" y="113.40">+</text>
<text x="222.50" y="331.03">+</text>
<text x="443.15" y="424.46">.</text>
<text x="116.14" y="386.90">+</text>
<text x="101.99" y="328.89">.</text>
<text x="270.87" y="190.32">.</text>
<text x="258.69" y="113.83">+</text>
<text x="477.85" y="134.69">.</text>
<text x="173.41" y="440.24">*</text>
<text x="358.61" y="132.49">.</text>
<text x="104.46" y="351.81">.</text>
<text x="151.45" y="343.34">.</text>
<text x="272.42" y="184.15">.</text>
<text x="263.36" y="129.28">+</text>
<text x="215.04" y="187.71">+</text>
<text x="73.74" y="134.60">+</text>
<text x="144.96" y="493.20">.</text>
<text x="92.42" y="424.54">+</text>
<text x="179.51" y="19.26">*</text>
<text x="298.68" y="367.41">+</text>
<text x="370.74" y="89.41">+</text>
<text x="256.75" y="457.27">+</text>
<text x="50.96" y="5.47">.</text>
<text x="327.70" y="465.75">.</text>
<text x="52.31" y="244.73">.</text>
<text x="236.77" y="328.89">+</text>
<text x="162.46" y="258.33">+</text>
<text x="325.95" y="80.18">+</text>
<text x="216.05" y="97.54">+</text>
<text x="175.57" y="236.87">+</text>
<text x="267.45" y="125.61">.</text>
<text x="227.44" y="17.55">.</text>
<text x="144.20" y="352.29">.</text>
<text x="270.02" y="246.33">+</text>
<text x="230.19" y="456.13">.</text>
<text x="129.51" y="429.06">+</text>
<text x="418.94" y="378.52">.</text>
<text x="294.30" y="329.38">.</text>
<text x="195.90" y="233.63">.</text>
<text x="92.19" y="42.12">.</text>
<text x="166.47" y="422.07">*</text>
<text x="192.65" y="187.17">.</text>
<text x="489.37" y="199.82">+</text>
<text x="77.73" y="176.52">*</text>
<text x="269.38" y="179.49">.</text>
<text x="436.97" y="158.10">+</text>
<text x="117.07" y="260.27">.</text>
<text x="274.74" y="85.65">+</text>
<text x="300.70" y="361.46">+</text>
<text x="185.25" y="221.75">.</text>
<text x="382.56" y="104.04">*</text>
<text x="211.45" y="47.87">+</text>
<text x="362.99" y="339.09">.</text>
<text x="97.74" y="5.75">*</text>
<text x="69.34" y="245.70">+</text>
<text x="70.13" y="8.39">+</text>
<text x="407.46" y="435.50">+</text>
<text x="155.60" y="272.39">+</text>
<text x="432.76" y="485.94">+</text>
<text x="303.27" y="431.57">*</text>
<text x="164.93" y="161.56">*</text>
<text x="447.53" y="456.17">*</text>
<text x="71.82" y="18.01">+</text>
<text x="340.46" y="421.77">+</text>
<text x="395.55" y="254.22">.</text>
<text x="84.69" y="45.39">+</text>
<text x="237.61" y="32.72">.</text>
<text x="447.37" y="282.62">+</text>
<text x="279.46" y="61.92">+</text>
<text x="175.42" y="191.75">+</text>
<text x="208.73" y="302.05">+</text>
<text x="256.22" y="6.88">.</text>
<text x="108.56" y="431.38">.</text>
<text x="471.64" y="325.89">.</text>
<text x="249.58" y="261.94">.</text>
<text x="358.52" y="132.71">*</text>
<text x="217.46" y="489.30">.</text>
<text x="363.81" y="176.97">.</text>
<text x="476.44" y="470.65">+</text>
<text x="255.26" y="453.10">.</text>
<text x="85.49" y="379.60">.</text>
<text x="277.14" y="404.59">*</text>
<text x="110.82" y="337.96">+</text>
<text x="220.29" y="73.66">+</text>
<text x="485.77" y="282.59">.</text>
<text x="130.99" y="476.49">+</text>
<text x="215.20" y="327.36">*</text>
<text x="1.45" y="358.21">*</text>
<text x="161.42" y="61.70">*</text>
<text x="410.97" y="307.62">.</text>
<text x="439.77" y="313.80">+</text>
<text x="180.28" y="106.95">+</text>
<text x="115.55" y="324.04">*</text>
<text x="16.23" y="49.67">+</text>
<text x="146.45" y="480.84">+</text>
<text x="145.01" y="70.24">+</text>
<text x="221.91" y="19.14">*</text>
<text x="283.98" y="329.17">+</text>
<text x="68.08" y="41.82">.</text>
<text x="384.24" y="223.26">+</text>
<text x="292.24" y="480.99">*</text>
<text x="95.52" y="447.86">.</text>
<text x="200.96" y="216.24">*</text>
<text x="168.86" y="296.55">+</text>
<text x="305.10" y="227.28">.</text>
<text x="218.71" y="179.00">.</text>
<text x="66.75" y="331.43">.</text>
<text x="497.29" y="28.05">.</text>
<text x="444.65" y="497.47">*</text>
<text x="186.12" y="266.15">+</text>
<text x="186.44" y="499.18">+</text>
<text x="386.73" y="283.59">+</text>
<text x="219.02" y="442.82">+</text>
<text x="466.16" y="138.33">.</text>
<text x="264.31" y="196.53">.</text>
<text x="273.75" y="141.09">.</text>
<text x="405.20" y="100.14">.</text>
<text x="24.45" y="474.32">+</text>
<text x="164.97" y="410.12">.</text>
<text x="419.11" y="75.06">+</text>
<text x="272.76" y="95.98">*</text>
<text x="413.40" y="190.74">*</text>
<text x="202.01" y="40.92">+</text>
<text x="457.62" y="411.24">*</text>
<text x="72.01" y="360.55">.</text>
<text x="279.01" y="447.01">+</text>
<text x="489.38" y="21.45">+</text>
<text x="116.62" y="485.03">+</text>
<text x="109.85" y="134.46">*</text>
<text x="399.26" y="9.05">*</text>
<text x="207.88" y="241.67">+</text>
<text x="298.71" y="205.66">.</text>
<text x="62.98" y="393.96">+</text>
<text x="112.75" y="272.10">+</text>
<text x="348.13" y="222.40">*</text>
<text x="53.51" y="265.31">.</text>
<text x="448.52" y="202.10">+</text>
<text x="222.85" y="309.38">+</text>
<text x="224.23" y="102.27">+</text>
<text x="32.91" y="439.38">.</text>
<text x="409.20" y="71.28">+</text>
<text x="286.18" y="104.21">+</text>
<text x="103.67" y="178.12">.</text>
<text x="135.59" y="78.13">+</text>
<text x="75.97" y="87.97">+</text>
<text x="299.35" y="329.23">*</text>
<text x="352.47" y="257.66">.</text>
<text x="373.07" y="22.97">+</text>
<text x="396.24" y="225.27">.</text>
<text x="326.14" y="413.24">.</text>
<text x="224.97" y="98.70">+</text>
<text x="38.94" y="489.38">.</text>
<text x="210.54" y="196.31">+</text>
<text x="31.00" y="321.28">.</text>
<text x="98.37" y="3.01">+</text>
<text x="356.14" y="456.71">.</text>
<text x="289.36" y="315.90">.</text>
<text x="27.47" y="387.90">.</text>
<text x="17.94" y="149.11">+</text>
<text x="237.38" y="141.88">.</text>
<text x="423.61" y="481.66">*</text>
<text x="445.27" y="435.89">*</text>
<text x="8.03" y="351.29">+</text>
<text x="172.42" y="451.97">+</text>
<text x="197.72" y="193.82">.</text>
<text x="26.80" y="196.53">.</text>
<text x="388.18" y="317.47">+</text>
<text x="162.59" y="357.27">.</text>
<text x="421.36" y="7.34">+</text>
<text x="141.66" y="266.17">+</text>
<text x="188.86" y="473.73">+</text>
<text x="76.81" y="368.17">+</text>
<text x="91.47" y="481.46">*</text>
<text x="240.16" y="420.56">.</text>
<text x="138.76" y="55.84">+</text>
<text x="235.58" y="153.32">+</text>
<text x="27.50" y="479.55">.</text>
<text x="117.12" y="154.14">+</text>
<text x="60.79" y="369.39">+</text>
<text x="476.82" y="303.81">+</text>
<text x="352.42" y="218.78">+</text>
<text x="366.41" y="125.92">.</text>
<text x="330.91" y="324.72">.</text>
<text x="182.20" y="240.41">*</text>
<text x="308.59" y="279.23">.</text>
<text x="0.92" y="450.57">.</text>
<text x="316.52" y="475.05">.</text>
<text x="201.75" y="66.97">+</text>
<text x="351.77" y="20.86">+</text>
<text x="123.06" y="446.05">.</text>
<text x="163.68" y="308.76">.</text>
<text x="332.52" y="394.52">*</text>
<text x="319.20" y="377.13">+</text>
<text x="184.84" y="119.13">.</text>
<text x="489.23" y="477.78">.</text>
<text x="350.61" y="278.43">+</text>
<text x="93.15" y="182.01">+</text>
<text x="464.85" y="132.76">+</text>
<text x="337.83" y="156.61">.</text>
<text x="448.71" y="71.40">+</text>
<text x="111.98" y="50.84">*</text>

</svg>