
<svg viewBox="0 0 500 500" xmlns="http://www.w.org/2000/svg" width="100%" height="100%" style="background-color: #0a0a14; font-family: 'Courier New', Courier, monospace;">
    <style>
        text { fill: #aaa; font-size: 10px; text-anchor: middle; dominant-baseline: middle; }
    </style>
    <text x="437.92" y="282.06">+</text>
<text x="477.24" y="14.80">.</text>
<text x="138.37" y="199.35">+</text>
<text x="434.28" y="45.01">+</text>
<text x="477.52" y="357.22">.</text>
<text x="174.85" y="418.36">+</text>
<text x="238.08" y="194.01">.</text>
<text x="498.94" y="26.16">+</text>
<text x="156.64" y="428.90">.</text>
<text x="383.72" y="251.47">*</text>
<text x="436.31" y="288.38">+</text>
<text x="243.45" y="285.89">+</text>
<text x="203.99" y="253.60">+</text>
<text x="248.09" y="161.32">+</text>
<text x="21.50" y="38.32">.</text>
<text x="312.78" y="238.37">+</text>
<text x="477.38" y="242.74">+</text>
<text x="55.01" y="34.63">.</text>
<text x="137.87" y="447.89">.</text>
<text x="201.64" y="338.40">*</text>
<text x="239.96" y="117.88">.</text>
<text x="439.40" y="366.57">.</text>
<text x="148.72" y="453.29">.</text>
<text x="439.60" y="309.09">+</text>
<text x="216.80" y="340.88">*</text>
<text x="275.21" y="20.31">+</text>
<text x="24.54" y="155.36">.</text>
<text x="437.62" y="93.81">+</text>
<text x="309.64" y="197.93">.</text>
<text x="394.87" y="401.60">.</text>
<text x="350.84" y="87.68">.</text>
<text x="182.41" y="33.67">.</text>
<text x="320.43" y="48.86">+</text>
<text x="418.59" y="275.52">.</text>
<text x="120.06" y="210.90">+</text>
<text x="291.63" y="320.86">*</text>
<text x="224.83" y="256.39">+</text>
<text x="200.15" y="459.61">*</text>
<text x="395.78" y="124.66">.</text>
<text x="82.02" y="333.24">+</text>
<text x="69.90" y="99.24">.</text>
<text x="176.18" y="291.13">+</text>
<text x="139.24" y="289.51">+</text>
<text x="494.10" y="213.02">*</text>
<text x="378.38" y="83.77">+</text>
<text x="453.06" y="221.76">.</text>
<text x="148.01" y="20.37">.</text>
<text x="203.11" y="70.34">+</text>
<text x="87.70" y="5.63">+</text>
<text x="222.44" y="73.12">+</text>
<text x="398.60" y="479.25">+</text>
<text x="484.53" y="102.88">+</text>
<text x="32.35" y="45.80">+</text>
<text x="401.14" y="360.03">.</text>
<text x="493.85" y="374.78">+</text>
<text x="313.44" y="367.88">*</text>
<text x="295.68" y="208.31">.</text>
<text x="111.68" y="416.07">.</text>
<text x="196.50" y="185.28">*</text>
<text x="421.81" y="429.90">+</text>
<text x="61.15" y="217.62">+</text>
<text x="203.23" y="486.12">+</text>
<text x="9.28" y="421.66">.</text>
<text x="3.82" y="326.28">+</text>
<text x="419.93" y="265.61">+</text>
<text x="307.01" y="499.01">+</text>
<text x="185.88" y="142.72">*</text>
<text x="268.50" y="463.50">+</text>
<text x="128.27" y="79.23">.</text>
<text x="416.56" y="148.97">*</text>
<text x="286.87" y="226.59">+</text>
<text x="110.75" y="172.84">*</text>
<text x="230.33" y="440.52">+</text>
<text x="181.81" y="26.62">.</text>
<text x="79.68" y="69.40">.</text>
<text x="435.51" y="401.14">*</text>
<text x="428.68" y="424.63">.</text>
<text x="279.54" y="342.15">.</text>
<text x="257.01" y="215.29">+</text>
<text x="196.78" y="245.54">.</text>
<text x="122.90" y="319.53">.</text>
<text x="295.74" y="190.58">.</text>
<text x="450.48" y="53.28">+</text>
<text x="276.31" y="363.02">.</text>
<text x="31.69" y="202.63">.</text>
<text x="330.09" y="283.72">+</text>
<text x="114.26" y="206.76">.</text>
<text x="92.45" y="254.08">.</text>
<text x="149.20" y="455.85">.</text>
<text x="432.53" y="180.72">*</text>
<text x="320.94" y="419.05">.</text>
<text x="203.18" y="381.51">+</text>
<text x="225.30" y="325.84">*</text>
<text x="426.77" y="320.53">+</text>
<text x="180.31" y="418.55">+</text>
<text x="447.67" y="169.32">+</text>
<text x="153.91" y="432.40">+</text>
<text x="454.61" y="243.62">+</text>
<text x="225.49" y="281.49">+</text>
<text x="110.91" y="227.38">+</text>
<text x="28.26" y="45.51">.</text>
<text x="81.07" y="407.22">.</text>
<text x="65.08" y="179.79">+</text>
<text x="382.11" y="21.33">+</text>
<text x="85.32" y="90.16">+</text>
<text x="469.09" y="251.25">.</text>
<text x="486.56" y="243.27">+</text>
<text x="70.64" y="29.68">+</text>
<text x="191.22" y="325.29">+</text>
<text x="67.65" y="268.79">+</text>
<text x="291.76" y="381.05">+</text>
<text x="240.81" y="262.86">.</text>
<text x="446.00" y="209.07">.</text>
<text x="187.99" y="392.08">+</text>
<text x="394.53" y="144.90">+</text>
<text x="246.64" y="32.17">.</text>
<text x="498.88" y="145.70">.</text>
<text x="74.34" y="38.35">+</text>
<text x="280.54" y="233.45">.</text>
<text x="27.88" y="103.84">+</text>
<text x="309.62" y="28.34">*</text>
<text x="136.06" y="425.24">.</text>
<text x="207.97" y="238.64">.</text>
<text x="307.20" y="25.75">+</text>
<text x="447.66" y="251.37">+</text>
<text x="122.29" y="70.67">+</text>
<text x="120.35" y="461.47">*</text>
<text x="453.79" y="419.17">+</text>
<text x="254.03" y="457.83">*</text>
<text x="199.20" y="408.45">.</text>
<text x="311.84" y="39.32">*</text>
<text x="396.92" y="152.77">*</text>
<text x="29.56" y="426.78">.</text>
<text x="376.45" y="390.95">+</text>
<text x="92.17" y="265.09">+</text>
<text x="16.90" y="60.21">+</text>
<text x="100.40" y="391.67">+</text>
<text x="206.19" y="197.47">+</text>
<text x="427.89" y="472.63">.</text>
<text x="178.00" y="165.75">.</text>
<text x="357.83" y="401.78">*</text>
<text x="341.50" y="74.75">+</text>
<text x="433.70" y="221.63">.</text>
<text x="436.68" y="338.71">.</text>
<text x="345.77" y="280.47">.</text>
<text x="102.67" y="143.58">.</text>
<text x="146.89" y="135.85">.</text>
<text x="88.66" y="354.10">+</text>
<text x="239.18" y="496.29">+</text>
<text x="345.81" y="256.76">+</text>
<text x="224.59" y="323.56">+</text>
<text x="378.34" y="210.83">*</text>
<text x="446.65" y="341.39">+</text>
<text x="444.47" y="106.35">+</text>
<text x="397.72" y="420.66">+</text>
<text x="273.60" y="423.56">.</text>
<text x="2.10" y="270.53">+</text>
<text x="164.04" y="456.64">.</text>
<text x="131.46" y="404.08">+</text>
<text x="276.72" y="453.96">+</text>
<text x="351.73" y="357.38">+</text>
<text x="349.30" y="148.70">+</text>
<text x="413.43" y="314.35">.</text>
<text x="376.86" y="393.06">+</text>
<text x="53.19" y="151.14">+</text>
<text x="252.86" y="322.66">.</text>
<text x="331.14" y="316.31">+</text>
<text x="211.57" y="299.45">*</text>
<text x="31.79" y="265.23">+</text>
<text x="444.89" y="73.29">.</text>
<text x="89.10" y="123.50">.</text>
<text x="261.92" y="40.82">.</text>
<text x="400.90" y="286.92">+</text>
<text x="46.63" y="59.85">+</text>
<text x="440.97" y="11.57">+</text>
<text x="145.32" y="106.29">+</text>
<text x="480.90" y="395.48">.</text>
<text x="249.77" y="231.88">.</text>
<text x="68.07" y="320.53">*</text>
<text x="118.32" y="235.10">.</text>
<text x="482.89" y="299.45">.</text>
<text x="435.63" y="232.20">.</text>
<text x="350.34" y="372.13">+</text>
<text x="54.59" y="23.17">.</text>
<text x="448.65" y="301.34">+</text>
<text x="228.85" y="278.51">.</text>
<text x="434.11" y="9.60">+</text>
<text x="99.64" y="277.35">+</text>
<text x="363.44" y="377.84">+</text>
<text x="392.21" y="351.92">+</text>
<text x="465.67" y="414.17">+</text>
<text x="108.05" y="322.26">+</text>
<text x="391.10" y="481.94">+</text>
<text x="116.28" y="160.54">.</text>
<text x="12.37" y="410.42">.</text>
<text x="308.32" y="319.82">*</text>
<text x="210.99" y="423.81">*</text>
<text x="394.48" y="221.98">+</text>
<text x="126.49" y="171.48">.</text>
<text x="353.95" y="359.34">*</text>
<text x="434.61" y="102.73">+</text>
<text x="165.91" y="240.48">.</text>
<text x="490.41" y="453.16">*</text>
<text x="334.40" y="378.55">*</text>
<text x="368.22" y="294.53">.</text>
<text x="348.89" y="106.10">.</text>
<text x="111.69" y="458.98">.</text>
<text x="257.11" y="414.40">+</text>
<text x="447.37" y="464.51">+</text>

</svg>