
<svg viewBox="0 0 500 500" xmlns="http://www.w.org/2000/svg" width="100%" height="100%" style="background-color: #0a0a14; font-family: 'Courier New', Courier, monospace;">
    <style>
        text { fill: #aaa; font-size: 10px; text-anchor: middle; dominant-baseline: middle; }
    </style>
    <text x="114.33" y="218.94">.</text>
<text x="106.90" y="463.76">+</text>
<text x="304.11" y="242.68">.</text>
<text x="39.35" y="152.26">.</text>
<text x="100.67" y="327.81">+</text>
<text x="133.38" y="424.56">.</text>
<text x="462.57" y="116.36">.</text>
<text x="91.01" y="19.70">+</text>
<text x="143.32" y="398.72">*</text>
<text x="39.89" y="426.11">+</text>
<text x="325.75" y="222.11">+</text>
<text x="289.22" y="142.54">.</text>
<text x="430.52" y="337.98">+</text>
<text x="258.07" y="222.29">+</text>
<text x="370.12" y="71.97">+</text>
<text x="152.81" y="177.73">+</text>
<text x="314.96" y="315.41">+</text>
<text x="80.73" y="491.69">+</text>
<text x="69.67" y="427.36">+</text>
<text x="339.22" y="431.89">.</text>
<text x="196.54" y="343.17">+</text>
<text x="441.73" y="437.59">.</text>
<text x="458.75" y="89.79">+</text>
<text x="173.12" y="259.94">*</text>
<text x="143.70" y="16.10">.</text>
<text x="212.38" y="320.93">.</text>
<text x="284.35" y="332.26">.</text>
<text x="31.78" y="176.42">.</text>
<text x="397.27" y="254.49">.</text>
<text x="484.96" y="234.27">+</text>
<text x="455.79" y="331.01">.</text>
<text x="425.10" y="39.32">.</text>
<text x="462.75" y="447.63">.</text>
<text x="328.68" y="370.37">+</text>
<text x="205.55" y="12.43">*</text>
<text x="276.39" y="242.35">+</text>
<text x="468.17" y="152.07">*</text>
<text x="491.19" y="499.38">*</text>
<text x="330.95" y="415.91">*</text>
<text x="23.84" y="497.98">.</text>
<text x="161.88" y="349.85">+</text>
<text x="97.92" y="469.69">*</text>
<text x="59.62" y="490.15">+</text>
<text x="131.60" y="286.46">.</text>
<text x="409.30" y="9.50">+</text>
<text x="203.13" y="454.35">.</text>
<text x="132.43" y="182.83">.</text>
<text x="148.62" y="66.09">.</text>
<text x="202.73" y="171.56">+</text>
<text x="460.32" y="478.85">+</text>
<text x="493.54" y="467.93">.</text>
<text x="226.13" y="123.99">*</text>
<text x="258.78" y="389.22">*</text>
<text x="394.50" y="487.31">.</text>
<text x="429.86" y="481.19">.</text>
<text x="103.15" y="185.42">.</text>
<text x="93.54" y="451.27">.</text>
<text x="143.47" y="330.69">+</text>
<text x="397.19" y="492.12">+</text>
<text x="35.31" y="260.55">.</text>
<text x="443.34" y="189.09">*</text>
<text x="322.63" y="483.80">.</text>
<text x="77.54" y="322.90">+</text>
<text x="334.31" y="93.69">.</text>
<text x="7.94" y="82.51">+</text>
<text x="264.42" y="36.04">+</text>
<text x="3.28" y="198.59">+</text>
<text x="409.03" y="240.96">+</text>
<text x="1.54" y="195.68">*</text>
<text x="431.95" y="90.75">.</text>
<text x="374.68" y="144.45">+</text>
<text x="307.46" y="478.70">.</text>
<text x="104.69" y="390.88">.</text>
<text x="338.37" y="113.21">.</text>
<text x="15.26" y="381.63">*</text>
<text x="75.33" y="48.98">+</text>
<text x="464.22" y="31.84">.</text>
<text x="96.87" y="26.44">.</text>
<text x="381.90" y="61.31">.</text>
<text x="241.87" y="484.05">.</text>
<text x="175.68" y="416.14">.</text>
<text x="299.06" y="200.20">+</text>
<text x="247.32" y="65.60">.</text>
<text x="375.14" y="96.38">.</text>
<text x="94.32" y="83.54">+</text>
<text x="180.39" y="420.29">.</text>
<text x="134.07" y="94.64">+</text>
<text x="400.35" y="217.80">+</text>
<text x="114.65" y="361.85">.</text>
<text x="403.15" y="157.78">.</text>
<text x="112.07" y="321.67">.</text>
<text x="495.69" y="293.70">.</text>
<text x="16.62" y="395.22">.</text>
<text x="311.08" y="425.73">+</text>
<text x="283.73" y="93.22">*</text>
<text x="347.86" y="432.52">*</text>
<text x="106.81" y="396.95">+</text>
<text x="39.29" y="58.88">.</text>
<text x="199.24" y="19.11">.</text>
<text x="430.42" y="139.36">*</text>
<text x="483.18" y="46.84">.</text>
<text x="222.53" y="175.75">.</text>
<text x="230.29" y="358.82">.</text>
<text x="287.89" y="310.55">+</text>
<text x="303.86" y="234.50">.</text>
<text x="248.48" y="207.47">.</text>
<text x="32.63" y="359.62">.</text>
<text x="158.69" y="380.04">+</text>
<text x="12.22" y="30.55">.</text>
<text x="408.27" y="172.79">+</text>
<text x="376.55" y="232.34">+</text>
<text x="40.43" y="392.81">.</text>
<text x="63.30" y="499.39">*</text>
<text x="361.34" y="14.34">.</text>
<text x="212.35" y="201.32">+</text>
<text x="287.36" y="446.92">+</text>
<text x="46.80" y="86.79">.</text>
<text x="410.83" y="405.05">.</text>
<text x="376.98" y="437.96">.</text>
<text x="439.68" y="346.76">+</text>
<text x="279.69" y="104.73">+</text>
<text x="124.17" y="62.95">+</text>
<text x="305.57" y="256.83">+</text>
<text x="283.17" y="466.63">+</text>
<text x="190.18" y="352.03">+</text>
<text x="291.20" y="122.24">+</text>
<text x="163.60" y="494.10">+</text>
<text x="472.10" y="480.55">+</text>
<text x="287.53" y="39.25">+</text>
<text x="491.82" y="364.18">*</text>
<text x="236.46" y="421.48">.</text>
<text x="188.81" y="459.15">.</text>
<text x="299.21" y="59.03">.</text>
<text x="310.98" y="9.11">+</text>
<text x="20.45" y="70.42">+</text>
<text x="366.79" y="7.27">.</text>
<text x="20.23" y="37.37">.</text>
<text x="400.35" y="387.51">+</text>
<text x="337.41" y="189.21">+</text>
<text x="398.00" y="78.90">+</text>
<text x="31.83" y="476.15">.</text>
<text x="489.12" y="278.23">.</text>
<text x="117.13" y="294.80">+</text>
<text x="263.53" y="452.67">+</text>
<text x="333.08" y="222.97">+</text>
<text x="483.83" y="282.80">+</text>
<text x="499.05" y="22.89">*</text>
<text x="252.70" y="225.46">.</text>
<text x="332.15" y="198.10">+</text>
<text x="428.29" y="198.54">+</text>
<text x="307.53" y="389.05">.</text>
<text x="399.37" y="448.78">*</text>
<text x="133.60" y="282.30">*</text>
<text x="45.90" y="301.50">.</text>
<text x="148.45" y="98.79">+</text>
<text x="327.62" y="465.35">*</text>
<text x="250.69" y="260.37">.</text>
<text x="451.94" y="498.02">.</text>
<text x="254.56" y="229.40">*</text>
<text x="320.69" y="267.62">+</text>
<text x="85.04" y="330.55">+</text>
<text x="402.90" y="71.12">.</text>
<text x="498.53" y="444.58">+</text>
<text x="149.76" y="209.42">+</text>
<text x="328.52" y="22.55">+</text>
<text x="465.64" y="464.41">.</text>
<text x="348.43" y="224.91">.</text>
<text x="36.51" y="155.20">+</text>
<text x="8.05" y="494.51">+</text>
<text x="408.68" y="33.93">*</text>
<text x="394.90" y="406.13">.</text>
<text x="443.94" y="430.01">.</text>
<text x="175.59" y="305.86">+</text>
<text x="480.98" y="140.05">.</text>
<text x="368.99" y="384.65">+</text>
<text x="97.89" y="187.40">+</text>
<text x="338.32" y="265.95">.</text>
<text x="62.78" y="44.55">*</text>
<text x="227.93" y="272.75">.</text>
<text x="369.40" y="406.40">.</text>
<text x="151.36" y="425.40">+</text>
<text x="263.47" y="454.65">+</text>
<text x="338.70" y="313.42">+</text>
<text x="303.26" y="474.60">*</text>
<text x="148.93" y="135.48">.</text>
<text x="48.95" y="131.76">.</text>
<text x="30.25" y="216.24">+</text>
<text x="17.06" y="78.30">.</text>
<text x="9.54" y="233.15">.</text>
<text x="363.73" y="450.26">*</text>
<text x="81.91" y="175.87">.</text>
<text x="231.22" y="424.69">+</text>
<text x="496.69" y="163.54">+</text>
<text x="234.27" y="287.83">.</text>
<text x="229.23" y="271.03">.</text>
<text x="149.37" y="96.26">.</text>
<text x="365.53" y="368.46">.</text>
<text x="478.81" y="336.51">+</text>
<text x="150.06" y="238.55">.</text>
<text x="376.38" y="31.60">+</text>
<text x="184.11" y="214.75">.</text>
<text x="226.90" y="44.47">.</text>
<text x="439.80" y="60.40">+</text>
<text x="156.03" y="82.38">+</text>
<text x="26.77" y="453.62">+</text>
<text x="491.19" y="108.23">+</text>
<text x="11.34" y="29.37">.</text>
<text x="312.11" y="162.40">*</text>
<text x="7.60" y="409.54">+</text>
<text x="31.56" y="299.50">*</text>
<text x="194.89" y="373.81">+</text>
<text x="15.03" y="494.19">+</text>
<text x="347.55" y="358.13">+</text>
<text x="169.18" y="346.91">*</text>
<text x="456.50" y="153.96">*</text>

</svg>