
<svg viewBox="0 0 500 500" xmlns="http://www.w.org/2000/svg" width="100%" height="100%" style="background-color: #0a0a14; font-family: 'Courier New', Courier, monospace;">
    <style>
        text { fill: #aaa; font-size: 10px; text-anchor: middle; dominant-baseline: middle; }
    </style>
    <text x="56.79" y="408.75">.</text>
<text x="423.01" y="369.47">+</text>
<text x="127.82" y="464.90">+</text>
<text x="290.85" y="267.06">.</text>
<text x="210.66" y="282.69">.</text>
<text x="76.39" y="447.30">+</text>
<text x="408.84" y="297.63">.</text>
<text x="65.84" y="18.96">*</text>
<text x="85.36" y="400.73">.</text>
<text x="351.00" y="271.91">.</text>
<text x="431.81" y="192.08">*</text>
<text x="125.31" y="481.09">.</text>
<text x="312.58" y="254.49">.</text>
<text x="475.46" y="236.74">+</text>
<text x="161.91" y="327.96">.</text>
<text x="203.92" y="369.78">*</text>
<text x="46.54" y="87.24">+</text>
<text x="204.47" y="104.40">.</text>
<text x="382.06" y="20.30">*</text>
<text x="487.48" y="254.95">.</text>
<text x="267.46" y="192.19">*</text>
<text x="313.10" y="104.65">.</text>
<text x="488.33" y="191.22">.</text>
<text x="215.64" y="105.85">.</text>
<text x="257.42" y="161.64">+</text>
<text x="417.31" y="133.16">+</text>
<text x="406.07" y="304.55">.</text>
<text x="233.19" y="58.00">+</text>
<text x="427.94" y="169.72">.</text>
<text x="435.68" y="369.94">.</text>
<text x="316.91" y="9.63">.</text>
<text x="406.10" y="232.37">.</text>
<text x="312.32" y="176.78">+</text>
<text x="420.75" y="406.93">.</text>
<text x="358.30" y="489.81">.</text>
<text x="347.91" y="68.35">*</text>
<text x="319.23" y="283.93">+</text>
<text x="130.40" y="422.12">*</text>
<text x="132.42" y="171.75">*</text>
<text x="374.05" y="74.09">*</text>
<text x="276.01" y="226.44">+</text>
<text x="349.73" y="165.67">+</text>
<text x="481.91" y="434.57">.</text>
<text x="117.23" y="402.78">*</text>
<text x="161.86" y="54.34">*</text>
<text x="111.84" y="230.33">+</text>
<text x="196.50" y="440.16">+</text>
<text x="102.43" y="138.86">.</text>
<text x="107.91" y="273.99">.</text>
<text x="457.99" y="16.28">.</text>
<text x="437.95" y="253.84">.</text>
<text x="78.12" y="390.76">.</text>
<text x="115.69" y="188.22">+</text>
<text x="201.74" y="201.10">.</text>
<text x="219.23" y="83.91">+</text>
<text x="429.41" y="101.26">.</text>
<text x="98.78" y="137.12">+</text>
<text x="81.05" y="14.09">.</text>
<text x="429.20" y="383.80">*</text>
<text x="37.11" y="103.11">.</text>
<text x="221.07" y="313.75">+</text>
<text x="214.87" y="425.14">+</text>
<text x="418.17" y="132.26">+</text>
<text x="319.65" y="119.61">.</text>
<text x="198.60" y="352.54">.</text>
<text x="24.93" y="391.82">+</text>
<text x="277.66" y="3.57">.</text>
<text x="454.58" y="273.04">+</text>
<text x="284.20" y="126.11">+</text>
<text x="66.75" y="465.39">+</text>
<text x="53.35" y="452.79">+</text>
<text x="178.37" y="163.92">.</text>
<text x="121.74" y="391.01">+</text>
<text x="248.59" y="263.97">*</text>
<text x="194.11" y="318.81">*</text>
<text x="101.89" y="343.16">.</text>
<text x="12.79" y="40.78">+</text>
<text x="220.49" y="95.75">.</text>
<text x="358.55" y="315.92">*</text>
<text x="314.48" y="467.17">+</text>
<text x="350.15" y="108.10">.</text>
<text x="345.18" y="454.52">+</text>
<text x="145.26" y="355.21">+</text>
<text x="135.35" y="249.51">+</text>
<text x="129.21" y="346.20">.</text>
<text x="485.06" y="8.23">+</text>
<text x="420.62" y="103.24">+</text>
<text x="150.14" y="481.29">+</text>
<text x="196.52" y="136.55">.</text>
<text x="65.41" y="366.08">.</text>
<text x="497.93" y="193.32">.</text>
<text x="179.78" y="151.33">+</text>
<text x="413.28" y="16.11">.</text>
<text x="221.46" y="295.64">.</text>
<text x="273.97" y="120.36">*</text>
<text x="383.44" y="456.28">.</text>
<text x="406.39" y="482.20">.</text>
<text x="46.64" y="79.26">.</text>
<text x="440.81" y="482.20">+</text>
<text x="130.29" y="162.56">+</text>
<text x="205.03" y="208.10">*</text>
<text x="491.24" y="263.43">+</text>
<text x="475.31" y="321.85">+</text>
<text x="400.93" y="294.82">*</text>
<text x="111.69" y="253.67">.</text>
<text x="4.08" y="165.08">+</text>
<text x="69.30" y="383.75">.</text>
<text x="455.23" y="420.68">.</text>
<text x="292.40" y="100.13">.</text>
<text x="338.67" y="310.05">.</text>
<text x="418.10" y="45.22">+</text>
<text x="449.94" y="482.38">+</text>
<text x="254.35" y="186.62">*</text>
<text x="436.12" y="156.26">.</text>
<text x="301.59" y="380.61">+</text>
<text x="289.50" y="93.63">*</text>
<text x="317.97" y="62.31">+</text>
<text x="81.84" y="481.78">.</text>
<text x="54.18" y="55.11">+</text>
<text x="283.33" y="451.88">.</text>
<text x="32.10" y="206.61">+</text>
<text x="56.81" y="286.94">.</text>
<text x="255.70" y="41.73">+</text>
<text x="210.65" y="324.57">+</text>
<text x="208.68" y="197.78">.</text>
<text x="167.60" y="340.22">*</text>
<text x="486.25" y="154.90">*</text>
<text x="254.57" y="58.14">.</text>
<text x="348.69" y="326.94">.</text>
<text x="332.29" y="217.37">.</text>
<text x="374.46" y="455.03">+</text>
<text x="449.91" y="233.11">+</text>
<text x="469.98" y="416.95">.</text>
<text x="356.53" y="130.89">*</text>
<text x="47.34" y="348.83">+</text>
<text x="68.15" y="202.96">+</text>
<text x="115.24" y="49.15">.</text>
<text x="112.58" y="113.34">+</text>
<text x="254.81" y="218.94">*</text>
<text x="160.65" y="53.24">+</text>
<text x="108.81" y="164.46">+</text>
<text x="403.07" y="139.68">.</text>
<text x="241.57" y="256.86">+</text>
<text x="404.70" y="175.71">.</text>
<text x="344.12" y="296.29">+</text>
<text x="60.11" y="5.87">.</text>
<text x="99.90" y="281.14">*</text>
<text x="490.45" y="359.49">+</text>
<text x="3.66" y="227.82">.</text>
<text x="177.83" y="389.01">+</text>
<text x="465.16" y="234.02">+</text>
<text x="436.64" y="324.49">.</text>
<text x="122.42" y="340.57">+</text>
<text x="351.20" y="30.31">+</text>
<text x="389.66" y="181.77">+</text>
<text x="440.07" y="74.31">.</text>
<text x="57.41" y="36.76">.</text>
<text x="139.84" y="202.46">.</text>
<text x="205.59" y="205.72">*</text>
<text x="23.41" y="187.38">.</text>
<text x="487.42" y="157.04">+</text>
<text x="126.77" y="341.89">+</text>
<text x="48.24" y="151.83">+</text>
<text x="459.40" y="32.90">+</text>
<text x="409.33" y="374.65">.</text>
<text x="440.94" y="265.62">+</text>
<text x="141.39" y="437.79">.</text>
<text x="429.93" y="370.31">*</text>
<text x="235.75" y="400.60">.</text>
<text x="404.58" y="466.23">+</text>
<text x="192.06" y="269.77">+</text>
<text x="214.47" y="164.34">+</text>
<text x="112.89" y="244.54">.</text>
<text x="156.58" y="66.39">+</text>
<text x="438.91" y="437.62">.</text>
<text x="255.03" y="25.82">+</text>
<text x="293.17" y="352.42">.</text>
<text x="185.71" y="127.32">+</text>
<text x="187.71" y="449.40">.</text>
<text x="361.88" y="28.86">+</text>
<text x="82.51" y="467.61">*</text>
<text x="416.23" y="88.93">.</text>
<text x="447.33" y="316.79">+</text>
<text x="341.23" y="363.28">+</text>
<text x="437.28" y="14.39">*</text>
<text x="220.49" y="383.00">.</text>
<text x="142.51" y="91.87">+</text>
<text x="390.33" y="178.56">*</text>
<text x="7.46" y="20.14">+</text>
<text x="405.72" y="227.08">+</text>
<text x="176.63" y="397.97">.</text>
<text x="112.78" y="221.97">+</text>
<text x="393.17" y="216.14">+</text>
<text x="462.27" y="153.69">+</text>
<text x="317.01" y="30.36">*</text>
<text x="99.07" y="267.93">+</text>
<text x="488.58" y="103.55">+</text>
<text x="196.84" y="421.32">.</text>
<text x="317.47" y="98.01">.</text>
<text x="129.47" y="433.45">.</text>
<text x="377.77" y="166.26">*</text>
<text x="73.09" y="48.77">+</text>
<text x="23.32" y="492.54">+</text>
<text x="172.71" y="228.86">+</text>
<text x="373.96" y="191.18">+</text>
<text x="495.81" y="360.47">.</text>
<text x="387.90" y="245.52">.</text>
<text x="271.14" y="253.19">*</text>
<text x="268.11" y="107.02">.</text>
<text x="203.26" y="327.23">.</text>
<text x="140.76" y="434.73">+</text>
<text x="235.60" y="401.15">.</text>
<text x="95.38" y="277.27">.</text>

</svg>