
<svg viewBox="0 0 500 500" xmlns="http://www.w.org/2000/svg" width="100%" height="100%" style="background-color: #0a0a14; font-family: 'Courier New', Courier, monospace;">
    <style>
        text { fill: #aaa; font-size: 10px; text-anchor: middle; dominant-baseline: middle; }
    </style>
    <text x="453.68" y="143.03">.</text>
<text x="433.90" y="262.30">.</text>
<text x="72.01" y="348.64">*</text>
<text x="9.38" y="404.01">+</text>
<text x="226.50" y="178.07">+</text>
<text x="198.84" y="469.18">*</text>
<text x="267.06" y="404.34">*</text>
<text x="24.73" y="223.95">.</text>
<text x="256.14" y="10.61">+</text>
<text x="52.20" y="3.97">.</text>
<text x="308.36" y="66.33">.</text>
<text x="8.02" y="218.17">+</text>
<text x="444.33" y="79.61">.</text>
<text x="150.44" y="291.99">+</text>
<text x="7.24" y="239.56">*</text>
<text x="460.70" y="215.68">*</text>
<text x="404.36" y="161.78">.</text>
<text x="466.36" y="384.30">*</text>
<text x="98.13" y="430.36">+</text>
<text x="171.24" y="200.89">.</text>
<text x="95.97" y="486.71">.</text>
<text x="480.18" y="472.09">+</text>
<text x="16.69" y="350.33">.</text>
<text x="134.79" y="80.91">*</text>
<text x="323.28" y="423.68">+</text>
<text x="356.27" y="84.68">.</text>
<text x="423.53" y="300.99">.</text>
<text x="390.10" y="52.34">.</text>
<text x="356.76" y="377.05">+</text>
<text x="256.19" y="492.23">+</text>
<text x="39.71" y="362.04">+</text>
<text x="294.41" y="414.51">.</text>
<text x="370.00" y="267.90">+</text>
<text x="485.85" y="297.40">+</text>
<text x="105.79" y="56.18">+</text>
<text x="191.78" y="383.79">+</text>
<text x="422.22" y="12.38">*</text>
<text x="205.61" y="422.63">*</text>
<text x="287.68" y="461.60">+</text>
<text x="154.08" y="459.64">.</text>
<text x="441.01" y="222.37">+</text>
<text x="357.88" y="70.43">+</text>
<text x="401.34" y="435.92">+</text>
<text x="95.16" y="491.81">.</text>
<text x="130.10" y="275.84">+</text>
<text x="46.26" y="339.68">*</text>
<text x="401.44" y="247.38">.</text>
<text x="304.57" y="463.16">.</text>
<text x="45.94" y="312.26">.</text>
<text x="298.49" y="99.88">*</text>
<text x="283.21" y="266.67">*</text>
<text x="62.60" y="387.59">+</text>
<text x="434.03" y="128.33">.</text>
<text x="43.07" y="498.65">+</text>
<text x="480.30" y="8.32">*</text>
<text x="129.66" y="197.69">+</text>
<text x="243.50" y="178.67">.</text>
<text x="55.76" y="111.64">.</text>
<text x="471.58" y="294.20">.</text>
<text x="258.67" y="164.80">+</text>
<text x="58.14" y="487.48">.</text>
<text x="398.07" y="126.79">*</text>
<text x="346.21" y="202.98">+</text>
<text x="287.36" y="412.31">+</text>
<text x="360.62" y="233.42">.</text>
<text x="304.77" y="330.24">+</text>
<text x="351.40" y="290.76">.</text>
<text x="188.27" y="450.57">+</text>
<text x="494.51" y="283.33">.</text>
<text x="382.80" y="455.90">.</text>
<text x="306.97" y="209.93">+</text>
<text x="358.11" y="57.11">+</text>
<text x="485.01" y="34.60">+</text>
<text x="45.30" y="351.21">.</text>
<text x="176.32" y="113.47">*</text>
<text x="451.78" y="235.07">.</text>
<text x="69.62" y="296.51">.</text>
<text x="78.28" y="341.74">*</text>
<text x="390.39" y="446.68">.</text>
<text x="485.56" y="465.71">+</text>
<text x="493.92" y="461.16">+</text>
<text x="439.32" y="178.93">.</text>
<text x="423.54" y="177.79">+</text>
<text x="13.91" y="368.02">+</text>
<text x="386.88" y="315.08">.</text>
<text x="204.45" y="53.05">.</text>
<text x="75.80" y="379.87">*</text>
<text x="354.98" y="201.46">+</text>
<text x="418.87" y="155.95">+</text>
<text x="74.65" y="193.22">.</text>
<text x="329.62" y="299.77">.</text>
<text x="413.93" y="175.35">+</text>
<text x="232.69" y="238.02">+</text>
<text x="57.12" y="257.55">*</text>
<text x="102.69" y="323.94">+</text>
<text x="381.29" y="456.47">.</text>
<text x="39.24" y="467.52">+</text>
<text x="412.51" y="338.83">*</text>
<text x="363.58" y="41.61">+</text>
<text x="390.14" y="259.10">.</text>
<text x="324.57" y="496.79">+</text>
<text x="59.17" y="263.55">.</text>
<text x="88.95" y="331.51">.</text>
<text x="355.83" y="406.57">+</text>
<text x="230.72" y="470.74">+</text>
<text x="51.02" y="170.27">*</text>
<text x="198.01" y="315.26">+</text>
<text x="35.85" y="428.35">.</text>
<text x="146.31" y="482.26">.</text>
<text x="245.52" y="96.45">+</text>
<text x="18.90" y="374.48">+</text>
<text x="330.16" y="196.87">.</text>
<text x="139.03" y="220.63">*</text>
<text x="325.16" y="221.25">.</text>
<text x="403.44" y="331.88">*</text>
<text x="189.38" y="491.10">+</text>
<text x="316.76" y="433.48">+</text>
<text x="456.39" y="157.40">.</text>
<text x="421.79" y="243.89">+</text>
<text x="425.60" y="418.15">*</text>
<text x="163.25" y="72.16">+</text>
<text x="338.97" y="11.46">.</text>
<text x="350.26" y="395.46">.</text>
<text x="283.49" y="103.70">+</text>
<text x="107.00" y="248.35">+</text>
<text x="137.42" y="37.30">+</text>
<text x="471.16" y="20.51">+</text>
<text x="366.02" y="231.26">.</text>
<text x="388.74" y="198.13">*</text>
<text x="368.91" y="433.79">+</text>
<text x="201.09" y="484.81">*</text>
<text x="289.18" y="365.82">.</text>
<text x="394.82" y="87.22">+</text>
<text x="89.35" y="58.36">+</text>
<text x="134.18" y="477.57">+</text>
<text x="78.79" y="61.10">.</text>
<text x="381.85" y="288.24">+</text>
<text x="257.24" y="50.32">+</text>
<text x="325.45" y="280.32">.</text>
<text x="226.86" y="252.90">*</text>
<text x="176.12" y="204.07">+</text>
<text x="63.94" y="399.90">*</text>
<text x="384.83" y="113.61">+</text>
<text x="247.37" y="472.43">+</text>
<text x="63.08" y="330.36">*</text>
<text x="314.61" y="128.37">.</text>
<text x="249.33" y="54.52">+</text>
<text x="127.72" y="231.89">.</text>
<text x="321.11" y="246.57">.</text>
<text x="80.26" y="25.19">.</text>
<text x="6.65" y="184.29">+</text>
<text x="308.02" y="126.37">+</text>
<text x="24.70" y="0.23">+</text>
<text x="391.00" y="179.78">.</text>
<text x="80.85" y="375.74">*</text>
<text x="160.82" y="34.90">*</text>
<text x="442.56" y="362.63">*</text>
<text x="218.01" y="262.90">+</text>
<text x="260.47" y="444.32">*</text>
<text x="2.30" y="235.50">+</text>
<text x="367.12" y="220.51">+</text>
<text x="108.59" y="223.51">+</text>
<text x="199.19" y="347.86">.</text>
<text x="64.02" y="61.98">+</text>
<text x="236.84" y="100.40">+</text>
<text x="102.53" y="109.73">.</text>
<text x="153.78" y="399.01">*</text>
<text x="16.36" y="334.26">*</text>
<text x="362.06" y="35.65">+</text>
<text x="48.08" y="433.03">.</text>
<text x="15.61" y="241.84">.</text>
<text x="81.36" y="282.70">*</text>
<text x="259.59" y="471.43">.</text>
<text x="74.23" y="471.08">.</text>
<text x="149.35" y="5.45">+</text>
<text x="1.75" y="456.88">*</text>
<text x="283.67" y="186.10">*</text>
<text x="18.62" y="156.17">.</text>
<text x="267.87" y="465.99">+</text>
<text x="97.52" y="290.68">*</text>
<text x="9.35" y="451.31">+</text>
<text x="277.32" y="330.43">.</text>
<text x="454.00" y="309.70">.</text>
<text x="235.66" y="415.82">+</text>
<text x="155.80" y="412.53">+</text>
<text x="388.03" y="424.51">*</text>
<text x="13.32" y="136.84">+</text>
<text x="433.84" y="89.30">.</text>
<text x="88.15" y="50.01">+</text>
<text x="256.77" y="182.43">.</text>
<text x="278.57" y="143.77">.</text>
<text x="88.82" y="51.57">.</text>
<text x="106.00" y="149.20">+</text>
<text x="113.31" y="436.30">+</text>
<text x="162.84" y="491.57">+</text>
<text x="426.22" y="454.15">*</text>
<text x="432.32" y="197.34">+</text>
<text x="259.37" y="497.69">.</text>
<text x="208.55" y="89.96">.</text>
<text x="90.07" y="421.43">+</text>
<text x="37.59" y="160.00">+</text>
<text x="405.44" y="448.21">.</text>
<text x="71.19" y="378.59">.</text>
<text x="275.88" y="317.82">.</text>
<text x="104.91" y="322.16">.</text>
<text x="166.94" y="177.48">+</text>
<text x="22.64" y="481.04">+</text>
<text x="110.16" y="12.45">+</text>
<text x="16.18" y="406.32">+</text>
<text x="373.47" y="394.29">.</text>
<text x="474.12" y="210.81">.</text>
<text x="439.94" y="274.87">+</text>

</svg>