
<svg viewBox="0 0 500 500" xmlns="http://www.w.org/2000/svg" width="100%" height="100%" style="background-color: #0a0a14; font-family: 'Courier New', Courier, monospace;">
    <style>
        text { fill: #aaa; font-size: 10px; text-anchor: middle; dominant-baseline: middle; }
    </style>
    <text x="16.71" y="110.06">*</text>
<text x="84.70" y="460.65">.</text>
<text x="149.61" y="419.63">+</text>
<text x="304.28" y="383.13">+</text>
<text x="169.45" y="267.14">+</text>
<text x="40.48" y="264.50">+</text>
<text x="471.80" y="123.56">.</text>
<text x="278.84" y="213.29">+</text>
<text x="445.04" y="125.83">+</text>
<text x="245.11" y="429.32">.</text>
<text x="438.36" y="438.68">+</text>
<text x="61.05" y="412.18">+</text>
<text x="263.48" y="112.87">.</text>
<text x="220.10" y="477.22">+</text>
<text x="325.90" y="424.28">*</text>
<text x="481.11" y="41.56">+</text>
<text x="261.94" y="143.98">.</text>
<text x="485.14" y="427.57">.</text>
<text x="238.75" y="13.66">+</text>
<text x="257.30" y="305.75">+</text>
<text x="285.48" y="497.74">.</text>
<text x="278.57" y="285.99">.</text>
<text x="461.19" y="128.55">*</text>
<text x="151.07" y="162.54">.</text>
<text x="109.90" y="465.36">*</text>
<text x="255.81" y="84.00">.</text>
<text x="164.28" y="40.77">.</text>
<text x="344.52" y="449.49">+</text>
<text x="491.41" y="224.62">.</text>
<text x="336.51" y="455.16">.</text>
<text x="419.92" y="428.55">.</text>
<text x="346.49" y="322.67">+</text>
<text x="40.16" y="132.86">+</text>
<text x="427.69" y="164.65">*</text>
<text x="148.28" y="426.74">+</text>
<text x="464.51" y="323.41">.</text>
<text x="103.10" y="289.92">+</text>
<text x="10.30" y="469.44">+</text>
<text x="353.03" y="375.63">+</text>
<text x="330.35" y="103.90">.</text>
<text x="90.85" y="295.03">+</text>
<text x="257.13" y="80.99">.</text>
<text x="235.73" y="112.97">.</text>
<text x="106.50" y="135.35">.</text>
<text x="476.67" y="258.52">+</text>
<text x="346.05" y="235.03">*</text>
<text x="388.44" y="472.95">.</text>
<text x="452.16" y="163.53">.</text>
<text x="195.53" y="352.43">.</text>
<text x="375.93" y="421.56">+</text>
<text x="215.22" y="389.69">+</text>
<text x="108.40" y="74.62">*</text>
<text x="190.57" y="13.84">.</text>
<text x="183.88" y="379.67">.</text>
<text x="414.91" y="82.82">+</text>
<text x="321.54" y="346.73">.</text>
<text x="434.36" y="255.19">+</text>
<text x="184.56" y="173.79">.</text>
<text x="197.92" y="19.83">.</text>
<text x="278.20" y="297.96">+</text>
<text x="482.77" y="85.97">+</text>
<text x="91.56" y="64.86">.</text>
<text x="57.64" y="315.49">.</text>
<text x="365.13" y="386.78">.</text>
<text x="255.67" y="89.63">+</text>
<text x="46.78" y="13.48">.</text>
<text x="310.97" y="41.13">+</text>
<text x="89.16" y="470.85">.</text>
<text x="312.48" y="137.81">*</text>
<text x="460.61" y="26.11">.</text>
<text x="205.32" y="411.35">.</text>
<text x="154.29" y="216.75">.</text>
<text x="197.79" y="434.12">.</text>
<text x="466.32" y="113.29">+</text>
<text x="444.76" y="422.60">*</text>
<text x="152.30" y="441.53">*</text>
<text x="51.84" y="306.95">*</text>
<text x="18.91" y="101.99">*</text>
<text x="89.20" y="78.42">+</text>
<text x="482.35" y="134.94">.</text>
<text x="203.13" y="427.58">+</text>
<text x="414.81" y="79.26">.</text>
<text x="151.27" y="473.35">.</text>
<text x="87.71" y="431.71">+</text>
<text x="404.46" y="179.92">.</text>
<text x="337.74" y="185.54">+</text>
<text x="42.29" y="98.15">.</text>
<text x="199.79" y="371.59">.</text>
<text x="374.32" y="493.98">.</text>
<text x="23.08" y="40.69">+</text>
<text x="216.70" y="33.04">.</text>
<text x="433.32" y="93.62">+</text>
<text x="36.96" y="312.51">.</text>
<text x="456.71" y="48.13">*</text>
<text x="400.27" y="98.86">.</text>
<text x="220.77" y="329.93">+</text>
<text x="237.36" y="363.79">+</text>
<text x="35.01" y="478.29">+</text>
<text x="54.97" y="402.09">.</text>
<text x="281.17" y="306.45">.</text>
<text x="266.84" y="138.04">.</text>
<text x="37.94" y="75.60">.</text>
<text x="263.82" y="377.22">.</text>
<text x="466.40" y="174.11">.</text>
<text x="483.69" y="467.23">+</text>
<text x="459.04" y="329.35">.</text>
<text x="62.43" y="24.38">.</text>
<text x="37.54" y="494.32">*</text>
<text x="472.13" y="261.98">*</text>
<text x="261.56" y="252.98">.</text>
<text x="374.14" y="415.29">.</text>
<text x="156.44" y="77.68">.</text>
<text x="466.74" y="269.57">+</text>
<text x="257.99" y="349.07">+</text>
<text x="144.02" y="276.77">+</text>
<text x="349.86" y="227.74">.</text>
<text x="90.35" y="221.12">.</text>
<text x="236.39" y="241.45">.</text>
<text x="78.86" y="36.10">+</text>
<text x="350.65" y="216.20">*</text>
<text x="444.26" y="431.94">*</text>
<text x="196.79" y="490.77">.</text>
<text x="358.85" y="107.50">*</text>
<text x="214.29" y="278.81">*</text>
<text x="439.81" y="148.92">+</text>
<text x="351.81" y="119.70">.</text>
<text x="249.09" y="264.41">*</text>
<text x="194.21" y="199.93">+</text>
<text x="163.13" y="252.94">+</text>
<text x="45.92" y="278.80">.</text>
<text x="203.03" y="136.88">*</text>
<text x="52.51" y="322.17">*</text>
<text x="467.95" y="63.77">.</text>
<text x="416.73" y="478.30">+</text>
<text x="221.13" y="417.89">+</text>
<text x="123.69" y="280.06">.</text>
<text x="453.04" y="109.84">.</text>
<text x="36.37" y="411.72">.</text>
<text x="281.21" y="89.48">.</text>
<text x="308.74" y="75.89">.</text>
<text x="287.73" y="269.76">.</text>
<text x="120.58" y="486.13">.</text>
<text x="115.65" y="389.68">.</text>
<text x="103.39" y="254.78">.</text>
<text x="67.49" y="316.55">+</text>
<text x="309.19" y="170.25">+</text>
<text x="393.98" y="336.82">.</text>
<text x="229.70" y="85.47">*</text>
<text x="273.57" y="193.91">+</text>
<text x="274.57" y="317.20">.</text>
<text x="31.06" y="115.33">*</text>
<text x="147.54" y="395.33">+</text>
<text x="471.29" y="356.11">+</text>
<text x="357.88" y="39.25">.</text>
<text x="367.34" y="451.10">+</text>
<text x="160.20" y="348.94">.</text>
<text x="154.62" y="29.52">.</text>
<text x="47.65" y="20.20">+</text>
<text x="105.34" y="21.29">.</text>
<text x="374.06" y="449.98">*</text>
<text x="492.74" y="497.15">.</text>
<text x="488.54" y="49.10">*</text>
<text x="54.68" y="185.20">.</text>
<text x="491.70" y="200.16">+</text>
<text x="139.13" y="83.29">.</text>
<text x="281.36" y="60.80">.</text>
<text x="440.20" y="479.17">.</text>
<text x="130.54" y="70.02">+</text>
<text x="120.91" y="172.85">+</text>
<text x="31.49" y="296.66">+</text>
<text x="111.79" y="277.49">.</text>
<text x="344.32" y="327.49">.</text>
<text x="267.64" y="104.21">+</text>
<text x="294.35" y="333.32">*</text>
<text x="397.04" y="20.16">*</text>
<text x="439.66" y="423.67">.</text>
<text x="152.92" y="315.42">.</text>
<text x="479.72" y="230.08">+</text>
<text x="175.97" y="192.28">.</text>
<text x="286.31" y="456.44">+</text>
<text x="136.57" y="303.59">+</text>
<text x="27.39" y="478.75">+</text>
<text x="67.78" y="438.99">+</text>
<text x="40.27" y="257.93">*</text>
<text x="358.28" y="421.92">+</text>
<text x="29.94" y="31.48">.</text>
<text x="121.66" y="125.83">.</text>
<text x="172.13" y="412.96">.</text>
<text x="143.33" y="479.56">.</text>
<text x="430.14" y="276.40">+</text>
<text x="23.45" y="190.92">.</text>
<text x="79.74" y="469.90">+</text>
<text x="20.66" y="471.91">*</text>
<text x="7.68" y="392.80">*</text>
<text x="317.22" y="340.55">*</text>
<text x="99.74" y="371.75">*</text>
<text x="96.20" y="217.63">.</text>
<text x="259.87" y="6.36">.</text>
<text x="483.89" y="180.81">.</text>
<text x="26.83" y="430.20">.</text>
<text x="384.53" y="30.68">+</text>
<text x="408.18" y="443.26">.</text>
<text x="378.61" y="83.34">+</text>

</svg>