
<svg viewBox="0 0 500 500" xmlns="http://www.w.org/2000/svg" width="100%" height="100%" style="background-color: #0a0a14; font-family: 'Courier New', Courier, monospace;">
    <style>
        text { fill: #aaa; font-size: 10px; text-anchor: middle; dominant-baseline: middle; }
    </style>
    <text x="106.22" y="308.20">.</text>
<text x="312.95" y="426.88">.</text>
<text x="65.56" y="170.33">+</text>
<text x="104.39" y="137.76">.</text>
<text x="497.61" y="332.06">+</text>
<text x="428.40" y="453.82">+</text>
<text x="432.62" y="44.58">.</text>
<text x="269.98" y="238.87">.</text>
<text x="240.65" y="245.36">+</text>
<text x="363.69" y="462.28">+</text>
<text x="378.77" y="333.57">.</text>
<text x="67.02" y="173.76">.</text>
<text x="288.06" y="184.65">.</text>
<text x="403.96" y="86.31">.</text>
<text x="40.58" y="281.81">*</text>
<text x="496.87" y="186.99">+</text>
<text x="116.91" y="168.14">+</text>
<text x="191.32" y="11.95">+</text>
<text x="153.89" y="457.47">+</text>
<text x="316.81" y="154.09">*</text>
<text x="203.79" y="221.01">*</text>
<text x="52.94" y="291.76">+</text>
<text x="118.17" y="263.80">.</text>
<text x="156.19" y="274.14">.</text>
<text x="490.54" y="252.38">+</text>
<text x="124.14" y="26.67">.</text>
<text x="323.65" y="250.00">.</text>
<text x="147.96" y="329.80">.</text>
<text x="129.46" y="22.29">+</text>
<text x="253.96" y="193.39">.</text>
<text x="86.98" y="483.94">+</text>
<text x="459.53" y="180.89">+</text>
<text x="83.01" y="469.16">.</text>
<text x="69.51" y="132.63">*</text>
<text x="190.47" y="315.38">+</text>
<text x="112.29" y="403.94">+</text>
<text x="491.41" y="159.69">+</text>
<text x="251.04" y="209.93">+</text>
<text x="25.06" y="319.40">*</text>
<text x="166.04" y="376.65">+</text>
<text x="126.13" y="123.12">.</text>
<text x="202.52" y="22.44">.</text>
<text x="452.52" y="484.09">.</text>
<text x="216.39" y="294.17">.</text>
<text x="389.66" y="40.99">+</text>
<text x="83.06" y="350.80">+</text>
<text x="249.41" y="124.78">*</text>
<text x="211.91" y="194.26">.</text>
<text x="434.35" y="63.61">.</text>
<text x="112.68" y="139.11">.</text>
<text x="229.31" y="88.80">.</text>
<text x="213.25" y="263.22">.</text>
<text x="457.46" y="37.14">+</text>
<text x="264.61" y="146.83">.</text>
<text x="185.24" y="331.87">.</text>
<text x="278.90" y="198.43">.</text>
<text x="211.68" y="85.54">+</text>
<text x="283.82" y="370.30">.</text>
<text x="485.24" y="118.95">.</text>
<text x="382.62" y="4.17">*</text>
<text x="343.66" y="486.44">+</text>
<text x="18.23" y="445.48">*</text>
<text x="277.52" y="436.17">.</text>
<text x="97.66" y="203.79">+</text>
<text x="414.16" y="106.38">.</text>
<text x="359.49" y="86.32">.</text>
<text x="4.67" y="186.42">.</text>
<text x="120.53" y="450.17">.</text>
<text x="354.32" y="49.41">+</text>
<text x="66.71" y="111.24">+</text>
<text x="72.61" y="278.20">+</text>
<text x="382.91" y="111.02">+</text>
<text x="462.09" y="264.75">.</text>
<text x="421.91" y="447.99">.</text>
<text x="198.74" y="432.51">*</text>
<text x="292.61" y="385.06">.</text>
<text x="299.56" y="129.39">+</text>
<text x="128.02" y="289.75">.</text>
<text x="302.61" y="255.70">+</text>
<text x="300.88" y="414.15">+</text>
<text x="280.19" y="389.89">+</text>
<text x="111.37" y="96.39">+</text>
<text x="296.58" y="39.82">+</text>
<text x="27.70" y="236.77">.</text>
<text x="125.51" y="258.51">*</text>
<text x="97.54" y="304.63">+</text>
<text x="4.07" y="267.53">.</text>
<text x="141.07" y="172.67">*</text>
<text x="466.61" y="441.81">.</text>
<text x="439.68" y="135.39">.</text>
<text x="344.03" y="390.73">+</text>
<text x="389.41" y="294.37">.</text>
<text x="395.18" y="372.03">+</text>
<text x="471.38" y="13.13">.</text>
<text x="254.18" y="64.26">+</text>
<text x="259.23" y="427.80">.</text>
<text x="364.25" y="98.13">.</text>
<text x="238.88" y="372.04">.</text>
<text x="317.67" y="480.43">.</text>
<text x="77.37" y="134.36">+</text>
<text x="177.75" y="62.75">*</text>
<text x="10.94" y="163.34">+</text>
<text x="415.13" y="121.10">+</text>
<text x="111.17" y="414.26">+</text>
<text x="287.53" y="156.21">.</text>
<text x="33.93" y="469.27">+</text>
<text x="271.59" y="181.24">.</text>
<text x="224.29" y="215.19">+</text>
<text x="286.73" y="465.12">+</text>
<text x="409.61" y="423.89">.</text>
<text x="254.81" y="497.43">+</text>
<text x="368.97" y="284.47">+</text>
<text x="344.39" y="317.11">+</text>
<text x="383.63" y="176.66">.</text>
<text x="249.84" y="387.43">+</text>
<text x="417.06" y="0.64">*</text>
<text x="206.83" y="268.32">+</text>
<text x="146.25" y="475.88">+</text>
<text x="16.76" y="21.13">+</text>
<text x="273.76" y="190.01">.</text>
<text x="114.28" y="118.53">+</text>
<text x="404.84" y="128.12">*</text>
<text x="179.33" y="439.05">.</text>
<text x="244.28" y="311.63">.</text>
<text x="450.06" y="336.08">.</text>
<text x="260.89" y="131.62">.</text>
<text x="396.06" y="499.46">.</text>
<text x="248.26" y="370.24">.</text>
<text x="273.46" y="251.81">.</text>
<text x="266.42" y="448.90">.</text>
<text x="205.00" y="41.31">.</text>
<text x="222.72" y="17.48">+</text>
<text x="302.29" y="48.96">+</text>
<text x="27.26" y="93.46">.</text>
<text x="26.84" y="319.61">.</text>
<text x="220.57" y="207.75">.</text>
<text x="328.14" y="441.22">+</text>
<text x="44.55" y="418.55">+</text>
<text x="496.36" y="244.28">.</text>
<text x="417.07" y="65.54">*</text>
<text x="223.83" y="191.78">.</text>
<text x="384.74" y="179.51">.</text>
<text x="317.24" y="180.29">.</text>
<text x="237.59" y="480.08">.</text>
<text x="483.88" y="177.14">*</text>
<text x="225.83" y="135.04">+</text>
<text x="294.66" y="442.23">+</text>
<text x="371.74" y="436.34">.</text>
<text x="61.18" y="100.12">+</text>
<text x="471.97" y="364.55">*</text>
<text x="341.81" y="426.60">+</text>
<text x="95.40" y="485.66">*</text>
<text x="426.25" y="67.40">.</text>
<text x="195.55" y="484.29">+</text>
<text x="323.59" y="145.40">+</text>
<text x="193.02" y="171.39">+</text>
<text x="220.24" y="293.64">+</text>
<text x="315.98" y="305.60">.</text>
<text x="197.07" y="284.87">.</text>
<text x="439.13" y="427.84">.</text>
<text x="274.81" y="261.37">.</text>
<text x="243.16" y="180.27">+</text>
<text x="135.72" y="329.80">.</text>
<text x="234.00" y="12.38">+</text>
<text x="412.65" y="233.56">*</text>
<text x="371.16" y="206.47">+</text>
<text x="98.80" y="474.98">+</text>
<text x="374.61" y="470.12">.</text>
<text x="358.17" y="336.66">+</text>
<text x="447.66" y="182.13">+</text>
<text x="179.36" y="358.60">+</text>
<text x="197.44" y="324.79">*</text>
<text x="241.05" y="131.83">*</text>
<text x="236.62" y="266.31">*</text>
<text x="280.59" y="447.11">.</text>
<text x="377.71" y="265.33">.</text>
<text x="290.35" y="295.96">+</text>
<text x="339.22" y="260.92">.</text>
<text x="140.85" y="4.75">.</text>
<text x="189.57" y="420.20">+</text>
<text x="434.53" y="167.82">.</text>
<text x="293.25" y="326.04">+</text>
<text x="368.73" y="405.11">*</text>
<text x="287.59" y="123.21">.</text>
<text x="253.82" y="118.20">*</text>
<text x="471.13" y="128.91">.</text>
<text x="39.95" y="408.83">+</text>
<text x="265.32" y="93.21">*</text>
<text x="414.05" y="282.91">*</text>
<text x="205.75" y="239.38">.</text>
<text x="93.22" y="455.78">+</text>
<text x="436.29" y="329.24">.</text>
<text x="275.31" y="482.50">.</text>
<text x="490.06" y="249.24">.</text>
<text x="73.34" y="450.34">+</text>
<text x="153.63" y="341.66">*</text>
<text x="389.18" y="45.38">+</text>
<text x="498.92" y="245.59">.</text>
<text x="392.80" y="96.57">.</text>
<text x="453.65" y="21.36">.</text>
<text x="495.48" y="388.38">*</text>
<text x="142.22" y="232.03">.</text>

</svg>