
<svg viewBox="0 0 500 500" xmlns="http://www.w.org/2000/svg" width="100%" height="100%" style="background-color: #0a0a14; font-family: 'Courier New', Courier, monospace;">
    <style>
        text { fill: #aaa; font-size: 10px; text-anchor: middle; dominant-baseline: middle; }
    </style>
    <text x="30.45" y="240.53">.</text>
<text x="46.00" y="138.61">*</text>
<text x="446.07" y="243.10">+</text>
<text x="76.58" y="161.31">.</text>
<text x="141.56" y="454.53">+</text>
<text x="325.60" y="366.43">+</text>
<text x="128.63" y="7.73">.</text>
<text x="25.43" y="463.30">+</text>
<text x="337.29" y="262.08">*</text>
<text x="68.65" y="122.55">+</text>
<text x="184.38" y="385.89">.</text>
<text x="469.29" y="491.18">.</text>
<text x="306.91" y="15.01">.</text>
<text x="326.39" y="150.18">+</text>
<text x="458.79" y="442.29">+</text>
<text x="256.57" y="327.77">+</text>
<text x="148.34" y="236.12">+</text>
<text x="335.16" y="167.45">+</text>
<text x="254.13" y="94.17">+</text>
<text x="192.19" y="300.60">+</text>
<text x="291.07" y="444.59">+</text>
<text x="247.83" y="259.68">*</text>
<text x="268.41" y="476.67">+</text>
<text x="78.22" y="333.84">.</text>
<text x="263.73" y="341.38">.</text>
<text x="365.24" y="347.92">+</text>
<text x="420.22" y="370.02">.</text>
<text x="341.42" y="159.74">+</text>
<text x="254.44" y="187.68">.</text>
<text x="406.34" y="91.35">.</text>
<text x="190.27" y="14.97">.</text>
<text x="359.39" y="234.64">+</text>
<text x="333.33" y="348.44">*</text>
<text x="71.44" y="255.88">.</text>
<text x="395.27" y="35.17">.</text>
<text x="485.57" y="95.95">+</text>
<text x="200.67" y="294.47">+</text>
<text x="39.04" y="219.19">+</text>
<text x="49.69" y="272.25">.</text>
<text x="208.48" y="301.33">.</text>
<text x="113.45" y="409.75">.</text>
<text x="5.01" y="455.63">.</text>
<text x="187.45" y="261.91">*</text>
<text x="162.32" y="327.70">+</text>
<text x="289.52" y="340.33">+</text>
<text x="391.13" y="39.55">+</text>
<text x="369.10" y="79.04">.</text>
<text x="347.71" y="256.17">+</text>
<text x="249.12" y="446.59">.</text>
<text x="155.29" y="132.96">.</text>
<text x="57.52" y="97.92">.</text>
<text x="365.98" y="403.24">.</text>
<text x="62.97" y="194.34">.</text>
<text x="115.62" y="127.71">.</text>
<text x="138.58" y="347.76">+</text>
<text x="164.77" y="294.66">+</text>
<text x="429.36" y="97.11">+</text>
<text x="327.41" y="80.65">+</text>
<text x="182.58" y="244.37">+</text>
<text x="80.37" y="220.37">.</text>
<text x="180.43" y="314.57">.</text>
<text x="89.08" y="163.90">+</text>
<text x="186.02" y="279.42">*</text>
<text x="198.71" y="286.39">.</text>
<text x="9.25" y="164.28">.</text>
<text x="400.11" y="374.16">.</text>
<text x="156.21" y="317.24">+</text>
<text x="111.33" y="331.23">+</text>
<text x="408.68" y="198.00">+</text>
<text x="298.88" y="494.66">+</text>
<text x="287.03" y="482.02">.</text>
<text x="353.76" y="168.95">.</text>
<text x="200.45" y="38.23">*</text>
<text x="313.68" y="486.54">.</text>
<text x="242.06" y="263.81">+</text>
<text x="241.98" y="438.78">+</text>
<text x="316.27" y="219.79">.</text>
<text x="480.22" y="350.52">.</text>
<text x="310.00" y="230.59">*</text>
<text x="407.40" y="60.44">+</text>
<text x="180.22" y="445.86">+</text>
<text x="223.46" y="119.79">+</text>
<text x="18.43" y="492.15">.</text>
<text x="252.26" y="384.73">+</text>
<text x="201.34" y="241.11">+</text>
<text x="490.84" y="120.31">.</text>
<text x="384.99" y="41.80">.</text>
<text x="144.50" y="185.86">*</text>
<text x="279.94" y="254.18">.</text>
<text x="124.66" y="411.88">*</text>
<text x="66.49" y="67.43">.</text>
<text x="408.14" y="270.66">.</text>
<text x="401.91" y="141.22">+</text>
<text x="460.80" y="181.96">.</text>
<text x="238.03" y="406.96">.</text>
<text x="423.02" y="91.25">+</text>
<text x="17.41" y="183.25">+</text>
<text x="263.28" y="326.94">.</text>
<text x="176.83" y="282.83">.</text>
<text x="407.84" y="125.44">+</text>
<text x="208.16" y="356.38">+</text>
<text x="366.88" y="202.02">+</text>
<text x="8.06" y="379.63">+</text>
<text x="353.66" y="305.14">.</text>
<text x="141.88" y="300.63">+</text>
<text x="267.31" y="352.50">.</text>
<text x="3.49" y="421.83">.</text>
<text x="331.61" y="492.77">+</text>
<text x="175.41" y="71.21">+</text>
<text x="238.21" y="383.41">+</text>
<text x="318.02" y="35.60">.</text>
<text x="478.21" y="124.93">+</text>
<text x="454.07" y="152.11">.</text>
<text x="110.24" y="46.30">.</text>
<text x="351.94" y="11.86">.</text>
<text x="259.11" y="35.33">.</text>
<text x="118.65" y="247.64">.</text>
<text x="413.58" y="75.51">+</text>
<text x="478.38" y="475.41">+</text>
<text x="58.80" y="150.37">.</text>
<text x="130.64" y="174.26">+</text>
<text x="278.12" y="267.27">.</text>
<text x="242.21" y="291.40">+</text>
<text x="330.80" y="423.54">.</text>
<text x="280.07" y="111.35">.</text>
<text x="494.05" y="301.48">.</text>
<text x="11.66" y="221.23">.</text>
<text x="247.96" y="267.15">+</text>
<text x="100.06" y="132.22">*</text>
<text x="465.56" y="198.58">+</text>
<text x="248.47" y="321.00">+</text>
<text x="142.42" y="272.37">+</text>
<text x="172.47" y="40.63">+</text>
<text x="428.27" y="121.26">.</text>
<text x="186.97" y="97.98">.</text>
<text x="393.49" y="497.72">.</text>
<text x="443.94" y="355.37">*</text>
<text x="404.96" y="189.29">*</text>
<text x="232.49" y="207.13">+</text>
<text x="138.80" y="173.31">+</text>
<text x="392.06" y="443.84">+</text>
<text x="146.32" y="369.35">.</text>
<text x="12.91" y="368.24">+</text>
<text x="482.11" y="448.28">.</text>
<text x="408.78" y="169.11">+</text>
<text x="288.91" y="74.66">*</text>
<text x="376.69" y="139.93">.</text>
<text x="448.71" y="339.78">+</text>
<text x="138.79" y="226.00">+</text>
<text x="32.32" y="470.67">+</text>
<text x="261.80" y="499.14">.</text>
<text x="84.92" y="329.06">*</text>
<text x="404.73" y="307.68">+</text>
<text x="225.47" y="106.03">+</text>
<text x="219.47" y="124.67">+</text>
<text x="292.76" y="389.07">.</text>
<text x="317.35" y="306.82">.</text>
<text x="53.15" y="342.94">+</text>
<text x="91.14" y="73.86">.</text>
<text x="446.32" y="292.04">+</text>
<text x="95.69" y="56.01">+</text>
<text x="487.85" y="426.87">+</text>
<text x="449.64" y="69.06">.</text>
<text x="250.42" y="305.00">.</text>
<text x="270.81" y="71.66">+</text>
<text x="61.37" y="14.07">+</text>
<text x="378.01" y="352.22">*</text>
<text x="183.08" y="223.20">+</text>
<text x="343.28" y="84.92">*</text>
<text x="202.19" y="381.56">+</text>
<text x="326.06" y="259.59">+</text>
<text x="266.75" y="373.81">.</text>
<text x="405.30" y="15.38">*</text>
<text x="316.50" y="346.17">+</text>
<text x="5.07" y="431.50">.</text>
<text x="216.16" y="190.17">.</text>
<text x="312.12" y="286.66">+</text>
<text x="345.91" y="164.01">+</text>
<text x="199.77" y="309.12">.</text>
<text x="365.31" y="61.19">+</text>
<text x="313.98" y="61.44">+</text>
<text x="103.27" y="156.25">.</text>
<text x="186.03" y="318.09">.</text>
<text x="211.31" y="456.83">*</text>
<text x="388.56" y="44.71">*</text>
<text x="184.19" y="49.36">.</text>
<text x="61.91" y="305.78">+</text>
<text x="491.26" y="256.19">*</text>
<text x="43.39" y="148.75">*</text>
<text x="260.20" y="450.45">.</text>
<text x="105.60" y="236.74">+</text>
<text x="495.81" y="276.18">.</text>
<text x="180.75" y="297.31">.</text>
<text x="358.42" y="149.60">.</text>
<text x="137.25" y="473.03">*</text>
<text x="273.79" y="139.91">.</text>
<text x="437.80" y="471.20">.</text>
<text x="53.10" y="71.84">*</text>
<text x="131.35" y="136.36">+</text>
<text x="202.59" y="55.77">.</text>
<text x="219.55" y="169.94">.</text>
<text x="160.61" y="211.47">*</text>

</svg>