
<svg viewBox="0 0 500 500" xmlns="http://www.w.org/2000/svg" width="100%" height="100%" style="background-color: #0a0a14; font-family: 'Courier New', Courier, monospace;">
    <style>
        text { fill: #aaa; font-size: 10px; text-anchor: middle; dominant-baseline: middle; }
    </style>
    <text x="322.05" y="291.29">.</text>
<text x="346.57" y="67.12">*</text>
<text x="348.15" y="372.82">.</text>
<text x="185.36" y="380.01">.</text>
<text x="138.21" y="169.14">+</text>
<text x="131.71" y="176.63">.</text>
<text x="123.87" y="270.03">+</text>
<text x="335.50" y="340.90">.</text>
<text x="259.30" y="302.77">+</text>
<text x="144.57" y="321.52">.</text>
<text x="367.92" y="376.57">.</text>
<text x="333.92" y="462.22">+</text>
<text x="281.50" y="278.51">.</text>
<text x="274.37" y="396.20">+</text>
<text x="497.84" y="347.88">+</text>
<text x="133.19" y="169.43">.</text>
<text x="460.46" y="170.83">.</text>
<text x="117.16" y="13.42">+</text>
<text x="74.54" y="63.47">+</text>
<text x="352.61" y="101.70">.</text>
<text x="377.03" y="270.72">*</text>
<text x="282.14" y="365.93">*</text>
<text x="262.23" y="97.85">+</text>
<text x="344.68" y="467.51">+</text>
<text x="316.17" y="32.50">.</text>
<text x="140.12" y="270.82">.</text>
<text x="266.76" y="300.35">*</text>
<text x="119.41" y="83.81">.</text>
<text x="225.99" y="179.21">+</text>
<text x="498.22" y="193.70">.</text>
<text x="65.65" y="191.88">+</text>
<text x="228.60" y="16.97">+</text>
<text x="257.41" y="464.71">.</text>
<text x="230.03" y="410.04">+</text>
<text x="335.09" y="435.59">*</text>
<text x="52.78" y="257.42">.</text>
<text x="81.72" y="100.62">*</text>
<text x="58.85" y="467.77">*</text>
<text x="448.92" y="411.81">+</text>
<text x="369.48" y="117.32">.</text>
<text x="140.53" y="349.06">.</text>
<text x="244.71" y="286.24">+</text>
<text x="23.21" y="455.93">+</text>
<text x="341.34" y="269.20">.</text>
<text x="481.46" y="267.79">.</text>
<text x="383.60" y="443.25">+</text>
<text x="203.67" y="83.89">+</text>
<text x="205.30" y="114.44">*</text>
<text x="285.33" y="470.75">+</text>
<text x="409.95" y="222.12">+</text>
<text x="350.23" y="289.57">.</text>
<text x="456.98" y="353.51">+</text>
<text x="313.44" y="42.98">*</text>
<text x="11.20" y="135.22">+</text>
<text x="35.99" y="348.68">+</text>
<text x="416.95" y="285.65">.</text>
<text x="456.70" y="179.01">.</text>
<text x="14.76" y="359.61">+</text>
<text x="477.58" y="107.10">.</text>
<text x="333.96" y="357.90">.</text>
<text x="287.93" y="42.25">.</text>
<text x="340.68" y="492.96">.</text>
<text x="198.70" y="182.74">+</text>
<text x="489.55" y="433.50">.</text>
<text x="181.94" y="146.07">+</text>
<text x="499.45" y="87.34">+</text>
<text x="124.18" y="138.24">*</text>
<text x="332.89" y="289.41">.</text>
<text x="154.97" y="167.50">.</text>
<text x="392.77" y="153.52">+</text>
<text x="29.94" y="411.74">.</text>
<text x="483.84" y="24.62">*</text>
<text x="329.60" y="491.51">.</text>
<text x="252.93" y="9.79">.</text>
<text x="224.95" y="347.89">+</text>
<text x="187.96" y="267.32">+</text>
<text x="74.70" y="353.30">*</text>
<text x="314.60" y="193.82">.</text>
<text x="26.93" y="132.73">.</text>
<text x="357.31" y="123.40">.</text>
<text x="482.26" y="156.97">+</text>
<text x="183.78" y="426.73">+</text>
<text x="225.02" y="230.65">+</text>
<text x="127.51" y="109.77">+</text>
<text x="492.61" y="68.49">.</text>
<text x="94.61" y="298.88">+</text>
<text x="454.98" y="40.27">.</text>
<text x="51.70" y="199.92">.</text>
<text x="494.41" y="437.58">.</text>
<text x="19.53" y="33.05">+</text>
<text x="479.10" y="464.22">.</text>
<text x="209.00" y="361.24">+</text>
<text x="94.22" y="102.55">.</text>
<text x="89.01" y="9.13">.</text>
<text x="315.81" y="27.97">+</text>
<text x="443.82" y="432.53">+</text>
<text x="366.39" y="396.93">.</text>
<text x="351.77" y="85.82">.</text>
<text x="191.56" y="273.51">.</text>
<text x="306.34" y="179.57">.</text>
<text x="412.51" y="486.45">.</text>
<text x="2.75" y="261.43">+</text>
<text x="74.23" y="103.86">+</text>
<text x="149.97" y="112.38">+</text>
<text x="290.52" y="408.95">.</text>
<text x="132.94" y="236.94">*</text>
<text x="295.35" y="453.90">+</text>
<text x="441.95" y="270.04">.</text>
<text x="203.96" y="341.97">+</text>
<text x="296.25" y="202.86">+</text>
<text x="60.55" y="391.38">+</text>
<text x="160.19" y="478.81">+</text>
<text x="137.02" y="95.48">+</text>
<text x="388.04" y="205.16">.</text>
<text x="426.22" y="356.39">*</text>
<text x="238.26" y="489.89">.</text>
<text x="311.37" y="90.55">+</text>
<text x="212.04" y="106.89">.</text>
<text x="441.45" y="448.53">+</text>
<text x="43.49" y="0.03">+</text>
<text x="172.46" y="51.43">+</text>
<text x="465.80" y="308.94">*</text>
<text x="492.87" y="23.46">+</text>
<text x="86.77" y="300.34">+</text>
<text x="171.74" y="134.18">.</text>
<text x="157.79" y="50.88">*</text>
<text x="198.81" y="145.84">.</text>
<text x="53.94" y="392.26">*</text>
<text x="386.12" y="342.18">.</text>
<text x="394.26" y="346.44">+</text>
<text x="395.43" y="264.90">+</text>
<text x="166.00" y="11.49">.</text>
<text x="434.68" y="188.24">+</text>
<text x="297.77" y="110.13">+</text>
<text x="17.52" y="154.72">+</text>
<text x="282.43" y="498.85">+</text>
<text x="218.60" y="418.40">+</text>
<text x="447.12" y="34.14">.</text>
<text x="218.28" y="57.21">.</text>
<text x="463.83" y="157.92">.</text>
<text x="272.28" y="105.01">+</text>
<text x="0.06" y="291.45">+</text>
<text x="0.52" y="53.79">.</text>
<text x="153.09" y="439.69">+</text>
<text x="168.93" y="239.87">.</text>
<text x="306.57" y="359.80">*</text>
<text x="256.71" y="325.27">.</text>
<text x="170.64" y="251.10">.</text>
<text x="380.10" y="437.59">.</text>
<text x="388.08" y="293.89">*</text>
<text x="287.93" y="122.42">+</text>
<text x="135.03" y="0.95">+</text>
<text x="268.78" y="451.02">.</text>
<text x="471.78" y="0.34">.</text>
<text x="456.67" y="188.39">+</text>
<text x="250.37" y="69.44">+</text>
<text x="272.11" y="389.63">.</text>
<text x="102.60" y="455.26">+</text>
<text x="82.05" y="403.28">+</text>
<text x="41.83" y="274.94">.</text>
<text x="125.62" y="419.41">.</text>
<text x="318.68" y="487.66">.</text>
<text x="83.47" y="15.16">+</text>
<text x="461.88" y="226.23">+</text>
<text x="357.23" y="355.66">+</text>
<text x="394.63" y="55.77">+</text>
<text x="205.85" y="308.17">.</text>
<text x="496.32" y="231.40">.</text>
<text x="424.46" y="367.11">+</text>
<text x="325.25" y="101.25">*</text>
<text x="57.50" y="198.11">+</text>
<text x="102.10" y="382.60">+</text>
<text x="25.35" y="194.85">.</text>
<text x="82.46" y="193.41">*</text>
<text x="1.76" y="388.64">+</text>
<text x="369.07" y="495.88">.</text>
<text x="493.44" y="289.26">+</text>
<text x="118.07" y="282.48">+</text>
<text x="472.67" y="170.57">.</text>
<text x="197.40" y="168.31">*</text>
<text x="96.10" y="294.21">.</text>
<text x="315.65" y="411.25">.</text>
<text x="90.56" y="284.19">.</text>
<text x="146.09" y="227.33">.</text>
<text x="132.65" y="160.49">+</text>
<text x="294.37" y="442.29">*</text>
<text x="95.65" y="382.17">+</text>
<text x="29.11" y="78.69">.</text>
<text x="12.46" y="390.99">.</text>
<text x="293.76" y="281.98">+</text>
<text x="170.56" y="53.34">+</text>
<text x="74.23" y="467.19">+</text>
<text x="120.00" y="67.48">+</text>
<text x="467.06" y="258.95">.</text>
<text x="163.38" y="92.33">.</text>
<text x="168.10" y="76.90">+</text>
<text x="483.94" y="352.33">+</text>
<text x="359.56" y="187.60">.</text>
<text x="95.80" y="256.04">+</text>
<text x="246.63" y="439.15">.</text>
<text x="283.18" y="271.80">+</text>
<text x="222.43" y="194.78">.</text>
<text x="304.49" y="242.72">+</text>
<text x="241.18" y="108.30">+</text>
<text x="364.48" y="54.31">+</text>
<text x="316.63" y="459.46">*</text>
<text x="306.97" y="140.86">+</text>
<text x="14.66" y="35.98">*</text>
<text x="471.90" y="348.78">+</text>
<text x="377.15" y="475.62">+</text>
<text x="390.88" y="185.08">.</text>
<text x="60.37" y="122.46">+</text>
<text x="325.65" y="311.79">.</text>
<text x="471.85" y="415.90">.</text>
<text x="308.89" y="481.81">+</text>
<text x="232.52" y="144.90">+</text>
<text x="44.39" y="108.79">*</text>
<text x="252.61" y="344.06">+</text>
<text x="83.40" y="495.95">+</text>
<text x="111.07" y="145.30">.</text>

</svg>