
<svg viewBox="0 0 500 500" xmlns="http://www.w.org/2000/svg" width="100%" height="100%" style="background-color: #0a0a14; font-family: 'Courier New', Courier, monospace;">
    <style>
        text { fill: #aaa; font-size: 10px; text-anchor: middle; dominant-baseline: middle; }
    </style>
    <text x="32.84" y="188.02">+</text>
<text x="381.69" y="68.01">.</text>
<text x="361.46" y="185.46">.</text>
<text x="228.00" y="415.49">.</text>
<text x="315.97" y="357.11">.</text>
<text x="498.24" y="339.11">.</text>
<text x="182.82" y="189.88">+</text>
<text x="158.35" y="25.89">+</text>
<text x="61.92" y="23.71">.</text>
<text x="391.37" y="417.32">.</text>
<text x="113.28" y="423.97">.</text>
<text x="64.85" y="291.42">*</text>
<text x="294.94" y="107.72">.</text>
<text x="289.93" y="218.17">.</text>
<text x="442.12" y="430.09">+</text>
<text x="271.33" y="331.47">*</text>
<text x="278.23" y="16.19">+</text>
<text x="148.98" y="454.16">.</text>
<text x="145.41" y="462.88">.</text>
<text x="446.75" y="131.95">.</text>
<text x="350.23" y="17.95">*</text>
<text x="123.79" y="139.68">+</text>
<text x="165.84" y="369.62">.</text>
<text x="304.88" y="268.32">.</text>
<text x="380.60" y="383.10">.</text>
<text x="204.44" y="196.68">+</text>
<text x="476.38" y="76.30">+</text>
<text x="240.49" y="129.66">.</text>
<text x="254.12" y="54.82">+</text>
<text x="405.77" y="81.44">.</text>
<text x="179.88" y="242.07">*</text>
<text x="348.82" y="130.55">+</text>
<text x="126.53" y="56.87">+</text>
<text x="256.20" y="48.46">+</text>
<text x="432.67" y="162.57">.</text>
<text x="214.65" y="497.73">+</text>
<text x="469.47" y="311.91">.</text>
<text x="461.61" y="85.37">.</text>
<text x="391.76" y="352.24">+</text>
<text x="296.97" y="262.24">.</text>
<text x="148.51" y="178.41">+</text>
<text x="85.24" y="111.03">.</text>
<text x="381.19" y="478.31">.</text>
<text x="384.40" y="429.13">.</text>
<text x="454.64" y="407.16">.</text>
<text x="434.56" y="405.83">*</text>
<text x="472.09" y="52.29">.</text>
<text x="82.88" y="459.78">+</text>
<text x="101.88" y="173.76">+</text>
<text x="76.37" y="53.37">.</text>
<text x="246.10" y="106.62">.</text>
<text x="449.46" y="442.49">+</text>
<text x="372.83" y="153.08">*</text>
<text x="70.83" y="197.48">+</text>
<text x="169.11" y="204.76">.</text>
<text x="33.86" y="7.18">+</text>
<text x="142.48" y="263.40">+</text>
<text x="117.49" y="429.79">.</text>
<text x="495.34" y="387.02">+</text>
<text x="371.57" y="63.09">*</text>
<text x="157.76" y="444.85">.</text>
<text x="182.75" y="30.11">.</text>
<text x="83.14" y="172.05">+</text>
<text x="380.09" y="307.18">+</text>
<text x="378.64" y="45.46">*</text>
<text x="47.38" y="378.60">.</text>
<text x="483.58" y="71.61">.</text>
<text x="405.70" y="107.22">.</text>
<text x="57.32" y="284.40">.</text>
<text x="441.20" y="78.45">.</text>
<text x="173.62" y="420.21">*</text>
<text x="357.04" y="248.11">.</text>
<text x="328.71" y="14.24">+</text>
<text x="19.35" y="152.02">.</text>
<text x="328.98" y="237.76">.</text>
<text x="154.04" y="94.10">+</text>
<text x="436.17" y="412.41">.</text>
<text x="128.21" y="347.42">*</text>
<text x="150.51" y="368.00">+</text>
<text x="51.64" y="364.69">*</text>
<text x="42.52" y="456.62">*</text>
<text x="296.49" y="251.93">.</text>
<text x="322.31" y="132.94">+</text>
<text x="103.17" y="346.67">+</text>
<text x="148.43" y="353.29">+</text>
<text x="43.45" y="416.49">+</text>
<text x="162.87" y="208.09">*</text>
<text x="233.88" y="97.13">.</text>
<text x="234.64" y="282.90">+</text>
<text x="161.81" y="317.77">+</text>
<text x="417.25" y="195.16">+</text>
<text x="106.08" y="287.96">+</text>
<text x="351.92" y="151.03">+</text>
<text x="132.56" y="244.27">+</text>
<text x="276.11" y="474.97">.</text>
<text x="309.33" y="9.96">+</text>
<text x="174.06" y="192.25">.</text>
<text x="226.12" y="298.88">.</text>
<text x="354.68" y="488.47">+</text>
<text x="308.10" y="165.84">+</text>
<text x="364.01" y="190.12">+</text>
<text x="178.65" y="223.56">+</text>
<text x="349.77" y="260.56">+</text>
<text x="322.63" y="78.63">+</text>
<text x="497.71" y="203.81">+</text>
<text x="262.37" y="236.61">+</text>
<text x="345.55" y="173.68">.</text>
<text x="80.61" y="169.26">+</text>
<text x="474.74" y="226.43">*</text>
<text x="183.60" y="124.58">.</text>
<text x="97.31" y="36.44">+</text>
<text x="139.12" y="7.98">+</text>
<text x="125.78" y="359.96">+</text>
<text x="334.28" y="491.33">+</text>
<text x="466.93" y="97.02">.</text>
<text x="151.82" y="393.63">+</text>
<text x="484.43" y="371.30">+</text>
<text x="135.53" y="443.89">.</text>
<text x="347.93" y="158.10">.</text>
<text x="280.18" y="47.30">*</text>
<text x="21.84" y="416.33">.</text>
<text x="411.69" y="186.28">.</text>
<text x="471.64" y="169.22">+</text>
<text x="369.60" y="119.11">.</text>
<text x="393.99" y="442.24">.</text>
<text x="197.84" y="62.93">.</text>
<text x="287.40" y="489.35">+</text>
<text x="440.80" y="48.68">+</text>
<text x="340.69" y="203.87">.</text>
<text x="261.29" y="456.95">+</text>
<text x="389.39" y="244.20">*</text>
<text x="181.41" y="319.81">.</text>
<text x="145.54" y="466.43">+</text>
<text x="9.51" y="52.55">.</text>
<text x="137.64" y="495.71">*</text>
<text x="415.13" y="138.82">+</text>
<text x="54.28" y="138.68">+</text>
<text x="80.84" y="332.36">.</text>
<text x="48.40" y="24.01">.</text>
<text x="273.78" y="21.49">+</text>
<text x="475.63" y="117.04">+</text>
<text x="237.59" y="297.63">*</text>
<text x="135.86" y="412.65">*</text>
<text x="454.35" y="33.10">+</text>
<text x="414.88" y="283.02">.</text>
<text x="440.33" y="396.56">.</text>
<text x="476.15" y="73.27">*</text>
<text x="88.84" y="313.33">.</text>
<text x="111.71" y="138.97">*</text>
<text x="135.66" y="374.68">+</text>
<text x="128.70" y="35.45">*</text>
<text x="28.40" y="244.04">+</text>
<text x="463.72" y="121.81">*</text>
<text x="183.22" y="80.68">+</text>
<text x="281.78" y="418.49">*</text>
<text x="410.28" y="129.66">+</text>
<text x="413.12" y="383.90">+</text>
<text x="478.37" y="342.66">.</text>
<text x="145.32" y="312.51">.</text>
<text x="397.33" y="106.87">.</text>
<text x="298.99" y="193.35">.</text>
<text x="158.17" y="353.88">+</text>
<text x="371.14" y="240.95">+</text>
<text x="128.66" y="194.44">.</text>
<text x="328.34" y="104.52">.</text>
<text x="22.53" y="425.75">.</text>
<text x="387.75" y="124.04">*</text>
<text x="299.10" y="396.06">.</text>
<text x="21.98" y="47.25">.</text>
<text x="433.42" y="359.19">*</text>
<text x="129.94" y="260.02">*</text>
<text x="64.77" y="34.39">*</text>
<text x="60.74" y="34.01">+</text>
<text x="194.01" y="392.78">.</text>
<text x="94.28" y="255.70">.</text>
<text x="302.85" y="314.03">.</text>
<text x="422.39" y="302.64">+</text>
<text x="242.26" y="12.69">+</text>
<text x="284.99" y="223.38">+</text>
<text x="141.34" y="333.31">.</text>
<text x="426.65" y="116.84">.</text>
<text x="27.06" y="492.62">+</text>
<text x="136.74" y="294.90">.</text>
<text x="238.52" y="198.87">+</text>
<text x="486.58" y="358.57">.</text>
<text x="63.76" y="473.26">+</text>
<text x="40.16" y="376.35">.</text>
<text x="43.93" y="123.55">*</text>
<text x="190.72" y="316.81">.</text>
<text x="238.89" y="352.03">+</text>
<text x="163.33" y="290.08">*</text>
<text x="406.51" y="46.47">+</text>
<text x="495.85" y="21.80">*</text>
<text x="141.72" y="261.58">+</text>
<text x="284.26" y="471.06">*</text>
<text x="479.58" y="485.04">.</text>
<text x="30.16" y="159.84">*</text>
<text x="496.48" y="9.09">.</text>
<text x="488.47" y="126.49">+</text>
<text x="42.21" y="258.41">.</text>
<text x="441.14" y="456.56">*</text>
<text x="104.58" y="236.14">+</text>
<text x="181.54" y="11.00">+</text>
<text x="381.24" y="323.91">.</text>
<text x="63.99" y="403.68">+</text>

</svg>