
<svg viewBox="0 0 500 500" xmlns="http://www.w.org/2000/svg" width="100%" height="100%" style="background-color: #0a0a14; font-family: 'Courier New', Courier, monospace;">
    <style>
        text { fill: #aaa; font-size: 10px; text-anchor: middle; dominant-baseline: middle; }
    </style>
    <text x="62.11" y="313.76">.</text>
<text x="373.98" y="136.44">.</text>
<text x="89.02" y="398.22">.</text>
<text x="342.03" y="497.71">+</text>
<text x="167.72" y="184.30">+</text>
<text x="282.66" y="417.94">+</text>
<text x="348.80" y="215.75">*</text>
<text x="397.89" y="17.94">.</text>
<text x="362.56" y="461.79">.</text>
<text x="369.32" y="444.11">.</text>
<text x="253.23" y="300.10">*</text>
<text x="240.23" y="449.99">*</text>
<text x="326.37" y="350.74">+</text>
<text x="8.61" y="137.60">.</text>
<text x="204.17" y="163.55">+</text>
<text x="50.48" y="492.88">+</text>
<text x="90.37" y="36.52">+</text>
<text x="333.81" y="336.33">.</text>
<text x="133.32" y="299.43">.</text>
<text x="337.22" y="94.22">.</text>
<text x="222.35" y="225.50">+</text>
<text x="439.06" y="210.47">+</text>
<text x="46.31" y="242.66">.</text>
<text x="121.88" y="175.26">.</text>
<text x="329.52" y="39.94">+</text>
<text x="482.20" y="0.66">.</text>
<text x="442.34" y="248.72">+</text>
<text x="388.90" y="283.73">+</text>
<text x="461.75" y="325.02">+</text>
<text x="358.97" y="82.20">.</text>
<text x="432.45" y="491.12">*</text>
<text x="136.70" y="445.23">+</text>
<text x="203.44" y="216.78">+</text>
<text x="217.89" y="69.12">.</text>
<text x="168.20" y="67.09">.</text>
<text x="417.56" y="289.61">.</text>
<text x="369.88" y="124.60">.</text>
<text x="443.75" y="353.73">*</text>
<text x="329.03" y="41.44">.</text>
<text x="16.82" y="245.06">.</text>
<text x="377.84" y="137.21">+</text>
<text x="206.67" y="411.14">+</text>
<text x="251.07" y="220.64">+</text>
<text x="80.74" y="384.56">+</text>
<text x="298.12" y="41.51">.</text>
<text x="218.86" y="444.43">+</text>
<text x="474.38" y="361.43">+</text>
<text x="213.83" y="411.17">.</text>
<text x="350.38" y="196.15">+</text>
<text x="83.22" y="464.75">+</text>
<text x="149.35" y="198.85">+</text>
<text x="317.54" y="163.40">.</text>
<text x="95.82" y="283.45">.</text>
<text x="387.65" y="370.77">+</text>
<text x="424.61" y="354.78">.</text>
<text x="163.52" y="193.11">+</text>
<text x="327.90" y="152.93">+</text>
<text x="75.01" y="389.74">.</text>
<text x="418.19" y="315.51">.</text>
<text x="306.96" y="431.15">.</text>
<text x="167.22" y="184.25">.</text>
<text x="276.33" y="194.41">+</text>
<text x="364.34" y="465.17">*</text>
<text x="190.07" y="58.38">.</text>
<text x="104.58" y="118.87">*</text>
<text x="444.64" y="235.06">.</text>
<text x="233.74" y="78.39">.</text>
<text x="373.42" y="75.86">.</text>
<text x="83.28" y="170.84">.</text>
<text x="8.50" y="361.86">+</text>
<text x="30.06" y="26.63">+</text>
<text x="43.04" y="309.11">+</text>
<text x="168.06" y="394.05">.</text>
<text x="98.71" y="415.62">+</text>
<text x="246.88" y="296.40">.</text>
<text x="18.66" y="212.19">+</text>
<text x="266.54" y="417.65">.</text>
<text x="111.05" y="380.46">*</text>
<text x="139.32" y="290.66">+</text>
<text x="32.74" y="49.29">.</text>
<text x="229.83" y="493.89">.</text>
<text x="163.15" y="345.15">*</text>
<text x="350.92" y="71.09">+</text>
<text x="284.65" y="24.36">+</text>
<text x="25.11" y="171.18">+</text>
<text x="23.69" y="499.56">*</text>
<text x="62.57" y="6.36">+</text>
<text x="485.78" y="461.03">.</text>
<text x="331.12" y="114.61">.</text>
<text x="329.94" y="486.03">.</text>
<text x="450.30" y="285.24">*</text>
<text x="225.31" y="245.78">*</text>
<text x="331.75" y="186.19">+</text>
<text x="199.59" y="198.53">.</text>
<text x="190.20" y="272.41">.</text>
<text x="73.50" y="355.31">.</text>
<text x="271.31" y="89.14">.</text>
<text x="495.28" y="95.61">*</text>
<text x="22.74" y="242.80">+</text>
<text x="214.97" y="431.15">.</text>
<text x="246.04" y="404.41">*</text>
<text x="474.14" y="79.88">*</text>
<text x="203.93" y="464.60">+</text>
<text x="83.04" y="262.85">+</text>
<text x="87.13" y="76.60">+</text>
<text x="11.87" y="230.93">.</text>
<text x="202.60" y="489.34">.</text>
<text x="142.26" y="484.95">+</text>
<text x="377.37" y="199.26">.</text>
<text x="371.04" y="465.21">+</text>
<text x="176.46" y="400.64">.</text>
<text x="282.31" y="33.74">+</text>
<text x="108.76" y="427.64">.</text>
<text x="187.52" y="326.20">+</text>
<text x="147.48" y="364.44">+</text>
<text x="56.48" y="123.30">.</text>
<text x="338.58" y="279.73">+</text>
<text x="142.97" y="333.13">+</text>
<text x="2.89" y="238.00">+</text>
<text x="489.43" y="323.88">.</text>
<text x="240.19" y="271.00">+</text>
<text x="416.71" y="196.31">+</text>
<text x="243.85" y="427.04">*</text>
<text x="247.70" y="99.44">*</text>
<text x="48.17" y="399.49">.</text>
<text x="96.02" y="121.67">+</text>
<text x="203.11" y="481.47">+</text>
<text x="357.88" y="176.13">.</text>
<text x="89.55" y="321.07">.</text>
<text x="44.31" y="453.86">+</text>
<text x="217.45" y="18.93">.</text>
<text x="7.53" y="244.97">+</text>
<text x="370.40" y="411.12">.</text>
<text x="443.08" y="153.68">+</text>
<text x="456.17" y="483.80">+</text>
<text x="223.83" y="63.96">.</text>
<text x="360.78" y="339.83">.</text>
<text x="346.73" y="199.71">.</text>
<text x="124.09" y="415.49">+</text>
<text x="420.25" y="157.18">.</text>
<text x="431.82" y="265.22">*</text>
<text x="68.31" y="467.68">.</text>
<text x="465.85" y="408.61">+</text>
<text x="310.77" y="497.38">.</text>
<text x="107.70" y="207.47">.</text>
<text x="391.21" y="18.40">+</text>
<text x="198.43" y="205.65">+</text>
<text x="167.58" y="274.49">.</text>
<text x="230.14" y="279.89">+</text>
<text x="149.76" y="371.82">+</text>
<text x="344.26" y="494.15">.</text>
<text x="0.99" y="305.88">.</text>
<text x="431.46" y="214.44">+</text>
<text x="129.28" y="359.63">+</text>
<text x="100.99" y="152.60">+</text>
<text x="123.91" y="181.86">+</text>
<text x="243.11" y="452.89">+</text>
<text x="104.93" y="189.25">+</text>
<text x="0.67" y="343.07">*</text>
<text x="70.34" y="358.80">.</text>
<text x="366.95" y="498.26">+</text>
<text x="329.71" y="287.72">+</text>
<text x="493.87" y="236.07">*</text>
<text x="25.23" y="92.50">.</text>
<text x="110.40" y="452.71">.</text>
<text x="50.81" y="351.22">.</text>
<text x="26.11" y="279.78">.</text>
<text x="143.90" y="307.92">.</text>
<text x="34.52" y="293.50">+</text>
<text x="127.34" y="346.95">*</text>
<text x="148.55" y="380.64">.</text>
<text x="64.69" y="193.21">.</text>
<text x="65.81" y="461.41">+</text>
<text x="203.52" y="355.84">+</text>
<text x="107.03" y="237.87">*</text>
<text x="336.89" y="437.85">+</text>
<text x="199.15" y="467.09">+</text>
<text x="148.09" y="38.58">.</text>
<text x="403.43" y="20.32">.</text>
<text x="229.04" y="297.70">+</text>
<text x="334.28" y="452.67">.</text>
<text x="85.35" y="7.13">*</text>
<text x="157.27" y="49.89">+</text>
<text x="142.89" y="129.20">+</text>
<text x="324.77" y="302.96">.</text>
<text x="3.26" y="311.88">+</text>
<text x="182.63" y="5.27">+</text>
<text x="367.39" y="186.85">*</text>
<text x="403.94" y="95.38">+</text>
<text x="405.58" y="109.31">.</text>
<text x="383.84" y="417.26">+</text>
<text x="436.54" y="238.04">*</text>
<text x="291.64" y="97.20">*</text>
<text x="112.48" y="472.00">*</text>
<text x="399.12" y="283.74">.</text>
<text x="339.70" y="385.95">*</text>
<text x="43.01" y="364.50">.</text>
<text x="341.15" y="17.09">+</text>
<text x="485.32" y="134.17">+</text>

</svg>