
<svg viewBox="0 0 500 500" xmlns="http://www.w.org/2000/svg" width="100%" height="100%" style="background-color: #0a0a14; font-family: 'Courier New', Courier, monospace;">
    <style>
        text { fill: #aaa; font-size: 10px; text-anchor: middle; dominant-baseline: middle; }
    </style>
    <text x="334.41" y="135.91">*</text>
<text x="425.65" y="331.02">.</text>
<text x="191.75" y="291.80">.</text>
<text x="90.80" y="398.94">.</text>
<text x="482.12" y="109.45">+</text>
<text x="117.08" y="59.27">+</text>
<text x="154.53" y="239.01">+</text>
<text x="168.58" y="323.51">+</text>
<text x="47.01" y="339.98">+</text>
<text x="467.10" y="146.95">.</text>
<text x="16.51" y="368.01">*</text>
<text x="233.27" y="434.75">*</text>
<text x="226.24" y="375.07">+</text>
<text x="36.76" y="399.46">.</text>
<text x="220.24" y="50.40">.</text>
<text x="183.91" y="358.20">*</text>
<text x="72.46" y="425.35">.</text>
<text x="112.96" y="440.85">.</text>
<text x="459.71" y="205.62">+</text>
<text x="450.73" y="370.68">.</text>
<text x="330.19" y="489.45">*</text>
<text x="66.73" y="444.90">.</text>
<text x="329.41" y="333.93">.</text>
<text x="409.81" y="421.43">+</text>
<text x="308.41" y="182.80">+</text>
<text x="283.29" y="134.14">.</text>
<text x="271.81" y="484.67">+</text>
<text x="19.01" y="311.35">.</text>
<text x="264.68" y="405.73">.</text>
<text x="119.64" y="107.46">+</text>
<text x="42.52" y="353.94">*</text>
<text x="66.00" y="190.10">*</text>
<text x="146.06" y="488.22">+</text>
<text x="16.18" y="71.93">+</text>
<text x="445.01" y="249.88">.</text>
<text x="366.64" y="422.96">.</text>
<text x="276.65" y="278.78">.</text>
<text x="69.76" y="487.87">*</text>
<text x="462.74" y="483.47">.</text>
<text x="373.28" y="179.31">.</text>
<text x="181.36" y="284.99">.</text>
<text x="225.86" y="431.40">+</text>
<text x="413.53" y="218.10">.</text>
<text x="155.27" y="124.43">+</text>
<text x="418.61" y="491.83">*</text>
<text x="264.49" y="447.09">*</text>
<text x="341.79" y="4.54">+</text>
<text x="121.56" y="14.35">.</text>
<text x="362.20" y="81.17">.</text>
<text x="189.44" y="228.07">.</text>
<text x="224.00" y="387.19">.</text>
<text x="122.40" y="403.64">.</text>
<text x="48.81" y="446.36">.</text>
<text x="57.14" y="97.46">*</text>
<text x="394.97" y="237.52">+</text>
<text x="168.74" y="233.88">+</text>
<text x="74.94" y="311.32">+</text>
<text x="375.99" y="467.44">*</text>
<text x="14.01" y="2.35">.</text>
<text x="280.16" y="96.51">+</text>
<text x="3.30" y="465.21">*</text>
<text x="25.54" y="457.36">+</text>
<text x="134.02" y="471.23">+</text>
<text x="440.92" y="205.58">*</text>
<text x="259.47" y="432.45">.</text>
<text x="412.26" y="271.09">+</text>
<text x="143.69" y="472.91">.</text>
<text x="337.74" y="252.20">+</text>
<text x="209.49" y="426.75">.</text>
<text x="353.47" y="449.65">.</text>
<text x="209.00" y="263.66">.</text>
<text x="210.73" y="241.89">.</text>
<text x="178.27" y="348.99">+</text>
<text x="175.47" y="480.74">+</text>
<text x="301.63" y="338.75">.</text>
<text x="129.36" y="369.48">*</text>
<text x="471.57" y="466.74">*</text>
<text x="23.51" y="64.05">*</text>
<text x="74.72" y="114.11">.</text>
<text x="471.06" y="226.55">.</text>
<text x="53.20" y="356.52">.</text>
<text x="325.62" y="18.08">.</text>
<text x="159.29" y="461.48">.</text>
<text x="446.37" y="50.50">*</text>
<text x="232.41" y="37.66">*</text>
<text x="150.70" y="224.33">.</text>
<text x="144.31" y="65.66">.</text>
<text x="82.79" y="58.60">+</text>
<text x="220.36" y="60.62">*</text>
<text x="181.71" y="428.07">+</text>
<text x="90.79" y="18.83">.</text>
<text x="103.30" y="393.12">.</text>
<text x="469.78" y="344.68">*</text>
<text x="57.98" y="348.65">*</text>
<text x="300.29" y="168.21">*</text>
<text x="124.18" y="258.43">.</text>
<text x="327.87" y="367.57">.</text>
<text x="353.62" y="310.75">.</text>
<text x="291.07" y="100.82">+</text>
<text x="342.41" y="154.61">+</text>
<text x="180.04" y="313.15">+</text>
<text x="316.02" y="11.99">.</text>
<text x="105.94" y="488.90">+</text>
<text x="150.29" y="183.83">+</text>
<text x="159.14" y="54.16">.</text>
<text x="358.21" y="289.69">.</text>
<text x="410.75" y="242.74">.</text>
<text x="123.63" y="398.17">+</text>
<text x="57.26" y="1.56">+</text>
<text x="126.89" y="281.70">.</text>
<text x="141.22" y="131.75">*</text>
<text x="261.99" y="371.12">+</text>
<text x="282.48" y="147.25">*</text>
<text x="77.48" y="270.35">+</text>
<text x="439.46" y="211.84">.</text>
<text x="393.66" y="238.80">.</text>
<text x="405.42" y="248.85">+</text>
<text x="343.63" y="466.56">+</text>
<text x="94.44" y="371.92">.</text>
<text x="150.59" y="80.40">+</text>
<text x="346.30" y="165.08">+</text>
<text x="204.82" y="239.41">*</text>
<text x="158.75" y="308.42">*</text>
<text x="263.19" y="218.40">.</text>
<text x="213.71" y="100.90">+</text>
<text x="72.75" y="40.08">.</text>
<text x="486.48" y="334.29">.</text>
<text x="331.59" y="205.91">.</text>
<text x="37.28" y="323.32">.</text>
<text x="34.45" y="310.87">+</text>
<text x="209.47" y="335.51">.</text>
<text x="239.19" y="112.35">+</text>
<text x="114.73" y="352.81">+</text>
<text x="195.80" y="322.22">+</text>
<text x="98.12" y="188.72">+</text>
<text x="134.47" y="456.19">+</text>
<text x="126.06" y="223.90">*</text>
<text x="17.38" y="108.70">.</text>
<text x="190.29" y="468.90">.</text>
<text x="164.97" y="291.59">+</text>
<text x="320.61" y="219.84">*</text>
<text x="353.89" y="113.47">.</text>
<text x="354.27" y="62.33">+</text>
<text x="172.57" y="347.64">.</text>
<text x="11.34" y="142.05">*</text>
<text x="485.84" y="456.84">.</text>
<text x="194.51" y="303.58">+</text>
<text x="114.61" y="303.43">*</text>
<text x="496.08" y="465.64">+</text>
<text x="26.07" y="491.62">*</text>
<text x="129.20" y="117.21">+</text>
<text x="388.64" y="282.84">.</text>
<text x="150.55" y="328.88">+</text>
<text x="256.75" y="491.01">*</text>
<text x="85.01" y="182.09">+</text>
<text x="140.42" y="13.93">.</text>
<text x="119.34" y="489.99">+</text>
<text x="202.99" y="94.87">.</text>
<text x="215.77" y="421.11">+</text>
<text x="298.22" y="440.03">.</text>
<text x="187.64" y="133.55">+</text>
<text x="147.02" y="347.84">.</text>
<text x="197.45" y="480.22">.</text>
<text x="312.09" y="413.47">+</text>
<text x="208.52" y="330.91">+</text>
<text x="346.52" y="62.07">.</text>
<text x="226.79" y="384.69">.</text>
<text x="312.82" y="190.88">+</text>
<text x="56.78" y="245.55">*</text>
<text x="38.61" y="435.14">.</text>
<text x="255.07" y="148.85">.</text>
<text x="467.33" y="318.93">.</text>
<text x="98.44" y="85.01">+</text>
<text x="161.29" y="389.12">*</text>
<text x="479.16" y="337.59">+</text>
<text x="323.61" y="319.60">+</text>
<text x="249.74" y="460.30">*</text>
<text x="86.25" y="387.28">+</text>
<text x="359.28" y="350.23">+</text>
<text x="293.71" y="317.60">.</text>
<text x="219.06" y="199.90">+</text>
<text x="216.90" y="379.09">.</text>
<text x="350.94" y="101.30">+</text>
<text x="384.61" y="176.90">.</text>
<text x="195.77" y="460.58">+</text>
<text x="307.54" y="40.81">.</text>
<text x="161.77" y="427.71">+</text>
<text x="44.45" y="241.89">.</text>
<text x="78.15" y="328.97">.</text>
<text x="351.54" y="411.38">.</text>
<text x="222.77" y="301.48">+</text>
<text x="157.51" y="353.78">.</text>
<text x="197.25" y="357.51">.</text>
<text x="450.17" y="390.98">+</text>
<text x="390.21" y="18.02">.</text>
<text x="379.15" y="309.29">.</text>
<text x="483.30" y="112.46">.</text>
<text x="148.68" y="130.06">*</text>
<text x="28.46" y="451.34">.</text>
<text x="82.29" y="6.35">.</text>
<text x="35.46" y="337.23">+</text>
<text x="437.22" y="381.02">.</text>
<text x="237.66" y="215.02">.</text>
<text x="38.26" y="74.98">+</text>
<text x="416.60" y="241.90">+</text>
<text x="450.43" y="204.73">+</text>
<text x="215.53" y="33.14">*</text>
<text x="496.13" y="484.66">+</text>
<text x="458.24" y="97.81">*</text>
<text x="375.80" y="51.08">+</text>
<text x="36.36" y="65.19">+</text>
<text x="290.11" y="92.44">+</text>
<text x="217.10" y="94.28">+</text>
<text x="156.97" y="310.32">.</text>
<text x="367.91" y="130.17">.</text>

</svg>