
<svg viewBox="0 0 500 500" xmlns="http://www.w.org/2000/svg" width="100%" height="100%" style="background-color: #0a0a14; font-family: 'Courier New', Courier, monospace;">
    <style>
        text { fill: #aaa; font-size: 10px; text-anchor: middle; dominant-baseline: middle; }
    </style>
    <text x="370.12" y="286.20">+</text>
<text x="267.62" y="415.09">*</text>
<text x="446.81" y="369.20">.</text>
<text x="80.13" y="408.31">.</text>
<text x="488.01" y="369.23">.</text>
<text x="173.64" y="459.85">+</text>
<text x="367.12" y="116.43">*</text>
<text x="296.98" y="488.15">.</text>
<text x="210.68" y="104.60">*</text>
<text x="178.66" y="120.85">.</text>
<text x="256.19" y="311.53">.</text>
<text x="264.13" y="398.15">.</text>
<text x="364.84" y="204.37">.</text>
<text x="376.70" y="378.25">+</text>
<text x="474.49" y="150.68">+</text>
<text x="53.14" y="40.20">.</text>
<text x="294.38" y="5.45">+</text>
<text x="484.44" y="261.63">.</text>
<text x="147.41" y="437.79">.</text>
<text x="467.49" y="151.81">+</text>
<text x="268.49" y="67.66">*</text>
<text x="169.70" y="384.96">.</text>
<text x="357.42" y="128.04">.</text>
<text x="320.48" y="404.15">.</text>
<text x="167.27" y="277.37">+</text>
<text x="288.68" y="424.78">+</text>
<text x="58.12" y="301.76">.</text>
<text x="485.20" y="419.28">.</text>
<text x="102.10" y="17.24">.</text>
<text x="133.27" y="139.47">+</text>
<text x="92.37" y="422.47">+</text>
<text x="49.98" y="35.59">*</text>
<text x="66.55" y="445.59">+</text>
<text x="228.66" y="474.05">+</text>
<text x="148.99" y="475.79">.</text>
<text x="111.20" y="473.08">+</text>
<text x="295.57" y="267.68">*</text>
<text x="417.01" y="345.86">.</text>
<text x="163.70" y="55.90">.</text>
<text x="359.59" y="216.54">+</text>
<text x="394.36" y="309.93">+</text>
<text x="49.39" y="11.58">.</text>
<text x="330.83" y="472.26">.</text>
<text x="334.39" y="26.78">+</text>
<text x="425.11" y="1.43">+</text>
<text x="57.17" y="97.39">+</text>
<text x="362.96" y="430.26">*</text>
<text x="345.29" y="350.82">+</text>
<text x="217.13" y="307.90">.</text>
<text x="145.52" y="133.52">.</text>
<text x="80.93" y="403.06">.</text>
<text x="312.19" y="340.12">+</text>
<text x="258.97" y="420.68">.</text>
<text x="54.84" y="78.17">+</text>
<text x="171.34" y="242.06">+</text>
<text x="339.15" y="164.69">+</text>
<text x="315.48" y="305.19">+</text>
<text x="401.31" y="254.81">.</text>
<text x="211.97" y="303.61">+</text>
<text x="66.25" y="479.03">*</text>
<text x="399.72" y="194.17">.</text>
<text x="171.60" y="304.33">+</text>
<text x="88.49" y="478.47">.</text>
<text x="19.77" y="363.21">.</text>
<text x="210.33" y="50.84">.</text>
<text x="493.11" y="407.86">.</text>
<text x="482.55" y="309.16">*</text>
<text x="440.29" y="337.58">*</text>
<text x="76.89" y="493.93">.</text>
<text x="288.60" y="79.36">+</text>
<text x="236.38" y="223.77">+</text>
<text x="360.98" y="327.70">+</text>
<text x="105.10" y="0.79">+</text>
<text x="186.13" y="294.00">+</text>
<text x="357.93" y="317.16">.</text>
<text x="379.51" y="39.77">.</text>
<text x="262.35" y="36.26">.</text>
<text x="288.91" y="169.36">+</text>
<text x="392.08" y="204.41">*</text>
<text x="30.90" y="301.55">.</text>
<text x="384.36" y="459.11">.</text>
<text x="333.75" y="274.64">+</text>
<text x="296.83" y="345.33">+</text>
<text x="331.08" y="412.29">+</text>
<text x="397.12" y="120.59">*</text>
<text x="190.03" y="244.77">+</text>
<text x="76.02" y="355.09">+</text>
<text x="182.69" y="213.35">.</text>
<text x="487.97" y="456.20">+</text>
<text x="60.27" y="470.52">.</text>
<text x="168.66" y="410.14">.</text>
<text x="428.28" y="390.29">.</text>
<text x="417.25" y="149.02">+</text>
<text x="303.08" y="203.57">+</text>
<text x="314.12" y="182.33">*</text>
<text x="389.05" y="295.83">+</text>
<text x="75.88" y="448.91">*</text>
<text x="252.76" y="204.94">+</text>
<text x="103.54" y="151.57">+</text>
<text x="492.09" y="91.78">*</text>
<text x="486.83" y="479.00">*</text>
<text x="252.82" y="50.64">+</text>
<text x="9.15" y="140.72">.</text>
<text x="342.11" y="325.62">+</text>
<text x="376.41" y="367.46">+</text>
<text x="341.01" y="86.59">.</text>
<text x="283.28" y="422.10">.</text>
<text x="415.46" y="94.49">.</text>
<text x="203.45" y="193.19">*</text>
<text x="403.18" y="269.50">+</text>
<text x="394.32" y="134.13">+</text>
<text x="476.20" y="99.28">+</text>
<text x="82.08" y="456.38">+</text>
<text x="95.87" y="186.22">.</text>
<text x="117.86" y="103.11">+</text>
<text x="161.09" y="138.59">.</text>
<text x="120.07" y="351.57">.</text>
<text x="160.05" y="407.35">*</text>
<text x="405.12" y="329.11">.</text>
<text x="143.70" y="305.90">+</text>
<text x="367.49" y="178.99">.</text>
<text x="86.28" y="320.44">+</text>
<text x="52.27" y="112.88">+</text>
<text x="358.33" y="27.72">+</text>
<text x="344.33" y="171.15">.</text>
<text x="302.44" y="363.91">+</text>
<text x="456.06" y="407.14">.</text>
<text x="98.50" y="1.40">.</text>
<text x="403.49" y="374.49">+</text>
<text x="137.30" y="382.06">+</text>
<text x="416.82" y="344.36">*</text>
<text x="267.11" y="455.64">+</text>
<text x="497.17" y="299.89">.</text>
<text x="47.02" y="455.55">+</text>
<text x="435.45" y="80.46">.</text>
<text x="371.84" y="209.50">+</text>
<text x="124.09" y="251.87">+</text>
<text x="98.51" y="384.72">.</text>
<text x="10.37" y="441.87">*</text>
<text x="387.71" y="269.29">+</text>
<text x="116.50" y="358.73">.</text>
<text x="288.53" y="170.61">.</text>
<text x="1.09" y="190.67">.</text>
<text x="58.36" y="185.87">.</text>
<text x="454.66" y="176.12">+</text>
<text x="130.46" y="110.92">*</text>
<text x="59.06" y="204.98">*</text>
<text x="314.59" y="208.15">.</text>
<text x="254.81" y="83.36">.</text>
<text x="218.05" y="280.39">+</text>
<text x="105.42" y="494.15">.</text>
<text x="13.55" y="203.59">.</text>
<text x="80.70" y="398.22">.</text>
<text x="169.45" y="21.30">.</text>
<text x="94.19" y="494.16">.</text>
<text x="74.13" y="280.92">+</text>
<text x="198.67" y="289.54">.</text>
<text x="357.88" y="327.31">.</text>
<text x="45.25" y="345.87">*</text>
<text x="293.17" y="53.28">.</text>
<text x="128.28" y="98.02">+</text>
<text x="476.22" y="282.43">+</text>
<text x="440.39" y="273.42">+</text>
<text x="426.42" y="364.76">+</text>
<text x="251.40" y="41.90">+</text>
<text x="125.64" y="210.34">+</text>
<text x="466.85" y="349.42">*</text>
<text x="82.58" y="385.67">.</text>
<text x="237.71" y="61.38">*</text>
<text x="101.69" y="94.98">+</text>
<text x="389.88" y="104.98">+</text>
<text x="165.93" y="402.31">+</text>
<text x="76.15" y="309.90">+</text>
<text x="53.11" y="463.07">.</text>
<text x="199.95" y="195.36">.</text>
<text x="93.58" y="79.86">+</text>
<text x="101.74" y="115.64">+</text>
<text x="113.24" y="0.49">+</text>
<text x="423.80" y="462.39">*</text>
<text x="234.15" y="170.64">+</text>
<text x="78.42" y="251.72">+</text>
<text x="269.14" y="163.73">+</text>
<text x="27.51" y="279.72">.</text>
<text x="405.02" y="14.36">*</text>
<text x="312.25" y="417.30">+</text>
<text x="404.32" y="242.73">*</text>
<text x="15.05" y="319.52">.</text>
<text x="194.12" y="75.30">+</text>
<text x="306.21" y="219.79">*</text>
<text x="395.31" y="193.64">+</text>
<text x="149.29" y="176.79">*</text>
<text x="172.82" y="375.93">.</text>
<text x="114.20" y="264.88">+</text>
<text x="157.42" y="324.71">+</text>
<text x="8.11" y="359.34">*</text>
<text x="44.05" y="168.93">.</text>
<text x="222.21" y="469.23">.</text>
<text x="416.53" y="437.05">+</text>
<text x="179.98" y="133.57">+</text>
<text x="214.35" y="163.78">+</text>
<text x="464.01" y="219.67">+</text>
<text x="293.46" y="313.50">+</text>
<text x="248.94" y="456.97">.</text>
<text x="113.63" y="246.85">*</text>
<text x="357.04" y="351.86">.</text>
<text x="493.43" y="402.39">*</text>
<text x="198.43" y="390.35">+</text>
<text x="303.49" y="297.37">.</text>
<text x="234.59" y="484.98">.</text>
<text x="166.90" y="149.54">.</text>
<text x="293.90" y="459.99">.</text>
<text x="483.40" y="380.00">+</text>
<text x="427.86" y="188.24">*</text>
<text x="215.41" y="126.09">.</text>
<text x="6.33" y="151.73">.</text>
<text x="447.34" y="431.50">+</text>
<text x="483.42" y="153.42">.</text>
<text x="215.37" y="416.11">*</text>
<text x="410.31" y="140.22">+</text>
<text x="4.65" y="199.03">.</text>
<text x="285.80" y="75.62">+</text>
<text x="220.90" y="231.99">.</text>
<text x="82.97" y="151.45">+</text>
<text x="12.36" y="162.40">.</text>

</svg>