
<svg viewBox="0 0 500 500" xmlns="http://www.w.org/2000/svg" width="100%" height="100%" style="background-color: #0a0a14; font-family: 'Courier New', Courier, monospace;">
    <style>
        text { fill: #aaa; font-size: 10px; text-anchor: middle; dominant-baseline: middle; }
    </style>
    <text x="310.94" y="57.51">+</text>
<text x="343.14" y="89.29">+</text>
<text x="132.59" y="249.74">+</text>
<text x="120.83" y="451.05">+</text>
<text x="493.91" y="281.12">.</text>
<text x="438.03" y="329.43">*</text>
<text x="477.37" y="120.60">*</text>
<text x="165.83" y="251.69">.</text>
<text x="399.65" y="343.92">+</text>
<text x="309.71" y="71.66">.</text>
<text x="150.78" y="265.80">+</text>
<text x="172.89" y="365.25">.</text>
<text x="265.56" y="21.50">*</text>
<text x="42.99" y="269.05">+</text>
<text x="288.49" y="239.24">*</text>
<text x="22.09" y="270.98">*</text>
<text x="80.90" y="339.10">+</text>
<text x="386.12" y="131.77">.</text>
<text x="243.46" y="432.77">.</text>
<text x="44.32" y="8.36">.</text>
<text x="437.94" y="318.45">.</text>
<text x="117.86" y="146.70">.</text>
<text x="322.84" y="41.78">.</text>
<text x="430.61" y="282.64">.</text>
<text x="349.90" y="21.35">+</text>
<text x="126.12" y="26.09">+</text>
<text x="263.72" y="354.08">+</text>
<text x="355.52" y="30.23">+</text>
<text x="478.13" y="39.10">.</text>
<text x="81.01" y="98.90">.</text>
<text x="420.05" y="283.47">.</text>
<text x="181.98" y="101.73">.</text>
<text x="63.85" y="371.55">.</text>
<text x="263.70" y="428.92">.</text>
<text x="103.16" y="374.88">+</text>
<text x="90.47" y="106.75">*</text>
<text x="459.78" y="483.12">.</text>
<text x="190.57" y="483.79">.</text>
<text x="30.42" y="263.58">.</text>
<text x="162.41" y="229.71">+</text>
<text x="257.16" y="175.28">+</text>
<text x="296.61" y="75.27">+</text>
<text x="117.17" y="142.07">+</text>
<text x="485.93" y="466.83">.</text>
<text x="131.95" y="233.34">+</text>
<text x="382.78" y="395.80">+</text>
<text x="199.69" y="44.64">.</text>
<text x="208.49" y="303.75">*</text>
<text x="158.54" y="284.59">.</text>
<text x="301.82" y="414.22">.</text>
<text x="425.49" y="417.27">.</text>
<text x="157.01" y="447.71">.</text>
<text x="310.02" y="201.89">.</text>
<text x="179.06" y="306.30">.</text>
<text x="454.08" y="3.27">+</text>
<text x="43.18" y="116.87">.</text>
<text x="370.10" y="409.81">*</text>
<text x="489.92" y="278.21">.</text>
<text x="30.06" y="196.50">.</text>
<text x="112.45" y="205.57">+</text>
<text x="60.37" y="367.78">*</text>
<text x="44.80" y="352.25">+</text>
<text x="362.19" y="228.68">+</text>
<text x="289.21" y="204.81">.</text>
<text x="412.15" y="420.33">+</text>
<text x="464.64" y="149.14">.</text>
<text x="133.35" y="225.52">+</text>
<text x="3.17" y="26.51">*</text>
<text x="329.28" y="340.11">+</text>
<text x="352.30" y="259.90">.</text>
<text x="44.20" y="481.68">+</text>
<text x="150.51" y="310.30">+</text>
<text x="126.17" y="96.02">+</text>
<text x="9.39" y="75.02">*</text>
<text x="214.30" y="484.69">.</text>
<text x="379.97" y="106.02">.</text>
<text x="264.34" y="399.75">+</text>
<text x="381.78" y="446.79">.</text>
<text x="263.13" y="195.43">.</text>
<text x="27.20" y="70.43">+</text>
<text x="239.54" y="475.97">.</text>
<text x="436.90" y="302.88">.</text>
<text x="323.54" y="422.02">.</text>
<text x="178.11" y="105.54">*</text>
<text x="195.96" y="368.47">+</text>
<text x="276.90" y="306.35">+</text>
<text x="443.08" y="440.72">+</text>
<text x="167.29" y="401.06">+</text>
<text x="379.10" y="118.32">+</text>
<text x="355.31" y="227.86">+</text>
<text x="69.49" y="211.96">+</text>
<text x="164.95" y="48.09">.</text>
<text x="340.29" y="334.97">+</text>
<text x="198.49" y="329.91">.</text>
<text x="112.46" y="164.75">*</text>
<text x="47.76" y="485.93">+</text>
<text x="390.49" y="288.95">+</text>
<text x="207.69" y="110.64">.</text>
<text x="391.99" y="228.87">.</text>
<text x="76.78" y="334.68">.</text>
<text x="400.70" y="113.85">+</text>
<text x="293.50" y="313.95">.</text>
<text x="324.25" y="144.80">.</text>
<text x="239.08" y="239.26">+</text>
<text x="186.35" y="449.00">.</text>
<text x="238.24" y="350.70">+</text>
<text x="330.46" y="189.88">+</text>
<text x="347.74" y="173.16">.</text>
<text x="272.15" y="85.70">+</text>
<text x="38.24" y="51.35">.</text>
<text x="472.26" y="430.90">.</text>
<text x="404.12" y="101.65">.</text>
<text x="227.35" y="316.44">.</text>
<text x="394.85" y="145.52">+</text>
<text x="406.49" y="57.31">+</text>
<text x="336.00" y="264.64">.</text>
<text x="250.02" y="251.13">.</text>
<text x="475.01" y="152.27">.</text>
<text x="154.25" y="130.85">.</text>
<text x="83.13" y="230.18">.</text>
<text x="69.01" y="64.41">*</text>
<text x="301.62" y="340.47">.</text>
<text x="270.66" y="188.09">.</text>
<text x="443.13" y="68.88">.</text>
<text x="196.63" y="152.33">+</text>
<text x="51.13" y="102.83">+</text>
<text x="32.66" y="463.69">*</text>
<text x="449.31" y="73.50">*</text>
<text x="463.87" y="130.13">*</text>
<text x="324.17" y="471.82">.</text>
<text x="383.08" y="393.40">.</text>
<text x="257.82" y="47.64">.</text>
<text x="18.74" y="361.80">.</text>
<text x="48.87" y="167.66">+</text>
<text x="267.45" y="355.73">*</text>
<text x="134.45" y="313.74">+</text>
<text x="138.82" y="276.83">.</text>
<text x="153.48" y="494.62">+</text>
<text x="425.57" y="424.34">.</text>
<text x="27.17" y="299.47">+</text>
<text x="370.80" y="25.53">+</text>
<text x="3.97" y="176.00">+</text>
<text x="420.80" y="168.02">.</text>
<text x="428.55" y="257.71">+</text>
<text x="433.35" y="25.74">+</text>
<text x="11.21" y="65.14">+</text>
<text x="192.24" y="499.75">*</text>
<text x="360.03" y="365.83">*</text>
<text x="199.89" y="37.30">+</text>
<text x="355.61" y="53.95">.</text>
<text x="60.64" y="207.93">*</text>
<text x="414.81" y="401.12">.</text>
<text x="87.92" y="140.44">.</text>
<text x="417.57" y="236.33">*</text>
<text x="449.42" y="355.36">*</text>
<text x="279.92" y="85.05">+</text>
<text x="53.53" y="240.04">.</text>
<text x="236.78" y="36.47">.</text>
<text x="351.55" y="339.07">.</text>
<text x="381.38" y="448.30">.</text>
<text x="313.64" y="252.46">.</text>
<text x="210.22" y="36.12">.</text>
<text x="316.81" y="84.63">+</text>
<text x="361.06" y="175.65">+</text>
<text x="12.60" y="206.82">.</text>
<text x="494.56" y="251.13">*</text>
<text x="64.91" y="170.74">*</text>
<text x="88.82" y="187.63">+</text>
<text x="392.03" y="265.71">*</text>
<text x="314.74" y="95.93">.</text>
<text x="450.58" y="421.17">+</text>
<text x="246.50" y="245.39">.</text>
<text x="9.12" y="247.08">+</text>
<text x="73.39" y="167.18">.</text>
<text x="40.78" y="78.90">.</text>
<text x="21.25" y="375.50">.</text>
<text x="483.81" y="264.95">+</text>
<text x="350.15" y="167.81">+</text>
<text x="267.74" y="75.85">+</text>
<text x="170.44" y="151.15">+</text>
<text x="270.32" y="306.89">.</text>
<text x="172.35" y="468.57">*</text>
<text x="268.98" y="289.20">.</text>
<text x="450.81" y="390.31">.</text>
<text x="99.15" y="6.41">.</text>
<text x="256.70" y="239.83">*</text>
<text x="236.62" y="242.84">+</text>
<text x="255.54" y="404.46">*</text>
<text x="374.11" y="369.22">+</text>
<text x="202.97" y="242.71">*</text>
<text x="487.09" y="384.25">.</text>
<text x="497.51" y="444.93">.</text>
<text x="372.66" y="233.04">.</text>
<text x="186.70" y="396.32">+</text>
<text x="346.04" y="54.83">.</text>
<text x="146.09" y="379.65">*</text>
<text x="378.41" y="147.28">.</text>
<text x="325.02" y="423.66">+</text>
<text x="19.59" y="362.05">.</text>
<text x="190.24" y="304.46">+</text>
<text x="384.45" y="386.18">+</text>
<text x="311.80" y="203.09">+</text>
<text x="431.80" y="320.27">+</text>
<text x="422.50" y="467.40">.</text>

</svg>