
<svg viewBox="0 0 500 500" xmlns="http://www.w.org/2000/svg" width="100%" height="100%" style="background-color: #0a0a14; font-family: 'Courier New', Courier, monospace;">
    <style>
        text { fill: #aaa; font-size: 10px; text-anchor: middle; dominant-baseline: middle; }
    </style>
    <text x="318.63" y="78.11">.</text>
<text x="222.13" y="491.77">.</text>
<text x="355.49" y="457.38">.</text>
<text x="301.46" y="86.74">.</text>
<text x="421.52" y="312.78">+</text>
<text x="367.44" y="9.54">+</text>
<text x="250.82" y="169.12">.</text>
<text x="157.24" y="276.40">+</text>
<text x="177.60" y="65.28">.</text>
<text x="298.00" y="317.12">.</text>
<text x="340.81" y="105.50">.</text>
<text x="62.03" y="296.76">+</text>
<text x="8.70" y="366.00">+</text>
<text x="223.09" y="498.74">.</text>
<text x="33.72" y="93.25">*</text>
<text x="272.39" y="87.63">.</text>
<text x="476.05" y="492.29">.</text>
<text x="468.45" y="128.87">+</text>
<text x="179.27" y="426.36">*</text>
<text x="451.14" y="341.26">.</text>
<text x="115.66" y="43.75">*</text>
<text x="343.63" y="121.23">.</text>
<text x="100.05" y="348.14">+</text>
<text x="323.16" y="98.50">+</text>
<text x="301.81" y="113.51">+</text>
<text x="389.91" y="400.90">+</text>
<text x="449.13" y="101.94">+</text>
<text x="331.78" y="82.88">.</text>
<text x="446.88" y="330.02">.</text>
<text x="236.98" y="470.53">.</text>
<text x="217.47" y="441.94">.</text>
<text x="57.62" y="23.81">.</text>
<text x="140.17" y="400.81">+</text>
<text x="490.91" y="396.60">.</text>
<text x="392.21" y="192.90">.</text>
<text x="225.39" y="250.82">+</text>
<text x="107.38" y="186.79">+</text>
<text x="134.84" y="191.03">+</text>
<text x="377.06" y="227.57">.</text>
<text x="187.70" y="65.91">.</text>
<text x="472.40" y="244.86">.</text>
<text x="2.32" y="483.04">+</text>
<text x="31.34" y="373.56">.</text>
<text x="287.42" y="436.29">.</text>
<text x="122.03" y="76.23">.</text>
<text x="241.51" y="242.52">*</text>
<text x="371.10" y="107.14">+</text>
<text x="19.60" y="275.39">+</text>
<text x="376.62" y="353.66">+</text>
<text x="299.52" y="373.25">+</text>
<text x="35.97" y="483.62">.</text>
<text x="354.08" y="471.06">+</text>
<text x="356.78" y="132.23">.</text>
<text x="477.83" y="477.81">+</text>
<text x="310.78" y="204.43">.</text>
<text x="162.43" y="416.43">+</text>
<text x="351.61" y="196.27">.</text>
<text x="96.25" y="479.25">.</text>
<text x="150.67" y="296.89">*</text>
<text x="259.64" y="228.85">.</text>
<text x="452.33" y="72.66">*</text>
<text x="204.59" y="279.05">.</text>
<text x="74.29" y="84.59">+</text>
<text x="173.10" y="89.99">*</text>
<text x="33.52" y="376.08">.</text>
<text x="84.22" y="291.05">+</text>
<text x="234.34" y="44.73">+</text>
<text x="152.99" y="102.28">.</text>
<text x="103.35" y="295.25">+</text>
<text x="415.95" y="31.46">.</text>
<text x="434.37" y="458.55">+</text>
<text x="183.72" y="492.25">+</text>
<text x="287.34" y="241.34">+</text>
<text x="284.58" y="100.09">.</text>
<text x="411.29" y="83.44">.</text>
<text x="227.15" y="230.48">.</text>
<text x="313.12" y="105.31">*</text>
<text x="82.41" y="224.84">*</text>
<text x="283.66" y="146.07">+</text>
<text x="325.51" y="374.11">+</text>
<text x="287.28" y="298.49">+</text>
<text x="123.26" y="95.74">+</text>
<text x="98.78" y="405.39">+</text>
<text x="365.06" y="463.77">+</text>
<text x="486.55" y="282.89">*</text>
<text x="212.07" y="377.74">+</text>
<text x="370.76" y="392.24">.</text>
<text x="434.85" y="439.40">.</text>
<text x="6.83" y="473.25">.</text>
<text x="342.23" y="226.18">+</text>
<text x="429.68" y="282.03">+</text>
<text x="273.62" y="238.22">*</text>
<text x="244.77" y="446.17">.</text>
<text x="112.24" y="27.34">+</text>
<text x="140.96" y="178.97">.</text>
<text x="28.25" y="256.81">+</text>
<text x="172.89" y="485.90">+</text>
<text x="51.62" y="427.89">+</text>
<text x="393.98" y="413.84">+</text>
<text x="282.03" y="159.81">.</text>
<text x="351.17" y="266.25">+</text>
<text x="159.90" y="18.49">+</text>
<text x="381.53" y="267.98">.</text>
<text x="154.30" y="398.28">.</text>
<text x="246.68" y="97.46">+</text>
<text x="451.69" y="313.16">*</text>
<text x="61.57" y="298.19">+</text>
<text x="176.26" y="391.39">*</text>
<text x="490.54" y="458.51">.</text>
<text x="102.42" y="225.18">.</text>
<text x="213.17" y="233.02">+</text>
<text x="393.74" y="288.27">.</text>
<text x="342.31" y="56.85">.</text>
<text x="458.11" y="185.80">*</text>
<text x="333.06" y="214.14">+</text>
<text x="230.66" y="279.33">+</text>
<text x="105.34" y="324.59">.</text>
<text x="476.01" y="316.49">*</text>
<text x="141.69" y="34.09">+</text>
<text x="287.16" y="364.95">*</text>
<text x="69.68" y="109.73">.</text>
<text x="124.96" y="406.56">+</text>
<text x="272.86" y="185.78">+</text>
<text x="22.86" y="31.29">+</text>
<text x="131.83" y="348.92">*</text>
<text x="81.44" y="82.17">+</text>
<text x="304.97" y="328.92">.</text>
<text x="232.84" y="36.16">.</text>
<text x="297.21" y="318.42">*</text>
<text x="377.17" y="364.67">+</text>
<text x="340.86" y="484.52">+</text>
<text x="227.85" y="451.48">+</text>
<text x="362.99" y="373.36">.</text>
<text x="176.25" y="61.44">.</text>
<text x="280.83" y="120.30">+</text>
<text x="311.88" y="39.48">.</text>
<text x="211.06" y="150.98">+</text>
<text x="169.07" y="447.10">+</text>
<text x="38.60" y="37.97">+</text>
<text x="460.46" y="475.76">+</text>
<text x="357.40" y="50.92">+</text>
<text x="124.36" y="98.95">+</text>
<text x="31.21" y="196.21">.</text>
<text x="90.17" y="413.47">+</text>
<text x="477.26" y="408.81">.</text>
<text x="452.22" y="480.36">*</text>
<text x="60.31" y="84.20">+</text>
<text x="483.43" y="164.36">.</text>
<text x="297.36" y="287.27">.</text>
<text x="88.58" y="343.90">.</text>
<text x="363.96" y="212.23">.</text>
<text x="132.03" y="222.09">*</text>
<text x="440.28" y="448.59">*</text>
<text x="291.15" y="241.04">*</text>
<text x="10.56" y="209.09">+</text>
<text x="289.84" y="80.88">.</text>
<text x="283.01" y="331.34">*</text>
<text x="211.64" y="225.08">+</text>
<text x="174.12" y="286.15">*</text>
<text x="228.36" y="169.70">+</text>
<text x="21.91" y="148.68">.</text>
<text x="237.21" y="123.58">.</text>
<text x="232.09" y="407.13">*</text>
<text x="218.70" y="481.72">+</text>
<text x="450.90" y="203.80">*</text>
<text x="422.07" y="127.92">*</text>
<text x="126.64" y="83.39">+</text>
<text x="466.31" y="36.78">+</text>
<text x="118.81" y="9.97">.</text>
<text x="196.75" y="308.60">+</text>
<text x="231.53" y="177.53">+</text>
<text x="234.27" y="173.96">.</text>
<text x="115.40" y="75.83">+</text>
<text x="214.34" y="371.10">+</text>
<text x="128.63" y="412.96">+</text>
<text x="461.31" y="181.72">+</text>
<text x="145.07" y="215.16">*</text>
<text x="302.42" y="263.42">.</text>
<text x="225.46" y="115.10">.</text>
<text x="325.97" y="421.97">.</text>
<text x="304.88" y="311.61">.</text>
<text x="96.39" y="348.37">.</text>
<text x="324.84" y="183.12">.</text>
<text x="310.25" y="72.72">*</text>
<text x="246.39" y="447.24">+</text>
<text x="424.33" y="111.71">+</text>
<text x="239.64" y="263.44">+</text>
<text x="355.13" y="440.86">.</text>
<text x="417.94" y="301.37">*</text>
<text x="354.08" y="5.98">+</text>
<text x="85.23" y="236.53">+</text>
<text x="199.88" y="99.26">+</text>
<text x="424.10" y="355.51">+</text>
<text x="258.06" y="328.75">.</text>
<text x="395.27" y="15.68">+</text>
<text x="100.80" y="77.04">.</text>
<text x="90.55" y="57.21">+</text>
<text x="480.43" y="448.93">+</text>
<text x="263.44" y="269.42">.</text>
<text x="262.07" y="470.88">+</text>
<text x="377.86" y="483.03">.</text>
<text x="93.74" y="284.08">.</text>
<text x="491.32" y="349.55">+</text>
<text x="97.04" y="417.51">.</text>
<text x="254.81" y="407.71">.</text>
<text x="104.95" y="496.24">.</text>
<text x="120.66" y="383.75">+</text>
<text x="465.64" y="49.71">+</text>
<text x="162.14" y="282.74">+</text>
<text x="463.84" y="334.12">+</text>

</svg>