
<svg viewBox="0 0 500 500" xmlns="http://www.w.org/2000/svg" width="100%" height="100%" style="background-color: #0a0a14; font-family: 'Courier New', Courier, monospace;">
    <style>
        text { fill: #aaa; font-size: 10px; text-anchor: middle; dominant-baseline: middle; }
    </style>
    <text x="205.78" y="469.90">+</text>
<text x="430.87" y="474.25">+</text>
<text x="171.62" y="129.73">+</text>
<text x="33.43" y="100.15">.</text>
<text x="3.03" y="449.68">+</text>
<text x="91.20" y="496.34">*</text>
<text x="286.07" y="171.45">.</text>
<text x="179.20" y="260.02">+</text>
<text x="233.11" y="75.09">.</text>
<text x="50.69" y="373.04">.</text>
<text x="392.25" y="387.28">+</text>
<text x="177.47" y="42.79">+</text>
<text x="215.90" y="53.01">.</text>
<text x="362.32" y="415.17">+</text>
<text x="250.28" y="31.63">+</text>
<text x="303.30" y="195.74">+</text>
<text x="195.47" y="325.15">+</text>
<text x="472.10" y="2.28">+</text>
<text x="304.00" y="190.54">*</text>
<text x="106.77" y="51.18">.</text>
<text x="175.63" y="133.40">.</text>
<text x="407.43" y="483.46">+</text>
<text x="201.59" y="78.52">.</text>
<text x="230.38" y="127.56">*</text>
<text x="341.25" y="359.78">+</text>
<text x="498.90" y="304.58">.</text>
<text x="101.45" y="395.56">+</text>
<text x="298.02" y="191.50">.</text>
<text x="198.95" y="308.69">.</text>
<text x="389.90" y="171.01">.</text>
<text x="492.84" y="168.92">+</text>
<text x="87.33" y="221.37">*</text>
<text x="417.84" y="470.83">+</text>
<text x="169.23" y="11.66">.</text>
<text x="415.98" y="281.38">+</text>
<text x="271.53" y="247.57">.</text>
<text x="416.62" y="91.51">*</text>
<text x="51.16" y="108.17">.</text>
<text x="45.57" y="441.16">.</text>
<text x="393.84" y="111.95">+</text>
<text x="315.95" y="445.30">+</text>
<text x="205.82" y="357.11">.</text>
<text x="172.98" y="464.06">.</text>
<text x="245.72" y="245.48">+</text>
<text x="481.43" y="331.83">+</text>
<text x="201.42" y="138.82">.</text>
<text x="83.15" y="164.30">.</text>
<text x="425.69" y="233.32">*</text>
<text x="239.95" y="91.13">.</text>
<text x="493.83" y="364.01">.</text>
<text x="212.83" y="389.82">*</text>
<text x="156.25" y="110.73">+</text>
<text x="133.30" y="85.73">.</text>
<text x="376.15" y="84.41">+</text>
<text x="156.45" y="78.91">+</text>
<text x="30.46" y="231.32">.</text>
<text x="498.06" y="185.37">*</text>
<text x="36.98" y="315.02">+</text>
<text x="204.50" y="69.50">.</text>
<text x="266.95" y="374.23">+</text>
<text x="292.36" y="348.60">.</text>
<text x="275.99" y="50.23">+</text>
<text x="218.46" y="326.34">*</text>
<text x="499.05" y="179.80">.</text>
<text x="278.42" y="309.57">*</text>
<text x="234.23" y="220.72">.</text>
<text x="333.08" y="298.35">*</text>
<text x="491.73" y="365.83">+</text>
<text x="243.79" y="102.25">.</text>
<text x="477.96" y="76.35">.</text>
<text x="285.77" y="381.68">+</text>
<text x="273.97" y="207.26">.</text>
<text x="94.59" y="62.28">+</text>
<text x="471.59" y="72.57">.</text>
<text x="117.84" y="60.98">+</text>
<text x="223.73" y="229.71">.</text>
<text x="20.35" y="295.66">+</text>
<text x="422.52" y="192.89">.</text>
<text x="324.99" y="222.00">+</text>
<text x="209.58" y="412.97">+</text>
<text x="293.44" y="419.76">.</text>
<text x="306.87" y="339.06">.</text>
<text x="274.12" y="445.57">+</text>
<text x="2.11" y="473.31">+</text>
<text x="195.06" y="347.70">.</text>
<text x="381.02" y="110.14">+</text>
<text x="320.16" y="272.19">.</text>
<text x="328.54" y="272.65">.</text>
<text x="355.57" y="430.10">+</text>
<text x="453.96" y="46.77">.</text>
<text x="408.38" y="304.66">.</text>
<text x="248.42" y="125.93">+</text>
<text x="265.75" y="275.10">+</text>
<text x="490.17" y="437.98">.</text>
<text x="106.76" y="306.22">.</text>
<text x="173.02" y="386.78">.</text>
<text x="455.13" y="270.36">.</text>
<text x="2.56" y="64.71">+</text>
<text x="160.47" y="432.93">*</text>
<text x="347.10" y="71.88">.</text>
<text x="493.59" y="30.63">+</text>
<text x="74.46" y="273.44">.</text>
<text x="460.61" y="143.31">.</text>
<text x="372.32" y="201.21">+</text>
<text x="476.10" y="228.71">.</text>
<text x="236.07" y="73.07">.</text>
<text x="291.64" y="391.63">+</text>
<text x="258.86" y="42.07">+</text>
<text x="10.13" y="183.73">+</text>
<text x="75.34" y="284.17">.</text>
<text x="495.09" y="44.53">.</text>
<text x="484.84" y="0.25">.</text>
<text x="372.43" y="114.62">+</text>
<text x="60.81" y="166.64">.</text>
<text x="137.25" y="367.13">*</text>
<text x="405.34" y="57.60">.</text>
<text x="80.71" y="124.37">+</text>
<text x="491.28" y="365.71">+</text>
<text x="92.43" y="467.37">+</text>
<text x="48.76" y="153.17">*</text>
<text x="134.65" y="157.03">.</text>
<text x="199.14" y="253.87">.</text>
<text x="94.49" y="310.88">*</text>
<text x="480.38" y="184.01">+</text>
<text x="130.29" y="320.60">*</text>
<text x="326.57" y="446.54">*</text>
<text x="131.38" y="470.90">.</text>
<text x="316.19" y="255.06">*</text>
<text x="207.68" y="472.89">+</text>
<text x="52.45" y="187.60">.</text>
<text x="438.80" y="67.23">.</text>
<text x="382.23" y="134.78">+</text>
<text x="356.45" y="325.15">.</text>
<text x="342.63" y="66.22">+</text>
<text x="125.27" y="347.23">.</text>
<text x="430.32" y="292.51">+</text>
<text x="410.44" y="410.37">.</text>
<text x="166.32" y="313.80">.</text>
<text x="321.94" y="209.73">.</text>
<text x="55.79" y="441.33">+</text>
<text x="74.91" y="70.52">+</text>
<text x="358.11" y="64.05">+</text>
<text x="258.84" y="161.19">.</text>
<text x="117.18" y="211.86">+</text>
<text x="222.49" y="314.97">.</text>
<text x="469.16" y="263.26">*</text>
<text x="288.45" y="72.06">+</text>
<text x="247.27" y="267.84">.</text>
<text x="48.11" y="100.33">*</text>
<text x="191.53" y="102.96">.</text>
<text x="364.16" y="232.96">.</text>
<text x="11.11" y="234.65">+</text>
<text x="380.40" y="4.25">+</text>
<text x="353.64" y="313.92">+</text>
<text x="105.03" y="89.14">.</text>
<text x="330.67" y="397.36">+</text>
<text x="11.81" y="255.70">*</text>
<text x="56.83" y="408.99">.</text>
<text x="147.99" y="471.51">.</text>
<text x="193.61" y="268.47">.</text>
<text x="339.67" y="460.44">+</text>
<text x="431.49" y="378.98">+</text>
<text x="221.95" y="486.87">+</text>
<text x="24.80" y="414.91">+</text>
<text x="190.70" y="149.98">.</text>
<text x="118.15" y="4.40">*</text>
<text x="290.76" y="85.08">.</text>
<text x="122.07" y="78.53">.</text>
<text x="120.16" y="158.07">.</text>
<text x="337.33" y="405.54">.</text>
<text x="142.83" y="81.60">.</text>
<text x="170.23" y="215.99">*</text>
<text x="103.56" y="385.43">.</text>
<text x="35.76" y="219.49">+</text>
<text x="299.16" y="185.72">+</text>
<text x="191.34" y="463.52">.</text>
<text x="371.39" y="240.18">+</text>
<text x="98.78" y="216.43">+</text>
<text x="494.57" y="239.73">*</text>
<text x="207.06" y="389.06">.</text>
<text x="498.24" y="223.10">+</text>
<text x="194.56" y="488.01">.</text>
<text x="446.15" y="111.03">+</text>
<text x="129.39" y="394.63">+</text>
<text x="239.93" y="295.06">.</text>
<text x="260.89" y="87.47">.</text>
<text x="167.60" y="366.71">.</text>
<text x="219.35" y="355.10">+</text>
<text x="55.61" y="406.56">*</text>
<text x="342.29" y="115.59">.</text>
<text x="81.85" y="226.89">.</text>
<text x="270.68" y="172.83">.</text>

</svg>