
<svg viewBox="0 0 500 500" xmlns="http://www.w.org/2000/svg" width="100%" height="100%" style="background-color: #0a0a14; font-family: 'Courier New', Courier, monospace;">
    <style>
        text { fill: #aaa; font-size: 10px; text-anchor: middle; dominant-baseline: middle; }
    </style>
    <text x="385.06" y="450.62">+</text>
<text x="100.19" y="199.25">*</text>
<text x="327.26" y="106.88">.</text>
<text x="359.79" y="293.13">.</text>
<text x="357.67" y="39.12">+</text>
<text x="391.18" y="286.82">.</text>
<text x="396.41" y="264.02">.</text>
<text x="455.01" y="22.08">.</text>
<text x="184.39" y="465.15">.</text>
<text x="275.80" y="238.95">+</text>
<text x="204.66" y="294.75">.</text>
<text x="374.79" y="72.67">+</text>
<text x="314.91" y="184.91">*</text>
<text x="153.76" y="62.73">+</text>
<text x="52.15" y="306.74">.</text>
<text x="10.27" y="223.48">*</text>
<text x="295.43" y="223.54">+</text>
<text x="396.68" y="413.34">*</text>
<text x="61.55" y="144.37">+</text>
<text x="280.45" y="77.48">+</text>
<text x="304.62" y="5.60">+</text>
<text x="15.62" y="209.82">.</text>
<text x="393.74" y="400.31">+</text>
<text x="296.73" y="362.21">.</text>
<text x="479.55" y="351.50">.</text>
<text x="214.07" y="291.94">.</text>
<text x="497.43" y="38.98">*</text>
<text x="209.28" y="460.02">*</text>
<text x="409.08" y="349.01">+</text>
<text x="147.54" y="441.22">.</text>
<text x="386.50" y="290.10">+</text>
<text x="344.72" y="439.05">.</text>
<text x="272.23" y="307.59">+</text>
<text x="76.45" y="35.42">*</text>
<text x="163.51" y="319.94">*</text>
<text x="234.19" y="67.70">+</text>
<text x="218.30" y="269.94">+</text>
<text x="129.15" y="172.95">.</text>
<text x="71.23" y="280.82">.</text>
<text x="77.40" y="437.28">+</text>
<text x="424.14" y="115.93">.</text>
<text x="43.41" y="398.80">+</text>
<text x="309.03" y="216.64">+</text>
<text x="214.67" y="220.16">*</text>
<text x="185.01" y="490.14">.</text>
<text x="395.41" y="279.67">+</text>
<text x="410.19" y="242.66">+</text>
<text x="212.64" y="14.99">.</text>
<text x="316.50" y="179.34">.</text>
<text x="16.08" y="129.45">*</text>
<text x="448.89" y="203.39">+</text>
<text x="309.26" y="300.61">.</text>
<text x="341.98" y="76.75">+</text>
<text x="231.56" y="322.80">+</text>
<text x="212.10" y="492.36">.</text>
<text x="33.04" y="108.93">.</text>
<text x="227.48" y="397.81">*</text>
<text x="159.49" y="175.07">*</text>
<text x="270.69" y="201.82">.</text>
<text x="278.77" y="461.79">.</text>
<text x="423.24" y="52.49">+</text>
<text x="66.74" y="105.07">*</text>
<text x="417.75" y="26.96">+</text>
<text x="450.12" y="160.01">.</text>
<text x="265.54" y="211.16">+</text>
<text x="344.94" y="167.23">+</text>
<text x="358.47" y="20.68">*</text>
<text x="3.78" y="341.38">.</text>
<text x="122.32" y="175.90">*</text>
<text x="445.36" y="365.75">.</text>
<text x="393.43" y="17.86">.</text>
<text x="360.75" y="50.46">.</text>
<text x="341.85" y="188.38">.</text>
<text x="406.42" y="114.03">*</text>
<text x="168.21" y="365.84">+</text>
<text x="88.06" y="481.31">*</text>
<text x="461.26" y="493.46">+</text>
<text x="393.82" y="173.44">+</text>
<text x="416.99" y="252.17">+</text>
<text x="185.41" y="250.07">.</text>
<text x="161.37" y="465.51">+</text>
<text x="97.21" y="262.09">*</text>
<text x="288.60" y="87.79">*</text>
<text x="330.45" y="357.18">+</text>
<text x="475.88" y="253.44">+</text>
<text x="122.05" y="362.74">.</text>
<text x="408.62" y="152.09">.</text>
<text x="10.71" y="96.80">.</text>
<text x="162.47" y="229.67">+</text>
<text x="227.16" y="403.37">.</text>
<text x="88.27" y="18.32">+</text>
<text x="454.74" y="399.31">.</text>
<text x="391.06" y="52.28">+</text>
<text x="90.22" y="352.07">*</text>
<text x="32.60" y="185.25">.</text>
<text x="218.69" y="389.79">.</text>
<text x="335.92" y="497.63">.</text>
<text x="187.09" y="380.44">.</text>
<text x="75.31" y="179.73">.</text>
<text x="270.26" y="115.48">+</text>
<text x="430.25" y="31.00">*</text>
<text x="349.55" y="465.71">*</text>
<text x="445.88" y="187.65">.</text>
<text x="363.20" y="385.92">.</text>
<text x="421.80" y="261.78">+</text>
<text x="495.31" y="11.59">+</text>
<text x="379.63" y="69.10">.</text>
<text x="292.31" y="330.50">+</text>
<text x="101.89" y="435.65">+</text>
<text x="52.59" y="225.29">.</text>
<text x="472.83" y="249.53">+</text>
<text x="43.75" y="398.77">.</text>
<text x="40.14" y="393.23">.</text>
<text x="89.69" y="324.08">.</text>
<text x="233.03" y="23.84">.</text>
<text x="344.52" y="48.25">+</text>
<text x="245.21" y="270.71">+</text>
<text x="156.35" y="342.18">+</text>
<text x="50.93" y="79.07">+</text>
<text x="176.21" y="286.12">.</text>
<text x="105.22" y="392.83">+</text>
<text x="317.79" y="356.31">+</text>
<text x="401.41" y="390.43">+</text>
<text x="215.84" y="181.80">.</text>
<text x="381.15" y="448.40">+</text>
<text x="163.95" y="396.60">.</text>
<text x="203.44" y="38.86">+</text>
<text x="136.62" y="290.93">+</text>
<text x="143.69" y="162.05">+</text>
<text x="186.67" y="12.95">+</text>
<text x="121.60" y="383.24">.</text>
<text x="331.55" y="423.41">+</text>
<text x="65.65" y="422.73">+</text>
<text x="323.30" y="185.93">+</text>
<text x="428.30" y="478.04">+</text>
<text x="130.62" y="24.08">+</text>
<text x="301.60" y="178.88">.</text>
<text x="32.13" y="475.33">.</text>
<text x="465.30" y="346.78">+</text>
<text x="301.51" y="202.76">+</text>
<text x="104.96" y="156.40">+</text>
<text x="105.10" y="216.67">.</text>
<text x="221.91" y="460.63">*</text>
<text x="105.16" y="494.47">.</text>
<text x="421.49" y="142.76">+</text>
<text x="230.94" y="360.22">.</text>
<text x="107.07" y="88.04">*</text>
<text x="398.38" y="210.43">.</text>
<text x="398.51" y="448.34">*</text>
<text x="10.07" y="437.83">+</text>
<text x="52.89" y="69.33">+</text>
<text x="106.85" y="235.45">.</text>
<text x="297.05" y="483.83">.</text>
<text x="173.25" y="53.42">*</text>
<text x="290.40" y="241.30">+</text>
<text x="497.53" y="348.28">*</text>
<text x="368.28" y="498.98">*</text>
<text x="79.50" y="447.45">.</text>
<text x="401.51" y="316.61">+</text>
<text x="35.65" y="409.26">.</text>
<text x="386.08" y="112.77">+</text>
<text x="202.57" y="91.86">+</text>
<text x="389.28" y="9.10">+</text>
<text x="281.55" y="456.70">*</text>
<text x="91.88" y="350.39">+</text>
<text x="491.01" y="237.15">+</text>
<text x="428.98" y="355.25">*</text>
<text x="28.68" y="246.49">.</text>
<text x="349.58" y="35.74">.</text>
<text x="260.76" y="302.81">.</text>
<text x="247.23" y="408.11">+</text>
<text x="32.66" y="495.35">+</text>
<text x="7.94" y="49.78">.</text>
<text x="368.77" y="189.74">*</text>
<text x="128.95" y="477.59">.</text>
<text x="108.19" y="148.83">+</text>
<text x="459.14" y="428.99">.</text>
<text x="363.56" y="104.12">+</text>
<text x="319.55" y="5.19">.</text>
<text x="427.74" y="51.81">*</text>
<text x="213.65" y="337.05">+</text>
<text x="12.84" y="468.60">.</text>
<text x="326.56" y="285.21">+</text>
<text x="278.76" y="104.10">*</text>
<text x="30.98" y="457.84">+</text>
<text x="130.93" y="120.58">+</text>
<text x="263.04" y="178.87">.</text>
<text x="43.73" y="56.46">.</text>
<text x="170.51" y="282.57">.</text>
<text x="67.91" y="494.50">.</text>
<text x="53.26" y="389.24">.</text>
<text x="367.39" y="392.20">+</text>
<text x="447.31" y="304.68">+</text>
<text x="117.84" y="49.07">+</text>
<text x="466.10" y="407.83">.</text>
<text x="449.34" y="331.59">+</text>
<text x="309.87" y="55.12">.</text>
<text x="345.11" y="66.90">.</text>
<text x="31.95" y="69.15">+</text>
<text x="266.31" y="478.28">.</text>
<text x="305.98" y="222.77">.</text>
<text x="148.56" y="294.79">.</text>
<text x="16.36" y="472.63">*</text>
<text x="103.19" y="305.48">+</text>
<text x="251.38" y="373.00">.</text>
<text x="329.14" y="28.09">.</text>
<text x="368.28" y="428.63">+</text>
<text x="455.46" y="281.03">+</text>
<text x="403.37" y="281.20">*</text>
<text x="161.92" y="406.38">.</text>
<text x="291.54" y="99.62">+</text>
<text x="474.53" y="162.76">.</text>
<text x="210.30" y="172.72">+</text>
<text x="156.48" y="71.96">.</text>
<text x="385.56" y="245.21">.</text>
<text x="344.46" y="83.41">*</text>
<text x="78.20" y="44.86">.</text>
<text x="339.30" y="413.15">+</text>
<text x="362.30" y="156.26">.</text>
<text x="298.09" y="113.08">.</text>

</svg>