
<svg viewBox="0 0 500 500" xmlns="http://www.w.org/2000/svg" width="100%" height="100%" style="background-color: #0a0a14; font-family: 'Courier New', Courier, monospace;">
    <style>
        text { fill: #aaa; font-size: 10px; text-anchor: middle; dominant-baseline: middle; }
    </style>
    <text x="296.68" y="151.61">+</text>
<text x="192.33" y="470.40">+</text>
<text x="202.03" y="178.08">*</text>
<text x="497.53" y="373.69">.</text>
<text x="245.53" y="82.03">*</text>
<text x="486.23" y="248.32">.</text>
<text x="141.01" y="241.98">+</text>
<text x="229.27" y="236.89">+</text>
<text x="215.09" y="425.77">+</text>
<text x="494.88" y="10.35">+</text>
<text x="250.78" y="85.17">*</text>
<text x="129.83" y="11.57">.</text>
<text x="314.53" y="207.86">+</text>
<text x="164.45" y="5.76">.</text>
<text x="382.86" y="209.14">*</text>
<text x="430.95" y="493.98">.</text>
<text x="225.50" y="387.91">+</text>
<text x="379.35" y="166.81">.</text>
<text x="392.45" y="478.28">.</text>
<text x="309.91" y="446.21">+</text>
<text x="217.88" y="439.28">+</text>
<text x="370.14" y="354.22">+</text>
<text x="338.63" y="6.52">+</text>
<text x="495.57" y="173.57">+</text>
<text x="141.22" y="487.69">.</text>
<text x="162.18" y="300.22">+</text>
<text x="366.00" y="308.55">+</text>
<text x="41.25" y="3.21">.</text>
<text x="99.93" y="492.83">+</text>
<text x="461.00" y="100.43">.</text>
<text x="344.13" y="367.54">.</text>
<text x="223.02" y="25.15">.</text>
<text x="271.96" y="480.02">.</text>
<text x="127.05" y="28.81">+</text>
<text x="447.01" y="362.43">.</text>
<text x="7.01" y="378.46">*</text>
<text x="31.27" y="484.72">+</text>
<text x="344.14" y="85.12">*</text>
<text x="148.30" y="130.88">.</text>
<text x="69.91" y="273.01">+</text>
<text x="178.96" y="194.28">+</text>
<text x="382.39" y="408.59">+</text>
<text x="177.39" y="318.17">+</text>
<text x="109.58" y="487.31">+</text>
<text x="403.13" y="92.63">+</text>
<text x="300.43" y="361.53">.</text>
<text x="443.71" y="335.19">.</text>
<text x="447.06" y="357.91">+</text>
<text x="480.49" y="167.37">.</text>
<text x="306.92" y="228.16">.</text>
<text x="324.28" y="480.34">.</text>
<text x="102.57" y="192.22">+</text>
<text x="348.67" y="486.73">.</text>
<text x="67.44" y="3.43">+</text>
<text x="299.25" y="404.32">*</text>
<text x="491.61" y="7.27">+</text>
<text x="237.77" y="147.02">.</text>
<text x="19.21" y="257.91">+</text>
<text x="449.82" y="41.62">.</text>
<text x="314.82" y="37.04">+</text>
<text x="254.64" y="470.35">.</text>
<text x="73.76" y="498.47">+</text>
<text x="432.83" y="148.52">+</text>
<text x="79.89" y="50.25">.</text>
<text x="230.31" y="433.36">.</text>
<text x="397.67" y="12.16">+</text>
<text x="274.74" y="216.13">+</text>
<text x="310.16" y="215.28">*</text>
<text x="243.25" y="345.34">+</text>
<text x="416.77" y="366.34">+</text>
<text x="435.53" y="43.77">*</text>
<text x="104.54" y="27.75">*</text>
<text x="24.25" y="332.12">.</text>
<text x="151.91" y="74.70">.</text>
<text x="321.16" y="180.21">+</text>
<text x="310.04" y="166.48">.</text>
<text x="305.11" y="131.70">.</text>
<text x="330.43" y="45.92">.</text>
<text x="410.65" y="231.43">.</text>
<text x="386.74" y="491.12">*</text>
<text x="279.79" y="221.05">+</text>
<text x="235.97" y="257.59">.</text>
<text x="124.32" y="412.95">.</text>
<text x="225.71" y="75.46">+</text>
<text x="498.75" y="121.23">*</text>
<text x="488.79" y="285.70">.</text>
<text x="134.13" y="390.40">.</text>
<text x="124.58" y="310.81">+</text>
<text x="285.20" y="36.29">+</text>
<text x="67.99" y="477.35">+</text>
<text x="272.83" y="55.93">.</text>
<text x="166.72" y="195.67">.</text>
<text x="344.24" y="476.10">+</text>
<text x="341.42" y="73.31">.</text>
<text x="222.70" y="77.53">.</text>
<text x="349.89" y="308.55">+</text>
<text x="138.98" y="279.16">.</text>
<text x="362.01" y="455.01">+</text>
<text x="5.12" y="276.65">*</text>
<text x="16.97" y="356.60">+</text>
<text x="463.73" y="22.55">.</text>
<text x="334.48" y="291.65">.</text>
<text x="253.87" y="280.97">+</text>
<text x="70.09" y="302.58">.</text>
<text x="463.72" y="256.93">*</text>
<text x="219.53" y="422.90">.</text>
<text x="90.17" y="187.29">*</text>
<text x="69.23" y="416.15">+</text>
<text x="4.24" y="351.39">*</text>
<text x="95.61" y="117.26">+</text>
<text x="75.19" y="278.88">*</text>
<text x="119.73" y="3.08">.</text>
<text x="115.87" y="136.78">.</text>
<text x="205.04" y="245.84">+</text>
<text x="260.59" y="165.41">+</text>
<text x="365.80" y="336.79">*</text>
<text x="463.13" y="45.08">+</text>
<text x="152.00" y="483.85">.</text>
<text x="259.38" y="467.94">+</text>
<text x="221.76" y="346.22">.</text>
<text x="309.03" y="396.26">+</text>
<text x="448.53" y="159.26">+</text>
<text x="465.63" y="317.01">+</text>
<text x="398.33" y="175.98">.</text>
<text x="127.56" y="146.78">.</text>
<text x="68.10" y="58.42">+</text>
<text x="82.47" y="2.22">.</text>
<text x="96.69" y="210.33">.</text>
<text x="315.90" y="362.77">.</text>
<text x="198.95" y="232.63">*</text>
<text x="356.30" y="121.06">*</text>
<text x="286.70" y="362.24">.</text>
<text x="264.84" y="201.32">+</text>
<text x="355.75" y="129.47">.</text>
<text x="245.40" y="52.16">.</text>
<text x="3.65" y="328.42">.</text>
<text x="439.92" y="432.60">.</text>
<text x="7.33" y="136.63">+</text>
<text x="439.40" y="369.41">.</text>
<text x="115.03" y="366.02">.</text>
<text x="90.93" y="193.95">*</text>
<text x="359.61" y="414.50">.</text>
<text x="55.31" y="318.46">.</text>
<text x="55.91" y="308.70">*</text>
<text x="151.25" y="119.24">.</text>
<text x="425.21" y="475.13">.</text>
<text x="279.91" y="449.58">.</text>
<text x="144.46" y="24.22">*</text>
<text x="321.75" y="331.00">*</text>
<text x="455.78" y="347.25">.</text>
<text x="411.91" y="75.06">.</text>
<text x="149.36" y="101.46">.</text>
<text x="232.61" y="486.90">*</text>
<text x="96.41" y="286.54">.</text>
<text x="66.05" y="333.77">*</text>
<text x="195.49" y="322.60">+</text>
<text x="45.58" y="192.92">+</text>
<text x="13.05" y="287.49">+</text>
<text x="347.62" y="246.04">.</text>
<text x="237.27" y="70.17">+</text>
<text x="3.43" y="340.03">*</text>
<text x="326.74" y="431.07">.</text>
<text x="451.45" y="129.96">*</text>
<text x="285.01" y="160.23">+</text>
<text x="59.74" y="35.55">+</text>
<text x="127.09" y="133.28">+</text>
<text x="201.19" y="267.50">.</text>
<text x="75.84" y="253.48">.</text>
<text x="405.32" y="1.84">.</text>
<text x="189.67" y="150.53">+</text>
<text x="324.93" y="270.24">.</text>
<text x="431.37" y="310.62">*</text>
<text x="366.37" y="155.87">+</text>
<text x="266.93" y="160.57">*</text>
<text x="83.71" y="177.22">+</text>
<text x="129.11" y="14.77">+</text>
<text x="333.88" y="46.09">+</text>
<text x="408.02" y="348.12">+</text>
<text x="167.42" y="250.19">.</text>
<text x="235.41" y="214.36">+</text>
<text x="89.40" y="263.54">+</text>
<text x="420.23" y="438.60">.</text>
<text x="277.79" y="224.25">+</text>
<text x="245.10" y="202.00">*</text>
<text x="451.22" y="385.84">+</text>
<text x="400.50" y="417.14">*</text>
<text x="449.55" y="425.32">.</text>
<text x="105.72" y="361.70">+</text>
<text x="226.64" y="390.29">.</text>
<text x="489.26" y="0.47">*</text>
<text x="182.33" y="310.03">+</text>
<text x="101.62" y="437.80">*</text>
<text x="89.83" y="241.62">+</text>
<text x="450.30" y="170.22">+</text>
<text x="372.04" y="331.71">+</text>
<text x="453.23" y="177.07">*</text>
<text x="270.93" y="280.02">.</text>
<text x="249.40" y="440.35">+</text>
<text x="48.48" y="0.97">+</text>
<text x="96.10" y="118.84">*</text>
<text x="42.92" y="133.79">+</text>
<text x="329.53" y="81.36">.</text>

</svg>