
<svg viewBox="0 0 500 500" xmlns="http://www.w.org/2000/svg" width="100%" height="100%" style="background-color: #0a0a14; font-family: 'Courier New', Courier, monospace;">
    <style>
        text { fill: #aaa; font-size: 10px; text-anchor: middle; dominant-baseline: middle; }
    </style>
    <text x="253.19" y="33.59">+</text>
<text x="353.56" y="190.74">.</text>
<text x="414.21" y="408.45">*</text>
<text x="204.24" y="492.53">+</text>
<text x="423.79" y="172.62">.</text>
<text x="6.93" y="24.97">*</text>
<text x="31.26" y="462.91">+</text>
<text x="355.44" y="339.95">.</text>
<text x="107.35" y="238.80">.</text>
<text x="105.71" y="174.12">*</text>
<text x="223.13" y="303.03">+</text>
<text x="467.49" y="90.22">+</text>
<text x="483.39" y="211.95">*</text>
<text x="455.29" y="239.94">.</text>
<text x="103.47" y="348.27">+</text>
<text x="51.05" y="204.29">.</text>
<text x="84.20" y="281.77">+</text>
<text x="354.74" y="336.24">.</text>
<text x="64.11" y="272.37">.</text>
<text x="27.61" y="180.14">+</text>
<text x="452.03" y="446.19">.</text>
<text x="453.01" y="471.69">+</text>
<text x="487.13" y="471.84">+</text>
<text x="98.39" y="115.34">.</text>
<text x="346.88" y="203.76">*</text>
<text x="184.27" y="55.40">+</text>
<text x="192.32" y="75.92">.</text>
<text x="406.52" y="0.26">.</text>
<text x="252.31" y="373.38">.</text>
<text x="496.32" y="480.12">.</text>
<text x="30.86" y="210.23">.</text>
<text x="333.22" y="282.97">*</text>
<text x="249.06" y="125.90">.</text>
<text x="377.38" y="22.38">.</text>
<text x="63.32" y="158.29">+</text>
<text x="293.51" y="11.89">*</text>
<text x="203.98" y="133.25">+</text>
<text x="332.13" y="18.84">+</text>
<text x="430.30" y="83.28">.</text>
<text x="391.94" y="264.08">*</text>
<text x="484.15" y="183.40">+</text>
<text x="339.28" y="428.72">+</text>
<text x="102.98" y="259.87">+</text>
<text x="475.49" y="338.24">+</text>
<text x="110.28" y="115.44">+</text>
<text x="332.99" y="105.50">+</text>
<text x="90.63" y="489.34">*</text>
<text x="334.12" y="264.78">.</text>
<text x="135.02" y="425.62">.</text>
<text x="497.31" y="409.78">+</text>
<text x="82.50" y="54.59">+</text>
<text x="315.19" y="91.33">*</text>
<text x="133.25" y="133.38">+</text>
<text x="360.17" y="50.52">.</text>
<text x="254.66" y="373.83">*</text>
<text x="49.62" y="247.27">.</text>
<text x="5.39" y="490.34">*</text>
<text x="463.98" y="469.20">.</text>
<text x="368.61" y="347.84">.</text>
<text x="111.85" y="34.64">.</text>
<text x="342.96" y="185.93">+</text>
<text x="75.78" y="30.72">+</text>
<text x="111.79" y="199.63">.</text>
<text x="234.96" y="18.80">*</text>
<text x="273.86" y="304.22">*</text>
<text x="415.65" y="253.78">*</text>
<text x="56.29" y="22.84">.</text>
<text x="41.53" y="114.43">.</text>
<text x="236.42" y="283.91">+</text>
<text x="259.31" y="384.36">+</text>
<text x="468.15" y="98.24">*</text>
<text x="213.03" y="497.42">+</text>
<text x="326.22" y="29.66">+</text>
<text x="118.56" y="400.12">.</text>
<text x="53.25" y="32.85">.</text>
<text x="313.42" y="32.77">+</text>
<text x="139.20" y="345.39">.</text>
<text x="33.42" y="118.53">.</text>
<text x="441.94" y="112.17">.</text>
<text x="47.37" y="383.00">+</text>
<text x="417.33" y="255.05">+</text>
<text x="206.97" y="405.24">.</text>
<text x="369.75" y="321.53">.</text>
<text x="99.73" y="271.89">+</text>
<text x="46.32" y="498.62">.</text>
<text x="274.13" y="119.16">+</text>
<text x="206.53" y="104.23">*</text>
<text x="363.73" y="280.46">.</text>
<text x="446.82" y="492.66">.</text>
<text x="294.74" y="106.76">.</text>
<text x="34.83" y="321.92">*</text>
<text x="461.35" y="296.36">.</text>
<text x="88.51" y="358.24">+</text>
<text x="6.84" y="264.73">.</text>
<text x="418.96" y="499.42">+</text>
<text x="496.69" y="303.39">+</text>
<text x="432.30" y="3.61">.</text>
<text x="470.48" y="456.81">.</text>
<text x="229.13" y="226.27">+</text>
<text x="45.12" y="92.21">.</text>
<text x="275.57" y="153.47">+</text>
<text x="173.69" y="138.74">.</text>
<text x="108.22" y="310.76">.</text>
<text x="297.45" y="195.54">.</text>
<text x="338.33" y="84.48">.</text>
<text x="436.79" y="178.83">*</text>
<text x="267.70" y="317.84">.</text>
<text x="27.71" y="327.44">+</text>
<text x="461.98" y="432.74">.</text>
<text x="388.03" y="214.85">+</text>
<text x="358.96" y="46.68">+</text>
<text x="200.45" y="295.15">.</text>
<text x="76.70" y="59.48">.</text>
<text x="202.94" y="368.64">.</text>
<text x="45.95" y="81.89">+</text>
<text x="18.96" y="56.11">+</text>
<text x="184.51" y="375.78">+</text>
<text x="228.93" y="194.61">.</text>
<text x="454.82" y="461.21">.</text>
<text x="344.02" y="256.97">*</text>
<text x="403.35" y="306.55">.</text>
<text x="446.70" y="62.87">+</text>
<text x="389.02" y="371.31">+</text>
<text x="26.95" y="88.57">*</text>
<text x="115.82" y="157.70">+</text>
<text x="39.87" y="348.57">+</text>
<text x="51.76" y="270.55">*</text>
<text x="475.25" y="362.10">.</text>
<text x="266.54" y="496.58">.</text>
<text x="487.13" y="109.54">.</text>
<text x="149.21" y="84.79">+</text>
<text x="362.84" y="374.76">.</text>
<text x="41.88" y="354.55">.</text>
<text x="178.43" y="198.97">.</text>
<text x="106.08" y="78.94">.</text>
<text x="374.87" y="254.25">.</text>
<text x="423.52" y="69.49">.</text>
<text x="232.47" y="291.49">+</text>
<text x="389.15" y="223.03">+</text>
<text x="241.03" y="270.04">.</text>
<text x="369.93" y="414.08">+</text>
<text x="321.43" y="119.13">*</text>
<text x="369.30" y="267.31">+</text>
<text x="216.10" y="332.25">.</text>
<text x="243.67" y="293.95">.</text>
<text x="94.30" y="357.66">+</text>
<text x="166.38" y="61.17">.</text>
<text x="479.19" y="148.26">.</text>
<text x="120.56" y="386.47">.</text>
<text x="377.55" y="60.49">+</text>
<text x="146.60" y="157.68">+</text>
<text x="391.91" y="371.30">.</text>
<text x="103.41" y="191.53">.</text>
<text x="122.55" y="421.19">*</text>
<text x="336.53" y="392.79">.</text>
<text x="309.82" y="358.26">*</text>
<text x="113.80" y="92.98">.</text>
<text x="58.91" y="455.68">*</text>
<text x="135.97" y="444.41">.</text>
<text x="409.26" y="483.86">+</text>
<text x="197.13" y="245.64">+</text>
<text x="199.56" y="222.72">+</text>
<text x="472.44" y="228.43">+</text>
<text x="269.72" y="383.01">.</text>
<text x="308.96" y="130.58">.</text>
<text x="459.62" y="314.87">*</text>
<text x="220.52" y="11.72">+</text>
<text x="457.37" y="96.78">*</text>
<text x="459.69" y="499.57">+</text>
<text x="292.93" y="189.95">.</text>
<text x="347.70" y="36.75">+</text>
<text x="54.85" y="144.01">+</text>
<text x="415.06" y="220.29">*</text>
<text x="104.05" y="210.26">+</text>
<text x="150.73" y="386.86">.</text>
<text x="425.85" y="42.81">+</text>
<text x="236.31" y="75.18">+</text>
<text x="116.95" y="132.22">.</text>
<text x="244.88" y="91.11">*</text>
<text x="436.16" y="57.72">.</text>
<text x="53.75" y="182.44">+</text>
<text x="466.60" y="275.66">+</text>
<text x="5.18" y="309.98">.</text>
<text x="370.82" y="383.67">*</text>
<text x="374.75" y="107.53">+</text>
<text x="92.95" y="376.86">.</text>
<text x="244.94" y="132.43">+</text>
<text x="461.58" y="129.71">.</text>
<text x="416.60" y="75.18">.</text>
<text x="160.50" y="150.80">.</text>
<text x="479.33" y="33.67">+</text>
<text x="299.14" y="347.79">+</text>
<text x="43.76" y="177.58">+</text>
<text x="183.67" y="487.89">+</text>
<text x="29.29" y="131.31">*</text>
<text x="112.99" y="320.30">+</text>
<text x="433.11" y="173.34">*</text>
<text x="286.54" y="282.17">+</text>
<text x="237.32" y="162.46">.</text>
<text x="267.61" y="17.07">*</text>
<text x="419.09" y="126.14">.</text>
<text x="433.73" y="64.49">+</text>
<text x="288.23" y="15.66">.</text>
<text x="488.74" y="273.62">*</text>
<text x="376.13" y="424.68">+</text>
<text x="215.88" y="175.14">.</text>
<text x="473.33" y="115.46">*</text>
<text x="284.09" y="286.46">+</text>
<text x="228.78" y="348.43">+</text>
<text x="364.45" y="364.85">.</text>
<text x="491.48" y="218.58">*</text>
<text x="174.61" y="401.78">.</text>
<text x="430.57" y="269.00">+</text>
<text x="403.05" y="214.95">.</text>

</svg>