
<svg viewBox="0 0 500 500" xmlns="http://www.w.org/2000/svg" width="100%" height="100%" style="background-color: #0a0a14; font-family: 'Courier New', Courier, monospace;">
    <style>
        text { fill: #aaa; font-size: 10px; text-anchor: middle; dominant-baseline: middle; }
    </style>
    <text x="415.22" y="331.88">.</text>
<text x="252.06" y="435.58">+</text>
<text x="413.01" y="342.78">.</text>
<text x="86.11" y="260.79">+</text>
<text x="168.53" y="72.88">+</text>
<text x="94.22" y="341.27">+</text>
<text x="139.18" y="153.92">+</text>
<text x="413.05" y="287.99">+</text>
<text x="123.87" y="73.83">.</text>
<text x="60.58" y="228.70">.</text>
<text x="21.21" y="281.20">.</text>
<text x="379.87" y="300.75">+</text>
<text x="311.01" y="98.61">+</text>
<text x="98.10" y="95.62">*</text>
<text x="322.51" y="133.09">+</text>
<text x="11.72" y="407.92">+</text>
<text x="56.09" y="361.37">.</text>
<text x="264.11" y="427.63">+</text>
<text x="351.05" y="267.03">*</text>
<text x="173.05" y="295.42">+</text>
<text x="147.75" y="423.04">+</text>
<text x="84.58" y="314.68">+</text>
<text x="466.42" y="8.58">.</text>
<text x="102.71" y="308.09">+</text>
<text x="139.76" y="165.18">.</text>
<text x="51.30" y="441.58">.</text>
<text x="182.89" y="385.65">+</text>
<text x="294.61" y="136.41">+</text>
<text x="206.83" y="328.56">*</text>
<text x="489.71" y="271.52">*</text>
<text x="64.19" y="15.58">.</text>
<text x="234.88" y="401.54">.</text>
<text x="408.33" y="210.82">.</text>
<text x="402.11" y="32.34">.</text>
<text x="5.36" y="59.99">.</text>
<text x="317.31" y="216.84">+</text>
<text x="327.70" y="67.33">+</text>
<text x="1.08" y="203.55">+</text>
<text x="404.53" y="370.37">*</text>
<text x="111.56" y="359.08">*</text>
<text x="295.71" y="40.85">.</text>
<text x="140.26" y="157.81">*</text>
<text x="14.06" y="193.70">+</text>
<text x="157.44" y="225.02">+</text>
<text x="388.21" y="173.73">+</text>
<text x="77.39" y="151.85">.</text>
<text x="97.22" y="415.37">*</text>
<text x="66.69" y="45.37">*</text>
<text x="322.49" y="220.60">+</text>
<text x="396.11" y="316.52">+</text>
<text x="425.58" y="80.70">.</text>
<text x="167.20" y="151.76">.</text>
<text x="174.89" y="341.28">*</text>
<text x="287.38" y="151.01">.</text>
<text x="177.10" y="337.11">+</text>
<text x="301.98" y="292.91">.</text>
<text x="178.43" y="239.03">+</text>
<text x="469.85" y="448.71">.</text>
<text x="106.94" y="225.12">+</text>
<text x="355.20" y="95.34">+</text>
<text x="220.17" y="376.44">.</text>
<text x="492.84" y="326.35">+</text>
<text x="50.36" y="73.80">+</text>
<text x="407.71" y="158.54">.</text>
<text x="240.76" y="396.58">+</text>
<text x="341.49" y="338.12">+</text>
<text x="382.92" y="455.91">+</text>
<text x="238.49" y="83.71">*</text>
<text x="402.45" y="197.17">.</text>
<text x="173.79" y="227.33">+</text>
<text x="262.47" y="442.36">*</text>
<text x="321.43" y="25.28">+</text>
<text x="146.93" y="207.82">.</text>
<text x="298.20" y="386.53">+</text>
<text x="267.68" y="112.99">+</text>
<text x="239.67" y="59.74">+</text>
<text x="5.51" y="441.85">+</text>
<text x="120.91" y="27.20">+</text>
<text x="364.45" y="47.00">+</text>
<text x="300.70" y="104.65">.</text>
<text x="175.57" y="164.17">+</text>
<text x="45.01" y="136.59">+</text>
<text x="1.14" y="360.80">*</text>
<text x="287.75" y="157.85">+</text>
<text x="397.92" y="108.36">.</text>
<text x="66.63" y="464.39">+</text>
<text x="1.23" y="35.06">+</text>
<text x="246.44" y="459.85">+</text>
<text x="415.46" y="157.12">+</text>
<text x="344.97" y="141.79">.</text>
<text x="478.25" y="57.99">+</text>
<text x="59.13" y="442.92">*</text>
<text x="58.01" y="299.42">+</text>
<text x="340.78" y="182.47">+</text>
<text x="261.01" y="498.44">+</text>
<text x="260.67" y="300.42">.</text>
<text x="295.99" y="449.29">.</text>
<text x="17.42" y="105.38">.</text>
<text x="158.79" y="408.95">*</text>
<text x="276.31" y="15.28">.</text>
<text x="334.77" y="136.48">+</text>
<text x="461.60" y="292.00">*</text>
<text x="297.51" y="244.62">+</text>
<text x="330.88" y="477.39">.</text>
<text x="215.24" y="237.16">.</text>
<text x="291.35" y="481.41">.</text>
<text x="468.57" y="215.85">*</text>
<text x="38.35" y="41.32">+</text>
<text x="237.85" y="162.46">.</text>
<text x="440.70" y="307.20">+</text>
<text x="459.29" y="254.33">*</text>
<text x="167.68" y="35.47">+</text>
<text x="319.47" y="184.83">.</text>
<text x="228.82" y="45.96">+</text>
<text x="127.56" y="51.39">+</text>
<text x="24.56" y="42.34">*</text>
<text x="475.49" y="376.68">.</text>
<text x="282.18" y="220.19">.</text>
<text x="325.01" y="413.75">+</text>
<text x="431.21" y="361.60">.</text>
<text x="402.37" y="160.42">+</text>
<text x="178.09" y="60.93">+</text>
<text x="399.91" y="372.37">+</text>
<text x="491.71" y="193.92">.</text>
<text x="262.22" y="369.21">.</text>
<text x="152.92" y="318.97">.</text>
<text x="247.37" y="43.91">.</text>
<text x="465.78" y="146.26">+</text>
<text x="460.30" y="477.38">.</text>
<text x="49.86" y="151.34">+</text>
<text x="445.11" y="325.84">.</text>
<text x="372.49" y="256.18">.</text>
<text x="42.14" y="292.01">*</text>
<text x="235.07" y="404.95">*</text>
<text x="442.67" y="225.92">+</text>
<text x="422.82" y="339.39">.</text>
<text x="360.30" y="249.15">.</text>
<text x="372.42" y="127.94">.</text>
<text x="74.33" y="123.54">+</text>
<text x="481.48" y="465.24">+</text>
<text x="371.83" y="245.59">+</text>
<text x="104.52" y="273.07">+</text>
<text x="104.12" y="249.65">*</text>
<text x="322.53" y="121.66">+</text>
<text x="449.42" y="378.61">.</text>
<text x="373.69" y="455.15">+</text>
<text x="345.78" y="82.62">.</text>
<text x="369.90" y="113.42">.</text>
<text x="148.66" y="256.42">.</text>
<text x="172.05" y="101.68">.</text>
<text x="54.67" y="214.02">*</text>
<text x="407.39" y="499.77">*</text>
<text x="389.06" y="437.48">+</text>
<text x="123.56" y="183.25">.</text>
<text x="322.52" y="113.38">.</text>
<text x="305.49" y="158.80">.</text>
<text x="403.11" y="493.42">*</text>
<text x="33.09" y="191.83">.</text>
<text x="311.19" y="432.56">+</text>
<text x="300.75" y="345.05">+</text>
<text x="350.02" y="479.63">+</text>
<text x="262.70" y="243.56">+</text>
<text x="372.86" y="363.53">+</text>
<text x="342.42" y="227.60">.</text>
<text x="209.79" y="316.60">+</text>
<text x="247.63" y="445.88">+</text>
<text x="404.24" y="398.08">+</text>
<text x="163.09" y="165.35">.</text>
<text x="215.06" y="252.90">+</text>
<text x="234.54" y="377.20">.</text>
<text x="30.72" y="297.43">.</text>
<text x="342.80" y="57.09">*</text>
<text x="349.69" y="202.00">+</text>
<text x="16.57" y="319.29">.</text>
<text x="155.42" y="454.57">.</text>
<text x="219.12" y="321.55">+</text>
<text x="404.58" y="265.31">.</text>
<text x="38.55" y="238.25">+</text>
<text x="429.94" y="498.01">.</text>
<text x="256.00" y="402.25">.</text>
<text x="488.68" y="361.35">.</text>
<text x="310.11" y="425.90">+</text>
<text x="243.83" y="468.81">+</text>
<text x="321.14" y="239.55">+</text>
<text x="170.12" y="478.75">.</text>
<text x="425.66" y="247.04">.</text>
<text x="235.62" y="122.19">.</text>
<text x="17.19" y="210.09">+</text>
<text x="471.96" y="3.23">.</text>
<text x="402.64" y="490.04">+</text>
<text x="68.71" y="439.97">.</text>
<text x="281.28" y="379.13">+</text>
<text x="360.95" y="391.02">.</text>
<text x="387.13" y="254.23">*</text>
<text x="444.82" y="279.26">+</text>
<text x="88.55" y="142.34">+</text>
<text x="17.81" y="269.19">*</text>
<text x="207.70" y="48.51">.</text>
<text x="391.67" y="217.07">+</text>
<text x="342.12" y="411.55">*</text>
<text x="303.80" y="273.16">+</text>
<text x="413.84" y="219.67">+</text>
<text x="345.96" y="461.61">.</text>
<text x="79.37" y="310.18">+</text>
<text x="187.06" y="7.53">.</text>
<text x="158.87" y="480.28">*</text>
<text x="419.71" y="423.69">+</text>

</svg>