
<svg viewBox="0 0 500 500" xmlns="http://www.w.org/2000/svg" width="100%" height="100%" style="background-color: #0a0a14; font-family: 'Courier New', Courier, monospace;">
    <style>
        text { fill: #aaa; font-size: 10px; text-anchor: middle; dominant-baseline: middle; }
    </style>
    <text x="46.39" y="299.03">.</text>
<text x="378.68" y="290.53">+</text>
<text x="139.57" y="167.24">.</text>
<text x="281.55" y="186.91">+</text>
<text x="271.70" y="114.77">.</text>
<text x="366.69" y="433.16">.</text>
<text x="431.70" y="346.72">.</text>
<text x="462.10" y="127.27">.</text>
<text x="480.36" y="372.30">+</text>
<text x="303.41" y="60.32">+</text>
<text x="288.88" y="463.99">*</text>
<text x="461.17" y="10.01">+</text>
<text x="452.52" y="98.21">.</text>
<text x="31.41" y="419.71">.</text>
<text x="133.85" y="416.84">+</text>
<text x="258.09" y="91.03">+</text>
<text x="161.32" y="273.48">+</text>
<text x="143.59" y="353.07">+</text>
<text x="5.65" y="485.74">*</text>
<text x="42.30" y="200.50">.</text>
<text x="386.73" y="346.08">+</text>
<text x="440.57" y="56.41">.</text>
<text x="377.30" y="147.28">.</text>
<text x="197.16" y="188.65">*</text>
<text x="144.05" y="161.49">+</text>
<text x="383.99" y="403.72">.</text>
<text x="154.86" y="478.84">+</text>
<text x="408.28" y="151.61">+</text>
<text x="373.56" y="180.13">+</text>
<text x="127.38" y="428.86">+</text>
<text x="309.93" y="3.08">.</text>
<text x="426.49" y="123.51">+</text>
<text x="52.92" y="25.44">*</text>
<text x="331.49" y="496.27">+</text>
<text x="217.36" y="227.94">.</text>
<text x="113.33" y="335.23">*</text>
<text x="336.17" y="341.09">*</text>
<text x="219.76" y="108.60">.</text>
<text x="136.23" y="125.67">*</text>
<text x="123.63" y="53.58">.</text>
<text x="374.83" y="149.86">.</text>
<text x="316.61" y="106.28">.</text>
<text x="333.75" y="325.53">*</text>
<text x="399.31" y="385.11">+</text>
<text x="180.17" y="174.74">.</text>
<text x="405.01" y="349.28">+</text>
<text x="7.66" y="132.22">.</text>
<text x="490.94" y="447.23">+</text>
<text x="182.68" y="343.13">.</text>
<text x="383.05" y="387.90">+</text>
<text x="142.41" y="243.09">.</text>
<text x="249.09" y="74.14">+</text>
<text x="356.43" y="425.41">.</text>
<text x="487.56" y="423.11">*</text>
<text x="408.62" y="23.06">+</text>
<text x="465.62" y="389.25">+</text>
<text x="241.68" y="192.43">+</text>
<text x="322.91" y="173.88">+</text>
<text x="267.05" y="2.36">.</text>
<text x="409.63" y="400.52">*</text>
<text x="277.10" y="113.24">.</text>
<text x="163.63" y="208.43">.</text>
<text x="261.63" y="297.16">.</text>
<text x="414.20" y="240.82">*</text>
<text x="0.57" y="295.80">+</text>
<text x="180.12" y="444.06">.</text>
<text x="233.42" y="36.09">+</text>
<text x="69.19" y="32.44">.</text>
<text x="444.06" y="107.72">+</text>
<text x="149.04" y="257.94">+</text>
<text x="354.74" y="148.55">*</text>
<text x="218.07" y="122.54">*</text>
<text x="24.74" y="11.72">.</text>
<text x="83.75" y="405.60">.</text>
<text x="289.37" y="157.93">.</text>
<text x="431.78" y="210.00">*</text>
<text x="256.18" y="383.22">+</text>
<text x="268.18" y="74.52">.</text>
<text x="227.23" y="122.91">+</text>
<text x="284.50" y="210.61">.</text>
<text x="179.86" y="356.79">.</text>
<text x="95.41" y="418.53">.</text>
<text x="96.58" y="453.78">*</text>
<text x="382.65" y="29.62">.</text>
<text x="388.54" y="499.41">+</text>
<text x="79.86" y="170.01">+</text>
<text x="346.63" y="480.63">.</text>
<text x="324.33" y="199.00">.</text>
<text x="262.95" y="245.12">+</text>
<text x="318.66" y="126.53">.</text>
<text x="91.28" y="64.31">.</text>
<text x="227.47" y="133.49">.</text>
<text x="123.56" y="457.16">.</text>
<text x="415.79" y="389.22">.</text>
<text x="119.97" y="351.78">+</text>
<text x="341.37" y="97.14">.</text>
<text x="368.90" y="175.16">+</text>
<text x="354.23" y="131.42">+</text>
<text x="288.67" y="180.04">+</text>
<text x="36.88" y="329.99">.</text>
<text x="17.73" y="337.87">+</text>
<text x="284.88" y="14.62">.</text>
<text x="179.32" y="449.17">.</text>
<text x="253.41" y="76.96">.</text>
<text x="103.09" y="17.28">.</text>
<text x="146.20" y="478.78">.</text>
<text x="389.46" y="62.12">.</text>
<text x="16.26" y="78.99">+</text>
<text x="314.81" y="40.46">.</text>
<text x="200.53" y="256.76">*</text>
<text x="33.41" y="244.39">.</text>
<text x="214.10" y="435.89">.</text>
<text x="135.06" y="183.27">*</text>
<text x="139.24" y="187.36">+</text>
<text x="246.58" y="121.00">.</text>
<text x="164.55" y="96.05">.</text>
<text x="250.31" y="289.59">.</text>
<text x="59.93" y="307.45">+</text>
<text x="169.18" y="233.86">+</text>
<text x="315.80" y="303.61">+</text>
<text x="391.76" y="414.13">+</text>
<text x="29.93" y="138.14">.</text>
<text x="274.21" y="223.39">+</text>
<text x="120.56" y="366.31">.</text>
<text x="27.72" y="472.53">.</text>
<text x="224.93" y="267.62">+</text>
<text x="290.26" y="399.89">+</text>
<text x="317.41" y="261.38">.</text>
<text x="468.20" y="471.33">.</text>
<text x="373.25" y="368.66">.</text>
<text x="240.56" y="116.34">+</text>
<text x="416.99" y="67.89">.</text>
<text x="56.73" y="286.33">+</text>
<text x="470.68" y="426.94">.</text>
<text x="162.78" y="29.74">*</text>
<text x="495.42" y="257.42">+</text>
<text x="194.12" y="422.02">*</text>
<text x="44.56" y="330.70">+</text>
<text x="0.91" y="421.12">.</text>
<text x="314.86" y="223.74">.</text>
<text x="67.85" y="45.55">+</text>
<text x="291.03" y="18.73">+</text>
<text x="0.35" y="369.46">*</text>
<text x="346.87" y="316.74">.</text>
<text x="321.75" y="391.52">+</text>
<text x="496.06" y="256.70">+</text>
<text x="426.98" y="339.17">*</text>
<text x="19.06" y="205.90">+</text>
<text x="70.03" y="14.35">.</text>
<text x="95.33" y="423.89">*</text>
<text x="6.18" y="302.01">.</text>
<text x="381.44" y="87.89">+</text>
<text x="269.05" y="356.97">+</text>
<text x="36.09" y="44.85">+</text>
<text x="155.01" y="448.18">*</text>
<text x="406.04" y="367.84">.</text>
<text x="231.19" y="192.31">.</text>
<text x="125.09" y="274.27">*</text>
<text x="37.06" y="51.21">.</text>
<text x="410.75" y="88.80">+</text>
<text x="438.04" y="347.96">*</text>
<text x="403.09" y="266.81">+</text>
<text x="155.14" y="89.47">+</text>
<text x="151.61" y="479.30">.</text>
<text x="487.44" y="66.76">.</text>
<text x="373.60" y="484.10">.</text>
<text x="45.64" y="132.52">+</text>
<text x="238.83" y="13.46">+</text>
<text x="278.05" y="380.07">.</text>
<text x="423.01" y="51.87">+</text>
<text x="399.41" y="326.65">+</text>
<text x="47.40" y="318.42">.</text>
<text x="76.60" y="134.32">*</text>
<text x="472.62" y="27.42">+</text>
<text x="296.52" y="284.66">+</text>
<text x="205.20" y="65.21">+</text>
<text x="65.93" y="417.46">.</text>
<text x="446.55" y="168.48">+</text>
<text x="97.74" y="320.47">.</text>
<text x="47.08" y="132.62">.</text>
<text x="0.53" y="169.68">*</text>
<text x="150.37" y="16.47">*</text>
<text x="464.83" y="151.99">.</text>
<text x="352.67" y="423.09">+</text>
<text x="66.42" y="429.40">*</text>
<text x="67.26" y="401.67">+</text>
<text x="48.65" y="315.49">+</text>
<text x="385.85" y="392.90">+</text>
<text x="463.08" y="328.06">*</text>
<text x="272.86" y="330.28">.</text>
<text x="300.23" y="461.66">+</text>
<text x="386.75" y="147.60">.</text>
<text x="324.80" y="218.45">+</text>
<text x="442.77" y="211.51">.</text>
<text x="400.02" y="146.41">*</text>
<text x="410.68" y="322.11">.</text>
<text x="50.97" y="337.37">+</text>
<text x="237.95" y="471.44">+</text>
<text x="203.12" y="473.26">*</text>
<text x="385.31" y="204.71">+</text>
<text x="120.56" y="493.34">.</text>
<text x="253.54" y="195.70">+</text>
<text x="149.72" y="27.39">.</text>
<text x="335.67" y="125.36">*</text>
<text x="405.75" y="438.91">.</text>
<text x="406.17" y="189.09">.</text>
<text x="98.81" y="419.37">*</text>
<text x="495.64" y="12.80">*</text>
<text x="429.42" y="252.89">+</text>
<text x="323.72" y="347.64">*</text>
<text x="398.62" y="239.16">+</text>
<text x="28.19" y="295.01">.</text>
<text x="120.93" y="455.94">+</text>
<text x="444.85" y="262.93">+</text>
<text x="337.21" y="234.96">+</text>
<text x="53.67" y="459.81">+</text>
<text x="128.00" y="242.30">+</text>
<text x="43.75" y="482.90">+</text>

</svg>