
<svg viewBox="0 0 500 500" xmlns="http://www.w.org/2000/svg" width="100%" height="100%" style="background-color: #0a0a14; font-family: 'Courier New', Courier, monospace;">
    <style>
        text { fill: #aaa; font-size: 10px; text-anchor: middle; dominant-baseline: middle; }
    </style>
    <text x="112.48" y="407.93">.</text>
<text x="431.11" y="247.00">.</text>
<text x="216.70" y="147.39">+</text>
<text x="498.31" y="107.03">+</text>
<text x="467.28" y="242.65">+</text>
<text x="126.38" y="343.90">.</text>
<text x="363.37" y="344.90">.</text>
<text x="424.85" y="320.28">+</text>
<text x="343.08" y="425.86">+</text>
<text x="280.46" y="270.39">+</text>
<text x="319.32" y="134.87">+</text>
<text x="42.06" y="185.94">.</text>
<text x="191.11" y="83.73">+</text>
<text x="74.58" y="384.08">.</text>
<text x="416.06" y="461.62">.</text>
<text x="178.70" y="119.58">.</text>
<text x="231.18" y="405.14">+</text>
<text x="453.05" y="256.28">*</text>
<text x="285.70" y="187.75">*</text>
<text x="131.27" y="491.87">+</text>
<text x="308.58" y="167.75">+</text>
<text x="359.80" y="111.74">+</text>
<text x="455.10" y="478.12">+</text>
<text x="56.29" y="233.45">.</text>
<text x="289.35" y="56.63">*</text>
<text x="50.92" y="130.14">.</text>
<text x="26.72" y="200.38">+</text>
<text x="296.22" y="325.45">.</text>
<text x="411.98" y="232.48">+</text>
<text x="348.68" y="341.40">+</text>
<text x="64.50" y="55.04">.</text>
<text x="140.81" y="485.87">+</text>
<text x="492.48" y="199.66">.</text>
<text x="31.50" y="473.17">+</text>
<text x="128.12" y="81.93">+</text>
<text x="368.94" y="330.07">+</text>
<text x="337.33" y="419.60">.</text>
<text x="124.70" y="284.17">.</text>
<text x="18.12" y="122.43">+</text>
<text x="293.42" y="465.56">+</text>
<text x="201.03" y="457.10">+</text>
<text x="379.24" y="278.39">+</text>
<text x="281.42" y="144.49">+</text>
<text x="420.04" y="167.89">+</text>
<text x="457.73" y="430.12">.</text>
<text x="127.85" y="103.27">+</text>
<text x="407.72" y="217.55">+</text>
<text x="481.53" y="212.74">*</text>
<text x="304.28" y="429.53">.</text>
<text x="247.30" y="433.74">*</text>
<text x="36.89" y="392.11">.</text>
<text x="36.12" y="53.24">.</text>
<text x="271.96" y="421.17">.</text>
<text x="94.78" y="67.07">+</text>
<text x="419.17" y="282.53">.</text>
<text x="62.68" y="449.70">+</text>
<text x="406.79" y="230.28">.</text>
<text x="257.05" y="309.08">*</text>
<text x="468.39" y="439.56">+</text>
<text x="29.06" y="361.13">+</text>
<text x="249.35" y="385.07">+</text>
<text x="276.94" y="57.75">.</text>
<text x="410.73" y="259.29">.</text>
<text x="378.34" y="116.20">+</text>
<text x="150.94" y="438.57">.</text>
<text x="314.61" y="26.75">+</text>
<text x="433.79" y="488.48">.</text>
<text x="444.05" y="138.86">+</text>
<text x="119.65" y="389.05">.</text>
<text x="306.53" y="297.15">.</text>
<text x="105.80" y="172.02">.</text>
<text x="68.33" y="278.42">*</text>
<text x="309.75" y="67.79">.</text>
<text x="410.58" y="203.76">+</text>
<text x="171.48" y="4.71">.</text>
<text x="480.01" y="297.16">.</text>
<text x="221.03" y="8.06">*</text>
<text x="257.41" y="213.85">.</text>
<text x="293.44" y="39.62">+</text>
<text x="123.14" y="62.50">+</text>
<text x="393.21" y="234.31">.</text>
<text x="445.57" y="192.48">.</text>
<text x="24.23" y="40.04">+</text>
<text x="222.74" y="224.67">+</text>
<text x="441.88" y="215.29">+</text>
<text x="370.52" y="133.22">*</text>
<text x="22.41" y="179.59">+</text>
<text x="401.10" y="419.77">.</text>
<text x="414.94" y="337.44">*</text>
<text x="158.32" y="184.79">*</text>
<text x="411.43" y="231.64">+</text>
<text x="95.32" y="269.99">.</text>
<text x="120.74" y="70.81">*</text>
<text x="101.33" y="427.02">.</text>
<text x="59.90" y="401.15">+</text>
<text x="9.26" y="244.75">.</text>
<text x="258.79" y="280.15">.</text>
<text x="426.75" y="470.72">.</text>
<text x="297.93" y="434.38">.</text>
<text x="417.15" y="356.41">+</text>
<text x="436.68" y="336.47">.</text>
<text x="177.35" y="239.43">.</text>
<text x="179.33" y="111.01">.</text>
<text x="499.23" y="474.86">+</text>
<text x="243.75" y="81.20">+</text>
<text x="111.33" y="372.03">.</text>
<text x="458.62" y="382.93">*</text>
<text x="48.34" y="171.42">.</text>
<text x="154.13" y="380.03">*</text>
<text x="266.17" y="447.40">+</text>
<text x="184.48" y="39.72">+</text>
<text x="487.65" y="328.36">+</text>
<text x="63.26" y="234.29">.</text>
<text x="241.69" y="16.35">*</text>
<text x="212.89" y="453.94">+</text>
<text x="43.98" y="4.54">.</text>
<text x="349.41" y="165.65">.</text>
<text x="393.58" y="154.18">.</text>
<text x="198.98" y="251.45">*</text>
<text x="297.47" y="17.09">+</text>
<text x="39.60" y="446.94">+</text>
<text x="482.52" y="40.20">+</text>
<text x="284.14" y="484.68">.</text>
<text x="93.59" y="329.29">.</text>
<text x="74.62" y="453.74">+</text>
<text x="293.21" y="380.29">.</text>
<text x="449.19" y="27.67">+</text>
<text x="77.96" y="479.66">+</text>
<text x="223.38" y="451.72">.</text>
<text x="15.47" y="251.84">+</text>
<text x="105.25" y="370.09">.</text>
<text x="25.61" y="427.68">+</text>
<text x="208.51" y="28.85">+</text>
<text x="378.38" y="369.61">+</text>
<text x="225.73" y="288.00">.</text>
<text x="204.66" y="494.99">.</text>
<text x="484.07" y="424.09">+</text>
<text x="303.69" y="52.60">+</text>
<text x="201.08" y="28.31">+</text>
<text x="159.85" y="281.57">.</text>
<text x="497.18" y="402.72">.</text>
<text x="166.56" y="307.35">.</text>
<text x="152.93" y="238.11">+</text>
<text x="417.44" y="114.31">*</text>
<text x="4.16" y="286.04">.</text>
<text x="400.23" y="228.57">.</text>
<text x="201.40" y="78.08">.</text>
<text x="404.31" y="491.04">+</text>
<text x="334.38" y="133.52">*</text>
<text x="282.62" y="435.09">+</text>
<text x="47.85" y="241.93">.</text>
<text x="347.86" y="219.40">+</text>
<text x="120.91" y="228.68">+</text>
<text x="253.76" y="33.62">+</text>
<text x="113.33" y="110.60">.</text>
<text x="408.11" y="125.37">+</text>
<text x="135.00" y="132.67">.</text>
<text x="18.00" y="170.01">.</text>
<text x="196.97" y="62.79">+</text>
<text x="470.59" y="4.72">.</text>
<text x="428.61" y="330.11">.</text>
<text x="17.17" y="319.72">+</text>
<text x="304.76" y="372.46">.</text>
<text x="462.54" y="95.86">+</text>
<text x="273.03" y="447.21">+</text>
<text x="110.33" y="244.84">.</text>
<text x="105.42" y="455.17">.</text>
<text x="2.06" y="321.77">+</text>
<text x="462.68" y="262.67">+</text>
<text x="35.40" y="100.00">+</text>
<text x="226.44" y="292.70">+</text>
<text x="216.54" y="68.40">+</text>
<text x="204.62" y="362.10">.</text>
<text x="462.65" y="487.00">.</text>
<text x="335.69" y="225.92">.</text>
<text x="321.69" y="430.74">+</text>
<text x="53.78" y="198.95">.</text>
<text x="229.09" y="53.57">+</text>
<text x="382.22" y="319.19">+</text>
<text x="2.70" y="219.90">+</text>
<text x="16.01" y="1.08">+</text>
<text x="305.40" y="430.81">+</text>
<text x="320.92" y="77.33">.</text>
<text x="423.02" y="47.26">.</text>
<text x="134.57" y="93.83">+</text>
<text x="24.80" y="75.18">.</text>
<text x="343.88" y="112.93">*</text>
<text x="328.27" y="2.71">+</text>
<text x="87.38" y="438.73">+</text>
<text x="139.75" y="427.61">.</text>
<text x="279.42" y="325.83">+</text>
<text x="147.85" y="5.47">*</text>
<text x="0.27" y="100.60">+</text>
<text x="437.23" y="267.72">+</text>
<text x="12.25" y="140.32">.</text>
<text x="255.96" y="466.63">+</text>
<text x="483.00" y="301.81">+</text>
<text x="340.81" y="322.68">+</text>
<text x="59.74" y="122.92">+</text>
<text x="194.30" y="217.64">*</text>
<text x="473.69" y="389.91">*</text>
<text x="210.98" y="227.64">.</text>
<text x="14.21" y="398.84">.</text>

</svg>