
<svg viewBox="0 0 500 500" xmlns="http://www.w.org/2000/svg" width="100%" height="100%" style="background-color: #0a0a14; font-family: 'Courier New', Courier, monospace;">
    <style>
        text { fill: #aaa; font-size: 10px; text-anchor: middle; dominant-baseline: middle; }
    </style>
    <text x="399.52" y="341.37">+</text>
<text x="143.19" y="86.05">*</text>
<text x="263.09" y="436.04">+</text>
<text x="212.47" y="224.42">+</text>
<text x="146.96" y="324.24">+</text>
<text x="292.36" y="339.12">+</text>
<text x="141.44" y="4.44">+</text>
<text x="3.33" y="2.08">+</text>
<text x="323.25" y="336.61">+</text>
<text x="128.56" y="315.70">+</text>
<text x="237.61" y="26.84">*</text>
<text x="52.10" y="22.40">.</text>
<text x="129.35" y="102.63">.</text>
<text x="270.83" y="41.04">.</text>
<text x="61.90" y="151.61">*</text>
<text x="50.02" y="267.37">+</text>
<text x="109.09" y="92.06">*</text>
<text x="456.30" y="399.85">+</text>
<text x="305.25" y="181.76">*</text>
<text x="240.43" y="97.48">+</text>
<text x="216.05" y="450.44">+</text>
<text x="492.77" y="456.07">+</text>
<text x="62.39" y="363.97">+</text>
<text x="7.64" y="407.11">*</text>
<text x="11.36" y="114.81">+</text>
<text x="114.31" y="10.96">*</text>
<text x="166.88" y="182.41">.</text>
<text x="255.85" y="133.12">*</text>
<text x="19.87" y="355.59">.</text>
<text x="169.23" y="309.35">.</text>
<text x="248.77" y="181.06">.</text>
<text x="290.81" y="153.35">+</text>
<text x="284.38" y="257.51">.</text>
<text x="156.86" y="100.71">*</text>
<text x="51.60" y="351.19">.</text>
<text x="47.31" y="80.73">+</text>
<text x="139.77" y="376.10">.</text>
<text x="232.60" y="269.73">.</text>
<text x="196.00" y="416.89">*</text>
<text x="109.54" y="498.17">.</text>
<text x="384.40" y="133.90">+</text>
<text x="164.04" y="470.60">+</text>
<text x="287.30" y="282.12">*</text>
<text x="169.86" y="472.68">.</text>
<text x="204.54" y="465.12">+</text>
<text x="32.18" y="119.61">.</text>
<text x="294.07" y="278.63">.</text>
<text x="136.91" y="450.93">.</text>
<text x="455.00" y="289.83">+</text>
<text x="459.62" y="492.65">+</text>
<text x="473.13" y="345.12">+</text>
<text x="206.68" y="337.10">*</text>
<text x="12.80" y="454.65">+</text>
<text x="228.42" y="156.17">.</text>
<text x="281.32" y="292.60">+</text>
<text x="365.54" y="458.25">+</text>
<text x="128.14" y="114.76">+</text>
<text x="459.28" y="104.51">.</text>
<text x="263.79" y="257.86">.</text>
<text x="30.32" y="370.59">+</text>
<text x="173.65" y="264.17">+</text>
<text x="14.67" y="385.83">+</text>
<text x="475.04" y="22.54">+</text>
<text x="88.58" y="9.51">+</text>
<text x="199.79" y="468.87">*</text>
<text x="293.07" y="207.86">+</text>
<text x="45.86" y="359.97">.</text>
<text x="147.17" y="342.52">+</text>
<text x="19.01" y="127.95">+</text>
<text x="111.48" y="183.09">.</text>
<text x="48.15" y="374.63">.</text>
<text x="36.89" y="434.55">.</text>
<text x="52.98" y="417.08">+</text>
<text x="328.58" y="420.16">.</text>
<text x="368.05" y="482.15">.</text>
<text x="31.16" y="431.21">.</text>
<text x="20.40" y="166.94">+</text>
<text x="230.22" y="250.11">+</text>
<text x="448.36" y="256.98">+</text>
<text x="253.58" y="360.70">*</text>
<text x="406.83" y="126.39">+</text>
<text x="94.43" y="274.09">+</text>
<text x="315.55" y="84.42">+</text>
<text x="285.15" y="321.27">.</text>
<text x="311.43" y="475.98">+</text>
<text x="338.14" y="464.83">+</text>
<text x="168.15" y="284.92">+</text>
<text x="301.12" y="322.95">+</text>
<text x="45.10" y="387.44">+</text>
<text x="226.10" y="178.63">.</text>
<text x="297.20" y="62.21">*</text>
<text x="71.96" y="105.29">+</text>
<text x="388.74" y="325.59">*</text>
<text x="413.74" y="9.64">+</text>
<text x="17.68" y="3.58">*</text>
<text x="105.85" y="311.14">.</text>
<text x="262.80" y="364.62">+</text>
<text x="42.41" y="453.88">.</text>
<text x="30.80" y="242.14">+</text>
<text x="197.51" y="22.25">.</text>
<text x="494.02" y="302.77">.</text>
<text x="463.41" y="445.20">.</text>
<text x="157.56" y="282.44">+</text>
<text x="364.58" y="496.07">*</text>
<text x="176.91" y="30.73">+</text>
<text x="186.04" y="477.23">.</text>
<text x="17.66" y="7.84">.</text>
<text x="433.65" y="433.39">+</text>
<text x="276.20" y="107.20">.</text>
<text x="149.08" y="178.64">+</text>
<text x="235.64" y="325.86">.</text>
<text x="60.14" y="210.95">*</text>
<text x="364.52" y="409.89">.</text>
<text x="472.39" y="480.15">.</text>
<text x="201.62" y="350.82">.</text>
<text x="164.68" y="16.76">*</text>
<text x="434.88" y="443.76">*</text>
<text x="90.41" y="442.53">+</text>
<text x="2.00" y="86.02">.</text>
<text x="413.03" y="498.93">.</text>
<text x="9.51" y="357.86">.</text>
<text x="426.14" y="294.00">.</text>
<text x="308.33" y="47.38">+</text>
<text x="225.89" y="245.18">+</text>
<text x="280.77" y="360.29">.</text>
<text x="226.49" y="308.75">+</text>
<text x="414.77" y="9.53">+</text>
<text x="228.18" y="170.26">*</text>
<text x="381.23" y="419.99">+</text>
<text x="82.79" y="80.91">+</text>
<text x="164.51" y="61.93">.</text>
<text x="185.51" y="295.01">.</text>
<text x="264.92" y="118.63">*</text>
<text x="91.23" y="488.25">.</text>
<text x="415.40" y="206.66">*</text>
<text x="458.50" y="251.68">*</text>
<text x="66.08" y="2.13">.</text>
<text x="308.41" y="256.68">.</text>
<text x="385.47" y="487.98">.</text>
<text x="467.84" y="275.12">+</text>
<text x="52.99" y="348.67">+</text>
<text x="135.00" y="404.44">.</text>
<text x="69.60" y="25.85">.</text>
<text x="494.23" y="270.60">.</text>
<text x="335.01" y="260.25">+</text>
<text x="70.24" y="240.66">.</text>
<text x="267.93" y="378.03">+</text>
<text x="136.71" y="328.15">.</text>
<text x="473.33" y="75.70">+</text>
<text x="230.98" y="139.22">+</text>
<text x="452.63" y="275.97">*</text>
<text x="293.20" y="138.00">+</text>
<text x="378.85" y="110.67">+</text>
<text x="90.44" y="32.41">.</text>
<text x="193.48" y="297.46">.</text>
<text x="17.81" y="214.00">+</text>
<text x="385.38" y="431.16">+</text>
<text x="93.76" y="90.01">+</text>
<text x="374.66" y="294.99">+</text>
<text x="81.55" y="322.25">*</text>
<text x="353.89" y="224.73">*</text>
<text x="311.83" y="184.72">.</text>
<text x="325.78" y="36.37">.</text>
<text x="129.86" y="398.91">+</text>
<text x="208.43" y="94.00">+</text>
<text x="356.84" y="68.70">+</text>
<text x="376.99" y="435.88">.</text>
<text x="256.22" y="23.38">.</text>
<text x="490.26" y="370.68">+</text>
<text x="481.63" y="286.92">*</text>
<text x="265.39" y="485.54">+</text>
<text x="483.50" y="233.84">+</text>
<text x="13.19" y="425.25">.</text>
<text x="379.93" y="77.75">+</text>
<text x="44.65" y="321.89">*</text>
<text x="261.17" y="64.44">+</text>
<text x="479.71" y="320.44">.</text>
<text x="476.98" y="366.53">.</text>
<text x="125.31" y="18.20">+</text>
<text x="313.12" y="44.74">+</text>
<text x="266.30" y="302.45">.</text>
<text x="122.91" y="261.15">*</text>
<text x="175.66" y="172.26">.</text>
<text x="456.24" y="412.16">+</text>
<text x="343.91" y="371.45">.</text>
<text x="173.82" y="473.29">+</text>
<text x="401.13" y="148.70">*</text>
<text x="80.39" y="325.46">+</text>
<text x="78.04" y="205.75">+</text>
<text x="51.30" y="293.26">.</text>
<text x="144.14" y="80.94">+</text>
<text x="433.66" y="493.10">.</text>
<text x="358.32" y="343.64">+</text>
<text x="472.70" y="138.43">.</text>
<text x="41.13" y="286.83">+</text>
<text x="115.37" y="60.66">.</text>
<text x="438.65" y="415.50">.</text>
<text x="397.92" y="91.29">.</text>
<text x="148.47" y="313.29">+</text>
<text x="300.95" y="358.33">+</text>
<text x="90.30" y="478.34">+</text>
<text x="265.27" y="353.22">.</text>
<text x="45.00" y="341.07">+</text>
<text x="215.18" y="414.39">.</text>
<text x="264.01" y="180.83">+</text>
<text x="89.36" y="337.61">.</text>
<text x="231.57" y="223.41">+</text>
<text x="165.60" y="320.27">+</text>
<text x="409.10" y="326.89">.</text>
<text x="26.73" y="11.61">+</text>
<text x="299.90" y="92.78">*</text>
<text x="337.50" y="188.00">*</text>
<text x="74.67" y="486.35">*</text>
<text x="450.45" y="365.12">.</text>
<text x="374.95" y="447.13">+</text>

</svg>