
<svg viewBox="0 0 500 500" xmlns="http://www.w.org/2000/svg" width="100%" height="100%" style="background-color: #0a0a14; font-family: 'Courier New', Courier, monospace;">
    <style>
        text { fill: #aaa; font-size: 10px; text-anchor: middle; dominant-baseline: middle; }
    </style>
    <text x="309.85" y="47.56">.</text>
<text x="193.65" y="229.61">+</text>
<text x="41.11" y="378.10">*</text>
<text x="196.59" y="349.13">.</text>
<text x="477.94" y="372.67">.</text>
<text x="68.12" y="452.19">+</text>
<text x="273.87" y="405.03">+</text>
<text x="241.87" y="147.56">.</text>
<text x="460.96" y="481.58">.</text>
<text x="381.39" y="20.20">.</text>
<text x="329.88" y="466.91">+</text>
<text x="150.30" y="333.89">*</text>
<text x="153.80" y="13.17">.</text>
<text x="333.92" y="163.38">+</text>
<text x="354.90" y="135.68">+</text>
<text x="338.50" y="221.30">+</text>
<text x="338.89" y="144.77">+</text>
<text x="148.76" y="215.64">.</text>
<text x="86.65" y="268.60">*</text>
<text x="350.52" y="341.29">+</text>
<text x="403.57" y="350.84">.</text>
<text x="4.04" y="239.23">.</text>
<text x="47.85" y="305.31">.</text>
<text x="485.57" y="485.97">*</text>
<text x="159.62" y="55.49">+</text>
<text x="440.34" y="211.00">.</text>
<text x="3.68" y="244.54">.</text>
<text x="146.72" y="288.28">.</text>
<text x="308.21" y="318.67">.</text>
<text x="26.79" y="263.54">+</text>
<text x="472.24" y="243.65">+</text>
<text x="195.70" y="211.72">.</text>
<text x="37.33" y="237.23">*</text>
<text x="143.94" y="225.62">+</text>
<text x="189.81" y="269.02">*</text>
<text x="132.86" y="172.51">.</text>
<text x="81.47" y="405.12">.</text>
<text x="197.12" y="376.88">+</text>
<text x="488.58" y="292.06">.</text>
<text x="242.90" y="48.37">.</text>
<text x="363.61" y="224.91">.</text>
<text x="29.97" y="249.27">.</text>
<text x="248.70" y="319.73">.</text>
<text x="136.99" y="171.66">.</text>
<text x="221.84" y="401.38">+</text>
<text x="140.98" y="310.48">*</text>
<text x="52.32" y="465.21">.</text>
<text x="103.69" y="490.92">+</text>
<text x="8.28" y="118.72">.</text>
<text x="188.11" y="302.86">+</text>
<text x="298.33" y="243.94">.</text>
<text x="175.20" y="240.40">+</text>
<text x="41.34" y="404.11">+</text>
<text x="420.52" y="433.85">+</text>
<text x="263.56" y="108.30">*</text>
<text x="398.11" y="396.39">+</text>
<text x="404.39" y="292.18">+</text>
<text x="22.93" y="129.71">.</text>
<text x="384.08" y="156.93">+</text>
<text x="91.40" y="52.29">.</text>
<text x="177.07" y="199.21">*</text>
<text x="141.99" y="466.63">*</text>
<text x="312.66" y="461.78">.</text>
<text x="166.66" y="321.15">.</text>
<text x="318.39" y="178.06">.</text>
<text x="195.60" y="333.95">+</text>
<text x="420.04" y="367.21">.</text>
<text x="208.02" y="120.21">+</text>
<text x="371.78" y="419.48">.</text>
<text x="451.06" y="423.96">.</text>
<text x="36.14" y="394.99">.</text>
<text x="389.68" y="257.19">.</text>
<text x="218.14" y="37.00">+</text>
<text x="313.32" y="270.69">*</text>
<text x="159.40" y="44.37">.</text>
<text x="436.52" y="58.00">.</text>
<text x="151.04" y="342.89">.</text>
<text x="13.25" y="391.83">*</text>
<text x="262.45" y="462.29">.</text>
<text x="187.85" y="495.08">.</text>
<text x="438.56" y="342.94">+</text>
<text x="397.71" y="278.41">+</text>
<text x="270.68" y="417.66">*</text>
<text x="34.78" y="376.66">.</text>
<text x="472.73" y="454.15">.</text>
<text x="320.05" y="399.49">+</text>
<text x="38.77" y="41.14">*</text>
<text x="228.23" y="161.37">.</text>
<text x="372.70" y="143.23">.</text>
<text x="404.09" y="28.62">+</text>
<text x="21.70" y="300.46">.</text>
<text x="256.82" y="295.21">*</text>
<text x="357.39" y="246.90">.</text>
<text x="335.55" y="181.79">.</text>
<text x="247.96" y="272.44">*</text>
<text x="487.05" y="16.89">.</text>
<text x="184.57" y="303.59">.</text>
<text x="351.95" y="115.48">+</text>
<text x="350.61" y="162.97">*</text>
<text x="204.99" y="179.10">*</text>
<text x="458.11" y="178.10">.</text>
<text x="411.17" y="88.65">.</text>
<text x="354.19" y="483.14">+</text>
<text x="49.39" y="412.67">+</text>
<text x="318.18" y="363.96">+</text>
<text x="363.19" y="403.21">+</text>
<text x="494.51" y="267.65">+</text>
<text x="405.12" y="353.42">*</text>
<text x="388.41" y="254.53">.</text>
<text x="324.47" y="347.46">+</text>
<text x="105.40" y="399.48">+</text>
<text x="214.25" y="450.25">+</text>
<text x="123.49" y="374.90">.</text>
<text x="170.04" y="435.48">*</text>
<text x="182.20" y="59.22">.</text>
<text x="3.02" y="370.87">+</text>
<text x="118.22" y="52.53">.</text>
<text x="482.40" y="428.27">+</text>
<text x="154.83" y="415.64">.</text>
<text x="126.21" y="246.90">.</text>
<text x="209.10" y="165.03">.</text>
<text x="144.72" y="351.16">.</text>
<text x="471.08" y="150.09">+</text>
<text x="490.16" y="352.33">+</text>
<text x="209.92" y="244.64">*</text>
<text x="2.93" y="204.98">+</text>
<text x="361.71" y="193.38">+</text>
<text x="173.48" y="159.89">.</text>
<text x="88.95" y="220.40">.</text>
<text x="37.10" y="467.34">.</text>
<text x="205.66" y="151.19">.</text>
<text x="424.33" y="144.99">*</text>
<text x="207.21" y="144.80">+</text>
<text x="483.17" y="382.80">.</text>
<text x="357.42" y="143.48">+</text>
<text x="188.79" y="469.06">+</text>
<text x="5.47" y="131.52">+</text>
<text x="414.91" y="226.61">.</text>
<text x="134.72" y="418.38">.</text>
<text x="225.40" y="427.88">.</text>
<text x="227.41" y="174.93">+</text>
<text x="448.45" y="446.12">.</text>
<text x="296.25" y="20.39">.</text>
<text x="473.51" y="424.76">.</text>
<text x="20.39" y="291.11">.</text>
<text x="93.91" y="255.53">+</text>
<text x="413.22" y="83.26">.</text>
<text x="402.79" y="149.96">.</text>
<text x="306.80" y="204.32">+</text>
<text x="71.68" y="426.42">.</text>
<text x="452.35" y="290.89">*</text>
<text x="289.91" y="296.70">*</text>
<text x="341.14" y="172.02">.</text>
<text x="47.29" y="392.04">+</text>
<text x="128.76" y="272.78">.</text>
<text x="327.11" y="481.71">.</text>
<text x="282.33" y="80.61">+</text>
<text x="435.93" y="290.00">*</text>
<text x="224.19" y="285.36">.</text>
<text x="87.49" y="382.34">+</text>
<text x="377.54" y="346.68">*</text>
<text x="182.69" y="431.69">+</text>
<text x="311.58" y="351.98">+</text>
<text x="156.59" y="241.63">.</text>
<text x="307.95" y="229.62">+</text>
<text x="410.47" y="340.57">.</text>
<text x="329.19" y="12.05">.</text>
<text x="452.68" y="114.77">*</text>
<text x="355.80" y="271.14">*</text>
<text x="217.74" y="326.20">.</text>
<text x="98.19" y="281.95">.</text>
<text x="216.25" y="301.63">.</text>
<text x="292.52" y="470.82">.</text>
<text x="30.21" y="220.32">.</text>
<text x="390.60" y="356.13">.</text>
<text x="160.65" y="71.34">+</text>
<text x="115.90" y="470.70">.</text>
<text x="482.59" y="63.94">+</text>
<text x="3.36" y="51.40">+</text>
<text x="341.27" y="174.76">.</text>
<text x="95.78" y="327.41">.</text>
<text x="22.77" y="342.11">.</text>
<text x="350.91" y="394.23">.</text>
<text x="287.47" y="254.19">.</text>
<text x="227.37" y="426.08">.</text>
<text x="95.23" y="17.75">+</text>
<text x="483.76" y="22.25">.</text>
<text x="257.44" y="184.26">+</text>
<text x="288.32" y="331.94">.</text>
<text x="472.98" y="295.47">.</text>
<text x="147.18" y="290.74">+</text>
<text x="44.59" y="486.44">*</text>
<text x="338.44" y="30.16">+</text>
<text x="38.15" y="169.33">+</text>
<text x="243.26" y="318.27">.</text>
<text x="471.64" y="36.51">*</text>
<text x="162.20" y="462.42">.</text>
<text x="275.26" y="64.93">.</text>
<text x="478.05" y="207.12">+</text>
<text x="351.15" y="201.13">+</text>
<text x="70.15" y="440.88">+</text>
<text x="221.49" y="0.94">.</text>
<text x="204.25" y="194.69">.</text>
<text x="488.69" y="191.60">.</text>
<text x="224.02" y="327.52">.</text>
<text x="405.83" y="176.90">+</text>
<text x="109.55" y="88.19">.</text>
<text x="249.66" y="285.98">.</text>
<text x="237.06" y="150.26">.</text>
<text x="171.59" y="228.00">+</text>
<text x="164.86" y="134.71">+</text>
<text x="17.46" y="86.89">*</text>
<text x="277.61" y="453.37">+</text>
<text x="36.80" y="498.44">*</text>
<text x="221.23" y="246.89">.</text>
<text x="410.43" y="282.36">+</text>
<text x="336.89" y="21.89">.</text>

</svg>