
<svg viewBox="0 0 500 500" xmlns="http://www.w.org/2000/svg" width="100%" height="100%" style="background-color: #0a0a14; font-family: 'Courier New', Courier, monospace;">
    <style>
        text { fill: #aaa; font-size: 10px; text-anchor: middle; dominant-baseline: middle; }
    </style>
    <text x="113.19" y="311.23">+</text>
<text x="214.84" y="334.18">.</text>
<text x="52.81" y="72.87">.</text>
<text x="420.17" y="157.07">.</text>
<text x="440.37" y="390.79">+</text>
<text x="453.05" y="270.33">+</text>
<text x="74.72" y="117.96">+</text>
<text x="488.88" y="68.40">+</text>
<text x="148.15" y="378.75">+</text>
<text x="183.13" y="189.90">+</text>
<text x="222.36" y="246.01">*</text>
<text x="329.77" y="429.92">+</text>
<text x="99.26" y="16.59">+</text>
<text x="471.64" y="344.29">*</text>
<text x="478.04" y="433.82">.</text>
<text x="280.14" y="257.15">.</text>
<text x="307.72" y="316.98">*</text>
<text x="369.45" y="359.53">+</text>
<text x="483.34" y="321.51">+</text>
<text x="334.54" y="44.10">+</text>
<text x="200.34" y="272.17">.</text>
<text x="449.49" y="184.83">+</text>
<text x="128.68" y="97.28">*</text>
<text x="241.62" y="305.83">*</text>
<text x="23.14" y="381.06">.</text>
<text x="426.49" y="265.66">+</text>
<text x="34.84" y="311.22">+</text>
<text x="253.03" y="138.71">.</text>
<text x="232.73" y="399.70">.</text>
<text x="100.48" y="188.35">.</text>
<text x="218.36" y="144.55">.</text>
<text x="77.23" y="454.02">+</text>
<text x="292.52" y="455.60">*</text>
<text x="497.99" y="249.50">.</text>
<text x="340.31" y="132.20">.</text>
<text x="356.12" y="37.85">+</text>
<text x="473.13" y="425.33">+</text>
<text x="427.13" y="320.94">*</text>
<text x="46.90" y="295.08">.</text>
<text x="181.66" y="223.89">+</text>
<text x="410.68" y="356.16">.</text>
<text x="191.02" y="80.91">+</text>
<text x="203.18" y="206.73">+</text>
<text x="3.28" y="32.71">+</text>
<text x="408.66" y="487.60">+</text>
<text x="108.52" y="134.44">+</text>
<text x="187.89" y="424.90">.</text>
<text x="441.70" y="357.79">.</text>
<text x="422.92" y="455.12">+</text>
<text x="214.52" y="444.18">*</text>
<text x="261.77" y="174.62">.</text>
<text x="499.83" y="245.45">.</text>
<text x="327.55" y="206.92">.</text>
<text x="16.73" y="283.30">.</text>
<text x="329.94" y="367.74">+</text>
<text x="82.65" y="445.21">.</text>
<text x="333.09" y="155.10">.</text>
<text x="225.31" y="341.44">.</text>
<text x="235.48" y="39.91">.</text>
<text x="445.96" y="87.17">+</text>
<text x="334.47" y="481.36">.</text>
<text x="210.66" y="57.55">+</text>
<text x="466.47" y="384.68">+</text>
<text x="9.96" y="342.30">.</text>
<text x="67.97" y="149.10">.</text>
<text x="205.36" y="275.16">.</text>
<text x="460.62" y="143.60">.</text>
<text x="278.17" y="46.20">+</text>
<text x="47.20" y="382.01">.</text>
<text x="184.24" y="60.05">.</text>
<text x="216.45" y="335.81">*</text>
<text x="291.36" y="18.77">.</text>
<text x="334.94" y="35.48">+</text>
<text x="235.25" y="38.15">*</text>
<text x="126.40" y="351.15">+</text>
<text x="357.42" y="118.57">+</text>
<text x="390.75" y="428.24">+</text>
<text x="442.27" y="316.88">*</text>
<text x="357.17" y="406.75">.</text>
<text x="29.51" y="66.33">.</text>
<text x="96.66" y="74.24">+</text>
<text x="375.83" y="133.25">.</text>
<text x="319.69" y="226.91">+</text>
<text x="172.23" y="183.56">+</text>
<text x="147.26" y="117.30">*</text>
<text x="404.02" y="16.41">+</text>
<text x="139.90" y="93.09">.</text>
<text x="297.13" y="126.00">.</text>
<text x="168.29" y="208.78">+</text>
<text x="56.17" y="256.56">+</text>
<text x="395.55" y="215.30">+</text>
<text x="487.36" y="85.43">.</text>
<text x="16.35" y="327.61">*</text>
<text x="449.49" y="280.16">+</text>
<text x="476.38" y="273.60">+</text>
<text x="120.67" y="432.58">*</text>
<text x="163.10" y="246.63">.</text>
<text x="71.94" y="205.84">+</text>
<text x="354.03" y="21.71">+</text>
<text x="109.65" y="339.66">+</text>
<text x="342.33" y="286.58">.</text>
<text x="281.86" y="91.40">+</text>
<text x="101.72" y="264.47">.</text>
<text x="98.82" y="234.26">+</text>
<text x="3.91" y="460.21">+</text>
<text x="457.96" y="454.97">+</text>
<text x="429.50" y="360.91">.</text>
<text x="146.83" y="197.22">*</text>
<text x="290.59" y="286.45">+</text>
<text x="116.08" y="260.08">+</text>
<text x="197.00" y="60.99">+</text>
<text x="32.01" y="47.97">.</text>
<text x="100.18" y="54.80">+</text>
<text x="337.14" y="9.76">+</text>
<text x="125.97" y="259.69">*</text>
<text x="140.86" y="131.43">+</text>
<text x="50.21" y="67.12">+</text>
<text x="294.65" y="182.82">.</text>
<text x="326.80" y="262.81">.</text>
<text x="271.14" y="69.16">+</text>
<text x="37.81" y="196.94">.</text>
<text x="85.92" y="127.34">+</text>
<text x="242.79" y="228.39">.</text>
<text x="409.41" y="496.67">.</text>
<text x="89.74" y="259.22">.</text>
<text x="211.67" y="67.80">.</text>
<text x="346.31" y="82.06">+</text>
<text x="369.24" y="428.58">.</text>
<text x="65.92" y="188.22">+</text>
<text x="50.33" y="220.26">.</text>
<text x="223.39" y="318.44">.</text>
<text x="337.46" y="356.84">*</text>
<text x="469.87" y="58.92">.</text>
<text x="273.92" y="125.35">+</text>
<text x="57.26" y="480.22">.</text>
<text x="473.62" y="123.12">.</text>
<text x="266.40" y="426.07">+</text>
<text x="348.76" y="187.47">.</text>
<text x="80.55" y="358.66">.</text>
<text x="406.83" y="240.89">.</text>
<text x="376.74" y="285.37">+</text>
<text x="199.11" y="20.49">+</text>
<text x="442.98" y="265.68">+</text>
<text x="49.89" y="130.35">+</text>
<text x="388.43" y="162.70">.</text>
<text x="343.44" y="186.55">+</text>
<text x="47.16" y="474.48">.</text>
<text x="366.75" y="253.73">.</text>
<text x="39.63" y="355.28">+</text>
<text x="97.95" y="7.21">+</text>
<text x="270.89" y="491.00">.</text>
<text x="408.59" y="479.13">.</text>
<text x="84.26" y="76.62">+</text>
<text x="178.98" y="421.29">*</text>
<text x="189.21" y="363.13">.</text>
<text x="153.54" y="476.47">+</text>
<text x="316.51" y="312.75">.</text>
<text x="173.56" y="213.92">+</text>
<text x="385.77" y="217.04">+</text>
<text x="2.05" y="265.95">+</text>
<text x="492.91" y="7.44">+</text>
<text x="201.29" y="407.59">.</text>
<text x="492.37" y="489.31">+</text>
<text x="192.65" y="235.29">+</text>
<text x="49.82" y="52.51">.</text>
<text x="104.19" y="392.96">+</text>
<text x="367.47" y="352.98">.</text>
<text x="339.28" y="424.95">.</text>
<text x="437.95" y="153.81">+</text>
<text x="183.51" y="347.84">+</text>
<text x="286.35" y="263.07">.</text>
<text x="96.26" y="424.80">+</text>
<text x="157.88" y="299.73">+</text>
<text x="222.57" y="409.13">+</text>
<text x="395.85" y="241.29">+</text>
<text x="202.42" y="301.87">*</text>
<text x="447.88" y="71.81">*</text>
<text x="132.40" y="348.75">.</text>
<text x="430.97" y="284.98">.</text>
<text x="332.93" y="146.49">+</text>
<text x="306.02" y="188.52">+</text>
<text x="104.97" y="40.61">+</text>
<text x="90.81" y="281.35">.</text>
<text x="289.21" y="441.58">.</text>
<text x="237.97" y="30.25">+</text>
<text x="334.53" y="218.80">+</text>
<text x="317.98" y="51.91">+</text>
<text x="270.40" y="444.12">.</text>
<text x="67.83" y="220.18">+</text>
<text x="381.50" y="391.63">.</text>
<text x="279.06" y="245.22">+</text>
<text x="169.54" y="94.62">*</text>
<text x="394.65" y="117.24">*</text>
<text x="158.68" y="88.94">.</text>
<text x="413.87" y="264.48">+</text>
<text x="242.47" y="36.99">.</text>
<text x="378.80" y="369.15">.</text>
<text x="390.84" y="169.31">.</text>
<text x="89.29" y="62.75">+</text>
<text x="437.57" y="137.89">+</text>

</svg>