
<svg viewBox="0 0 500 500" xmlns="http://www.w.org/2000/svg" width="100%" height="100%" style="background-color: #0a0a14; font-family: 'Courier New', Courier, monospace;">
    <style>
        text { fill: #aaa; font-size: 10px; text-anchor: middle; dominant-baseline: middle; }
    </style>
    <text x="354.18" y="323.61">+</text>
<text x="261.74" y="433.44">.</text>
<text x="106.75" y="237.87">+</text>
<text x="230.91" y="163.33">*</text>
<text x="352.33" y="342.64">.</text>
<text x="130.82" y="37.71">.</text>
<text x="195.82" y="442.11">+</text>
<text x="271.19" y="98.46">+</text>
<text x="35.87" y="14.95">+</text>
<text x="456.72" y="17.72">*</text>
<text x="129.14" y="68.69">+</text>
<text x="171.73" y="497.51">+</text>
<text x="330.79" y="457.31">.</text>
<text x="84.56" y="224.20">+</text>
<text x="421.00" y="251.58">+</text>
<text x="297.68" y="351.24">+</text>
<text x="291.06" y="334.89">.</text>
<text x="20.11" y="142.24">+</text>
<text x="327.54" y="46.59">+</text>
<text x="55.86" y="458.52">*</text>
<text x="443.94" y="491.95">.</text>
<text x="488.48" y="440.51">+</text>
<text x="171.09" y="152.34">+</text>
<text x="249.57" y="479.90">.</text>
<text x="400.55" y="237.29">.</text>
<text x="426.24" y="108.51">.</text>
<text x="393.22" y="53.04">.</text>
<text x="225.50" y="475.95">+</text>
<text x="171.01" y="284.95">*</text>
<text x="388.77" y="182.11">+</text>
<text x="158.95" y="257.80">*</text>
<text x="33.04" y="304.58">+</text>
<text x="38.67" y="167.90">+</text>
<text x="1.79" y="161.82">+</text>
<text x="343.54" y="439.18">+</text>
<text x="233.59" y="1.25">+</text>
<text x="359.28" y="475.16">*</text>
<text x="258.55" y="357.85">.</text>
<text x="3.82" y="174.30">*</text>
<text x="388.03" y="344.82">.</text>
<text x="20.99" y="211.00">+</text>
<text x="160.55" y="193.05">+</text>
<text x="117.89" y="170.91">+</text>
<text x="150.67" y="434.97">+</text>
<text x="155.91" y="98.75">+</text>
<text x="14.71" y="249.29">.</text>
<text x="174.06" y="344.00">+</text>
<text x="2.18" y="398.85">+</text>
<text x="149.09" y="461.42">+</text>
<text x="404.46" y="456.40">+</text>
<text x="91.30" y="454.80">+</text>
<text x="387.79" y="184.04">+</text>
<text x="438.64" y="457.84">+</text>
<text x="10.82" y="448.70">+</text>
<text x="55.15" y="74.99">+</text>
<text x="452.00" y="223.05">+</text>
<text x="348.56" y="5.31">+</text>
<text x="112.07" y="187.28">.</text>
<text x="338.62" y="131.73">*</text>
<text x="36.59" y="279.01">*</text>
<text x="43.24" y="314.82">.</text>
<text x="106.39" y="381.78">*</text>
<text x="136.19" y="244.02">.</text>
<text x="262.44" y="292.66">+</text>
<text x="369.16" y="90.35">+</text>
<text x="428.13" y="204.31">*</text>
<text x="430.33" y="323.25">.</text>
<text x="48.46" y="332.02">+</text>
<text x="461.73" y="452.54">+</text>
<text x="475.88" y="376.93">.</text>
<text x="300.22" y="403.28">.</text>
<text x="470.16" y="132.62">+</text>
<text x="484.94" y="122.86">+</text>
<text x="95.82" y="285.96">.</text>
<text x="401.97" y="94.12">*</text>
<text x="426.31" y="4.73">.</text>
<text x="137.06" y="425.96">*</text>
<text x="326.07" y="37.53">*</text>
<text x="318.02" y="183.26">+</text>
<text x="39.62" y="436.66">+</text>
<text x="176.14" y="490.55">.</text>
<text x="57.97" y="214.40">.</text>
<text x="248.48" y="370.05">.</text>
<text x="103.70" y="139.45">*</text>
<text x="426.01" y="445.41">.</text>
<text x="333.57" y="436.75">*</text>
<text x="248.19" y="54.61">+</text>
<text x="398.75" y="149.44">.</text>
<text x="282.05" y="254.64">.</text>
<text x="308.75" y="483.22">.</text>
<text x="386.21" y="351.24">+</text>
<text x="55.33" y="308.90">*</text>
<text x="120.44" y="300.46">.</text>
<text x="427.79" y="399.39">+</text>
<text x="112.41" y="145.63">+</text>
<text x="420.65" y="8.32">.</text>
<text x="483.40" y="166.58">+</text>
<text x="456.87" y="411.00">*</text>
<text x="82.83" y="417.96">.</text>
<text x="245.08" y="471.56">+</text>
<text x="125.84" y="306.75">*</text>
<text x="155.91" y="291.29">+</text>
<text x="192.08" y="316.36">+</text>
<text x="395.75" y="15.94">+</text>
<text x="164.50" y="324.00">+</text>
<text x="55.56" y="11.45">.</text>
<text x="41.64" y="384.75">.</text>
<text x="34.14" y="126.97">+</text>
<text x="58.44" y="407.70">+</text>
<text x="468.32" y="459.15">*</text>
<text x="427.83" y="331.91">.</text>
<text x="235.92" y="318.48">.</text>
<text x="76.08" y="391.73">+</text>
<text x="184.42" y="189.99">.</text>
<text x="289.13" y="239.00">.</text>
<text x="348.86" y="106.19">.</text>
<text x="234.64" y="152.01">.</text>
<text x="307.30" y="389.91">+</text>
<text x="268.53" y="433.97">.</text>
<text x="87.47" y="451.07">.</text>
<text x="487.36" y="463.52">+</text>
<text x="403.79" y="276.63">.</text>
<text x="338.65" y="462.83">+</text>
<text x="1.98" y="288.47">*</text>
<text x="350.24" y="197.61">+</text>
<text x="16.64" y="124.29">+</text>
<text x="147.33" y="70.64">.</text>
<text x="318.57" y="222.07">.</text>
<text x="240.76" y="391.22">*</text>
<text x="246.20" y="485.56">.</text>
<text x="245.21" y="473.02">.</text>
<text x="229.74" y="261.79">+</text>
<text x="100.57" y="141.93">.</text>
<text x="326.51" y="198.60">+</text>
<text x="364.44" y="117.80">.</text>
<text x="348.99" y="261.79">.</text>
<text x="458.91" y="350.36">+</text>
<text x="69.60" y="468.66">+</text>
<text x="299.55" y="424.97">.</text>
<text x="384.02" y="46.96">+</text>
<text x="419.87" y="349.02">+</text>
<text x="65.72" y="209.51">+</text>
<text x="384.74" y="335.76">*</text>
<text x="4.54" y="473.25">+</text>
<text x="135.21" y="2.55">+</text>
<text x="355.04" y="257.11">+</text>
<text x="388.58" y="205.42">.</text>
<text x="424.88" y="329.31">.</text>
<text x="383.99" y="148.66">+</text>
<text x="304.59" y="44.21">+</text>
<text x="283.09" y="495.88">.</text>
<text x="134.76" y="24.41">.</text>
<text x="35.09" y="200.74">.</text>
<text x="110.96" y="413.46">+</text>
<text x="397.15" y="84.69">*</text>
<text x="479.31" y="17.66">.</text>
<text x="168.61" y="440.83">.</text>
<text x="311.43" y="271.74">+</text>
<text x="473.18" y="190.40">+</text>
<text x="281.96" y="159.33">.</text>
<text x="270.32" y="162.71">*</text>
<text x="329.49" y="275.70">.</text>
<text x="276.18" y="479.34">.</text>
<text x="150.74" y="129.07">.</text>
<text x="261.73" y="187.85">+</text>
<text x="249.43" y="483.16">.</text>
<text x="437.27" y="213.93">+</text>
<text x="249.51" y="318.65">.</text>
<text x="140.23" y="258.69">+</text>
<text x="294.95" y="173.38">.</text>
<text x="2.12" y="91.98">*</text>
<text x="73.69" y="219.68">.</text>
<text x="223.45" y="105.94">.</text>
<text x="201.21" y="403.05">.</text>
<text x="111.21" y="242.28">+</text>
<text x="447.49" y="489.98">.</text>
<text x="1.94" y="63.77">.</text>
<text x="431.74" y="55.25">.</text>
<text x="278.53" y="216.60">+</text>
<text x="270.72" y="477.08">.</text>
<text x="451.00" y="398.82">+</text>
<text x="100.80" y="127.88">+</text>
<text x="462.90" y="245.71">*</text>
<text x="469.67" y="140.73">+</text>
<text x="79.96" y="29.13">+</text>
<text x="104.59" y="117.15">+</text>
<text x="430.68" y="284.92">+</text>
<text x="20.74" y="72.46">+</text>
<text x="49.12" y="320.03">+</text>
<text x="42.66" y="368.32">*</text>
<text x="188.94" y="279.58">+</text>
<text x="154.51" y="145.98">+</text>
<text x="229.48" y="165.84">*</text>
<text x="472.90" y="315.52">.</text>
<text x="195.15" y="455.83">+</text>
<text x="221.65" y="313.31">+</text>
<text x="238.25" y="32.22">.</text>
<text x="275.99" y="484.76">+</text>
<text x="373.94" y="486.59">*</text>
<text x="127.96" y="433.52">.</text>
<text x="328.89" y="45.15">+</text>
<text x="446.36" y="268.89">.</text>
<text x="202.38" y="283.77">.</text>
<text x="234.26" y="186.65">+</text>

</svg>