
<svg viewBox="0 0 500 500" xmlns="http://www.w.org/2000/svg" width="100%" height="100%" style="background-color: #0a0a14; font-family: 'Courier New', Courier, monospace;">
    <style>
        text { fill: #aaa; font-size: 10px; text-anchor: middle; dominant-baseline: middle; }
    </style>
    <text x="160.72" y="170.76">+</text>
<text x="324.23" y="175.49">.</text>
<text x="436.82" y="421.61">.</text>
<text x="109.18" y="209.43">+</text>
<text x="422.82" y="0.77">+</text>
<text x="84.27" y="403.25">+</text>
<text x="122.70" y="388.53">.</text>
<text x="250.40" y="17.06">+</text>
<text x="15.74" y="398.73">.</text>
<text x="496.82" y="392.68">.</text>
<text x="293.49" y="58.78">+</text>
<text x="237.91" y="322.90">.</text>
<text x="255.53" y="354.24">.</text>
<text x="470.06" y="8.49">.</text>
<text x="4.48" y="66.46">.</text>
<text x="255.46" y="250.11">+</text>
<text x="159.90" y="51.00">.</text>
<text x="339.83" y="287.76">*</text>
<text x="153.98" y="358.15">+</text>
<text x="392.80" y="189.23">.</text>
<text x="497.26" y="427.00">+</text>
<text x="327.57" y="499.62">+</text>
<text x="54.53" y="202.29">+</text>
<text x="233.95" y="483.86">.</text>
<text x="30.85" y="460.90">+</text>
<text x="307.17" y="396.39">+</text>
<text x="371.09" y="485.09">+</text>
<text x="26.73" y="495.27">+</text>
<text x="318.04" y="188.40">*</text>
<text x="358.05" y="486.25">.</text>
<text x="196.73" y="314.58">.</text>
<text x="130.75" y="362.36">+</text>
<text x="435.13" y="481.98">*</text>
<text x="302.13" y="493.26">+</text>
<text x="187.38" y="147.62">.</text>
<text x="496.70" y="55.57">*</text>
<text x="359.68" y="393.14">.</text>
<text x="359.38" y="466.27">+</text>
<text x="248.75" y="260.74">.</text>
<text x="498.41" y="138.14">+</text>
<text x="129.58" y="53.92">.</text>
<text x="361.82" y="286.03">.</text>
<text x="337.60" y="38.18">.</text>
<text x="23.48" y="251.58">+</text>
<text x="214.12" y="231.43">.</text>
<text x="271.53" y="439.51">+</text>
<text x="293.13" y="323.74">.</text>
<text x="222.90" y="289.60">*</text>
<text x="200.64" y="217.28">.</text>
<text x="261.16" y="219.37">+</text>
<text x="41.82" y="385.66">+</text>
<text x="213.93" y="451.28">+</text>
<text x="478.47" y="473.61">*</text>
<text x="140.78" y="326.80">+</text>
<text x="330.54" y="224.61">.</text>
<text x="41.01" y="57.21">+</text>
<text x="440.10" y="263.29">.</text>
<text x="297.48" y="412.01">+</text>
<text x="427.91" y="250.58">+</text>
<text x="190.18" y="201.76">.</text>
<text x="409.03" y="423.60">.</text>
<text x="2.07" y="103.02">.</text>
<text x="405.71" y="409.39">.</text>
<text x="328.93" y="421.54">+</text>
<text x="231.46" y="179.86">+</text>
<text x="383.58" y="393.26">+</text>
<text x="395.14" y="145.92">.</text>
<text x="153.18" y="329.99">+</text>
<text x="392.92" y="267.03">.</text>
<text x="122.38" y="278.53">*</text>
<text x="76.62" y="35.33">.</text>
<text x="104.09" y="341.69">.</text>
<text x="425.78" y="169.81">+</text>
<text x="289.93" y="178.15">+</text>
<text x="177.99" y="102.61">+</text>
<text x="378.66" y="146.61">*</text>
<text x="387.13" y="337.86">+</text>
<text x="52.51" y="180.66">.</text>
<text x="228.89" y="133.35">.</text>
<text x="350.91" y="263.35">+</text>
<text x="423.52" y="392.98">.</text>
<text x="239.68" y="485.74">*</text>
<text x="80.70" y="72.33">.</text>
<text x="98.90" y="244.56">*</text>
<text x="189.23" y="467.38">.</text>
<text x="328.93" y="353.61">+</text>
<text x="178.57" y="382.55">+</text>
<text x="329.10" y="96.78">.</text>
<text x="153.95" y="417.32">+</text>
<text x="139.77" y="101.57">.</text>
<text x="273.68" y="139.17">.</text>
<text x="468.98" y="244.00">.</text>
<text x="355.23" y="114.18">.</text>
<text x="327.18" y="138.01">+</text>
<text x="276.40" y="186.63">.</text>
<text x="243.76" y="52.74">+</text>
<text x="313.53" y="33.80">*</text>
<text x="245.01" y="472.27">+</text>
<text x="347.90" y="305.80">.</text>
<text x="370.17" y="12.62">.</text>
<text x="368.26" y="211.73">+</text>
<text x="85.79" y="31.70">*</text>
<text x="9.04" y="170.49">+</text>
<text x="307.74" y="176.81">+</text>
<text x="435.19" y="109.73">.</text>
<text x="22.94" y="216.13">.</text>
<text x="54.37" y="458.34">.</text>
<text x="212.08" y="416.35">.</text>
<text x="55.79" y="69.24">*</text>
<text x="422.07" y="89.87">.</text>
<text x="308.43" y="224.83">*</text>
<text x="84.66" y="237.09">+</text>
<text x="104.47" y="335.28">+</text>
<text x="24.35" y="478.50">.</text>
<text x="183.55" y="324.86">.</text>
<text x="172.65" y="44.35">+</text>
<text x="217.06" y="334.31">.</text>
<text x="412.05" y="433.45">.</text>
<text x="12.06" y="223.18">.</text>
<text x="191.68" y="443.81">*</text>
<text x="195.75" y="117.60">.</text>
<text x="368.29" y="164.14">+</text>
<text x="298.09" y="399.35">+</text>
<text x="410.71" y="403.09">.</text>
<text x="426.73" y="333.44">.</text>
<text x="373.14" y="375.52">*</text>
<text x="318.11" y="77.28">.</text>
<text x="453.17" y="490.67">.</text>
<text x="199.13" y="169.84">+</text>
<text x="130.21" y="415.61">.</text>
<text x="136.99" y="315.27">+</text>
<text x="271.74" y="353.66">+</text>
<text x="134.62" y="290.47">+</text>
<text x="373.81" y="260.99">+</text>
<text x="153.02" y="94.16">+</text>
<text x="498.87" y="279.19">+</text>
<text x="33.16" y="266.05">.</text>
<text x="268.55" y="73.40">*</text>
<text x="329.34" y="198.04">*</text>
<text x="345.50" y="162.67">+</text>
<text x="433.41" y="235.88">.</text>
<text x="387.92" y="113.90">+</text>
<text x="211.36" y="134.93">.</text>
<text x="141.77" y="111.47">*</text>
<text x="406.41" y="310.13">+</text>
<text x="404.04" y="115.97">+</text>
<text x="3.25" y="290.85">.</text>
<text x="42.64" y="297.69">.</text>
<text x="444.18" y="417.30">.</text>
<text x="116.82" y="316.19">+</text>
<text x="90.31" y="454.43">.</text>
<text x="133.75" y="214.55">.</text>
<text x="256.52" y="253.13">+</text>
<text x="103.63" y="495.54">+</text>
<text x="489.29" y="88.62">+</text>
<text x="171.01" y="309.17">.</text>
<text x="23.33" y="433.78">.</text>
<text x="214.12" y="19.16">+</text>
<text x="406.06" y="248.38">+</text>
<text x="3.82" y="140.25">.</text>
<text x="495.30" y="443.68">+</text>
<text x="74.21" y="195.50">.</text>
<text x="318.75" y="319.87">.</text>
<text x="322.64" y="330.04">.</text>
<text x="7.26" y="169.79">+</text>
<text x="155.87" y="270.54">+</text>
<text x="68.80" y="140.15">.</text>
<text x="102.70" y="10.76">.</text>
<text x="463.96" y="334.03">.</text>
<text x="137.15" y="87.80">*</text>
<text x="91.55" y="485.96">.</text>
<text x="23.86" y="234.72">+</text>
<text x="334.42" y="409.40">*</text>
<text x="82.50" y="445.82">+</text>
<text x="136.30" y="452.56">*</text>
<text x="433.31" y="361.60">.</text>
<text x="330.40" y="484.42">*</text>
<text x="406.10" y="230.07">.</text>
<text x="288.54" y="382.64">+</text>
<text x="155.45" y="115.41">.</text>
<text x="416.08" y="203.86">+</text>
<text x="189.66" y="234.20">+</text>
<text x="367.83" y="43.84">+</text>
<text x="143.39" y="19.66">.</text>
<text x="144.13" y="38.49">*</text>
<text x="58.74" y="377.57">+</text>
<text x="3.12" y="148.50">+</text>
<text x="209.43" y="261.83">.</text>
<text x="161.61" y="291.14">+</text>
<text x="125.71" y="424.15">+</text>
<text x="226.66" y="164.81">*</text>
<text x="20.76" y="16.74">+</text>
<text x="74.89" y="297.65">+</text>
<text x="486.96" y="435.98">*</text>
<text x="211.09" y="253.91">*</text>
<text x="143.91" y="444.19">.</text>
<text x="233.17" y="117.56">+</text>
<text x="279.20" y="124.16">.</text>
<text x="7.91" y="232.01">+</text>
<text x="489.70" y="345.81">.</text>
<text x="136.63" y="93.38">+</text>
<text x="318.05" y="388.56">+</text>
<text x="360.58" y="165.90">+</text>
<text x="371.77" y="98.68">.</text>
<text x="401.12" y="229.47">+</text>
<text x="76.53" y="98.27">.</text>
<text x="24.65" y="357.11">.</text>
<text x="6.06" y="172.06">*</text>
<text x="404.94" y="246.88">.</text>
<text x="453.89" y="302.54">*</text>
<text x="45.68" y="27.29">+</text>
<text x="340.22" y="487.72">.</text>
<text x="398.69" y="334.39">+</text>
<text x="399.55" y="450.65">.</text>

</svg>