
<svg viewBox="0 0 500 500" xmlns="http://www.w.org/2000/svg" width="100%" height="100%" style="background-color: #0a0a14; font-family: 'Courier New', Courier, monospace;">
    <style>
        text { fill: #aaa; font-size: 10px; text-anchor: middle; dominant-baseline: middle; }
    </style>
    <text x="186.87" y="228.98">*</text>
<text x="18.88" y="446.11">*</text>
<text x="288.46" y="63.41">+</text>
<text x="485.23" y="142.56">.</text>
<text x="173.02" y="441.11">.</text>
<text x="217.83" y="318.60">+</text>
<text x="58.88" y="482.77">+</text>
<text x="311.61" y="66.32">.</text>
<text x="461.56" y="341.03">*</text>
<text x="317.64" y="358.95">+</text>
<text x="190.93" y="448.97">.</text>
<text x="85.99" y="60.91">+</text>
<text x="144.34" y="89.71">.</text>
<text x="13.96" y="248.32">+</text>
<text x="102.79" y="364.75">.</text>
<text x="89.74" y="286.19">.</text>
<text x="325.23" y="366.00">+</text>
<text x="148.75" y="8.79">+</text>
<text x="386.67" y="262.04">.</text>
<text x="216.79" y="311.50">.</text>
<text x="439.30" y="337.99">.</text>
<text x="213.78" y="268.41">.</text>
<text x="240.47" y="157.88">.</text>
<text x="66.17" y="301.65">*</text>
<text x="150.86" y="107.91">.</text>
<text x="290.42" y="48.61">*</text>
<text x="331.05" y="381.32">.</text>
<text x="274.94" y="81.64">*</text>
<text x="67.04" y="115.07">+</text>
<text x="184.76" y="409.01">+</text>
<text x="191.17" y="311.79">.</text>
<text x="448.59" y="156.31">.</text>
<text x="321.98" y="392.03">.</text>
<text x="150.12" y="383.93">.</text>
<text x="245.84" y="314.72">.</text>
<text x="462.06" y="264.41">+</text>
<text x="176.69" y="368.93">.</text>
<text x="295.40" y="237.36">.</text>
<text x="301.74" y="458.67">.</text>
<text x="440.98" y="339.40">*</text>
<text x="330.06" y="284.90">.</text>
<text x="371.63" y="189.97">*</text>
<text x="411.70" y="36.38">.</text>
<text x="244.05" y="53.21">.</text>
<text x="497.83" y="493.33">+</text>
<text x="73.27" y="2.56">.</text>
<text x="82.85" y="274.70">+</text>
<text x="246.96" y="57.69">+</text>
<text x="223.14" y="238.63">.</text>
<text x="184.27" y="377.28">+</text>
<text x="11.48" y="425.00">.</text>
<text x="431.22" y="273.78">.</text>
<text x="405.74" y="44.10">+</text>
<text x="1.23" y="228.61">+</text>
<text x="357.23" y="346.25">.</text>
<text x="389.25" y="252.91">.</text>
<text x="74.32" y="390.13">*</text>
<text x="416.71" y="296.71">*</text>
<text x="264.43" y="74.05">.</text>
<text x="356.34" y="116.59">+</text>
<text x="247.09" y="139.47">.</text>
<text x="124.50" y="458.37">+</text>
<text x="268.84" y="405.32">+</text>
<text x="125.87" y="395.28">+</text>
<text x="145.39" y="110.87">+</text>
<text x="428.98" y="252.83">.</text>
<text x="105.00" y="204.93">*</text>
<text x="60.23" y="141.67">+</text>
<text x="220.31" y="385.49">.</text>
<text x="215.74" y="313.49">.</text>
<text x="434.84" y="303.26">.</text>
<text x="33.97" y="52.18">+</text>
<text x="28.25" y="288.62">+</text>
<text x="380.83" y="29.68">+</text>
<text x="308.16" y="330.95">*</text>
<text x="474.10" y="125.90">+</text>
<text x="443.05" y="303.58">.</text>
<text x="343.53" y="399.79">*</text>
<text x="35.80" y="337.42">+</text>
<text x="485.06" y="424.26">.</text>
<text x="159.25" y="15.09">+</text>
<text x="73.57" y="181.07">+</text>
<text x="137.28" y="280.33">.</text>
<text x="167.24" y="35.43">+</text>
<text x="188.74" y="481.56">.</text>
<text x="209.40" y="322.76">.</text>
<text x="289.54" y="497.42">+</text>
<text x="343.39" y="58.70">.</text>
<text x="168.64" y="78.32">.</text>
<text x="267.23" y="168.62">.</text>
<text x="286.44" y="389.05">.</text>
<text x="219.29" y="328.49">*</text>
<text x="205.93" y="436.05">*</text>
<text x="463.68" y="277.63">.</text>
<text x="496.27" y="369.74">+</text>
<text x="339.54" y="197.09">+</text>
<text x="402.53" y="217.73">.</text>
<text x="353.00" y="102.54">+</text>
<text x="169.57" y="17.38">*</text>
<text x="190.08" y="180.38">+</text>
<text x="266.91" y="415.76">*</text>
<text x="69.35" y="259.76">.</text>
<text x="442.30" y="286.56">+</text>
<text x="60.69" y="57.97">*</text>
<text x="443.09" y="202.98">*</text>
<text x="499.39" y="498.47">+</text>
<text x="243.12" y="375.55">.</text>
<text x="19.48" y="345.09">*</text>
<text x="459.25" y="102.95">*</text>
<text x="485.68" y="163.22">+</text>
<text x="377.73" y="226.85">.</text>
<text x="322.40" y="190.86">.</text>
<text x="285.18" y="321.64">.</text>
<text x="210.24" y="142.15">.</text>
<text x="474.19" y="253.51">.</text>
<text x="360.23" y="318.36">.</text>
<text x="254.76" y="248.71">+</text>
<text x="143.18" y="178.62">+</text>
<text x="358.94" y="180.67">+</text>
<text x="6.16" y="32.75">+</text>
<text x="364.14" y="252.23">.</text>
<text x="29.70" y="236.61">+</text>
<text x="402.46" y="390.96">+</text>
<text x="346.46" y="120.40">+</text>
<text x="48.21" y="414.37">+</text>
<text x="247.88" y="182.33">+</text>
<text x="72.53" y="125.20">+</text>
<text x="455.89" y="247.20">+</text>
<text x="341.35" y="39.73">+</text>
<text x="388.43" y="147.56">.</text>
<text x="134.04" y="399.35">+</text>
<text x="189.81" y="354.57">.</text>
<text x="42.62" y="239.42">.</text>
<text x="410.93" y="278.07">.</text>
<text x="178.50" y="316.67">*</text>
<text x="160.82" y="71.63">.</text>
<text x="437.87" y="19.09">.</text>
<text x="407.50" y="376.10">+</text>
<text x="325.72" y="454.90">.</text>
<text x="209.85" y="484.84">.</text>
<text x="417.03" y="246.56">.</text>
<text x="133.59" y="193.51">+</text>
<text x="89.56" y="21.15">.</text>
<text x="477.69" y="114.21">*</text>
<text x="423.69" y="241.65">+</text>
<text x="337.19" y="458.79">.</text>
<text x="121.71" y="404.60">+</text>
<text x="253.18" y="59.23">.</text>
<text x="170.08" y="59.65">+</text>
<text x="150.30" y="273.07">.</text>
<text x="218.75" y="374.12">+</text>
<text x="391.80" y="479.66">+</text>
<text x="101.40" y="479.10">+</text>
<text x="24.10" y="303.03">+</text>
<text x="392.25" y="109.09">+</text>
<text x="298.98" y="90.76">+</text>
<text x="352.52" y="272.73">.</text>
<text x="187.80" y="419.71">.</text>
<text x="170.00" y="163.80">+</text>
<text x="450.31" y="164.35">.</text>
<text x="432.23" y="237.70">.</text>
<text x="21.75" y="158.76">+</text>
<text x="53.88" y="71.86">+</text>
<text x="150.53" y="232.78">*</text>
<text x="47.90" y="126.76">+</text>
<text x="86.73" y="260.93">*</text>
<text x="127.94" y="382.77">+</text>
<text x="47.35" y="491.74">.</text>
<text x="307.78" y="218.24">.</text>
<text x="415.37" y="9.43">.</text>
<text x="329.00" y="451.00">+</text>
<text x="397.14" y="75.73">+</text>
<text x="218.00" y="326.72">.</text>
<text x="435.80" y="263.36">+</text>
<text x="437.49" y="208.30">*</text>
<text x="429.97" y="5.91">.</text>
<text x="483.64" y="428.71">.</text>
<text x="193.87" y="115.97">.</text>
<text x="27.07" y="248.80">.</text>
<text x="284.29" y="45.74">.</text>
<text x="391.12" y="201.20">+</text>
<text x="211.06" y="195.86">.</text>
<text x="125.19" y="41.01">*</text>
<text x="483.81" y="371.02">+</text>
<text x="222.98" y="227.12">.</text>
<text x="144.38" y="27.41">*</text>
<text x="141.13" y="310.17">.</text>
<text x="369.71" y="121.24">+</text>
<text x="343.33" y="255.39">.</text>
<text x="110.93" y="75.53">.</text>
<text x="309.02" y="135.48">+</text>
<text x="337.56" y="339.28">+</text>
<text x="411.53" y="445.80">+</text>
<text x="369.44" y="262.68">+</text>
<text x="111.31" y="139.45">.</text>
<text x="32.88" y="433.44">.</text>
<text x="312.95" y="243.66">+</text>
<text x="103.71" y="261.24">.</text>
<text x="250.89" y="185.26">.</text>
<text x="104.11" y="116.11">.</text>
<text x="496.06" y="24.08">.</text>

</svg>