
<svg viewBox="0 0 500 500" xmlns="http://www.w.org/2000/svg" width="100%" height="100%" style="background-color: #0a0a14; font-family: 'Courier New', Courier, monospace;">
    <style>
        text { fill: #aaa; font-size: 10px; text-anchor: middle; dominant-baseline: middle; }
    </style>
    <text x="106.68" y="164.12">.</text>
<text x="314.82" y="226.91">.</text>
<text x="5.08" y="150.21">+</text>
<text x="271.37" y="387.46">*</text>
<text x="146.32" y="401.25">+</text>
<text x="482.31" y="339.75">+</text>
<text x="131.87" y="220.87">.</text>
<text x="222.66" y="453.90">*</text>
<text x="461.89" y="371.89">+</text>
<text x="455.57" y="355.87">*</text>
<text x="448.57" y="258.04">+</text>
<text x="53.43" y="324.49">.</text>
<text x="268.71" y="277.66">*</text>
<text x="186.76" y="147.37">+</text>
<text x="132.36" y="203.66">.</text>
<text x="316.75" y="273.49">+</text>
<text x="324.36" y="49.64">+</text>
<text x="408.10" y="439.11">.</text>
<text x="155.07" y="366.65">.</text>
<text x="373.07" y="3.33">+</text>
<text x="21.46" y="59.18">.</text>
<text x="96.90" y="81.18">.</text>
<text x="425.22" y="210.08">*</text>
<text x="315.65" y="296.64">+</text>
<text x="84.00" y="284.31">+</text>
<text x="108.53" y="87.03">.</text>
<text x="60.51" y="157.47">*</text>
<text x="176.95" y="81.30">+</text>
<text x="358.56" y="59.60">+</text>
<text x="339.31" y="499.75">.</text>
<text x="413.41" y="138.76">.</text>
<text x="310.05" y="247.99">+</text>
<text x="376.53" y="471.12">+</text>
<text x="305.04" y="338.11">.</text>
<text x="341.77" y="490.10">+</text>
<text x="380.35" y="196.17">.</text>
<text x="452.88" y="436.95">.</text>
<text x="18.11" y="153.19">.</text>
<text x="460.04" y="187.56">+</text>
<text x="25.49" y="141.53">.</text>
<text x="277.13" y="63.53">.</text>
<text x="465.99" y="137.23">*</text>
<text x="187.34" y="277.67">+</text>
<text x="104.23" y="398.16">*</text>
<text x="44.55" y="249.94">.</text>
<text x="379.45" y="105.04">.</text>
<text x="46.83" y="91.39">+</text>
<text x="250.33" y="286.94">+</text>
<text x="188.58" y="349.96">.</text>
<text x="106.22" y="41.79">+</text>
<text x="68.72" y="268.43">*</text>
<text x="311.83" y="81.13">.</text>
<text x="407.60" y="467.92">.</text>
<text x="469.62" y="88.08">.</text>
<text x="58.44" y="375.99">+</text>
<text x="276.26" y="42.08">*</text>
<text x="434.44" y="30.78">+</text>
<text x="191.18" y="495.52">.</text>
<text x="88.80" y="435.78">+</text>
<text x="187.27" y="276.63">*</text>
<text x="325.20" y="456.35">.</text>
<text x="284.56" y="411.06">.</text>
<text x="475.60" y="79.00">*</text>
<text x="147.07" y="314.31">.</text>
<text x="354.31" y="55.39">+</text>
<text x="257.72" y="265.22">*</text>
<text x="198.83" y="436.35">.</text>
<text x="192.45" y="322.75">+</text>
<text x="461.23" y="71.93">.</text>
<text x="211.46" y="99.58">+</text>
<text x="429.59" y="367.91">.</text>
<text x="316.19" y="266.77">.</text>
<text x="187.30" y="325.00">.</text>
<text x="375.32" y="158.18">+</text>
<text x="359.15" y="403.63">+</text>
<text x="107.39" y="31.08">*</text>
<text x="490.03" y="378.64">*</text>
<text x="262.76" y="112.55">.</text>
<text x="75.03" y="23.28">.</text>
<text x="281.67" y="165.11">+</text>
<text x="250.06" y="248.44">+</text>
<text x="277.39" y="494.98">.</text>
<text x="461.92" y="15.26">+</text>
<text x="63.93" y="331.74">.</text>
<text x="210.05" y="314.52">+</text>
<text x="47.63" y="131.19">+</text>
<text x="143.88" y="401.64">*</text>
<text x="200.83" y="93.89">+</text>
<text x="218.19" y="11.69">+</text>
<text x="476.53" y="155.13">.</text>
<text x="176.62" y="341.68">+</text>
<text x="74.89" y="197.23">+</text>
<text x="270.87" y="129.92">.</text>
<text x="362.01" y="256.87">*</text>
<text x="194.19" y="342.39">*</text>
<text x="422.21" y="86.98">+</text>
<text x="265.37" y="347.73">+</text>
<text x="238.38" y="338.27">.</text>
<text x="346.13" y="119.91">.</text>
<text x="296.12" y="97.76">*</text>
<text x="182.85" y="297.00">.</text>
<text x="91.68" y="126.80">*</text>
<text x="216.32" y="356.70">.</text>
<text x="121.86" y="8.89">.</text>
<text x="251.94" y="132.33">*</text>
<text x="346.65" y="156.79">.</text>
<text x="240.26" y="493.94">.</text>
<text x="187.25" y="421.51">*</text>
<text x="204.10" y="389.67">+</text>
<text x="386.66" y="193.72">.</text>
<text x="494.07" y="3.48">+</text>
<text x="15.77" y="334.42">+</text>
<text x="267.01" y="311.38">+</text>
<text x="326.58" y="260.93">*</text>
<text x="463.73" y="41.37">+</text>
<text x="335.38" y="99.12">.</text>
<text x="302.64" y="434.58">.</text>
<text x="364.21" y="318.61">+</text>
<text x="203.65" y="286.02">.</text>
<text x="162.50" y="360.52">+</text>
<text x="448.51" y="178.49">+</text>
<text x="216.56" y="161.46">.</text>
<text x="490.68" y="352.11">*</text>
<text x="260.26" y="389.79">+</text>
<text x="284.70" y="468.94">+</text>
<text x="398.89" y="428.92">.</text>
<text x="97.85" y="374.58">+</text>
<text x="246.72" y="91.71">.</text>
<text x="223.64" y="378.10">.</text>
<text x="396.78" y="494.27">.</text>
<text x="13.91" y="222.46">+</text>
<text x="313.95" y="21.86">+</text>
<text x="408.78" y="266.74">.</text>
<text x="252.62" y="448.90">+</text>
<text x="374.46" y="30.44">+</text>
<text x="360.83" y="143.55">*</text>
<text x="211.87" y="188.46">+</text>
<text x="121.37" y="249.20">+</text>
<text x="388.98" y="394.47">+</text>
<text x="30.40" y="270.91">*</text>
<text x="399.01" y="65.73">.</text>
<text x="220.78" y="234.53">*</text>
<text x="29.37" y="201.23">+</text>
<text x="168.82" y="76.45">+</text>
<text x="250.96" y="123.94">+</text>
<text x="267.24" y="67.50">.</text>
<text x="417.36" y="242.11">+</text>
<text x="144.01" y="486.94">.</text>
<text x="393.12" y="293.88">.</text>
<text x="34.99" y="302.94">+</text>
<text x="280.37" y="118.90">+</text>
<text x="250.46" y="441.65">*</text>
<text x="17.48" y="210.26">+</text>
<text x="294.74" y="200.16">+</text>
<text x="154.96" y="477.95">+</text>
<text x="333.83" y="355.73">.</text>
<text x="19.92" y="308.00">+</text>
<text x="313.56" y="339.88">.</text>
<text x="389.31" y="175.55">+</text>
<text x="126.98" y="449.45">+</text>
<text x="477.24" y="492.03">*</text>
<text x="184.79" y="392.92">.</text>
<text x="225.93" y="342.40">.</text>
<text x="468.49" y="86.49">.</text>
<text x="441.10" y="382.61">.</text>
<text x="300.97" y="113.89">.</text>
<text x="189.56" y="54.53">.</text>
<text x="371.74" y="348.71">.</text>
<text x="208.31" y="322.75">.</text>
<text x="394.00" y="480.70">+</text>
<text x="113.35" y="307.82">+</text>
<text x="383.57" y="214.44">+</text>
<text x="433.61" y="397.89">+</text>
<text x="211.73" y="339.35">.</text>
<text x="368.10" y="404.79">.</text>
<text x="29.38" y="48.31">+</text>
<text x="183.51" y="1.46">.</text>
<text x="371.47" y="67.86">.</text>
<text x="86.71" y="1.83">+</text>
<text x="318.35" y="379.61">*</text>
<text x="100.22" y="349.61">+</text>
<text x="155.92" y="394.35">+</text>
<text x="173.70" y="450.59">.</text>
<text x="169.92" y="389.79">+</text>
<text x="410.07" y="157.50">+</text>
<text x="404.20" y="290.11">+</text>
<text x="496.94" y="8.19">+</text>
<text x="303.59" y="64.88">.</text>
<text x="293.90" y="13.12">+</text>
<text x="472.17" y="382.72">.</text>
<text x="437.86" y="295.17">.</text>
<text x="310.20" y="484.57">+</text>
<text x="212.69" y="27.04">.</text>
<text x="53.86" y="277.16">*</text>
<text x="435.54" y="411.54">+</text>
<text x="118.43" y="97.30">*</text>
<text x="312.11" y="297.54">+</text>
<text x="346.60" y="200.47">+</text>
<text x="465.80" y="346.67">*</text>
<text x="154.37" y="64.24">.</text>
<text x="301.19" y="166.85">+</text>
<text x="423.12" y="141.59">+</text>
<text x="205.12" y="470.97">+</text>
<text x="382.90" y="88.84">.</text>
<text x="47.23" y="313.57">.</text>
<text x="330.61" y="97.44">.</text>
<text x="389.28" y="481.22">+</text>
<text x="39.32" y="347.80">.</text>
<text x="237.09" y="19.41">.</text>
<text x="58.73" y="199.09">.</text>
<text x="227.72" y="0.76">.</text>
<text x="182.11" y="142.37">+</text>
<text x="408.99" y="481.98">.</text>
<text x="336.53" y="53.92">+</text>
<text x="58.58" y="179.32">+</text>
<text x="467.82" y="478.42">.</text>
<text x="54.91" y="351.86">+</text>
<text x="256.04" y="373.34">+</text>
<text x="461.44" y="207.86">+</text>
<text x="425.00" y="86.69">*</text>

</svg>