
<svg viewBox="0 0 500 500" xmlns="http://www.w.org/2000/svg" width="100%" height="100%" style="background-color: #0a0a14; font-family: 'Courier New', Courier, monospace;">
    <style>
        text { fill: #aaa; font-size: 10px; text-anchor: middle; dominant-baseline: middle; }
    </style>
    <text x="491.19" y="101.44">.</text>
<text x="53.68" y="28.68">.</text>
<text x="278.51" y="336.50">*</text>
<text x="498.48" y="86.42">.</text>
<text x="92.68" y="355.94">+</text>
<text x="108.72" y="82.43">+</text>
<text x="473.77" y="469.86">+</text>
<text x="437.53" y="224.76">.</text>
<text x="162.88" y="300.89">.</text>
<text x="126.50" y="312.64">.</text>
<text x="446.87" y="450.56">+</text>
<text x="82.52" y="61.39">*</text>
<text x="383.24" y="489.27">*</text>
<text x="343.34" y="127.79">+</text>
<text x="382.33" y="79.14">.</text>
<text x="398.91" y="487.56">+</text>
<text x="234.60" y="309.41">+</text>
<text x="156.17" y="429.98">.</text>
<text x="402.97" y="38.54">.</text>
<text x="370.10" y="383.20">*</text>
<text x="204.15" y="301.21">.</text>
<text x="46.79" y="472.16">.</text>
<text x="195.58" y="395.46">.</text>
<text x="297.36" y="436.99">+</text>
<text x="313.36" y="171.29">+</text>
<text x="467.79" y="184.37">.</text>
<text x="312.58" y="462.87">+</text>
<text x="116.94" y="295.25">+</text>
<text x="419.51" y="197.47">+</text>
<text x="250.19" y="301.88">.</text>
<text x="242.76" y="294.22">.</text>
<text x="441.61" y="137.83">.</text>
<text x="98.38" y="410.17">+</text>
<text x="265.51" y="354.07">+</text>
<text x="360.66" y="97.38">.</text>
<text x="308.02" y="499.07">+</text>
<text x="464.91" y="294.10">.</text>
<text x="350.24" y="220.39">+</text>
<text x="302.18" y="108.75">.</text>
<text x="105.62" y="53.97">+</text>
<text x="444.25" y="243.26">.</text>
<text x="295.36" y="63.38">.</text>
<text x="480.42" y="79.57">.</text>
<text x="70.29" y="229.16">.</text>
<text x="426.99" y="399.94">.</text>
<text x="106.21" y="182.98">.</text>
<text x="210.17" y="464.38">+</text>
<text x="111.60" y="263.06">+</text>
<text x="472.28" y="438.70">.</text>
<text x="311.45" y="233.43">+</text>
<text x="359.67" y="170.06">*</text>
<text x="384.46" y="247.20">.</text>
<text x="78.47" y="398.85">+</text>
<text x="36.30" y="219.85">*</text>
<text x="243.30" y="73.82">+</text>
<text x="252.52" y="275.35">.</text>
<text x="427.98" y="287.97">+</text>
<text x="162.06" y="296.30">*</text>
<text x="208.45" y="279.04">*</text>
<text x="45.75" y="37.03">.</text>
<text x="381.92" y="315.74">*</text>
<text x="480.97" y="279.97">+</text>
<text x="448.89" y="450.85">*</text>
<text x="137.62" y="275.57">*</text>
<text x="177.05" y="199.04">+</text>
<text x="394.35" y="359.66">+</text>
<text x="66.39" y="406.55">*</text>
<text x="179.88" y="138.27">.</text>
<text x="130.88" y="164.24">.</text>
<text x="350.32" y="438.50">+</text>
<text x="202.40" y="421.16">*</text>
<text x="298.55" y="11.80">+</text>
<text x="125.64" y="107.14">*</text>
<text x="393.69" y="386.46">.</text>
<text x="150.86" y="332.93">.</text>
<text x="358.07" y="456.92">+</text>
<text x="60.11" y="152.98">+</text>
<text x="108.68" y="241.99">.</text>
<text x="412.50" y="232.96">*</text>
<text x="388.47" y="57.27">.</text>
<text x="466.06" y="454.66">.</text>
<text x="303.96" y="92.04">+</text>
<text x="241.01" y="87.34">.</text>
<text x="12.78" y="261.45">+</text>
<text x="285.54" y="406.21">+</text>
<text x="375.70" y="158.03">.</text>
<text x="143.53" y="176.90">+</text>
<text x="121.43" y="254.12">+</text>
<text x="199.54" y="187.79">.</text>
<text x="70.06" y="84.99">+</text>
<text x="89.17" y="299.85">.</text>
<text x="318.76" y="2.40">.</text>
<text x="224.23" y="14.89">.</text>
<text x="172.39" y="433.15">.</text>
<text x="194.72" y="362.21">+</text>
<text x="70.60" y="212.51">.</text>
<text x="145.04" y="158.48">.</text>
<text x="338.05" y="487.51">+</text>
<text x="429.67" y="267.34">*</text>
<text x="468.32" y="107.88">.</text>
<text x="443.71" y="169.56">+</text>
<text x="419.34" y="317.12">.</text>
<text x="99.14" y="407.78">*</text>
<text x="177.92" y="227.70">+</text>
<text x="285.69" y="201.95">.</text>
<text x="205.71" y="475.19">+</text>
<text x="71.52" y="362.04">+</text>
<text x="264.04" y="97.55">.</text>
<text x="73.66" y="474.82">+</text>
<text x="453.99" y="21.59">.</text>
<text x="24.88" y="91.41">+</text>
<text x="220.33" y="382.34">.</text>
<text x="425.67" y="358.76">+</text>
<text x="396.23" y="53.59">.</text>
<text x="183.25" y="310.48">.</text>
<text x="150.19" y="185.26">*</text>
<text x="418.79" y="326.34">+</text>
<text x="70.58" y="316.61">+</text>
<text x="492.85" y="189.88">+</text>
<text x="281.09" y="427.81">.</text>
<text x="492.05" y="446.85">+</text>
<text x="1.53" y="203.87">*</text>
<text x="470.93" y="67.98">.</text>
<text x="216.25" y="123.11">+</text>
<text x="478.07" y="495.19">+</text>
<text x="134.76" y="446.46">.</text>
<text x="476.43" y="23.43">+</text>
<text x="246.13" y="219.88">.</text>
<text x="28.48" y="368.77">+</text>
<text x="144.99" y="341.09">.</text>
<text x="157.75" y="130.75">.</text>
<text x="460.46" y="48.37">+</text>
<text x="327.67" y="10.67">+</text>
<text x="231.08" y="362.51">.</text>
<text x="242.82" y="479.68">+</text>
<text x="449.68" y="60.35">.</text>
<text x="182.41" y="256.98">+</text>
<text x="24.34" y="406.87">*</text>
<text x="166.13" y="460.66">*</text>
<text x="359.97" y="27.95">.</text>
<text x="102.59" y="299.59">*</text>
<text x="383.02" y="39.78">.</text>
<text x="61.40" y="386.19">.</text>
<text x="450.63" y="163.33">.</text>
<text x="264.74" y="490.17">.</text>
<text x="250.04" y="60.72">+</text>
<text x="3.90" y="326.35">+</text>
<text x="214.37" y="116.99">.</text>
<text x="297.57" y="275.99">.</text>
<text x="280.23" y="362.44">.</text>
<text x="180.05" y="369.72">+</text>
<text x="300.55" y="107.26">*</text>
<text x="254.62" y="291.13">*</text>
<text x="358.28" y="76.51">+</text>
<text x="8.19" y="451.68">.</text>
<text x="324.34" y="220.86">+</text>
<text x="439.40" y="77.98">.</text>
<text x="203.84" y="224.01">.</text>
<text x="87.55" y="134.77">.</text>
<text x="384.15" y="256.25">+</text>
<text x="412.42" y="490.99">+</text>
<text x="27.47" y="382.84">.</text>
<text x="230.15" y="284.96">.</text>
<text x="98.36" y="205.99">+</text>
<text x="81.79" y="474.34">+</text>
<text x="406.81" y="366.02">.</text>
<text x="264.16" y="484.72">.</text>
<text x="402.79" y="188.12">.</text>
<text x="420.62" y="353.52">.</text>
<text x="150.50" y="137.09">.</text>
<text x="145.63" y="448.93">+</text>
<text x="343.32" y="321.43">.</text>
<text x="244.78" y="240.19">+</text>
<text x="195.62" y="182.65">+</text>
<text x="160.04" y="448.92">.</text>
<text x="372.53" y="150.94">.</text>
<text x="252.09" y="483.00">+</text>
<text x="406.99" y="389.91">.</text>
<text x="243.33" y="381.88">.</text>
<text x="109.08" y="299.56">*</text>
<text x="187.37" y="409.72">+</text>
<text x="70.58" y="273.92">.</text>
<text x="35.46" y="41.11">.</text>
<text x="168.35" y="485.63">+</text>
<text x="16.31" y="162.97">+</text>
<text x="177.95" y="113.41">+</text>
<text x="480.70" y="114.08">.</text>
<text x="421.45" y="445.42">.</text>
<text x="232.35" y="109.16">.</text>
<text x="335.32" y="136.98">.</text>
<text x="12.89" y="484.58">.</text>
<text x="290.21" y="102.81">.</text>
<text x="456.01" y="404.44">.</text>
<text x="346.69" y="250.16">.</text>
<text x="325.24" y="497.99">.</text>
<text x="197.86" y="139.33">.</text>
<text x="132.63" y="498.70">*</text>
<text x="479.35" y="129.68">*</text>
<text x="393.06" y="213.95">.</text>
<text x="228.47" y="257.54">+</text>
<text x="338.08" y="9.05">.</text>
<text x="148.45" y="474.34">.</text>
<text x="227.65" y="151.73">.</text>
<text x="206.34" y="134.38">.</text>
<text x="130.33" y="418.98">+</text>
<text x="90.80" y="102.65">*</text>
<text x="409.29" y="179.23">*</text>
<text x="486.98" y="399.51">+</text>
<text x="432.11" y="26.75">+</text>
<text x="349.24" y="350.42">+</text>
<text x="250.56" y="331.34">+</text>
<text x="120.21" y="431.74">.</text>

</svg>