
<svg viewBox="0 0 500 500" xmlns="http://www.w.org/2000/svg" width="100%" height="100%" style="background-color: #0a0a14; font-family: 'Courier New', Courier, monospace;">
    <style>
        text { fill: #aaa; font-size: 10px; text-anchor: middle; dominant-baseline: middle; }
    </style>
    <text x="89.80" y="140.12">*</text>
<text x="285.49" y="195.42">+</text>
<text x="447.11" y="166.47">+</text>
<text x="37.84" y="478.85">.</text>
<text x="89.83" y="482.09">.</text>
<text x="68.32" y="154.37">+</text>
<text x="449.66" y="223.74">.</text>
<text x="39.15" y="366.33">.</text>
<text x="420.61" y="10.18">.</text>
<text x="159.28" y="351.46">*</text>
<text x="304.47" y="36.17">.</text>
<text x="51.12" y="458.00">+</text>
<text x="48.15" y="328.04">.</text>
<text x="259.66" y="305.48">*</text>
<text x="117.01" y="90.78">+</text>
<text x="263.31" y="197.05">*</text>
<text x="246.83" y="481.57">.</text>
<text x="433.81" y="498.33">+</text>
<text x="382.41" y="421.63">.</text>
<text x="151.53" y="240.84">.</text>
<text x="303.33" y="482.98">.</text>
<text x="425.09" y="147.27">+</text>
<text x="106.86" y="380.16">+</text>
<text x="183.90" y="237.75">+</text>
<text x="59.74" y="3.21">+</text>
<text x="93.13" y="262.02">.</text>
<text x="403.22" y="412.45">.</text>
<text x="20.20" y="275.33">+</text>
<text x="313.05" y="235.01">.</text>
<text x="256.85" y="103.67">*</text>
<text x="382.37" y="314.93">.</text>
<text x="341.40" y="491.09">*</text>
<text x="402.20" y="171.38">+</text>
<text x="372.81" y="265.15">.</text>
<text x="193.60" y="292.03">.</text>
<text x="359.30" y="190.55">+</text>
<text x="401.93" y="34.18">.</text>
<text x="350.34" y="430.06">.</text>
<text x="325.72" y="499.14">+</text>
<text x="66.82" y="99.02">+</text>
<text x="481.37" y="256.01">+</text>
<text x="26.32" y="171.89">+</text>
<text x="16.99" y="308.43">+</text>
<text x="84.08" y="415.98">.</text>
<text x="169.28" y="68.14">.</text>
<text x="134.33" y="477.83">*</text>
<text x="67.54" y="228.27">+</text>
<text x="397.70" y="24.82">.</text>
<text x="302.01" y="87.58">+</text>
<text x="249.25" y="177.97">.</text>
<text x="319.27" y="408.42">+</text>
<text x="208.69" y="482.30">.</text>
<text x="128.63" y="382.24">+</text>
<text x="67.15" y="276.23">+</text>
<text x="300.73" y="34.06">.</text>
<text x="365.91" y="162.67">+</text>
<text x="345.02" y="99.00">.</text>
<text x="301.70" y="410.17">.</text>
<text x="254.99" y="493.28">+</text>
<text x="298.80" y="116.24">+</text>
<text x="461.31" y="283.15">+</text>
<text x="444.52" y="272.85">.</text>
<text x="146.79" y="285.24">+</text>
<text x="130.13" y="260.65">.</text>
<text x="369.28" y="78.82">.</text>
<text x="329.33" y="334.09">+</text>
<text x="452.93" y="235.10">.</text>
<text x="470.88" y="320.58">.</text>
<text x="264.86" y="34.54">+</text>
<text x="181.25" y="154.38">+</text>
<text x="374.17" y="8.21">+</text>
<text x="365.16" y="54.75">.</text>
<text x="348.82" y="473.96">+</text>
<text x="10.84" y="471.14">.</text>
<text x="78.14" y="93.73">+</text>
<text x="72.94" y="482.42">.</text>
<text x="261.55" y="499.70">.</text>
<text x="261.02" y="175.36">+</text>
<text x="385.20" y="41.41">+</text>
<text x="171.02" y="244.45">+</text>
<text x="70.09" y="463.96">.</text>
<text x="154.71" y="206.40">.</text>
<text x="350.65" y="340.34">.</text>
<text x="238.38" y="367.36">.</text>
<text x="467.92" y="391.45">+</text>
<text x="162.63" y="424.72">.</text>
<text x="317.32" y="110.35">.</text>
<text x="192.69" y="492.86">.</text>
<text x="108.78" y="481.88">+</text>
<text x="50.01" y="318.25">+</text>
<text x="382.07" y="431.31">.</text>
<text x="486.89" y="398.08">*</text>
<text x="79.17" y="188.89">+</text>
<text x="319.80" y="389.72">.</text>
<text x="216.12" y="319.63">.</text>
<text x="306.24" y="497.56">+</text>
<text x="296.02" y="174.53">*</text>
<text x="135.91" y="250.71">+</text>
<text x="438.82" y="95.06">.</text>
<text x="350.52" y="40.48">+</text>
<text x="185.18" y="69.13">+</text>
<text x="231.70" y="378.95">.</text>
<text x="174.58" y="116.17">.</text>
<text x="378.29" y="246.04">.</text>
<text x="258.70" y="390.41">+</text>
<text x="72.97" y="346.77">.</text>
<text x="129.60" y="117.73">.</text>
<text x="330.97" y="163.18">.</text>
<text x="384.16" y="150.49">.</text>
<text x="309.98" y="48.56">.</text>
<text x="172.78" y="169.32">.</text>
<text x="179.31" y="51.19">.</text>
<text x="232.71" y="173.18">+</text>
<text x="83.32" y="290.22">+</text>
<text x="477.74" y="67.64">.</text>
<text x="361.93" y="389.53">+</text>
<text x="454.83" y="6.35">.</text>
<text x="388.00" y="350.99">+</text>
<text x="145.25" y="0.04">+</text>
<text x="232.97" y="454.97">+</text>
<text x="248.92" y="411.50">+</text>
<text x="337.89" y="488.13">+</text>
<text x="7.20" y="51.58">.</text>
<text x="265.89" y="485.27">.</text>
<text x="280.79" y="279.84">.</text>
<text x="99.16" y="484.12">.</text>
<text x="12.19" y="219.31">.</text>
<text x="242.81" y="100.47">.</text>
<text x="409.32" y="390.44">+</text>
<text x="246.71" y="390.89">*</text>
<text x="1.31" y="232.14">*</text>
<text x="495.64" y="265.37">+</text>
<text x="333.63" y="236.03">.</text>
<text x="161.31" y="148.82">+</text>
<text x="115.44" y="194.19">+</text>
<text x="119.65" y="81.28">+</text>
<text x="347.65" y="59.86">.</text>
<text x="305.45" y="466.53">.</text>
<text x="209.62" y="254.02">*</text>
<text x="121.05" y="254.87">*</text>
<text x="27.52" y="432.62">+</text>
<text x="333.53" y="426.51">+</text>
<text x="394.19" y="247.36">.</text>
<text x="1.47" y="334.26">.</text>
<text x="440.01" y="383.51">.</text>
<text x="70.79" y="352.95">.</text>
<text x="119.03" y="158.11">+</text>
<text x="355.60" y="132.34">.</text>
<text x="441.70" y="18.88">+</text>
<text x="0.33" y="252.08">+</text>
<text x="102.80" y="155.05">.</text>
<text x="303.78" y="370.51">.</text>
<text x="358.81" y="178.43">*</text>
<text x="326.80" y="306.08">*</text>
<text x="253.60" y="78.18">*</text>
<text x="131.50" y="434.69">.</text>
<text x="161.63" y="430.59">.</text>
<text x="186.12" y="63.31">+</text>
<text x="338.85" y="372.64">.</text>
<text x="222.50" y="365.37">*</text>
<text x="194.21" y="188.18">.</text>
<text x="133.95" y="336.63">+</text>
<text x="264.52" y="284.21">.</text>
<text x="371.75" y="88.50">+</text>
<text x="489.74" y="88.37">.</text>
<text x="378.47" y="392.51">.</text>
<text x="136.88" y="386.72">+</text>
<text x="78.97" y="138.47">+</text>
<text x="499.10" y="173.79">.</text>
<text x="385.49" y="242.19">.</text>
<text x="451.45" y="1.15">*</text>
<text x="193.34" y="75.35">.</text>
<text x="377.61" y="344.87">.</text>
<text x="253.08" y="433.17">+</text>
<text x="409.57" y="385.88">+</text>
<text x="131.66" y="480.55">+</text>
<text x="84.51" y="423.00">*</text>
<text x="299.37" y="324.35">.</text>
<text x="418.96" y="334.45">+</text>
<text x="240.90" y="259.38">+</text>
<text x="314.04" y="487.08">+</text>
<text x="32.10" y="468.30">+</text>
<text x="27.45" y="161.69">.</text>
<text x="451.54" y="314.33">.</text>
<text x="305.79" y="435.16">*</text>
<text x="389.93" y="30.55">+</text>
<text x="349.15" y="453.74">.</text>
<text x="309.79" y="208.94">+</text>
<text x="146.29" y="99.07">.</text>
<text x="263.72" y="238.19">.</text>
<text x="401.75" y="376.44">*</text>
<text x="237.96" y="127.59">.</text>
<text x="171.61" y="423.62">.</text>
<text x="442.26" y="106.89">*</text>
<text x="63.75" y="66.03">+</text>
<text x="45.22" y="78.58">+</text>
<text x="488.30" y="49.92">.</text>
<text x="177.74" y="267.93">.</text>
<text x="498.27" y="317.32">.</text>
<text x="55.97" y="263.20">+</text>
<text x="398.06" y="53.25">.</text>
<text x="315.70" y="413.75">+</text>
<text x="394.86" y="366.97">+</text>
<text x="78.15" y="121.59">.</text>
<text x="311.21" y="319.84">+</text>
<text x="206.11" y="411.16">+</text>
<text x="43.04" y="383.60">.</text>
<text x="347.08" y="297.55">+</text>
<text x="131.93" y="115.66">+</text>
<text x="116.43" y="420.03">.</text>
<text x="174.75" y="100.71">+</text>
<text x="428.25" y="253.32">*</text>
<text x="249.08" y="25.99">.</text>

</svg>