
<svg viewBox="0 0 500 500" xmlns="http://www.w.org/2000/svg" width="100%" height="100%" style="background-color: #0a0a14; font-family: 'Courier New', Courier, monospace;">
    <style>
        text { fill: #aaa; font-size: 10px; text-anchor: middle; dominant-baseline: middle; }
    </style>
    <text x="438.00" y="474.45">.</text>
<text x="33.80" y="167.39">+</text>
<text x="115.90" y="173.22">+</text>
<text x="398.43" y="473.25">+</text>
<text x="202.73" y="105.82">.</text>
<text x="429.46" y="52.11">+</text>
<text x="484.22" y="271.34">.</text>
<text x="312.99" y="209.40">*</text>
<text x="61.66" y="482.63">+</text>
<text x="153.84" y="235.33">*</text>
<text x="443.22" y="122.95">.</text>
<text x="275.04" y="241.91">+</text>
<text x="300.12" y="345.17">+</text>
<text x="13.89" y="422.74">+</text>
<text x="14.35" y="116.53">.</text>
<text x="290.79" y="71.31">*</text>
<text x="187.99" y="270.27">.</text>
<text x="275.09" y="112.96">+</text>
<text x="295.07" y="462.28">.</text>
<text x="397.51" y="339.70">*</text>
<text x="262.33" y="58.75">.</text>
<text x="328.71" y="206.63">+</text>
<text x="483.39" y="352.90">.</text>
<text x="177.22" y="483.40">*</text>
<text x="292.51" y="70.35">.</text>
<text x="375.73" y="394.15">+</text>
<text x="381.20" y="367.67">.</text>
<text x="390.56" y="170.63">.</text>
<text x="124.84" y="333.57">+</text>
<text x="494.11" y="365.02">.</text>
<text x="332.63" y="27.56">+</text>
<text x="90.16" y="74.26">.</text>
<text x="15.92" y="212.05">.</text>
<text x="22.72" y="355.92">.</text>
<text x="3.09" y="174.86">.</text>
<text x="77.28" y="107.07">+</text>
<text x="0.03" y="410.20">*</text>
<text x="260.17" y="242.86">+</text>
<text x="80.47" y="242.38">+</text>
<text x="431.16" y="414.14">+</text>
<text x="382.69" y="201.45">+</text>
<text x="329.62" y="498.50">.</text>
<text x="354.35" y="117.12">.</text>
<text x="438.00" y="488.57">.</text>
<text x="258.39" y="401.89">.</text>
<text x="106.88" y="245.26">.</text>
<text x="410.63" y="323.16">.</text>
<text x="278.16" y="75.53">.</text>
<text x="447.71" y="133.01">.</text>
<text x="74.13" y="391.36">.</text>
<text x="200.98" y="487.44">.</text>
<text x="384.62" y="397.54">*</text>
<text x="302.20" y="494.88">*</text>
<text x="201.50" y="159.48">.</text>
<text x="159.58" y="53.87">.</text>
<text x="404.10" y="212.46">.</text>
<text x="192.52" y="323.18">+</text>
<text x="5.57" y="216.13">+</text>
<text x="321.59" y="54.16">.</text>
<text x="122.57" y="82.83">*</text>
<text x="233.24" y="237.17">*</text>
<text x="456.58" y="203.57">.</text>
<text x="265.26" y="53.56">.</text>
<text x="438.54" y="187.21">.</text>
<text x="389.30" y="455.81">+</text>
<text x="408.41" y="274.92">.</text>
<text x="171.96" y="358.87">.</text>
<text x="221.41" y="269.14">+</text>
<text x="395.79" y="112.88">*</text>
<text x="483.18" y="135.75">+</text>
<text x="124.49" y="270.65">.</text>
<text x="372.12" y="121.92">.</text>
<text x="461.82" y="226.96">+</text>
<text x="268.26" y="484.97">+</text>
<text x="169.82" y="280.95">+</text>
<text x="325.41" y="447.01">.</text>
<text x="375.34" y="357.39">.</text>
<text x="267.18" y="451.91">+</text>
<text x="238.74" y="405.92">.</text>
<text x="249.91" y="416.68">+</text>
<text x="134.74" y="60.81">+</text>
<text x="97.08" y="292.16">+</text>
<text x="233.44" y="31.71">+</text>
<text x="273.51" y="365.91">+</text>
<text x="336.91" y="62.87">.</text>
<text x="382.69" y="329.91">.</text>
<text x="109.26" y="490.71">+</text>
<text x="245.95" y="200.44">+</text>
<text x="174.84" y="483.54">*</text>
<text x="112.51" y="300.09">.</text>
<text x="126.52" y="387.77">+</text>
<text x="299.55" y="193.97">+</text>
<text x="434.55" y="21.26">+</text>
<text x="167.53" y="450.97">.</text>
<text x="351.45" y="229.81">.</text>
<text x="412.72" y="326.51">+</text>
<text x="238.86" y="14.59">.</text>
<text x="134.31" y="364.18">*</text>
<text x="270.06" y="409.00">*</text>
<text x="63.37" y="440.73">.</text>
<text x="397.27" y="227.75">.</text>
<text x="418.98" y="217.66">.</text>
<text x="193.78" y="25.78">+</text>
<text x="370.29" y="43.81">.</text>
<text x="384.34" y="137.20">+</text>
<text x="21.01" y="305.76">*</text>
<text x="401.22" y="167.94">+</text>
<text x="431.67" y="412.35">+</text>
<text x="272.31" y="420.30">+</text>
<text x="175.89" y="414.93">+</text>
<text x="305.81" y="81.23">+</text>
<text x="36.04" y="261.97">*</text>
<text x="137.85" y="3.94">.</text>
<text x="413.47" y="181.90">*</text>
<text x="461.06" y="394.17">.</text>
<text x="424.96" y="309.08">+</text>
<text x="312.45" y="44.46">+</text>
<text x="287.90" y="409.72">*</text>
<text x="280.21" y="58.44">.</text>
<text x="352.64" y="218.28">.</text>
<text x="251.08" y="398.00">+</text>
<text x="382.64" y="196.40">+</text>
<text x="120.63" y="394.46">.</text>
<text x="291.85" y="127.78">+</text>
<text x="6.65" y="365.19">.</text>
<text x="49.15" y="273.99">*</text>
<text x="72.54" y="456.92">.</text>
<text x="204.08" y="175.15">+</text>
<text x="101.58" y="440.28">.</text>
<text x="291.46" y="400.57">+</text>
<text x="107.99" y="475.99">+</text>
<text x="439.28" y="227.19">*</text>
<text x="390.41" y="15.27">.</text>
<text x="275.79" y="498.41">+</text>
<text x="357.17" y="453.65">+</text>
<text x="488.00" y="8.73">+</text>
<text x="73.69" y="219.50">+</text>
<text x="465.34" y="454.09">*</text>
<text x="258.18" y="405.74">+</text>
<text x="127.67" y="493.20">*</text>
<text x="306.34" y="264.28">.</text>
<text x="257.78" y="74.22">+</text>
<text x="490.40" y="89.62">+</text>
<text x="469.50" y="293.56">.</text>
<text x="450.79" y="36.17">+</text>
<text x="322.36" y="200.16">.</text>
<text x="499.81" y="137.54">+</text>
<text x="112.29" y="411.28">*</text>
<text x="454.76" y="465.30">.</text>
<text x="58.24" y="300.79">+</text>
<text x="431.71" y="193.49">+</text>
<text x="244.00" y="301.40">.</text>
<text x="208.99" y="448.09">.</text>
<text x="309.13" y="467.00">.</text>
<text x="152.75" y="498.07">+</text>
<text x="407.57" y="169.33">*</text>
<text x="206.25" y="180.56">+</text>
<text x="109.49" y="339.34">+</text>
<text x="244.81" y="385.57">+</text>
<text x="162.54" y="301.46">+</text>
<text x="358.65" y="124.14">.</text>
<text x="485.45" y="481.10">+</text>
<text x="27.40" y="412.83">+</text>
<text x="362.60" y="482.54">*</text>
<text x="289.61" y="436.05">+</text>
<text x="10.87" y="79.90">+</text>
<text x="118.93" y="419.63">+</text>
<text x="234.03" y="49.65">.</text>
<text x="258.29" y="192.94">*</text>
<text x="463.68" y="390.80">+</text>
<text x="222.48" y="452.14">+</text>
<text x="270.37" y="141.37">.</text>
<text x="218.42" y="219.93">.</text>
<text x="176.72" y="459.75">.</text>
<text x="266.58" y="309.58">.</text>
<text x="399.36" y="344.66">+</text>
<text x="35.60" y="256.43">*</text>
<text x="493.81" y="364.41">.</text>
<text x="230.86" y="75.43">+</text>
<text x="251.77" y="202.41">+</text>
<text x="374.46" y="447.54">.</text>
<text x="436.76" y="1.84">*</text>
<text x="299.70" y="425.35">+</text>
<text x="61.53" y="362.73">.</text>
<text x="354.96" y="267.62">.</text>
<text x="382.71" y="398.15">+</text>
<text x="133.42" y="38.65">+</text>
<text x="45.33" y="71.15">.</text>
<text x="378.92" y="120.24">+</text>
<text x="416.51" y="371.63">+</text>
<text x="4.49" y="181.55">*</text>
<text x="140.17" y="83.24">.</text>
<text x="186.16" y="39.01">.</text>
<text x="295.02" y="386.63">+</text>
<text x="26.87" y="289.50">+</text>
<text x="394.91" y="252.59">.</text>
<text x="325.52" y="388.13">+</text>
<text x="27.13" y="263.08">.</text>
<text x="15.84" y="416.98">+</text>
<text x="62.97" y="376.09">+</text>
<text x="490.94" y="373.84">.</text>
<text x="327.35" y="244.41">.</text>
<text x="84.20" y="477.23">.</text>
<text x="120.27" y="285.76">+</text>
<text x="421.96" y="117.74">.</text>
<text x="149.06" y="445.46">+</text>
<text x="231.33" y="260.02">+</text>
<text x="56.72" y="145.65">.</text>
<text x="399.40" y="246.48">+</text>
<text x="301.46" y="170.48">*</text>
<text x="317.64" y="288.69">.</text>
<text x="148.57" y="470.51">.</text>

</svg>