
<svg viewBox="0 0 500 500" xmlns="http://www.w.org/2000/svg" width="100%" height="100%" style="background-color: #0a0a14; font-family: 'Courier New', Courier, monospace;">
    <style>
        text { fill: #aaa; font-size: 10px; text-anchor: middle; dominant-baseline: middle; }
    </style>
    <text x="271.91" y="199.34">.</text>
<text x="292.19" y="105.25">+</text>
<text x="380.92" y="298.22">*</text>
<text x="442.81" y="331.74">+</text>
<text x="457.27" y="263.03">.</text>
<text x="253.79" y="495.79">+</text>
<text x="67.60" y="296.94">.</text>
<text x="309.37" y="418.71">*</text>
<text x="489.16" y="107.51">.</text>
<text x="222.76" y="91.90">+</text>
<text x="58.67" y="434.11">+</text>
<text x="423.23" y="157.92">+</text>
<text x="195.26" y="23.60">+</text>
<text x="331.56" y="364.56">.</text>
<text x="298.67" y="249.05">*</text>
<text x="296.03" y="195.75">+</text>
<text x="61.75" y="171.96">.</text>
<text x="397.50" y="269.11">+</text>
<text x="436.28" y="444.70">+</text>
<text x="449.66" y="289.68">*</text>
<text x="203.85" y="25.11">*</text>
<text x="219.11" y="396.56">.</text>
<text x="419.33" y="263.63">+</text>
<text x="408.14" y="165.87">.</text>
<text x="218.77" y="294.84">.</text>
<text x="372.58" y="377.98">.</text>
<text x="491.50" y="44.15">+</text>
<text x="145.87" y="204.26">+</text>
<text x="248.05" y="227.67">.</text>
<text x="193.27" y="307.83">+</text>
<text x="212.50" y="150.45">.</text>
<text x="55.49" y="119.65">*</text>
<text x="34.43" y="440.15">.</text>
<text x="337.98" y="495.20">+</text>
<text x="199.37" y="392.92">*</text>
<text x="368.23" y="334.00">+</text>
<text x="134.94" y="382.96">.</text>
<text x="491.07" y="267.22">.</text>
<text x="463.04" y="447.82">*</text>
<text x="269.16" y="437.11">+</text>
<text x="116.68" y="203.24">.</text>
<text x="168.73" y="474.98">.</text>
<text x="363.65" y="459.18">.</text>
<text x="123.12" y="85.22">.</text>
<text x="284.18" y="136.77">+</text>
<text x="199.13" y="372.53">.</text>
<text x="288.28" y="26.17">*</text>
<text x="154.87" y="249.83">+</text>
<text x="334.06" y="70.16">+</text>
<text x="168.91" y="290.44">+</text>
<text x="463.21" y="383.75">+</text>
<text x="433.78" y="262.38">+</text>
<text x="84.32" y="120.54">.</text>
<text x="400.13" y="143.20">+</text>
<text x="357.46" y="103.27">.</text>
<text x="486.90" y="375.24">+</text>
<text x="75.81" y="26.10">.</text>
<text x="82.21" y="329.16">.</text>
<text x="491.28" y="34.27">+</text>
<text x="381.39" y="323.71">+</text>
<text x="284.47" y="428.38">+</text>
<text x="487.66" y="140.86">*</text>
<text x="87.82" y="71.22">+</text>
<text x="438.01" y="352.40">.</text>
<text x="234.19" y="434.76">.</text>
<text x="355.14" y="96.64">.</text>
<text x="250.45" y="268.59">.</text>
<text x="347.93" y="89.20">*</text>
<text x="485.90" y="197.51">+</text>
<text x="431.97" y="248.57">*</text>
<text x="150.83" y="22.90">+</text>
<text x="314.23" y="202.76">*</text>
<text x="196.81" y="454.04">+</text>
<text x="450.81" y="447.94">*</text>
<text x="440.14" y="125.87">.</text>
<text x="153.30" y="147.11">+</text>
<text x="150.22" y="354.22">+</text>
<text x="75.57" y="28.22">+</text>
<text x="339.73" y="313.88">.</text>
<text x="205.29" y="92.36">+</text>
<text x="149.88" y="495.73">.</text>
<text x="157.19" y="438.65">+</text>
<text x="2.13" y="61.51">*</text>
<text x="153.89" y="468.12">.</text>
<text x="361.60" y="158.43">*</text>
<text x="140.33" y="303.42">.</text>
<text x="138.55" y="153.16">*</text>
<text x="386.09" y="236.44">+</text>
<text x="436.67" y="452.99">+</text>
<text x="496.42" y="345.58">.</text>
<text x="276.21" y="489.00">+</text>
<text x="258.26" y="385.44">*</text>
<text x="446.35" y="278.27">+</text>
<text x="298.05" y="430.82">+</text>
<text x="167.42" y="208.30">*</text>
<text x="85.01" y="12.16">+</text>
<text x="318.32" y="271.26">.</text>
<text x="311.59" y="402.65">+</text>
<text x="487.84" y="464.19">.</text>
<text x="276.02" y="417.05">.</text>
<text x="93.64" y="266.40">+</text>
<text x="95.65" y="390.25">.</text>
<text x="155.07" y="453.48">.</text>
<text x="17.41" y="354.55">.</text>
<text x="332.36" y="50.99">+</text>
<text x="454.73" y="223.50">+</text>
<text x="171.54" y="203.08">.</text>
<text x="317.22" y="453.53">+</text>
<text x="36.66" y="477.06">.</text>
<text x="277.56" y="484.72">.</text>
<text x="57.09" y="484.23">+</text>
<text x="99.09" y="364.11">.</text>
<text x="240.40" y="490.68">+</text>
<text x="253.72" y="44.53">.</text>
<text x="24.26" y="497.25">+</text>
<text x="154.13" y="352.59">+</text>
<text x="486.87" y="433.43">.</text>
<text x="432.97" y="4.88">+</text>
<text x="445.34" y="98.12">.</text>
<text x="214.02" y="146.70">+</text>
<text x="240.31" y="111.18">.</text>
<text x="423.46" y="348.52">.</text>
<text x="329.99" y="420.91">.</text>
<text x="4.59" y="74.09">.</text>
<text x="396.90" y="263.10">.</text>
<text x="348.40" y="126.77">+</text>
<text x="281.79" y="6.83">.</text>
<text x="485.55" y="184.50">+</text>
<text x="202.22" y="352.23">+</text>
<text x="453.40" y="328.43">.</text>
<text x="486.77" y="24.45">+</text>
<text x="453.46" y="176.56">*</text>
<text x="124.64" y="178.46">+</text>
<text x="133.24" y="379.97">+</text>
<text x="4.68" y="426.89">+</text>
<text x="166.39" y="296.08">*</text>
<text x="98.19" y="167.71">.</text>
<text x="269.33" y="486.24">.</text>
<text x="486.88" y="232.42">.</text>
<text x="100.16" y="379.11">+</text>
<text x="257.72" y="21.39">.</text>
<text x="144.28" y="127.45">+</text>
<text x="180.88" y="80.41">+</text>
<text x="328.38" y="33.75">.</text>
<text x="257.35" y="67.21">.</text>
<text x="197.35" y="283.46">+</text>
<text x="111.17" y="159.03">+</text>
<text x="327.50" y="343.65">.</text>
<text x="89.36" y="391.22">+</text>
<text x="49.75" y="251.88">+</text>
<text x="122.24" y="3.80">*</text>
<text x="68.58" y="317.06">.</text>
<text x="66.87" y="171.06">+</text>
<text x="363.54" y="365.71">.</text>
<text x="198.66" y="85.08">.</text>
<text x="378.22" y="137.98">.</text>
<text x="405.04" y="348.03">+</text>
<text x="43.18" y="384.74">+</text>
<text x="27.53" y="413.15">+</text>
<text x="145.44" y="411.93">+</text>
<text x="366.12" y="362.48">*</text>
<text x="384.00" y="148.80">.</text>
<text x="61.42" y="423.50">*</text>
<text x="177.68" y="377.87">.</text>
<text x="216.68" y="44.20">.</text>
<text x="314.29" y="387.98">*</text>
<text x="346.91" y="21.43">+</text>
<text x="288.94" y="326.20">+</text>
<text x="37.59" y="23.17">*</text>
<text x="63.41" y="232.08">.</text>
<text x="194.98" y="362.14">.</text>
<text x="426.01" y="103.52">+</text>
<text x="325.85" y="321.67">.</text>
<text x="69.17" y="234.78">*</text>
<text x="462.76" y="374.99">.</text>
<text x="83.88" y="392.91">+</text>
<text x="49.68" y="212.92">.</text>
<text x="235.34" y="118.54">+</text>
<text x="185.03" y="347.41">+</text>
<text x="430.88" y="65.30">*</text>
<text x="157.10" y="1.64">*</text>
<text x="217.98" y="283.82">*</text>
<text x="377.53" y="162.34">+</text>
<text x="392.36" y="265.51">.</text>
<text x="79.89" y="45.62">+</text>
<text x="139.47" y="417.43">.</text>
<text x="153.94" y="309.35">+</text>
<text x="413.47" y="50.96">.</text>
<text x="129.50" y="33.61">*</text>
<text x="64.58" y="493.01">+</text>
<text x="484.43" y="355.22">+</text>
<text x="372.96" y="370.45">*</text>
<text x="219.52" y="119.25">+</text>
<text x="1.12" y="172.74">+</text>
<text x="315.18" y="183.58">+</text>
<text x="478.04" y="86.21">.</text>
<text x="315.86" y="452.95">*</text>
<text x="355.68" y="450.05">+</text>
<text x="233.59" y="380.12">*</text>
<text x="159.62" y="7.26">+</text>
<text x="402.18" y="356.27">.</text>
<text x="66.90" y="235.83">*</text>
<text x="437.54" y="316.42">.</text>
<text x="496.10" y="262.35">*</text>
<text x="321.79" y="465.37">*</text>
<text x="50.36" y="282.35">+</text>
<text x="125.33" y="468.86">.</text>
<text x="157.58" y="329.47">*</text>
<text x="134.33" y="135.99">+</text>
<text x="403.12" y="237.13">.</text>
<text x="166.90" y="370.84">+</text>
<text x="333.03" y="105.28">.</text>
<text x="378.49" y="157.32">+</text>
<text x="229.41" y="466.20">.</text>
<text x="197.33" y="321.42">.</text>
<text x="396.55" y="59.41">+</text>
<text x="171.53" y="388.83">.</text>
<text x="301.87" y="38.09">*</text>
<text x="123.04" y="389.95">+</text>
<text x="426.17" y="448.41">+</text>
<text x="201.56" y="216.45">.</text>
<text x="251.20" y="111.53">.</text>
<text x="497.92" y="198.45">.</text>

</svg>