
<svg viewBox="0 0 500 500" xmlns="http://www.w.org/2000/svg" width="100%" height="100%" style="background-color: #0a0a14; font-family: 'Courier New', Courier, monospace;">
    <style>
        text { fill: #aaa; font-size: 10px; text-anchor: middle; dominant-baseline: middle; }
    </style>
    <text x="151.65" y="391.20">+</text>
<text x="376.80" y="237.64">.</text>
<text x="166.98" y="220.74">.</text>
<text x="448.43" y="65.66">*</text>
<text x="327.32" y="197.70">+</text>
<text x="183.30" y="119.41">+</text>
<text x="182.76" y="37.77">.</text>
<text x="111.93" y="480.87">.</text>
<text x="226.37" y="439.43">+</text>
<text x="297.14" y="124.47">+</text>
<text x="456.36" y="73.86">+</text>
<text x="154.16" y="8.51">.</text>
<text x="438.77" y="449.70">.</text>
<text x="322.24" y="134.01">.</text>
<text x="296.69" y="142.28">+</text>
<text x="89.54" y="360.98">.</text>
<text x="113.10" y="58.79">*</text>
<text x="151.14" y="317.43">.</text>
<text x="178.63" y="433.19">.</text>
<text x="373.57" y="368.53">+</text>
<text x="403.02" y="486.27">.</text>
<text x="246.00" y="169.96">.</text>
<text x="41.95" y="228.28">+</text>
<text x="164.94" y="449.09">.</text>
<text x="420.91" y="200.20">.</text>
<text x="108.19" y="121.71">.</text>
<text x="41.71" y="307.67">*</text>
<text x="327.92" y="150.70">.</text>
<text x="377.11" y="225.78">+</text>
<text x="461.81" y="421.66">+</text>
<text x="406.30" y="402.98">.</text>
<text x="305.79" y="319.07">*</text>
<text x="458.50" y="322.37">+</text>
<text x="234.73" y="241.43">*</text>
<text x="395.24" y="65.61">.</text>
<text x="123.52" y="146.13">.</text>
<text x="431.85" y="173.79">+</text>
<text x="254.82" y="439.33">*</text>
<text x="26.34" y="343.27">.</text>
<text x="272.60" y="188.49">.</text>
<text x="154.19" y="2.91">.</text>
<text x="233.10" y="243.03">.</text>
<text x="266.00" y="137.03">+</text>
<text x="200.91" y="240.34">.</text>
<text x="130.18" y="219.45">+</text>
<text x="356.73" y="238.73">+</text>
<text x="388.58" y="83.02">*</text>
<text x="294.90" y="21.85">+</text>
<text x="149.53" y="198.79">+</text>
<text x="33.16" y="142.26">+</text>
<text x="316.88" y="145.42">+</text>
<text x="193.54" y="19.19">.</text>
<text x="355.37" y="194.07">.</text>
<text x="256.78" y="237.90">.</text>
<text x="203.46" y="390.32">*</text>
<text x="149.16" y="112.41">+</text>
<text x="219.60" y="21.23">+</text>
<text x="249.73" y="388.62">+</text>
<text x="261.41" y="151.03">+</text>
<text x="320.85" y="370.11">*</text>
<text x="34.59" y="76.55">+</text>
<text x="239.63" y="475.85">*</text>
<text x="137.62" y="12.43">.</text>
<text x="228.74" y="426.28">.</text>
<text x="23.96" y="458.97">+</text>
<text x="219.62" y="436.80">*</text>
<text x="188.45" y="276.29">+</text>
<text x="425.75" y="335.08">*</text>
<text x="476.89" y="275.55">+</text>
<text x="476.02" y="425.26">+</text>
<text x="29.00" y="205.41">.</text>
<text x="339.05" y="325.90">*</text>
<text x="111.73" y="160.44">*</text>
<text x="286.67" y="252.22">+</text>
<text x="299.70" y="314.90">.</text>
<text x="175.69" y="497.68">*</text>
<text x="242.14" y="365.51">.</text>
<text x="302.46" y="75.84">+</text>
<text x="10.85" y="24.25">+</text>
<text x="269.92" y="106.07">+</text>
<text x="347.04" y="45.57">*</text>
<text x="255.54" y="323.70">+</text>
<text x="259.86" y="430.72">.</text>
<text x="367.82" y="498.15">*</text>
<text x="475.31" y="361.21">.</text>
<text x="77.10" y="491.74">.</text>
<text x="105.96" y="124.32">+</text>
<text x="312.45" y="122.76">.</text>
<text x="454.61" y="435.03">.</text>
<text x="331.79" y="253.62">*</text>
<text x="31.98" y="284.35">*</text>
<text x="396.81" y="410.13">+</text>
<text x="22.08" y="156.44">+</text>
<text x="43.76" y="340.58">+</text>
<text x="334.50" y="446.63">*</text>
<text x="467.29" y="373.57">+</text>
<text x="289.90" y="160.60">.</text>
<text x="162.40" y="407.11">*</text>
<text x="346.10" y="295.43">+</text>
<text x="34.00" y="255.20">.</text>
<text x="125.60" y="91.08">.</text>
<text x="109.28" y="56.85">+</text>
<text x="64.51" y="227.64">.</text>
<text x="478.60" y="380.75">*</text>
<text x="410.78" y="8.50">*</text>
<text x="60.27" y="389.61">+</text>
<text x="414.40" y="237.31">+</text>
<text x="191.48" y="267.75">*</text>
<text x="231.17" y="86.09">+</text>
<text x="422.34" y="241.97">.</text>
<text x="160.86" y="66.28">*</text>
<text x="155.67" y="221.25">.</text>
<text x="373.46" y="158.25">+</text>
<text x="485.76" y="423.34">.</text>
<text x="466.05" y="176.65">.</text>
<text x="145.54" y="316.15">.</text>
<text x="41.11" y="347.54">.</text>
<text x="422.77" y="3.30">+</text>
<text x="286.96" y="163.54">*</text>
<text x="132.34" y="275.05">.</text>
<text x="30.94" y="167.42">.</text>
<text x="264.64" y="454.05">*</text>
<text x="282.74" y="375.27">+</text>
<text x="190.57" y="208.41">.</text>
<text x="374.77" y="460.77">.</text>
<text x="399.82" y="201.13">.</text>
<text x="53.84" y="498.14">.</text>
<text x="454.69" y="31.90">.</text>
<text x="142.96" y="467.57">+</text>
<text x="497.09" y="399.70">+</text>
<text x="133.97" y="426.27">.</text>
<text x="386.00" y="116.19">+</text>
<text x="98.47" y="2.32">.</text>
<text x="260.90" y="289.55">+</text>
<text x="477.48" y="149.69">+</text>
<text x="14.12" y="177.14">+</text>
<text x="358.79" y="69.42">+</text>
<text x="208.33" y="39.25">.</text>
<text x="494.78" y="496.67">.</text>
<text x="373.73" y="282.35">.</text>
<text x="0.03" y="338.11">.</text>
<text x="239.37" y="31.06">.</text>
<text x="475.98" y="455.36">.</text>
<text x="332.95" y="91.71">*</text>
<text x="328.91" y="130.85">+</text>
<text x="4.75" y="318.17">.</text>
<text x="357.52" y="133.47">+</text>
<text x="345.54" y="381.27">*</text>
<text x="41.50" y="78.85">.</text>
<text x="499.08" y="141.50">+</text>
<text x="313.41" y="278.15">+</text>
<text x="149.22" y="269.71">.</text>
<text x="59.50" y="437.38">*</text>
<text x="130.76" y="165.08">+</text>
<text x="367.55" y="110.68">+</text>
<text x="37.75" y="116.47">*</text>
<text x="150.68" y="123.15">.</text>
<text x="94.15" y="27.14">+</text>
<text x="379.27" y="244.91">+</text>
<text x="268.55" y="153.06">+</text>
<text x="363.98" y="124.76">+</text>
<text x="284.04" y="88.53">.</text>
<text x="73.48" y="192.72">.</text>
<text x="112.66" y="182.18">*</text>
<text x="89.85" y="303.28">*</text>
<text x="239.32" y="326.59">.</text>
<text x="194.95" y="13.16">+</text>
<text x="329.82" y="244.58">*</text>
<text x="239.41" y="96.74">.</text>
<text x="259.67" y="161.16">.</text>
<text x="187.45" y="410.03">.</text>
<text x="141.40" y="276.10">*</text>
<text x="339.58" y="350.60">*</text>
<text x="155.06" y="469.08">.</text>
<text x="393.91" y="357.02">*</text>
<text x="117.30" y="143.98">.</text>
<text x="229.46" y="205.45">+</text>
<text x="405.93" y="298.20">.</text>
<text x="374.19" y="332.03">.</text>
<text x="385.92" y="202.21">+</text>
<text x="41.04" y="439.00">.</text>
<text x="228.48" y="359.46">.</text>
<text x="444.78" y="219.04">.</text>
<text x="9.49" y="64.70">.</text>
<text x="66.72" y="18.21">+</text>
<text x="111.63" y="298.68">.</text>
<text x="82.57" y="362.07">.</text>
<text x="444.54" y="336.61">+</text>
<text x="459.42" y="125.93">*</text>
<text x="109.74" y="464.04">.</text>
<text x="348.62" y="246.52">*</text>
<text x="270.28" y="22.42">+</text>
<text x="281.60" y="150.58">.</text>
<text x="248.63" y="241.78">*</text>
<text x="340.07" y="326.62">+</text>
<text x="399.18" y="136.47">+</text>
<text x="305.01" y="433.48">+</text>
<text x="114.70" y="373.88">+</text>
<text x="393.34" y="421.09">+</text>
<text x="268.01" y="312.18">*</text>
<text x="21.06" y="208.70">+</text>
<text x="146.16" y="372.45">.</text>
<text x="113.66" y="219.65">+</text>
<text x="85.81" y="227.07">+</text>
<text x="450.12" y="498.53">.</text>
<text x="365.17" y="129.77">.</text>
<text x="374.45" y="57.73">.</text>
<text x="482.58" y="122.71">*</text>
<text x="428.12" y="315.93">+</text>
<text x="496.09" y="199.39">.</text>
<text x="294.89" y="109.43">+</text>
<text x="121.99" y="148.93">+</text>
<text x="158.86" y="378.66">+</text>
<text x="332.25" y="450.46">.</text>
<text x="345.19" y="183.46">.</text>
<text x="125.70" y="369.92">*</text>
<text x="56.96" y="366.66">*</text>

</svg>