
<svg viewBox="0 0 500 500" xmlns="http://www.w.org/2000/svg" width="100%" height="100%" style="background-color: #0a0a14; font-family: 'Courier New', Courier, monospace;">
    <style>
        text { fill: #aaa; font-size: 10px; text-anchor: middle; dominant-baseline: middle; }
    </style>
    <text x="267.83" y="270.11">+</text>
<text x="344.31" y="244.58">*</text>
<text x="293.83" y="33.95">.</text>
<text x="333.44" y="223.68">+</text>
<text x="219.95" y="254.38">*</text>
<text x="179.01" y="205.81">*</text>
<text x="411.04" y="101.93">.</text>
<text x="194.52" y="205.39">*</text>
<text x="29.03" y="73.28">.</text>
<text x="93.09" y="103.71">.</text>
<text x="471.11" y="336.41">*</text>
<text x="427.98" y="325.82">+</text>
<text x="168.02" y="377.35">*</text>
<text x="465.48" y="183.29">+</text>
<text x="45.56" y="24.93">+</text>
<text x="44.34" y="252.27">+</text>
<text x="459.05" y="194.96">.</text>
<text x="187.15" y="173.09">*</text>
<text x="375.08" y="70.30">+</text>
<text x="58.53" y="332.52">*</text>
<text x="334.40" y="302.35">*</text>
<text x="278.12" y="104.49">*</text>
<text x="74.07" y="195.29">.</text>
<text x="89.87" y="300.08">+</text>
<text x="458.26" y="382.90">.</text>
<text x="281.64" y="240.05">.</text>
<text x="389.24" y="120.48">+</text>
<text x="201.87" y="394.86">*</text>
<text x="476.25" y="323.96">.</text>
<text x="335.48" y="275.40">+</text>
<text x="297.80" y="443.52">+</text>
<text x="107.61" y="244.64">.</text>
<text x="457.90" y="124.37">.</text>
<text x="150.77" y="138.08">.</text>
<text x="369.86" y="409.66">+</text>
<text x="118.88" y="287.68">.</text>
<text x="445.44" y="288.94">.</text>
<text x="254.28" y="69.84">.</text>
<text x="314.62" y="315.49">+</text>
<text x="19.86" y="470.82">.</text>
<text x="243.60" y="27.44">.</text>
<text x="344.09" y="365.49">.</text>
<text x="58.93" y="267.26">.</text>
<text x="306.96" y="152.92">+</text>
<text x="247.23" y="327.10">*</text>
<text x="325.53" y="464.77">+</text>
<text x="246.30" y="478.82">+</text>
<text x="356.66" y="430.17">.</text>
<text x="202.53" y="411.52">.</text>
<text x="37.14" y="41.48">.</text>
<text x="47.64" y="63.59">*</text>
<text x="190.10" y="89.40">.</text>
<text x="116.54" y="162.84">+</text>
<text x="50.16" y="60.59">+</text>
<text x="327.87" y="20.55">.</text>
<text x="358.82" y="131.66">.</text>
<text x="194.20" y="320.65">+</text>
<text x="27.24" y="159.13">*</text>
<text x="260.82" y="492.21">.</text>
<text x="390.71" y="165.35">+</text>
<text x="416.24" y="484.93">.</text>
<text x="442.11" y="166.47">.</text>
<text x="335.51" y="221.34">*</text>
<text x="240.55" y="318.30">*</text>
<text x="163.95" y="318.64">+</text>
<text x="485.02" y="360.37">+</text>
<text x="479.57" y="128.04">+</text>
<text x="447.21" y="164.85">.</text>
<text x="216.90" y="396.53">.</text>
<text x="428.55" y="66.61">+</text>
<text x="419.66" y="425.70">.</text>
<text x="178.54" y="476.68">.</text>
<text x="375.45" y="472.07">.</text>
<text x="412.31" y="463.24">.</text>
<text x="18.16" y="114.19">.</text>
<text x="22.90" y="122.84">*</text>
<text x="388.28" y="97.90">+</text>
<text x="134.51" y="34.08">+</text>
<text x="472.32" y="45.46">+</text>
<text x="127.69" y="349.07">.</text>
<text x="497.40" y="140.95">.</text>
<text x="37.28" y="453.30">.</text>
<text x="278.70" y="285.33">.</text>
<text x="359.61" y="311.85">+</text>
<text x="292.30" y="387.12">.</text>
<text x="301.20" y="36.48">+</text>
<text x="117.03" y="234.07">.</text>
<text x="186.74" y="318.11">.</text>
<text x="204.63" y="226.10">+</text>
<text x="157.14" y="128.90">*</text>
<text x="163.88" y="257.49">*</text>
<text x="49.12" y="161.37">+</text>
<text x="414.39" y="345.06">*</text>
<text x="353.72" y="312.38">.</text>
<text x="276.26" y="123.66">*</text>
<text x="169.88" y="401.69">*</text>
<text x="446.26" y="107.34">*</text>
<text x="34.24" y="212.78">+</text>
<text x="310.19" y="488.40">+</text>
<text x="319.31" y="12.38">+</text>
<text x="14.40" y="266.81">.</text>
<text x="306.64" y="61.49">+</text>
<text x="229.04" y="242.49">+</text>
<text x="308.31" y="57.14">*</text>
<text x="33.67" y="450.67">*</text>
<text x="45.51" y="183.89">.</text>
<text x="322.15" y="130.44">+</text>
<text x="481.22" y="474.93">+</text>
<text x="360.33" y="143.47">*</text>
<text x="41.12" y="495.96">+</text>
<text x="382.87" y="214.39">*</text>
<text x="337.70" y="62.30">.</text>
<text x="128.76" y="469.42">*</text>
<text x="256.90" y="165.50">+</text>
<text x="335.47" y="315.90">.</text>
<text x="402.26" y="262.37">*</text>
<text x="411.72" y="316.24">.</text>
<text x="132.50" y="469.34">+</text>
<text x="188.55" y="32.03">+</text>
<text x="322.24" y="34.08">.</text>
<text x="145.14" y="222.12">.</text>
<text x="15.18" y="107.78">.</text>
<text x="145.24" y="468.75">.</text>
<text x="428.72" y="330.65">+</text>
<text x="63.03" y="151.32">.</text>
<text x="161.62" y="205.45">*</text>
<text x="51.25" y="160.88">+</text>
<text x="401.18" y="99.43">+</text>
<text x="248.61" y="70.10">*</text>
<text x="409.11" y="357.89">+</text>
<text x="172.82" y="285.34">+</text>
<text x="28.51" y="146.40">+</text>
<text x="440.66" y="421.99">.</text>
<text x="31.78" y="320.74">.</text>
<text x="404.31" y="361.48">.</text>
<text x="436.55" y="409.17">*</text>
<text x="208.50" y="167.76">*</text>
<text x="31.75" y="158.63">.</text>
<text x="138.82" y="182.62">.</text>
<text x="467.20" y="9.70">.</text>
<text x="83.27" y="224.53">*</text>
<text x="151.21" y="377.46">.</text>
<text x="384.26" y="445.25">.</text>
<text x="201.27" y="103.81">.</text>
<text x="193.27" y="160.26">.</text>
<text x="483.62" y="449.48">.</text>
<text x="457.21" y="72.22">+</text>
<text x="76.37" y="22.72">+</text>
<text x="291.12" y="148.91">+</text>
<text x="90.47" y="253.83">+</text>
<text x="133.11" y="270.37">.</text>
<text x="321.52" y="141.47">.</text>
<text x="220.13" y="9.52">+</text>
<text x="2.05" y="42.01">.</text>
<text x="287.58" y="257.42">.</text>
<text x="355.52" y="227.87">.</text>
<text x="127.79" y="193.19">*</text>
<text x="412.90" y="288.25">.</text>
<text x="429.47" y="14.63">+</text>
<text x="408.52" y="12.64">.</text>
<text x="384.46" y="445.90">+</text>
<text x="249.92" y="383.81">+</text>
<text x="319.66" y="392.35">.</text>
<text x="271.12" y="304.85">.</text>
<text x="242.96" y="149.02">.</text>
<text x="21.74" y="249.19">.</text>
<text x="72.95" y="332.32">+</text>
<text x="84.56" y="406.06">.</text>
<text x="379.48" y="238.19">+</text>
<text x="183.47" y="336.94">+</text>
<text x="64.08" y="444.09">*</text>
<text x="250.33" y="461.26">+</text>
<text x="323.08" y="331.14">.</text>
<text x="355.93" y="387.75">.</text>
<text x="488.89" y="276.58">*</text>
<text x="63.82" y="6.04">*</text>
<text x="155.79" y="451.46">+</text>
<text x="302.57" y="170.04">.</text>
<text x="379.85" y="319.03">+</text>
<text x="129.76" y="44.09">+</text>
<text x="293.79" y="435.09">.</text>
<text x="121.97" y="143.51">+</text>
<text x="190.75" y="431.88">+</text>
<text x="73.93" y="277.28">+</text>
<text x="237.67" y="56.46">+</text>
<text x="159.27" y="70.42">+</text>
<text x="69.18" y="256.95">+</text>
<text x="207.85" y="166.29">+</text>
<text x="179.33" y="85.82">.</text>
<text x="312.12" y="96.02">*</text>
<text x="200.61" y="397.31">.</text>
<text x="223.37" y="477.47">+</text>
<text x="446.40" y="417.06">+</text>
<text x="272.73" y="184.43">.</text>
<text x="337.15" y="369.25">+</text>
<text x="65.76" y="337.17">+</text>
<text x="91.76" y="486.99">.</text>
<text x="145.35" y="280.07">.</text>
<text x="125.76" y="66.95">+</text>
<text x="381.74" y="384.79">+</text>
<text x="420.91" y="338.32">+</text>
<text x="325.15" y="339.41">+</text>
<text x="481.16" y="117.79">.</text>
<text x="64.26" y="136.03">.</text>
<text x="228.79" y="382.09">*</text>
<text x="118.04" y="471.30">.</text>
<text x="217.22" y="409.70">+</text>
<text x="444.28" y="184.57">.</text>
<text x="409.31" y="100.56">.</text>
<text x="497.38" y="200.52">+</text>
<text x="21.18" y="474.87">*</text>
<text x="171.21" y="313.05">+</text>
<text x="441.12" y="266.21">+</text>
<text x="242.19" y="374.66">.</text>
<text x="239.13" y="192.36">*</text>
<text x="283.04" y="382.69">*</text>
<text x="481.62" y="464.83">+</text>
<text x="130.16" y="330.89">+</text>
<text x="450.42" y="172.32">+</text>
<text x="295.01" y="301.15">.</text>
<text x="266.96" y="421.15">.</text>
<text x="492.29" y="183.16">+</text>
<text x="21.57" y="104.49">+</text>
<text x="161.50" y="164.04">.</text>

</svg>