
<svg viewBox="0 0 500 500" xmlns="http://www.w.org/2000/svg" width="100%" height="100%" style="background-color: #0a0a14; font-family: 'Courier New', Courier, monospace;">
    <style>
        text { fill: #aaa; font-size: 10px; text-anchor: middle; dominant-baseline: middle; }
    </style>
    <text x="479.30" y="26.64">.</text>
<text x="11.09" y="413.77">+</text>
<text x="286.28" y="486.47">*</text>
<text x="131.62" y="48.29">.</text>
<text x="438.84" y="212.57">.</text>
<text x="159.54" y="313.15">*</text>
<text x="167.90" y="44.56">.</text>
<text x="466.26" y="84.40">+</text>
<text x="200.30" y="250.01">+</text>
<text x="34.48" y="472.24">.</text>
<text x="379.02" y="43.58">+</text>
<text x="218.64" y="152.37">.</text>
<text x="215.50" y="483.42">.</text>
<text x="224.37" y="173.48">+</text>
<text x="248.39" y="269.44">+</text>
<text x="427.31" y="53.93">+</text>
<text x="319.17" y="159.68">+</text>
<text x="221.13" y="12.88">*</text>
<text x="452.50" y="334.44">+</text>
<text x="140.10" y="288.56">.</text>
<text x="82.44" y="264.73">.</text>
<text x="159.26" y="177.59">+</text>
<text x="390.84" y="350.42">+</text>
<text x="257.51" y="237.08">.</text>
<text x="273.08" y="239.99">.</text>
<text x="172.86" y="391.24">.</text>
<text x="380.09" y="216.04">.</text>
<text x="60.67" y="164.45">+</text>
<text x="93.02" y="146.47">+</text>
<text x="308.88" y="441.89">+</text>
<text x="439.37" y="158.87">.</text>
<text x="371.80" y="159.39">.</text>
<text x="117.53" y="398.07">+</text>
<text x="274.60" y="131.04">.</text>
<text x="227.12" y="71.83">+</text>
<text x="222.87" y="292.95">.</text>
<text x="178.62" y="274.29">*</text>
<text x="47.08" y="78.68">.</text>
<text x="300.70" y="465.81">+</text>
<text x="350.52" y="165.64">.</text>
<text x="340.95" y="492.91">.</text>
<text x="25.35" y="214.04">+</text>
<text x="374.85" y="358.81">.</text>
<text x="273.70" y="215.91">.</text>
<text x="392.14" y="221.52">+</text>
<text x="464.11" y="194.92">.</text>
<text x="422.02" y="348.75">+</text>
<text x="60.19" y="452.44">.</text>
<text x="7.93" y="409.48">.</text>
<text x="93.56" y="380.00">*</text>
<text x="301.71" y="489.97">+</text>
<text x="489.19" y="388.31">.</text>
<text x="346.02" y="316.88">.</text>
<text x="283.51" y="208.98">.</text>
<text x="209.63" y="315.37">+</text>
<text x="395.95" y="163.40">.</text>
<text x="218.16" y="361.71">.</text>
<text x="92.85" y="369.75">.</text>
<text x="69.36" y="132.43">*</text>
<text x="161.41" y="237.52">.</text>
<text x="105.41" y="483.73">.</text>
<text x="134.22" y="160.73">+</text>
<text x="346.83" y="217.69">.</text>
<text x="309.30" y="1.66">+</text>
<text x="304.65" y="163.83">*</text>
<text x="242.01" y="273.35">+</text>
<text x="113.13" y="429.97">.</text>
<text x="441.12" y="87.56">.</text>
<text x="246.49" y="45.41">+</text>
<text x="421.35" y="78.56">+</text>
<text x="192.40" y="69.20">+</text>
<text x="411.72" y="121.76">.</text>
<text x="14.95" y="296.42">.</text>
<text x="495.36" y="373.75">.</text>
<text x="119.82" y="233.90">+</text>
<text x="193.15" y="251.11">+</text>
<text x="42.07" y="453.79">.</text>
<text x="32.32" y="117.39">.</text>
<text x="246.45" y="125.34">.</text>
<text x="403.70" y="329.65">+</text>
<text x="454.32" y="417.83">+</text>
<text x="21.05" y="121.32">.</text>
<text x="148.97" y="66.28">*</text>
<text x="240.68" y="352.64">+</text>
<text x="91.42" y="93.71">.</text>
<text x="223.29" y="372.07">*</text>
<text x="467.75" y="252.61">+</text>
<text x="394.80" y="175.50">.</text>
<text x="480.96" y="369.90">.</text>
<text x="493.08" y="217.83">.</text>
<text x="351.47" y="498.08">.</text>
<text x="467.42" y="66.78">.</text>
<text x="394.62" y="252.32">.</text>
<text x="408.09" y="69.93">.</text>
<text x="120.46" y="92.54">.</text>
<text x="394.91" y="42.16">.</text>
<text x="120.35" y="454.57">.</text>
<text x="224.47" y="346.84">+</text>
<text x="225.69" y="486.66">.</text>
<text x="389.95" y="478.76">*</text>
<text x="399.57" y="157.98">.</text>
<text x="95.98" y="48.00">*</text>
<text x="365.31" y="357.82">+</text>
<text x="470.55" y="396.61">+</text>
<text x="70.93" y="493.74">+</text>
<text x="38.89" y="184.47">.</text>
<text x="210.74" y="180.57">+</text>
<text x="412.86" y="243.48">+</text>
<text x="55.73" y="266.34">+</text>
<text x="422.76" y="330.09">+</text>
<text x="81.23" y="173.96">+</text>
<text x="159.79" y="250.89">*</text>
<text x="474.52" y="124.08">.</text>
<text x="301.82" y="450.94">+</text>
<text x="232.90" y="102.42">.</text>
<text x="65.34" y="445.37">.</text>
<text x="375.71" y="1.59">.</text>
<text x="48.07" y="217.55">+</text>
<text x="191.85" y="116.59">.</text>
<text x="269.49" y="195.88">+</text>
<text x="436.02" y="458.75">*</text>
<text x="107.10" y="432.65">+</text>
<text x="387.40" y="80.70">+</text>
<text x="158.44" y="186.13">*</text>
<text x="346.30" y="160.32">+</text>
<text x="294.83" y="266.36">.</text>
<text x="362.08" y="234.67">+</text>
<text x="15.33" y="207.88">.</text>
<text x="354.88" y="193.49">.</text>
<text x="423.47" y="184.81">.</text>
<text x="441.50" y="412.75">+</text>
<text x="213.01" y="109.95">+</text>
<text x="423.69" y="493.41">+</text>
<text x="148.41" y="415.79">+</text>
<text x="179.17" y="383.79">+</text>
<text x="230.47" y="343.84">+</text>
<text x="183.08" y="296.29">+</text>
<text x="145.22" y="383.23">.</text>
<text x="366.36" y="446.01">.</text>
<text x="149.61" y="107.66">+</text>
<text x="437.01" y="330.85">*</text>
<text x="478.56" y="331.92">.</text>
<text x="384.48" y="454.73">+</text>
<text x="325.34" y="419.88">.</text>
<text x="309.46" y="250.51">+</text>
<text x="15.09" y="280.72">*</text>
<text x="420.19" y="11.71">*</text>
<text x="177.12" y="361.25">+</text>
<text x="489.07" y="85.70">.</text>
<text x="18.91" y="358.63">*</text>
<text x="44.52" y="328.62">*</text>
<text x="192.90" y="233.32">+</text>
<text x="355.03" y="326.36">*</text>
<text x="432.04" y="379.69">*</text>
<text x="154.67" y="283.05">.</text>
<text x="423.92" y="342.10">.</text>
<text x="235.77" y="473.90">.</text>
<text x="305.44" y="185.74">.</text>
<text x="480.50" y="98.17">+</text>
<text x="69.60" y="405.65">.</text>
<text x="122.90" y="433.37">.</text>
<text x="62.26" y="129.78">+</text>
<text x="27.12" y="162.23">+</text>
<text x="257.74" y="183.60">.</text>
<text x="434.69" y="362.52">+</text>
<text x="300.21" y="486.32">.</text>
<text x="272.69" y="366.53">+</text>
<text x="382.00" y="318.23">+</text>
<text x="451.02" y="318.88">+</text>
<text x="49.96" y="54.51">.</text>
<text x="172.90" y="72.06">.</text>
<text x="267.62" y="40.20">+</text>
<text x="85.67" y="260.25">.</text>
<text x="362.51" y="216.35">.</text>
<text x="138.41" y="111.81">+</text>
<text x="395.98" y="107.69">+</text>
<text x="121.79" y="407.08">.</text>
<text x="260.39" y="53.66">*</text>
<text x="62.10" y="258.82">.</text>
<text x="359.18" y="129.28">+</text>
<text x="214.23" y="283.47">+</text>
<text x="128.02" y="319.18">.</text>
<text x="225.33" y="186.46">*</text>
<text x="474.98" y="53.42">.</text>
<text x="324.48" y="318.95">+</text>
<text x="371.15" y="193.33">+</text>
<text x="193.53" y="432.71">*</text>
<text x="65.59" y="45.08">.</text>
<text x="422.24" y="314.01">*</text>
<text x="258.57" y="446.54">+</text>
<text x="324.39" y="65.91">.</text>
<text x="217.42" y="408.15">.</text>
<text x="403.28" y="403.93">+</text>
<text x="94.42" y="414.07">.</text>
<text x="127.30" y="261.92">.</text>
<text x="132.64" y="308.18">.</text>
<text x="379.19" y="67.04">.</text>
<text x="140.91" y="197.41">.</text>

</svg>