
<svg viewBox="0 0 500 500" xmlns="http://www.w.org/2000/svg" width="100%" height="100%" style="background-color: #0a0a14; font-family: 'Courier New', Courier, monospace;">
    <style>
        text { fill: #aaa; font-size: 10px; text-anchor: middle; dominant-baseline: middle; }
    </style>
    <text x="191.97" y="424.83">+</text>
<text x="134.83" y="230.33">+</text>
<text x="248.77" y="400.81">+</text>
<text x="195.49" y="376.59">.</text>
<text x="381.16" y="125.34">.</text>
<text x="146.47" y="133.62">+</text>
<text x="272.93" y="130.08">+</text>
<text x="217.51" y="413.82">+</text>
<text x="228.67" y="467.66">*</text>
<text x="345.25" y="68.16">+</text>
<text x="369.79" y="119.95">+</text>
<text x="487.80" y="145.74">.</text>
<text x="82.38" y="201.66">.</text>
<text x="79.83" y="366.85">+</text>
<text x="56.23" y="104.95">+</text>
<text x="477.43" y="249.57">.</text>
<text x="311.37" y="313.89">.</text>
<text x="56.84" y="31.37">.</text>
<text x="370.85" y="54.04">.</text>
<text x="63.60" y="355.40">.</text>
<text x="231.75" y="346.44">.</text>
<text x="241.50" y="322.97">+</text>
<text x="398.43" y="370.90">+</text>
<text x="192.51" y="401.95">.</text>
<text x="294.89" y="71.32">+</text>
<text x="466.75" y="169.97">.</text>
<text x="249.66" y="410.89">.</text>
<text x="107.34" y="9.33">.</text>
<text x="336.96" y="137.65">+</text>
<text x="281.38" y="293.21">+</text>
<text x="291.46" y="149.73">*</text>
<text x="296.79" y="144.69">.</text>
<text x="307.32" y="482.04">+</text>
<text x="368.62" y="426.23">+</text>
<text x="235.10" y="113.63">+</text>
<text x="194.13" y="392.30">.</text>
<text x="464.57" y="282.20">*</text>
<text x="435.36" y="220.42">.</text>
<text x="39.93" y="33.61">.</text>
<text x="377.74" y="323.20">*</text>
<text x="105.68" y="216.27">.</text>
<text x="225.11" y="418.63">.</text>
<text x="381.71" y="152.31">+</text>
<text x="439.58" y="34.40">.</text>
<text x="85.65" y="317.55">+</text>
<text x="421.43" y="335.32">+</text>
<text x="320.84" y="435.02">+</text>
<text x="411.68" y="217.74">+</text>
<text x="429.43" y="25.81">+</text>
<text x="343.25" y="272.33">.</text>
<text x="491.18" y="85.84">+</text>
<text x="134.74" y="268.51">*</text>
<text x="370.73" y="58.66">.</text>
<text x="110.29" y="259.95">+</text>
<text x="195.14" y="6.27">*</text>
<text x="309.18" y="286.99">+</text>
<text x="100.51" y="308.78">*</text>
<text x="308.82" y="337.85">+</text>
<text x="357.31" y="140.35">.</text>
<text x="483.19" y="390.55">.</text>
<text x="378.00" y="194.14">.</text>
<text x="214.82" y="251.76">*</text>
<text x="90.21" y="211.77">.</text>
<text x="29.14" y="196.92">.</text>
<text x="367.55" y="356.87">+</text>
<text x="434.07" y="480.25">.</text>
<text x="175.08" y="419.91">.</text>
<text x="186.48" y="417.17">.</text>
<text x="332.22" y="218.91">+</text>
<text x="38.07" y="110.23">+</text>
<text x="475.22" y="158.70">+</text>
<text x="4.30" y="348.77">.</text>
<text x="352.59" y="176.01">.</text>
<text x="26.82" y="319.21">.</text>
<text x="107.78" y="447.24">*</text>
<text x="210.88" y="340.72">.</text>
<text x="321.91" y="255.56">+</text>
<text x="470.02" y="15.48">.</text>
<text x="122.11" y="420.75">*</text>
<text x="15.56" y="131.13">*</text>
<text x="134.33" y="72.21">.</text>
<text x="65.43" y="38.86">*</text>
<text x="156.97" y="418.68">+</text>
<text x="239.58" y="153.55">+</text>
<text x="284.09" y="255.13">*</text>
<text x="177.73" y="85.93">*</text>
<text x="323.18" y="100.20">.</text>
<text x="182.99" y="409.45">.</text>
<text x="494.86" y="28.60">+</text>
<text x="443.65" y="282.08">+</text>
<text x="55.15" y="7.07">.</text>
<text x="444.32" y="89.83">*</text>
<text x="389.03" y="492.04">+</text>
<text x="116.15" y="299.50">.</text>
<text x="115.48" y="422.57">.</text>
<text x="1.90" y="33.43">*</text>
<text x="273.25" y="238.48">+</text>
<text x="328.80" y="151.53">.</text>
<text x="175.26" y="492.21">.</text>
<text x="149.37" y="494.23">*</text>
<text x="81.95" y="222.26">.</text>
<text x="86.66" y="333.62">.</text>
<text x="383.88" y="446.54">*</text>
<text x="138.88" y="24.32">+</text>
<text x="151.32" y="217.99">.</text>
<text x="273.84" y="307.75">.</text>
<text x="221.94" y="252.76">+</text>
<text x="446.96" y="76.25">.</text>
<text x="220.83" y="259.65">.</text>
<text x="19.47" y="409.14">+</text>
<text x="173.92" y="313.77">+</text>
<text x="448.48" y="138.88">.</text>
<text x="314.24" y="61.13">+</text>
<text x="12.88" y="119.18">+</text>
<text x="142.16" y="284.99">.</text>
<text x="309.41" y="314.83">*</text>
<text x="309.48" y="407.35">+</text>
<text x="123.21" y="124.65">+</text>
<text x="368.40" y="224.61">+</text>
<text x="77.44" y="292.41">.</text>
<text x="51.10" y="246.43">+</text>
<text x="457.64" y="156.34">*</text>
<text x="379.38" y="38.66">+</text>
<text x="155.35" y="279.73">.</text>
<text x="134.56" y="193.02">.</text>
<text x="117.02" y="146.91">*</text>
<text x="408.26" y="458.73">*</text>
<text x="103.47" y="414.54">+</text>
<text x="392.53" y="196.90">.</text>
<text x="95.80" y="291.81">.</text>
<text x="12.92" y="175.12">.</text>
<text x="499.73" y="23.52">+</text>
<text x="326.56" y="92.04">.</text>
<text x="379.51" y="429.57">+</text>
<text x="398.89" y="229.35">+</text>
<text x="453.09" y="487.56">.</text>
<text x="224.70" y="276.27">.</text>
<text x="381.69" y="350.19">.</text>
<text x="100.83" y="250.80">.</text>
<text x="408.47" y="223.32">+</text>
<text x="475.26" y="228.36">.</text>
<text x="255.97" y="360.21">+</text>
<text x="464.68" y="139.25">.</text>
<text x="394.63" y="201.24">+</text>
<text x="421.43" y="163.39">+</text>
<text x="403.87" y="87.95">+</text>
<text x="439.77" y="30.00">.</text>
<text x="239.43" y="329.60">.</text>
<text x="65.47" y="344.56">*</text>
<text x="274.41" y="226.36">+</text>
<text x="423.70" y="365.52">+</text>
<text x="29.56" y="378.98">+</text>
<text x="169.29" y="421.98">+</text>
<text x="240.21" y="168.63">*</text>
<text x="35.00" y="240.38">*</text>
<text x="423.13" y="392.87">.</text>
<text x="89.50" y="29.90">+</text>
<text x="175.44" y="204.15">.</text>
<text x="435.75" y="490.37">.</text>
<text x="96.45" y="349.14">.</text>
<text x="380.97" y="50.03">+</text>
<text x="436.23" y="143.12">+</text>
<text x="337.87" y="104.16">*</text>
<text x="298.34" y="402.62">+</text>
<text x="277.54" y="491.92">*</text>
<text x="436.26" y="328.33">+</text>
<text x="401.24" y="120.23">*</text>
<text x="56.42" y="381.22">+</text>
<text x="59.41" y="143.34">.</text>
<text x="390.40" y="48.27">+</text>
<text x="28.76" y="475.33">.</text>
<text x="203.36" y="211.85">+</text>
<text x="439.96" y="490.14">.</text>
<text x="238.86" y="426.63">+</text>
<text x="418.19" y="293.67">*</text>
<text x="154.82" y="40.23">+</text>
<text x="348.82" y="445.91">.</text>
<text x="195.47" y="313.78">*</text>
<text x="36.08" y="246.08">*</text>
<text x="213.26" y="70.39">+</text>
<text x="419.07" y="198.22">.</text>
<text x="201.78" y="45.45">.</text>
<text x="388.82" y="211.35">.</text>
<text x="352.59" y="241.32">.</text>
<text x="40.67" y="424.25">*</text>
<text x="437.25" y="259.94">+</text>
<text x="231.63" y="220.57">+</text>
<text x="486.49" y="305.08">+</text>
<text x="189.56" y="126.02">+</text>
<text x="183.95" y="32.89">.</text>
<text x="158.38" y="84.60">+</text>
<text x="107.57" y="59.74">.</text>
<text x="70.45" y="124.15">.</text>
<text x="196.64" y="135.50">+</text>
<text x="209.99" y="53.15">+</text>
<text x="158.34" y="79.15">.</text>
<text x="216.18" y="421.29">.</text>
<text x="84.84" y="8.33">+</text>
<text x="456.53" y="416.17">+</text>
<text x="178.47" y="296.83">+</text>
<text x="165.06" y="76.91">+</text>
<text x="308.99" y="229.10">.</text>
<text x="117.99" y="397.79">+</text>
<text x="128.34" y="276.28">.</text>
<text x="210.75" y="188.97">+</text>
<text x="84.01" y="224.04">.</text>
<text x="164.07" y="499.15">+</text>
<text x="215.28" y="496.90">.</text>

</svg>