
<svg viewBox="0 0 500 500" xmlns="http://www.w.org/2000/svg" width="100%" height="100%" style="background-color: #0a0a14; font-family: 'Courier New', Courier, monospace;">
    <style>
        text { fill: #aaa; font-size: 10px; text-anchor: middle; dominant-baseline: middle; }
    </style>
    <text x="442.90" y="342.18">.</text>
<text x="37.18" y="92.56">+</text>
<text x="290.91" y="448.76">*</text>
<text x="109.77" y="263.76">.</text>
<text x="119.84" y="477.22">*</text>
<text x="197.62" y="456.60">+</text>
<text x="382.81" y="408.60">+</text>
<text x="61.88" y="191.82">+</text>
<text x="189.31" y="234.98">.</text>
<text x="396.87" y="474.36">*</text>
<text x="239.41" y="143.66">.</text>
<text x="19.50" y="286.11">+</text>
<text x="128.58" y="486.87">.</text>
<text x="37.65" y="410.54">*</text>
<text x="185.37" y="470.38">+</text>
<text x="180.23" y="178.99">.</text>
<text x="309.40" y="3.62">.</text>
<text x="412.70" y="124.47">*</text>
<text x="344.38" y="97.17">+</text>
<text x="479.30" y="130.68">.</text>
<text x="224.18" y="0.59">+</text>
<text x="405.98" y="197.41">+</text>
<text x="179.85" y="452.22">*</text>
<text x="68.77" y="262.82">+</text>
<text x="223.63" y="449.70">.</text>
<text x="315.91" y="381.71">.</text>
<text x="121.72" y="302.53">.</text>
<text x="53.89" y="402.11">.</text>
<text x="252.81" y="323.00">+</text>
<text x="31.19" y="246.89">.</text>
<text x="187.12" y="316.08">.</text>
<text x="4.72" y="27.94">+</text>
<text x="68.93" y="484.43">*</text>
<text x="325.12" y="420.42">.</text>
<text x="86.95" y="51.89">*</text>
<text x="85.76" y="132.35">.</text>
<text x="235.04" y="248.54">+</text>
<text x="359.16" y="315.95">+</text>
<text x="248.08" y="62.42">+</text>
<text x="165.41" y="493.31">+</text>
<text x="354.11" y="471.45">.</text>
<text x="391.49" y="130.50">*</text>
<text x="272.49" y="306.00">.</text>
<text x="4.10" y="444.98">.</text>
<text x="343.07" y="34.31">+</text>
<text x="268.65" y="60.10">*</text>
<text x="298.20" y="41.80">+</text>
<text x="278.03" y="288.88">*</text>
<text x="403.30" y="369.67">.</text>
<text x="431.95" y="308.35">*</text>
<text x="59.39" y="270.60">.</text>
<text x="221.29" y="231.32">.</text>
<text x="295.87" y="238.34">+</text>
<text x="123.96" y="71.92">+</text>
<text x="70.39" y="422.08">+</text>
<text x="90.89" y="418.74">+</text>
<text x="249.25" y="23.71">+</text>
<text x="6.43" y="361.02">+</text>
<text x="430.74" y="366.90">*</text>
<text x="475.73" y="64.20">*</text>
<text x="256.70" y="5.72">.</text>
<text x="12.88" y="37.73">+</text>
<text x="158.53" y="357.45">*</text>
<text x="158.08" y="344.03">+</text>
<text x="314.96" y="276.03">+</text>
<text x="236.58" y="396.20">*</text>
<text x="87.33" y="322.48">.</text>
<text x="172.12" y="374.79">+</text>
<text x="280.88" y="158.11">.</text>
<text x="337.49" y="184.51">+</text>
<text x="381.59" y="330.39">*</text>
<text x="445.89" y="496.17">+</text>
<text x="199.22" y="428.26">.</text>
<text x="77.28" y="383.10">+</text>
<text x="45.14" y="239.53">+</text>
<text x="355.28" y="238.13">.</text>
<text x="435.52" y="184.52">+</text>
<text x="23.17" y="160.71">*</text>
<text x="124.13" y="69.32">+</text>
<text x="344.48" y="309.28">*</text>
<text x="315.06" y="174.03">+</text>
<text x="312.52" y="137.76">+</text>
<text x="295.90" y="127.47">*</text>
<text x="496.66" y="2.87">*</text>
<text x="13.53" y="2.17">+</text>
<text x="264.03" y="390.71">+</text>
<text x="403.88" y="151.44">+</text>
<text x="456.95" y="65.92">*</text>
<text x="285.83" y="228.34">.</text>
<text x="258.07" y="316.25">+</text>
<text x="265.37" y="157.01">.</text>
<text x="369.30" y="112.90">.</text>
<text x="207.04" y="60.31">.</text>
<text x="7.27" y="347.72">.</text>
<text x="179.05" y="67.11">+</text>
<text x="62.50" y="463.32">+</text>
<text x="192.63" y="233.38">*</text>
<text x="352.36" y="99.68">.</text>
<text x="300.32" y="257.57">+</text>
<text x="7.59" y="1.77">*</text>
<text x="95.65" y="153.18">+</text>
<text x="484.77" y="83.89">+</text>
<text x="382.58" y="295.76">.</text>
<text x="256.89" y="214.35">.</text>
<text x="405.73" y="100.04">+</text>
<text x="434.43" y="29.01">+</text>
<text x="411.11" y="159.11">+</text>
<text x="143.46" y="458.68">+</text>
<text x="24.46" y="485.06">+</text>
<text x="142.87" y="406.71">*</text>
<text x="187.13" y="360.02">+</text>
<text x="486.45" y="54.60">.</text>
<text x="234.64" y="13.98">*</text>
<text x="122.11" y="149.85">*</text>
<text x="194.73" y="416.50">*</text>
<text x="41.34" y="199.36">+</text>
<text x="241.42" y="297.92">.</text>
<text x="24.42" y="139.89">.</text>
<text x="59.51" y="396.29">.</text>
<text x="469.84" y="104.09">.</text>
<text x="12.75" y="293.45">.</text>
<text x="329.03" y="379.49">.</text>
<text x="210.21" y="489.44">+</text>
<text x="139.98" y="234.37">*</text>
<text x="410.17" y="0.25">*</text>
<text x="45.79" y="186.08">.</text>
<text x="74.23" y="241.57">.</text>
<text x="358.39" y="227.36">*</text>
<text x="386.22" y="64.93">*</text>
<text x="80.32" y="282.64">.</text>
<text x="163.10" y="353.19">+</text>
<text x="22.64" y="9.99">.</text>
<text x="352.28" y="340.73">+</text>
<text x="272.75" y="403.21">+</text>
<text x="253.45" y="54.71">+</text>
<text x="106.63" y="267.52">.</text>
<text x="195.22" y="345.38">*</text>
<text x="11.48" y="210.58">+</text>
<text x="130.22" y="78.71">.</text>
<text x="180.14" y="156.95">+</text>
<text x="224.00" y="144.23">+</text>
<text x="236.93" y="75.63">.</text>
<text x="70.07" y="309.53">*</text>
<text x="215.61" y="79.67">+</text>
<text x="302.79" y="48.73">*</text>
<text x="197.27" y="346.79">*</text>
<text x="175.48" y="404.04">+</text>
<text x="479.55" y="66.86">*</text>
<text x="218.18" y="102.48">+</text>
<text x="259.03" y="480.18">.</text>
<text x="87.66" y="54.75">.</text>
<text x="224.80" y="127.08">+</text>
<text x="459.67" y="312.10">.</text>
<text x="469.75" y="362.70">+</text>
<text x="9.71" y="194.35">+</text>
<text x="10.28" y="189.33">+</text>
<text x="30.53" y="292.48">*</text>
<text x="442.61" y="339.10">+</text>
<text x="442.52" y="227.13">.</text>
<text x="489.08" y="76.99">.</text>
<text x="75.20" y="330.76">+</text>
<text x="286.61" y="95.65">+</text>
<text x="498.37" y="333.30">.</text>
<text x="409.56" y="347.61">.</text>
<text x="81.53" y="231.46">.</text>
<text x="254.51" y="182.26">.</text>
<text x="164.25" y="273.95">.</text>
<text x="416.44" y="261.64">.</text>
<text x="117.24" y="105.31">.</text>
<text x="46.91" y="466.27">.</text>
<text x="209.60" y="280.56">+</text>
<text x="498.35" y="119.62">*</text>
<text x="309.87" y="355.15">+</text>
<text x="250.82" y="39.98">+</text>
<text x="414.05" y="187.55">+</text>
<text x="87.87" y="306.89">+</text>
<text x="239.44" y="172.43">.</text>
<text x="251.77" y="482.50">+</text>
<text x="182.52" y="28.79">+</text>
<text x="360.08" y="487.43">+</text>
<text x="443.86" y="145.71">.</text>
<text x="232.65" y="458.96">+</text>
<text x="184.54" y="328.70">.</text>
<text x="347.66" y="219.55">*</text>
<text x="285.58" y="221.49">+</text>
<text x="450.49" y="120.34">+</text>
<text x="477.45" y="325.17">+</text>
<text x="251.38" y="245.02">.</text>
<text x="401.65" y="394.17">*</text>
<text x="281.23" y="458.58">.</text>
<text x="488.92" y="191.99">*</text>
<text x="191.60" y="279.71">+</text>
<text x="84.60" y="328.45">.</text>
<text x="398.15" y="104.75">.</text>
<text x="414.06" y="469.12">+</text>
<text x="357.81" y="245.23">.</text>
<text x="392.25" y="292.15">.</text>
<text x="222.26" y="379.06">.</text>
<text x="8.86" y="276.14">.</text>
<text x="23.77" y="114.71">+</text>
<text x="296.97" y="161.39">+</text>
<text x="178.11" y="141.84">.</text>
<text x="331.87" y="253.58">.</text>
<text x="460.76" y="336.96">+</text>
<text x="220.06" y="302.45">.</text>
<text x="127.60" y="312.04">.</text>
<text x="19.24" y="281.90">*</text>
<text x="333.87" y="491.66">.</text>
<text x="44.65" y="348.69">.</text>
<text x="211.00" y="418.04">.</text>
<text x="64.62" y="499.42">.</text>
<text x="96.66" y="115.89">+</text>
<text x="315.51" y="184.64">+</text>
<text x="452.03" y="180.86">+</text>
<text x="49.79" y="433.43">.</text>
<text x="286.23" y="36.27">+</text>
<text x="9.36" y="119.82">.</text>
<text x="359.75" y="169.84">.</text>
<text x="92.10" y="6.57">.</text>
<text x="143.36" y="225.61">.</text>
<text x="364.59" y="313.65">.</text>

</svg>