
<svg viewBox="0 0 500 500" xmlns="http://www.w.org/2000/svg" width="100%" height="100%" style="background-color: #0a0a14; font-family: 'Courier New', Courier, monospace;">
    <style>
        text { fill: #aaa; font-size: 10px; text-anchor: middle; dominant-baseline: middle; }
    </style>
    <text x="444.70" y="181.79">.</text>
<text x="422.29" y="381.49">.</text>
<text x="299.11" y="224.05">*</text>
<text x="386.12" y="208.91">+</text>
<text x="108.50" y="21.08">+</text>
<text x="210.32" y="74.95">.</text>
<text x="185.00" y="295.41">.</text>
<text x="72.98" y="47.61">.</text>
<text x="265.45" y="126.97">+</text>
<text x="18.44" y="496.21">.</text>
<text x="279.08" y="202.71">*</text>
<text x="276.80" y="96.79">+</text>
<text x="254.18" y="392.50">.</text>
<text x="50.40" y="308.51">*</text>
<text x="161.12" y="301.79">.</text>
<text x="85.29" y="90.96">+</text>
<text x="24.66" y="27.16">*</text>
<text x="68.20" y="216.29">+</text>
<text x="226.59" y="82.62">*</text>
<text x="297.18" y="438.12">.</text>
<text x="101.28" y="305.46">+</text>
<text x="172.14" y="221.89">+</text>
<text x="128.32" y="220.04">+</text>
<text x="151.22" y="392.55">*</text>
<text x="152.12" y="463.56">.</text>
<text x="312.39" y="60.28">+</text>
<text x="484.97" y="211.03">.</text>
<text x="99.08" y="482.41">+</text>
<text x="175.44" y="223.25">+</text>
<text x="162.65" y="288.93">+</text>
<text x="157.22" y="189.80">+</text>
<text x="253.81" y="393.68">.</text>
<text x="192.49" y="434.18">+</text>
<text x="78.32" y="305.94">.</text>
<text x="415.40" y="404.66">+</text>
<text x="400.91" y="431.19">+</text>
<text x="427.35" y="481.50">.</text>
<text x="209.33" y="292.04">+</text>
<text x="241.33" y="98.64">.</text>
<text x="462.09" y="95.47">*</text>
<text x="376.48" y="56.08">+</text>
<text x="314.24" y="93.84">.</text>
<text x="288.18" y="41.36">*</text>
<text x="413.24" y="200.18">+</text>
<text x="485.41" y="229.17">+</text>
<text x="348.06" y="406.20">+</text>
<text x="177.68" y="371.04">+</text>
<text x="135.04" y="381.67">+</text>
<text x="319.14" y="125.05">+</text>
<text x="143.79" y="479.85">.</text>
<text x="121.63" y="255.85">+</text>
<text x="126.29" y="286.80">+</text>
<text x="185.65" y="435.90">+</text>
<text x="350.34" y="420.89">.</text>
<text x="30.54" y="426.17">*</text>
<text x="462.99" y="121.22">+</text>
<text x="368.49" y="138.72">+</text>
<text x="62.75" y="353.62">.</text>
<text x="89.67" y="150.56">*</text>
<text x="164.34" y="20.51">+</text>
<text x="203.91" y="496.23">*</text>
<text x="47.97" y="199.94">+</text>
<text x="136.35" y="291.60">+</text>
<text x="354.27" y="255.68">+</text>
<text x="479.84" y="173.06">.</text>
<text x="143.52" y="288.18">+</text>
<text x="407.87" y="259.27">.</text>
<text x="465.41" y="199.72">*</text>
<text x="72.53" y="232.42">.</text>
<text x="256.84" y="76.65">*</text>
<text x="413.71" y="367.19">.</text>
<text x="201.02" y="373.92">+</text>
<text x="410.16" y="484.21">+</text>
<text x="410.45" y="76.70">*</text>
<text x="5.40" y="238.67">.</text>
<text x="274.16" y="120.86">*</text>
<text x="325.39" y="211.78">+</text>
<text x="147.33" y="122.42">+</text>
<text x="181.76" y="297.87">+</text>
<text x="309.58" y="195.26">+</text>
<text x="104.12" y="393.06">+</text>
<text x="276.05" y="31.32">*</text>
<text x="25.60" y="56.69">+</text>
<text x="72.76" y="456.62">.</text>
<text x="459.57" y="277.69">+</text>
<text x="39.31" y="177.11">.</text>
<text x="298.76" y="364.12">+</text>
<text x="303.26" y="316.20">+</text>
<text x="95.55" y="195.17">+</text>
<text x="309.09" y="267.64">+</text>
<text x="72.55" y="126.95">*</text>
<text x="491.02" y="229.37">.</text>
<text x="251.13" y="354.45">.</text>
<text x="336.00" y="137.52">.</text>
<text x="278.22" y="451.75">.</text>
<text x="201.02" y="229.87">.</text>
<text x="325.88" y="179.08">.</text>
<text x="324.78" y="441.56">+</text>
<text x="343.04" y="298.12">.</text>
<text x="180.73" y="216.83">+</text>
<text x="318.21" y="266.32">.</text>
<text x="315.64" y="319.34">.</text>
<text x="37.59" y="121.19">.</text>
<text x="414.24" y="316.63">.</text>
<text x="186.57" y="156.55">.</text>
<text x="255.70" y="460.18">.</text>
<text x="276.64" y="484.10">.</text>
<text x="63.11" y="452.13">.</text>
<text x="104.43" y="82.17">.</text>
<text x="181.67" y="64.41">.</text>
<text x="147.05" y="383.00">+</text>
<text x="71.05" y="309.36">+</text>
<text x="58.58" y="106.07">+</text>
<text x="326.99" y="140.92">.</text>
<text x="159.34" y="205.89">+</text>
<text x="17.27" y="90.92">+</text>
<text x="100.62" y="412.17">+</text>
<text x="163.08" y="188.20">.</text>
<text x="156.71" y="63.50">.</text>
<text x="90.76" y="21.98">+</text>
<text x="54.66" y="75.26">.</text>
<text x="49.44" y="12.00">.</text>
<text x="359.24" y="379.74">.</text>
<text x="37.29" y="56.75">*</text>
<text x="337.83" y="3.17">+</text>
<text x="56.20" y="169.38">.</text>
<text x="25.25" y="327.54">+</text>
<text x="430.34" y="328.57">+</text>
<text x="400.05" y="110.57">*</text>
<text x="197.78" y="112.20">.</text>
<text x="489.50" y="213.95">.</text>
<text x="337.05" y="256.97">.</text>
<text x="294.17" y="149.92">+</text>
<text x="105.16" y="467.84">.</text>
<text x="424.40" y="200.18">*</text>
<text x="457.44" y="270.59">*</text>
<text x="158.75" y="210.94">+</text>
<text x="227.37" y="229.64">.</text>
<text x="22.04" y="285.71">+</text>
<text x="258.06" y="310.15">*</text>
<text x="359.90" y="305.22">.</text>
<text x="419.30" y="77.81">+</text>
<text x="0.05" y="260.41">+</text>
<text x="313.79" y="58.93">.</text>
<text x="388.93" y="478.60">+</text>
<text x="444.12" y="117.12">+</text>
<text x="375.02" y="19.47">+</text>
<text x="205.03" y="162.92">.</text>
<text x="325.71" y="234.95">+</text>
<text x="377.52" y="117.31">+</text>
<text x="377.21" y="269.87">+</text>
<text x="171.26" y="174.07">+</text>
<text x="97.89" y="5.89">.</text>
<text x="285.85" y="179.36">+</text>
<text x="295.05" y="120.77">+</text>
<text x="139.49" y="304.90">+</text>
<text x="398.18" y="28.53">.</text>
<text x="276.24" y="85.19">+</text>
<text x="235.82" y="269.02">+</text>
<text x="322.20" y="155.91">+</text>
<text x="420.44" y="79.31">.</text>
<text x="37.33" y="370.49">+</text>
<text x="320.67" y="269.05">*</text>
<text x="442.66" y="117.33">.</text>
<text x="109.20" y="197.94">+</text>
<text x="204.31" y="360.45">.</text>
<text x="290.22" y="66.23">.</text>
<text x="210.25" y="220.32">.</text>
<text x="92.40" y="10.33">.</text>
<text x="390.83" y="41.58">.</text>
<text x="391.17" y="391.92">+</text>
<text x="194.38" y="277.17">.</text>
<text x="67.89" y="438.56">+</text>
<text x="367.67" y="404.48">.</text>
<text x="235.17" y="169.22">.</text>
<text x="147.64" y="441.75">.</text>
<text x="427.76" y="335.96">+</text>
<text x="99.77" y="427.87">*</text>
<text x="472.52" y="302.64">*</text>
<text x="98.58" y="124.60">.</text>
<text x="407.01" y="23.16">.</text>
<text x="216.12" y="119.82">*</text>
<text x="280.58" y="107.33">.</text>
<text x="352.52" y="368.08">*</text>
<text x="157.47" y="21.03">.</text>
<text x="239.72" y="51.98">.</text>
<text x="154.46" y="299.41">+</text>
<text x="177.80" y="495.00">+</text>
<text x="453.55" y="402.82">*</text>
<text x="424.52" y="19.20">+</text>
<text x="173.41" y="383.67">*</text>
<text x="164.68" y="464.40">.</text>
<text x="157.57" y="253.26">+</text>
<text x="286.03" y="349.63">*</text>
<text x="18.64" y="371.93">*</text>
<text x="218.31" y="491.53">.</text>
<text x="123.04" y="364.57">+</text>
<text x="205.89" y="391.04">.</text>
<text x="276.95" y="25.17">+</text>
<text x="59.40" y="326.69">+</text>
<text x="433.99" y="423.17">.</text>
<text x="25.99" y="339.92">+</text>
<text x="98.02" y="82.90">+</text>
<text x="119.67" y="105.91">+</text>
<text x="366.49" y="463.95">.</text>
<text x="213.53" y="340.36">.</text>
<text x="87.10" y="70.44">+</text>
<text x="256.41" y="304.71">+</text>
<text x="93.29" y="363.22">.</text>
<text x="147.53" y="131.63">*</text>
<text x="430.84" y="383.52">.</text>
<text x="34.32" y="28.36">.</text>
<text x="72.17" y="193.77">+</text>
<text x="128.27" y="483.93">+</text>
<text x="456.44" y="170.23">.</text>
<text x="426.92" y="300.64">+</text>
<text x="266.58" y="5.36">+</text>
<text x="495.44" y="473.89">.</text>

</svg>