
<svg viewBox="0 0 500 500" xmlns="http://www.w.org/2000/svg" width="100%" height="100%" style="background-color: #0a0a14; font-family: 'Courier New', Courier, monospace;">
    <style>
        text { fill: #aaa; font-size: 10px; text-anchor: middle; dominant-baseline: middle; }
    </style>
    <text x="21.30" y="279.54">+</text>
<text x="481.07" y="388.03">.</text>
<text x="335.93" y="361.34">+</text>
<text x="254.91" y="170.17">.</text>
<text x="158.56" y="82.64">+</text>
<text x="351.86" y="385.10">.</text>
<text x="97.25" y="289.95">+</text>
<text x="35.77" y="5.23">+</text>
<text x="473.64" y="459.23">+</text>
<text x="139.34" y="353.83">+</text>
<text x="220.35" y="458.38">+</text>
<text x="269.69" y="210.07">*</text>
<text x="477.23" y="144.65">.</text>
<text x="60.53" y="226.61">*</text>
<text x="363.40" y="22.10">.</text>
<text x="269.17" y="339.52">+</text>
<text x="56.85" y="32.05">.</text>
<text x="129.84" y="358.48">+</text>
<text x="157.95" y="301.05">.</text>
<text x="230.01" y="244.13">.</text>
<text x="432.78" y="283.68">+</text>
<text x="135.35" y="389.34">*</text>
<text x="321.16" y="107.36">.</text>
<text x="267.79" y="146.91">+</text>
<text x="475.83" y="243.62">+</text>
<text x="150.42" y="96.72">.</text>
<text x="63.95" y="169.08">.</text>
<text x="162.63" y="375.77">+</text>
<text x="113.29" y="216.90">+</text>
<text x="43.19" y="133.78">+</text>
<text x="422.00" y="317.75">.</text>
<text x="80.04" y="121.72">*</text>
<text x="423.62" y="134.41">.</text>
<text x="163.66" y="414.19">.</text>
<text x="39.00" y="278.49">*</text>
<text x="29.63" y="265.25">+</text>
<text x="319.20" y="392.32">.</text>
<text x="464.76" y="180.53">.</text>
<text x="175.90" y="490.38">+</text>
<text x="123.47" y="117.83">.</text>
<text x="122.96" y="423.10">*</text>
<text x="284.20" y="91.28">+</text>
<text x="470.68" y="490.34">.</text>
<text x="263.24" y="256.52">*</text>
<text x="241.25" y="437.03">+</text>
<text x="400.30" y="185.42">+</text>
<text x="143.71" y="29.67">+</text>
<text x="17.65" y="397.20">.</text>
<text x="23.78" y="59.69">+</text>
<text x="56.84" y="283.93">+</text>
<text x="435.09" y="315.14">.</text>
<text x="476.46" y="346.15">+</text>
<text x="250.42" y="481.54">+</text>
<text x="7.71" y="372.05">*</text>
<text x="31.24" y="237.75">.</text>
<text x="20.51" y="194.82">*</text>
<text x="416.81" y="109.67">.</text>
<text x="455.39" y="11.80">.</text>
<text x="55.96" y="249.28">.</text>
<text x="265.87" y="166.38">+</text>
<text x="377.20" y="443.21">.</text>
<text x="341.36" y="267.96">*</text>
<text x="270.01" y="273.34">+</text>
<text x="185.38" y="345.06">.</text>
<text x="46.71" y="4.09">+</text>
<text x="8.29" y="433.27">.</text>
<text x="282.67" y="99.75">+</text>
<text x="152.94" y="498.89">.</text>
<text x="20.60" y="350.47">+</text>
<text x="105.28" y="164.47">.</text>
<text x="376.32" y="194.94">+</text>
<text x="127.07" y="0.62">.</text>
<text x="60.61" y="429.71">*</text>
<text x="459.40" y="111.21">+</text>
<text x="348.76" y="21.82">.</text>
<text x="248.22" y="357.62">.</text>
<text x="336.13" y="62.17">.</text>
<text x="401.32" y="143.86">+</text>
<text x="245.84" y="207.95">.</text>
<text x="253.72" y="340.32">*</text>
<text x="385.89" y="470.36">+</text>
<text x="77.73" y="476.88">+</text>
<text x="244.72" y="429.98">.</text>
<text x="114.91" y="256.13">.</text>
<text x="358.03" y="455.50">+</text>
<text x="210.59" y="25.19">.</text>
<text x="255.38" y="162.64">.</text>
<text x="21.74" y="188.85">+</text>
<text x="346.69" y="205.04">+</text>
<text x="393.69" y="494.07">.</text>
<text x="33.34" y="239.97">.</text>
<text x="403.29" y="121.98">+</text>
<text x="123.23" y="122.34">.</text>
<text x="235.05" y="24.70">.</text>
<text x="281.41" y="6.46">+</text>
<text x="438.09" y="425.56">+</text>
<text x="297.30" y="448.22">.</text>
<text x="148.90" y="125.26">*</text>
<text x="15.09" y="48.54">.</text>
<text x="41.07" y="179.59">.</text>
<text x="63.90" y="62.10">.</text>
<text x="35.98" y="274.98">*</text>
<text x="120.41" y="58.19">.</text>
<text x="343.25" y="140.85">.</text>
<text x="283.24" y="130.87">+</text>
<text x="4.05" y="165.22">*</text>
<text x="379.05" y="284.18">*</text>
<text x="163.79" y="206.16">.</text>
<text x="452.41" y="64.69">.</text>
<text x="132.84" y="234.10">.</text>
<text x="285.64" y="147.46">.</text>
<text x="22.48" y="323.69">.</text>
<text x="447.86" y="6.90">.</text>
<text x="219.92" y="380.06">*</text>
<text x="266.96" y="21.06">*</text>
<text x="456.99" y="136.53">.</text>
<text x="312.57" y="318.97">*</text>
<text x="256.73" y="434.10">+</text>
<text x="246.40" y="199.03">*</text>
<text x="486.60" y="359.81">+</text>
<text x="150.41" y="113.12">+</text>
<text x="332.56" y="277.81">+</text>
<text x="382.63" y="43.46">+</text>
<text x="62.02" y="159.62">.</text>
<text x="344.87" y="63.39">+</text>
<text x="310.82" y="151.59">+</text>
<text x="389.80" y="389.15">.</text>
<text x="487.85" y="416.65">.</text>
<text x="92.06" y="8.73">*</text>
<text x="483.78" y="225.06">*</text>
<text x="23.69" y="443.51">.</text>
<text x="344.95" y="175.38">.</text>
<text x="85.49" y="269.11">*</text>
<text x="265.23" y="166.15">.</text>
<text x="168.77" y="369.37">+</text>
<text x="495.53" y="402.82">*</text>
<text x="150.41" y="9.81">*</text>
<text x="257.51" y="85.91">*</text>
<text x="208.17" y="169.65">+</text>
<text x="5.91" y="238.02">+</text>
<text x="430.90" y="422.01">+</text>
<text x="41.13" y="323.85">.</text>
<text x="351.24" y="446.10">*</text>
<text x="442.01" y="149.09">+</text>
<text x="89.87" y="86.44">.</text>
<text x="436.81" y="59.20">.</text>
<text x="261.37" y="291.69">+</text>
<text x="27.99" y="160.42">+</text>
<text x="103.82" y="438.31">.</text>
<text x="43.45" y="156.78">.</text>
<text x="182.66" y="280.93">+</text>
<text x="77.60" y="74.26">+</text>
<text x="399.83" y="31.51">.</text>
<text x="252.25" y="116.71">.</text>
<text x="253.18" y="44.99">*</text>
<text x="34.53" y="295.50">.</text>
<text x="224.54" y="302.41">+</text>
<text x="468.61" y="311.83">+</text>
<text x="454.84" y="341.13">.</text>
<text x="237.72" y="140.01">.</text>
<text x="270.04" y="44.73">+</text>
<text x="419.86" y="343.83">+</text>
<text x="449.91" y="234.50">*</text>
<text x="97.05" y="118.90">.</text>
<text x="254.72" y="123.55">+</text>
<text x="481.70" y="318.22">+</text>
<text x="211.81" y="161.82">.</text>
<text x="489.95" y="164.52">.</text>
<text x="11.94" y="56.64">.</text>
<text x="378.19" y="34.46">.</text>
<text x="455.32" y="58.02">+</text>
<text x="245.74" y="235.41">+</text>
<text x="58.28" y="195.60">+</text>
<text x="109.53" y="178.19">+</text>
<text x="90.49" y="253.94">.</text>
<text x="293.93" y="163.49">.</text>
<text x="443.31" y="474.14">+</text>
<text x="338.17" y="134.67">.</text>
<text x="22.93" y="323.71">.</text>
<text x="346.17" y="37.81">.</text>
<text x="104.43" y="426.47">+</text>
<text x="349.11" y="251.79">+</text>
<text x="74.34" y="43.61">.</text>
<text x="410.85" y="216.81">.</text>
<text x="109.28" y="91.51">.</text>
<text x="219.76" y="216.33">+</text>
<text x="31.93" y="310.66">.</text>
<text x="356.31" y="151.35">*</text>
<text x="282.20" y="279.37">.</text>
<text x="23.22" y="77.79">+</text>
<text x="134.77" y="259.42">+</text>
<text x="5.12" y="430.49">+</text>
<text x="143.59" y="430.92">+</text>
<text x="174.44" y="179.51">+</text>
<text x="300.42" y="135.00">+</text>
<text x="422.48" y="250.08">.</text>
<text x="443.94" y="345.36">+</text>
<text x="322.05" y="53.47">+</text>
<text x="145.79" y="361.03">.</text>
<text x="151.44" y="204.64">.</text>
<text x="99.11" y="471.11">+</text>
<text x="249.36" y="155.59">.</text>
<text x="369.38" y="337.69">*</text>
<text x="87.03" y="299.01">*</text>
<text x="272.91" y="273.69">+</text>
<text x="285.09" y="479.89">.</text>
<text x="421.56" y="294.59">+</text>
<text x="178.22" y="1.90">*</text>

</svg>