
<svg viewBox="0 0 500 500" xmlns="http://www.w.org/2000/svg" width="100%" height="100%" style="background-color: #0a0a14; font-family: 'Courier New', Courier, monospace;">
    <style>
        text { fill: #aaa; font-size: 10px; text-anchor: middle; dominant-baseline: middle; }
    </style>
    <text x="83.21" y="177.09">+</text>
<text x="376.06" y="260.76">.</text>
<text x="201.83" y="466.97">.</text>
<text x="381.93" y="439.63">.</text>
<text x="21.15" y="121.47">.</text>
<text x="173.73" y="492.81">.</text>
<text x="158.44" y="290.59">*</text>
<text x="161.83" y="78.84">.</text>
<text x="416.69" y="200.01">.</text>
<text x="21.73" y="495.08">+</text>
<text x="74.06" y="56.18">+</text>
<text x="226.25" y="129.87">*</text>
<text x="318.32" y="244.65">*</text>
<text x="49.22" y="334.75">.</text>
<text x="389.20" y="11.71">.</text>
<text x="187.75" y="258.81">+</text>
<text x="303.50" y="348.62">.</text>
<text x="349.66" y="18.41">+</text>
<text x="420.50" y="159.91">+</text>
<text x="490.18" y="392.01">.</text>
<text x="473.30" y="393.23">*</text>
<text x="35.98" y="7.26">.</text>
<text x="64.87" y="358.97">*</text>
<text x="417.55" y="200.18">+</text>
<text x="388.68" y="51.34">.</text>
<text x="1.44" y="82.22">+</text>
<text x="296.20" y="111.89">.</text>
<text x="33.33" y="112.50">+</text>
<text x="468.75" y="374.36">.</text>
<text x="256.88" y="467.58">.</text>
<text x="221.94" y="85.64">+</text>
<text x="435.86" y="46.71">+</text>
<text x="466.50" y="366.89">.</text>
<text x="405.33" y="346.56">.</text>
<text x="309.27" y="150.87">.</text>
<text x="151.56" y="460.30">+</text>
<text x="368.99" y="309.61">*</text>
<text x="45.22" y="30.81">*</text>
<text x="466.73" y="237.81">.</text>
<text x="337.72" y="266.40">+</text>
<text x="127.16" y="180.54">+</text>
<text x="168.70" y="476.90">*</text>
<text x="412.82" y="333.50">.</text>
<text x="228.91" y="202.72">*</text>
<text x="392.32" y="151.38">.</text>
<text x="183.08" y="280.40">+</text>
<text x="493.63" y="448.48">.</text>
<text x="299.81" y="276.22">+</text>
<text x="473.97" y="27.29">.</text>
<text x="215.39" y="349.52">.</text>
<text x="268.54" y="485.15">.</text>
<text x="209.82" y="148.12">*</text>
<text x="446.95" y="353.94">.</text>
<text x="16.68" y="261.11">+</text>
<text x="219.45" y="274.78">.</text>
<text x="372.69" y="435.38">.</text>
<text x="61.95" y="328.22">+</text>
<text x="276.98" y="327.20">.</text>
<text x="19.09" y="332.88">.</text>
<text x="462.86" y="136.67">+</text>
<text x="161.44" y="456.47">+</text>
<text x="489.88" y="351.34">+</text>
<text x="366.17" y="253.81">.</text>
<text x="494.57" y="127.35">.</text>
<text x="455.96" y="407.73">*</text>
<text x="342.47" y="19.52">*</text>
<text x="304.84" y="71.39">.</text>
<text x="189.45" y="392.86">+</text>
<text x="113.97" y="340.66">+</text>
<text x="15.59" y="105.35">*</text>
<text x="293.62" y="47.57">.</text>
<text x="462.39" y="286.78">.</text>
<text x="490.43" y="493.73">+</text>
<text x="302.10" y="231.93">.</text>
<text x="339.71" y="307.89">.</text>
<text x="486.26" y="101.25">.</text>
<text x="438.49" y="109.68">+</text>
<text x="358.45" y="259.32">+</text>
<text x="322.25" y="206.91">*</text>
<text x="138.23" y="3.24">+</text>
<text x="180.88" y="467.53">*</text>
<text x="25.21" y="385.17">.</text>
<text x="375.01" y="180.72">+</text>
<text x="163.49" y="394.39">*</text>
<text x="456.66" y="40.91">.</text>
<text x="449.04" y="484.11">+</text>
<text x="465.89" y="88.90">+</text>
<text x="489.93" y="295.43">+</text>
<text x="379.01" y="166.61">+</text>
<text x="333.89" y="354.43">+</text>
<text x="54.18" y="285.07">+</text>
<text x="388.05" y="344.57">.</text>
<text x="446.53" y="183.80">+</text>
<text x="295.19" y="82.29">*</text>
<text x="138.44" y="27.15">.</text>
<text x="479.07" y="143.15">*</text>
<text x="197.02" y="441.98">.</text>
<text x="126.68" y="464.75">+</text>
<text x="150.00" y="262.75">.</text>
<text x="465.64" y="480.79">.</text>
<text x="441.81" y="65.92">+</text>
<text x="349.35" y="319.56">.</text>
<text x="240.57" y="183.68">.</text>
<text x="343.86" y="421.92">+</text>
<text x="259.77" y="146.15">.</text>
<text x="197.67" y="183.29">+</text>
<text x="79.26" y="110.74">.</text>
<text x="211.21" y="140.23">+</text>
<text x="105.14" y="29.62">.</text>
<text x="94.46" y="124.71">+</text>
<text x="151.95" y="135.85">+</text>
<text x="325.26" y="470.66">.</text>
<text x="194.50" y="469.66">+</text>
<text x="258.52" y="214.54">.</text>
<text x="351.20" y="112.37">+</text>
<text x="17.80" y="390.43">.</text>
<text x="137.70" y="77.20">*</text>
<text x="403.23" y="45.51">*</text>
<text x="292.99" y="135.15">.</text>
<text x="442.53" y="33.15">*</text>
<text x="93.15" y="22.79">+</text>
<text x="291.53" y="413.97">+</text>
<text x="243.99" y="90.72">.</text>
<text x="52.21" y="494.43">*</text>
<text x="28.52" y="429.98">+</text>
<text x="273.58" y="44.68">*</text>
<text x="195.46" y="273.78">.</text>
<text x="452.14" y="218.78">.</text>
<text x="446.01" y="468.18">.</text>
<text x="72.95" y="133.13">+</text>
<text x="332.74" y="142.01">*</text>
<text x="417.47" y="139.44">*</text>
<text x="350.00" y="182.97">.</text>
<text x="60.87" y="223.57">+</text>
<text x="116.62" y="210.97">.</text>
<text x="409.02" y="240.57">+</text>
<text x="394.93" y="144.48">.</text>
<text x="102.60" y="35.30">+</text>
<text x="312.38" y="365.54">+</text>
<text x="62.36" y="351.51">+</text>
<text x="42.38" y="332.89">+</text>
<text x="55.46" y="55.97">*</text>
<text x="240.45" y="31.90">+</text>
<text x="398.14" y="201.35">+</text>
<text x="8.08" y="305.39">+</text>
<text x="429.92" y="256.85">+</text>
<text x="238.51" y="30.70">+</text>
<text x="345.54" y="178.09">+</text>
<text x="108.90" y="323.66">.</text>
<text x="136.43" y="300.79">+</text>
<text x="238.26" y="371.89">+</text>
<text x="52.57" y="263.89">+</text>
<text x="288.66" y="212.22">.</text>
<text x="36.18" y="19.43">+</text>
<text x="82.04" y="420.47">.</text>
<text x="184.31" y="104.52">.</text>
<text x="19.24" y="453.97">*</text>
<text x="293.82" y="10.11">*</text>
<text x="332.42" y="433.84">+</text>
<text x="280.76" y="426.19">+</text>
<text x="450.69" y="488.00">.</text>
<text x="367.07" y="62.94">.</text>
<text x="132.81" y="269.91">*</text>
<text x="12.48" y="188.27">+</text>
<text x="379.18" y="101.40">+</text>
<text x="439.90" y="117.42">*</text>
<text x="385.54" y="354.35">.</text>
<text x="85.80" y="416.98">.</text>
<text x="257.65" y="151.69">+</text>
<text x="6.19" y="368.24">.</text>
<text x="359.95" y="176.92">.</text>
<text x="180.11" y="275.56">+</text>
<text x="312.66" y="420.09">+</text>
<text x="408.12" y="98.98">*</text>
<text x="261.40" y="243.33">+</text>
<text x="308.80" y="481.45">.</text>
<text x="102.01" y="155.35">+</text>
<text x="452.11" y="30.13">.</text>
<text x="151.16" y="259.61">.</text>
<text x="207.71" y="71.93">.</text>
<text x="178.92" y="234.15">*</text>
<text x="439.09" y="356.27">+</text>
<text x="363.01" y="118.95">+</text>
<text x="121.56" y="135.38">*</text>
<text x="396.65" y="197.32">+</text>
<text x="334.97" y="380.01">+</text>
<text x="156.49" y="365.70">.</text>
<text x="428.31" y="37.82">*</text>
<text x="453.80" y="372.25">.</text>
<text x="374.19" y="79.40">.</text>
<text x="402.82" y="111.57">.</text>
<text x="113.82" y="300.37">.</text>
<text x="12.00" y="238.52">+</text>
<text x="479.17" y="450.22">+</text>
<text x="62.76" y="368.08">*</text>
<text x="176.27" y="101.32">*</text>
<text x="365.86" y="213.87">.</text>
<text x="485.25" y="411.10">.</text>
<text x="67.32" y="183.47">.</text>
<text x="482.83" y="31.76">+</text>
<text x="0.78" y="29.49">+</text>
<text x="447.67" y="423.81">+</text>
<text x="240.15" y="65.63">+</text>
<text x="73.78" y="416.63">.</text>
<text x="409.00" y="45.32">*</text>
<text x="87.17" y="218.32">+</text>
<text x="48.93" y="234.52">.</text>
<text x="245.18" y="339.49">+</text>

</svg>