
<svg viewBox="0 0 500 500" xmlns="http://www.w.org/2000/svg" width="100%" height="100%" style="background-color: #0a0a14; font-family: 'Courier New', Courier, monospace;">
    <style>
        text { fill: #aaa; font-size: 10px; text-anchor: middle; dominant-baseline: middle; }
    </style>
    <text x="182.14" y="280.89">.</text>
<text x="221.81" y="56.72">.</text>
<text x="267.13" y="238.15">+</text>
<text x="330.89" y="261.03">.</text>
<text x="367.29" y="299.00">+</text>
<text x="453.57" y="381.19">.</text>
<text x="315.31" y="305.93">+</text>
<text x="225.01" y="435.73">+</text>
<text x="93.85" y="47.89">+</text>
<text x="410.99" y="99.31">*</text>
<text x="362.01" y="107.45">+</text>
<text x="362.74" y="319.53">+</text>
<text x="175.81" y="131.16">+</text>
<text x="196.41" y="402.75">.</text>
<text x="201.42" y="497.16">+</text>
<text x="279.48" y="178.40">+</text>
<text x="356.58" y="78.59">+</text>
<text x="144.34" y="266.23">+</text>
<text x="392.90" y="123.93">+</text>
<text x="306.55" y="363.86">+</text>
<text x="421.07" y="292.59">.</text>
<text x="468.15" y="392.13">*</text>
<text x="68.78" y="132.82">+</text>
<text x="432.78" y="248.59">.</text>
<text x="309.59" y="230.14">*</text>
<text x="107.43" y="227.13">+</text>
<text x="281.31" y="470.74">+</text>
<text x="38.73" y="371.59">+</text>
<text x="98.67" y="155.24">.</text>
<text x="388.93" y="263.55">.</text>
<text x="343.24" y="488.02">.</text>
<text x="100.04" y="469.54">.</text>
<text x="327.31" y="251.86">.</text>
<text x="467.82" y="429.38">.</text>
<text x="290.64" y="221.36">+</text>
<text x="434.21" y="231.33">.</text>
<text x="212.41" y="325.80">.</text>
<text x="434.53" y="122.68">.</text>
<text x="106.88" y="413.77">*</text>
<text x="133.36" y="262.83">.</text>
<text x="475.88" y="244.44">.</text>
<text x="19.20" y="373.79">.</text>
<text x="130.81" y="361.22">+</text>
<text x="175.64" y="341.84">*</text>
<text x="25.91" y="412.18">+</text>
<text x="296.69" y="204.67">+</text>
<text x="353.44" y="199.23">+</text>
<text x="13.73" y="306.27">*</text>
<text x="195.54" y="11.59">.</text>
<text x="176.54" y="297.18">.</text>
<text x="258.85" y="12.00">.</text>
<text x="132.55" y="106.00">.</text>
<text x="184.76" y="459.09">+</text>
<text x="468.09" y="247.98">.</text>
<text x="474.60" y="257.46">*</text>
<text x="74.56" y="405.75">+</text>
<text x="129.65" y="403.31">*</text>
<text x="142.74" y="489.06">+</text>
<text x="412.93" y="215.76">.</text>
<text x="139.37" y="285.69">.</text>
<text x="279.49" y="449.71">.</text>
<text x="136.67" y="450.41">*</text>
<text x="233.91" y="490.76">.</text>
<text x="238.31" y="217.17">.</text>
<text x="480.16" y="377.84">+</text>
<text x="195.64" y="285.39">.</text>
<text x="297.12" y="197.83">.</text>
<text x="474.33" y="144.98">*</text>
<text x="419.79" y="21.59">.</text>
<text x="106.12" y="352.91">+</text>
<text x="65.49" y="106.20">+</text>
<text x="24.22" y="151.36">.</text>
<text x="281.14" y="289.19">+</text>
<text x="410.94" y="43.67">+</text>
<text x="471.83" y="451.83">+</text>
<text x="419.17" y="347.29">+</text>
<text x="128.08" y="113.66">+</text>
<text x="428.71" y="44.04">+</text>
<text x="206.41" y="245.83">.</text>
<text x="186.98" y="373.38">+</text>
<text x="22.77" y="152.83">+</text>
<text x="345.21" y="383.45">.</text>
<text x="399.29" y="37.49">.</text>
<text x="78.72" y="356.38">.</text>
<text x="87.01" y="15.01">+</text>
<text x="308.66" y="141.01">.</text>
<text x="216.93" y="114.18">*</text>
<text x="44.14" y="447.51">+</text>
<text x="4.23" y="22.62">+</text>
<text x="125.73" y="229.15">.</text>
<text x="492.94" y="428.89">.</text>
<text x="173.86" y="178.53">+</text>
<text x="466.58" y="46.40">.</text>
<text x="289.26" y="204.03">.</text>
<text x="44.90" y="97.23">+</text>
<text x="260.03" y="303.37">+</text>
<text x="130.61" y="479.93">.</text>
<text x="160.31" y="230.61">.</text>
<text x="199.33" y="99.56">+</text>
<text x="343.83" y="97.10">.</text>
<text x="329.26" y="157.40">+</text>
<text x="284.96" y="447.16">*</text>
<text x="365.53" y="143.45">.</text>
<text x="137.23" y="172.58">+</text>
<text x="309.49" y="479.69">*</text>
<text x="275.82" y="8.48">.</text>
<text x="446.88" y="404.29">+</text>
<text x="306.90" y="247.90">*</text>
<text x="17.30" y="252.20">+</text>
<text x="204.44" y="93.44">*</text>
<text x="229.60" y="162.85">.</text>
<text x="372.32" y="385.62">+</text>
<text x="289.22" y="469.47">+</text>
<text x="362.97" y="156.45">*</text>
<text x="489.17" y="89.66">.</text>
<text x="125.99" y="459.03">*</text>
<text x="6.06" y="338.51">+</text>
<text x="208.18" y="19.17">+</text>
<text x="488.76" y="281.87">.</text>
<text x="374.88" y="77.77">.</text>
<text x="258.60" y="407.51">+</text>
<text x="400.20" y="249.37">+</text>
<text x="235.86" y="161.63">.</text>
<text x="443.71" y="401.33">.</text>
<text x="263.57" y="211.66">.</text>
<text x="62.30" y="450.42">.</text>
<text x="100.70" y="143.75">.</text>
<text x="339.40" y="415.67">*</text>
<text x="60.83" y="164.01">+</text>
<text x="417.38" y="273.84">+</text>
<text x="113.39" y="171.14">.</text>
<text x="277.42" y="125.42">+</text>
<text x="484.79" y="174.14">*</text>
<text x="14.06" y="67.18">*</text>
<text x="29.40" y="291.29">+</text>
<text x="252.34" y="450.28">.</text>
<text x="85.12" y="25.11">.</text>
<text x="446.63" y="318.72">+</text>
<text x="51.29" y="133.69">.</text>
<text x="484.99" y="271.87">.</text>
<text x="51.23" y="275.00">*</text>
<text x="286.51" y="496.48">+</text>
<text x="363.76" y="95.39">+</text>
<text x="363.32" y="242.87">.</text>
<text x="246.85" y="136.97">.</text>
<text x="229.52" y="337.31">+</text>
<text x="2.53" y="166.82">+</text>
<text x="65.97" y="306.24">.</text>
<text x="390.28" y="321.95">*</text>
<text x="162.64" y="458.02">+</text>
<text x="423.81" y="2.83">*</text>
<text x="371.81" y="29.74">.</text>
<text x="317.07" y="128.24">+</text>
<text x="444.53" y="397.48">+</text>
<text x="438.00" y="332.28">+</text>
<text x="415.55" y="172.54">+</text>
<text x="482.74" y="274.08">+</text>
<text x="100.73" y="38.37">.</text>
<text x="292.54" y="71.85">.</text>
<text x="134.46" y="114.91">+</text>
<text x="100.14" y="332.51">*</text>
<text x="310.26" y="39.28">.</text>
<text x="349.63" y="327.24">.</text>
<text x="426.93" y="140.81">*</text>
<text x="370.57" y="21.14">+</text>
<text x="48.46" y="484.50">.</text>
<text x="435.34" y="496.72">+</text>
<text x="308.01" y="248.29">+</text>
<text x="278.40" y="402.20">*</text>
<text x="421.26" y="53.63">+</text>
<text x="347.83" y="229.90">.</text>
<text x="113.84" y="370.11">+</text>
<text x="413.35" y="260.12">+</text>
<text x="411.76" y="172.06">.</text>
<text x="445.01" y="274.80">.</text>
<text x="426.44" y="311.08">.</text>
<text x="370.78" y="368.59">.</text>
<text x="135.02" y="47.27">*</text>
<text x="437.23" y="287.41">+</text>
<text x="23.37" y="381.88">*</text>
<text x="94.69" y="400.47">+</text>
<text x="356.14" y="258.95">.</text>
<text x="220.17" y="58.23">*</text>
<text x="290.60" y="363.80">.</text>
<text x="87.23" y="367.40">.</text>
<text x="217.96" y="11.78">+</text>
<text x="73.27" y="219.11">+</text>
<text x="61.27" y="126.45">+</text>
<text x="0.74" y="293.83">.</text>
<text x="277.97" y="76.24">.</text>
<text x="128.22" y="235.19">.</text>
<text x="393.95" y="124.12">.</text>
<text x="126.28" y="359.36">.</text>
<text x="309.07" y="219.96">+</text>
<text x="330.67" y="62.79">.</text>
<text x="482.48" y="54.24">*</text>
<text x="115.19" y="430.72">+</text>
<text x="327.23" y="11.41">.</text>
<text x="481.17" y="440.28">+</text>
<text x="43.18" y="50.09">.</text>
<text x="289.59" y="137.09">.</text>
<text x="214.17" y="462.32">+</text>
<text x="176.11" y="421.00">+</text>
<text x="337.59" y="491.86">+</text>
<text x="309.73" y="171.57">.</text>
<text x="92.57" y="264.68">.</text>
<text x="268.29" y="87.02">.</text>

</svg>