
<svg viewBox="0 0 500 500" xmlns="http://www.w.org/2000/svg" width="100%" height="100%" style="background-color: #0a0a14; font-family: 'Courier New', Courier, monospace;">
    <style>
        text { fill: #aaa; font-size: 10px; text-anchor: middle; dominant-baseline: middle; }
    </style>
    <text x="332.95" y="270.39">*</text>
<text x="15.63" y="119.94">+</text>
<text x="139.34" y="428.54">+</text>
<text x="192.10" y="419.58">.</text>
<text x="304.66" y="20.92">.</text>
<text x="439.85" y="133.07">.</text>
<text x="300.07" y="222.06">*</text>
<text x="4.15" y="130.15">.</text>
<text x="346.25" y="170.69">.</text>
<text x="395.18" y="496.24">+</text>
<text x="87.98" y="336.77">+</text>
<text x="374.24" y="43.52">+</text>
<text x="42.08" y="54.60">*</text>
<text x="488.12" y="364.93">*</text>
<text x="348.12" y="274.01">.</text>
<text x="287.36" y="149.16">+</text>
<text x="99.22" y="243.85">*</text>
<text x="44.12" y="200.61">*</text>
<text x="45.82" y="497.10">.</text>
<text x="282.33" y="243.20">.</text>
<text x="334.55" y="173.68">+</text>
<text x="9.24" y="385.80">.</text>
<text x="201.87" y="324.72">.</text>
<text x="71.83" y="393.66">*</text>
<text x="238.91" y="467.29">+</text>
<text x="368.06" y="359.68">+</text>
<text x="190.91" y="130.70">.</text>
<text x="93.17" y="398.59">.</text>
<text x="18.08" y="497.32">.</text>
<text x="393.24" y="50.18">+</text>
<text x="365.99" y="19.39">+</text>
<text x="453.54" y="336.82">.</text>
<text x="305.61" y="458.49">.</text>
<text x="22.59" y="453.03">+</text>
<text x="491.24" y="434.97">+</text>
<text x="135.20" y="132.35">.</text>
<text x="227.40" y="73.31">+</text>
<text x="110.19" y="13.11">.</text>
<text x="424.47" y="28.84">+</text>
<text x="126.42" y="176.64">+</text>
<text x="70.11" y="190.51">+</text>
<text x="377.90" y="349.41">*</text>
<text x="248.38" y="487.74">.</text>
<text x="249.91" y="191.46">+</text>
<text x="182.30" y="272.50">+</text>
<text x="322.65" y="214.59">.</text>
<text x="476.45" y="294.37">.</text>
<text x="434.27" y="263.10">+</text>
<text x="76.27" y="413.10">+</text>
<text x="402.03" y="378.66">+</text>
<text x="17.90" y="157.95">*</text>
<text x="277.77" y="392.69">+</text>
<text x="356.75" y="291.75">+</text>
<text x="56.22" y="260.58">.</text>
<text x="451.62" y="289.53">+</text>
<text x="471.26" y="46.34">+</text>
<text x="355.47" y="212.45">+</text>
<text x="444.48" y="465.57">+</text>
<text x="203.27" y="357.77">.</text>
<text x="59.77" y="141.13">.</text>
<text x="393.11" y="13.51">+</text>
<text x="123.06" y="491.38">*</text>
<text x="2.96" y="155.60">.</text>
<text x="101.82" y="263.76">+</text>
<text x="351.22" y="212.66">+</text>
<text x="259.04" y="335.95">+</text>
<text x="128.80" y="343.51">+</text>
<text x="400.48" y="184.20">.</text>
<text x="59.91" y="322.04">.</text>
<text x="401.13" y="47.29">+</text>
<text x="171.60" y="131.51">.</text>
<text x="305.45" y="436.44">+</text>
<text x="302.35" y="496.98">+</text>
<text x="163.91" y="47.51">.</text>
<text x="171.86" y="380.15">+</text>
<text x="188.54" y="246.93">.</text>
<text x="435.33" y="308.32">+</text>
<text x="483.28" y="83.68">.</text>
<text x="389.45" y="459.08">.</text>
<text x="151.57" y="92.65">.</text>
<text x="218.40" y="375.95">+</text>
<text x="141.02" y="103.59">+</text>
<text x="124.84" y="432.50">.</text>
<text x="391.36" y="371.13">+</text>
<text x="274.30" y="276.41">*</text>
<text x="129.73" y="280.99">+</text>
<text x="75.24" y="234.36">.</text>
<text x="184.65" y="31.32">+</text>
<text x="101.96" y="127.60">*</text>
<text x="452.76" y="92.00">.</text>
<text x="159.92" y="257.85">*</text>
<text x="200.19" y="277.31">.</text>
<text x="107.56" y="289.35">*</text>
<text x="365.22" y="316.13">+</text>
<text x="123.64" y="406.12">*</text>
<text x="191.17" y="350.33">.</text>
<text x="85.17" y="497.40">+</text>
<text x="425.60" y="199.08">.</text>
<text x="234.54" y="0.02">.</text>
<text x="0.91" y="180.16">.</text>
<text x="265.37" y="317.07">.</text>
<text x="18.98" y="165.91">+</text>
<text x="336.98" y="297.29">.</text>
<text x="468.07" y="0.36">+</text>
<text x="46.63" y="499.85">.</text>
<text x="291.32" y="272.73">+</text>
<text x="156.84" y="90.27">+</text>
<text x="99.56" y="379.69">.</text>
<text x="262.22" y="286.25">.</text>
<text x="151.85" y="315.73">+</text>
<text x="174.92" y="338.68">+</text>
<text x="260.18" y="241.95">.</text>
<text x="372.36" y="379.96">.</text>
<text x="115.95" y="232.80">+</text>
<text x="485.64" y="96.93">+</text>
<text x="5.62" y="204.52">*</text>
<text x="114.20" y="349.48">.</text>
<text x="43.54" y="104.87">.</text>
<text x="332.16" y="385.63">*</text>
<text x="391.95" y="231.28">.</text>
<text x="427.58" y="25.81">+</text>
<text x="86.22" y="476.44">+</text>
<text x="227.74" y="140.64">+</text>
<text x="176.81" y="349.75">+</text>
<text x="324.74" y="103.01">.</text>
<text x="240.81" y="91.10">+</text>
<text x="130.44" y="227.16">.</text>
<text x="125.94" y="187.07">.</text>
<text x="9.66" y="438.46">*</text>
<text x="38.41" y="343.32">*</text>
<text x="308.97" y="251.73">.</text>
<text x="261.55" y="467.17">.</text>
<text x="488.33" y="331.94">*</text>
<text x="189.59" y="340.34">.</text>
<text x="382.71" y="385.26">.</text>
<text x="179.93" y="19.64">+</text>
<text x="297.87" y="154.30">+</text>
<text x="35.66" y="33.91">.</text>
<text x="26.83" y="242.92">.</text>
<text x="134.84" y="193.53">.</text>
<text x="117.22" y="170.02">+</text>
<text x="424.87" y="371.17">+</text>
<text x="284.16" y="161.39">.</text>
<text x="263.42" y="51.19">.</text>
<text x="390.84" y="477.01">.</text>
<text x="41.67" y="237.73">*</text>
<text x="417.52" y="277.02">*</text>
<text x="335.77" y="13.60">+</text>
<text x="408.71" y="28.70">.</text>
<text x="143.42" y="61.51">+</text>
<text x="185.49" y="64.91">*</text>
<text x="262.31" y="477.50">+</text>
<text x="132.96" y="17.84">.</text>
<text x="461.48" y="245.74">.</text>
<text x="270.25" y="351.16">.</text>
<text x="285.53" y="420.44">*</text>
<text x="361.32" y="67.52">+</text>
<text x="182.20" y="4.85">.</text>
<text x="154.85" y="40.58">*</text>
<text x="129.72" y="361.07">+</text>
<text x="420.31" y="412.67">.</text>
<text x="12.32" y="485.31">+</text>
<text x="493.50" y="49.72">.</text>
<text x="79.92" y="391.51">+</text>
<text x="121.06" y="168.48">+</text>
<text x="75.69" y="14.40">+</text>
<text x="143.28" y="258.07">.</text>
<text x="467.86" y="390.03">+</text>
<text x="331.95" y="144.49">+</text>
<text x="199.66" y="416.76">*</text>
<text x="172.91" y="247.17">.</text>
<text x="465.63" y="444.80">+</text>
<text x="57.66" y="11.35">.</text>
<text x="84.86" y="347.08">.</text>
<text x="280.91" y="154.35">+</text>
<text x="165.74" y="132.52">+</text>
<text x="483.90" y="63.25">*</text>
<text x="221.16" y="392.05">.</text>
<text x="381.88" y="5.35">*</text>
<text x="28.62" y="156.12">.</text>
<text x="22.20" y="244.69">.</text>
<text x="374.50" y="126.11">+</text>
<text x="281.54" y="390.06">+</text>
<text x="166.82" y="490.60">+</text>
<text x="272.35" y="473.54">.</text>
<text x="407.84" y="185.01">+</text>
<text x="23.15" y="5.90">+</text>
<text x="381.19" y="330.70">*</text>
<text x="383.99" y="124.03">+</text>
<text x="218.37" y="152.17">+</text>
<text x="335.53" y="172.24">+</text>
<text x="108.53" y="236.60">+</text>
<text x="435.30" y="374.78">.</text>
<text x="448.91" y="230.60">*</text>
<text x="25.15" y="492.46">+</text>
<text x="146.11" y="243.46">+</text>
<text x="178.18" y="5.04">+</text>
<text x="207.36" y="18.72">+</text>
<text x="113.16" y="270.45">.</text>
<text x="135.03" y="320.56">.</text>
<text x="199.67" y="359.12">.</text>
<text x="467.66" y="370.58">+</text>
<text x="494.26" y="341.11">.</text>
<text x="340.21" y="234.33">+</text>
<text x="300.49" y="218.21">.</text>
<text x="176.29" y="297.92">.</text>
<text x="354.68" y="233.28">.</text>
<text x="306.59" y="395.26">+</text>
<text x="446.95" y="104.78">+</text>
<text x="165.30" y="442.35">+</text>
<text x="184.53" y="454.69">.</text>
<text x="339.71" y="220.61">.</text>
<text x="29.70" y="82.46">.</text>
<text x="77.90" y="204.04">.</text>
<text x="407.03" y="101.21">+</text>
<text x="333.60" y="47.16">+</text>
<text x="317.54" y="41.18">+</text>
<text x="384.58" y="213.13">+</text>
<text x="49.91" y="190.07">.</text>
<text x="313.85" y="33.85">+</text>
<text x="358.65" y="291.41">+</text>

</svg>