
<svg viewBox="0 0 500 500" xmlns="http://www.w.org/2000/svg" width="100%" height="100%" style="background-color: #0a0a14; font-family: 'Courier New', Courier, monospace;">
    <style>
        text { fill: #aaa; font-size: 10px; text-anchor: middle; dominant-baseline: middle; }
    </style>
    <text x="360.05" y="74.96">+</text>
<text x="103.13" y="30.33">.</text>
<text x="383.99" y="244.64">+</text>
<text x="245.30" y="85.39">+</text>
<text x="217.01" y="415.66">+</text>
<text x="292.09" y="264.00">+</text>
<text x="180.85" y="78.19">.</text>
<text x="221.76" y="50.13">+</text>
<text x="206.46" y="417.91">.</text>
<text x="221.65" y="433.04">.</text>
<text x="442.12" y="430.74">.</text>
<text x="347.63" y="296.59">.</text>
<text x="16.68" y="249.45">.</text>
<text x="497.09" y="259.77">*</text>
<text x="17.94" y="137.51">.</text>
<text x="416.52" y="184.94">.</text>
<text x="265.38" y="24.35">+</text>
<text x="215.07" y="260.37">+</text>
<text x="109.58" y="372.00">*</text>
<text x="403.82" y="369.33">+</text>
<text x="110.06" y="149.27">*</text>
<text x="406.70" y="185.98">+</text>
<text x="29.83" y="123.18">.</text>
<text x="347.22" y="293.47">*</text>
<text x="107.87" y="306.08">.</text>
<text x="312.31" y="431.30">.</text>
<text x="176.68" y="456.87">.</text>
<text x="254.11" y="223.46">*</text>
<text x="191.11" y="3.49">+</text>
<text x="388.06" y="275.88">+</text>
<text x="397.85" y="219.59">+</text>
<text x="159.52" y="121.00">*</text>
<text x="123.09" y="345.98">+</text>
<text x="17.45" y="269.81">+</text>
<text x="54.80" y="26.87">+</text>
<text x="251.58" y="155.03">.</text>
<text x="51.59" y="315.28">.</text>
<text x="234.51" y="72.12">+</text>
<text x="217.62" y="43.17">.</text>
<text x="259.71" y="192.61">.</text>
<text x="264.85" y="136.97">+</text>
<text x="92.98" y="490.37">.</text>
<text x="346.83" y="2.90">.</text>
<text x="401.44" y="493.25">+</text>
<text x="2.93" y="433.76">+</text>
<text x="456.73" y="317.90">*</text>
<text x="421.58" y="103.46">*</text>
<text x="427.46" y="354.44">+</text>
<text x="387.44" y="305.75">+</text>
<text x="365.16" y="191.86">.</text>
<text x="219.52" y="43.19">.</text>
<text x="359.10" y="109.12">.</text>
<text x="309.61" y="118.95">.</text>
<text x="227.16" y="254.61">+</text>
<text x="65.56" y="80.08">+</text>
<text x="379.07" y="448.04">.</text>
<text x="115.71" y="282.70">.</text>
<text x="478.84" y="1.54">.</text>
<text x="51.57" y="411.26">+</text>
<text x="376.60" y="76.10">+</text>
<text x="442.39" y="317.46">.</text>
<text x="244.90" y="215.43">*</text>
<text x="472.01" y="66.34">+</text>
<text x="3.83" y="29.73">.</text>
<text x="314.57" y="497.28">.</text>
<text x="459.86" y="248.52">.</text>
<text x="386.20" y="108.25">+</text>
<text x="343.71" y="406.61">.</text>
<text x="188.75" y="482.57">.</text>
<text x="427.01" y="25.27">.</text>
<text x="283.77" y="446.48">.</text>
<text x="366.92" y="284.76">.</text>
<text x="360.69" y="248.34">+</text>
<text x="60.43" y="112.36">.</text>
<text x="66.68" y="355.59">+</text>
<text x="77.34" y="480.70">+</text>
<text x="117.28" y="479.90">+</text>
<text x="420.52" y="428.51">+</text>
<text x="95.94" y="337.59">.</text>
<text x="16.49" y="411.62">+</text>
<text x="309.53" y="375.14">.</text>
<text x="216.43" y="195.75">+</text>
<text x="220.03" y="266.84">+</text>
<text x="496.06" y="401.80">*</text>
<text x="230.21" y="250.19">.</text>
<text x="490.75" y="132.78">.</text>
<text x="250.69" y="274.84">+</text>
<text x="343.23" y="161.75">+</text>
<text x="116.49" y="204.61">*</text>
<text x="288.15" y="96.99">+</text>
<text x="287.93" y="358.62">.</text>
<text x="399.44" y="192.12">.</text>
<text x="284.27" y="165.85">+</text>
<text x="118.76" y="220.61">.</text>
<text x="307.37" y="100.79">+</text>
<text x="102.92" y="32.21">*</text>
<text x="217.99" y="419.41">.</text>
<text x="287.52" y="319.98">*</text>
<text x="32.89" y="257.70">.</text>
<text x="104.10" y="307.59">+</text>
<text x="129.20" y="423.75">.</text>
<text x="362.53" y="59.07">.</text>
<text x="111.71" y="213.00">+</text>
<text x="294.48" y="451.56">.</text>
<text x="400.44" y="150.55">.</text>
<text x="63.41" y="76.12">.</text>
<text x="38.23" y="347.81">*</text>
<text x="232.41" y="270.38">+</text>
<text x="416.66" y="370.54">*</text>
<text x="407.70" y="13.57">+</text>
<text x="357.64" y="498.19">+</text>
<text x="218.11" y="437.54">+</text>
<text x="182.38" y="393.46">.</text>
<text x="388.15" y="28.96">+</text>
<text x="369.08" y="399.54">.</text>
<text x="98.02" y="209.46">*</text>
<text x="290.80" y="309.80">+</text>
<text x="382.90" y="388.84">.</text>
<text x="497.69" y="441.86">*</text>
<text x="30.34" y="482.52">+</text>
<text x="37.32" y="359.34">.</text>
<text x="265.75" y="13.92">+</text>
<text x="323.89" y="336.49">.</text>
<text x="120.52" y="99.04">.</text>
<text x="288.02" y="338.66">.</text>
<text x="473.61" y="363.02">+</text>
<text x="163.74" y="48.22">+</text>
<text x="422.36" y="59.60">.</text>
<text x="14.23" y="36.25">+</text>
<text x="448.57" y="479.42">.</text>
<text x="259.74" y="104.28">.</text>
<text x="264.03" y="99.53">*</text>
<text x="226.68" y="465.18">.</text>
<text x="309.31" y="158.62">.</text>
<text x="470.21" y="239.68">+</text>
<text x="7.02" y="343.72">.</text>
<text x="81.23" y="350.49">+</text>
<text x="14.66" y="69.14">.</text>
<text x="434.38" y="471.83">.</text>
<text x="430.76" y="466.27">+</text>
<text x="386.01" y="474.55">.</text>
<text x="340.40" y="387.82">.</text>
<text x="46.67" y="307.84">+</text>
<text x="66.44" y="339.47">+</text>
<text x="161.54" y="236.01">*</text>
<text x="160.51" y="326.18">*</text>
<text x="317.29" y="466.92">.</text>
<text x="125.65" y="295.35">+</text>
<text x="466.31" y="78.67">.</text>
<text x="352.86" y="86.62">+</text>
<text x="3.05" y="101.14">*</text>
<text x="109.77" y="234.14">+</text>
<text x="141.85" y="148.02">*</text>
<text x="31.57" y="471.37">.</text>
<text x="405.49" y="141.20">+</text>
<text x="383.05" y="130.37">*</text>
<text x="233.82" y="69.94">+</text>
<text x="37.30" y="153.32">.</text>
<text x="97.05" y="302.72">+</text>
<text x="27.38" y="452.17">.</text>
<text x="432.18" y="70.77">.</text>
<text x="383.28" y="170.97">*</text>
<text x="461.20" y="107.77">.</text>
<text x="162.84" y="78.00">.</text>
<text x="89.11" y="45.47">+</text>
<text x="450.63" y="292.03">+</text>
<text x="348.73" y="253.14">.</text>
<text x="266.53" y="13.36">.</text>
<text x="194.80" y="90.51">+</text>
<text x="44.37" y="321.41">+</text>
<text x="167.36" y="81.68">.</text>
<text x="314.57" y="108.19">+</text>
<text x="100.50" y="33.64">.</text>
<text x="109.59" y="303.55">.</text>
<text x="250.77" y="406.31">+</text>
<text x="172.29" y="184.22">+</text>
<text x="199.19" y="347.19">+</text>
<text x="233.10" y="54.83">*</text>
<text x="493.24" y="492.59">.</text>
<text x="489.52" y="306.56">.</text>
<text x="166.66" y="492.59">+</text>
<text x="448.61" y="60.15">.</text>
<text x="426.84" y="417.40">.</text>
<text x="105.33" y="144.05">.</text>
<text x="228.95" y="233.70">*</text>
<text x="171.15" y="269.52">.</text>
<text x="87.77" y="311.23">+</text>
<text x="404.40" y="141.59">.</text>
<text x="156.53" y="408.36">+</text>
<text x="132.94" y="113.01">*</text>
<text x="407.13" y="193.07">.</text>
<text x="399.59" y="179.31">+</text>
<text x="442.16" y="57.04">+</text>
<text x="48.75" y="369.45">+</text>
<text x="264.37" y="464.30">.</text>
<text x="329.39" y="412.01">+</text>
<text x="193.47" y="192.00">+</text>
<text x="350.47" y="423.43">*</text>
<text x="424.35" y="146.71">.</text>
<text x="304.75" y="21.05">+</text>
<text x="483.24" y="77.91">+</text>
<text x="483.87" y="440.55">.</text>
<text x="43.70" y="98.97">.</text>
<text x="2.02" y="385.70">*</text>

</svg>