
<svg viewBox="0 0 500 500" xmlns="http://www.w.org/2000/svg" width="100%" height="100%" style="background-color: #0a0a14; font-family: 'Courier New', Courier, monospace;">
    <style>
        text { fill: #aaa; font-size: 10px; text-anchor: middle; dominant-baseline: middle; }
    </style>
    <text x="453.90" y="277.74">+</text>
<text x="320.06" y="491.20">+</text>
<text x="484.51" y="268.68">+</text>
<text x="483.48" y="224.19">*</text>
<text x="452.24" y="278.09">.</text>
<text x="27.52" y="328.98">+</text>
<text x="444.84" y="255.49">.</text>
<text x="429.90" y="428.32">.</text>
<text x="193.14" y="295.77">+</text>
<text x="401.36" y="455.68">+</text>
<text x="271.07" y="40.01">+</text>
<text x="325.02" y="215.63">+</text>
<text x="78.45" y="499.78">+</text>
<text x="298.00" y="281.79">*</text>
<text x="189.41" y="220.26">.</text>
<text x="284.31" y="288.38">+</text>
<text x="77.22" y="250.27">.</text>
<text x="255.81" y="252.71">*</text>
<text x="199.97" y="369.66">*</text>
<text x="193.13" y="454.94">+</text>
<text x="281.75" y="375.80">*</text>
<text x="287.90" y="358.60">+</text>
<text x="0.55" y="350.37">.</text>
<text x="405.17" y="460.77">+</text>
<text x="8.18" y="32.88">.</text>
<text x="75.87" y="108.55">+</text>
<text x="312.50" y="73.54">+</text>
<text x="461.60" y="481.81">+</text>
<text x="290.73" y="338.86">+</text>
<text x="32.57" y="190.44">.</text>
<text x="331.52" y="482.48">.</text>
<text x="321.09" y="255.33">*</text>
<text x="458.67" y="263.47">+</text>
<text x="7.15" y="234.02">.</text>
<text x="400.73" y="402.20">.</text>
<text x="434.60" y="214.63">.</text>
<text x="326.87" y="40.27">.</text>
<text x="459.97" y="448.32">+</text>
<text x="71.23" y="200.18">.</text>
<text x="388.82" y="38.76">.</text>
<text x="81.59" y="390.63">+</text>
<text x="479.33" y="31.43">.</text>
<text x="336.89" y="452.74">.</text>
<text x="242.29" y="156.23">*</text>
<text x="138.89" y="285.58">*</text>
<text x="44.06" y="151.58">.</text>
<text x="354.09" y="226.37">.</text>
<text x="201.79" y="320.34">+</text>
<text x="185.68" y="322.41">+</text>
<text x="267.25" y="220.42">.</text>
<text x="484.65" y="299.77">.</text>
<text x="365.90" y="338.54">+</text>
<text x="308.96" y="482.76">+</text>
<text x="404.22" y="339.20">+</text>
<text x="499.27" y="442.99">*</text>
<text x="258.66" y="304.07">.</text>
<text x="22.44" y="488.19">.</text>
<text x="406.82" y="401.47">.</text>
<text x="285.65" y="398.99">.</text>
<text x="294.93" y="464.01">+</text>
<text x="270.24" y="265.85">.</text>
<text x="449.50" y="318.22">.</text>
<text x="444.26" y="263.05">+</text>
<text x="326.71" y="434.90">.</text>
<text x="233.24" y="317.64">+</text>
<text x="9.83" y="475.69">.</text>
<text x="8.31" y="252.77">.</text>
<text x="248.79" y="411.23">.</text>
<text x="299.41" y="221.29">+</text>
<text x="114.59" y="435.39">+</text>
<text x="125.33" y="404.76">*</text>
<text x="306.76" y="249.19">.</text>
<text x="429.95" y="431.00">.</text>
<text x="182.84" y="247.22">*</text>
<text x="221.60" y="493.22">.</text>
<text x="311.38" y="429.83">+</text>
<text x="495.94" y="462.91">+</text>
<text x="222.73" y="104.09">*</text>
<text x="469.85" y="415.32">+</text>
<text x="173.67" y="199.60">.</text>
<text x="60.11" y="450.55">+</text>
<text x="407.69" y="128.37">+</text>
<text x="371.17" y="220.22">+</text>
<text x="374.86" y="43.34">*</text>
<text x="9.33" y="189.33">+</text>
<text x="187.43" y="431.37">.</text>
<text x="310.51" y="410.54">+</text>
<text x="96.66" y="145.62">+</text>
<text x="41.77" y="83.35">.</text>
<text x="197.57" y="354.04">+</text>
<text x="136.47" y="89.81">+</text>
<text x="332.80" y="113.26">.</text>
<text x="57.06" y="368.44">+</text>
<text x="182.44" y="62.38">+</text>
<text x="43.05" y="366.65">.</text>
<text x="152.27" y="300.77">.</text>
<text x="207.78" y="330.02">.</text>
<text x="399.94" y="52.41">.</text>
<text x="332.34" y="95.27">.</text>
<text x="152.27" y="222.12">+</text>
<text x="227.42" y="190.98">.</text>
<text x="68.68" y="46.41">.</text>
<text x="444.30" y="72.64">.</text>
<text x="89.04" y="284.27">+</text>
<text x="345.34" y="16.22">*</text>
<text x="329.96" y="115.27">+</text>
<text x="41.73" y="97.20">.</text>
<text x="23.83" y="67.97">.</text>
<text x="403.12" y="17.03">+</text>
<text x="125.51" y="134.29">+</text>
<text x="22.17" y="292.49">.</text>
<text x="100.08" y="160.89">.</text>
<text x="371.60" y="320.23">*</text>
<text x="389.70" y="358.94">.</text>
<text x="361.21" y="444.30">+</text>
<text x="371.28" y="364.12">.</text>
<text x="133.33" y="156.44">*</text>
<text x="210.41" y="137.32">*</text>
<text x="225.84" y="459.69">.</text>
<text x="281.37" y="283.55">+</text>
<text x="424.98" y="190.75">.</text>
<text x="341.57" y="173.26">.</text>
<text x="131.92" y="371.41">+</text>
<text x="1.82" y="47.91">+</text>
<text x="78.33" y="83.98">+</text>
<text x="213.48" y="171.37">+</text>
<text x="373.41" y="51.39">+</text>
<text x="384.11" y="144.14">.</text>
<text x="493.73" y="417.49">.</text>
<text x="195.32" y="355.78">.</text>
<text x="280.65" y="416.34">+</text>
<text x="454.04" y="103.50">+</text>
<text x="480.59" y="461.31">+</text>
<text x="218.31" y="439.87">+</text>
<text x="438.32" y="118.50">.</text>
<text x="208.63" y="118.16">.</text>
<text x="78.68" y="456.54">+</text>
<text x="174.30" y="207.10">.</text>
<text x="415.35" y="454.26">+</text>
<text x="247.89" y="237.38">+</text>
<text x="185.53" y="388.36">+</text>
<text x="95.32" y="433.92">+</text>
<text x="105.41" y="273.03">.</text>
<text x="479.92" y="55.17">.</text>
<text x="314.40" y="166.61">.</text>
<text x="449.73" y="414.83">+</text>
<text x="294.84" y="346.36">.</text>
<text x="326.93" y="64.43">.</text>
<text x="227.97" y="18.93">.</text>
<text x="179.15" y="381.81">+</text>
<text x="260.03" y="224.58">+</text>
<text x="20.55" y="498.53">.</text>
<text x="468.88" y="468.67">.</text>
<text x="348.70" y="179.98">*</text>
<text x="287.86" y="252.68">+</text>
<text x="378.10" y="193.93">*</text>
<text x="108.27" y="53.00">.</text>
<text x="373.79" y="297.29">+</text>
<text x="435.15" y="320.62">.</text>
<text x="210.89" y="36.26">+</text>
<text x="308.20" y="204.59">+</text>
<text x="470.25" y="369.17">.</text>
<text x="129.93" y="439.23">.</text>
<text x="10.45" y="212.69">.</text>
<text x="349.32" y="350.66">*</text>
<text x="38.03" y="94.20">+</text>
<text x="84.40" y="325.09">*</text>
<text x="69.51" y="246.89">+</text>
<text x="14.12" y="414.22">+</text>
<text x="431.16" y="125.22">+</text>
<text x="330.13" y="126.62">+</text>
<text x="406.41" y="258.40">+</text>
<text x="428.63" y="298.30">+</text>
<text x="274.40" y="384.27">*</text>
<text x="55.82" y="406.80">+</text>
<text x="277.53" y="454.13">.</text>
<text x="76.44" y="417.21">.</text>
<text x="385.49" y="378.69">.</text>
<text x="206.43" y="187.82">+</text>
<text x="422.39" y="499.36">+</text>
<text x="108.49" y="424.64">+</text>
<text x="185.34" y="194.54">+</text>
<text x="126.59" y="115.62">.</text>
<text x="405.20" y="481.12">+</text>
<text x="177.87" y="498.58">*</text>
<text x="293.21" y="379.23">+</text>
<text x="376.18" y="422.38">.</text>
<text x="17.00" y="81.23">.</text>
<text x="411.83" y="395.92">.</text>
<text x="179.78" y="372.35">.</text>
<text x="71.43" y="111.28">+</text>
<text x="17.85" y="433.39">.</text>
<text x="271.22" y="198.75">+</text>
<text x="422.50" y="197.21">+</text>
<text x="432.80" y="176.42">+</text>
<text x="253.19" y="271.96">.</text>
<text x="311.46" y="88.13">.</text>
<text x="240.39" y="460.94">.</text>
<text x="46.71" y="165.12">.</text>
<text x="333.73" y="492.81">.</text>
<text x="462.90" y="89.70">+</text>
<text x="126.00" y="129.71">+</text>
<text x="240.05" y="60.74">.</text>
<text x="10.86" y="472.10">*</text>
<text x="335.09" y="148.72">.</text>
<text x="263.12" y="166.39">+</text>
<text x="103.59" y="360.12">+</text>
<text x="487.63" y="285.41">.</text>
<text x="454.55" y="199.02">+</text>
<text x="301.88" y="447.62">*</text>
<text x="23.20" y="263.34">.</text>
<text x="206.97" y="285.60">+</text>
<text x="236.26" y="499.15">.</text>
<text x="224.84" y="238.59">+</text>
<text x="365.51" y="96.48">+</text>
<text x="483.11" y="331.94">*</text>
<text x="153.10" y="448.25">+</text>

</svg>