
<svg viewBox="0 0 500 500" xmlns="http://www.w.org/2000/svg" width="100%" height="100%" style="background-color: #0a0a14; font-family: 'Courier New', Courier, monospace;">
    <style>
        text { fill: #aaa; font-size: 10px; text-anchor: middle; dominant-baseline: middle; }
    </style>
    <text x="404.19" y="205.36">*</text>
<text x="102.06" y="15.31">+</text>
<text x="8.83" y="33.67">*</text>
<text x="234.49" y="147.79">+</text>
<text x="471.30" y="129.80">*</text>
<text x="225.02" y="479.74">+</text>
<text x="124.09" y="114.52">*</text>
<text x="347.07" y="87.96">*</text>
<text x="46.96" y="26.83">+</text>
<text x="208.30" y="358.46">+</text>
<text x="451.66" y="484.86">+</text>
<text x="230.71" y="104.88">+</text>
<text x="234.71" y="493.93">+</text>
<text x="9.56" y="318.22">+</text>
<text x="77.89" y="138.95">.</text>
<text x="258.29" y="177.56">.</text>
<text x="71.16" y="238.12">+</text>
<text x="97.76" y="190.40">.</text>
<text x="258.40" y="278.68">.</text>
<text x="498.76" y="335.23">*</text>
<text x="290.56" y="307.96">.</text>
<text x="152.52" y="350.96">+</text>
<text x="132.46" y="185.71">+</text>
<text x="253.27" y="495.18">.</text>
<text x="276.04" y="78.68">.</text>
<text x="287.98" y="300.94">.</text>
<text x="87.04" y="390.19">.</text>
<text x="106.04" y="89.46">+</text>
<text x="383.52" y="441.08">.</text>
<text x="10.98" y="298.52">*</text>
<text x="204.45" y="397.04">+</text>
<text x="50.49" y="78.69">.</text>
<text x="53.55" y="224.97">+</text>
<text x="275.19" y="185.28">+</text>
<text x="478.28" y="31.76">.</text>
<text x="131.67" y="411.05">+</text>
<text x="79.86" y="72.74">+</text>
<text x="305.91" y="91.53">.</text>
<text x="264.75" y="493.90">*</text>
<text x="234.37" y="420.53">.</text>
<text x="305.22" y="16.93">.</text>
<text x="80.61" y="293.24">.</text>
<text x="160.02" y="388.99">.</text>
<text x="270.12" y="84.78">.</text>
<text x="196.79" y="156.62">+</text>
<text x="60.42" y="428.87">.</text>
<text x="67.89" y="152.57">+</text>
<text x="143.57" y="473.31">+</text>
<text x="162.48" y="6.43">*</text>
<text x="492.66" y="284.65">*</text>
<text x="187.39" y="498.21">+</text>
<text x="297.36" y="188.61">+</text>
<text x="121.55" y="218.51">+</text>
<text x="332.04" y="261.19">+</text>
<text x="349.71" y="177.70">+</text>
<text x="104.83" y="293.20">.</text>
<text x="343.63" y="330.25">+</text>
<text x="43.63" y="443.86">+</text>
<text x="295.12" y="103.14">.</text>
<text x="366.28" y="37.34">+</text>
<text x="245.79" y="260.75">.</text>
<text x="358.97" y="421.37">+</text>
<text x="337.16" y="226.06">.</text>
<text x="300.92" y="166.36">*</text>
<text x="392.40" y="10.39">+</text>
<text x="400.67" y="54.18">.</text>
<text x="310.88" y="3.95">.</text>
<text x="265.20" y="179.64">.</text>
<text x="0.62" y="440.62">*</text>
<text x="74.05" y="31.35">.</text>
<text x="308.23" y="333.23">*</text>
<text x="286.46" y="79.46">+</text>
<text x="51.29" y="247.59">+</text>
<text x="331.46" y="5.64">+</text>
<text x="465.71" y="377.00">+</text>
<text x="361.09" y="496.44">+</text>
<text x="383.94" y="228.56">.</text>
<text x="288.04" y="246.57">+</text>
<text x="434.12" y="86.46">*</text>
<text x="389.15" y="26.30">.</text>
<text x="424.34" y="6.02">.</text>
<text x="334.44" y="434.48">+</text>
<text x="436.75" y="499.05">.</text>
<text x="99.84" y="186.48">.</text>
<text x="177.14" y="153.07">+</text>
<text x="30.26" y="292.36">+</text>
<text x="403.37" y="248.22">+</text>
<text x="302.44" y="236.63">*</text>
<text x="480.57" y="290.77">+</text>
<text x="201.80" y="479.34">.</text>
<text x="383.08" y="463.80">+</text>
<text x="420.13" y="445.14">+</text>
<text x="479.12" y="115.53">*</text>
<text x="416.79" y="151.37">.</text>
<text x="378.21" y="212.26">.</text>
<text x="466.65" y="344.58">.</text>
<text x="466.17" y="481.85">.</text>
<text x="438.30" y="16.75">.</text>
<text x="93.20" y="347.21">*</text>
<text x="30.79" y="228.84">+</text>
<text x="169.35" y="101.70">+</text>
<text x="210.73" y="188.68">+</text>
<text x="71.04" y="118.81">+</text>
<text x="432.50" y="81.30">.</text>
<text x="183.08" y="108.78">+</text>
<text x="384.33" y="27.61">.</text>
<text x="74.61" y="230.80">+</text>
<text x="183.80" y="282.39">.</text>
<text x="234.33" y="75.41">*</text>
<text x="142.03" y="294.41">+</text>
<text x="287.53" y="242.33">*</text>
<text x="191.55" y="55.19">*</text>
<text x="365.75" y="321.84">.</text>
<text x="315.36" y="425.16">+</text>
<text x="139.44" y="62.24">+</text>
<text x="7.99" y="136.13">.</text>
<text x="160.44" y="46.44">+</text>
<text x="43.97" y="441.88">.</text>
<text x="418.18" y="150.00">+</text>
<text x="59.23" y="134.54">.</text>
<text x="270.97" y="82.01">+</text>
<text x="357.05" y="93.05">.</text>
<text x="283.25" y="57.88">.</text>
<text x="84.67" y="466.26">+</text>
<text x="133.49" y="2.46">.</text>
<text x="186.31" y="488.83">+</text>
<text x="277.81" y="119.79">.</text>
<text x="284.02" y="268.09">+</text>
<text x="178.50" y="416.56">.</text>
<text x="222.81" y="199.32">.</text>
<text x="355.64" y="240.52">+</text>
<text x="265.59" y="265.43">+</text>
<text x="51.54" y="160.62">.</text>
<text x="450.81" y="152.17">+</text>
<text x="142.91" y="371.74">.</text>
<text x="84.08" y="189.66">.</text>
<text x="356.21" y="202.66">.</text>
<text x="163.86" y="241.76">+</text>
<text x="337.92" y="158.01">.</text>
<text x="99.84" y="65.70">.</text>
<text x="126.79" y="205.97">.</text>
<text x="52.17" y="9.88">+</text>
<text x="298.12" y="94.03">.</text>
<text x="480.45" y="211.14">*</text>
<text x="93.34" y="485.89">*</text>
<text x="424.07" y="462.12">+</text>
<text x="491.67" y="298.68">+</text>
<text x="249.44" y="139.71">.</text>
<text x="317.33" y="319.40">.</text>
<text x="12.31" y="212.21">+</text>
<text x="311.97" y="231.80">.</text>
<text x="339.71" y="210.53">+</text>
<text x="141.80" y="248.88">.</text>
<text x="392.18" y="203.60">.</text>
<text x="148.79" y="105.22">.</text>
<text x="396.00" y="336.78">+</text>
<text x="364.47" y="153.59">+</text>
<text x="277.23" y="264.87">+</text>
<text x="188.95" y="492.33">.</text>
<text x="41.27" y="168.73">.</text>
<text x="51.89" y="322.65">+</text>
<text x="459.14" y="306.77">.</text>
<text x="425.80" y="409.47">.</text>
<text x="277.32" y="98.04">+</text>
<text x="316.28" y="196.07">.</text>
<text x="250.15" y="435.48">.</text>
<text x="423.70" y="202.38">+</text>
<text x="44.44" y="471.60">.</text>
<text x="249.16" y="397.39">+</text>
<text x="42.98" y="320.13">.</text>
<text x="223.00" y="282.91">+</text>
<text x="60.74" y="76.78">.</text>
<text x="332.69" y="355.04">+</text>
<text x="288.81" y="57.35">*</text>
<text x="5.49" y="3.22">+</text>
<text x="425.41" y="480.07">.</text>
<text x="101.06" y="264.19">+</text>
<text x="131.11" y="429.23">.</text>
<text x="254.75" y="62.31">*</text>
<text x="290.07" y="418.24">+</text>
<text x="479.32" y="27.96">+</text>
<text x="219.26" y="158.98">.</text>
<text x="257.47" y="82.35">.</text>
<text x="411.88" y="292.81">.</text>
<text x="153.89" y="157.47">.</text>
<text x="254.79" y="356.90">*</text>
<text x="396.94" y="288.12">+</text>
<text x="301.76" y="462.57">.</text>
<text x="237.05" y="333.72">.</text>
<text x="299.91" y="263.06">*</text>
<text x="271.17" y="301.09">+</text>
<text x="207.75" y="91.15">.</text>
<text x="252.59" y="111.48">+</text>
<text x="301.57" y="321.20">.</text>
<text x="121.76" y="430.74">.</text>
<text x="370.28" y="315.73">+</text>
<text x="224.44" y="404.26">+</text>
<text x="498.11" y="261.91">.</text>
<text x="383.75" y="191.46">+</text>
<text x="190.77" y="325.20">+</text>

</svg>