
<svg viewBox="0 0 500 500" xmlns="http://www.w.org/2000/svg" width="100%" height="100%" style="background-color: #0a0a14; font-family: 'Courier New', Courier, monospace;">
    <style>
        text { fill: #aaa; font-size: 10px; text-anchor: middle; dominant-baseline: middle; }
    </style>
    <text x="82.87" y="451.12">+</text>
<text x="265.53" y="343.49">+</text>
<text x="364.23" y="143.84">+</text>
<text x="305.44" y="446.42">.</text>
<text x="424.25" y="368.82">.</text>
<text x="14.80" y="272.45">+</text>
<text x="359.41" y="476.58">+</text>
<text x="76.78" y="94.56">.</text>
<text x="353.09" y="142.12">+</text>
<text x="451.11" y="383.54">.</text>
<text x="266.70" y="271.64">.</text>
<text x="231.19" y="256.40">+</text>
<text x="445.31" y="54.90">.</text>
<text x="432.68" y="393.99">.</text>
<text x="205.74" y="477.06">.</text>
<text x="34.23" y="333.45">.</text>
<text x="104.17" y="151.49">*</text>
<text x="277.23" y="135.94">.</text>
<text x="57.63" y="322.52">+</text>
<text x="113.81" y="75.67">*</text>
<text x="138.65" y="438.41">*</text>
<text x="275.45" y="396.56">*</text>
<text x="100.40" y="90.74">.</text>
<text x="423.00" y="340.16">.</text>
<text x="80.00" y="446.89">.</text>
<text x="226.02" y="3.02">.</text>
<text x="351.06" y="122.50">*</text>
<text x="228.54" y="364.15">*</text>
<text x="152.75" y="22.08">+</text>
<text x="300.41" y="155.89">.</text>
<text x="416.59" y="82.88">+</text>
<text x="361.26" y="226.73">.</text>
<text x="364.39" y="243.81">.</text>
<text x="333.95" y="431.82">.</text>
<text x="320.92" y="108.79">*</text>
<text x="442.13" y="137.99">.</text>
<text x="30.81" y="480.16">.</text>
<text x="8.74" y="72.99">*</text>
<text x="69.77" y="337.99">.</text>
<text x="8.36" y="155.06">.</text>
<text x="28.11" y="268.91">+</text>
<text x="5.84" y="226.97">+</text>
<text x="196.66" y="166.89">+</text>
<text x="370.34" y="190.92">+</text>
<text x="331.31" y="39.50">+</text>
<text x="212.56" y="119.51">.</text>
<text x="348.02" y="127.36">+</text>
<text x="377.26" y="283.62">+</text>
<text x="196.08" y="273.76">+</text>
<text x="408.36" y="265.49">+</text>
<text x="266.99" y="452.43">+</text>
<text x="115.42" y="38.67">.</text>
<text x="15.68" y="38.85">+</text>
<text x="262.80" y="137.32">*</text>
<text x="259.13" y="184.45">+</text>
<text x="25.31" y="213.35">.</text>
<text x="30.74" y="264.47">+</text>
<text x="239.78" y="324.28">.</text>
<text x="451.30" y="185.44">+</text>
<text x="244.15" y="62.73">+</text>
<text x="153.23" y="69.12">*</text>
<text x="215.70" y="87.38">+</text>
<text x="417.00" y="150.01">.</text>
<text x="322.06" y="309.01">+</text>
<text x="470.31" y="268.48">+</text>
<text x="76.10" y="267.14">*</text>
<text x="119.56" y="135.78">.</text>
<text x="83.53" y="11.45">.</text>
<text x="266.15" y="24.18">.</text>
<text x="4.69" y="317.79">*</text>
<text x="497.10" y="162.26">.</text>
<text x="86.15" y="304.53">.</text>
<text x="414.72" y="218.29">+</text>
<text x="360.72" y="82.78">.</text>
<text x="206.54" y="230.60">+</text>
<text x="449.60" y="88.72">.</text>
<text x="199.42" y="9.13">.</text>
<text x="467.50" y="17.82">+</text>
<text x="456.49" y="416.71">+</text>
<text x="278.32" y="463.24">*</text>
<text x="64.32" y="349.59">+</text>
<text x="5.06" y="390.05">+</text>
<text x="36.28" y="186.97">+</text>
<text x="215.88" y="294.97">.</text>
<text x="324.19" y="333.94">*</text>
<text x="268.80" y="66.02">*</text>
<text x="291.42" y="115.88">+</text>
<text x="383.05" y="59.50">.</text>
<text x="46.31" y="43.50">+</text>
<text x="91.42" y="174.29">+</text>
<text x="148.81" y="295.01">.</text>
<text x="6.33" y="238.09">.</text>
<text x="133.89" y="430.94">*</text>
<text x="170.98" y="55.73">*</text>
<text x="265.32" y="130.58">.</text>
<text x="444.31" y="172.89">+</text>
<text x="253.14" y="190.49">+</text>
<text x="117.68" y="419.07">*</text>
<text x="362.93" y="96.21">.</text>
<text x="297.92" y="358.03">+</text>
<text x="469.20" y="466.51">+</text>
<text x="491.46" y="487.02">+</text>
<text x="64.94" y="436.34">.</text>
<text x="421.81" y="87.58">*</text>
<text x="43.84" y="409.83">*</text>
<text x="329.49" y="223.50">+</text>
<text x="132.06" y="434.75">*</text>
<text x="10.33" y="403.66">.</text>
<text x="85.97" y="253.63">*</text>
<text x="258.81" y="156.23">+</text>
<text x="236.65" y="460.61">*</text>
<text x="280.87" y="241.04">+</text>
<text x="249.05" y="277.50">+</text>
<text x="416.49" y="339.68">+</text>
<text x="283.37" y="272.20">*</text>
<text x="351.65" y="424.16">.</text>
<text x="101.34" y="385.99">+</text>
<text x="446.15" y="61.82">+</text>
<text x="25.37" y="324.57">.</text>
<text x="14.85" y="499.75">+</text>
<text x="415.13" y="480.98">+</text>
<text x="399.43" y="396.38">+</text>
<text x="230.10" y="153.66">+</text>
<text x="265.58" y="231.58">+</text>
<text x="228.73" y="293.62">.</text>
<text x="396.09" y="74.72">.</text>
<text x="217.75" y="416.55">+</text>
<text x="341.02" y="374.55">.</text>
<text x="215.68" y="227.56">.</text>
<text x="352.19" y="268.89">*</text>
<text x="293.02" y="135.86">.</text>
<text x="215.19" y="360.33">+</text>
<text x="359.50" y="185.46">.</text>
<text x="369.58" y="330.17">*</text>
<text x="217.83" y="62.54">.</text>
<text x="204.96" y="138.95">.</text>
<text x="377.04" y="306.79">+</text>
<text x="209.74" y="348.47">+</text>
<text x="260.16" y="497.37">+</text>
<text x="228.51" y="370.85">+</text>
<text x="347.09" y="446.82">+</text>
<text x="329.89" y="378.37">*</text>
<text x="349.12" y="383.91">+</text>
<text x="305.72" y="123.91">*</text>
<text x="27.67" y="148.33">.</text>
<text x="293.70" y="37.60">+</text>
<text x="282.29" y="364.96">+</text>
<text x="106.14" y="209.76">+</text>
<text x="216.69" y="441.31">+</text>
<text x="433.30" y="472.36">+</text>
<text x="256.94" y="246.55">+</text>
<text x="156.37" y="400.57">*</text>
<text x="257.09" y="285.90">+</text>
<text x="0.03" y="189.38">*</text>
<text x="299.18" y="285.27">.</text>
<text x="262.55" y="328.63">.</text>
<text x="394.69" y="9.44">+</text>
<text x="477.70" y="477.46">.</text>
<text x="184.33" y="351.30">+</text>
<text x="288.96" y="278.74">.</text>
<text x="68.89" y="196.63">*</text>
<text x="188.31" y="144.42">.</text>
<text x="491.78" y="299.02">+</text>
<text x="260.67" y="254.65">*</text>
<text x="206.81" y="22.38">.</text>
<text x="378.02" y="192.28">+</text>
<text x="152.02" y="309.77">.</text>
<text x="16.29" y="114.29">+</text>
<text x="461.57" y="17.41">+</text>
<text x="86.60" y="95.11">+</text>
<text x="181.55" y="56.11">+</text>
<text x="494.08" y="339.84">.</text>
<text x="210.84" y="105.53">.</text>
<text x="176.33" y="163.21">*</text>
<text x="214.81" y="260.82">*</text>
<text x="173.18" y="48.57">+</text>
<text x="21.75" y="180.35">.</text>
<text x="401.04" y="439.02">.</text>
<text x="495.86" y="100.44">.</text>
<text x="131.20" y="82.12">+</text>
<text x="263.18" y="481.35">*</text>
<text x="65.78" y="336.69">.</text>
<text x="70.48" y="80.24">+</text>
<text x="348.99" y="170.84">.</text>
<text x="57.32" y="330.45">+</text>
<text x="469.24" y="122.77">*</text>
<text x="391.06" y="451.90">*</text>
<text x="238.52" y="10.66">+</text>
<text x="128.98" y="280.64">+</text>
<text x="49.27" y="269.38">+</text>
<text x="433.87" y="202.59">.</text>
<text x="401.44" y="56.68">+</text>
<text x="185.32" y="351.44">*</text>
<text x="488.99" y="406.30">.</text>
<text x="214.30" y="464.32">+</text>
<text x="149.04" y="475.90">+</text>
<text x="430.11" y="376.02">.</text>
<text x="428.23" y="279.08">.</text>
<text x="183.06" y="39.68">+</text>
<text x="289.85" y="488.41">+</text>
<text x="51.17" y="403.58">+</text>
<text x="267.38" y="348.44">+</text>
<text x="337.27" y="236.30">.</text>
<text x="269.34" y="103.74">+</text>
<text x="329.15" y="61.19">.</text>
<text x="310.04" y="139.95">.</text>
<text x="117.31" y="278.94">+</text>
<text x="197.45" y="408.75">+</text>
<text x="307.52" y="468.95">+</text>
<text x="418.83" y="20.23">*</text>
<text x="8.11" y="153.46">.</text>
<text x="356.46" y="144.60">*</text>

</svg>