
<svg viewBox="0 0 500 500" xmlns="http://www.w.org/2000/svg" width="100%" height="100%" style="background-color: #0a0a14; font-family: 'Courier New', Courier, monospace;">
    <style>
        text { fill: #aaa; font-size: 10px; text-anchor: middle; dominant-baseline: middle; }
    </style>
    <text x="309.04" y="428.85">*</text>
<text x="139.25" y="387.79">+</text>
<text x="35.62" y="282.87">+</text>
<text x="384.66" y="321.90">.</text>
<text x="395.13" y="454.11">.</text>
<text x="325.38" y="42.99">*</text>
<text x="343.51" y="54.03">+</text>
<text x="9.16" y="134.25">.</text>
<text x="87.41" y="274.87">+</text>
<text x="3.09" y="55.85">+</text>
<text x="78.81" y="447.99">+</text>
<text x="184.19" y="342.56">.</text>
<text x="121.54" y="458.69">+</text>
<text x="311.07" y="92.43">.</text>
<text x="465.86" y="385.14">+</text>
<text x="39.11" y="126.43">.</text>
<text x="95.71" y="332.54">.</text>
<text x="2.22" y="429.44">+</text>
<text x="226.94" y="78.37">*</text>
<text x="179.73" y="466.54">*</text>
<text x="341.98" y="99.03">+</text>
<text x="228.28" y="476.49">+</text>
<text x="40.37" y="7.64">.</text>
<text x="242.87" y="477.62">+</text>
<text x="20.22" y="352.28">+</text>
<text x="46.35" y="460.96">.</text>
<text x="410.30" y="351.65">.</text>
<text x="42.38" y="261.64">+</text>
<text x="499.80" y="458.36">.</text>
<text x="287.83" y="109.58">.</text>
<text x="402.28" y="34.93">+</text>
<text x="374.39" y="451.54">+</text>
<text x="6.84" y="331.35">+</text>
<text x="371.59" y="285.32">.</text>
<text x="484.06" y="138.57">*</text>
<text x="440.02" y="468.44">.</text>
<text x="289.49" y="23.60">.</text>
<text x="238.86" y="473.96">*</text>
<text x="401.68" y="347.99">+</text>
<text x="122.29" y="379.53">+</text>
<text x="209.50" y="32.21">+</text>
<text x="53.68" y="413.40">+</text>
<text x="186.82" y="339.13">*</text>
<text x="418.40" y="367.07">.</text>
<text x="7.13" y="222.85">.</text>
<text x="153.58" y="325.98">.</text>
<text x="67.73" y="132.01">.</text>
<text x="194.75" y="98.34">.</text>
<text x="87.04" y="275.33">.</text>
<text x="95.57" y="301.31">.</text>
<text x="276.13" y="182.36">.</text>
<text x="177.34" y="474.24">.</text>
<text x="270.12" y="270.21">.</text>
<text x="284.89" y="127.97">.</text>
<text x="381.80" y="72.19">.</text>
<text x="377.88" y="83.50">.</text>
<text x="489.83" y="168.25">+</text>
<text x="153.52" y="484.92">+</text>
<text x="107.28" y="314.72">+</text>
<text x="126.78" y="469.54">.</text>
<text x="251.90" y="220.86">.</text>
<text x="184.72" y="152.73">+</text>
<text x="428.25" y="367.29">.</text>
<text x="158.39" y="476.61">.</text>
<text x="98.45" y="144.27">.</text>
<text x="453.60" y="377.10">*</text>
<text x="238.54" y="437.40">+</text>
<text x="364.33" y="244.41">*</text>
<text x="135.90" y="291.60">+</text>
<text x="358.54" y="47.73">+</text>
<text x="156.80" y="64.52">*</text>
<text x="351.15" y="120.76">+</text>
<text x="186.55" y="144.89">.</text>
<text x="104.19" y="191.43">+</text>
<text x="101.13" y="203.79">*</text>
<text x="306.40" y="79.21">.</text>
<text x="114.98" y="84.19">+</text>
<text x="18.03" y="345.24">.</text>
<text x="413.03" y="231.40">.</text>
<text x="40.74" y="486.43">.</text>
<text x="108.61" y="370.36">+</text>
<text x="9.66" y="257.91">+</text>
<text x="404.87" y="58.35">.</text>
<text x="344.60" y="120.56">.</text>
<text x="193.26" y="74.70">+</text>
<text x="367.84" y="270.84">*</text>
<text x="478.78" y="357.24">.</text>
<text x="202.07" y="220.40">+</text>
<text x="81.94" y="113.90">*</text>
<text x="324.84" y="233.34">+</text>
<text x="406.57" y="459.52">.</text>
<text x="281.16" y="460.42">+</text>
<text x="239.92" y="484.68">.</text>
<text x="442.26" y="465.05">+</text>
<text x="402.79" y="419.62">.</text>
<text x="345.75" y="14.05">+</text>
<text x="103.37" y="147.46">+</text>
<text x="15.04" y="174.37">.</text>
<text x="233.99" y="208.83">+</text>
<text x="45.46" y="369.72">.</text>
<text x="81.69" y="212.12">.</text>
<text x="103.47" y="68.97">.</text>
<text x="284.88" y="221.71">.</text>
<text x="344.85" y="216.68">.</text>
<text x="211.55" y="248.61">+</text>
<text x="168.73" y="196.78">+</text>
<text x="324.73" y="322.30">+</text>
<text x="191.09" y="199.31">+</text>
<text x="274.56" y="111.22">*</text>
<text x="59.88" y="152.88">.</text>
<text x="476.58" y="103.02">+</text>
<text x="458.17" y="273.62">+</text>
<text x="269.50" y="301.14">+</text>
<text x="154.35" y="415.27">.</text>
<text x="426.79" y="380.55">+</text>
<text x="496.27" y="84.37">*</text>
<text x="97.32" y="154.39">.</text>
<text x="78.32" y="380.45">*</text>
<text x="264.42" y="489.76">+</text>
<text x="499.13" y="422.05">.</text>
<text x="152.97" y="446.49">.</text>
<text x="431.23" y="211.50">.</text>
<text x="433.01" y="110.69">.</text>
<text x="264.91" y="407.29">.</text>
<text x="181.32" y="449.42">.</text>
<text x="416.19" y="251.23">+</text>
<text x="483.92" y="459.43">+</text>
<text x="444.40" y="450.51">+</text>
<text x="388.64" y="280.56">+</text>
<text x="428.66" y="463.44">.</text>
<text x="43.20" y="24.57">+</text>
<text x="468.31" y="155.28">.</text>
<text x="118.13" y="266.80">+</text>
<text x="158.74" y="68.66">.</text>
<text x="433.02" y="308.52">.</text>
<text x="444.41" y="42.94">+</text>
<text x="397.31" y="226.00">+</text>
<text x="227.23" y="6.32">*</text>
<text x="270.91" y="403.06">+</text>
<text x="326.71" y="135.71">+</text>
<text x="263.98" y="178.94">.</text>
<text x="367.37" y="271.77">.</text>
<text x="268.73" y="255.18">+</text>
<text x="49.31" y="452.62">+</text>
<text x="338.43" y="498.38">.</text>
<text x="132.94" y="156.01">+</text>
<text x="18.02" y="246.44">.</text>
<text x="205.23" y="293.80">+</text>
<text x="164.77" y="322.68">*</text>
<text x="27.91" y="60.36">.</text>
<text x="473.72" y="147.04">.</text>
<text x="231.67" y="445.32">*</text>
<text x="21.27" y="195.66">+</text>
<text x="181.08" y="14.62">+</text>
<text x="354.06" y="259.79">.</text>
<text x="414.01" y="443.22">+</text>
<text x="47.59" y="308.59">.</text>
<text x="417.51" y="262.79">*</text>
<text x="424.61" y="403.47">+</text>
<text x="35.55" y="319.33">*</text>
<text x="103.23" y="163.28">.</text>
<text x="226.14" y="59.21">+</text>
<text x="346.55" y="218.94">+</text>
<text x="404.45" y="125.96">.</text>
<text x="223.67" y="394.18">.</text>
<text x="1.71" y="114.82">.</text>
<text x="457.57" y="260.43">*</text>
<text x="277.92" y="242.90">*</text>
<text x="277.06" y="271.15">.</text>
<text x="306.69" y="15.67">.</text>
<text x="125.82" y="265.23">+</text>
<text x="490.02" y="156.19">.</text>
<text x="138.61" y="309.74">*</text>
<text x="90.50" y="155.88">.</text>
<text x="323.91" y="428.07">.</text>
<text x="407.13" y="167.60">.</text>
<text x="36.08" y="219.50">+</text>
<text x="253.84" y="443.12">+</text>
<text x="330.76" y="229.98">+</text>
<text x="42.39" y="311.53">+</text>
<text x="375.97" y="451.88">*</text>
<text x="273.77" y="415.53">+</text>
<text x="247.01" y="258.90">*</text>
<text x="220.93" y="436.37">.</text>
<text x="390.89" y="314.95">.</text>
<text x="187.95" y="74.60">.</text>
<text x="92.59" y="399.22">.</text>
<text x="472.93" y="101.15">+</text>
<text x="408.24" y="203.41">*</text>
<text x="295.54" y="182.14">+</text>
<text x="183.21" y="166.72">.</text>
<text x="277.35" y="192.56">.</text>
<text x="400.29" y="100.73">.</text>
<text x="241.01" y="480.17">.</text>
<text x="403.55" y="339.40">.</text>
<text x="407.87" y="382.58">+</text>
<text x="486.25" y="3.42">+</text>
<text x="442.74" y="329.72">+</text>
<text x="15.70" y="401.04">+</text>
<text x="234.93" y="472.35">+</text>
<text x="244.47" y="41.98">.</text>

</svg>