
<svg viewBox="0 0 500 500" xmlns="http://www.w.org/2000/svg" width="100%" height="100%" style="background-color: #0a0a14; font-family: 'Courier New', Courier, monospace;">
    <style>
        text { fill: #aaa; font-size: 10px; text-anchor: middle; dominant-baseline: middle; }
    </style>
    <text x="407.42" y="377.76">.</text>
<text x="432.34" y="197.41">.</text>
<text x="112.67" y="115.08">+</text>
<text x="181.62" y="242.87">+</text>
<text x="305.78" y="490.15">+</text>
<text x="351.86" y="125.92">.</text>
<text x="322.88" y="358.22">+</text>
<text x="354.57" y="196.55">.</text>
<text x="208.33" y="235.53">.</text>
<text x="209.44" y="174.46">.</text>
<text x="187.33" y="472.14">.</text>
<text x="130.67" y="390.74">.</text>
<text x="442.03" y="76.89">.</text>
<text x="313.69" y="135.98">+</text>
<text x="253.06" y="125.68">.</text>
<text x="352.13" y="300.37">+</text>
<text x="20.82" y="216.63">+</text>
<text x="145.45" y="290.92">.</text>
<text x="32.13" y="448.93">.</text>
<text x="58.90" y="254.65">.</text>
<text x="373.94" y="327.16">+</text>
<text x="387.50" y="358.55">.</text>
<text x="177.63" y="60.85">*</text>
<text x="59.58" y="76.17">+</text>
<text x="280.52" y="360.54">+</text>
<text x="191.69" y="134.23">+</text>
<text x="35.79" y="144.79">.</text>
<text x="348.73" y="41.64">.</text>
<text x="363.07" y="91.00">.</text>
<text x="8.53" y="261.60">+</text>
<text x="242.96" y="496.90">+</text>
<text x="123.99" y="146.28">.</text>
<text x="378.88" y="443.03">+</text>
<text x="46.43" y="8.48">+</text>
<text x="327.67" y="297.79">+</text>
<text x="278.18" y="100.20">+</text>
<text x="399.07" y="351.08">*</text>
<text x="181.33" y="25.19">+</text>
<text x="97.34" y="217.53">+</text>
<text x="345.09" y="119.65">+</text>
<text x="368.85" y="95.26">*</text>
<text x="30.02" y="468.87">.</text>
<text x="271.94" y="448.20">.</text>
<text x="265.87" y="381.12">.</text>
<text x="252.58" y="170.44">.</text>
<text x="251.05" y="214.61">*</text>
<text x="354.97" y="428.11">.</text>
<text x="174.39" y="451.77">+</text>
<text x="366.12" y="20.56">.</text>
<text x="261.37" y="210.97">.</text>
<text x="405.73" y="199.42">.</text>
<text x="405.36" y="426.78">+</text>
<text x="451.32" y="474.59">+</text>
<text x="317.35" y="183.00">.</text>
<text x="344.78" y="69.78">+</text>
<text x="306.23" y="220.21">.</text>
<text x="446.10" y="34.05">+</text>
<text x="143.35" y="43.10">+</text>
<text x="112.41" y="31.12">*</text>
<text x="34.48" y="321.45">.</text>
<text x="199.48" y="457.06">.</text>
<text x="66.23" y="314.35">.</text>
<text x="447.68" y="286.54">+</text>
<text x="133.78" y="178.42">+</text>
<text x="243.37" y="112.37">*</text>
<text x="307.46" y="415.01">+</text>
<text x="283.84" y="2.09">*</text>
<text x="495.28" y="456.06">+</text>
<text x="378.10" y="283.30">+</text>
<text x="117.33" y="176.09">+</text>
<text x="467.74" y="109.22">.</text>
<text x="80.25" y="41.62">+</text>
<text x="261.41" y="140.50">*</text>
<text x="464.75" y="235.22">+</text>
<text x="273.31" y="75.16">+</text>
<text x="343.68" y="127.24">*</text>
<text x="301.62" y="409.25">.</text>
<text x="354.15" y="39.64">.</text>
<text x="90.74" y="461.41">+</text>
<text x="360.94" y="497.83">+</text>
<text x="306.23" y="305.54">+</text>
<text x="168.43" y="123.14">+</text>
<text x="332.13" y="84.31">.</text>
<text x="7.22" y="404.81">+</text>
<text x="381.72" y="109.48">+</text>
<text x="459.34" y="145.41">.</text>
<text x="204.52" y="57.78">.</text>
<text x="106.52" y="63.15">.</text>
<text x="194.28" y="336.54">.</text>
<text x="464.32" y="108.81">+</text>
<text x="370.55" y="195.03">+</text>
<text x="466.43" y="301.49">+</text>
<text x="49.96" y="195.95">+</text>
<text x="306.49" y="80.45">.</text>
<text x="442.44" y="228.67">+</text>
<text x="206.67" y="475.65">.</text>
<text x="231.26" y="243.54">.</text>
<text x="56.27" y="118.02">+</text>
<text x="155.31" y="477.31">+</text>
<text x="372.94" y="146.82">.</text>
<text x="338.48" y="179.30">.</text>
<text x="373.15" y="96.85">+</text>
<text x="420.37" y="450.64">+</text>
<text x="268.75" y="465.05">.</text>
<text x="393.33" y="374.51">.</text>
<text x="257.56" y="20.78">+</text>
<text x="250.92" y="322.09">+</text>
<text x="155.13" y="83.92">.</text>
<text x="4.73" y="255.91">+</text>
<text x="144.24" y="414.66">.</text>
<text x="375.14" y="385.98">.</text>
<text x="131.69" y="452.13">*</text>
<text x="125.08" y="83.39">.</text>
<text x="158.55" y="458.22">.</text>
<text x="101.24" y="473.16">+</text>
<text x="98.27" y="226.07">.</text>
<text x="268.96" y="431.47">.</text>
<text x="14.08" y="201.59">+</text>
<text x="478.12" y="420.44">.</text>
<text x="60.87" y="242.47">+</text>
<text x="239.05" y="3.52">+</text>
<text x="137.61" y="440.29">.</text>
<text x="317.20" y="355.10">.</text>
<text x="307.26" y="277.12">*</text>
<text x="215.01" y="246.34">+</text>
<text x="284.58" y="104.33">.</text>
<text x="462.20" y="125.96">+</text>
<text x="84.48" y="273.80">+</text>
<text x="397.85" y="276.31">+</text>
<text x="118.11" y="92.18">+</text>
<text x="168.66" y="386.84">+</text>
<text x="295.51" y="443.71">.</text>
<text x="479.49" y="360.61">.</text>
<text x="437.19" y="494.11">.</text>
<text x="98.21" y="376.30">*</text>
<text x="358.03" y="201.23">+</text>
<text x="112.08" y="489.67">.</text>
<text x="297.09" y="196.85">.</text>
<text x="108.56" y="311.63">*</text>
<text x="49.76" y="407.06">+</text>
<text x="253.84" y="133.79">+</text>
<text x="494.07" y="296.41">.</text>
<text x="373.96" y="73.72">+</text>
<text x="397.85" y="354.52">+</text>
<text x="330.99" y="498.57">*</text>
<text x="127.33" y="401.53">.</text>
<text x="55.37" y="222.10">.</text>
<text x="420.59" y="432.84">+</text>
<text x="335.93" y="483.81">+</text>
<text x="112.75" y="451.93">+</text>
<text x="42.52" y="122.70">+</text>
<text x="171.82" y="290.68">.</text>
<text x="468.80" y="71.29">.</text>
<text x="217.54" y="340.34">*</text>
<text x="108.04" y="43.61">+</text>
<text x="62.84" y="444.11">*</text>
<text x="351.38" y="202.90">+</text>
<text x="332.95" y="101.95">+</text>
<text x="430.35" y="228.18">.</text>
<text x="168.41" y="269.94">*</text>
<text x="300.71" y="423.90">.</text>
<text x="9.78" y="369.53">.</text>
<text x="454.43" y="406.79">*</text>
<text x="265.30" y="19.09">.</text>
<text x="497.16" y="354.30">.</text>
<text x="66.92" y="418.20">+</text>
<text x="487.96" y="106.61">+</text>
<text x="406.05" y="153.30">.</text>
<text x="302.15" y="181.76">.</text>
<text x="363.25" y="427.71">.</text>
<text x="270.74" y="134.66">+</text>
<text x="203.99" y="51.00">+</text>
<text x="231.62" y="137.70">.</text>
<text x="221.84" y="46.92">*</text>
<text x="340.11" y="35.76">.</text>
<text x="197.89" y="88.21">*</text>
<text x="185.14" y="123.86">+</text>
<text x="0.11" y="183.58">*</text>
<text x="212.22" y="354.45">.</text>
<text x="308.11" y="150.45">+</text>
<text x="459.00" y="137.30">+</text>
<text x="421.99" y="81.13">+</text>
<text x="222.58" y="362.59">+</text>
<text x="369.44" y="318.73">*</text>
<text x="340.73" y="265.97">.</text>
<text x="304.43" y="114.76">+</text>
<text x="331.81" y="18.41">+</text>
<text x="131.82" y="265.19">+</text>
<text x="461.05" y="157.39">.</text>
<text x="44.88" y="15.07">+</text>
<text x="77.36" y="190.08">+</text>
<text x="463.07" y="41.81">.</text>
<text x="284.07" y="411.16">*</text>
<text x="190.10" y="53.53">.</text>
<text x="381.81" y="205.93">+</text>
<text x="306.83" y="275.86">+</text>
<text x="140.50" y="218.36">+</text>
<text x="228.28" y="271.52">+</text>
<text x="275.82" y="451.66">.</text>
<text x="73.69" y="187.21">+</text>
<text x="209.99" y="0.77">.</text>
<text x="420.56" y="63.77">+</text>
<text x="104.20" y="483.07">+</text>
<text x="373.37" y="258.88">+</text>
<text x="438.33" y="88.05">.</text>
<text x="229.01" y="70.23">+</text>
<text x="186.74" y="60.30">.</text>
<text x="232.17" y="26.22">+</text>
<text x="72.13" y="142.21">+</text>
<text x="14.69" y="1.83">+</text>
<text x="261.26" y="58.59">*</text>
<text x="331.91" y="398.70">.</text>

</svg>