
<svg viewBox="0 0 500 500" xmlns="http://www.w.org/2000/svg" width="100%" height="100%" style="background-color: #0a0a14; font-family: 'Courier New', Courier, monospace;">
    <style>
        text { fill: #aaa; font-size: 10px; text-anchor: middle; dominant-baseline: middle; }
    </style>
    <text x="191.81" y="81.55">.</text>
<text x="56.04" y="409.21">+</text>
<text x="49.93" y="301.78">.</text>
<text x="366.96" y="357.51">.</text>
<text x="384.40" y="117.74">.</text>
<text x="309.25" y="223.91">+</text>
<text x="391.97" y="399.64">*</text>
<text x="265.25" y="73.23">+</text>
<text x="54.13" y="454.62">.</text>
<text x="403.39" y="89.78">.</text>
<text x="54.98" y="164.51">+</text>
<text x="131.28" y="37.50">+</text>
<text x="246.88" y="169.35">+</text>
<text x="392.61" y="71.63">+</text>
<text x="490.78" y="95.29">.</text>
<text x="6.07" y="16.79">+</text>
<text x="22.84" y="23.97">.</text>
<text x="407.82" y="12.49">.</text>
<text x="247.93" y="397.18">.</text>
<text x="1.71" y="219.47">+</text>
<text x="483.69" y="107.54">.</text>
<text x="65.73" y="384.82">.</text>
<text x="415.03" y="459.46">+</text>
<text x="304.55" y="121.73">*</text>
<text x="245.63" y="234.38">+</text>
<text x="465.62" y="328.16">.</text>
<text x="378.59" y="266.16">+</text>
<text x="181.55" y="261.97">.</text>
<text x="39.33" y="428.95">.</text>
<text x="326.71" y="274.93">.</text>
<text x="122.30" y="55.00">.</text>
<text x="357.10" y="91.44">.</text>
<text x="61.28" y="425.44">+</text>
<text x="271.11" y="308.15">+</text>
<text x="264.87" y="132.19">.</text>
<text x="86.86" y="9.12">*</text>
<text x="234.32" y="139.41">+</text>
<text x="350.83" y="142.57">+</text>
<text x="62.87" y="445.58">*</text>
<text x="116.68" y="19.04">+</text>
<text x="191.56" y="198.45">+</text>
<text x="142.37" y="81.41">+</text>
<text x="325.62" y="218.31">+</text>
<text x="356.59" y="297.54">.</text>
<text x="9.22" y="440.71">*</text>
<text x="368.76" y="94.58">.</text>
<text x="284.15" y="267.80">.</text>
<text x="68.12" y="323.42">*</text>
<text x="452.32" y="274.55">+</text>
<text x="38.41" y="319.43">+</text>
<text x="157.38" y="412.54">.</text>
<text x="142.97" y="176.86">+</text>
<text x="207.48" y="415.32">.</text>
<text x="152.98" y="259.16">+</text>
<text x="85.31" y="214.69">+</text>
<text x="128.21" y="448.60">.</text>
<text x="474.88" y="322.64">.</text>
<text x="4.94" y="322.27">.</text>
<text x="271.76" y="436.82">+</text>
<text x="482.15" y="438.65">+</text>
<text x="243.85" y="180.26">+</text>
<text x="184.58" y="407.62">.</text>
<text x="285.59" y="97.83">.</text>
<text x="385.42" y="300.03">+</text>
<text x="143.80" y="236.60">.</text>
<text x="56.24" y="443.40">+</text>
<text x="324.51" y="296.61">+</text>
<text x="413.09" y="445.87">+</text>
<text x="198.20" y="64.08">+</text>
<text x="212.81" y="282.64">+</text>
<text x="409.10" y="71.57">+</text>
<text x="293.14" y="106.31">+</text>
<text x="50.67" y="53.65">.</text>
<text x="228.31" y="26.80">.</text>
<text x="461.67" y="386.76">.</text>
<text x="281.55" y="155.12">*</text>
<text x="393.31" y="347.61">.</text>
<text x="180.64" y="296.49">+</text>
<text x="137.77" y="60.96">.</text>
<text x="146.29" y="103.50">+</text>
<text x="98.41" y="447.81">.</text>
<text x="446.23" y="90.44">.</text>
<text x="211.52" y="329.25">+</text>
<text x="150.27" y="253.63">.</text>
<text x="166.54" y="322.74">.</text>
<text x="335.66" y="191.30">+</text>
<text x="35.87" y="350.90">*</text>
<text x="288.64" y="245.97">+</text>
<text x="348.64" y="486.84">*</text>
<text x="73.42" y="59.70">.</text>
<text x="449.88" y="364.74">+</text>
<text x="466.69" y="94.28">+</text>
<text x="478.77" y="493.03">.</text>
<text x="427.93" y="259.82">+</text>
<text x="433.07" y="375.87">.</text>
<text x="431.84" y="108.54">+</text>
<text x="126.09" y="51.19">+</text>
<text x="497.61" y="208.59">+</text>
<text x="260.52" y="231.82">.</text>
<text x="112.22" y="355.00">+</text>
<text x="459.86" y="98.91">.</text>
<text x="357.26" y="473.05">.</text>
<text x="42.67" y="125.17">.</text>
<text x="178.66" y="184.42">*</text>
<text x="311.10" y="146.19">.</text>
<text x="448.62" y="57.16">.</text>
<text x="331.54" y="164.19">+</text>
<text x="239.30" y="479.53">+</text>
<text x="288.78" y="160.91">.</text>
<text x="437.72" y="69.00">*</text>
<text x="0.91" y="184.14">.</text>
<text x="70.90" y="257.28">.</text>
<text x="171.78" y="437.82">.</text>
<text x="432.70" y="141.12">*</text>
<text x="378.67" y="8.27">*</text>
<text x="359.07" y="30.50">.</text>
<text x="11.81" y="32.94">+</text>
<text x="410.35" y="168.73">.</text>
<text x="45.63" y="260.57">*</text>
<text x="61.93" y="284.13">*</text>
<text x="439.92" y="222.67">.</text>
<text x="280.60" y="393.65">.</text>
<text x="328.40" y="195.65">.</text>
<text x="101.66" y="121.71">.</text>
<text x="184.37" y="447.61">+</text>
<text x="388.58" y="268.32">+</text>
<text x="273.69" y="308.91">.</text>
<text x="157.83" y="89.08">+</text>
<text x="127.06" y="166.77">.</text>
<text x="19.37" y="153.33">.</text>
<text x="6.81" y="259.69">+</text>
<text x="436.14" y="184.47">*</text>
<text x="393.18" y="315.19">+</text>
<text x="148.62" y="438.42">+</text>
<text x="149.39" y="2.59">+</text>
<text x="174.16" y="188.92">+</text>
<text x="376.31" y="251.33">+</text>
<text x="367.48" y="188.24">.</text>
<text x="468.37" y="452.37">*</text>
<text x="381.57" y="185.63">+</text>
<text x="148.78" y="341.10">+</text>
<text x="190.05" y="449.17">+</text>
<text x="83.37" y="320.50">.</text>
<text x="114.68" y="272.21">.</text>
<text x="50.95" y="463.74">+</text>
<text x="179.70" y="180.26">+</text>
<text x="442.17" y="129.69">+</text>
<text x="341.64" y="39.13">.</text>
<text x="493.95" y="83.81">+</text>
<text x="338.63" y="48.90">+</text>
<text x="29.27" y="318.60">+</text>
<text x="373.35" y="90.43">+</text>
<text x="486.86" y="164.58">*</text>
<text x="134.58" y="174.43">*</text>
<text x="226.40" y="56.50">.</text>
<text x="165.15" y="280.87">.</text>
<text x="387.92" y="253.18">*</text>
<text x="164.79" y="494.95">+</text>
<text x="358.32" y="475.52">.</text>
<text x="115.88" y="39.51">.</text>
<text x="54.57" y="344.85">*</text>
<text x="302.57" y="208.01">+</text>
<text x="53.67" y="487.54">.</text>
<text x="169.63" y="15.66">+</text>
<text x="246.24" y="36.82">+</text>
<text x="348.98" y="165.56">.</text>
<text x="49.92" y="90.32">*</text>
<text x="329.06" y="170.75">.</text>
<text x="13.17" y="128.87">+</text>
<text x="447.83" y="335.39">.</text>
<text x="307.81" y="498.68">.</text>
<text x="356.13" y="250.24">+</text>
<text x="179.67" y="214.36">+</text>
<text x="292.25" y="265.82">+</text>
<text x="191.71" y="427.96">.</text>
<text x="429.20" y="101.23">.</text>
<text x="142.23" y="371.57">*</text>
<text x="38.25" y="358.40">+</text>
<text x="267.47" y="221.29">.</text>
<text x="34.03" y="484.18">.</text>
<text x="385.63" y="352.40">+</text>
<text x="258.88" y="63.24">.</text>
<text x="92.34" y="85.12">+</text>
<text x="291.58" y="319.32">+</text>
<text x="489.95" y="0.17">*</text>
<text x="337.09" y="84.62">+</text>
<text x="226.21" y="432.49">.</text>
<text x="464.23" y="493.53">+</text>
<text x="78.77" y="197.05">.</text>
<text x="484.59" y="123.67">+</text>
<text x="110.39" y="128.84">.</text>
<text x="415.54" y="73.80">.</text>
<text x="34.27" y="41.00">+</text>
<text x="407.99" y="282.66">+</text>
<text x="262.30" y="59.21">+</text>
<text x="162.38" y="471.39">.</text>
<text x="40.30" y="108.50">.</text>
<text x="394.41" y="471.11">*</text>
<text x="203.16" y="488.56">+</text>
<text x="46.24" y="229.90">+</text>
<text x="408.49" y="77.42">+</text>
<text x="171.76" y="43.37">+</text>
<text x="312.02" y="229.23">*</text>
<text x="351.07" y="88.84">+</text>
<text x="126.73" y="161.49">.</text>
<text x="173.02" y="366.92">+</text>
<text x="14.76" y="346.95">+</text>
<text x="423.79" y="128.43">.</text>
<text x="329.26" y="171.09">+</text>
<text x="443.31" y="131.78">+</text>
<text x="66.88" y="64.63">*</text>
<text x="165.42" y="50.55">*</text>
<text x="276.02" y="261.26">.</text>
<text x="446.65" y="393.30">*</text>
<text x="452.59" y="220.85">+</text>

</svg>