
<svg viewBox="0 0 500 500" xmlns="http://www.w.org/2000/svg" width="100%" height="100%" style="background-color: #0a0a14; font-family: 'Courier New', Courier, monospace;">
    <style>
        text { fill: #aaa; font-size: 10px; text-anchor: middle; dominant-baseline: middle; }
    </style>
    <text x="197.11" y="352.44">+</text>
<text x="30.17" y="224.59">.</text>
<text x="30.69" y="48.52">.</text>
<text x="208.21" y="61.47">.</text>
<text x="452.77" y="49.53">+</text>
<text x="9.61" y="372.72">.</text>
<text x="304.90" y="391.50">*</text>
<text x="268.30" y="33.52">.</text>
<text x="410.96" y="456.54">+</text>
<text x="457.93" y="136.15">+</text>
<text x="296.27" y="478.68">+</text>
<text x="97.84" y="132.53">+</text>
<text x="251.98" y="321.41">.</text>
<text x="207.15" y="317.80">+</text>
<text x="86.47" y="53.10">+</text>
<text x="147.06" y="137.79">+</text>
<text x="349.42" y="309.49">.</text>
<text x="397.45" y="478.00">.</text>
<text x="96.06" y="214.88">+</text>
<text x="181.02" y="294.39">+</text>
<text x="325.35" y="187.01">.</text>
<text x="366.48" y="239.48">+</text>
<text x="9.61" y="487.26">+</text>
<text x="153.40" y="78.89">.</text>
<text x="94.92" y="300.87">+</text>
<text x="194.77" y="235.43">.</text>
<text x="149.55" y="432.18">+</text>
<text x="438.60" y="291.95">+</text>
<text x="28.61" y="120.21">+</text>
<text x="98.60" y="222.10">*</text>
<text x="176.08" y="253.42">.</text>
<text x="478.77" y="345.60">*</text>
<text x="161.72" y="348.33">+</text>
<text x="203.27" y="157.25">.</text>
<text x="365.82" y="345.37">+</text>
<text x="160.78" y="7.94">.</text>
<text x="131.05" y="84.07">+</text>
<text x="255.64" y="230.85">.</text>
<text x="376.70" y="441.53">*</text>
<text x="394.54" y="94.70">*</text>
<text x="321.38" y="321.37">.</text>
<text x="346.74" y="455.22">+</text>
<text x="299.27" y="107.31">+</text>
<text x="202.70" y="260.36">+</text>
<text x="116.14" y="437.86">.</text>
<text x="147.94" y="497.90">+</text>
<text x="321.39" y="36.15">.</text>
<text x="19.58" y="386.13">+</text>
<text x="347.11" y="432.91">.</text>
<text x="89.50" y="444.97">+</text>
<text x="414.07" y="320.29">.</text>
<text x="259.73" y="334.60">+</text>
<text x="61.54" y="114.51">+</text>
<text x="389.96" y="320.55">.</text>
<text x="128.49" y="451.16">.</text>
<text x="93.26" y="469.98">+</text>
<text x="149.19" y="234.47">.</text>
<text x="104.00" y="100.31">.</text>
<text x="55.40" y="159.45">+</text>
<text x="104.18" y="127.16">+</text>
<text x="124.81" y="444.19">+</text>
<text x="161.04" y="432.90">+</text>
<text x="408.27" y="42.99">+</text>
<text x="289.21" y="40.35">+</text>
<text x="205.88" y="396.35">.</text>
<text x="298.55" y="425.86">+</text>
<text x="284.92" y="415.31">+</text>
<text x="245.45" y="283.53">.</text>
<text x="282.87" y="323.02">+</text>
<text x="124.35" y="494.10">+</text>
<text x="90.96" y="468.00">+</text>
<text x="180.04" y="497.09">.</text>
<text x="175.50" y="430.26">+</text>
<text x="129.52" y="111.52">.</text>
<text x="431.22" y="80.92">.</text>
<text x="262.24" y="358.80">+</text>
<text x="445.40" y="370.05">+</text>
<text x="330.84" y="461.49">+</text>
<text x="141.82" y="261.01">+</text>
<text x="389.77" y="306.58">*</text>
<text x="136.20" y="175.30">.</text>
<text x="261.55" y="318.23">.</text>
<text x="471.05" y="26.20">+</text>
<text x="356.68" y="252.47">.</text>
<text x="100.40" y="193.48">+</text>
<text x="1.91" y="363.51">*</text>
<text x="63.02" y="448.36">+</text>
<text x="283.75" y="149.55">+</text>
<text x="312.56" y="442.01">+</text>
<text x="450.07" y="90.10">.</text>
<text x="10.82" y="150.89">*</text>
<text x="381.90" y="6.91">*</text>
<text x="452.12" y="304.51">.</text>
<text x="111.58" y="118.48">+</text>
<text x="27.50" y="310.84">+</text>
<text x="197.39" y="457.00">+</text>
<text x="3.00" y="445.79">*</text>
<text x="22.92" y="431.81">.</text>
<text x="154.72" y="65.65">+</text>
<text x="377.97" y="87.73">*</text>
<text x="5.37" y="376.62">.</text>
<text x="111.86" y="200.41">+</text>
<text x="165.01" y="294.70">.</text>
<text x="396.12" y="292.48">*</text>
<text x="296.58" y="499.10">+</text>
<text x="229.80" y="48.18">+</text>
<text x="93.61" y="439.96">+</text>
<text x="195.28" y="400.08">+</text>
<text x="157.63" y="283.79">.</text>
<text x="355.07" y="59.84">+</text>
<text x="309.73" y="17.11">+</text>
<text x="220.12" y="190.30">.</text>
<text x="436.46" y="45.16">+</text>
<text x="287.67" y="128.69">*</text>
<text x="98.83" y="35.12">.</text>
<text x="316.98" y="326.03">.</text>
<text x="457.93" y="296.94">.</text>
<text x="360.86" y="299.20">.</text>
<text x="487.61" y="97.47">*</text>
<text x="480.49" y="162.72">+</text>
<text x="30.47" y="360.55">+</text>
<text x="287.47" y="159.81">+</text>
<text x="277.20" y="84.19">.</text>
<text x="231.21" y="127.68">.</text>
<text x="335.62" y="96.21">+</text>
<text x="237.39" y="297.72">.</text>
<text x="173.97" y="223.96">+</text>
<text x="69.33" y="62.92">+</text>
<text x="242.71" y="207.64">*</text>
<text x="136.31" y="60.70">+</text>
<text x="371.60" y="366.77">+</text>
<text x="164.49" y="125.75">+</text>
<text x="466.21" y="122.36">.</text>
<text x="276.29" y="59.75">*</text>
<text x="40.35" y="23.93">.</text>
<text x="407.21" y="405.93">.</text>
<text x="459.87" y="176.11">+</text>
<text x="25.64" y="147.66">+</text>
<text x="218.60" y="236.84">+</text>
<text x="2.64" y="33.64">+</text>
<text x="92.40" y="285.18">+</text>
<text x="75.59" y="250.19">.</text>
<text x="259.60" y="69.90">.</text>
<text x="100.28" y="319.87">.</text>
<text x="317.46" y="317.10">.</text>
<text x="156.34" y="443.42">+</text>
<text x="13.99" y="154.78">*</text>
<text x="59.13" y="2.89">.</text>
<text x="486.15" y="401.96">+</text>
<text x="444.19" y="182.67">.</text>
<text x="89.50" y="152.24">.</text>
<text x="380.08" y="458.89">+</text>
<text x="114.79" y="288.95">+</text>
<text x="38.66" y="299.00">.</text>
<text x="27.95" y="86.02">*</text>
<text x="330.40" y="101.50">.</text>
<text x="478.95" y="8.45">.</text>
<text x="209.45" y="393.80">+</text>
<text x="401.53" y="327.21">.</text>
<text x="0.57" y="71.17">.</text>
<text x="144.21" y="342.90">.</text>
<text x="89.87" y="484.16">.</text>
<text x="9.08" y="465.84">+</text>
<text x="5.83" y="196.42">+</text>
<text x="496.82" y="155.84">.</text>
<text x="455.31" y="446.47">+</text>
<text x="63.03" y="174.90">*</text>
<text x="288.65" y="79.49">.</text>
<text x="30.64" y="345.29">+</text>
<text x="192.39" y="119.21">.</text>
<text x="463.89" y="81.83">.</text>
<text x="370.97" y="396.21">.</text>
<text x="22.78" y="97.48">.</text>
<text x="361.71" y="383.04">.</text>
<text x="447.34" y="110.66">+</text>
<text x="288.63" y="65.25">*</text>
<text x="348.31" y="19.61">+</text>
<text x="259.18" y="125.72">+</text>
<text x="51.56" y="126.50">.</text>
<text x="466.03" y="494.37">.</text>
<text x="491.93" y="443.12">.</text>
<text x="258.03" y="490.02">+</text>
<text x="359.74" y="125.74">*</text>
<text x="165.44" y="184.33">.</text>
<text x="489.37" y="167.92">.</text>
<text x="379.50" y="128.35">+</text>
<text x="249.77" y="366.84">+</text>
<text x="360.28" y="177.00">*</text>
<text x="100.28" y="73.27">.</text>
<text x="357.74" y="332.85">.</text>
<text x="254.37" y="426.73">+</text>
<text x="406.41" y="305.35">*</text>
<text x="355.02" y="356.95">.</text>
<text x="137.65" y="197.12">*</text>
<text x="128.74" y="166.62">.</text>
<text x="14.61" y="335.41">.</text>
<text x="250.66" y="462.16">.</text>
<text x="212.17" y="318.02">*</text>
<text x="416.75" y="415.40">.</text>
<text x="317.75" y="125.27">+</text>
<text x="205.99" y="265.36">+</text>
<text x="374.46" y="347.35">+</text>
<text x="499.08" y="223.33">+</text>

</svg>