
<svg viewBox="0 0 500 500" xmlns="http://www.w.org/2000/svg" width="100%" height="100%" style="background-color: #0a0a14; font-family: 'Courier New', Courier, monospace;">
    <style>
        text { fill: #aaa; font-size: 10px; text-anchor: middle; dominant-baseline: middle; }
    </style>
    <text x="121.95" y="130.20">.</text>
<text x="203.60" y="202.23">+</text>
<text x="468.58" y="35.70">+</text>
<text x="284.82" y="23.45">*</text>
<text x="377.83" y="308.89">.</text>
<text x="403.06" y="297.02">+</text>
<text x="187.29" y="432.95">+</text>
<text x="253.64" y="274.64">+</text>
<text x="457.24" y="148.00">*</text>
<text x="285.63" y="180.97">.</text>
<text x="257.31" y="118.31">+</text>
<text x="35.62" y="250.14">.</text>
<text x="253.65" y="248.55">+</text>
<text x="208.60" y="258.82">+</text>
<text x="145.95" y="106.04">+</text>
<text x="309.68" y="473.11">+</text>
<text x="336.57" y="408.82">.</text>
<text x="58.55" y="497.88">+</text>
<text x="216.96" y="325.32">+</text>
<text x="322.10" y="285.18">+</text>
<text x="426.45" y="358.44">*</text>
<text x="56.48" y="99.55">.</text>
<text x="99.27" y="196.34">+</text>
<text x="409.14" y="121.18">+</text>
<text x="418.11" y="167.23">.</text>
<text x="205.76" y="184.98">.</text>
<text x="55.77" y="210.48">+</text>
<text x="434.02" y="276.80">.</text>
<text x="82.06" y="21.19">+</text>
<text x="480.76" y="417.75">+</text>
<text x="481.50" y="124.92">.</text>
<text x="317.30" y="285.18">+</text>
<text x="456.00" y="5.52">+</text>
<text x="335.64" y="147.46">.</text>
<text x="462.46" y="22.33">.</text>
<text x="110.46" y="264.58">.</text>
<text x="79.90" y="291.60">+</text>
<text x="354.87" y="107.47">.</text>
<text x="250.15" y="218.13">+</text>
<text x="151.23" y="335.18">*</text>
<text x="52.01" y="457.48">.</text>
<text x="364.21" y="380.81">+</text>
<text x="298.58" y="110.43">+</text>
<text x="217.92" y="20.07">.</text>
<text x="131.47" y="108.09">.</text>
<text x="69.06" y="61.17">+</text>
<text x="96.62" y="57.22">.</text>
<text x="6.95" y="319.60">+</text>
<text x="21.17" y="109.29">.</text>
<text x="176.78" y="166.43">+</text>
<text x="296.60" y="71.95">+</text>
<text x="64.98" y="196.85">+</text>
<text x="284.86" y="317.42">.</text>
<text x="192.23" y="253.05">+</text>
<text x="19.19" y="186.21">+</text>
<text x="105.40" y="271.25">*</text>
<text x="354.45" y="135.04">+</text>
<text x="471.10" y="279.03">*</text>
<text x="299.70" y="168.45">*</text>
<text x="415.17" y="330.68">+</text>
<text x="78.40" y="473.51">.</text>
<text x="77.62" y="355.21">+</text>
<text x="440.87" y="119.80">+</text>
<text x="431.26" y="456.39">.</text>
<text x="61.51" y="449.09">.</text>
<text x="139.50" y="400.36">+</text>
<text x="425.11" y="148.64">+</text>
<text x="316.85" y="149.35">+</text>
<text x="490.69" y="192.28">.</text>
<text x="295.30" y="354.45">.</text>
<text x="313.66" y="271.21">+</text>
<text x="388.44" y="154.94">+</text>
<text x="415.65" y="89.02">.</text>
<text x="289.53" y="492.30">*</text>
<text x="82.24" y="395.65">+</text>
<text x="127.81" y="71.44">.</text>
<text x="315.82" y="29.08">+</text>
<text x="346.49" y="62.52">.</text>
<text x="157.51" y="65.21">+</text>
<text x="254.24" y="290.72">.</text>
<text x="26.88" y="5.11">*</text>
<text x="101.79" y="306.07">.</text>
<text x="243.91" y="177.46">+</text>
<text x="321.48" y="228.07">*</text>
<text x="103.19" y="225.92">*</text>
<text x="42.69" y="104.13">+</text>
<text x="261.25" y="173.20">.</text>
<text x="193.37" y="498.30">.</text>
<text x="404.44" y="197.78">.</text>
<text x="404.98" y="434.81">.</text>
<text x="297.92" y="416.09">*</text>
<text x="182.20" y="154.85">+</text>
<text x="38.49" y="84.81">+</text>
<text x="422.38" y="265.38">*</text>
<text x="129.04" y="73.72">+</text>
<text x="491.99" y="320.85">+</text>
<text x="175.57" y="471.45">+</text>
<text x="4.70" y="167.08">*</text>
<text x="262.01" y="303.63">.</text>
<text x="422.12" y="395.20">+</text>
<text x="211.36" y="308.27">.</text>
<text x="399.02" y="56.72">.</text>
<text x="323.25" y="449.55">+</text>
<text x="42.09" y="357.13">.</text>
<text x="401.84" y="325.21">+</text>
<text x="329.84" y="11.58">+</text>
<text x="455.35" y="442.58">+</text>
<text x="300.95" y="117.15">+</text>
<text x="377.58" y="467.28">+</text>
<text x="17.86" y="280.45">.</text>
<text x="467.32" y="472.08">*</text>
<text x="340.97" y="204.92">+</text>
<text x="489.97" y="12.60">*</text>
<text x="293.58" y="397.36">+</text>
<text x="8.49" y="56.12">+</text>
<text x="150.04" y="7.88">.</text>
<text x="331.32" y="393.53">.</text>
<text x="499.37" y="93.19">+</text>
<text x="130.46" y="11.86">+</text>
<text x="327.31" y="42.73">*</text>
<text x="224.55" y="358.87">.</text>
<text x="128.56" y="340.46">.</text>
<text x="20.92" y="72.80">.</text>
<text x="6.78" y="30.10">*</text>
<text x="378.04" y="387.39">.</text>
<text x="279.45" y="256.73">*</text>
<text x="61.68" y="326.60">+</text>
<text x="459.05" y="94.87">.</text>
<text x="370.55" y="39.28">.</text>
<text x="197.03" y="136.15">.</text>
<text x="41.48" y="293.42">.</text>
<text x="84.79" y="225.06">*</text>
<text x="304.99" y="242.12">.</text>
<text x="182.77" y="191.04">*</text>
<text x="375.93" y="410.38">.</text>
<text x="34.39" y="47.27">*</text>
<text x="134.40" y="181.14">.</text>
<text x="329.95" y="299.93">*</text>
<text x="272.36" y="0.94">.</text>
<text x="325.16" y="68.13">+</text>
<text x="437.36" y="166.37">+</text>
<text x="40.44" y="351.69">.</text>
<text x="129.82" y="320.60">+</text>
<text x="237.68" y="372.78">+</text>
<text x="308.12" y="197.24">.</text>
<text x="63.31" y="272.89">+</text>
<text x="214.98" y="166.44">+</text>
<text x="30.83" y="72.51">+</text>
<text x="389.87" y="121.07">.</text>
<text x="46.80" y="49.03">+</text>
<text x="211.92" y="14.51">.</text>
<text x="31.79" y="163.54">+</text>
<text x="88.18" y="97.67">.</text>
<text x="23.66" y="379.90">+</text>
<text x="93.24" y="406.48">*</text>
<text x="38.94" y="410.07">.</text>
<text x="259.61" y="445.92">+</text>
<text x="113.79" y="485.59">+</text>
<text x="234.66" y="245.01">+</text>
<text x="305.38" y="60.96">+</text>
<text x="267.59" y="304.25">+</text>
<text x="253.18" y="241.17">.</text>
<text x="353.66" y="33.58">.</text>
<text x="380.30" y="296.92">+</text>
<text x="194.92" y="201.24">+</text>
<text x="73.84" y="248.44">.</text>
<text x="494.28" y="12.85">+</text>
<text x="141.80" y="130.95">.</text>
<text x="242.48" y="69.31">.</text>
<text x="228.65" y="170.31">.</text>
<text x="3.60" y="464.42">.</text>
<text x="22.58" y="194.59">+</text>
<text x="216.34" y="231.48">+</text>
<text x="88.37" y="281.94">.</text>
<text x="129.83" y="209.34">*</text>
<text x="148.33" y="208.39">.</text>
<text x="336.13" y="167.69">+</text>
<text x="248.34" y="307.88">*</text>
<text x="14.68" y="493.61">*</text>
<text x="5.10" y="412.50">.</text>
<text x="402.78" y="52.59">*</text>
<text x="155.81" y="451.28">.</text>
<text x="400.23" y="352.82">+</text>
<text x="81.60" y="170.94">.</text>
<text x="10.29" y="155.08">.</text>
<text x="194.46" y="390.95">+</text>
<text x="419.86" y="47.77">*</text>
<text x="271.72" y="282.86">+</text>
<text x="193.91" y="129.27">.</text>
<text x="360.51" y="295.65">+</text>
<text x="463.47" y="46.16">+</text>
<text x="428.82" y="173.80">*</text>
<text x="431.93" y="472.06">*</text>
<text x="141.60" y="54.27">.</text>
<text x="46.78" y="397.70">+</text>
<text x="278.89" y="7.34">.</text>
<text x="433.21" y="139.75">.</text>
<text x="178.55" y="177.70">+</text>
<text x="274.27" y="357.12">.</text>
<text x="401.17" y="460.42">+</text>
<text x="349.40" y="117.19">+</text>
<text x="472.99" y="268.43">.</text>
<text x="471.98" y="353.90">.</text>
<text x="49.46" y="481.78">.</text>
<text x="8.91" y="380.16">+</text>
<text x="244.03" y="456.98">.</text>
<text x="321.88" y="496.93">+</text>
<text x="100.25" y="485.30">.</text>
<text x="391.53" y="237.52">.</text>
<text x="64.31" y="158.33">+</text>
<text x="216.10" y="346.97">+</text>
<text x="187.98" y="115.05">.</text>
<text x="320.63" y="133.65">+</text>
<text x="154.44" y="84.94">+</text>
<text x="168.11" y="391.95">.</text>
<text x="472.36" y="22.87">+</text>
<text x="278.35" y="328.63">+</text>
<text x="21.70" y="328.42">.</text>
<text x="407.79" y="261.73">.</text>
<text x="181.72" y="230.73">+</text>
<text x="263.55" y="224.30">+</text>

</svg>