
<svg viewBox="0 0 500 500" xmlns="http://www.w.org/2000/svg" width="100%" height="100%" style="background-color: #0a0a14; font-family: 'Courier New', Courier, monospace;">
    <style>
        text { fill: #aaa; font-size: 10px; text-anchor: middle; dominant-baseline: middle; }
    </style>
    <text x="73.92" y="352.27">+</text>
<text x="240.60" y="161.39">+</text>
<text x="420.39" y="17.63">*</text>
<text x="40.54" y="213.00">+</text>
<text x="301.60" y="321.76">*</text>
<text x="342.47" y="488.66">.</text>
<text x="495.43" y="423.03">*</text>
<text x="449.28" y="28.21">.</text>
<text x="213.09" y="73.79">+</text>
<text x="295.84" y="314.67">+</text>
<text x="357.21" y="456.98">.</text>
<text x="443.62" y="352.99">.</text>
<text x="494.51" y="109.41">+</text>
<text x="307.49" y="373.00">+</text>
<text x="399.56" y="95.62">*</text>
<text x="345.90" y="359.29">*</text>
<text x="448.87" y="140.68">+</text>
<text x="305.16" y="150.49">+</text>
<text x="151.10" y="362.69">*</text>
<text x="389.10" y="289.83">+</text>
<text x="374.06" y="7.98">+</text>
<text x="355.20" y="147.57">+</text>
<text x="318.52" y="266.59">.</text>
<text x="435.83" y="339.74">.</text>
<text x="353.46" y="335.70">*</text>
<text x="129.92" y="4.29">.</text>
<text x="469.81" y="249.14">.</text>
<text x="287.83" y="129.57">+</text>
<text x="254.86" y="292.01">*</text>
<text x="252.52" y="179.73">.</text>
<text x="144.24" y="478.17">.</text>
<text x="489.86" y="176.76">*</text>
<text x="142.96" y="247.50">.</text>
<text x="322.12" y="13.78">+</text>
<text x="443.49" y="330.04">.</text>
<text x="353.07" y="299.35">.</text>
<text x="436.02" y="416.37">.</text>
<text x="417.31" y="285.28">+</text>
<text x="25.49" y="48.44">.</text>
<text x="451.36" y="179.11">+</text>
<text x="325.89" y="40.36">.</text>
<text x="48.94" y="45.25">.</text>
<text x="363.68" y="30.62">.</text>
<text x="142.06" y="29.50">.</text>
<text x="287.75" y="375.80">+</text>
<text x="119.94" y="247.81">.</text>
<text x="87.50" y="490.45">.</text>
<text x="478.11" y="160.72">+</text>
<text x="343.82" y="258.07">.</text>
<text x="360.79" y="252.32">.</text>
<text x="468.56" y="80.28">.</text>
<text x="419.01" y="364.02">+</text>
<text x="236.01" y="214.06">+</text>
<text x="35.79" y="148.80">+</text>
<text x="446.96" y="258.34">+</text>
<text x="355.58" y="216.38">.</text>
<text x="409.31" y="496.11">.</text>
<text x="490.40" y="382.55">+</text>
<text x="212.98" y="152.33">+</text>
<text x="494.05" y="432.39">.</text>
<text x="242.26" y="436.87">+</text>
<text x="119.21" y="89.06">+</text>
<text x="412.64" y="201.21">+</text>
<text x="454.77" y="391.79">.</text>
<text x="363.19" y="282.14">.</text>
<text x="150.15" y="146.03">.</text>
<text x="485.81" y="166.24">+</text>
<text x="53.11" y="111.34">+</text>
<text x="402.61" y="373.88">+</text>
<text x="413.81" y="54.44">+</text>
<text x="226.14" y="464.14">.</text>
<text x="206.39" y="195.21">.</text>
<text x="162.23" y="486.12">+</text>
<text x="165.18" y="186.85">.</text>
<text x="128.84" y="431.59">.</text>
<text x="436.36" y="470.50">.</text>
<text x="142.32" y="7.70">+</text>
<text x="240.86" y="439.17">+</text>
<text x="50.91" y="284.93">+</text>
<text x="402.64" y="27.69">.</text>
<text x="52.93" y="141.21">+</text>
<text x="326.76" y="403.91">.</text>
<text x="29.93" y="189.90">.</text>
<text x="322.44" y="250.95">.</text>
<text x="334.92" y="181.77">.</text>
<text x="325.58" y="181.20">.</text>
<text x="304.66" y="54.44">+</text>
<text x="22.40" y="345.03">.</text>
<text x="165.49" y="438.02">.</text>
<text x="14.48" y="414.02">*</text>
<text x="244.56" y="219.12">.</text>
<text x="18.96" y="261.34">+</text>
<text x="41.06" y="294.16">*</text>
<text x="185.53" y="41.62">.</text>
<text x="4.13" y="4.65">+</text>
<text x="165.39" y="57.72">.</text>
<text x="242.61" y="455.03">+</text>
<text x="60.75" y="370.22">+</text>
<text x="402.21" y="127.40">*</text>
<text x="230.39" y="318.16">*</text>
<text x="21.93" y="49.23">*</text>
<text x="7.48" y="491.81">+</text>
<text x="269.58" y="321.30">.</text>
<text x="41.22" y="447.27">+</text>
<text x="74.43" y="142.24">.</text>
<text x="346.93" y="328.47">+</text>
<text x="183.47" y="109.02">+</text>
<text x="484.23" y="423.27">.</text>
<text x="366.30" y="403.32">.</text>
<text x="356.35" y="449.52">+</text>
<text x="482.82" y="231.24">.</text>
<text x="91.51" y="218.43">+</text>
<text x="224.22" y="468.51">+</text>
<text x="203.42" y="286.31">.</text>
<text x="440.92" y="281.13">.</text>
<text x="61.70" y="365.19">+</text>
<text x="157.98" y="162.58">.</text>
<text x="6.23" y="82.33">*</text>
<text x="379.72" y="359.52">.</text>
<text x="14.89" y="184.02">+</text>
<text x="73.18" y="72.40">.</text>
<text x="168.38" y="161.33">.</text>
<text x="239.00" y="152.65">.</text>
<text x="33.94" y="370.05">+</text>
<text x="252.57" y="166.64">.</text>
<text x="246.56" y="396.86">.</text>
<text x="91.14" y="303.49">+</text>
<text x="430.38" y="212.32">.</text>
<text x="82.03" y="406.26">+</text>
<text x="408.55" y="249.98">*</text>
<text x="493.04" y="8.31">.</text>
<text x="487.82" y="279.34">.</text>
<text x="202.94" y="394.65">+</text>
<text x="185.02" y="143.14">.</text>
<text x="317.90" y="291.50">*</text>
<text x="268.32" y="9.40">+</text>
<text x="280.48" y="61.95">.</text>
<text x="261.42" y="218.64">*</text>
<text x="161.50" y="11.89">+</text>
<text x="129.47" y="186.85">.</text>
<text x="374.00" y="147.33">.</text>
<text x="80.65" y="211.02">.</text>
<text x="9.62" y="405.99">+</text>
<text x="450.30" y="182.15">*</text>
<text x="214.45" y="242.23">.</text>
<text x="486.18" y="428.08">*</text>
<text x="66.63" y="40.81">*</text>
<text x="17.65" y="464.62">+</text>
<text x="492.36" y="203.97">.</text>
<text x="411.62" y="151.24">+</text>
<text x="315.53" y="392.27">+</text>
<text x="204.50" y="404.27">+</text>
<text x="84.66" y="125.26">.</text>
<text x="93.87" y="84.19">.</text>
<text x="490.70" y="367.39">+</text>
<text x="417.27" y="154.96">+</text>
<text x="161.28" y="147.78">.</text>
<text x="57.36" y="235.89">+</text>
<text x="494.57" y="53.39">.</text>
<text x="178.64" y="382.38">+</text>
<text x="176.94" y="97.84">+</text>
<text x="86.31" y="478.23">+</text>
<text x="439.83" y="442.25">.</text>
<text x="376.32" y="498.10">+</text>
<text x="102.11" y="264.97">.</text>
<text x="233.66" y="396.97">.</text>
<text x="238.70" y="130.43">.</text>
<text x="201.70" y="466.72">+</text>
<text x="80.31" y="497.34">.</text>
<text x="430.61" y="42.12">.</text>
<text x="106.55" y="27.80">+</text>
<text x="76.31" y="15.85">.</text>
<text x="265.46" y="478.96">+</text>
<text x="491.93" y="249.95">+</text>
<text x="320.08" y="295.55">.</text>
<text x="336.08" y="304.04">+</text>
<text x="106.23" y="273.42">.</text>
<text x="311.38" y="174.59">.</text>
<text x="28.81" y="232.13">*</text>
<text x="433.73" y="238.45">+</text>
<text x="157.59" y="6.78">*</text>
<text x="294.68" y="7.67">+</text>
<text x="363.70" y="439.57">+</text>
<text x="246.40" y="335.56">+</text>
<text x="443.18" y="436.45">.</text>
<text x="160.03" y="361.38">+</text>
<text x="433.38" y="460.25">*</text>
<text x="387.62" y="280.41">+</text>
<text x="360.53" y="114.65">.</text>
<text x="440.24" y="324.41">+</text>
<text x="36.47" y="276.88">+</text>
<text x="64.67" y="341.99">.</text>
<text x="234.36" y="98.82">+</text>
<text x="349.37" y="202.13">.</text>
<text x="434.52" y="233.95">.</text>
<text x="369.75" y="36.32">.</text>
<text x="430.87" y="18.47">+</text>
<text x="486.82" y="459.97">+</text>
<text x="316.24" y="157.28">.</text>
<text x="465.58" y="12.53">+</text>
<text x="214.04" y="441.08">*</text>
<text x="104.48" y="3.93">+</text>
<text x="401.42" y="161.69">.</text>
<text x="355.15" y="36.65">+</text>
<text x="315.44" y="177.51">.</text>
<text x="107.95" y="172.25">+</text>
<text x="450.74" y="157.14">+</text>
<text x="343.76" y="78.09">+</text>
<text x="277.21" y="342.98">+</text>
<text x="122.75" y="14.49">.</text>
<text x="475.34" y="234.00">+</text>
<text x="489.64" y="381.20">*</text>
<text x="388.23" y="496.22">+</text>
<text x="314.53" y="223.70">+</text>
<text x="71.35" y="176.73">.</text>
<text x="148.65" y="303.72">.</text>
<text x="345.50" y="289.81">+</text>
<text x="431.77" y="445.92">*</text>
<text x="493.23" y="339.29">.</text>
<text x="391.63" y="114.87">+</text>
<text x="410.17" y="40.69">+</text>

</svg>