
<svg viewBox="0 0 500 500" xmlns="http://www.w.org/2000/svg" width="100%" height="100%" style="background-color: #0a0a14; font-family: 'Courier New', Courier, monospace;">
    <style>
        text { fill: #aaa; font-size: 10px; text-anchor: middle; dominant-baseline: middle; }
    </style>
    <text x="143.00" y="72.03">.</text>
<text x="59.76" y="499.41">*</text>
<text x="108.12" y="176.08">*</text>
<text x="137.33" y="250.58">.</text>
<text x="390.24" y="461.58">.</text>
<text x="461.61" y="198.61">+</text>
<text x="389.73" y="429.94">.</text>
<text x="488.73" y="194.19">.</text>
<text x="229.31" y="334.17">.</text>
<text x="190.97" y="220.57">.</text>
<text x="65.58" y="344.68">+</text>
<text x="266.10" y="247.67">+</text>
<text x="169.20" y="315.48">.</text>
<text x="256.29" y="173.76">+</text>
<text x="264.08" y="306.26">+</text>
<text x="202.62" y="296.64">+</text>
<text x="158.25" y="78.08">.</text>
<text x="440.60" y="163.05">+</text>
<text x="99.67" y="283.02">.</text>
<text x="127.74" y="266.30">+</text>
<text x="386.95" y="421.72">+</text>
<text x="28.66" y="204.54">+</text>
<text x="104.31" y="197.57">+</text>
<text x="395.72" y="260.75">.</text>
<text x="255.64" y="24.27">+</text>
<text x="184.97" y="321.04">+</text>
<text x="227.43" y="493.27">+</text>
<text x="153.37" y="273.13">*</text>
<text x="458.03" y="307.59">+</text>
<text x="423.65" y="201.85">*</text>
<text x="0.37" y="130.30">.</text>
<text x="165.49" y="437.54">*</text>
<text x="52.24" y="438.77">.</text>
<text x="286.31" y="267.34">.</text>
<text x="188.54" y="75.04">.</text>
<text x="257.46" y="122.82">+</text>
<text x="112.79" y="334.47">.</text>
<text x="153.60" y="392.95">+</text>
<text x="30.79" y="131.23">*</text>
<text x="31.67" y="250.71">+</text>
<text x="221.80" y="186.99">.</text>
<text x="342.69" y="93.97">*</text>
<text x="370.38" y="218.21">+</text>
<text x="393.37" y="405.89">+</text>
<text x="54.09" y="381.80">+</text>
<text x="246.15" y="422.23">+</text>
<text x="113.13" y="137.55">.</text>
<text x="466.43" y="229.32">+</text>
<text x="85.64" y="11.41">+</text>
<text x="191.61" y="488.49">.</text>
<text x="285.73" y="451.18">*</text>
<text x="334.32" y="201.91">.</text>
<text x="353.37" y="104.33">.</text>
<text x="411.75" y="377.18">+</text>
<text x="310.87" y="222.75">.</text>
<text x="326.81" y="472.21">.</text>
<text x="302.46" y="170.36">*</text>
<text x="285.88" y="67.14">.</text>
<text x="282.15" y="66.87">+</text>
<text x="59.94" y="355.82">+</text>
<text x="103.24" y="63.76">*</text>
<text x="325.21" y="494.54">+</text>
<text x="197.16" y="276.11">*</text>
<text x="379.24" y="3.39">.</text>
<text x="172.51" y="415.38">.</text>
<text x="359.60" y="409.38">.</text>
<text x="26.05" y="385.90">+</text>
<text x="235.20" y="428.75">+</text>
<text x="211.11" y="493.09">+</text>
<text x="335.95" y="272.57">.</text>
<text x="217.12" y="292.21">*</text>
<text x="340.96" y="229.06">+</text>
<text x="397.73" y="206.38">+</text>
<text x="479.09" y="274.90">.</text>
<text x="409.02" y="177.65">+</text>
<text x="155.78" y="224.19">+</text>
<text x="498.11" y="170.14">*</text>
<text x="46.57" y="1.90">+</text>
<text x="70.10" y="386.25">+</text>
<text x="142.60" y="326.41">+</text>
<text x="198.22" y="0.92">+</text>
<text x="185.29" y="224.41">+</text>
<text x="207.36" y="177.11">.</text>
<text x="343.15" y="147.05">+</text>
<text x="74.95" y="127.70">*</text>
<text x="465.68" y="322.62">.</text>
<text x="76.28" y="477.88">+</text>
<text x="286.29" y="104.31">+</text>
<text x="444.81" y="214.72">+</text>
<text x="87.37" y="102.98">+</text>
<text x="109.92" y="343.65">*</text>
<text x="77.65" y="281.35">.</text>
<text x="379.10" y="408.08">.</text>
<text x="267.70" y="41.57">+</text>
<text x="431.52" y="49.10">+</text>
<text x="299.97" y="114.83">.</text>
<text x="169.87" y="356.18">+</text>
<text x="331.41" y="5.30">.</text>
<text x="183.28" y="275.65">+</text>
<text x="31.78" y="58.87">*</text>
<text x="20.44" y="9.55">*</text>
<text x="210.83" y="439.82">*</text>
<text x="3.74" y="105.25">*</text>
<text x="104.77" y="448.55">.</text>
<text x="118.98" y="194.87">.</text>
<text x="373.06" y="95.63">*</text>
<text x="27.53" y="431.27">.</text>
<text x="493.14" y="189.38">*</text>
<text x="352.59" y="455.59">.</text>
<text x="429.11" y="45.53">+</text>
<text x="25.83" y="450.69">+</text>
<text x="135.35" y="85.86">*</text>
<text x="363.36" y="450.39">+</text>
<text x="279.71" y="364.18">.</text>
<text x="12.77" y="330.89">+</text>
<text x="45.78" y="243.66">.</text>
<text x="2.31" y="356.95">.</text>
<text x="487.77" y="26.64">*</text>
<text x="34.00" y="258.56">+</text>
<text x="397.94" y="291.88">+</text>
<text x="392.00" y="402.85">+</text>
<text x="246.32" y="397.78">+</text>
<text x="300.17" y="156.48">+</text>
<text x="99.48" y="363.17">.</text>
<text x="73.15" y="394.93">.</text>
<text x="383.24" y="138.84">*</text>
<text x="337.17" y="386.49">*</text>
<text x="388.62" y="446.09">.</text>
<text x="44.45" y="305.83">*</text>
<text x="142.62" y="480.89">.</text>
<text x="413.28" y="224.79">+</text>
<text x="404.67" y="459.14">.</text>
<text x="117.10" y="408.99">+</text>
<text x="54.22" y="354.20">.</text>
<text x="380.25" y="295.62">.</text>
<text x="141.70" y="426.16">.</text>
<text x="157.52" y="267.31">.</text>
<text x="352.61" y="318.86">*</text>
<text x="463.61" y="379.47">+</text>
<text x="193.95" y="19.77">+</text>
<text x="109.53" y="296.66">.</text>
<text x="129.65" y="94.62">+</text>
<text x="112.00" y="372.68">.</text>
<text x="436.02" y="428.78">.</text>
<text x="350.53" y="14.95">.</text>
<text x="241.18" y="148.05">.</text>
<text x="298.04" y="468.57">.</text>
<text x="432.09" y="44.52">+</text>
<text x="412.33" y="455.93">.</text>
<text x="391.10" y="14.61">.</text>
<text x="139.76" y="438.84">*</text>
<text x="134.85" y="451.68">.</text>
<text x="376.25" y="305.00">.</text>
<text x="113.63" y="321.97">*</text>
<text x="213.88" y="291.25">+</text>
<text x="61.44" y="460.88">+</text>
<text x="336.70" y="392.32">+</text>
<text x="259.00" y="221.60">+</text>
<text x="253.46" y="321.86">*</text>
<text x="114.18" y="379.29">+</text>
<text x="20.74" y="115.23">+</text>
<text x="452.95" y="433.34">+</text>
<text x="353.41" y="194.64">.</text>
<text x="312.56" y="369.67">*</text>
<text x="88.98" y="371.71">.</text>
<text x="172.61" y="181.08">.</text>
<text x="405.60" y="280.13">+</text>
<text x="99.82" y="4.06">*</text>
<text x="481.86" y="187.69">.</text>
<text x="213.64" y="145.10">+</text>
<text x="472.34" y="1.57">+</text>
<text x="304.81" y="225.43">+</text>
<text x="314.17" y="415.08">*</text>
<text x="278.91" y="122.75">+</text>
<text x="68.17" y="202.32">.</text>
<text x="233.07" y="75.91">+</text>
<text x="4.77" y="81.80">*</text>
<text x="472.00" y="12.76">.</text>
<text x="23.34" y="438.92">.</text>
<text x="441.81" y="436.33">+</text>
<text x="1.61" y="260.80">+</text>
<text x="8.59" y="19.48">*</text>
<text x="352.22" y="426.45">.</text>
<text x="435.49" y="416.27">+</text>
<text x="258.88" y="98.51">.</text>
<text x="268.90" y="157.39">.</text>
<text x="263.88" y="8.27">*</text>
<text x="156.44" y="169.45">+</text>
<text x="449.77" y="274.15">*</text>
<text x="192.38" y="70.62">.</text>
<text x="209.91" y="238.12">+</text>
<text x="61.10" y="200.16">.</text>
<text x="220.45" y="373.94">+</text>
<text x="364.07" y="314.96">.</text>
<text x="366.56" y="37.35">.</text>
<text x="267.88" y="195.78">+</text>
<text x="23.86" y="478.26">+</text>
<text x="139.99" y="192.56">+</text>
<text x="12.30" y="257.65">*</text>

</svg>