
<svg viewBox="0 0 500 500" xmlns="http://www.w.org/2000/svg" width="100%" height="100%" style="background-color: #0a0a14; font-family: 'Courier New', Courier, monospace;">
    <style>
        text { fill: #aaa; font-size: 10px; text-anchor: middle; dominant-baseline: middle; }
    </style>
    <text x="462.93" y="465.88">+</text>
<text x="396.72" y="173.65">.</text>
<text x="267.41" y="214.12">.</text>
<text x="26.66" y="39.88">*</text>
<text x="271.03" y="380.51">.</text>
<text x="474.34" y="94.41">+</text>
<text x="353.27" y="14.04">+</text>
<text x="20.47" y="111.32">.</text>
<text x="257.00" y="481.55">.</text>
<text x="454.79" y="148.48">+</text>
<text x="175.60" y="201.40">+</text>
<text x="394.30" y="204.70">.</text>
<text x="183.13" y="13.27">.</text>
<text x="234.22" y="186.55">.</text>
<text x="90.29" y="29.91">.</text>
<text x="257.10" y="202.73">.</text>
<text x="459.16" y="88.16">+</text>
<text x="363.38" y="134.52">+</text>
<text x="252.72" y="311.72">.</text>
<text x="34.57" y="385.58">.</text>
<text x="3.88" y="230.88">.</text>
<text x="268.81" y="44.54">+</text>
<text x="77.35" y="53.80">+</text>
<text x="119.73" y="358.13">.</text>
<text x="17.17" y="288.85">+</text>
<text x="42.40" y="31.58">+</text>
<text x="327.75" y="353.74">+</text>
<text x="371.04" y="52.07">+</text>
<text x="103.05" y="428.85">.</text>
<text x="138.47" y="56.99">.</text>
<text x="51.93" y="82.20">*</text>
<text x="484.35" y="216.15">+</text>
<text x="421.58" y="45.46">.</text>
<text x="11.14" y="340.16">.</text>
<text x="260.90" y="416.95">+</text>
<text x="146.15" y="425.00">+</text>
<text x="268.68" y="0.07">*</text>
<text x="237.43" y="481.93">+</text>
<text x="183.70" y="181.97">.</text>
<text x="142.02" y="125.78">.</text>
<text x="444.76" y="476.04">+</text>
<text x="378.72" y="232.52">.</text>
<text x="336.90" y="472.27">+</text>
<text x="103.13" y="91.15">.</text>
<text x="264.88" y="138.45">*</text>
<text x="385.14" y="221.26">+</text>
<text x="119.80" y="229.99">+</text>
<text x="237.39" y="240.67">.</text>
<text x="351.48" y="325.79">+</text>
<text x="107.01" y="237.78">.</text>
<text x="161.60" y="287.27">+</text>
<text x="225.27" y="483.93">+</text>
<text x="429.70" y="160.93">+</text>
<text x="107.45" y="495.14">+</text>
<text x="326.24" y="361.56">+</text>
<text x="174.71" y="360.04">+</text>
<text x="12.68" y="136.50">.</text>
<text x="155.99" y="40.46">+</text>
<text x="282.22" y="235.93">.</text>
<text x="450.76" y="186.01">+</text>
<text x="442.02" y="397.68">+</text>
<text x="395.09" y="249.24">.</text>
<text x="382.44" y="107.69">+</text>
<text x="178.95" y="496.09">.</text>
<text x="20.17" y="302.54">+</text>
<text x="169.12" y="193.12">+</text>
<text x="104.35" y="324.82">.</text>
<text x="113.91" y="292.52">*</text>
<text x="100.93" y="460.09">+</text>
<text x="193.78" y="186.69">.</text>
<text x="240.53" y="143.50">.</text>
<text x="49.47" y="117.68">+</text>
<text x="404.69" y="54.18">+</text>
<text x="260.49" y="0.20">+</text>
<text x="394.71" y="378.68">+</text>
<text x="290.80" y="264.47">+</text>
<text x="358.94" y="248.39">.</text>
<text x="151.98" y="99.43">*</text>
<text x="269.42" y="410.15">+</text>
<text x="124.79" y="468.38">+</text>
<text x="121.52" y="145.61">.</text>
<text x="31.87" y="414.22">+</text>
<text x="424.97" y="36.43">+</text>
<text x="315.99" y="153.90">+</text>
<text x="283.53" y="124.73">.</text>
<text x="44.41" y="250.86">.</text>
<text x="460.01" y="389.71">.</text>
<text x="316.67" y="51.92">+</text>
<text x="222.42" y="87.19">.</text>
<text x="233.12" y="98.47">.</text>
<text x="171.28" y="493.67">*</text>
<text x="458.02" y="353.06">+</text>
<text x="427.27" y="295.88">+</text>
<text x="15.26" y="150.64">.</text>
<text x="244.40" y="268.82">+</text>
<text x="434.20" y="146.23">.</text>
<text x="418.58" y="374.89">+</text>
<text x="190.96" y="108.29">+</text>
<text x="308.42" y="143.23">+</text>
<text x="37.87" y="411.27">+</text>
<text x="437.80" y="463.82">+</text>
<text x="22.55" y="43.98">*</text>
<text x="235.31" y="68.85">.</text>
<text x="465.31" y="31.78">.</text>
<text x="272.93" y="468.47">.</text>
<text x="179.67" y="313.92">.</text>
<text x="483.66" y="39.67">+</text>
<text x="328.63" y="312.95">+</text>
<text x="159.96" y="275.44">*</text>
<text x="390.30" y="448.37">+</text>
<text x="314.05" y="490.89">.</text>
<text x="133.98" y="80.18">+</text>
<text x="228.22" y="389.92">.</text>
<text x="138.74" y="295.30">.</text>
<text x="192.17" y="79.66">.</text>
<text x="50.71" y="17.33">.</text>
<text x="310.39" y="435.87">.</text>
<text x="75.34" y="461.35">+</text>
<text x="173.63" y="199.19">.</text>
<text x="45.01" y="135.62">+</text>
<text x="446.22" y="106.99">+</text>
<text x="339.08" y="217.80">.</text>
<text x="455.80" y="433.24">.</text>
<text x="119.12" y="358.51">+</text>
<text x="415.01" y="59.90">+</text>
<text x="137.30" y="269.24">+</text>
<text x="369.14" y="81.94">.</text>
<text x="309.32" y="454.31">+</text>
<text x="435.24" y="146.46">.</text>
<text x="444.59" y="460.91">+</text>
<text x="20.08" y="33.21">*</text>
<text x="316.20" y="425.56">*</text>
<text x="492.52" y="197.96">*</text>
<text x="37.68" y="292.41">.</text>
<text x="425.32" y="451.21">+</text>
<text x="80.55" y="134.12">+</text>
<text x="176.71" y="124.07">+</text>
<text x="411.43" y="436.50">+</text>
<text x="115.51" y="165.35">*</text>
<text x="41.00" y="194.11">.</text>
<text x="33.92" y="390.39">.</text>
<text x="416.39" y="178.90">.</text>
<text x="114.66" y="482.92">+</text>
<text x="283.47" y="60.64">+</text>
<text x="199.04" y="183.46">.</text>
<text x="290.99" y="302.32">+</text>
<text x="426.65" y="297.38">.</text>
<text x="101.21" y="246.10">+</text>
<text x="4.50" y="30.68">+</text>
<text x="203.57" y="35.31">+</text>
<text x="271.66" y="347.86">.</text>
<text x="4.00" y="172.50">+</text>
<text x="66.06" y="398.94">*</text>
<text x="411.95" y="399.36">.</text>
<text x="198.06" y="183.98">+</text>
<text x="355.90" y="428.07">.</text>
<text x="220.26" y="473.77">+</text>
<text x="496.89" y="376.42">+</text>
<text x="497.36" y="55.98">+</text>
<text x="337.82" y="138.84">.</text>
<text x="270.35" y="416.24">+</text>
<text x="179.27" y="318.82">+</text>
<text x="342.48" y="344.50">*</text>
<text x="153.96" y="464.64">*</text>
<text x="175.89" y="389.14">+</text>
<text x="480.80" y="142.67">*</text>
<text x="496.75" y="357.94">+</text>
<text x="256.89" y="174.51">+</text>
<text x="1.12" y="427.90">.</text>
<text x="46.61" y="458.79">+</text>
<text x="499.68" y="339.14">.</text>
<text x="297.38" y="232.94">+</text>
<text x="297.74" y="394.67">+</text>
<text x="248.42" y="400.87">.</text>
<text x="155.79" y="105.29">*</text>
<text x="350.35" y="318.45">*</text>
<text x="321.99" y="332.03">.</text>
<text x="287.80" y="42.75">.</text>
<text x="18.08" y="158.62">.</text>
<text x="348.32" y="266.05">*</text>
<text x="178.01" y="296.35">+</text>
<text x="36.49" y="474.07">.</text>
<text x="29.14" y="26.00">*</text>
<text x="321.23" y="357.01">+</text>
<text x="22.20" y="264.05">+</text>
<text x="27.16" y="163.64">.</text>
<text x="23.63" y="385.35">+</text>
<text x="9.06" y="73.24">*</text>
<text x="150.72" y="369.75">.</text>
<text x="283.73" y="195.66">*</text>
<text x="194.63" y="467.27">*</text>
<text x="237.07" y="249.97">+</text>
<text x="271.71" y="217.27">*</text>
<text x="440.33" y="252.14">.</text>
<text x="364.73" y="131.99">*</text>
<text x="123.93" y="341.16">*</text>
<text x="48.23" y="473.46">+</text>
<text x="146.76" y="158.95">+</text>
<text x="190.93" y="456.26">.</text>

</svg>