
<svg viewBox="0 0 500 500" xmlns="http://www.w.org/2000/svg" width="100%" height="100%" style="background-color: #0a0a14; font-family: 'Courier New', Courier, monospace;">
    <style>
        text { fill: #aaa; font-size: 10px; text-anchor: middle; dominant-baseline: middle; }
    </style>
    <text x="143.16" y="487.81">+</text>
<text x="264.60" y="276.14">+</text>
<text x="16.87" y="116.29">*</text>
<text x="432.08" y="295.81">+</text>
<text x="39.47" y="188.54">.</text>
<text x="169.82" y="299.07">+</text>
<text x="420.15" y="186.42">.</text>
<text x="72.76" y="179.35">+</text>
<text x="92.38" y="445.31">.</text>
<text x="214.58" y="171.45">+</text>
<text x="336.04" y="26.44">+</text>
<text x="300.54" y="230.18">+</text>
<text x="211.37" y="213.84">+</text>
<text x="229.66" y="85.74">.</text>
<text x="366.52" y="169.05">+</text>
<text x="30.46" y="475.34">.</text>
<text x="477.45" y="205.28">+</text>
<text x="160.68" y="481.24">+</text>
<text x="340.23" y="19.87">+</text>
<text x="202.49" y="252.30">+</text>
<text x="16.55" y="353.44">.</text>
<text x="431.85" y="230.05">+</text>
<text x="141.90" y="417.91">.</text>
<text x="429.43" y="142.94">.</text>
<text x="151.85" y="335.26">.</text>
<text x="213.07" y="64.45">.</text>
<text x="277.52" y="146.60">+</text>
<text x="213.82" y="439.50">.</text>
<text x="479.22" y="233.84">.</text>
<text x="423.84" y="303.69">.</text>
<text x="424.72" y="105.94">+</text>
<text x="260.09" y="151.56">+</text>
<text x="387.39" y="186.08">+</text>
<text x="211.93" y="79.85">.</text>
<text x="82.91" y="80.88">.</text>
<text x="70.01" y="269.33">.</text>
<text x="354.96" y="278.45">+</text>
<text x="271.36" y="447.46">+</text>
<text x="1.25" y="190.67">*</text>
<text x="422.52" y="169.04">.</text>
<text x="108.65" y="378.98">.</text>
<text x="139.79" y="228.79">.</text>
<text x="139.60" y="137.91">+</text>
<text x="444.66" y="94.76">.</text>
<text x="10.73" y="50.15">.</text>
<text x="256.10" y="42.94">+</text>
<text x="0.91" y="289.43">.</text>
<text x="28.01" y="422.86">.</text>
<text x="395.46" y="185.05">+</text>
<text x="136.75" y="405.33">+</text>
<text x="120.58" y="364.67">.</text>
<text x="477.30" y="135.36">+</text>
<text x="31.31" y="239.31">*</text>
<text x="262.62" y="110.03">.</text>
<text x="359.71" y="478.24">+</text>
<text x="405.85" y="364.82">.</text>
<text x="207.77" y="62.55">+</text>
<text x="444.14" y="159.82">*</text>
<text x="254.76" y="278.20">*</text>
<text x="164.12" y="210.75">.</text>
<text x="116.58" y="389.90">.</text>
<text x="38.31" y="291.29">+</text>
<text x="457.61" y="320.42">*</text>
<text x="37.26" y="391.91">+</text>
<text x="229.95" y="498.97">*</text>
<text x="299.20" y="349.74">*</text>
<text x="45.56" y="140.42">.</text>
<text x="105.17" y="91.74">+</text>
<text x="479.43" y="186.13">+</text>
<text x="6.14" y="305.07">*</text>
<text x="160.01" y="267.35">+</text>
<text x="350.69" y="331.95">.</text>
<text x="241.84" y="25.62">.</text>
<text x="234.22" y="237.79">+</text>
<text x="136.82" y="199.34">+</text>
<text x="11.70" y="284.21">.</text>
<text x="246.19" y="383.75">.</text>
<text x="475.70" y="79.65">+</text>
<text x="288.70" y="457.36">+</text>
<text x="9.23" y="153.29">.</text>
<text x="244.76" y="410.91">.</text>
<text x="113.22" y="6.43">*</text>
<text x="381.65" y="91.74">*</text>
<text x="101.00" y="175.92">.</text>
<text x="166.33" y="61.00">+</text>
<text x="379.51" y="496.30">.</text>
<text x="497.08" y="482.06">+</text>
<text x="338.72" y="175.97">+</text>
<text x="99.06" y="139.73">.</text>
<text x="364.08" y="181.06">.</text>
<text x="164.84" y="212.09">+</text>
<text x="474.60" y="314.06">.</text>
<text x="282.01" y="303.41">.</text>
<text x="35.15" y="466.61">*</text>
<text x="327.85" y="361.82">.</text>
<text x="55.46" y="396.52">+</text>
<text x="101.60" y="249.04">+</text>
<text x="12.62" y="477.21">+</text>
<text x="383.11" y="428.01">.</text>
<text x="372.23" y="449.40">+</text>
<text x="465.05" y="373.59">+</text>
<text x="262.57" y="395.27">*</text>
<text x="162.35" y="285.33">+</text>
<text x="253.30" y="23.05">+</text>
<text x="0.07" y="399.38">.</text>
<text x="485.02" y="163.78">+</text>
<text x="207.25" y="64.57">+</text>
<text x="180.82" y="454.35">*</text>
<text x="74.98" y="3.56">+</text>
<text x="74.37" y="153.73">+</text>
<text x="355.66" y="378.11">.</text>
<text x="238.44" y="251.71">+</text>
<text x="432.27" y="468.30">.</text>
<text x="24.30" y="440.93">+</text>
<text x="249.90" y="41.04">+</text>
<text x="489.25" y="254.89">.</text>
<text x="349.43" y="185.94">+</text>
<text x="145.34" y="28.30">*</text>
<text x="489.99" y="349.94">.</text>
<text x="359.61" y="257.67">.</text>
<text x="369.11" y="481.39">+</text>
<text x="218.41" y="144.08">*</text>
<text x="252.02" y="331.57">+</text>
<text x="496.57" y="443.79">.</text>
<text x="63.27" y="463.22">.</text>
<text x="256.48" y="249.93">.</text>
<text x="93.27" y="403.74">*</text>
<text x="220.91" y="244.59">.</text>
<text x="304.27" y="91.68">+</text>
<text x="121.90" y="309.64">.</text>
<text x="373.96" y="281.42">.</text>
<text x="454.20" y="88.73">*</text>
<text x="495.14" y="380.29">.</text>
<text x="39.45" y="383.42">.</text>
<text x="54.35" y="39.27">+</text>
<text x="45.78" y="317.63">.</text>
<text x="26.28" y="95.64">+</text>
<text x="272.94" y="90.51">.</text>
<text x="225.41" y="494.59">+</text>
<text x="300.56" y="201.65">.</text>
<text x="360.52" y="105.54">+</text>
<text x="58.85" y="157.14">+</text>
<text x="245.09" y="245.14">.</text>
<text x="292.59" y="210.29">.</text>
<text x="360.61" y="109.46">+</text>
<text x="331.89" y="262.27">.</text>
<text x="336.90" y="50.05">*</text>
<text x="386.95" y="99.27">+</text>
<text x="155.30" y="91.55">+</text>
<text x="184.30" y="470.12">.</text>
<text x="383.05" y="430.65">+</text>
<text x="154.75" y="233.66">+</text>
<text x="310.72" y="65.53">+</text>
<text x="59.14" y="44.79">+</text>
<text x="75.75" y="19.54">*</text>
<text x="287.56" y="283.97">.</text>
<text x="163.88" y="64.57">.</text>
<text x="496.15" y="104.80">.</text>
<text x="345.08" y="395.96">+</text>
<text x="89.69" y="109.83">*</text>
<text x="269.02" y="212.46">.</text>
<text x="103.37" y="142.62">*</text>
<text x="396.31" y="457.87">+</text>
<text x="188.27" y="200.83">.</text>
<text x="377.99" y="367.13">.</text>
<text x="365.70" y="57.07">+</text>
<text x="149.39" y="17.64">+</text>
<text x="329.80" y="19.14">+</text>
<text x="9.83" y="221.50">.</text>
<text x="139.65" y="37.33">+</text>
<text x="356.91" y="335.25">.</text>
<text x="324.49" y="29.24">.</text>
<text x="66.34" y="450.55">*</text>
<text x="51.26" y="281.25">+</text>
<text x="403.05" y="206.08">.</text>
<text x="413.07" y="132.19">*</text>
<text x="453.16" y="100.59">.</text>
<text x="456.78" y="476.69">+</text>
<text x="430.00" y="376.14">+</text>
<text x="22.37" y="496.18">*</text>
<text x="281.53" y="104.46">.</text>
<text x="370.71" y="315.10">.</text>
<text x="406.69" y="77.85">.</text>
<text x="138.36" y="139.50">+</text>
<text x="94.65" y="91.67">+</text>
<text x="211.06" y="391.68">+</text>
<text x="83.02" y="187.13">.</text>
<text x="108.38" y="199.63">+</text>
<text x="80.19" y="343.57">*</text>
<text x="169.36" y="81.98">.</text>
<text x="492.03" y="464.96">.</text>
<text x="92.81" y="43.00">.</text>
<text x="377.77" y="379.39">.</text>
<text x="418.64" y="403.84">+</text>
<text x="318.81" y="246.31">+</text>
<text x="373.28" y="57.89">.</text>
<text x="170.84" y="287.24">+</text>
<text x="45.89" y="158.95">+</text>
<text x="306.56" y="186.54">+</text>
<text x="345.79" y="237.72">+</text>
<text x="248.00" y="55.54">.</text>
<text x="49.76" y="116.87">.</text>
<text x="338.37" y="488.53">.</text>
<text x="404.58" y="461.18">.</text>
<text x="244.85" y="404.07">.</text>
<text x="360.31" y="93.92">*</text>
<text x="326.76" y="244.94">.</text>
<text x="110.97" y="101.19">+</text>
<text x="278.36" y="458.07">*</text>
<text x="480.67" y="336.21">.</text>
<text x="36.24" y="230.22">*</text>
<text x="340.79" y="477.09">+</text>
<text x="395.36" y="38.08">.</text>
<text x="288.10" y="391.36">*</text>
<text x="454.84" y="291.44">+</text>
<text x="278.03" y="389.70">*</text>
<text x="214.07" y="181.64">*</text>
<text x="126.50" y="240.80">+</text>
<text x="274.41" y="392.76">+</text>
<text x="323.69" y="306.99">.</text>
<text x="142.51" y="352.73">.</text>

</svg>