
<svg viewBox="0 0 500 500" xmlns="http://www.w.org/2000/svg" width="100%" height="100%" style="background-color: #0a0a14; font-family: 'Courier New', Courier, monospace;">
    <style>
        text { fill: #aaa; font-size: 10px; text-anchor: middle; dominant-baseline: middle; }
    </style>
    <text x="370.81" y="235.98">+</text>
<text x="170.59" y="193.45">+</text>
<text x="27.37" y="413.19">+</text>
<text x="385.62" y="69.63">+</text>
<text x="117.38" y="480.23">.</text>
<text x="98.58" y="355.66">+</text>
<text x="466.76" y="205.82">+</text>
<text x="62.58" y="411.12">.</text>
<text x="55.31" y="386.77">+</text>
<text x="293.19" y="239.15">.</text>
<text x="330.94" y="498.74">+</text>
<text x="335.94" y="282.88">+</text>
<text x="367.71" y="275.42">*</text>
<text x="211.92" y="192.07">.</text>
<text x="449.98" y="358.44">.</text>
<text x="117.30" y="55.58">.</text>
<text x="291.13" y="428.64">.</text>
<text x="11.34" y="140.62">+</text>
<text x="349.19" y="145.38">+</text>
<text x="153.90" y="434.06">+</text>
<text x="83.41" y="2.67">.</text>
<text x="353.98" y="182.71">.</text>
<text x="327.12" y="74.67">.</text>
<text x="318.91" y="342.99">*</text>
<text x="182.20" y="150.42">.</text>
<text x="12.67" y="430.38">+</text>
<text x="168.25" y="79.24">.</text>
<text x="400.81" y="356.50">+</text>
<text x="228.68" y="451.17">.</text>
<text x="109.92" y="308.03">.</text>
<text x="55.73" y="183.35">.</text>
<text x="204.89" y="372.68">.</text>
<text x="290.76" y="339.72">*</text>
<text x="150.46" y="460.28">+</text>
<text x="31.16" y="131.44">*</text>
<text x="12.91" y="146.39">*</text>
<text x="194.56" y="335.21">.</text>
<text x="92.51" y="0.51">+</text>
<text x="372.80" y="419.86">+</text>
<text x="265.51" y="169.21">+</text>
<text x="243.04" y="290.76">.</text>
<text x="147.99" y="499.73">.</text>
<text x="304.39" y="450.06">+</text>
<text x="177.86" y="272.84">.</text>
<text x="335.51" y="275.54">+</text>
<text x="54.53" y="120.48">.</text>
<text x="251.56" y="334.34">+</text>
<text x="34.05" y="268.69">+</text>
<text x="286.58" y="354.55">+</text>
<text x="317.73" y="1.22">+</text>
<text x="114.26" y="203.20">.</text>
<text x="98.25" y="396.53">.</text>
<text x="179.84" y="350.09">*</text>
<text x="305.26" y="336.45">*</text>
<text x="120.11" y="443.70">+</text>
<text x="340.02" y="239.08">.</text>
<text x="334.42" y="406.12">*</text>
<text x="363.61" y="290.57">+</text>
<text x="260.47" y="388.90">.</text>
<text x="450.78" y="288.95">*</text>
<text x="354.26" y="358.33">.</text>
<text x="66.72" y="293.01">+</text>
<text x="350.26" y="209.97">+</text>
<text x="462.59" y="406.72">.</text>
<text x="286.24" y="140.10">+</text>
<text x="424.21" y="114.43">+</text>
<text x="215.54" y="322.23">.</text>
<text x="24.61" y="496.30">+</text>
<text x="425.84" y="191.45">+</text>
<text x="251.59" y="144.33">+</text>
<text x="126.33" y="49.81">*</text>
<text x="132.86" y="324.72">.</text>
<text x="354.83" y="491.46">+</text>
<text x="439.69" y="490.24">+</text>
<text x="105.07" y="79.64">+</text>
<text x="22.50" y="37.22">+</text>
<text x="439.96" y="333.32">+</text>
<text x="254.93" y="70.21">+</text>
<text x="367.76" y="418.54">*</text>
<text x="498.40" y="390.15">*</text>
<text x="110.19" y="371.50">.</text>
<text x="305.28" y="51.02">*</text>
<text x="16.11" y="108.16">+</text>
<text x="62.10" y="249.08">.</text>
<text x="5.97" y="486.44">.</text>
<text x="88.71" y="475.28">+</text>
<text x="194.90" y="495.33">*</text>
<text x="295.36" y="245.15">*</text>
<text x="334.08" y="193.63">.</text>
<text x="211.08" y="419.15">+</text>
<text x="17.83" y="444.07">+</text>
<text x="472.43" y="173.77">.</text>
<text x="425.47" y="328.32">.</text>
<text x="337.13" y="378.09">+</text>
<text x="239.99" y="35.96">.</text>
<text x="449.77" y="302.07">*</text>
<text x="109.45" y="369.37">*</text>
<text x="231.03" y="158.09">*</text>
<text x="298.53" y="114.70">*</text>
<text x="480.02" y="152.38">+</text>
<text x="47.27" y="279.40">.</text>
<text x="347.95" y="61.64">+</text>
<text x="8.24" y="110.27">.</text>
<text x="134.68" y="324.28">+</text>
<text x="359.39" y="154.33">+</text>
<text x="132.99" y="71.00">.</text>
<text x="97.25" y="467.96">+</text>
<text x="278.81" y="362.07">+</text>
<text x="227.33" y="392.19">.</text>
<text x="362.01" y="33.16">+</text>
<text x="30.86" y="2.69">.</text>
<text x="243.99" y="475.14">*</text>
<text x="231.41" y="190.05">+</text>
<text x="253.91" y="94.85">.</text>
<text x="349.44" y="488.97">+</text>
<text x="441.95" y="77.12">.</text>
<text x="17.45" y="79.19">+</text>
<text x="479.05" y="227.12">+</text>
<text x="368.14" y="317.88">.</text>
<text x="269.09" y="50.68">.</text>
<text x="272.46" y="75.81">.</text>
<text x="321.76" y="415.62">+</text>
<text x="129.68" y="225.12">.</text>
<text x="130.93" y="453.52">+</text>
<text x="284.41" y="222.36">+</text>
<text x="412.26" y="403.24">.</text>
<text x="467.82" y="175.21">.</text>
<text x="243.61" y="136.32">+</text>
<text x="98.47" y="22.40">+</text>
<text x="258.79" y="471.17">.</text>
<text x="365.86" y="441.82">*</text>
<text x="342.30" y="304.17">*</text>
<text x="262.69" y="235.09">+</text>
<text x="290.14" y="223.58">+</text>
<text x="138.32" y="324.30">.</text>
<text x="91.80" y="473.95">.</text>
<text x="394.21" y="339.02">.</text>
<text x="438.94" y="44.57">*</text>
<text x="220.68" y="440.14">.</text>
<text x="296.95" y="370.30">+</text>
<text x="338.22" y="466.80">.</text>
<text x="398.91" y="175.55">+</text>
<text x="342.43" y="465.49">+</text>
<text x="412.78" y="458.46">+</text>
<text x="151.61" y="296.68">+</text>
<text x="28.00" y="159.06">+</text>
<text x="8.53" y="52.11">.</text>
<text x="130.66" y="122.80">+</text>
<text x="17.42" y="492.30">*</text>
<text x="223.79" y="74.62">+</text>
<text x="68.59" y="99.69">.</text>
<text x="445.23" y="51.87">+</text>
<text x="159.80" y="131.54">*</text>
<text x="111.38" y="213.82">+</text>
<text x="170.57" y="212.14">+</text>
<text x="132.87" y="9.30">*</text>
<text x="491.65" y="181.48">.</text>
<text x="162.39" y="170.53">.</text>
<text x="29.80" y="418.77">.</text>
<text x="349.54" y="93.26">.</text>
<text x="351.26" y="260.30">+</text>
<text x="447.41" y="232.59">.</text>
<text x="390.13" y="160.12">.</text>
<text x="76.94" y="190.91">+</text>
<text x="353.96" y="269.14">+</text>
<text x="39.31" y="116.82">.</text>
<text x="434.63" y="133.08">.</text>
<text x="48.71" y="0.30">+</text>
<text x="499.68" y="138.13">+</text>
<text x="133.03" y="409.59">+</text>
<text x="280.35" y="431.22">.</text>
<text x="22.92" y="78.97">.</text>
<text x="428.90" y="427.97">+</text>
<text x="374.78" y="396.43">.</text>
<text x="195.49" y="308.07">.</text>
<text x="314.87" y="264.03">+</text>
<text x="444.34" y="252.39">.</text>
<text x="171.45" y="287.87">+</text>
<text x="215.79" y="229.03">+</text>
<text x="81.81" y="387.85">+</text>
<text x="495.88" y="137.60">.</text>
<text x="129.97" y="11.74">+</text>
<text x="189.06" y="276.53">+</text>
<text x="481.71" y="217.80">+</text>
<text x="76.37" y="180.38">.</text>
<text x="32.01" y="134.30">*</text>
<text x="173.93" y="406.48">.</text>
<text x="374.56" y="446.71">+</text>
<text x="118.71" y="184.73">.</text>
<text x="66.17" y="177.91">.</text>
<text x="184.23" y="383.03">+</text>
<text x="477.41" y="156.88">+</text>
<text x="347.37" y="479.76">+</text>
<text x="319.84" y="355.78">+</text>
<text x="30.45" y="206.98">.</text>
<text x="62.32" y="28.91">.</text>
<text x="418.55" y="243.54">+</text>
<text x="412.17" y="2.27">.</text>
<text x="101.41" y="169.53">.</text>
<text x="448.40" y="115.82">.</text>
<text x="338.51" y="109.04">+</text>
<text x="474.62" y="232.80">+</text>
<text x="477.74" y="113.84">.</text>
<text x="270.79" y="112.07">+</text>
<text x="378.96" y="322.56">.</text>
<text x="460.00" y="350.63">+</text>
<text x="320.86" y="22.96">*</text>
<text x="456.34" y="124.19">.</text>
<text x="37.59" y="278.60">.</text>
<text x="84.34" y="485.32">*</text>
<text x="476.30" y="285.37">+</text>
<text x="451.81" y="90.43">+</text>
<text x="457.23" y="225.93">+</text>

</svg>