
<svg viewBox="0 0 500 500" xmlns="http://www.w.org/2000/svg" width="100%" height="100%" style="background-color: #0a0a14; font-family: 'Courier New', Courier, monospace;">
    <style>
        text { fill: #aaa; font-size: 10px; text-anchor: middle; dominant-baseline: middle; }
    </style>
    <text x="31.67" y="155.93">+</text>
<text x="422.02" y="285.68">+</text>
<text x="455.51" y="228.53">+</text>
<text x="281.66" y="82.92">+</text>
<text x="115.63" y="107.11">*</text>
<text x="310.77" y="317.18">*</text>
<text x="464.20" y="444.20">+</text>
<text x="462.64" y="240.51">.</text>
<text x="320.90" y="472.92">.</text>
<text x="104.04" y="118.88">+</text>
<text x="149.98" y="113.72">.</text>
<text x="331.27" y="397.37">.</text>
<text x="31.90" y="375.75">+</text>
<text x="402.38" y="444.03">.</text>
<text x="236.98" y="272.48">.</text>
<text x="149.64" y="170.81">+</text>
<text x="67.03" y="476.62">+</text>
<text x="256.72" y="211.88">+</text>
<text x="68.33" y="357.07">+</text>
<text x="197.22" y="213.82">+</text>
<text x="265.86" y="419.75">+</text>
<text x="205.54" y="234.51">.</text>
<text x="381.47" y="396.56">+</text>
<text x="59.49" y="305.00">.</text>
<text x="344.85" y="136.62">.</text>
<text x="268.89" y="333.05">.</text>
<text x="329.71" y="378.73">.</text>
<text x="31.96" y="127.70">+</text>
<text x="382.58" y="107.36">.</text>
<text x="346.78" y="498.99">.</text>
<text x="73.16" y="477.41">*</text>
<text x="80.29" y="84.98">.</text>
<text x="312.84" y="98.10">+</text>
<text x="181.84" y="220.20">+</text>
<text x="251.83" y="177.74">+</text>
<text x="144.89" y="466.73">.</text>
<text x="411.38" y="380.01">*</text>
<text x="287.14" y="218.61">*</text>
<text x="438.03" y="276.60">+</text>
<text x="396.87" y="234.39">.</text>
<text x="413.56" y="303.99">.</text>
<text x="318.85" y="316.44">+</text>
<text x="349.99" y="261.76">.</text>
<text x="305.81" y="75.87">+</text>
<text x="237.31" y="320.59">.</text>
<text x="458.34" y="80.22">.</text>
<text x="465.14" y="81.93">.</text>
<text x="479.03" y="420.40">+</text>
<text x="103.30" y="162.75">+</text>
<text x="123.36" y="139.41">.</text>
<text x="286.56" y="0.38">.</text>
<text x="433.75" y="423.63">+</text>
<text x="101.12" y="361.15">.</text>
<text x="414.81" y="401.44">+</text>
<text x="14.42" y="304.99">.</text>
<text x="434.66" y="53.15">+</text>
<text x="267.55" y="94.76">*</text>
<text x="368.10" y="168.64">+</text>
<text x="47.73" y="368.37">+</text>
<text x="266.80" y="222.29">+</text>
<text x="389.66" y="211.00">*</text>
<text x="224.03" y="407.99">+</text>
<text x="476.37" y="423.52">.</text>
<text x="354.19" y="107.50">+</text>
<text x="285.26" y="494.09">+</text>
<text x="274.87" y="26.16">.</text>
<text x="213.31" y="396.73">.</text>
<text x="316.64" y="304.34">.</text>
<text x="409.18" y="188.04">.</text>
<text x="224.64" y="76.22">*</text>
<text x="446.12" y="326.10">.</text>
<text x="416.54" y="234.54">.</text>
<text x="392.99" y="194.37">+</text>
<text x="287.55" y="344.05">.</text>
<text x="441.91" y="306.24">+</text>
<text x="225.95" y="388.41">+</text>
<text x="82.34" y="139.43">.</text>
<text x="235.67" y="313.77">+</text>
<text x="277.12" y="314.56">*</text>
<text x="420.18" y="279.55">+</text>
<text x="99.06" y="233.29">.</text>
<text x="265.25" y="330.51">+</text>
<text x="8.75" y="410.51">+</text>
<text x="388.11" y="45.55">+</text>
<text x="47.20" y="46.29">*</text>
<text x="288.05" y="57.92">+</text>
<text x="240.08" y="225.59">*</text>
<text x="206.88" y="166.09">.</text>
<text x="431.34" y="271.58">+</text>
<text x="38.73" y="78.06">.</text>
<text x="461.78" y="97.03">.</text>
<text x="266.71" y="174.22">.</text>
<text x="153.35" y="463.75">*</text>
<text x="395.26" y="172.80">*</text>
<text x="237.31" y="17.01">*</text>
<text x="26.42" y="477.34">.</text>
<text x="450.33" y="447.53">+</text>
<text x="389.44" y="429.24">.</text>
<text x="0.28" y="372.15">.</text>
<text x="142.19" y="492.56">.</text>
<text x="299.50" y="65.26">+</text>
<text x="78.70" y="400.92">.</text>
<text x="149.36" y="101.87">*</text>
<text x="304.72" y="365.79">+</text>
<text x="73.60" y="338.10">*</text>
<text x="91.63" y="400.92">+</text>
<text x="186.94" y="296.04">+</text>
<text x="490.71" y="366.60">*</text>
<text x="103.79" y="161.73">+</text>
<text x="482.96" y="473.89">.</text>
<text x="7.03" y="107.84">.</text>
<text x="207.67" y="288.25">.</text>
<text x="410.07" y="22.73">+</text>
<text x="73.47" y="289.29">.</text>
<text x="330.05" y="490.21">+</text>
<text x="486.50" y="133.20">.</text>
<text x="193.08" y="207.44">*</text>
<text x="55.26" y="223.25">*</text>
<text x="266.05" y="416.45">*</text>
<text x="31.81" y="478.69">.</text>
<text x="428.76" y="291.56">+</text>
<text x="445.84" y="10.31">+</text>
<text x="323.76" y="496.97">.</text>
<text x="96.28" y="482.03">*</text>
<text x="401.70" y="371.42">.</text>
<text x="274.25" y="411.44">+</text>
<text x="198.08" y="45.55">+</text>
<text x="479.09" y="375.12">.</text>
<text x="312.75" y="277.15">+</text>
<text x="390.37" y="126.78">.</text>
<text x="97.08" y="346.05">.</text>
<text x="494.14" y="303.87">+</text>
<text x="67.72" y="271.16">.</text>
<text x="380.23" y="240.83">+</text>
<text x="406.25" y="186.80">.</text>
<text x="121.93" y="245.91">+</text>
<text x="188.69" y="184.97">.</text>
<text x="417.29" y="167.08">*</text>
<text x="110.55" y="299.57">+</text>
<text x="349.74" y="187.10">.</text>
<text x="352.18" y="380.66">.</text>
<text x="492.22" y="144.14">*</text>
<text x="383.94" y="134.62">.</text>
<text x="333.10" y="341.91">+</text>
<text x="284.95" y="219.18">+</text>
<text x="247.25" y="416.73">.</text>
<text x="305.18" y="100.31">.</text>
<text x="63.11" y="380.97">+</text>
<text x="492.40" y="106.91">*</text>
<text x="54.47" y="180.60">.</text>
<text x="269.18" y="374.40">.</text>
<text x="17.94" y="94.88">.</text>
<text x="148.30" y="265.73">+</text>
<text x="185.35" y="314.28">+</text>
<text x="406.07" y="285.10">*</text>
<text x="239.49" y="410.10">+</text>
<text x="493.76" y="290.22">.</text>
<text x="393.48" y="321.42">+</text>
<text x="464.36" y="402.63">+</text>
<text x="205.77" y="442.57">.</text>
<text x="398.29" y="177.87">+</text>
<text x="124.03" y="386.66">*</text>
<text x="460.14" y="28.39">.</text>
<text x="16.00" y="28.48">+</text>
<text x="184.99" y="314.10">+</text>
<text x="46.25" y="260.46">.</text>
<text x="63.41" y="220.39">.</text>
<text x="307.12" y="354.15">.</text>
<text x="365.89" y="131.74">.</text>
<text x="59.64" y="430.06">+</text>
<text x="174.03" y="330.94">.</text>
<text x="80.14" y="158.03">+</text>
<text x="365.84" y="487.33">+</text>
<text x="498.24" y="86.02">+</text>
<text x="79.94" y="479.31">.</text>
<text x="266.40" y="82.74">+</text>
<text x="348.66" y="474.40">.</text>
<text x="430.79" y="5.61">*</text>
<text x="113.71" y="103.51">*</text>
<text x="80.38" y="205.50">+</text>
<text x="475.76" y="386.33">+</text>
<text x="71.98" y="233.50">.</text>
<text x="298.27" y="220.10">+</text>
<text x="293.65" y="164.65">.</text>
<text x="385.71" y="443.22">.</text>
<text x="329.65" y="228.28">*</text>
<text x="428.00" y="64.52">.</text>
<text x="490.07" y="451.91">*</text>
<text x="422.65" y="444.56">+</text>
<text x="326.44" y="408.55">+</text>
<text x="338.30" y="260.58">+</text>
<text x="300.77" y="367.67">.</text>
<text x="262.90" y="7.49">.</text>
<text x="378.92" y="330.34">.</text>
<text x="19.10" y="158.40">+</text>
<text x="67.23" y="151.94">.</text>
<text x="144.37" y="217.75">.</text>
<text x="39.30" y="331.48">+</text>
<text x="141.88" y="16.87">.</text>
<text x="442.92" y="219.15">.</text>
<text x="426.51" y="109.89">+</text>
<text x="130.51" y="489.87">.</text>
<text x="72.90" y="498.84">*</text>
<text x="485.71" y="398.95">+</text>
<text x="344.89" y="161.53">+</text>
<text x="332.95" y="19.22">+</text>
<text x="404.35" y="7.47">*</text>
<text x="357.71" y="139.85">.</text>
<text x="305.87" y="100.78">.</text>

</svg>