
<svg viewBox="0 0 500 500" xmlns="http://www.w.org/2000/svg" width="100%" height="100%" style="background-color: #0a0a14; font-family: 'Courier New', Courier, monospace;">
    <style>
        text { fill: #aaa; font-size: 10px; text-anchor: middle; dominant-baseline: middle; }
    </style>
    <text x="192.94" y="270.92">*</text>
<text x="245.47" y="486.33">.</text>
<text x="44.14" y="275.65">+</text>
<text x="289.91" y="379.22">.</text>
<text x="350.36" y="255.48">.</text>
<text x="473.17" y="359.00">.</text>
<text x="410.24" y="70.81">.</text>
<text x="113.25" y="377.11">*</text>
<text x="336.72" y="384.35">.</text>
<text x="155.51" y="299.27">.</text>
<text x="234.15" y="289.15">.</text>
<text x="438.63" y="367.49">+</text>
<text x="488.40" y="38.09">.</text>
<text x="154.60" y="229.98">.</text>
<text x="298.69" y="118.24">+</text>
<text x="127.79" y="306.13">+</text>
<text x="487.22" y="302.88">+</text>
<text x="492.17" y="481.52">+</text>
<text x="172.72" y="225.90">+</text>
<text x="48.19" y="33.81">+</text>
<text x="491.49" y="124.52">.</text>
<text x="445.77" y="230.98">.</text>
<text x="472.15" y="491.83">.</text>
<text x="207.06" y="197.09">.</text>
<text x="77.48" y="466.62">.</text>
<text x="270.74" y="443.94">+</text>
<text x="446.51" y="378.63">*</text>
<text x="401.73" y="267.82">+</text>
<text x="199.84" y="61.13">.</text>
<text x="246.50" y="434.19">+</text>
<text x="149.45" y="13.83">+</text>
<text x="184.06" y="99.13">*</text>
<text x="432.09" y="332.25">.</text>
<text x="489.68" y="297.29">.</text>
<text x="81.33" y="422.29">.</text>
<text x="367.08" y="359.05">.</text>
<text x="457.93" y="137.56">+</text>
<text x="162.59" y="120.14">.</text>
<text x="430.76" y="16.01">*</text>
<text x="404.91" y="487.49">+</text>
<text x="253.26" y="28.04">+</text>
<text x="86.81" y="220.95">+</text>
<text x="251.98" y="408.59">+</text>
<text x="183.09" y="318.05">+</text>
<text x="250.95" y="447.58">+</text>
<text x="441.98" y="31.05">.</text>
<text x="78.01" y="175.19">.</text>
<text x="400.30" y="472.35">.</text>
<text x="428.03" y="408.06">.</text>
<text x="225.34" y="154.92">.</text>
<text x="225.14" y="393.13">*</text>
<text x="443.86" y="350.06">+</text>
<text x="368.05" y="123.75">+</text>
<text x="220.19" y="60.85">*</text>
<text x="331.09" y="478.75">*</text>
<text x="186.71" y="294.45">+</text>
<text x="265.66" y="385.87">+</text>
<text x="426.13" y="66.95">.</text>
<text x="405.47" y="252.06">+</text>
<text x="51.95" y="457.37">+</text>
<text x="129.74" y="223.37">.</text>
<text x="134.37" y="128.69">.</text>
<text x="473.35" y="93.38">*</text>
<text x="484.54" y="82.58">+</text>
<text x="89.67" y="350.45">.</text>
<text x="0.68" y="21.12">.</text>
<text x="42.23" y="26.44">+</text>
<text x="384.83" y="138.65">+</text>
<text x="123.59" y="6.20">.</text>
<text x="283.32" y="2.04">+</text>
<text x="379.23" y="221.93">.</text>
<text x="10.72" y="9.59">.</text>
<text x="157.92" y="296.76">.</text>
<text x="99.34" y="439.19">.</text>
<text x="240.84" y="188.35">.</text>
<text x="59.40" y="310.66">+</text>
<text x="377.44" y="495.34">+</text>
<text x="418.17" y="90.03">.</text>
<text x="433.30" y="435.60">+</text>
<text x="482.41" y="292.45">+</text>
<text x="297.36" y="147.97">+</text>
<text x="305.36" y="460.95">+</text>
<text x="123.46" y="111.74">+</text>
<text x="7.48" y="479.36">.</text>
<text x="222.92" y="84.70">.</text>
<text x="316.91" y="488.36">.</text>
<text x="487.01" y="287.78">+</text>
<text x="333.02" y="87.90">*</text>
<text x="496.03" y="421.13">+</text>
<text x="277.10" y="466.73">.</text>
<text x="416.71" y="174.98">+</text>
<text x="472.02" y="416.40">*</text>
<text x="136.55" y="325.19">.</text>
<text x="129.03" y="61.35">.</text>
<text x="492.60" y="297.35">+</text>
<text x="230.84" y="148.71">.</text>
<text x="183.31" y="29.03">.</text>
<text x="33.38" y="58.64">.</text>
<text x="258.82" y="461.14">*</text>
<text x="147.30" y="26.42">.</text>
<text x="208.93" y="383.56">+</text>
<text x="322.47" y="473.53">.</text>
<text x="237.40" y="7.22">*</text>
<text x="352.54" y="263.87">+</text>
<text x="123.18" y="33.37">+</text>
<text x="241.89" y="484.87">.</text>
<text x="6.18" y="468.65">+</text>
<text x="111.16" y="364.55">+</text>
<text x="286.21" y="262.70">+</text>
<text x="341.74" y="17.54">+</text>
<text x="46.82" y="122.91">.</text>
<text x="272.08" y="343.15">*</text>
<text x="163.98" y="393.64">+</text>
<text x="457.57" y="449.21">+</text>
<text x="293.24" y="350.15">*</text>
<text x="158.10" y="57.43">.</text>
<text x="460.32" y="182.25">*</text>
<text x="459.90" y="64.08">+</text>
<text x="405.00" y="49.88">.</text>
<text x="284.12" y="156.07">*</text>
<text x="242.17" y="18.23">+</text>
<text x="68.14" y="437.35">+</text>
<text x="373.73" y="257.39">+</text>
<text x="380.61" y="328.58">.</text>
<text x="167.12" y="229.40">+</text>
<text x="298.61" y="256.10">.</text>
<text x="36.24" y="146.70">+</text>
<text x="82.16" y="367.82">.</text>
<text x="151.09" y="104.52">*</text>
<text x="311.32" y="391.03">.</text>
<text x="105.14" y="182.36">.</text>
<text x="287.79" y="110.22">+</text>
<text x="249.75" y="137.75">.</text>
<text x="16.64" y="244.05">+</text>
<text x="358.45" y="130.49">+</text>
<text x="30.18" y="365.65">.</text>
<text x="136.48" y="187.18">.</text>
<text x="321.52" y="423.58">.</text>
<text x="418.56" y="20.69">+</text>
<text x="224.98" y="158.81">+</text>
<text x="225.32" y="5.18">+</text>
<text x="184.26" y="274.00">.</text>
<text x="201.97" y="163.56">+</text>
<text x="64.68" y="392.96">.</text>
<text x="460.43" y="10.34">*</text>
<text x="402.66" y="192.66">+</text>
<text x="3.62" y="397.06">+</text>
<text x="145.16" y="361.04">.</text>
<text x="414.62" y="184.84">.</text>
<text x="218.58" y="477.06">+</text>
<text x="35.59" y="335.37">.</text>
<text x="200.58" y="147.73">.</text>
<text x="135.47" y="228.90">+</text>
<text x="62.32" y="36.14">+</text>
<text x="334.15" y="39.06">.</text>
<text x="363.18" y="413.88">+</text>
<text x="6.84" y="8.86">+</text>
<text x="111.00" y="195.17">.</text>
<text x="309.07" y="393.77">.</text>
<text x="316.85" y="157.53">.</text>
<text x="228.31" y="430.93">.</text>
<text x="201.55" y="455.80">.</text>
<text x="336.89" y="268.10">+</text>
<text x="421.89" y="343.12">+</text>
<text x="268.86" y="3.33">.</text>
<text x="352.69" y="413.79">.</text>
<text x="97.92" y="215.00">*</text>
<text x="175.33" y="203.18">+</text>
<text x="486.16" y="393.84">.</text>
<text x="43.22" y="45.30">+</text>
<text x="434.22" y="448.94">+</text>
<text x="299.14" y="490.57">+</text>
<text x="437.75" y="101.62">.</text>
<text x="37.17" y="97.64">+</text>
<text x="215.80" y="437.54">.</text>
<text x="21.28" y="87.38">*</text>
<text x="362.36" y="452.88">+</text>
<text x="220.57" y="238.51">.</text>
<text x="10.78" y="211.72">.</text>
<text x="176.59" y="350.39">+</text>
<text x="324.96" y="203.68">*</text>
<text x="422.80" y="463.06">+</text>
<text x="219.85" y="376.67">.</text>
<text x="394.37" y="300.37">+</text>
<text x="129.32" y="231.45">+</text>
<text x="489.09" y="126.50">+</text>
<text x="440.69" y="365.87">*</text>
<text x="179.98" y="269.93">.</text>
<text x="306.19" y="72.46">+</text>
<text x="286.15" y="482.31">.</text>
<text x="176.18" y="30.17">+</text>
<text x="349.33" y="116.28">+</text>
<text x="1.96" y="486.18">+</text>
<text x="375.49" y="103.98">.</text>
<text x="220.95" y="200.19">.</text>
<text x="50.66" y="413.69">+</text>
<text x="97.90" y="333.73">+</text>
<text x="430.98" y="389.33">.</text>
<text x="200.93" y="330.48">+</text>
<text x="484.07" y="437.11">*</text>
<text x="239.93" y="311.59">+</text>
<text x="497.27" y="449.64">.</text>
<text x="14.36" y="413.22">+</text>
<text x="15.59" y="441.59">.</text>
<text x="54.77" y="189.46">+</text>
<text x="401.69" y="344.53">.</text>
<text x="109.02" y="269.64">+</text>
<text x="397.29" y="225.57">+</text>
<text x="93.96" y="28.60">.</text>
<text x="317.29" y="478.52">.</text>
<text x="313.61" y="25.97">+</text>
<text x="240.67" y="204.46">+</text>
<text x="149.69" y="269.87">+</text>

</svg>