
<svg viewBox="0 0 500 500" xmlns="http://www.w.org/2000/svg" width="100%" height="100%" style="background-color: #0a0a14; font-family: 'Courier New', Courier, monospace;">
    <style>
        text { fill: #aaa; font-size: 10px; text-anchor: middle; dominant-baseline: middle; }
    </style>
    <text x="311.78" y="350.34">.</text>
<text x="358.24" y="187.00">*</text>
<text x="442.76" y="418.99">.</text>
<text x="487.71" y="468.86">.</text>
<text x="26.24" y="328.40">+</text>
<text x="409.32" y="199.95">*</text>
<text x="53.67" y="327.60">.</text>
<text x="433.23" y="480.77">+</text>
<text x="296.98" y="81.38">+</text>
<text x="217.97" y="397.59">+</text>
<text x="188.37" y="353.72">.</text>
<text x="165.63" y="337.38">.</text>
<text x="22.67" y="425.60">+</text>
<text x="112.41" y="472.69">+</text>
<text x="282.57" y="382.70">.</text>
<text x="262.24" y="26.07">*</text>
<text x="44.55" y="123.39">+</text>
<text x="338.86" y="289.60">.</text>
<text x="312.82" y="141.14">.</text>
<text x="448.90" y="343.36">.</text>
<text x="240.35" y="47.03">.</text>
<text x="209.16" y="27.87">.</text>
<text x="366.82" y="416.75">.</text>
<text x="123.51" y="351.16">+</text>
<text x="461.74" y="252.47">.</text>
<text x="446.60" y="178.56">+</text>
<text x="317.80" y="230.14">.</text>
<text x="186.61" y="325.31">.</text>
<text x="353.68" y="279.05">+</text>
<text x="123.80" y="447.44">.</text>
<text x="425.19" y="74.47">.</text>
<text x="158.50" y="411.25">.</text>
<text x="187.24" y="346.59">.</text>
<text x="430.85" y="32.61">*</text>
<text x="294.82" y="385.08">+</text>
<text x="408.91" y="379.16">+</text>
<text x="261.34" y="12.57">.</text>
<text x="221.03" y="269.23">.</text>
<text x="21.85" y="455.58">.</text>
<text x="334.78" y="193.63">.</text>
<text x="398.12" y="251.41">+</text>
<text x="488.85" y="385.36">.</text>
<text x="286.33" y="253.87">+</text>
<text x="371.20" y="347.48">.</text>
<text x="14.78" y="357.82">.</text>
<text x="19.90" y="417.05">.</text>
<text x="456.32" y="11.92">.</text>
<text x="202.12" y="197.92">+</text>
<text x="67.45" y="394.20">+</text>
<text x="283.37" y="494.52">+</text>
<text x="269.92" y="113.05">+</text>
<text x="332.52" y="303.10">+</text>
<text x="148.41" y="1.45">+</text>
<text x="158.12" y="264.00">*</text>
<text x="80.17" y="212.91">+</text>
<text x="459.68" y="172.62">+</text>
<text x="440.74" y="453.97">+</text>
<text x="304.86" y="429.60">+</text>
<text x="51.63" y="454.75">.</text>
<text x="349.82" y="405.94">+</text>
<text x="372.17" y="335.96">.</text>
<text x="194.95" y="84.64">.</text>
<text x="438.19" y="110.86">+</text>
<text x="317.49" y="274.89">+</text>
<text x="84.54" y="266.44">.</text>
<text x="211.72" y="327.27">+</text>
<text x="441.95" y="252.81">+</text>
<text x="98.83" y="423.46">.</text>
<text x="453.94" y="14.69">*</text>
<text x="196.16" y="200.64">+</text>
<text x="314.77" y="163.15">+</text>
<text x="55.22" y="360.82">*</text>
<text x="486.73" y="367.07">*</text>
<text x="282.52" y="357.63">.</text>
<text x="315.22" y="450.96">*</text>
<text x="297.63" y="377.15">+</text>
<text x="82.55" y="207.14">+</text>
<text x="360.18" y="114.36">+</text>
<text x="444.20" y="360.50">*</text>
<text x="120.45" y="214.67">.</text>
<text x="164.59" y="243.68">.</text>
<text x="76.07" y="495.25">.</text>
<text x="389.57" y="482.25">.</text>
<text x="48.94" y="36.31">.</text>
<text x="367.30" y="197.44">+</text>
<text x="48.77" y="101.80">+</text>
<text x="43.33" y="53.66">.</text>
<text x="209.96" y="160.95">+</text>
<text x="132.75" y="103.01">+</text>
<text x="63.95" y="457.90">+</text>
<text x="326.69" y="130.45">+</text>
<text x="15.79" y="113.53">*</text>
<text x="237.68" y="90.21">+</text>
<text x="150.72" y="361.93">.</text>
<text x="363.79" y="303.13">.</text>
<text x="260.79" y="232.86">+</text>
<text x="59.38" y="6.12">+</text>
<text x="331.26" y="119.52">*</text>
<text x="265.72" y="125.10">+</text>
<text x="378.60" y="39.29">+</text>
<text x="42.89" y="30.39">+</text>
<text x="163.83" y="334.29">+</text>
<text x="474.25" y="499.04">+</text>
<text x="237.88" y="482.82">+</text>
<text x="483.12" y="154.95">.</text>
<text x="292.22" y="107.88">+</text>
<text x="27.26" y="468.23">+</text>
<text x="204.89" y="414.20">+</text>
<text x="139.26" y="240.42">+</text>
<text x="418.49" y="452.73">.</text>
<text x="327.07" y="315.84">+</text>
<text x="27.89" y="427.84">+</text>
<text x="301.11" y="291.90">+</text>
<text x="95.23" y="352.86">+</text>
<text x="305.63" y="347.51">+</text>
<text x="75.56" y="340.64">+</text>
<text x="482.28" y="375.11">*</text>
<text x="19.00" y="60.63">+</text>
<text x="111.82" y="347.48">+</text>
<text x="316.26" y="66.48">+</text>
<text x="79.27" y="369.58">+</text>
<text x="393.24" y="202.27">.</text>
<text x="351.37" y="430.70">+</text>
<text x="493.95" y="151.04">+</text>
<text x="107.43" y="65.93">+</text>
<text x="5.67" y="441.68">+</text>
<text x="216.35" y="296.85">.</text>
<text x="399.26" y="433.74">+</text>
<text x="474.50" y="297.51">.</text>
<text x="52.79" y="361.01">.</text>
<text x="179.27" y="46.35">+</text>
<text x="138.82" y="444.37">+</text>
<text x="178.92" y="336.33">.</text>
<text x="232.73" y="314.89">+</text>
<text x="224.89" y="364.65">.</text>
<text x="470.68" y="448.64">.</text>
<text x="494.08" y="187.92">.</text>
<text x="283.25" y="71.14">+</text>
<text x="138.30" y="169.46">.</text>
<text x="172.80" y="173.72">.</text>
<text x="30.31" y="177.64">+</text>
<text x="40.80" y="369.52">+</text>
<text x="178.07" y="202.83">.</text>
<text x="149.03" y="79.29">+</text>
<text x="401.59" y="351.45">+</text>
<text x="325.56" y="272.06">+</text>
<text x="151.48" y="402.70">+</text>
<text x="141.67" y="306.08">+</text>
<text x="235.68" y="135.70">+</text>
<text x="38.59" y="412.20">+</text>
<text x="99.83" y="75.10">*</text>
<text x="166.48" y="174.87">+</text>
<text x="311.34" y="387.86">+</text>
<text x="367.96" y="62.10">+</text>
<text x="368.13" y="315.42">.</text>
<text x="397.38" y="417.12">.</text>
<text x="384.25" y="474.89">*</text>
<text x="267.80" y="134.35">.</text>
<text x="177.30" y="62.72">.</text>
<text x="117.35" y="410.46">+</text>
<text x="282.14" y="267.68">.</text>
<text x="67.53" y="394.82">+</text>
<text x="75.08" y="95.87">.</text>
<text x="388.75" y="492.89">+</text>
<text x="29.24" y="30.13">+</text>
<text x="263.42" y="25.28">*</text>
<text x="357.43" y="111.62">.</text>
<text x="409.52" y="91.36">+</text>
<text x="330.11" y="358.99">.</text>
<text x="206.13" y="68.16">+</text>
<text x="126.85" y="27.83">.</text>
<text x="57.55" y="472.43">+</text>
<text x="244.58" y="38.46">*</text>
<text x="212.20" y="39.07">*</text>
<text x="11.54" y="124.17">+</text>
<text x="313.56" y="64.04">*</text>
<text x="86.44" y="33.63">+</text>
<text x="475.16" y="134.57">+</text>
<text x="450.25" y="317.60">+</text>
<text x="494.63" y="152.22">+</text>
<text x="159.98" y="476.74">+</text>
<text x="225.80" y="273.91">.</text>
<text x="18.59" y="470.85">+</text>
<text x="267.25" y="274.67">*</text>
<text x="147.72" y="446.02">.</text>
<text x="422.62" y="43.58">*</text>
<text x="98.57" y="171.93">+</text>
<text x="326.92" y="267.78">+</text>
<text x="155.07" y="1.12">+</text>
<text x="86.45" y="67.81">+</text>
<text x="461.48" y="62.57">+</text>
<text x="318.01" y="245.35">+</text>
<text x="479.91" y="256.46">+</text>
<text x="353.27" y="281.24">+</text>
<text x="252.87" y="122.96">.</text>
<text x="464.98" y="439.72">.</text>
<text x="462.53" y="228.93">.</text>
<text x="228.02" y="15.26">+</text>
<text x="249.47" y="470.83">+</text>
<text x="26.68" y="473.18">.</text>
<text x="78.53" y="483.38">.</text>
<text x="358.39" y="373.63">*</text>
<text x="16.92" y="396.52">.</text>
<text x="328.84" y="123.31">+</text>
<text x="330.48" y="106.83">+</text>
<text x="349.07" y="13.28">+</text>

</svg>