
<svg viewBox="0 0 500 500" xmlns="http://www.w.org/2000/svg" width="100%" height="100%" style="background-color: #0a0a14; font-family: 'Courier New', Courier, monospace;">
    <style>
        text { fill: #aaa; font-size: 10px; text-anchor: middle; dominant-baseline: middle; }
    </style>
    <text x="417.09" y="412.90">.</text>
<text x="434.30" y="257.24">.</text>
<text x="269.77" y="236.55">*</text>
<text x="412.29" y="295.16">+</text>
<text x="433.26" y="446.76">+</text>
<text x="459.89" y="185.55">.</text>
<text x="340.64" y="127.32">+</text>
<text x="314.79" y="461.47">+</text>
<text x="4.43" y="214.89">.</text>
<text x="380.55" y="283.90">+</text>
<text x="416.93" y="220.25">+</text>
<text x="401.99" y="372.65">.</text>
<text x="444.56" y="288.04">*</text>
<text x="112.00" y="356.24">.</text>
<text x="497.40" y="363.26">.</text>
<text x="348.94" y="141.83">.</text>
<text x="0.03" y="111.89">.</text>
<text x="413.20" y="249.66">.</text>
<text x="410.68" y="134.34">*</text>
<text x="372.77" y="76.92">.</text>
<text x="141.75" y="483.97">+</text>
<text x="31.96" y="320.16">.</text>
<text x="176.74" y="104.47">*</text>
<text x="237.64" y="399.51">.</text>
<text x="302.10" y="6.79">+</text>
<text x="257.79" y="261.04">*</text>
<text x="344.67" y="248.41">+</text>
<text x="308.36" y="173.09">+</text>
<text x="209.47" y="71.56">+</text>
<text x="364.32" y="345.47">+</text>
<text x="293.44" y="189.62">+</text>
<text x="43.02" y="74.82">.</text>
<text x="132.43" y="218.68">.</text>
<text x="144.48" y="186.13">+</text>
<text x="358.49" y="303.17">.</text>
<text x="43.65" y="88.10">+</text>
<text x="27.22" y="218.52">*</text>
<text x="183.13" y="348.56">.</text>
<text x="201.10" y="115.23">.</text>
<text x="370.58" y="458.30">+</text>
<text x="247.87" y="374.22">.</text>
<text x="135.76" y="414.03">+</text>
<text x="425.53" y="420.73">+</text>
<text x="112.21" y="328.33">+</text>
<text x="26.91" y="263.10">+</text>
<text x="153.24" y="232.81">+</text>
<text x="149.31" y="395.64">.</text>
<text x="72.33" y="269.30">+</text>
<text x="218.94" y="83.28">+</text>
<text x="405.31" y="396.41">+</text>
<text x="217.29" y="45.83">+</text>
<text x="477.51" y="434.91">.</text>
<text x="17.42" y="441.36">+</text>
<text x="278.51" y="64.49">.</text>
<text x="138.27" y="424.81">+</text>
<text x="485.27" y="387.69">*</text>
<text x="2.40" y="354.19">*</text>
<text x="339.44" y="167.14">.</text>
<text x="459.08" y="140.89">+</text>
<text x="414.22" y="412.74">.</text>
<text x="425.39" y="427.74">.</text>
<text x="349.42" y="125.88">.</text>
<text x="198.69" y="316.69">.</text>
<text x="274.15" y="96.39">.</text>
<text x="1.09" y="439.53">+</text>
<text x="408.84" y="146.67">.</text>
<text x="173.25" y="487.86">+</text>
<text x="305.62" y="14.33">.</text>
<text x="64.01" y="322.65">.</text>
<text x="334.19" y="237.72">+</text>
<text x="434.30" y="11.74">.</text>
<text x="185.15" y="175.37">.</text>
<text x="294.64" y="16.71">.</text>
<text x="481.54" y="333.05">+</text>
<text x="131.20" y="210.63">.</text>
<text x="159.61" y="239.90">.</text>
<text x="33.33" y="349.34">+</text>
<text x="263.14" y="178.80">.</text>
<text x="384.42" y="233.22">.</text>
<text x="197.44" y="110.39">*</text>
<text x="103.19" y="14.03">.</text>
<text x="153.99" y="71.29">+</text>
<text x="493.50" y="347.85">.</text>
<text x="208.11" y="242.54">+</text>
<text x="188.98" y="98.89">.</text>
<text x="449.03" y="330.21">+</text>
<text x="141.75" y="466.08">+</text>
<text x="361.01" y="485.16">.</text>
<text x="46.47" y="80.66">.</text>
<text x="483.87" y="122.00">+</text>
<text x="257.19" y="423.63">.</text>
<text x="400.55" y="428.66">+</text>
<text x="121.23" y="261.95">.</text>
<text x="149.14" y="454.72">+</text>
<text x="87.01" y="174.60">+</text>
<text x="488.41" y="293.00">.</text>
<text x="461.75" y="150.24">+</text>
<text x="361.05" y="235.97">+</text>
<text x="126.62" y="330.71">*</text>
<text x="116.78" y="73.73">.</text>
<text x="386.64" y="190.27">.</text>
<text x="274.47" y="366.59">+</text>
<text x="133.79" y="161.66">*</text>
<text x="230.67" y="261.16">.</text>
<text x="287.38" y="168.74">*</text>
<text x="324.70" y="293.28">.</text>
<text x="180.52" y="230.89">.</text>
<text x="211.97" y="22.20">.</text>
<text x="109.80" y="64.59">+</text>
<text x="46.16" y="342.26">+</text>
<text x="427.49" y="22.14">*</text>
<text x="387.66" y="310.76">.</text>
<text x="192.80" y="321.03">.</text>
<text x="105.37" y="246.21">+</text>
<text x="257.91" y="42.98">+</text>
<text x="452.32" y="255.93">*</text>
<text x="387.86" y="273.46">+</text>
<text x="224.74" y="139.60">+</text>
<text x="34.93" y="272.60">.</text>
<text x="55.48" y="7.97">+</text>
<text x="115.83" y="154.56">.</text>
<text x="85.24" y="260.41">.</text>
<text x="424.70" y="376.05">+</text>
<text x="289.95" y="112.49">+</text>
<text x="467.92" y="415.41">+</text>
<text x="242.18" y="104.16">*</text>
<text x="386.94" y="346.01">*</text>
<text x="34.77" y="287.22">+</text>
<text x="63.63" y="300.05">.</text>
<text x="331.07" y="257.14">.</text>
<text x="256.95" y="50.83">+</text>
<text x="59.61" y="198.01">+</text>
<text x="235.33" y="120.31">+</text>
<text x="385.39" y="155.57">.</text>
<text x="404.66" y="395.76">.</text>
<text x="343.03" y="369.82">+</text>
<text x="138.47" y="498.81">.</text>
<text x="45.70" y="293.03">.</text>
<text x="177.02" y="48.53">.</text>
<text x="263.25" y="69.19">+</text>
<text x="108.39" y="219.75">.</text>
<text x="210.59" y="97.73">+</text>
<text x="178.00" y="384.10">.</text>
<text x="358.63" y="82.49">+</text>
<text x="172.56" y="107.38">*</text>
<text x="360.93" y="131.99">+</text>
<text x="421.47" y="85.57">.</text>
<text x="28.52" y="234.02">+</text>
<text x="300.68" y="260.43">+</text>
<text x="152.66" y="489.58">+</text>
<text x="195.95" y="461.69">.</text>
<text x="65.39" y="428.73">.</text>
<text x="223.87" y="56.46">+</text>
<text x="104.39" y="397.84">.</text>
<text x="271.58" y="376.07">.</text>
<text x="415.56" y="413.07">.</text>
<text x="372.22" y="211.33">+</text>
<text x="148.50" y="191.70">.</text>
<text x="37.23" y="230.19">*</text>
<text x="421.24" y="78.53">.</text>
<text x="353.45" y="201.46">*</text>
<text x="202.14" y="162.32">+</text>
<text x="472.40" y="388.49">+</text>
<text x="416.49" y="314.47">+</text>
<text x="428.69" y="170.73">+</text>
<text x="331.55" y="363.42">.</text>
<text x="261.10" y="53.57">+</text>
<text x="217.08" y="238.35">.</text>
<text x="460.69" y="405.42">.</text>
<text x="233.86" y="304.24">+</text>
<text x="329.19" y="416.88">.</text>
<text x="8.13" y="56.80">.</text>
<text x="271.24" y="306.81">+</text>
<text x="135.58" y="103.27">.</text>
<text x="363.08" y="294.07">+</text>
<text x="233.28" y="48.15">.</text>
<text x="267.40" y="488.83">*</text>
<text x="473.75" y="483.87">+</text>
<text x="458.43" y="476.00">.</text>
<text x="387.94" y="342.15">+</text>
<text x="252.65" y="55.59">.</text>
<text x="260.81" y="363.27">+</text>
<text x="196.64" y="232.85">+</text>
<text x="176.31" y="260.01">.</text>
<text x="280.50" y="491.33">.</text>
<text x="481.29" y="377.56">.</text>
<text x="166.33" y="33.03">.</text>
<text x="214.96" y="472.39">*</text>
<text x="76.80" y="473.38">+</text>
<text x="16.78" y="194.31">+</text>
<text x="84.12" y="18.11">+</text>
<text x="328.91" y="250.23">*</text>
<text x="192.39" y="147.85">.</text>
<text x="174.52" y="450.49">+</text>
<text x="309.09" y="456.32">.</text>
<text x="303.29" y="282.55">+</text>
<text x="8.69" y="6.22">.</text>
<text x="270.88" y="230.20">*</text>
<text x="281.41" y="193.43">+</text>
<text x="458.61" y="128.38">.</text>
<text x="308.36" y="209.24">.</text>
<text x="193.05" y="395.98">.</text>
<text x="184.37" y="281.94">+</text>
<text x="424.94" y="321.80">+</text>
<text x="15.75" y="48.75">+</text>
<text x="17.91" y="113.70">+</text>
<text x="37.94" y="174.05">.</text>
<text x="54.00" y="330.35">.</text>
<text x="396.98" y="136.16">+</text>
<text x="409.18" y="155.72">.</text>
<text x="445.38" y="105.61">.</text>
<text x="430.65" y="15.28">.</text>
<text x="176.02" y="327.39">.</text>
<text x="162.90" y="455.88">+</text>
<text x="311.20" y="400.90">.</text>
<text x="274.08" y="295.07">+</text>
<text x="158.94" y="85.11">+</text>
<text x="50.53" y="447.55">.</text>
<text x="453.23" y="230.58">+</text>

</svg>