
<svg viewBox="0 0 500 500" xmlns="http://www.w.org/2000/svg" width="100%" height="100%" style="background-color: #0a0a14; font-family: 'Courier New', Courier, monospace;">
    <style>
        text { fill: #aaa; font-size: 10px; text-anchor: middle; dominant-baseline: middle; }
    </style>
    <text x="207.51" y="88.33">*</text>
<text x="9.45" y="306.79">+</text>
<text x="381.20" y="435.17">.</text>
<text x="386.79" y="63.48">.</text>
<text x="23.36" y="157.30">+</text>
<text x="493.28" y="417.32">*</text>
<text x="41.74" y="278.46">.</text>
<text x="173.04" y="268.61">.</text>
<text x="425.28" y="187.38">+</text>
<text x="217.74" y="172.69">+</text>
<text x="22.36" y="344.20">.</text>
<text x="494.80" y="414.39">.</text>
<text x="288.25" y="52.16">.</text>
<text x="24.33" y="451.02">.</text>
<text x="1.07" y="375.98">+</text>
<text x="278.84" y="335.87">.</text>
<text x="125.64" y="484.48">+</text>
<text x="242.08" y="37.23">.</text>
<text x="60.76" y="258.91">.</text>
<text x="353.08" y="257.47">.</text>
<text x="348.25" y="29.52">.</text>
<text x="411.13" y="12.54">*</text>
<text x="219.22" y="204.81">*</text>
<text x="87.86" y="430.01">.</text>
<text x="476.09" y="199.96">.</text>
<text x="92.26" y="343.26">+</text>
<text x="181.64" y="151.38">.</text>
<text x="490.21" y="162.48">.</text>
<text x="71.59" y="206.95">*</text>
<text x="82.90" y="185.74">*</text>
<text x="176.88" y="21.61">.</text>
<text x="240.51" y="213.24">.</text>
<text x="462.10" y="129.24">+</text>
<text x="367.82" y="216.96">+</text>
<text x="157.62" y="452.57">.</text>
<text x="281.00" y="44.32">+</text>
<text x="105.83" y="312.54">.</text>
<text x="291.42" y="57.19">.</text>
<text x="420.61" y="251.04">+</text>
<text x="160.47" y="1.79">.</text>
<text x="350.01" y="156.58">+</text>
<text x="292.45" y="279.12">.</text>
<text x="161.11" y="487.66">*</text>
<text x="231.53" y="124.60">.</text>
<text x="53.95" y="488.22">*</text>
<text x="442.80" y="325.82">.</text>
<text x="158.73" y="410.19">.</text>
<text x="275.62" y="391.42">.</text>
<text x="348.46" y="13.97">.</text>
<text x="41.38" y="251.39">+</text>
<text x="44.27" y="41.74">.</text>
<text x="15.39" y="131.15">+</text>
<text x="88.35" y="488.02">+</text>
<text x="35.24" y="19.99">+</text>
<text x="328.20" y="221.37">.</text>
<text x="451.75" y="400.35">.</text>
<text x="146.74" y="187.84">+</text>
<text x="113.19" y="154.97">+</text>
<text x="173.69" y="213.87">+</text>
<text x="288.66" y="482.37">*</text>
<text x="168.55" y="241.16">+</text>
<text x="308.37" y="49.36">+</text>
<text x="311.72" y="433.96">+</text>
<text x="203.28" y="466.83">+</text>
<text x="319.52" y="260.78">+</text>
<text x="308.79" y="379.49">.</text>
<text x="484.48" y="323.80">.</text>
<text x="361.20" y="212.78">.</text>
<text x="444.66" y="309.18">+</text>
<text x="439.21" y="160.98">+</text>
<text x="277.86" y="324.31">.</text>
<text x="190.06" y="159.83">+</text>
<text x="18.61" y="75.60">+</text>
<text x="378.37" y="306.75">+</text>
<text x="14.79" y="158.47">.</text>
<text x="116.74" y="303.83">.</text>
<text x="41.95" y="83.16">*</text>
<text x="104.49" y="342.32">.</text>
<text x="386.99" y="469.32">+</text>
<text x="24.11" y="4.57">*</text>
<text x="59.96" y="326.07">+</text>
<text x="395.36" y="470.68">+</text>
<text x="273.28" y="107.64">+</text>
<text x="248.91" y="43.19">.</text>
<text x="36.98" y="265.34">.</text>
<text x="83.59" y="51.51">*</text>
<text x="281.73" y="76.90">+</text>
<text x="3.11" y="372.24">.</text>
<text x="123.72" y="14.11">+</text>
<text x="413.86" y="222.96">.</text>
<text x="448.71" y="343.84">+</text>
<text x="487.79" y="52.76">+</text>
<text x="256.15" y="436.91">*</text>
<text x="334.10" y="241.26">.</text>
<text x="492.67" y="8.30">.</text>
<text x="330.86" y="27.88">+</text>
<text x="359.81" y="406.52">.</text>
<text x="275.19" y="26.47">+</text>
<text x="101.66" y="144.34">+</text>
<text x="142.68" y="484.47">.</text>
<text x="14.31" y="499.55">.</text>
<text x="198.71" y="256.58">.</text>
<text x="234.43" y="308.49">+</text>
<text x="369.70" y="414.83">*</text>
<text x="388.77" y="127.73">.</text>
<text x="255.11" y="159.12">.</text>
<text x="381.17" y="123.76">*</text>
<text x="257.75" y="46.94">.</text>
<text x="63.86" y="246.58">+</text>
<text x="52.70" y="439.11">+</text>
<text x="109.69" y="34.96">+</text>
<text x="368.12" y="300.96">+</text>
<text x="487.47" y="432.70">.</text>
<text x="169.09" y="430.30">.</text>
<text x="138.69" y="115.25">.</text>
<text x="72.11" y="393.20">.</text>
<text x="380.22" y="182.89">.</text>
<text x="65.33" y="337.40">.</text>
<text x="331.05" y="197.56">+</text>
<text x="444.27" y="134.93">.</text>
<text x="290.58" y="252.75">.</text>
<text x="261.62" y="92.25">.</text>
<text x="206.13" y="339.31">.</text>
<text x="267.98" y="76.97">.</text>
<text x="422.25" y="248.75">+</text>
<text x="166.73" y="90.70">.</text>
<text x="107.55" y="58.70">.</text>
<text x="405.83" y="186.72">.</text>
<text x="119.81" y="241.08">+</text>
<text x="105.10" y="229.15">*</text>
<text x="262.56" y="147.58">+</text>
<text x="243.44" y="463.12">.</text>
<text x="242.61" y="44.06">+</text>
<text x="319.54" y="326.14">.</text>
<text x="44.14" y="214.80">+</text>
<text x="236.05" y="163.99">*</text>
<text x="301.49" y="308.43">.</text>
<text x="240.61" y="462.06">+</text>
<text x="33.73" y="104.02">+</text>
<text x="44.64" y="224.40">.</text>
<text x="485.22" y="236.24">+</text>
<text x="32.78" y="60.02">+</text>
<text x="151.20" y="481.87">+</text>
<text x="60.43" y="111.97">.</text>
<text x="136.40" y="53.81">+</text>
<text x="396.15" y="50.83">.</text>
<text x="452.32" y="327.72">*</text>
<text x="312.86" y="420.90">+</text>
<text x="45.12" y="21.53">+</text>
<text x="259.93" y="15.99">.</text>
<text x="498.61" y="203.31">*</text>
<text x="220.27" y="50.75">*</text>
<text x="287.45" y="251.64">+</text>
<text x="379.06" y="337.69">*</text>
<text x="334.72" y="183.05">+</text>
<text x="247.39" y="496.84">+</text>
<text x="19.81" y="219.99">+</text>
<text x="145.72" y="53.39">+</text>
<text x="32.06" y="100.12">.</text>
<text x="251.81" y="214.41">+</text>
<text x="391.60" y="64.71">.</text>
<text x="160.05" y="25.66">+</text>
<text x="64.00" y="47.09">*</text>
<text x="419.87" y="129.06">.</text>
<text x="236.50" y="83.63">.</text>
<text x="365.14" y="412.40">.</text>
<text x="249.67" y="201.84">.</text>
<text x="275.02" y="209.42">+</text>
<text x="59.27" y="107.25">.</text>
<text x="295.64" y="176.55">.</text>
<text x="332.71" y="484.45">+</text>
<text x="278.98" y="253.74">.</text>
<text x="109.29" y="231.99">+</text>
<text x="35.37" y="281.22">+</text>
<text x="467.94" y="65.65">.</text>
<text x="71.81" y="376.91">+</text>
<text x="464.79" y="95.70">+</text>
<text x="460.46" y="232.06">.</text>
<text x="113.48" y="176.11">*</text>
<text x="99.46" y="355.79">.</text>
<text x="153.13" y="38.82">+</text>
<text x="294.59" y="180.08">.</text>
<text x="92.90" y="82.04">+</text>
<text x="481.22" y="432.33">.</text>
<text x="403.53" y="89.05">+</text>
<text x="240.30" y="318.07">.</text>
<text x="369.78" y="333.15">.</text>
<text x="475.53" y="441.57">.</text>
<text x="265.65" y="407.19">+</text>
<text x="293.19" y="391.50">.</text>
<text x="111.52" y="3.68">.</text>
<text x="25.33" y="479.29">+</text>
<text x="63.46" y="337.71">.</text>
<text x="226.69" y="465.24">.</text>
<text x="193.41" y="486.99">+</text>
<text x="118.62" y="355.50">.</text>
<text x="7.01" y="474.82">.</text>
<text x="329.39" y="159.95">+</text>
<text x="463.62" y="302.65">+</text>
<text x="272.32" y="14.35">.</text>
<text x="41.69" y="101.42">.</text>
<text x="76.35" y="135.95">.</text>
<text x="457.09" y="491.72">+</text>
<text x="203.83" y="132.70">+</text>
<text x="389.69" y="281.61">*</text>
<text x="118.76" y="14.98">.</text>
<text x="349.82" y="369.20">.</text>
<text x="98.48" y="174.84">+</text>
<text x="354.37" y="280.90">.</text>
<text x="287.19" y="80.58">*</text>
<text x="327.46" y="64.58">*</text>
<text x="440.98" y="332.66">+</text>
<text x="197.42" y="232.23">+</text>
<text x="398.57" y="184.23">+</text>
<text x="469.07" y="355.08">+</text>

</svg>