
<svg viewBox="0 0 500 500" xmlns="http://www.w.org/2000/svg" width="100%" height="100%" style="background-color: #0a0a14; font-family: 'Courier New', Courier, monospace;">
    <style>
        text { fill: #aaa; font-size: 10px; text-anchor: middle; dominant-baseline: middle; }
    </style>
    <text x="315.11" y="110.92">+</text>
<text x="66.53" y="430.56">+</text>
<text x="3.42" y="105.79">+</text>
<text x="122.78" y="447.49">+</text>
<text x="349.57" y="154.80">+</text>
<text x="240.55" y="218.89">*</text>
<text x="277.69" y="450.05">+</text>
<text x="355.38" y="387.76">+</text>
<text x="107.04" y="129.73">*</text>
<text x="56.45" y="330.71">+</text>
<text x="168.13" y="282.42">.</text>
<text x="350.44" y="192.58">*</text>
<text x="44.60" y="55.06">.</text>
<text x="19.16" y="266.56">.</text>
<text x="200.39" y="284.63">*</text>
<text x="427.38" y="50.62">+</text>
<text x="47.94" y="324.01">.</text>
<text x="252.69" y="451.56">.</text>
<text x="365.18" y="170.81">+</text>
<text x="426.64" y="281.58">+</text>
<text x="341.16" y="17.19">+</text>
<text x="132.73" y="128.45">.</text>
<text x="467.85" y="356.89">.</text>
<text x="257.20" y="335.25">+</text>
<text x="454.05" y="234.93">+</text>
<text x="152.06" y="242.49">+</text>
<text x="370.73" y="382.82">*</text>
<text x="257.68" y="353.39">+</text>
<text x="368.75" y="494.50">+</text>
<text x="44.59" y="236.02">+</text>
<text x="279.11" y="262.76">+</text>
<text x="158.48" y="198.81">.</text>
<text x="407.86" y="446.69">.</text>
<text x="93.93" y="228.75">+</text>
<text x="493.18" y="14.07">.</text>
<text x="190.49" y="86.80">.</text>
<text x="290.90" y="415.08">.</text>
<text x="144.49" y="135.54">+</text>
<text x="479.99" y="169.44">+</text>
<text x="129.59" y="303.44">+</text>
<text x="302.67" y="58.77">.</text>
<text x="17.64" y="427.43">.</text>
<text x="107.94" y="410.19">.</text>
<text x="21.89" y="48.54">.</text>
<text x="79.16" y="192.10">.</text>
<text x="213.39" y="420.82">.</text>
<text x="369.69" y="114.95">*</text>
<text x="402.68" y="123.61">+</text>
<text x="433.94" y="435.82">+</text>
<text x="189.63" y="217.81">.</text>
<text x="176.85" y="72.00">+</text>
<text x="72.76" y="389.05">.</text>
<text x="337.88" y="448.40">+</text>
<text x="456.60" y="398.36">.</text>
<text x="484.98" y="473.18">.</text>
<text x="259.07" y="101.26">.</text>
<text x="383.98" y="160.92">+</text>
<text x="281.01" y="26.56">*</text>
<text x="181.48" y="338.84">+</text>
<text x="233.94" y="340.13">.</text>
<text x="244.72" y="464.95">+</text>
<text x="19.86" y="83.84">.</text>
<text x="291.71" y="41.97">*</text>
<text x="330.22" y="225.46">+</text>
<text x="345.50" y="196.14">*</text>
<text x="34.06" y="490.23">*</text>
<text x="105.47" y="417.09">+</text>
<text x="167.92" y="235.67">*</text>
<text x="259.61" y="285.38">.</text>
<text x="446.91" y="37.37">.</text>
<text x="360.77" y="128.23">+</text>
<text x="23.14" y="441.71">+</text>
<text x="394.02" y="469.61">*</text>
<text x="150.82" y="109.23">.</text>
<text x="489.88" y="140.68">.</text>
<text x="318.46" y="318.55">+</text>
<text x="354.46" y="182.75">.</text>
<text x="103.80" y="4.14">.</text>
<text x="354.48" y="145.15">*</text>
<text x="232.64" y="283.45">*</text>
<text x="469.65" y="385.55">+</text>
<text x="59.30" y="162.91">.</text>
<text x="371.71" y="194.24">+</text>
<text x="163.72" y="463.05">+</text>
<text x="205.14" y="362.47">.</text>
<text x="339.77" y="155.23">+</text>
<text x="406.97" y="88.19">.</text>
<text x="230.37" y="426.85">.</text>
<text x="463.15" y="307.22">.</text>
<text x="444.86" y="5.08">.</text>
<text x="54.63" y="354.75">*</text>
<text x="68.14" y="189.40">.</text>
<text x="242.49" y="1.91">.</text>
<text x="23.47" y="88.88">.</text>
<text x="424.12" y="62.54">*</text>
<text x="444.01" y="163.92">+</text>
<text x="480.64" y="135.44">.</text>
<text x="469.84" y="433.03">.</text>
<text x="472.40" y="187.06">*</text>
<text x="58.02" y="289.39">.</text>
<text x="107.34" y="419.72">+</text>
<text x="239.45" y="24.66">+</text>
<text x="123.05" y="347.01">+</text>
<text x="491.15" y="438.02">.</text>
<text x="272.62" y="428.39">.</text>
<text x="251.58" y="330.94">.</text>
<text x="428.02" y="438.70">.</text>
<text x="147.59" y="33.16">+</text>
<text x="254.32" y="354.11">.</text>
<text x="106.75" y="467.84">.</text>
<text x="304.97" y="244.39">*</text>
<text x="190.13" y="33.50">*</text>
<text x="159.93" y="291.25">+</text>
<text x="224.23" y="82.68">+</text>
<text x="474.02" y="221.39">.</text>
<text x="257.41" y="91.74">+</text>
<text x="178.00" y="314.45">+</text>
<text x="438.88" y="478.57">+</text>
<text x="165.04" y="404.20">+</text>
<text x="193.39" y="264.77">.</text>
<text x="307.97" y="446.36">+</text>
<text x="15.22" y="146.35">*</text>
<text x="267.26" y="197.44">.</text>
<text x="437.99" y="372.62">+</text>
<text x="334.06" y="392.44">+</text>
<text x="193.41" y="327.30">+</text>
<text x="77.23" y="244.09">.</text>
<text x="64.58" y="479.02">.</text>
<text x="419.32" y="219.64">+</text>
<text x="142.99" y="28.99">+</text>
<text x="232.35" y="295.97">.</text>
<text x="377.94" y="396.14">.</text>
<text x="301.41" y="427.09">.</text>
<text x="107.42" y="412.33">+</text>
<text x="374.18" y="25.59">*</text>
<text x="310.68" y="163.31">.</text>
<text x="493.89" y="184.60">*</text>
<text x="368.17" y="307.70">+</text>
<text x="284.01" y="15.34">*</text>
<text x="478.64" y="9.91">.</text>
<text x="92.97" y="437.24">+</text>
<text x="436.25" y="135.83">.</text>
<text x="115.59" y="12.49">.</text>
<text x="474.02" y="254.38">*</text>
<text x="231.98" y="144.60">.</text>
<text x="362.83" y="120.25">+</text>
<text x="109.33" y="151.05">*</text>
<text x="66.76" y="142.28">+</text>
<text x="369.96" y="64.78">.</text>
<text x="51.58" y="120.56">.</text>
<text x="221.22" y="100.96">.</text>
<text x="76.59" y="145.02">*</text>
<text x="433.91" y="377.44">+</text>
<text x="314.71" y="483.32">.</text>
<text x="493.04" y="6.94">+</text>
<text x="162.16" y="108.78">+</text>
<text x="407.21" y="360.92">+</text>
<text x="177.63" y="213.76">*</text>
<text x="183.95" y="29.21">.</text>
<text x="228.16" y="470.87">.</text>
<text x="258.35" y="492.45">*</text>
<text x="447.57" y="70.77">.</text>
<text x="113.78" y="259.17">.</text>
<text x="199.68" y="122.45">.</text>
<text x="232.16" y="169.51">*</text>
<text x="106.36" y="239.44">+</text>
<text x="301.09" y="360.84">.</text>
<text x="343.87" y="491.59">*</text>
<text x="467.38" y="361.13">+</text>
<text x="491.39" y="282.91">.</text>
<text x="471.36" y="58.92">+</text>
<text x="110.25" y="278.09">+</text>
<text x="288.88" y="60.36">+</text>
<text x="345.12" y="54.43">.</text>
<text x="161.57" y="409.25">.</text>
<text x="454.79" y="346.93">+</text>
<text x="43.80" y="137.51">+</text>
<text x="122.15" y="494.67">+</text>
<text x="388.56" y="184.66">.</text>
<text x="450.37" y="274.79">.</text>
<text x="290.61" y="99.18">.</text>
<text x="149.11" y="133.44">+</text>
<text x="46.21" y="238.23">+</text>
<text x="344.13" y="337.36">+</text>
<text x="266.98" y="263.39">.</text>
<text x="494.52" y="246.41">*</text>
<text x="56.36" y="237.74">.</text>
<text x="309.37" y="432.36">+</text>
<text x="15.94" y="32.62">.</text>
<text x="308.26" y="138.98">+</text>
<text x="313.79" y="42.44">*</text>
<text x="211.35" y="284.02">.</text>
<text x="184.48" y="450.58">*</text>
<text x="323.76" y="326.10">+</text>
<text x="286.77" y="59.76">+</text>
<text x="424.57" y="444.67">+</text>
<text x="35.67" y="219.78">.</text>
<text x="15.41" y="76.81">*</text>
<text x="152.51" y="100.58">+</text>
<text x="257.69" y="42.34">+</text>
<text x="417.80" y="331.45">.</text>
<text x="158.97" y="117.96">+</text>
<text x="358.46" y="464.78">+</text>
<text x="4.07" y="237.35">+</text>
<text x="416.40" y="290.29">+</text>
<text x="496.71" y="106.17">+</text>
<text x="471.13" y="351.72">.</text>
<text x="219.03" y="313.10">+</text>
<text x="465.21" y="85.65">*</text>
<text x="284.65" y="117.29">.</text>
<text x="82.27" y="268.24">.</text>
<text x="174.33" y="285.40">.</text>
<text x="139.81" y="240.21">+</text>
<text x="227.51" y="323.38">.</text>
<text x="319.01" y="145.67">.</text>

</svg>