
<svg viewBox="0 0 500 500" xmlns="http://www.w.org/2000/svg" width="100%" height="100%" style="background-color: #0a0a14; font-family: 'Courier New', Courier, monospace;">
    <style>
        text { fill: #aaa; font-size: 10px; text-anchor: middle; dominant-baseline: middle; }
    </style>
    <text x="131.95" y="200.88">.</text>
<text x="235.72" y="34.07">+</text>
<text x="465.82" y="415.42">+</text>
<text x="24.60" y="60.18">.</text>
<text x="291.51" y="373.71">*</text>
<text x="331.25" y="492.31">+</text>
<text x="176.62" y="448.75">.</text>
<text x="258.75" y="321.56">.</text>
<text x="74.25" y="366.83">.</text>
<text x="173.89" y="37.14">.</text>
<text x="115.12" y="435.67">+</text>
<text x="413.89" y="48.05">.</text>
<text x="38.17" y="497.44">.</text>
<text x="275.06" y="223.18">+</text>
<text x="43.79" y="486.53">.</text>
<text x="0.41" y="118.23">+</text>
<text x="153.85" y="367.47">.</text>
<text x="463.04" y="130.80">+</text>
<text x="146.78" y="30.01">+</text>
<text x="274.30" y="208.73">*</text>
<text x="372.82" y="102.06">*</text>
<text x="257.99" y="448.78">.</text>
<text x="101.93" y="75.41">.</text>
<text x="394.23" y="60.31">*</text>
<text x="273.65" y="293.19">+</text>
<text x="230.13" y="251.63">+</text>
<text x="336.12" y="402.92">+</text>
<text x="263.20" y="31.59">.</text>
<text x="436.01" y="156.01">.</text>
<text x="469.50" y="399.47">.</text>
<text x="438.71" y="32.47">.</text>
<text x="368.39" y="45.13">+</text>
<text x="216.05" y="75.60">.</text>
<text x="55.50" y="135.72">+</text>
<text x="114.06" y="94.04">.</text>
<text x="390.45" y="209.39">.</text>
<text x="190.45" y="430.25">+</text>
<text x="366.29" y="179.84">+</text>
<text x="426.33" y="169.98">.</text>
<text x="166.14" y="9.67">.</text>
<text x="183.44" y="159.44">+</text>
<text x="186.71" y="368.08">+</text>
<text x="493.99" y="484.80">+</text>
<text x="223.09" y="260.46">.</text>
<text x="178.29" y="373.35">*</text>
<text x="259.04" y="261.89">*</text>
<text x="141.18" y="51.92">*</text>
<text x="51.02" y="271.15">+</text>
<text x="330.89" y="336.21">+</text>
<text x="16.44" y="269.55">+</text>
<text x="24.92" y="180.47">+</text>
<text x="106.11" y="241.18">.</text>
<text x="317.29" y="272.94">+</text>
<text x="394.63" y="301.61">+</text>
<text x="214.32" y="191.30">.</text>
<text x="146.71" y="353.37">+</text>
<text x="223.01" y="40.34">.</text>
<text x="148.54" y="298.52">+</text>
<text x="259.07" y="298.93">*</text>
<text x="13.52" y="451.81">+</text>
<text x="96.69" y="259.13">*</text>
<text x="161.43" y="284.09">.</text>
<text x="349.10" y="364.07">.</text>
<text x="81.30" y="18.69">.</text>
<text x="86.51" y="241.29">.</text>
<text x="443.69" y="263.49">*</text>
<text x="230.53" y="354.76">+</text>
<text x="460.31" y="328.81">.</text>
<text x="255.36" y="94.02">.</text>
<text x="130.44" y="460.30">+</text>
<text x="339.64" y="428.80">+</text>
<text x="124.83" y="102.96">+</text>
<text x="44.29" y="109.84">.</text>
<text x="338.45" y="5.35">.</text>
<text x="415.04" y="71.82">.</text>
<text x="36.32" y="7.59">+</text>
<text x="19.60" y="368.05">.</text>
<text x="14.29" y="342.03">+</text>
<text x="355.11" y="483.60">*</text>
<text x="436.93" y="283.30">.</text>
<text x="267.33" y="231.53">*</text>
<text x="57.21" y="282.74">+</text>
<text x="203.29" y="424.19">+</text>
<text x="211.77" y="350.44">.</text>
<text x="72.64" y="11.79">.</text>
<text x="394.97" y="155.82">+</text>
<text x="31.93" y="403.69">.</text>
<text x="132.49" y="76.70">+</text>
<text x="8.32" y="466.28">+</text>
<text x="77.30" y="226.61">.</text>
<text x="403.90" y="349.19">.</text>
<text x="389.84" y="168.80">.</text>
<text x="103.46" y="118.47">+</text>
<text x="66.21" y="3.36">+</text>
<text x="199.47" y="485.64">+</text>
<text x="71.41" y="259.54">+</text>
<text x="198.73" y="359.37">+</text>
<text x="470.10" y="338.16">+</text>
<text x="379.52" y="161.26">*</text>
<text x="459.94" y="67.79">+</text>
<text x="289.68" y="197.61">.</text>
<text x="333.48" y="452.59">*</text>
<text x="2.18" y="106.27">+</text>
<text x="62.83" y="325.12">+</text>
<text x="483.39" y="212.42">.</text>
<text x="231.88" y="482.78">+</text>
<text x="378.18" y="27.72">.</text>
<text x="338.36" y="199.32">+</text>
<text x="381.16" y="74.73">+</text>
<text x="145.64" y="226.04">+</text>
<text x="262.02" y="53.02">.</text>
<text x="220.40" y="260.56">+</text>
<text x="280.63" y="484.56">+</text>
<text x="72.76" y="487.45">+</text>
<text x="48.12" y="38.94">.</text>
<text x="406.06" y="443.36">+</text>
<text x="66.85" y="418.87">*</text>
<text x="482.07" y="46.98">+</text>
<text x="400.54" y="215.32">.</text>
<text x="17.73" y="428.74">.</text>
<text x="151.46" y="292.19">+</text>
<text x="73.88" y="482.48">+</text>
<text x="180.22" y="354.94">.</text>
<text x="381.12" y="488.50">+</text>
<text x="309.45" y="344.41">+</text>
<text x="366.85" y="4.50">+</text>
<text x="39.10" y="316.29">.</text>
<text x="59.18" y="447.80">.</text>
<text x="259.00" y="105.99">+</text>
<text x="354.75" y="340.11">*</text>
<text x="461.71" y="230.04">+</text>
<text x="269.91" y="1.50">+</text>
<text x="289.30" y="355.57">.</text>
<text x="315.43" y="1.58">.</text>
<text x="116.28" y="90.41">.</text>
<text x="74.00" y="102.53">+</text>
<text x="232.15" y="92.75">+</text>
<text x="478.33" y="342.82">.</text>
<text x="487.80" y="130.33">+</text>
<text x="269.88" y="351.90">*</text>
<text x="442.40" y="112.17">.</text>
<text x="439.39" y="317.56">+</text>
<text x="107.12" y="296.20">+</text>
<text x="375.52" y="127.43">.</text>
<text x="241.21" y="219.52">.</text>
<text x="369.45" y="190.37">+</text>
<text x="472.59" y="211.66">.</text>
<text x="324.63" y="354.44">+</text>
<text x="238.86" y="353.23">.</text>
<text x="64.21" y="190.40">.</text>
<text x="348.04" y="171.43">.</text>
<text x="176.35" y="306.27">*</text>
<text x="454.78" y="150.22">.</text>
<text x="91.57" y="315.73">+</text>
<text x="166.17" y="122.46">+</text>
<text x="164.33" y="206.04">.</text>
<text x="373.87" y="219.52">*</text>
<text x="81.68" y="366.71">*</text>
<text x="229.20" y="34.51">.</text>
<text x="72.33" y="355.35">+</text>
<text x="271.74" y="487.82">.</text>
<text x="6.78" y="497.53">.</text>
<text x="129.18" y="42.40">+</text>
<text x="132.49" y="191.38">+</text>
<text x="102.62" y="148.31">*</text>
<text x="329.91" y="417.37">.</text>
<text x="217.41" y="80.91">.</text>
<text x="87.97" y="371.67">*</text>
<text x="475.48" y="309.21">+</text>
<text x="423.90" y="357.43">.</text>
<text x="256.62" y="208.56">+</text>
<text x="363.69" y="3.20">+</text>
<text x="193.55" y="299.55">.</text>
<text x="361.12" y="380.34">+</text>
<text x="481.63" y="172.44">+</text>
<text x="214.64" y="154.99">+</text>
<text x="341.76" y="134.42">+</text>
<text x="267.56" y="422.40">.</text>
<text x="387.65" y="21.97">.</text>
<text x="480.14" y="139.62">*</text>
<text x="178.55" y="257.03">.</text>
<text x="49.74" y="434.77">+</text>
<text x="89.14" y="336.55">+</text>
<text x="144.25" y="295.69">.</text>
<text x="297.33" y="486.69">.</text>
<text x="207.32" y="322.40">.</text>
<text x="95.33" y="140.50">.</text>
<text x="291.14" y="335.85">+</text>
<text x="78.55" y="340.54">+</text>
<text x="375.88" y="472.95">+</text>
<text x="381.64" y="169.52">*</text>
<text x="449.39" y="330.63">+</text>
<text x="15.69" y="52.01">.</text>
<text x="120.35" y="427.14">+</text>
<text x="219.67" y="462.02">+</text>
<text x="191.05" y="414.50">.</text>
<text x="344.05" y="465.91">.</text>
<text x="331.80" y="235.35">+</text>
<text x="356.82" y="154.24">+</text>
<text x="17.68" y="369.00">.</text>
<text x="167.82" y="188.09">+</text>
<text x="181.45" y="205.10">.</text>
<text x="16.68" y="153.43">+</text>
<text x="245.50" y="217.96">+</text>
<text x="125.34" y="127.62">.</text>
<text x="328.55" y="365.43">+</text>

</svg>