
<svg viewBox="0 0 500 500" xmlns="http://www.w.org/2000/svg" width="100%" height="100%" style="background-color: #0a0a14; font-family: 'Courier New', Courier, monospace;">
    <style>
        text { fill: #aaa; font-size: 10px; text-anchor: middle; dominant-baseline: middle; }
    </style>
    <text x="401.06" y="368.85">+</text>
<text x="254.70" y="36.37">.</text>
<text x="146.55" y="286.34">.</text>
<text x="455.01" y="365.48">.</text>
<text x="366.72" y="386.80">.</text>
<text x="404.44" y="399.19">+</text>
<text x="250.22" y="271.42">+</text>
<text x="212.64" y="441.57">+</text>
<text x="434.44" y="9.46">+</text>
<text x="14.67" y="479.94">+</text>
<text x="247.39" y="338.49">+</text>
<text x="280.69" y="403.86">.</text>
<text x="219.59" y="269.41">+</text>
<text x="73.03" y="292.46">.</text>
<text x="396.19" y="396.95">.</text>
<text x="484.18" y="251.63">.</text>
<text x="112.95" y="241.68">+</text>
<text x="414.94" y="98.89">.</text>
<text x="119.24" y="452.24">+</text>
<text x="66.25" y="62.78">*</text>
<text x="424.42" y="490.55">+</text>
<text x="319.63" y="468.74">.</text>
<text x="206.42" y="393.79">.</text>
<text x="371.89" y="136.30">+</text>
<text x="255.34" y="49.90">.</text>
<text x="425.69" y="246.03">.</text>
<text x="76.41" y="378.47">.</text>
<text x="268.04" y="171.63">+</text>
<text x="421.15" y="453.74">+</text>
<text x="298.06" y="105.47">.</text>
<text x="334.09" y="268.41">*</text>
<text x="478.60" y="191.21">*</text>
<text x="299.70" y="411.73">.</text>
<text x="467.29" y="83.37">+</text>
<text x="229.71" y="175.83">*</text>
<text x="338.42" y="320.04">*</text>
<text x="476.20" y="134.62">+</text>
<text x="66.70" y="12.14">.</text>
<text x="407.55" y="362.32">.</text>
<text x="185.21" y="305.09">.</text>
<text x="360.86" y="4.19">+</text>
<text x="107.80" y="192.06">+</text>
<text x="202.43" y="6.44">.</text>
<text x="493.01" y="355.70">+</text>
<text x="403.32" y="190.94">+</text>
<text x="489.21" y="174.32">+</text>
<text x="322.35" y="19.38">+</text>
<text x="363.95" y="259.04">+</text>
<text x="497.75" y="373.29">+</text>
<text x="324.79" y="90.48">.</text>
<text x="72.65" y="211.70">.</text>
<text x="340.68" y="51.23">*</text>
<text x="185.51" y="144.19">.</text>
<text x="226.89" y="211.40">*</text>
<text x="112.61" y="28.11">*</text>
<text x="441.12" y="340.91">*</text>
<text x="365.74" y="164.94">.</text>
<text x="10.95" y="479.96">.</text>
<text x="84.25" y="87.62">+</text>
<text x="359.27" y="175.12">.</text>
<text x="151.49" y="376.95">+</text>
<text x="159.90" y="496.53">+</text>
<text x="199.77" y="426.35">+</text>
<text x="149.47" y="347.09">.</text>
<text x="89.07" y="20.86">.</text>
<text x="41.38" y="87.09">+</text>
<text x="191.31" y="132.45">+</text>
<text x="191.61" y="241.66">*</text>
<text x="463.20" y="386.67">.</text>
<text x="101.69" y="322.99">+</text>
<text x="118.64" y="459.82">.</text>
<text x="488.39" y="345.33">+</text>
<text x="290.63" y="321.17">.</text>
<text x="499.04" y="164.46">.</text>
<text x="452.81" y="476.81">+</text>
<text x="499.85" y="433.27">*</text>
<text x="476.61" y="362.85">*</text>
<text x="326.91" y="119.99">+</text>
<text x="480.35" y="254.54">+</text>
<text x="113.08" y="427.81">+</text>
<text x="400.58" y="77.50">+</text>
<text x="372.90" y="274.30">+</text>
<text x="233.40" y="112.82">.</text>
<text x="119.13" y="173.17">+</text>
<text x="304.18" y="4.88">+</text>
<text x="447.85" y="460.03">+</text>
<text x="239.39" y="440.84">.</text>
<text x="385.56" y="78.08">*</text>
<text x="453.17" y="350.50">*</text>
<text x="436.55" y="179.17">.</text>
<text x="186.84" y="21.02">.</text>
<text x="215.23" y="400.17">+</text>
<text x="448.54" y="78.93">.</text>
<text x="75.94" y="435.44">.</text>
<text x="495.15" y="50.78">+</text>
<text x="313.24" y="346.93">+</text>
<text x="10.89" y="278.50">.</text>
<text x="385.34" y="320.90">*</text>
<text x="24.03" y="62.22">*</text>
<text x="188.09" y="243.81">*</text>
<text x="263.04" y="9.17">+</text>
<text x="431.83" y="250.71">.</text>
<text x="366.08" y="288.06">+</text>
<text x="311.82" y="255.69">+</text>
<text x="278.25" y="14.87">+</text>
<text x="383.37" y="378.19">.</text>
<text x="311.83" y="27.80">*</text>
<text x="436.47" y="436.67">.</text>
<text x="494.85" y="265.74">+</text>
<text x="201.77" y="216.33">+</text>
<text x="443.37" y="277.12">*</text>
<text x="368.40" y="78.23">.</text>
<text x="24.41" y="292.82">.</text>
<text x="225.46" y="252.85">.</text>
<text x="459.04" y="357.05">+</text>
<text x="29.68" y="316.37">.</text>
<text x="77.51" y="441.94">+</text>
<text x="162.20" y="315.32">+</text>
<text x="23.42" y="41.63">.</text>
<text x="468.38" y="305.01">.</text>
<text x="456.19" y="475.49">+</text>
<text x="25.56" y="344.47">+</text>
<text x="350.24" y="412.96">.</text>
<text x="357.58" y="282.96">+</text>
<text x="88.40" y="142.10">.</text>
<text x="86.32" y="388.67">.</text>
<text x="170.53" y="465.12">.</text>
<text x="433.43" y="263.59">*</text>
<text x="217.40" y="25.15">+</text>
<text x="118.92" y="461.77">.</text>
<text x="68.70" y="97.59">.</text>
<text x="122.17" y="131.28">+</text>
<text x="42.19" y="127.14">.</text>
<text x="380.27" y="212.97">+</text>
<text x="278.69" y="1.37">+</text>
<text x="310.55" y="419.59">+</text>
<text x="385.05" y="255.29">.</text>
<text x="36.24" y="52.81">.</text>
<text x="203.64" y="464.49">+</text>
<text x="497.45" y="106.89">*</text>
<text x="29.89" y="302.67">.</text>
<text x="53.70" y="376.00">+</text>
<text x="97.39" y="157.83">+</text>
<text x="101.43" y="335.38">*</text>
<text x="220.28" y="487.81">.</text>
<text x="191.19" y="499.30">+</text>
<text x="466.77" y="62.51">+</text>
<text x="11.56" y="436.68">.</text>
<text x="138.74" y="49.87">+</text>
<text x="97.75" y="58.70">*</text>
<text x="225.02" y="32.46">.</text>
<text x="493.98" y="80.91">.</text>
<text x="51.38" y="87.26">+</text>
<text x="129.34" y="150.35">+</text>
<text x="449.33" y="176.28">+</text>
<text x="109.05" y="364.10">.</text>
<text x="357.53" y="464.75">+</text>
<text x="413.95" y="98.04">.</text>
<text x="42.01" y="148.58">+</text>
<text x="109.41" y="78.43">*</text>
<text x="157.97" y="490.12">+</text>
<text x="18.60" y="14.45">.</text>
<text x="30.47" y="282.66">+</text>
<text x="64.43" y="299.75">.</text>
<text x="108.16" y="399.59">+</text>
<text x="176.73" y="30.64">.</text>
<text x="27.82" y="27.56">+</text>
<text x="455.41" y="459.31">+</text>
<text x="227.69" y="475.09">.</text>
<text x="140.85" y="22.01">.</text>
<text x="34.48" y="13.89">+</text>
<text x="330.58" y="261.86">.</text>
<text x="245.80" y="49.40">+</text>
<text x="292.39" y="313.93">+</text>
<text x="290.44" y="312.45">.</text>
<text x="275.48" y="194.01">.</text>
<text x="291.53" y="67.41">+</text>
<text x="243.05" y="382.42">*</text>
<text x="389.39" y="144.77">*</text>
<text x="301.19" y="481.75">+</text>
<text x="435.73" y="415.43">+</text>
<text x="352.27" y="307.59">.</text>
<text x="206.89" y="446.72">.</text>
<text x="379.74" y="299.47">.</text>
<text x="326.20" y="343.20">.</text>
<text x="410.92" y="150.97">+</text>
<text x="315.10" y="406.62">+</text>
<text x="252.34" y="404.30">+</text>
<text x="329.16" y="12.28">+</text>
<text x="273.59" y="314.33">.</text>
<text x="363.30" y="93.76">*</text>
<text x="187.31" y="47.70">*</text>
<text x="274.70" y="326.00">+</text>
<text x="343.10" y="308.98">.</text>
<text x="145.45" y="85.22">.</text>
<text x="141.59" y="286.57">.</text>
<text x="30.71" y="379.94">*</text>
<text x="357.45" y="299.84">+</text>
<text x="493.49" y="14.94">.</text>
<text x="131.31" y="186.80">.</text>
<text x="61.37" y="466.84">+</text>
<text x="38.93" y="15.99">.</text>
<text x="459.59" y="268.04">+</text>
<text x="189.12" y="119.45">.</text>
<text x="141.44" y="473.68">+</text>
<text x="193.83" y="437.08">+</text>
<text x="403.95" y="52.42">.</text>
<text x="101.53" y="303.05">+</text>
<text x="437.51" y="291.27">.</text>
<text x="412.91" y="311.16">*</text>
<text x="216.05" y="184.48">.</text>
<text x="112.32" y="391.57">+</text>
<text x="11.15" y="223.55">*</text>
<text x="3.48" y="292.00">+</text>
<text x="56.79" y="255.23">.</text>

</svg>