
<svg viewBox="0 0 500 500" xmlns="http://www.w.org/2000/svg" width="100%" height="100%" style="background-color: #0a0a14; font-family: 'Courier New', Courier, monospace;">
    <style>
        text { fill: #aaa; font-size: 10px; text-anchor: middle; dominant-baseline: middle; }
    </style>
    <text x="23.85" y="125.78">+</text>
<text x="227.48" y="243.70">+</text>
<text x="29.52" y="42.83">+</text>
<text x="292.60" y="223.89">.</text>
<text x="354.00" y="187.78">+</text>
<text x="496.68" y="423.51">*</text>
<text x="293.02" y="391.49">.</text>
<text x="157.00" y="478.84">+</text>
<text x="356.09" y="2.69">.</text>
<text x="122.93" y="461.38">.</text>
<text x="283.58" y="25.49">.</text>
<text x="299.29" y="335.57">.</text>
<text x="84.16" y="342.39">.</text>
<text x="335.29" y="455.68">.</text>
<text x="157.89" y="10.98">.</text>
<text x="400.37" y="355.90">+</text>
<text x="423.31" y="206.41">.</text>
<text x="21.83" y="109.93">.</text>
<text x="65.30" y="205.37">.</text>
<text x="339.22" y="186.45">.</text>
<text x="52.66" y="261.21">.</text>
<text x="156.98" y="17.08">.</text>
<text x="81.40" y="479.54">+</text>
<text x="156.38" y="284.83">.</text>
<text x="467.21" y="160.55">.</text>
<text x="191.95" y="437.36">.</text>
<text x="149.18" y="81.40">+</text>
<text x="324.68" y="138.47">+</text>
<text x="357.57" y="445.70">.</text>
<text x="272.88" y="303.98">.</text>
<text x="480.93" y="402.39">*</text>
<text x="118.62" y="68.07">+</text>
<text x="146.47" y="59.96">+</text>
<text x="444.05" y="235.02">.</text>
<text x="373.11" y="144.24">.</text>
<text x="483.18" y="257.75">*</text>
<text x="70.38" y="209.94">.</text>
<text x="162.25" y="268.03">.</text>
<text x="288.73" y="309.89">.</text>
<text x="158.72" y="442.68">+</text>
<text x="371.43" y="208.27">+</text>
<text x="255.97" y="233.86">+</text>
<text x="111.04" y="119.65">+</text>
<text x="496.51" y="478.64">+</text>
<text x="332.85" y="58.52">.</text>
<text x="104.06" y="18.91">.</text>
<text x="177.17" y="284.01">+</text>
<text x="333.24" y="324.05">+</text>
<text x="318.96" y="139.21">.</text>
<text x="477.78" y="190.47">+</text>
<text x="468.59" y="315.13">.</text>
<text x="395.75" y="219.57">+</text>
<text x="162.74" y="106.26">+</text>
<text x="354.63" y="490.23">.</text>
<text x="351.86" y="454.61">.</text>
<text x="400.30" y="283.19">*</text>
<text x="438.86" y="351.27">.</text>
<text x="494.60" y="446.38">.</text>
<text x="219.52" y="5.05">+</text>
<text x="3.15" y="333.49">+</text>
<text x="198.79" y="327.38">+</text>
<text x="294.32" y="480.05">+</text>
<text x="299.99" y="188.80">.</text>
<text x="262.48" y="273.37">+</text>
<text x="160.49" y="142.73">.</text>
<text x="223.17" y="417.10">*</text>
<text x="229.63" y="164.61">.</text>
<text x="316.92" y="334.88">.</text>
<text x="78.14" y="250.63">+</text>
<text x="419.69" y="217.82">.</text>
<text x="96.54" y="370.76">.</text>
<text x="145.48" y="216.71">.</text>
<text x="62.05" y="244.92">+</text>
<text x="199.88" y="169.45">.</text>
<text x="108.01" y="133.44">.</text>
<text x="23.91" y="157.43">*</text>
<text x="295.61" y="183.11">.</text>
<text x="0.17" y="358.60">*</text>
<text x="493.90" y="335.27">.</text>
<text x="106.61" y="1.38">*</text>
<text x="12.40" y="231.42">.</text>
<text x="69.93" y="93.33">.</text>
<text x="107.85" y="0.19">*</text>
<text x="404.65" y="437.77">.</text>
<text x="76.27" y="166.26">+</text>
<text x="2.77" y="359.27">+</text>
<text x="388.91" y="55.93">+</text>
<text x="363.46" y="396.04">*</text>
<text x="449.42" y="342.65">.</text>
<text x="161.28" y="21.96">.</text>
<text x="255.49" y="82.33">*</text>
<text x="158.18" y="442.27">.</text>
<text x="294.77" y="189.23">+</text>
<text x="163.27" y="368.89">*</text>
<text x="488.66" y="205.16">*</text>
<text x="397.62" y="98.12">.</text>
<text x="6.45" y="155.05">.</text>
<text x="125.38" y="304.44">.</text>
<text x="57.87" y="40.46">*</text>
<text x="458.71" y="453.23">+</text>
<text x="189.76" y="274.00">+</text>
<text x="18.78" y="470.70">.</text>
<text x="45.46" y="209.59">.</text>
<text x="482.15" y="151.25">+</text>
<text x="350.22" y="166.36">+</text>
<text x="350.92" y="135.80">.</text>
<text x="121.37" y="389.87">.</text>
<text x="472.59" y="346.54">+</text>
<text x="97.41" y="297.57">+</text>
<text x="342.25" y="125.32">.</text>
<text x="150.84" y="285.48">*</text>
<text x="189.77" y="239.41">+</text>
<text x="340.91" y="377.49">.</text>
<text x="313.78" y="148.56">+</text>
<text x="236.01" y="383.22">+</text>
<text x="421.08" y="394.40">+</text>
<text x="158.75" y="271.92">.</text>
<text x="482.57" y="79.33">.</text>
<text x="414.69" y="387.14">+</text>
<text x="380.07" y="482.54">+</text>
<text x="193.56" y="407.63">.</text>
<text x="193.79" y="244.70">+</text>
<text x="362.08" y="127.21">.</text>
<text x="336.53" y="437.89">.</text>
<text x="105.04" y="335.00">*</text>
<text x="227.97" y="40.90">.</text>
<text x="309.21" y="456.50">.</text>
<text x="392.32" y="136.24">+</text>
<text x="273.36" y="60.51">+</text>
<text x="117.33" y="417.08">+</text>
<text x="314.17" y="59.70">.</text>
<text x="83.36" y="435.33">+</text>
<text x="353.87" y="80.66">+</text>
<text x="337.16" y="127.31">*</text>
<text x="297.08" y="483.80">.</text>
<text x="398.58" y="266.69">+</text>
<text x="429.73" y="354.22">+</text>
<text x="459.70" y="380.43">+</text>
<text x="419.91" y="14.72">*</text>
<text x="299.26" y="383.55">.</text>
<text x="116.64" y="6.09">.</text>
<text x="418.75" y="356.53">+</text>
<text x="478.42" y="193.82">.</text>
<text x="66.04" y="422.03">.</text>
<text x="285.81" y="347.94">.</text>
<text x="70.50" y="403.88">.</text>
<text x="348.85" y="18.23">+</text>
<text x="71.56" y="265.52">.</text>
<text x="244.06" y="238.93">+</text>
<text x="134.43" y="410.64">+</text>
<text x="457.74" y="13.48">.</text>
<text x="188.58" y="187.83">+</text>
<text x="193.18" y="325.03">*</text>
<text x="44.51" y="430.15">+</text>
<text x="464.60" y="0.46">.</text>
<text x="429.58" y="157.82">+</text>
<text x="124.47" y="201.15">.</text>
<text x="410.32" y="321.69">+</text>
<text x="161.54" y="449.27">.</text>
<text x="357.43" y="93.94">+</text>
<text x="49.75" y="396.86">+</text>
<text x="487.76" y="429.46">+</text>
<text x="56.26" y="434.27">+</text>
<text x="164.99" y="232.31">+</text>
<text x="196.64" y="492.24">.</text>
<text x="180.45" y="203.14">.</text>
<text x="168.94" y="319.91">+</text>
<text x="266.49" y="372.04">+</text>
<text x="74.83" y="424.07">*</text>
<text x="114.60" y="115.37">.</text>
<text x="337.15" y="442.25">.</text>
<text x="134.70" y="296.88">.</text>
<text x="1.28" y="171.01">.</text>
<text x="115.15" y="57.01">+</text>
<text x="356.25" y="20.18">.</text>
<text x="370.31" y="114.14">.</text>
<text x="259.65" y="309.08">.</text>
<text x="31.76" y="461.98">.</text>
<text x="147.02" y="296.00">+</text>
<text x="296.60" y="325.75">+</text>
<text x="245.87" y="131.10">+</text>
<text x="380.31" y="495.71">*</text>
<text x="117.51" y="215.60">.</text>
<text x="220.01" y="493.78">.</text>
<text x="361.08" y="139.83">*</text>
<text x="451.58" y="76.32">.</text>
<text x="491.41" y="314.84">*</text>
<text x="495.65" y="95.05">*</text>
<text x="196.15" y="393.33">.</text>
<text x="86.46" y="137.93">*</text>
<text x="379.34" y="370.44">+</text>
<text x="307.11" y="368.40">+</text>
<text x="171.45" y="112.94">+</text>
<text x="392.05" y="135.38">.</text>
<text x="499.65" y="51.89">+</text>
<text x="128.26" y="373.25">.</text>
<text x="132.50" y="300.38">+</text>
<text x="208.70" y="19.26">+</text>
<text x="349.58" y="268.35">*</text>
<text x="278.23" y="184.70">+</text>
<text x="359.01" y="187.99">*</text>

</svg>