
<svg viewBox="0 0 500 500" xmlns="http://www.w.org/2000/svg" width="100%" height="100%" style="background-color: #0a0a14; font-family: 'Courier New', Courier, monospace;">
    <style>
        text { fill: #aaa; font-size: 10px; text-anchor: middle; dominant-baseline: middle; }
    </style>
    <text x="353.74" y="261.29">.</text>
<text x="242.45" y="98.60">+</text>
<text x="196.44" y="299.76">+</text>
<text x="371.58" y="272.79">*</text>
<text x="307.95" y="59.08">.</text>
<text x="357.77" y="462.52">+</text>
<text x="346.49" y="154.89">.</text>
<text x="472.77" y="131.19">.</text>
<text x="175.63" y="485.27">.</text>
<text x="469.84" y="214.31">.</text>
<text x="187.27" y="33.14">.</text>
<text x="376.14" y="300.86">.</text>
<text x="482.66" y="427.23">.</text>
<text x="476.15" y="125.90">*</text>
<text x="40.34" y="407.80">+</text>
<text x="180.02" y="290.18">+</text>
<text x="470.09" y="285.24">.</text>
<text x="14.30" y="360.19">*</text>
<text x="267.47" y="221.33">.</text>
<text x="282.72" y="287.22">*</text>
<text x="215.11" y="155.94">*</text>
<text x="345.13" y="432.50">.</text>
<text x="265.47" y="132.19">+</text>
<text x="451.77" y="295.77">+</text>
<text x="444.55" y="383.47">+</text>
<text x="181.71" y="164.70">+</text>
<text x="62.33" y="13.46">+</text>
<text x="289.68" y="303.35">*</text>
<text x="230.23" y="480.09">+</text>
<text x="361.91" y="236.85">+</text>
<text x="327.99" y="118.08">+</text>
<text x="387.11" y="117.61">.</text>
<text x="349.37" y="152.14">+</text>
<text x="395.96" y="350.68">.</text>
<text x="166.56" y="418.03">+</text>
<text x="20.71" y="9.69">.</text>
<text x="140.24" y="484.81">+</text>
<text x="127.51" y="406.48">+</text>
<text x="178.94" y="93.35">+</text>
<text x="323.51" y="428.25">+</text>
<text x="425.00" y="396.87">.</text>
<text x="322.59" y="235.51">.</text>
<text x="461.17" y="386.82">.</text>
<text x="456.33" y="269.11">*</text>
<text x="349.30" y="258.47">.</text>
<text x="247.00" y="49.86">.</text>
<text x="423.35" y="252.63">.</text>
<text x="211.94" y="36.11">.</text>
<text x="244.46" y="369.63">.</text>
<text x="299.83" y="25.80">+</text>
<text x="176.62" y="485.80">*</text>
<text x="2.72" y="29.31">.</text>
<text x="316.74" y="358.08">+</text>
<text x="379.45" y="132.79">+</text>
<text x="455.88" y="185.37">.</text>
<text x="390.48" y="276.40">+</text>
<text x="285.67" y="275.64">.</text>
<text x="45.45" y="341.87">.</text>
<text x="497.51" y="113.14">*</text>
<text x="146.14" y="195.06">.</text>
<text x="409.91" y="430.71">.</text>
<text x="494.26" y="66.19">.</text>
<text x="207.36" y="123.14">.</text>
<text x="150.66" y="480.44">.</text>
<text x="37.81" y="420.84">+</text>
<text x="483.69" y="41.10">.</text>
<text x="222.98" y="84.44">*</text>
<text x="470.39" y="105.60">.</text>
<text x="10.60" y="289.09">+</text>
<text x="415.39" y="348.02">*</text>
<text x="433.30" y="56.53">.</text>
<text x="36.15" y="101.04">*</text>
<text x="327.11" y="181.66">*</text>
<text x="444.29" y="123.77">.</text>
<text x="397.76" y="241.22">.</text>
<text x="412.65" y="107.22">+</text>
<text x="402.03" y="499.33">+</text>
<text x="323.77" y="358.10">+</text>
<text x="336.84" y="237.63">.</text>
<text x="282.43" y="98.56">+</text>
<text x="256.28" y="363.80">*</text>
<text x="301.30" y="396.26">.</text>
<text x="482.37" y="46.19">+</text>
<text x="75.03" y="181.15">.</text>
<text x="135.61" y="428.43">+</text>
<text x="224.10" y="453.67">+</text>
<text x="426.65" y="349.24">*</text>
<text x="366.31" y="312.80">+</text>
<text x="258.30" y="199.75">.</text>
<text x="0.49" y="340.93">.</text>
<text x="388.73" y="345.19">*</text>
<text x="274.09" y="472.52">.</text>
<text x="45.36" y="272.21">+</text>
<text x="206.10" y="258.72">+</text>
<text x="321.40" y="324.85">.</text>
<text x="181.80" y="93.76">+</text>
<text x="368.74" y="473.30">.</text>
<text x="327.64" y="98.39">*</text>
<text x="29.71" y="460.98">.</text>
<text x="224.43" y="273.15">.</text>
<text x="77.26" y="463.53">+</text>
<text x="281.34" y="379.71">.</text>
<text x="218.17" y="225.66">.</text>
<text x="99.59" y="318.26">.</text>
<text x="212.21" y="65.86">.</text>
<text x="182.54" y="46.37">+</text>
<text x="159.85" y="423.81">+</text>
<text x="54.51" y="120.68">+</text>
<text x="48.32" y="444.91">+</text>
<text x="245.98" y="185.58">.</text>
<text x="66.03" y="193.57">+</text>
<text x="12.54" y="405.41">.</text>
<text x="28.26" y="465.97">+</text>
<text x="409.96" y="384.90">.</text>
<text x="130.47" y="291.19">.</text>
<text x="362.38" y="379.61">+</text>
<text x="275.38" y="380.42">+</text>
<text x="417.67" y="41.75">+</text>
<text x="129.33" y="477.01">.</text>
<text x="234.04" y="471.11">+</text>
<text x="280.23" y="153.14">+</text>
<text x="275.76" y="62.30">+</text>
<text x="125.83" y="202.34">+</text>
<text x="116.39" y="372.36">+</text>
<text x="433.88" y="193.27">.</text>
<text x="227.54" y="380.45">.</text>
<text x="97.63" y="376.60">+</text>
<text x="240.22" y="170.09">+</text>
<text x="418.43" y="125.32">.</text>
<text x="51.63" y="241.88">+</text>
<text x="429.22" y="350.17">.</text>
<text x="429.37" y="165.36">+</text>
<text x="148.68" y="245.99">.</text>
<text x="358.59" y="280.28">+</text>
<text x="230.61" y="11.69">.</text>
<text x="373.36" y="378.93">+</text>
<text x="34.17" y="172.24">+</text>
<text x="457.37" y="273.51">.</text>
<text x="451.45" y="29.14">+</text>
<text x="265.88" y="162.62">+</text>
<text x="147.20" y="90.46">+</text>
<text x="238.74" y="55.24">.</text>
<text x="320.70" y="38.23">.</text>
<text x="0.56" y="453.54">+</text>
<text x="352.71" y="3.59">.</text>
<text x="411.91" y="176.78">.</text>
<text x="29.25" y="247.62">.</text>
<text x="283.84" y="56.86">+</text>
<text x="332.21" y="316.20">+</text>
<text x="430.21" y="30.36">.</text>
<text x="327.37" y="203.67">+</text>
<text x="125.66" y="107.05">+</text>
<text x="421.80" y="194.56">.</text>
<text x="416.56" y="231.75">+</text>
<text x="162.16" y="464.11">.</text>
<text x="499.21" y="109.67">*</text>
<text x="286.92" y="231.11">.</text>
<text x="131.85" y="354.58">.</text>
<text x="126.95" y="281.88">*</text>
<text x="274.43" y="5.22">*</text>
<text x="314.16" y="317.80">+</text>
<text x="306.51" y="188.96">.</text>
<text x="183.14" y="312.79">+</text>
<text x="256.24" y="224.35">+</text>
<text x="31.83" y="404.28">+</text>
<text x="269.50" y="345.23">.</text>
<text x="248.58" y="387.82">.</text>
<text x="314.48" y="93.64">+</text>
<text x="318.29" y="485.77">.</text>
<text x="372.30" y="489.34">+</text>
<text x="270.18" y="201.80">+</text>
<text x="309.53" y="126.97">.</text>
<text x="251.03" y="398.97">.</text>
<text x="243.54" y="460.99">.</text>
<text x="370.20" y="154.79">.</text>
<text x="302.69" y="457.08">.</text>
<text x="228.10" y="322.86">.</text>
<text x="488.94" y="1.16">+</text>
<text x="401.67" y="36.28">.</text>
<text x="348.82" y="80.70">.</text>
<text x="376.64" y="352.42">.</text>
<text x="239.70" y="344.49">+</text>
<text x="131.47" y="236.56">+</text>
<text x="415.89" y="441.38">.</text>
<text x="452.01" y="259.70">+</text>
<text x="447.13" y="478.32">+</text>
<text x="217.10" y="398.41">*</text>
<text x="261.31" y="87.15">*</text>
<text x="67.00" y="491.46">.</text>
<text x="46.08" y="53.44">+</text>
<text x="271.77" y="161.12">*</text>
<text x="46.02" y="338.36">+</text>
<text x="153.21" y="1.47">+</text>
<text x="337.46" y="67.53">*</text>
<text x="488.29" y="80.17">+</text>
<text x="471.48" y="201.11">+</text>
<text x="412.68" y="440.36">*</text>
<text x="243.11" y="358.64">+</text>
<text x="150.44" y="267.05">+</text>
<text x="224.30" y="206.19">.</text>
<text x="238.04" y="35.44">*</text>
<text x="279.93" y="75.28">+</text>
<text x="449.70" y="434.55">+</text>
<text x="391.55" y="413.74">.</text>
<text x="424.30" y="317.78">.</text>
<text x="468.34" y="78.09">.</text>
<text x="303.14" y="133.20">.</text>
<text x="335.39" y="24.66">.</text>
<text x="65.66" y="390.27">+</text>
<text x="255.88" y="458.75">.</text>
<text x="495.41" y="159.31">*</text>
<text x="211.63" y="484.98">.</text>

</svg>