
<svg viewBox="0 0 500 500" xmlns="http://www.w.org/2000/svg" width="100%" height="100%" style="background-color: #0a0a14; font-family: 'Courier New', Courier, monospace;">
    <style>
        text { fill: #aaa; font-size: 10px; text-anchor: middle; dominant-baseline: middle; }
    </style>
    <text x="479.21" y="497.88">*</text>
<text x="208.33" y="85.74">*</text>
<text x="480.71" y="247.20">+</text>
<text x="93.97" y="125.90">+</text>
<text x="463.77" y="347.80">+</text>
<text x="399.84" y="71.20">+</text>
<text x="250.06" y="5.63">.</text>
<text x="406.70" y="365.32">+</text>
<text x="6.84" y="273.53">.</text>
<text x="95.77" y="118.11">.</text>
<text x="210.23" y="44.64">*</text>
<text x="266.06" y="490.01">.</text>
<text x="422.44" y="227.73">+</text>
<text x="107.73" y="302.26">+</text>
<text x="28.38" y="423.69">.</text>
<text x="494.39" y="311.02">+</text>
<text x="125.13" y="97.53">+</text>
<text x="251.18" y="277.36">+</text>
<text x="189.09" y="4.88">+</text>
<text x="489.52" y="95.13">.</text>
<text x="478.09" y="347.02">+</text>
<text x="454.36" y="394.68">+</text>
<text x="339.24" y="137.77">+</text>
<text x="131.68" y="435.97">.</text>
<text x="172.15" y="123.69">.</text>
<text x="12.60" y="89.80">+</text>
<text x="493.11" y="311.00">.</text>
<text x="53.39" y="399.60">.</text>
<text x="195.58" y="473.48">+</text>
<text x="285.09" y="92.06">*</text>
<text x="435.56" y="99.19">+</text>
<text x="247.38" y="217.38">+</text>
<text x="234.00" y="41.12">+</text>
<text x="141.61" y="499.09">.</text>
<text x="231.84" y="453.44">.</text>
<text x="4.22" y="300.73">*</text>
<text x="455.77" y="9.48">.</text>
<text x="224.20" y="469.90">+</text>
<text x="267.66" y="25.43">.</text>
<text x="483.46" y="153.68">+</text>
<text x="106.28" y="164.76">+</text>
<text x="234.69" y="277.60">.</text>
<text x="382.91" y="6.57">+</text>
<text x="151.41" y="173.70">+</text>
<text x="440.06" y="407.99">+</text>
<text x="160.93" y="291.05">.</text>
<text x="169.59" y="405.22">+</text>
<text x="316.45" y="346.42">.</text>
<text x="83.31" y="4.64">+</text>
<text x="243.56" y="474.58">.</text>
<text x="200.37" y="62.20">+</text>
<text x="383.83" y="392.89">.</text>
<text x="255.85" y="141.97">.</text>
<text x="410.91" y="478.45">+</text>
<text x="133.45" y="88.75">.</text>
<text x="170.29" y="476.83">.</text>
<text x="381.98" y="96.20">+</text>
<text x="388.96" y="320.20">.</text>
<text x="33.51" y="38.77">*</text>
<text x="349.15" y="243.58">*</text>
<text x="489.40" y="153.43">+</text>
<text x="337.47" y="107.52">*</text>
<text x="296.73" y="25.54">+</text>
<text x="324.14" y="138.34">.</text>
<text x="454.37" y="103.02">+</text>
<text x="376.12" y="381.34">.</text>
<text x="165.94" y="480.01">.</text>
<text x="282.82" y="225.51">+</text>
<text x="370.10" y="347.52">+</text>
<text x="25.29" y="335.08">+</text>
<text x="183.96" y="144.23">.</text>
<text x="5.47" y="340.42">+</text>
<text x="0.91" y="10.28">+</text>
<text x="458.74" y="322.95">+</text>
<text x="212.67" y="493.45">.</text>
<text x="130.35" y="160.56">+</text>
<text x="79.35" y="117.87">+</text>
<text x="140.70" y="329.94">.</text>
<text x="89.21" y="439.43">+</text>
<text x="492.04" y="183.30">+</text>
<text x="194.71" y="115.72">.</text>
<text x="426.47" y="392.72">+</text>
<text x="379.47" y="19.96">.</text>
<text x="243.72" y="289.61">+</text>
<text x="479.55" y="49.08">.</text>
<text x="219.94" y="377.85">*</text>
<text x="236.63" y="97.89">.</text>
<text x="373.86" y="387.92">+</text>
<text x="453.09" y="22.42">*</text>
<text x="162.49" y="326.05">*</text>
<text x="47.28" y="228.92">+</text>
<text x="363.41" y="75.26">.</text>
<text x="28.93" y="402.95">+</text>
<text x="71.85" y="125.82">+</text>
<text x="68.26" y="93.41">+</text>
<text x="484.74" y="453.87">*</text>
<text x="215.84" y="344.61">*</text>
<text x="359.45" y="0.10">+</text>
<text x="229.84" y="142.69">+</text>
<text x="268.46" y="215.62">+</text>
<text x="82.08" y="141.54">.</text>
<text x="251.31" y="453.18">.</text>
<text x="24.94" y="487.13">.</text>
<text x="278.65" y="485.62">.</text>
<text x="311.13" y="76.98">.</text>
<text x="9.06" y="108.46">+</text>
<text x="69.75" y="364.92">+</text>
<text x="160.20" y="417.62">.</text>
<text x="113.69" y="125.49">*</text>
<text x="154.10" y="5.15">*</text>
<text x="107.66" y="289.46">+</text>
<text x="367.60" y="213.17">.</text>
<text x="228.19" y="195.27">+</text>
<text x="74.32" y="122.87">.</text>
<text x="225.45" y="174.04">.</text>
<text x="485.69" y="142.41">+</text>
<text x="475.35" y="325.83">.</text>
<text x="294.26" y="121.15">.</text>
<text x="473.42" y="340.86">.</text>
<text x="327.70" y="193.95">+</text>
<text x="95.13" y="356.02">+</text>
<text x="164.75" y="319.83">*</text>
<text x="293.09" y="131.39">.</text>
<text x="483.37" y="471.12">.</text>
<text x="427.06" y="199.32">.</text>
<text x="266.81" y="208.18">.</text>
<text x="440.13" y="385.04">+</text>
<text x="124.56" y="172.15">.</text>
<text x="289.64" y="237.89">+</text>
<text x="455.87" y="149.38">+</text>
<text x="77.25" y="297.20">.</text>
<text x="427.25" y="231.33">.</text>
<text x="462.66" y="81.89">+</text>
<text x="213.79" y="462.56">.</text>
<text x="137.75" y="413.34">+</text>
<text x="452.06" y="218.73">*</text>
<text x="442.98" y="128.06">.</text>
<text x="254.19" y="233.14">+</text>
<text x="250.10" y="283.84">*</text>
<text x="2.55" y="236.05">.</text>
<text x="15.51" y="447.92">.</text>
<text x="65.41" y="31.59">.</text>
<text x="492.74" y="288.82">.</text>
<text x="389.07" y="221.86">.</text>
<text x="31.03" y="280.11">+</text>
<text x="95.44" y="146.39">+</text>
<text x="50.26" y="188.68">.</text>
<text x="229.82" y="75.88">+</text>
<text x="251.04" y="49.80">.</text>
<text x="192.58" y="441.10">.</text>
<text x="77.87" y="69.01">+</text>
<text x="35.30" y="357.01">.</text>
<text x="382.11" y="473.00">+</text>
<text x="12.37" y="284.76">.</text>
<text x="315.36" y="306.91">+</text>
<text x="273.60" y="407.78">*</text>
<text x="110.18" y="80.82">.</text>
<text x="154.29" y="387.39">*</text>
<text x="465.42" y="264.29">+</text>
<text x="320.57" y="129.05">+</text>
<text x="73.32" y="216.30">+</text>
<text x="195.28" y="160.02">+</text>
<text x="219.96" y="137.17">+</text>
<text x="174.20" y="330.05">+</text>
<text x="356.86" y="387.96">.</text>
<text x="86.64" y="132.16">+</text>
<text x="425.16" y="372.38">.</text>
<text x="16.01" y="237.41">*</text>
<text x="302.25" y="486.01">+</text>
<text x="332.53" y="274.25">.</text>
<text x="425.23" y="359.02">.</text>
<text x="372.35" y="333.58">.</text>
<text x="91.25" y="23.65">+</text>
<text x="205.87" y="422.99">.</text>
<text x="224.84" y="336.78">*</text>
<text x="39.64" y="363.67">+</text>
<text x="485.57" y="317.00">+</text>
<text x="359.36" y="281.13">+</text>
<text x="36.78" y="384.45">*</text>
<text x="29.13" y="406.38">.</text>
<text x="363.73" y="359.21">.</text>
<text x="173.59" y="333.90">+</text>
<text x="126.88" y="386.33">+</text>
<text x="87.88" y="335.78">*</text>
<text x="256.05" y="245.03">.</text>
<text x="105.17" y="474.12">+</text>
<text x="40.76" y="71.95">.</text>
<text x="144.15" y="99.06">+</text>
<text x="92.72" y="282.18">.</text>
<text x="59.72" y="328.72">+</text>
<text x="13.97" y="180.99">+</text>
<text x="485.29" y="245.95">.</text>
<text x="193.23" y="266.06">.</text>
<text x="147.99" y="396.68">.</text>
<text x="345.91" y="305.35">.</text>
<text x="383.59" y="69.19">.</text>
<text x="311.26" y="291.49">*</text>
<text x="252.52" y="422.82">.</text>
<text x="469.34" y="86.17">.</text>
<text x="234.96" y="140.32">.</text>
<text x="386.62" y="405.21">+</text>
<text x="299.27" y="14.27">+</text>
<text x="162.76" y="36.94">+</text>
<text x="112.58" y="483.62">+</text>
<text x="438.23" y="232.82">*</text>
<text x="353.69" y="227.04">.</text>

</svg>