
<svg viewBox="0 0 500 500" xmlns="http://www.w.org/2000/svg" width="100%" height="100%" style="background-color: #0a0a14; font-family: 'Courier New', Courier, monospace;">
    <style>
        text { fill: #aaa; font-size: 10px; text-anchor: middle; dominant-baseline: middle; }
    </style>
    <text x="348.38" y="348.97">.</text>
<text x="243.44" y="478.14">+</text>
<text x="22.73" y="473.72">+</text>
<text x="489.59" y="465.34">*</text>
<text x="100.87" y="336.34">+</text>
<text x="125.34" y="92.07">+</text>
<text x="455.48" y="428.30">+</text>
<text x="331.87" y="250.20">*</text>
<text x="102.64" y="344.60">*</text>
<text x="373.69" y="427.92">.</text>
<text x="477.42" y="38.37">.</text>
<text x="416.63" y="447.16">*</text>
<text x="28.42" y="358.85">.</text>
<text x="387.49" y="259.52">+</text>
<text x="23.49" y="398.61">*</text>
<text x="183.15" y="279.53">+</text>
<text x="63.61" y="215.23">.</text>
<text x="64.05" y="424.66">+</text>
<text x="189.90" y="187.99">+</text>
<text x="39.99" y="229.98">.</text>
<text x="155.37" y="8.11">.</text>
<text x="359.15" y="89.36">*</text>
<text x="285.47" y="168.93">.</text>
<text x="309.47" y="288.85">.</text>
<text x="394.23" y="489.63">.</text>
<text x="4.55" y="69.52">.</text>
<text x="17.30" y="127.13">+</text>
<text x="153.53" y="195.71">.</text>
<text x="288.00" y="169.96">.</text>
<text x="421.49" y="474.59">.</text>
<text x="266.38" y="52.18">.</text>
<text x="82.26" y="494.99">+</text>
<text x="237.77" y="298.76">+</text>
<text x="436.08" y="443.68">.</text>
<text x="275.17" y="86.97">.</text>
<text x="453.60" y="17.98">.</text>
<text x="478.77" y="390.01">+</text>
<text x="366.11" y="220.05">+</text>
<text x="206.40" y="227.60">.</text>
<text x="485.66" y="415.06">.</text>
<text x="130.88" y="226.60">+</text>
<text x="185.44" y="383.27">.</text>
<text x="194.87" y="290.57">*</text>
<text x="140.56" y="475.54">+</text>
<text x="441.98" y="326.38">+</text>
<text x="409.97" y="66.46">.</text>
<text x="314.49" y="218.69">+</text>
<text x="407.73" y="404.94">+</text>
<text x="237.24" y="102.24">+</text>
<text x="58.29" y="464.65">+</text>
<text x="22.95" y="126.36">.</text>
<text x="95.21" y="371.91">.</text>
<text x="165.87" y="311.52">*</text>
<text x="424.87" y="365.98">.</text>
<text x="421.73" y="77.93">.</text>
<text x="420.47" y="158.80">.</text>
<text x="429.31" y="346.00">.</text>
<text x="481.11" y="474.52">.</text>
<text x="461.66" y="58.84">.</text>
<text x="57.11" y="12.37">+</text>
<text x="437.54" y="78.80">+</text>
<text x="291.99" y="210.60">*</text>
<text x="433.19" y="240.79">.</text>
<text x="465.52" y="481.60">+</text>
<text x="353.05" y="427.23">.</text>
<text x="141.62" y="114.28">+</text>
<text x="84.72" y="183.66">+</text>
<text x="456.14" y="254.12">.</text>
<text x="256.71" y="93.06">*</text>
<text x="269.19" y="343.72">*</text>
<text x="101.13" y="117.22">.</text>
<text x="468.44" y="373.27">.</text>
<text x="263.72" y="462.38">+</text>
<text x="472.25" y="248.16">.</text>
<text x="124.08" y="189.66">.</text>
<text x="59.78" y="339.96">.</text>
<text x="453.48" y="121.58">.</text>
<text x="43.85" y="40.84">+</text>
<text x="453.09" y="366.71">.</text>
<text x="429.18" y="281.40">*</text>
<text x="269.49" y="392.08">+</text>
<text x="493.80" y="201.06">+</text>
<text x="491.01" y="455.59">.</text>
<text x="134.27" y="369.22">.</text>
<text x="115.01" y="486.62">+</text>
<text x="297.46" y="103.98">+</text>
<text x="466.10" y="464.80">+</text>
<text x="248.12" y="214.38">+</text>
<text x="446.04" y="211.67">.</text>
<text x="153.88" y="123.23">+</text>
<text x="60.75" y="282.46">+</text>
<text x="325.04" y="449.99">+</text>
<text x="406.67" y="178.21">+</text>
<text x="167.02" y="433.48">*</text>
<text x="244.31" y="218.80">+</text>
<text x="257.70" y="454.39">.</text>
<text x="174.86" y="19.26">*</text>
<text x="29.14" y="119.68">+</text>
<text x="325.57" y="58.66">+</text>
<text x="30.74" y="192.36">+</text>
<text x="319.98" y="205.03">+</text>
<text x="331.16" y="134.63">+</text>
<text x="234.30" y="367.32">.</text>
<text x="220.45" y="268.32">.</text>
<text x="358.19" y="97.91">+</text>
<text x="484.49" y="61.89">+</text>
<text x="453.93" y="283.92">.</text>
<text x="222.90" y="17.33">*</text>
<text x="497.61" y="143.22">*</text>
<text x="475.65" y="287.10">*</text>
<text x="395.77" y="106.42">.</text>
<text x="31.58" y="308.61">.</text>
<text x="162.86" y="327.52">*</text>
<text x="292.15" y="230.63">+</text>
<text x="256.91" y="449.85">*</text>
<text x="109.40" y="216.87">+</text>
<text x="272.43" y="256.72">+</text>
<text x="326.69" y="175.42">+</text>
<text x="408.63" y="27.20">+</text>
<text x="33.30" y="164.89">+</text>
<text x="382.42" y="256.16">+</text>
<text x="302.40" y="235.15">+</text>
<text x="0.41" y="330.55">.</text>
<text x="267.21" y="346.50">.</text>
<text x="491.05" y="315.54">+</text>
<text x="319.22" y="346.22">+</text>
<text x="228.90" y="314.55">+</text>
<text x="239.60" y="75.33">.</text>
<text x="490.94" y="148.41">.</text>
<text x="463.10" y="334.94">*</text>
<text x="175.29" y="453.45">+</text>
<text x="350.51" y="365.99">.</text>
<text x="434.48" y="268.51">+</text>
<text x="17.37" y="396.68">.</text>
<text x="54.32" y="262.29">*</text>
<text x="371.10" y="231.76">+</text>
<text x="173.56" y="367.82">+</text>
<text x="488.76" y="174.40">+</text>
<text x="242.72" y="413.04">.</text>
<text x="256.10" y="423.95">+</text>
<text x="43.69" y="492.90">*</text>
<text x="382.63" y="4.61">.</text>
<text x="36.39" y="465.71">+</text>
<text x="166.52" y="140.80">.</text>
<text x="94.53" y="223.30">*</text>
<text x="329.16" y="183.12">.</text>
<text x="287.22" y="385.11">.</text>
<text x="252.29" y="319.72">+</text>
<text x="250.29" y="81.35">.</text>
<text x="65.43" y="481.38">+</text>
<text x="90.33" y="28.34">.</text>
<text x="400.88" y="494.33">+</text>
<text x="484.33" y="66.77">*</text>
<text x="248.61" y="160.10">+</text>
<text x="18.49" y="373.67">+</text>
<text x="327.07" y="207.87">+</text>
<text x="173.84" y="423.70">.</text>
<text x="137.55" y="87.23">.</text>
<text x="347.41" y="489.26">+</text>
<text x="190.37" y="128.43">+</text>
<text x="386.99" y="389.25">.</text>
<text x="445.01" y="444.64">*</text>
<text x="51.14" y="410.02">.</text>
<text x="80.70" y="442.61">*</text>
<text x="110.13" y="393.98">.</text>
<text x="243.99" y="99.31">+</text>
<text x="410.29" y="333.20">*</text>
<text x="303.63" y="243.46">+</text>
<text x="314.85" y="438.18">.</text>
<text x="43.60" y="323.19">.</text>
<text x="414.30" y="164.54">.</text>
<text x="333.19" y="199.73">+</text>
<text x="414.20" y="121.91">+</text>
<text x="343.25" y="35.98">.</text>
<text x="479.23" y="419.87">+</text>
<text x="313.35" y="311.62">.</text>
<text x="400.21" y="129.26">.</text>
<text x="197.80" y="281.50">+</text>
<text x="386.82" y="327.38">.</text>
<text x="195.11" y="446.57">*</text>
<text x="357.88" y="27.99">+</text>
<text x="405.13" y="209.71">+</text>
<text x="156.97" y="292.34">.</text>
<text x="335.38" y="234.82">.</text>
<text x="253.69" y="445.44">+</text>
<text x="106.85" y="50.62">+</text>
<text x="132.39" y="137.33">+</text>
<text x="295.32" y="166.24">.</text>
<text x="239.52" y="111.40">*</text>
<text x="423.73" y="320.48">+</text>
<text x="174.87" y="269.42">.</text>
<text x="339.27" y="156.39">*</text>

</svg>