
<svg viewBox="0 0 500 500" xmlns="http://www.w.org/2000/svg" width="100%" height="100%" style="background-color: #0a0a14; font-family: 'Courier New', Courier, monospace;">
    <style>
        text { fill: #aaa; font-size: 10px; text-anchor: middle; dominant-baseline: middle; }
    </style>
    <text x="383.68" y="369.95">+</text>
<text x="373.44" y="3.95">.</text>
<text x="47.74" y="26.77">.</text>
<text x="332.64" y="436.41">.</text>
<text x="288.62" y="404.09">+</text>
<text x="23.59" y="137.47">+</text>
<text x="162.58" y="401.63">+</text>
<text x="60.28" y="155.07">*</text>
<text x="225.55" y="199.19">.</text>
<text x="92.52" y="203.38">.</text>
<text x="34.72" y="184.95">.</text>
<text x="267.33" y="284.23">.</text>
<text x="134.98" y="106.65">*</text>
<text x="82.43" y="14.59">+</text>
<text x="403.68" y="135.12">+</text>
<text x="463.75" y="60.85">.</text>
<text x="477.24" y="162.49">.</text>
<text x="385.09" y="75.72">.</text>
<text x="114.50" y="404.86">.</text>
<text x="390.28" y="434.67">*</text>
<text x="468.47" y="212.42">.</text>
<text x="399.47" y="340.03">.</text>
<text x="414.99" y="354.91">*</text>
<text x="58.02" y="371.80">*</text>
<text x="319.47" y="248.84">.</text>
<text x="424.17" y="118.90">+</text>
<text x="264.20" y="315.35">.</text>
<text x="105.85" y="93.40">+</text>
<text x="251.63" y="141.78">+</text>
<text x="250.55" y="91.07">+</text>
<text x="9.99" y="69.53">*</text>
<text x="323.45" y="372.44">+</text>
<text x="162.36" y="378.98">.</text>
<text x="490.06" y="311.20">+</text>
<text x="254.43" y="171.99">*</text>
<text x="76.02" y="206.94">+</text>
<text x="468.86" y="306.43">*</text>
<text x="78.21" y="236.97">+</text>
<text x="11.35" y="169.80">*</text>
<text x="36.86" y="55.46">+</text>
<text x="347.93" y="124.70">+</text>
<text x="260.71" y="99.30">+</text>
<text x="473.00" y="180.71">.</text>
<text x="139.69" y="356.03">.</text>
<text x="394.80" y="432.90">+</text>
<text x="237.62" y="475.81">+</text>
<text x="384.33" y="285.14">*</text>
<text x="109.79" y="46.44">+</text>
<text x="270.17" y="450.75">.</text>
<text x="76.76" y="346.37">.</text>
<text x="480.92" y="456.08">.</text>
<text x="29.99" y="408.41">*</text>
<text x="26.46" y="340.57">.</text>
<text x="268.59" y="270.14">.</text>
<text x="419.49" y="432.86">.</text>
<text x="199.64" y="477.04">*</text>
<text x="471.80" y="212.44">+</text>
<text x="199.96" y="473.60">+</text>
<text x="116.25" y="13.39">+</text>
<text x="138.81" y="33.92">*</text>
<text x="320.16" y="428.37">*</text>
<text x="239.71" y="293.02">+</text>
<text x="114.04" y="48.13">.</text>
<text x="221.84" y="179.67">.</text>
<text x="81.52" y="165.90">*</text>
<text x="480.81" y="248.92">*</text>
<text x="137.95" y="205.87">.</text>
<text x="323.38" y="386.58">.</text>
<text x="174.96" y="492.97">+</text>
<text x="446.68" y="154.31">.</text>
<text x="358.74" y="226.99">.</text>
<text x="191.39" y="198.58">.</text>
<text x="81.28" y="160.74">+</text>
<text x="178.62" y="434.79">+</text>
<text x="151.74" y="147.96">*</text>
<text x="28.42" y="490.07">.</text>
<text x="287.77" y="101.69">*</text>
<text x="376.01" y="171.11">+</text>
<text x="449.52" y="464.53">.</text>
<text x="375.65" y="372.28">.</text>
<text x="321.99" y="329.33">.</text>
<text x="341.10" y="253.25">*</text>
<text x="162.39" y="183.92">*</text>
<text x="134.26" y="0.75">.</text>
<text x="38.13" y="328.97">+</text>
<text x="197.09" y="94.08">.</text>
<text x="435.22" y="36.41">+</text>
<text x="161.07" y="50.49">*</text>
<text x="134.30" y="87.68">+</text>
<text x="218.06" y="26.53">.</text>
<text x="477.20" y="303.36">+</text>
<text x="65.14" y="89.81">.</text>
<text x="355.54" y="279.36">+</text>
<text x="25.91" y="133.85">.</text>
<text x="338.85" y="446.69">.</text>
<text x="246.16" y="355.41">.</text>
<text x="242.59" y="40.83">.</text>
<text x="52.76" y="209.51">*</text>
<text x="142.83" y="385.97">.</text>
<text x="234.77" y="284.68">.</text>
<text x="311.35" y="110.86">+</text>
<text x="424.04" y="453.07">+</text>
<text x="167.26" y="384.04">+</text>
<text x="336.38" y="331.86">+</text>
<text x="275.92" y="295.09">.</text>
<text x="42.34" y="143.09">.</text>
<text x="304.27" y="468.70">.</text>
<text x="335.02" y="134.20">+</text>
<text x="287.32" y="480.50">+</text>
<text x="314.61" y="190.27">.</text>
<text x="200.50" y="99.88">.</text>
<text x="261.70" y="121.85">*</text>
<text x="143.87" y="353.39">.</text>
<text x="36.09" y="375.00">*</text>
<text x="444.65" y="20.04">+</text>
<text x="420.46" y="368.83">*</text>
<text x="53.06" y="489.20">.</text>
<text x="99.28" y="197.63">+</text>
<text x="369.03" y="178.22">*</text>
<text x="309.38" y="94.78">.</text>
<text x="283.73" y="89.52">+</text>
<text x="414.77" y="482.82">+</text>
<text x="445.71" y="173.95">.</text>
<text x="280.65" y="481.01">*</text>
<text x="336.37" y="323.86">+</text>
<text x="453.12" y="162.07">+</text>
<text x="45.39" y="214.33">.</text>
<text x="67.75" y="134.60">*</text>
<text x="281.59" y="346.02">+</text>
<text x="39.14" y="30.40">*</text>
<text x="191.26" y="214.41">.</text>
<text x="267.80" y="327.32">*</text>
<text x="329.52" y="280.59">.</text>
<text x="360.09" y="75.51">+</text>
<text x="195.69" y="469.51">+</text>
<text x="52.20" y="367.19">*</text>
<text x="318.64" y="170.00">+</text>
<text x="354.31" y="450.53">+</text>
<text x="229.56" y="455.97">*</text>
<text x="113.22" y="386.43">+</text>
<text x="154.13" y="338.79">.</text>
<text x="406.49" y="1.80">.</text>
<text x="28.79" y="310.62">+</text>
<text x="330.21" y="375.29">.</text>
<text x="190.24" y="173.78">+</text>
<text x="0.02" y="148.39">+</text>
<text x="434.76" y="98.56">.</text>
<text x="357.40" y="394.39">*</text>
<text x="359.28" y="327.21">+</text>
<text x="280.90" y="169.95">.</text>
<text x="396.02" y="451.17">.</text>
<text x="79.55" y="50.50">*</text>
<text x="15.42" y="462.75">.</text>
<text x="323.19" y="374.40">.</text>
<text x="97.25" y="83.73">*</text>
<text x="256.80" y="258.06">.</text>
<text x="163.99" y="203.28">+</text>
<text x="86.68" y="323.29">+</text>
<text x="326.68" y="186.99">+</text>
<text x="481.22" y="473.37">+</text>
<text x="387.12" y="88.53">+</text>
<text x="178.73" y="49.33">+</text>
<text x="161.20" y="349.79">.</text>
<text x="365.74" y="469.39">.</text>
<text x="312.52" y="138.95">*</text>
<text x="122.52" y="246.05">+</text>
<text x="191.75" y="56.84">+</text>
<text x="325.57" y="344.06">.</text>
<text x="146.67" y="262.19">.</text>
<text x="460.51" y="11.43">+</text>
<text x="306.01" y="69.76">.</text>
<text x="406.93" y="200.05">+</text>
<text x="247.79" y="29.26">.</text>
<text x="433.98" y="473.27">*</text>
<text x="474.00" y="18.95">+</text>
<text x="154.04" y="236.80">+</text>
<text x="68.38" y="448.07">+</text>
<text x="367.82" y="235.05">*</text>
<text x="212.34" y="163.82">.</text>
<text x="104.00" y="169.82">.</text>
<text x="265.81" y="301.21">+</text>
<text x="437.80" y="255.28">.</text>
<text x="32.27" y="265.15">*</text>
<text x="398.79" y="479.34">*</text>
<text x="469.68" y="84.86">.</text>
<text x="50.10" y="306.65">+</text>
<text x="381.64" y="432.74">+</text>
<text x="68.93" y="406.89">+</text>
<text x="304.91" y="436.55">+</text>
<text x="479.42" y="369.34">+</text>
<text x="320.58" y="464.18">.</text>
<text x="76.16" y="454.92">.</text>
<text x="161.10" y="462.72">.</text>
<text x="290.31" y="241.56">*</text>
<text x="449.43" y="18.10">+</text>
<text x="303.88" y="88.22">.</text>
<text x="9.64" y="320.13">*</text>
<text x="120.68" y="457.30">.</text>
<text x="252.42" y="24.77">+</text>
<text x="139.16" y="298.58">+</text>
<text x="240.04" y="343.02">+</text>
<text x="250.76" y="125.43">.</text>
<text x="46.83" y="68.98">.</text>
<text x="189.21" y="466.94">+</text>
<text x="39.37" y="189.62">*</text>
<text x="112.05" y="400.56">+</text>

</svg>