
<svg viewBox="0 0 500 500" xmlns="http://www.w.org/2000/svg" width="100%" height="100%" style="background-color: #0a0a14; font-family: 'Courier New', Courier, monospace;">
    <style>
        text { fill: #aaa; font-size: 10px; text-anchor: middle; dominant-baseline: middle; }
    </style>
    <text x="175.53" y="224.83">.</text>
<text x="96.03" y="378.81">+</text>
<text x="122.68" y="353.56">+</text>
<text x="461.87" y="120.78">*</text>
<text x="61.16" y="338.98">.</text>
<text x="382.35" y="268.88">.</text>
<text x="168.75" y="261.06">.</text>
<text x="216.44" y="167.16">.</text>
<text x="371.63" y="220.50">+</text>
<text x="244.71" y="151.93">.</text>
<text x="26.09" y="164.89">.</text>
<text x="275.06" y="177.06">+</text>
<text x="468.87" y="163.82">.</text>
<text x="258.90" y="138.26">+</text>
<text x="174.10" y="497.56">+</text>
<text x="176.10" y="99.41">+</text>
<text x="217.47" y="416.03">+</text>
<text x="388.09" y="472.36">+</text>
<text x="25.22" y="416.82">+</text>
<text x="20.34" y="138.80">+</text>
<text x="208.88" y="459.55">+</text>
<text x="285.17" y="495.86">.</text>
<text x="482.93" y="62.28">+</text>
<text x="335.22" y="234.14">.</text>
<text x="345.50" y="209.81">.</text>
<text x="399.84" y="499.92">.</text>
<text x="117.22" y="278.97">*</text>
<text x="30.20" y="45.64">+</text>
<text x="279.40" y="435.17">.</text>
<text x="267.33" y="113.23">.</text>
<text x="327.77" y="149.38">+</text>
<text x="216.40" y="8.58">.</text>
<text x="264.31" y="90.34">*</text>
<text x="253.92" y="212.42">.</text>
<text x="291.68" y="413.46">+</text>
<text x="84.86" y="454.72">.</text>
<text x="282.36" y="115.81">.</text>
<text x="355.83" y="310.37">*</text>
<text x="31.32" y="229.07">.</text>
<text x="252.63" y="321.73">.</text>
<text x="247.83" y="392.71">+</text>
<text x="372.68" y="343.98">+</text>
<text x="273.53" y="490.76">.</text>
<text x="68.05" y="320.78">+</text>
<text x="468.94" y="180.31">+</text>
<text x="262.48" y="374.72">.</text>
<text x="166.33" y="97.91">.</text>
<text x="331.10" y="279.43">+</text>
<text x="206.73" y="195.55">+</text>
<text x="391.53" y="52.84">.</text>
<text x="296.12" y="220.64">.</text>
<text x="128.16" y="90.17">.</text>
<text x="166.41" y="479.35">+</text>
<text x="189.98" y="292.83">+</text>
<text x="235.49" y="495.05">+</text>
<text x="490.88" y="291.55">+</text>
<text x="432.54" y="149.26">+</text>
<text x="231.09" y="66.05">+</text>
<text x="318.85" y="200.99">+</text>
<text x="281.16" y="135.19">+</text>
<text x="310.89" y="71.46">*</text>
<text x="27.43" y="492.04">*</text>
<text x="346.35" y="281.45">.</text>
<text x="368.61" y="292.93">+</text>
<text x="154.89" y="416.02">.</text>
<text x="311.12" y="134.44">.</text>
<text x="451.51" y="278.69">.</text>
<text x="463.40" y="287.87">*</text>
<text x="362.33" y="48.81">*</text>
<text x="316.50" y="464.05">+</text>
<text x="176.60" y="387.47">.</text>
<text x="91.74" y="214.51">.</text>
<text x="208.30" y="457.35">+</text>
<text x="384.76" y="418.19">+</text>
<text x="282.69" y="319.42">*</text>
<text x="423.97" y="194.55">+</text>
<text x="369.86" y="161.56">+</text>
<text x="209.02" y="297.49">+</text>
<text x="488.83" y="286.17">.</text>
<text x="329.57" y="483.75">.</text>
<text x="345.34" y="277.34">+</text>
<text x="325.64" y="302.49">+</text>
<text x="42.05" y="132.03">.</text>
<text x="262.91" y="253.48">.</text>
<text x="20.33" y="269.83">*</text>
<text x="282.66" y="98.74">.</text>
<text x="8.39" y="288.75">.</text>
<text x="124.52" y="324.92">+</text>
<text x="158.39" y="137.20">.</text>
<text x="364.13" y="308.09">*</text>
<text x="480.50" y="306.52">+</text>
<text x="376.98" y="431.04">.</text>
<text x="405.94" y="348.65">+</text>
<text x="259.73" y="251.41">*</text>
<text x="425.34" y="141.94">+</text>
<text x="455.86" y="30.82">*</text>
<text x="16.45" y="368.97">*</text>
<text x="204.26" y="344.83">.</text>
<text x="126.26" y="56.01">*</text>
<text x="8.18" y="370.46">.</text>
<text x="388.52" y="240.06">.</text>
<text x="142.14" y="126.25">+</text>
<text x="410.44" y="468.29">.</text>
<text x="462.59" y="459.80">+</text>
<text x="286.69" y="484.12">+</text>
<text x="83.79" y="188.16">*</text>
<text x="81.10" y="200.91">+</text>
<text x="358.88" y="159.51">.</text>
<text x="12.09" y="208.10">.</text>
<text x="73.63" y="86.87">+</text>
<text x="319.35" y="200.91">.</text>
<text x="392.90" y="141.21">.</text>
<text x="280.50" y="331.28">.</text>
<text x="94.21" y="106.69">.</text>
<text x="225.78" y="26.99">+</text>
<text x="145.96" y="54.87">.</text>
<text x="42.25" y="29.03">+</text>
<text x="181.85" y="462.74">+</text>
<text x="42.97" y="122.01">.</text>
<text x="142.83" y="497.80">+</text>
<text x="314.60" y="176.69">.</text>
<text x="220.39" y="390.67">.</text>
<text x="234.16" y="215.39">+</text>
<text x="289.87" y="427.43">.</text>
<text x="404.67" y="86.49">.</text>
<text x="232.76" y="29.24">.</text>
<text x="451.61" y="352.00">*</text>
<text x="31.65" y="359.14">.</text>
<text x="254.00" y="497.68">.</text>
<text x="275.73" y="299.00">+</text>
<text x="270.75" y="368.90">+</text>
<text x="60.08" y="453.80">+</text>
<text x="367.42" y="26.88">*</text>
<text x="407.49" y="149.96">.</text>
<text x="167.83" y="460.18">+</text>
<text x="72.48" y="412.01">.</text>
<text x="31.77" y="273.38">*</text>
<text x="444.50" y="444.51">.</text>
<text x="38.14" y="358.81">+</text>
<text x="147.14" y="393.80">.</text>
<text x="251.84" y="66.59">.</text>
<text x="433.51" y="331.74">+</text>
<text x="274.35" y="270.16">*</text>
<text x="257.54" y="243.75">.</text>
<text x="412.76" y="94.90">.</text>
<text x="183.46" y="39.57">+</text>
<text x="65.80" y="128.93">.</text>
<text x="14.18" y="372.41">*</text>
<text x="348.98" y="159.22">+</text>
<text x="132.32" y="455.85">+</text>
<text x="380.69" y="419.23">*</text>
<text x="347.75" y="199.03">.</text>
<text x="49.45" y="431.27">+</text>
<text x="246.54" y="172.55">.</text>
<text x="472.51" y="25.68">.</text>
<text x="161.80" y="333.35">+</text>
<text x="74.02" y="47.60">+</text>
<text x="80.02" y="125.73">.</text>
<text x="474.88" y="389.99">*</text>
<text x="6.84" y="490.80">+</text>
<text x="471.27" y="351.16">+</text>
<text x="339.63" y="244.31">*</text>
<text x="313.34" y="119.54">.</text>
<text x="398.48" y="339.15">+</text>
<text x="168.83" y="315.94">.</text>
<text x="367.02" y="229.88">.</text>
<text x="194.32" y="226.68">.</text>
<text x="72.46" y="366.04">+</text>
<text x="484.05" y="339.38">+</text>
<text x="421.61" y="55.40">.</text>
<text x="395.55" y="391.09">.</text>
<text x="230.61" y="213.06">+</text>
<text x="216.08" y="144.54">.</text>
<text x="336.09" y="473.46">+</text>
<text x="314.43" y="19.11">.</text>
<text x="46.78" y="353.76">.</text>
<text x="14.52" y="194.50">*</text>
<text x="49.04" y="347.66">.</text>
<text x="169.06" y="2.05">.</text>
<text x="335.12" y="349.95">+</text>
<text x="111.24" y="481.86">+</text>
<text x="136.67" y="462.23">+</text>
<text x="117.84" y="376.11">.</text>
<text x="315.78" y="168.83">.</text>
<text x="452.20" y="474.29">.</text>
<text x="190.10" y="206.38">.</text>
<text x="248.98" y="94.85">*</text>
<text x="180.91" y="393.30">*</text>
<text x="73.47" y="431.13">.</text>
<text x="58.11" y="433.22">*</text>
<text x="200.50" y="293.40">.</text>
<text x="175.94" y="228.40">+</text>
<text x="423.11" y="476.42">.</text>
<text x="227.48" y="21.00">+</text>
<text x="171.05" y="274.53">+</text>
<text x="497.36" y="359.58">.</text>
<text x="327.43" y="402.10">*</text>
<text x="7.15" y="194.48">.</text>
<text x="161.90" y="440.25">+</text>
<text x="68.67" y="90.67">+</text>
<text x="485.61" y="95.93">+</text>
<text x="145.49" y="416.54">.</text>
<text x="249.84" y="456.85">+</text>
<text x="101.57" y="211.82">.</text>
<text x="175.70" y="116.63">.</text>
<text x="370.25" y="42.02">+</text>
<text x="376.46" y="155.67">.</text>
<text x="393.58" y="207.64">*</text>
<text x="28.49" y="313.57">.</text>
<text x="225.49" y="247.90">.</text>
<text x="180.36" y="174.67">.</text>
<text x="434.63" y="150.18">+</text>

</svg>