
<svg viewBox="0 0 500 500" xmlns="http://www.w.org/2000/svg" width="100%" height="100%" style="background-color: #0a0a14; font-family: 'Courier New', Courier, monospace;">
    <style>
        text { fill: #aaa; font-size: 10px; text-anchor: middle; dominant-baseline: middle; }
    </style>
    <text x="129.07" y="483.01">.</text>
<text x="463.56" y="495.00">.</text>
<text x="58.65" y="48.93">.</text>
<text x="406.26" y="206.24">+</text>
<text x="471.67" y="467.42">+</text>
<text x="379.38" y="401.48">.</text>
<text x="261.69" y="82.86">.</text>
<text x="368.12" y="150.50">*</text>
<text x="299.40" y="418.48">.</text>
<text x="496.71" y="404.05">+</text>
<text x="432.06" y="52.68">+</text>
<text x="416.93" y="136.84">+</text>
<text x="105.75" y="413.53">+</text>
<text x="117.63" y="315.00">+</text>
<text x="50.89" y="455.28">+</text>
<text x="259.89" y="45.93">.</text>
<text x="483.34" y="439.34">.</text>
<text x="92.00" y="234.74">+</text>
<text x="397.76" y="270.06">+</text>
<text x="6.28" y="278.88">.</text>
<text x="403.04" y="210.98">+</text>
<text x="161.66" y="65.25">*</text>
<text x="462.77" y="348.76">+</text>
<text x="321.00" y="444.94">.</text>
<text x="236.45" y="437.17">.</text>
<text x="153.71" y="229.58">+</text>
<text x="85.05" y="11.11">.</text>
<text x="481.86" y="181.31">+</text>
<text x="203.13" y="28.73">.</text>
<text x="54.70" y="239.69">*</text>
<text x="434.91" y="490.31">.</text>
<text x="12.14" y="80.52">+</text>
<text x="373.01" y="270.08">.</text>
<text x="481.18" y="131.48">+</text>
<text x="238.20" y="151.80">*</text>
<text x="447.26" y="274.75">*</text>
<text x="312.22" y="430.56">.</text>
<text x="124.37" y="283.73">+</text>
<text x="349.18" y="189.47">.</text>
<text x="314.48" y="181.37">+</text>
<text x="113.29" y="44.42">.</text>
<text x="351.32" y="462.52">+</text>
<text x="403.75" y="399.95">*</text>
<text x="283.34" y="12.65">.</text>
<text x="259.52" y="368.06">.</text>
<text x="83.26" y="201.66">.</text>
<text x="498.16" y="43.07">+</text>
<text x="212.85" y="255.51">+</text>
<text x="381.09" y="306.67">+</text>
<text x="250.94" y="6.77">.</text>
<text x="67.96" y="28.16">*</text>
<text x="238.10" y="297.24">+</text>
<text x="471.37" y="69.91">+</text>
<text x="498.54" y="80.18">+</text>
<text x="97.04" y="412.88">.</text>
<text x="433.02" y="99.28">.</text>
<text x="81.61" y="455.60">.</text>
<text x="263.90" y="445.90">+</text>
<text x="99.02" y="262.12">*</text>
<text x="297.19" y="275.27">.</text>
<text x="288.33" y="48.40">.</text>
<text x="345.72" y="486.84">+</text>
<text x="93.36" y="453.93">.</text>
<text x="127.80" y="252.37">.</text>
<text x="152.46" y="71.66">*</text>
<text x="342.90" y="111.13">.</text>
<text x="46.41" y="343.77">.</text>
<text x="103.82" y="360.50">+</text>
<text x="454.57" y="190.36">+</text>
<text x="474.27" y="435.82">+</text>
<text x="24.03" y="91.97">+</text>
<text x="146.18" y="23.28">*</text>
<text x="484.53" y="241.68">+</text>
<text x="18.66" y="61.03">+</text>
<text x="349.03" y="367.83">.</text>
<text x="314.47" y="73.79">*</text>
<text x="419.77" y="233.04">+</text>
<text x="467.53" y="158.96">+</text>
<text x="330.84" y="111.96">.</text>
<text x="105.14" y="159.51">.</text>
<text x="102.51" y="499.99">.</text>
<text x="259.42" y="489.91">.</text>
<text x="468.74" y="396.04">*</text>
<text x="257.21" y="27.96">.</text>
<text x="239.78" y="42.60">*</text>
<text x="476.11" y="357.99">.</text>
<text x="92.69" y="255.15">.</text>
<text x="429.00" y="34.26">+</text>
<text x="267.60" y="68.27">*</text>
<text x="125.28" y="36.80">.</text>
<text x="133.35" y="168.88">*</text>
<text x="187.10" y="477.46">+</text>
<text x="73.54" y="360.09">+</text>
<text x="220.88" y="190.29">.</text>
<text x="307.30" y="379.77">+</text>
<text x="346.26" y="223.57">+</text>
<text x="166.29" y="92.10">.</text>
<text x="119.99" y="199.43">+</text>
<text x="170.57" y="498.38">.</text>
<text x="336.47" y="117.78">.</text>
<text x="415.63" y="413.25">+</text>
<text x="252.20" y="429.19">+</text>
<text x="229.73" y="201.32">.</text>
<text x="229.84" y="447.44">.</text>
<text x="318.13" y="495.19">+</text>
<text x="213.03" y="136.93">.</text>
<text x="32.63" y="244.22">+</text>
<text x="261.54" y="185.44">.</text>
<text x="205.12" y="454.44">*</text>
<text x="214.38" y="190.06">.</text>
<text x="455.53" y="467.37">.</text>
<text x="354.11" y="186.69">*</text>
<text x="264.22" y="356.45">+</text>
<text x="476.61" y="453.78">.</text>
<text x="265.18" y="229.49">*</text>
<text x="181.39" y="200.29">.</text>
<text x="129.54" y="139.51">*</text>
<text x="426.21" y="292.76">.</text>
<text x="424.65" y="226.46">.</text>
<text x="181.16" y="194.86">+</text>
<text x="92.33" y="251.03">.</text>
<text x="10.91" y="28.48">*</text>
<text x="53.59" y="6.72">+</text>
<text x="11.43" y="385.22">.</text>
<text x="37.35" y="334.93">+</text>
<text x="93.21" y="322.74">.</text>
<text x="376.92" y="437.12">+</text>
<text x="59.83" y="469.96">+</text>
<text x="12.80" y="483.51">.</text>
<text x="451.00" y="24.58">*</text>
<text x="401.87" y="451.01">.</text>
<text x="413.63" y="220.65">.</text>
<text x="405.57" y="414.31">.</text>
<text x="120.00" y="290.03">+</text>
<text x="147.85" y="56.64">+</text>
<text x="314.17" y="480.55">.</text>
<text x="164.61" y="359.51">+</text>
<text x="76.18" y="371.79">+</text>
<text x="342.25" y="125.03">*</text>
<text x="171.71" y="156.66">.</text>
<text x="386.69" y="401.21">.</text>
<text x="304.31" y="19.38">.</text>
<text x="253.92" y="95.68">*</text>
<text x="157.25" y="59.67">.</text>
<text x="95.43" y="377.24">.</text>
<text x="91.31" y="18.73">+</text>
<text x="266.76" y="122.45">*</text>
<text x="474.02" y="203.83">.</text>
<text x="372.65" y="167.54">.</text>
<text x="252.73" y="201.31">+</text>
<text x="450.81" y="14.12">.</text>
<text x="467.43" y="195.02">+</text>
<text x="54.52" y="445.09">+</text>
<text x="281.70" y="387.30">.</text>
<text x="59.15" y="320.09">+</text>
<text x="282.05" y="201.45">.</text>
<text x="16.24" y="39.76">+</text>
<text x="385.59" y="291.04">.</text>
<text x="309.46" y="482.51">+</text>
<text x="143.68" y="487.22">*</text>
<text x="260.72" y="42.54">*</text>
<text x="321.35" y="42.89">.</text>
<text x="136.42" y="228.39">+</text>
<text x="84.79" y="71.35">+</text>
<text x="410.70" y="334.67">+</text>
<text x="202.37" y="366.98">+</text>
<text x="443.43" y="431.92">*</text>
<text x="81.17" y="43.95">+</text>
<text x="194.83" y="116.67">+</text>
<text x="219.18" y="76.97">*</text>
<text x="363.11" y="72.05">.</text>
<text x="39.08" y="398.58">.</text>
<text x="372.46" y="198.37">.</text>
<text x="441.51" y="5.25">*</text>
<text x="197.19" y="95.72">+</text>
<text x="411.38" y="432.69">+</text>
<text x="159.22" y="38.80">+</text>
<text x="313.30" y="199.80">*</text>
<text x="396.14" y="438.35">.</text>
<text x="280.13" y="406.97">+</text>
<text x="216.84" y="406.48">*</text>
<text x="6.09" y="465.90">.</text>
<text x="391.16" y="230.82">+</text>
<text x="109.33" y="317.55">.</text>
<text x="81.80" y="374.96">.</text>
<text x="326.88" y="237.07">*</text>
<text x="108.54" y="364.87">+</text>
<text x="57.37" y="321.91">+</text>
<text x="24.00" y="72.97">+</text>
<text x="485.39" y="483.89">.</text>
<text x="26.80" y="290.73">+</text>
<text x="99.38" y="251.27">+</text>
<text x="189.87" y="164.25">.</text>
<text x="188.68" y="392.84">+</text>
<text x="224.78" y="307.97">.</text>
<text x="13.45" y="13.25">*</text>
<text x="16.04" y="347.05">+</text>
<text x="149.43" y="244.39">.</text>
<text x="44.16" y="35.05">*</text>
<text x="310.67" y="314.15">+</text>
<text x="263.86" y="78.04">+</text>
<text x="195.26" y="366.97">.</text>
<text x="107.24" y="263.11">*</text>
<text x="9.40" y="424.27">+</text>
<text x="382.34" y="232.89">.</text>
<text x="82.82" y="131.75">+</text>
<text x="141.81" y="90.51">.</text>
<text x="165.63" y="81.87">*</text>
<text x="365.88" y="54.92">.</text>
<text x="290.70" y="361.15">*</text>
<text x="43.04" y="46.35">+</text>
<text x="296.10" y="249.15">+</text>
<text x="412.25" y="348.98">+</text>
<text x="145.84" y="2.15">.</text>

</svg>