
<svg viewBox="0 0 500 500" xmlns="http://www.w.org/2000/svg" width="100%" height="100%" style="background-color: #0a0a14; font-family: 'Courier New', Courier, monospace;">
    <style>
        text { fill: #aaa; font-size: 10px; text-anchor: middle; dominant-baseline: middle; }
    </style>
    <text x="351.39" y="92.17">.</text>
<text x="335.63" y="115.32">.</text>
<text x="401.96" y="370.39">.</text>
<text x="293.53" y="30.64">.</text>
<text x="354.26" y="230.01">.</text>
<text x="190.98" y="54.85">.</text>
<text x="19.20" y="363.76">+</text>
<text x="89.46" y="490.16">.</text>
<text x="295.12" y="20.97">.</text>
<text x="63.88" y="331.03">*</text>
<text x="414.25" y="173.88">*</text>
<text x="288.72" y="134.47">+</text>
<text x="373.28" y="90.03">.</text>
<text x="173.46" y="43.06">+</text>
<text x="349.06" y="55.17">+</text>
<text x="256.91" y="272.76">.</text>
<text x="483.18" y="337.23">.</text>
<text x="359.65" y="150.53">+</text>
<text x="238.34" y="421.20">.</text>
<text x="214.23" y="75.45">+</text>
<text x="47.24" y="337.84">*</text>
<text x="169.48" y="206.61">.</text>
<text x="247.50" y="206.86">.</text>
<text x="378.65" y="304.82">+</text>
<text x="389.22" y="160.84">+</text>
<text x="273.72" y="137.90">*</text>
<text x="119.52" y="96.19">.</text>
<text x="348.82" y="343.51">+</text>
<text x="463.71" y="452.55">*</text>
<text x="6.52" y="218.66">*</text>
<text x="91.49" y="417.44">.</text>
<text x="187.27" y="499.82">.</text>
<text x="63.26" y="435.41">.</text>
<text x="416.67" y="472.29">*</text>
<text x="444.39" y="181.91">*</text>
<text x="231.56" y="151.62">.</text>
<text x="456.99" y="73.18">*</text>
<text x="150.23" y="345.39">.</text>
<text x="418.99" y="315.09">.</text>
<text x="416.92" y="297.79">+</text>
<text x="380.57" y="72.07">+</text>
<text x="76.17" y="346.68">.</text>
<text x="14.29" y="131.01">+</text>
<text x="42.91" y="496.43">.</text>
<text x="479.67" y="113.01">.</text>
<text x="340.20" y="364.48">*</text>
<text x="491.56" y="390.03">+</text>
<text x="320.95" y="163.84">.</text>
<text x="390.87" y="172.19">+</text>
<text x="180.82" y="131.49">.</text>
<text x="69.52" y="446.28">+</text>
<text x="69.61" y="356.94">.</text>
<text x="333.83" y="350.97">+</text>
<text x="409.19" y="343.63">.</text>
<text x="38.35" y="171.87">.</text>
<text x="142.27" y="498.66">+</text>
<text x="489.23" y="384.22">*</text>
<text x="269.17" y="180.68">.</text>
<text x="428.52" y="82.04">+</text>
<text x="192.65" y="320.78">+</text>
<text x="407.60" y="497.55">.</text>
<text x="345.84" y="340.58">.</text>
<text x="443.55" y="368.39">.</text>
<text x="183.47" y="386.57">+</text>
<text x="408.31" y="5.73">+</text>
<text x="321.39" y="418.65">.</text>
<text x="152.45" y="180.05">.</text>
<text x="419.34" y="490.53">.</text>
<text x="324.10" y="157.78">+</text>
<text x="48.45" y="284.80">.</text>
<text x="402.25" y="81.37">.</text>
<text x="463.01" y="325.36">+</text>
<text x="157.77" y="167.40">+</text>
<text x="57.78" y="154.67">.</text>
<text x="49.02" y="267.40">.</text>
<text x="331.60" y="441.05">*</text>
<text x="52.07" y="389.24">+</text>
<text x="400.20" y="133.09">+</text>
<text x="456.42" y="467.68">.</text>
<text x="300.21" y="428.82">.</text>
<text x="375.30" y="401.74">+</text>
<text x="375.39" y="171.98">.</text>
<text x="158.17" y="3.90">.</text>
<text x="117.27" y="444.31">+</text>
<text x="372.22" y="292.35">.</text>
<text x="325.94" y="367.39">*</text>
<text x="312.24" y="215.68">+</text>
<text x="137.67" y="134.86">*</text>
<text x="266.84" y="105.39">.</text>
<text x="134.18" y="106.18">+</text>
<text x="22.69" y="216.13">.</text>
<text x="364.04" y="84.41">.</text>
<text x="201.70" y="178.56">.</text>
<text x="151.37" y="184.55">*</text>
<text x="271.06" y="331.07">.</text>
<text x="240.22" y="5.62">+</text>
<text x="261.21" y="373.11">*</text>
<text x="275.25" y="337.12">+</text>
<text x="293.22" y="235.94">.</text>
<text x="247.67" y="286.02">.</text>
<text x="388.61" y="148.58">.</text>
<text x="324.45" y="364.92">+</text>
<text x="132.80" y="66.66">.</text>
<text x="321.19" y="233.65">.</text>
<text x="223.23" y="403.61">.</text>
<text x="176.93" y="359.50">.</text>
<text x="379.31" y="101.37">+</text>
<text x="205.39" y="186.22">.</text>
<text x="221.03" y="329.83">+</text>
<text x="198.01" y="450.78">*</text>
<text x="80.75" y="496.91">.</text>
<text x="267.43" y="323.95">*</text>
<text x="209.19" y="204.43">+</text>
<text x="110.47" y="428.68">.</text>
<text x="20.90" y="140.74">.</text>
<text x="264.18" y="103.19">.</text>
<text x="389.91" y="362.67">+</text>
<text x="179.66" y="246.50">.</text>
<text x="104.35" y="206.50">.</text>
<text x="93.53" y="399.90">+</text>
<text x="87.44" y="178.86">.</text>
<text x="131.83" y="459.97">*</text>
<text x="182.78" y="330.55">*</text>
<text x="35.29" y="268.89">.</text>
<text x="252.65" y="333.13">+</text>
<text x="122.12" y="191.94">+</text>
<text x="369.52" y="415.61">.</text>
<text x="324.53" y="268.02">+</text>
<text x="112.99" y="489.77">.</text>
<text x="64.35" y="99.53">+</text>
<text x="490.62" y="114.87">.</text>
<text x="11.02" y="87.79">*</text>
<text x="98.44" y="40.93">.</text>
<text x="64.92" y="341.61">.</text>
<text x="49.62" y="434.25">.</text>
<text x="483.23" y="55.28">.</text>
<text x="38.30" y="360.82">.</text>
<text x="354.67" y="317.30">.</text>
<text x="25.35" y="303.82">+</text>
<text x="488.79" y="432.67">.</text>
<text x="192.64" y="103.99">.</text>
<text x="263.86" y="89.43">.</text>
<text x="352.38" y="322.18">.</text>
<text x="298.67" y="105.32">.</text>
<text x="132.89" y="481.22">.</text>
<text x="283.65" y="232.52">*</text>
<text x="228.51" y="440.30">+</text>
<text x="435.15" y="120.28">.</text>
<text x="378.69" y="451.84">.</text>
<text x="264.16" y="137.22">+</text>
<text x="114.10" y="232.71">.</text>
<text x="4.97" y="317.54">+</text>
<text x="277.50" y="185.97">+</text>
<text x="297.99" y="90.57">+</text>
<text x="280.64" y="278.58">.</text>
<text x="282.16" y="386.68">+</text>
<text x="393.12" y="97.21">.</text>
<text x="129.65" y="415.54">*</text>
<text x="376.01" y="303.21">.</text>
<text x="38.32" y="140.22">.</text>
<text x="479.82" y="382.44">.</text>
<text x="153.48" y="331.11">.</text>
<text x="314.66" y="356.76">+</text>
<text x="78.01" y="160.10">*</text>
<text x="187.84" y="466.85">+</text>
<text x="311.14" y="132.45">+</text>
<text x="160.42" y="337.00">.</text>
<text x="171.26" y="472.91">.</text>
<text x="139.73" y="209.07">+</text>
<text x="267.19" y="298.57">+</text>
<text x="282.27" y="180.33">*</text>
<text x="329.07" y="457.47">.</text>
<text x="4.30" y="360.07">.</text>
<text x="255.49" y="357.76">+</text>
<text x="47.60" y="479.50">+</text>
<text x="437.23" y="465.00">+</text>
<text x="244.28" y="133.43">+</text>
<text x="18.67" y="341.94">*</text>
<text x="277.91" y="242.78">.</text>
<text x="280.00" y="252.55">+</text>
<text x="174.56" y="326.72">*</text>
<text x="218.72" y="488.74">+</text>
<text x="202.68" y="127.53">+</text>
<text x="204.74" y="91.49">.</text>
<text x="439.28" y="26.74">.</text>
<text x="331.09" y="0.04">.</text>
<text x="103.21" y="203.51">.</text>
<text x="314.74" y="117.92">+</text>
<text x="142.84" y="429.62">.</text>
<text x="251.38" y="0.98">.</text>
<text x="374.87" y="164.57">+</text>
<text x="387.49" y="495.11">*</text>
<text x="16.88" y="258.52">*</text>
<text x="414.32" y="155.96">*</text>
<text x="103.21" y="164.34">.</text>
<text x="147.45" y="406.80">.</text>
<text x="109.07" y="280.83">*</text>
<text x="222.40" y="381.56">.</text>
<text x="398.76" y="36.61">*</text>
<text x="354.72" y="207.72">+</text>
<text x="327.34" y="217.49">.</text>
<text x="469.61" y="192.75">*</text>
<text x="241.26" y="349.30">.</text>
<text x="253.22" y="414.39">*</text>
<text x="213.60" y="134.37">+</text>

</svg>