
<svg viewBox="0 0 500 500" xmlns="http://www.w.org/2000/svg" width="100%" height="100%" style="background-color: #0a0a14; font-family: 'Courier New', Courier, monospace;">
    <style>
        text { fill: #aaa; font-size: 10px; text-anchor: middle; dominant-baseline: middle; }
    </style>
    <text x="406.49" y="57.09">.</text>
<text x="107.48" y="409.01">.</text>
<text x="117.72" y="476.77">+</text>
<text x="226.17" y="22.26">.</text>
<text x="403.26" y="281.81">.</text>
<text x="33.83" y="80.78">.</text>
<text x="165.48" y="163.01">+</text>
<text x="112.49" y="297.08">.</text>
<text x="333.02" y="333.90">+</text>
<text x="103.37" y="76.01">+</text>
<text x="100.55" y="60.97">+</text>
<text x="287.45" y="149.97">*</text>
<text x="196.98" y="43.24">.</text>
<text x="45.55" y="410.90">.</text>
<text x="186.70" y="484.10">+</text>
<text x="323.64" y="314.54">.</text>
<text x="495.19" y="189.03">*</text>
<text x="120.08" y="253.26">+</text>
<text x="230.93" y="17.64">.</text>
<text x="421.85" y="420.65">+</text>
<text x="417.72" y="207.47">*</text>
<text x="234.49" y="446.20">.</text>
<text x="129.08" y="414.25">+</text>
<text x="469.23" y="390.50">.</text>
<text x="200.08" y="189.98">.</text>
<text x="56.21" y="148.53">+</text>
<text x="364.34" y="88.98">.</text>
<text x="274.86" y="178.38">.</text>
<text x="252.33" y="114.22">*</text>
<text x="426.99" y="43.13">+</text>
<text x="6.36" y="235.12">.</text>
<text x="249.42" y="388.20">*</text>
<text x="91.39" y="170.94">.</text>
<text x="497.35" y="222.15">*</text>
<text x="126.09" y="466.69">.</text>
<text x="8.39" y="80.11">*</text>
<text x="331.20" y="498.40">+</text>
<text x="311.53" y="202.67">.</text>
<text x="166.29" y="160.93">+</text>
<text x="83.35" y="248.67">.</text>
<text x="99.49" y="114.90">.</text>
<text x="315.15" y="454.20">+</text>
<text x="380.74" y="482.02">+</text>
<text x="213.13" y="459.37">+</text>
<text x="258.77" y="223.81">*</text>
<text x="264.38" y="160.19">.</text>
<text x="29.33" y="384.83">.</text>
<text x="85.55" y="69.36">+</text>
<text x="188.27" y="217.73">+</text>
<text x="191.09" y="335.70">+</text>
<text x="150.19" y="202.31">*</text>
<text x="41.08" y="44.40">.</text>
<text x="264.94" y="238.68">*</text>
<text x="153.63" y="121.31">+</text>
<text x="421.87" y="393.25">+</text>
<text x="308.95" y="21.40">.</text>
<text x="235.35" y="68.70">+</text>
<text x="381.93" y="58.28">.</text>
<text x="82.43" y="178.41">.</text>
<text x="368.03" y="257.60">.</text>
<text x="419.92" y="286.58">+</text>
<text x="347.80" y="433.39">.</text>
<text x="380.49" y="374.22">*</text>
<text x="395.78" y="174.02">.</text>
<text x="378.77" y="425.73">+</text>
<text x="426.22" y="397.57">.</text>
<text x="488.35" y="433.67">*</text>
<text x="122.37" y="236.14">*</text>
<text x="218.89" y="426.51">*</text>
<text x="146.36" y="361.29">+</text>
<text x="11.92" y="405.53">+</text>
<text x="197.03" y="87.32">+</text>
<text x="457.39" y="171.17">+</text>
<text x="12.90" y="72.42">+</text>
<text x="447.56" y="499.40">*</text>
<text x="469.82" y="219.25">.</text>
<text x="279.87" y="95.79">+</text>
<text x="2.08" y="9.55">.</text>
<text x="198.69" y="56.13">.</text>
<text x="141.10" y="499.81">+</text>
<text x="10.39" y="297.87">.</text>
<text x="424.70" y="300.77">+</text>
<text x="364.95" y="271.25">.</text>
<text x="118.27" y="185.19">.</text>
<text x="309.69" y="248.99">*</text>
<text x="309.84" y="309.55">+</text>
<text x="77.08" y="389.59">+</text>
<text x="171.14" y="312.44">+</text>
<text x="168.66" y="74.52">+</text>
<text x="132.57" y="408.13">.</text>
<text x="278.41" y="311.90">.</text>
<text x="290.38" y="396.03">+</text>
<text x="29.72" y="422.56">+</text>
<text x="153.90" y="155.65">.</text>
<text x="15.83" y="248.08">.</text>
<text x="386.98" y="480.36">.</text>
<text x="63.41" y="195.10">.</text>
<text x="101.97" y="231.71">.</text>
<text x="409.88" y="55.46">+</text>
<text x="156.63" y="234.79">+</text>
<text x="485.43" y="282.44">*</text>
<text x="405.70" y="438.09">+</text>
<text x="38.14" y="244.05">.</text>
<text x="267.57" y="6.29">*</text>
<text x="323.82" y="140.27">+</text>
<text x="428.50" y="243.14">.</text>
<text x="442.79" y="296.31">+</text>
<text x="304.30" y="392.69">+</text>
<text x="159.29" y="477.50">+</text>
<text x="144.67" y="487.52">*</text>
<text x="17.90" y="295.81">+</text>
<text x="13.76" y="44.82">+</text>
<text x="46.77" y="58.93">.</text>
<text x="63.30" y="433.95">.</text>
<text x="109.51" y="201.43">*</text>
<text x="305.57" y="456.03">.</text>
<text x="418.86" y="399.53">.</text>
<text x="452.17" y="47.89">*</text>
<text x="127.00" y="453.77">*</text>
<text x="356.49" y="402.99">.</text>
<text x="270.69" y="151.27">+</text>
<text x="361.29" y="419.16">.</text>
<text x="159.68" y="46.36">.</text>
<text x="353.80" y="36.07">.</text>
<text x="264.58" y="497.43">+</text>
<text x="77.07" y="214.42">.</text>
<text x="264.99" y="66.95">.</text>
<text x="292.02" y="83.49">+</text>
<text x="331.69" y="314.80">+</text>
<text x="215.22" y="73.86">.</text>
<text x="344.09" y="234.78">*</text>
<text x="158.74" y="203.82">+</text>
<text x="177.96" y="430.97">*</text>
<text x="442.41" y="259.97">.</text>
<text x="170.34" y="150.35">+</text>
<text x="186.69" y="122.03">.</text>
<text x="283.84" y="89.21">*</text>
<text x="98.14" y="107.46">+</text>
<text x="444.27" y="274.90">.</text>
<text x="488.30" y="122.95">+</text>
<text x="388.06" y="81.39">.</text>
<text x="383.02" y="141.17">.</text>
<text x="274.30" y="395.14">*</text>
<text x="457.62" y="429.89">+</text>
<text x="473.09" y="364.96">.</text>
<text x="102.86" y="418.84">+</text>
<text x="126.51" y="51.88">+</text>
<text x="477.30" y="371.92">*</text>
<text x="452.05" y="123.92">*</text>
<text x="125.95" y="83.13">+</text>
<text x="354.25" y="32.65">+</text>
<text x="476.69" y="323.02">+</text>
<text x="75.72" y="201.10">+</text>
<text x="359.48" y="321.68">+</text>
<text x="155.73" y="133.17">+</text>
<text x="468.57" y="409.88">.</text>
<text x="489.57" y="43.37">+</text>
<text x="101.93" y="41.94">+</text>
<text x="322.39" y="288.79">+</text>
<text x="487.82" y="403.61">+</text>
<text x="97.47" y="484.26">.</text>
<text x="384.00" y="91.99">.</text>
<text x="105.78" y="321.69">.</text>
<text x="269.87" y="336.45">*</text>
<text x="315.36" y="81.79">+</text>
<text x="341.66" y="498.29">+</text>
<text x="44.48" y="250.39">.</text>
<text x="369.97" y="86.49">.</text>
<text x="302.00" y="6.66">+</text>
<text x="372.90" y="427.32">.</text>
<text x="187.91" y="339.14">+</text>
<text x="455.86" y="83.07">+</text>
<text x="481.50" y="37.24">.</text>
<text x="338.66" y="306.41">*</text>
<text x="462.20" y="325.05">*</text>
<text x="244.26" y="295.14">.</text>
<text x="329.56" y="79.01">.</text>
<text x="2.35" y="363.72">+</text>
<text x="467.62" y="185.61">+</text>
<text x="431.52" y="250.46">+</text>
<text x="137.05" y="327.72">.</text>
<text x="243.77" y="165.05">.</text>
<text x="475.84" y="120.55">+</text>
<text x="468.16" y="393.50">+</text>
<text x="239.88" y="61.90">.</text>
<text x="135.70" y="12.09">+</text>
<text x="9.35" y="421.87">.</text>
<text x="201.21" y="382.75">*</text>
<text x="113.50" y="312.88">+</text>
<text x="149.10" y="246.41">+</text>
<text x="469.45" y="177.05">.</text>
<text x="56.80" y="281.41">+</text>
<text x="480.31" y="398.08">.</text>
<text x="291.38" y="473.27">+</text>
<text x="228.22" y="347.01">.</text>
<text x="189.25" y="381.78">.</text>
<text x="24.62" y="495.22">.</text>
<text x="153.55" y="228.23">+</text>
<text x="346.84" y="192.79">.</text>
<text x="198.09" y="206.21">+</text>
<text x="474.16" y="34.52">+</text>
<text x="221.75" y="307.19">+</text>
<text x="374.48" y="212.98">.</text>
<text x="221.69" y="302.78">+</text>
<text x="341.86" y="224.31">+</text>
<text x="256.27" y="335.18">+</text>
<text x="325.56" y="206.13">+</text>
<text x="145.91" y="280.49">*</text>
<text x="488.03" y="103.47">*</text>
<text x="402.99" y="54.14">+</text>
<text x="75.25" y="137.52">+</text>
<text x="368.19" y="206.98">.</text>
<text x="51.55" y="30.78">.</text>
<text x="379.62" y="450.22">.</text>
<text x="84.11" y="416.60">+</text>
<text x="382.71" y="111.00">.</text>

</svg>