
<svg viewBox="0 0 500 500" xmlns="http://www.w.org/2000/svg" width="100%" height="100%" style="background-color: #0a0a14; font-family: 'Courier New', Courier, monospace;">
    <style>
        text { fill: #aaa; font-size: 10px; text-anchor: middle; dominant-baseline: middle; }
    </style>
    <text x="327.53" y="285.90">+</text>
<text x="395.72" y="212.94">+</text>
<text x="446.64" y="468.42">.</text>
<text x="310.31" y="9.47">.</text>
<text x="232.59" y="369.53">.</text>
<text x="173.51" y="234.96">.</text>
<text x="165.05" y="163.45">+</text>
<text x="183.36" y="386.32">*</text>
<text x="304.35" y="426.26">.</text>
<text x="36.07" y="355.40">.</text>
<text x="405.34" y="436.73">.</text>
<text x="56.06" y="378.82">.</text>
<text x="254.49" y="292.61">.</text>
<text x="432.30" y="10.79">*</text>
<text x="62.65" y="34.49">*</text>
<text x="38.35" y="490.63">+</text>
<text x="240.22" y="496.75">.</text>
<text x="230.65" y="474.15">*</text>
<text x="444.78" y="172.83">.</text>
<text x="471.88" y="410.29">+</text>
<text x="496.79" y="116.52">*</text>
<text x="461.81" y="33.89">.</text>
<text x="95.31" y="177.83">+</text>
<text x="19.67" y="244.05">+</text>
<text x="305.45" y="397.78">+</text>
<text x="345.17" y="97.47">*</text>
<text x="450.75" y="188.85">+</text>
<text x="493.70" y="449.51">.</text>
<text x="364.69" y="12.63">+</text>
<text x="448.79" y="401.83">+</text>
<text x="240.01" y="108.50">.</text>
<text x="403.41" y="397.12">.</text>
<text x="250.93" y="158.74">.</text>
<text x="339.43" y="231.73">+</text>
<text x="325.74" y="175.79">.</text>
<text x="493.18" y="402.18">+</text>
<text x="241.32" y="154.63">.</text>
<text x="377.16" y="457.92">+</text>
<text x="126.98" y="108.12">.</text>
<text x="269.01" y="393.43">+</text>
<text x="106.24" y="167.83">.</text>
<text x="217.40" y="430.52">.</text>
<text x="67.34" y="274.32">*</text>
<text x="283.31" y="277.54">+</text>
<text x="464.89" y="138.78">+</text>
<text x="15.10" y="60.69">.</text>
<text x="110.04" y="408.69">*</text>
<text x="484.22" y="461.93">+</text>
<text x="132.15" y="237.28">+</text>
<text x="206.63" y="268.73">+</text>
<text x="449.17" y="90.02">.</text>
<text x="113.81" y="466.67">+</text>
<text x="166.73" y="395.22">+</text>
<text x="129.36" y="207.94">.</text>
<text x="47.22" y="352.94">.</text>
<text x="91.65" y="307.07">+</text>
<text x="26.93" y="285.51">*</text>
<text x="397.95" y="32.43">+</text>
<text x="119.82" y="381.93">.</text>
<text x="98.45" y="414.76">.</text>
<text x="312.38" y="223.26">*</text>
<text x="447.20" y="263.20">.</text>
<text x="163.97" y="235.79">.</text>
<text x="465.78" y="332.71">+</text>
<text x="363.11" y="212.15">.</text>
<text x="42.87" y="441.45">.</text>
<text x="395.69" y="46.60">.</text>
<text x="149.65" y="313.73">+</text>
<text x="181.80" y="347.42">+</text>
<text x="127.29" y="469.03">+</text>
<text x="327.56" y="227.71">.</text>
<text x="248.31" y="383.07">.</text>
<text x="186.85" y="182.97">.</text>
<text x="235.56" y="408.95">+</text>
<text x="327.11" y="18.30">.</text>
<text x="309.11" y="209.56">+</text>
<text x="109.04" y="449.80">+</text>
<text x="237.23" y="399.25">+</text>
<text x="174.97" y="233.98">.</text>
<text x="71.71" y="290.68">+</text>
<text x="488.86" y="223.08">.</text>
<text x="15.57" y="172.92">.</text>
<text x="147.20" y="255.33">.</text>
<text x="283.50" y="203.31">*</text>
<text x="419.34" y="199.69">.</text>
<text x="88.68" y="147.48">+</text>
<text x="447.20" y="494.10">+</text>
<text x="241.47" y="296.56">+</text>
<text x="127.05" y="116.93">.</text>
<text x="425.88" y="437.82">*</text>
<text x="392.99" y="427.75">*</text>
<text x="93.59" y="164.86">.</text>
<text x="479.51" y="266.74">+</text>
<text x="402.70" y="338.56">+</text>
<text x="320.06" y="150.51">+</text>
<text x="206.84" y="441.20">.</text>
<text x="66.68" y="371.32">.</text>
<text x="114.74" y="227.75">*</text>
<text x="440.80" y="478.00">+</text>
<text x="477.66" y="369.29">.</text>
<text x="301.52" y="312.79">*</text>
<text x="16.76" y="56.40">+</text>
<text x="224.95" y="136.47">+</text>
<text x="33.08" y="277.66">+</text>
<text x="142.12" y="27.75">.</text>
<text x="327.64" y="395.10">+</text>
<text x="336.84" y="363.36">+</text>
<text x="200.80" y="417.10">.</text>
<text x="240.44" y="331.65">+</text>
<text x="448.80" y="109.98">.</text>
<text x="491.47" y="346.29">+</text>
<text x="201.57" y="25.02">+</text>
<text x="496.51" y="231.01">.</text>
<text x="245.58" y="334.72">+</text>
<text x="321.93" y="149.01">+</text>
<text x="86.36" y="109.18">+</text>
<text x="46.17" y="248.92">.</text>
<text x="368.40" y="272.60">*</text>
<text x="339.10" y="439.33">+</text>
<text x="121.16" y="199.49">.</text>
<text x="409.34" y="450.23">.</text>
<text x="307.91" y="205.38">+</text>
<text x="316.53" y="39.02">+</text>
<text x="141.10" y="384.36">+</text>
<text x="217.96" y="254.98">*</text>
<text x="153.43" y="467.90">.</text>
<text x="246.58" y="457.66">+</text>
<text x="144.43" y="102.44">.</text>
<text x="303.93" y="187.12">+</text>
<text x="292.14" y="2.37">*</text>
<text x="349.87" y="480.70">+</text>
<text x="110.98" y="286.55">.</text>
<text x="267.02" y="208.17">+</text>
<text x="248.36" y="85.94">.</text>
<text x="460.76" y="347.95">.</text>
<text x="292.33" y="164.04">.</text>
<text x="386.45" y="107.78">.</text>
<text x="454.38" y="136.90">.</text>
<text x="64.70" y="44.34">.</text>
<text x="468.48" y="70.66">+</text>
<text x="251.17" y="343.23">.</text>
<text x="426.77" y="461.12">.</text>
<text x="101.97" y="124.42">.</text>
<text x="235.78" y="265.84">+</text>
<text x="97.35" y="97.91">.</text>
<text x="456.49" y="92.06">.</text>
<text x="102.32" y="119.52">*</text>
<text x="138.01" y="255.76">+</text>
<text x="238.36" y="188.33">.</text>
<text x="77.81" y="427.56">+</text>
<text x="239.69" y="211.97">.</text>
<text x="342.56" y="458.00">.</text>
<text x="73.39" y="492.06">.</text>
<text x="7.51" y="335.97">.</text>
<text x="20.01" y="273.48">*</text>
<text x="78.47" y="190.45">.</text>
<text x="297.77" y="326.35">.</text>
<text x="245.93" y="51.90">+</text>
<text x="239.03" y="341.25">+</text>
<text x="184.34" y="130.73">*</text>
<text x="430.60" y="333.68">.</text>
<text x="14.54" y="273.74">+</text>
<text x="198.08" y="22.23">+</text>
<text x="210.26" y="42.64">.</text>
<text x="74.67" y="371.33">+</text>
<text x="242.30" y="52.82">+</text>
<text x="5.10" y="23.55">*</text>
<text x="285.43" y="179.10">+</text>
<text x="41.09" y="139.95">.</text>
<text x="455.03" y="498.07">.</text>
<text x="23.33" y="340.43">.</text>
<text x="67.55" y="133.39">.</text>
<text x="185.01" y="235.40">.</text>
<text x="126.03" y="33.38">.</text>
<text x="12.70" y="202.08">+</text>
<text x="274.67" y="404.30">+</text>
<text x="49.60" y="391.51">.</text>
<text x="259.42" y="67.16">+</text>
<text x="109.86" y="385.27">.</text>
<text x="482.14" y="197.17">.</text>
<text x="4.78" y="76.23">.</text>
<text x="154.39" y="284.25">.</text>
<text x="40.62" y="74.28">*</text>
<text x="61.06" y="290.53">.</text>
<text x="147.53" y="71.02">.</text>
<text x="365.36" y="329.39">+</text>
<text x="185.92" y="472.19">.</text>
<text x="482.59" y="99.32">.</text>
<text x="184.63" y="447.14">.</text>
<text x="235.14" y="282.16">.</text>
<text x="246.06" y="147.12">+</text>
<text x="375.27" y="441.00">.</text>
<text x="126.95" y="435.01">.</text>
<text x="132.05" y="226.90">*</text>
<text x="396.16" y="14.35">+</text>
<text x="152.80" y="144.57">.</text>
<text x="455.98" y="293.75">+</text>
<text x="446.32" y="32.38">*</text>
<text x="58.89" y="286.52">*</text>
<text x="249.75" y="387.07">*</text>
<text x="162.11" y="93.69">.</text>
<text x="498.38" y="58.31">+</text>
<text x="238.03" y="469.28">.</text>
<text x="206.38" y="231.03">.</text>
<text x="218.79" y="143.61">.</text>
<text x="444.16" y="198.32">.</text>
<text x="115.25" y="435.16">*</text>
<text x="179.18" y="169.29">+</text>
<text x="484.49" y="460.80">.</text>
<text x="287.05" y="205.37">*</text>
<text x="245.11" y="95.26">+</text>
<text x="32.94" y="95.65">*</text>
<text x="136.76" y="210.48">+</text>
<text x="181.48" y="390.16">.</text>
<text x="165.06" y="279.72">+</text>

</svg>