
<svg viewBox="0 0 500 500" xmlns="http://www.w.org/2000/svg" width="100%" height="100%" style="background-color: #0a0a14; font-family: 'Courier New', Courier, monospace;">
    <style>
        text { fill: #aaa; font-size: 10px; text-anchor: middle; dominant-baseline: middle; }
    </style>
    <text x="433.29" y="374.64">+</text>
<text x="117.59" y="164.19">.</text>
<text x="229.84" y="72.89">.</text>
<text x="274.08" y="6.74">+</text>
<text x="481.32" y="15.34">+</text>
<text x="322.91" y="119.19">.</text>
<text x="453.10" y="352.52">+</text>
<text x="120.67" y="373.48">.</text>
<text x="13.22" y="481.01">+</text>
<text x="427.35" y="101.71">+</text>
<text x="323.78" y="86.83">.</text>
<text x="491.12" y="28.32">.</text>
<text x="127.35" y="144.85">.</text>
<text x="497.84" y="420.98">.</text>
<text x="107.82" y="399.62">.</text>
<text x="244.78" y="461.17">+</text>
<text x="146.93" y="461.16">+</text>
<text x="471.76" y="431.45">+</text>
<text x="200.14" y="476.23">.</text>
<text x="126.05" y="127.45">.</text>
<text x="210.65" y="49.39">+</text>
<text x="205.39" y="389.75">.</text>
<text x="133.92" y="407.84">+</text>
<text x="452.98" y="354.09">+</text>
<text x="269.92" y="195.08">+</text>
<text x="6.96" y="235.99">+</text>
<text x="401.61" y="72.92">.</text>
<text x="326.78" y="267.82">+</text>
<text x="366.24" y="166.07">.</text>
<text x="187.34" y="380.21">+</text>
<text x="204.28" y="138.99">*</text>
<text x="7.08" y="248.75">.</text>
<text x="383.05" y="326.09">+</text>
<text x="369.79" y="9.63">+</text>
<text x="108.54" y="378.41">.</text>
<text x="273.89" y="130.95">+</text>
<text x="61.50" y="291.99">+</text>
<text x="82.26" y="214.31">+</text>
<text x="460.30" y="34.01">+</text>
<text x="490.39" y="30.00">.</text>
<text x="177.91" y="151.14">+</text>
<text x="303.40" y="133.51">.</text>
<text x="223.31" y="214.92">+</text>
<text x="218.05" y="319.87">.</text>
<text x="398.58" y="497.46">+</text>
<text x="415.90" y="328.59">.</text>
<text x="461.54" y="12.21">.</text>
<text x="482.94" y="470.45">.</text>
<text x="494.20" y="16.32">+</text>
<text x="240.13" y="353.07">.</text>
<text x="150.41" y="236.00">+</text>
<text x="266.87" y="326.50">.</text>
<text x="262.47" y="331.12">+</text>
<text x="294.97" y="234.80">*</text>
<text x="189.64" y="104.12">+</text>
<text x="133.59" y="88.04">+</text>
<text x="153.71" y="202.34">+</text>
<text x="451.87" y="430.22">.</text>
<text x="347.26" y="181.69">.</text>
<text x="285.63" y="442.20">+</text>
<text x="428.91" y="451.63">+</text>
<text x="131.02" y="326.18">+</text>
<text x="25.80" y="497.68">+</text>
<text x="147.03" y="449.82">.</text>
<text x="449.66" y="148.73">+</text>
<text x="89.23" y="391.48">+</text>
<text x="125.26" y="117.20">.</text>
<text x="75.36" y="483.20">+</text>
<text x="16.14" y="415.55">+</text>
<text x="467.85" y="291.82">+</text>
<text x="258.32" y="163.48">.</text>
<text x="469.38" y="430.39">.</text>
<text x="454.11" y="154.10">.</text>
<text x="61.70" y="377.64">+</text>
<text x="281.47" y="138.44">.</text>
<text x="352.61" y="398.26">+</text>
<text x="406.40" y="379.55">.</text>
<text x="434.62" y="251.55">+</text>
<text x="443.16" y="436.17">.</text>
<text x="469.59" y="84.60">.</text>
<text x="64.38" y="284.73">.</text>
<text x="127.04" y="289.70">+</text>
<text x="88.33" y="76.66">.</text>
<text x="267.17" y="188.35">.</text>
<text x="463.40" y="340.98">.</text>
<text x="497.37" y="131.70">+</text>
<text x="252.82" y="1.10">+</text>
<text x="288.23" y="151.13">+</text>
<text x="403.66" y="308.34">+</text>
<text x="355.18" y="461.15">+</text>
<text x="381.35" y="258.40">+</text>
<text x="62.54" y="188.39">+</text>
<text x="245.88" y="390.79">+</text>
<text x="290.65" y="406.01">.</text>
<text x="168.79" y="76.05">.</text>
<text x="21.24" y="282.92">+</text>
<text x="130.68" y="269.50">.</text>
<text x="42.09" y="467.11">.</text>
<text x="382.00" y="171.01">*</text>
<text x="300.70" y="228.19">*</text>
<text x="220.75" y="301.66">*</text>
<text x="434.48" y="51.76">.</text>
<text x="114.80" y="300.98">.</text>
<text x="499.53" y="244.63">+</text>
<text x="205.97" y="203.60">.</text>
<text x="246.23" y="422.87">+</text>
<text x="362.33" y="105.36">*</text>
<text x="169.82" y="90.58">*</text>
<text x="431.48" y="127.85">.</text>
<text x="382.14" y="456.81">.</text>
<text x="165.28" y="111.13">+</text>
<text x="231.25" y="394.05">*</text>
<text x="245.59" y="127.83">+</text>
<text x="483.19" y="337.18">+</text>
<text x="400.94" y="172.45">.</text>
<text x="96.32" y="16.23">.</text>
<text x="299.89" y="62.97">.</text>
<text x="114.90" y="317.16">.</text>
<text x="388.66" y="48.90">+</text>
<text x="100.37" y="45.97">.</text>
<text x="111.64" y="277.31">.</text>
<text x="240.67" y="385.97">+</text>
<text x="226.13" y="421.98">+</text>
<text x="166.91" y="197.46">+</text>
<text x="341.69" y="484.64">+</text>
<text x="432.34" y="191.09">*</text>
<text x="124.65" y="492.84">+</text>
<text x="293.74" y="117.46">.</text>
<text x="30.79" y="29.56">.</text>
<text x="125.81" y="407.36">*</text>
<text x="261.04" y="356.32">+</text>
<text x="141.40" y="293.02">.</text>
<text x="16.45" y="384.22">.</text>
<text x="291.73" y="201.84">.</text>
<text x="266.42" y="167.11">.</text>
<text x="335.48" y="322.15">.</text>
<text x="98.65" y="30.30">+</text>
<text x="359.08" y="472.17">+</text>
<text x="250.03" y="118.53">.</text>
<text x="437.30" y="82.49">*</text>
<text x="264.40" y="139.83">.</text>
<text x="442.41" y="165.12">.</text>
<text x="455.07" y="373.22">+</text>
<text x="499.54" y="310.08">*</text>
<text x="244.38" y="45.24">.</text>
<text x="260.96" y="268.19">*</text>
<text x="202.15" y="78.06">.</text>
<text x="76.79" y="443.11">+</text>
<text x="31.52" y="197.95">.</text>
<text x="106.82" y="211.03">.</text>
<text x="210.03" y="15.96">+</text>
<text x="475.31" y="28.26">+</text>
<text x="224.78" y="221.78">+</text>
<text x="443.44" y="247.89">.</text>
<text x="196.52" y="108.42">*</text>
<text x="470.79" y="33.04">*</text>
<text x="445.99" y="273.32">.</text>
<text x="30.64" y="253.30">.</text>
<text x="409.39" y="163.07">*</text>
<text x="200.68" y="498.45">*</text>
<text x="315.44" y="299.91">+</text>
<text x="76.40" y="377.78">+</text>
<text x="180.41" y="13.13">*</text>
<text x="271.94" y="305.99">+</text>
<text x="216.29" y="136.91">.</text>
<text x="407.53" y="118.88">.</text>
<text x="328.08" y="371.80">+</text>
<text x="485.73" y="363.13">*</text>
<text x="108.32" y="133.83">.</text>
<text x="105.94" y="236.68">.</text>
<text x="48.63" y="465.81">+</text>
<text x="200.09" y="173.43">+</text>
<text x="27.07" y="345.26">+</text>
<text x="466.81" y="104.92">.</text>
<text x="84.88" y="378.82">+</text>
<text x="248.61" y="16.44">.</text>
<text x="357.37" y="315.27">.</text>
<text x="288.25" y="131.72">*</text>
<text x="186.73" y="78.39">.</text>
<text x="34.42" y="364.01">.</text>
<text x="217.73" y="386.61">*</text>
<text x="236.25" y="498.66">*</text>
<text x="371.95" y="277.24">.</text>
<text x="233.84" y="174.01">.</text>
<text x="136.48" y="385.67">.</text>
<text x="304.25" y="113.94">.</text>
<text x="267.47" y="241.91">+</text>
<text x="162.17" y="398.54">+</text>
<text x="11.92" y="299.97">+</text>
<text x="381.36" y="235.13">.</text>
<text x="333.78" y="194.12">*</text>
<text x="405.92" y="5.61">.</text>
<text x="410.38" y="66.68">+</text>
<text x="77.87" y="281.65">.</text>
<text x="457.93" y="20.48">*</text>
<text x="330.26" y="268.30">.</text>
<text x="410.30" y="181.47">*</text>
<text x="64.98" y="181.16">.</text>
<text x="92.31" y="222.54">+</text>
<text x="212.06" y="34.89">+</text>
<text x="246.29" y="495.92">.</text>
<text x="158.12" y="38.47">.</text>
<text x="290.57" y="81.64">.</text>
<text x="116.10" y="193.67">.</text>
<text x="145.08" y="95.03">+</text>
<text x="150.95" y="180.25">.</text>
<text x="320.61" y="479.56">+</text>
<text x="290.88" y="163.60">.</text>
<text x="235.50" y="196.03">+</text>

</svg>