
<svg viewBox="0 0 500 500" xmlns="http://www.w.org/2000/svg" width="100%" height="100%" style="background-color: #0a0a14; font-family: 'Courier New', Courier, monospace;">
    <style>
        text { fill: #aaa; font-size: 10px; text-anchor: middle; dominant-baseline: middle; }
    </style>
    <text x="295.52" y="158.53">+</text>
<text x="389.70" y="382.68">.</text>
<text x="92.30" y="339.55">+</text>
<text x="397.47" y="295.56">+</text>
<text x="85.20" y="399.34">.</text>
<text x="421.80" y="210.25">.</text>
<text x="329.49" y="326.24">+</text>
<text x="317.01" y="192.79">+</text>
<text x="163.58" y="185.52">.</text>
<text x="308.83" y="52.25">.</text>
<text x="435.61" y="390.17">.</text>
<text x="28.94" y="442.26">*</text>
<text x="462.62" y="36.28">*</text>
<text x="257.67" y="425.29">+</text>
<text x="150.86" y="168.86">+</text>
<text x="259.69" y="215.70">.</text>
<text x="410.48" y="395.57">*</text>
<text x="372.76" y="228.80">.</text>
<text x="144.97" y="450.83">.</text>
<text x="0.12" y="116.43">*</text>
<text x="276.80" y="25.40">+</text>
<text x="158.84" y="73.08">.</text>
<text x="263.97" y="366.68">*</text>
<text x="298.39" y="482.08">+</text>
<text x="59.60" y="372.50">.</text>
<text x="78.77" y="291.47">.</text>
<text x="192.29" y="228.23">.</text>
<text x="298.06" y="464.63">+</text>
<text x="218.44" y="87.11">*</text>
<text x="473.85" y="188.05">.</text>
<text x="202.89" y="173.38">.</text>
<text x="463.85" y="145.08">+</text>
<text x="195.55" y="338.88">+</text>
<text x="189.47" y="258.99">+</text>
<text x="494.53" y="170.94">*</text>
<text x="45.07" y="231.46">.</text>
<text x="452.47" y="464.41">+</text>
<text x="382.28" y="451.22">+</text>
<text x="300.29" y="219.01">*</text>
<text x="27.45" y="341.65">+</text>
<text x="278.26" y="192.34">+</text>
<text x="72.60" y="329.62">.</text>
<text x="433.11" y="435.24">+</text>
<text x="3.72" y="338.95">+</text>
<text x="231.04" y="199.49">.</text>
<text x="7.42" y="451.48">.</text>
<text x="139.47" y="14.48">.</text>
<text x="264.99" y="208.97">.</text>
<text x="225.26" y="185.29">.</text>
<text x="482.81" y="478.17">+</text>
<text x="163.28" y="144.36">*</text>
<text x="226.89" y="442.53">*</text>
<text x="433.69" y="323.48">.</text>
<text x="390.64" y="329.43">.</text>
<text x="332.95" y="25.32">.</text>
<text x="191.09" y="244.78">*</text>
<text x="457.15" y="348.00">.</text>
<text x="341.31" y="435.16">+</text>
<text x="162.54" y="287.31">+</text>
<text x="63.76" y="187.30">.</text>
<text x="458.62" y="411.82">.</text>
<text x="197.79" y="461.11">.</text>
<text x="456.31" y="308.21">*</text>
<text x="233.55" y="205.22">.</text>
<text x="270.62" y="213.68">.</text>
<text x="13.26" y="404.94">+</text>
<text x="150.36" y="161.93">+</text>
<text x="235.71" y="101.16">+</text>
<text x="54.19" y="461.92">.</text>
<text x="348.49" y="42.84">+</text>
<text x="69.04" y="68.33">*</text>
<text x="108.40" y="131.38">*</text>
<text x="247.08" y="69.00">+</text>
<text x="184.70" y="380.32">+</text>
<text x="83.87" y="254.60">.</text>
<text x="105.67" y="157.85">+</text>
<text x="38.78" y="318.84">+</text>
<text x="493.77" y="496.52">.</text>
<text x="174.01" y="87.60">+</text>
<text x="400.10" y="149.07">.</text>
<text x="414.58" y="289.45">+</text>
<text x="102.31" y="374.74">.</text>
<text x="275.01" y="307.82">.</text>
<text x="70.03" y="41.58">+</text>
<text x="186.56" y="239.77">.</text>
<text x="344.96" y="335.34">.</text>
<text x="163.14" y="423.50">*</text>
<text x="257.29" y="117.03">*</text>
<text x="415.50" y="434.69">.</text>
<text x="46.57" y="464.66">+</text>
<text x="44.71" y="19.16">+</text>
<text x="124.16" y="468.59">+</text>
<text x="451.75" y="61.60">+</text>
<text x="263.52" y="190.84">+</text>
<text x="150.25" y="251.50">+</text>
<text x="314.29" y="299.98">.</text>
<text x="220.33" y="374.94">.</text>
<text x="176.76" y="426.17">+</text>
<text x="477.43" y="461.26">.</text>
<text x="347.96" y="487.36">.</text>
<text x="182.89" y="233.30">+</text>
<text x="56.84" y="66.98">+</text>
<text x="448.76" y="491.25">+</text>
<text x="15.08" y="162.48">*</text>
<text x="14.82" y="346.32">.</text>
<text x="350.84" y="121.26">*</text>
<text x="450.17" y="147.70">+</text>
<text x="180.38" y="144.77">+</text>
<text x="407.72" y="243.97">*</text>
<text x="129.13" y="456.44">.</text>
<text x="308.64" y="146.35">+</text>
<text x="342.32" y="141.27">+</text>
<text x="315.78" y="446.15">+</text>
<text x="66.89" y="19.03">.</text>
<text x="277.37" y="411.80">.</text>
<text x="390.25" y="161.96">.</text>
<text x="481.61" y="136.66">*</text>
<text x="426.54" y="227.10">+</text>
<text x="350.83" y="306.68">.</text>
<text x="283.30" y="108.39">.</text>
<text x="55.61" y="201.76">+</text>
<text x="20.33" y="244.54">.</text>
<text x="483.86" y="189.44">+</text>
<text x="224.75" y="362.94">.</text>
<text x="334.69" y="72.23">*</text>
<text x="400.68" y="17.12">+</text>
<text x="125.61" y="365.10">.</text>
<text x="30.30" y="465.25">.</text>
<text x="171.65" y="122.03">.</text>
<text x="239.19" y="174.59">+</text>
<text x="292.59" y="110.95">+</text>
<text x="420.19" y="82.75">.</text>
<text x="195.83" y="220.53">+</text>
<text x="406.02" y="244.19">+</text>
<text x="57.63" y="119.11">.</text>
<text x="239.40" y="190.70">.</text>
<text x="11.60" y="487.93">.</text>
<text x="303.04" y="61.42">*</text>
<text x="494.07" y="431.27">+</text>
<text x="406.85" y="161.61">*</text>
<text x="400.57" y="190.79">.</text>
<text x="271.36" y="8.56">+</text>
<text x="358.76" y="467.04">.</text>
<text x="452.00" y="299.40">.</text>
<text x="45.87" y="216.88">+</text>
<text x="437.77" y="198.05">.</text>
<text x="440.05" y="280.91">+</text>
<text x="459.50" y="33.74">.</text>
<text x="383.59" y="243.43">.</text>
<text x="179.77" y="231.92">+</text>
<text x="294.80" y="8.09">+</text>
<text x="418.39" y="134.72">+</text>
<text x="449.76" y="403.44">+</text>
<text x="188.28" y="193.42">+</text>
<text x="445.48" y="241.39">.</text>
<text x="307.25" y="14.61">.</text>
<text x="21.11" y="226.11">*</text>
<text x="52.30" y="361.49">+</text>
<text x="316.65" y="453.44">+</text>
<text x="133.58" y="488.19">+</text>
<text x="373.60" y="191.25">+</text>
<text x="108.49" y="89.97">.</text>
<text x="80.75" y="197.50">+</text>
<text x="2.41" y="23.54">+</text>
<text x="172.98" y="73.26">+</text>
<text x="478.40" y="140.82">.</text>
<text x="31.12" y="179.35">+</text>
<text x="59.88" y="5.49">.</text>
<text x="369.76" y="19.12">+</text>
<text x="32.28" y="273.04">*</text>
<text x="162.04" y="404.94">.</text>
<text x="21.90" y="358.24">+</text>
<text x="60.30" y="366.70">+</text>
<text x="54.32" y="431.18">+</text>
<text x="309.00" y="200.01">+</text>
<text x="229.34" y="412.55">.</text>
<text x="70.02" y="457.08">.</text>
<text x="330.96" y="106.53">+</text>
<text x="492.77" y="425.02">+</text>
<text x="174.80" y="260.89">+</text>
<text x="237.70" y="312.33">+</text>
<text x="151.98" y="389.42">*</text>
<text x="316.55" y="62.18">*</text>
<text x="60.46" y="316.57">+</text>
<text x="56.86" y="360.47">.</text>
<text x="308.16" y="183.28">*</text>
<text x="397.01" y="63.91">.</text>
<text x="261.01" y="370.38">.</text>
<text x="162.59" y="209.90">+</text>
<text x="478.76" y="126.64">+</text>
<text x="290.85" y="320.71">*</text>
<text x="319.68" y="349.58">.</text>
<text x="78.89" y="122.00">+</text>
<text x="418.43" y="312.23">+</text>
<text x="96.58" y="289.94">.</text>
<text x="30.39" y="94.64">.</text>
<text x="22.65" y="309.50">+</text>
<text x="262.92" y="389.97">.</text>
<text x="251.01" y="358.36">+</text>
<text x="446.22" y="468.90">.</text>
<text x="124.72" y="345.82">+</text>
<text x="130.17" y="118.20">*</text>
<text x="282.60" y="440.00">.</text>
<text x="272.77" y="343.40">+</text>
<text x="427.33" y="79.50">+</text>
<text x="246.07" y="264.19">.</text>
<text x="458.71" y="328.67">.</text>
<text x="261.17" y="87.79">*</text>

</svg>