
<svg viewBox="0 0 500 500" xmlns="http://www.w.org/2000/svg" width="100%" height="100%" style="background-color: #0a0a14; font-family: 'Courier New', Courier, monospace;">
    <style>
        text { fill: #aaa; font-size: 10px; text-anchor: middle; dominant-baseline: middle; }
    </style>
    <text x="140.69" y="223.67">+</text>
<text x="18.83" y="309.49">+</text>
<text x="260.26" y="13.29">.</text>
<text x="170.50" y="384.96">.</text>
<text x="60.74" y="481.00">*</text>
<text x="209.99" y="287.62">+</text>
<text x="152.17" y="290.13">*</text>
<text x="288.37" y="423.33">+</text>
<text x="422.78" y="169.45">.</text>
<text x="361.02" y="33.44">.</text>
<text x="376.32" y="68.80">.</text>
<text x="453.71" y="260.15">*</text>
<text x="201.81" y="96.46">+</text>
<text x="221.14" y="424.19">+</text>
<text x="110.58" y="19.88">+</text>
<text x="354.94" y="250.46">*</text>
<text x="446.84" y="245.08">.</text>
<text x="330.43" y="383.97">.</text>
<text x="354.06" y="496.87">.</text>
<text x="450.65" y="405.79">*</text>
<text x="298.86" y="302.44">+</text>
<text x="166.60" y="93.37">.</text>
<text x="392.85" y="318.37">.</text>
<text x="484.19" y="405.71">.</text>
<text x="260.82" y="475.19">.</text>
<text x="220.31" y="281.15">+</text>
<text x="412.65" y="116.23">+</text>
<text x="230.16" y="242.47">+</text>
<text x="436.15" y="263.36">+</text>
<text x="375.64" y="127.17">+</text>
<text x="151.50" y="431.10">*</text>
<text x="352.27" y="111.50">+</text>
<text x="454.63" y="450.21">.</text>
<text x="348.15" y="83.65">.</text>
<text x="62.12" y="426.57">+</text>
<text x="96.28" y="74.88">+</text>
<text x="14.94" y="477.58">.</text>
<text x="166.25" y="152.43">*</text>
<text x="232.70" y="269.46">+</text>
<text x="319.39" y="346.58">+</text>
<text x="418.16" y="491.28">+</text>
<text x="468.44" y="492.90">.</text>
<text x="220.14" y="323.19">+</text>
<text x="130.76" y="206.92">.</text>
<text x="199.15" y="296.07">+</text>
<text x="111.44" y="380.80">*</text>
<text x="300.11" y="175.70">.</text>
<text x="499.85" y="375.10">+</text>
<text x="110.51" y="166.38">+</text>
<text x="207.01" y="155.95">.</text>
<text x="420.74" y="377.80">+</text>
<text x="395.76" y="426.36">.</text>
<text x="306.98" y="256.89">.</text>
<text x="132.56" y="63.07">+</text>
<text x="126.14" y="300.14">.</text>
<text x="452.41" y="226.93">+</text>
<text x="130.39" y="78.97">.</text>
<text x="303.85" y="471.05">.</text>
<text x="494.86" y="251.78">.</text>
<text x="140.86" y="310.72">+</text>
<text x="9.48" y="301.75">+</text>
<text x="314.08" y="33.82">+</text>
<text x="205.79" y="234.15">+</text>
<text x="248.00" y="258.06">.</text>
<text x="206.38" y="494.91">.</text>
<text x="208.61" y="245.32">+</text>
<text x="49.35" y="405.92">.</text>
<text x="301.66" y="306.10">.</text>
<text x="24.87" y="374.06">.</text>
<text x="377.76" y="361.70">+</text>
<text x="384.68" y="116.77">.</text>
<text x="358.05" y="348.39">.</text>
<text x="347.50" y="445.09">.</text>
<text x="71.48" y="385.31">.</text>
<text x="235.34" y="462.18">*</text>
<text x="165.01" y="335.80">.</text>
<text x="421.62" y="197.23">+</text>
<text x="179.81" y="69.61">+</text>
<text x="371.09" y="8.11">.</text>
<text x="337.29" y="119.26">.</text>
<text x="393.87" y="488.87">+</text>
<text x="423.95" y="378.95">*</text>
<text x="216.10" y="466.93">+</text>
<text x="378.67" y="53.98">+</text>
<text x="70.07" y="298.02">.</text>
<text x="352.74" y="290.31">+</text>
<text x="12.79" y="95.70">+</text>
<text x="114.24" y="381.80">+</text>
<text x="481.04" y="458.72">*</text>
<text x="432.12" y="99.02">.</text>
<text x="489.05" y="257.28">*</text>
<text x="435.90" y="251.16">.</text>
<text x="121.47" y="429.63">.</text>
<text x="89.07" y="310.79">+</text>
<text x="203.25" y="172.16">+</text>
<text x="208.65" y="402.49">.</text>
<text x="292.16" y="194.55">+</text>
<text x="216.12" y="316.06">+</text>
<text x="264.78" y="313.31">.</text>
<text x="191.67" y="61.21">+</text>
<text x="87.89" y="92.52">.</text>
<text x="335.02" y="483.30">.</text>
<text x="35.09" y="404.86">+</text>
<text x="278.17" y="88.99">+</text>
<text x="445.33" y="358.13">.</text>
<text x="284.04" y="473.02">.</text>
<text x="394.08" y="362.66">.</text>
<text x="124.23" y="466.60">.</text>
<text x="287.43" y="332.85">+</text>
<text x="273.30" y="331.72">.</text>
<text x="318.22" y="34.06">.</text>
<text x="66.43" y="26.28">+</text>
<text x="182.14" y="497.22">+</text>
<text x="421.76" y="118.37">+</text>
<text x="156.92" y="336.59">+</text>
<text x="274.25" y="341.83">.</text>
<text x="474.43" y="429.02">*</text>
<text x="484.60" y="375.43">+</text>
<text x="481.19" y="196.67">.</text>
<text x="301.93" y="487.96">*</text>
<text x="12.81" y="279.86">.</text>
<text x="401.86" y="91.95">+</text>
<text x="444.58" y="264.51">.</text>
<text x="141.30" y="495.62">.</text>
<text x="315.95" y="174.54">.</text>
<text x="14.35" y="203.93">.</text>
<text x="386.04" y="454.90">+</text>
<text x="125.05" y="480.82">+</text>
<text x="74.35" y="470.70">+</text>
<text x="101.77" y="192.52">+</text>
<text x="207.20" y="85.68">*</text>
<text x="277.16" y="30.94">+</text>
<text x="134.06" y="426.97">+</text>
<text x="456.55" y="198.14">.</text>
<text x="462.05" y="473.77">+</text>
<text x="285.97" y="2.90">*</text>
<text x="306.12" y="431.07">.</text>
<text x="249.42" y="393.30">+</text>
<text x="179.18" y="50.75">*</text>
<text x="373.84" y="125.30">.</text>
<text x="347.35" y="12.59">.</text>
<text x="263.23" y="354.97">+</text>
<text x="340.42" y="390.76">.</text>
<text x="357.92" y="445.92">.</text>
<text x="103.59" y="431.49">+</text>
<text x="93.62" y="95.20">.</text>
<text x="315.45" y="87.54">*</text>
<text x="312.71" y="72.67">.</text>
<text x="393.06" y="247.20">.</text>
<text x="52.97" y="396.02">.</text>
<text x="361.63" y="483.71">.</text>
<text x="210.74" y="147.73">.</text>
<text x="44.79" y="343.04">+</text>
<text x="461.48" y="164.42">+</text>
<text x="16.56" y="144.51">.</text>
<text x="119.84" y="23.19">.</text>
<text x="191.31" y="71.57">+</text>
<text x="273.40" y="90.20">*</text>
<text x="447.43" y="117.21">*</text>
<text x="56.87" y="465.58">*</text>
<text x="486.53" y="302.79">+</text>
<text x="429.42" y="292.38">+</text>
<text x="107.08" y="271.48">+</text>
<text x="447.32" y="404.09">.</text>
<text x="140.04" y="390.03">+</text>
<text x="339.57" y="430.52">.</text>
<text x="452.03" y="231.62">.</text>
<text x="101.59" y="144.32">+</text>
<text x="292.25" y="320.84">.</text>
<text x="448.33" y="174.04">.</text>
<text x="458.51" y="384.92">+</text>
<text x="395.26" y="400.70">.</text>
<text x="73.88" y="420.41">*</text>
<text x="396.73" y="492.93">+</text>
<text x="401.91" y="484.80">.</text>
<text x="344.10" y="60.99">.</text>
<text x="489.29" y="82.72">.</text>
<text x="477.20" y="493.27">.</text>
<text x="444.99" y="142.10">+</text>
<text x="118.00" y="34.13">+</text>
<text x="28.74" y="426.31">+</text>
<text x="450.78" y="232.35">.</text>
<text x="420.88" y="108.72">*</text>
<text x="394.87" y="432.77">+</text>
<text x="184.70" y="238.60">+</text>
<text x="201.24" y="450.86">+</text>
<text x="259.39" y="147.15">.</text>
<text x="189.31" y="85.24">.</text>
<text x="354.21" y="477.94">.</text>
<text x="208.48" y="469.82">+</text>
<text x="415.53" y="34.77">+</text>
<text x="98.82" y="401.25">.</text>
<text x="455.10" y="379.98">.</text>
<text x="15.82" y="126.85">+</text>
<text x="167.58" y="136.14">.</text>
<text x="262.29" y="283.60">+</text>
<text x="346.94" y="316.97">+</text>
<text x="128.46" y="247.52">*</text>
<text x="311.28" y="66.13">.</text>
<text x="90.11" y="492.54">+</text>
<text x="282.45" y="162.40">+</text>
<text x="278.07" y="161.85">+</text>
<text x="299.52" y="259.08">.</text>
<text x="277.63" y="91.94">.</text>
<text x="374.66" y="146.43">+</text>
<text x="492.55" y="175.73">*</text>
<text x="104.17" y="407.85">+</text>
<text x="241.87" y="446.12">.</text>
<text x="472.85" y="294.28">*</text>
<text x="170.71" y="183.64">.</text>
<text x="35.75" y="213.96">+</text>
<text x="126.51" y="309.47">.</text>

</svg>