
<svg viewBox="0 0 500 500" xmlns="http://www.w.org/2000/svg" width="100%" height="100%" style="background-color: #0a0a14; font-family: 'Courier New', Courier, monospace;">
    <style>
        text { fill: #aaa; font-size: 10px; text-anchor: middle; dominant-baseline: middle; }
    </style>
    <text x="118.90" y="271.20">+</text>
<text x="353.30" y="202.47">*</text>
<text x="44.02" y="71.49">+</text>
<text x="448.75" y="113.80">.</text>
<text x="475.02" y="377.46">+</text>
<text x="5.57" y="2.11">.</text>
<text x="358.19" y="301.62">+</text>
<text x="323.31" y="457.21">*</text>
<text x="153.49" y="413.52">.</text>
<text x="333.97" y="29.22">+</text>
<text x="417.32" y="425.16">.</text>
<text x="312.83" y="147.15">+</text>
<text x="100.35" y="80.82">.</text>
<text x="488.30" y="187.73">+</text>
<text x="76.66" y="357.42">.</text>
<text x="454.79" y="117.33">.</text>
<text x="391.71" y="489.95">+</text>
<text x="73.11" y="74.92">.</text>
<text x="470.55" y="456.96">+</text>
<text x="388.14" y="279.24">+</text>
<text x="43.37" y="347.77">.</text>
<text x="465.93" y="335.56">.</text>
<text x="481.89" y="16.57">+</text>
<text x="432.44" y="374.38">+</text>
<text x="445.83" y="235.07">+</text>
<text x="83.50" y="271.79">.</text>
<text x="214.52" y="212.01">.</text>
<text x="209.18" y="299.26">+</text>
<text x="240.75" y="415.90">+</text>
<text x="51.70" y="322.86">+</text>
<text x="116.33" y="457.19">+</text>
<text x="34.63" y="218.79">+</text>
<text x="15.40" y="6.28">.</text>
<text x="48.48" y="352.37">+</text>
<text x="425.75" y="109.20">+</text>
<text x="219.90" y="260.36">.</text>
<text x="301.17" y="416.90">.</text>
<text x="464.00" y="215.13">.</text>
<text x="213.86" y="231.90">.</text>
<text x="38.03" y="301.41">.</text>
<text x="167.72" y="305.19">+</text>
<text x="464.05" y="296.52">+</text>
<text x="238.12" y="472.95">+</text>
<text x="182.28" y="30.11">+</text>
<text x="176.62" y="421.04">+</text>
<text x="280.14" y="315.32">.</text>
<text x="383.88" y="248.67">+</text>
<text x="204.78" y="159.69">+</text>
<text x="373.39" y="78.81">.</text>
<text x="356.20" y="35.78">+</text>
<text x="223.49" y="184.59">+</text>
<text x="50.62" y="485.32">.</text>
<text x="215.44" y="29.35">.</text>
<text x="355.78" y="397.95">.</text>
<text x="398.44" y="394.59">+</text>
<text x="401.63" y="214.70">+</text>
<text x="95.03" y="460.04">.</text>
<text x="271.26" y="443.62">.</text>
<text x="347.01" y="126.02">+</text>
<text x="130.47" y="135.86">*</text>
<text x="209.01" y="75.27">*</text>
<text x="67.32" y="35.99">+</text>
<text x="451.22" y="117.31">.</text>
<text x="142.81" y="480.41">+</text>
<text x="19.26" y="262.96">+</text>
<text x="282.73" y="348.23">.</text>
<text x="227.15" y="450.59">.</text>
<text x="181.70" y="163.79">+</text>
<text x="438.09" y="370.35">.</text>
<text x="335.73" y="99.95">.</text>
<text x="187.17" y="33.19">+</text>
<text x="21.55" y="420.26">+</text>
<text x="165.78" y="469.35">.</text>
<text x="166.44" y="236.95">+</text>
<text x="122.10" y="104.02">*</text>
<text x="79.97" y="97.88">+</text>
<text x="9.99" y="117.53">.</text>
<text x="440.88" y="33.11">+</text>
<text x="209.82" y="243.39">+</text>
<text x="48.44" y="465.89">.</text>
<text x="72.99" y="190.10">.</text>
<text x="278.74" y="52.02">.</text>
<text x="472.93" y="213.14">+</text>
<text x="277.93" y="401.96">+</text>
<text x="42.11" y="153.18">+</text>
<text x="485.14" y="439.38">+</text>
<text x="101.76" y="99.36">.</text>
<text x="370.16" y="156.31">.</text>
<text x="22.08" y="441.10">+</text>
<text x="235.34" y="379.70">.</text>
<text x="474.19" y="413.28">+</text>
<text x="274.52" y="54.03">*</text>
<text x="135.38" y="260.35">+</text>
<text x="73.22" y="230.34">.</text>
<text x="478.92" y="438.25">+</text>
<text x="98.41" y="306.03">.</text>
<text x="57.57" y="257.58">.</text>
<text x="291.18" y="118.92">*</text>
<text x="296.26" y="407.59">*</text>
<text x="220.93" y="486.40">*</text>
<text x="36.20" y="136.82">.</text>
<text x="190.93" y="452.76">.</text>
<text x="423.17" y="218.05">.</text>
<text x="173.96" y="308.35">*</text>
<text x="351.67" y="62.98">+</text>
<text x="348.81" y="130.03">+</text>
<text x="277.68" y="450.88">.</text>
<text x="94.60" y="330.67">+</text>
<text x="172.23" y="150.64">+</text>
<text x="1.48" y="366.09">.</text>
<text x="37.73" y="164.41">+</text>
<text x="463.86" y="43.34">+</text>
<text x="105.71" y="184.79">+</text>
<text x="56.04" y="3.45">.</text>
<text x="106.23" y="400.87">.</text>
<text x="467.65" y="133.99">+</text>
<text x="41.81" y="25.16">*</text>
<text x="492.16" y="478.40">.</text>
<text x="222.09" y="81.58">+</text>
<text x="297.66" y="373.23">+</text>
<text x="401.53" y="459.57">.</text>
<text x="379.98" y="254.39">+</text>
<text x="126.24" y="435.49">+</text>
<text x="156.48" y="29.12">.</text>
<text x="178.08" y="252.92">.</text>
<text x="489.60" y="243.46">+</text>
<text x="276.99" y="100.72">.</text>
<text x="3.35" y="120.74">+</text>
<text x="229.99" y="132.43">.</text>
<text x="250.96" y="311.40">.</text>
<text x="226.12" y="155.43">.</text>
<text x="29.83" y="186.03">+</text>
<text x="85.04" y="2.23">.</text>
<text x="20.45" y="65.94">.</text>
<text x="333.31" y="479.65">+</text>
<text x="120.34" y="241.78">*</text>
<text x="432.18" y="125.06">.</text>
<text x="49.50" y="225.71">.</text>
<text x="232.62" y="19.77">.</text>
<text x="225.93" y="71.59">.</text>
<text x="110.54" y="270.89">.</text>
<text x="296.97" y="52.14">.</text>
<text x="64.20" y="268.31">.</text>
<text x="18.24" y="97.85">+</text>
<text x="145.62" y="349.26">.</text>
<text x="432.95" y="146.57">.</text>
<text x="485.89" y="251.03">+</text>
<text x="107.96" y="318.93">+</text>
<text x="334.64" y="197.34">.</text>
<text x="197.83" y="420.87">.</text>
<text x="36.75" y="158.91">+</text>
<text x="38.96" y="71.60">*</text>
<text x="277.09" y="43.09">+</text>
<text x="409.34" y="137.80">.</text>
<text x="45.53" y="425.63">+</text>
<text x="163.07" y="411.86">+</text>
<text x="437.48" y="291.93">*</text>
<text x="110.08" y="400.74">.</text>
<text x="237.69" y="266.74">.</text>
<text x="234.33" y="177.09">.</text>
<text x="52.60" y="70.90">+</text>
<text x="64.03" y="234.71">*</text>
<text x="110.10" y="376.21">.</text>
<text x="235.04" y="410.69">+</text>
<text x="295.06" y="72.67">+</text>
<text x="67.69" y="186.28">+</text>
<text x="290.98" y="197.35">+</text>
<text x="253.19" y="86.17">+</text>
<text x="109.78" y="290.47">+</text>
<text x="121.27" y="143.06">+</text>
<text x="177.07" y="412.59">.</text>
<text x="241.10" y="429.20">.</text>
<text x="135.02" y="52.94">.</text>
<text x="361.75" y="66.67">+</text>
<text x="188.54" y="0.92">.</text>
<text x="179.92" y="216.36">+</text>
<text x="328.13" y="326.09">*</text>
<text x="414.72" y="484.44">*</text>
<text x="449.54" y="187.54">.</text>
<text x="465.94" y="16.53">+</text>
<text x="71.97" y="267.24">+</text>
<text x="111.84" y="491.48">+</text>
<text x="266.53" y="300.45">.</text>
<text x="204.59" y="460.74">+</text>
<text x="385.25" y="318.74">.</text>
<text x="38.64" y="57.25">.</text>
<text x="323.60" y="47.62">+</text>
<text x="46.18" y="393.56">.</text>
<text x="38.01" y="338.21">*</text>
<text x="369.04" y="62.58">.</text>
<text x="220.17" y="487.23">*</text>
<text x="157.17" y="339.38">+</text>
<text x="154.15" y="26.59">.</text>
<text x="59.50" y="42.37">*</text>
<text x="89.91" y="94.56">.</text>
<text x="462.88" y="7.29">*</text>
<text x="400.46" y="499.55">*</text>
<text x="109.13" y="444.55">*</text>
<text x="21.36" y="374.78">+</text>
<text x="354.26" y="67.05">+</text>
<text x="436.98" y="77.78">.</text>
<text x="469.96" y="85.05">+</text>
<text x="67.07" y="434.81">.</text>
<text x="233.68" y="80.38">+</text>
<text x="158.23" y="98.54">.</text>
<text x="244.95" y="307.85">.</text>
<text x="427.07" y="370.36">+</text>
<text x="299.55" y="324.41">+</text>
<text x="326.61" y="114.22">+</text>
<text x="79.87" y="135.07">+</text>
<text x="280.77" y="140.43">.</text>
<text x="267.58" y="345.05">+</text>

</svg>