
<svg viewBox="0 0 500 500" xmlns="http://www.w.org/2000/svg" width="100%" height="100%" style="background-color: #0a0a14; font-family: 'Courier New', Courier, monospace;">
    <style>
        text { fill: #aaa; font-size: 10px; text-anchor: middle; dominant-baseline: middle; }
    </style>
    <text x="55.81" y="341.46">.</text>
<text x="267.29" y="68.06">.</text>
<text x="318.57" y="32.19">.</text>
<text x="219.55" y="102.20">.</text>
<text x="125.67" y="310.22">+</text>
<text x="433.72" y="212.84">*</text>
<text x="267.29" y="70.14">+</text>
<text x="94.47" y="43.32">+</text>
<text x="442.01" y="107.17">*</text>
<text x="337.13" y="398.17">+</text>
<text x="344.88" y="379.96">+</text>
<text x="146.57" y="111.37">.</text>
<text x="399.80" y="144.22">.</text>
<text x="70.24" y="103.50">+</text>
<text x="222.04" y="46.33">.</text>
<text x="308.49" y="322.74">+</text>
<text x="77.90" y="34.05">+</text>
<text x="48.35" y="431.75">.</text>
<text x="495.82" y="325.50">.</text>
<text x="291.95" y="145.29">.</text>
<text x="124.00" y="487.05">.</text>
<text x="325.29" y="215.63">+</text>
<text x="27.85" y="92.31">*</text>
<text x="41.78" y="473.02">*</text>
<text x="350.32" y="249.43">.</text>
<text x="427.56" y="449.82">*</text>
<text x="149.93" y="305.43">+</text>
<text x="236.60" y="280.86">*</text>
<text x="139.75" y="291.18">*</text>
<text x="445.51" y="209.11">+</text>
<text x="474.94" y="68.38">+</text>
<text x="435.63" y="291.67">+</text>
<text x="313.79" y="126.47">+</text>
<text x="294.68" y="341.00">+</text>
<text x="277.25" y="429.46">.</text>
<text x="265.65" y="86.87">.</text>
<text x="182.94" y="10.42">.</text>
<text x="406.11" y="174.84">*</text>
<text x="390.66" y="324.74">+</text>
<text x="17.94" y="7.72">+</text>
<text x="156.09" y="218.15">.</text>
<text x="275.21" y="276.24">.</text>
<text x="46.71" y="382.58">+</text>
<text x="25.84" y="303.61">.</text>
<text x="402.81" y="410.34">+</text>
<text x="344.49" y="241.78">*</text>
<text x="215.92" y="266.87">.</text>
<text x="413.21" y="246.21">+</text>
<text x="216.92" y="130.98">+</text>
<text x="180.48" y="334.45">.</text>
<text x="391.09" y="297.43">+</text>
<text x="200.48" y="436.36">+</text>
<text x="310.76" y="350.25">.</text>
<text x="274.20" y="119.38">+</text>
<text x="39.16" y="264.27">+</text>
<text x="294.69" y="109.23">.</text>
<text x="340.72" y="304.82">.</text>
<text x="216.28" y="376.31">*</text>
<text x="489.27" y="480.23">+</text>
<text x="10.35" y="167.84">+</text>
<text x="322.85" y="321.78">*</text>
<text x="278.67" y="181.15">*</text>
<text x="104.72" y="495.95">*</text>
<text x="357.83" y="472.13">.</text>
<text x="173.58" y="163.92">*</text>
<text x="242.53" y="288.49">.</text>
<text x="220.40" y="205.83">.</text>
<text x="354.17" y="269.92">.</text>
<text x="380.77" y="183.73">.</text>
<text x="317.43" y="282.29">+</text>
<text x="183.37" y="398.11">.</text>
<text x="317.61" y="182.11">+</text>
<text x="87.97" y="335.12">+</text>
<text x="87.88" y="110.93">+</text>
<text x="315.91" y="460.60">+</text>
<text x="116.59" y="67.62">+</text>
<text x="347.76" y="47.94">+</text>
<text x="301.66" y="197.34">*</text>
<text x="402.13" y="436.69">.</text>
<text x="457.01" y="197.39">.</text>
<text x="391.59" y="384.64">.</text>
<text x="227.88" y="224.93">.</text>
<text x="7.19" y="51.31">*</text>
<text x="281.94" y="91.06">+</text>
<text x="349.08" y="220.83">.</text>
<text x="117.81" y="113.38">+</text>
<text x="22.22" y="323.92">*</text>
<text x="8.40" y="29.59">+</text>
<text x="9.89" y="70.86">*</text>
<text x="258.13" y="126.03">.</text>
<text x="223.50" y="17.20">+</text>
<text x="470.78" y="165.82">.</text>
<text x="347.77" y="452.68">*</text>
<text x="2.40" y="79.71">+</text>
<text x="372.80" y="265.62">.</text>
<text x="476.65" y="18.71">.</text>
<text x="423.61" y="256.51">.</text>
<text x="247.25" y="63.18">+</text>
<text x="488.91" y="317.61">+</text>
<text x="359.61" y="200.99">+</text>
<text x="203.71" y="50.24">.</text>
<text x="272.14" y="255.15">+</text>
<text x="266.72" y="466.91">+</text>
<text x="385.75" y="295.58">.</text>
<text x="341.28" y="49.65">+</text>
<text x="208.41" y="327.45">+</text>
<text x="93.75" y="114.42">+</text>
<text x="308.25" y="340.59">+</text>
<text x="194.97" y="178.64">.</text>
<text x="178.03" y="274.34">*</text>
<text x="184.64" y="212.38">+</text>
<text x="209.95" y="38.19">.</text>
<text x="203.10" y="53.76">.</text>
<text x="479.87" y="452.22">+</text>
<text x="277.15" y="110.27">*</text>
<text x="375.86" y="457.09">.</text>
<text x="179.95" y="203.59">*</text>
<text x="28.78" y="400.59">+</text>
<text x="293.99" y="30.28">.</text>
<text x="300.03" y="128.66">.</text>
<text x="40.02" y="103.61">+</text>
<text x="144.28" y="488.50">+</text>
<text x="55.39" y="481.49">*</text>
<text x="74.72" y="295.52">*</text>
<text x="6.88" y="82.99">+</text>
<text x="428.17" y="434.50">.</text>
<text x="136.60" y="35.26">+</text>
<text x="83.54" y="405.22">.</text>
<text x="230.16" y="240.78">.</text>
<text x="159.70" y="388.40">.</text>
<text x="403.18" y="124.47">.</text>
<text x="190.39" y="125.53">.</text>
<text x="493.44" y="216.18">+</text>
<text x="249.81" y="200.47">+</text>
<text x="233.57" y="147.06">*</text>
<text x="456.30" y="155.95">.</text>
<text x="177.23" y="225.89">+</text>
<text x="430.76" y="124.72">.</text>
<text x="477.25" y="393.71">.</text>
<text x="250.27" y="82.85">.</text>
<text x="112.16" y="298.36">.</text>
<text x="10.63" y="486.29">*</text>
<text x="306.90" y="444.43">.</text>
<text x="144.11" y="10.60">+</text>
<text x="22.89" y="168.75">*</text>
<text x="474.72" y="344.95">*</text>
<text x="462.02" y="445.09">+</text>
<text x="335.27" y="175.95">+</text>
<text x="274.69" y="3.03">+</text>
<text x="40.80" y="26.26">+</text>
<text x="417.87" y="108.98">+</text>
<text x="338.71" y="101.20">+</text>
<text x="3.96" y="410.49">+</text>
<text x="173.12" y="162.16">.</text>
<text x="89.17" y="365.98">+</text>
<text x="206.31" y="222.51">+</text>
<text x="459.12" y="295.87">.</text>
<text x="360.18" y="482.15">.</text>
<text x="434.16" y="353.92">.</text>
<text x="390.39" y="273.65">*</text>
<text x="424.67" y="313.80">*</text>
<text x="403.84" y="306.62">.</text>
<text x="498.30" y="69.42">.</text>
<text x="119.16" y="246.48">+</text>
<text x="31.20" y="159.76">+</text>
<text x="353.49" y="221.11">.</text>
<text x="106.38" y="71.71">.</text>
<text x="245.75" y="350.23">.</text>
<text x="441.11" y="279.33">.</text>
<text x="155.55" y="75.91">.</text>
<text x="54.40" y="30.12">+</text>
<text x="91.53" y="375.93">*</text>
<text x="353.07" y="51.71">+</text>
<text x="216.37" y="42.11">.</text>
<text x="406.88" y="247.97">+</text>
<text x="381.99" y="394.03">+</text>
<text x="378.87" y="52.64">*</text>
<text x="446.79" y="240.28">.</text>
<text x="453.36" y="491.25">.</text>
<text x="436.27" y="110.61">.</text>
<text x="377.85" y="150.01">.</text>
<text x="153.22" y="185.48">*</text>
<text x="34.81" y="454.83">*</text>
<text x="456.72" y="378.77">*</text>
<text x="40.42" y="21.35">+</text>
<text x="488.69" y="8.15">+</text>
<text x="88.23" y="155.08">.</text>
<text x="415.67" y="331.33">+</text>
<text x="136.14" y="328.56">.</text>
<text x="136.20" y="25.75">.</text>
<text x="238.79" y="82.95">.</text>
<text x="398.16" y="46.59">+</text>
<text x="281.91" y="393.53">.</text>
<text x="328.17" y="87.94">+</text>
<text x="292.77" y="476.49">+</text>
<text x="476.39" y="305.46">+</text>
<text x="290.23" y="394.47">.</text>
<text x="288.94" y="72.43">+</text>
<text x="294.41" y="368.12">.</text>
<text x="210.12" y="474.71">.</text>
<text x="119.90" y="202.16">+</text>
<text x="38.97" y="134.34">*</text>
<text x="375.78" y="178.55">+</text>
<text x="63.48" y="422.73">+</text>
<text x="315.09" y="266.53">+</text>
<text x="333.01" y="440.43">*</text>
<text x="159.47" y="421.68">.</text>
<text x="208.69" y="116.48">.</text>
<text x="134.11" y="301.45">*</text>
<text x="202.88" y="40.72">.</text>
<text x="399.86" y="229.27">.</text>
<text x="138.18" y="171.25">+</text>
<text x="121.92" y="371.10">.</text>

</svg>