
<svg viewBox="0 0 500 500" xmlns="http://www.w.org/2000/svg" width="100%" height="100%" style="background-color: #0a0a14; font-family: 'Courier New', Courier, monospace;">
    <style>
        text { fill: #aaa; font-size: 10px; text-anchor: middle; dominant-baseline: middle; }
    </style>
    <text x="304.69" y="165.95">.</text>
<text x="391.85" y="297.13">+</text>
<text x="42.20" y="261.07">+</text>
<text x="72.88" y="142.12">+</text>
<text x="414.21" y="244.67">+</text>
<text x="236.71" y="326.42">+</text>
<text x="158.42" y="290.28">+</text>
<text x="151.27" y="332.88">*</text>
<text x="331.86" y="123.28">+</text>
<text x="179.81" y="272.74">+</text>
<text x="466.19" y="287.63">+</text>
<text x="23.96" y="271.86">*</text>
<text x="166.12" y="58.51">*</text>
<text x="432.53" y="152.32">.</text>
<text x="97.90" y="177.16">.</text>
<text x="353.22" y="56.91">+</text>
<text x="175.17" y="330.71">+</text>
<text x="420.86" y="478.82">*</text>
<text x="412.18" y="35.17">+</text>
<text x="491.40" y="189.33">*</text>
<text x="85.01" y="234.89">+</text>
<text x="55.20" y="241.37">+</text>
<text x="189.41" y="442.85">.</text>
<text x="91.34" y="229.87">.</text>
<text x="153.68" y="497.56">.</text>
<text x="286.04" y="273.21">.</text>
<text x="491.97" y="61.11">+</text>
<text x="291.22" y="345.57">.</text>
<text x="312.59" y="400.96">+</text>
<text x="272.37" y="294.94">.</text>
<text x="384.47" y="229.70">.</text>
<text x="314.81" y="222.81">.</text>
<text x="124.41" y="495.27">*</text>
<text x="327.74" y="298.74">+</text>
<text x="138.04" y="65.28">.</text>
<text x="239.31" y="35.73">+</text>
<text x="389.71" y="375.51">.</text>
<text x="465.05" y="477.84">+</text>
<text x="365.42" y="421.61">*</text>
<text x="409.11" y="241.81">.</text>
<text x="110.61" y="445.89">+</text>
<text x="359.36" y="355.72">.</text>
<text x="258.94" y="56.73">.</text>
<text x="4.45" y="497.78">.</text>
<text x="467.21" y="318.17">.</text>
<text x="297.52" y="192.76">.</text>
<text x="104.61" y="4.40">+</text>
<text x="241.59" y="72.84">.</text>
<text x="338.32" y="102.43">.</text>
<text x="221.05" y="169.68">+</text>
<text x="241.02" y="481.41">.</text>
<text x="23.03" y="429.38">.</text>
<text x="191.63" y="86.70">+</text>
<text x="133.56" y="141.82">.</text>
<text x="382.46" y="48.20">+</text>
<text x="488.97" y="172.96">.</text>
<text x="439.10" y="300.95">.</text>
<text x="119.85" y="120.32">+</text>
<text x="287.41" y="241.62">.</text>
<text x="397.79" y="446.20">+</text>
<text x="496.08" y="106.29">+</text>
<text x="187.90" y="35.70">.</text>
<text x="348.45" y="146.44">+</text>
<text x="438.15" y="214.21">+</text>
<text x="443.21" y="323.61">.</text>
<text x="342.96" y="40.78">.</text>
<text x="467.61" y="94.38">.</text>
<text x="374.52" y="262.56">.</text>
<text x="436.85" y="428.95">*</text>
<text x="30.63" y="460.60">+</text>
<text x="388.15" y="43.35">+</text>
<text x="181.20" y="355.40">.</text>
<text x="379.56" y="498.44">.</text>
<text x="84.13" y="216.02">.</text>
<text x="325.77" y="365.12">+</text>
<text x="221.52" y="286.88">.</text>
<text x="428.52" y="165.48">.</text>
<text x="170.33" y="37.06">.</text>
<text x="398.00" y="235.06">.</text>
<text x="475.36" y="18.62">.</text>
<text x="390.74" y="394.97">+</text>
<text x="350.05" y="434.29">+</text>
<text x="446.14" y="80.87">.</text>
<text x="285.91" y="133.59">.</text>
<text x="303.66" y="459.01">+</text>
<text x="448.35" y="215.40">.</text>
<text x="102.60" y="458.56">*</text>
<text x="391.48" y="154.97">.</text>
<text x="177.39" y="102.86">+</text>
<text x="234.48" y="165.94">.</text>
<text x="119.07" y="184.98">*</text>
<text x="340.97" y="357.85">+</text>
<text x="113.53" y="326.19">+</text>
<text x="299.02" y="295.43">+</text>
<text x="145.19" y="304.46">.</text>
<text x="149.60" y="461.42">+</text>
<text x="461.02" y="344.98">+</text>
<text x="207.89" y="433.46">+</text>
<text x="251.48" y="334.11">*</text>
<text x="292.19" y="287.60">+</text>
<text x="262.70" y="186.77">*</text>
<text x="261.74" y="78.96">+</text>
<text x="149.35" y="74.74">+</text>
<text x="166.19" y="318.39">.</text>
<text x="151.30" y="86.95">+</text>
<text x="394.73" y="390.08">*</text>
<text x="200.79" y="201.48">.</text>
<text x="391.65" y="111.58">*</text>
<text x="488.97" y="374.52">.</text>
<text x="439.54" y="246.52">+</text>
<text x="497.80" y="448.61">*</text>
<text x="241.70" y="476.21">+</text>
<text x="199.81" y="395.22">*</text>
<text x="493.98" y="490.63">.</text>
<text x="395.56" y="20.22">.</text>
<text x="395.23" y="182.23">+</text>
<text x="455.46" y="474.65">.</text>
<text x="335.44" y="209.43">+</text>
<text x="472.22" y="19.79">*</text>
<text x="240.02" y="48.62">.</text>
<text x="474.69" y="402.70">.</text>
<text x="209.94" y="76.53">.</text>
<text x="408.23" y="496.41">.</text>
<text x="168.02" y="448.96">.</text>
<text x="222.69" y="213.30">.</text>
<text x="309.62" y="32.76">*</text>
<text x="117.95" y="181.34">+</text>
<text x="469.81" y="132.33">+</text>
<text x="87.51" y="407.46">+</text>
<text x="7.09" y="336.28">*</text>
<text x="356.73" y="258.64">+</text>
<text x="474.11" y="163.35">.</text>
<text x="476.15" y="190.51">.</text>
<text x="182.76" y="272.83">+</text>
<text x="461.46" y="83.30">+</text>
<text x="488.00" y="199.86">+</text>
<text x="494.12" y="196.56">*</text>
<text x="7.88" y="74.87">+</text>
<text x="335.84" y="460.38">.</text>
<text x="401.72" y="27.13">+</text>
<text x="209.45" y="407.37">.</text>
<text x="489.93" y="473.90">+</text>
<text x="447.17" y="278.86">*</text>
<text x="426.51" y="248.76">+</text>
<text x="97.26" y="219.55">+</text>
<text x="424.95" y="125.80">+</text>
<text x="218.75" y="7.72">*</text>
<text x="159.35" y="45.99">.</text>
<text x="179.83" y="479.30">.</text>
<text x="195.31" y="254.29">.</text>
<text x="114.29" y="21.52">.</text>
<text x="497.37" y="448.39">.</text>
<text x="320.77" y="466.06">.</text>
<text x="337.67" y="143.84">.</text>
<text x="140.10" y="90.47">.</text>
<text x="139.41" y="24.16">.</text>
<text x="333.50" y="236.61">+</text>
<text x="218.89" y="106.11">+</text>
<text x="129.55" y="389.47">.</text>
<text x="405.76" y="271.92">*</text>
<text x="107.64" y="267.81">.</text>
<text x="110.53" y="408.57">*</text>
<text x="431.64" y="308.31">.</text>
<text x="82.02" y="104.33">.</text>
<text x="50.53" y="62.35">.</text>
<text x="364.59" y="6.52">+</text>
<text x="256.46" y="241.72">.</text>
<text x="252.30" y="245.28">*</text>
<text x="8.93" y="489.21">.</text>
<text x="85.68" y="21.63">+</text>
<text x="245.63" y="370.21">+</text>
<text x="469.55" y="447.84">.</text>
<text x="301.56" y="30.82">+</text>
<text x="69.40" y="485.22">+</text>
<text x="95.03" y="24.48">+</text>
<text x="187.18" y="255.88">.</text>
<text x="228.42" y="227.84">.</text>
<text x="483.82" y="21.58">+</text>
<text x="39.30" y="429.23">.</text>
<text x="417.13" y="152.17">+</text>
<text x="464.30" y="147.99">.</text>
<text x="396.68" y="282.15">.</text>
<text x="364.56" y="299.05">.</text>
<text x="383.17" y="388.07">.</text>
<text x="338.97" y="252.87">*</text>
<text x="153.86" y="339.97">.</text>
<text x="59.63" y="489.70">+</text>
<text x="493.23" y="193.61">+</text>
<text x="76.56" y="6.11">+</text>
<text x="15.72" y="29.88">+</text>
<text x="89.41" y="237.75">.</text>
<text x="139.43" y="77.65">.</text>
<text x="288.95" y="406.68">.</text>
<text x="127.18" y="18.57">.</text>
<text x="191.74" y="435.25">.</text>
<text x="361.87" y="316.94">.</text>
<text x="428.51" y="212.57">+</text>
<text x="480.32" y="400.42">+</text>
<text x="485.12" y="165.49">.</text>
<text x="404.32" y="137.84">*</text>
<text x="391.68" y="235.43">.</text>
<text x="413.76" y="422.45">.</text>
<text x="438.53" y="405.97">+</text>
<text x="307.60" y="40.40">.</text>
<text x="224.37" y="290.43">.</text>
<text x="191.19" y="252.45">.</text>
<text x="432.60" y="445.32">*</text>
<text x="199.55" y="275.59">+</text>

</svg>