
<svg viewBox="0 0 500 500" xmlns="http://www.w.org/2000/svg" width="100%" height="100%" style="background-color: #0a0a14; font-family: 'Courier New', Courier, monospace;">
    <style>
        text { fill: #aaa; font-size: 10px; text-anchor: middle; dominant-baseline: middle; }
    </style>
    <text x="212.64" y="122.26">+</text>
<text x="163.64" y="13.05">+</text>
<text x="368.56" y="66.48">*</text>
<text x="314.29" y="254.79">.</text>
<text x="387.80" y="203.11">.</text>
<text x="479.62" y="414.47">+</text>
<text x="354.49" y="281.25">.</text>
<text x="301.41" y="40.17">.</text>
<text x="280.53" y="484.59">.</text>
<text x="1.89" y="289.07">+</text>
<text x="319.40" y="490.60">.</text>
<text x="8.73" y="442.45">+</text>
<text x="458.59" y="144.28">+</text>
<text x="395.19" y="444.15">+</text>
<text x="265.79" y="187.37">*</text>
<text x="208.56" y="165.96">.</text>
<text x="211.02" y="163.46">.</text>
<text x="355.13" y="58.24">+</text>
<text x="112.67" y="157.85">+</text>
<text x="164.50" y="279.91">+</text>
<text x="92.66" y="159.44">.</text>
<text x="369.10" y="297.19">+</text>
<text x="277.16" y="463.57">.</text>
<text x="69.53" y="45.41">+</text>
<text x="322.96" y="51.87">+</text>
<text x="26.47" y="250.93">.</text>
<text x="107.99" y="472.39">+</text>
<text x="266.53" y="485.04">.</text>
<text x="199.91" y="434.82">+</text>
<text x="283.99" y="241.67">.</text>
<text x="277.47" y="437.00">.</text>
<text x="103.15" y="258.97">.</text>
<text x="293.58" y="252.14">*</text>
<text x="278.86" y="94.74">+</text>
<text x="441.97" y="8.41">.</text>
<text x="191.24" y="326.23">+</text>
<text x="293.85" y="23.51">.</text>
<text x="295.97" y="396.19">+</text>
<text x="404.43" y="153.65">*</text>
<text x="438.40" y="327.75">+</text>
<text x="138.44" y="334.54">+</text>
<text x="55.89" y="268.81">.</text>
<text x="102.14" y="7.75">.</text>
<text x="479.51" y="434.84">.</text>
<text x="97.15" y="29.69">*</text>
<text x="378.82" y="324.40">.</text>
<text x="30.36" y="327.11">.</text>
<text x="72.19" y="414.06">.</text>
<text x="338.44" y="117.79">*</text>
<text x="39.27" y="478.44">*</text>
<text x="477.38" y="497.05">+</text>
<text x="237.81" y="150.56">.</text>
<text x="293.99" y="438.23">+</text>
<text x="404.07" y="103.52">+</text>
<text x="499.92" y="427.87">+</text>
<text x="125.86" y="382.02">*</text>
<text x="176.05" y="319.89">+</text>
<text x="478.13" y="369.51">.</text>
<text x="202.17" y="255.70">.</text>
<text x="86.79" y="436.58">+</text>
<text x="434.47" y="466.84">*</text>
<text x="358.84" y="128.01">.</text>
<text x="314.08" y="274.85">.</text>
<text x="407.77" y="373.76">.</text>
<text x="172.16" y="140.90">+</text>
<text x="16.54" y="150.01">+</text>
<text x="481.81" y="296.17">+</text>
<text x="420.30" y="26.63">.</text>
<text x="452.73" y="134.83">+</text>
<text x="426.16" y="114.82">.</text>
<text x="413.25" y="146.96">.</text>
<text x="429.33" y="11.34">+</text>
<text x="389.12" y="470.82">.</text>
<text x="443.89" y="406.22">*</text>
<text x="298.61" y="380.95">.</text>
<text x="151.68" y="207.24">*</text>
<text x="494.37" y="451.01">*</text>
<text x="310.00" y="87.82">.</text>
<text x="407.92" y="24.00">.</text>
<text x="345.78" y="299.59">*</text>
<text x="461.74" y="57.35">+</text>
<text x="197.59" y="1.20">.</text>
<text x="175.91" y="279.12">.</text>
<text x="166.05" y="9.03">*</text>
<text x="499.11" y="294.12">+</text>
<text x="444.11" y="93.40">+</text>
<text x="362.80" y="91.64">.</text>
<text x="482.01" y="82.52">+</text>
<text x="154.94" y="439.77">+</text>
<text x="308.89" y="39.07">.</text>
<text x="417.26" y="30.18">.</text>
<text x="470.54" y="256.24">.</text>
<text x="370.47" y="177.83">+</text>
<text x="279.94" y="319.18">+</text>
<text x="376.00" y="251.01">.</text>
<text x="244.55" y="223.30">.</text>
<text x="198.77" y="22.58">.</text>
<text x="458.31" y="157.55">+</text>
<text x="11.10" y="102.81">+</text>
<text x="278.55" y="363.38">+</text>
<text x="359.44" y="208.71">+</text>
<text x="58.55" y="486.86">*</text>
<text x="136.56" y="112.64">.</text>
<text x="360.72" y="453.95">.</text>
<text x="274.79" y="229.62">*</text>
<text x="207.59" y="492.86">.</text>
<text x="166.76" y="291.30">.</text>
<text x="84.94" y="162.12">+</text>
<text x="85.17" y="418.65">.</text>
<text x="160.65" y="414.88">.</text>
<text x="74.23" y="43.28">.</text>
<text x="108.45" y="103.36">*</text>
<text x="146.05" y="478.87">.</text>
<text x="369.34" y="496.50">+</text>
<text x="101.86" y="274.10">+</text>
<text x="475.81" y="275.22">+</text>
<text x="285.76" y="289.83">*</text>
<text x="355.68" y="200.41">+</text>
<text x="489.78" y="489.76">*</text>
<text x="164.59" y="196.19">+</text>
<text x="49.81" y="189.55">*</text>
<text x="400.26" y="234.42">.</text>
<text x="317.89" y="55.24">+</text>
<text x="388.38" y="333.44">.</text>
<text x="419.51" y="192.22">*</text>
<text x="383.35" y="68.36">*</text>
<text x="203.92" y="62.13">+</text>
<text x="486.58" y="228.65">+</text>
<text x="171.53" y="66.22">+</text>
<text x="377.37" y="27.13">+</text>
<text x="274.57" y="93.53">*</text>
<text x="36.05" y="254.31">*</text>
<text x="217.50" y="154.21">+</text>
<text x="214.37" y="184.29">+</text>
<text x="373.47" y="116.17">+</text>
<text x="242.99" y="151.44">+</text>
<text x="130.51" y="352.66">.</text>
<text x="429.89" y="232.11">.</text>
<text x="155.98" y="59.47">.</text>
<text x="437.46" y="291.27">*</text>
<text x="468.81" y="176.43">.</text>
<text x="385.54" y="318.91">.</text>
<text x="43.77" y="325.90">.</text>
<text x="86.46" y="309.90">*</text>
<text x="177.37" y="412.57">.</text>
<text x="277.17" y="33.00">+</text>
<text x="447.46" y="188.86">+</text>
<text x="127.12" y="399.70">.</text>
<text x="318.23" y="56.19">*</text>
<text x="310.72" y="438.41">+</text>
<text x="309.66" y="177.14">+</text>
<text x="471.10" y="298.99">+</text>
<text x="309.41" y="1.70">.</text>
<text x="283.31" y="375.84">+</text>
<text x="370.98" y="368.82">+</text>
<text x="188.93" y="447.54">.</text>
<text x="311.18" y="125.15">+</text>
<text x="11.61" y="486.24">+</text>
<text x="214.95" y="12.61">.</text>
<text x="2.94" y="488.24">.</text>
<text x="170.74" y="416.28">+</text>
<text x="251.98" y="466.83">+</text>
<text x="199.57" y="403.03">.</text>
<text x="83.88" y="214.88">+</text>
<text x="146.06" y="115.86">*</text>
<text x="149.73" y="62.46">+</text>
<text x="404.09" y="312.34">*</text>
<text x="317.37" y="231.35">.</text>
<text x="261.78" y="240.75">.</text>
<text x="324.25" y="428.78">.</text>
<text x="266.54" y="370.16">.</text>
<text x="475.37" y="362.41">.</text>
<text x="172.66" y="88.00">+</text>
<text x="348.11" y="231.93">+</text>
<text x="179.97" y="141.21">+</text>
<text x="427.92" y="436.07">+</text>
<text x="490.74" y="470.33">.</text>
<text x="191.31" y="78.29">*</text>
<text x="316.67" y="54.88">.</text>
<text x="28.49" y="488.58">.</text>
<text x="49.50" y="216.77">+</text>
<text x="195.97" y="415.70">.</text>
<text x="246.37" y="71.90">+</text>
<text x="154.70" y="450.61">.</text>
<text x="265.15" y="466.67">*</text>
<text x="98.38" y="68.47">*</text>
<text x="439.72" y="385.22">.</text>
<text x="82.84" y="21.94">.</text>
<text x="78.09" y="492.88">+</text>
<text x="116.44" y="230.25">+</text>
<text x="479.46" y="114.70">.</text>
<text x="128.36" y="330.26">.</text>
<text x="364.37" y="319.57">+</text>
<text x="170.91" y="12.67">*</text>
<text x="278.92" y="415.40">*</text>
<text x="484.24" y="287.41">.</text>
<text x="376.93" y="368.14">.</text>
<text x="478.51" y="56.23">+</text>
<text x="304.68" y="12.12">.</text>
<text x="212.81" y="162.09">*</text>
<text x="113.86" y="134.09">+</text>
<text x="67.32" y="297.37">*</text>
<text x="90.95" y="44.32">*</text>
<text x="81.42" y="232.81">+</text>
<text x="430.43" y="335.62">*</text>
<text x="322.12" y="404.55">+</text>
<text x="398.32" y="272.24">.</text>
<text x="100.69" y="230.00">.</text>
<text x="481.41" y="141.60">+</text>

</svg>