
<svg viewBox="0 0 500 500" xmlns="http://www.w.org/2000/svg" width="100%" height="100%" style="background-color: #0a0a14; font-family: 'Courier New', Courier, monospace;">
    <style>
        text { fill: #aaa; font-size: 10px; text-anchor: middle; dominant-baseline: middle; }
    </style>
    <text x="319.39" y="110.95">*</text>
<text x="298.94" y="10.71">+</text>
<text x="366.16" y="318.70">*</text>
<text x="434.01" y="149.77">*</text>
<text x="142.21" y="295.61">+</text>
<text x="141.23" y="101.48">+</text>
<text x="49.75" y="66.54">.</text>
<text x="257.92" y="438.06">+</text>
<text x="313.95" y="300.07">+</text>
<text x="348.12" y="421.53">*</text>
<text x="107.75" y="90.21">+</text>
<text x="318.24" y="320.38">+</text>
<text x="411.01" y="201.27">.</text>
<text x="325.21" y="495.78">.</text>
<text x="241.91" y="228.70">+</text>
<text x="214.47" y="198.60">+</text>
<text x="172.47" y="122.43">+</text>
<text x="476.86" y="203.84">.</text>
<text x="429.68" y="110.95">*</text>
<text x="263.82" y="402.78">+</text>
<text x="316.92" y="422.28">.</text>
<text x="498.32" y="130.34">.</text>
<text x="161.90" y="10.97">.</text>
<text x="434.44" y="75.17">.</text>
<text x="19.67" y="111.38">+</text>
<text x="438.49" y="201.77">.</text>
<text x="422.13" y="165.67">+</text>
<text x="433.30" y="97.64">.</text>
<text x="132.34" y="461.93">+</text>
<text x="305.39" y="483.29">*</text>
<text x="284.27" y="160.84">+</text>
<text x="233.57" y="140.21">+</text>
<text x="417.75" y="96.90">*</text>
<text x="341.04" y="455.13">.</text>
<text x="217.67" y="469.57">+</text>
<text x="40.35" y="70.87">+</text>
<text x="141.81" y="202.15">*</text>
<text x="104.10" y="415.44">.</text>
<text x="204.71" y="470.68">.</text>
<text x="357.11" y="0.85">+</text>
<text x="127.49" y="313.58">.</text>
<text x="433.74" y="220.25">+</text>
<text x="186.36" y="465.53">.</text>
<text x="54.51" y="265.02">*</text>
<text x="473.28" y="58.46">+</text>
<text x="239.13" y="16.98">*</text>
<text x="278.76" y="474.11">*</text>
<text x="244.73" y="483.40">.</text>
<text x="459.99" y="8.44">.</text>
<text x="479.98" y="233.94">+</text>
<text x="169.55" y="313.70">+</text>
<text x="419.48" y="463.17">+</text>
<text x="91.13" y="51.41">.</text>
<text x="368.95" y="366.96">.</text>
<text x="295.66" y="406.74">*</text>
<text x="165.72" y="283.04">*</text>
<text x="89.89" y="2.32">+</text>
<text x="81.01" y="26.39">+</text>
<text x="140.04" y="373.94">+</text>
<text x="35.77" y="280.72">+</text>
<text x="479.09" y="452.58">+</text>
<text x="349.62" y="331.90">+</text>
<text x="313.74" y="210.99">+</text>
<text x="453.02" y="91.27">.</text>
<text x="427.38" y="340.93">*</text>
<text x="217.34" y="86.50">.</text>
<text x="347.97" y="289.20">.</text>
<text x="422.31" y="351.13">.</text>
<text x="151.46" y="391.80">.</text>
<text x="368.94" y="66.19">.</text>
<text x="83.53" y="42.30">+</text>
<text x="472.78" y="225.12">+</text>
<text x="218.05" y="278.66">.</text>
<text x="301.55" y="4.36">+</text>
<text x="489.60" y="300.04">+</text>
<text x="380.24" y="86.19">+</text>
<text x="356.48" y="493.98">+</text>
<text x="46.40" y="262.41">.</text>
<text x="150.17" y="306.22">*</text>
<text x="281.28" y="194.49">*</text>
<text x="441.25" y="454.87">+</text>
<text x="53.22" y="488.47">.</text>
<text x="362.59" y="251.82">.</text>
<text x="276.00" y="433.61">*</text>
<text x="302.61" y="129.31">.</text>
<text x="340.35" y="411.91">*</text>
<text x="458.58" y="93.53">+</text>
<text x="340.10" y="159.10">*</text>
<text x="248.43" y="298.56">+</text>
<text x="439.55" y="348.92">.</text>
<text x="80.76" y="213.56">.</text>
<text x="162.61" y="483.33">+</text>
<text x="496.35" y="317.70">*</text>
<text x="240.33" y="74.09">.</text>
<text x="264.55" y="347.38">+</text>
<text x="307.42" y="267.39">+</text>
<text x="164.00" y="170.62">.</text>
<text x="88.32" y="426.34">.</text>
<text x="189.47" y="386.04">+</text>
<text x="3.65" y="277.94">+</text>
<text x="144.30" y="89.84">+</text>
<text x="59.01" y="165.83">.</text>
<text x="268.69" y="258.72">+</text>
<text x="417.04" y="440.04">+</text>
<text x="16.74" y="232.81">+</text>
<text x="90.04" y="222.52">.</text>
<text x="154.35" y="378.87">*</text>
<text x="425.78" y="328.55">*</text>
<text x="164.36" y="327.76">.</text>
<text x="345.64" y="292.19">+</text>
<text x="159.98" y="10.64">+</text>
<text x="387.72" y="331.84">+</text>
<text x="54.50" y="136.46">+</text>
<text x="458.44" y="47.71">.</text>
<text x="207.94" y="82.15">+</text>
<text x="415.45" y="264.54">+</text>
<text x="302.48" y="20.54">+</text>
<text x="371.11" y="290.51">+</text>
<text x="452.22" y="269.86">.</text>
<text x="448.12" y="313.56">*</text>
<text x="285.85" y="271.31">.</text>
<text x="115.90" y="334.59">.</text>
<text x="80.35" y="148.26">.</text>
<text x="260.43" y="409.03">*</text>
<text x="485.29" y="438.11">+</text>
<text x="196.43" y="297.64">*</text>
<text x="427.81" y="227.05">.</text>
<text x="186.58" y="34.87">*</text>
<text x="399.50" y="301.26">.</text>
<text x="125.09" y="479.55">+</text>
<text x="192.06" y="140.07">+</text>
<text x="142.08" y="195.00">.</text>
<text x="438.34" y="420.25">.</text>
<text x="469.33" y="285.05">+</text>
<text x="260.54" y="79.24">.</text>
<text x="373.74" y="210.24">+</text>
<text x="190.58" y="441.10">*</text>
<text x="350.83" y="224.76">.</text>
<text x="130.42" y="479.06">+</text>
<text x="116.74" y="279.19">+</text>
<text x="21.50" y="288.78">.</text>
<text x="461.80" y="250.77">.</text>
<text x="76.20" y="47.56">+</text>
<text x="166.92" y="49.33">.</text>
<text x="162.74" y="440.65">.</text>
<text x="309.58" y="84.44">.</text>
<text x="110.59" y="393.98">.</text>
<text x="267.58" y="110.76">+</text>
<text x="404.65" y="38.28">+</text>
<text x="78.90" y="440.59">.</text>
<text x="134.20" y="321.82">.</text>
<text x="199.13" y="205.42">*</text>
<text x="190.07" y="479.30">.</text>
<text x="234.17" y="161.80">.</text>
<text x="470.86" y="444.83">.</text>
<text x="209.61" y="184.04">+</text>
<text x="400.05" y="387.22">*</text>
<text x="465.37" y="260.15">.</text>
<text x="348.18" y="193.58">+</text>
<text x="3.22" y="38.76">.</text>
<text x="459.73" y="490.70">.</text>
<text x="217.77" y="122.82">.</text>
<text x="410.91" y="104.40">.</text>
<text x="0.88" y="150.95">.</text>
<text x="216.02" y="144.28">.</text>
<text x="137.99" y="225.51">.</text>
<text x="151.35" y="238.32">+</text>
<text x="161.21" y="184.99">+</text>
<text x="221.55" y="253.64">+</text>
<text x="408.71" y="257.36">.</text>
<text x="119.60" y="319.19">.</text>
<text x="462.18" y="353.72">+</text>
<text x="416.47" y="323.33">+</text>
<text x="271.51" y="29.85">.</text>
<text x="288.81" y="226.31">+</text>
<text x="338.24" y="8.31">.</text>
<text x="237.55" y="347.44">.</text>
<text x="259.93" y="124.19">.</text>
<text x="368.08" y="467.79">+</text>
<text x="140.76" y="78.69">.</text>
<text x="209.65" y="75.61">.</text>
<text x="48.74" y="285.01">+</text>
<text x="249.05" y="309.22">.</text>
<text x="44.31" y="318.97">+</text>
<text x="77.26" y="274.16">+</text>
<text x="380.61" y="141.44">.</text>
<text x="429.00" y="414.56">.</text>
<text x="164.21" y="67.18">*</text>
<text x="220.61" y="235.16">.</text>
<text x="34.87" y="338.45">+</text>
<text x="399.70" y="419.67">+</text>
<text x="23.73" y="311.22">*</text>
<text x="441.96" y="269.14">*</text>
<text x="139.83" y="129.81">*</text>
<text x="438.34" y="153.43">.</text>
<text x="213.61" y="74.49">.</text>
<text x="240.82" y="403.87">.</text>
<text x="437.57" y="424.52">.</text>
<text x="222.82" y="0.53">.</text>
<text x="211.19" y="228.36">.</text>
<text x="229.68" y="109.97">.</text>
<text x="297.47" y="485.67">*</text>

</svg>