
<svg viewBox="0 0 500 500" xmlns="http://www.w.org/2000/svg" width="100%" height="100%" style="background-color: #0a0a14; font-family: 'Courier New', Courier, monospace;">
    <style>
        text { fill: #aaa; font-size: 10px; text-anchor: middle; dominant-baseline: middle; }
    </style>
    <text x="146.65" y="100.61">+</text>
<text x="306.28" y="340.06">.</text>
<text x="65.37" y="79.44">*</text>
<text x="71.19" y="415.61">.</text>
<text x="301.04" y="232.78">+</text>
<text x="341.97" y="59.21">.</text>
<text x="233.81" y="474.68">.</text>
<text x="426.48" y="162.45">+</text>
<text x="175.73" y="499.00">+</text>
<text x="63.61" y="21.09">+</text>
<text x="402.10" y="398.75">+</text>
<text x="176.73" y="381.35">.</text>
<text x="220.16" y="131.67">+</text>
<text x="236.32" y="434.52">.</text>
<text x="128.57" y="24.31">+</text>
<text x="108.41" y="151.47">*</text>
<text x="37.21" y="331.14">+</text>
<text x="168.20" y="54.48">+</text>
<text x="3.70" y="138.33">+</text>
<text x="414.47" y="139.86">*</text>
<text x="39.36" y="106.93">+</text>
<text x="45.26" y="25.00">.</text>
<text x="229.60" y="254.65">.</text>
<text x="205.08" y="96.03">.</text>
<text x="18.17" y="377.95">.</text>
<text x="143.56" y="457.75">.</text>
<text x="128.05" y="87.23">.</text>
<text x="482.71" y="320.01">*</text>
<text x="119.44" y="396.10">.</text>
<text x="238.49" y="52.22">+</text>
<text x="108.12" y="276.61">+</text>
<text x="264.04" y="39.28">*</text>
<text x="53.10" y="33.51">.</text>
<text x="153.04" y="455.93">+</text>
<text x="264.20" y="180.40">.</text>
<text x="107.60" y="463.56">+</text>
<text x="155.52" y="67.36">+</text>
<text x="74.46" y="203.52">.</text>
<text x="383.31" y="468.10">.</text>
<text x="268.24" y="408.35">+</text>
<text x="126.67" y="318.40">+</text>
<text x="337.39" y="463.25">.</text>
<text x="173.81" y="221.67">+</text>
<text x="28.33" y="92.37">*</text>
<text x="411.89" y="288.92">+</text>
<text x="454.92" y="446.30">+</text>
<text x="453.36" y="309.13">.</text>
<text x="13.47" y="285.22">+</text>
<text x="200.91" y="400.73">+</text>
<text x="1.84" y="20.40">.</text>
<text x="307.76" y="180.45">.</text>
<text x="90.53" y="272.32">+</text>
<text x="225.00" y="53.91">+</text>
<text x="293.53" y="286.78">+</text>
<text x="315.40" y="448.64">*</text>
<text x="308.31" y="321.92">.</text>
<text x="172.40" y="120.69">+</text>
<text x="241.06" y="136.19">.</text>
<text x="156.80" y="386.09">*</text>
<text x="138.60" y="195.53">*</text>
<text x="2.21" y="179.26">.</text>
<text x="189.65" y="333.73">+</text>
<text x="333.01" y="273.58">+</text>
<text x="443.05" y="225.65">+</text>
<text x="311.49" y="316.19">.</text>
<text x="386.79" y="7.14">+</text>
<text x="424.40" y="196.39">.</text>
<text x="49.17" y="276.83">+</text>
<text x="355.93" y="119.61">.</text>
<text x="130.98" y="388.81">.</text>
<text x="33.06" y="170.13">+</text>
<text x="149.25" y="94.05">+</text>
<text x="115.80" y="306.30">.</text>
<text x="177.58" y="364.90">*</text>
<text x="76.64" y="108.41">.</text>
<text x="90.05" y="212.65">*</text>
<text x="129.04" y="271.66">+</text>
<text x="209.36" y="53.98">+</text>
<text x="78.11" y="419.22">*</text>
<text x="145.28" y="188.95">+</text>
<text x="196.20" y="492.83">+</text>
<text x="419.23" y="320.28">.</text>
<text x="120.77" y="134.99">+</text>
<text x="122.69" y="359.78">.</text>
<text x="239.59" y="50.60">.</text>
<text x="237.46" y="76.10">+</text>
<text x="115.53" y="107.73">.</text>
<text x="472.59" y="342.40">*</text>
<text x="202.76" y="476.62">.</text>
<text x="309.62" y="33.33">+</text>
<text x="66.74" y="149.88">.</text>
<text x="387.10" y="369.92">+</text>
<text x="47.77" y="475.43">*</text>
<text x="258.65" y="315.19">.</text>
<text x="477.82" y="100.67">.</text>
<text x="462.39" y="0.20">*</text>
<text x="77.90" y="140.75">+</text>
<text x="229.53" y="244.49">+</text>
<text x="124.06" y="82.95">*</text>
<text x="241.66" y="234.09">.</text>
<text x="274.50" y="92.99">+</text>
<text x="449.30" y="119.55">+</text>
<text x="221.76" y="218.94">*</text>
<text x="343.15" y="101.38">+</text>
<text x="181.10" y="354.08">+</text>
<text x="200.57" y="311.02">+</text>
<text x="423.45" y="357.69">.</text>
<text x="222.83" y="405.00">+</text>
<text x="352.82" y="439.11">.</text>
<text x="417.50" y="430.48">*</text>
<text x="160.13" y="338.71">+</text>
<text x="200.54" y="410.72">*</text>
<text x="142.42" y="332.67">.</text>
<text x="42.73" y="63.82">+</text>
<text x="182.55" y="450.56">+</text>
<text x="100.51" y="420.51">.</text>
<text x="220.45" y="461.45">.</text>
<text x="262.24" y="220.06">*</text>
<text x="60.44" y="209.68">*</text>
<text x="263.63" y="50.29">*</text>
<text x="374.28" y="266.11">.</text>
<text x="15.45" y="221.76">.</text>
<text x="246.16" y="104.44">+</text>
<text x="341.97" y="287.85">.</text>
<text x="199.31" y="60.56">+</text>
<text x="228.07" y="112.19">.</text>
<text x="372.50" y="370.69">.</text>
<text x="485.03" y="307.81">+</text>
<text x="445.39" y="105.45">.</text>
<text x="407.32" y="96.27">*</text>
<text x="337.53" y="408.74">.</text>
<text x="327.47" y="65.60">*</text>
<text x="274.37" y="18.41">+</text>
<text x="402.92" y="366.77">.</text>
<text x="392.56" y="77.96">+</text>
<text x="47.49" y="435.76">.</text>
<text x="273.09" y="349.39">+</text>
<text x="87.28" y="109.93">.</text>
<text x="248.07" y="114.37">.</text>
<text x="214.48" y="64.91">*</text>
<text x="438.88" y="248.70">.</text>
<text x="216.60" y="437.62">+</text>
<text x="251.44" y="442.28">+</text>
<text x="7.63" y="282.52">+</text>
<text x="476.15" y="172.46">+</text>
<text x="213.17" y="101.79">.</text>
<text x="396.75" y="329.63">.</text>
<text x="412.42" y="476.64">.</text>
<text x="477.10" y="50.69">+</text>
<text x="290.29" y="144.41">+</text>
<text x="91.04" y="493.44">*</text>
<text x="219.87" y="235.00">.</text>
<text x="166.73" y="341.01">.</text>
<text x="473.54" y="82.41">+</text>
<text x="356.67" y="329.26">+</text>
<text x="130.20" y="289.53">.</text>
<text x="285.02" y="252.08">+</text>
<text x="486.74" y="154.52">.</text>
<text x="498.66" y="60.92">*</text>
<text x="334.83" y="36.59">+</text>
<text x="82.37" y="384.43">.</text>
<text x="486.50" y="445.21">.</text>
<text x="158.34" y="491.04">.</text>
<text x="57.72" y="217.95">.</text>
<text x="473.54" y="118.58">.</text>
<text x="202.33" y="125.12">.</text>
<text x="81.29" y="358.33">*</text>
<text x="480.54" y="133.73">+</text>
<text x="243.02" y="77.11">+</text>
<text x="404.74" y="83.45">+</text>
<text x="129.25" y="225.38">+</text>
<text x="158.81" y="408.15">+</text>
<text x="255.32" y="332.73">.</text>
<text x="220.94" y="192.19">+</text>
<text x="233.22" y="476.27">.</text>
<text x="256.04" y="420.80">.</text>
<text x="35.80" y="152.69">.</text>
<text x="359.87" y="6.39">+</text>
<text x="240.04" y="468.95">.</text>
<text x="72.19" y="1.09">.</text>
<text x="445.99" y="115.84">+</text>
<text x="11.57" y="407.95">+</text>
<text x="38.87" y="136.20">+</text>
<text x="133.59" y="173.85">.</text>
<text x="157.10" y="3.45">.</text>
<text x="210.51" y="260.90">.</text>
<text x="41.36" y="123.63">*</text>
<text x="344.20" y="272.61">.</text>
<text x="417.73" y="295.81">+</text>
<text x="474.34" y="335.19">*</text>
<text x="290.13" y="10.20">+</text>
<text x="459.98" y="460.82">*</text>
<text x="149.30" y="295.50">+</text>
<text x="418.75" y="450.33">.</text>
<text x="80.19" y="389.89">+</text>
<text x="157.42" y="50.18">.</text>
<text x="46.84" y="351.96">+</text>
<text x="263.89" y="44.17">*</text>
<text x="172.86" y="130.91">+</text>
<text x="241.21" y="162.26">+</text>
<text x="200.26" y="297.58">+</text>
<text x="283.96" y="401.93">+</text>
<text x="161.26" y="242.90">+</text>
<text x="130.28" y="432.49">+</text>
<text x="170.14" y="417.73">.</text>
<text x="10.01" y="401.15">.</text>
<text x="112.82" y="13.29">+</text>
<text x="130.07" y="385.96">.</text>

</svg>