
<svg viewBox="0 0 500 500" xmlns="http://www.w.org/2000/svg" width="100%" height="100%" style="background-color: #0a0a14; font-family: 'Courier New', Courier, monospace;">
    <style>
        text { fill: #aaa; font-size: 10px; text-anchor: middle; dominant-baseline: middle; }
    </style>
    <text x="428.55" y="495.60">*</text>
<text x="257.80" y="419.89">.</text>
<text x="245.66" y="243.03">+</text>
<text x="338.30" y="263.24">+</text>
<text x="448.41" y="273.84">+</text>
<text x="313.49" y="485.06">+</text>
<text x="427.07" y="399.16">+</text>
<text x="370.57" y="300.21">.</text>
<text x="382.11" y="14.06">+</text>
<text x="111.56" y="136.37">*</text>
<text x="233.93" y="396.07">.</text>
<text x="462.20" y="288.82">.</text>
<text x="93.92" y="498.55">.</text>
<text x="93.30" y="2.09">.</text>
<text x="256.44" y="273.46">+</text>
<text x="73.44" y="327.32">+</text>
<text x="435.89" y="223.41">*</text>
<text x="488.85" y="214.18">.</text>
<text x="442.68" y="100.59">.</text>
<text x="30.41" y="435.13">.</text>
<text x="427.68" y="302.14">.</text>
<text x="47.38" y="489.39">.</text>
<text x="338.80" y="375.69">.</text>
<text x="396.04" y="174.22">+</text>
<text x="355.89" y="377.36">+</text>
<text x="494.89" y="43.58">.</text>
<text x="431.10" y="261.53">.</text>
<text x="146.71" y="186.19">+</text>
<text x="362.56" y="438.41">.</text>
<text x="265.07" y="374.79">+</text>
<text x="240.32" y="162.30">*</text>
<text x="162.76" y="323.53">*</text>
<text x="311.84" y="8.73">.</text>
<text x="252.59" y="464.60">+</text>
<text x="162.55" y="198.60">.</text>
<text x="409.95" y="455.23">.</text>
<text x="21.05" y="496.22">+</text>
<text x="14.72" y="399.15">.</text>
<text x="497.42" y="456.79">.</text>
<text x="73.99" y="69.33">.</text>
<text x="408.24" y="331.68">+</text>
<text x="12.97" y="82.39">+</text>
<text x="159.27" y="396.70">+</text>
<text x="369.98" y="180.40">+</text>
<text x="329.78" y="404.51">.</text>
<text x="214.83" y="361.47">+</text>
<text x="91.23" y="17.69">*</text>
<text x="347.24" y="13.89">+</text>
<text x="446.28" y="67.92">+</text>
<text x="246.56" y="102.97">.</text>
<text x="184.35" y="350.04">.</text>
<text x="184.91" y="148.38">*</text>
<text x="155.88" y="148.21">+</text>
<text x="294.24" y="199.98">*</text>
<text x="7.81" y="210.92">.</text>
<text x="401.22" y="288.97">.</text>
<text x="340.06" y="119.53">+</text>
<text x="306.36" y="55.09">.</text>
<text x="255.17" y="123.99">+</text>
<text x="77.23" y="38.22">.</text>
<text x="114.39" y="163.86">.</text>
<text x="125.17" y="356.04">.</text>
<text x="163.56" y="274.44">+</text>
<text x="121.08" y="7.96">+</text>
<text x="392.38" y="217.14">.</text>
<text x="143.30" y="450.12">+</text>
<text x="178.61" y="234.65">.</text>
<text x="191.18" y="119.60">.</text>
<text x="7.19" y="89.88">+</text>
<text x="103.43" y="411.13">+</text>
<text x="293.54" y="198.18">+</text>
<text x="93.54" y="116.17">.</text>
<text x="351.34" y="292.09">+</text>
<text x="269.90" y="131.24">+</text>
<text x="66.61" y="337.33">+</text>
<text x="4.72" y="91.43">+</text>
<text x="52.18" y="486.84">+</text>
<text x="347.00" y="76.37">.</text>
<text x="443.84" y="358.00">.</text>
<text x="365.45" y="460.05">.</text>
<text x="155.27" y="26.18">.</text>
<text x="471.47" y="435.25">+</text>
<text x="221.14" y="29.83">*</text>
<text x="217.36" y="67.63">*</text>
<text x="46.05" y="131.61">+</text>
<text x="178.05" y="424.66">*</text>
<text x="243.82" y="181.67">+</text>
<text x="304.12" y="487.89">.</text>
<text x="187.36" y="491.05">*</text>
<text x="133.47" y="321.93">+</text>
<text x="253.80" y="332.85">.</text>
<text x="104.92" y="443.76">+</text>
<text x="397.22" y="478.28">+</text>
<text x="498.98" y="135.68">.</text>
<text x="240.71" y="196.55">.</text>
<text x="304.51" y="404.39">.</text>
<text x="241.86" y="158.49">+</text>
<text x="332.22" y="384.35">+</text>
<text x="397.72" y="346.71">+</text>
<text x="204.76" y="138.11">+</text>
<text x="360.14" y="232.58">.</text>
<text x="266.82" y="162.56">+</text>
<text x="483.21" y="32.52">+</text>
<text x="150.36" y="159.28">.</text>
<text x="438.22" y="480.71">.</text>
<text x="132.38" y="438.35">.</text>
<text x="394.13" y="155.64">+</text>
<text x="42.42" y="292.59">.</text>
<text x="68.68" y="421.25">.</text>
<text x="303.85" y="181.06">+</text>
<text x="265.04" y="363.64">.</text>
<text x="331.28" y="344.25">+</text>
<text x="116.53" y="173.19">+</text>
<text x="230.67" y="31.83">+</text>
<text x="21.02" y="391.61">.</text>
<text x="49.49" y="459.06">*</text>
<text x="86.11" y="291.97">.</text>
<text x="157.41" y="115.53">+</text>
<text x="7.61" y="323.89">*</text>
<text x="37.33" y="323.48">.</text>
<text x="150.46" y="351.51">.</text>
<text x="249.68" y="33.20">.</text>
<text x="260.01" y="399.59">+</text>
<text x="241.31" y="427.95">+</text>
<text x="279.11" y="464.22">+</text>
<text x="481.74" y="315.34">.</text>
<text x="299.08" y="116.68">+</text>
<text x="224.21" y="57.95">.</text>
<text x="489.31" y="446.01">+</text>
<text x="451.79" y="394.91">+</text>
<text x="251.23" y="278.89">+</text>
<text x="450.86" y="261.41">*</text>
<text x="339.58" y="499.29">.</text>
<text x="12.23" y="117.98">*</text>
<text x="80.30" y="410.78">+</text>
<text x="39.70" y="326.82">*</text>
<text x="402.58" y="325.82">+</text>
<text x="37.45" y="320.48">.</text>
<text x="19.87" y="472.73">+</text>
<text x="432.99" y="497.34">+</text>
<text x="279.27" y="356.79">+</text>
<text x="352.77" y="59.55">*</text>
<text x="330.52" y="198.29">.</text>
<text x="264.96" y="124.65">+</text>
<text x="348.75" y="220.38">+</text>
<text x="307.73" y="202.50">+</text>
<text x="94.67" y="251.28">*</text>
<text x="460.07" y="398.13">.</text>
<text x="167.31" y="365.74">.</text>
<text x="227.76" y="493.69">.</text>
<text x="471.44" y="441.15">.</text>
<text x="240.08" y="336.80">.</text>
<text x="263.79" y="337.15">.</text>
<text x="269.64" y="148.13">.</text>
<text x="445.10" y="227.71">.</text>
<text x="445.35" y="372.01">+</text>
<text x="308.24" y="91.89">*</text>
<text x="24.87" y="365.88">.</text>
<text x="316.96" y="183.86">.</text>
<text x="77.07" y="277.50">.</text>
<text x="258.37" y="106.90">.</text>
<text x="458.79" y="351.35">.</text>
<text x="313.90" y="116.01">+</text>
<text x="208.95" y="314.74">+</text>
<text x="22.43" y="207.11">.</text>
<text x="227.83" y="92.25">+</text>
<text x="392.07" y="443.09">*</text>
<text x="168.79" y="10.32">.</text>
<text x="34.99" y="334.14">+</text>
<text x="231.13" y="420.13">+</text>
<text x="295.26" y="188.77">.</text>
<text x="272.45" y="216.46">.</text>
<text x="432.32" y="214.10">.</text>
<text x="12.44" y="261.31">+</text>
<text x="100.04" y="203.82">+</text>
<text x="427.95" y="24.42">*</text>
<text x="43.15" y="322.78">+</text>
<text x="80.84" y="316.95">.</text>
<text x="345.67" y="422.09">+</text>
<text x="2.61" y="443.52">.</text>
<text x="86.28" y="403.53">+</text>
<text x="483.39" y="265.45">+</text>
<text x="305.23" y="269.96">.</text>
<text x="264.40" y="139.78">+</text>
<text x="266.29" y="165.56">*</text>
<text x="78.26" y="90.84">+</text>
<text x="231.62" y="311.48">.</text>
<text x="466.60" y="333.16">.</text>
<text x="386.67" y="373.98">.</text>
<text x="441.02" y="493.66">.</text>
<text x="426.23" y="93.06">+</text>
<text x="468.30" y="263.00">+</text>
<text x="84.33" y="203.02">.</text>
<text x="490.17" y="489.92">.</text>
<text x="461.71" y="406.34">+</text>
<text x="427.33" y="380.85">+</text>
<text x="133.84" y="130.97">*</text>
<text x="448.54" y="133.92">+</text>
<text x="248.04" y="161.73">*</text>
<text x="45.10" y="384.56">+</text>
<text x="189.93" y="346.53">.</text>
<text x="497.50" y="182.14">+</text>
<text x="472.74" y="326.44">.</text>
<text x="246.44" y="19.37">+</text>
<text x="8.09" y="190.98">*</text>
<text x="435.40" y="212.21">+</text>
<text x="413.57" y="278.17">+</text>
<text x="194.19" y="318.88">+</text>
<text x="223.76" y="33.89">.</text>
<text x="359.67" y="343.12">*</text>
<text x="285.14" y="486.63">+</text>
<text x="320.32" y="254.82">.</text>
<text x="108.26" y="268.73">+</text>

</svg>