
<svg viewBox="0 0 500 500" xmlns="http://www.w.org/2000/svg" width="100%" height="100%" style="background-color: #0a0a14; font-family: 'Courier New', Courier, monospace;">
    <style>
        text { fill: #aaa; font-size: 10px; text-anchor: middle; dominant-baseline: middle; }
    </style>
    <text x="161.92" y="484.02">.</text>
<text x="93.26" y="370.00">+</text>
<text x="130.72" y="99.70">*</text>
<text x="424.83" y="336.55">*</text>
<text x="367.70" y="481.77">*</text>
<text x="476.16" y="363.34">+</text>
<text x="433.46" y="29.91">.</text>
<text x="336.68" y="465.62">*</text>
<text x="143.04" y="476.97">+</text>
<text x="366.77" y="439.23">+</text>
<text x="348.99" y="86.12">+</text>
<text x="230.17" y="354.69">+</text>
<text x="46.50" y="315.80">.</text>
<text x="279.66" y="307.77">+</text>
<text x="382.36" y="329.35">+</text>
<text x="436.36" y="494.75">.</text>
<text x="47.89" y="442.32">+</text>
<text x="456.89" y="464.76">.</text>
<text x="154.86" y="125.09">.</text>
<text x="122.49" y="221.73">*</text>
<text x="182.33" y="453.30">+</text>
<text x="198.71" y="410.94">+</text>
<text x="441.40" y="432.81">+</text>
<text x="177.07" y="474.01">+</text>
<text x="87.94" y="329.21">.</text>
<text x="170.66" y="57.28">*</text>
<text x="304.12" y="396.85">.</text>
<text x="467.69" y="146.31">+</text>
<text x="443.72" y="347.17">*</text>
<text x="330.75" y="497.61">+</text>
<text x="209.57" y="390.96">.</text>
<text x="372.53" y="91.49">.</text>
<text x="45.64" y="365.15">.</text>
<text x="495.16" y="8.23">+</text>
<text x="315.78" y="144.56">+</text>
<text x="82.03" y="281.57">.</text>
<text x="27.43" y="295.97">+</text>
<text x="358.08" y="231.40">*</text>
<text x="176.65" y="266.45">.</text>
<text x="236.82" y="447.27">*</text>
<text x="321.61" y="310.13">*</text>
<text x="427.03" y="132.41">+</text>
<text x="87.71" y="151.59">+</text>
<text x="218.30" y="88.96">.</text>
<text x="464.58" y="84.61">+</text>
<text x="36.98" y="252.74">.</text>
<text x="199.61" y="338.61">+</text>
<text x="240.78" y="348.51">.</text>
<text x="49.96" y="461.94">.</text>
<text x="128.24" y="173.34">+</text>
<text x="173.76" y="343.01">.</text>
<text x="155.10" y="418.26">.</text>
<text x="13.99" y="277.63">+</text>
<text x="398.99" y="192.86">*</text>
<text x="414.77" y="261.74">+</text>
<text x="496.81" y="223.06">.</text>
<text x="402.67" y="47.08">.</text>
<text x="243.34" y="173.90">*</text>
<text x="409.85" y="339.03">+</text>
<text x="168.49" y="221.03">+</text>
<text x="456.08" y="129.02">.</text>
<text x="261.03" y="282.20">+</text>
<text x="459.67" y="412.19">*</text>
<text x="61.09" y="274.92">+</text>
<text x="435.92" y="15.65">.</text>
<text x="387.29" y="261.77">+</text>
<text x="8.60" y="232.84">+</text>
<text x="65.28" y="149.56">+</text>
<text x="223.40" y="100.82">+</text>
<text x="156.54" y="27.83">+</text>
<text x="366.14" y="7.05">+</text>
<text x="317.04" y="440.07">.</text>
<text x="328.29" y="372.12">.</text>
<text x="365.91" y="363.77">+</text>
<text x="53.11" y="426.67">+</text>
<text x="317.68" y="239.62">.</text>
<text x="373.71" y="473.30">+</text>
<text x="381.00" y="184.69">+</text>
<text x="102.07" y="204.23">.</text>
<text x="55.29" y="231.41">.</text>
<text x="223.48" y="362.35">.</text>
<text x="274.17" y="415.91">+</text>
<text x="1.91" y="414.06">+</text>
<text x="39.45" y="236.63">+</text>
<text x="87.53" y="404.42">.</text>
<text x="372.67" y="65.55">.</text>
<text x="169.07" y="213.05">*</text>
<text x="316.76" y="199.07">.</text>
<text x="68.59" y="388.27">+</text>
<text x="404.40" y="31.58">+</text>
<text x="135.95" y="474.33">+</text>
<text x="232.20" y="293.15">.</text>
<text x="364.94" y="245.45">.</text>
<text x="407.66" y="17.66">.</text>
<text x="144.57" y="482.29">+</text>
<text x="466.47" y="363.06">.</text>
<text x="186.89" y="315.12">.</text>
<text x="427.83" y="129.40">+</text>
<text x="304.97" y="164.97">+</text>
<text x="274.90" y="445.18">*</text>
<text x="114.75" y="23.59">*</text>
<text x="466.37" y="446.83">+</text>
<text x="13.42" y="383.44">+</text>
<text x="318.88" y="415.34">+</text>
<text x="112.73" y="157.32">+</text>
<text x="380.14" y="141.01">.</text>
<text x="69.98" y="47.48">*</text>
<text x="441.26" y="305.17">*</text>
<text x="333.23" y="241.85">+</text>
<text x="292.26" y="110.17">+</text>
<text x="181.49" y="3.56">.</text>
<text x="446.95" y="197.28">.</text>
<text x="35.70" y="54.45">.</text>
<text x="310.04" y="376.16">.</text>
<text x="456.00" y="211.92">.</text>
<text x="435.51" y="294.95">+</text>
<text x="205.83" y="447.40">.</text>
<text x="82.46" y="110.75">.</text>
<text x="372.28" y="57.79">.</text>
<text x="200.96" y="66.21">.</text>
<text x="446.71" y="290.11">.</text>
<text x="298.72" y="249.28">+</text>
<text x="297.41" y="410.83">.</text>
<text x="332.42" y="52.52">.</text>
<text x="428.95" y="291.05">*</text>
<text x="75.30" y="72.98">.</text>
<text x="335.19" y="443.53">.</text>
<text x="168.05" y="23.69">*</text>
<text x="374.07" y="417.08">+</text>
<text x="48.81" y="77.12">+</text>
<text x="27.66" y="313.77">.</text>
<text x="336.46" y="108.33">*</text>
<text x="335.28" y="441.64">+</text>
<text x="65.27" y="305.37">.</text>
<text x="386.36" y="241.60">.</text>
<text x="94.37" y="431.78">+</text>
<text x="299.99" y="45.26">+</text>
<text x="387.47" y="399.78">+</text>
<text x="159.41" y="185.47">+</text>
<text x="65.59" y="265.78">+</text>
<text x="150.67" y="74.45">+</text>
<text x="243.58" y="416.65">+</text>
<text x="25.13" y="99.25">*</text>
<text x="225.13" y="219.10">+</text>
<text x="12.88" y="33.77">.</text>
<text x="261.29" y="175.92">*</text>
<text x="187.06" y="43.82">*</text>
<text x="18.63" y="339.47">.</text>
<text x="208.08" y="68.78">*</text>
<text x="362.04" y="360.58">+</text>
<text x="298.39" y="301.06">+</text>
<text x="455.43" y="144.86">+</text>
<text x="56.74" y="465.97">+</text>
<text x="190.79" y="255.48">.</text>
<text x="499.22" y="114.89">.</text>
<text x="140.19" y="146.29">.</text>
<text x="324.06" y="333.09">+</text>
<text x="204.52" y="381.10">.</text>
<text x="411.22" y="102.32">.</text>
<text x="286.70" y="70.69">+</text>
<text x="110.21" y="350.29">.</text>
<text x="445.96" y="180.58">.</text>
<text x="177.38" y="138.00">.</text>
<text x="419.16" y="122.25">.</text>
<text x="56.10" y="345.09">+</text>
<text x="108.73" y="76.82">+</text>
<text x="286.71" y="453.18">+</text>
<text x="95.22" y="218.03">.</text>
<text x="380.61" y="174.02">+</text>
<text x="16.79" y="240.13">*</text>
<text x="129.23" y="487.03">.</text>
<text x="366.07" y="77.45">*</text>
<text x="25.45" y="296.92">+</text>
<text x="419.99" y="165.86">.</text>
<text x="1.91" y="491.01">*</text>
<text x="449.12" y="98.42">.</text>
<text x="436.10" y="240.70">.</text>
<text x="229.56" y="490.36">.</text>
<text x="109.06" y="175.75">+</text>
<text x="453.36" y="277.04">+</text>
<text x="120.78" y="218.61">.</text>
<text x="36.45" y="362.88">.</text>
<text x="249.10" y="107.26">+</text>
<text x="429.05" y="53.70">+</text>
<text x="471.57" y="1.66">+</text>
<text x="246.79" y="14.10">.</text>
<text x="499.83" y="11.21">+</text>
<text x="62.23" y="425.88">.</text>
<text x="38.20" y="490.41">+</text>
<text x="451.82" y="398.46">+</text>
<text x="261.53" y="134.64">.</text>
<text x="280.47" y="155.88">+</text>
<text x="398.28" y="49.98">+</text>
<text x="463.34" y="155.15">.</text>
<text x="369.44" y="147.22">.</text>
<text x="387.36" y="285.63">+</text>
<text x="297.35" y="342.52">*</text>
<text x="372.97" y="200.10">*</text>
<text x="350.25" y="9.92">+</text>
<text x="266.34" y="400.40">.</text>
<text x="382.23" y="338.00">*</text>
<text x="433.68" y="79.94">.</text>
<text x="304.36" y="161.72">+</text>
<text x="492.09" y="327.05">+</text>
<text x="312.37" y="297.13">.</text>

</svg>