
<svg viewBox="0 0 500 500" xmlns="http://www.w.org/2000/svg" width="100%" height="100%" style="background-color: #0a0a14; font-family: 'Courier New', Courier, monospace;">
    <style>
        text { fill: #aaa; font-size: 10px; text-anchor: middle; dominant-baseline: middle; }
    </style>
    <text x="46.26" y="101.31">+</text>
<text x="449.76" y="348.18">+</text>
<text x="202.18" y="312.98">*</text>
<text x="55.24" y="483.05">+</text>
<text x="50.92" y="92.72">*</text>
<text x="163.03" y="294.70">+</text>
<text x="239.20" y="474.41">*</text>
<text x="445.63" y="459.49">+</text>
<text x="435.57" y="248.65">*</text>
<text x="168.85" y="481.41">.</text>
<text x="163.26" y="459.47">.</text>
<text x="60.73" y="75.48">*</text>
<text x="19.71" y="400.71">*</text>
<text x="473.31" y="229.57">*</text>
<text x="48.25" y="398.68">.</text>
<text x="311.74" y="478.03">.</text>
<text x="46.93" y="298.20">+</text>
<text x="263.89" y="466.41">+</text>
<text x="223.85" y="438.46">.</text>
<text x="428.97" y="401.64">.</text>
<text x="115.40" y="450.65">.</text>
<text x="299.76" y="14.89">.</text>
<text x="212.04" y="189.69">.</text>
<text x="302.16" y="258.81">.</text>
<text x="9.38" y="140.08">+</text>
<text x="394.75" y="455.60">.</text>
<text x="34.35" y="451.64">+</text>
<text x="397.36" y="33.06">.</text>
<text x="360.06" y="248.67">+</text>
<text x="286.33" y="148.39">+</text>
<text x="38.22" y="444.10">+</text>
<text x="95.98" y="420.81">.</text>
<text x="237.17" y="106.69">.</text>
<text x="271.95" y="430.35">+</text>
<text x="414.59" y="451.87">.</text>
<text x="112.16" y="180.61">+</text>
<text x="482.97" y="334.07">+</text>
<text x="255.15" y="220.99">+</text>
<text x="482.41" y="237.88">+</text>
<text x="299.62" y="154.74">+</text>
<text x="58.25" y="189.20">+</text>
<text x="339.81" y="392.89">+</text>
<text x="387.11" y="31.20">.</text>
<text x="454.91" y="328.76">.</text>
<text x="357.70" y="256.90">*</text>
<text x="313.59" y="264.63">.</text>
<text x="371.64" y="317.29">+</text>
<text x="351.27" y="71.30">+</text>
<text x="234.66" y="166.27">.</text>
<text x="350.34" y="321.88">.</text>
<text x="410.50" y="394.62">.</text>
<text x="461.20" y="123.39">.</text>
<text x="318.13" y="474.54">*</text>
<text x="77.08" y="27.83">+</text>
<text x="153.14" y="382.98">*</text>
<text x="69.20" y="240.52">+</text>
<text x="457.32" y="134.31">+</text>
<text x="76.98" y="24.26">*</text>
<text x="317.20" y="348.17">.</text>
<text x="236.46" y="474.03">.</text>
<text x="373.57" y="193.77">+</text>
<text x="108.42" y="424.14">.</text>
<text x="180.13" y="260.61">+</text>
<text x="325.47" y="118.83">.</text>
<text x="462.12" y="390.95">.</text>
<text x="485.91" y="464.36">.</text>
<text x="367.73" y="104.50">+</text>
<text x="78.34" y="484.26">.</text>
<text x="437.01" y="202.00">.</text>
<text x="203.93" y="65.24">+</text>
<text x="299.62" y="1.27">.</text>
<text x="109.82" y="319.28">+</text>
<text x="255.27" y="259.15">.</text>
<text x="115.38" y="264.38">+</text>
<text x="78.53" y="13.43">.</text>
<text x="416.94" y="255.97">+</text>
<text x="156.77" y="22.97">+</text>
<text x="460.85" y="294.01">+</text>
<text x="265.46" y="282.25">.</text>
<text x="206.88" y="219.40">+</text>
<text x="12.41" y="253.07">+</text>
<text x="242.90" y="127.82">+</text>
<text x="90.47" y="197.79">+</text>
<text x="136.41" y="449.51">*</text>
<text x="329.92" y="64.74">+</text>
<text x="276.43" y="162.95">.</text>
<text x="292.05" y="264.38">*</text>
<text x="36.99" y="362.26">+</text>
<text x="41.02" y="488.20">+</text>
<text x="215.44" y="314.17">.</text>
<text x="112.44" y="208.80">*</text>
<text x="346.41" y="386.46">+</text>
<text x="14.08" y="190.82">+</text>
<text x="212.28" y="184.99">+</text>
<text x="119.45" y="321.05">.</text>
<text x="83.98" y="122.84">*</text>
<text x="228.50" y="13.75">+</text>
<text x="394.24" y="287.98">.</text>
<text x="490.00" y="89.65">.</text>
<text x="118.08" y="288.48">+</text>
<text x="228.85" y="16.25">.</text>
<text x="27.24" y="479.82">.</text>
<text x="0.74" y="192.99">*</text>
<text x="342.81" y="218.06">.</text>
<text x="130.87" y="369.47">*</text>
<text x="26.37" y="50.23">+</text>
<text x="56.31" y="121.57">*</text>
<text x="200.75" y="422.80">+</text>
<text x="175.13" y="0.22">*</text>
<text x="223.80" y="105.14">.</text>
<text x="105.70" y="32.66">.</text>
<text x="266.40" y="305.65">+</text>
<text x="230.10" y="241.41">*</text>
<text x="228.67" y="392.12">+</text>
<text x="438.55" y="388.28">*</text>
<text x="270.24" y="221.80">+</text>
<text x="369.03" y="86.35">.</text>
<text x="158.42" y="383.41">.</text>
<text x="105.93" y="456.40">.</text>
<text x="443.33" y="101.97">*</text>
<text x="235.25" y="211.95">*</text>
<text x="183.84" y="480.45">.</text>
<text x="494.37" y="317.27">.</text>
<text x="18.55" y="167.63">+</text>
<text x="409.21" y="149.96">+</text>
<text x="170.35" y="379.79">+</text>
<text x="455.61" y="334.74">*</text>
<text x="344.22" y="415.79">+</text>
<text x="407.71" y="187.97">*</text>
<text x="250.79" y="209.67">.</text>
<text x="124.97" y="282.77">.</text>
<text x="198.97" y="161.92">+</text>
<text x="6.79" y="468.28">.</text>
<text x="207.40" y="63.08">.</text>
<text x="251.31" y="6.04">+</text>
<text x="156.62" y="96.87">.</text>
<text x="453.57" y="343.19">*</text>
<text x="137.58" y="344.73">+</text>
<text x="499.03" y="243.79">*</text>
<text x="301.79" y="381.29">.</text>
<text x="212.85" y="369.27">+</text>
<text x="493.77" y="69.72">+</text>
<text x="337.97" y="302.59">*</text>
<text x="387.97" y="74.27">+</text>
<text x="229.80" y="132.15">*</text>
<text x="55.00" y="175.28">+</text>
<text x="271.35" y="46.85">+</text>
<text x="197.75" y="146.95">*</text>
<text x="177.63" y="317.57">.</text>
<text x="340.48" y="215.83">.</text>
<text x="124.54" y="415.13">.</text>
<text x="226.85" y="475.69">+</text>
<text x="481.42" y="52.40">*</text>
<text x="477.76" y="294.64">+</text>
<text x="341.84" y="111.57">.</text>
<text x="235.50" y="223.12">+</text>
<text x="114.49" y="228.59">+</text>
<text x="434.37" y="339.72">.</text>
<text x="57.79" y="282.61">+</text>
<text x="266.62" y="86.78">*</text>
<text x="133.92" y="441.96">.</text>
<text x="54.23" y="466.33">+</text>
<text x="478.06" y="422.87">.</text>
<text x="140.33" y="124.89">.</text>
<text x="336.57" y="217.63">.</text>
<text x="157.81" y="402.11">.</text>
<text x="259.53" y="480.02">+</text>
<text x="353.20" y="110.03">.</text>
<text x="164.73" y="58.27">+</text>
<text x="54.11" y="295.13">+</text>
<text x="192.93" y="349.41">+</text>
<text x="266.91" y="454.80">*</text>
<text x="317.92" y="385.74">.</text>
<text x="117.70" y="307.92">.</text>
<text x="8.23" y="438.78">+</text>
<text x="470.00" y="10.57">+</text>
<text x="354.51" y="222.61">.</text>
<text x="338.08" y="77.94">+</text>
<text x="362.98" y="186.72">+</text>
<text x="280.48" y="90.41">+</text>
<text x="362.39" y="89.04">.</text>
<text x="186.40" y="179.35">+</text>
<text x="36.90" y="345.08">+</text>
<text x="69.73" y="70.00">+</text>
<text x="13.22" y="355.22">+</text>
<text x="489.63" y="184.32">.</text>
<text x="46.51" y="387.33">.</text>
<text x="310.74" y="158.71">.</text>
<text x="346.54" y="362.88">*</text>
<text x="233.70" y="324.99">.</text>
<text x="4.65" y="354.26">.</text>
<text x="114.03" y="354.72">+</text>
<text x="118.06" y="13.33">+</text>
<text x="328.79" y="309.63">+</text>
<text x="259.24" y="396.05">.</text>
<text x="219.68" y="429.30">*</text>
<text x="387.90" y="462.61">+</text>
<text x="109.48" y="277.31">.</text>
<text x="147.24" y="448.99">+</text>
<text x="329.49" y="227.68">+</text>
<text x="361.23" y="186.69">*</text>
<text x="318.25" y="79.28">+</text>
<text x="324.55" y="260.80">+</text>
<text x="67.35" y="338.74">+</text>
<text x="432.03" y="209.00">.</text>
<text x="272.41" y="454.53">+</text>
<text x="257.87" y="272.40">+</text>
<text x="198.43" y="132.15">+</text>
<text x="204.16" y="218.27">.</text>
<text x="326.88" y="216.10">.</text>
<text x="490.68" y="470.07">.</text>
<text x="453.63" y="335.29">.</text>
<text x="116.75" y="372.86">+</text>
<text x="480.61" y="430.15">.</text>

</svg>