
<svg viewBox="0 0 500 500" xmlns="http://www.w.org/2000/svg" width="100%" height="100%" style="background-color: #0a0a14; font-family: 'Courier New', Courier, monospace;">
    <style>
        text { fill: #aaa; font-size: 10px; text-anchor: middle; dominant-baseline: middle; }
    </style>
    <text x="461.94" y="78.36">+</text>
<text x="108.59" y="98.42">*</text>
<text x="487.56" y="197.41">+</text>
<text x="394.21" y="122.10">*</text>
<text x="31.98" y="243.28">*</text>
<text x="477.38" y="95.87">.</text>
<text x="292.43" y="378.21">.</text>
<text x="372.18" y="15.04">+</text>
<text x="450.06" y="24.56">*</text>
<text x="430.56" y="434.70">+</text>
<text x="123.69" y="335.80">*</text>
<text x="211.75" y="217.63">.</text>
<text x="110.66" y="322.16">+</text>
<text x="197.23" y="87.62">.</text>
<text x="10.28" y="104.12">.</text>
<text x="382.36" y="149.73">.</text>
<text x="173.63" y="59.91">+</text>
<text x="216.52" y="417.44">.</text>
<text x="149.66" y="342.39">.</text>
<text x="14.74" y="493.96">+</text>
<text x="231.70" y="121.91">.</text>
<text x="418.73" y="166.02">.</text>
<text x="243.90" y="347.20">.</text>
<text x="404.24" y="130.92">.</text>
<text x="351.79" y="229.59">+</text>
<text x="28.34" y="121.55">+</text>
<text x="367.25" y="373.60">*</text>
<text x="204.66" y="253.05">.</text>
<text x="375.93" y="355.24">.</text>
<text x="17.69" y="357.11">+</text>
<text x="145.75" y="131.64">.</text>
<text x="199.03" y="119.54">*</text>
<text x="201.90" y="96.60">+</text>
<text x="388.93" y="239.23">.</text>
<text x="352.50" y="311.73">+</text>
<text x="247.80" y="423.10">+</text>
<text x="473.79" y="239.61">*</text>
<text x="17.29" y="463.67">+</text>
<text x="312.75" y="399.28">+</text>
<text x="88.75" y="54.01">+</text>
<text x="491.95" y="464.63">+</text>
<text x="247.95" y="319.01">+</text>
<text x="272.40" y="10.69">+</text>
<text x="18.59" y="302.16">+</text>
<text x="448.75" y="156.89">+</text>
<text x="332.98" y="309.05">.</text>
<text x="245.99" y="9.11">.</text>
<text x="152.81" y="243.90">+</text>
<text x="6.12" y="469.63">.</text>
<text x="496.65" y="379.59">.</text>
<text x="314.97" y="76.16">*</text>
<text x="290.19" y="367.26">.</text>
<text x="57.89" y="391.60">+</text>
<text x="168.71" y="291.62">.</text>
<text x="469.53" y="173.45">.</text>
<text x="253.50" y="43.10">+</text>
<text x="147.64" y="191.13">+</text>
<text x="200.30" y="212.36">+</text>
<text x="309.28" y="244.22">+</text>
<text x="196.96" y="439.43">.</text>
<text x="37.81" y="187.01">+</text>
<text x="198.65" y="299.37">+</text>
<text x="453.66" y="433.96">.</text>
<text x="148.23" y="327.92">*</text>
<text x="289.12" y="126.93">+</text>
<text x="5.08" y="361.72">.</text>
<text x="354.43" y="156.85">+</text>
<text x="66.96" y="442.18">.</text>
<text x="147.86" y="92.92">*</text>
<text x="75.34" y="334.91">.</text>
<text x="485.36" y="228.87">+</text>
<text x="255.72" y="479.69">.</text>
<text x="20.32" y="462.04">.</text>
<text x="299.30" y="266.63">.</text>
<text x="466.26" y="27.81">+</text>
<text x="379.88" y="301.45">+</text>
<text x="245.38" y="428.70">*</text>
<text x="458.91" y="112.41">+</text>
<text x="245.85" y="362.61">.</text>
<text x="111.74" y="166.32">.</text>
<text x="309.84" y="390.84">.</text>
<text x="76.20" y="346.46">*</text>
<text x="320.20" y="356.73">.</text>
<text x="50.19" y="42.04">+</text>
<text x="406.22" y="77.29">.</text>
<text x="320.47" y="271.70">+</text>
<text x="409.42" y="40.06">+</text>
<text x="454.12" y="224.30">+</text>
<text x="112.67" y="453.93">+</text>
<text x="36.46" y="247.79">.</text>
<text x="262.37" y="83.47">+</text>
<text x="48.93" y="61.39">+</text>
<text x="444.86" y="153.20">*</text>
<text x="92.56" y="127.11">+</text>
<text x="60.63" y="316.07">.</text>
<text x="401.37" y="36.08">.</text>
<text x="350.70" y="184.10">+</text>
<text x="66.36" y="1.99">.</text>
<text x="451.82" y="466.00">.</text>
<text x="39.77" y="345.56">.</text>
<text x="182.76" y="144.60">.</text>
<text x="498.94" y="124.15">.</text>
<text x="448.54" y="375.62">.</text>
<text x="464.68" y="374.06">+</text>
<text x="153.40" y="228.01">+</text>
<text x="64.68" y="332.19">*</text>
<text x="181.42" y="180.17">.</text>
<text x="459.60" y="132.47">*</text>
<text x="397.36" y="116.00">.</text>
<text x="313.28" y="379.00">.</text>
<text x="440.48" y="443.27">*</text>
<text x="202.94" y="236.29">.</text>
<text x="7.08" y="365.39">.</text>
<text x="360.23" y="9.76">+</text>
<text x="291.16" y="460.93">*</text>
<text x="489.48" y="171.63">.</text>
<text x="469.57" y="45.69">*</text>
<text x="315.57" y="384.37">+</text>
<text x="449.32" y="13.47">.</text>
<text x="299.38" y="99.75">.</text>
<text x="123.15" y="184.59">.</text>
<text x="414.10" y="15.01">+</text>
<text x="252.69" y="12.32">+</text>
<text x="427.53" y="220.19">+</text>
<text x="430.55" y="375.26">.</text>
<text x="29.34" y="31.06">+</text>
<text x="298.70" y="174.33">*</text>
<text x="260.22" y="341.43">.</text>
<text x="129.06" y="41.79">.</text>
<text x="35.32" y="212.00">.</text>
<text x="432.65" y="6.08">*</text>
<text x="226.62" y="215.67">.</text>
<text x="485.57" y="88.54">.</text>
<text x="370.58" y="134.38">+</text>
<text x="28.24" y="167.22">*</text>
<text x="163.20" y="66.95">+</text>
<text x="382.27" y="170.09">.</text>
<text x="366.75" y="341.14">+</text>
<text x="303.47" y="182.81">+</text>
<text x="79.46" y="409.86">+</text>
<text x="196.49" y="225.64">.</text>
<text x="248.59" y="364.91">+</text>
<text x="87.48" y="346.43">+</text>
<text x="438.54" y="182.61">+</text>
<text x="210.26" y="289.14">.</text>
<text x="322.43" y="369.44">+</text>
<text x="39.18" y="50.74">+</text>
<text x="148.50" y="280.57">+</text>
<text x="140.19" y="358.79">.</text>
<text x="318.42" y="22.80">+</text>
<text x="58.16" y="140.75">+</text>
<text x="391.53" y="177.55">.</text>
<text x="233.15" y="33.80">.</text>
<text x="434.04" y="92.26">*</text>
<text x="52.79" y="320.79">*</text>
<text x="285.53" y="489.41">*</text>
<text x="352.36" y="109.67">.</text>
<text x="250.81" y="380.71">+</text>
<text x="470.65" y="474.61">.</text>
<text x="295.19" y="323.94">*</text>
<text x="40.09" y="480.10">+</text>
<text x="149.22" y="169.42">+</text>
<text x="144.32" y="64.22">+</text>
<text x="489.83" y="191.45">+</text>
<text x="187.19" y="472.24">.</text>
<text x="233.61" y="201.99">.</text>
<text x="305.96" y="249.25">+</text>
<text x="6.33" y="445.62">+</text>
<text x="69.09" y="379.76">.</text>
<text x="264.78" y="347.61">+</text>
<text x="141.57" y="223.07">+</text>
<text x="357.73" y="458.95">+</text>
<text x="77.77" y="293.83">*</text>
<text x="473.80" y="431.85">+</text>
<text x="157.88" y="1.40">+</text>
<text x="173.33" y="358.73">+</text>
<text x="395.21" y="404.53">+</text>
<text x="381.99" y="190.62">+</text>
<text x="214.24" y="453.00">.</text>
<text x="77.36" y="274.15">.</text>
<text x="125.96" y="380.13">+</text>
<text x="396.21" y="140.67">*</text>
<text x="146.42" y="477.60">.</text>
<text x="73.82" y="432.85">*</text>
<text x="482.19" y="401.79">.</text>
<text x="313.11" y="295.18">.</text>
<text x="141.18" y="440.31">+</text>
<text x="357.45" y="452.47">*</text>
<text x="137.47" y="161.54">*</text>
<text x="364.37" y="256.05">+</text>
<text x="496.74" y="254.75">+</text>
<text x="266.91" y="239.44">+</text>
<text x="454.49" y="300.16">+</text>
<text x="478.21" y="344.05">+</text>
<text x="72.66" y="411.95">.</text>
<text x="86.76" y="148.54">.</text>
<text x="341.70" y="464.93">*</text>
<text x="326.43" y="220.81">*</text>
<text x="418.22" y="147.13">+</text>
<text x="61.13" y="26.75">+</text>
<text x="101.62" y="251.25">+</text>
<text x="414.71" y="487.84">.</text>
<text x="169.61" y="236.38">+</text>
<text x="72.58" y="349.34">+</text>

</svg>