
<svg viewBox="0 0 500 500" xmlns="http://www.w.org/2000/svg" width="100%" height="100%" style="background-color: #0a0a14; font-family: 'Courier New', Courier, monospace;">
    <style>
        text { fill: #aaa; font-size: 10px; text-anchor: middle; dominant-baseline: middle; }
    </style>
    <text x="276.74" y="476.12">+</text>
<text x="161.78" y="311.79">+</text>
<text x="74.21" y="124.20">*</text>
<text x="128.25" y="162.01">.</text>
<text x="210.29" y="361.81">*</text>
<text x="317.39" y="301.39">+</text>
<text x="245.89" y="281.26">+</text>
<text x="24.51" y="39.71">.</text>
<text x="211.14" y="266.67">.</text>
<text x="339.80" y="260.03">+</text>
<text x="102.25" y="438.51">.</text>
<text x="348.83" y="471.10">+</text>
<text x="278.24" y="264.20">.</text>
<text x="105.85" y="3.94">.</text>
<text x="463.67" y="208.98">.</text>
<text x="39.75" y="172.05">*</text>
<text x="44.54" y="56.97">.</text>
<text x="80.78" y="352.13">*</text>
<text x="53.74" y="463.70">.</text>
<text x="34.50" y="131.88">.</text>
<text x="162.90" y="50.49">+</text>
<text x="114.59" y="168.58">.</text>
<text x="7.33" y="247.60">.</text>
<text x="137.83" y="426.14">*</text>
<text x="448.80" y="21.44">+</text>
<text x="294.25" y="266.73">+</text>
<text x="309.36" y="356.01">*</text>
<text x="42.34" y="264.56">+</text>
<text x="157.40" y="94.07">+</text>
<text x="42.63" y="33.48">.</text>
<text x="491.86" y="226.67">.</text>
<text x="465.82" y="393.06">.</text>
<text x="211.56" y="107.59">+</text>
<text x="371.37" y="337.15">*</text>
<text x="297.85" y="265.92">.</text>
<text x="430.17" y="111.89">*</text>
<text x="41.50" y="465.25">.</text>
<text x="126.51" y="285.22">*</text>
<text x="247.94" y="480.73">+</text>
<text x="323.39" y="342.10">.</text>
<text x="95.31" y="34.41">.</text>
<text x="314.11" y="184.54">*</text>
<text x="2.91" y="92.90">.</text>
<text x="445.41" y="169.98">+</text>
<text x="25.30" y="221.41">.</text>
<text x="484.05" y="36.43">+</text>
<text x="335.23" y="160.87">+</text>
<text x="68.85" y="147.46">.</text>
<text x="374.16" y="458.65">+</text>
<text x="352.66" y="382.14">.</text>
<text x="492.64" y="403.60">+</text>
<text x="481.52" y="226.26">+</text>
<text x="175.83" y="224.97">+</text>
<text x="295.53" y="483.32">*</text>
<text x="302.44" y="80.39">.</text>
<text x="296.44" y="469.34">.</text>
<text x="262.16" y="350.73">+</text>
<text x="209.87" y="43.73">.</text>
<text x="153.49" y="204.22">.</text>
<text x="328.43" y="323.57">+</text>
<text x="383.48" y="27.97">.</text>
<text x="284.13" y="8.59">+</text>
<text x="69.24" y="148.93">+</text>
<text x="156.58" y="334.67">+</text>
<text x="219.23" y="299.31">.</text>
<text x="113.13" y="490.24">.</text>
<text x="194.83" y="78.66">.</text>
<text x="374.98" y="397.22">+</text>
<text x="178.00" y="212.98">+</text>
<text x="182.36" y="64.36">.</text>
<text x="92.91" y="348.11">.</text>
<text x="34.77" y="114.59">*</text>
<text x="335.26" y="161.44">+</text>
<text x="83.73" y="488.17">+</text>
<text x="408.46" y="405.35">+</text>
<text x="175.53" y="461.33">.</text>
<text x="427.32" y="29.96">.</text>
<text x="219.79" y="401.79">+</text>
<text x="40.74" y="359.32">*</text>
<text x="471.62" y="251.83">+</text>
<text x="300.79" y="422.79">+</text>
<text x="451.43" y="85.60">+</text>
<text x="397.56" y="277.51">+</text>
<text x="77.34" y="351.04">+</text>
<text x="415.14" y="81.06">+</text>
<text x="261.75" y="260.18">+</text>
<text x="306.48" y="161.94">.</text>
<text x="8.41" y="313.98">.</text>
<text x="83.96" y="31.40">.</text>
<text x="103.58" y="417.18">+</text>
<text x="68.60" y="403.09">.</text>
<text x="272.11" y="103.03">.</text>
<text x="184.54" y="216.71">.</text>
<text x="103.67" y="373.05">.</text>
<text x="460.46" y="214.24">.</text>
<text x="284.59" y="234.35">.</text>
<text x="37.88" y="45.33">+</text>
<text x="18.52" y="297.88">.</text>
<text x="259.04" y="332.60">.</text>
<text x="218.40" y="272.55">+</text>
<text x="274.92" y="381.21">.</text>
<text x="273.60" y="186.58">+</text>
<text x="428.79" y="436.33">+</text>
<text x="424.94" y="111.76">+</text>
<text x="315.39" y="455.74">.</text>
<text x="43.14" y="443.04">.</text>
<text x="179.45" y="101.97">+</text>
<text x="5.75" y="493.69">+</text>
<text x="324.03" y="497.83">+</text>
<text x="438.48" y="64.24">.</text>
<text x="119.89" y="179.25">.</text>
<text x="302.14" y="492.95">.</text>
<text x="241.25" y="179.84">.</text>
<text x="20.29" y="99.16">.</text>
<text x="493.36" y="380.51">.</text>
<text x="3.39" y="101.23">*</text>
<text x="420.64" y="321.55">.</text>
<text x="278.59" y="340.06">.</text>
<text x="46.68" y="267.48">.</text>
<text x="164.04" y="170.36">.</text>
<text x="330.94" y="281.49">.</text>
<text x="351.33" y="430.48">+</text>
<text x="388.05" y="72.33">+</text>
<text x="350.70" y="7.02">+</text>
<text x="465.60" y="101.59">+</text>
<text x="181.47" y="416.52">+</text>
<text x="146.22" y="323.08">.</text>
<text x="340.43" y="441.13">+</text>
<text x="354.81" y="37.39">.</text>
<text x="149.67" y="193.10">+</text>
<text x="468.73" y="37.32">+</text>
<text x="27.85" y="377.04">.</text>
<text x="91.89" y="364.54">*</text>
<text x="456.46" y="248.46">.</text>
<text x="208.99" y="249.60">+</text>
<text x="473.48" y="183.21">.</text>
<text x="334.03" y="214.47">.</text>
<text x="360.61" y="423.96">.</text>
<text x="50.23" y="158.84">.</text>
<text x="51.29" y="233.53">.</text>
<text x="345.70" y="101.06">*</text>
<text x="343.52" y="205.23">+</text>
<text x="11.34" y="282.17">+</text>
<text x="121.55" y="53.47">.</text>
<text x="301.02" y="244.08">*</text>
<text x="230.69" y="111.26">.</text>
<text x="387.50" y="406.42">.</text>
<text x="349.93" y="164.41">+</text>
<text x="301.45" y="60.34">+</text>
<text x="66.87" y="453.60">+</text>
<text x="197.35" y="472.47">.</text>
<text x="77.88" y="429.18">+</text>
<text x="373.36" y="305.01">.</text>
<text x="459.59" y="146.35">.</text>
<text x="91.84" y="299.39">+</text>
<text x="36.47" y="133.67">.</text>
<text x="35.23" y="498.34">+</text>
<text x="6.83" y="12.85">+</text>
<text x="134.43" y="88.09">.</text>
<text x="338.60" y="400.30">*</text>
<text x="152.09" y="399.87">.</text>
<text x="295.38" y="57.90">.</text>
<text x="33.47" y="409.38">.</text>
<text x="430.16" y="103.67">+</text>
<text x="376.90" y="244.68">+</text>
<text x="235.50" y="161.39">.</text>
<text x="230.55" y="469.00">.</text>
<text x="160.41" y="305.54">.</text>
<text x="169.45" y="179.98">*</text>
<text x="377.96" y="417.00">.</text>
<text x="493.14" y="465.04">.</text>
<text x="487.09" y="63.21">+</text>
<text x="3.58" y="401.56">.</text>
<text x="428.20" y="322.44">.</text>
<text x="220.85" y="8.18">+</text>
<text x="12.88" y="67.87">+</text>
<text x="150.46" y="493.43">*</text>
<text x="232.40" y="421.58">+</text>
<text x="68.17" y="211.83">+</text>
<text x="345.98" y="266.62">.</text>
<text x="310.42" y="222.57">.</text>
<text x="440.85" y="175.11">+</text>
<text x="479.03" y="470.60">*</text>
<text x="415.20" y="230.14">*</text>
<text x="426.34" y="241.24">+</text>
<text x="329.23" y="478.58">+</text>
<text x="141.60" y="315.54">+</text>
<text x="337.99" y="427.96">+</text>
<text x="191.72" y="215.29">.</text>
<text x="53.58" y="249.67">.</text>
<text x="104.70" y="185.36">.</text>
<text x="470.06" y="303.42">.</text>
<text x="7.09" y="191.27">+</text>
<text x="140.57" y="140.30">+</text>
<text x="437.20" y="478.33">+</text>
<text x="385.81" y="291.33">.</text>
<text x="236.75" y="47.62">.</text>
<text x="408.35" y="355.92">.</text>
<text x="355.28" y="67.64">.</text>
<text x="69.41" y="211.38">+</text>
<text x="110.29" y="188.78">.</text>
<text x="224.47" y="217.15">.</text>
<text x="396.42" y="443.46">+</text>
<text x="290.38" y="373.40">+</text>
<text x="400.33" y="97.08">.</text>
<text x="354.06" y="323.50">+</text>

</svg>