
<svg viewBox="0 0 500 500" xmlns="http://www.w.org/2000/svg" width="100%" height="100%" style="background-color: #0a0a14; font-family: 'Courier New', Courier, monospace;">
    <style>
        text { fill: #aaa; font-size: 10px; text-anchor: middle; dominant-baseline: middle; }
    </style>
    <text x="128.05" y="229.27">.</text>
<text x="413.57" y="238.65">+</text>
<text x="460.46" y="125.57">+</text>
<text x="279.96" y="120.30">+</text>
<text x="363.50" y="396.15">.</text>
<text x="194.60" y="451.79">+</text>
<text x="333.42" y="143.91">*</text>
<text x="215.59" y="496.75">*</text>
<text x="415.46" y="71.55">.</text>
<text x="396.84" y="298.56">+</text>
<text x="132.74" y="355.41">.</text>
<text x="220.97" y="197.28">.</text>
<text x="154.43" y="279.85">+</text>
<text x="492.40" y="312.27">.</text>
<text x="169.76" y="15.69">.</text>
<text x="245.92" y="218.36">.</text>
<text x="6.17" y="471.50">+</text>
<text x="186.35" y="152.55">.</text>
<text x="479.63" y="215.68">.</text>
<text x="48.75" y="370.09">.</text>
<text x="113.65" y="182.56">+</text>
<text x="26.93" y="109.88">*</text>
<text x="219.34" y="406.35">*</text>
<text x="28.07" y="350.91">.</text>
<text x="359.13" y="71.67">.</text>
<text x="433.94" y="121.81">.</text>
<text x="233.50" y="30.45">.</text>
<text x="368.16" y="97.67">+</text>
<text x="190.54" y="287.24">.</text>
<text x="63.17" y="96.95">+</text>
<text x="148.42" y="190.06">.</text>
<text x="184.65" y="308.50">+</text>
<text x="304.74" y="0.79">.</text>
<text x="166.41" y="423.00">*</text>
<text x="189.44" y="71.22">.</text>
<text x="181.13" y="233.79">.</text>
<text x="57.03" y="334.37">+</text>
<text x="223.86" y="327.37">+</text>
<text x="290.12" y="499.29">.</text>
<text x="42.49" y="140.51">+</text>
<text x="228.64" y="351.94">.</text>
<text x="18.81" y="431.60">+</text>
<text x="5.45" y="262.94">.</text>
<text x="150.20" y="124.17">+</text>
<text x="4.60" y="12.37">.</text>
<text x="387.90" y="19.51">.</text>
<text x="409.30" y="359.53">+</text>
<text x="413.67" y="180.36">.</text>
<text x="394.41" y="172.09">*</text>
<text x="87.27" y="371.14">.</text>
<text x="132.23" y="428.94">+</text>
<text x="103.24" y="370.50">.</text>
<text x="484.31" y="449.27">.</text>
<text x="224.53" y="318.96">.</text>
<text x="174.13" y="446.44">+</text>
<text x="51.96" y="445.71">.</text>
<text x="304.90" y="204.93">+</text>
<text x="193.88" y="35.46">+</text>
<text x="451.06" y="371.69">.</text>
<text x="73.07" y="275.37">+</text>
<text x="435.88" y="298.90">+</text>
<text x="420.21" y="20.45">+</text>
<text x="299.10" y="366.00">+</text>
<text x="110.20" y="425.33">+</text>
<text x="411.32" y="433.86">+</text>
<text x="266.51" y="259.55">.</text>
<text x="258.79" y="117.97">+</text>
<text x="227.00" y="355.26">+</text>
<text x="3.13" y="294.97">.</text>
<text x="333.11" y="294.71">+</text>
<text x="366.81" y="371.80">+</text>
<text x="283.13" y="359.91">+</text>
<text x="193.81" y="0.76">+</text>
<text x="373.50" y="171.94">+</text>
<text x="108.28" y="85.68">*</text>
<text x="229.06" y="184.30">*</text>
<text x="11.28" y="496.27">.</text>
<text x="302.36" y="64.40">.</text>
<text x="298.35" y="170.00">+</text>
<text x="370.13" y="240.86">+</text>
<text x="107.54" y="107.10">+</text>
<text x="434.86" y="107.76">+</text>
<text x="23.30" y="108.05">.</text>
<text x="380.89" y="209.75">.</text>
<text x="136.86" y="487.78">.</text>
<text x="104.87" y="406.76">+</text>
<text x="273.67" y="363.19">.</text>
<text x="391.42" y="348.37">+</text>
<text x="454.89" y="174.93">.</text>
<text x="63.24" y="448.31">+</text>
<text x="0.47" y="114.91">+</text>
<text x="120.89" y="395.98">+</text>
<text x="361.95" y="467.83">+</text>
<text x="9.02" y="50.06">+</text>
<text x="18.75" y="83.96">.</text>
<text x="276.47" y="433.34">+</text>
<text x="356.87" y="239.12">*</text>
<text x="67.97" y="196.56">*</text>
<text x="464.19" y="426.10">+</text>
<text x="480.88" y="21.76">+</text>
<text x="436.52" y="489.85">.</text>
<text x="296.08" y="114.99">+</text>
<text x="132.96" y="132.12">.</text>
<text x="64.35" y="244.13">+</text>
<text x="76.36" y="233.73">*</text>
<text x="173.63" y="174.76">+</text>
<text x="136.51" y="16.12">+</text>
<text x="404.37" y="102.58">+</text>
<text x="423.16" y="161.12">+</text>
<text x="10.14" y="0.55">.</text>
<text x="371.67" y="168.65">+</text>
<text x="248.67" y="448.17">.</text>
<text x="14.38" y="306.55">.</text>
<text x="309.62" y="493.16">*</text>
<text x="467.11" y="400.95">.</text>
<text x="226.70" y="69.35">.</text>
<text x="244.69" y="346.51">*</text>
<text x="444.41" y="103.23">.</text>
<text x="0.32" y="122.81">.</text>
<text x="250.18" y="363.44">.</text>
<text x="131.35" y="484.20">+</text>
<text x="28.92" y="366.72">+</text>
<text x="398.93" y="93.55">*</text>
<text x="312.81" y="407.43">*</text>
<text x="463.92" y="159.70">+</text>
<text x="20.17" y="225.45">.</text>
<text x="28.50" y="184.94">+</text>
<text x="270.17" y="122.62">+</text>
<text x="357.80" y="390.59">.</text>
<text x="206.32" y="249.46">+</text>
<text x="246.53" y="149.99">*</text>
<text x="364.03" y="380.40">.</text>
<text x="273.04" y="42.38">.</text>
<text x="63.37" y="193.88">.</text>
<text x="135.88" y="488.11">+</text>
<text x="208.63" y="19.25">.</text>
<text x="156.84" y="411.21">+</text>
<text x="52.45" y="150.66">*</text>
<text x="135.42" y="331.38">.</text>
<text x="321.55" y="177.20">.</text>
<text x="489.19" y="31.39">.</text>
<text x="492.00" y="262.65">+</text>
<text x="430.09" y="490.67">+</text>
<text x="344.17" y="213.12">.</text>
<text x="286.94" y="174.20">.</text>
<text x="428.63" y="289.30">.</text>
<text x="398.44" y="358.53">+</text>
<text x="75.96" y="326.36">.</text>
<text x="488.99" y="222.44">.</text>
<text x="177.84" y="384.65">.</text>
<text x="305.51" y="112.79">.</text>
<text x="136.70" y="146.85">*</text>
<text x="397.97" y="463.56">.</text>
<text x="443.57" y="243.69">+</text>
<text x="193.58" y="302.99">.</text>
<text x="250.08" y="107.27">+</text>
<text x="385.86" y="361.25">+</text>
<text x="98.43" y="404.79">+</text>
<text x="352.39" y="237.53">.</text>
<text x="45.33" y="286.97">.</text>
<text x="33.73" y="113.11">+</text>
<text x="486.11" y="491.97">.</text>
<text x="321.38" y="429.36">.</text>
<text x="88.08" y="66.41">+</text>
<text x="237.20" y="192.54">+</text>
<text x="455.68" y="373.03">.</text>
<text x="416.11" y="359.17">*</text>
<text x="56.95" y="230.37">*</text>
<text x="173.16" y="368.60">.</text>
<text x="449.60" y="115.68">.</text>
<text x="270.90" y="318.45">.</text>
<text x="120.28" y="409.14">.</text>
<text x="41.51" y="378.23">+</text>
<text x="410.35" y="428.13">+</text>
<text x="100.37" y="334.02">.</text>
<text x="24.31" y="284.70">+</text>
<text x="276.12" y="80.38">+</text>
<text x="158.47" y="9.46">+</text>
<text x="291.02" y="483.12">+</text>
<text x="292.57" y="400.89">*</text>
<text x="332.41" y="203.20">*</text>
<text x="112.81" y="454.02">+</text>
<text x="277.56" y="15.98">+</text>
<text x="296.71" y="159.25">.</text>
<text x="285.75" y="456.12">*</text>
<text x="158.39" y="57.91">.</text>
<text x="428.14" y="478.24">.</text>
<text x="80.52" y="308.41">*</text>
<text x="205.41" y="28.64">.</text>
<text x="61.13" y="259.72">+</text>
<text x="33.88" y="35.89">*</text>
<text x="201.45" y="206.17">.</text>
<text x="366.12" y="123.94">+</text>
<text x="189.01" y="486.35">.</text>
<text x="370.43" y="64.46">.</text>
<text x="476.54" y="93.67">.</text>
<text x="322.84" y="436.89">.</text>
<text x="166.38" y="267.44">+</text>
<text x="169.82" y="493.69">+</text>
<text x="481.16" y="159.53">+</text>
<text x="238.25" y="394.30">.</text>
<text x="226.24" y="347.21">.</text>
<text x="133.48" y="279.27">+</text>
<text x="441.46" y="273.68">+</text>
<text x="163.10" y="320.65">+</text>
<text x="257.91" y="478.36">+</text>
<text x="169.42" y="187.81">+</text>
<text x="85.27" y="369.18">*</text>
<text x="441.90" y="230.59">.</text>
<text x="286.69" y="257.72">.</text>
<text x="192.52" y="293.51">+</text>

</svg>