
<svg viewBox="0 0 500 500" xmlns="http://www.w.org/2000/svg" width="100%" height="100%" style="background-color: #0a0a14; font-family: 'Courier New', Courier, monospace;">
    <style>
        text { fill: #aaa; font-size: 10px; text-anchor: middle; dominant-baseline: middle; }
    </style>
    <text x="352.00" y="360.00">+</text>
<text x="139.81" y="437.75">+</text>
<text x="167.02" y="95.70">+</text>
<text x="483.32" y="226.11">+</text>
<text x="36.48" y="11.76">+</text>
<text x="277.92" y="485.71">.</text>
<text x="466.10" y="137.50">.</text>
<text x="382.80" y="236.22">+</text>
<text x="344.51" y="207.96">*</text>
<text x="26.07" y="41.14">.</text>
<text x="302.53" y="400.11">+</text>
<text x="271.84" y="117.13">*</text>
<text x="422.81" y="37.98">+</text>
<text x="89.81" y="355.70">.</text>
<text x="89.17" y="51.66">+</text>
<text x="199.26" y="58.15">+</text>
<text x="352.22" y="282.54">.</text>
<text x="489.59" y="162.53">.</text>
<text x="57.45" y="119.87">+</text>
<text x="203.50" y="224.70">.</text>
<text x="106.11" y="81.92">+</text>
<text x="450.33" y="209.35">+</text>
<text x="11.18" y="40.71">+</text>
<text x="130.47" y="255.68">.</text>
<text x="379.68" y="4.77">+</text>
<text x="366.55" y="222.76">*</text>
<text x="480.07" y="138.63">.</text>
<text x="298.08" y="64.59">+</text>
<text x="46.48" y="474.13">.</text>
<text x="198.25" y="334.32">.</text>
<text x="434.61" y="167.08">.</text>
<text x="36.48" y="426.77">+</text>
<text x="384.06" y="262.49">+</text>
<text x="178.67" y="411.55">*</text>
<text x="65.77" y="347.96">.</text>
<text x="221.05" y="239.94">.</text>
<text x="418.32" y="418.74">.</text>
<text x="382.51" y="191.72">*</text>
<text x="339.57" y="262.47">+</text>
<text x="396.39" y="232.21">+</text>
<text x="383.98" y="368.80">.</text>
<text x="188.39" y="357.55">*</text>
<text x="409.23" y="248.06">+</text>
<text x="1.19" y="209.43">.</text>
<text x="475.06" y="160.74">+</text>
<text x="145.18" y="182.81">+</text>
<text x="208.00" y="26.36">+</text>
<text x="45.28" y="278.66">.</text>
<text x="114.62" y="331.40">+</text>
<text x="49.79" y="299.68">.</text>
<text x="332.14" y="327.76">.</text>
<text x="460.20" y="166.09">.</text>
<text x="161.99" y="314.88">.</text>
<text x="85.14" y="267.71">.</text>
<text x="301.19" y="377.83">.</text>
<text x="263.59" y="296.66">*</text>
<text x="173.10" y="119.68">*</text>
<text x="347.67" y="285.37">+</text>
<text x="34.05" y="415.38">*</text>
<text x="454.37" y="281.11">+</text>
<text x="120.41" y="475.10">*</text>
<text x="244.55" y="96.04">+</text>
<text x="67.24" y="104.74">*</text>
<text x="368.50" y="150.31">.</text>
<text x="349.18" y="8.72">.</text>
<text x="103.30" y="70.49">+</text>
<text x="94.66" y="452.00">.</text>
<text x="115.82" y="193.79">*</text>
<text x="496.21" y="457.32">.</text>
<text x="327.07" y="142.97">+</text>
<text x="46.42" y="18.80">.</text>
<text x="219.28" y="416.26">.</text>
<text x="321.97" y="450.37">.</text>
<text x="186.04" y="392.35">*</text>
<text x="463.86" y="381.26">.</text>
<text x="221.16" y="490.90">.</text>
<text x="116.37" y="486.63">.</text>
<text x="409.07" y="13.03">*</text>
<text x="372.40" y="55.29">.</text>
<text x="377.72" y="15.94">+</text>
<text x="471.60" y="320.37">.</text>
<text x="122.59" y="288.58">+</text>
<text x="120.92" y="109.09">+</text>
<text x="264.35" y="243.99">+</text>
<text x="222.05" y="458.27">+</text>
<text x="402.04" y="381.21">.</text>
<text x="290.10" y="339.08">.</text>
<text x="165.55" y="71.51">+</text>
<text x="306.79" y="293.58">+</text>
<text x="190.83" y="272.30">+</text>
<text x="419.71" y="104.86">.</text>
<text x="16.96" y="494.51">*</text>
<text x="149.14" y="223.75">.</text>
<text x="457.24" y="102.06">.</text>
<text x="461.65" y="2.30">*</text>
<text x="34.90" y="447.59">+</text>
<text x="96.07" y="83.28">+</text>
<text x="231.25" y="345.92">.</text>
<text x="311.12" y="18.79">*</text>
<text x="397.52" y="381.33">.</text>
<text x="184.97" y="70.53">+</text>
<text x="490.71" y="397.29">.</text>
<text x="40.77" y="493.81">.</text>
<text x="255.36" y="65.25">.</text>
<text x="321.58" y="229.85">.</text>
<text x="207.85" y="284.67">.</text>
<text x="62.99" y="134.79">.</text>
<text x="336.34" y="353.98">+</text>
<text x="457.23" y="297.41">.</text>
<text x="204.17" y="412.73">+</text>
<text x="324.06" y="323.46">.</text>
<text x="283.75" y="70.29">*</text>
<text x="105.03" y="415.70">.</text>
<text x="80.62" y="260.92">+</text>
<text x="457.00" y="464.71">.</text>
<text x="314.55" y="348.22">+</text>
<text x="419.29" y="60.81">+</text>
<text x="48.84" y="151.36">*</text>
<text x="447.51" y="117.95">+</text>
<text x="384.03" y="274.94">+</text>
<text x="203.77" y="378.76">.</text>
<text x="145.68" y="296.20">+</text>
<text x="34.07" y="369.44">*</text>
<text x="162.51" y="122.11">.</text>
<text x="4.33" y="346.76">+</text>
<text x="323.06" y="64.50">*</text>
<text x="259.92" y="310.07">+</text>
<text x="422.75" y="56.65">.</text>
<text x="465.01" y="116.90">.</text>
<text x="312.94" y="111.06">.</text>
<text x="380.61" y="70.07">.</text>
<text x="106.33" y="282.58">*</text>
<text x="236.71" y="233.60">+</text>
<text x="94.82" y="377.94">*</text>
<text x="487.64" y="413.21">*</text>
<text x="28.27" y="354.28">+</text>
<text x="87.99" y="289.67">.</text>
<text x="327.25" y="273.73">*</text>
<text x="181.54" y="184.55">+</text>
<text x="19.11" y="24.96">.</text>
<text x="402.61" y="390.18">+</text>
<text x="434.19" y="361.63">+</text>
<text x="246.15" y="210.85">.</text>
<text x="299.81" y="338.47">*</text>
<text x="452.53" y="254.47">+</text>
<text x="419.72" y="82.29">+</text>
<text x="93.26" y="381.63">+</text>
<text x="465.45" y="263.65">.</text>
<text x="445.49" y="442.31">+</text>
<text x="220.20" y="383.19">.</text>
<text x="441.60" y="125.25">.</text>
<text x="483.74" y="46.98">.</text>
<text x="343.27" y="442.97">.</text>
<text x="97.72" y="95.67">.</text>
<text x="153.23" y="90.08">.</text>
<text x="472.80" y="402.11">.</text>
<text x="253.77" y="370.58">+</text>
<text x="495.24" y="369.44">+</text>
<text x="32.84" y="21.42">*</text>
<text x="148.97" y="425.02">.</text>
<text x="166.54" y="403.09">+</text>
<text x="5.60" y="25.74">+</text>
<text x="287.48" y="2.38">*</text>
<text x="224.61" y="283.55">+</text>
<text x="336.35" y="498.05">.</text>
<text x="316.02" y="381.53">+</text>
<text x="105.27" y="447.25">+</text>
<text x="4.49" y="454.25">+</text>
<text x="445.92" y="133.26">.</text>
<text x="36.88" y="222.14">+</text>
<text x="302.15" y="55.21">*</text>
<text x="388.45" y="158.95">.</text>
<text x="287.05" y="448.57">+</text>
<text x="176.13" y="183.01">+</text>
<text x="245.56" y="399.98">+</text>
<text x="0.44" y="495.13">*</text>
<text x="350.45" y="343.91">*</text>
<text x="147.95" y="328.19">+</text>
<text x="47.42" y="60.99">.</text>
<text x="413.16" y="315.15">+</text>
<text x="326.62" y="249.25">+</text>
<text x="171.96" y="413.12">.</text>
<text x="165.28" y="314.58">+</text>
<text x="181.37" y="367.05">+</text>
<text x="345.75" y="103.54">.</text>
<text x="185.81" y="253.66">*</text>
<text x="396.42" y="258.82">+</text>
<text x="142.06" y="415.86">*</text>
<text x="363.69" y="250.40">.</text>
<text x="437.04" y="101.04">+</text>
<text x="355.76" y="364.92">+</text>
<text x="487.06" y="424.51">+</text>
<text x="291.25" y="190.65">.</text>
<text x="262.07" y="5.50">+</text>
<text x="171.17" y="12.37">.</text>
<text x="402.81" y="253.89">+</text>
<text x="85.76" y="66.36">.</text>
<text x="491.25" y="185.24">*</text>
<text x="11.36" y="113.92">+</text>
<text x="356.23" y="114.01">.</text>
<text x="317.02" y="453.71">.</text>
<text x="281.67" y="150.42">.</text>
<text x="285.56" y="387.13">.</text>
<text x="321.35" y="175.02">.</text>
<text x="165.85" y="427.11">.</text>
<text x="367.32" y="463.12">.</text>
<text x="79.04" y="179.63">+</text>
<text x="299.52" y="485.81">.</text>
<text x="63.13" y="420.54">+</text>
<text x="32.74" y="188.33">+</text>
<text x="66.97" y="392.37">.</text>
<text x="259.37" y="144.12">.</text>

</svg>