
<svg viewBox="0 0 500 500" xmlns="http://www.w.org/2000/svg" width="100%" height="100%" style="background-color: #0a0a14; font-family: 'Courier New', Courier, monospace;">
    <style>
        text { fill: #aaa; font-size: 10px; text-anchor: middle; dominant-baseline: middle; }
    </style>
    <text x="119.34" y="183.87">.</text>
<text x="218.78" y="328.23">.</text>
<text x="453.11" y="411.50">.</text>
<text x="222.61" y="181.92">.</text>
<text x="23.37" y="396.96">.</text>
<text x="364.47" y="148.20">+</text>
<text x="158.77" y="468.63">+</text>
<text x="456.43" y="403.96">+</text>
<text x="267.62" y="434.98">+</text>
<text x="389.22" y="83.17">+</text>
<text x="403.82" y="115.17">+</text>
<text x="127.27" y="421.51">.</text>
<text x="496.87" y="330.03">.</text>
<text x="327.99" y="392.95">.</text>
<text x="284.84" y="219.07">+</text>
<text x="455.62" y="381.70">.</text>
<text x="294.03" y="426.28">+</text>
<text x="439.22" y="128.20">.</text>
<text x="194.59" y="449.92">+</text>
<text x="247.09" y="385.32">+</text>
<text x="238.54" y="3.85">*</text>
<text x="18.13" y="445.32">+</text>
<text x="393.73" y="87.88">*</text>
<text x="464.09" y="179.75">+</text>
<text x="68.36" y="313.79">*</text>
<text x="384.67" y="19.36">+</text>
<text x="80.68" y="158.53">+</text>
<text x="82.18" y="224.14">.</text>
<text x="3.55" y="168.72">+</text>
<text x="418.78" y="348.41">+</text>
<text x="174.49" y="333.99">+</text>
<text x="214.40" y="174.02">.</text>
<text x="244.84" y="322.77">.</text>
<text x="129.50" y="183.53">+</text>
<text x="68.66" y="95.03">.</text>
<text x="52.69" y="106.06">+</text>
<text x="335.07" y="433.69">+</text>
<text x="323.82" y="392.35">+</text>
<text x="431.22" y="486.90">.</text>
<text x="50.04" y="321.24">.</text>
<text x="269.67" y="403.39">.</text>
<text x="274.84" y="252.88">*</text>
<text x="140.78" y="456.84">.</text>
<text x="313.13" y="217.03">+</text>
<text x="66.77" y="474.63">.</text>
<text x="398.70" y="387.50">.</text>
<text x="385.68" y="356.96">*</text>
<text x="20.39" y="456.13">+</text>
<text x="312.23" y="302.03">.</text>
<text x="423.78" y="157.67">+</text>
<text x="397.02" y="294.15">+</text>
<text x="487.20" y="173.11">*</text>
<text x="14.22" y="259.76">.</text>
<text x="60.07" y="440.50">.</text>
<text x="240.40" y="448.89">+</text>
<text x="371.80" y="352.27">+</text>
<text x="42.28" y="392.61">+</text>
<text x="447.98" y="255.22">.</text>
<text x="439.44" y="246.30">*</text>
<text x="217.96" y="199.33">.</text>
<text x="319.06" y="64.33">+</text>
<text x="0.52" y="189.71">.</text>
<text x="257.54" y="125.85">.</text>
<text x="206.60" y="184.87">+</text>
<text x="368.12" y="192.52">*</text>
<text x="121.22" y="453.11">+</text>
<text x="159.84" y="426.40">+</text>
<text x="449.64" y="87.91">*</text>
<text x="499.28" y="205.25">+</text>
<text x="162.50" y="382.94">*</text>
<text x="140.85" y="440.95">+</text>
<text x="308.21" y="379.20">+</text>
<text x="187.00" y="379.97">*</text>
<text x="395.44" y="34.26">*</text>
<text x="202.67" y="461.70">+</text>
<text x="353.84" y="457.45">+</text>
<text x="327.84" y="306.58">+</text>
<text x="129.81" y="490.54">.</text>
<text x="252.09" y="168.89">+</text>
<text x="94.84" y="123.31">+</text>
<text x="328.95" y="453.17">+</text>
<text x="485.29" y="34.52">+</text>
<text x="459.96" y="209.72">+</text>
<text x="357.60" y="37.17">.</text>
<text x="310.35" y="295.29">.</text>
<text x="211.05" y="167.32">*</text>
<text x="183.25" y="131.06">.</text>
<text x="46.63" y="496.38">+</text>
<text x="391.07" y="118.98">+</text>
<text x="364.20" y="270.98">.</text>
<text x="129.46" y="238.38">+</text>
<text x="261.52" y="70.09">*</text>
<text x="467.79" y="492.10">+</text>
<text x="193.76" y="106.75">.</text>
<text x="163.21" y="314.43">.</text>
<text x="320.40" y="174.75">*</text>
<text x="15.11" y="34.50">*</text>
<text x="91.51" y="430.77">+</text>
<text x="283.02" y="339.96">+</text>
<text x="184.89" y="387.88">+</text>
<text x="281.97" y="77.86">+</text>
<text x="164.40" y="398.46">+</text>
<text x="419.38" y="348.63">+</text>
<text x="271.30" y="65.81">+</text>
<text x="133.17" y="492.94">.</text>
<text x="85.46" y="38.34">.</text>
<text x="50.56" y="40.65">.</text>
<text x="13.92" y="55.12">+</text>
<text x="199.76" y="400.01">*</text>
<text x="140.56" y="4.96">+</text>
<text x="303.61" y="89.38">+</text>
<text x="192.15" y="54.88">+</text>
<text x="433.45" y="106.26">.</text>
<text x="413.06" y="175.22">.</text>
<text x="27.27" y="473.24">+</text>
<text x="453.00" y="84.75">+</text>
<text x="43.99" y="33.43">+</text>
<text x="189.85" y="82.91">*</text>
<text x="12.70" y="371.18">.</text>
<text x="97.42" y="473.02">+</text>
<text x="300.92" y="249.73">+</text>
<text x="392.06" y="390.66">.</text>
<text x="417.11" y="429.74">+</text>
<text x="474.32" y="170.57">+</text>
<text x="113.93" y="33.62">.</text>
<text x="351.57" y="496.14">.</text>
<text x="97.25" y="89.91">.</text>
<text x="255.87" y="183.78">+</text>
<text x="172.72" y="170.11">.</text>
<text x="299.05" y="282.51">*</text>
<text x="117.34" y="105.54">+</text>
<text x="218.20" y="339.30">.</text>
<text x="297.54" y="156.63">.</text>
<text x="69.93" y="177.95">.</text>
<text x="244.99" y="316.51">+</text>
<text x="254.63" y="186.23">+</text>
<text x="112.67" y="132.72">.</text>
<text x="332.44" y="385.46">+</text>
<text x="239.62" y="446.94">*</text>
<text x="111.89" y="63.30">+</text>
<text x="74.10" y="42.22">+</text>
<text x="148.54" y="48.64">.</text>
<text x="212.22" y="183.49">+</text>
<text x="35.58" y="420.27">.</text>
<text x="414.32" y="386.76">+</text>
<text x="280.07" y="160.17">+</text>
<text x="171.12" y="448.89">.</text>
<text x="112.22" y="63.79">.</text>
<text x="124.78" y="266.57">+</text>
<text x="385.27" y="120.51">.</text>
<text x="358.60" y="437.91">+</text>
<text x="434.45" y="438.57">+</text>
<text x="405.74" y="65.99">.</text>
<text x="27.19" y="195.40">+</text>
<text x="294.63" y="18.63">.</text>
<text x="92.53" y="16.97">+</text>
<text x="418.84" y="35.99">+</text>
<text x="276.75" y="312.00">.</text>
<text x="493.98" y="424.09">+</text>
<text x="133.44" y="328.78">.</text>
<text x="477.02" y="276.44">.</text>
<text x="146.86" y="415.07">.</text>
<text x="158.30" y="213.23">+</text>
<text x="14.08" y="208.42">.</text>
<text x="102.21" y="287.47">.</text>
<text x="225.07" y="247.70">.</text>
<text x="16.23" y="149.01">.</text>
<text x="305.12" y="405.86">+</text>
<text x="84.92" y="188.67">+</text>
<text x="325.98" y="112.12">+</text>
<text x="266.76" y="192.21">*</text>
<text x="394.94" y="453.26">*</text>
<text x="158.66" y="72.85">+</text>
<text x="23.81" y="39.48">+</text>
<text x="20.74" y="189.34">*</text>
<text x="85.54" y="362.95">.</text>
<text x="253.59" y="234.53">+</text>
<text x="246.09" y="327.13">+</text>
<text x="331.01" y="254.32">+</text>
<text x="40.41" y="148.80">+</text>
<text x="141.01" y="311.56">+</text>
<text x="84.88" y="373.12">*</text>
<text x="263.19" y="264.83">*</text>
<text x="180.27" y="117.25">+</text>
<text x="317.78" y="338.27">.</text>
<text x="176.40" y="23.42">.</text>
<text x="250.15" y="57.13">+</text>
<text x="187.25" y="288.84">+</text>
<text x="47.86" y="57.25">+</text>
<text x="3.54" y="274.13">*</text>
<text x="0.42" y="411.79">.</text>
<text x="270.89" y="247.70">*</text>
<text x="394.63" y="441.73">+</text>
<text x="121.83" y="180.85">.</text>
<text x="495.26" y="406.74">+</text>
<text x="90.32" y="202.50">+</text>
<text x="23.41" y="119.34">*</text>
<text x="58.06" y="254.80">*</text>
<text x="44.23" y="109.38">+</text>
<text x="426.25" y="415.47">.</text>
<text x="270.24" y="206.31">.</text>
<text x="351.39" y="118.30">.</text>
<text x="63.03" y="256.65">.</text>
<text x="33.74" y="423.18">+</text>
<text x="395.92" y="216.40">+</text>
<text x="366.07" y="2.31">.</text>
<text x="164.35" y="474.47">.</text>
<text x="424.57" y="173.37">*</text>
<text x="254.23" y="374.95">+</text>
<text x="386.97" y="385.68">+</text>

</svg>