
<svg viewBox="0 0 500 500" xmlns="http://www.w.org/2000/svg" width="100%" height="100%" style="background-color: #0a0a14; font-family: 'Courier New', Courier, monospace;">
    <style>
        text { fill: #aaa; font-size: 10px; text-anchor: middle; dominant-baseline: middle; }
    </style>
    <text x="196.69" y="403.36">+</text>
<text x="23.25" y="106.80">.</text>
<text x="438.18" y="366.03">+</text>
<text x="188.27" y="398.90">.</text>
<text x="134.92" y="69.03">+</text>
<text x="249.40" y="404.28">*</text>
<text x="53.50" y="423.72">+</text>
<text x="192.42" y="292.60">.</text>
<text x="172.16" y="47.57">+</text>
<text x="222.57" y="43.95">+</text>
<text x="237.68" y="42.44">+</text>
<text x="58.00" y="389.65">*</text>
<text x="67.56" y="162.87">.</text>
<text x="93.21" y="166.94">.</text>
<text x="56.61" y="269.28">.</text>
<text x="245.73" y="148.25">*</text>
<text x="70.85" y="207.90">+</text>
<text x="11.76" y="414.85">+</text>
<text x="441.35" y="88.90">.</text>
<text x="258.24" y="94.85">.</text>
<text x="266.57" y="7.57">+</text>
<text x="267.42" y="137.42">.</text>
<text x="234.29" y="327.75">*</text>
<text x="353.09" y="87.52">.</text>
<text x="421.35" y="86.87">+</text>
<text x="373.41" y="335.91">.</text>
<text x="428.10" y="160.48">*</text>
<text x="115.94" y="472.84">.</text>
<text x="63.65" y="335.51">.</text>
<text x="411.48" y="254.02">.</text>
<text x="221.52" y="463.44">.</text>
<text x="441.89" y="359.71">.</text>
<text x="61.12" y="428.76">*</text>
<text x="271.28" y="13.09">.</text>
<text x="275.18" y="247.70">+</text>
<text x="206.45" y="168.77">.</text>
<text x="400.95" y="411.83">.</text>
<text x="280.84" y="181.26">*</text>
<text x="104.75" y="360.67">+</text>
<text x="234.66" y="80.84">.</text>
<text x="215.55" y="70.83">*</text>
<text x="441.09" y="449.69">*</text>
<text x="100.08" y="58.37">.</text>
<text x="319.24" y="178.32">+</text>
<text x="429.18" y="449.60">.</text>
<text x="184.83" y="458.59">+</text>
<text x="350.79" y="444.94">+</text>
<text x="175.89" y="355.05">.</text>
<text x="448.61" y="168.15">.</text>
<text x="125.29" y="357.32">.</text>
<text x="29.13" y="232.43">+</text>
<text x="201.50" y="247.90">+</text>
<text x="490.26" y="415.45">+</text>
<text x="489.07" y="106.26">*</text>
<text x="317.63" y="366.73">.</text>
<text x="332.09" y="23.74">.</text>
<text x="169.71" y="441.91">+</text>
<text x="57.21" y="299.52">.</text>
<text x="91.16" y="217.72">.</text>
<text x="52.33" y="118.50">.</text>
<text x="169.12" y="118.29">+</text>
<text x="120.79" y="463.34">+</text>
<text x="295.07" y="289.22">.</text>
<text x="152.36" y="159.89">+</text>
<text x="497.54" y="297.54">.</text>
<text x="380.53" y="462.78">*</text>
<text x="107.46" y="454.62">+</text>
<text x="255.48" y="35.59">+</text>
<text x="248.79" y="178.17">.</text>
<text x="139.74" y="144.05">+</text>
<text x="79.63" y="184.41">.</text>
<text x="414.07" y="469.26">+</text>
<text x="402.98" y="101.08">*</text>
<text x="170.31" y="270.18">+</text>
<text x="475.83" y="462.01">.</text>
<text x="480.86" y="101.59">*</text>
<text x="354.53" y="434.08">*</text>
<text x="282.92" y="66.88">.</text>
<text x="379.99" y="247.17">*</text>
<text x="110.34" y="387.90">*</text>
<text x="462.49" y="130.98">.</text>
<text x="456.82" y="61.06">+</text>
<text x="22.74" y="158.63">+</text>
<text x="240.08" y="52.72">+</text>
<text x="44.09" y="317.85">.</text>
<text x="69.93" y="20.13">.</text>
<text x="148.87" y="454.46">.</text>
<text x="60.49" y="462.17">.</text>
<text x="485.25" y="291.79">+</text>
<text x="283.20" y="218.20">+</text>
<text x="459.25" y="370.27">.</text>
<text x="169.38" y="337.77">.</text>
<text x="258.12" y="281.49">+</text>
<text x="222.61" y="437.90">.</text>
<text x="347.45" y="144.08">+</text>
<text x="31.64" y="328.17">.</text>
<text x="347.60" y="245.46">+</text>
<text x="194.69" y="436.93">+</text>
<text x="338.18" y="171.09">.</text>
<text x="149.65" y="458.65">.</text>
<text x="362.33" y="212.88">+</text>
<text x="253.22" y="431.24">+</text>
<text x="328.11" y="444.56">+</text>
<text x="295.23" y="397.41">+</text>
<text x="211.82" y="97.99">+</text>
<text x="444.71" y="371.14">.</text>
<text x="9.61" y="138.97">.</text>
<text x="255.20" y="213.69">.</text>
<text x="436.99" y="289.72">+</text>
<text x="224.39" y="30.29">.</text>
<text x="216.25" y="76.90">.</text>
<text x="265.13" y="99.76">*</text>
<text x="25.72" y="491.26">.</text>
<text x="279.39" y="434.56">+</text>
<text x="239.13" y="283.58">.</text>
<text x="111.83" y="201.61">*</text>
<text x="336.88" y="400.09">.</text>
<text x="122.69" y="3.59">.</text>
<text x="477.52" y="226.95">.</text>
<text x="70.98" y="199.53">*</text>
<text x="398.58" y="302.75">+</text>
<text x="139.60" y="86.69">.</text>
<text x="276.43" y="101.31">+</text>
<text x="189.57" y="438.33">.</text>
<text x="495.15" y="101.63">*</text>
<text x="72.78" y="216.56">.</text>
<text x="127.43" y="252.67">+</text>
<text x="54.43" y="476.50">.</text>
<text x="383.05" y="197.11">+</text>
<text x="142.27" y="442.50">*</text>
<text x="402.89" y="29.41">+</text>
<text x="29.40" y="41.80">.</text>
<text x="377.44" y="15.03">.</text>
<text x="490.74" y="449.38">*</text>
<text x="283.46" y="17.35">.</text>
<text x="103.93" y="349.57">.</text>
<text x="278.87" y="488.88">.</text>
<text x="39.90" y="266.57">+</text>
<text x="481.39" y="413.95">.</text>
<text x="297.79" y="221.23">+</text>
<text x="488.39" y="314.60">+</text>
<text x="7.48" y="26.48">+</text>
<text x="142.01" y="459.13">+</text>
<text x="26.24" y="287.96">.</text>
<text x="253.15" y="301.37">+</text>
<text x="311.77" y="457.27">+</text>
<text x="109.33" y="437.30">+</text>
<text x="243.97" y="71.84">+</text>
<text x="204.63" y="434.45">*</text>
<text x="408.28" y="226.64">.</text>
<text x="108.23" y="19.75">.</text>
<text x="210.74" y="472.74">+</text>
<text x="12.44" y="83.33">+</text>
<text x="25.38" y="416.81">.</text>
<text x="96.74" y="119.41">.</text>
<text x="194.55" y="435.85">.</text>
<text x="338.48" y="221.00">+</text>
<text x="207.79" y="294.61">+</text>
<text x="64.54" y="459.26">.</text>
<text x="283.55" y="347.22">.</text>
<text x="218.11" y="156.14">.</text>
<text x="177.52" y="242.67">.</text>
<text x="17.29" y="482.53">.</text>
<text x="31.87" y="59.04">.</text>
<text x="473.44" y="186.81">*</text>
<text x="275.94" y="286.39">.</text>
<text x="360.99" y="154.03">.</text>
<text x="403.30" y="260.37">+</text>
<text x="25.67" y="499.17">+</text>
<text x="181.95" y="91.83">+</text>
<text x="86.47" y="429.78">.</text>
<text x="310.26" y="46.07">.</text>
<text x="199.56" y="361.22">.</text>
<text x="30.50" y="381.32">.</text>
<text x="174.09" y="159.26">+</text>
<text x="114.43" y="397.48">+</text>
<text x="2.43" y="369.12">+</text>
<text x="369.69" y="186.07">+</text>
<text x="438.40" y="494.80">+</text>
<text x="37.63" y="79.47">.</text>
<text x="16.83" y="422.92">.</text>
<text x="354.48" y="79.72">.</text>
<text x="445.51" y="431.76">.</text>
<text x="425.93" y="73.78">.</text>
<text x="124.43" y="268.14">+</text>
<text x="421.59" y="349.29">.</text>
<text x="312.47" y="49.51">+</text>
<text x="44.95" y="161.74">+</text>
<text x="96.65" y="382.46">*</text>
<text x="330.10" y="253.35">.</text>
<text x="422.89" y="498.75">+</text>
<text x="348.15" y="372.16">+</text>
<text x="251.33" y="411.74">+</text>
<text x="337.41" y="365.26">.</text>
<text x="343.00" y="240.13">.</text>
<text x="483.82" y="372.24">+</text>
<text x="35.08" y="458.98">+</text>
<text x="439.24" y="23.62">+</text>
<text x="41.27" y="15.78">+</text>
<text x="324.85" y="173.83">.</text>
<text x="379.80" y="396.34">.</text>
<text x="283.14" y="494.98">.</text>
<text x="237.36" y="52.67">*</text>
<text x="80.28" y="403.33">+</text>
<text x="77.59" y="119.42">*</text>
<text x="456.63" y="436.28">+</text>
<text x="394.94" y="97.38">*</text>
<text x="411.43" y="492.65">*</text>
<text x="121.20" y="240.95">+</text>
<text x="116.77" y="21.78">+</text>
<text x="248.03" y="379.60">+</text>
<text x="280.29" y="450.28">+</text>
<text x="256.31" y="110.99">.</text>
<text x="27.49" y="155.30">+</text>

</svg>