
<svg viewBox="0 0 500 500" xmlns="http://www.w.org/2000/svg" width="100%" height="100%" style="background-color: #0a0a14; font-family: 'Courier New', Courier, monospace;">
    <style>
        text { fill: #aaa; font-size: 10px; text-anchor: middle; dominant-baseline: middle; }
    </style>
    <text x="106.97" y="113.53">.</text>
<text x="65.67" y="29.25">+</text>
<text x="85.70" y="119.59">+</text>
<text x="219.42" y="400.37">.</text>
<text x="36.28" y="8.49">+</text>
<text x="250.73" y="27.44">+</text>
<text x="442.41" y="130.72">+</text>
<text x="96.89" y="424.30">.</text>
<text x="272.30" y="96.33">.</text>
<text x="38.57" y="281.73">.</text>
<text x="38.29" y="195.30">.</text>
<text x="221.11" y="157.25">+</text>
<text x="384.62" y="285.51">.</text>
<text x="446.71" y="55.08">.</text>
<text x="34.28" y="10.16">.</text>
<text x="141.05" y="149.13">.</text>
<text x="22.09" y="92.91">.</text>
<text x="399.95" y="365.49">+</text>
<text x="499.69" y="137.08">+</text>
<text x="217.13" y="61.69">*</text>
<text x="1.53" y="243.11">*</text>
<text x="72.80" y="204.28">.</text>
<text x="305.84" y="62.62">.</text>
<text x="78.57" y="80.59">.</text>
<text x="369.92" y="180.83">+</text>
<text x="427.37" y="367.27">.</text>
<text x="9.85" y="411.15">+</text>
<text x="201.53" y="38.28">+</text>
<text x="230.24" y="493.12">+</text>
<text x="381.98" y="426.34">.</text>
<text x="161.97" y="377.34">+</text>
<text x="58.89" y="383.35">+</text>
<text x="83.10" y="10.89">+</text>
<text x="393.84" y="334.62">.</text>
<text x="153.21" y="166.29">.</text>
<text x="152.06" y="235.46">*</text>
<text x="371.94" y="408.10">+</text>
<text x="455.28" y="453.70">.</text>
<text x="23.80" y="482.14">.</text>
<text x="100.74" y="66.05">+</text>
<text x="454.26" y="464.19">.</text>
<text x="59.16" y="383.22">.</text>
<text x="47.41" y="333.65">*</text>
<text x="310.85" y="345.02">.</text>
<text x="448.34" y="372.69">.</text>
<text x="43.36" y="350.44">+</text>
<text x="249.07" y="325.91">.</text>
<text x="211.78" y="154.35">*</text>
<text x="243.90" y="473.10">.</text>
<text x="428.15" y="415.15">+</text>
<text x="181.20" y="198.04">+</text>
<text x="3.82" y="257.20">+</text>
<text x="197.48" y="452.04">.</text>
<text x="240.05" y="485.17">+</text>
<text x="249.22" y="376.71">*</text>
<text x="453.11" y="18.33">*</text>
<text x="211.38" y="413.87">.</text>
<text x="20.34" y="344.38">.</text>
<text x="401.56" y="425.36">+</text>
<text x="130.29" y="219.73">.</text>
<text x="236.92" y="89.51">.</text>
<text x="58.63" y="498.73">.</text>
<text x="307.67" y="361.70">+</text>
<text x="492.90" y="304.30">.</text>
<text x="12.31" y="356.73">.</text>
<text x="145.94" y="21.92">+</text>
<text x="430.95" y="265.84">+</text>
<text x="327.65" y="494.14">.</text>
<text x="194.40" y="140.25">.</text>
<text x="86.52" y="450.86">.</text>
<text x="401.02" y="484.70">+</text>
<text x="108.65" y="3.43">+</text>
<text x="18.53" y="31.82">+</text>
<text x="467.99" y="287.54">.</text>
<text x="326.34" y="87.32">.</text>
<text x="116.92" y="203.84">+</text>
<text x="386.94" y="307.14">*</text>
<text x="391.98" y="151.02">+</text>
<text x="176.56" y="292.82">+</text>
<text x="69.08" y="462.50">+</text>
<text x="37.62" y="69.49">.</text>
<text x="132.06" y="194.19">.</text>
<text x="394.92" y="6.76">.</text>
<text x="472.91" y="169.79">+</text>
<text x="433.84" y="115.23">+</text>
<text x="198.11" y="207.80">.</text>
<text x="247.26" y="205.78">.</text>
<text x="349.81" y="483.17">.</text>
<text x="447.71" y="263.74">+</text>
<text x="458.76" y="0.77">+</text>
<text x="24.74" y="239.17">.</text>
<text x="248.99" y="211.34">.</text>
<text x="400.56" y="407.84">+</text>
<text x="430.55" y="198.83">+</text>
<text x="51.98" y="93.99">*</text>
<text x="239.10" y="403.85">+</text>
<text x="58.00" y="236.19">.</text>
<text x="342.17" y="313.46">+</text>
<text x="56.69" y="250.48">+</text>
<text x="279.77" y="279.29">.</text>
<text x="414.08" y="350.23">.</text>
<text x="454.29" y="319.88">+</text>
<text x="11.11" y="23.42">.</text>
<text x="64.19" y="321.20">+</text>
<text x="496.04" y="437.88">*</text>
<text x="478.86" y="301.21">.</text>
<text x="476.97" y="392.97">*</text>
<text x="261.94" y="265.25">+</text>
<text x="384.50" y="12.92">.</text>
<text x="334.51" y="326.98">+</text>
<text x="40.14" y="67.18">.</text>
<text x="371.18" y="56.77">+</text>
<text x="278.00" y="428.25">+</text>
<text x="232.50" y="132.36">+</text>
<text x="60.18" y="297.28">.</text>
<text x="9.86" y="214.86">.</text>
<text x="498.22" y="304.91">*</text>
<text x="72.27" y="291.34">+</text>
<text x="296.33" y="99.73">.</text>
<text x="389.82" y="495.90">+</text>
<text x="2.52" y="479.87">.</text>
<text x="466.71" y="44.91">*</text>
<text x="299.49" y="17.97">+</text>
<text x="263.65" y="290.92">.</text>
<text x="186.50" y="362.70">+</text>
<text x="203.61" y="307.77">.</text>
<text x="480.97" y="210.59">.</text>
<text x="55.71" y="42.70">.</text>
<text x="160.54" y="118.08">+</text>
<text x="44.43" y="370.95">+</text>
<text x="168.44" y="172.82">*</text>
<text x="157.81" y="204.65">*</text>
<text x="376.42" y="261.69">+</text>
<text x="106.75" y="41.98">.</text>
<text x="130.34" y="463.35">*</text>
<text x="437.62" y="226.30">.</text>
<text x="113.28" y="85.93">*</text>
<text x="107.90" y="114.15">.</text>
<text x="70.77" y="294.79">.</text>
<text x="385.76" y="56.48">+</text>
<text x="129.51" y="244.70">+</text>
<text x="231.13" y="158.61">+</text>
<text x="238.66" y="266.78">.</text>
<text x="15.93" y="78.35">.</text>
<text x="209.36" y="267.78">+</text>
<text x="92.18" y="214.82">+</text>
<text x="378.02" y="375.55">.</text>
<text x="23.03" y="187.72">+</text>
<text x="205.21" y="494.90">+</text>
<text x="387.64" y="263.14">.</text>
<text x="82.01" y="33.35">.</text>
<text x="233.01" y="313.01">.</text>
<text x="240.54" y="377.30">*</text>
<text x="79.88" y="461.86">+</text>
<text x="391.36" y="92.00">.</text>
<text x="92.28" y="188.02">+</text>
<text x="10.36" y="344.91">.</text>
<text x="312.26" y="66.19">*</text>
<text x="493.66" y="51.66">+</text>
<text x="426.91" y="254.53">+</text>
<text x="302.87" y="451.23">+</text>
<text x="176.53" y="226.41">+</text>
<text x="391.35" y="329.59">+</text>
<text x="316.32" y="156.61">.</text>
<text x="466.48" y="217.91">*</text>
<text x="266.53" y="227.84">+</text>
<text x="142.28" y="56.92">+</text>
<text x="46.19" y="36.18">.</text>
<text x="164.99" y="496.02">+</text>
<text x="21.95" y="209.43">*</text>
<text x="266.29" y="78.65">.</text>
<text x="131.92" y="244.48">.</text>
<text x="472.23" y="113.90">+</text>
<text x="410.95" y="323.71">+</text>
<text x="62.70" y="283.51">+</text>
<text x="267.33" y="15.60">.</text>
<text x="169.68" y="406.56">+</text>
<text x="426.35" y="415.22">+</text>
<text x="212.18" y="18.21">+</text>
<text x="376.58" y="499.54">*</text>
<text x="125.98" y="210.59">+</text>
<text x="235.00" y="331.57">*</text>
<text x="205.91" y="159.99">*</text>
<text x="352.66" y="374.30">.</text>
<text x="417.96" y="271.63">.</text>
<text x="315.84" y="255.32">+</text>
<text x="310.76" y="91.73">+</text>
<text x="409.91" y="436.78">.</text>
<text x="86.89" y="155.31">.</text>
<text x="443.42" y="472.94">.</text>
<text x="63.30" y="304.08">.</text>
<text x="163.02" y="492.84">.</text>
<text x="166.15" y="36.19">.</text>
<text x="207.93" y="27.42">+</text>
<text x="77.49" y="46.24">.</text>
<text x="114.98" y="391.10">.</text>
<text x="250.88" y="320.99">*</text>
<text x="481.22" y="484.39">*</text>
<text x="67.06" y="158.10">+</text>

</svg>