
<svg viewBox="0 0 500 500" xmlns="http://www.w.org/2000/svg" width="100%" height="100%" style="background-color: #0a0a14; font-family: 'Courier New', Courier, monospace;">
    <style>
        text { fill: #aaa; font-size: 10px; text-anchor: middle; dominant-baseline: middle; }
    </style>
    <text x="250.55" y="467.76">.</text>
<text x="195.29" y="158.42">+</text>
<text x="24.10" y="494.85">.</text>
<text x="93.97" y="428.39">+</text>
<text x="144.66" y="126.93">+</text>
<text x="76.07" y="363.22">.</text>
<text x="15.76" y="331.07">+</text>
<text x="476.61" y="278.67">*</text>
<text x="186.15" y="334.24">+</text>
<text x="308.44" y="43.89">*</text>
<text x="309.18" y="328.06">+</text>
<text x="101.08" y="389.84">+</text>
<text x="426.29" y="87.02">+</text>
<text x="179.21" y="326.28">+</text>
<text x="349.08" y="198.46">.</text>
<text x="450.99" y="350.97">.</text>
<text x="120.54" y="303.67">*</text>
<text x="123.11" y="396.60">+</text>
<text x="365.61" y="94.62">.</text>
<text x="476.31" y="211.61">.</text>
<text x="473.10" y="254.22">+</text>
<text x="160.24" y="460.05">+</text>
<text x="192.42" y="288.53">+</text>
<text x="75.75" y="272.66">+</text>
<text x="256.48" y="411.53">+</text>
<text x="392.45" y="126.50">.</text>
<text x="317.62" y="288.38">.</text>
<text x="301.47" y="274.70">+</text>
<text x="50.15" y="91.54">+</text>
<text x="455.85" y="145.54">.</text>
<text x="430.95" y="298.62">+</text>
<text x="421.95" y="381.05">+</text>
<text x="472.15" y="315.28">+</text>
<text x="473.51" y="207.61">.</text>
<text x="74.62" y="386.23">+</text>
<text x="421.75" y="272.54">.</text>
<text x="190.68" y="176.04">.</text>
<text x="148.93" y="29.86">.</text>
<text x="173.70" y="355.15">.</text>
<text x="53.73" y="21.69">.</text>
<text x="180.65" y="265.48">.</text>
<text x="291.34" y="61.46">.</text>
<text x="436.58" y="7.52">.</text>
<text x="35.77" y="475.81">+</text>
<text x="485.56" y="200.70">+</text>
<text x="426.40" y="253.85">+</text>
<text x="423.67" y="453.87">+</text>
<text x="281.00" y="268.54">+</text>
<text x="107.19" y="445.48">*</text>
<text x="196.14" y="172.95">+</text>
<text x="387.40" y="404.36">.</text>
<text x="306.33" y="387.05">+</text>
<text x="13.46" y="334.29">.</text>
<text x="320.40" y="85.99">+</text>
<text x="280.32" y="241.22">+</text>
<text x="386.49" y="79.13">+</text>
<text x="162.59" y="171.76">.</text>
<text x="268.28" y="96.87">.</text>
<text x="333.51" y="75.73">.</text>
<text x="63.50" y="483.84">*</text>
<text x="151.54" y="330.35">.</text>
<text x="221.10" y="108.96">.</text>
<text x="473.79" y="151.83">.</text>
<text x="209.25" y="390.36">*</text>
<text x="317.96" y="260.17">.</text>
<text x="183.31" y="276.46">+</text>
<text x="449.39" y="76.05">.</text>
<text x="419.29" y="363.14">*</text>
<text x="408.15" y="102.31">*</text>
<text x="350.36" y="297.87">.</text>
<text x="33.03" y="443.26">+</text>
<text x="167.91" y="11.66">.</text>
<text x="306.15" y="148.27">+</text>
<text x="55.20" y="447.31">.</text>
<text x="236.40" y="465.84">+</text>
<text x="191.25" y="367.27">*</text>
<text x="368.41" y="305.57">.</text>
<text x="67.92" y="169.21">+</text>
<text x="369.79" y="195.58">.</text>
<text x="39.31" y="15.66">.</text>
<text x="21.79" y="305.16">.</text>
<text x="203.28" y="171.64">.</text>
<text x="166.53" y="423.11">+</text>
<text x="41.72" y="11.78">+</text>
<text x="166.41" y="135.00">.</text>
<text x="61.49" y="386.58">+</text>
<text x="226.33" y="84.11">.</text>
<text x="321.98" y="80.62">.</text>
<text x="363.04" y="99.85">+</text>
<text x="35.40" y="117.66">*</text>
<text x="206.99" y="160.75">*</text>
<text x="8.32" y="478.05">+</text>
<text x="168.10" y="331.33">.</text>
<text x="206.72" y="15.25">.</text>
<text x="109.96" y="255.44">.</text>
<text x="431.32" y="390.95">.</text>
<text x="94.66" y="442.59">.</text>
<text x="299.91" y="386.46">*</text>
<text x="278.63" y="82.48">*</text>
<text x="66.74" y="66.77">.</text>
<text x="327.21" y="433.84">.</text>
<text x="315.59" y="315.70">.</text>
<text x="317.52" y="39.19">+</text>
<text x="185.50" y="329.53">.</text>
<text x="22.05" y="282.67">+</text>
<text x="409.11" y="427.60">.</text>
<text x="268.68" y="393.67">+</text>
<text x="442.50" y="220.41">+</text>
<text x="405.43" y="200.97">+</text>
<text x="308.01" y="8.87">.</text>
<text x="87.60" y="288.65">*</text>
<text x="61.80" y="32.03">+</text>
<text x="172.79" y="197.14">*</text>
<text x="406.28" y="302.90">.</text>
<text x="349.16" y="496.53">*</text>
<text x="374.77" y="6.46">+</text>
<text x="238.62" y="196.64">.</text>
<text x="8.62" y="367.82">+</text>
<text x="363.98" y="39.87">+</text>
<text x="290.25" y="416.40">*</text>
<text x="355.76" y="59.13">+</text>
<text x="67.30" y="111.70">.</text>
<text x="470.04" y="498.11">*</text>
<text x="471.41" y="31.83">.</text>
<text x="422.01" y="307.74">.</text>
<text x="288.17" y="49.44">*</text>
<text x="39.14" y="119.14">*</text>
<text x="368.86" y="307.65">+</text>
<text x="337.26" y="157.60">+</text>
<text x="92.43" y="401.76">.</text>
<text x="422.93" y="368.78">.</text>
<text x="327.96" y="127.43">.</text>
<text x="466.18" y="161.36">+</text>
<text x="230.25" y="350.44">.</text>
<text x="263.99" y="384.19">+</text>
<text x="131.97" y="129.77">.</text>
<text x="475.64" y="135.10">.</text>
<text x="496.08" y="491.74">.</text>
<text x="440.83" y="2.41">+</text>
<text x="163.01" y="77.43">+</text>
<text x="488.41" y="46.68">.</text>
<text x="459.69" y="53.75">.</text>
<text x="169.76" y="435.28">+</text>
<text x="399.96" y="70.69">.</text>
<text x="70.63" y="170.08">+</text>
<text x="122.84" y="393.49">.</text>
<text x="71.45" y="332.75">+</text>
<text x="358.14" y="290.58">+</text>
<text x="398.81" y="40.21">.</text>
<text x="217.76" y="353.64">+</text>
<text x="263.79" y="395.23">+</text>
<text x="264.91" y="391.28">+</text>
<text x="80.52" y="477.82">+</text>
<text x="193.79" y="165.20">*</text>
<text x="317.65" y="155.84">+</text>
<text x="188.72" y="422.59">+</text>
<text x="477.76" y="115.22">.</text>
<text x="110.51" y="402.76">.</text>
<text x="160.64" y="230.17">.</text>
<text x="435.14" y="461.71">.</text>
<text x="43.06" y="78.73">+</text>
<text x="83.88" y="38.00">.</text>
<text x="334.92" y="41.37">.</text>
<text x="159.47" y="475.02">+</text>
<text x="31.35" y="233.03">.</text>
<text x="104.82" y="62.71">*</text>
<text x="126.40" y="68.07">.</text>
<text x="481.26" y="348.10">*</text>
<text x="399.69" y="384.13">+</text>
<text x="431.36" y="91.99">.</text>
<text x="185.67" y="414.40">*</text>
<text x="333.83" y="9.12">+</text>
<text x="289.53" y="252.44">.</text>
<text x="490.58" y="167.67">+</text>
<text x="250.17" y="171.32">+</text>
<text x="229.10" y="3.16">.</text>
<text x="187.17" y="270.61">.</text>
<text x="341.29" y="219.66">*</text>
<text x="156.93" y="283.75">+</text>
<text x="474.04" y="366.11">+</text>
<text x="463.15" y="181.11">+</text>
<text x="99.71" y="262.11">*</text>
<text x="55.08" y="61.21">+</text>
<text x="341.69" y="234.87">.</text>
<text x="248.54" y="20.06">+</text>
<text x="448.02" y="276.75">+</text>
<text x="424.46" y="212.98">.</text>
<text x="34.83" y="366.11">.</text>
<text x="273.33" y="279.37">+</text>
<text x="463.14" y="407.92">.</text>
<text x="133.47" y="289.87">+</text>
<text x="226.78" y="89.36">.</text>
<text x="346.02" y="471.10">.</text>
<text x="203.24" y="185.77">+</text>
<text x="377.97" y="236.67">.</text>
<text x="131.44" y="361.77">+</text>
<text x="180.70" y="473.50">+</text>
<text x="135.04" y="303.41">+</text>
<text x="270.28" y="204.68">*</text>
<text x="368.07" y="286.28">+</text>
<text x="143.95" y="126.15">+</text>
<text x="454.44" y="111.91">+</text>
<text x="195.52" y="421.40">+</text>

</svg>