
<svg viewBox="0 0 500 500" xmlns="http://www.w.org/2000/svg" width="100%" height="100%" style="background-color: #0a0a14; font-family: 'Courier New', Courier, monospace;">
    <style>
        text { fill: #aaa; font-size: 10px; text-anchor: middle; dominant-baseline: middle; }
    </style>
    <text x="120.31" y="162.72">.</text>
<text x="243.69" y="311.71">+</text>
<text x="374.11" y="445.11">.</text>
<text x="496.61" y="391.71">.</text>
<text x="66.06" y="151.22">+</text>
<text x="279.75" y="215.75">*</text>
<text x="34.70" y="125.81">*</text>
<text x="11.65" y="388.69">*</text>
<text x="399.47" y="339.84">.</text>
<text x="32.76" y="58.34">.</text>
<text x="257.59" y="71.79">+</text>
<text x="188.05" y="223.07">.</text>
<text x="49.02" y="370.62">+</text>
<text x="290.91" y="376.61">*</text>
<text x="314.03" y="226.78">+</text>
<text x="362.36" y="149.08">+</text>
<text x="188.53" y="97.13">+</text>
<text x="73.15" y="490.34">.</text>
<text x="188.15" y="134.09">+</text>
<text x="311.07" y="198.35">.</text>
<text x="15.14" y="433.58">*</text>
<text x="57.82" y="19.11">.</text>
<text x="467.73" y="442.35">*</text>
<text x="261.19" y="324.06">.</text>
<text x="33.61" y="484.91">.</text>
<text x="487.66" y="302.14">+</text>
<text x="99.85" y="460.71">.</text>
<text x="57.93" y="304.12">.</text>
<text x="326.56" y="312.57">.</text>
<text x="472.69" y="306.36">*</text>
<text x="390.17" y="249.34">+</text>
<text x="462.18" y="29.59">.</text>
<text x="393.90" y="362.59">+</text>
<text x="362.21" y="433.86">+</text>
<text x="292.52" y="454.37">*</text>
<text x="468.76" y="29.50">+</text>
<text x="499.93" y="38.59">.</text>
<text x="364.36" y="495.55">.</text>
<text x="11.09" y="127.78">.</text>
<text x="319.15" y="111.22">+</text>
<text x="359.47" y="38.58">*</text>
<text x="360.81" y="282.11">.</text>
<text x="195.51" y="192.05">+</text>
<text x="486.97" y="499.55">+</text>
<text x="112.59" y="414.56">.</text>
<text x="244.11" y="430.98">.</text>
<text x="47.94" y="18.53">+</text>
<text x="31.45" y="290.52">.</text>
<text x="138.13" y="344.86">+</text>
<text x="193.79" y="245.57">*</text>
<text x="3.69" y="22.15">+</text>
<text x="274.64" y="207.26">+</text>
<text x="343.68" y="355.34">+</text>
<text x="469.34" y="165.53">+</text>
<text x="282.64" y="461.45">.</text>
<text x="172.35" y="234.47">*</text>
<text x="448.61" y="182.94">+</text>
<text x="143.85" y="127.73">+</text>
<text x="389.90" y="106.62">+</text>
<text x="365.89" y="416.89">.</text>
<text x="424.82" y="178.40">*</text>
<text x="390.36" y="396.62">.</text>
<text x="3.23" y="115.09">.</text>
<text x="338.07" y="317.51">.</text>
<text x="366.50" y="313.43">+</text>
<text x="137.90" y="51.04">+</text>
<text x="484.94" y="383.01">.</text>
<text x="265.55" y="369.90">+</text>
<text x="29.08" y="47.24">*</text>
<text x="199.35" y="104.69">.</text>
<text x="300.96" y="9.30">.</text>
<text x="171.14" y="133.89">+</text>
<text x="147.34" y="341.37">.</text>
<text x="90.67" y="399.68">+</text>
<text x="225.04" y="324.94">+</text>
<text x="203.33" y="279.33">+</text>
<text x="328.50" y="304.24">+</text>
<text x="199.22" y="411.40">+</text>
<text x="307.44" y="146.45">*</text>
<text x="266.25" y="485.39">+</text>
<text x="406.39" y="311.38">+</text>
<text x="394.08" y="388.05">.</text>
<text x="413.36" y="459.29">*</text>
<text x="264.60" y="269.45">.</text>
<text x="46.49" y="446.97">+</text>
<text x="9.21" y="163.39">*</text>
<text x="94.47" y="235.47">+</text>
<text x="42.87" y="107.99">+</text>
<text x="220.28" y="226.54">*</text>
<text x="113.25" y="427.29">*</text>
<text x="26.53" y="26.04">.</text>
<text x="386.71" y="171.18">.</text>
<text x="465.48" y="10.24">+</text>
<text x="73.00" y="402.53">+</text>
<text x="286.40" y="151.73">*</text>
<text x="89.50" y="422.11">+</text>
<text x="483.61" y="115.36">+</text>
<text x="151.56" y="139.64">+</text>
<text x="84.95" y="165.85">.</text>
<text x="182.92" y="111.69">.</text>
<text x="288.02" y="21.08">+</text>
<text x="81.06" y="42.44">.</text>
<text x="379.41" y="294.01">+</text>
<text x="241.89" y="239.49">.</text>
<text x="34.07" y="258.83">+</text>
<text x="119.34" y="50.76">+</text>
<text x="484.47" y="33.80">+</text>
<text x="448.19" y="195.42">.</text>
<text x="385.78" y="111.53">.</text>
<text x="212.94" y="418.99">.</text>
<text x="255.21" y="158.98">+</text>
<text x="56.62" y="366.75">.</text>
<text x="410.25" y="25.82">.</text>
<text x="96.75" y="461.34">.</text>
<text x="210.08" y="303.95">*</text>
<text x="85.29" y="110.52">.</text>
<text x="109.33" y="312.24">.</text>
<text x="287.20" y="74.45">+</text>
<text x="335.52" y="63.03">*</text>
<text x="184.16" y="201.31">+</text>
<text x="178.50" y="240.84">+</text>
<text x="30.93" y="351.42">*</text>
<text x="412.60" y="319.90">.</text>
<text x="11.77" y="65.97">+</text>
<text x="238.90" y="385.36">*</text>
<text x="365.16" y="119.12">+</text>
<text x="206.85" y="366.24">+</text>
<text x="341.08" y="484.23">*</text>
<text x="61.84" y="186.60">.</text>
<text x="203.08" y="19.46">.</text>
<text x="16.27" y="336.88">.</text>
<text x="32.81" y="22.39">*</text>
<text x="37.53" y="439.31">.</text>
<text x="67.60" y="365.82">.</text>
<text x="195.81" y="93.07">.</text>
<text x="122.20" y="191.71">+</text>
<text x="122.15" y="165.42">.</text>
<text x="383.97" y="149.94">+</text>
<text x="420.15" y="76.58">+</text>
<text x="400.53" y="456.78">.</text>
<text x="407.25" y="239.21">.</text>
<text x="367.68" y="240.20">+</text>
<text x="275.40" y="164.82">.</text>
<text x="414.94" y="381.10">*</text>
<text x="25.71" y="373.57">*</text>
<text x="102.96" y="84.15">.</text>
<text x="80.52" y="116.47">.</text>
<text x="28.66" y="327.69">.</text>
<text x="482.72" y="390.27">.</text>
<text x="354.37" y="175.07">+</text>
<text x="15.09" y="44.82">.</text>
<text x="11.76" y="462.63">.</text>
<text x="152.60" y="465.20">*</text>
<text x="6.14" y="94.13">.</text>
<text x="474.10" y="29.88">+</text>
<text x="246.62" y="496.57">.</text>
<text x="348.18" y="149.14">.</text>
<text x="31.92" y="440.17">+</text>
<text x="382.92" y="97.34">.</text>
<text x="284.99" y="120.50">+</text>
<text x="441.43" y="322.91">.</text>
<text x="205.51" y="374.42">.</text>
<text x="316.16" y="26.86">+</text>
<text x="287.73" y="426.37">+</text>
<text x="480.88" y="22.77">+</text>
<text x="294.74" y="263.91">.</text>
<text x="487.23" y="120.77">.</text>
<text x="110.73" y="68.51">.</text>
<text x="455.44" y="238.22">+</text>
<text x="181.15" y="418.52">.</text>
<text x="320.11" y="318.55">.</text>
<text x="70.19" y="37.24">+</text>
<text x="372.71" y="187.84">.</text>
<text x="166.73" y="202.66">.</text>
<text x="38.76" y="67.71">.</text>
<text x="409.45" y="80.07">+</text>
<text x="144.18" y="436.90">.</text>
<text x="453.65" y="72.17">+</text>
<text x="33.29" y="434.17">+</text>
<text x="441.39" y="427.53">.</text>
<text x="135.79" y="432.08">.</text>
<text x="298.19" y="306.34">+</text>
<text x="42.68" y="209.05">.</text>
<text x="326.39" y="269.02">+</text>
<text x="45.40" y="178.94">+</text>
<text x="435.80" y="118.09">+</text>
<text x="330.48" y="401.10">.</text>
<text x="469.66" y="163.83">.</text>
<text x="366.70" y="131.72">+</text>
<text x="48.12" y="111.74">+</text>
<text x="28.54" y="368.32">.</text>
<text x="373.08" y="230.03">+</text>
<text x="102.23" y="7.28">.</text>
<text x="51.47" y="43.59">.</text>
<text x="194.65" y="361.01">*</text>
<text x="233.06" y="321.72">.</text>
<text x="302.40" y="401.68">.</text>
<text x="6.49" y="223.28">*</text>
<text x="427.69" y="76.53">+</text>
<text x="5.24" y="364.74">.</text>
<text x="75.16" y="313.53">.</text>
<text x="278.42" y="35.82">*</text>
<text x="154.67" y="339.88">*</text>
<text x="85.52" y="398.99">.</text>
<text x="328.81" y="120.64">.</text>
<text x="165.69" y="26.02">*</text>
<text x="466.47" y="108.42">+</text>
<text x="484.32" y="343.71">+</text>
<text x="19.00" y="473.92">.</text>
<text x="235.50" y="195.01">+</text>
<text x="349.46" y="54.85">*</text>
<text x="199.77" y="312.38">.</text>
<text x="448.02" y="467.76">+</text>
<text x="213.47" y="390.10">+</text>
<text x="29.12" y="410.71">+</text>

</svg>