
<svg viewBox="0 0 500 500" xmlns="http://www.w.org/2000/svg" width="100%" height="100%" style="background-color: #0a0a14; font-family: 'Courier New', Courier, monospace;">
    <style>
        text { fill: #aaa; font-size: 10px; text-anchor: middle; dominant-baseline: middle; }
    </style>
    <text x="317.83" y="91.05">.</text>
<text x="16.40" y="54.16">+</text>
<text x="161.95" y="469.19">.</text>
<text x="104.79" y="278.08">.</text>
<text x="421.10" y="375.45">.</text>
<text x="238.75" y="445.05">+</text>
<text x="296.71" y="250.02">+</text>
<text x="270.94" y="114.01">+</text>
<text x="114.28" y="114.00">+</text>
<text x="433.22" y="232.21">+</text>
<text x="415.01" y="466.51">+</text>
<text x="273.44" y="137.09">*</text>
<text x="357.28" y="19.21">.</text>
<text x="109.44" y="382.95">.</text>
<text x="398.11" y="152.10">+</text>
<text x="130.10" y="330.03">+</text>
<text x="215.09" y="223.99">+</text>
<text x="420.42" y="402.09">*</text>
<text x="249.58" y="183.49">.</text>
<text x="73.15" y="415.44">+</text>
<text x="274.67" y="148.40">.</text>
<text x="216.15" y="495.17">+</text>
<text x="88.10" y="446.40">.</text>
<text x="423.28" y="202.34">.</text>
<text x="318.88" y="283.44">+</text>
<text x="155.86" y="126.50">.</text>
<text x="54.89" y="226.65">.</text>
<text x="81.09" y="7.37">+</text>
<text x="310.10" y="36.48">+</text>
<text x="226.05" y="198.80">.</text>
<text x="240.42" y="184.71">+</text>
<text x="147.71" y="402.36">*</text>
<text x="297.92" y="220.07">*</text>
<text x="441.61" y="317.54">+</text>
<text x="484.44" y="445.34">+</text>
<text x="423.70" y="98.81">*</text>
<text x="15.62" y="470.50">+</text>
<text x="371.53" y="474.15">+</text>
<text x="481.70" y="263.33">.</text>
<text x="315.98" y="385.64">+</text>
<text x="137.49" y="290.49">+</text>
<text x="368.19" y="298.59">+</text>
<text x="140.24" y="65.15">.</text>
<text x="291.60" y="346.56">.</text>
<text x="59.30" y="60.56">+</text>
<text x="406.85" y="231.63">.</text>
<text x="105.81" y="285.43">+</text>
<text x="135.71" y="7.65">+</text>
<text x="282.38" y="464.05">+</text>
<text x="291.42" y="383.99">.</text>
<text x="278.70" y="390.06">+</text>
<text x="245.42" y="181.51">*</text>
<text x="201.64" y="84.31">.</text>
<text x="409.59" y="303.30">.</text>
<text x="407.57" y="164.91">+</text>
<text x="61.09" y="124.58">.</text>
<text x="197.68" y="83.13">+</text>
<text x="294.52" y="350.11">.</text>
<text x="488.33" y="402.90">.</text>
<text x="1.66" y="426.47">*</text>
<text x="22.95" y="177.68">+</text>
<text x="17.88" y="328.73">.</text>
<text x="334.80" y="488.09">+</text>
<text x="7.88" y="112.95">.</text>
<text x="155.90" y="182.64">+</text>
<text x="156.48" y="194.45">*</text>
<text x="109.60" y="347.36">+</text>
<text x="231.65" y="249.87">+</text>
<text x="396.06" y="31.67">.</text>
<text x="424.53" y="24.82">+</text>
<text x="59.56" y="138.82">.</text>
<text x="458.26" y="346.15">+</text>
<text x="491.45" y="192.79">+</text>
<text x="398.10" y="227.19">.</text>
<text x="58.38" y="309.03">.</text>
<text x="432.53" y="16.74">+</text>
<text x="143.06" y="461.22">.</text>
<text x="103.64" y="284.82">.</text>
<text x="153.12" y="379.11">.</text>
<text x="207.34" y="69.41">+</text>
<text x="290.89" y="485.49">+</text>
<text x="200.99" y="418.90">.</text>
<text x="446.61" y="373.15">+</text>
<text x="197.62" y="155.87">+</text>
<text x="466.57" y="85.26">.</text>
<text x="67.11" y="75.25">+</text>
<text x="244.09" y="20.61">.</text>
<text x="268.91" y="391.03">.</text>
<text x="368.80" y="339.06">.</text>
<text x="273.20" y="282.86">.</text>
<text x="17.30" y="188.91">+</text>
<text x="372.21" y="456.39">*</text>
<text x="123.22" y="463.94">.</text>
<text x="313.97" y="128.25">.</text>
<text x="288.47" y="217.04">+</text>
<text x="115.61" y="361.52">+</text>
<text x="346.98" y="304.87">*</text>
<text x="404.37" y="145.07">.</text>
<text x="84.08" y="168.01">.</text>
<text x="480.35" y="365.93">.</text>
<text x="471.81" y="375.55">+</text>
<text x="166.01" y="156.82">.</text>
<text x="475.96" y="143.49">.</text>
<text x="139.23" y="196.80">.</text>
<text x="62.01" y="27.21">.</text>
<text x="77.82" y="461.82">+</text>
<text x="422.90" y="227.82">+</text>
<text x="207.57" y="56.06">*</text>
<text x="90.40" y="346.16">*</text>
<text x="398.02" y="210.81">+</text>
<text x="179.14" y="457.53">.</text>
<text x="189.18" y="66.22">+</text>
<text x="293.27" y="349.31">+</text>
<text x="486.36" y="493.73">+</text>
<text x="279.80" y="9.17">.</text>
<text x="284.65" y="385.15">.</text>
<text x="50.76" y="321.13">.</text>
<text x="273.46" y="304.31">.</text>
<text x="16.62" y="298.78">.</text>
<text x="144.38" y="56.28">.</text>
<text x="2.16" y="114.65">.</text>
<text x="98.90" y="354.55">+</text>
<text x="37.53" y="432.36">.</text>
<text x="286.40" y="476.29">+</text>
<text x="480.07" y="218.07">.</text>
<text x="62.14" y="400.24">.</text>
<text x="89.18" y="222.68">*</text>
<text x="166.53" y="119.01">+</text>
<text x="369.03" y="212.22">*</text>
<text x="344.91" y="189.48">*</text>
<text x="317.78" y="41.56">.</text>
<text x="338.49" y="222.16">.</text>
<text x="455.94" y="92.82">.</text>
<text x="295.49" y="357.50">.</text>
<text x="322.93" y="458.54">+</text>
<text x="329.34" y="155.71">.</text>
<text x="3.94" y="14.37">+</text>
<text x="427.46" y="118.49">+</text>
<text x="161.88" y="258.67">+</text>
<text x="200.79" y="434.39">+</text>
<text x="269.46" y="279.12">+</text>
<text x="345.00" y="357.20">+</text>
<text x="385.60" y="426.79">.</text>
<text x="356.80" y="152.43">+</text>
<text x="327.15" y="179.56">+</text>
<text x="81.42" y="415.69">+</text>
<text x="493.90" y="293.09">+</text>
<text x="168.55" y="189.14">+</text>
<text x="354.43" y="2.32">.</text>
<text x="239.45" y="371.02">.</text>
<text x="41.62" y="495.89">+</text>
<text x="438.62" y="159.02">+</text>
<text x="175.38" y="108.47">*</text>
<text x="419.91" y="409.64">+</text>
<text x="38.13" y="45.27">+</text>
<text x="324.60" y="184.61">.</text>
<text x="16.49" y="381.90">+</text>
<text x="407.49" y="235.23">+</text>
<text x="300.18" y="104.48">.</text>
<text x="183.82" y="222.53">.</text>
<text x="475.43" y="32.85">.</text>
<text x="427.16" y="353.89">.</text>
<text x="351.65" y="431.77">+</text>
<text x="100.04" y="268.30">*</text>
<text x="380.44" y="63.60">.</text>
<text x="288.20" y="40.77">*</text>
<text x="323.04" y="294.45">*</text>
<text x="164.08" y="487.52">.</text>
<text x="209.42" y="367.20">+</text>
<text x="113.20" y="83.30">.</text>
<text x="179.69" y="63.73">.</text>
<text x="215.51" y="219.19">.</text>
<text x="106.98" y="224.36">.</text>
<text x="12.35" y="311.70">+</text>
<text x="252.91" y="64.05">.</text>
<text x="466.02" y="225.75">.</text>
<text x="38.82" y="404.90">+</text>
<text x="477.08" y="408.89">.</text>
<text x="186.18" y="324.49">+</text>
<text x="372.75" y="443.99">.</text>
<text x="194.50" y="196.84">*</text>
<text x="216.42" y="348.66">+</text>
<text x="364.62" y="439.39">.</text>
<text x="474.38" y="120.16">.</text>
<text x="22.39" y="304.28">.</text>
<text x="417.43" y="42.99">.</text>
<text x="114.88" y="137.39">+</text>
<text x="212.68" y="397.22">*</text>
<text x="473.55" y="442.10">.</text>
<text x="438.22" y="104.59">.</text>
<text x="190.74" y="139.94">.</text>
<text x="9.77" y="286.18">+</text>
<text x="151.38" y="258.15">.</text>
<text x="263.52" y="92.96">.</text>
<text x="247.76" y="200.32">*</text>
<text x="445.33" y="289.62">*</text>
<text x="111.14" y="23.62">*</text>
<text x="138.59" y="415.66">.</text>
<text x="179.19" y="229.10">.</text>
<text x="161.85" y="62.97">+</text>
<text x="438.46" y="310.21">+</text>
<text x="67.98" y="251.80">+</text>
<text x="422.85" y="284.50">.</text>
<text x="332.18" y="285.01">+</text>
<text x="483.43" y="287.53">+</text>
<text x="259.51" y="243.04">.</text>
<text x="85.55" y="230.91">.</text>
<text x="260.30" y="343.49">+</text>
<text x="349.84" y="152.19">.</text>
<text x="309.61" y="463.78">.</text>
<text x="141.36" y="28.60">+</text>
<text x="90.82" y="213.90">+</text>
<text x="270.41" y="268.97">.</text>

</svg>