
<svg viewBox="0 0 500 500" xmlns="http://www.w.org/2000/svg" width="100%" height="100%" style="background-color: #0a0a14; font-family: 'Courier New', Courier, monospace;">
    <style>
        text { fill: #aaa; font-size: 10px; text-anchor: middle; dominant-baseline: middle; }
    </style>
    <text x="480.19" y="430.92">+</text>
<text x="454.18" y="153.89">.</text>
<text x="159.56" y="236.04">.</text>
<text x="301.62" y="327.87">+</text>
<text x="261.46" y="426.35">.</text>
<text x="262.15" y="480.11">.</text>
<text x="433.88" y="182.04">*</text>
<text x="278.34" y="31.07">.</text>
<text x="224.49" y="252.42">+</text>
<text x="304.82" y="346.15">*</text>
<text x="380.43" y="114.60">+</text>
<text x="145.84" y="340.50">+</text>
<text x="130.38" y="51.45">.</text>
<text x="97.84" y="74.01">+</text>
<text x="375.80" y="234.64">+</text>
<text x="220.84" y="384.29">.</text>
<text x="140.07" y="43.29">.</text>
<text x="32.79" y="70.27">*</text>
<text x="234.77" y="90.76">*</text>
<text x="38.30" y="150.83">.</text>
<text x="70.63" y="139.06">*</text>
<text x="264.84" y="157.41">.</text>
<text x="433.05" y="166.54">.</text>
<text x="473.31" y="429.03">+</text>
<text x="287.99" y="463.05">.</text>
<text x="176.20" y="444.67">.</text>
<text x="246.40" y="238.81">.</text>
<text x="38.61" y="203.74">+</text>
<text x="75.16" y="228.82">.</text>
<text x="347.80" y="134.74">.</text>
<text x="259.67" y="470.28">.</text>
<text x="104.45" y="160.81">*</text>
<text x="452.45" y="433.54">.</text>
<text x="369.15" y="153.54">+</text>
<text x="66.83" y="378.86">.</text>
<text x="98.95" y="419.37">*</text>
<text x="2.47" y="365.38">*</text>
<text x="147.82" y="57.57">+</text>
<text x="481.48" y="391.62">+</text>
<text x="207.91" y="439.48">*</text>
<text x="323.10" y="67.83">.</text>
<text x="389.72" y="408.98">.</text>
<text x="155.93" y="83.70">.</text>
<text x="212.54" y="45.34">+</text>
<text x="412.57" y="91.82">+</text>
<text x="276.62" y="382.00">+</text>
<text x="3.81" y="493.04">*</text>
<text x="268.54" y="20.49">*</text>
<text x="130.72" y="212.70">+</text>
<text x="376.29" y="93.87">.</text>
<text x="104.09" y="393.00">+</text>
<text x="154.97" y="343.20">.</text>
<text x="93.49" y="404.76">*</text>
<text x="337.79" y="465.42">+</text>
<text x="395.98" y="31.97">.</text>
<text x="499.31" y="113.06">.</text>
<text x="410.17" y="312.21">.</text>
<text x="446.36" y="296.82">.</text>
<text x="434.45" y="348.98">.</text>
<text x="258.07" y="171.01">+</text>
<text x="66.64" y="87.00">+</text>
<text x="114.80" y="252.99">.</text>
<text x="108.39" y="77.02">+</text>
<text x="33.80" y="62.53">+</text>
<text x="328.90" y="17.85">+</text>
<text x="275.71" y="345.35">+</text>
<text x="339.49" y="395.92">.</text>
<text x="117.40" y="110.96">.</text>
<text x="163.54" y="28.89">+</text>
<text x="163.81" y="281.26">+</text>
<text x="39.59" y="118.51">.</text>
<text x="269.08" y="297.43">*</text>
<text x="146.99" y="307.28">+</text>
<text x="221.54" y="345.24">*</text>
<text x="30.47" y="345.37">.</text>
<text x="304.98" y="230.85">.</text>
<text x="143.00" y="437.54">+</text>
<text x="233.62" y="377.54">.</text>
<text x="346.69" y="207.88">.</text>
<text x="474.63" y="127.41">+</text>
<text x="257.14" y="132.95">+</text>
<text x="158.65" y="469.68">.</text>
<text x="214.57" y="348.43">.</text>
<text x="92.92" y="389.79">.</text>
<text x="125.05" y="90.26">*</text>
<text x="104.79" y="488.57">*</text>
<text x="198.92" y="10.52">+</text>
<text x="388.36" y="270.26">+</text>
<text x="188.39" y="473.30">.</text>
<text x="341.28" y="303.73">.</text>
<text x="273.25" y="406.53">+</text>
<text x="138.97" y="66.93">+</text>
<text x="242.85" y="46.00">.</text>
<text x="229.77" y="407.54">.</text>
<text x="23.59" y="399.31">.</text>
<text x="81.90" y="20.01">+</text>
<text x="430.23" y="165.93">+</text>
<text x="245.89" y="8.42">+</text>
<text x="155.26" y="110.74">+</text>
<text x="240.29" y="345.65">+</text>
<text x="158.08" y="217.05">+</text>
<text x="476.56" y="121.25">.</text>
<text x="336.77" y="175.15">.</text>
<text x="357.82" y="143.77">.</text>
<text x="434.08" y="317.11">.</text>
<text x="281.12" y="62.77">.</text>
<text x="475.06" y="17.61">.</text>
<text x="118.51" y="482.67">.</text>
<text x="418.28" y="373.09">.</text>
<text x="387.14" y="154.71">+</text>
<text x="417.63" y="417.79">+</text>
<text x="190.35" y="146.45">.</text>
<text x="366.20" y="394.35">.</text>
<text x="416.11" y="28.91">.</text>
<text x="289.81" y="446.46">.</text>
<text x="198.39" y="334.26">.</text>
<text x="421.80" y="24.98">*</text>
<text x="0.26" y="335.34">.</text>
<text x="48.48" y="236.75">.</text>
<text x="440.47" y="445.95">.</text>
<text x="371.78" y="256.56">+</text>
<text x="283.14" y="418.46">.</text>
<text x="264.90" y="263.50">+</text>
<text x="154.45" y="312.38">+</text>
<text x="224.74" y="422.34">.</text>
<text x="114.52" y="203.99">+</text>
<text x="460.07" y="496.74">*</text>
<text x="353.17" y="417.58">+</text>
<text x="12.59" y="377.74">.</text>
<text x="202.33" y="285.93">*</text>
<text x="150.24" y="185.64">.</text>
<text x="18.36" y="344.14">.</text>
<text x="427.36" y="435.48">.</text>
<text x="339.63" y="76.76">.</text>
<text x="256.62" y="155.14">.</text>
<text x="47.43" y="254.67">*</text>
<text x="497.41" y="352.33">.</text>
<text x="35.64" y="85.15">+</text>
<text x="192.63" y="24.72">.</text>
<text x="62.01" y="246.33">.</text>
<text x="243.71" y="466.47">.</text>
<text x="95.70" y="254.85">+</text>
<text x="140.70" y="10.36">.</text>
<text x="48.41" y="234.13">+</text>
<text x="283.40" y="94.72">.</text>
<text x="388.11" y="138.15">.</text>
<text x="112.75" y="226.15">.</text>
<text x="447.97" y="450.45">*</text>
<text x="46.70" y="293.86">*</text>
<text x="24.85" y="406.51">.</text>
<text x="438.20" y="174.60">+</text>
<text x="199.08" y="496.72">.</text>
<text x="152.26" y="338.16">.</text>
<text x="346.22" y="469.47">+</text>
<text x="411.33" y="362.81">.</text>
<text x="387.56" y="444.75">+</text>
<text x="282.69" y="493.89">+</text>
<text x="12.44" y="295.01">*</text>
<text x="280.35" y="488.68">*</text>
<text x="221.75" y="314.47">.</text>
<text x="333.04" y="300.44">+</text>
<text x="50.80" y="348.10">+</text>
<text x="1.81" y="431.67">.</text>
<text x="373.48" y="45.72">.</text>
<text x="179.93" y="52.42">.</text>
<text x="375.66" y="370.21">+</text>
<text x="242.95" y="399.45">+</text>
<text x="469.02" y="26.17">+</text>
<text x="474.83" y="17.76">*</text>
<text x="364.47" y="190.90">+</text>
<text x="389.30" y="338.83">+</text>
<text x="209.87" y="231.25">+</text>
<text x="457.31" y="277.69">*</text>
<text x="432.01" y="58.44">+</text>
<text x="8.98" y="85.32">+</text>
<text x="214.67" y="333.68">.</text>
<text x="419.92" y="184.97">+</text>
<text x="425.43" y="175.59">+</text>
<text x="252.49" y="306.47">*</text>
<text x="7.02" y="457.35">.</text>
<text x="192.30" y="157.02">*</text>
<text x="311.69" y="346.71">*</text>
<text x="426.72" y="103.27">+</text>
<text x="297.31" y="119.13">+</text>
<text x="313.36" y="416.47">+</text>
<text x="241.99" y="296.01">*</text>
<text x="273.96" y="182.98">.</text>
<text x="75.31" y="253.57">.</text>
<text x="76.24" y="283.64">.</text>
<text x="77.61" y="399.96">+</text>
<text x="111.69" y="292.25">*</text>
<text x="70.10" y="306.81">+</text>
<text x="445.36" y="294.09">.</text>
<text x="496.07" y="369.82">.</text>
<text x="321.95" y="497.13">+</text>
<text x="347.16" y="43.02">+</text>
<text x="218.15" y="414.72">+</text>
<text x="193.39" y="61.53">.</text>
<text x="151.90" y="49.60">+</text>
<text x="143.25" y="169.47">.</text>
<text x="76.37" y="241.80">+</text>
<text x="55.09" y="274.29">+</text>
<text x="208.82" y="404.17">.</text>
<text x="142.71" y="94.82">+</text>
<text x="148.15" y="13.92">*</text>
<text x="384.97" y="19.85">.</text>
<text x="353.60" y="111.68">.</text>
<text x="376.89" y="177.01">*</text>
<text x="399.30" y="178.06">.</text>
<text x="351.93" y="430.01">+</text>
<text x="419.39" y="281.05">+</text>
<text x="98.23" y="160.35">*</text>
<text x="423.85" y="285.49">+</text>
<text x="1.30" y="226.50">.</text>
<text x="264.63" y="406.76">.</text>

</svg>