
<svg viewBox="0 0 500 500" xmlns="http://www.w.org/2000/svg" width="100%" height="100%" style="background-color: #0a0a14; font-family: 'Courier New', Courier, monospace;">
    <style>
        text { fill: #aaa; font-size: 10px; text-anchor: middle; dominant-baseline: middle; }
    </style>
    <text x="135.22" y="132.80">.</text>
<text x="385.28" y="398.21">+</text>
<text x="106.27" y="54.52">+</text>
<text x="30.80" y="130.62">+</text>
<text x="286.23" y="410.77">+</text>
<text x="468.40" y="234.77">+</text>
<text x="358.88" y="295.09">.</text>
<text x="371.94" y="241.18">*</text>
<text x="265.72" y="432.98">+</text>
<text x="407.84" y="54.73">.</text>
<text x="474.34" y="163.97">.</text>
<text x="216.19" y="419.04">.</text>
<text x="209.23" y="19.89">.</text>
<text x="215.20" y="190.47">+</text>
<text x="189.36" y="215.97">+</text>
<text x="92.90" y="463.60">.</text>
<text x="161.20" y="404.53">+</text>
<text x="348.17" y="288.80">+</text>
<text x="63.61" y="359.02">.</text>
<text x="496.51" y="251.18">+</text>
<text x="283.29" y="117.22">+</text>
<text x="398.58" y="59.02">.</text>
<text x="400.64" y="390.86">+</text>
<text x="401.70" y="271.95">+</text>
<text x="39.55" y="16.20">.</text>
<text x="41.01" y="467.16">+</text>
<text x="175.90" y="339.68">+</text>
<text x="222.30" y="324.12">*</text>
<text x="310.98" y="320.05">+</text>
<text x="322.02" y="29.74">.</text>
<text x="380.04" y="405.94">.</text>
<text x="99.89" y="131.00">+</text>
<text x="158.07" y="311.77">.</text>
<text x="193.10" y="38.04">*</text>
<text x="454.14" y="193.54">.</text>
<text x="88.85" y="371.79">+</text>
<text x="325.04" y="55.72">+</text>
<text x="178.14" y="417.62">.</text>
<text x="116.62" y="75.97">+</text>
<text x="328.74" y="51.86">.</text>
<text x="197.42" y="111.09">.</text>
<text x="80.82" y="172.79">+</text>
<text x="245.42" y="371.99">.</text>
<text x="382.78" y="288.82">.</text>
<text x="72.97" y="93.73">*</text>
<text x="441.94" y="227.37">*</text>
<text x="315.25" y="228.60">+</text>
<text x="434.13" y="96.08">.</text>
<text x="195.72" y="435.33">.</text>
<text x="374.92" y="18.39">+</text>
<text x="322.18" y="282.24">*</text>
<text x="179.27" y="393.13">.</text>
<text x="476.67" y="468.00">+</text>
<text x="146.88" y="118.03">+</text>
<text x="435.76" y="123.77">+</text>
<text x="381.08" y="301.57">.</text>
<text x="36.78" y="205.52">.</text>
<text x="68.13" y="27.69">+</text>
<text x="20.42" y="195.24">.</text>
<text x="61.75" y="410.05">+</text>
<text x="409.97" y="63.32">.</text>
<text x="474.27" y="362.10">.</text>
<text x="123.26" y="111.77">.</text>
<text x="296.62" y="271.78">.</text>
<text x="402.24" y="363.57">.</text>
<text x="214.53" y="430.55">+</text>
<text x="179.20" y="51.65">+</text>
<text x="348.31" y="174.78">.</text>
<text x="119.60" y="213.36">.</text>
<text x="469.08" y="378.74">.</text>
<text x="474.17" y="136.45">+</text>
<text x="176.79" y="168.76">.</text>
<text x="72.12" y="402.16">.</text>
<text x="366.77" y="406.81">+</text>
<text x="356.31" y="484.39">+</text>
<text x="351.87" y="104.14">.</text>
<text x="162.25" y="403.41">.</text>
<text x="446.24" y="40.99">.</text>
<text x="250.37" y="62.21">*</text>
<text x="182.18" y="270.81">+</text>
<text x="20.23" y="1.23">+</text>
<text x="183.94" y="191.89">.</text>
<text x="367.34" y="478.96">.</text>
<text x="71.57" y="3.04">+</text>
<text x="31.97" y="126.78">*</text>
<text x="113.42" y="160.18">.</text>
<text x="45.90" y="403.57">*</text>
<text x="15.45" y="2.23">+</text>
<text x="296.30" y="82.99">*</text>
<text x="34.73" y="280.42">.</text>
<text x="74.32" y="303.13">.</text>
<text x="244.02" y="218.81">+</text>
<text x="146.80" y="247.90">+</text>
<text x="308.30" y="366.14">.</text>
<text x="105.41" y="131.51">*</text>
<text x="97.79" y="471.05">+</text>
<text x="116.53" y="232.88">.</text>
<text x="414.48" y="433.84">*</text>
<text x="88.70" y="403.17">.</text>
<text x="406.86" y="342.80">.</text>
<text x="482.97" y="317.51">+</text>
<text x="162.66" y="76.93">.</text>
<text x="295.57" y="424.79">+</text>
<text x="424.20" y="214.73">+</text>
<text x="343.02" y="46.58">.</text>
<text x="292.67" y="377.21">+</text>
<text x="219.70" y="257.24">+</text>
<text x="69.09" y="419.26">+</text>
<text x="496.92" y="239.47">+</text>
<text x="166.80" y="13.49">*</text>
<text x="95.05" y="306.51">+</text>
<text x="371.45" y="346.36">.</text>
<text x="190.09" y="398.91">+</text>
<text x="383.66" y="305.15">.</text>
<text x="380.70" y="389.95">.</text>
<text x="125.65" y="256.75">*</text>
<text x="21.61" y="132.58">+</text>
<text x="292.54" y="110.07">.</text>
<text x="54.76" y="261.22">.</text>
<text x="467.18" y="27.31">*</text>
<text x="465.78" y="20.28">.</text>
<text x="413.74" y="283.68">*</text>
<text x="375.55" y="176.47">.</text>
<text x="28.02" y="98.36">.</text>
<text x="210.02" y="215.63">.</text>
<text x="27.62" y="496.85">+</text>
<text x="266.93" y="383.69">.</text>
<text x="202.75" y="163.08">+</text>
<text x="40.64" y="119.47">.</text>
<text x="461.58" y="80.92">+</text>
<text x="48.30" y="336.33">+</text>
<text x="265.29" y="243.95">+</text>
<text x="258.16" y="263.99">+</text>
<text x="446.71" y="45.85">+</text>
<text x="336.15" y="379.07">.</text>
<text x="481.26" y="349.58">.</text>
<text x="443.34" y="250.54">.</text>
<text x="200.53" y="456.55">.</text>
<text x="446.48" y="485.32">*</text>
<text x="49.50" y="476.24">+</text>
<text x="37.44" y="459.46">+</text>
<text x="314.82" y="385.94">*</text>
<text x="426.88" y="408.00">.</text>
<text x="357.80" y="37.75">.</text>
<text x="415.10" y="15.75">+</text>
<text x="236.42" y="397.33">.</text>
<text x="0.72" y="85.46">+</text>
<text x="477.45" y="30.81">+</text>
<text x="345.33" y="65.40">.</text>
<text x="387.06" y="107.99">+</text>
<text x="381.88" y="303.30">*</text>
<text x="427.98" y="31.24">+</text>
<text x="217.92" y="18.08">+</text>
<text x="61.35" y="399.53">.</text>
<text x="50.95" y="447.76">.</text>
<text x="225.42" y="415.92">*</text>
<text x="19.01" y="344.63">.</text>
<text x="220.85" y="320.48">.</text>
<text x="81.72" y="420.69">.</text>
<text x="346.80" y="246.05">*</text>
<text x="204.93" y="295.85">*</text>
<text x="442.53" y="112.88">+</text>
<text x="12.11" y="423.69">+</text>
<text x="122.11" y="344.85">+</text>
<text x="58.99" y="362.51">+</text>
<text x="498.63" y="331.99">+</text>
<text x="337.55" y="97.07">+</text>
<text x="493.32" y="188.33">*</text>
<text x="103.68" y="62.23">*</text>
<text x="134.72" y="105.44">.</text>
<text x="97.21" y="479.02">+</text>
<text x="273.42" y="59.01">+</text>
<text x="99.47" y="463.86">*</text>
<text x="440.10" y="299.26">.</text>
<text x="413.24" y="305.05">*</text>
<text x="133.82" y="498.51">.</text>
<text x="188.24" y="390.96">+</text>
<text x="439.72" y="317.83">+</text>
<text x="467.40" y="303.34">.</text>
<text x="487.83" y="342.30">.</text>
<text x="432.56" y="437.14">+</text>
<text x="473.79" y="189.64">+</text>
<text x="31.93" y="203.59">+</text>
<text x="377.89" y="231.38">*</text>
<text x="281.99" y="428.86">+</text>
<text x="291.88" y="373.51">+</text>
<text x="130.71" y="170.76">+</text>
<text x="26.17" y="356.54">+</text>
<text x="445.88" y="82.56">.</text>
<text x="178.49" y="274.79">+</text>
<text x="120.49" y="316.05">+</text>
<text x="235.76" y="242.91">+</text>
<text x="279.34" y="329.66">.</text>
<text x="363.65" y="479.43">+</text>
<text x="184.46" y="69.81">*</text>
<text x="200.89" y="174.95">.</text>
<text x="355.05" y="369.30">+</text>
<text x="23.49" y="203.92">*</text>
<text x="461.01" y="315.26">+</text>
<text x="211.35" y="84.50">+</text>
<text x="7.05" y="417.88">+</text>
<text x="28.16" y="391.70">.</text>
<text x="224.58" y="9.64">.</text>
<text x="309.26" y="5.35">*</text>
<text x="411.31" y="371.78">.</text>
<text x="190.42" y="266.40">.</text>
<text x="57.44" y="440.83">+</text>
<text x="242.36" y="409.29">+</text>
<text x="25.63" y="396.99">.</text>
<text x="464.59" y="315.53">+</text>
<text x="240.98" y="479.24">.</text>
<text x="472.88" y="151.64">.</text>
<text x="453.23" y="341.92">*</text>
<text x="30.40" y="128.81">.</text>
<text x="441.36" y="382.58">+</text>
<text x="423.78" y="299.21">+</text>

</svg>