
<svg viewBox="0 0 500 500" xmlns="http://www.w.org/2000/svg" width="100%" height="100%" style="background-color: #0a0a14; font-family: 'Courier New', Courier, monospace;">
    <style>
        text { fill: #aaa; font-size: 10px; text-anchor: middle; dominant-baseline: middle; }
    </style>
    <text x="411.60" y="431.85">+</text>
<text x="452.38" y="173.59">.</text>
<text x="235.31" y="252.15">.</text>
<text x="156.93" y="77.00">+</text>
<text x="396.36" y="347.54">+</text>
<text x="209.01" y="115.94">.</text>
<text x="330.02" y="231.57">.</text>
<text x="273.60" y="150.44">.</text>
<text x="208.77" y="361.80">+</text>
<text x="46.13" y="379.61">.</text>
<text x="362.39" y="409.34">+</text>
<text x="257.71" y="412.52">+</text>
<text x="135.20" y="223.52">+</text>
<text x="295.29" y="199.88">+</text>
<text x="490.76" y="88.65">+</text>
<text x="8.91" y="272.44">*</text>
<text x="158.86" y="59.02">.</text>
<text x="155.46" y="181.37">.</text>
<text x="467.68" y="496.89">*</text>
<text x="448.53" y="37.45">+</text>
<text x="12.79" y="58.76">+</text>
<text x="141.37" y="25.71">.</text>
<text x="163.06" y="62.66">+</text>
<text x="389.32" y="298.84">.</text>
<text x="120.25" y="70.42">.</text>
<text x="472.67" y="435.04">*</text>
<text x="309.75" y="413.20">+</text>
<text x="267.68" y="284.16">*</text>
<text x="490.36" y="476.76">*</text>
<text x="70.88" y="111.23">*</text>
<text x="205.24" y="153.57">+</text>
<text x="199.56" y="63.00">.</text>
<text x="212.12" y="388.18">.</text>
<text x="110.60" y="22.02">.</text>
<text x="456.21" y="229.17">.</text>
<text x="141.56" y="199.95">+</text>
<text x="282.89" y="302.80">.</text>
<text x="414.47" y="89.31">+</text>
<text x="316.16" y="98.49">*</text>
<text x="459.03" y="108.20">+</text>
<text x="355.57" y="197.61">+</text>
<text x="16.92" y="383.72">+</text>
<text x="63.59" y="41.36">.</text>
<text x="326.62" y="391.30">+</text>
<text x="395.27" y="202.31">.</text>
<text x="281.59" y="18.66">+</text>
<text x="38.84" y="192.20">*</text>
<text x="401.43" y="103.15">+</text>
<text x="436.61" y="278.58">+</text>
<text x="243.67" y="364.82">+</text>
<text x="248.98" y="420.08">.</text>
<text x="453.10" y="246.16">*</text>
<text x="374.44" y="294.66">+</text>
<text x="177.29" y="114.89">+</text>
<text x="371.83" y="268.26">+</text>
<text x="351.44" y="283.79">.</text>
<text x="223.61" y="284.93">.</text>
<text x="6.17" y="13.75">*</text>
<text x="388.93" y="93.21">+</text>
<text x="74.61" y="370.87">+</text>
<text x="42.42" y="168.40">.</text>
<text x="73.20" y="217.21">.</text>
<text x="386.87" y="492.47">.</text>
<text x="454.70" y="293.73">.</text>
<text x="167.30" y="352.32">.</text>
<text x="150.16" y="101.02">*</text>
<text x="137.59" y="148.98">+</text>
<text x="466.47" y="231.66">+</text>
<text x="325.35" y="460.88">*</text>
<text x="328.39" y="476.42">.</text>
<text x="493.09" y="330.32">.</text>
<text x="234.89" y="345.01">.</text>
<text x="249.02" y="327.82">+</text>
<text x="378.46" y="173.21">+</text>
<text x="96.05" y="271.10">.</text>
<text x="418.16" y="301.27">.</text>
<text x="261.73" y="39.12">+</text>
<text x="70.98" y="245.08">+</text>
<text x="282.40" y="491.23">+</text>
<text x="392.82" y="201.05">.</text>
<text x="472.63" y="179.10">+</text>
<text x="393.44" y="217.92">+</text>
<text x="324.96" y="122.03">+</text>
<text x="373.26" y="162.64">*</text>
<text x="259.24" y="432.34">+</text>
<text x="447.20" y="369.65">+</text>
<text x="262.66" y="218.62">.</text>
<text x="62.98" y="180.52">.</text>
<text x="486.41" y="198.05">+</text>
<text x="251.20" y="220.08">.</text>
<text x="391.58" y="33.88">.</text>
<text x="391.97" y="474.11">+</text>
<text x="11.96" y="318.85">+</text>
<text x="420.17" y="317.48">.</text>
<text x="408.77" y="184.48">.</text>
<text x="77.47" y="346.21">*</text>
<text x="25.67" y="179.14">*</text>
<text x="150.77" y="483.50">.</text>
<text x="489.38" y="223.87">.</text>
<text x="5.46" y="130.54">.</text>
<text x="417.11" y="249.25">*</text>
<text x="52.31" y="153.87">.</text>
<text x="457.59" y="56.84">+</text>
<text x="206.26" y="143.80">+</text>
<text x="152.22" y="55.27">+</text>
<text x="467.54" y="284.20">.</text>
<text x="398.49" y="395.13">+</text>
<text x="13.33" y="142.12">.</text>
<text x="451.61" y="463.96">*</text>
<text x="16.39" y="298.81">.</text>
<text x="19.46" y="283.20">+</text>
<text x="202.71" y="36.96">.</text>
<text x="187.19" y="438.24">+</text>
<text x="301.05" y="171.26">+</text>
<text x="172.19" y="81.20">.</text>
<text x="232.25" y="71.23">+</text>
<text x="260.49" y="3.69">*</text>
<text x="316.08" y="71.37">.</text>
<text x="237.42" y="292.20">+</text>
<text x="253.20" y="446.53">+</text>
<text x="398.67" y="306.10">.</text>
<text x="293.13" y="369.19">.</text>
<text x="424.44" y="448.69">*</text>
<text x="109.42" y="306.38">+</text>
<text x="155.34" y="259.15">.</text>
<text x="481.40" y="280.79">.</text>
<text x="69.59" y="164.19">+</text>
<text x="224.38" y="242.51">.</text>
<text x="220.03" y="325.51">+</text>
<text x="298.72" y="16.64">+</text>
<text x="475.14" y="307.35">+</text>
<text x="84.12" y="5.31">*</text>
<text x="378.36" y="389.77">+</text>
<text x="60.99" y="471.43">+</text>
<text x="63.85" y="465.94">+</text>
<text x="319.36" y="393.61">+</text>
<text x="368.04" y="147.64">.</text>
<text x="344.28" y="340.22">+</text>
<text x="356.79" y="21.58">.</text>
<text x="333.93" y="119.75">*</text>
<text x="434.36" y="84.67">.</text>
<text x="41.47" y="3.52">.</text>
<text x="137.38" y="200.51">+</text>
<text x="455.34" y="432.12">.</text>
<text x="140.05" y="299.83">.</text>
<text x="422.91" y="211.93">.</text>
<text x="290.78" y="173.12">+</text>
<text x="285.34" y="233.42">*</text>
<text x="179.08" y="296.05">*</text>
<text x="302.79" y="287.40">.</text>
<text x="251.85" y="267.82">+</text>
<text x="92.44" y="268.44">+</text>
<text x="374.39" y="422.68">+</text>
<text x="433.10" y="361.05">+</text>
<text x="272.83" y="60.43">+</text>
<text x="105.20" y="464.13">+</text>
<text x="462.88" y="356.69">.</text>
<text x="39.63" y="220.36">+</text>
<text x="150.95" y="497.83">+</text>
<text x="491.90" y="23.99">.</text>
<text x="409.21" y="416.79">.</text>
<text x="288.41" y="380.08">.</text>
<text x="425.37" y="280.54">+</text>
<text x="347.67" y="318.85">.</text>
<text x="249.91" y="244.41">+</text>
<text x="202.82" y="87.18">.</text>
<text x="440.28" y="258.46">.</text>
<text x="138.64" y="82.60">.</text>
<text x="96.58" y="238.74">+</text>
<text x="67.06" y="210.66">+</text>
<text x="134.72" y="416.06">.</text>
<text x="62.53" y="159.91">.</text>
<text x="323.03" y="181.50">*</text>
<text x="90.48" y="437.71">.</text>
<text x="134.33" y="299.57">+</text>
<text x="99.11" y="425.36">+</text>
<text x="299.97" y="51.74">*</text>
<text x="125.81" y="312.57">*</text>
<text x="163.43" y="12.83">.</text>
<text x="54.92" y="45.60">+</text>
<text x="344.00" y="225.74">.</text>
<text x="386.93" y="494.23">+</text>
<text x="262.87" y="401.09">.</text>
<text x="262.60" y="223.25">.</text>
<text x="110.60" y="416.40">+</text>
<text x="120.54" y="300.84">*</text>
<text x="115.68" y="340.97">+</text>
<text x="192.32" y="286.78">.</text>
<text x="33.23" y="106.18">.</text>
<text x="264.34" y="350.97">+</text>
<text x="403.68" y="274.41">.</text>
<text x="446.97" y="168.30">.</text>
<text x="46.52" y="197.01">.</text>
<text x="203.83" y="78.90">.</text>
<text x="404.74" y="259.77">+</text>
<text x="301.64" y="265.80">+</text>
<text x="180.58" y="60.14">+</text>
<text x="166.41" y="114.63">.</text>
<text x="71.20" y="188.30">.</text>
<text x="67.45" y="177.35">+</text>
<text x="290.22" y="274.74">.</text>
<text x="457.20" y="66.55">.</text>
<text x="45.45" y="169.87">.</text>
<text x="383.35" y="265.92">.</text>
<text x="223.24" y="478.56">+</text>
<text x="356.39" y="364.12">.</text>
<text x="331.73" y="285.56">.</text>
<text x="358.08" y="32.03">+</text>
<text x="366.66" y="479.59">.</text>
<text x="67.71" y="412.89">.</text>
<text x="456.21" y="3.86">.</text>
<text x="154.46" y="90.72">.</text>
<text x="2.47" y="105.77">+</text>
<text x="391.69" y="153.65">.</text>
<text x="202.50" y="434.73">+</text>
<text x="232.45" y="423.05">+</text>
<text x="368.96" y="95.77">+</text>
<text x="101.18" y="225.46">.</text>
<text x="311.70" y="215.54">+</text>
<text x="184.63" y="209.94">.</text>

</svg>