
<svg viewBox="0 0 500 500" xmlns="http://www.w.org/2000/svg" width="100%" height="100%" style="background-color: #0a0a14; font-family: 'Courier New', Courier, monospace;">
    <style>
        text { fill: #aaa; font-size: 10px; text-anchor: middle; dominant-baseline: middle; }
    </style>
    <text x="107.43" y="182.45">.</text>
<text x="381.37" y="441.38">.</text>
<text x="4.58" y="229.43">+</text>
<text x="365.84" y="382.74">+</text>
<text x="272.04" y="286.59">+</text>
<text x="195.17" y="208.26">+</text>
<text x="420.18" y="363.62">*</text>
<text x="334.44" y="279.58">*</text>
<text x="137.29" y="150.72">+</text>
<text x="53.23" y="68.21">+</text>
<text x="9.89" y="374.63">.</text>
<text x="247.48" y="57.66">.</text>
<text x="227.60" y="1.75">+</text>
<text x="224.93" y="19.22">*</text>
<text x="52.06" y="214.29">.</text>
<text x="337.87" y="312.39">*</text>
<text x="213.27" y="245.09">.</text>
<text x="89.28" y="23.74">+</text>
<text x="439.96" y="206.11">+</text>
<text x="266.66" y="102.77">+</text>
<text x="291.49" y="496.91">+</text>
<text x="434.86" y="124.44">.</text>
<text x="12.06" y="16.47">.</text>
<text x="226.75" y="433.15">+</text>
<text x="113.96" y="258.14">.</text>
<text x="425.41" y="119.58">.</text>
<text x="444.09" y="39.75">*</text>
<text x="52.81" y="104.17">.</text>
<text x="207.63" y="224.03">.</text>
<text x="379.02" y="16.34">+</text>
<text x="312.72" y="31.41">+</text>
<text x="449.72" y="339.47">+</text>
<text x="389.50" y="129.90">.</text>
<text x="125.61" y="48.18">.</text>
<text x="152.39" y="150.29">+</text>
<text x="308.27" y="55.90">.</text>
<text x="462.62" y="189.89">.</text>
<text x="26.23" y="456.02">+</text>
<text x="200.87" y="397.95">.</text>
<text x="377.11" y="9.78">.</text>
<text x="338.25" y="415.10">.</text>
<text x="99.76" y="90.33">.</text>
<text x="158.15" y="129.71">*</text>
<text x="317.25" y="44.50">+</text>
<text x="465.04" y="240.34">.</text>
<text x="106.14" y="191.07">+</text>
<text x="304.14" y="288.44">.</text>
<text x="234.23" y="206.48">.</text>
<text x="257.34" y="389.08">.</text>
<text x="246.11" y="50.87">+</text>
<text x="78.58" y="359.32">+</text>
<text x="156.29" y="229.54">.</text>
<text x="3.93" y="75.00">.</text>
<text x="26.91" y="377.41">*</text>
<text x="247.22" y="85.89">.</text>
<text x="413.93" y="241.27">.</text>
<text x="16.52" y="219.38">.</text>
<text x="87.35" y="479.31">.</text>
<text x="98.60" y="336.38">*</text>
<text x="168.00" y="400.89">.</text>
<text x="278.43" y="372.04">.</text>
<text x="433.08" y="51.83">.</text>
<text x="190.13" y="230.02">+</text>
<text x="226.32" y="12.56">+</text>
<text x="195.72" y="433.83">+</text>
<text x="78.30" y="162.62">.</text>
<text x="89.75" y="196.91">.</text>
<text x="100.23" y="132.16">+</text>
<text x="288.94" y="338.87">+</text>
<text x="197.83" y="359.31">.</text>
<text x="461.01" y="266.71">.</text>
<text x="80.09" y="103.04">.</text>
<text x="230.50" y="60.37">.</text>
<text x="172.91" y="158.33">+</text>
<text x="328.93" y="201.70">+</text>
<text x="406.60" y="17.01">+</text>
<text x="258.89" y="287.63">.</text>
<text x="112.18" y="168.84">*</text>
<text x="268.92" y="21.72">.</text>
<text x="83.23" y="299.59">.</text>
<text x="312.20" y="64.53">*</text>
<text x="389.76" y="150.47">.</text>
<text x="457.95" y="44.15">*</text>
<text x="496.87" y="279.67">+</text>
<text x="4.44" y="194.51">.</text>
<text x="396.56" y="303.91">.</text>
<text x="318.07" y="214.28">+</text>
<text x="104.88" y="252.95">*</text>
<text x="424.25" y="360.39">.</text>
<text x="381.92" y="286.30">*</text>
<text x="21.05" y="234.98">+</text>
<text x="62.45" y="373.61">+</text>
<text x="167.75" y="166.45">.</text>
<text x="303.59" y="159.31">+</text>
<text x="467.85" y="344.87">*</text>
<text x="59.76" y="468.86">*</text>
<text x="47.57" y="235.21">.</text>
<text x="307.55" y="129.97">.</text>
<text x="40.92" y="8.14">+</text>
<text x="351.08" y="112.22">.</text>
<text x="342.66" y="50.98">+</text>
<text x="258.18" y="203.34">+</text>
<text x="379.94" y="218.09">.</text>
<text x="120.78" y="365.93">.</text>
<text x="340.77" y="245.57">+</text>
<text x="90.29" y="298.19">.</text>
<text x="51.81" y="202.65">.</text>
<text x="115.37" y="357.39">+</text>
<text x="72.47" y="455.61">.</text>
<text x="259.80" y="90.60">+</text>
<text x="71.88" y="339.98">+</text>
<text x="192.90" y="183.10">+</text>
<text x="183.22" y="41.54">+</text>
<text x="310.73" y="412.34">.</text>
<text x="226.96" y="131.93">.</text>
<text x="475.08" y="312.21">+</text>
<text x="446.80" y="415.98">+</text>
<text x="304.84" y="214.68">+</text>
<text x="388.11" y="165.08">.</text>
<text x="225.56" y="104.47">.</text>
<text x="57.23" y="255.02">*</text>
<text x="337.37" y="47.45">.</text>
<text x="161.01" y="483.52">+</text>
<text x="137.59" y="4.69">+</text>
<text x="483.56" y="218.19">.</text>
<text x="287.78" y="162.66">.</text>
<text x="328.12" y="318.94">+</text>
<text x="53.66" y="303.96">+</text>
<text x="490.71" y="353.33">.</text>
<text x="160.56" y="40.53">.</text>
<text x="436.07" y="232.79">+</text>
<text x="316.57" y="74.32">.</text>
<text x="382.29" y="450.73">+</text>
<text x="330.05" y="146.71">.</text>
<text x="21.13" y="368.38">*</text>
<text x="405.98" y="189.76">*</text>
<text x="254.21" y="122.03">+</text>
<text x="4.69" y="24.34">.</text>
<text x="406.06" y="492.34">+</text>
<text x="470.96" y="491.10">+</text>
<text x="143.73" y="323.44">.</text>
<text x="394.64" y="40.10">.</text>
<text x="373.86" y="171.65">.</text>
<text x="50.99" y="325.12">+</text>
<text x="183.73" y="55.08">*</text>
<text x="94.02" y="233.06">*</text>
<text x="331.64" y="166.74">*</text>
<text x="495.73" y="117.90">.</text>
<text x="431.15" y="320.21">+</text>
<text x="203.28" y="9.70">*</text>
<text x="193.10" y="9.20">.</text>
<text x="173.50" y="425.64">+</text>
<text x="415.42" y="8.15">+</text>
<text x="55.65" y="305.53">.</text>
<text x="119.77" y="460.32">*</text>
<text x="298.46" y="157.87">.</text>
<text x="101.22" y="270.15">.</text>
<text x="138.69" y="72.93">.</text>
<text x="340.94" y="127.45">.</text>
<text x="372.08" y="247.08">*</text>
<text x="368.68" y="280.05">*</text>
<text x="259.13" y="265.42">+</text>
<text x="430.91" y="247.12">+</text>
<text x="345.66" y="18.43">+</text>
<text x="446.70" y="7.08">.</text>
<text x="280.48" y="276.33">+</text>
<text x="171.25" y="438.25">+</text>
<text x="480.85" y="104.92">.</text>
<text x="143.53" y="174.74">.</text>
<text x="70.14" y="32.86">+</text>
<text x="467.39" y="92.87">.</text>
<text x="94.91" y="4.24">+</text>
<text x="71.06" y="254.02">.</text>
<text x="33.92" y="465.68">+</text>
<text x="393.56" y="447.00">.</text>
<text x="330.16" y="100.72">+</text>
<text x="439.79" y="422.23">.</text>
<text x="363.62" y="493.24">.</text>
<text x="320.07" y="463.49">.</text>
<text x="332.49" y="248.93">+</text>
<text x="257.87" y="473.64">.</text>
<text x="240.67" y="45.01">.</text>
<text x="324.59" y="98.12">.</text>
<text x="141.67" y="195.50">*</text>
<text x="304.66" y="84.05">.</text>
<text x="303.21" y="140.15">.</text>
<text x="56.55" y="191.74">.</text>
<text x="144.99" y="67.40">+</text>
<text x="431.93" y="193.47">+</text>
<text x="262.95" y="142.20">+</text>
<text x="463.22" y="142.89">*</text>
<text x="1.90" y="346.96">+</text>
<text x="120.90" y="384.26">+</text>
<text x="13.91" y="168.07">.</text>
<text x="315.35" y="411.41">+</text>

</svg>