
<svg viewBox="0 0 500 500" xmlns="http://www.w.org/2000/svg" width="100%" height="100%" style="background-color: #0a0a14; font-family: 'Courier New', Courier, monospace;">
    <style>
        text { fill: #aaa; font-size: 10px; text-anchor: middle; dominant-baseline: middle; }
    </style>
    <text x="440.48" y="209.99">+</text>
<text x="261.00" y="363.65">+</text>
<text x="238.85" y="245.99">+</text>
<text x="239.20" y="371.02">.</text>
<text x="461.45" y="336.67">+</text>
<text x="241.69" y="474.32">.</text>
<text x="314.53" y="252.43">.</text>
<text x="339.17" y="311.19">+</text>
<text x="366.58" y="146.19">.</text>
<text x="128.67" y="302.39">.</text>
<text x="65.82" y="20.33">.</text>
<text x="308.70" y="36.27">+</text>
<text x="328.92" y="413.80">.</text>
<text x="70.65" y="494.14">+</text>
<text x="144.62" y="349.78">.</text>
<text x="311.33" y="388.96">.</text>
<text x="393.56" y="126.64">+</text>
<text x="132.86" y="185.88">.</text>
<text x="44.71" y="455.80">.</text>
<text x="158.48" y="74.97">+</text>
<text x="98.06" y="426.57">.</text>
<text x="49.40" y="75.36">.</text>
<text x="361.16" y="156.41">.</text>
<text x="467.18" y="139.11">+</text>
<text x="301.19" y="378.16">.</text>
<text x="192.73" y="177.51">.</text>
<text x="143.85" y="63.67">+</text>
<text x="78.89" y="253.43">.</text>
<text x="449.86" y="261.79">*</text>
<text x="272.03" y="90.35">.</text>
<text x="350.00" y="399.10">.</text>
<text x="25.20" y="178.63">+</text>
<text x="150.51" y="219.25">+</text>
<text x="359.66" y="244.88">+</text>
<text x="119.61" y="275.63">+</text>
<text x="399.34" y="121.33">*</text>
<text x="356.44" y="39.23">.</text>
<text x="181.95" y="32.00">.</text>
<text x="112.55" y="79.67">.</text>
<text x="418.82" y="305.42">+</text>
<text x="156.04" y="59.69">+</text>
<text x="226.85" y="441.54">+</text>
<text x="70.28" y="211.38">+</text>
<text x="252.08" y="89.97">+</text>
<text x="329.67" y="140.54">*</text>
<text x="87.14" y="65.87">+</text>
<text x="80.36" y="405.47">*</text>
<text x="476.66" y="243.26">+</text>
<text x="455.03" y="406.90">+</text>
<text x="210.18" y="468.42">*</text>
<text x="419.56" y="401.57">.</text>
<text x="381.76" y="45.57">.</text>
<text x="370.90" y="331.50">*</text>
<text x="51.62" y="189.16">+</text>
<text x="253.76" y="235.15">.</text>
<text x="1.31" y="466.06">+</text>
<text x="134.33" y="41.78">+</text>
<text x="280.92" y="492.10">.</text>
<text x="186.34" y="210.09">+</text>
<text x="486.93" y="196.15">+</text>
<text x="243.11" y="135.35">.</text>
<text x="305.34" y="72.77">+</text>
<text x="131.49" y="386.57">+</text>
<text x="179.64" y="143.69">+</text>
<text x="475.40" y="387.70">+</text>
<text x="438.85" y="84.09">.</text>
<text x="279.06" y="388.39">*</text>
<text x="207.25" y="471.82">*</text>
<text x="68.60" y="108.20">+</text>
<text x="396.34" y="239.95">+</text>
<text x="498.77" y="470.21">*</text>
<text x="55.13" y="36.68">+</text>
<text x="464.04" y="196.01">+</text>
<text x="307.52" y="364.42">.</text>
<text x="292.18" y="468.24">.</text>
<text x="79.24" y="136.08">+</text>
<text x="341.37" y="4.57">+</text>
<text x="393.82" y="316.43">.</text>
<text x="216.84" y="268.85">+</text>
<text x="405.30" y="176.32">.</text>
<text x="295.22" y="81.88">.</text>
<text x="229.99" y="276.11">+</text>
<text x="123.65" y="0.09">.</text>
<text x="84.93" y="380.74">.</text>
<text x="208.23" y="457.67">+</text>
<text x="161.58" y="262.42">+</text>
<text x="20.29" y="322.71">.</text>
<text x="91.23" y="111.34">+</text>
<text x="66.54" y="357.80">*</text>
<text x="259.28" y="342.17">.</text>
<text x="180.36" y="29.17">+</text>
<text x="197.55" y="272.69">.</text>
<text x="364.54" y="354.54">.</text>
<text x="307.11" y="181.48">+</text>
<text x="272.04" y="479.74">+</text>
<text x="449.83" y="436.86">*</text>
<text x="357.54" y="405.98">.</text>
<text x="104.48" y="37.36">.</text>
<text x="288.49" y="89.67">.</text>
<text x="287.31" y="390.31">.</text>
<text x="348.44" y="71.01">+</text>
<text x="36.36" y="483.36">*</text>
<text x="28.14" y="361.38">.</text>
<text x="349.85" y="146.52">.</text>
<text x="487.52" y="173.48">+</text>
<text x="305.00" y="162.70">+</text>
<text x="275.22" y="167.06">+</text>
<text x="56.06" y="194.78">*</text>
<text x="282.65" y="97.28">.</text>
<text x="372.78" y="217.85">.</text>
<text x="76.31" y="366.82">.</text>
<text x="449.84" y="485.61">+</text>
<text x="73.43" y="151.64">+</text>
<text x="84.17" y="163.58">+</text>
<text x="457.40" y="93.62">.</text>
<text x="141.92" y="214.60">.</text>
<text x="5.08" y="231.46">.</text>
<text x="106.60" y="466.55">.</text>
<text x="235.86" y="337.57">+</text>
<text x="90.21" y="452.27">+</text>
<text x="107.03" y="67.43">+</text>
<text x="225.81" y="52.77">+</text>
<text x="93.61" y="238.11">+</text>
<text x="339.09" y="194.09">.</text>
<text x="361.17" y="317.11">+</text>
<text x="222.74" y="278.56">+</text>
<text x="15.58" y="6.79">+</text>
<text x="295.51" y="190.89">+</text>
<text x="370.95" y="346.26">+</text>
<text x="440.50" y="162.90">+</text>
<text x="344.59" y="198.28">.</text>
<text x="473.63" y="70.20">.</text>
<text x="144.18" y="333.36">.</text>
<text x="264.51" y="491.97">+</text>
<text x="1.16" y="412.89">+</text>
<text x="410.45" y="430.13">+</text>
<text x="373.65" y="112.97">.</text>
<text x="157.62" y="40.93">.</text>
<text x="196.54" y="347.40">.</text>
<text x="209.58" y="399.63">.</text>
<text x="298.20" y="279.24">.</text>
<text x="178.30" y="89.93">+</text>
<text x="117.08" y="242.68">+</text>
<text x="217.29" y="343.57">.</text>
<text x="328.63" y="435.39">.</text>
<text x="120.94" y="259.97">+</text>
<text x="10.11" y="279.94">*</text>
<text x="440.40" y="283.41">.</text>
<text x="181.04" y="101.76">+</text>
<text x="203.76" y="451.99">+</text>
<text x="298.46" y="336.47">.</text>
<text x="88.05" y="493.71">.</text>
<text x="335.03" y="156.49">+</text>
<text x="148.64" y="259.23">+</text>
<text x="382.12" y="242.80">*</text>
<text x="483.13" y="131.04">*</text>
<text x="295.96" y="145.90">.</text>
<text x="251.77" y="226.33">.</text>
<text x="272.04" y="471.21">+</text>
<text x="269.66" y="111.77">.</text>
<text x="254.68" y="317.22">*</text>
<text x="7.65" y="194.39">.</text>
<text x="243.76" y="270.86">.</text>
<text x="129.24" y="311.94">*</text>
<text x="281.53" y="453.73">.</text>
<text x="121.41" y="113.75">+</text>
<text x="151.49" y="313.69">+</text>
<text x="283.18" y="29.25">*</text>
<text x="296.84" y="52.78">*</text>
<text x="200.35" y="441.42">.</text>
<text x="332.13" y="32.13">.</text>
<text x="381.11" y="389.47">+</text>
<text x="348.77" y="256.44">+</text>
<text x="179.69" y="44.35">*</text>
<text x="380.70" y="374.16">.</text>
<text x="399.84" y="210.08">.</text>
<text x="183.39" y="272.30">+</text>
<text x="7.32" y="52.49">*</text>
<text x="107.42" y="286.23">.</text>
<text x="352.54" y="427.45">.</text>
<text x="238.05" y="172.06">.</text>
<text x="234.75" y="441.81">*</text>
<text x="351.03" y="140.39">+</text>
<text x="386.40" y="249.65">+</text>
<text x="94.02" y="419.86">+</text>
<text x="498.97" y="59.89">+</text>
<text x="253.11" y="408.02">.</text>
<text x="487.78" y="318.06">*</text>
<text x="191.47" y="437.70">.</text>
<text x="288.22" y="202.00">*</text>
<text x="441.61" y="177.28">*</text>
<text x="213.77" y="305.26">*</text>
<text x="142.25" y="388.75">+</text>
<text x="454.23" y="300.33">+</text>
<text x="355.48" y="349.77">+</text>
<text x="136.18" y="133.31">+</text>
<text x="161.42" y="276.39">.</text>
<text x="158.57" y="23.03">.</text>
<text x="65.03" y="127.33">.</text>
<text x="157.46" y="164.68">*</text>
<text x="464.60" y="346.94">+</text>
<text x="360.20" y="265.96">*</text>
<text x="256.90" y="85.47">.</text>
<text x="128.43" y="315.69">+</text>
<text x="131.07" y="497.93">+</text>
<text x="46.74" y="3.12">.</text>
<text x="116.03" y="154.72">.</text>
<text x="341.59" y="205.51">.</text>
<text x="355.97" y="443.32">.</text>
<text x="163.17" y="100.21">+</text>
<text x="91.41" y="226.89">+</text>
<text x="225.07" y="482.50">*</text>
<text x="133.61" y="363.10">.</text>
<text x="379.80" y="273.32">+</text>
<text x="373.52" y="243.61">+</text>
<text x="169.87" y="92.17">.</text>
<text x="432.13" y="410.79">.</text>
<text x="289.85" y="203.94">+</text>
<text x="43.02" y="55.09">+</text>
<text x="218.85" y="148.62">.</text>
<text x="81.94" y="38.24">.</text>
<text x="173.20" y="33.25">+</text>
<text x="208.78" y="233.93">+</text>
<text x="36.87" y="3.20">.</text>
<text x="257.70" y="377.81">*</text>
<text x="312.72" y="163.48">.</text>
<text x="292.07" y="147.11">+</text>
<text x="73.63" y="488.01">.</text>

</svg>