
<svg viewBox="0 0 500 500" xmlns="http://www.w.org/2000/svg" width="100%" height="100%" style="background-color: #0a0a14; font-family: 'Courier New', Courier, monospace;">
    <style>
        text { fill: #aaa; font-size: 10px; text-anchor: middle; dominant-baseline: middle; }
    </style>
    <text x="359.34" y="236.14">+</text>
<text x="3.01" y="95.62">+</text>
<text x="445.79" y="37.83">.</text>
<text x="253.65" y="67.84">+</text>
<text x="21.20" y="151.76">.</text>
<text x="292.55" y="187.88">.</text>
<text x="419.63" y="400.63">.</text>
<text x="417.01" y="317.89">+</text>
<text x="241.94" y="160.25">*</text>
<text x="352.53" y="59.63">.</text>
<text x="113.22" y="59.03">+</text>
<text x="306.91" y="216.14">.</text>
<text x="487.83" y="224.58">.</text>
<text x="125.47" y="423.08">.</text>
<text x="125.35" y="80.10">+</text>
<text x="396.89" y="133.06">+</text>
<text x="61.40" y="18.84">+</text>
<text x="498.00" y="454.81">.</text>
<text x="351.09" y="318.07">+</text>
<text x="471.30" y="25.32">+</text>
<text x="408.92" y="127.05">+</text>
<text x="423.96" y="102.25">.</text>
<text x="39.74" y="247.53">*</text>
<text x="195.48" y="348.67">.</text>
<text x="59.14" y="231.31">+</text>
<text x="461.69" y="253.01">+</text>
<text x="199.76" y="452.75">+</text>
<text x="264.23" y="249.88">+</text>
<text x="27.34" y="180.25">.</text>
<text x="312.83" y="11.33">.</text>
<text x="371.68" y="18.67">+</text>
<text x="292.69" y="304.74">.</text>
<text x="418.54" y="179.48">.</text>
<text x="168.52" y="188.52">+</text>
<text x="130.57" y="288.37">*</text>
<text x="255.31" y="420.22">.</text>
<text x="180.72" y="479.76">+</text>
<text x="479.01" y="144.73">.</text>
<text x="406.47" y="379.42">.</text>
<text x="25.98" y="247.27">.</text>
<text x="260.29" y="197.72">*</text>
<text x="73.07" y="222.39">+</text>
<text x="464.06" y="170.68">+</text>
<text x="131.23" y="180.26">+</text>
<text x="426.25" y="181.67">.</text>
<text x="433.97" y="99.09">.</text>
<text x="275.02" y="11.19">.</text>
<text x="299.00" y="41.25">+</text>
<text x="324.53" y="234.13">+</text>
<text x="284.05" y="493.72">+</text>
<text x="70.02" y="473.90">*</text>
<text x="301.66" y="138.20">+</text>
<text x="123.50" y="285.95">*</text>
<text x="119.89" y="360.93">.</text>
<text x="22.26" y="463.72">.</text>
<text x="236.44" y="345.94">.</text>
<text x="404.20" y="220.61">+</text>
<text x="437.10" y="458.04">+</text>
<text x="193.07" y="86.57">+</text>
<text x="0.98" y="83.43">.</text>
<text x="339.23" y="236.15">+</text>
<text x="71.35" y="1.49">.</text>
<text x="247.15" y="325.30">.</text>
<text x="420.78" y="324.93">+</text>
<text x="99.88" y="29.17">+</text>
<text x="397.13" y="77.30">+</text>
<text x="73.62" y="155.53">+</text>
<text x="121.68" y="487.48">.</text>
<text x="447.00" y="144.54">.</text>
<text x="308.73" y="121.91">+</text>
<text x="408.05" y="83.69">+</text>
<text x="254.04" y="457.19">.</text>
<text x="358.25" y="283.65">.</text>
<text x="206.59" y="456.90">+</text>
<text x="453.00" y="95.95">+</text>
<text x="77.27" y="5.58">+</text>
<text x="303.20" y="166.41">+</text>
<text x="205.12" y="14.70">+</text>
<text x="268.80" y="107.96">+</text>
<text x="289.40" y="358.82">*</text>
<text x="387.99" y="24.76">*</text>
<text x="350.01" y="286.87">+</text>
<text x="361.65" y="272.14">.</text>
<text x="12.56" y="205.54">+</text>
<text x="161.35" y="214.59">.</text>
<text x="359.84" y="376.04">.</text>
<text x="178.84" y="108.12">.</text>
<text x="18.44" y="268.70">.</text>
<text x="211.60" y="129.84">.</text>
<text x="431.48" y="371.08">.</text>
<text x="401.72" y="423.98">*</text>
<text x="400.54" y="447.14">.</text>
<text x="411.22" y="465.08">*</text>
<text x="37.40" y="186.19">.</text>
<text x="63.23" y="482.41">*</text>
<text x="475.83" y="192.65">.</text>
<text x="433.34" y="141.29">*</text>
<text x="400.13" y="100.81">+</text>
<text x="245.29" y="228.87">.</text>
<text x="433.86" y="159.65">+</text>
<text x="9.50" y="356.01">*</text>
<text x="463.14" y="252.23">+</text>
<text x="450.55" y="213.75">.</text>
<text x="286.82" y="457.39">+</text>
<text x="375.54" y="438.93">+</text>
<text x="197.43" y="326.27">.</text>
<text x="403.48" y="478.65">.</text>
<text x="492.19" y="224.89">+</text>
<text x="452.93" y="333.73">+</text>
<text x="358.07" y="221.23">+</text>
<text x="128.34" y="408.70">+</text>
<text x="91.82" y="466.65">.</text>
<text x="208.70" y="477.60">+</text>
<text x="223.58" y="495.31">.</text>
<text x="399.51" y="135.25">*</text>
<text x="130.50" y="208.07">+</text>
<text x="278.71" y="392.27">+</text>
<text x="215.61" y="308.09">+</text>
<text x="175.17" y="93.17">.</text>
<text x="94.70" y="161.40">.</text>
<text x="21.70" y="499.88">+</text>
<text x="27.35" y="232.22">+</text>
<text x="468.81" y="244.35">*</text>
<text x="437.22" y="357.23">+</text>
<text x="373.88" y="100.47">.</text>
<text x="191.99" y="1.71">.</text>
<text x="432.19" y="324.01">+</text>
<text x="423.46" y="53.26">*</text>
<text x="264.63" y="299.72">.</text>
<text x="138.72" y="127.98">+</text>
<text x="99.66" y="106.41">+</text>
<text x="136.25" y="145.06">*</text>
<text x="93.66" y="413.52">.</text>
<text x="344.62" y="255.99">+</text>
<text x="154.45" y="291.79">.</text>
<text x="338.82" y="262.31">.</text>
<text x="75.90" y="485.53">*</text>
<text x="17.93" y="418.28">+</text>
<text x="126.98" y="430.66">+</text>
<text x="483.93" y="107.56">*</text>
<text x="116.61" y="414.39">.</text>
<text x="51.27" y="464.41">*</text>
<text x="325.47" y="333.60">*</text>
<text x="340.78" y="286.56">*</text>
<text x="44.65" y="144.47">+</text>
<text x="65.81" y="338.09">*</text>
<text x="122.10" y="385.73">*</text>
<text x="34.02" y="448.39">.</text>
<text x="106.69" y="184.19">.</text>
<text x="421.06" y="199.95">.</text>
<text x="457.98" y="48.71">+</text>
<text x="210.40" y="258.77">.</text>
<text x="173.20" y="181.28">*</text>
<text x="401.14" y="494.95">.</text>
<text x="240.05" y="40.69">*</text>
<text x="363.28" y="307.34">.</text>
<text x="221.10" y="289.27">.</text>
<text x="280.25" y="5.90">.</text>
<text x="149.19" y="442.05">.</text>
<text x="162.48" y="110.82">+</text>
<text x="7.00" y="250.13">+</text>
<text x="72.46" y="303.70">*</text>
<text x="342.03" y="374.74">+</text>
<text x="273.29" y="474.69">+</text>
<text x="452.08" y="470.92">+</text>
<text x="398.38" y="288.76">+</text>
<text x="291.87" y="443.66">+</text>
<text x="75.99" y="423.17">.</text>
<text x="284.20" y="172.99">+</text>
<text x="3.00" y="304.09">.</text>
<text x="60.09" y="343.59">.</text>
<text x="267.16" y="187.35">.</text>
<text x="497.87" y="493.32">+</text>
<text x="357.23" y="245.40">.</text>
<text x="223.79" y="238.08">+</text>
<text x="387.15" y="230.67">+</text>
<text x="373.99" y="205.00">.</text>
<text x="462.76" y="25.41">+</text>
<text x="194.98" y="166.22">+</text>
<text x="51.95" y="193.53">.</text>
<text x="479.86" y="192.42">+</text>
<text x="267.64" y="94.28">.</text>
<text x="29.60" y="190.05">.</text>
<text x="31.04" y="344.10">+</text>
<text x="150.15" y="332.32">.</text>
<text x="415.00" y="432.51">+</text>
<text x="93.74" y="25.82">.</text>
<text x="265.69" y="76.89">.</text>
<text x="338.35" y="155.68">.</text>
<text x="365.19" y="384.42">.</text>
<text x="397.79" y="350.74">.</text>
<text x="454.34" y="79.85">+</text>
<text x="235.19" y="379.52">+</text>
<text x="1.21" y="344.92">*</text>
<text x="429.89" y="100.66">+</text>
<text x="296.08" y="402.46">+</text>
<text x="154.89" y="184.07">+</text>
<text x="208.88" y="353.33">.</text>
<text x="181.21" y="186.74">.</text>
<text x="498.64" y="209.07">+</text>
<text x="233.04" y="77.41">+</text>
<text x="329.15" y="490.79">+</text>
<text x="416.20" y="325.34">+</text>
<text x="208.67" y="267.68">.</text>
<text x="120.13" y="416.40">+</text>
<text x="234.78" y="107.11">+</text>
<text x="454.44" y="245.69">*</text>
<text x="283.00" y="494.15">.</text>
<text x="450.55" y="330.81">+</text>
<text x="74.12" y="67.51">*</text>
<text x="388.11" y="134.31">.</text>
<text x="384.96" y="322.99">+</text>
<text x="488.63" y="17.03">.</text>

</svg>