
<svg viewBox="0 0 500 500" xmlns="http://www.w.org/2000/svg" width="100%" height="100%" style="background-color: #0a0a14; font-family: 'Courier New', Courier, monospace;">
    <style>
        text { fill: #aaa; font-size: 10px; text-anchor: middle; dominant-baseline: middle; }
    </style>
    <text x="23.64" y="131.45">+</text>
<text x="121.53" y="125.87">+</text>
<text x="171.86" y="31.20">.</text>
<text x="465.25" y="311.42">*</text>
<text x="34.67" y="363.19">+</text>
<text x="148.75" y="444.84">*</text>
<text x="220.70" y="364.02">*</text>
<text x="452.51" y="165.55">*</text>
<text x="66.50" y="482.90">+</text>
<text x="215.53" y="127.18">+</text>
<text x="49.74" y="247.34">+</text>
<text x="494.29" y="86.75">.</text>
<text x="247.34" y="390.89">.</text>
<text x="142.64" y="3.43">+</text>
<text x="468.00" y="397.47">.</text>
<text x="443.99" y="178.19">+</text>
<text x="484.22" y="111.00">.</text>
<text x="261.96" y="97.51">.</text>
<text x="144.94" y="133.76">+</text>
<text x="279.32" y="78.22">+</text>
<text x="289.51" y="23.82">.</text>
<text x="213.07" y="65.95">.</text>
<text x="437.83" y="315.27">+</text>
<text x="490.62" y="483.59">+</text>
<text x="274.54" y="474.24">*</text>
<text x="161.95" y="322.97">+</text>
<text x="297.46" y="141.70">+</text>
<text x="79.18" y="427.95">+</text>
<text x="465.42" y="229.41">.</text>
<text x="416.25" y="81.52">.</text>
<text x="22.07" y="428.71">+</text>
<text x="155.37" y="219.82">+</text>
<text x="22.86" y="248.85">*</text>
<text x="182.68" y="354.96">.</text>
<text x="74.39" y="406.53">+</text>
<text x="47.88" y="425.35">+</text>
<text x="135.04" y="188.19">+</text>
<text x="119.38" y="221.06">*</text>
<text x="202.15" y="117.19">.</text>
<text x="407.98" y="422.91">+</text>
<text x="54.06" y="379.35">.</text>
<text x="214.19" y="287.63">+</text>
<text x="471.55" y="81.01">+</text>
<text x="320.01" y="253.22">.</text>
<text x="83.79" y="107.78">.</text>
<text x="271.09" y="85.88">+</text>
<text x="449.09" y="390.03">*</text>
<text x="386.86" y="426.87">+</text>
<text x="225.54" y="329.84">+</text>
<text x="188.54" y="211.04">.</text>
<text x="300.75" y="315.45">*</text>
<text x="86.57" y="353.91">+</text>
<text x="460.75" y="209.64">.</text>
<text x="275.48" y="269.95">.</text>
<text x="132.78" y="0.52">*</text>
<text x="141.58" y="173.66">.</text>
<text x="344.35" y="104.47">+</text>
<text x="334.00" y="364.33">+</text>
<text x="324.77" y="385.51">.</text>
<text x="72.66" y="440.81">.</text>
<text x="313.61" y="264.09">.</text>
<text x="491.50" y="261.54">.</text>
<text x="337.23" y="340.25">.</text>
<text x="423.32" y="18.78">.</text>
<text x="11.36" y="229.45">.</text>
<text x="458.36" y="112.63">+</text>
<text x="366.73" y="338.30">.</text>
<text x="362.18" y="250.37">+</text>
<text x="380.32" y="306.24">.</text>
<text x="337.89" y="255.77">+</text>
<text x="176.57" y="347.95">.</text>
<text x="306.31" y="147.66">+</text>
<text x="204.25" y="194.81">+</text>
<text x="472.72" y="268.57">+</text>
<text x="129.49" y="307.95">*</text>
<text x="222.65" y="248.01">.</text>
<text x="263.53" y="281.21">.</text>
<text x="246.42" y="221.90">.</text>
<text x="114.55" y="418.21">.</text>
<text x="140.53" y="1.11">+</text>
<text x="338.43" y="472.41">+</text>
<text x="375.51" y="78.21">+</text>
<text x="48.37" y="406.27">*</text>
<text x="104.62" y="124.22">+</text>
<text x="117.63" y="235.08">.</text>
<text x="276.43" y="89.80">*</text>
<text x="466.95" y="121.81">.</text>
<text x="289.96" y="302.10">.</text>
<text x="201.70" y="267.40">.</text>
<text x="3.12" y="415.81">+</text>
<text x="344.44" y="376.94">.</text>
<text x="221.35" y="329.73">+</text>
<text x="457.36" y="133.56">+</text>
<text x="61.00" y="414.48">+</text>
<text x="291.37" y="405.63">+</text>
<text x="152.35" y="494.48">.</text>
<text x="224.18" y="218.06">+</text>
<text x="300.01" y="59.47">*</text>
<text x="80.83" y="71.31">+</text>
<text x="99.06" y="274.72">*</text>
<text x="123.61" y="145.23">+</text>
<text x="225.90" y="432.12">.</text>
<text x="355.94" y="20.64">+</text>
<text x="53.10" y="251.27">.</text>
<text x="256.77" y="231.05">+</text>
<text x="63.15" y="432.06">*</text>
<text x="115.33" y="365.53">+</text>
<text x="191.61" y="494.10">+</text>
<text x="116.68" y="168.61">.</text>
<text x="460.34" y="427.06">+</text>
<text x="145.62" y="323.67">.</text>
<text x="491.20" y="1.77">+</text>
<text x="83.29" y="317.13">+</text>
<text x="6.28" y="299.08">+</text>
<text x="494.11" y="190.31">.</text>
<text x="22.62" y="418.55">.</text>
<text x="350.66" y="105.06">.</text>
<text x="440.00" y="467.08">.</text>
<text x="225.31" y="441.30">.</text>
<text x="330.87" y="405.26">.</text>
<text x="180.00" y="73.26">.</text>
<text x="134.43" y="370.82">.</text>
<text x="488.18" y="371.34">.</text>
<text x="175.82" y="237.58">+</text>
<text x="309.45" y="61.58">.</text>
<text x="239.99" y="83.11">+</text>
<text x="470.31" y="18.19">.</text>
<text x="485.09" y="406.61">*</text>
<text x="320.85" y="400.04">+</text>
<text x="269.55" y="13.21">.</text>
<text x="101.56" y="396.58">.</text>
<text x="402.40" y="170.98">*</text>
<text x="218.46" y="234.07">*</text>
<text x="373.33" y="327.38">.</text>
<text x="454.25" y="288.05">.</text>
<text x="400.32" y="182.70">.</text>
<text x="362.83" y="0.59">.</text>
<text x="82.20" y="440.63">.</text>
<text x="362.18" y="208.76">+</text>
<text x="21.59" y="430.78">.</text>
<text x="335.08" y="388.69">.</text>
<text x="75.81" y="284.44">.</text>
<text x="417.68" y="113.19">+</text>
<text x="461.52" y="446.22">+</text>
<text x="241.26" y="218.28">.</text>
<text x="445.05" y="140.24">+</text>
<text x="371.59" y="41.86">+</text>
<text x="270.67" y="391.92">.</text>
<text x="39.89" y="120.25">.</text>
<text x="267.75" y="489.51">.</text>
<text x="143.73" y="350.41">+</text>
<text x="169.47" y="407.17">*</text>
<text x="76.42" y="323.54">.</text>
<text x="332.85" y="244.29">+</text>
<text x="199.46" y="448.39">+</text>
<text x="47.39" y="76.68">.</text>
<text x="66.03" y="437.96">+</text>
<text x="15.97" y="445.07">+</text>
<text x="86.04" y="177.16">.</text>
<text x="163.78" y="31.08">+</text>
<text x="83.06" y="388.22">+</text>
<text x="141.42" y="139.02">*</text>
<text x="315.30" y="358.16">+</text>
<text x="100.26" y="284.56">.</text>
<text x="106.70" y="119.68">.</text>
<text x="358.18" y="265.94">+</text>
<text x="360.04" y="277.42">.</text>
<text x="484.16" y="61.47">+</text>
<text x="38.04" y="50.56">+</text>
<text x="338.78" y="214.26">.</text>
<text x="105.11" y="21.49">+</text>
<text x="361.10" y="326.82">.</text>
<text x="106.91" y="258.49">.</text>
<text x="16.97" y="126.78">+</text>
<text x="489.62" y="207.92">.</text>
<text x="244.72" y="266.34">+</text>
<text x="318.96" y="225.43">.</text>
<text x="332.30" y="24.86">+</text>
<text x="189.65" y="225.23">.</text>
<text x="382.10" y="77.32">+</text>
<text x="362.25" y="258.67">+</text>
<text x="311.23" y="351.32">+</text>
<text x="273.32" y="132.68">+</text>
<text x="87.20" y="365.23">.</text>
<text x="118.36" y="89.66">*</text>
<text x="416.23" y="271.98">+</text>
<text x="209.80" y="230.42">.</text>
<text x="402.61" y="388.60">.</text>
<text x="424.19" y="114.47">+</text>
<text x="192.19" y="36.85">.</text>
<text x="170.57" y="214.92">+</text>
<text x="87.29" y="172.21">.</text>
<text x="408.75" y="195.32">.</text>
<text x="259.42" y="12.99">+</text>
<text x="52.75" y="420.74">+</text>
<text x="332.99" y="171.41">+</text>
<text x="104.75" y="126.30">*</text>
<text x="365.03" y="89.52">.</text>
<text x="293.14" y="81.07">*</text>
<text x="494.21" y="17.99">+</text>
<text x="495.20" y="414.87">+</text>
<text x="319.01" y="339.45">.</text>
<text x="19.43" y="482.78">.</text>
<text x="257.05" y="421.95">+</text>
<text x="60.73" y="167.63">+</text>
<text x="442.26" y="382.03">*</text>
<text x="93.43" y="112.11">+</text>
<text x="405.66" y="476.16">+</text>
<text x="94.37" y="191.61">+</text>
<text x="361.92" y="166.64">.</text>
<text x="271.59" y="466.66">.</text>

</svg>