
<svg viewBox="0 0 500 500" xmlns="http://www.w.org/2000/svg" width="100%" height="100%" style="background-color: #0a0a14; font-family: 'Courier New', Courier, monospace;">
    <style>
        text { fill: #aaa; font-size: 10px; text-anchor: middle; dominant-baseline: middle; }
    </style>
    <text x="488.59" y="146.06">.</text>
<text x="369.47" y="71.19">+</text>
<text x="362.17" y="48.05">+</text>
<text x="14.02" y="167.15">+</text>
<text x="287.40" y="312.82">.</text>
<text x="413.54" y="47.94">+</text>
<text x="331.05" y="3.98">.</text>
<text x="436.92" y="123.91">+</text>
<text x="35.62" y="465.51">.</text>
<text x="236.18" y="226.07">.</text>
<text x="426.97" y="457.68">.</text>
<text x="149.74" y="16.17">.</text>
<text x="442.34" y="335.40">*</text>
<text x="404.62" y="43.31">.</text>
<text x="446.94" y="156.87">.</text>
<text x="40.21" y="250.00">+</text>
<text x="396.50" y="202.29">*</text>
<text x="227.77" y="275.51">.</text>
<text x="254.51" y="90.39">+</text>
<text x="135.10" y="194.14">*</text>
<text x="119.23" y="209.09">.</text>
<text x="429.01" y="315.60">.</text>
<text x="281.70" y="474.15">+</text>
<text x="176.23" y="116.46">+</text>
<text x="278.71" y="457.75">.</text>
<text x="353.96" y="419.37">.</text>
<text x="437.38" y="130.73">.</text>
<text x="67.94" y="62.19">.</text>
<text x="414.55" y="172.31">.</text>
<text x="84.83" y="94.22">.</text>
<text x="46.43" y="141.48">.</text>
<text x="8.42" y="113.02">+</text>
<text x="13.03" y="109.54">+</text>
<text x="15.48" y="232.59">+</text>
<text x="373.00" y="435.54">.</text>
<text x="347.19" y="259.52">.</text>
<text x="78.79" y="109.54">+</text>
<text x="316.70" y="472.40">*</text>
<text x="160.00" y="490.11">*</text>
<text x="301.89" y="171.11">.</text>
<text x="364.71" y="472.29">.</text>
<text x="98.60" y="118.50">.</text>
<text x="384.66" y="375.62">+</text>
<text x="379.55" y="244.71">.</text>
<text x="450.72" y="116.37">+</text>
<text x="297.10" y="289.13">.</text>
<text x="2.34" y="438.50">*</text>
<text x="319.48" y="463.46">.</text>
<text x="225.35" y="104.26">+</text>
<text x="312.59" y="80.27">.</text>
<text x="347.40" y="312.63">+</text>
<text x="188.53" y="30.47">+</text>
<text x="392.60" y="197.97">.</text>
<text x="252.54" y="344.73">.</text>
<text x="190.50" y="223.90">.</text>
<text x="402.60" y="326.96">.</text>
<text x="462.42" y="153.42">*</text>
<text x="323.71" y="40.82">+</text>
<text x="198.06" y="140.71">+</text>
<text x="164.53" y="340.08">.</text>
<text x="56.76" y="57.19">.</text>
<text x="395.93" y="389.73">+</text>
<text x="35.97" y="439.20">+</text>
<text x="492.61" y="258.98">*</text>
<text x="102.44" y="453.53">+</text>
<text x="419.63" y="67.51">.</text>
<text x="493.39" y="496.39">*</text>
<text x="199.09" y="484.40">.</text>
<text x="361.35" y="379.34">+</text>
<text x="415.52" y="220.54">.</text>
<text x="355.62" y="160.40">.</text>
<text x="170.47" y="126.76">*</text>
<text x="4.34" y="439.85">.</text>
<text x="289.71" y="297.05">*</text>
<text x="362.34" y="79.86">.</text>
<text x="198.47" y="325.81">+</text>
<text x="431.40" y="391.89">+</text>
<text x="389.89" y="79.09">.</text>
<text x="248.03" y="394.04">*</text>
<text x="228.73" y="73.86">.</text>
<text x="140.53" y="153.41">.</text>
<text x="226.23" y="168.60">.</text>
<text x="62.75" y="488.85">+</text>
<text x="351.65" y="196.12">+</text>
<text x="41.29" y="183.82">+</text>
<text x="451.57" y="320.04">.</text>
<text x="68.52" y="143.16">+</text>
<text x="347.21" y="70.47">+</text>
<text x="46.14" y="280.41">+</text>
<text x="469.00" y="308.65">.</text>
<text x="257.48" y="369.38">+</text>
<text x="5.67" y="461.69">.</text>
<text x="171.44" y="41.01">+</text>
<text x="248.85" y="166.68">*</text>
<text x="343.77" y="482.64">.</text>
<text x="11.13" y="472.04">+</text>
<text x="377.99" y="478.25">+</text>
<text x="197.07" y="144.52">+</text>
<text x="480.70" y="468.12">.</text>
<text x="375.15" y="462.02">.</text>
<text x="3.58" y="49.04">.</text>
<text x="311.87" y="163.23">+</text>
<text x="161.86" y="433.11">+</text>
<text x="399.44" y="443.52">+</text>
<text x="14.14" y="459.84">.</text>
<text x="144.64" y="423.23">.</text>
<text x="440.36" y="327.63">+</text>
<text x="450.30" y="419.56">.</text>
<text x="373.03" y="378.58">*</text>
<text x="166.93" y="492.29">.</text>
<text x="410.50" y="219.52">.</text>
<text x="407.38" y="457.19">+</text>
<text x="153.80" y="12.45">.</text>
<text x="128.71" y="345.93">.</text>
<text x="30.38" y="439.75">+</text>
<text x="344.60" y="113.71">+</text>
<text x="184.14" y="313.62">*</text>
<text x="393.45" y="27.16">.</text>
<text x="44.74" y="478.99">+</text>
<text x="423.34" y="255.33">.</text>
<text x="213.66" y="409.12">+</text>
<text x="126.72" y="42.88">.</text>
<text x="317.63" y="388.27">+</text>
<text x="30.31" y="137.27">.</text>
<text x="187.85" y="409.71">+</text>
<text x="296.29" y="479.23">+</text>
<text x="463.85" y="456.19">+</text>
<text x="261.28" y="353.76">+</text>
<text x="119.70" y="195.75">.</text>
<text x="60.72" y="273.95">.</text>
<text x="48.64" y="5.12">.</text>
<text x="49.04" y="163.74">+</text>
<text x="5.98" y="424.02">.</text>
<text x="250.18" y="232.95">+</text>
<text x="368.67" y="470.54">.</text>
<text x="402.06" y="379.40">+</text>
<text x="302.28" y="432.13">+</text>
<text x="276.10" y="354.87">+</text>
<text x="312.58" y="189.36">.</text>
<text x="304.80" y="270.32">+</text>
<text x="282.66" y="104.11">+</text>
<text x="286.35" y="78.09">.</text>
<text x="103.35" y="90.21">+</text>
<text x="302.46" y="6.57">.</text>
<text x="191.65" y="14.34">.</text>
<text x="51.64" y="368.15">.</text>
<text x="304.41" y="386.46">.</text>
<text x="475.72" y="409.72">*</text>
<text x="214.12" y="86.96">.</text>
<text x="119.32" y="354.79">*</text>
<text x="21.33" y="142.43">.</text>
<text x="9.60" y="350.88">.</text>
<text x="269.92" y="58.74">+</text>
<text x="152.12" y="239.69">.</text>
<text x="465.87" y="294.19">+</text>
<text x="408.97" y="344.69">*</text>
<text x="454.49" y="299.79">*</text>
<text x="213.09" y="245.02">.</text>
<text x="387.53" y="409.51">+</text>
<text x="218.15" y="114.62">.</text>
<text x="156.71" y="111.78">+</text>
<text x="375.15" y="11.41">.</text>
<text x="367.39" y="62.70">+</text>
<text x="454.88" y="337.71">*</text>
<text x="75.20" y="357.71">.</text>
<text x="273.63" y="476.91">.</text>
<text x="317.66" y="431.80">.</text>
<text x="466.36" y="161.41">+</text>
<text x="95.46" y="436.86">.</text>
<text x="361.43" y="315.43">.</text>
<text x="279.88" y="351.74">.</text>
<text x="209.83" y="19.38">+</text>
<text x="112.07" y="198.29">+</text>
<text x="283.66" y="220.71">+</text>
<text x="145.03" y="451.09">.</text>
<text x="62.23" y="482.48">.</text>
<text x="375.11" y="65.14">.</text>
<text x="97.29" y="349.88">+</text>
<text x="228.16" y="39.02">+</text>
<text x="297.60" y="313.17">*</text>
<text x="464.02" y="139.68">.</text>
<text x="368.45" y="259.85">.</text>
<text x="29.06" y="379.58">.</text>
<text x="316.80" y="304.62">*</text>
<text x="369.66" y="241.76">+</text>
<text x="215.46" y="206.28">+</text>
<text x="461.28" y="281.54">*</text>
<text x="217.39" y="185.12">.</text>
<text x="351.14" y="141.17">*</text>
<text x="291.00" y="193.14">*</text>
<text x="405.52" y="257.59">.</text>
<text x="351.96" y="21.89">+</text>
<text x="191.43" y="227.70">.</text>
<text x="287.30" y="252.97">.</text>
<text x="499.13" y="412.47">.</text>
<text x="471.00" y="481.24">.</text>
<text x="211.12" y="361.56">+</text>
<text x="153.37" y="63.00">*</text>
<text x="204.21" y="355.95">*</text>
<text x="283.11" y="474.75">.</text>
<text x="455.49" y="69.43">.</text>
<text x="79.34" y="295.04">+</text>
<text x="286.05" y="118.40">+</text>
<text x="415.44" y="432.45">+</text>
<text x="476.89" y="198.80">.</text>
<text x="498.90" y="393.29">.</text>
<text x="279.84" y="260.05">+</text>
<text x="60.41" y="208.19">.</text>
<text x="201.26" y="65.72">.</text>
<text x="413.21" y="443.33">+</text>
<text x="188.29" y="89.51">.</text>
<text x="284.69" y="87.30">+</text>
<text x="110.17" y="349.27">.</text>
<text x="198.87" y="303.06">+</text>
<text x="219.52" y="77.88">.</text>
<text x="177.11" y="430.25">.</text>
<text x="136.69" y="146.92">.</text>

</svg>