
<svg viewBox="0 0 500 500" xmlns="http://www.w.org/2000/svg" width="100%" height="100%" style="background-color: #0a0a14; font-family: 'Courier New', Courier, monospace;">
    <style>
        text { fill: #aaa; font-size: 10px; text-anchor: middle; dominant-baseline: middle; }
    </style>
    <text x="0.28" y="240.53">+</text>
<text x="453.01" y="399.47">.</text>
<text x="415.58" y="10.38">.</text>
<text x="195.87" y="114.27">*</text>
<text x="200.54" y="318.36">.</text>
<text x="310.21" y="449.29">.</text>
<text x="291.11" y="358.85">.</text>
<text x="36.08" y="106.44">.</text>
<text x="206.23" y="380.08">.</text>
<text x="346.27" y="179.00">.</text>
<text x="294.63" y="76.85">+</text>
<text x="121.48" y="212.02">+</text>
<text x="182.54" y="391.33">.</text>
<text x="223.06" y="499.74">.</text>
<text x="103.66" y="215.46">.</text>
<text x="232.82" y="275.02">*</text>
<text x="23.48" y="208.81">*</text>
<text x="301.66" y="224.13">+</text>
<text x="134.11" y="385.62">+</text>
<text x="248.61" y="490.17">.</text>
<text x="352.35" y="196.21">+</text>
<text x="482.88" y="406.16">.</text>
<text x="179.49" y="276.62">.</text>
<text x="451.68" y="185.80">.</text>
<text x="246.03" y="139.20">.</text>
<text x="415.09" y="69.06">*</text>
<text x="303.01" y="187.08">+</text>
<text x="124.20" y="204.66">.</text>
<text x="320.77" y="34.29">.</text>
<text x="438.71" y="313.32">.</text>
<text x="43.40" y="490.51">+</text>
<text x="378.00" y="355.69">+</text>
<text x="296.90" y="9.92">+</text>
<text x="270.41" y="46.88">+</text>
<text x="193.25" y="274.17">+</text>
<text x="144.59" y="120.38">.</text>
<text x="28.71" y="199.43">+</text>
<text x="467.67" y="113.22">+</text>
<text x="102.16" y="496.17">+</text>
<text x="479.51" y="351.31">+</text>
<text x="124.74" y="353.35">*</text>
<text x="454.00" y="36.87">.</text>
<text x="163.66" y="96.71">.</text>
<text x="48.99" y="266.21">+</text>
<text x="137.71" y="154.47">*</text>
<text x="383.94" y="151.60">+</text>
<text x="463.01" y="370.06">.</text>
<text x="354.37" y="151.80">.</text>
<text x="332.08" y="171.91">+</text>
<text x="227.07" y="423.70">+</text>
<text x="360.53" y="155.63">+</text>
<text x="243.89" y="110.57">.</text>
<text x="26.71" y="377.34">+</text>
<text x="139.09" y="457.46">.</text>
<text x="401.99" y="3.64">*</text>
<text x="268.96" y="365.43">+</text>
<text x="36.44" y="145.48">*</text>
<text x="175.89" y="212.35">+</text>
<text x="307.54" y="175.96">+</text>
<text x="132.68" y="34.28">.</text>
<text x="355.63" y="199.24">.</text>
<text x="239.66" y="44.39">+</text>
<text x="53.95" y="269.52">+</text>
<text x="482.93" y="260.72">+</text>
<text x="196.25" y="252.34">+</text>
<text x="378.44" y="390.52">*</text>
<text x="81.95" y="390.99">+</text>
<text x="129.41" y="101.27">+</text>
<text x="49.78" y="154.60">+</text>
<text x="433.00" y="436.13">+</text>
<text x="1.89" y="316.47">.</text>
<text x="289.88" y="387.62">.</text>
<text x="216.86" y="409.29">.</text>
<text x="0.29" y="27.24">.</text>
<text x="252.67" y="291.36">+</text>
<text x="159.09" y="91.13">.</text>
<text x="102.00" y="479.37">+</text>
<text x="317.75" y="285.11">.</text>
<text x="117.26" y="353.34">.</text>
<text x="246.52" y="159.95">.</text>
<text x="351.42" y="255.41">+</text>
<text x="219.86" y="484.38">+</text>
<text x="69.01" y="31.12">.</text>
<text x="146.09" y="193.93">+</text>
<text x="183.49" y="49.11">+</text>
<text x="76.72" y="469.98">.</text>
<text x="339.39" y="407.93">+</text>
<text x="438.69" y="160.53">*</text>
<text x="204.15" y="208.51">.</text>
<text x="21.22" y="178.82">+</text>
<text x="338.54" y="162.45">+</text>
<text x="471.67" y="268.09">+</text>
<text x="493.77" y="350.38">+</text>
<text x="474.08" y="402.65">+</text>
<text x="339.53" y="64.32">+</text>
<text x="423.68" y="236.98">+</text>
<text x="316.81" y="321.28">*</text>
<text x="49.72" y="35.47">+</text>
<text x="387.14" y="170.75">+</text>
<text x="373.27" y="329.66">.</text>
<text x="490.69" y="54.15">+</text>
<text x="251.57" y="154.46">+</text>
<text x="314.14" y="369.08">+</text>
<text x="155.75" y="160.49">.</text>
<text x="287.47" y="26.84">.</text>
<text x="292.90" y="155.61">.</text>
<text x="421.48" y="447.61">.</text>
<text x="312.18" y="404.93">+</text>
<text x="383.32" y="422.94">.</text>
<text x="296.19" y="420.24">.</text>
<text x="401.53" y="248.75">*</text>
<text x="185.70" y="389.36">+</text>
<text x="277.64" y="427.80">*</text>
<text x="17.79" y="419.75">+</text>
<text x="358.06" y="15.28">*</text>
<text x="455.64" y="485.40">+</text>
<text x="361.71" y="165.80">.</text>
<text x="40.40" y="300.93">+</text>
<text x="457.92" y="410.43">.</text>
<text x="309.01" y="301.80">*</text>
<text x="283.94" y="215.07">.</text>
<text x="138.65" y="130.96">.</text>
<text x="207.43" y="187.96">.</text>
<text x="314.05" y="369.73">*</text>
<text x="159.83" y="405.61">*</text>
<text x="465.66" y="71.94">+</text>
<text x="285.94" y="16.03">+</text>
<text x="39.77" y="280.26">.</text>
<text x="22.90" y="291.55">.</text>
<text x="306.19" y="476.42">*</text>
<text x="180.37" y="139.31">.</text>
<text x="295.01" y="272.17">.</text>
<text x="370.33" y="17.27">.</text>
<text x="152.90" y="182.86">+</text>
<text x="297.37" y="252.80">.</text>
<text x="35.28" y="117.21">.</text>
<text x="372.33" y="148.86">.</text>
<text x="332.50" y="92.24">+</text>
<text x="475.73" y="127.20">.</text>
<text x="112.97" y="422.13">.</text>
<text x="323.90" y="248.15">.</text>
<text x="476.24" y="203.78">.</text>
<text x="376.67" y="187.70">.</text>
<text x="230.84" y="387.97">+</text>
<text x="59.69" y="271.01">+</text>
<text x="168.02" y="36.02">.</text>
<text x="319.27" y="221.03">.</text>
<text x="285.53" y="149.52">+</text>
<text x="172.78" y="127.15">+</text>
<text x="70.12" y="84.95">.</text>
<text x="36.57" y="244.44">+</text>
<text x="94.28" y="371.79">+</text>
<text x="290.03" y="61.57">+</text>
<text x="63.41" y="10.38">.</text>
<text x="349.87" y="336.80">+</text>
<text x="89.53" y="135.53">+</text>
<text x="328.25" y="215.20">+</text>
<text x="65.78" y="18.74">+</text>
<text x="169.78" y="313.02">+</text>
<text x="329.90" y="329.98">*</text>
<text x="252.81" y="459.52">+</text>
<text x="83.52" y="203.21">.</text>
<text x="76.56" y="349.13">.</text>
<text x="153.76" y="283.34">+</text>
<text x="273.48" y="198.87">.</text>
<text x="173.34" y="256.04">.</text>
<text x="23.71" y="242.64">.</text>
<text x="291.33" y="4.62">+</text>
<text x="275.81" y="452.94">.</text>
<text x="470.10" y="345.30">.</text>
<text x="207.76" y="57.95">+</text>
<text x="208.61" y="484.43">+</text>
<text x="487.16" y="269.98">.</text>
<text x="101.17" y="485.81">*</text>
<text x="439.88" y="20.15">.</text>
<text x="209.80" y="143.39">+</text>
<text x="337.01" y="390.84">.</text>
<text x="115.37" y="53.75">+</text>
<text x="14.94" y="158.52">.</text>
<text x="382.22" y="210.16">.</text>
<text x="20.85" y="220.39">.</text>
<text x="432.69" y="498.37">.</text>
<text x="393.32" y="121.70">+</text>
<text x="99.96" y="21.65">.</text>
<text x="117.03" y="258.29">+</text>
<text x="163.32" y="183.28">.</text>
<text x="393.93" y="101.11">+</text>
<text x="131.70" y="237.67">+</text>
<text x="99.81" y="455.41">+</text>
<text x="373.96" y="76.27">.</text>
<text x="310.07" y="295.55">.</text>
<text x="154.32" y="389.99">.</text>
<text x="355.56" y="202.88">*</text>
<text x="7.00" y="203.05">.</text>
<text x="309.68" y="449.48">+</text>
<text x="393.80" y="179.47">+</text>
<text x="53.94" y="386.20">+</text>
<text x="355.16" y="312.58">+</text>
<text x="52.07" y="335.10">+</text>
<text x="16.49" y="325.77">+</text>
<text x="498.51" y="205.77">+</text>
<text x="145.19" y="172.07">*</text>
<text x="258.21" y="216.87">+</text>
<text x="232.33" y="213.17">+</text>
<text x="227.48" y="85.44">*</text>
<text x="396.65" y="272.22">*</text>

</svg>