
<svg viewBox="0 0 500 500" xmlns="http://www.w.org/2000/svg" width="100%" height="100%" style="background-color: #0a0a14; font-family: 'Courier New', Courier, monospace;">
    <style>
        text { fill: #aaa; font-size: 10px; text-anchor: middle; dominant-baseline: middle; }
    </style>
    <text x="427.68" y="427.90">+</text>
<text x="319.26" y="1.77">.</text>
<text x="133.26" y="324.38">+</text>
<text x="188.69" y="117.35">.</text>
<text x="268.96" y="109.61">+</text>
<text x="351.80" y="122.26">+</text>
<text x="354.83" y="471.08">+</text>
<text x="300.99" y="419.11">+</text>
<text x="64.22" y="360.14">+</text>
<text x="329.14" y="295.43">.</text>
<text x="77.63" y="161.39">*</text>
<text x="451.36" y="338.48">.</text>
<text x="447.36" y="171.13">*</text>
<text x="43.06" y="86.43">.</text>
<text x="388.58" y="335.12">+</text>
<text x="48.45" y="312.99">*</text>
<text x="364.84" y="51.99">.</text>
<text x="277.80" y="213.39">*</text>
<text x="375.37" y="264.32">+</text>
<text x="39.25" y="247.02">+</text>
<text x="83.84" y="169.24">.</text>
<text x="123.17" y="432.98">*</text>
<text x="7.46" y="368.66">*</text>
<text x="156.83" y="466.10">+</text>
<text x="46.46" y="272.31">.</text>
<text x="406.82" y="168.40">.</text>
<text x="438.04" y="455.71">+</text>
<text x="279.99" y="440.04">.</text>
<text x="215.54" y="363.50">.</text>
<text x="392.25" y="482.36">+</text>
<text x="190.02" y="160.93">+</text>
<text x="316.45" y="459.13">+</text>
<text x="362.13" y="232.55">+</text>
<text x="478.64" y="95.17">.</text>
<text x="5.50" y="266.70">.</text>
<text x="412.93" y="158.39">+</text>
<text x="293.26" y="301.11">.</text>
<text x="122.22" y="281.38">+</text>
<text x="397.14" y="424.71">+</text>
<text x="128.21" y="275.72">+</text>
<text x="324.64" y="369.98">*</text>
<text x="93.77" y="218.29">+</text>
<text x="279.11" y="383.47">+</text>
<text x="38.93" y="404.93">*</text>
<text x="224.87" y="67.20">*</text>
<text x="91.81" y="360.91">.</text>
<text x="27.97" y="162.12">+</text>
<text x="63.17" y="14.17">+</text>
<text x="448.52" y="98.13">.</text>
<text x="373.03" y="262.65">+</text>
<text x="49.27" y="69.57">*</text>
<text x="303.97" y="231.35">+</text>
<text x="474.39" y="36.59">.</text>
<text x="437.51" y="259.29">+</text>
<text x="340.90" y="245.43">+</text>
<text x="304.84" y="437.04">.</text>
<text x="419.61" y="136.13">+</text>
<text x="23.88" y="148.14">+</text>
<text x="2.36" y="81.07">.</text>
<text x="97.64" y="323.44">+</text>
<text x="396.57" y="291.71">.</text>
<text x="159.03" y="215.30">*</text>
<text x="447.58" y="109.28">*</text>
<text x="376.55" y="448.89">.</text>
<text x="187.13" y="212.82">+</text>
<text x="286.89" y="379.33">+</text>
<text x="164.52" y="337.36">+</text>
<text x="45.18" y="431.58">+</text>
<text x="167.84" y="30.10">+</text>
<text x="480.50" y="134.69">+</text>
<text x="26.62" y="461.55">+</text>
<text x="406.61" y="145.64">+</text>
<text x="308.63" y="341.81">.</text>
<text x="102.56" y="461.53">.</text>
<text x="208.14" y="398.20">.</text>
<text x="82.52" y="177.71">.</text>
<text x="182.92" y="380.37">+</text>
<text x="146.66" y="249.02">+</text>
<text x="394.72" y="224.15">.</text>
<text x="0.95" y="16.75">+</text>
<text x="484.89" y="241.58">*</text>
<text x="94.29" y="3.86">.</text>
<text x="286.90" y="248.65">+</text>
<text x="135.09" y="147.94">+</text>
<text x="443.39" y="349.19">.</text>
<text x="428.00" y="197.60">+</text>
<text x="245.36" y="309.20">+</text>
<text x="234.98" y="158.10">*</text>
<text x="42.28" y="45.43">+</text>
<text x="148.88" y="423.11">*</text>
<text x="328.06" y="231.84">+</text>
<text x="16.25" y="183.84">.</text>
<text x="494.84" y="405.04">.</text>
<text x="186.78" y="326.74">+</text>
<text x="85.79" y="93.91">+</text>
<text x="111.83" y="301.30">+</text>
<text x="166.69" y="92.61">.</text>
<text x="456.31" y="434.00">+</text>
<text x="351.34" y="332.05">*</text>
<text x="31.10" y="437.90">.</text>
<text x="209.66" y="139.99">.</text>
<text x="256.20" y="325.48">+</text>
<text x="380.97" y="183.17">.</text>
<text x="447.71" y="75.32">+</text>
<text x="326.33" y="111.24">.</text>
<text x="79.84" y="152.12">*</text>
<text x="227.30" y="8.65">*</text>
<text x="207.06" y="302.37">*</text>
<text x="426.91" y="409.10">+</text>
<text x="220.19" y="210.87">+</text>
<text x="175.92" y="192.29">.</text>
<text x="453.31" y="198.04">*</text>
<text x="497.73" y="118.27">+</text>
<text x="90.25" y="288.37">.</text>
<text x="272.61" y="159.76">*</text>
<text x="108.69" y="307.07">+</text>
<text x="432.24" y="49.88">*</text>
<text x="390.97" y="163.97">+</text>
<text x="495.65" y="81.10">+</text>
<text x="489.85" y="457.22">.</text>
<text x="90.03" y="57.69">.</text>
<text x="132.00" y="3.13">*</text>
<text x="416.26" y="412.59">+</text>
<text x="146.80" y="136.64">+</text>
<text x="224.47" y="159.04">+</text>
<text x="156.86" y="477.96">+</text>
<text x="256.16" y="406.18">+</text>
<text x="373.90" y="156.52">+</text>
<text x="364.50" y="482.26">+</text>
<text x="200.45" y="199.00">*</text>
<text x="172.03" y="374.63">+</text>
<text x="165.23" y="402.47">+</text>
<text x="225.35" y="237.84">.</text>
<text x="42.72" y="356.68">+</text>
<text x="115.71" y="348.63">+</text>
<text x="455.91" y="32.33">+</text>
<text x="253.35" y="297.97">*</text>
<text x="131.19" y="490.81">+</text>
<text x="497.05" y="465.71">*</text>
<text x="35.13" y="40.46">*</text>
<text x="236.08" y="124.19">.</text>
<text x="61.55" y="227.24">.</text>
<text x="201.36" y="383.32">+</text>
<text x="189.56" y="444.12">.</text>
<text x="411.11" y="345.77">+</text>
<text x="276.44" y="201.44">.</text>
<text x="438.50" y="225.04">*</text>
<text x="479.82" y="423.27">.</text>
<text x="364.21" y="243.54">+</text>
<text x="81.16" y="225.36">+</text>
<text x="195.03" y="185.10">+</text>
<text x="120.48" y="181.02">.</text>
<text x="183.38" y="215.54">.</text>
<text x="455.21" y="143.16">*</text>
<text x="90.84" y="194.90">*</text>
<text x="0.56" y="462.55">.</text>
<text x="24.91" y="307.85">.</text>
<text x="351.87" y="33.88">.</text>
<text x="444.05" y="142.01">.</text>
<text x="197.47" y="475.91">*</text>
<text x="100.82" y="51.39">*</text>
<text x="70.45" y="218.93">.</text>
<text x="199.05" y="27.69">.</text>
<text x="313.14" y="306.97">*</text>
<text x="279.56" y="354.02">+</text>
<text x="414.74" y="219.69">+</text>
<text x="429.67" y="442.12">.</text>
<text x="320.14" y="124.46">+</text>
<text x="466.30" y="82.24">+</text>
<text x="114.97" y="249.32">.</text>
<text x="46.04" y="109.06">.</text>
<text x="49.40" y="227.68">+</text>
<text x="321.42" y="446.36">+</text>
<text x="231.79" y="279.35">.</text>
<text x="24.64" y="272.10">+</text>
<text x="326.70" y="271.82">.</text>
<text x="154.38" y="490.57">.</text>
<text x="218.12" y="175.61">.</text>
<text x="133.99" y="162.85">+</text>
<text x="282.06" y="18.20">*</text>
<text x="96.31" y="190.32">*</text>
<text x="333.51" y="192.13">.</text>
<text x="386.86" y="353.22">+</text>
<text x="208.31" y="150.62">+</text>
<text x="402.53" y="486.75">+</text>
<text x="211.38" y="244.15">.</text>
<text x="213.67" y="281.25">+</text>
<text x="204.93" y="387.56">+</text>
<text x="227.39" y="314.66">*</text>
<text x="230.17" y="64.90">+</text>
<text x="143.63" y="291.00">+</text>
<text x="308.05" y="153.21">.</text>
<text x="464.27" y="262.27">+</text>

</svg>