
<svg viewBox="0 0 500 500" xmlns="http://www.w.org/2000/svg" width="100%" height="100%" style="background-color: #0a0a14; font-family: 'Courier New', Courier, monospace;">
    <style>
        text { fill: #aaa; font-size: 10px; text-anchor: middle; dominant-baseline: middle; }
    </style>
    <text x="437.63" y="203.35">.</text>
<text x="230.94" y="112.40">.</text>
<text x="143.44" y="130.05">+</text>
<text x="499.74" y="458.88">*</text>
<text x="90.29" y="187.40">.</text>
<text x="264.73" y="359.51">+</text>
<text x="275.26" y="156.87">*</text>
<text x="213.70" y="304.07">.</text>
<text x="243.31" y="111.08">.</text>
<text x="309.85" y="282.10">+</text>
<text x="430.36" y="389.83">.</text>
<text x="435.02" y="489.23">.</text>
<text x="377.17" y="477.19">+</text>
<text x="241.35" y="374.00">.</text>
<text x="96.40" y="72.64">.</text>
<text x="403.85" y="353.01">*</text>
<text x="442.36" y="223.39">+</text>
<text x="293.13" y="303.20">+</text>
<text x="164.19" y="328.36">*</text>
<text x="218.63" y="113.75">+</text>
<text x="110.20" y="469.58">+</text>
<text x="31.94" y="437.98">.</text>
<text x="219.15" y="234.75">.</text>
<text x="256.91" y="109.98">+</text>
<text x="466.20" y="343.83">+</text>
<text x="144.49" y="64.43">+</text>
<text x="17.43" y="57.16">.</text>
<text x="222.72" y="148.79">+</text>
<text x="351.01" y="13.63">+</text>
<text x="14.19" y="90.77">+</text>
<text x="189.67" y="8.14">.</text>
<text x="77.87" y="310.31">.</text>
<text x="469.19" y="321.11">+</text>
<text x="288.72" y="225.40">*</text>
<text x="229.11" y="1.25">.</text>
<text x="306.33" y="337.88">+</text>
<text x="103.26" y="294.00">.</text>
<text x="256.54" y="383.07">.</text>
<text x="452.13" y="467.30">.</text>
<text x="428.52" y="465.64">.</text>
<text x="114.27" y="495.52">.</text>
<text x="206.16" y="285.13">+</text>
<text x="393.93" y="296.81">*</text>
<text x="276.56" y="52.66">.</text>
<text x="437.42" y="26.27">+</text>
<text x="64.45" y="314.82">.</text>
<text x="0.48" y="161.86">+</text>
<text x="90.32" y="303.47">.</text>
<text x="479.35" y="390.36">.</text>
<text x="51.94" y="55.56">+</text>
<text x="350.31" y="311.35">+</text>
<text x="349.51" y="82.99">+</text>
<text x="79.20" y="448.96">+</text>
<text x="343.95" y="326.16">.</text>
<text x="276.80" y="83.84">+</text>
<text x="379.64" y="471.36">.</text>
<text x="85.49" y="437.79">+</text>
<text x="39.84" y="123.96">*</text>
<text x="212.41" y="262.19">+</text>
<text x="297.83" y="370.22">.</text>
<text x="1.05" y="63.39">+</text>
<text x="363.70" y="123.58">+</text>
<text x="9.24" y="82.36">+</text>
<text x="207.35" y="218.38">.</text>
<text x="386.72" y="279.57">+</text>
<text x="57.49" y="301.88">.</text>
<text x="41.90" y="319.35">.</text>
<text x="499.00" y="418.00">.</text>
<text x="384.23" y="75.29">.</text>
<text x="440.56" y="428.52">.</text>
<text x="233.42" y="92.75">*</text>
<text x="287.91" y="110.08">+</text>
<text x="101.18" y="479.32">.</text>
<text x="401.33" y="51.79">.</text>
<text x="88.21" y="155.56">+</text>
<text x="361.55" y="326.66">+</text>
<text x="251.29" y="390.46">+</text>
<text x="90.30" y="55.86">*</text>
<text x="244.35" y="115.17">.</text>
<text x="221.45" y="232.12">*</text>
<text x="105.06" y="491.95">+</text>
<text x="2.34" y="128.89">+</text>
<text x="146.64" y="442.95">.</text>
<text x="92.22" y="385.74">+</text>
<text x="409.87" y="135.69">+</text>
<text x="466.44" y="159.11">+</text>
<text x="498.58" y="164.39">.</text>
<text x="238.50" y="103.31">+</text>
<text x="446.40" y="66.41">.</text>
<text x="267.91" y="234.88">+</text>
<text x="113.28" y="447.50">.</text>
<text x="380.99" y="51.64">.</text>
<text x="439.26" y="218.80">+</text>
<text x="59.76" y="104.41">*</text>
<text x="442.98" y="489.66">.</text>
<text x="50.94" y="473.61">+</text>
<text x="193.57" y="53.67">.</text>
<text x="458.15" y="307.95">+</text>
<text x="485.43" y="35.65">*</text>
<text x="43.68" y="165.98">+</text>
<text x="177.09" y="183.27">*</text>
<text x="134.90" y="395.35">+</text>
<text x="476.73" y="6.58">+</text>
<text x="367.70" y="393.90">*</text>
<text x="52.76" y="174.70">.</text>
<text x="433.74" y="194.25">.</text>
<text x="461.23" y="419.30">.</text>
<text x="8.43" y="431.20">+</text>
<text x="119.06" y="264.28">+</text>
<text x="264.18" y="257.75">*</text>
<text x="85.75" y="290.75">+</text>
<text x="349.52" y="61.57">.</text>
<text x="360.30" y="371.90">.</text>
<text x="298.37" y="4.94">+</text>
<text x="446.83" y="112.16">.</text>
<text x="176.79" y="228.88">.</text>
<text x="424.88" y="108.17">+</text>
<text x="470.29" y="362.31">*</text>
<text x="404.25" y="180.47">+</text>
<text x="138.57" y="462.99">+</text>
<text x="290.26" y="370.22">+</text>
<text x="114.71" y="313.57">*</text>
<text x="497.26" y="92.12">+</text>
<text x="102.22" y="328.10">.</text>
<text x="88.92" y="211.81">+</text>
<text x="122.11" y="488.35">+</text>
<text x="149.24" y="18.06">+</text>
<text x="429.29" y="150.72">.</text>
<text x="248.49" y="374.50">*</text>
<text x="39.59" y="469.60">+</text>
<text x="104.68" y="331.76">+</text>
<text x="470.37" y="88.14">.</text>
<text x="86.32" y="132.09">.</text>
<text x="126.65" y="237.86">.</text>
<text x="149.11" y="61.65">.</text>
<text x="486.87" y="51.40">+</text>
<text x="118.34" y="489.35">.</text>
<text x="180.67" y="242.85">.</text>
<text x="277.15" y="162.23">+</text>
<text x="360.09" y="169.77">+</text>
<text x="448.21" y="228.26">.</text>
<text x="458.39" y="405.60">*</text>
<text x="328.51" y="23.48">.</text>
<text x="296.03" y="126.13">*</text>
<text x="428.02" y="378.20">+</text>
<text x="210.82" y="80.84">+</text>
<text x="139.32" y="380.94">.</text>
<text x="400.20" y="489.03">.</text>
<text x="171.38" y="141.15">*</text>
<text x="405.84" y="251.13">+</text>
<text x="402.76" y="89.21">.</text>
<text x="393.15" y="213.86">+</text>
<text x="262.18" y="375.25">.</text>
<text x="11.37" y="67.06">+</text>
<text x="486.52" y="338.67">.</text>
<text x="370.88" y="228.88">.</text>
<text x="290.56" y="166.20">+</text>
<text x="314.43" y="409.64">*</text>
<text x="431.19" y="89.28">.</text>
<text x="56.50" y="429.48">+</text>
<text x="257.63" y="346.92">+</text>
<text x="70.22" y="304.41">+</text>
<text x="253.31" y="90.90">.</text>
<text x="290.75" y="103.59">.</text>
<text x="213.55" y="305.55">.</text>
<text x="180.38" y="477.70">.</text>
<text x="106.84" y="206.37">.</text>
<text x="439.08" y="166.07">*</text>
<text x="421.45" y="170.94">+</text>
<text x="158.87" y="201.40">+</text>
<text x="370.71" y="88.88">+</text>
<text x="15.05" y="274.06">+</text>
<text x="476.13" y="470.32">+</text>
<text x="18.11" y="240.50">*</text>
<text x="296.72" y="60.68">.</text>
<text x="153.40" y="87.43">.</text>
<text x="330.42" y="44.76">.</text>
<text x="98.29" y="288.70">*</text>
<text x="411.08" y="265.45">+</text>
<text x="341.23" y="286.83">+</text>
<text x="169.48" y="319.26">*</text>
<text x="481.09" y="322.63">.</text>
<text x="87.78" y="70.28">*</text>
<text x="316.29" y="140.51">.</text>
<text x="459.45" y="83.00">+</text>
<text x="325.53" y="166.71">*</text>
<text x="55.88" y="30.35">+</text>
<text x="112.29" y="138.67">.</text>
<text x="484.45" y="120.03">+</text>
<text x="60.20" y="176.87">+</text>
<text x="238.32" y="345.17">*</text>

</svg>