
<svg viewBox="0 0 500 500" xmlns="http://www.w.org/2000/svg" width="100%" height="100%" style="background-color: #0a0a14; font-family: 'Courier New', Courier, monospace;">
    <style>
        text { fill: #aaa; font-size: 10px; text-anchor: middle; dominant-baseline: middle; }
    </style>
    <text x="193.96" y="181.41">+</text>
<text x="438.36" y="224.00">+</text>
<text x="422.29" y="80.73">+</text>
<text x="25.06" y="206.96">.</text>
<text x="385.42" y="457.90">+</text>
<text x="336.92" y="389.65">.</text>
<text x="479.47" y="86.93">+</text>
<text x="466.33" y="394.10">.</text>
<text x="120.11" y="113.16">*</text>
<text x="399.92" y="161.30">.</text>
<text x="20.34" y="428.34">*</text>
<text x="486.27" y="197.51">.</text>
<text x="452.66" y="147.54">+</text>
<text x="313.66" y="464.20">+</text>
<text x="403.34" y="450.39">.</text>
<text x="386.92" y="421.47">+</text>
<text x="78.97" y="106.65">+</text>
<text x="339.30" y="493.65">+</text>
<text x="366.51" y="222.57">*</text>
<text x="19.95" y="185.68">+</text>
<text x="337.64" y="236.37">+</text>
<text x="102.71" y="333.75">+</text>
<text x="198.24" y="312.36">.</text>
<text x="18.53" y="225.10">.</text>
<text x="35.76" y="391.59">.</text>
<text x="379.72" y="335.54">+</text>
<text x="72.18" y="445.79">+</text>
<text x="268.65" y="132.28">+</text>
<text x="248.64" y="335.69">+</text>
<text x="401.92" y="26.92">+</text>
<text x="272.76" y="387.91">+</text>
<text x="344.84" y="31.52">+</text>
<text x="305.84" y="177.90">+</text>
<text x="439.92" y="335.90">*</text>
<text x="21.62" y="420.45">.</text>
<text x="415.00" y="193.25">+</text>
<text x="348.15" y="306.92">+</text>
<text x="32.36" y="80.43">+</text>
<text x="118.57" y="148.28">+</text>
<text x="322.45" y="307.33">*</text>
<text x="215.65" y="145.80">.</text>
<text x="142.44" y="273.53">.</text>
<text x="432.64" y="463.56">*</text>
<text x="203.64" y="481.96">.</text>
<text x="301.84" y="297.58">*</text>
<text x="313.79" y="88.86">.</text>
<text x="249.62" y="91.77">.</text>
<text x="408.47" y="247.65">.</text>
<text x="450.83" y="302.80">.</text>
<text x="45.64" y="240.92">+</text>
<text x="443.13" y="494.29">+</text>
<text x="381.01" y="59.62">.</text>
<text x="85.31" y="4.87">+</text>
<text x="223.44" y="398.75">*</text>
<text x="431.06" y="126.89">+</text>
<text x="340.95" y="490.81">+</text>
<text x="313.18" y="93.56">+</text>
<text x="437.26" y="140.83">.</text>
<text x="284.88" y="113.35">+</text>
<text x="72.19" y="490.21">+</text>
<text x="288.52" y="453.83">.</text>
<text x="66.68" y="258.58">+</text>
<text x="235.83" y="458.48">*</text>
<text x="274.49" y="214.57">+</text>
<text x="331.02" y="385.17">.</text>
<text x="338.43" y="281.59">.</text>
<text x="70.82" y="133.07">+</text>
<text x="40.73" y="18.88">.</text>
<text x="406.94" y="355.95">.</text>
<text x="357.34" y="171.42">+</text>
<text x="213.57" y="333.81">.</text>
<text x="235.40" y="305.41">+</text>
<text x="416.52" y="11.50">.</text>
<text x="36.26" y="261.87">.</text>
<text x="50.63" y="201.32">.</text>
<text x="498.51" y="45.86">+</text>
<text x="129.20" y="412.82">+</text>
<text x="408.32" y="401.79">+</text>
<text x="162.09" y="189.66">.</text>
<text x="280.05" y="195.46">+</text>
<text x="446.43" y="446.60">*</text>
<text x="474.38" y="91.76">.</text>
<text x="349.18" y="86.78">.</text>
<text x="333.24" y="292.28">*</text>
<text x="143.30" y="179.43">.</text>
<text x="16.74" y="358.34">.</text>
<text x="303.00" y="312.89">+</text>
<text x="371.18" y="287.59">*</text>
<text x="134.60" y="353.41">*</text>
<text x="95.60" y="392.32">+</text>
<text x="285.66" y="280.14">*</text>
<text x="35.69" y="302.47">.</text>
<text x="333.89" y="52.26">+</text>
<text x="365.05" y="443.28">+</text>
<text x="436.43" y="333.58">+</text>
<text x="206.27" y="368.85">*</text>
<text x="188.55" y="342.20">+</text>
<text x="180.51" y="85.78">.</text>
<text x="86.97" y="146.19">.</text>
<text x="122.86" y="354.98">.</text>
<text x="278.99" y="99.15">*</text>
<text x="358.90" y="164.26">+</text>
<text x="174.46" y="305.85">.</text>
<text x="217.63" y="377.18">+</text>
<text x="226.47" y="262.74">+</text>
<text x="334.70" y="342.70">*</text>
<text x="398.33" y="371.50">.</text>
<text x="405.16" y="395.93">.</text>
<text x="117.33" y="386.72">.</text>
<text x="15.53" y="75.70">.</text>
<text x="150.38" y="34.13">+</text>
<text x="458.06" y="225.32">*</text>
<text x="397.39" y="11.98">.</text>
<text x="482.32" y="101.39">.</text>
<text x="255.57" y="401.63">*</text>
<text x="190.56" y="346.18">.</text>
<text x="126.35" y="26.96">+</text>
<text x="453.01" y="249.89">*</text>
<text x="260.92" y="213.56">+</text>
<text x="127.74" y="495.20">+</text>
<text x="434.38" y="35.07">*</text>
<text x="500.00" y="428.20">+</text>
<text x="63.47" y="51.95">+</text>
<text x="475.57" y="61.24">.</text>
<text x="176.58" y="330.70">+</text>
<text x="432.46" y="224.39">.</text>
<text x="477.90" y="473.49">+</text>
<text x="273.95" y="399.32">+</text>
<text x="409.32" y="21.24">.</text>
<text x="406.36" y="114.73">.</text>
<text x="154.43" y="317.59">.</text>
<text x="130.43" y="315.12">+</text>
<text x="495.96" y="262.67">.</text>
<text x="115.39" y="139.75">.</text>
<text x="121.24" y="203.61">+</text>
<text x="260.54" y="120.72">+</text>
<text x="101.84" y="479.36">+</text>
<text x="397.75" y="274.80">*</text>
<text x="378.04" y="209.44">+</text>
<text x="302.03" y="312.96">.</text>
<text x="140.02" y="326.58">+</text>
<text x="69.77" y="360.60">.</text>
<text x="134.83" y="134.44">.</text>
<text x="72.72" y="341.48">.</text>
<text x="335.39" y="253.62">+</text>
<text x="250.04" y="310.37">+</text>
<text x="360.96" y="44.40">.</text>
<text x="218.44" y="363.45">.</text>
<text x="47.61" y="373.68">.</text>
<text x="42.31" y="364.66">+</text>
<text x="226.77" y="176.13">+</text>
<text x="482.35" y="275.37">.</text>
<text x="393.99" y="263.80">+</text>
<text x="272.25" y="286.14">.</text>
<text x="299.14" y="375.58">.</text>
<text x="96.90" y="498.88">.</text>
<text x="365.94" y="136.48">.</text>
<text x="455.08" y="115.80">+</text>
<text x="95.14" y="46.87">.</text>
<text x="259.00" y="448.18">+</text>
<text x="98.29" y="460.87">*</text>
<text x="101.33" y="477.41">+</text>
<text x="410.33" y="257.67">*</text>
<text x="309.28" y="324.10">.</text>
<text x="222.27" y="284.37">+</text>
<text x="449.01" y="484.09">+</text>
<text x="111.61" y="408.90">+</text>
<text x="60.27" y="211.40">+</text>
<text x="374.86" y="15.35">.</text>
<text x="496.83" y="362.25">+</text>
<text x="324.92" y="129.48">.</text>
<text x="425.55" y="14.55">.</text>
<text x="270.00" y="358.12">.</text>
<text x="466.22" y="205.87">+</text>
<text x="490.50" y="140.99">+</text>
<text x="127.98" y="275.45">+</text>
<text x="160.44" y="251.57">.</text>
<text x="333.26" y="19.67">.</text>
<text x="177.67" y="186.46">*</text>
<text x="401.56" y="464.20">.</text>
<text x="446.59" y="29.91">+</text>
<text x="240.97" y="78.38">+</text>
<text x="189.50" y="227.23">.</text>
<text x="250.87" y="385.28">+</text>
<text x="96.89" y="395.35">+</text>
<text x="443.92" y="451.50">.</text>
<text x="489.10" y="395.74">.</text>
<text x="308.37" y="100.75">.</text>
<text x="100.83" y="154.91">.</text>
<text x="222.79" y="280.70">.</text>
<text x="202.84" y="170.28">+</text>
<text x="209.20" y="405.67">+</text>
<text x="369.51" y="481.64">.</text>
<text x="137.90" y="207.32">.</text>
<text x="105.63" y="449.36">*</text>
<text x="74.07" y="198.90">+</text>
<text x="345.20" y="245.39">.</text>
<text x="198.60" y="110.37">.</text>
<text x="496.89" y="459.46">*</text>
<text x="125.44" y="112.03">+</text>
<text x="222.98" y="216.85">.</text>
<text x="276.15" y="145.00">*</text>

</svg>