
<svg viewBox="0 0 500 500" xmlns="http://www.w.org/2000/svg" width="100%" height="100%" style="background-color: #0a0a14; font-family: 'Courier New', Courier, monospace;">
    <style>
        text { fill: #aaa; font-size: 10px; text-anchor: middle; dominant-baseline: middle; }
    </style>
    <text x="367.29" y="47.16">.</text>
<text x="23.88" y="262.02">*</text>
<text x="475.89" y="294.70">*</text>
<text x="28.79" y="14.59">+</text>
<text x="65.07" y="481.50">.</text>
<text x="400.65" y="433.71">+</text>
<text x="435.03" y="68.46">.</text>
<text x="364.38" y="343.21">.</text>
<text x="195.72" y="293.23">+</text>
<text x="376.78" y="454.00">+</text>
<text x="80.22" y="90.60">+</text>
<text x="41.15" y="313.46">+</text>
<text x="145.94" y="424.89">.</text>
<text x="250.50" y="234.22">.</text>
<text x="337.08" y="82.21">.</text>
<text x="422.26" y="470.11">+</text>
<text x="273.40" y="30.25">*</text>
<text x="163.29" y="172.83">.</text>
<text x="10.27" y="176.27">+</text>
<text x="313.47" y="49.32">*</text>
<text x="339.06" y="304.70">.</text>
<text x="94.46" y="284.03">+</text>
<text x="441.06" y="16.47">+</text>
<text x="347.81" y="340.56">*</text>
<text x="485.75" y="115.72">.</text>
<text x="246.56" y="477.37">+</text>
<text x="437.75" y="423.76">+</text>
<text x="247.84" y="202.48">.</text>
<text x="300.77" y="438.39">.</text>
<text x="97.21" y="323.01">+</text>
<text x="153.33" y="382.58">.</text>
<text x="203.92" y="489.99">.</text>
<text x="446.13" y="151.62">+</text>
<text x="126.32" y="108.54">+</text>
<text x="219.76" y="117.97">.</text>
<text x="482.73" y="180.40">*</text>
<text x="62.88" y="187.73">*</text>
<text x="234.69" y="327.53">+</text>
<text x="451.39" y="218.53">+</text>
<text x="153.57" y="257.95">.</text>
<text x="59.61" y="143.33">.</text>
<text x="360.73" y="293.14">.</text>
<text x="21.42" y="175.19">+</text>
<text x="47.13" y="369.23">.</text>
<text x="466.23" y="33.65">*</text>
<text x="467.72" y="176.49">.</text>
<text x="61.70" y="7.95">+</text>
<text x="496.14" y="170.36">.</text>
<text x="135.86" y="266.93">+</text>
<text x="287.27" y="128.77">+</text>
<text x="278.70" y="344.39">+</text>
<text x="132.64" y="24.60">*</text>
<text x="49.30" y="361.14">.</text>
<text x="461.64" y="185.89">+</text>
<text x="247.42" y="18.67">.</text>
<text x="79.53" y="429.80">+</text>
<text x="427.13" y="152.82">+</text>
<text x="268.57" y="72.21">.</text>
<text x="461.87" y="15.38">.</text>
<text x="170.90" y="234.15">*</text>
<text x="300.71" y="138.11">.</text>
<text x="302.91" y="369.48">.</text>
<text x="344.29" y="79.24">+</text>
<text x="22.63" y="23.11">.</text>
<text x="428.20" y="74.22">+</text>
<text x="52.02" y="275.75">+</text>
<text x="173.34" y="442.26">+</text>
<text x="340.84" y="332.60">.</text>
<text x="262.96" y="366.80">.</text>
<text x="277.47" y="292.65">.</text>
<text x="254.47" y="404.67">+</text>
<text x="458.96" y="19.32">*</text>
<text x="486.52" y="157.29">+</text>
<text x="356.94" y="385.16">+</text>
<text x="138.31" y="319.27">*</text>
<text x="282.25" y="187.58">.</text>
<text x="257.06" y="225.78">+</text>
<text x="372.70" y="487.39">*</text>
<text x="273.45" y="428.05">.</text>
<text x="66.95" y="51.59">.</text>
<text x="16.00" y="43.38">+</text>
<text x="349.39" y="49.76">.</text>
<text x="259.61" y="485.94">*</text>
<text x="42.82" y="179.28">.</text>
<text x="19.90" y="229.92">+</text>
<text x="471.49" y="93.99">+</text>
<text x="207.91" y="433.29">.</text>
<text x="189.66" y="114.40">+</text>
<text x="160.05" y="115.02">+</text>
<text x="107.76" y="330.79">+</text>
<text x="351.46" y="476.00">+</text>
<text x="27.59" y="141.59">+</text>
<text x="88.79" y="75.46">+</text>
<text x="404.16" y="75.45">*</text>
<text x="308.63" y="367.38">.</text>
<text x="426.50" y="453.10">.</text>
<text x="337.96" y="240.15">*</text>
<text x="427.43" y="330.70">.</text>
<text x="131.13" y="47.75">+</text>
<text x="35.86" y="57.77">.</text>
<text x="171.39" y="424.58">.</text>
<text x="186.76" y="367.51">+</text>
<text x="13.95" y="162.17">+</text>
<text x="246.47" y="272.28">+</text>
<text x="61.94" y="487.46">+</text>
<text x="417.99" y="94.07">.</text>
<text x="45.63" y="135.42">.</text>
<text x="208.05" y="225.59">+</text>
<text x="16.99" y="198.27">+</text>
<text x="208.52" y="210.52">+</text>
<text x="106.97" y="266.37">.</text>
<text x="68.98" y="216.45">+</text>
<text x="342.54" y="351.00">+</text>
<text x="254.75" y="46.79">.</text>
<text x="204.38" y="480.17">.</text>
<text x="476.64" y="53.09">*</text>
<text x="425.18" y="193.48">*</text>
<text x="39.84" y="26.98">.</text>
<text x="199.50" y="483.90">+</text>
<text x="173.97" y="388.73">.</text>
<text x="383.89" y="104.72">.</text>
<text x="249.82" y="138.17">+</text>
<text x="118.68" y="467.09">*</text>
<text x="269.25" y="153.87">+</text>
<text x="489.89" y="358.92">*</text>
<text x="27.68" y="341.08">.</text>
<text x="239.94" y="69.10">.</text>
<text x="149.14" y="381.89">.</text>
<text x="325.22" y="209.22">+</text>
<text x="221.36" y="400.66">+</text>
<text x="270.93" y="218.14">+</text>
<text x="16.89" y="433.00">*</text>
<text x="131.52" y="199.02">.</text>
<text x="393.82" y="378.51">+</text>
<text x="125.04" y="71.90">+</text>
<text x="386.21" y="468.58">.</text>
<text x="260.51" y="491.70">.</text>
<text x="412.69" y="101.77">+</text>
<text x="361.75" y="276.79">+</text>
<text x="88.07" y="220.03">.</text>
<text x="68.14" y="113.54">+</text>
<text x="33.74" y="122.10">.</text>
<text x="384.01" y="175.89">+</text>
<text x="107.91" y="1.65">.</text>
<text x="332.63" y="357.19">+</text>
<text x="10.35" y="420.51">+</text>
<text x="96.01" y="111.96">.</text>
<text x="394.58" y="428.36">+</text>
<text x="123.56" y="201.15">.</text>
<text x="262.89" y="69.47">*</text>
<text x="94.36" y="148.53">+</text>
<text x="498.33" y="115.79">.</text>
<text x="458.62" y="259.35">+</text>
<text x="57.31" y="372.67">+</text>
<text x="120.26" y="160.10">.</text>
<text x="299.77" y="428.30">*</text>
<text x="499.95" y="182.51">+</text>
<text x="490.59" y="361.84">+</text>
<text x="131.74" y="244.94">+</text>
<text x="399.13" y="419.07">.</text>
<text x="324.32" y="246.41">.</text>
<text x="19.24" y="226.54">+</text>
<text x="11.56" y="262.05">.</text>
<text x="210.01" y="106.34">.</text>
<text x="401.17" y="160.91">.</text>
<text x="79.49" y="152.00">.</text>
<text x="399.07" y="156.56">.</text>
<text x="362.25" y="484.70">+</text>
<text x="498.14" y="41.82">*</text>
<text x="445.41" y="19.17">.</text>
<text x="474.11" y="422.89">.</text>
<text x="385.03" y="5.41">.</text>
<text x="419.35" y="289.50">.</text>
<text x="33.89" y="16.27">*</text>
<text x="10.67" y="378.17">*</text>
<text x="50.39" y="114.55">.</text>
<text x="94.54" y="204.39">.</text>
<text x="139.21" y="306.10">+</text>
<text x="29.49" y="47.56">+</text>
<text x="87.82" y="115.90">+</text>
<text x="399.96" y="38.78">+</text>
<text x="309.11" y="325.42">+</text>
<text x="324.41" y="148.51">+</text>
<text x="36.07" y="174.84">+</text>
<text x="108.77" y="103.09">*</text>
<text x="270.64" y="170.48">.</text>
<text x="160.29" y="208.90">.</text>
<text x="370.98" y="383.42">.</text>
<text x="92.47" y="321.77">+</text>
<text x="12.83" y="496.41">*</text>
<text x="23.81" y="167.07">.</text>
<text x="52.99" y="462.01">+</text>
<text x="203.55" y="207.33">+</text>
<text x="59.93" y="441.69">+</text>
<text x="175.56" y="47.66">.</text>
<text x="223.79" y="323.01">+</text>
<text x="4.43" y="321.31">.</text>
<text x="116.15" y="386.02">.</text>
<text x="29.43" y="25.85">+</text>
<text x="115.60" y="494.11">*</text>
<text x="212.14" y="282.93">.</text>
<text x="161.34" y="77.46">*</text>
<text x="223.24" y="112.60">*</text>
<text x="388.12" y="238.46">+</text>

</svg>