
<svg viewBox="0 0 500 500" xmlns="http://www.w.org/2000/svg" width="100%" height="100%" style="background-color: #0a0a14; font-family: 'Courier New', Courier, monospace;">
    <style>
        text { fill: #aaa; font-size: 10px; text-anchor: middle; dominant-baseline: middle; }
    </style>
    <text x="313.83" y="131.29">+</text>
<text x="475.39" y="81.79">+</text>
<text x="50.13" y="440.87">.</text>
<text x="324.54" y="226.43">+</text>
<text x="207.14" y="113.39">+</text>
<text x="325.92" y="270.66">.</text>
<text x="44.10" y="266.69">*</text>
<text x="22.14" y="442.15">+</text>
<text x="243.58" y="433.46">+</text>
<text x="238.25" y="15.20">+</text>
<text x="158.32" y="265.56">+</text>
<text x="104.60" y="236.68">.</text>
<text x="235.37" y="92.68">+</text>
<text x="201.07" y="220.84">.</text>
<text x="4.35" y="338.83">.</text>
<text x="29.42" y="403.08">.</text>
<text x="41.00" y="88.98">+</text>
<text x="295.57" y="316.98">+</text>
<text x="442.56" y="453.71">+</text>
<text x="330.96" y="46.79">*</text>
<text x="86.22" y="55.48">+</text>
<text x="239.25" y="121.80">.</text>
<text x="254.08" y="398.41">.</text>
<text x="488.85" y="331.67">+</text>
<text x="302.24" y="130.61">.</text>
<text x="317.47" y="4.05">+</text>
<text x="495.91" y="109.42">+</text>
<text x="353.57" y="60.94">.</text>
<text x="253.30" y="266.91">.</text>
<text x="221.71" y="421.00">*</text>
<text x="448.68" y="443.73">+</text>
<text x="77.74" y="258.88">.</text>
<text x="286.19" y="300.15">+</text>
<text x="279.57" y="464.16">+</text>
<text x="125.61" y="308.64">+</text>
<text x="484.18" y="94.34">+</text>
<text x="406.65" y="50.73">*</text>
<text x="489.20" y="43.04">.</text>
<text x="407.97" y="239.19">+</text>
<text x="337.59" y="36.14">+</text>
<text x="23.89" y="113.13">.</text>
<text x="177.46" y="92.67">*</text>
<text x="446.36" y="424.07">+</text>
<text x="80.35" y="58.43">.</text>
<text x="257.64" y="283.21">.</text>
<text x="101.64" y="18.65">+</text>
<text x="207.77" y="314.23">.</text>
<text x="213.04" y="481.07">*</text>
<text x="0.20" y="133.27">+</text>
<text x="195.11" y="172.18">+</text>
<text x="144.38" y="232.88">.</text>
<text x="457.01" y="128.96">*</text>
<text x="485.66" y="253.33">*</text>
<text x="5.18" y="339.40">*</text>
<text x="40.97" y="16.98">+</text>
<text x="216.65" y="427.73">+</text>
<text x="155.54" y="196.46">.</text>
<text x="59.24" y="244.93">+</text>
<text x="307.53" y="415.83">.</text>
<text x="117.44" y="13.40">.</text>
<text x="40.65" y="222.87">.</text>
<text x="338.49" y="214.27">.</text>
<text x="423.49" y="42.43">.</text>
<text x="143.41" y="433.35">.</text>
<text x="232.28" y="375.68">*</text>
<text x="40.12" y="355.24">+</text>
<text x="79.15" y="363.66">*</text>
<text x="320.42" y="141.48">.</text>
<text x="189.75" y="146.69">+</text>
<text x="127.04" y="334.24">.</text>
<text x="164.27" y="12.71">+</text>
<text x="21.10" y="192.51">.</text>
<text x="89.64" y="451.33">+</text>
<text x="322.38" y="80.61">*</text>
<text x="100.40" y="414.39">.</text>
<text x="182.73" y="312.15">*</text>
<text x="286.89" y="299.59">.</text>
<text x="231.94" y="294.45">*</text>
<text x="33.77" y="144.71">.</text>
<text x="157.09" y="477.03">.</text>
<text x="169.40" y="414.90">.</text>
<text x="8.55" y="298.14">+</text>
<text x="262.56" y="348.89">*</text>
<text x="290.67" y="330.22">.</text>
<text x="461.33" y="297.76">.</text>
<text x="376.66" y="342.85">+</text>
<text x="475.63" y="160.52">+</text>
<text x="57.54" y="29.04">+</text>
<text x="324.61" y="470.69">.</text>
<text x="173.51" y="256.00">+</text>
<text x="75.06" y="4.14">+</text>
<text x="27.41" y="116.57">*</text>
<text x="130.34" y="162.57">*</text>
<text x="306.31" y="447.38">.</text>
<text x="351.91" y="65.58">.</text>
<text x="284.59" y="287.95">.</text>
<text x="30.22" y="253.70">.</text>
<text x="468.25" y="16.39">+</text>
<text x="270.88" y="429.40">.</text>
<text x="52.62" y="146.06">*</text>
<text x="22.01" y="243.16">+</text>
<text x="337.82" y="294.46">*</text>
<text x="499.28" y="227.03">.</text>
<text x="227.98" y="427.23">.</text>
<text x="404.34" y="304.85">+</text>
<text x="43.85" y="269.23">+</text>
<text x="87.97" y="108.74">.</text>
<text x="282.47" y="298.22">+</text>
<text x="441.91" y="213.57">.</text>
<text x="37.93" y="118.62">+</text>
<text x="209.89" y="219.99">+</text>
<text x="362.73" y="87.49">+</text>
<text x="470.34" y="382.60">*</text>
<text x="14.22" y="106.78">+</text>
<text x="377.95" y="193.70">.</text>
<text x="66.73" y="158.36">.</text>
<text x="419.10" y="396.83">+</text>
<text x="198.18" y="237.50">+</text>
<text x="43.07" y="342.99">.</text>
<text x="38.93" y="474.25">+</text>
<text x="97.84" y="30.27">*</text>
<text x="373.34" y="391.20">+</text>
<text x="126.67" y="303.45">+</text>
<text x="349.12" y="111.03">+</text>
<text x="129.66" y="458.00">.</text>
<text x="40.90" y="265.32">*</text>
<text x="203.18" y="220.47">+</text>
<text x="6.58" y="186.19">.</text>
<text x="233.25" y="150.57">.</text>
<text x="450.30" y="67.63">.</text>
<text x="448.82" y="341.48">.</text>
<text x="139.01" y="263.66">.</text>
<text x="50.83" y="413.06">+</text>
<text x="223.36" y="429.34">.</text>
<text x="373.34" y="201.62">+</text>
<text x="276.40" y="199.72">.</text>
<text x="172.88" y="153.89">*</text>
<text x="315.61" y="340.13">+</text>
<text x="405.97" y="320.95">.</text>
<text x="346.07" y="101.02">.</text>
<text x="484.24" y="327.66">+</text>
<text x="464.53" y="399.98">.</text>
<text x="490.21" y="206.66">*</text>
<text x="403.17" y="54.24">+</text>
<text x="215.22" y="270.64">.</text>
<text x="96.10" y="442.21">.</text>
<text x="392.99" y="244.20">+</text>
<text x="235.88" y="275.79">.</text>
<text x="242.50" y="426.78">+</text>
<text x="380.98" y="158.05">+</text>
<text x="50.77" y="200.87">.</text>
<text x="55.68" y="323.77">.</text>
<text x="318.16" y="437.70">+</text>
<text x="126.37" y="31.74">+</text>
<text x="369.58" y="392.71">+</text>
<text x="385.47" y="323.58">.</text>
<text x="301.47" y="373.82">.</text>
<text x="40.30" y="267.95">.</text>
<text x="352.11" y="339.83">+</text>
<text x="64.24" y="328.56">*</text>
<text x="480.93" y="106.43">+</text>
<text x="318.11" y="48.50">+</text>
<text x="222.94" y="251.88">+</text>
<text x="392.42" y="113.58">*</text>
<text x="354.56" y="217.40">+</text>
<text x="180.45" y="381.71">*</text>
<text x="368.98" y="222.42">*</text>
<text x="171.94" y="145.09">.</text>
<text x="17.80" y="408.07">.</text>
<text x="160.89" y="117.84">+</text>
<text x="42.25" y="340.93">+</text>
<text x="21.65" y="455.53">.</text>
<text x="443.75" y="380.59">+</text>
<text x="135.42" y="108.30">*</text>
<text x="98.86" y="56.21">*</text>
<text x="117.25" y="159.95">+</text>
<text x="364.64" y="248.56">+</text>
<text x="190.08" y="314.47">.</text>
<text x="461.90" y="384.92">.</text>
<text x="134.76" y="25.56">*</text>
<text x="194.65" y="53.87">.</text>
<text x="378.40" y="355.85">+</text>
<text x="382.31" y="70.96">.</text>
<text x="380.57" y="23.34">.</text>
<text x="196.42" y="262.12">*</text>
<text x="446.77" y="484.70">+</text>
<text x="476.65" y="402.37">.</text>
<text x="288.98" y="215.81">*</text>
<text x="401.37" y="375.66">.</text>
<text x="402.62" y="499.20">.</text>
<text x="58.01" y="311.30">*</text>
<text x="24.72" y="348.35">.</text>
<text x="439.07" y="67.26">+</text>
<text x="497.48" y="173.75">*</text>
<text x="181.58" y="171.58">.</text>
<text x="40.82" y="37.49">+</text>
<text x="28.20" y="349.90">+</text>
<text x="421.71" y="218.99">+</text>
<text x="284.84" y="66.83">+</text>
<text x="257.10" y="257.93">*</text>
<text x="453.83" y="349.37">.</text>
<text x="378.66" y="497.51">.</text>
<text x="52.39" y="382.25">+</text>
<text x="421.50" y="297.56">.</text>
<text x="420.33" y="446.08">.</text>
<text x="248.38" y="33.85">+</text>
<text x="425.78" y="101.17">+</text>

</svg>