
<svg viewBox="0 0 500 500" xmlns="http://www.w.org/2000/svg" width="100%" height="100%" style="background-color: #0a0a14; font-family: 'Courier New', Courier, monospace;">
    <style>
        text { fill: #aaa; font-size: 10px; text-anchor: middle; dominant-baseline: middle; }
    </style>
    <text x="418.81" y="141.86">+</text>
<text x="75.78" y="321.71">.</text>
<text x="460.89" y="221.03">.</text>
<text x="368.55" y="4.58">*</text>
<text x="334.76" y="374.67">+</text>
<text x="434.66" y="378.31">+</text>
<text x="258.91" y="355.61">+</text>
<text x="145.15" y="445.10">.</text>
<text x="445.63" y="18.56">*</text>
<text x="425.02" y="398.77">.</text>
<text x="234.78" y="135.55">.</text>
<text x="149.18" y="445.65">.</text>
<text x="147.99" y="416.54">.</text>
<text x="417.56" y="155.56">.</text>
<text x="287.12" y="379.09">*</text>
<text x="74.30" y="343.49">+</text>
<text x="53.01" y="73.32">+</text>
<text x="165.91" y="210.70">+</text>
<text x="166.39" y="170.41">.</text>
<text x="481.58" y="277.30">+</text>
<text x="108.04" y="492.17">+</text>
<text x="490.03" y="249.86">+</text>
<text x="252.16" y="223.78">.</text>
<text x="3.75" y="139.73">.</text>
<text x="49.06" y="132.96">.</text>
<text x="260.21" y="47.56">.</text>
<text x="46.75" y="72.74">+</text>
<text x="250.90" y="437.78">+</text>
<text x="254.79" y="160.18">*</text>
<text x="388.13" y="178.89">+</text>
<text x="30.77" y="221.69">+</text>
<text x="319.74" y="168.08">+</text>
<text x="469.03" y="13.06">.</text>
<text x="186.75" y="357.03">+</text>
<text x="388.00" y="460.24">+</text>
<text x="310.06" y="85.02">+</text>
<text x="411.86" y="153.78">+</text>
<text x="45.26" y="81.14">.</text>
<text x="190.29" y="198.69">+</text>
<text x="356.70" y="467.90">+</text>
<text x="329.74" y="161.50">+</text>
<text x="325.13" y="438.59">+</text>
<text x="343.82" y="489.29">.</text>
<text x="212.87" y="373.62">+</text>
<text x="350.61" y="215.04">.</text>
<text x="212.35" y="423.79">*</text>
<text x="12.00" y="188.08">+</text>
<text x="488.37" y="154.06">.</text>
<text x="285.71" y="191.36">.</text>
<text x="94.63" y="225.63">.</text>
<text x="465.69" y="357.34">.</text>
<text x="386.46" y="303.68">+</text>
<text x="374.86" y="369.80">+</text>
<text x="398.41" y="410.70">+</text>
<text x="298.52" y="28.88">*</text>
<text x="60.27" y="274.71">*</text>
<text x="112.78" y="21.15">+</text>
<text x="306.19" y="137.71">.</text>
<text x="69.65" y="148.34">.</text>
<text x="444.30" y="260.52">.</text>
<text x="126.03" y="272.97">.</text>
<text x="434.61" y="438.41">.</text>
<text x="311.49" y="67.93">.</text>
<text x="336.00" y="109.36">+</text>
<text x="350.42" y="302.57">.</text>
<text x="229.51" y="401.96">+</text>
<text x="432.14" y="353.42">+</text>
<text x="59.60" y="476.11">+</text>
<text x="496.16" y="181.90">.</text>
<text x="133.87" y="293.43">.</text>
<text x="216.71" y="306.09">+</text>
<text x="395.07" y="176.24">+</text>
<text x="273.02" y="144.79">.</text>
<text x="264.51" y="281.23">*</text>
<text x="235.93" y="366.47">+</text>
<text x="337.47" y="474.39">+</text>
<text x="191.06" y="324.28">*</text>
<text x="33.72" y="315.34">+</text>
<text x="246.11" y="437.84">+</text>
<text x="241.36" y="130.35">+</text>
<text x="497.37" y="28.96">.</text>
<text x="192.52" y="58.98">.</text>
<text x="131.80" y="14.48">.</text>
<text x="480.01" y="482.12">.</text>
<text x="319.83" y="147.03">*</text>
<text x="408.36" y="470.95">+</text>
<text x="469.40" y="16.60">.</text>
<text x="396.53" y="481.10">+</text>
<text x="100.20" y="461.16">.</text>
<text x="0.13" y="330.94">+</text>
<text x="270.16" y="467.58">+</text>
<text x="409.49" y="43.65">.</text>
<text x="406.47" y="13.16">+</text>
<text x="469.12" y="399.39">+</text>
<text x="223.21" y="429.50">+</text>
<text x="325.95" y="296.43">.</text>
<text x="438.76" y="140.50">*</text>
<text x="149.85" y="343.00">+</text>
<text x="41.48" y="322.02">+</text>
<text x="435.97" y="428.81">.</text>
<text x="91.87" y="163.77">.</text>
<text x="88.79" y="126.69">.</text>
<text x="124.33" y="82.15">.</text>
<text x="348.82" y="243.65">.</text>
<text x="321.12" y="233.65">.</text>
<text x="98.70" y="369.92">+</text>
<text x="29.52" y="493.66">+</text>
<text x="487.14" y="145.58">*</text>
<text x="445.99" y="253.99">+</text>
<text x="203.88" y="214.18">.</text>
<text x="313.65" y="459.16">.</text>
<text x="483.59" y="357.37">.</text>
<text x="35.95" y="148.09">.</text>
<text x="268.97" y="430.94">.</text>
<text x="55.91" y="138.96">*</text>
<text x="416.03" y="382.98">+</text>
<text x="456.85" y="105.15">+</text>
<text x="68.45" y="102.90">*</text>
<text x="385.01" y="444.22">.</text>
<text x="150.12" y="305.91">*</text>
<text x="253.56" y="407.16">*</text>
<text x="284.27" y="52.32">*</text>
<text x="235.59" y="336.26">+</text>
<text x="2.72" y="455.88">+</text>
<text x="378.17" y="213.53">+</text>
<text x="238.98" y="97.29">+</text>
<text x="403.13" y="4.58">+</text>
<text x="274.84" y="74.04">+</text>
<text x="336.56" y="114.91">.</text>
<text x="64.90" y="151.96">.</text>
<text x="37.93" y="290.01">+</text>
<text x="429.88" y="370.63">.</text>
<text x="276.19" y="312.66">.</text>
<text x="259.71" y="376.03">.</text>
<text x="231.05" y="303.61">.</text>
<text x="462.78" y="424.35">.</text>
<text x="189.18" y="418.93">*</text>
<text x="440.29" y="329.33">+</text>
<text x="491.94" y="230.62">*</text>
<text x="235.58" y="39.58">+</text>
<text x="378.12" y="70.73">+</text>
<text x="102.70" y="496.14">+</text>
<text x="330.44" y="296.66">+</text>
<text x="243.16" y="33.56">+</text>
<text x="180.67" y="286.22">+</text>
<text x="2.48" y="431.42">.</text>
<text x="215.78" y="280.26">.</text>
<text x="50.06" y="313.48">+</text>
<text x="126.32" y="111.18">.</text>
<text x="403.46" y="315.74">.</text>
<text x="34.55" y="310.80">.</text>
<text x="247.27" y="35.62">+</text>
<text x="343.70" y="440.76">.</text>
<text x="234.47" y="367.22">.</text>
<text x="105.40" y="330.44">+</text>
<text x="425.77" y="140.54">.</text>
<text x="146.81" y="33.76">+</text>
<text x="167.86" y="191.49">*</text>
<text x="413.63" y="386.60">.</text>
<text x="302.58" y="325.90">.</text>
<text x="376.00" y="15.28">+</text>
<text x="90.04" y="82.82">+</text>
<text x="15.42" y="192.53">.</text>
<text x="70.67" y="427.17">*</text>
<text x="306.00" y="17.33">+</text>
<text x="123.19" y="283.92">+</text>
<text x="217.95" y="268.20">+</text>
<text x="47.08" y="56.49">+</text>
<text x="139.80" y="95.32">.</text>
<text x="119.88" y="126.00">.</text>
<text x="79.99" y="79.22">*</text>
<text x="133.74" y="10.92">+</text>
<text x="81.25" y="67.62">.</text>
<text x="236.72" y="276.00">.</text>
<text x="493.16" y="448.64">+</text>
<text x="174.02" y="147.82">.</text>
<text x="377.96" y="283.12">+</text>
<text x="345.83" y="390.73">.</text>
<text x="127.60" y="5.54">*</text>
<text x="88.50" y="27.79">+</text>
<text x="300.30" y="159.68">+</text>
<text x="123.31" y="63.07">+</text>
<text x="90.66" y="344.96">+</text>
<text x="171.68" y="417.93">.</text>
<text x="159.08" y="353.21">.</text>
<text x="105.23" y="246.38">.</text>
<text x="358.36" y="400.18">.</text>
<text x="313.97" y="395.95">.</text>
<text x="333.96" y="287.78">.</text>
<text x="293.14" y="230.37">*</text>
<text x="185.07" y="179.71">.</text>
<text x="169.23" y="342.60">+</text>
<text x="301.48" y="23.78">*</text>
<text x="317.64" y="151.28">.</text>
<text x="200.85" y="285.52">.</text>
<text x="17.43" y="252.37">+</text>
<text x="337.27" y="480.27">.</text>
<text x="261.50" y="119.16">.</text>
<text x="276.81" y="187.61">.</text>
<text x="82.85" y="38.32">*</text>
<text x="60.48" y="353.63">.</text>
<text x="40.77" y="5.35">.</text>
<text x="164.49" y="400.73">+</text>
<text x="89.32" y="247.90">*</text>
<text x="15.29" y="494.36">*</text>
<text x="109.21" y="490.56">+</text>
<text x="437.57" y="296.44">.</text>
<text x="304.25" y="287.70">.</text>
<text x="350.08" y="0.39">+</text>
<text x="327.11" y="108.79">.</text>
<text x="141.69" y="420.95">*</text>

</svg>