
<svg viewBox="0 0 500 500" xmlns="http://www.w.org/2000/svg" width="100%" height="100%" style="background-color: #0a0a14; font-family: 'Courier New', Courier, monospace;">
    <style>
        text { fill: #aaa; font-size: 10px; text-anchor: middle; dominant-baseline: middle; }
    </style>
    <text x="189.98" y="207.02">+</text>
<text x="461.40" y="333.35">+</text>
<text x="292.44" y="190.96">.</text>
<text x="291.17" y="100.20">.</text>
<text x="447.82" y="151.84">+</text>
<text x="236.63" y="44.63">*</text>
<text x="284.14" y="126.75">.</text>
<text x="83.68" y="441.21">+</text>
<text x="147.70" y="493.68">.</text>
<text x="214.45" y="96.99">+</text>
<text x="137.10" y="425.58">.</text>
<text x="414.61" y="27.49">+</text>
<text x="56.20" y="470.03">.</text>
<text x="32.77" y="481.65">.</text>
<text x="311.92" y="487.26">.</text>
<text x="298.10" y="113.04">+</text>
<text x="92.76" y="23.18">+</text>
<text x="485.97" y="499.52">*</text>
<text x="337.16" y="362.74">.</text>
<text x="332.77" y="337.15">+</text>
<text x="320.10" y="239.54">.</text>
<text x="252.15" y="246.31">+</text>
<text x="28.41" y="421.24">+</text>
<text x="24.98" y="275.38">+</text>
<text x="445.22" y="224.29">*</text>
<text x="244.33" y="352.06">+</text>
<text x="414.93" y="88.86">+</text>
<text x="220.72" y="186.82">+</text>
<text x="170.92" y="183.18">.</text>
<text x="439.86" y="225.89">.</text>
<text x="401.00" y="477.22">+</text>
<text x="1.89" y="461.59">+</text>
<text x="286.33" y="377.17">+</text>
<text x="51.80" y="12.45">+</text>
<text x="392.63" y="183.65">*</text>
<text x="317.18" y="382.82">+</text>
<text x="156.92" y="353.18">+</text>
<text x="202.05" y="446.19">+</text>
<text x="253.38" y="40.29">+</text>
<text x="97.26" y="76.64">*</text>
<text x="407.04" y="334.49">*</text>
<text x="78.54" y="243.25">+</text>
<text x="9.71" y="351.19">.</text>
<text x="452.21" y="483.89">+</text>
<text x="81.37" y="133.99">.</text>
<text x="379.64" y="368.37">.</text>
<text x="395.99" y="332.48">.</text>
<text x="491.13" y="82.01">.</text>
<text x="92.58" y="488.63">+</text>
<text x="167.95" y="88.61">+</text>
<text x="283.56" y="415.62">.</text>
<text x="50.46" y="213.29">+</text>
<text x="147.24" y="357.47">*</text>
<text x="314.88" y="0.39">.</text>
<text x="199.97" y="126.58">.</text>
<text x="297.62" y="348.31">+</text>
<text x="21.23" y="467.38">+</text>
<text x="418.37" y="34.70">*</text>
<text x="251.61" y="84.43">+</text>
<text x="158.31" y="410.83">+</text>
<text x="429.55" y="229.79">.</text>
<text x="15.33" y="243.73">*</text>
<text x="216.68" y="88.06">+</text>
<text x="263.40" y="44.03">+</text>
<text x="72.65" y="384.59">+</text>
<text x="50.93" y="34.07">.</text>
<text x="263.72" y="176.35">.</text>
<text x="412.64" y="294.54">+</text>
<text x="324.17" y="244.99">*</text>
<text x="153.31" y="213.95">.</text>
<text x="135.69" y="388.81">.</text>
<text x="113.00" y="106.24">.</text>
<text x="460.33" y="88.34">.</text>
<text x="290.29" y="472.69">+</text>
<text x="497.84" y="169.98">+</text>
<text x="469.77" y="418.31">+</text>
<text x="78.98" y="213.37">.</text>
<text x="203.29" y="329.58">.</text>
<text x="393.12" y="403.37">.</text>
<text x="274.54" y="123.27">.</text>
<text x="28.30" y="332.04">.</text>
<text x="206.65" y="92.29">+</text>
<text x="349.40" y="367.59">+</text>
<text x="475.80" y="93.79">+</text>
<text x="281.49" y="105.70">*</text>
<text x="30.63" y="274.51">.</text>
<text x="495.93" y="191.61">*</text>
<text x="392.54" y="24.43">.</text>
<text x="175.79" y="148.45">.</text>
<text x="404.28" y="172.00">+</text>
<text x="135.52" y="437.48">+</text>
<text x="139.52" y="456.99">.</text>
<text x="456.63" y="448.90">*</text>
<text x="175.88" y="63.66">*</text>
<text x="279.37" y="160.10">.</text>
<text x="267.08" y="497.37">.</text>
<text x="81.53" y="15.95">*</text>
<text x="120.59" y="412.31">+</text>
<text x="98.12" y="180.18">+</text>
<text x="492.67" y="119.09">.</text>
<text x="49.51" y="268.26">+</text>
<text x="133.66" y="165.39">+</text>
<text x="52.15" y="143.52">.</text>
<text x="97.87" y="260.96">.</text>
<text x="449.82" y="263.85">+</text>
<text x="366.69" y="244.94">.</text>
<text x="131.41" y="352.86">+</text>
<text x="454.59" y="405.97">.</text>
<text x="397.45" y="344.97">.</text>
<text x="121.19" y="342.86">.</text>
<text x="145.56" y="240.97">*</text>
<text x="118.21" y="162.91">+</text>
<text x="20.85" y="260.88">+</text>
<text x="219.69" y="499.00">.</text>
<text x="90.01" y="155.74">+</text>
<text x="203.11" y="458.09">.</text>
<text x="25.93" y="452.84">+</text>
<text x="271.22" y="146.69">.</text>
<text x="63.68" y="292.55">+</text>
<text x="114.71" y="99.49">+</text>
<text x="419.20" y="268.60">*</text>
<text x="194.95" y="426.20">+</text>
<text x="24.96" y="144.74">+</text>
<text x="458.82" y="483.96">*</text>
<text x="27.41" y="196.57">+</text>
<text x="424.55" y="246.59">*</text>
<text x="167.91" y="304.56">.</text>
<text x="268.70" y="196.27">.</text>
<text x="86.81" y="392.71">+</text>
<text x="31.80" y="54.33">+</text>
<text x="228.61" y="473.85">.</text>
<text x="460.00" y="267.79">+</text>
<text x="14.23" y="9.79">.</text>
<text x="343.17" y="496.80">+</text>
<text x="345.92" y="343.44">+</text>
<text x="379.70" y="131.86">+</text>
<text x="61.91" y="299.48">.</text>
<text x="367.78" y="385.38">+</text>
<text x="300.35" y="193.40">+</text>
<text x="318.62" y="396.59">*</text>
<text x="4.65" y="448.43">+</text>
<text x="154.71" y="150.24">.</text>
<text x="458.04" y="44.33">.</text>
<text x="206.95" y="23.96">+</text>
<text x="211.47" y="478.28">*</text>
<text x="132.26" y="257.74">.</text>
<text x="42.26" y="448.15">.</text>
<text x="221.33" y="285.52">+</text>
<text x="14.30" y="115.77">+</text>
<text x="174.90" y="58.52">+</text>
<text x="66.43" y="256.01">.</text>
<text x="495.94" y="92.64">.</text>
<text x="110.23" y="94.18">.</text>
<text x="395.24" y="373.10">.</text>
<text x="265.63" y="429.86">.</text>
<text x="380.49" y="414.24">*</text>
<text x="352.20" y="61.77">+</text>
<text x="9.14" y="211.17">.</text>
<text x="476.02" y="168.01">.</text>
<text x="314.10" y="154.07">.</text>
<text x="71.23" y="404.21">.</text>
<text x="208.68" y="134.12">.</text>
<text x="121.23" y="218.49">.</text>
<text x="78.75" y="244.00">+</text>
<text x="12.99" y="3.28">*</text>
<text x="242.72" y="276.61">.</text>
<text x="457.81" y="123.51">+</text>
<text x="149.15" y="81.15">+</text>
<text x="119.38" y="173.53">.</text>
<text x="319.93" y="52.46">.</text>
<text x="51.96" y="125.73">*</text>
<text x="203.62" y="105.21">+</text>
<text x="286.38" y="368.77">+</text>
<text x="487.44" y="258.80">.</text>
<text x="37.03" y="17.12">*</text>
<text x="26.96" y="377.75">.</text>
<text x="62.09" y="190.67">.</text>
<text x="450.49" y="398.95">+</text>
<text x="421.06" y="22.47">.</text>
<text x="406.17" y="157.36">.</text>
<text x="108.87" y="197.95">+</text>
<text x="177.94" y="414.53">.</text>
<text x="250.64" y="88.64">.</text>
<text x="329.37" y="170.68">+</text>
<text x="457.43" y="193.12">+</text>
<text x="342.29" y="275.77">+</text>
<text x="113.74" y="43.06">*</text>
<text x="298.24" y="50.05">+</text>
<text x="253.99" y="146.39">.</text>
<text x="312.70" y="484.08">.</text>
<text x="72.29" y="443.22">+</text>
<text x="190.37" y="371.62">+</text>
<text x="473.76" y="142.29">.</text>
<text x="394.23" y="459.81">.</text>
<text x="464.49" y="388.50">.</text>
<text x="302.47" y="371.05">+</text>
<text x="113.18" y="465.58">.</text>
<text x="159.11" y="17.19">+</text>
<text x="432.96" y="91.91">+</text>
<text x="210.64" y="353.24">*</text>
<text x="427.16" y="104.82">+</text>
<text x="426.08" y="365.30">*</text>
<text x="107.02" y="150.49">.</text>
<text x="2.39" y="494.06">+</text>
<text x="233.48" y="438.32">.</text>
<text x="209.41" y="98.46">*</text>
<text x="25.36" y="472.22">+</text>
<text x="33.63" y="471.84">+</text>
<text x="137.95" y="475.35">.</text>
<text x="339.14" y="323.13">.</text>
<text x="131.83" y="27.89">+</text>

</svg>