
<svg viewBox="0 0 500 500" xmlns="http://www.w.org/2000/svg" width="100%" height="100%" style="background-color: #0a0a14; font-family: 'Courier New', Courier, monospace;">
    <style>
        text { fill: #aaa; font-size: 10px; text-anchor: middle; dominant-baseline: middle; }
    </style>
    <text x="217.54" y="315.80">+</text>
<text x="136.51" y="152.92">+</text>
<text x="151.00" y="16.26">+</text>
<text x="315.02" y="151.66">+</text>
<text x="63.90" y="151.52">.</text>
<text x="72.76" y="135.81">.</text>
<text x="84.52" y="314.73">.</text>
<text x="85.50" y="271.05">*</text>
<text x="309.58" y="305.81">*</text>
<text x="210.89" y="202.08">.</text>
<text x="434.45" y="24.44">*</text>
<text x="497.72" y="121.26">+</text>
<text x="463.78" y="31.09">.</text>
<text x="23.38" y="149.16">*</text>
<text x="143.91" y="471.33">*</text>
<text x="429.43" y="422.77">+</text>
<text x="77.95" y="91.20">+</text>
<text x="184.67" y="178.50">+</text>
<text x="264.73" y="490.43">*</text>
<text x="309.10" y="323.29">+</text>
<text x="307.20" y="146.96">*</text>
<text x="336.54" y="181.94">*</text>
<text x="266.00" y="22.87">*</text>
<text x="491.35" y="279.04">*</text>
<text x="30.40" y="285.18">.</text>
<text x="465.87" y="52.82">+</text>
<text x="270.13" y="84.60">*</text>
<text x="256.79" y="447.56">.</text>
<text x="370.80" y="307.24">*</text>
<text x="109.92" y="132.80">+</text>
<text x="27.09" y="26.67">*</text>
<text x="319.13" y="365.64">+</text>
<text x="460.60" y="194.01">+</text>
<text x="449.64" y="186.87">+</text>
<text x="284.31" y="22.21">.</text>
<text x="197.73" y="305.89">.</text>
<text x="133.54" y="320.30">.</text>
<text x="320.48" y="199.47">+</text>
<text x="469.31" y="179.88">*</text>
<text x="237.19" y="0.68">+</text>
<text x="200.52" y="84.86">+</text>
<text x="378.35" y="235.19">+</text>
<text x="378.84" y="361.51">.</text>
<text x="456.63" y="134.97">+</text>
<text x="35.58" y="348.90">+</text>
<text x="359.11" y="118.44">*</text>
<text x="201.31" y="43.82">.</text>
<text x="229.16" y="297.71">*</text>
<text x="287.10" y="201.05">.</text>
<text x="211.22" y="124.88">*</text>
<text x="300.17" y="293.49">*</text>
<text x="159.70" y="355.15">*</text>
<text x="183.04" y="15.45">*</text>
<text x="328.25" y="356.16">.</text>
<text x="494.69" y="359.59">+</text>
<text x="264.28" y="473.27">+</text>
<text x="78.98" y="337.75">+</text>
<text x="436.33" y="442.92">.</text>
<text x="255.08" y="404.74">+</text>
<text x="332.37" y="197.34">.</text>
<text x="323.11" y="156.82">.</text>
<text x="202.95" y="434.87">.</text>
<text x="119.93" y="63.24">.</text>
<text x="357.19" y="134.93">+</text>
<text x="197.35" y="389.08">+</text>
<text x="152.79" y="495.09">.</text>
<text x="275.64" y="497.10">.</text>
<text x="327.80" y="476.77">*</text>
<text x="489.27" y="9.45">.</text>
<text x="496.74" y="54.39">.</text>
<text x="209.38" y="391.75">*</text>
<text x="486.28" y="130.08">+</text>
<text x="139.59" y="435.56">.</text>
<text x="321.67" y="385.18">+</text>
<text x="77.18" y="306.17">+</text>
<text x="222.62" y="74.35">+</text>
<text x="447.04" y="253.35">.</text>
<text x="408.48" y="123.63">+</text>
<text x="420.14" y="395.71">.</text>
<text x="66.80" y="137.87">.</text>
<text x="451.67" y="222.59">.</text>
<text x="268.87" y="322.90">.</text>
<text x="16.47" y="214.26">.</text>
<text x="55.80" y="469.56">+</text>
<text x="133.92" y="290.20">*</text>
<text x="161.63" y="76.67">.</text>
<text x="332.37" y="210.92">+</text>
<text x="252.29" y="419.56">*</text>
<text x="274.42" y="463.98">+</text>
<text x="422.74" y="348.21">+</text>
<text x="39.29" y="47.35">.</text>
<text x="454.40" y="409.69">+</text>
<text x="181.46" y="441.28">.</text>
<text x="420.20" y="160.27">.</text>
<text x="30.24" y="453.85">.</text>
<text x="453.32" y="271.08">*</text>
<text x="212.49" y="391.38">.</text>
<text x="74.46" y="220.87">*</text>
<text x="443.42" y="161.47">.</text>
<text x="425.34" y="175.29">.</text>
<text x="256.41" y="433.96">.</text>
<text x="216.14" y="129.56">+</text>
<text x="161.94" y="451.04">+</text>
<text x="472.82" y="362.08">+</text>
<text x="317.56" y="483.67">.</text>
<text x="164.13" y="260.41">.</text>
<text x="453.87" y="212.27">.</text>
<text x="43.84" y="76.57">*</text>
<text x="121.10" y="218.02">+</text>
<text x="26.04" y="69.49">.</text>
<text x="32.92" y="251.75">*</text>
<text x="201.09" y="23.87">.</text>
<text x="5.59" y="492.52">+</text>
<text x="153.87" y="158.45">*</text>
<text x="121.34" y="309.31">.</text>
<text x="356.85" y="370.58">.</text>
<text x="251.24" y="483.92">.</text>
<text x="488.07" y="167.75">+</text>
<text x="366.36" y="496.34">*</text>
<text x="247.09" y="284.28">+</text>
<text x="203.72" y="226.55">+</text>
<text x="130.70" y="457.57">+</text>
<text x="364.81" y="498.04">.</text>
<text x="303.71" y="254.39">+</text>
<text x="229.58" y="34.96">.</text>
<text x="313.71" y="337.57">+</text>
<text x="356.66" y="156.83">+</text>
<text x="91.77" y="70.17">+</text>
<text x="106.63" y="258.82">*</text>
<text x="354.17" y="108.03">+</text>
<text x="141.92" y="290.75">.</text>
<text x="366.27" y="409.51">+</text>
<text x="36.61" y="433.59">+</text>
<text x="190.52" y="49.87">.</text>
<text x="391.03" y="433.58">.</text>
<text x="498.47" y="296.40">.</text>
<text x="9.47" y="497.32">+</text>
<text x="151.09" y="424.32">*</text>
<text x="446.52" y="446.08">+</text>
<text x="413.00" y="460.08">*</text>
<text x="138.22" y="251.22">+</text>
<text x="339.98" y="353.04">+</text>
<text x="201.23" y="50.14">+</text>
<text x="398.71" y="347.15">+</text>
<text x="80.25" y="163.16">*</text>
<text x="362.69" y="188.67">*</text>
<text x="333.32" y="142.43">.</text>
<text x="62.58" y="306.02">*</text>
<text x="79.82" y="92.48">+</text>
<text x="298.95" y="414.55">.</text>
<text x="203.58" y="144.95">*</text>
<text x="115.76" y="99.60">+</text>
<text x="305.06" y="43.63">.</text>
<text x="275.96" y="352.30">+</text>
<text x="127.17" y="429.70">+</text>
<text x="8.60" y="245.25">.</text>
<text x="399.36" y="286.60">.</text>
<text x="95.53" y="108.56">.</text>
<text x="34.92" y="397.75">+</text>
<text x="159.07" y="319.69">+</text>
<text x="287.94" y="158.44">.</text>
<text x="139.40" y="414.11">+</text>
<text x="42.96" y="402.95">*</text>
<text x="164.42" y="15.33">.</text>
<text x="383.68" y="301.00">*</text>
<text x="168.28" y="137.58">+</text>
<text x="246.83" y="47.16">.</text>
<text x="489.34" y="182.07">.</text>
<text x="145.14" y="267.95">.</text>
<text x="378.48" y="89.18">.</text>
<text x="441.08" y="140.25">.</text>
<text x="337.14" y="70.10">+</text>
<text x="442.98" y="174.24">.</text>
<text x="496.78" y="436.11">*</text>
<text x="402.81" y="98.07">+</text>
<text x="294.16" y="177.58">.</text>
<text x="296.85" y="1.38">.</text>
<text x="215.72" y="383.19">*</text>
<text x="247.22" y="44.18">*</text>
<text x="305.18" y="264.46">+</text>
<text x="165.12" y="126.93">+</text>
<text x="492.02" y="208.95">+</text>
<text x="374.90" y="310.18">+</text>
<text x="328.30" y="402.08">.</text>
<text x="172.82" y="64.14">.</text>
<text x="473.29" y="363.42">*</text>
<text x="289.61" y="281.08">+</text>
<text x="23.75" y="250.80">*</text>
<text x="74.70" y="157.47">+</text>
<text x="357.97" y="299.50">.</text>
<text x="245.33" y="473.89">+</text>
<text x="136.52" y="54.21">.</text>
<text x="6.21" y="62.03">.</text>
<text x="130.89" y="284.39">+</text>
<text x="101.52" y="134.35">+</text>
<text x="100.51" y="262.59">.</text>
<text x="24.10" y="340.29">.</text>
<text x="141.40" y="270.01">+</text>
<text x="296.03" y="82.79">+</text>
<text x="20.61" y="463.01">.</text>
<text x="105.28" y="319.65">.</text>

</svg>