
<svg viewBox="0 0 500 500" xmlns="http://www.w.org/2000/svg" width="100%" height="100%" style="background-color: #0a0a14; font-family: 'Courier New', Courier, monospace;">
    <style>
        text { fill: #aaa; font-size: 10px; text-anchor: middle; dominant-baseline: middle; }
    </style>
    <text x="325.93" y="48.59">.</text>
<text x="130.20" y="206.76">.</text>
<text x="74.44" y="459.59">+</text>
<text x="216.44" y="118.07">.</text>
<text x="0.97" y="168.00">.</text>
<text x="487.34" y="260.57">+</text>
<text x="100.06" y="149.67">+</text>
<text x="402.65" y="428.65">.</text>
<text x="262.59" y="170.35">+</text>
<text x="269.90" y="301.72">+</text>
<text x="212.11" y="282.11">+</text>
<text x="283.78" y="152.49">.</text>
<text x="64.67" y="251.49">.</text>
<text x="322.95" y="210.19">.</text>
<text x="211.57" y="32.83">+</text>
<text x="403.16" y="489.62">+</text>
<text x="425.25" y="159.54">.</text>
<text x="495.42" y="88.96">+</text>
<text x="219.40" y="209.88">+</text>
<text x="141.35" y="81.83">.</text>
<text x="224.40" y="463.18">+</text>
<text x="95.44" y="239.42">.</text>
<text x="452.24" y="493.79">+</text>
<text x="474.62" y="20.97">*</text>
<text x="100.12" y="71.99">+</text>
<text x="278.71" y="6.22">*</text>
<text x="119.64" y="135.42">.</text>
<text x="439.05" y="237.39">*</text>
<text x="66.71" y="99.01">.</text>
<text x="222.84" y="20.98">.</text>
<text x="127.63" y="41.87">+</text>
<text x="229.54" y="421.46">+</text>
<text x="116.79" y="70.67">+</text>
<text x="151.73" y="270.47">.</text>
<text x="494.65" y="106.04">+</text>
<text x="417.77" y="16.75">+</text>
<text x="224.91" y="104.88">+</text>
<text x="299.18" y="301.64">*</text>
<text x="65.23" y="188.67">+</text>
<text x="113.67" y="220.31">*</text>
<text x="288.66" y="452.67">+</text>
<text x="162.01" y="116.95">+</text>
<text x="252.75" y="348.11">.</text>
<text x="385.24" y="431.13">.</text>
<text x="95.60" y="387.31">+</text>
<text x="437.15" y="464.26">+</text>
<text x="467.99" y="470.94">.</text>
<text x="426.22" y="165.19">*</text>
<text x="466.20" y="70.25">.</text>
<text x="228.50" y="172.74">+</text>
<text x="488.90" y="307.78">.</text>
<text x="138.32" y="160.74">+</text>
<text x="475.86" y="18.29">+</text>
<text x="49.38" y="286.02">+</text>
<text x="347.74" y="20.27">.</text>
<text x="269.06" y="341.79">+</text>
<text x="156.07" y="75.08">.</text>
<text x="380.73" y="49.35">.</text>
<text x="87.51" y="375.15">+</text>
<text x="114.51" y="100.42">.</text>
<text x="444.13" y="184.34">.</text>
<text x="43.25" y="381.41">+</text>
<text x="141.63" y="378.56">.</text>
<text x="193.91" y="458.10">.</text>
<text x="490.10" y="454.26">.</text>
<text x="397.67" y="6.02">+</text>
<text x="214.80" y="69.87">+</text>
<text x="322.94" y="125.08">.</text>
<text x="381.13" y="284.75">+</text>
<text x="250.41" y="446.20">+</text>
<text x="451.76" y="383.59">.</text>
<text x="160.38" y="335.96">.</text>
<text x="379.91" y="393.51">*</text>
<text x="101.02" y="213.14">.</text>
<text x="211.99" y="163.89">.</text>
<text x="430.32" y="372.20">*</text>
<text x="386.10" y="338.77">+</text>
<text x="210.24" y="492.39">+</text>
<text x="243.63" y="288.98">.</text>
<text x="308.61" y="378.56">+</text>
<text x="325.21" y="188.65">*</text>
<text x="44.99" y="40.35">*</text>
<text x="203.40" y="150.67">+</text>
<text x="134.19" y="150.34">+</text>
<text x="390.52" y="226.12">+</text>
<text x="483.27" y="321.63">+</text>
<text x="10.61" y="422.00">+</text>
<text x="212.83" y="72.53">+</text>
<text x="311.80" y="133.13">.</text>
<text x="337.26" y="42.27">.</text>
<text x="1.86" y="66.39">+</text>
<text x="134.67" y="246.12">*</text>
<text x="461.87" y="300.04">+</text>
<text x="385.00" y="418.40">.</text>
<text x="246.62" y="100.31">.</text>
<text x="340.66" y="117.53">+</text>
<text x="397.38" y="205.39">+</text>
<text x="85.28" y="241.18">.</text>
<text x="134.17" y="30.57">+</text>
<text x="124.37" y="321.57">.</text>
<text x="432.03" y="187.05">*</text>
<text x="192.97" y="100.31">.</text>
<text x="115.60" y="430.52">+</text>
<text x="339.48" y="154.99">+</text>
<text x="133.18" y="142.34">.</text>
<text x="13.86" y="90.35">+</text>
<text x="184.90" y="30.04">.</text>
<text x="293.19" y="25.90">+</text>
<text x="53.62" y="217.66">.</text>
<text x="16.99" y="328.90">.</text>
<text x="200.43" y="26.64">*</text>
<text x="389.46" y="490.80">.</text>
<text x="486.13" y="137.69">.</text>
<text x="353.78" y="491.50">+</text>
<text x="455.90" y="151.37">+</text>
<text x="360.36" y="471.85">+</text>
<text x="213.96" y="412.89">.</text>
<text x="424.05" y="358.17">+</text>
<text x="419.32" y="109.86">.</text>
<text x="88.93" y="406.29">*</text>
<text x="471.10" y="130.49">+</text>
<text x="494.69" y="424.12">.</text>
<text x="397.22" y="339.84">*</text>
<text x="383.99" y="116.60">.</text>
<text x="264.36" y="440.01">.</text>
<text x="393.79" y="124.31">+</text>
<text x="171.64" y="382.57">.</text>
<text x="62.68" y="216.70">.</text>
<text x="117.90" y="213.28">*</text>
<text x="230.56" y="382.01">+</text>
<text x="422.12" y="93.52">.</text>
<text x="72.53" y="290.01">.</text>
<text x="46.65" y="257.04">+</text>
<text x="84.76" y="449.82">+</text>
<text x="79.42" y="244.51">+</text>
<text x="461.92" y="179.26">*</text>
<text x="219.48" y="19.42">.</text>
<text x="477.56" y="220.46">+</text>
<text x="170.99" y="396.75">+</text>
<text x="247.21" y="128.90">.</text>
<text x="441.29" y="332.51">+</text>
<text x="201.60" y="287.95">.</text>
<text x="337.80" y="460.28">.</text>
<text x="410.45" y="26.53">+</text>
<text x="367.58" y="207.94">+</text>
<text x="38.66" y="209.51">+</text>
<text x="294.98" y="275.73">+</text>
<text x="315.51" y="442.06">.</text>
<text x="225.51" y="107.53">+</text>
<text x="255.52" y="259.87">+</text>
<text x="252.45" y="431.17">.</text>
<text x="170.46" y="334.82">*</text>
<text x="402.72" y="476.65">+</text>
<text x="242.75" y="467.90">+</text>
<text x="377.44" y="275.30">+</text>
<text x="285.62" y="369.64">+</text>
<text x="105.42" y="304.03">.</text>
<text x="467.36" y="81.51">.</text>
<text x="384.75" y="183.99">+</text>
<text x="175.29" y="465.55">*</text>
<text x="325.33" y="288.38">.</text>
<text x="229.20" y="105.29">+</text>
<text x="198.04" y="390.15">.</text>
<text x="212.07" y="498.86">+</text>
<text x="200.22" y="238.39">.</text>
<text x="248.29" y="120.72">+</text>
<text x="191.97" y="173.95">.</text>
<text x="438.72" y="307.37">+</text>
<text x="144.59" y="32.29">+</text>
<text x="300.36" y="389.24">.</text>
<text x="447.82" y="369.33">.</text>
<text x="415.08" y="491.99">.</text>
<text x="182.22" y="486.52">+</text>
<text x="193.29" y="205.95">.</text>
<text x="5.26" y="110.80">+</text>
<text x="34.33" y="34.69">.</text>
<text x="249.99" y="376.12">*</text>
<text x="358.86" y="258.91">.</text>
<text x="377.27" y="171.77">.</text>
<text x="365.81" y="461.16">*</text>
<text x="198.99" y="90.48">+</text>
<text x="199.96" y="291.72">*</text>
<text x="188.97" y="431.19">+</text>
<text x="56.86" y="388.61">*</text>
<text x="324.12" y="177.84">+</text>
<text x="444.42" y="310.05">.</text>
<text x="8.55" y="10.07">+</text>
<text x="401.57" y="308.19">+</text>
<text x="258.05" y="475.88">+</text>
<text x="402.10" y="386.47">.</text>
<text x="353.73" y="385.91">.</text>
<text x="330.49" y="432.19">.</text>
<text x="352.79" y="222.01">.</text>
<text x="380.05" y="295.37">.</text>
<text x="364.87" y="416.90">+</text>
<text x="25.13" y="449.88">+</text>
<text x="486.39" y="476.53">.</text>
<text x="66.11" y="345.03">.</text>
<text x="66.37" y="336.90">*</text>
<text x="128.11" y="63.03">+</text>
<text x="75.25" y="36.07">*</text>

</svg>