
<svg viewBox="0 0 500 500" xmlns="http://www.w.org/2000/svg" width="100%" height="100%" style="background-color: #0a0a14; font-family: 'Courier New', Courier, monospace;">
    <style>
        text { fill: #aaa; font-size: 10px; text-anchor: middle; dominant-baseline: middle; }
    </style>
    <text x="317.89" y="73.89">.</text>
<text x="454.09" y="56.63">.</text>
<text x="468.00" y="247.46">+</text>
<text x="125.69" y="488.81">.</text>
<text x="317.01" y="121.96">.</text>
<text x="85.26" y="349.08">.</text>
<text x="304.14" y="169.97">+</text>
<text x="490.84" y="155.13">+</text>
<text x="68.01" y="101.45">+</text>
<text x="181.38" y="162.64">+</text>
<text x="336.40" y="114.75">.</text>
<text x="5.47" y="263.54">.</text>
<text x="327.93" y="10.42">.</text>
<text x="201.75" y="31.05">.</text>
<text x="136.30" y="15.74">.</text>
<text x="156.48" y="417.02">+</text>
<text x="93.22" y="155.06">*</text>
<text x="40.51" y="163.09">+</text>
<text x="119.99" y="134.52">+</text>
<text x="373.29" y="492.52">+</text>
<text x="162.51" y="467.19">*</text>
<text x="391.62" y="469.65">.</text>
<text x="120.78" y="428.38">+</text>
<text x="172.23" y="184.24">+</text>
<text x="93.00" y="300.52">.</text>
<text x="374.78" y="320.74">.</text>
<text x="213.73" y="185.16">+</text>
<text x="35.05" y="127.43">+</text>
<text x="258.90" y="453.57">.</text>
<text x="491.91" y="350.04">.</text>
<text x="165.75" y="493.86">.</text>
<text x="64.27" y="127.72">.</text>
<text x="351.32" y="318.29">+</text>
<text x="276.76" y="177.09">.</text>
<text x="451.52" y="21.73">.</text>
<text x="92.65" y="20.45">.</text>
<text x="262.90" y="259.80">.</text>
<text x="282.90" y="147.24">+</text>
<text x="128.48" y="292.88">.</text>
<text x="25.50" y="431.86">*</text>
<text x="197.68" y="469.42">+</text>
<text x="390.77" y="371.05">+</text>
<text x="96.26" y="410.42">.</text>
<text x="285.92" y="146.17">.</text>
<text x="184.94" y="248.38">*</text>
<text x="132.29" y="173.00">.</text>
<text x="192.33" y="303.33">+</text>
<text x="400.08" y="340.94">.</text>
<text x="416.16" y="426.34">+</text>
<text x="262.64" y="499.29">.</text>
<text x="302.88" y="245.14">.</text>
<text x="324.75" y="170.58">.</text>
<text x="147.87" y="329.84">.</text>
<text x="349.92" y="70.09">.</text>
<text x="463.04" y="196.14">+</text>
<text x="357.69" y="139.93">*</text>
<text x="114.24" y="341.64">.</text>
<text x="347.01" y="122.60">+</text>
<text x="466.54" y="313.23">.</text>
<text x="438.08" y="227.15">+</text>
<text x="15.17" y="149.70">+</text>
<text x="346.51" y="181.44">*</text>
<text x="280.91" y="179.22">.</text>
<text x="181.39" y="212.59">.</text>
<text x="389.74" y="132.72">+</text>
<text x="390.94" y="62.79">.</text>
<text x="41.97" y="479.24">.</text>
<text x="170.40" y="14.72">.</text>
<text x="309.91" y="164.23">+</text>
<text x="423.77" y="354.21">.</text>
<text x="12.50" y="73.63">+</text>
<text x="154.86" y="406.65">+</text>
<text x="154.06" y="354.81">.</text>
<text x="317.41" y="18.33">*</text>
<text x="395.39" y="325.48">+</text>
<text x="119.17" y="96.27">.</text>
<text x="477.90" y="222.57">.</text>
<text x="85.82" y="290.10">.</text>
<text x="203.97" y="191.11">+</text>
<text x="411.59" y="158.00">.</text>
<text x="314.54" y="464.71">*</text>
<text x="9.04" y="180.47">+</text>
<text x="58.37" y="290.43">+</text>
<text x="153.67" y="126.81">+</text>
<text x="173.98" y="148.83">.</text>
<text x="185.28" y="86.98">*</text>
<text x="184.57" y="468.19">+</text>
<text x="39.38" y="139.42">+</text>
<text x="358.21" y="150.36">.</text>
<text x="454.04" y="262.36">.</text>
<text x="416.67" y="189.71">.</text>
<text x="387.18" y="263.06">.</text>
<text x="132.49" y="302.72">.</text>
<text x="68.05" y="157.99">*</text>
<text x="167.71" y="200.38">.</text>
<text x="188.18" y="121.20">.</text>
<text x="83.26" y="353.04">.</text>
<text x="217.35" y="155.51">+</text>
<text x="58.64" y="155.11">*</text>
<text x="177.32" y="355.68">.</text>
<text x="119.62" y="156.48">*</text>
<text x="243.91" y="445.35">+</text>
<text x="220.33" y="393.16">+</text>
<text x="332.23" y="408.20">.</text>
<text x="486.00" y="395.41">+</text>
<text x="63.63" y="329.38">.</text>
<text x="57.33" y="246.12">*</text>
<text x="253.58" y="451.82">.</text>
<text x="442.77" y="386.90">.</text>
<text x="282.50" y="303.17">+</text>
<text x="461.35" y="51.82">.</text>
<text x="95.91" y="302.12">.</text>
<text x="309.45" y="19.28">+</text>
<text x="113.22" y="427.28">.</text>
<text x="124.89" y="364.91">.</text>
<text x="201.34" y="203.16">+</text>
<text x="80.90" y="183.85">.</text>
<text x="196.33" y="412.12">+</text>
<text x="343.68" y="454.35">+</text>
<text x="117.55" y="338.80">+</text>
<text x="204.72" y="250.01">+</text>
<text x="464.44" y="198.32">.</text>
<text x="480.75" y="349.44">*</text>
<text x="117.85" y="344.87">+</text>
<text x="8.24" y="331.60">+</text>
<text x="251.50" y="422.76">*</text>
<text x="131.34" y="467.37">.</text>
<text x="312.16" y="9.15">.</text>
<text x="199.33" y="227.23">+</text>
<text x="26.41" y="132.26">*</text>
<text x="308.44" y="319.82">+</text>
<text x="216.34" y="421.59">.</text>
<text x="413.03" y="129.93">.</text>
<text x="97.61" y="22.96">.</text>
<text x="411.69" y="401.69">+</text>
<text x="338.04" y="11.93">+</text>
<text x="352.76" y="297.37">+</text>
<text x="281.07" y="159.93">+</text>
<text x="496.90" y="219.98">+</text>
<text x="323.88" y="434.10">+</text>
<text x="465.89" y="330.33">.</text>
<text x="150.09" y="82.43">+</text>
<text x="498.30" y="61.67">+</text>
<text x="180.11" y="464.96">+</text>
<text x="272.14" y="97.28">.</text>
<text x="468.09" y="255.57">.</text>
<text x="354.01" y="213.93">.</text>
<text x="333.24" y="105.54">*</text>
<text x="463.32" y="298.44">.</text>
<text x="445.55" y="299.03">.</text>
<text x="21.84" y="277.55">.</text>
<text x="309.79" y="196.52">*</text>
<text x="250.94" y="339.02">+</text>
<text x="451.00" y="203.60">+</text>
<text x="158.40" y="339.76">.</text>
<text x="392.01" y="467.91">.</text>
<text x="162.45" y="275.09">*</text>
<text x="258.87" y="160.75">+</text>
<text x="280.24" y="3.08">+</text>
<text x="62.84" y="332.24">.</text>
<text x="26.16" y="490.32">.</text>
<text x="298.72" y="447.43">.</text>
<text x="481.14" y="386.26">.</text>
<text x="380.61" y="285.38">+</text>
<text x="409.19" y="5.96">+</text>
<text x="459.09" y="167.98">.</text>
<text x="141.76" y="29.03">*</text>
<text x="457.84" y="369.65">+</text>
<text x="371.02" y="100.74">.</text>
<text x="314.27" y="490.32">.</text>
<text x="341.60" y="238.51">.</text>
<text x="397.56" y="308.63">+</text>
<text x="46.18" y="252.38">*</text>
<text x="332.68" y="126.19">.</text>
<text x="77.65" y="2.89">*</text>
<text x="316.46" y="474.55">+</text>
<text x="268.57" y="102.73">*</text>
<text x="422.99" y="347.46">+</text>
<text x="201.07" y="289.35">*</text>
<text x="447.41" y="281.14">+</text>
<text x="332.78" y="408.74">.</text>
<text x="72.35" y="194.29">+</text>
<text x="349.92" y="157.03">+</text>
<text x="357.35" y="39.57">+</text>
<text x="26.91" y="201.89">.</text>
<text x="354.50" y="239.35">+</text>
<text x="358.83" y="435.41">*</text>
<text x="470.99" y="304.89">*</text>
<text x="327.17" y="384.19">+</text>
<text x="359.93" y="409.79">*</text>
<text x="295.35" y="153.44">+</text>
<text x="378.86" y="173.59">+</text>
<text x="219.93" y="232.79">+</text>
<text x="140.83" y="84.46">.</text>
<text x="161.33" y="211.79">+</text>
<text x="354.95" y="462.11">.</text>
<text x="246.04" y="86.17">+</text>
<text x="239.23" y="193.66">*</text>
<text x="106.05" y="243.13">.</text>
<text x="289.05" y="443.00">+</text>
<text x="240.52" y="322.51">+</text>
<text x="286.75" y="442.86">.</text>
<text x="407.06" y="360.03">+</text>
<text x="486.66" y="38.39">.</text>
<text x="340.76" y="2.83">+</text>
<text x="262.70" y="479.40">*</text>
<text x="291.25" y="53.76">+</text>
<text x="497.87" y="434.67">.</text>
<text x="343.86" y="499.01">.</text>
<text x="384.11" y="292.20">+</text>

</svg>