
<svg viewBox="0 0 500 500" xmlns="http://www.w.org/2000/svg" width="100%" height="100%" style="background-color: #0a0a14; font-family: 'Courier New', Courier, monospace;">
    <style>
        text { fill: #aaa; font-size: 10px; text-anchor: middle; dominant-baseline: middle; }
    </style>
    <text x="109.18" y="219.94">*</text>
<text x="47.60" y="48.99">+</text>
<text x="161.91" y="191.71">*</text>
<text x="355.96" y="65.53">+</text>
<text x="316.23" y="273.70">.</text>
<text x="177.85" y="207.85">+</text>
<text x="493.80" y="314.98">.</text>
<text x="497.76" y="384.94">*</text>
<text x="184.09" y="471.25">+</text>
<text x="479.35" y="434.52">*</text>
<text x="315.44" y="401.08">.</text>
<text x="475.01" y="101.85">+</text>
<text x="253.15" y="355.50">.</text>
<text x="471.49" y="264.00">.</text>
<text x="167.95" y="73.72">.</text>
<text x="83.08" y="151.76">.</text>
<text x="107.30" y="116.30">+</text>
<text x="275.25" y="496.45">.</text>
<text x="220.11" y="479.79">+</text>
<text x="136.06" y="296.79">.</text>
<text x="155.88" y="406.99">.</text>
<text x="229.83" y="95.52">.</text>
<text x="312.90" y="30.92">*</text>
<text x="84.00" y="290.51">+</text>
<text x="477.99" y="242.94">*</text>
<text x="29.80" y="140.54">.</text>
<text x="294.34" y="175.44">+</text>
<text x="58.84" y="293.15">+</text>
<text x="158.34" y="406.11">+</text>
<text x="328.28" y="167.72">*</text>
<text x="69.75" y="427.60">+</text>
<text x="334.57" y="166.42">.</text>
<text x="184.51" y="138.16">.</text>
<text x="252.94" y="14.55">.</text>
<text x="76.74" y="315.21">.</text>
<text x="42.91" y="105.67">+</text>
<text x="397.27" y="38.90">.</text>
<text x="240.38" y="277.01">.</text>
<text x="44.31" y="166.15">.</text>
<text x="113.04" y="255.56">+</text>
<text x="209.14" y="173.44">+</text>
<text x="498.33" y="116.20">+</text>
<text x="9.48" y="351.52">.</text>
<text x="34.88" y="487.26">.</text>
<text x="409.08" y="415.77">+</text>
<text x="419.79" y="411.57">.</text>
<text x="245.50" y="311.54">+</text>
<text x="435.31" y="149.45">+</text>
<text x="348.58" y="430.51">*</text>
<text x="423.08" y="212.11">.</text>
<text x="259.28" y="86.87">+</text>
<text x="254.26" y="281.88">+</text>
<text x="234.28" y="15.49">+</text>
<text x="479.16" y="136.52">*</text>
<text x="47.47" y="67.64">+</text>
<text x="167.13" y="154.20">.</text>
<text x="435.70" y="366.25">.</text>
<text x="26.75" y="356.98">.</text>
<text x="425.41" y="316.20">.</text>
<text x="384.03" y="21.57">+</text>
<text x="261.29" y="53.81">+</text>
<text x="6.52" y="384.01">+</text>
<text x="366.93" y="19.45">.</text>
<text x="40.75" y="442.61">+</text>
<text x="265.43" y="311.64">+</text>
<text x="395.48" y="459.66">.</text>
<text x="211.08" y="337.04">.</text>
<text x="235.50" y="91.39">+</text>
<text x="77.16" y="316.75">.</text>
<text x="207.42" y="15.19">+</text>
<text x="202.31" y="377.56">+</text>
<text x="95.78" y="445.37">+</text>
<text x="19.49" y="335.72">+</text>
<text x="138.01" y="190.22">.</text>
<text x="45.15" y="485.32">.</text>
<text x="416.03" y="223.23">*</text>
<text x="159.01" y="28.31">+</text>
<text x="205.46" y="291.08">+</text>
<text x="103.86" y="53.55">+</text>
<text x="432.47" y="430.36">+</text>
<text x="485.45" y="143.93">+</text>
<text x="115.35" y="91.84">*</text>
<text x="179.50" y="413.47">*</text>
<text x="161.52" y="375.18">*</text>
<text x="188.23" y="374.41">+</text>
<text x="118.21" y="414.31">.</text>
<text x="274.23" y="0.22">.</text>
<text x="246.02" y="111.26">.</text>
<text x="213.33" y="397.84">+</text>
<text x="470.82" y="163.85">+</text>
<text x="410.10" y="322.89">+</text>
<text x="280.41" y="352.24">.</text>
<text x="273.84" y="330.28">.</text>
<text x="103.77" y="325.32">+</text>
<text x="136.10" y="41.04">+</text>
<text x="56.07" y="27.88">*</text>
<text x="69.88" y="46.41">.</text>
<text x="348.32" y="124.27">+</text>
<text x="344.96" y="98.85">.</text>
<text x="295.14" y="42.56">+</text>
<text x="119.84" y="90.41">+</text>
<text x="227.37" y="69.86">.</text>
<text x="337.49" y="46.82">+</text>
<text x="378.74" y="139.34">+</text>
<text x="33.45" y="461.16">+</text>
<text x="182.33" y="218.48">+</text>
<text x="317.21" y="408.97">+</text>
<text x="445.68" y="9.79">+</text>
<text x="335.74" y="138.19">+</text>
<text x="59.80" y="347.52">.</text>
<text x="286.41" y="120.37">+</text>
<text x="86.87" y="468.85">+</text>
<text x="228.26" y="387.15">*</text>
<text x="458.77" y="78.82">.</text>
<text x="288.29" y="372.22">+</text>
<text x="105.63" y="369.75">+</text>
<text x="45.49" y="151.32">+</text>
<text x="116.82" y="48.78">*</text>
<text x="410.43" y="244.49">.</text>
<text x="291.90" y="62.52">+</text>
<text x="441.75" y="248.40">.</text>
<text x="180.89" y="362.99">+</text>
<text x="290.98" y="67.97">+</text>
<text x="219.99" y="116.45">+</text>
<text x="48.90" y="0.25">.</text>
<text x="153.23" y="140.54">+</text>
<text x="17.93" y="121.92">+</text>
<text x="492.62" y="476.63">*</text>
<text x="36.85" y="497.79">.</text>
<text x="484.57" y="100.97">+</text>
<text x="360.55" y="497.67">+</text>
<text x="448.13" y="422.36">+</text>
<text x="298.27" y="284.74">.</text>
<text x="25.73" y="373.24">+</text>
<text x="368.33" y="189.71">+</text>
<text x="366.75" y="35.88">.</text>
<text x="133.89" y="372.34">.</text>
<text x="12.72" y="147.41">+</text>
<text x="21.58" y="200.73">+</text>
<text x="484.51" y="291.41">.</text>
<text x="67.22" y="118.27">.</text>
<text x="206.03" y="120.69">*</text>
<text x="344.49" y="348.07">.</text>
<text x="370.73" y="90.49">+</text>
<text x="409.69" y="12.37">.</text>
<text x="181.77" y="222.20">.</text>
<text x="448.88" y="352.47">.</text>
<text x="402.36" y="367.43">.</text>
<text x="478.46" y="40.31">*</text>
<text x="336.00" y="167.44">+</text>
<text x="443.68" y="465.76">+</text>
<text x="394.12" y="402.15">+</text>
<text x="214.38" y="177.66">+</text>
<text x="463.91" y="287.26">.</text>
<text x="405.35" y="21.47">+</text>
<text x="292.28" y="17.28">.</text>
<text x="6.18" y="0.08">*</text>
<text x="93.75" y="412.26">.</text>
<text x="44.25" y="458.39">.</text>
<text x="482.54" y="262.56">+</text>
<text x="266.06" y="302.75">+</text>
<text x="16.23" y="97.11">*</text>
<text x="454.81" y="252.11">.</text>
<text x="417.61" y="482.58">*</text>
<text x="400.73" y="116.03">.</text>
<text x="129.64" y="444.10">.</text>
<text x="209.85" y="1.11">*</text>
<text x="105.68" y="47.22">+</text>
<text x="116.69" y="344.99">+</text>
<text x="106.99" y="94.54">+</text>
<text x="406.11" y="247.65">+</text>
<text x="150.64" y="347.63">.</text>
<text x="334.84" y="231.32">+</text>
<text x="284.28" y="31.68">+</text>
<text x="421.08" y="143.27">.</text>
<text x="235.49" y="307.05">+</text>
<text x="300.76" y="212.82">+</text>
<text x="13.29" y="109.98">.</text>
<text x="96.63" y="317.47">.</text>
<text x="19.29" y="472.16">+</text>
<text x="10.30" y="400.52">+</text>
<text x="13.31" y="317.53">*</text>
<text x="291.14" y="224.86">.</text>
<text x="458.94" y="474.09">+</text>
<text x="405.38" y="261.39">.</text>
<text x="437.91" y="213.37">+</text>
<text x="146.05" y="212.22">+</text>
<text x="198.11" y="432.36">.</text>
<text x="142.95" y="308.18">+</text>
<text x="326.63" y="248.15">.</text>
<text x="277.32" y="449.12">+</text>
<text x="271.98" y="231.30">.</text>
<text x="444.70" y="195.71">.</text>
<text x="162.18" y="278.80">.</text>
<text x="228.91" y="233.41">+</text>
<text x="326.20" y="297.34">+</text>
<text x="54.95" y="287.79">+</text>
<text x="154.16" y="479.17">.</text>
<text x="248.05" y="165.81">+</text>
<text x="159.34" y="224.18">.</text>
<text x="11.59" y="235.43">.</text>
<text x="65.25" y="38.15">.</text>
<text x="15.41" y="337.12">+</text>
<text x="387.98" y="56.82">.</text>
<text x="165.05" y="230.35">+</text>
<text x="442.10" y="336.20">.</text>
<text x="97.70" y="286.31">+</text>
<text x="263.15" y="185.15">*</text>
<text x="3.16" y="180.37">.</text>
<text x="39.86" y="83.33">.</text>
<text x="53.72" y="174.05">*</text>
<text x="212.66" y="187.13">.</text>
<text x="343.90" y="188.64">+</text>
<text x="446.42" y="260.80">+</text>
<text x="137.42" y="250.41">.</text>
<text x="266.18" y="2.68">+</text>
<text x="415.87" y="434.91">.</text>

</svg>