
<svg viewBox="0 0 500 500" xmlns="http://www.w.org/2000/svg" width="100%" height="100%" style="background-color: #0a0a14; font-family: 'Courier New', Courier, monospace;">
    <style>
        text { fill: #aaa; font-size: 10px; text-anchor: middle; dominant-baseline: middle; }
    </style>
    <text x="273.42" y="279.25">+</text>
<text x="445.18" y="296.01">+</text>
<text x="465.01" y="183.69">+</text>
<text x="489.85" y="410.68">.</text>
<text x="260.80" y="451.43">+</text>
<text x="44.19" y="170.68">+</text>
<text x="69.13" y="239.04">+</text>
<text x="253.16" y="86.15">.</text>
<text x="427.42" y="281.90">.</text>
<text x="55.06" y="387.56">+</text>
<text x="191.02" y="117.67">.</text>
<text x="203.42" y="370.46">.</text>
<text x="35.23" y="308.47">+</text>
<text x="36.87" y="147.62">+</text>
<text x="268.58" y="144.02">+</text>
<text x="374.97" y="116.73">.</text>
<text x="285.45" y="146.56">.</text>
<text x="260.17" y="74.73">+</text>
<text x="179.49" y="494.30">*</text>
<text x="34.23" y="357.01">.</text>
<text x="347.49" y="167.28">.</text>
<text x="328.21" y="19.63">+</text>
<text x="28.03" y="209.82">.</text>
<text x="36.28" y="242.25">*</text>
<text x="400.91" y="425.61">.</text>
<text x="88.71" y="33.27">.</text>
<text x="185.93" y="225.11">+</text>
<text x="446.37" y="39.14">+</text>
<text x="303.25" y="228.77">.</text>
<text x="117.87" y="124.85">*</text>
<text x="390.70" y="58.03">+</text>
<text x="342.46" y="451.91">+</text>
<text x="470.17" y="24.30">+</text>
<text x="8.54" y="301.73">.</text>
<text x="262.74" y="175.77">+</text>
<text x="220.39" y="102.63">*</text>
<text x="317.00" y="365.97">.</text>
<text x="292.20" y="48.26">*</text>
<text x="15.11" y="317.90">.</text>
<text x="212.80" y="428.27">.</text>
<text x="207.24" y="438.33">+</text>
<text x="472.30" y="44.42">.</text>
<text x="391.92" y="32.77">+</text>
<text x="384.08" y="160.32">+</text>
<text x="201.73" y="390.07">+</text>
<text x="88.86" y="213.36">.</text>
<text x="423.88" y="386.37">+</text>
<text x="378.07" y="326.00">+</text>
<text x="117.30" y="141.89">.</text>
<text x="117.62" y="136.49">+</text>
<text x="106.62" y="372.64">*</text>
<text x="406.72" y="84.57">*</text>
<text x="156.10" y="258.24">+</text>
<text x="319.59" y="266.91">.</text>
<text x="238.41" y="147.96">+</text>
<text x="262.69" y="392.90">+</text>
<text x="273.78" y="322.58">.</text>
<text x="375.34" y="422.96">.</text>
<text x="86.21" y="236.39">.</text>
<text x="444.29" y="151.37">+</text>
<text x="213.27" y="276.89">+</text>
<text x="371.64" y="10.79">.</text>
<text x="125.39" y="48.58">*</text>
<text x="397.99" y="488.78">+</text>
<text x="12.51" y="253.20">.</text>
<text x="199.50" y="176.96">+</text>
<text x="411.36" y="176.24">*</text>
<text x="443.15" y="74.18">.</text>
<text x="174.43" y="419.31">+</text>
<text x="141.16" y="346.23">+</text>
<text x="338.05" y="60.29">+</text>
<text x="307.80" y="320.43">+</text>
<text x="292.86" y="24.41">.</text>
<text x="271.84" y="205.74">+</text>
<text x="97.28" y="343.56">.</text>
<text x="490.80" y="436.59">.</text>
<text x="319.44" y="178.12">*</text>
<text x="143.26" y="261.20">+</text>
<text x="248.26" y="356.93">+</text>
<text x="478.51" y="183.15">+</text>
<text x="149.55" y="495.19">+</text>
<text x="199.33" y="312.24">+</text>
<text x="462.49" y="436.26">+</text>
<text x="46.38" y="472.47">+</text>
<text x="383.98" y="482.61">+</text>
<text x="87.35" y="484.51">.</text>
<text x="83.16" y="162.11">*</text>
<text x="130.90" y="285.79">.</text>
<text x="221.94" y="453.37">+</text>
<text x="243.70" y="162.50">.</text>
<text x="15.11" y="43.12">+</text>
<text x="323.05" y="217.64">.</text>
<text x="40.73" y="374.75">.</text>
<text x="77.08" y="375.00">.</text>
<text x="103.31" y="170.77">+</text>
<text x="310.22" y="23.49">.</text>
<text x="468.14" y="322.88">+</text>
<text x="95.89" y="229.03">+</text>
<text x="42.91" y="490.79">+</text>
<text x="230.02" y="261.06">.</text>
<text x="466.83" y="469.85">*</text>
<text x="466.63" y="333.19">+</text>
<text x="439.93" y="273.82">+</text>
<text x="55.39" y="318.68">.</text>
<text x="142.31" y="458.31">+</text>
<text x="442.82" y="369.09">.</text>
<text x="105.78" y="484.49">.</text>
<text x="471.94" y="156.81">+</text>
<text x="57.84" y="6.10">*</text>
<text x="466.35" y="484.42">*</text>
<text x="129.63" y="207.40">.</text>
<text x="352.05" y="73.27">+</text>
<text x="309.89" y="219.71">.</text>
<text x="444.00" y="90.27">*</text>
<text x="341.68" y="407.19">+</text>
<text x="111.21" y="395.18">.</text>
<text x="128.80" y="113.71">+</text>
<text x="40.54" y="291.32">*</text>
<text x="442.03" y="163.49">+</text>
<text x="17.43" y="159.78">.</text>
<text x="427.00" y="117.32">+</text>
<text x="338.74" y="96.92">+</text>
<text x="325.10" y="242.18">.</text>
<text x="242.37" y="40.90">*</text>
<text x="341.69" y="23.91">+</text>
<text x="213.62" y="140.25">.</text>
<text x="83.59" y="262.00">+</text>
<text x="110.20" y="443.14">+</text>
<text x="236.35" y="485.29">+</text>
<text x="392.71" y="274.30">+</text>
<text x="470.82" y="9.41">+</text>
<text x="497.72" y="443.92">.</text>
<text x="300.57" y="439.22">+</text>
<text x="439.35" y="305.08">.</text>
<text x="392.91" y="385.98">.</text>
<text x="337.43" y="41.77">+</text>
<text x="72.16" y="461.69">+</text>
<text x="30.88" y="46.35">+</text>
<text x="358.29" y="185.76">+</text>
<text x="361.95" y="221.78">+</text>
<text x="317.61" y="357.64">+</text>
<text x="120.13" y="108.97">*</text>
<text x="387.02" y="256.59">.</text>
<text x="278.38" y="120.88">+</text>
<text x="260.57" y="56.68">+</text>
<text x="338.03" y="192.65">.</text>
<text x="367.92" y="314.37">.</text>
<text x="399.36" y="367.20">.</text>
<text x="457.21" y="14.74">.</text>
<text x="56.68" y="346.53">+</text>
<text x="93.58" y="92.49">.</text>
<text x="371.27" y="467.53">.</text>
<text x="167.20" y="310.19">+</text>
<text x="37.14" y="202.28">.</text>
<text x="223.82" y="376.78">*</text>
<text x="61.47" y="377.27">.</text>
<text x="262.89" y="72.30">.</text>
<text x="411.97" y="437.22">.</text>
<text x="365.40" y="313.29">+</text>
<text x="302.02" y="309.76">+</text>
<text x="459.14" y="183.24">.</text>
<text x="81.77" y="217.52">+</text>
<text x="100.09" y="225.86">.</text>
<text x="390.26" y="303.33">.</text>
<text x="102.42" y="363.47">+</text>
<text x="141.64" y="160.77">+</text>
<text x="338.36" y="379.73">.</text>
<text x="463.61" y="137.87">+</text>
<text x="183.17" y="123.06">.</text>
<text x="16.90" y="275.61">+</text>
<text x="82.65" y="340.33">.</text>
<text x="271.83" y="414.77">*</text>
<text x="398.04" y="274.20">+</text>
<text x="130.24" y="326.85">+</text>
<text x="384.75" y="57.06">+</text>
<text x="151.43" y="312.86">+</text>
<text x="12.99" y="496.07">+</text>
<text x="355.43" y="51.85">.</text>
<text x="171.48" y="415.79">+</text>
<text x="212.79" y="464.49">+</text>
<text x="186.20" y="259.59">+</text>
<text x="496.93" y="182.10">*</text>
<text x="30.99" y="424.38">.</text>
<text x="288.65" y="241.22">.</text>
<text x="366.52" y="451.79">.</text>
<text x="184.06" y="1.21">+</text>
<text x="347.61" y="480.12">+</text>
<text x="204.89" y="201.67">+</text>
<text x="133.05" y="34.18">+</text>
<text x="10.45" y="149.78">*</text>
<text x="85.36" y="355.43">.</text>
<text x="324.10" y="360.45">.</text>
<text x="40.68" y="367.97">*</text>
<text x="227.38" y="50.84">.</text>
<text x="166.21" y="442.82">.</text>
<text x="228.10" y="201.25">.</text>
<text x="210.53" y="7.49">.</text>
<text x="458.13" y="49.62">.</text>
<text x="292.32" y="295.51">+</text>
<text x="73.92" y="402.25">+</text>
<text x="260.80" y="46.71">+</text>
<text x="187.36" y="496.84">+</text>
<text x="173.43" y="183.40">+</text>
<text x="87.60" y="406.14">.</text>
<text x="362.86" y="490.70">+</text>
<text x="399.26" y="153.27">.</text>
<text x="209.19" y="130.11">+</text>
<text x="353.63" y="471.16">*</text>
<text x="423.00" y="367.75">+</text>
<text x="212.46" y="192.74">+</text>
<text x="163.32" y="65.51">+</text>
<text x="78.26" y="45.05">+</text>
<text x="355.92" y="277.06">.</text>
<text x="226.75" y="485.01">+</text>
<text x="367.38" y="289.61">+</text>

</svg>