
<svg viewBox="0 0 500 500" xmlns="http://www.w.org/2000/svg" width="100%" height="100%" style="background-color: #0a0a14; font-family: 'Courier New', Courier, monospace;">
    <style>
        text { fill: #aaa; font-size: 10px; text-anchor: middle; dominant-baseline: middle; }
    </style>
    <text x="492.39" y="104.33">.</text>
<text x="457.84" y="349.98">+</text>
<text x="251.63" y="102.02">+</text>
<text x="250.23" y="85.22">.</text>
<text x="324.81" y="346.21">.</text>
<text x="96.17" y="119.76">.</text>
<text x="360.97" y="239.51">.</text>
<text x="283.33" y="199.19">.</text>
<text x="461.93" y="385.63">.</text>
<text x="445.52" y="386.04">+</text>
<text x="489.92" y="46.80">+</text>
<text x="401.01" y="246.33">*</text>
<text x="87.74" y="382.33">.</text>
<text x="50.31" y="482.03">*</text>
<text x="400.09" y="373.69">*</text>
<text x="116.88" y="198.26">.</text>
<text x="442.00" y="16.49">.</text>
<text x="7.35" y="26.24">+</text>
<text x="324.51" y="90.41">*</text>
<text x="70.26" y="391.66">.</text>
<text x="88.85" y="449.87">+</text>
<text x="148.24" y="413.24">.</text>
<text x="400.46" y="211.12">*</text>
<text x="233.61" y="337.30">.</text>
<text x="105.58" y="25.05">+</text>
<text x="218.69" y="8.11">*</text>
<text x="7.72" y="226.16">*</text>
<text x="297.19" y="36.21">.</text>
<text x="374.04" y="358.51">+</text>
<text x="415.62" y="458.54">+</text>
<text x="120.91" y="366.46">.</text>
<text x="473.13" y="333.01">.</text>
<text x="177.19" y="396.23">+</text>
<text x="120.54" y="94.84">+</text>
<text x="179.43" y="100.97">+</text>
<text x="278.75" y="437.78">.</text>
<text x="43.76" y="85.52">*</text>
<text x="36.88" y="168.02">.</text>
<text x="405.46" y="222.52">*</text>
<text x="286.65" y="255.50">+</text>
<text x="226.41" y="2.44">.</text>
<text x="352.51" y="0.18">.</text>
<text x="136.40" y="81.87">.</text>
<text x="363.45" y="439.35">+</text>
<text x="62.57" y="393.87">*</text>
<text x="27.49" y="252.83">+</text>
<text x="377.18" y="249.32">+</text>
<text x="17.95" y="183.05">*</text>
<text x="236.94" y="481.54">+</text>
<text x="287.22" y="356.06">+</text>
<text x="83.41" y="460.93">*</text>
<text x="241.45" y="219.72">.</text>
<text x="230.04" y="87.75">+</text>
<text x="75.09" y="60.31">+</text>
<text x="253.29" y="376.89">+</text>
<text x="460.99" y="384.22">+</text>
<text x="87.43" y="483.70">+</text>
<text x="27.10" y="467.51">+</text>
<text x="68.08" y="372.82">*</text>
<text x="32.64" y="150.36">.</text>
<text x="414.16" y="40.10">.</text>
<text x="490.03" y="137.95">.</text>
<text x="214.28" y="98.68">+</text>
<text x="484.60" y="418.83">.</text>
<text x="368.99" y="127.99">.</text>
<text x="42.75" y="88.89">.</text>
<text x="75.58" y="181.40">.</text>
<text x="78.57" y="117.16">.</text>
<text x="414.67" y="290.76">*</text>
<text x="88.54" y="325.04">.</text>
<text x="494.03" y="169.48">.</text>
<text x="128.11" y="284.28">.</text>
<text x="220.95" y="434.06">+</text>
<text x="124.67" y="149.60">.</text>
<text x="227.64" y="251.25">.</text>
<text x="380.99" y="395.43">.</text>
<text x="315.84" y="139.54">.</text>
<text x="34.41" y="263.44">+</text>
<text x="195.21" y="231.85">+</text>
<text x="121.11" y="115.52">*</text>
<text x="458.64" y="284.35">.</text>
<text x="92.93" y="92.96">*</text>
<text x="60.67" y="328.62">.</text>
<text x="366.14" y="56.01">+</text>
<text x="7.91" y="265.94">+</text>
<text x="493.68" y="294.93">+</text>
<text x="358.41" y="369.52">.</text>
<text x="490.97" y="427.63">.</text>
<text x="239.93" y="474.48">.</text>
<text x="1.18" y="354.43">.</text>
<text x="479.90" y="163.37">+</text>
<text x="229.81" y="200.11">+</text>
<text x="133.59" y="436.37">.</text>
<text x="363.15" y="390.28">.</text>
<text x="213.09" y="312.81">.</text>
<text x="372.66" y="198.67">+</text>
<text x="330.83" y="135.62">*</text>
<text x="278.81" y="12.06">.</text>
<text x="456.46" y="216.58">.</text>
<text x="179.70" y="86.16">*</text>
<text x="12.45" y="225.24">.</text>
<text x="325.91" y="210.34">*</text>
<text x="123.30" y="242.32">+</text>
<text x="36.43" y="324.52">*</text>
<text x="246.58" y="143.99">.</text>
<text x="123.69" y="230.62">+</text>
<text x="352.83" y="315.13">.</text>
<text x="244.41" y="278.88">.</text>
<text x="453.54" y="451.04">.</text>
<text x="488.54" y="440.53">+</text>
<text x="270.87" y="373.19">+</text>
<text x="283.44" y="255.93">+</text>
<text x="93.12" y="9.48">+</text>
<text x="333.95" y="181.48">+</text>
<text x="195.30" y="119.50">+</text>
<text x="332.72" y="136.83">+</text>
<text x="466.50" y="300.16">.</text>
<text x="91.40" y="163.31">+</text>
<text x="450.86" y="244.37">.</text>
<text x="218.67" y="422.01">+</text>
<text x="160.82" y="377.70">.</text>
<text x="337.94" y="39.54">*</text>
<text x="265.03" y="477.68">+</text>
<text x="187.68" y="466.94">.</text>
<text x="455.00" y="363.56">+</text>
<text x="3.59" y="6.36">.</text>
<text x="257.65" y="423.72">.</text>
<text x="457.84" y="124.32">+</text>
<text x="70.74" y="115.72">+</text>
<text x="355.67" y="441.68">+</text>
<text x="351.20" y="434.43">.</text>
<text x="341.07" y="66.07">.</text>
<text x="491.03" y="121.05">+</text>
<text x="444.79" y="47.86">+</text>
<text x="8.39" y="68.63">.</text>
<text x="213.22" y="384.72">+</text>
<text x="447.42" y="141.74">.</text>
<text x="142.77" y="76.77">+</text>
<text x="332.07" y="428.38">.</text>
<text x="221.11" y="110.21">.</text>
<text x="180.95" y="411.97">+</text>
<text x="392.42" y="237.22">*</text>
<text x="86.29" y="100.21">+</text>
<text x="497.08" y="346.73">+</text>
<text x="281.88" y="246.85">.</text>
<text x="344.09" y="357.75">.</text>
<text x="129.20" y="261.06">.</text>
<text x="65.92" y="116.45">.</text>
<text x="32.78" y="365.63">.</text>
<text x="332.36" y="348.15">+</text>
<text x="298.53" y="293.20">.</text>
<text x="184.23" y="101.65">.</text>
<text x="195.32" y="105.66">*</text>
<text x="342.85" y="141.34">+</text>
<text x="490.34" y="117.79">.</text>
<text x="481.32" y="443.75">.</text>
<text x="236.56" y="292.76">.</text>
<text x="338.04" y="68.67">+</text>
<text x="383.54" y="393.64">.</text>
<text x="156.83" y="52.36">.</text>
<text x="462.91" y="417.34">.</text>
<text x="446.84" y="13.63">.</text>
<text x="496.45" y="479.25">+</text>
<text x="23.62" y="476.99">+</text>
<text x="193.27" y="333.28">.</text>
<text x="43.81" y="194.86">.</text>
<text x="371.17" y="371.16">.</text>
<text x="202.12" y="163.61">+</text>
<text x="21.87" y="86.95">.</text>
<text x="117.28" y="432.18">*</text>
<text x="248.64" y="20.35">.</text>
<text x="204.11" y="291.28">+</text>
<text x="222.95" y="127.24">.</text>
<text x="231.94" y="70.10">.</text>
<text x="445.43" y="403.98">+</text>
<text x="422.88" y="451.17">+</text>
<text x="460.15" y="443.39">.</text>
<text x="295.08" y="172.56">*</text>
<text x="109.09" y="100.10">.</text>
<text x="451.28" y="273.61">*</text>
<text x="24.00" y="213.80">.</text>
<text x="130.07" y="185.61">+</text>
<text x="185.03" y="145.58">+</text>
<text x="163.98" y="133.01">+</text>
<text x="99.93" y="224.67">.</text>
<text x="375.09" y="376.01">.</text>
<text x="149.68" y="235.85">.</text>
<text x="50.08" y="96.82">.</text>
<text x="420.54" y="3.80">*</text>
<text x="108.01" y="126.92">.</text>
<text x="47.76" y="393.93">.</text>
<text x="430.21" y="447.24">.</text>
<text x="482.30" y="379.33">+</text>
<text x="284.72" y="271.06">+</text>
<text x="497.79" y="155.88">+</text>
<text x="79.63" y="157.71">+</text>
<text x="310.02" y="479.82">.</text>
<text x="449.68" y="178.72">.</text>
<text x="103.53" y="499.52">.</text>
<text x="422.38" y="188.46">.</text>
<text x="388.18" y="70.79">+</text>
<text x="57.57" y="335.02">*</text>
<text x="316.16" y="394.60">+</text>
<text x="301.05" y="405.46">.</text>
<text x="294.04" y="184.13">+</text>
<text x="322.14" y="219.64">.</text>
<text x="434.41" y="147.25">.</text>
<text x="207.45" y="2.59">.</text>
<text x="306.76" y="461.41">.</text>
<text x="418.60" y="317.00">.</text>
<text x="5.32" y="108.45">.</text>
<text x="426.48" y="293.15">*</text>
<text x="72.59" y="331.64">.</text>

</svg>