
<svg viewBox="0 0 500 500" xmlns="http://www.w.org/2000/svg" width="100%" height="100%" style="background-color: #0a0a14; font-family: 'Courier New', Courier, monospace;">
    <style>
        text { fill: #aaa; font-size: 10px; text-anchor: middle; dominant-baseline: middle; }
    </style>
    <text x="148.19" y="191.54">+</text>
<text x="477.78" y="474.20">+</text>
<text x="142.40" y="249.31">.</text>
<text x="341.24" y="67.39">.</text>
<text x="5.99" y="485.32">.</text>
<text x="339.34" y="228.70">.</text>
<text x="437.52" y="270.73">*</text>
<text x="323.66" y="295.08">.</text>
<text x="147.89" y="127.32">.</text>
<text x="343.80" y="320.18">+</text>
<text x="263.62" y="323.45">+</text>
<text x="440.83" y="26.38">.</text>
<text x="236.82" y="220.29">.</text>
<text x="253.69" y="163.68">+</text>
<text x="438.13" y="383.78">+</text>
<text x="469.59" y="463.03">.</text>
<text x="34.54" y="486.08">.</text>
<text x="296.15" y="460.55">+</text>
<text x="244.27" y="216.01">+</text>
<text x="440.98" y="471.02">.</text>
<text x="475.94" y="398.69">.</text>
<text x="41.27" y="393.74">+</text>
<text x="88.09" y="142.69">.</text>
<text x="207.99" y="393.84">+</text>
<text x="239.76" y="307.54">.</text>
<text x="431.49" y="374.30">+</text>
<text x="171.93" y="192.40">.</text>
<text x="36.77" y="364.15">+</text>
<text x="447.70" y="326.50">.</text>
<text x="252.51" y="160.31">+</text>
<text x="325.48" y="316.14">.</text>
<text x="67.90" y="419.36">+</text>
<text x="472.32" y="286.90">+</text>
<text x="32.19" y="253.70">*</text>
<text x="55.89" y="481.64">.</text>
<text x="398.41" y="385.11">*</text>
<text x="121.74" y="493.30">.</text>
<text x="20.69" y="302.27">+</text>
<text x="116.53" y="310.36">.</text>
<text x="26.86" y="335.02">+</text>
<text x="234.67" y="484.54">+</text>
<text x="153.77" y="187.00">.</text>
<text x="398.66" y="217.28">+</text>
<text x="59.86" y="160.98">.</text>
<text x="371.97" y="325.30">+</text>
<text x="30.47" y="284.45">.</text>
<text x="216.12" y="216.86">.</text>
<text x="229.14" y="378.98">.</text>
<text x="4.45" y="377.77">+</text>
<text x="127.56" y="21.31">.</text>
<text x="212.22" y="39.00">*</text>
<text x="386.51" y="281.15">+</text>
<text x="23.37" y="346.61">+</text>
<text x="283.62" y="296.43">.</text>
<text x="403.87" y="409.55">+</text>
<text x="172.19" y="126.29">+</text>
<text x="383.57" y="459.60">.</text>
<text x="352.90" y="336.31">+</text>
<text x="14.07" y="32.89">.</text>
<text x="291.00" y="300.03">*</text>
<text x="155.39" y="280.68">+</text>
<text x="371.74" y="8.76">+</text>
<text x="292.41" y="1.68">+</text>
<text x="484.92" y="84.93">*</text>
<text x="206.55" y="171.58">.</text>
<text x="103.96" y="414.59">*</text>
<text x="160.22" y="14.13">+</text>
<text x="383.67" y="458.48">+</text>
<text x="65.73" y="280.53">.</text>
<text x="281.20" y="356.36">*</text>
<text x="162.68" y="1.57">+</text>
<text x="367.06" y="106.18">.</text>
<text x="462.34" y="60.76">.</text>
<text x="86.20" y="66.30">+</text>
<text x="3.87" y="34.33">+</text>
<text x="7.93" y="35.37">+</text>
<text x="332.05" y="110.93">.</text>
<text x="426.82" y="87.26">+</text>
<text x="358.82" y="119.79">.</text>
<text x="216.47" y="279.49">.</text>
<text x="3.93" y="484.39">.</text>
<text x="418.03" y="55.01">.</text>
<text x="78.62" y="25.34">.</text>
<text x="455.59" y="453.15">*</text>
<text x="371.27" y="377.25">+</text>
<text x="64.73" y="356.72">+</text>
<text x="67.97" y="403.79">.</text>
<text x="162.00" y="434.54">.</text>
<text x="256.55" y="39.15">+</text>
<text x="73.93" y="74.32">+</text>
<text x="317.40" y="388.35">.</text>
<text x="454.01" y="110.46">.</text>
<text x="219.09" y="97.16">.</text>
<text x="452.66" y="484.38">+</text>
<text x="121.03" y="57.75">.</text>
<text x="427.65" y="110.83">.</text>
<text x="497.83" y="35.98">+</text>
<text x="333.43" y="20.45">+</text>
<text x="236.12" y="13.19">*</text>
<text x="198.03" y="327.04">*</text>
<text x="426.15" y="390.50">+</text>
<text x="20.68" y="5.51">.</text>
<text x="285.37" y="410.76">*</text>
<text x="66.76" y="94.51">.</text>
<text x="454.70" y="1.12">*</text>
<text x="126.79" y="241.96">.</text>
<text x="122.60" y="104.20">.</text>
<text x="106.75" y="157.68">+</text>
<text x="394.29" y="96.73">.</text>
<text x="382.11" y="114.04">.</text>
<text x="288.79" y="440.04">.</text>
<text x="21.70" y="165.38">.</text>
<text x="388.73" y="207.58">+</text>
<text x="337.31" y="276.16">.</text>
<text x="301.83" y="396.74">+</text>
<text x="155.17" y="156.00">.</text>
<text x="108.59" y="344.93">*</text>
<text x="50.81" y="202.29">.</text>
<text x="437.34" y="377.84">.</text>
<text x="237.53" y="185.45">.</text>
<text x="99.09" y="156.76">.</text>
<text x="461.52" y="245.20">+</text>
<text x="197.87" y="348.01">.</text>
<text x="82.00" y="63.93">*</text>
<text x="357.73" y="391.40">.</text>
<text x="452.98" y="105.36">.</text>
<text x="75.43" y="94.74">+</text>
<text x="395.64" y="333.45">*</text>
<text x="156.60" y="426.01">.</text>
<text x="285.47" y="22.54">*</text>
<text x="104.53" y="69.26">.</text>
<text x="59.11" y="248.36">+</text>
<text x="360.72" y="412.03">.</text>
<text x="44.28" y="250.28">.</text>
<text x="183.24" y="26.28">+</text>
<text x="360.90" y="88.45">+</text>
<text x="446.30" y="8.92">+</text>
<text x="351.11" y="101.30">+</text>
<text x="93.81" y="132.06">+</text>
<text x="437.12" y="120.55">+</text>
<text x="225.68" y="470.78">+</text>
<text x="412.25" y="212.27">.</text>
<text x="223.93" y="96.49">*</text>
<text x="133.66" y="403.17">.</text>
<text x="97.33" y="318.48">.</text>
<text x="196.73" y="475.68">.</text>
<text x="359.64" y="435.60">.</text>
<text x="142.13" y="37.30">*</text>
<text x="354.30" y="257.87">+</text>
<text x="492.78" y="297.74">+</text>
<text x="296.10" y="484.31">*</text>
<text x="326.11" y="170.51">+</text>
<text x="21.94" y="282.20">.</text>
<text x="490.48" y="299.84">*</text>
<text x="76.53" y="377.67">.</text>
<text x="414.50" y="64.49">+</text>
<text x="111.29" y="390.21">.</text>
<text x="67.96" y="52.75">+</text>
<text x="138.02" y="177.31">+</text>
<text x="497.51" y="487.06">.</text>
<text x="160.60" y="341.56">*</text>
<text x="177.99" y="84.67">+</text>
<text x="140.86" y="14.71">+</text>
<text x="17.80" y="231.72">*</text>
<text x="248.77" y="382.52">.</text>
<text x="288.00" y="368.53">.</text>
<text x="495.52" y="156.61">+</text>
<text x="472.04" y="139.18">*</text>
<text x="196.19" y="106.54">*</text>
<text x="4.92" y="443.95">+</text>
<text x="8.27" y="469.37">+</text>
<text x="76.28" y="416.57">+</text>
<text x="432.43" y="383.71">*</text>
<text x="128.99" y="80.73">+</text>
<text x="439.96" y="362.24">.</text>
<text x="1.96" y="171.71">+</text>
<text x="290.25" y="50.25">+</text>
<text x="234.78" y="456.51">.</text>
<text x="427.76" y="459.43">+</text>
<text x="426.89" y="338.72">.</text>
<text x="185.37" y="237.87">+</text>
<text x="415.10" y="197.50">+</text>
<text x="230.79" y="100.93">*</text>
<text x="41.43" y="31.09">+</text>
<text x="467.44" y="14.10">+</text>
<text x="474.67" y="169.13">.</text>
<text x="268.92" y="270.37">+</text>
<text x="382.01" y="47.37">.</text>
<text x="431.79" y="354.63">.</text>
<text x="383.53" y="251.45">*</text>
<text x="131.04" y="229.70">+</text>
<text x="88.62" y="126.77">+</text>
<text x="21.85" y="256.89">.</text>
<text x="163.33" y="258.06">*</text>
<text x="305.09" y="391.04">*</text>
<text x="349.92" y="373.15">+</text>
<text x="27.03" y="402.90">.</text>
<text x="311.85" y="424.72">.</text>
<text x="445.77" y="263.74">*</text>
<text x="142.53" y="43.33">.</text>
<text x="132.67" y="324.46">+</text>
<text x="364.23" y="254.58">.</text>
<text x="84.07" y="287.90">+</text>
<text x="462.23" y="414.22">+</text>
<text x="81.15" y="206.79">+</text>

</svg>