
<svg viewBox="0 0 500 500" xmlns="http://www.w.org/2000/svg" width="100%" height="100%" style="background-color: #0a0a14; font-family: 'Courier New', Courier, monospace;">
    <style>
        text { fill: #aaa; font-size: 10px; text-anchor: middle; dominant-baseline: middle; }
    </style>
    <text x="128.63" y="212.87">+</text>
<text x="259.62" y="212.52">+</text>
<text x="313.25" y="28.26">+</text>
<text x="199.50" y="195.78">.</text>
<text x="296.05" y="85.08">+</text>
<text x="361.86" y="414.38">+</text>
<text x="254.85" y="453.45">.</text>
<text x="131.72" y="84.52">.</text>
<text x="483.31" y="206.54">*</text>
<text x="283.99" y="2.74">+</text>
<text x="82.25" y="70.48">+</text>
<text x="404.57" y="213.82">+</text>
<text x="472.21" y="482.14">.</text>
<text x="0.18" y="462.68">.</text>
<text x="222.37" y="84.82">.</text>
<text x="198.46" y="327.51">.</text>
<text x="19.88" y="460.68">+</text>
<text x="401.26" y="387.82">+</text>
<text x="442.65" y="484.91">.</text>
<text x="246.08" y="319.78">+</text>
<text x="110.02" y="424.74">*</text>
<text x="331.91" y="148.60">*</text>
<text x="93.25" y="294.02">.</text>
<text x="204.85" y="288.70">+</text>
<text x="74.41" y="424.66">+</text>
<text x="453.04" y="51.91">.</text>
<text x="151.94" y="446.34">+</text>
<text x="26.34" y="235.38">+</text>
<text x="10.08" y="241.06">+</text>
<text x="34.85" y="372.66">*</text>
<text x="217.73" y="267.73">+</text>
<text x="63.99" y="306.05">+</text>
<text x="51.52" y="430.50">+</text>
<text x="52.76" y="295.96">+</text>
<text x="339.60" y="231.80">.</text>
<text x="261.66" y="140.30">+</text>
<text x="460.85" y="23.22">.</text>
<text x="269.88" y="256.88">+</text>
<text x="15.04" y="361.71">.</text>
<text x="161.89" y="222.06">*</text>
<text x="351.38" y="269.43">*</text>
<text x="356.87" y="165.85">.</text>
<text x="427.14" y="480.81">.</text>
<text x="312.23" y="97.58">.</text>
<text x="281.39" y="102.38">+</text>
<text x="406.30" y="122.47">.</text>
<text x="97.12" y="440.47">.</text>
<text x="138.58" y="163.98">+</text>
<text x="190.66" y="156.74">.</text>
<text x="142.18" y="491.91">*</text>
<text x="290.54" y="434.49">+</text>
<text x="335.18" y="236.09">.</text>
<text x="442.77" y="254.54">*</text>
<text x="35.94" y="80.71">.</text>
<text x="231.07" y="121.26">.</text>
<text x="466.23" y="253.47">+</text>
<text x="5.69" y="72.71">*</text>
<text x="441.39" y="453.13">+</text>
<text x="59.82" y="388.93">+</text>
<text x="152.59" y="43.57">.</text>
<text x="324.37" y="14.54">.</text>
<text x="60.70" y="177.75">*</text>
<text x="290.69" y="45.01">+</text>
<text x="112.15" y="479.91">*</text>
<text x="103.31" y="267.15">.</text>
<text x="435.62" y="223.24">+</text>
<text x="358.67" y="161.56">.</text>
<text x="213.03" y="229.69">.</text>
<text x="373.85" y="322.33">.</text>
<text x="43.96" y="407.58">.</text>
<text x="122.29" y="347.04">+</text>
<text x="471.16" y="434.59">+</text>
<text x="24.14" y="392.03">.</text>
<text x="184.04" y="371.65">+</text>
<text x="354.24" y="215.53">.</text>
<text x="87.18" y="474.88">.</text>
<text x="201.62" y="423.45">*</text>
<text x="205.12" y="318.67">.</text>
<text x="266.52" y="76.89">.</text>
<text x="206.86" y="339.38">+</text>
<text x="77.42" y="178.70">+</text>
<text x="157.91" y="384.43">+</text>
<text x="268.59" y="182.53">*</text>
<text x="5.56" y="433.22">.</text>
<text x="429.98" y="442.67">.</text>
<text x="2.27" y="231.46">*</text>
<text x="272.91" y="66.53">*</text>
<text x="62.33" y="443.45">+</text>
<text x="177.06" y="311.92">.</text>
<text x="232.97" y="20.49">*</text>
<text x="15.64" y="215.47">.</text>
<text x="75.83" y="146.50">+</text>
<text x="312.01" y="297.64">.</text>
<text x="393.58" y="21.09">+</text>
<text x="259.62" y="461.94">+</text>
<text x="228.05" y="179.03">+</text>
<text x="390.78" y="257.87">.</text>
<text x="391.30" y="440.08">+</text>
<text x="242.59" y="183.49">+</text>
<text x="333.34" y="319.01">+</text>
<text x="195.23" y="274.49">.</text>
<text x="2.14" y="172.40">*</text>
<text x="491.10" y="62.77">.</text>
<text x="101.71" y="49.40">+</text>
<text x="163.82" y="355.92">*</text>
<text x="154.51" y="261.62">.</text>
<text x="357.16" y="285.43">.</text>
<text x="427.70" y="221.86">*</text>
<text x="399.38" y="375.36">+</text>
<text x="46.53" y="190.84">.</text>
<text x="15.09" y="331.03">+</text>
<text x="97.89" y="247.06">+</text>
<text x="149.99" y="297.81">+</text>
<text x="128.24" y="242.34">+</text>
<text x="84.25" y="207.14">.</text>
<text x="42.37" y="152.77">*</text>
<text x="240.01" y="125.60">.</text>
<text x="453.63" y="450.64">.</text>
<text x="223.34" y="376.21">*</text>
<text x="392.15" y="289.81">+</text>
<text x="45.09" y="137.13">.</text>
<text x="54.38" y="130.09">.</text>
<text x="493.76" y="294.39">+</text>
<text x="67.66" y="479.05">*</text>
<text x="350.75" y="278.38">.</text>
<text x="124.88" y="291.84">+</text>
<text x="481.73" y="252.78">+</text>
<text x="24.03" y="85.29">+</text>
<text x="248.78" y="71.22">*</text>
<text x="123.49" y="382.75">.</text>
<text x="357.49" y="113.22">.</text>
<text x="458.67" y="287.48">.</text>
<text x="314.31" y="47.44">+</text>
<text x="79.17" y="188.29">.</text>
<text x="144.15" y="208.44">+</text>
<text x="73.63" y="62.79">+</text>
<text x="243.45" y="88.23">+</text>
<text x="247.87" y="329.48">*</text>
<text x="289.99" y="39.36">.</text>
<text x="15.45" y="335.71">+</text>
<text x="322.76" y="41.44">+</text>
<text x="355.35" y="160.57">.</text>
<text x="155.36" y="196.82">+</text>
<text x="199.61" y="340.01">+</text>
<text x="180.81" y="421.27">*</text>
<text x="470.45" y="320.68">.</text>
<text x="216.97" y="34.84">.</text>
<text x="342.76" y="265.82">*</text>
<text x="463.73" y="202.46">*</text>
<text x="10.22" y="404.59">.</text>
<text x="144.34" y="248.86">+</text>
<text x="323.95" y="132.73">.</text>
<text x="267.96" y="499.63">*</text>
<text x="246.98" y="204.29">+</text>
<text x="33.09" y="421.24">.</text>
<text x="466.14" y="447.86">+</text>
<text x="255.67" y="247.16">.</text>
<text x="263.72" y="398.67">.</text>
<text x="340.18" y="112.80">+</text>
<text x="148.99" y="303.15">.</text>
<text x="214.49" y="38.13">.</text>
<text x="188.58" y="351.27">.</text>
<text x="164.48" y="195.78">+</text>
<text x="92.28" y="435.62">+</text>
<text x="382.85" y="154.58">.</text>
<text x="378.35" y="214.79">+</text>
<text x="217.09" y="264.55">*</text>
<text x="168.05" y="240.16">+</text>
<text x="400.94" y="170.19">+</text>
<text x="121.92" y="118.88">+</text>
<text x="261.51" y="331.21">+</text>
<text x="205.44" y="37.26">+</text>
<text x="59.73" y="301.38">+</text>
<text x="113.95" y="330.62">.</text>
<text x="377.85" y="416.74">.</text>
<text x="5.61" y="224.54">+</text>
<text x="204.16" y="462.77">.</text>
<text x="25.31" y="65.55">.</text>
<text x="229.65" y="118.84">.</text>
<text x="138.99" y="458.65">+</text>
<text x="482.99" y="252.01">.</text>
<text x="307.78" y="259.68">*</text>
<text x="498.70" y="150.47">.</text>
<text x="447.41" y="237.73">.</text>
<text x="286.93" y="382.32">+</text>
<text x="1.30" y="489.42">+</text>
<text x="444.34" y="214.77">+</text>
<text x="333.44" y="53.09">.</text>
<text x="50.18" y="162.28">*</text>
<text x="216.52" y="488.04">.</text>
<text x="363.89" y="295.05">.</text>
<text x="360.68" y="59.61">+</text>
<text x="339.45" y="257.26">.</text>
<text x="309.87" y="195.24">+</text>
<text x="411.98" y="31.29">.</text>
<text x="152.17" y="98.48">+</text>
<text x="499.96" y="275.99">.</text>
<text x="248.02" y="444.34">+</text>
<text x="348.20" y="247.06">*</text>
<text x="336.05" y="264.68">+</text>
<text x="259.99" y="337.51">.</text>
<text x="99.59" y="404.64">*</text>
<text x="350.47" y="423.98">+</text>
<text x="479.04" y="457.95">*</text>

</svg>