
<svg viewBox="0 0 500 500" xmlns="http://www.w.org/2000/svg" width="100%" height="100%" style="background-color: #0a0a14; font-family: 'Courier New', Courier, monospace;">
    <style>
        text { fill: #aaa; font-size: 10px; text-anchor: middle; dominant-baseline: middle; }
    </style>
    <text x="474.89" y="216.10">.</text>
<text x="241.99" y="187.03">+</text>
<text x="152.10" y="92.60">*</text>
<text x="389.44" y="33.81">.</text>
<text x="373.53" y="79.01">*</text>
<text x="124.27" y="104.45">.</text>
<text x="307.33" y="330.96">.</text>
<text x="193.74" y="173.91">.</text>
<text x="496.96" y="116.25">+</text>
<text x="225.44" y="395.63">.</text>
<text x="332.91" y="204.28">+</text>
<text x="197.39" y="295.26">*</text>
<text x="350.06" y="226.26">*</text>
<text x="426.68" y="67.60">*</text>
<text x="357.94" y="315.72">.</text>
<text x="470.37" y="295.97">+</text>
<text x="420.44" y="418.86">*</text>
<text x="253.74" y="384.66">+</text>
<text x="192.34" y="197.43">+</text>
<text x="140.78" y="114.43">.</text>
<text x="71.36" y="376.34">.</text>
<text x="41.04" y="356.75">*</text>
<text x="35.71" y="339.78">.</text>
<text x="497.91" y="12.99">+</text>
<text x="85.75" y="371.35">.</text>
<text x="84.68" y="398.40">*</text>
<text x="306.61" y="482.63">+</text>
<text x="355.64" y="27.03">.</text>
<text x="393.18" y="412.06">.</text>
<text x="494.64" y="175.95">.</text>
<text x="153.05" y="274.23">+</text>
<text x="402.58" y="159.98">.</text>
<text x="403.33" y="167.01">+</text>
<text x="237.09" y="284.72">.</text>
<text x="397.18" y="113.79">.</text>
<text x="74.94" y="278.33">.</text>
<text x="356.49" y="61.07">.</text>
<text x="361.95" y="233.64">+</text>
<text x="225.36" y="450.67">.</text>
<text x="475.87" y="312.89">+</text>
<text x="262.91" y="137.55">.</text>
<text x="219.15" y="77.46">.</text>
<text x="148.86" y="205.93">.</text>
<text x="390.87" y="254.85">.</text>
<text x="25.99" y="121.50">+</text>
<text x="210.44" y="453.72">.</text>
<text x="388.31" y="202.80">.</text>
<text x="116.42" y="283.64">+</text>
<text x="140.91" y="93.33">.</text>
<text x="495.89" y="149.99">*</text>
<text x="431.38" y="112.49">.</text>
<text x="342.89" y="405.74">.</text>
<text x="355.40" y="88.72">+</text>
<text x="182.37" y="291.88">.</text>
<text x="253.14" y="128.12">*</text>
<text x="23.17" y="419.76">+</text>
<text x="476.38" y="333.41">+</text>
<text x="356.45" y="250.18">+</text>
<text x="473.55" y="2.77">.</text>
<text x="23.25" y="182.73">.</text>
<text x="434.69" y="249.51">.</text>
<text x="335.94" y="1.24">.</text>
<text x="173.21" y="318.64">+</text>
<text x="455.75" y="419.73">.</text>
<text x="390.15" y="139.81">+</text>
<text x="94.34" y="112.46">+</text>
<text x="411.73" y="164.04">.</text>
<text x="303.54" y="431.25">+</text>
<text x="240.24" y="8.90">+</text>
<text x="218.32" y="332.53">*</text>
<text x="423.75" y="59.24">+</text>
<text x="22.40" y="367.38">+</text>
<text x="392.95" y="475.35">+</text>
<text x="387.79" y="184.18">.</text>
<text x="318.80" y="447.01">+</text>
<text x="429.01" y="492.02">+</text>
<text x="85.66" y="425.21">.</text>
<text x="410.26" y="470.66">.</text>
<text x="128.26" y="13.88">+</text>
<text x="67.28" y="313.70">.</text>
<text x="407.11" y="22.04">.</text>
<text x="338.80" y="238.07">+</text>
<text x="301.33" y="319.74">*</text>
<text x="270.57" y="157.55">+</text>
<text x="41.44" y="360.18">.</text>
<text x="134.21" y="190.12">*</text>
<text x="355.15" y="56.28">*</text>
<text x="279.41" y="216.95">.</text>
<text x="360.63" y="46.72">+</text>
<text x="334.09" y="485.03">.</text>
<text x="195.36" y="397.60">+</text>
<text x="278.41" y="288.86">.</text>
<text x="280.17" y="427.06">+</text>
<text x="81.64" y="173.27">.</text>
<text x="423.18" y="306.55">.</text>
<text x="303.04" y="255.13">.</text>
<text x="36.20" y="7.67">.</text>
<text x="77.84" y="401.04">+</text>
<text x="409.50" y="344.29">*</text>
<text x="264.12" y="230.18">+</text>
<text x="317.95" y="368.19">+</text>
<text x="58.65" y="149.59">*</text>
<text x="203.55" y="490.54">*</text>
<text x="402.02" y="35.63">.</text>
<text x="312.84" y="353.73">.</text>
<text x="156.73" y="40.31">+</text>
<text x="367.10" y="276.72">+</text>
<text x="111.93" y="220.31">*</text>
<text x="70.20" y="186.35">.</text>
<text x="16.49" y="136.77">+</text>
<text x="270.69" y="171.25">*</text>
<text x="311.55" y="499.02">+</text>
<text x="106.82" y="170.80">+</text>
<text x="214.28" y="33.10">*</text>
<text x="326.45" y="132.40">+</text>
<text x="1.01" y="298.38">.</text>
<text x="142.13" y="376.13">.</text>
<text x="188.41" y="125.18">*</text>
<text x="146.07" y="145.10">.</text>
<text x="107.92" y="425.83">+</text>
<text x="148.59" y="419.34">+</text>
<text x="248.53" y="384.46">+</text>
<text x="454.78" y="340.41">.</text>
<text x="257.29" y="146.88">.</text>
<text x="256.65" y="278.09">*</text>
<text x="329.99" y="29.00">+</text>
<text x="342.71" y="137.36">+</text>
<text x="438.18" y="414.92">.</text>
<text x="427.76" y="94.89">+</text>
<text x="485.71" y="433.62">*</text>
<text x="388.66" y="315.58">+</text>
<text x="126.96" y="178.99">*</text>
<text x="443.61" y="324.90">.</text>
<text x="48.59" y="90.71">.</text>
<text x="482.66" y="326.58">*</text>
<text x="436.22" y="215.39">.</text>
<text x="441.15" y="310.26">*</text>
<text x="410.12" y="419.76">.</text>
<text x="146.89" y="474.65">.</text>
<text x="487.45" y="152.88">*</text>
<text x="307.57" y="344.55">.</text>
<text x="402.33" y="170.49">*</text>
<text x="130.75" y="299.18">+</text>
<text x="404.50" y="494.88">+</text>
<text x="283.18" y="344.57">+</text>
<text x="215.77" y="115.24">.</text>
<text x="327.07" y="213.83">.</text>
<text x="276.28" y="100.08">.</text>
<text x="87.82" y="256.38">+</text>
<text x="267.04" y="135.52">.</text>
<text x="482.35" y="406.19">.</text>
<text x="443.82" y="330.22">.</text>
<text x="46.22" y="413.22">.</text>
<text x="97.99" y="52.68">+</text>
<text x="332.99" y="471.78">.</text>
<text x="466.59" y="303.24">+</text>
<text x="135.92" y="123.10">.</text>
<text x="122.43" y="213.97">+</text>
<text x="429.26" y="195.01">+</text>
<text x="372.42" y="185.83">+</text>
<text x="24.98" y="279.39">+</text>
<text x="103.26" y="13.74">+</text>
<text x="342.37" y="476.38">*</text>
<text x="149.48" y="121.88">+</text>
<text x="79.42" y="410.30">+</text>
<text x="437.35" y="210.53">+</text>
<text x="360.12" y="416.98">+</text>
<text x="37.17" y="331.41">.</text>
<text x="325.87" y="162.88">*</text>
<text x="490.63" y="155.51">.</text>
<text x="475.28" y="382.31">.</text>
<text x="33.86" y="139.71">+</text>
<text x="73.23" y="164.46">.</text>
<text x="156.54" y="429.42">*</text>
<text x="450.17" y="397.36">.</text>
<text x="83.85" y="374.32">+</text>
<text x="262.34" y="326.10">.</text>
<text x="111.99" y="343.01">.</text>
<text x="159.22" y="442.76">.</text>
<text x="369.12" y="152.84">.</text>
<text x="328.61" y="469.30">.</text>
<text x="23.51" y="454.19">*</text>
<text x="225.47" y="384.69">+</text>
<text x="387.37" y="424.79">.</text>
<text x="204.99" y="91.30">*</text>
<text x="183.25" y="77.10">.</text>
<text x="47.29" y="149.51">.</text>
<text x="324.84" y="249.96">+</text>
<text x="199.51" y="470.96">*</text>
<text x="286.17" y="475.26">+</text>
<text x="167.27" y="20.96">+</text>
<text x="96.18" y="18.22">.</text>
<text x="162.38" y="289.20">+</text>
<text x="352.70" y="80.20">.</text>
<text x="151.56" y="435.40">+</text>
<text x="247.23" y="451.97">.</text>
<text x="245.25" y="142.54">+</text>
<text x="65.37" y="294.33">.</text>
<text x="345.10" y="132.91">+</text>
<text x="41.76" y="473.88">.</text>
<text x="236.53" y="461.53">.</text>
<text x="334.62" y="195.18">*</text>
<text x="208.89" y="192.20">*</text>
<text x="482.32" y="459.20">+</text>

</svg>