
<svg viewBox="0 0 500 500" xmlns="http://www.w.org/2000/svg" width="100%" height="100%" style="background-color: #0a0a14; font-family: 'Courier New', Courier, monospace;">
    <style>
        text { fill: #aaa; font-size: 10px; text-anchor: middle; dominant-baseline: middle; }
    </style>
    <text x="251.21" y="165.28">+</text>
<text x="281.97" y="73.54">.</text>
<text x="470.83" y="49.41">+</text>
<text x="143.25" y="149.64">+</text>
<text x="429.94" y="480.67">.</text>
<text x="293.47" y="131.03">+</text>
<text x="338.55" y="231.87">*</text>
<text x="268.75" y="142.39">*</text>
<text x="169.05" y="425.88">+</text>
<text x="195.39" y="259.21">+</text>
<text x="377.72" y="369.89">+</text>
<text x="133.34" y="457.55">+</text>
<text x="68.43" y="349.36">*</text>
<text x="274.89" y="252.08">+</text>
<text x="182.81" y="343.67">*</text>
<text x="107.08" y="260.76">+</text>
<text x="289.85" y="394.35">.</text>
<text x="411.29" y="321.62">+</text>
<text x="327.18" y="258.18">+</text>
<text x="26.13" y="56.34">+</text>
<text x="76.33" y="137.45">.</text>
<text x="413.29" y="314.74">.</text>
<text x="378.19" y="462.99">.</text>
<text x="418.75" y="435.98">+</text>
<text x="288.26" y="208.27">.</text>
<text x="177.51" y="441.80">*</text>
<text x="285.39" y="86.82">+</text>
<text x="390.04" y="86.11">+</text>
<text x="108.37" y="413.84">*</text>
<text x="399.88" y="381.64">.</text>
<text x="474.25" y="276.39">+</text>
<text x="351.79" y="110.81">+</text>
<text x="250.40" y="55.45">+</text>
<text x="288.36" y="251.36">.</text>
<text x="309.69" y="83.72">+</text>
<text x="402.37" y="54.33">+</text>
<text x="75.78" y="392.89">+</text>
<text x="65.31" y="197.76">+</text>
<text x="463.56" y="380.40">.</text>
<text x="44.92" y="445.49">+</text>
<text x="91.12" y="4.89">+</text>
<text x="488.87" y="155.20">*</text>
<text x="19.13" y="217.21">+</text>
<text x="299.15" y="152.19">+</text>
<text x="123.14" y="418.08">*</text>
<text x="468.82" y="358.74">+</text>
<text x="168.55" y="135.57">+</text>
<text x="349.12" y="377.39">+</text>
<text x="243.01" y="449.76">.</text>
<text x="455.43" y="466.93">.</text>
<text x="182.97" y="83.44">.</text>
<text x="482.94" y="155.08">.</text>
<text x="359.92" y="386.54">+</text>
<text x="439.22" y="427.98">.</text>
<text x="340.03" y="381.50">.</text>
<text x="92.58" y="44.00">+</text>
<text x="275.22" y="270.46">+</text>
<text x="305.85" y="210.64">*</text>
<text x="158.20" y="64.14">+</text>
<text x="25.72" y="393.76">*</text>
<text x="468.68" y="461.77">.</text>
<text x="108.02" y="361.77">+</text>
<text x="3.41" y="456.35">.</text>
<text x="260.72" y="58.09">+</text>
<text x="196.40" y="26.88">+</text>
<text x="218.29" y="475.78">.</text>
<text x="274.82" y="400.77">*</text>
<text x="140.55" y="456.91">+</text>
<text x="49.18" y="318.60">+</text>
<text x="499.64" y="196.26">+</text>
<text x="141.97" y="334.60">.</text>
<text x="148.18" y="324.11">+</text>
<text x="131.09" y="368.51">+</text>
<text x="4.26" y="162.42">.</text>
<text x="257.79" y="316.10">*</text>
<text x="230.02" y="239.89">+</text>
<text x="340.23" y="473.29">+</text>
<text x="138.94" y="38.94">+</text>
<text x="229.60" y="480.89">.</text>
<text x="233.69" y="343.10">*</text>
<text x="352.05" y="148.68">.</text>
<text x="351.59" y="246.73">.</text>
<text x="258.80" y="78.40">+</text>
<text x="498.71" y="84.92">+</text>
<text x="1.71" y="382.89">+</text>
<text x="15.26" y="60.62">.</text>
<text x="98.52" y="184.56">*</text>
<text x="25.51" y="441.17">+</text>
<text x="193.03" y="206.35">+</text>
<text x="358.22" y="87.69">+</text>
<text x="374.04" y="464.74">*</text>
<text x="107.64" y="86.52">+</text>
<text x="113.48" y="254.43">*</text>
<text x="76.29" y="262.94">+</text>
<text x="213.11" y="269.59">+</text>
<text x="406.87" y="450.16">+</text>
<text x="427.21" y="455.41">.</text>
<text x="301.57" y="147.39">+</text>
<text x="206.96" y="23.83">.</text>
<text x="251.78" y="499.20">+</text>
<text x="114.70" y="255.71">.</text>
<text x="251.82" y="88.41">+</text>
<text x="64.95" y="38.43">+</text>
<text x="349.97" y="232.16">+</text>
<text x="304.02" y="450.10">+</text>
<text x="261.90" y="35.60">*</text>
<text x="292.47" y="133.48">*</text>
<text x="489.54" y="299.17">+</text>
<text x="28.23" y="122.21">+</text>
<text x="28.09" y="160.66">.</text>
<text x="128.38" y="312.98">+</text>
<text x="85.80" y="350.16">.</text>
<text x="110.93" y="133.21">+</text>
<text x="283.68" y="228.51">+</text>
<text x="45.54" y="130.91">.</text>
<text x="440.00" y="240.48">*</text>
<text x="341.63" y="450.88">+</text>
<text x="40.61" y="15.23">*</text>
<text x="5.71" y="341.95">+</text>
<text x="272.16" y="348.01">.</text>
<text x="52.89" y="447.63">*</text>
<text x="468.75" y="290.78">.</text>
<text x="123.87" y="141.04">.</text>
<text x="258.78" y="25.81">.</text>
<text x="46.05" y="29.64">+</text>
<text x="381.99" y="352.04">.</text>
<text x="104.57" y="297.35">+</text>
<text x="204.51" y="131.81">.</text>
<text x="393.71" y="142.17">+</text>
<text x="261.44" y="439.91">.</text>
<text x="53.18" y="7.11">.</text>
<text x="350.31" y="279.21">+</text>
<text x="182.18" y="491.48">+</text>
<text x="229.93" y="143.42">.</text>
<text x="70.45" y="368.93">.</text>
<text x="263.55" y="25.14">+</text>
<text x="382.49" y="163.34">.</text>
<text x="27.18" y="479.62">.</text>
<text x="341.96" y="349.86">.</text>
<text x="200.03" y="136.46">.</text>
<text x="440.73" y="69.73">*</text>
<text x="20.43" y="359.32">*</text>
<text x="205.72" y="91.17">*</text>
<text x="212.02" y="288.79">+</text>
<text x="180.46" y="184.85">.</text>
<text x="342.43" y="146.25">+</text>
<text x="349.87" y="133.02">.</text>
<text x="4.68" y="238.37">+</text>
<text x="35.27" y="14.21">.</text>
<text x="64.44" y="152.09">.</text>
<text x="135.82" y="281.94">.</text>
<text x="463.03" y="339.74">.</text>
<text x="201.86" y="11.68">.</text>
<text x="294.94" y="139.81">*</text>
<text x="342.50" y="488.44">.</text>
<text x="371.47" y="134.11">+</text>
<text x="13.03" y="92.27">.</text>
<text x="37.62" y="284.73">.</text>
<text x="487.30" y="310.32">.</text>
<text x="185.10" y="12.06">*</text>
<text x="276.57" y="62.41">.</text>
<text x="2.99" y="398.81">+</text>
<text x="18.63" y="98.83">.</text>
<text x="217.09" y="3.21">*</text>
<text x="30.75" y="404.31">.</text>
<text x="394.23" y="10.76">+</text>
<text x="386.32" y="360.06">*</text>
<text x="483.74" y="116.77">.</text>
<text x="250.67" y="477.92">.</text>
<text x="13.02" y="206.05">.</text>
<text x="83.98" y="139.27">.</text>
<text x="62.12" y="251.38">.</text>
<text x="348.16" y="465.69">+</text>
<text x="340.62" y="151.24">.</text>
<text x="420.30" y="88.61">+</text>
<text x="493.00" y="354.40">.</text>
<text x="274.23" y="367.73">.</text>
<text x="471.43" y="288.64">*</text>
<text x="166.29" y="331.83">.</text>
<text x="390.01" y="228.96">*</text>
<text x="370.64" y="38.30">+</text>
<text x="238.87" y="21.04">*</text>
<text x="14.25" y="129.13">*</text>
<text x="376.28" y="258.29">+</text>
<text x="496.60" y="112.96">+</text>
<text x="421.05" y="210.25">+</text>
<text x="303.43" y="285.30">+</text>
<text x="69.27" y="425.63">+</text>
<text x="27.25" y="288.36">.</text>
<text x="19.72" y="76.22">+</text>
<text x="91.17" y="120.14">.</text>
<text x="367.62" y="239.69">.</text>
<text x="235.70" y="107.56">*</text>
<text x="169.13" y="413.79">.</text>
<text x="177.99" y="324.57">.</text>
<text x="306.21" y="167.56">*</text>
<text x="260.93" y="112.43">.</text>
<text x="227.42" y="194.16">.</text>

</svg>