
<svg viewBox="0 0 500 500" xmlns="http://www.w.org/2000/svg" width="100%" height="100%" style="background-color: #0a0a14; font-family: 'Courier New', Courier, monospace;">
    <style>
        text { fill: #aaa; font-size: 10px; text-anchor: middle; dominant-baseline: middle; }
    </style>
    <text x="436.92" y="482.07">+</text>
<text x="265.03" y="485.10">.</text>
<text x="444.57" y="115.28">.</text>
<text x="61.61" y="369.44">+</text>
<text x="247.24" y="42.38">+</text>
<text x="126.72" y="449.77">.</text>
<text x="318.00" y="202.48">*</text>
<text x="388.75" y="307.71">+</text>
<text x="215.12" y="481.93">.</text>
<text x="362.72" y="316.89">+</text>
<text x="387.06" y="215.64">.</text>
<text x="447.25" y="203.38">+</text>
<text x="456.98" y="253.09">+</text>
<text x="360.58" y="76.95">+</text>
<text x="321.01" y="101.50">+</text>
<text x="169.56" y="114.94">+</text>
<text x="19.23" y="307.90">.</text>
<text x="150.82" y="169.47">.</text>
<text x="469.98" y="301.92">+</text>
<text x="364.04" y="93.17">+</text>
<text x="299.10" y="191.54">+</text>
<text x="470.57" y="147.30">.</text>
<text x="231.56" y="226.26">+</text>
<text x="387.27" y="0.65">.</text>
<text x="408.99" y="409.39">+</text>
<text x="229.01" y="30.02">+</text>
<text x="384.57" y="248.50">*</text>
<text x="133.54" y="111.26">.</text>
<text x="115.89" y="154.24">.</text>
<text x="162.95" y="238.36">.</text>
<text x="409.75" y="258.17">+</text>
<text x="56.11" y="125.28">.</text>
<text x="454.84" y="100.63">.</text>
<text x="295.46" y="198.45">+</text>
<text x="51.15" y="98.28">.</text>
<text x="401.02" y="222.96">*</text>
<text x="43.46" y="16.75">*</text>
<text x="495.17" y="159.17">.</text>
<text x="141.26" y="21.31">+</text>
<text x="154.52" y="350.20">*</text>
<text x="96.83" y="219.35">.</text>
<text x="488.66" y="255.72">.</text>
<text x="58.77" y="384.75">*</text>
<text x="104.17" y="47.78">.</text>
<text x="218.08" y="187.89">.</text>
<text x="185.20" y="72.27">.</text>
<text x="292.08" y="489.04">+</text>
<text x="128.29" y="368.97">*</text>
<text x="134.47" y="436.64">+</text>
<text x="470.76" y="428.21">+</text>
<text x="65.09" y="261.57">.</text>
<text x="468.61" y="193.37">+</text>
<text x="112.29" y="117.23">+</text>
<text x="193.16" y="471.50">.</text>
<text x="368.12" y="353.96">.</text>
<text x="157.20" y="272.64">*</text>
<text x="61.30" y="337.29">.</text>
<text x="152.27" y="214.10">+</text>
<text x="333.05" y="61.46">.</text>
<text x="409.85" y="301.97">.</text>
<text x="123.86" y="205.57">.</text>
<text x="339.91" y="189.88">+</text>
<text x="419.17" y="499.19">+</text>
<text x="421.45" y="79.44">*</text>
<text x="363.55" y="269.70">*</text>
<text x="116.77" y="367.25">.</text>
<text x="154.94" y="15.71">.</text>
<text x="297.16" y="459.98">+</text>
<text x="443.49" y="14.99">+</text>
<text x="193.92" y="121.59">.</text>
<text x="456.41" y="417.50">.</text>
<text x="303.98" y="416.56">+</text>
<text x="316.02" y="188.85">+</text>
<text x="341.23" y="15.88">+</text>
<text x="462.70" y="14.28">*</text>
<text x="379.05" y="79.11">+</text>
<text x="388.36" y="290.05">+</text>
<text x="282.07" y="453.02">*</text>
<text x="404.33" y="354.01">*</text>
<text x="456.25" y="404.02">.</text>
<text x="17.45" y="368.56">*</text>
<text x="393.75" y="87.66">+</text>
<text x="200.92" y="417.89">.</text>
<text x="142.83" y="163.47">.</text>
<text x="232.39" y="82.01">.</text>
<text x="73.60" y="265.02">+</text>
<text x="134.57" y="275.97">.</text>
<text x="489.30" y="411.00">+</text>
<text x="370.83" y="296.59">+</text>
<text x="312.32" y="115.82">+</text>
<text x="375.09" y="123.52">.</text>
<text x="206.48" y="75.57">.</text>
<text x="89.30" y="32.64">.</text>
<text x="347.24" y="365.68">.</text>
<text x="440.69" y="338.81">+</text>
<text x="469.43" y="188.89">+</text>
<text x="156.01" y="146.06">*</text>
<text x="103.24" y="208.19">*</text>
<text x="438.16" y="357.51">.</text>
<text x="465.51" y="97.37">.</text>
<text x="91.16" y="402.81">+</text>
<text x="116.09" y="366.88">*</text>
<text x="62.40" y="340.52">+</text>
<text x="207.71" y="84.33">.</text>
<text x="199.88" y="94.53">+</text>
<text x="98.76" y="233.48">.</text>
<text x="208.71" y="492.09">.</text>
<text x="367.71" y="343.36">+</text>
<text x="30.32" y="158.86">.</text>
<text x="202.50" y="474.87">+</text>
<text x="239.11" y="206.35">+</text>
<text x="299.85" y="354.50">+</text>
<text x="434.07" y="61.95">.</text>
<text x="201.78" y="297.19">+</text>
<text x="312.30" y="305.07">+</text>
<text x="451.34" y="6.29">.</text>
<text x="226.26" y="20.17">+</text>
<text x="47.86" y="409.76">+</text>
<text x="204.48" y="358.97">+</text>
<text x="131.28" y="212.73">+</text>
<text x="245.81" y="441.71">+</text>
<text x="235.49" y="379.39">+</text>
<text x="293.97" y="355.57">+</text>
<text x="397.04" y="319.35">+</text>
<text x="8.46" y="161.82">.</text>
<text x="337.20" y="393.49">.</text>
<text x="261.48" y="424.19">.</text>
<text x="225.14" y="369.71">.</text>
<text x="56.20" y="429.72">+</text>
<text x="110.25" y="412.94">.</text>
<text x="35.18" y="260.91">+</text>
<text x="499.30" y="67.46">*</text>
<text x="31.90" y="322.28">+</text>
<text x="287.18" y="166.46">+</text>
<text x="86.31" y="405.26">+</text>
<text x="353.78" y="411.47">+</text>
<text x="293.40" y="30.70">+</text>
<text x="302.05" y="427.23">.</text>
<text x="41.23" y="210.76">.</text>
<text x="184.35" y="468.65">+</text>
<text x="215.98" y="26.00">.</text>
<text x="351.03" y="69.94">.</text>
<text x="72.58" y="324.66">+</text>
<text x="407.25" y="230.79">+</text>
<text x="106.59" y="304.08">*</text>
<text x="193.38" y="307.88">.</text>
<text x="43.80" y="240.94">+</text>
<text x="50.13" y="31.96">*</text>
<text x="189.00" y="382.40">+</text>
<text x="44.12" y="318.54">+</text>
<text x="481.81" y="196.13">+</text>
<text x="412.23" y="471.99">*</text>
<text x="288.19" y="220.71">.</text>
<text x="456.63" y="348.00">*</text>
<text x="309.29" y="364.27">*</text>
<text x="497.97" y="20.79">+</text>
<text x="299.59" y="94.57">.</text>
<text x="5.29" y="307.53">.</text>
<text x="41.80" y="396.84">+</text>
<text x="59.77" y="332.99">.</text>
<text x="126.42" y="164.64">+</text>
<text x="66.91" y="22.97">.</text>
<text x="483.62" y="4.35">.</text>
<text x="309.73" y="72.49">.</text>
<text x="453.41" y="26.99">.</text>
<text x="66.16" y="486.24">+</text>
<text x="320.73" y="281.90">.</text>
<text x="217.66" y="81.02">+</text>
<text x="232.52" y="170.48">*</text>
<text x="354.33" y="272.27">*</text>
<text x="465.51" y="435.00">.</text>
<text x="290.34" y="315.06">+</text>
<text x="340.30" y="95.64">*</text>
<text x="85.41" y="231.97">+</text>
<text x="200.18" y="378.61">+</text>
<text x="328.93" y="191.16">+</text>
<text x="468.07" y="157.43">+</text>
<text x="419.39" y="355.82">*</text>
<text x="374.48" y="279.97">.</text>
<text x="332.54" y="57.75">+</text>
<text x="325.56" y="183.27">.</text>
<text x="82.85" y="455.80">.</text>
<text x="179.31" y="399.21">.</text>
<text x="215.03" y="125.11">+</text>
<text x="133.55" y="219.24">+</text>
<text x="242.48" y="422.56">.</text>
<text x="201.48" y="14.98">+</text>
<text x="187.85" y="174.43">.</text>
<text x="456.30" y="90.30">.</text>
<text x="92.54" y="457.84">.</text>
<text x="108.91" y="147.48">+</text>
<text x="297.96" y="152.56">+</text>
<text x="217.26" y="183.79">.</text>
<text x="125.42" y="485.31">*</text>
<text x="132.63" y="80.87">*</text>
<text x="249.02" y="53.57">.</text>
<text x="130.01" y="371.03">.</text>
<text x="102.05" y="478.07">.</text>
<text x="113.98" y="126.54">+</text>
<text x="496.34" y="423.01">.</text>
<text x="93.65" y="470.17">+</text>
<text x="345.08" y="363.30">.</text>
<text x="303.03" y="436.61">+</text>
<text x="111.93" y="311.18">.</text>
<text x="323.54" y="463.89">*</text>
<text x="225.72" y="101.16">.</text>
<text x="443.79" y="455.83">.</text>
<text x="426.89" y="470.47">.</text>
<text x="423.73" y="199.66">+</text>
<text x="417.77" y="411.46">*</text>
<text x="277.93" y="409.50">.</text>
<text x="159.70" y="452.65">.</text>
<text x="22.42" y="415.11">+</text>
<text x="11.47" y="336.56">+</text>
<text x="256.93" y="232.36">+</text>
<text x="426.34" y="453.45">*</text>
<text x="377.55" y="398.43">+</text>
<text x="488.44" y="47.88">.</text>
<text x="115.72" y="115.76">.</text>

</svg>