
<svg viewBox="0 0 500 500" xmlns="http://www.w.org/2000/svg" width="100%" height="100%" style="background-color: #0a0a14; font-family: 'Courier New', Courier, monospace;">
    <style>
        text { fill: #aaa; font-size: 10px; text-anchor: middle; dominant-baseline: middle; }
    </style>
    <text x="299.71" y="213.57">+</text>
<text x="241.29" y="241.35">+</text>
<text x="466.70" y="493.68">+</text>
<text x="207.82" y="464.91">.</text>
<text x="230.07" y="484.92">+</text>
<text x="374.11" y="21.16">+</text>
<text x="416.13" y="168.03">.</text>
<text x="304.78" y="383.08">*</text>
<text x="235.67" y="336.09">.</text>
<text x="0.88" y="427.76">.</text>
<text x="439.05" y="287.99">+</text>
<text x="4.29" y="111.21">*</text>
<text x="228.10" y="268.95">.</text>
<text x="434.06" y="375.15">*</text>
<text x="468.37" y="274.62">+</text>
<text x="289.68" y="444.16">+</text>
<text x="152.54" y="342.15">+</text>
<text x="307.82" y="178.71">.</text>
<text x="243.17" y="214.84">.</text>
<text x="405.79" y="88.05">.</text>
<text x="109.52" y="341.24">.</text>
<text x="90.01" y="0.50">.</text>
<text x="85.11" y="470.00">+</text>
<text x="18.63" y="104.27">.</text>
<text x="416.30" y="76.46">+</text>
<text x="161.81" y="418.90">*</text>
<text x="481.31" y="227.17">.</text>
<text x="455.69" y="4.06">*</text>
<text x="167.53" y="393.70">+</text>
<text x="360.22" y="312.13">.</text>
<text x="330.74" y="486.47">+</text>
<text x="233.57" y="165.15">+</text>
<text x="165.42" y="141.40">.</text>
<text x="326.38" y="443.90">+</text>
<text x="24.97" y="286.64">+</text>
<text x="95.84" y="229.07">+</text>
<text x="332.48" y="371.06">.</text>
<text x="54.13" y="316.07">+</text>
<text x="378.33" y="312.77">.</text>
<text x="101.96" y="482.57">*</text>
<text x="485.65" y="104.30">*</text>
<text x="91.56" y="76.01">*</text>
<text x="22.99" y="129.70">*</text>
<text x="355.47" y="180.71">.</text>
<text x="149.36" y="130.35">*</text>
<text x="219.50" y="52.64">.</text>
<text x="95.70" y="231.63">*</text>
<text x="492.26" y="486.40">+</text>
<text x="20.48" y="377.22">.</text>
<text x="376.75" y="337.07">.</text>
<text x="94.72" y="380.30">.</text>
<text x="190.26" y="319.91">.</text>
<text x="87.61" y="499.73">+</text>
<text x="216.61" y="53.21">.</text>
<text x="20.70" y="396.95">.</text>
<text x="330.90" y="202.95">*</text>
<text x="478.66" y="99.50">+</text>
<text x="11.25" y="440.69">+</text>
<text x="41.33" y="1.52">.</text>
<text x="470.30" y="415.55">.</text>
<text x="394.91" y="173.06">.</text>
<text x="17.02" y="265.47">*</text>
<text x="459.80" y="141.45">.</text>
<text x="325.64" y="261.31">+</text>
<text x="95.87" y="53.84">+</text>
<text x="416.74" y="19.05">+</text>
<text x="136.53" y="131.76">.</text>
<text x="243.23" y="161.76">.</text>
<text x="148.92" y="1.38">.</text>
<text x="228.67" y="450.67">.</text>
<text x="43.03" y="252.51">.</text>
<text x="11.27" y="434.89">.</text>
<text x="415.63" y="365.73">.</text>
<text x="24.21" y="102.39">.</text>
<text x="225.66" y="92.42">.</text>
<text x="370.96" y="316.32">+</text>
<text x="212.41" y="432.96">+</text>
<text x="285.93" y="319.33">*</text>
<text x="371.62" y="279.43">+</text>
<text x="43.19" y="405.06">.</text>
<text x="43.45" y="129.80">+</text>
<text x="336.22" y="202.47">+</text>
<text x="181.33" y="429.65">+</text>
<text x="230.75" y="451.91">+</text>
<text x="291.63" y="86.67">+</text>
<text x="45.12" y="10.62">.</text>
<text x="162.49" y="10.94">.</text>
<text x="29.54" y="217.88">.</text>
<text x="241.87" y="21.71">.</text>
<text x="56.16" y="385.92">.</text>
<text x="213.91" y="258.46">.</text>
<text x="145.92" y="373.12">.</text>
<text x="329.12" y="327.56">*</text>
<text x="433.23" y="324.11">+</text>
<text x="248.48" y="72.28">.</text>
<text x="491.49" y="413.75">.</text>
<text x="15.76" y="42.91">+</text>
<text x="315.09" y="232.71">.</text>
<text x="320.47" y="128.37">+</text>
<text x="42.10" y="452.34">+</text>
<text x="119.78" y="462.38">.</text>
<text x="16.36" y="216.69">.</text>
<text x="422.79" y="384.94">.</text>
<text x="262.35" y="1.07">+</text>
<text x="92.17" y="267.75">.</text>
<text x="392.75" y="337.55">.</text>
<text x="117.35" y="238.41">*</text>
<text x="286.48" y="129.53">*</text>
<text x="117.01" y="237.10">*</text>
<text x="321.91" y="482.14">.</text>
<text x="342.10" y="250.03">.</text>
<text x="296.88" y="151.34">.</text>
<text x="216.54" y="269.40">*</text>
<text x="463.76" y="78.60">.</text>
<text x="467.66" y="393.57">+</text>
<text x="261.79" y="59.97">.</text>
<text x="478.81" y="478.12">*</text>
<text x="202.67" y="75.48">.</text>
<text x="456.53" y="393.98">.</text>
<text x="120.32" y="344.07">.</text>
<text x="334.30" y="469.82">.</text>
<text x="338.48" y="168.00">.</text>
<text x="302.26" y="269.89">.</text>
<text x="52.79" y="149.25">+</text>
<text x="115.75" y="276.60">+</text>
<text x="69.22" y="255.65">+</text>
<text x="436.84" y="241.50">.</text>
<text x="141.00" y="309.58">.</text>
<text x="268.79" y="91.88">+</text>
<text x="334.89" y="434.36">.</text>
<text x="334.09" y="301.36">*</text>
<text x="47.25" y="171.83">+</text>
<text x="390.20" y="40.07">.</text>
<text x="72.78" y="205.25">.</text>
<text x="344.95" y="234.99">+</text>
<text x="271.06" y="481.14">+</text>
<text x="441.97" y="53.64">*</text>
<text x="226.22" y="37.04">+</text>
<text x="32.94" y="64.87">+</text>
<text x="337.02" y="332.92">+</text>
<text x="206.99" y="258.93">*</text>
<text x="179.02" y="162.12">+</text>
<text x="85.77" y="261.32">+</text>
<text x="486.83" y="404.69">.</text>
<text x="135.38" y="183.46">*</text>
<text x="466.44" y="414.67">+</text>
<text x="119.15" y="230.18">*</text>
<text x="499.81" y="100.79">.</text>
<text x="357.70" y="346.73">*</text>
<text x="26.26" y="478.15">.</text>
<text x="194.98" y="83.42">.</text>
<text x="343.38" y="371.89">+</text>
<text x="314.69" y="49.51">+</text>
<text x="384.01" y="230.45">.</text>
<text x="417.61" y="264.76">+</text>
<text x="486.16" y="130.71">+</text>
<text x="413.52" y="44.46">.</text>
<text x="164.18" y="117.22">.</text>
<text x="334.45" y="107.81">+</text>
<text x="308.45" y="213.90">.</text>
<text x="101.77" y="251.82">+</text>
<text x="70.20" y="481.73">*</text>
<text x="494.35" y="477.78">+</text>
<text x="409.74" y="198.32">.</text>
<text x="179.59" y="310.11">.</text>
<text x="420.16" y="444.97">*</text>
<text x="381.29" y="9.57">+</text>
<text x="158.19" y="274.92">*</text>
<text x="459.26" y="355.03">+</text>
<text x="103.73" y="477.32">.</text>
<text x="238.09" y="234.96">+</text>
<text x="73.54" y="170.76">.</text>
<text x="401.10" y="474.99">.</text>
<text x="111.11" y="335.66">.</text>
<text x="325.59" y="157.21">.</text>
<text x="391.50" y="261.03">.</text>
<text x="347.04" y="116.85">+</text>
<text x="209.42" y="175.19">.</text>
<text x="166.01" y="192.10">.</text>
<text x="221.87" y="189.81">.</text>
<text x="249.03" y="395.13">+</text>
<text x="371.48" y="285.07">+</text>
<text x="138.35" y="234.25">*</text>
<text x="389.29" y="126.87">.</text>
<text x="320.71" y="85.30">.</text>
<text x="482.16" y="76.94">.</text>
<text x="457.41" y="125.77">+</text>
<text x="405.35" y="92.45">+</text>
<text x="437.30" y="442.33">.</text>
<text x="257.07" y="323.00">.</text>
<text x="261.28" y="24.11">.</text>
<text x="328.68" y="43.81">.</text>
<text x="280.47" y="168.38">.</text>
<text x="134.49" y="176.74">+</text>
<text x="53.78" y="12.51">+</text>
<text x="23.97" y="93.80">.</text>
<text x="473.99" y="107.81">+</text>
<text x="392.54" y="205.23">+</text>
<text x="133.44" y="454.15">+</text>
<text x="341.20" y="190.83">.</text>
<text x="445.29" y="440.77">.</text>
<text x="219.99" y="343.10">+</text>
<text x="122.71" y="421.86">.</text>
<text x="162.19" y="462.02">+</text>
<text x="289.65" y="365.99">+</text>
<text x="442.58" y="476.11">+</text>
<text x="102.87" y="450.64">+</text>
<text x="55.32" y="430.98">.</text>
<text x="180.55" y="409.46">+</text>
<text x="124.82" y="242.96">+</text>

</svg>