
<svg viewBox="0 0 500 500" xmlns="http://www.w.org/2000/svg" width="100%" height="100%" style="background-color: #0a0a14; font-family: 'Courier New', Courier, monospace;">
    <style>
        text { fill: #aaa; font-size: 10px; text-anchor: middle; dominant-baseline: middle; }
    </style>
    <text x="458.65" y="452.61">*</text>
<text x="222.77" y="113.12">+</text>
<text x="403.64" y="14.84">.</text>
<text x="221.03" y="236.18">*</text>
<text x="315.60" y="7.60">+</text>
<text x="245.92" y="263.89">*</text>
<text x="332.88" y="463.00">*</text>
<text x="333.71" y="109.48">.</text>
<text x="363.38" y="260.38">+</text>
<text x="306.90" y="83.98">+</text>
<text x="338.79" y="469.19">+</text>
<text x="235.97" y="312.93">.</text>
<text x="483.68" y="78.71">.</text>
<text x="68.63" y="315.89">+</text>
<text x="493.95" y="312.96">+</text>
<text x="71.62" y="167.78">.</text>
<text x="490.28" y="20.74">.</text>
<text x="411.53" y="175.87">.</text>
<text x="400.78" y="221.16">+</text>
<text x="482.95" y="351.96">+</text>
<text x="369.69" y="345.43">.</text>
<text x="55.53" y="170.36">.</text>
<text x="307.44" y="473.00">+</text>
<text x="53.19" y="372.60">.</text>
<text x="420.62" y="338.69">+</text>
<text x="7.79" y="395.99">.</text>
<text x="318.37" y="359.03">.</text>
<text x="146.68" y="17.61">.</text>
<text x="181.75" y="169.06">+</text>
<text x="396.13" y="404.82">+</text>
<text x="442.27" y="79.35">*</text>
<text x="229.90" y="182.12">.</text>
<text x="23.51" y="239.81">*</text>
<text x="446.65" y="401.06">.</text>
<text x="455.76" y="85.15">+</text>
<text x="212.74" y="177.22">.</text>
<text x="428.36" y="361.39">*</text>
<text x="200.88" y="223.25">*</text>
<text x="345.59" y="146.38">*</text>
<text x="320.11" y="222.99">.</text>
<text x="95.27" y="118.25">+</text>
<text x="406.10" y="84.78">*</text>
<text x="476.91" y="253.24">+</text>
<text x="194.90" y="471.06">+</text>
<text x="119.31" y="247.15">.</text>
<text x="109.89" y="327.19">+</text>
<text x="198.54" y="363.33">+</text>
<text x="229.44" y="205.53">+</text>
<text x="199.32" y="160.70">*</text>
<text x="97.89" y="121.93">.</text>
<text x="131.76" y="287.79">+</text>
<text x="283.15" y="489.30">.</text>
<text x="295.82" y="478.62">+</text>
<text x="433.59" y="171.41">*</text>
<text x="314.70" y="246.78">.</text>
<text x="180.98" y="327.38">*</text>
<text x="105.62" y="417.94">+</text>
<text x="50.68" y="289.62">+</text>
<text x="194.61" y="368.44">.</text>
<text x="414.31" y="360.95">.</text>
<text x="177.87" y="35.24">+</text>
<text x="385.53" y="461.84">.</text>
<text x="254.61" y="161.80">+</text>
<text x="34.89" y="311.65">.</text>
<text x="327.57" y="38.33">.</text>
<text x="465.01" y="459.19">*</text>
<text x="116.77" y="476.46">.</text>
<text x="453.01" y="226.24">.</text>
<text x="74.38" y="326.52">.</text>
<text x="99.05" y="337.07">*</text>
<text x="281.67" y="273.24">+</text>
<text x="488.91" y="322.82">+</text>
<text x="403.81" y="5.65">+</text>
<text x="257.69" y="376.29">.</text>
<text x="169.23" y="485.21">.</text>
<text x="434.60" y="427.50">*</text>
<text x="376.63" y="382.18">.</text>
<text x="311.41" y="324.55">+</text>
<text x="203.12" y="50.14">*</text>
<text x="200.34" y="491.10">+</text>
<text x="23.90" y="418.30">.</text>
<text x="30.52" y="248.01">+</text>
<text x="76.52" y="268.68">.</text>
<text x="254.78" y="216.03">.</text>
<text x="141.92" y="415.60">.</text>
<text x="259.68" y="489.63">.</text>
<text x="25.85" y="308.41">+</text>
<text x="238.61" y="92.57">+</text>
<text x="142.28" y="380.13">+</text>
<text x="20.76" y="218.64">+</text>
<text x="202.47" y="361.90">+</text>
<text x="66.50" y="201.85">+</text>
<text x="358.20" y="379.50">.</text>
<text x="212.04" y="418.45">+</text>
<text x="463.27" y="226.72">*</text>
<text x="2.08" y="252.77">*</text>
<text x="442.33" y="246.39">+</text>
<text x="46.98" y="160.10">+</text>
<text x="299.54" y="179.49">*</text>
<text x="61.03" y="459.38">.</text>
<text x="347.51" y="85.75">+</text>
<text x="382.54" y="493.38">*</text>
<text x="15.61" y="446.57">+</text>
<text x="346.77" y="488.56">.</text>
<text x="110.62" y="97.52">.</text>
<text x="495.55" y="395.49">.</text>
<text x="174.27" y="275.95">+</text>
<text x="221.05" y="21.36">+</text>
<text x="462.07" y="106.40">+</text>
<text x="115.18" y="377.75">+</text>
<text x="363.15" y="298.27">.</text>
<text x="220.11" y="56.23">+</text>
<text x="245.47" y="438.10">+</text>
<text x="185.43" y="499.75">.</text>
<text x="103.57" y="28.68">.</text>
<text x="283.85" y="354.64">.</text>
<text x="248.70" y="153.65">.</text>
<text x="233.34" y="417.26">.</text>
<text x="170.62" y="497.62">.</text>
<text x="345.14" y="109.86">+</text>
<text x="22.61" y="425.52">.</text>
<text x="378.43" y="157.03">.</text>
<text x="278.78" y="293.47">.</text>
<text x="202.55" y="149.11">+</text>
<text x="127.28" y="42.82">+</text>
<text x="156.27" y="320.81">+</text>
<text x="58.23" y="118.60">*</text>
<text x="160.85" y="158.99">+</text>
<text x="172.60" y="187.40">+</text>
<text x="411.44" y="125.50">.</text>
<text x="195.87" y="251.00">*</text>
<text x="322.91" y="318.80">.</text>
<text x="463.52" y="112.91">+</text>
<text x="283.34" y="269.71">.</text>
<text x="317.71" y="211.88">+</text>
<text x="44.25" y="466.69">*</text>
<text x="275.13" y="150.19">+</text>
<text x="251.62" y="455.40">.</text>
<text x="466.62" y="327.27">+</text>
<text x="355.43" y="67.69">.</text>
<text x="275.38" y="19.45">*</text>
<text x="481.45" y="482.58">.</text>
<text x="462.73" y="213.22">+</text>
<text x="300.73" y="266.10">+</text>
<text x="345.19" y="64.91">.</text>
<text x="116.38" y="413.58">+</text>
<text x="102.21" y="234.95">.</text>
<text x="472.60" y="59.80">+</text>
<text x="232.12" y="97.79">+</text>
<text x="478.62" y="374.08">*</text>
<text x="399.50" y="389.99">+</text>
<text x="348.86" y="472.31">+</text>
<text x="165.14" y="372.72">.</text>
<text x="61.33" y="107.25">*</text>
<text x="86.33" y="218.44">.</text>
<text x="8.37" y="77.50">+</text>
<text x="288.85" y="48.81">*</text>
<text x="339.05" y="481.50">.</text>
<text x="5.24" y="21.70">*</text>
<text x="84.30" y="136.47">.</text>
<text x="261.49" y="97.38">.</text>
<text x="148.43" y="354.64">+</text>
<text x="54.94" y="237.19">*</text>
<text x="299.25" y="106.44">.</text>
<text x="212.13" y="127.63">.</text>
<text x="229.09" y="210.19">*</text>
<text x="402.92" y="142.10">.</text>
<text x="179.87" y="382.17">+</text>
<text x="255.13" y="130.91">.</text>
<text x="80.83" y="15.83">+</text>
<text x="377.98" y="408.93">.</text>
<text x="213.71" y="67.69">*</text>
<text x="79.34" y="202.29">+</text>
<text x="70.21" y="16.89">*</text>
<text x="128.53" y="331.67">+</text>
<text x="190.05" y="441.54">*</text>
<text x="208.09" y="427.70">.</text>
<text x="290.41" y="136.71">+</text>
<text x="202.46" y="393.34">+</text>
<text x="281.50" y="53.64">+</text>
<text x="190.61" y="88.98">.</text>
<text x="147.96" y="175.75">.</text>
<text x="263.06" y="347.99">+</text>
<text x="1.41" y="289.69">+</text>
<text x="157.27" y="310.09">.</text>
<text x="77.72" y="376.51">.</text>
<text x="331.99" y="461.46">+</text>
<text x="236.36" y="60.62">*</text>
<text x="420.81" y="458.62">.</text>
<text x="162.09" y="164.90">+</text>
<text x="180.77" y="426.61">.</text>
<text x="417.51" y="361.13">+</text>
<text x="287.80" y="143.15">*</text>
<text x="426.40" y="417.28">.</text>
<text x="479.26" y="399.44">+</text>
<text x="368.81" y="395.55">.</text>
<text x="318.57" y="153.14">+</text>
<text x="449.99" y="18.72">.</text>
<text x="1.64" y="19.54">*</text>
<text x="89.15" y="205.50">.</text>
<text x="312.29" y="468.10">.</text>
<text x="57.00" y="319.48">*</text>
<text x="362.31" y="230.53">.</text>
<text x="420.17" y="385.51">+</text>
<text x="230.80" y="184.55">+</text>
<text x="467.69" y="329.72">+</text>
<text x="186.64" y="327.04">.</text>
<text x="371.04" y="134.92">+</text>
<text x="473.57" y="30.69">+</text>
<text x="423.14" y="259.13">+</text>
<text x="5.01" y="340.61">.</text>
<text x="467.38" y="101.73">.</text>
<text x="372.89" y="330.76">+</text>
<text x="183.86" y="162.97">.</text>
<text x="51.64" y="87.18">+</text>
<text x="396.81" y="363.93">+</text>
<text x="64.77" y="319.53">+</text>
<text x="276.06" y="118.09">+</text>
<text x="286.49" y="326.31">+</text>
<text x="230.28" y="450.46">+</text>
<text x="423.92" y="391.95">+</text>
<text x="60.25" y="462.97">+</text>
<text x="495.84" y="92.32">+</text>
<text x="308.84" y="71.32">.</text>
<text x="188.82" y="79.24">+</text>
<text x="283.10" y="91.00">.</text>

</svg>