
<svg viewBox="0 0 500 500" xmlns="http://www.w.org/2000/svg" width="100%" height="100%" style="background-color: #0a0a14; font-family: 'Courier New', Courier, monospace;">
    <style>
        text { fill: #aaa; font-size: 10px; text-anchor: middle; dominant-baseline: middle; }
    </style>
    <text x="26.32" y="399.77">.</text>
<text x="207.52" y="83.37">+</text>
<text x="498.54" y="388.44">.</text>
<text x="332.55" y="242.22">+</text>
<text x="105.14" y="35.50">.</text>
<text x="483.43" y="197.08">*</text>
<text x="39.62" y="69.97">*</text>
<text x="261.26" y="231.30">+</text>
<text x="124.67" y="147.27">+</text>
<text x="72.37" y="372.51">.</text>
<text x="432.86" y="228.71">.</text>
<text x="94.31" y="215.30">.</text>
<text x="2.10" y="215.16">.</text>
<text x="70.80" y="88.09">+</text>
<text x="226.13" y="256.02">+</text>
<text x="434.31" y="266.14">+</text>
<text x="167.54" y="268.34">+</text>
<text x="35.42" y="158.39">.</text>
<text x="404.95" y="244.35">+</text>
<text x="316.88" y="444.55">+</text>
<text x="487.80" y="469.58">+</text>
<text x="346.00" y="12.90">.</text>
<text x="393.65" y="53.92">+</text>
<text x="217.47" y="320.04">.</text>
<text x="97.72" y="148.43">.</text>
<text x="151.88" y="345.06">+</text>
<text x="422.26" y="307.16">+</text>
<text x="80.33" y="157.98">+</text>
<text x="418.79" y="50.71">.</text>
<text x="65.15" y="474.06">*</text>
<text x="483.05" y="480.22">.</text>
<text x="109.36" y="205.25">+</text>
<text x="132.74" y="24.88">.</text>
<text x="193.99" y="195.94">+</text>
<text x="499.96" y="47.31">.</text>
<text x="478.30" y="97.76">.</text>
<text x="255.42" y="243.43">.</text>
<text x="226.26" y="449.57">.</text>
<text x="199.12" y="388.66">.</text>
<text x="168.33" y="328.63">+</text>
<text x="28.95" y="490.36">+</text>
<text x="283.60" y="353.05">.</text>
<text x="140.25" y="321.33">.</text>
<text x="166.78" y="176.01">.</text>
<text x="425.57" y="33.80">.</text>
<text x="166.53" y="325.32">.</text>
<text x="217.04" y="322.63">.</text>
<text x="30.49" y="482.45">+</text>
<text x="118.32" y="128.80">.</text>
<text x="26.17" y="116.83">+</text>
<text x="268.20" y="246.10">+</text>
<text x="499.35" y="312.98">.</text>
<text x="130.00" y="65.74">.</text>
<text x="495.76" y="228.72">+</text>
<text x="266.86" y="58.37">+</text>
<text x="261.69" y="411.13">+</text>
<text x="253.66" y="289.29">.</text>
<text x="34.87" y="360.47">+</text>
<text x="436.05" y="163.17">.</text>
<text x="470.15" y="50.17">+</text>
<text x="467.49" y="221.22">+</text>
<text x="64.64" y="451.18">*</text>
<text x="499.19" y="81.28">.</text>
<text x="290.58" y="411.42">+</text>
<text x="286.58" y="278.07">+</text>
<text x="320.68" y="326.96">+</text>
<text x="404.52" y="10.53">+</text>
<text x="298.40" y="489.79">+</text>
<text x="383.73" y="238.91">+</text>
<text x="315.11" y="49.32">.</text>
<text x="380.39" y="15.28">+</text>
<text x="167.17" y="382.05">.</text>
<text x="446.58" y="472.09">*</text>
<text x="346.25" y="437.87">*</text>
<text x="209.35" y="494.47">.</text>
<text x="148.83" y="445.34">.</text>
<text x="387.97" y="206.14">+</text>
<text x="18.67" y="242.78">.</text>
<text x="374.80" y="299.69">+</text>
<text x="359.93" y="48.41">.</text>
<text x="250.27" y="261.44">*</text>
<text x="63.37" y="448.21">*</text>
<text x="444.79" y="44.37">.</text>
<text x="128.34" y="245.67">.</text>
<text x="223.43" y="332.94">.</text>
<text x="52.89" y="468.32">.</text>
<text x="406.43" y="27.81">+</text>
<text x="350.40" y="50.32">+</text>
<text x="431.61" y="156.94">+</text>
<text x="475.50" y="190.77">+</text>
<text x="439.19" y="50.74">.</text>
<text x="334.87" y="319.74">+</text>
<text x="491.12" y="95.07">+</text>
<text x="161.28" y="208.46">.</text>
<text x="493.67" y="306.95">*</text>
<text x="253.34" y="6.57">+</text>
<text x="397.85" y="389.47">.</text>
<text x="158.33" y="325.56">.</text>
<text x="16.90" y="283.21">.</text>
<text x="365.41" y="100.60">.</text>
<text x="215.88" y="126.54">+</text>
<text x="329.63" y="293.24">.</text>
<text x="442.76" y="334.76">+</text>
<text x="32.62" y="83.42">*</text>
<text x="333.99" y="99.92">.</text>
<text x="202.63" y="188.38">+</text>
<text x="355.96" y="171.32">.</text>
<text x="61.58" y="238.01">*</text>
<text x="22.39" y="2.37">.</text>
<text x="100.62" y="54.74">.</text>
<text x="23.20" y="272.27">.</text>
<text x="303.06" y="103.68">+</text>
<text x="27.10" y="53.68">.</text>
<text x="120.58" y="498.73">*</text>
<text x="465.61" y="254.78">*</text>
<text x="333.46" y="251.29">+</text>
<text x="470.20" y="467.28">+</text>
<text x="58.76" y="470.53">*</text>
<text x="139.42" y="0.16">+</text>
<text x="293.52" y="461.96">.</text>
<text x="396.89" y="289.28">.</text>
<text x="92.84" y="374.21">.</text>
<text x="188.51" y="155.83">+</text>
<text x="272.64" y="232.90">+</text>
<text x="447.16" y="489.34">*</text>
<text x="394.69" y="341.32">+</text>
<text x="85.79" y="266.85">+</text>
<text x="393.73" y="360.38">.</text>
<text x="172.84" y="128.60">.</text>
<text x="121.74" y="491.38">+</text>
<text x="65.57" y="399.86">*</text>
<text x="41.48" y="487.36">.</text>
<text x="0.93" y="409.61">*</text>
<text x="124.82" y="460.43">.</text>
<text x="410.76" y="271.06">.</text>
<text x="468.71" y="184.22">+</text>
<text x="484.77" y="403.11">.</text>
<text x="288.48" y="136.62">+</text>
<text x="397.80" y="385.00">+</text>
<text x="373.97" y="338.18">+</text>
<text x="441.56" y="412.32">.</text>
<text x="256.48" y="216.40">.</text>
<text x="125.44" y="208.74">+</text>
<text x="225.12" y="67.47">+</text>
<text x="318.52" y="339.34">+</text>
<text x="327.57" y="271.79">*</text>
<text x="66.92" y="278.74">.</text>
<text x="169.81" y="336.35">*</text>
<text x="354.45" y="347.81">+</text>
<text x="230.37" y="218.82">*</text>
<text x="393.80" y="412.94">+</text>
<text x="477.05" y="186.02">+</text>
<text x="404.27" y="192.30">.</text>
<text x="151.69" y="150.56">*</text>
<text x="145.47" y="178.22">.</text>
<text x="17.38" y="193.53">.</text>
<text x="368.98" y="291.08">.</text>
<text x="273.63" y="72.62">+</text>
<text x="64.54" y="185.36">*</text>
<text x="110.58" y="82.65">+</text>
<text x="48.14" y="34.07">+</text>
<text x="362.30" y="473.89">+</text>
<text x="434.41" y="426.29">*</text>
<text x="430.05" y="290.36">.</text>
<text x="30.96" y="453.47">+</text>
<text x="16.92" y="312.64">+</text>
<text x="215.50" y="140.95">+</text>
<text x="355.46" y="148.23">+</text>
<text x="16.66" y="345.10">+</text>
<text x="458.48" y="39.13">+</text>
<text x="344.36" y="157.44">*</text>
<text x="71.50" y="8.64">+</text>
<text x="455.83" y="495.40">.</text>
<text x="362.95" y="329.20">.</text>
<text x="324.67" y="1.92">+</text>
<text x="434.69" y="301.19">.</text>
<text x="403.77" y="467.04">+</text>
<text x="38.18" y="496.44">+</text>
<text x="67.44" y="138.61">*</text>
<text x="451.46" y="371.26">+</text>
<text x="147.52" y="73.18">.</text>
<text x="216.18" y="189.29">+</text>
<text x="435.86" y="116.29">.</text>
<text x="101.03" y="93.99">+</text>
<text x="393.65" y="183.57">*</text>
<text x="147.04" y="121.34">+</text>
<text x="321.90" y="350.77">.</text>
<text x="397.16" y="115.29">.</text>
<text x="213.66" y="294.66">.</text>
<text x="392.20" y="110.64">.</text>
<text x="50.78" y="389.64">.</text>
<text x="181.76" y="361.60">+</text>
<text x="1.94" y="483.71">.</text>
<text x="454.64" y="214.88">.</text>
<text x="223.07" y="402.62">+</text>
<text x="188.19" y="275.95">.</text>
<text x="110.91" y="205.52">.</text>
<text x="445.01" y="269.33">+</text>
<text x="316.00" y="245.54">.</text>
<text x="231.57" y="446.89">+</text>
<text x="327.36" y="497.86">.</text>
<text x="302.29" y="225.87">*</text>
<text x="349.69" y="108.27">.</text>
<text x="295.19" y="292.07">+</text>
<text x="178.22" y="467.62">+</text>
<text x="203.58" y="87.55">+</text>
<text x="187.78" y="461.02">.</text>
<text x="281.26" y="496.80">.</text>
<text x="308.60" y="302.21">+</text>
<text x="237.24" y="339.44">.</text>
<text x="235.72" y="405.82">+</text>
<text x="131.41" y="205.44">+</text>
<text x="372.04" y="425.65">.</text>
<text x="223.21" y="428.17">*</text>

</svg>