
<svg viewBox="0 0 500 500" xmlns="http://www.w.org/2000/svg" width="100%" height="100%" style="background-color: #0a0a14; font-family: 'Courier New', Courier, monospace;">
    <style>
        text { fill: #aaa; font-size: 10px; text-anchor: middle; dominant-baseline: middle; }
    </style>
    <text x="295.52" y="59.92">+</text>
<text x="434.78" y="7.75">*</text>
<text x="364.17" y="24.03">.</text>
<text x="215.75" y="489.03">.</text>
<text x="44.30" y="496.83">+</text>
<text x="15.72" y="46.36">.</text>
<text x="231.09" y="73.26">.</text>
<text x="411.90" y="298.63">.</text>
<text x="398.62" y="199.17">+</text>
<text x="213.40" y="230.89">+</text>
<text x="378.27" y="199.28">.</text>
<text x="153.50" y="481.61">+</text>
<text x="229.74" y="284.39">.</text>
<text x="66.86" y="77.16">+</text>
<text x="270.03" y="136.02">+</text>
<text x="61.19" y="52.66">*</text>
<text x="342.36" y="472.40">+</text>
<text x="134.41" y="397.75">+</text>
<text x="437.88" y="122.42">*</text>
<text x="85.43" y="131.65">*</text>
<text x="12.09" y="480.39">+</text>
<text x="9.71" y="400.69">+</text>
<text x="445.80" y="298.47">*</text>
<text x="125.22" y="212.40">.</text>
<text x="347.43" y="267.96">*</text>
<text x="366.94" y="77.23">*</text>
<text x="58.47" y="202.03">.</text>
<text x="458.77" y="56.16">*</text>
<text x="93.13" y="158.63">+</text>
<text x="170.29" y="69.88">.</text>
<text x="496.48" y="119.12">*</text>
<text x="325.98" y="223.69">.</text>
<text x="9.23" y="364.74">+</text>
<text x="155.68" y="252.37">.</text>
<text x="96.41" y="290.88">*</text>
<text x="248.93" y="117.25">.</text>
<text x="366.61" y="49.56">.</text>
<text x="62.63" y="189.21">.</text>
<text x="41.24" y="133.11">.</text>
<text x="260.59" y="460.94">+</text>
<text x="297.14" y="128.48">+</text>
<text x="146.73" y="174.04">.</text>
<text x="275.80" y="4.73">+</text>
<text x="276.76" y="246.47">.</text>
<text x="213.32" y="62.33">*</text>
<text x="202.50" y="434.73">.</text>
<text x="230.59" y="264.08">+</text>
<text x="284.00" y="293.00">+</text>
<text x="8.92" y="442.59">.</text>
<text x="242.21" y="40.30">*</text>
<text x="67.28" y="134.02">+</text>
<text x="333.20" y="476.37">*</text>
<text x="116.16" y="205.16">.</text>
<text x="445.64" y="346.54">*</text>
<text x="91.39" y="86.55">.</text>
<text x="182.11" y="35.24">+</text>
<text x="439.83" y="203.55">.</text>
<text x="131.16" y="285.09">.</text>
<text x="91.05" y="157.64">+</text>
<text x="29.00" y="207.45">*</text>
<text x="88.53" y="18.37">.</text>
<text x="106.32" y="304.78">+</text>
<text x="395.41" y="492.50">+</text>
<text x="379.22" y="97.24">+</text>
<text x="273.59" y="43.16">.</text>
<text x="457.68" y="146.16">.</text>
<text x="347.86" y="270.30">.</text>
<text x="59.98" y="160.77">+</text>
<text x="230.80" y="122.07">.</text>
<text x="167.64" y="414.66">+</text>
<text x="172.30" y="353.71">.</text>
<text x="100.28" y="239.37">.</text>
<text x="478.79" y="208.75">+</text>
<text x="362.97" y="243.07">.</text>
<text x="194.55" y="443.11">.</text>
<text x="348.19" y="265.09">+</text>
<text x="6.21" y="387.96">+</text>
<text x="348.25" y="247.13">.</text>
<text x="75.43" y="366.71">.</text>
<text x="388.76" y="416.50">.</text>
<text x="368.40" y="112.36">*</text>
<text x="241.92" y="381.68">+</text>
<text x="390.99" y="345.03">*</text>
<text x="138.19" y="71.81">.</text>
<text x="461.94" y="62.60">.</text>
<text x="293.83" y="9.64">.</text>
<text x="413.81" y="434.16">+</text>
<text x="191.59" y="196.57">+</text>
<text x="377.59" y="308.34">.</text>
<text x="0.30" y="401.72">+</text>
<text x="213.61" y="316.06">.</text>
<text x="355.61" y="101.54">*</text>
<text x="358.84" y="361.03">*</text>
<text x="391.20" y="403.55">.</text>
<text x="285.01" y="215.04">.</text>
<text x="234.69" y="487.07">.</text>
<text x="87.88" y="495.64">.</text>
<text x="357.33" y="273.27">+</text>
<text x="131.43" y="104.56">+</text>
<text x="67.21" y="169.22">.</text>
<text x="172.25" y="89.36">.</text>
<text x="408.33" y="409.85">.</text>
<text x="417.74" y="345.78">.</text>
<text x="304.03" y="400.64">.</text>
<text x="118.50" y="170.56">*</text>
<text x="84.98" y="456.93">+</text>
<text x="19.33" y="305.07">.</text>
<text x="199.61" y="18.04">.</text>
<text x="104.52" y="109.70">+</text>
<text x="373.09" y="274.14">+</text>
<text x="469.64" y="103.48">+</text>
<text x="282.10" y="37.47">+</text>
<text x="299.54" y="135.42">*</text>
<text x="212.16" y="271.32">+</text>
<text x="308.20" y="465.70">.</text>
<text x="308.19" y="293.25">.</text>
<text x="317.61" y="126.88">+</text>
<text x="186.12" y="76.04">+</text>
<text x="368.73" y="185.43">.</text>
<text x="353.46" y="42.52">+</text>
<text x="425.16" y="31.36">+</text>
<text x="47.06" y="392.79">.</text>
<text x="280.08" y="493.75">*</text>
<text x="118.51" y="195.46">.</text>
<text x="239.49" y="70.29">+</text>
<text x="312.54" y="420.47">*</text>
<text x="492.49" y="448.58">*</text>
<text x="446.23" y="377.09">.</text>
<text x="51.47" y="43.03">.</text>
<text x="288.97" y="117.61">.</text>
<text x="72.94" y="28.64">+</text>
<text x="28.48" y="378.22">.</text>
<text x="261.37" y="119.08">+</text>
<text x="144.86" y="177.55">+</text>
<text x="243.70" y="68.17">.</text>
<text x="166.29" y="387.85">.</text>
<text x="243.95" y="202.96">+</text>
<text x="379.75" y="262.64">.</text>
<text x="495.08" y="416.38">.</text>
<text x="427.40" y="304.76">.</text>
<text x="483.90" y="106.49">.</text>
<text x="95.47" y="325.64">.</text>
<text x="29.33" y="324.74">+</text>
<text x="441.73" y="424.10">*</text>
<text x="46.30" y="390.62">.</text>
<text x="371.35" y="480.26">+</text>
<text x="88.26" y="305.25">*</text>
<text x="248.90" y="445.34">+</text>
<text x="254.26" y="475.50">.</text>
<text x="6.06" y="315.65">+</text>
<text x="57.20" y="333.34">.</text>
<text x="119.02" y="274.54">.</text>
<text x="113.60" y="356.73">.</text>
<text x="93.56" y="47.13">+</text>
<text x="403.08" y="486.26">*</text>
<text x="92.82" y="113.15">.</text>
<text x="81.81" y="120.26">*</text>
<text x="186.19" y="33.95">.</text>
<text x="38.59" y="108.08">.</text>
<text x="247.69" y="405.13">*</text>
<text x="159.48" y="2.73">.</text>
<text x="76.96" y="376.35">+</text>
<text x="426.04" y="471.30">+</text>
<text x="4.21" y="494.27">+</text>
<text x="272.88" y="281.37">.</text>
<text x="341.32" y="198.04">+</text>
<text x="272.13" y="132.74">.</text>
<text x="136.55" y="114.17">*</text>
<text x="159.25" y="409.44">*</text>
<text x="64.90" y="77.55">+</text>
<text x="117.08" y="148.24">+</text>
<text x="201.92" y="327.68">+</text>
<text x="433.11" y="177.44">*</text>
<text x="288.13" y="410.17">*</text>
<text x="343.56" y="272.80">+</text>
<text x="391.63" y="73.57">+</text>
<text x="497.55" y="310.83">+</text>
<text x="366.69" y="351.21">.</text>
<text x="31.01" y="193.16">+</text>
<text x="327.42" y="349.20">.</text>
<text x="482.73" y="163.39">.</text>
<text x="352.58" y="37.23">*</text>
<text x="233.60" y="461.69">.</text>
<text x="32.05" y="138.85">+</text>
<text x="232.07" y="72.45">.</text>
<text x="451.26" y="244.97">*</text>
<text x="180.77" y="399.59">+</text>
<text x="222.12" y="404.55">.</text>
<text x="88.43" y="389.32">+</text>
<text x="391.77" y="28.52">.</text>
<text x="380.66" y="266.86">+</text>
<text x="60.10" y="366.46">*</text>
<text x="69.53" y="459.95">.</text>
<text x="50.00" y="63.77">+</text>
<text x="459.19" y="11.05">.</text>
<text x="398.83" y="287.98">+</text>
<text x="322.86" y="133.55">.</text>
<text x="413.40" y="145.09">*</text>
<text x="327.33" y="427.47">+</text>
<text x="29.33" y="457.78">.</text>
<text x="278.23" y="17.66">.</text>
<text x="12.94" y="283.64">.</text>
<text x="460.57" y="160.66">.</text>
<text x="330.99" y="434.94">+</text>
<text x="144.74" y="186.89">.</text>
<text x="311.60" y="19.68">.</text>
<text x="412.62" y="75.90">.</text>
<text x="381.88" y="23.72">*</text>
<text x="215.54" y="7.74">+</text>
<text x="450.65" y="454.02">*</text>
<text x="305.72" y="473.35">+</text>

</svg>