
<svg viewBox="0 0 500 500" xmlns="http://www.w.org/2000/svg" width="100%" height="100%" style="background-color: #0a0a14; font-family: 'Courier New', Courier, monospace;">
    <style>
        text { fill: #aaa; font-size: 10px; text-anchor: middle; dominant-baseline: middle; }
    </style>
    <text x="56.91" y="29.85">+</text>
<text x="118.34" y="363.54">*</text>
<text x="392.65" y="64.01">.</text>
<text x="25.11" y="150.28">.</text>
<text x="398.48" y="130.36">.</text>
<text x="453.66" y="413.16">*</text>
<text x="175.98" y="89.76">*</text>
<text x="338.40" y="343.61">.</text>
<text x="178.58" y="164.89">*</text>
<text x="193.38" y="242.64">*</text>
<text x="344.24" y="427.62">.</text>
<text x="268.98" y="438.27">*</text>
<text x="264.58" y="214.56">+</text>
<text x="169.78" y="69.97">*</text>
<text x="199.40" y="25.99">+</text>
<text x="380.21" y="157.09">+</text>
<text x="165.67" y="315.31">.</text>
<text x="133.48" y="360.37">.</text>
<text x="128.35" y="448.20">+</text>
<text x="196.62" y="496.62">+</text>
<text x="208.82" y="20.00">.</text>
<text x="457.03" y="29.81">.</text>
<text x="57.23" y="244.34">*</text>
<text x="214.79" y="187.87">.</text>
<text x="302.54" y="288.20">.</text>
<text x="77.23" y="144.52">+</text>
<text x="479.19" y="293.61">+</text>
<text x="434.89" y="231.82">*</text>
<text x="90.89" y="304.25">*</text>
<text x="445.33" y="362.82">+</text>
<text x="449.25" y="55.60">.</text>
<text x="99.98" y="200.92">.</text>
<text x="150.84" y="199.69">*</text>
<text x="102.46" y="167.90">*</text>
<text x="268.81" y="351.77">+</text>
<text x="169.64" y="486.97">+</text>
<text x="372.67" y="421.74">.</text>
<text x="191.50" y="67.78">.</text>
<text x="323.92" y="425.77">*</text>
<text x="423.57" y="349.34">+</text>
<text x="1.76" y="405.93">+</text>
<text x="155.21" y="394.88">*</text>
<text x="496.99" y="396.59">*</text>
<text x="253.33" y="213.88">.</text>
<text x="433.41" y="39.28">+</text>
<text x="393.98" y="154.44">+</text>
<text x="282.01" y="84.43">+</text>
<text x="119.65" y="127.90">+</text>
<text x="254.17" y="59.72">+</text>
<text x="209.82" y="86.46">.</text>
<text x="275.38" y="431.70">.</text>
<text x="398.01" y="155.40">+</text>
<text x="276.56" y="258.24">.</text>
<text x="334.14" y="288.59">+</text>
<text x="179.49" y="126.43">+</text>
<text x="146.03" y="17.77">.</text>
<text x="469.52" y="81.94">.</text>
<text x="330.76" y="438.65">.</text>
<text x="328.51" y="174.59">*</text>
<text x="63.32" y="286.18">.</text>
<text x="493.11" y="97.25">+</text>
<text x="196.41" y="69.63">+</text>
<text x="319.70" y="288.80">+</text>
<text x="317.52" y="298.61">*</text>
<text x="468.49" y="458.84">.</text>
<text x="486.54" y="210.36">*</text>
<text x="407.91" y="46.23">.</text>
<text x="107.50" y="197.23">.</text>
<text x="301.70" y="160.98">.</text>
<text x="393.15" y="151.06">*</text>
<text x="79.81" y="324.37">+</text>
<text x="212.40" y="141.27">.</text>
<text x="285.95" y="421.84">.</text>
<text x="160.09" y="431.64">.</text>
<text x="104.52" y="56.12">.</text>
<text x="139.29" y="145.55">*</text>
<text x="491.76" y="12.75">*</text>
<text x="0.26" y="109.87">+</text>
<text x="222.08" y="262.34">*</text>
<text x="390.86" y="387.10">+</text>
<text x="174.46" y="269.78">.</text>
<text x="209.93" y="244.56">*</text>
<text x="43.91" y="463.71">*</text>
<text x="135.81" y="37.11">*</text>
<text x="86.78" y="178.69">+</text>
<text x="347.62" y="198.23">*</text>
<text x="160.80" y="337.74">*</text>
<text x="133.34" y="272.97">+</text>
<text x="45.42" y="427.19">+</text>
<text x="67.54" y="39.59">+</text>
<text x="315.26" y="420.86">*</text>
<text x="449.85" y="83.09">+</text>
<text x="359.46" y="313.17">+</text>
<text x="108.49" y="153.58">*</text>
<text x="172.19" y="175.56">.</text>
<text x="34.82" y="283.51">.</text>
<text x="198.82" y="28.57">*</text>
<text x="205.72" y="450.52">.</text>
<text x="392.25" y="361.18">.</text>
<text x="136.32" y="210.43">+</text>
<text x="360.84" y="319.76">+</text>
<text x="138.43" y="453.26">*</text>
<text x="101.35" y="457.31">+</text>
<text x="382.86" y="229.34">*</text>
<text x="284.28" y="447.86">+</text>
<text x="341.63" y="495.64">*</text>
<text x="428.17" y="273.32">*</text>
<text x="267.37" y="242.92">.</text>
<text x="34.48" y="496.72">.</text>
<text x="299.03" y="283.49">+</text>
<text x="392.72" y="435.59">+</text>
<text x="36.29" y="443.96">.</text>
<text x="112.94" y="24.75">.</text>
<text x="88.17" y="404.35">*</text>
<text x="368.93" y="157.50">+</text>
<text x="301.03" y="347.19">*</text>
<text x="60.21" y="211.55">.</text>
<text x="158.81" y="147.02">+</text>
<text x="20.32" y="228.00">.</text>
<text x="144.45" y="484.88">.</text>
<text x="132.51" y="75.44">.</text>
<text x="190.61" y="164.69">.</text>
<text x="216.09" y="462.39">.</text>
<text x="12.01" y="305.21">.</text>
<text x="415.47" y="367.15">.</text>
<text x="211.10" y="111.89">.</text>
<text x="189.97" y="191.17">+</text>
<text x="119.57" y="150.47">+</text>
<text x="82.71" y="64.98">.</text>
<text x="258.49" y="459.64">+</text>
<text x="206.16" y="171.94">+</text>
<text x="68.87" y="379.82">.</text>
<text x="215.95" y="184.81">+</text>
<text x="172.30" y="309.28">*</text>
<text x="296.90" y="303.97">+</text>
<text x="215.16" y="303.50">+</text>
<text x="119.73" y="162.06">*</text>
<text x="232.59" y="224.73">.</text>
<text x="496.93" y="336.96">.</text>
<text x="362.78" y="81.29">+</text>
<text x="247.35" y="38.73">+</text>
<text x="462.30" y="247.69">.</text>
<text x="295.88" y="258.53">.</text>
<text x="327.21" y="52.63">.</text>
<text x="73.87" y="462.97">+</text>
<text x="372.74" y="224.18">.</text>
<text x="194.58" y="9.57">.</text>
<text x="437.15" y="55.39">.</text>
<text x="62.89" y="447.56">*</text>
<text x="454.88" y="298.72">+</text>
<text x="104.62" y="487.93">+</text>
<text x="160.27" y="54.15">+</text>
<text x="243.51" y="194.41">*</text>
<text x="306.27" y="371.87">+</text>
<text x="189.87" y="56.29">.</text>
<text x="108.59" y="212.17">+</text>
<text x="269.07" y="2.05">.</text>
<text x="220.23" y="130.96">*</text>
<text x="182.25" y="170.76">+</text>
<text x="497.39" y="226.40">*</text>
<text x="359.58" y="134.49">+</text>
<text x="453.54" y="57.34">.</text>
<text x="340.00" y="271.78">.</text>
<text x="493.45" y="337.61">.</text>
<text x="30.88" y="153.70">+</text>
<text x="254.68" y="259.19">*</text>
<text x="462.14" y="381.32">.</text>
<text x="146.53" y="80.91">*</text>
<text x="219.73" y="194.35">.</text>
<text x="92.58" y="100.66">+</text>
<text x="182.62" y="277.71">+</text>
<text x="247.48" y="195.89">*</text>
<text x="21.18" y="311.95">.</text>
<text x="157.51" y="388.52">*</text>
<text x="475.40" y="126.36">+</text>
<text x="397.10" y="494.92">+</text>
<text x="170.99" y="8.03">+</text>
<text x="485.11" y="51.81">.</text>
<text x="441.64" y="279.60">+</text>
<text x="491.67" y="4.51">.</text>
<text x="299.08" y="196.44">.</text>
<text x="270.72" y="344.18">*</text>
<text x="462.15" y="404.27">.</text>
<text x="152.80" y="389.34">*</text>
<text x="370.46" y="362.50">+</text>
<text x="388.87" y="131.03">.</text>
<text x="483.84" y="322.75">*</text>
<text x="488.45" y="237.92">.</text>
<text x="208.93" y="275.50">.</text>
<text x="446.45" y="377.05">.</text>
<text x="59.03" y="441.12">.</text>
<text x="303.26" y="220.04">+</text>
<text x="359.74" y="338.85">+</text>
<text x="149.23" y="83.82">*</text>
<text x="432.55" y="496.50">.</text>
<text x="33.49" y="114.31">.</text>
<text x="44.15" y="212.27">+</text>
<text x="257.05" y="168.77">.</text>
<text x="311.34" y="444.09">.</text>
<text x="389.44" y="336.34">.</text>
<text x="234.64" y="279.27">.</text>
<text x="467.16" y="152.84">*</text>
<text x="276.29" y="451.30">.</text>
<text x="173.77" y="97.63">+</text>
<text x="409.53" y="17.85">*</text>
<text x="452.44" y="264.92">*</text>
<text x="43.49" y="227.36">.</text>
<text x="264.54" y="103.81">.</text>
<text x="57.15" y="404.15">+</text>
<text x="478.28" y="228.05">.</text>
<text x="86.95" y="143.34">.</text>
<text x="178.42" y="8.10">*</text>
<text x="360.71" y="304.31">+</text>
<text x="133.21" y="163.05">.</text>
<text x="251.83" y="6.99">+</text>

</svg>