
<svg viewBox="0 0 500 500" xmlns="http://www.w.org/2000/svg" width="100%" height="100%" style="background-color: #0a0a14; font-family: 'Courier New', Courier, monospace;">
    <style>
        text { fill: #aaa; font-size: 10px; text-anchor: middle; dominant-baseline: middle; }
    </style>
    <text x="330.02" y="127.92">.</text>
<text x="38.19" y="236.91">.</text>
<text x="377.98" y="498.09">.</text>
<text x="143.25" y="366.23">+</text>
<text x="44.12" y="176.11">+</text>
<text x="356.52" y="344.84">.</text>
<text x="174.81" y="271.88">+</text>
<text x="13.62" y="457.91">+</text>
<text x="307.42" y="424.36">.</text>
<text x="207.19" y="368.31">+</text>
<text x="356.35" y="86.90">*</text>
<text x="312.96" y="297.96">+</text>
<text x="498.51" y="460.25">.</text>
<text x="199.65" y="266.04">+</text>
<text x="163.34" y="313.31">*</text>
<text x="175.98" y="88.82">+</text>
<text x="67.45" y="196.57">+</text>
<text x="488.04" y="474.00">*</text>
<text x="86.73" y="167.85">.</text>
<text x="408.43" y="413.58">.</text>
<text x="47.41" y="130.13">.</text>
<text x="304.52" y="287.09">.</text>
<text x="18.53" y="412.66">+</text>
<text x="61.02" y="440.05">+</text>
<text x="61.61" y="147.69">+</text>
<text x="106.57" y="315.25">+</text>
<text x="295.60" y="61.58">*</text>
<text x="142.75" y="228.17">.</text>
<text x="202.62" y="279.28">+</text>
<text x="96.60" y="82.93">*</text>
<text x="373.85" y="30.08">.</text>
<text x="284.32" y="58.13">.</text>
<text x="64.79" y="387.80">.</text>
<text x="345.66" y="332.09">+</text>
<text x="16.93" y="275.32">+</text>
<text x="360.09" y="402.17">.</text>
<text x="392.95" y="143.97">.</text>
<text x="153.61" y="380.89">*</text>
<text x="396.07" y="33.32">.</text>
<text x="180.96" y="377.07">+</text>
<text x="98.09" y="368.06">+</text>
<text x="181.56" y="178.74">.</text>
<text x="408.70" y="297.98">.</text>
<text x="241.27" y="58.69">.</text>
<text x="449.90" y="138.98">*</text>
<text x="85.83" y="426.51">.</text>
<text x="79.75" y="352.94">*</text>
<text x="400.68" y="16.79">*</text>
<text x="462.72" y="362.18">+</text>
<text x="372.48" y="467.42">.</text>
<text x="481.15" y="200.54">.</text>
<text x="325.57" y="457.01">.</text>
<text x="80.50" y="284.67">*</text>
<text x="97.02" y="90.93">.</text>
<text x="163.67" y="499.72">.</text>
<text x="338.58" y="220.11">+</text>
<text x="26.97" y="473.81">+</text>
<text x="286.06" y="89.71">.</text>
<text x="168.03" y="260.15">+</text>
<text x="361.29" y="392.83">*</text>
<text x="271.22" y="100.48">.</text>
<text x="133.48" y="470.50">+</text>
<text x="249.87" y="32.08">+</text>
<text x="119.61" y="146.71">+</text>
<text x="196.67" y="216.44">+</text>
<text x="243.46" y="196.27">+</text>
<text x="327.05" y="54.96">*</text>
<text x="211.88" y="457.72">+</text>
<text x="320.27" y="16.16">+</text>
<text x="216.25" y="156.16">*</text>
<text x="32.76" y="362.27">+</text>
<text x="155.40" y="282.54">.</text>
<text x="447.90" y="223.88">+</text>
<text x="348.79" y="264.23">+</text>
<text x="428.15" y="330.02">+</text>
<text x="226.05" y="295.08">.</text>
<text x="35.12" y="13.32">.</text>
<text x="443.22" y="322.59">*</text>
<text x="118.83" y="333.43">.</text>
<text x="175.99" y="291.73">+</text>
<text x="191.67" y="155.90">+</text>
<text x="73.53" y="129.93">*</text>
<text x="449.64" y="460.67">.</text>
<text x="200.15" y="47.50">.</text>
<text x="452.86" y="425.25">.</text>
<text x="204.93" y="172.46">+</text>
<text x="163.15" y="202.50">.</text>
<text x="184.25" y="53.22">.</text>
<text x="467.96" y="368.68">+</text>
<text x="310.29" y="236.18">.</text>
<text x="48.59" y="437.01">*</text>
<text x="95.45" y="202.65">.</text>
<text x="328.50" y="236.39">.</text>
<text x="318.43" y="413.06">+</text>
<text x="117.27" y="265.50">*</text>
<text x="159.71" y="166.99">.</text>
<text x="384.40" y="357.35">+</text>
<text x="97.68" y="298.29">.</text>
<text x="265.65" y="254.69">.</text>
<text x="435.70" y="208.56">.</text>
<text x="1.84" y="388.71">.</text>
<text x="286.08" y="72.27">+</text>
<text x="258.54" y="165.17">+</text>
<text x="10.30" y="181.44">.</text>
<text x="265.31" y="341.23">+</text>
<text x="244.90" y="349.13">.</text>
<text x="102.74" y="95.32">.</text>
<text x="277.53" y="226.05">.</text>
<text x="384.45" y="385.81">.</text>
<text x="178.78" y="95.37">.</text>
<text x="406.31" y="102.07">+</text>
<text x="141.50" y="442.47">.</text>
<text x="33.74" y="221.30">+</text>
<text x="393.49" y="285.06">.</text>
<text x="397.83" y="367.19">.</text>
<text x="498.06" y="20.98">+</text>
<text x="240.03" y="411.28">+</text>
<text x="163.50" y="419.32">+</text>
<text x="223.11" y="374.43">.</text>
<text x="319.14" y="423.94">.</text>
<text x="176.35" y="115.41">+</text>
<text x="401.52" y="383.00">*</text>
<text x="246.54" y="1.78">*</text>
<text x="179.92" y="217.06">+</text>
<text x="314.47" y="359.27">.</text>
<text x="188.77" y="295.43">+</text>
<text x="463.53" y="223.12">.</text>
<text x="350.45" y="299.12">.</text>
<text x="30.93" y="377.29">.</text>
<text x="36.31" y="384.24">.</text>
<text x="335.31" y="338.35">.</text>
<text x="109.82" y="82.70">.</text>
<text x="240.84" y="179.65">+</text>
<text x="157.56" y="313.11">.</text>
<text x="166.01" y="329.60">+</text>
<text x="268.71" y="87.34">+</text>
<text x="118.92" y="248.30">*</text>
<text x="327.91" y="160.24">.</text>
<text x="325.90" y="256.22">+</text>
<text x="482.63" y="334.76">.</text>
<text x="341.32" y="223.04">*</text>
<text x="259.30" y="470.80">.</text>
<text x="437.25" y="401.58">.</text>
<text x="350.96" y="248.81">+</text>
<text x="464.74" y="75.37">*</text>
<text x="222.66" y="231.94">+</text>
<text x="199.83" y="407.84">+</text>
<text x="105.85" y="402.04">.</text>
<text x="126.02" y="37.81">.</text>
<text x="83.03" y="90.83">*</text>
<text x="372.43" y="434.43">.</text>
<text x="153.20" y="63.20">+</text>
<text x="327.40" y="252.27">.</text>
<text x="121.13" y="11.05">+</text>
<text x="232.00" y="194.61">.</text>
<text x="483.83" y="81.57">.</text>
<text x="327.33" y="16.17">+</text>
<text x="485.35" y="27.02">+</text>
<text x="438.07" y="247.94">*</text>
<text x="193.49" y="20.59">+</text>
<text x="288.43" y="262.01">.</text>
<text x="184.84" y="337.99">+</text>
<text x="97.88" y="374.62">+</text>
<text x="341.28" y="77.30">.</text>
<text x="18.67" y="5.40">+</text>
<text x="365.91" y="181.90">.</text>
<text x="128.40" y="430.71">+</text>
<text x="423.92" y="289.31">*</text>
<text x="209.45" y="12.23">+</text>
<text x="43.43" y="340.05">+</text>
<text x="478.17" y="193.77">*</text>
<text x="252.17" y="150.37">.</text>
<text x="8.36" y="209.48">.</text>
<text x="321.15" y="472.74">+</text>
<text x="102.63" y="270.19">.</text>
<text x="348.84" y="43.46">+</text>
<text x="488.26" y="431.14">.</text>
<text x="321.91" y="29.01">.</text>
<text x="373.13" y="125.70">.</text>
<text x="418.91" y="205.41">.</text>
<text x="397.32" y="157.91">+</text>
<text x="498.50" y="357.96">+</text>
<text x="172.63" y="300.87">.</text>
<text x="193.19" y="251.94">+</text>
<text x="40.93" y="17.80">*</text>
<text x="133.85" y="57.59">*</text>
<text x="205.91" y="85.77">+</text>
<text x="56.16" y="303.26">.</text>
<text x="147.63" y="484.07">+</text>
<text x="52.21" y="72.52">+</text>
<text x="391.61" y="139.15">+</text>
<text x="372.10" y="349.30">+</text>
<text x="315.56" y="442.17">+</text>
<text x="33.75" y="345.40">*</text>
<text x="0.20" y="474.59">+</text>
<text x="268.80" y="185.45">.</text>
<text x="67.39" y="79.20">.</text>
<text x="366.65" y="32.35">+</text>
<text x="48.39" y="64.09">.</text>
<text x="382.55" y="199.09">.</text>
<text x="79.33" y="68.03">+</text>
<text x="430.55" y="337.06">+</text>
<text x="127.05" y="18.55">.</text>
<text x="284.50" y="247.99">*</text>
<text x="208.59" y="492.72">+</text>
<text x="439.14" y="129.75">*</text>
<text x="231.06" y="149.14">.</text>
<text x="194.92" y="21.73">.</text>
<text x="356.94" y="305.75">.</text>
<text x="120.06" y="455.00">.</text>
<text x="27.71" y="32.67">+</text>
<text x="483.44" y="367.16">.</text>
<text x="59.03" y="71.55">+</text>
<text x="349.74" y="364.32">*</text>
<text x="141.61" y="119.27">.</text>
<text x="95.12" y="154.53">+</text>
<text x="445.17" y="318.35">.</text>

</svg>