
<svg viewBox="0 0 500 500" xmlns="http://www.w.org/2000/svg" width="100%" height="100%" style="background-color: #0a0a14; font-family: 'Courier New', Courier, monospace;">
    <style>
        text { fill: #aaa; font-size: 10px; text-anchor: middle; dominant-baseline: middle; }
    </style>
    <text x="329.24" y="251.08">.</text>
<text x="189.39" y="366.44">+</text>
<text x="242.48" y="282.96">.</text>
<text x="395.56" y="0.43">+</text>
<text x="286.22" y="427.34">.</text>
<text x="120.57" y="193.76">+</text>
<text x="255.56" y="462.98">.</text>
<text x="467.44" y="362.57">.</text>
<text x="246.17" y="367.17">*</text>
<text x="495.97" y="195.32">+</text>
<text x="176.41" y="114.01">.</text>
<text x="125.09" y="476.28">.</text>
<text x="82.79" y="7.27">.</text>
<text x="223.05" y="302.39">+</text>
<text x="413.95" y="320.50">*</text>
<text x="78.70" y="174.41">+</text>
<text x="482.63" y="229.66">+</text>
<text x="116.40" y="152.80">+</text>
<text x="151.36" y="446.19">.</text>
<text x="104.34" y="330.94">.</text>
<text x="331.33" y="429.28">.</text>
<text x="71.87" y="390.37">+</text>
<text x="449.11" y="248.43">+</text>
<text x="382.44" y="314.50">+</text>
<text x="136.36" y="422.93">*</text>
<text x="425.43" y="61.77">.</text>
<text x="430.54" y="388.04">.</text>
<text x="306.88" y="371.37">.</text>
<text x="444.36" y="277.75">*</text>
<text x="61.94" y="231.84">+</text>
<text x="278.96" y="245.88">+</text>
<text x="218.08" y="418.64">.</text>
<text x="461.80" y="181.28">.</text>
<text x="35.33" y="279.78">.</text>
<text x="144.69" y="92.84">+</text>
<text x="175.37" y="57.06">*</text>
<text x="65.93" y="190.76">*</text>
<text x="473.25" y="101.65">+</text>
<text x="286.25" y="362.36">.</text>
<text x="275.89" y="243.93">*</text>
<text x="340.06" y="178.69">.</text>
<text x="147.77" y="14.35">.</text>
<text x="186.46" y="61.70">+</text>
<text x="454.17" y="197.09">.</text>
<text x="207.81" y="136.17">+</text>
<text x="328.75" y="130.05">+</text>
<text x="199.33" y="240.29">.</text>
<text x="135.91" y="270.10">.</text>
<text x="93.64" y="263.11">.</text>
<text x="351.72" y="310.04">.</text>
<text x="250.92" y="138.83">+</text>
<text x="82.81" y="109.56">+</text>
<text x="167.70" y="427.99">.</text>
<text x="190.90" y="301.65">.</text>
<text x="426.05" y="228.50">+</text>
<text x="52.41" y="331.80">*</text>
<text x="462.24" y="439.58">.</text>
<text x="444.70" y="322.65">+</text>
<text x="330.99" y="374.99">.</text>
<text x="42.30" y="388.49">*</text>
<text x="453.96" y="450.26">*</text>
<text x="407.00" y="497.55">+</text>
<text x="86.74" y="457.37">.</text>
<text x="255.82" y="97.06">.</text>
<text x="398.97" y="464.45">*</text>
<text x="309.01" y="306.69">.</text>
<text x="323.74" y="292.56">.</text>
<text x="450.05" y="311.83">*</text>
<text x="453.30" y="219.58">*</text>
<text x="290.47" y="98.10">+</text>
<text x="215.21" y="167.04">.</text>
<text x="115.48" y="3.05">+</text>
<text x="118.50" y="384.40">+</text>
<text x="406.40" y="105.28">*</text>
<text x="328.13" y="147.36">*</text>
<text x="131.04" y="307.00">+</text>
<text x="98.86" y="149.05">+</text>
<text x="169.54" y="449.41">+</text>
<text x="53.88" y="205.83">+</text>
<text x="128.07" y="230.11">+</text>
<text x="9.32" y="461.22">+</text>
<text x="225.82" y="214.82">.</text>
<text x="472.03" y="356.49">+</text>
<text x="357.31" y="482.82">.</text>
<text x="448.68" y="369.56">+</text>
<text x="441.01" y="473.22">+</text>
<text x="75.04" y="460.04">.</text>
<text x="7.30" y="341.03">.</text>
<text x="388.08" y="179.42">.</text>
<text x="18.46" y="251.80">.</text>
<text x="394.12" y="139.49">.</text>
<text x="232.68" y="203.02">*</text>
<text x="207.49" y="305.80">+</text>
<text x="404.16" y="362.33">+</text>
<text x="308.11" y="408.52">.</text>
<text x="173.34" y="317.07">.</text>
<text x="189.98" y="359.23">*</text>
<text x="232.99" y="163.40">*</text>
<text x="230.11" y="402.04">+</text>
<text x="430.14" y="320.70">.</text>
<text x="364.03" y="421.81">.</text>
<text x="386.36" y="493.90">.</text>
<text x="148.93" y="193.74">.</text>
<text x="325.07" y="4.99">.</text>
<text x="10.09" y="283.70">+</text>
<text x="285.54" y="309.95">.</text>
<text x="446.12" y="161.64">.</text>
<text x="363.47" y="235.13">+</text>
<text x="118.29" y="167.37">.</text>
<text x="50.36" y="115.76">+</text>
<text x="64.65" y="86.69">.</text>
<text x="228.80" y="406.66">+</text>
<text x="415.58" y="176.32">+</text>
<text x="316.84" y="141.09">+</text>
<text x="275.70" y="60.90">+</text>
<text x="22.68" y="86.67">.</text>
<text x="461.74" y="19.98">+</text>
<text x="247.85" y="84.98">.</text>
<text x="64.92" y="133.36">+</text>
<text x="154.20" y="319.38">.</text>
<text x="14.42" y="17.56">*</text>
<text x="144.87" y="108.79">.</text>
<text x="336.39" y="26.98">.</text>
<text x="111.57" y="320.99">+</text>
<text x="483.26" y="411.52">.</text>
<text x="175.35" y="286.62">.</text>
<text x="175.61" y="463.83">+</text>
<text x="419.69" y="99.23">+</text>
<text x="26.83" y="252.56">+</text>
<text x="132.15" y="306.75">.</text>
<text x="288.69" y="290.88">+</text>
<text x="179.09" y="478.81">.</text>
<text x="291.97" y="237.67">.</text>
<text x="441.98" y="112.60">.</text>
<text x="13.14" y="172.79">+</text>
<text x="81.67" y="385.36">+</text>
<text x="200.02" y="112.98">+</text>
<text x="422.06" y="398.16">.</text>
<text x="71.10" y="70.17">+</text>
<text x="158.10" y="106.90">.</text>
<text x="440.08" y="382.16">+</text>
<text x="358.28" y="323.15">.</text>
<text x="246.09" y="13.56">+</text>
<text x="365.52" y="440.62">.</text>
<text x="450.76" y="154.18">.</text>
<text x="331.84" y="149.95">+</text>
<text x="41.17" y="276.93">.</text>
<text x="123.62" y="97.28">.</text>
<text x="464.21" y="27.21">+</text>
<text x="165.72" y="199.91">.</text>
<text x="27.70" y="443.74">.</text>
<text x="226.48" y="396.63">.</text>
<text x="226.84" y="270.77">+</text>
<text x="286.38" y="86.94">*</text>
<text x="422.29" y="325.82">.</text>
<text x="185.10" y="62.82">.</text>
<text x="241.68" y="259.32">.</text>
<text x="450.89" y="253.93">+</text>
<text x="222.68" y="350.62">.</text>
<text x="301.40" y="440.28">+</text>
<text x="117.41" y="451.65">.</text>
<text x="104.90" y="485.45">.</text>
<text x="85.94" y="159.23">.</text>
<text x="272.39" y="277.62">+</text>
<text x="245.01" y="447.85">+</text>
<text x="32.21" y="368.91">.</text>
<text x="244.79" y="329.25">+</text>
<text x="393.12" y="480.00">+</text>
<text x="87.31" y="245.72">.</text>
<text x="484.65" y="451.87">.</text>
<text x="486.50" y="150.29">.</text>
<text x="280.17" y="388.86">.</text>
<text x="370.84" y="43.36">.</text>
<text x="301.16" y="310.34">.</text>
<text x="27.44" y="345.77">.</text>
<text x="247.68" y="253.43">*</text>
<text x="401.91" y="473.11">.</text>
<text x="375.36" y="322.25">+</text>
<text x="69.86" y="288.07">.</text>
<text x="261.46" y="57.58">.</text>
<text x="246.04" y="445.35">.</text>
<text x="131.02" y="98.49">+</text>
<text x="246.47" y="87.05">.</text>
<text x="78.54" y="324.16">+</text>
<text x="4.60" y="449.03">+</text>
<text x="474.39" y="316.83">+</text>
<text x="386.72" y="446.65">*</text>
<text x="352.32" y="33.63">*</text>
<text x="483.93" y="207.10">+</text>
<text x="159.05" y="112.86">.</text>
<text x="82.43" y="227.95">.</text>
<text x="394.09" y="436.03">.</text>
<text x="445.96" y="206.23">+</text>
<text x="41.61" y="186.30">+</text>
<text x="221.35" y="195.24">*</text>
<text x="496.90" y="196.97">.</text>
<text x="41.63" y="449.99">*</text>
<text x="10.58" y="410.36">+</text>
<text x="474.49" y="154.07">.</text>
<text x="351.51" y="319.95">+</text>
<text x="480.10" y="112.35">+</text>
<text x="183.41" y="218.74">*</text>
<text x="375.97" y="489.93">.</text>
<text x="83.55" y="489.88">.</text>
<text x="77.24" y="35.54">.</text>
<text x="51.74" y="220.20">+</text>
<text x="205.22" y="283.34">*</text>
<text x="431.62" y="387.48">.</text>
<text x="376.55" y="86.89">.</text>
<text x="318.86" y="207.35">+</text>
<text x="102.83" y="35.40">+</text>
<text x="308.99" y="305.89">.</text>
<text x="292.13" y="70.88">.</text>
<text x="9.10" y="258.97">.</text>
<text x="453.64" y="226.79">.</text>

</svg>