
<svg viewBox="0 0 500 500" xmlns="http://www.w.org/2000/svg" width="100%" height="100%" style="background-color: #0a0a14; font-family: 'Courier New', Courier, monospace;">
    <style>
        text { fill: #aaa; font-size: 10px; text-anchor: middle; dominant-baseline: middle; }
    </style>
    <text x="50.81" y="60.37">.</text>
<text x="192.04" y="195.98">*</text>
<text x="197.32" y="360.15">.</text>
<text x="164.30" y="473.50">+</text>
<text x="358.79" y="171.67">+</text>
<text x="462.17" y="278.00">.</text>
<text x="330.48" y="262.07">.</text>
<text x="238.91" y="83.45">.</text>
<text x="275.46" y="197.70">.</text>
<text x="170.87" y="86.85">*</text>
<text x="63.26" y="387.06">*</text>
<text x="361.82" y="102.52">.</text>
<text x="35.08" y="150.39">.</text>
<text x="487.36" y="403.89">+</text>
<text x="54.51" y="463.88">.</text>
<text x="260.02" y="302.47">.</text>
<text x="255.39" y="363.42">+</text>
<text x="257.50" y="372.56">.</text>
<text x="16.96" y="409.61">.</text>
<text x="451.47" y="267.02">+</text>
<text x="67.32" y="240.38">.</text>
<text x="169.44" y="388.71">+</text>
<text x="434.78" y="379.31">*</text>
<text x="58.26" y="202.02">+</text>
<text x="253.23" y="442.17">+</text>
<text x="407.81" y="497.93">+</text>
<text x="398.54" y="98.24">+</text>
<text x="441.52" y="160.49">+</text>
<text x="472.79" y="387.01">*</text>
<text x="100.66" y="77.68">+</text>
<text x="204.16" y="170.58">.</text>
<text x="178.37" y="336.89">.</text>
<text x="227.37" y="239.26">+</text>
<text x="407.28" y="281.64">+</text>
<text x="78.66" y="451.84">+</text>
<text x="284.11" y="275.24">.</text>
<text x="79.35" y="478.07">*</text>
<text x="397.87" y="226.34">+</text>
<text x="189.88" y="16.41">+</text>
<text x="36.30" y="323.36">*</text>
<text x="128.94" y="336.19">+</text>
<text x="214.32" y="87.73">.</text>
<text x="16.43" y="291.59">.</text>
<text x="246.98" y="274.66">*</text>
<text x="102.10" y="450.63">+</text>
<text x="490.90" y="369.07">.</text>
<text x="222.35" y="365.79">.</text>
<text x="166.53" y="447.30">+</text>
<text x="48.24" y="31.75">.</text>
<text x="89.87" y="22.54">.</text>
<text x="411.13" y="480.22">+</text>
<text x="35.78" y="328.34">+</text>
<text x="388.26" y="496.46">.</text>
<text x="454.68" y="353.84">*</text>
<text x="111.57" y="278.86">+</text>
<text x="451.87" y="117.31">+</text>
<text x="247.97" y="289.64">*</text>
<text x="454.86" y="197.50">.</text>
<text x="235.89" y="461.60">+</text>
<text x="499.01" y="38.98">+</text>
<text x="157.26" y="324.95">+</text>
<text x="442.92" y="176.64">.</text>
<text x="189.75" y="421.64">.</text>
<text x="290.09" y="243.68">+</text>
<text x="447.44" y="150.26">.</text>
<text x="59.59" y="103.05">+</text>
<text x="244.37" y="345.70">.</text>
<text x="348.53" y="359.42">*</text>
<text x="417.13" y="318.38">.</text>
<text x="337.39" y="300.57">+</text>
<text x="227.78" y="355.04">.</text>
<text x="361.64" y="6.85">.</text>
<text x="398.41" y="70.20">.</text>
<text x="468.33" y="23.94">*</text>
<text x="496.08" y="77.74">.</text>
<text x="154.79" y="118.52">.</text>
<text x="304.47" y="298.80">.</text>
<text x="367.77" y="409.14">.</text>
<text x="156.91" y="462.76">.</text>
<text x="227.32" y="141.18">.</text>
<text x="127.69" y="31.36">.</text>
<text x="254.58" y="211.80">+</text>
<text x="350.69" y="22.74">.</text>
<text x="239.97" y="116.56">.</text>
<text x="201.87" y="141.62">.</text>
<text x="246.30" y="261.18">+</text>
<text x="83.59" y="254.48">.</text>
<text x="254.08" y="443.59">.</text>
<text x="59.41" y="425.81">.</text>
<text x="21.81" y="259.91">+</text>
<text x="15.57" y="207.55">+</text>
<text x="386.44" y="428.27">.</text>
<text x="453.21" y="98.23">.</text>
<text x="123.69" y="292.35">+</text>
<text x="293.95" y="178.14">.</text>
<text x="18.47" y="384.00">.</text>
<text x="297.43" y="234.25">.</text>
<text x="89.11" y="247.41">.</text>
<text x="281.45" y="444.11">.</text>
<text x="298.17" y="450.04">+</text>
<text x="357.76" y="144.88">.</text>
<text x="144.33" y="191.58">.</text>
<text x="285.47" y="285.67">.</text>
<text x="402.00" y="419.33">.</text>
<text x="270.80" y="94.36">*</text>
<text x="495.32" y="298.02">.</text>
<text x="54.44" y="242.36">+</text>
<text x="407.46" y="44.98">.</text>
<text x="46.61" y="35.97">*</text>
<text x="163.37" y="58.46">*</text>
<text x="321.93" y="361.10">*</text>
<text x="17.36" y="162.46">+</text>
<text x="71.63" y="203.08">+</text>
<text x="214.05" y="338.44">+</text>
<text x="359.26" y="101.97">+</text>
<text x="290.45" y="397.73">+</text>
<text x="318.35" y="68.84">*</text>
<text x="121.68" y="469.54">.</text>
<text x="161.17" y="335.56">.</text>
<text x="375.70" y="367.51">.</text>
<text x="339.58" y="458.51">+</text>
<text x="359.82" y="268.63">.</text>
<text x="178.14" y="66.13">.</text>
<text x="135.18" y="350.01">+</text>
<text x="265.09" y="477.15">*</text>
<text x="171.92" y="88.92">.</text>
<text x="331.80" y="326.10">.</text>
<text x="408.93" y="140.05">.</text>
<text x="311.09" y="50.00">.</text>
<text x="62.54" y="186.93">.</text>
<text x="402.77" y="308.36">.</text>
<text x="427.31" y="396.60">+</text>
<text x="192.07" y="53.82">+</text>
<text x="7.13" y="6.84">.</text>
<text x="205.96" y="199.78">*</text>
<text x="355.48" y="267.23">.</text>
<text x="302.41" y="154.47">.</text>
<text x="309.68" y="68.71">.</text>
<text x="119.71" y="292.75">+</text>
<text x="161.81" y="489.15">*</text>
<text x="325.70" y="377.94">+</text>
<text x="333.34" y="200.26">+</text>
<text x="272.55" y="303.86">*</text>
<text x="399.00" y="9.42">+</text>
<text x="241.24" y="351.24">+</text>
<text x="283.62" y="139.41">+</text>
<text x="322.38" y="232.00">*</text>
<text x="388.96" y="445.85">+</text>
<text x="229.89" y="226.20">+</text>
<text x="273.88" y="195.36">+</text>
<text x="205.34" y="411.84">.</text>
<text x="46.27" y="169.61">+</text>
<text x="411.46" y="417.96">+</text>
<text x="23.81" y="455.64">.</text>
<text x="357.94" y="172.35">.</text>
<text x="42.43" y="7.12">.</text>
<text x="97.18" y="25.53">+</text>
<text x="317.75" y="302.41">+</text>
<text x="258.04" y="46.70">.</text>
<text x="328.05" y="380.91">.</text>
<text x="252.01" y="487.59">.</text>
<text x="178.93" y="478.74">+</text>
<text x="324.23" y="38.77">+</text>
<text x="41.75" y="284.44">+</text>
<text x="379.54" y="273.99">.</text>
<text x="374.77" y="123.74">.</text>
<text x="323.86" y="68.29">.</text>
<text x="393.00" y="427.45">.</text>
<text x="198.37" y="113.24">.</text>
<text x="331.37" y="160.20">.</text>
<text x="4.32" y="371.28">+</text>
<text x="382.32" y="12.50">.</text>
<text x="257.04" y="74.29">*</text>
<text x="137.86" y="453.24">+</text>
<text x="244.69" y="143.96">.</text>
<text x="379.88" y="192.33">*</text>
<text x="7.99" y="62.23">.</text>
<text x="369.87" y="43.53">.</text>
<text x="144.75" y="185.99">.</text>
<text x="397.66" y="33.13">+</text>
<text x="340.74" y="366.66">+</text>
<text x="482.28" y="369.42">.</text>
<text x="220.05" y="423.52">.</text>
<text x="379.67" y="233.01">*</text>
<text x="308.18" y="301.96">+</text>
<text x="415.73" y="393.09">*</text>
<text x="98.33" y="424.09">.</text>
<text x="139.93" y="189.93">+</text>
<text x="433.22" y="241.24">.</text>
<text x="160.53" y="70.28">.</text>
<text x="411.53" y="373.46">+</text>
<text x="376.04" y="139.42">+</text>
<text x="105.01" y="266.94">.</text>
<text x="216.10" y="81.24">.</text>

</svg>