
<svg viewBox="0 0 500 500" xmlns="http://www.w.org/2000/svg" width="100%" height="100%" style="background-color: #0a0a14; font-family: 'Courier New', Courier, monospace;">
    <style>
        text { fill: #aaa; font-size: 10px; text-anchor: middle; dominant-baseline: middle; }
    </style>
    <text x="107.44" y="17.49">+</text>
<text x="379.18" y="365.46">.</text>
<text x="409.18" y="8.50">.</text>
<text x="83.14" y="152.16">.</text>
<text x="241.73" y="440.14">+</text>
<text x="376.73" y="91.95">+</text>
<text x="262.46" y="296.12">+</text>
<text x="68.31" y="406.05">.</text>
<text x="227.80" y="405.99">.</text>
<text x="143.72" y="113.05">.</text>
<text x="205.25" y="244.73">+</text>
<text x="186.02" y="209.10">+</text>
<text x="324.27" y="392.88">*</text>
<text x="127.84" y="276.13">+</text>
<text x="479.27" y="112.97">.</text>
<text x="314.58" y="220.11">+</text>
<text x="156.75" y="455.45">+</text>
<text x="234.22" y="215.50">+</text>
<text x="356.28" y="375.81">.</text>
<text x="69.04" y="330.81">.</text>
<text x="428.10" y="73.51">*</text>
<text x="427.27" y="285.94">+</text>
<text x="118.97" y="300.42">.</text>
<text x="1.05" y="336.01">+</text>
<text x="50.21" y="184.23">+</text>
<text x="128.40" y="224.61">.</text>
<text x="232.77" y="163.47">+</text>
<text x="374.04" y="127.30">.</text>
<text x="144.10" y="422.41">.</text>
<text x="22.12" y="432.71">.</text>
<text x="171.98" y="138.01">.</text>
<text x="5.52" y="467.02">*</text>
<text x="342.77" y="363.70">.</text>
<text x="132.08" y="115.27">.</text>
<text x="432.25" y="375.89">.</text>
<text x="315.61" y="99.48">+</text>
<text x="171.72" y="141.88">+</text>
<text x="468.46" y="97.73">+</text>
<text x="457.95" y="365.24">.</text>
<text x="416.97" y="183.53">.</text>
<text x="118.63" y="490.94">.</text>
<text x="183.42" y="372.26">+</text>
<text x="388.24" y="333.99">*</text>
<text x="453.07" y="461.04">*</text>
<text x="2.40" y="434.17">*</text>
<text x="359.88" y="243.69">.</text>
<text x="299.80" y="110.00">.</text>
<text x="303.88" y="168.96">+</text>
<text x="221.56" y="341.28">*</text>
<text x="490.74" y="341.88">.</text>
<text x="368.53" y="352.18">.</text>
<text x="383.08" y="466.34">+</text>
<text x="291.89" y="74.38">+</text>
<text x="329.19" y="465.33">+</text>
<text x="455.62" y="380.08">+</text>
<text x="269.36" y="257.33">*</text>
<text x="32.99" y="397.02">+</text>
<text x="132.14" y="21.32">.</text>
<text x="224.53" y="184.86">+</text>
<text x="314.65" y="120.20">*</text>
<text x="442.69" y="199.16">+</text>
<text x="195.31" y="462.37">*</text>
<text x="246.33" y="154.82">.</text>
<text x="474.81" y="304.15">*</text>
<text x="195.37" y="396.39">+</text>
<text x="416.86" y="84.20">.</text>
<text x="41.04" y="499.62">.</text>
<text x="222.09" y="359.97">+</text>
<text x="73.59" y="239.44">.</text>
<text x="33.28" y="216.23">+</text>
<text x="323.54" y="496.00">+</text>
<text x="128.54" y="402.64">*</text>
<text x="334.13" y="142.36">.</text>
<text x="491.18" y="236.69">.</text>
<text x="145.55" y="211.98">+</text>
<text x="377.36" y="106.38">+</text>
<text x="291.53" y="56.09">*</text>
<text x="165.15" y="181.87">.</text>
<text x="497.51" y="381.37">+</text>
<text x="237.80" y="442.57">+</text>
<text x="458.96" y="275.49">.</text>
<text x="195.12" y="107.71">*</text>
<text x="366.25" y="256.35">.</text>
<text x="357.86" y="244.97">.</text>
<text x="139.43" y="455.18">+</text>
<text x="130.54" y="125.93">.</text>
<text x="356.87" y="496.81">.</text>
<text x="98.81" y="373.63">.</text>
<text x="309.08" y="351.26">+</text>
<text x="207.06" y="204.27">*</text>
<text x="458.47" y="306.92">+</text>
<text x="468.16" y="205.75">+</text>
<text x="31.71" y="452.99">*</text>
<text x="150.93" y="158.08">*</text>
<text x="113.33" y="481.12">*</text>
<text x="381.24" y="23.80">*</text>
<text x="464.73" y="136.37">*</text>
<text x="144.08" y="461.14">.</text>
<text x="158.01" y="254.73">.</text>
<text x="357.41" y="97.21">*</text>
<text x="394.16" y="331.97">+</text>
<text x="23.78" y="289.15">.</text>
<text x="91.73" y="447.07">*</text>
<text x="423.86" y="211.04">.</text>
<text x="434.81" y="174.79">.</text>
<text x="37.23" y="11.25">*</text>
<text x="57.47" y="75.48">.</text>
<text x="430.38" y="81.60">+</text>
<text x="209.48" y="354.19">.</text>
<text x="251.98" y="63.77">.</text>
<text x="324.63" y="325.58">.</text>
<text x="114.06" y="341.49">.</text>
<text x="143.47" y="139.73">.</text>
<text x="489.05" y="138.48">*</text>
<text x="350.60" y="171.15">.</text>
<text x="413.75" y="222.72">+</text>
<text x="443.24" y="369.63">.</text>
<text x="145.94" y="348.80">.</text>
<text x="69.85" y="499.34">.</text>
<text x="196.67" y="227.33">.</text>
<text x="378.87" y="427.72">+</text>
<text x="292.62" y="493.42">+</text>
<text x="399.16" y="140.89">.</text>
<text x="135.29" y="255.43">.</text>
<text x="13.37" y="78.38">+</text>
<text x="84.20" y="326.27">+</text>
<text x="21.68" y="261.72">.</text>
<text x="470.94" y="247.45">.</text>
<text x="82.45" y="39.37">.</text>
<text x="23.55" y="205.60">.</text>
<text x="343.54" y="253.23">+</text>
<text x="346.95" y="262.62">+</text>
<text x="398.23" y="68.98">.</text>
<text x="416.49" y="474.79">*</text>
<text x="54.55" y="412.81">.</text>
<text x="454.17" y="143.04">.</text>
<text x="493.44" y="137.76">.</text>
<text x="150.42" y="73.87">.</text>
<text x="118.87" y="196.43">*</text>
<text x="399.98" y="406.94">+</text>
<text x="245.16" y="165.92">+</text>
<text x="389.57" y="477.75">+</text>
<text x="110.46" y="379.60">.</text>
<text x="428.70" y="414.68">*</text>
<text x="34.70" y="376.53">.</text>
<text x="112.42" y="287.22">+</text>
<text x="264.38" y="105.18">.</text>
<text x="52.68" y="456.11">.</text>
<text x="388.47" y="400.02">.</text>
<text x="195.25" y="88.86">+</text>
<text x="316.84" y="446.00">+</text>
<text x="114.26" y="81.53">.</text>
<text x="42.38" y="46.85">*</text>
<text x="198.14" y="293.74">*</text>
<text x="91.93" y="223.15">+</text>
<text x="78.16" y="456.03">*</text>
<text x="98.07" y="22.28">+</text>
<text x="457.42" y="178.05">.</text>
<text x="27.68" y="34.29">.</text>
<text x="417.75" y="443.75">*</text>
<text x="60.63" y="391.72">+</text>
<text x="499.73" y="94.63">.</text>
<text x="128.84" y="320.89">+</text>
<text x="283.70" y="491.59">+</text>
<text x="223.85" y="313.21">+</text>
<text x="227.38" y="249.09">*</text>
<text x="203.82" y="123.67">+</text>
<text x="365.30" y="20.09">+</text>
<text x="34.34" y="216.22">.</text>
<text x="45.31" y="491.06">.</text>
<text x="274.40" y="416.72">+</text>
<text x="284.43" y="100.18">.</text>
<text x="34.42" y="217.03">*</text>
<text x="64.74" y="21.07">+</text>
<text x="329.82" y="7.56">.</text>
<text x="297.30" y="492.14">.</text>
<text x="117.11" y="186.26">+</text>
<text x="126.88" y="231.41">.</text>
<text x="455.04" y="370.74">.</text>
<text x="383.69" y="495.25">.</text>
<text x="262.46" y="133.98">.</text>
<text x="126.05" y="461.90">.</text>
<text x="221.05" y="458.36">+</text>
<text x="379.32" y="318.66">.</text>
<text x="29.03" y="470.47">*</text>
<text x="420.58" y="123.09">.</text>
<text x="342.92" y="226.09">+</text>
<text x="83.83" y="340.81">*</text>
<text x="188.82" y="26.46">+</text>
<text x="158.66" y="36.59">.</text>
<text x="140.91" y="16.59">.</text>
<text x="245.87" y="18.17">*</text>
<text x="495.58" y="53.90">*</text>
<text x="225.91" y="180.62">.</text>
<text x="144.17" y="375.82">+</text>
<text x="233.68" y="398.60">.</text>
<text x="127.85" y="54.66">+</text>
<text x="279.07" y="206.16">.</text>
<text x="335.13" y="92.11">.</text>
<text x="94.43" y="250.76">*</text>
<text x="43.08" y="474.37">.</text>
<text x="393.01" y="476.94">.</text>
<text x="405.49" y="193.11">.</text>
<text x="74.79" y="469.26">.</text>
<text x="358.46" y="193.16">*</text>
<text x="332.66" y="333.49">.</text>
<text x="8.20" y="69.67">.</text>
<text x="63.64" y="300.93">+</text>
<text x="288.76" y="241.26">.</text>
<text x="95.95" y="173.87">+</text>
<text x="80.53" y="495.88">.</text>
<text x="156.71" y="329.79">.</text>
<text x="268.17" y="14.57">+</text>
<text x="200.48" y="249.31">.</text>
<text x="297.14" y="466.65">.</text>
<text x="102.66" y="17.61">*</text>
<text x="396.08" y="413.81">+</text>
<text x="467.96" y="287.44">+</text>
<text x="342.05" y="293.46">.</text>
<text x="17.55" y="421.38">*</text>
<text x="480.93" y="266.87">+</text>
<text x="219.25" y="348.07">+</text>
<text x="29.18" y="107.68">.</text>
<text x="225.05" y="114.43">.</text>
<text x="253.77" y="13.26">.</text>
<text x="292.58" y="395.91">.</text>
<text x="330.82" y="497.42">.</text>
<text x="124.32" y="29.90">.</text>

</svg>