
<svg viewBox="0 0 500 500" xmlns="http://www.w.org/2000/svg" width="100%" height="100%" style="background-color: #0a0a14; font-family: 'Courier New', Courier, monospace;">
    <style>
        text { fill: #aaa; font-size: 10px; text-anchor: middle; dominant-baseline: middle; }
    </style>
    <text x="426.78" y="146.92">+</text>
<text x="306.21" y="122.88">.</text>
<text x="436.00" y="339.89">.</text>
<text x="224.72" y="55.92">+</text>
<text x="252.23" y="29.13">.</text>
<text x="423.85" y="350.56">*</text>
<text x="428.91" y="333.05">.</text>
<text x="337.26" y="268.72">+</text>
<text x="472.22" y="58.49">*</text>
<text x="265.25" y="385.40">.</text>
<text x="420.97" y="25.00">.</text>
<text x="32.43" y="233.30">+</text>
<text x="199.87" y="480.51">.</text>
<text x="82.03" y="1.34">.</text>
<text x="389.56" y="422.16">+</text>
<text x="129.26" y="142.22">.</text>
<text x="322.89" y="273.91">.</text>
<text x="161.44" y="112.67">.</text>
<text x="245.34" y="32.51">+</text>
<text x="178.85" y="477.06">.</text>
<text x="436.27" y="375.12">+</text>
<text x="107.60" y="97.34">+</text>
<text x="319.58" y="488.22">.</text>
<text x="20.50" y="367.19">+</text>
<text x="387.52" y="438.48">.</text>
<text x="321.44" y="251.61">.</text>
<text x="461.16" y="323.79">+</text>
<text x="71.17" y="23.40">+</text>
<text x="116.74" y="225.12">+</text>
<text x="30.73" y="206.25">+</text>
<text x="483.99" y="481.31">+</text>
<text x="386.57" y="306.23">.</text>
<text x="100.37" y="219.72">+</text>
<text x="196.26" y="103.58">*</text>
<text x="209.37" y="436.39">.</text>
<text x="420.57" y="208.31">.</text>
<text x="373.06" y="9.99">*</text>
<text x="340.49" y="286.97">+</text>
<text x="486.24" y="207.09">+</text>
<text x="491.25" y="413.69">+</text>
<text x="361.34" y="341.88">.</text>
<text x="27.26" y="181.46">.</text>
<text x="28.67" y="174.50">+</text>
<text x="44.93" y="491.96">.</text>
<text x="460.22" y="195.22">*</text>
<text x="34.65" y="358.62">.</text>
<text x="88.17" y="271.81">.</text>
<text x="461.80" y="401.52">*</text>
<text x="62.80" y="487.74">.</text>
<text x="85.38" y="123.08">+</text>
<text x="6.92" y="102.38">+</text>
<text x="376.44" y="149.95">.</text>
<text x="31.43" y="43.27">.</text>
<text x="160.35" y="421.17">*</text>
<text x="88.90" y="451.72">.</text>
<text x="446.23" y="223.47">*</text>
<text x="163.37" y="233.84">+</text>
<text x="334.07" y="460.01">+</text>
<text x="403.60" y="338.34">.</text>
<text x="167.47" y="356.72">.</text>
<text x="100.50" y="10.22">.</text>
<text x="259.94" y="314.31">.</text>
<text x="134.08" y="346.10">*</text>
<text x="389.74" y="184.09">.</text>
<text x="167.45" y="127.55">.</text>
<text x="309.04" y="479.34">+</text>
<text x="204.16" y="206.24">+</text>
<text x="344.30" y="391.37">.</text>
<text x="368.86" y="96.26">+</text>
<text x="6.73" y="488.17">*</text>
<text x="210.05" y="413.43">+</text>
<text x="225.88" y="436.74">.</text>
<text x="18.86" y="317.49">.</text>
<text x="307.14" y="240.08">+</text>
<text x="311.89" y="181.59">.</text>
<text x="455.05" y="168.18">*</text>
<text x="262.04" y="235.44">.</text>
<text x="224.61" y="347.89">+</text>
<text x="238.92" y="110.23">+</text>
<text x="230.98" y="4.98">.</text>
<text x="448.04" y="287.49">.</text>
<text x="100.00" y="110.28">*</text>
<text x="484.69" y="21.43">+</text>
<text x="107.11" y="448.10">.</text>
<text x="201.93" y="80.32">.</text>
<text x="414.17" y="15.49">+</text>
<text x="389.17" y="161.14">.</text>
<text x="207.65" y="486.39">.</text>
<text x="439.77" y="398.80">+</text>
<text x="421.53" y="401.57">+</text>
<text x="498.03" y="57.40">.</text>
<text x="29.44" y="327.76">*</text>
<text x="481.27" y="190.21">.</text>
<text x="449.25" y="50.91">+</text>
<text x="494.62" y="63.35">+</text>
<text x="438.66" y="278.25">+</text>
<text x="487.13" y="187.22">.</text>
<text x="239.92" y="382.70">*</text>
<text x="254.69" y="208.43">+</text>
<text x="305.53" y="351.76">*</text>
<text x="35.04" y="45.31">+</text>
<text x="62.24" y="240.39">.</text>
<text x="219.23" y="11.22">+</text>
<text x="207.04" y="61.30">+</text>
<text x="226.27" y="217.47">.</text>
<text x="46.91" y="77.20">*</text>
<text x="371.21" y="204.40">.</text>
<text x="59.65" y="232.43">.</text>
<text x="394.59" y="2.71">.</text>
<text x="342.11" y="499.31">+</text>
<text x="449.66" y="129.27">+</text>
<text x="335.45" y="312.77">+</text>
<text x="255.74" y="137.26">+</text>
<text x="434.43" y="401.77">.</text>
<text x="293.59" y="497.45">.</text>
<text x="216.49" y="409.84">+</text>
<text x="4.38" y="120.18">*</text>
<text x="258.21" y="403.36">.</text>
<text x="232.58" y="107.38">*</text>
<text x="94.31" y="242.96">.</text>
<text x="484.74" y="235.43">.</text>
<text x="459.92" y="72.89">.</text>
<text x="427.28" y="105.87">+</text>
<text x="238.69" y="451.82">*</text>
<text x="467.17" y="376.92">+</text>
<text x="31.99" y="294.13">*</text>
<text x="377.90" y="431.59">*</text>
<text x="4.30" y="314.70">+</text>
<text x="145.89" y="346.76">.</text>
<text x="30.33" y="223.88">.</text>
<text x="86.91" y="270.13">.</text>
<text x="359.19" y="236.75">.</text>
<text x="348.91" y="476.30">*</text>
<text x="100.78" y="207.36">+</text>
<text x="101.91" y="104.88">+</text>
<text x="306.98" y="407.56">*</text>
<text x="201.33" y="245.82">+</text>
<text x="329.11" y="480.65">*</text>
<text x="9.66" y="119.99">*</text>
<text x="279.15" y="307.09">*</text>
<text x="340.73" y="192.13">+</text>
<text x="266.36" y="97.52">.</text>
<text x="416.12" y="288.74">+</text>
<text x="452.74" y="420.72">+</text>
<text x="442.03" y="258.20">+</text>
<text x="67.96" y="202.70">+</text>
<text x="229.00" y="334.23">*</text>
<text x="272.01" y="16.93">+</text>
<text x="63.07" y="238.29">+</text>
<text x="32.16" y="114.67">+</text>
<text x="181.55" y="439.66">+</text>
<text x="408.01" y="56.32">.</text>
<text x="441.44" y="413.39">+</text>
<text x="331.42" y="188.43">+</text>
<text x="1.51" y="49.08">+</text>
<text x="307.15" y="211.99">.</text>
<text x="237.77" y="218.30">.</text>
<text x="28.93" y="279.80">.</text>
<text x="30.22" y="169.09">.</text>
<text x="333.22" y="55.65">*</text>
<text x="412.09" y="139.29">+</text>
<text x="245.38" y="222.23">.</text>
<text x="157.68" y="119.25">+</text>
<text x="212.25" y="212.48">.</text>
<text x="487.06" y="266.75">.</text>
<text x="392.88" y="20.48">+</text>
<text x="274.64" y="223.74">*</text>
<text x="366.98" y="166.61">.</text>
<text x="308.50" y="24.52">+</text>
<text x="295.37" y="419.66">.</text>
<text x="439.05" y="419.79">.</text>
<text x="415.91" y="462.84">.</text>
<text x="276.60" y="155.11">.</text>
<text x="247.79" y="377.66">+</text>
<text x="207.18" y="352.32">.</text>
<text x="274.56" y="166.34">+</text>
<text x="212.14" y="457.08">.</text>
<text x="406.79" y="166.49">*</text>
<text x="297.54" y="33.29">+</text>
<text x="209.32" y="326.50">.</text>
<text x="463.48" y="280.27">.</text>
<text x="294.47" y="292.40">.</text>
<text x="52.00" y="110.08">.</text>
<text x="165.47" y="478.60">+</text>
<text x="128.14" y="331.82">*</text>
<text x="136.19" y="331.29">+</text>
<text x="238.66" y="411.79">.</text>
<text x="27.41" y="295.38">+</text>
<text x="303.39" y="13.52">.</text>
<text x="207.69" y="379.75">.</text>
<text x="293.18" y="293.44">+</text>
<text x="181.17" y="209.06">.</text>
<text x="165.20" y="350.75">+</text>
<text x="325.54" y="204.92">+</text>
<text x="155.49" y="357.18">.</text>
<text x="85.61" y="14.31">+</text>
<text x="345.69" y="425.57">.</text>
<text x="322.99" y="301.71">+</text>
<text x="234.73" y="155.48">+</text>

</svg>