
<svg viewBox="0 0 500 500" xmlns="http://www.w.org/2000/svg" width="100%" height="100%" style="background-color: #0a0a14; font-family: 'Courier New', Courier, monospace;">
    <style>
        text { fill: #aaa; font-size: 10px; text-anchor: middle; dominant-baseline: middle; }
    </style>
    <text x="37.59" y="478.96">.</text>
<text x="433.83" y="352.67">.</text>
<text x="433.94" y="364.20">.</text>
<text x="319.01" y="21.86">.</text>
<text x="470.40" y="158.00">.</text>
<text x="246.34" y="289.92">.</text>
<text x="109.19" y="401.11">*</text>
<text x="362.00" y="311.83">*</text>
<text x="332.92" y="38.19">+</text>
<text x="410.34" y="126.94">+</text>
<text x="393.84" y="96.18">*</text>
<text x="146.26" y="20.21">*</text>
<text x="379.48" y="434.25">+</text>
<text x="468.28" y="81.33">+</text>
<text x="223.98" y="200.13">+</text>
<text x="3.80" y="375.51">.</text>
<text x="340.27" y="491.39">+</text>
<text x="154.92" y="389.41">+</text>
<text x="61.06" y="282.64">+</text>
<text x="89.65" y="370.86">+</text>
<text x="72.49" y="15.95">.</text>
<text x="350.72" y="372.74">.</text>
<text x="171.47" y="45.68">.</text>
<text x="44.46" y="271.93">*</text>
<text x="58.60" y="365.94">.</text>
<text x="468.16" y="497.61">+</text>
<text x="82.25" y="428.94">.</text>
<text x="54.98" y="115.50">.</text>
<text x="309.17" y="36.81">+</text>
<text x="356.07" y="133.48">+</text>
<text x="118.99" y="159.88">+</text>
<text x="244.67" y="440.16">*</text>
<text x="30.16" y="489.65">.</text>
<text x="164.28" y="486.00">.</text>
<text x="4.94" y="6.07">.</text>
<text x="426.26" y="24.57">+</text>
<text x="252.26" y="258.31">+</text>
<text x="498.68" y="362.21">.</text>
<text x="116.90" y="338.03">*</text>
<text x="281.70" y="282.44">+</text>
<text x="77.20" y="462.94">.</text>
<text x="419.56" y="133.48">+</text>
<text x="12.39" y="289.38">.</text>
<text x="162.46" y="423.41">.</text>
<text x="29.23" y="29.02">*</text>
<text x="239.38" y="303.00">.</text>
<text x="165.37" y="70.81">*</text>
<text x="86.15" y="334.84">+</text>
<text x="375.89" y="487.71">+</text>
<text x="235.63" y="264.42">.</text>
<text x="355.75" y="486.36">+</text>
<text x="468.31" y="328.09">.</text>
<text x="303.26" y="141.99">.</text>
<text x="325.10" y="252.17">*</text>
<text x="49.56" y="80.58">+</text>
<text x="71.70" y="277.84">+</text>
<text x="108.56" y="380.29">*</text>
<text x="448.69" y="288.26">.</text>
<text x="244.49" y="154.26">.</text>
<text x="92.38" y="101.06">.</text>
<text x="345.10" y="387.48">+</text>
<text x="486.63" y="365.46">+</text>
<text x="454.38" y="123.06">+</text>
<text x="57.67" y="301.00">*</text>
<text x="249.78" y="98.30">+</text>
<text x="89.01" y="275.16">.</text>
<text x="55.74" y="385.09">+</text>
<text x="209.21" y="283.75">*</text>
<text x="403.42" y="287.81">.</text>
<text x="41.46" y="479.85">+</text>
<text x="288.06" y="172.65">+</text>
<text x="390.38" y="71.10">.</text>
<text x="100.34" y="217.50">.</text>
<text x="414.70" y="215.30">.</text>
<text x="70.44" y="191.14">.</text>
<text x="85.52" y="357.14">+</text>
<text x="39.29" y="299.69">+</text>
<text x="21.20" y="90.01">.</text>
<text x="31.60" y="486.07">.</text>
<text x="81.78" y="469.80">.</text>
<text x="339.80" y="82.24">.</text>
<text x="281.45" y="165.39">.</text>
<text x="188.88" y="134.62">.</text>
<text x="334.19" y="270.16">.</text>
<text x="108.39" y="39.77">+</text>
<text x="473.13" y="364.34">*</text>
<text x="147.24" y="169.43">.</text>
<text x="461.21" y="39.95">*</text>
<text x="208.80" y="432.76">*</text>
<text x="278.76" y="248.74">.</text>
<text x="66.27" y="308.88">.</text>
<text x="203.64" y="201.09">.</text>
<text x="355.00" y="296.22">+</text>
<text x="267.96" y="192.14">.</text>
<text x="361.25" y="55.32">+</text>
<text x="357.50" y="499.95">.</text>
<text x="415.90" y="62.01">+</text>
<text x="449.10" y="335.97">+</text>
<text x="456.43" y="290.69">+</text>
<text x="134.96" y="373.45">+</text>
<text x="99.60" y="20.31">.</text>
<text x="1.74" y="235.81">.</text>
<text x="400.77" y="104.72">*</text>
<text x="87.57" y="342.96">+</text>
<text x="392.34" y="459.36">.</text>
<text x="289.89" y="439.50">+</text>
<text x="208.80" y="245.93">.</text>
<text x="186.98" y="222.83">.</text>
<text x="167.21" y="278.38">+</text>
<text x="169.01" y="55.40">.</text>
<text x="422.53" y="318.92">.</text>
<text x="459.63" y="382.23">.</text>
<text x="113.32" y="441.34">*</text>
<text x="332.75" y="374.06">.</text>
<text x="57.38" y="460.15">+</text>
<text x="54.17" y="405.69">.</text>
<text x="257.79" y="189.47">+</text>
<text x="335.00" y="433.07">*</text>
<text x="138.04" y="1.52">.</text>
<text x="463.68" y="464.14">+</text>
<text x="239.89" y="440.59">*</text>
<text x="49.39" y="333.18">*</text>
<text x="405.65" y="284.38">*</text>
<text x="210.04" y="142.44">+</text>
<text x="135.25" y="268.81">+</text>
<text x="116.44" y="459.29">+</text>
<text x="440.22" y="368.88">.</text>
<text x="340.05" y="217.54">.</text>
<text x="392.26" y="68.20">+</text>
<text x="230.35" y="132.02">+</text>
<text x="372.33" y="349.49">+</text>
<text x="147.34" y="204.72">*</text>
<text x="51.32" y="373.73">+</text>
<text x="452.09" y="308.76">.</text>
<text x="452.97" y="202.90">*</text>
<text x="198.02" y="420.44">+</text>
<text x="454.95" y="218.70">.</text>
<text x="295.12" y="238.95">+</text>
<text x="240.97" y="473.81">.</text>
<text x="46.06" y="447.21">*</text>
<text x="62.01" y="169.03">.</text>
<text x="136.74" y="354.53">+</text>
<text x="453.15" y="136.25">.</text>
<text x="174.39" y="363.56">+</text>
<text x="497.11" y="172.71">.</text>
<text x="281.27" y="261.33">.</text>
<text x="311.64" y="222.43">*</text>
<text x="22.60" y="321.31">.</text>
<text x="264.36" y="19.57">.</text>
<text x="212.65" y="180.35">+</text>
<text x="245.51" y="425.28">+</text>
<text x="213.60" y="314.05">+</text>
<text x="96.42" y="31.41">+</text>
<text x="159.77" y="81.32">+</text>
<text x="326.76" y="70.13">+</text>
<text x="417.62" y="498.85">.</text>
<text x="95.84" y="308.04">+</text>
<text x="487.86" y="372.03">+</text>
<text x="204.37" y="30.51">+</text>
<text x="413.31" y="157.90">.</text>
<text x="34.13" y="279.51">+</text>
<text x="68.78" y="195.23">+</text>
<text x="402.01" y="402.42">*</text>
<text x="122.47" y="284.66">.</text>
<text x="4.91" y="137.06">+</text>
<text x="466.76" y="269.08">+</text>
<text x="359.15" y="291.67">*</text>
<text x="276.73" y="459.09">.</text>
<text x="233.62" y="172.29">.</text>
<text x="272.23" y="485.05">+</text>
<text x="465.82" y="278.22">.</text>
<text x="374.10" y="161.11">+</text>
<text x="331.19" y="1.11">+</text>
<text x="227.90" y="111.72">+</text>
<text x="464.32" y="349.24">.</text>
<text x="429.94" y="236.86">*</text>
<text x="264.39" y="75.68">+</text>
<text x="424.16" y="222.57">.</text>
<text x="460.87" y="187.83">+</text>
<text x="308.76" y="381.10">.</text>
<text x="285.93" y="467.77">+</text>
<text x="27.68" y="365.29">.</text>
<text x="481.36" y="157.73">+</text>
<text x="75.62" y="438.81">+</text>
<text x="441.93" y="2.31">*</text>
<text x="150.06" y="476.75">+</text>
<text x="375.26" y="134.51">.</text>
<text x="432.86" y="53.63">.</text>
<text x="365.52" y="365.53">*</text>
<text x="426.19" y="160.98">+</text>
<text x="224.14" y="463.97">+</text>
<text x="188.17" y="305.12">.</text>
<text x="223.87" y="150.34">+</text>
<text x="236.85" y="204.50">.</text>
<text x="328.43" y="282.87">.</text>
<text x="144.15" y="165.76">.</text>
<text x="43.67" y="445.22">+</text>
<text x="330.61" y="82.57">+</text>
<text x="407.62" y="366.03">+</text>
<text x="390.13" y="149.54">.</text>
<text x="341.02" y="280.65">.</text>
<text x="346.67" y="454.84">+</text>
<text x="185.71" y="409.65">.</text>

</svg>