
<svg viewBox="0 0 500 500" xmlns="http://www.w.org/2000/svg" width="100%" height="100%" style="background-color: #0a0a14; font-family: 'Courier New', Courier, monospace;">
    <style>
        text { fill: #aaa; font-size: 10px; text-anchor: middle; dominant-baseline: middle; }
    </style>
    <text x="216.26" y="77.84">.</text>
<text x="308.69" y="364.06">+</text>
<text x="66.30" y="213.91">.</text>
<text x="390.37" y="23.73">+</text>
<text x="238.93" y="116.47">+</text>
<text x="28.11" y="146.91">.</text>
<text x="396.11" y="437.12">+</text>
<text x="62.71" y="208.39">+</text>
<text x="1.11" y="155.43">.</text>
<text x="220.60" y="441.96">.</text>
<text x="54.48" y="150.30">.</text>
<text x="286.43" y="368.08">.</text>
<text x="176.34" y="373.54">+</text>
<text x="494.48" y="244.47">.</text>
<text x="221.73" y="387.56">.</text>
<text x="152.63" y="253.65">+</text>
<text x="122.93" y="412.16">+</text>
<text x="264.92" y="142.26">+</text>
<text x="262.44" y="285.32">.</text>
<text x="217.78" y="212.63">+</text>
<text x="239.63" y="387.61">.</text>
<text x="326.02" y="303.08">.</text>
<text x="36.64" y="363.65">+</text>
<text x="454.60" y="309.76">.</text>
<text x="219.82" y="386.96">.</text>
<text x="281.41" y="35.90">+</text>
<text x="26.70" y="203.18">+</text>
<text x="300.74" y="270.90">*</text>
<text x="297.63" y="157.19">+</text>
<text x="187.22" y="102.92">*</text>
<text x="127.59" y="29.67">+</text>
<text x="382.90" y="478.17">+</text>
<text x="494.48" y="152.89">*</text>
<text x="404.09" y="477.64">+</text>
<text x="151.36" y="497.07">.</text>
<text x="364.32" y="104.22">+</text>
<text x="370.78" y="345.87">+</text>
<text x="320.27" y="434.68">+</text>
<text x="60.73" y="67.24">.</text>
<text x="478.16" y="213.70">+</text>
<text x="497.44" y="164.85">+</text>
<text x="407.20" y="33.70">.</text>
<text x="220.91" y="92.79">+</text>
<text x="117.49" y="475.29">.</text>
<text x="470.24" y="22.60">*</text>
<text x="374.33" y="210.44">.</text>
<text x="486.17" y="315.45">.</text>
<text x="311.22" y="156.10">*</text>
<text x="73.26" y="18.54">+</text>
<text x="484.01" y="106.39">.</text>
<text x="297.17" y="202.71">.</text>
<text x="303.22" y="428.99">.</text>
<text x="444.75" y="15.71">*</text>
<text x="373.31" y="239.85">.</text>
<text x="16.52" y="325.49">.</text>
<text x="13.46" y="170.50">.</text>
<text x="64.87" y="238.20">.</text>
<text x="438.41" y="428.59">*</text>
<text x="209.21" y="289.72">+</text>
<text x="128.65" y="321.80">*</text>
<text x="421.53" y="197.51">.</text>
<text x="231.79" y="73.46">+</text>
<text x="394.91" y="293.50">+</text>
<text x="304.04" y="326.83">.</text>
<text x="148.78" y="413.72">+</text>
<text x="456.91" y="206.53">.</text>
<text x="475.69" y="24.55">.</text>
<text x="191.48" y="413.39">+</text>
<text x="438.54" y="186.48">+</text>
<text x="198.81" y="289.42">.</text>
<text x="434.71" y="492.78">.</text>
<text x="277.18" y="392.93">+</text>
<text x="393.27" y="487.94">+</text>
<text x="163.41" y="226.15">.</text>
<text x="108.37" y="422.45">*</text>
<text x="361.55" y="461.10">+</text>
<text x="217.40" y="156.07">+</text>
<text x="442.93" y="333.44">.</text>
<text x="210.64" y="171.16">+</text>
<text x="346.51" y="452.44">.</text>
<text x="384.72" y="265.40">+</text>
<text x="444.42" y="339.68">.</text>
<text x="338.50" y="351.37">.</text>
<text x="33.80" y="22.77">+</text>
<text x="219.16" y="274.09">+</text>
<text x="320.75" y="215.57">+</text>
<text x="18.86" y="29.64">.</text>
<text x="369.18" y="476.02">.</text>
<text x="337.26" y="161.29">+</text>
<text x="28.07" y="163.22">.</text>
<text x="199.48" y="243.05">.</text>
<text x="487.87" y="349.40">.</text>
<text x="354.02" y="376.81">.</text>
<text x="125.45" y="12.62">.</text>
<text x="106.02" y="43.94">.</text>
<text x="404.28" y="45.12">.</text>
<text x="474.87" y="316.64">.</text>
<text x="436.43" y="398.70">.</text>
<text x="411.83" y="473.40">*</text>
<text x="421.48" y="323.08">+</text>
<text x="30.28" y="407.93">+</text>
<text x="346.01" y="175.56">*</text>
<text x="225.05" y="482.82">*</text>
<text x="199.49" y="329.11">+</text>
<text x="167.80" y="280.88">+</text>
<text x="182.88" y="455.31">+</text>
<text x="268.95" y="28.94">.</text>
<text x="347.59" y="230.93">.</text>
<text x="41.65" y="133.59">+</text>
<text x="162.56" y="490.54">.</text>
<text x="391.69" y="119.78">+</text>
<text x="59.29" y="19.75">+</text>
<text x="458.30" y="72.20">+</text>
<text x="360.03" y="366.19">*</text>
<text x="238.32" y="129.43">.</text>
<text x="145.50" y="331.30">.</text>
<text x="214.04" y="369.28">+</text>
<text x="16.44" y="427.87">+</text>
<text x="472.96" y="298.38">.</text>
<text x="364.07" y="107.10">.</text>
<text x="273.52" y="148.33">*</text>
<text x="113.10" y="187.06">+</text>
<text x="69.84" y="70.10">*</text>
<text x="464.33" y="316.84">.</text>
<text x="456.71" y="89.16">.</text>
<text x="495.36" y="225.32">.</text>
<text x="57.32" y="128.96">.</text>
<text x="30.78" y="153.89">+</text>
<text x="214.05" y="55.05">.</text>
<text x="269.52" y="50.18">*</text>
<text x="287.50" y="425.49">+</text>
<text x="442.36" y="371.21">.</text>
<text x="68.54" y="260.55">*</text>
<text x="295.67" y="251.65">.</text>
<text x="409.92" y="88.65">+</text>
<text x="406.43" y="135.22">*</text>
<text x="43.67" y="46.23">.</text>
<text x="281.03" y="24.77">.</text>
<text x="483.97" y="462.71">.</text>
<text x="490.35" y="65.95">*</text>
<text x="388.95" y="450.54">*</text>
<text x="27.22" y="468.71">.</text>
<text x="340.83" y="75.37">.</text>
<text x="371.90" y="186.61">+</text>
<text x="309.28" y="124.01">+</text>
<text x="328.84" y="143.70">+</text>
<text x="173.66" y="252.63">.</text>
<text x="366.68" y="427.71">*</text>
<text x="322.70" y="367.00">.</text>
<text x="367.14" y="100.63">.</text>
<text x="125.33" y="143.37">.</text>
<text x="11.25" y="357.60">*</text>
<text x="494.60" y="250.03">.</text>
<text x="160.33" y="12.16">+</text>
<text x="493.13" y="361.06">.</text>
<text x="246.38" y="456.70">+</text>
<text x="6.13" y="266.40">.</text>
<text x="86.69" y="481.37">.</text>
<text x="49.93" y="211.09">.</text>
<text x="379.17" y="179.24">*</text>
<text x="1.91" y="433.89">.</text>
<text x="218.65" y="350.16">.</text>
<text x="36.73" y="366.46">+</text>
<text x="124.01" y="191.66">.</text>
<text x="486.06" y="81.08">+</text>
<text x="213.76" y="239.60">*</text>
<text x="405.06" y="246.35">+</text>
<text x="364.66" y="201.90">+</text>
<text x="359.22" y="377.27">.</text>
<text x="212.27" y="147.48">+</text>
<text x="297.70" y="354.71">+</text>
<text x="38.08" y="119.13">+</text>
<text x="239.67" y="171.54">.</text>
<text x="435.09" y="43.11">.</text>
<text x="264.98" y="2.80">.</text>
<text x="127.51" y="183.50">.</text>
<text x="444.28" y="193.72">+</text>
<text x="408.61" y="56.14">.</text>
<text x="305.29" y="228.09">+</text>
<text x="172.60" y="295.29">+</text>
<text x="293.80" y="202.35">+</text>
<text x="267.67" y="323.80">*</text>
<text x="225.08" y="441.58">*</text>
<text x="148.06" y="212.22">.</text>
<text x="48.48" y="43.81">.</text>
<text x="276.12" y="133.74">+</text>
<text x="47.18" y="391.65">.</text>
<text x="397.62" y="11.09">+</text>
<text x="458.83" y="275.70">+</text>
<text x="439.04" y="413.99">+</text>
<text x="203.93" y="437.63">.</text>
<text x="326.48" y="449.24">+</text>
<text x="390.64" y="358.98">.</text>
<text x="305.23" y="254.59">.</text>
<text x="230.97" y="207.66">+</text>
<text x="320.14" y="418.59">+</text>
<text x="332.18" y="118.57">+</text>
<text x="442.52" y="187.66">.</text>
<text x="308.78" y="405.76">.</text>
<text x="2.26" y="370.71">+</text>
<text x="487.52" y="40.69">+</text>
<text x="383.28" y="31.84">.</text>
<text x="454.88" y="70.32">*</text>
<text x="104.22" y="359.61">*</text>

</svg>