
<svg viewBox="0 0 500 500" xmlns="http://www.w.org/2000/svg" width="100%" height="100%" style="background-color: #0a0a14; font-family: 'Courier New', Courier, monospace;">
    <style>
        text { fill: #aaa; font-size: 10px; text-anchor: middle; dominant-baseline: middle; }
    </style>
    <text x="217.96" y="198.89">*</text>
<text x="92.21" y="254.71">.</text>
<text x="103.53" y="0.23">.</text>
<text x="134.51" y="147.88">+</text>
<text x="24.82" y="142.92">*</text>
<text x="90.35" y="201.11">.</text>
<text x="117.85" y="313.65">*</text>
<text x="439.61" y="34.57">.</text>
<text x="450.26" y="108.20">.</text>
<text x="452.30" y="197.85">+</text>
<text x="441.36" y="340.02">+</text>
<text x="252.03" y="106.26">.</text>
<text x="26.65" y="193.82">+</text>
<text x="274.62" y="236.21">+</text>
<text x="428.64" y="487.66">.</text>
<text x="65.00" y="489.99">.</text>
<text x="219.27" y="58.73">.</text>
<text x="80.90" y="65.96">.</text>
<text x="367.97" y="115.56">.</text>
<text x="360.11" y="374.02">+</text>
<text x="216.75" y="95.05">.</text>
<text x="260.17" y="8.98">+</text>
<text x="311.37" y="499.08">+</text>
<text x="492.90" y="135.59">+</text>
<text x="152.27" y="33.40">+</text>
<text x="333.90" y="209.93">.</text>
<text x="389.67" y="145.36">.</text>
<text x="247.50" y="119.05">.</text>
<text x="65.10" y="328.85">+</text>
<text x="276.08" y="372.16">.</text>
<text x="288.55" y="371.17">.</text>
<text x="214.06" y="393.51">+</text>
<text x="108.42" y="271.12">+</text>
<text x="330.06" y="153.52">.</text>
<text x="287.63" y="413.11">.</text>
<text x="122.63" y="214.13">+</text>
<text x="115.88" y="248.68">.</text>
<text x="276.91" y="433.80">.</text>
<text x="288.52" y="6.35">.</text>
<text x="445.03" y="202.15">*</text>
<text x="184.42" y="146.33">*</text>
<text x="235.13" y="418.85">.</text>
<text x="35.36" y="170.82">+</text>
<text x="267.32" y="363.20">+</text>
<text x="147.97" y="205.93">.</text>
<text x="245.80" y="296.64">.</text>
<text x="393.46" y="164.90">+</text>
<text x="5.83" y="299.51">.</text>
<text x="462.92" y="226.44">*</text>
<text x="408.29" y="57.60">*</text>
<text x="224.39" y="15.24">+</text>
<text x="280.31" y="441.67">.</text>
<text x="246.56" y="35.69">.</text>
<text x="81.40" y="114.32">.</text>
<text x="421.63" y="404.71">.</text>
<text x="60.47" y="348.31">+</text>
<text x="161.47" y="83.70">.</text>
<text x="135.20" y="475.05">.</text>
<text x="267.05" y="222.93">.</text>
<text x="280.66" y="450.64">+</text>
<text x="356.59" y="121.51">.</text>
<text x="235.90" y="467.69">+</text>
<text x="232.33" y="124.66">.</text>
<text x="12.18" y="479.08">+</text>
<text x="192.92" y="107.14">+</text>
<text x="150.88" y="360.07">+</text>
<text x="163.78" y="29.55">+</text>
<text x="214.67" y="232.55">*</text>
<text x="430.37" y="459.20">+</text>
<text x="137.88" y="184.18">.</text>
<text x="141.14" y="472.75">.</text>
<text x="333.71" y="143.57">.</text>
<text x="463.88" y="39.16">+</text>
<text x="184.33" y="136.55">.</text>
<text x="37.19" y="243.19">.</text>
<text x="408.91" y="120.81">+</text>
<text x="323.55" y="450.54">.</text>
<text x="315.56" y="439.57">+</text>
<text x="51.31" y="395.74">.</text>
<text x="472.37" y="436.77">.</text>
<text x="166.59" y="267.48">.</text>
<text x="302.05" y="497.20">+</text>
<text x="65.92" y="252.68">.</text>
<text x="74.68" y="84.27">.</text>
<text x="5.31" y="474.70">.</text>
<text x="75.81" y="297.09">*</text>
<text x="150.08" y="385.13">+</text>
<text x="481.41" y="33.19">*</text>
<text x="169.03" y="437.29">+</text>
<text x="470.13" y="430.26">+</text>
<text x="275.40" y="4.75">+</text>
<text x="362.97" y="140.18">*</text>
<text x="204.82" y="99.51">*</text>
<text x="249.16" y="279.31">*</text>
<text x="37.01" y="68.71">.</text>
<text x="399.47" y="60.65">+</text>
<text x="412.94" y="294.46">.</text>
<text x="409.98" y="266.95">.</text>
<text x="337.77" y="108.41">.</text>
<text x="426.47" y="175.42">.</text>
<text x="422.47" y="342.93">+</text>
<text x="244.26" y="203.06">+</text>
<text x="235.59" y="288.14">+</text>
<text x="166.04" y="386.68">.</text>
<text x="214.70" y="122.89">.</text>
<text x="28.82" y="494.46">.</text>
<text x="66.94" y="389.96">.</text>
<text x="329.99" y="48.29">.</text>
<text x="387.51" y="228.75">.</text>
<text x="319.14" y="289.31">*</text>
<text x="99.86" y="259.95">+</text>
<text x="122.70" y="163.01">+</text>
<text x="117.46" y="39.19">+</text>
<text x="55.96" y="162.37">+</text>
<text x="498.21" y="445.44">+</text>
<text x="398.61" y="3.95">*</text>
<text x="344.50" y="275.00">+</text>
<text x="237.67" y="258.13">+</text>
<text x="420.92" y="192.25">+</text>
<text x="345.08" y="280.70">+</text>
<text x="211.92" y="265.64">+</text>
<text x="391.74" y="301.57">.</text>
<text x="384.67" y="398.91">+</text>
<text x="133.64" y="487.02">.</text>
<text x="23.02" y="189.84">+</text>
<text x="255.58" y="462.03">*</text>
<text x="355.98" y="98.98">+</text>
<text x="130.26" y="454.55">+</text>
<text x="262.73" y="347.55">*</text>
<text x="103.22" y="324.08">+</text>
<text x="494.15" y="171.58">.</text>
<text x="450.80" y="294.14">*</text>
<text x="205.60" y="370.41">.</text>
<text x="6.75" y="176.75">.</text>
<text x="190.80" y="277.99">.</text>
<text x="370.32" y="22.30">+</text>
<text x="265.62" y="170.53">.</text>
<text x="159.90" y="448.39">.</text>
<text x="9.34" y="349.96">.</text>
<text x="492.85" y="70.16">+</text>
<text x="331.82" y="289.99">+</text>
<text x="422.31" y="271.17">.</text>
<text x="2.58" y="479.04">+</text>
<text x="193.38" y="4.70">.</text>
<text x="184.40" y="441.25">+</text>
<text x="488.83" y="491.79">+</text>
<text x="291.63" y="320.21">*</text>
<text x="416.85" y="445.28">*</text>
<text x="158.40" y="180.37">.</text>
<text x="79.00" y="328.86">+</text>
<text x="461.55" y="139.89">+</text>
<text x="315.22" y="112.81">+</text>
<text x="226.60" y="162.82">*</text>
<text x="5.47" y="3.87">.</text>
<text x="398.97" y="209.43">+</text>
<text x="186.25" y="203.77">+</text>
<text x="50.29" y="465.13">+</text>
<text x="305.68" y="183.09">+</text>
<text x="487.59" y="170.58">.</text>
<text x="153.71" y="366.55">.</text>
<text x="139.64" y="188.21">*</text>
<text x="310.26" y="420.25">+</text>
<text x="280.56" y="214.81">+</text>
<text x="459.77" y="170.85">+</text>
<text x="125.17" y="488.88">.</text>
<text x="421.37" y="113.76">.</text>
<text x="73.25" y="5.26">.</text>
<text x="165.24" y="328.06">.</text>
<text x="272.79" y="177.50">.</text>
<text x="60.10" y="63.62">+</text>
<text x="407.70" y="188.10">.</text>
<text x="193.04" y="466.60">+</text>
<text x="364.17" y="278.15">+</text>
<text x="421.01" y="288.14">+</text>
<text x="104.78" y="95.76">.</text>
<text x="71.35" y="147.04">+</text>
<text x="116.60" y="379.77">*</text>
<text x="324.84" y="174.81">.</text>
<text x="366.83" y="299.36">.</text>
<text x="44.30" y="50.80">+</text>
<text x="435.50" y="91.85">*</text>
<text x="396.87" y="232.60">.</text>
<text x="183.11" y="379.58">+</text>
<text x="392.07" y="294.79">*</text>
<text x="265.62" y="283.70">.</text>
<text x="185.50" y="79.07">.</text>
<text x="368.58" y="90.09">*</text>
<text x="346.68" y="31.00">*</text>
<text x="474.47" y="233.15">.</text>
<text x="65.77" y="461.91">*</text>
<text x="283.05" y="86.00">+</text>
<text x="61.07" y="194.42">*</text>
<text x="317.50" y="125.48">.</text>
<text x="101.76" y="81.22">+</text>
<text x="441.91" y="390.79">+</text>
<text x="305.48" y="49.97">*</text>
<text x="106.78" y="355.72">+</text>
<text x="260.86" y="190.23">+</text>
<text x="333.81" y="171.10">.</text>
<text x="290.22" y="295.32">+</text>
<text x="193.92" y="188.21">+</text>
<text x="477.54" y="165.59">.</text>
<text x="176.54" y="191.07">.</text>
<text x="60.80" y="450.61">.</text>
<text x="206.14" y="345.80">.</text>
<text x="16.97" y="49.36">+</text>
<text x="233.06" y="258.06">+</text>
<text x="264.70" y="326.48">.</text>
<text x="19.18" y="271.98">.</text>
<text x="176.64" y="292.45">*</text>
<text x="64.51" y="434.66">+</text>

</svg>