
<svg viewBox="0 0 500 500" xmlns="http://www.w.org/2000/svg" width="100%" height="100%" style="background-color: #0a0a14; font-family: 'Courier New', Courier, monospace;">
    <style>
        text { fill: #aaa; font-size: 10px; text-anchor: middle; dominant-baseline: middle; }
    </style>
    <text x="200.81" y="328.74">*</text>
<text x="467.31" y="198.24">*</text>
<text x="182.56" y="265.09">.</text>
<text x="41.34" y="83.42">+</text>
<text x="88.66" y="316.51">+</text>
<text x="374.62" y="456.07">+</text>
<text x="317.32" y="319.61">*</text>
<text x="70.50" y="87.77">.</text>
<text x="426.97" y="183.21">+</text>
<text x="20.08" y="299.06">.</text>
<text x="2.29" y="30.82">.</text>
<text x="437.20" y="449.88">+</text>
<text x="428.57" y="404.31">.</text>
<text x="54.43" y="158.21">.</text>
<text x="315.91" y="493.51">*</text>
<text x="331.51" y="64.49">*</text>
<text x="361.62" y="340.77">.</text>
<text x="140.94" y="473.24">.</text>
<text x="371.88" y="234.05">+</text>
<text x="352.46" y="179.23">+</text>
<text x="209.56" y="362.93">.</text>
<text x="414.34" y="400.81">.</text>
<text x="429.38" y="80.93">+</text>
<text x="112.37" y="104.40">+</text>
<text x="246.68" y="88.24">+</text>
<text x="333.06" y="118.43">+</text>
<text x="406.90" y="269.31">+</text>
<text x="422.55" y="411.73">.</text>
<text x="162.73" y="144.44">+</text>
<text x="186.86" y="56.02">*</text>
<text x="17.61" y="318.28">.</text>
<text x="266.15" y="492.61">.</text>
<text x="131.09" y="296.59">.</text>
<text x="335.00" y="364.18">.</text>
<text x="315.26" y="144.05">*</text>
<text x="140.09" y="382.46">.</text>
<text x="284.48" y="432.26">+</text>
<text x="264.19" y="408.32">+</text>
<text x="86.99" y="250.11">+</text>
<text x="310.80" y="140.94">+</text>
<text x="155.09" y="244.11">*</text>
<text x="465.74" y="162.99">.</text>
<text x="479.39" y="91.05">+</text>
<text x="241.53" y="374.86">.</text>
<text x="352.43" y="444.61">+</text>
<text x="287.35" y="305.75">.</text>
<text x="202.99" y="9.52">+</text>
<text x="315.55" y="83.79">.</text>
<text x="47.85" y="448.17">.</text>
<text x="165.54" y="370.24">.</text>
<text x="35.05" y="479.74">.</text>
<text x="80.73" y="395.50">+</text>
<text x="300.79" y="280.46">+</text>
<text x="387.93" y="193.18">+</text>
<text x="311.40" y="41.59">+</text>
<text x="126.81" y="319.59">+</text>
<text x="290.21" y="174.41">+</text>
<text x="188.51" y="130.26">.</text>
<text x="200.96" y="159.28">*</text>
<text x="299.38" y="436.82">+</text>
<text x="241.01" y="231.65">*</text>
<text x="320.95" y="351.34">.</text>
<text x="133.65" y="363.03">*</text>
<text x="483.48" y="229.62">.</text>
<text x="164.59" y="331.92">.</text>
<text x="50.37" y="267.86">*</text>
<text x="187.47" y="241.64">.</text>
<text x="170.36" y="282.34">*</text>
<text x="286.73" y="271.78">.</text>
<text x="454.58" y="383.88">.</text>
<text x="465.45" y="278.50">+</text>
<text x="260.60" y="282.83">.</text>
<text x="91.64" y="432.35">.</text>
<text x="163.11" y="11.12">.</text>
<text x="440.15" y="391.38">*</text>
<text x="488.47" y="218.18">.</text>
<text x="192.37" y="261.56">.</text>
<text x="62.50" y="122.77">*</text>
<text x="75.30" y="87.97">+</text>
<text x="495.80" y="137.48">+</text>
<text x="151.68" y="322.81">.</text>
<text x="232.43" y="385.48">+</text>
<text x="75.49" y="188.25">.</text>
<text x="11.38" y="197.75">.</text>
<text x="160.28" y="136.17">+</text>
<text x="173.15" y="309.79">+</text>
<text x="453.13" y="238.42">.</text>
<text x="353.82" y="299.03">.</text>
<text x="379.62" y="469.87">.</text>
<text x="284.03" y="423.65">.</text>
<text x="177.42" y="75.21">.</text>
<text x="228.79" y="333.42">+</text>
<text x="304.32" y="335.02">.</text>
<text x="29.40" y="469.60">+</text>
<text x="337.11" y="230.92">*</text>
<text x="363.88" y="170.20">.</text>
<text x="282.52" y="484.00">+</text>
<text x="493.18" y="147.63">+</text>
<text x="262.41" y="431.42">.</text>
<text x="175.17" y="12.48">.</text>
<text x="19.64" y="463.14">.</text>
<text x="195.07" y="349.14">.</text>
<text x="1.07" y="93.31">+</text>
<text x="106.60" y="189.19">*</text>
<text x="47.79" y="279.99">*</text>
<text x="59.35" y="34.14">.</text>
<text x="288.77" y="252.17">+</text>
<text x="15.20" y="254.70">.</text>
<text x="356.16" y="129.19">.</text>
<text x="195.20" y="295.84">.</text>
<text x="378.29" y="474.72">.</text>
<text x="308.91" y="465.30">*</text>
<text x="396.64" y="493.89">+</text>
<text x="377.15" y="298.72">.</text>
<text x="220.13" y="350.08">.</text>
<text x="444.10" y="259.34">.</text>
<text x="62.52" y="436.64">+</text>
<text x="221.93" y="330.47">+</text>
<text x="269.45" y="270.76">.</text>
<text x="68.93" y="82.05">.</text>
<text x="218.80" y="483.96">+</text>
<text x="381.22" y="273.00">+</text>
<text x="441.23" y="20.51">+</text>
<text x="359.75" y="473.87">.</text>
<text x="164.96" y="124.43">+</text>
<text x="136.29" y="71.07">+</text>
<text x="184.58" y="0.25">*</text>
<text x="188.58" y="119.92">.</text>
<text x="99.40" y="429.58">*</text>
<text x="470.26" y="260.68">*</text>
<text x="449.01" y="361.11">.</text>
<text x="395.04" y="393.46">.</text>
<text x="227.67" y="138.96">.</text>
<text x="5.43" y="321.26">.</text>
<text x="239.15" y="76.62">+</text>
<text x="165.42" y="310.86">+</text>
<text x="334.08" y="464.40">.</text>
<text x="352.20" y="211.70">+</text>
<text x="123.70" y="392.03">+</text>
<text x="386.19" y="252.02">+</text>
<text x="438.98" y="464.44">.</text>
<text x="407.63" y="105.33">+</text>
<text x="141.12" y="233.46">.</text>
<text x="449.91" y="118.38">.</text>
<text x="213.68" y="298.11">+</text>
<text x="498.53" y="238.45">*</text>
<text x="16.02" y="454.46">.</text>
<text x="143.99" y="379.29">+</text>
<text x="455.84" y="412.78">.</text>
<text x="357.81" y="78.74">+</text>
<text x="419.65" y="270.65">+</text>
<text x="35.03" y="228.17">.</text>
<text x="320.80" y="341.26">.</text>
<text x="42.91" y="359.29">*</text>
<text x="348.21" y="152.10">+</text>
<text x="76.22" y="489.92">*</text>
<text x="482.87" y="143.57">+</text>
<text x="166.14" y="440.06">+</text>
<text x="156.03" y="346.67">+</text>
<text x="378.36" y="308.34">.</text>
<text x="39.12" y="246.63">.</text>
<text x="35.31" y="342.21">+</text>
<text x="359.29" y="185.89">*</text>
<text x="53.29" y="358.86">+</text>
<text x="478.87" y="365.95">.</text>
<text x="99.13" y="288.19">.</text>
<text x="73.43" y="323.57">*</text>
<text x="92.85" y="354.86">+</text>
<text x="333.24" y="471.80">.</text>
<text x="258.27" y="163.09">+</text>
<text x="221.85" y="319.23">+</text>
<text x="4.03" y="479.04">*</text>
<text x="112.50" y="322.18">.</text>
<text x="164.51" y="210.81">.</text>
<text x="153.37" y="459.08">*</text>
<text x="72.24" y="4.55">.</text>
<text x="173.36" y="229.93">+</text>
<text x="34.59" y="159.37">*</text>
<text x="176.68" y="199.20">.</text>
<text x="117.30" y="94.36">+</text>
<text x="115.30" y="40.08">.</text>
<text x="258.30" y="468.04">*</text>
<text x="346.77" y="198.72">.</text>
<text x="334.17" y="379.76">.</text>
<text x="217.38" y="476.49">+</text>
<text x="168.70" y="449.87">.</text>
<text x="413.91" y="373.01">.</text>
<text x="341.42" y="28.60">*</text>
<text x="409.02" y="58.55">+</text>
<text x="498.21" y="164.67">+</text>
<text x="151.42" y="452.71">*</text>
<text x="8.60" y="189.76">+</text>
<text x="45.45" y="345.52">.</text>
<text x="420.15" y="292.73">.</text>
<text x="184.56" y="97.53">+</text>
<text x="22.84" y="212.52">.</text>
<text x="354.58" y="136.32">.</text>
<text x="86.64" y="416.99">.</text>
<text x="369.38" y="495.43">*</text>
<text x="182.85" y="59.12">*</text>
<text x="12.82" y="65.75">+</text>
<text x="380.80" y="100.49">.</text>
<text x="375.76" y="200.68">.</text>
<text x="366.46" y="62.33">*</text>
<text x="479.27" y="155.09">*</text>
<text x="243.96" y="373.89">.</text>
<text x="400.29" y="117.13">.</text>
<text x="418.27" y="378.33">.</text>
<text x="258.72" y="120.51">+</text>
<text x="85.31" y="90.52">+</text>
<text x="35.83" y="155.30">*</text>
<text x="9.17" y="387.45">+</text>
<text x="183.88" y="78.97">+</text>
<text x="154.12" y="312.87">.</text>
<text x="131.09" y="304.36">*</text>
<text x="107.20" y="434.51">+</text>
<text x="346.07" y="90.52">+</text>
<text x="379.51" y="208.05">+</text>
<text x="36.90" y="474.15">.</text>
<text x="370.29" y="308.41">.</text>
<text x="259.16" y="35.85">+</text>

</svg>