
<svg viewBox="0 0 500 500" xmlns="http://www.w.org/2000/svg" width="100%" height="100%" style="background-color: #0a0a14; font-family: 'Courier New', Courier, monospace;">
    <style>
        text { fill: #aaa; font-size: 10px; text-anchor: middle; dominant-baseline: middle; }
    </style>
    <text x="200.83" y="428.30">*</text>
<text x="99.68" y="245.05">.</text>
<text x="356.61" y="448.13">+</text>
<text x="223.98" y="315.93">+</text>
<text x="311.61" y="226.19">+</text>
<text x="246.32" y="429.76">+</text>
<text x="452.68" y="483.94">.</text>
<text x="469.37" y="281.78">+</text>
<text x="112.31" y="402.28">+</text>
<text x="368.51" y="385.17">.</text>
<text x="371.77" y="322.24">+</text>
<text x="10.74" y="289.28">+</text>
<text x="477.89" y="362.82">+</text>
<text x="318.71" y="248.39">*</text>
<text x="430.57" y="131.77">+</text>
<text x="341.61" y="330.82">*</text>
<text x="418.25" y="407.23">.</text>
<text x="281.63" y="397.46">.</text>
<text x="251.74" y="491.05">+</text>
<text x="220.39" y="349.11">+</text>
<text x="282.27" y="422.91">*</text>
<text x="139.23" y="432.04">.</text>
<text x="94.93" y="338.31">+</text>
<text x="260.16" y="306.61">.</text>
<text x="410.51" y="303.98">+</text>
<text x="332.44" y="466.49">+</text>
<text x="434.69" y="172.02">+</text>
<text x="389.35" y="191.02">+</text>
<text x="416.31" y="28.37">+</text>
<text x="415.82" y="445.42">+</text>
<text x="323.05" y="455.83">.</text>
<text x="229.73" y="471.73">.</text>
<text x="446.62" y="51.68">+</text>
<text x="53.64" y="195.15">.</text>
<text x="401.07" y="475.78">*</text>
<text x="176.37" y="178.70">+</text>
<text x="122.79" y="194.01">+</text>
<text x="25.99" y="324.07">.</text>
<text x="119.84" y="54.94">+</text>
<text x="49.83" y="182.32">+</text>
<text x="206.78" y="250.10">+</text>
<text x="360.04" y="497.18">+</text>
<text x="391.55" y="346.52">.</text>
<text x="444.75" y="324.67">+</text>
<text x="372.37" y="219.26">.</text>
<text x="220.99" y="105.70">*</text>
<text x="279.08" y="102.60">+</text>
<text x="282.94" y="264.03">.</text>
<text x="441.32" y="122.70">+</text>
<text x="115.53" y="78.87">.</text>
<text x="220.73" y="411.08">.</text>
<text x="15.93" y="401.23">+</text>
<text x="415.56" y="18.94">+</text>
<text x="453.82" y="57.57">+</text>
<text x="0.38" y="270.14">+</text>
<text x="167.09" y="248.77">+</text>
<text x="9.14" y="277.48">.</text>
<text x="362.92" y="32.38">+</text>
<text x="297.21" y="386.22">+</text>
<text x="156.83" y="476.36">+</text>
<text x="318.33" y="203.85">*</text>
<text x="273.27" y="51.04">.</text>
<text x="246.19" y="138.20">*</text>
<text x="451.78" y="332.09">.</text>
<text x="267.70" y="189.47">+</text>
<text x="358.35" y="12.88">+</text>
<text x="386.44" y="193.34">.</text>
<text x="199.12" y="4.88">+</text>
<text x="76.24" y="399.26">+</text>
<text x="109.35" y="112.57">*</text>
<text x="148.79" y="214.19">.</text>
<text x="463.79" y="303.80">+</text>
<text x="324.85" y="239.89">+</text>
<text x="244.12" y="357.20">+</text>
<text x="55.77" y="485.57">.</text>
<text x="444.87" y="182.37">*</text>
<text x="19.02" y="152.63">+</text>
<text x="481.97" y="486.32">*</text>
<text x="491.49" y="448.15">+</text>
<text x="405.70" y="198.38">+</text>
<text x="457.23" y="326.52">.</text>
<text x="279.68" y="349.60">*</text>
<text x="471.03" y="306.21">.</text>
<text x="118.09" y="478.03">.</text>
<text x="253.84" y="97.65">*</text>
<text x="262.80" y="240.67">+</text>
<text x="468.21" y="328.16">.</text>
<text x="483.21" y="230.26">.</text>
<text x="454.82" y="172.19">+</text>
<text x="37.64" y="472.21">+</text>
<text x="483.01" y="329.22">.</text>
<text x="238.39" y="184.35">.</text>
<text x="373.60" y="128.13">*</text>
<text x="425.82" y="134.53">+</text>
<text x="392.03" y="291.30">*</text>
<text x="434.34" y="174.90">.</text>
<text x="198.08" y="147.36">+</text>
<text x="436.07" y="429.61">+</text>
<text x="327.84" y="226.22">.</text>
<text x="432.90" y="303.73">+</text>
<text x="311.06" y="452.40">.</text>
<text x="7.84" y="177.91">.</text>
<text x="366.12" y="499.55">+</text>
<text x="260.40" y="303.54">.</text>
<text x="250.94" y="224.64">.</text>
<text x="448.83" y="332.20">.</text>
<text x="235.87" y="431.36">.</text>
<text x="332.60" y="438.38">.</text>
<text x="315.54" y="447.56">*</text>
<text x="371.81" y="277.31">+</text>
<text x="94.52" y="383.92">+</text>
<text x="492.37" y="130.59">+</text>
<text x="440.88" y="221.93">.</text>
<text x="397.82" y="294.61">+</text>
<text x="364.00" y="420.13">*</text>
<text x="345.17" y="100.05">*</text>
<text x="326.71" y="339.02">+</text>
<text x="144.69" y="312.14">.</text>
<text x="391.36" y="63.75">+</text>
<text x="430.75" y="163.69">+</text>
<text x="366.77" y="185.87">.</text>
<text x="289.91" y="316.42">+</text>
<text x="129.10" y="433.28">.</text>
<text x="143.67" y="344.19">+</text>
<text x="367.49" y="244.73">+</text>
<text x="299.22" y="69.11">+</text>
<text x="161.77" y="325.97">*</text>
<text x="475.16" y="436.49">.</text>
<text x="53.56" y="417.64">.</text>
<text x="373.01" y="312.66">.</text>
<text x="117.01" y="168.24">+</text>
<text x="330.53" y="310.00">+</text>
<text x="484.08" y="320.93">+</text>
<text x="156.58" y="222.99">*</text>
<text x="358.98" y="246.48">.</text>
<text x="258.40" y="426.15">.</text>
<text x="143.37" y="237.09">+</text>
<text x="419.67" y="117.45">+</text>
<text x="60.91" y="454.34">+</text>
<text x="173.71" y="406.39">.</text>
<text x="7.67" y="406.23">+</text>
<text x="356.99" y="412.00">+</text>
<text x="34.95" y="104.79">+</text>
<text x="499.86" y="369.37">+</text>
<text x="310.00" y="269.89">*</text>
<text x="450.55" y="56.91">+</text>
<text x="351.62" y="59.93">+</text>
<text x="304.65" y="186.12">+</text>
<text x="475.26" y="183.63">.</text>
<text x="182.40" y="305.13">+</text>
<text x="160.63" y="15.18">.</text>
<text x="340.42" y="494.65">*</text>
<text x="140.27" y="332.97">.</text>
<text x="240.94" y="296.80">+</text>
<text x="436.61" y="41.39">+</text>
<text x="447.40" y="295.00">+</text>
<text x="424.72" y="495.66">+</text>
<text x="302.95" y="460.15">+</text>
<text x="467.27" y="184.44">.</text>
<text x="487.23" y="405.56">*</text>
<text x="266.99" y="311.56">.</text>
<text x="201.46" y="214.15">*</text>
<text x="414.94" y="226.10">.</text>
<text x="426.21" y="200.80">+</text>
<text x="280.39" y="344.76">+</text>
<text x="332.50" y="302.55">+</text>
<text x="303.23" y="115.15">.</text>
<text x="478.39" y="491.21">+</text>
<text x="441.81" y="483.82">.</text>
<text x="39.02" y="414.31">.</text>
<text x="209.07" y="109.90">.</text>
<text x="409.77" y="70.70">+</text>
<text x="176.28" y="191.25">.</text>
<text x="142.54" y="108.05">+</text>
<text x="464.04" y="498.91">.</text>
<text x="172.88" y="87.25">+</text>
<text x="222.35" y="91.49">.</text>
<text x="126.92" y="475.71">.</text>
<text x="472.67" y="298.97">.</text>
<text x="205.79" y="429.07">+</text>
<text x="218.39" y="413.68">*</text>
<text x="39.80" y="388.35">+</text>
<text x="278.24" y="275.92">.</text>
<text x="247.05" y="31.30">+</text>
<text x="256.78" y="475.92">+</text>
<text x="409.41" y="225.80">.</text>
<text x="27.93" y="78.70">+</text>
<text x="44.41" y="480.74">+</text>
<text x="439.70" y="280.72">.</text>
<text x="431.86" y="15.04">*</text>
<text x="189.48" y="461.59">.</text>
<text x="367.89" y="350.35">+</text>
<text x="80.44" y="449.76">+</text>
<text x="116.52" y="335.18">+</text>
<text x="310.61" y="442.33">+</text>
<text x="179.89" y="38.19">+</text>
<text x="382.23" y="386.23">+</text>
<text x="36.79" y="313.52">+</text>
<text x="333.16" y="495.82">+</text>
<text x="352.35" y="275.37">.</text>
<text x="279.50" y="141.34">+</text>
<text x="234.65" y="225.09">.</text>
<text x="381.51" y="132.34">.</text>
<text x="375.92" y="183.06">.</text>
<text x="349.13" y="56.22">+</text>
<text x="254.66" y="374.88">.</text>
<text x="320.51" y="412.98">+</text>
<text x="143.65" y="54.31">.</text>
<text x="371.50" y="79.27">+</text>

</svg>