
<svg viewBox="0 0 500 500" xmlns="http://www.w.org/2000/svg" width="100%" height="100%" style="background-color: #0a0a14; font-family: 'Courier New', Courier, monospace;">
    <style>
        text { fill: #aaa; font-size: 10px; text-anchor: middle; dominant-baseline: middle; }
    </style>
    <text x="178.87" y="61.97">.</text>
<text x="54.08" y="55.50">.</text>
<text x="49.46" y="136.44">.</text>
<text x="373.61" y="451.57">*</text>
<text x="259.13" y="410.62">+</text>
<text x="411.96" y="67.40">.</text>
<text x="237.87" y="9.96">+</text>
<text x="391.22" y="13.29">.</text>
<text x="19.88" y="389.72">.</text>
<text x="417.66" y="467.88">.</text>
<text x="258.68" y="103.02">+</text>
<text x="30.41" y="74.53">*</text>
<text x="133.50" y="146.92">*</text>
<text x="384.62" y="245.49">+</text>
<text x="226.72" y="420.48">+</text>
<text x="345.95" y="0.37">.</text>
<text x="473.45" y="247.28">+</text>
<text x="450.50" y="473.15">.</text>
<text x="307.85" y="46.63">.</text>
<text x="105.43" y="483.26">*</text>
<text x="456.88" y="492.35">+</text>
<text x="251.73" y="409.27">.</text>
<text x="59.98" y="139.09">+</text>
<text x="331.35" y="240.73">*</text>
<text x="9.77" y="230.34">*</text>
<text x="175.74" y="453.50">*</text>
<text x="350.67" y="88.70">+</text>
<text x="258.95" y="416.73">.</text>
<text x="223.62" y="350.87">+</text>
<text x="112.70" y="226.73">+</text>
<text x="169.08" y="124.05">.</text>
<text x="192.45" y="51.57">.</text>
<text x="361.77" y="488.39">*</text>
<text x="3.99" y="70.34">+</text>
<text x="21.20" y="201.26">+</text>
<text x="175.56" y="6.50">+</text>
<text x="473.96" y="34.03">+</text>
<text x="50.08" y="442.75">+</text>
<text x="103.68" y="179.55">+</text>
<text x="268.05" y="163.57">*</text>
<text x="339.61" y="459.79">*</text>
<text x="215.94" y="113.50">.</text>
<text x="47.99" y="364.14">.</text>
<text x="243.69" y="342.35">.</text>
<text x="236.31" y="336.39">+</text>
<text x="169.75" y="235.38">.</text>
<text x="16.54" y="426.74">.</text>
<text x="465.62" y="324.51">.</text>
<text x="110.81" y="83.02">+</text>
<text x="34.10" y="298.24">+</text>
<text x="210.79" y="73.23">.</text>
<text x="35.88" y="369.95">.</text>
<text x="410.04" y="263.75">.</text>
<text x="198.04" y="181.85">+</text>
<text x="275.15" y="89.20">.</text>
<text x="192.04" y="192.82">+</text>
<text x="42.86" y="145.90">.</text>
<text x="1.12" y="351.90">.</text>
<text x="138.53" y="318.87">*</text>
<text x="431.67" y="130.02">+</text>
<text x="371.09" y="459.81">.</text>
<text x="198.37" y="375.18">+</text>
<text x="96.85" y="50.71">+</text>
<text x="17.74" y="158.50">.</text>
<text x="89.62" y="61.85">*</text>
<text x="6.12" y="78.17">*</text>
<text x="26.13" y="37.33">.</text>
<text x="29.76" y="157.95">*</text>
<text x="321.40" y="31.83">.</text>
<text x="334.30" y="409.43">*</text>
<text x="229.96" y="187.40">*</text>
<text x="485.71" y="207.52">+</text>
<text x="303.08" y="340.62">+</text>
<text x="295.03" y="340.13">.</text>
<text x="88.03" y="89.66">+</text>
<text x="377.90" y="394.51">*</text>
<text x="354.88" y="497.36">+</text>
<text x="140.96" y="46.61">.</text>
<text x="56.05" y="266.94">+</text>
<text x="448.50" y="1.26">+</text>
<text x="311.90" y="467.00">+</text>
<text x="33.46" y="444.37">+</text>
<text x="330.11" y="33.19">+</text>
<text x="444.54" y="82.85">*</text>
<text x="177.57" y="160.92">.</text>
<text x="224.26" y="298.47">+</text>
<text x="62.88" y="363.39">.</text>
<text x="461.11" y="298.30">+</text>
<text x="273.09" y="240.07">+</text>
<text x="166.36" y="81.09">*</text>
<text x="405.28" y="281.16">.</text>
<text x="301.04" y="291.36">.</text>
<text x="374.77" y="453.67">*</text>
<text x="225.14" y="429.17">+</text>
<text x="73.58" y="216.54">+</text>
<text x="76.46" y="203.36">+</text>
<text x="459.03" y="28.91">+</text>
<text x="66.47" y="410.57">*</text>
<text x="116.71" y="424.89">+</text>
<text x="418.41" y="444.91">+</text>
<text x="396.11" y="325.01">+</text>
<text x="366.04" y="14.46">.</text>
<text x="14.24" y="382.21">*</text>
<text x="432.20" y="44.66">+</text>
<text x="167.98" y="192.31">*</text>
<text x="481.24" y="25.26">.</text>
<text x="491.56" y="480.08">+</text>
<text x="183.89" y="278.71">.</text>
<text x="147.61" y="492.64">+</text>
<text x="12.79" y="22.73">+</text>
<text x="381.95" y="176.53">+</text>
<text x="371.06" y="138.99">+</text>
<text x="393.11" y="428.12">+</text>
<text x="338.41" y="98.65">.</text>
<text x="112.50" y="402.33">.</text>
<text x="150.81" y="484.27">.</text>
<text x="348.54" y="312.10">+</text>
<text x="371.99" y="431.36">*</text>
<text x="483.24" y="137.55">+</text>
<text x="147.12" y="495.90">.</text>
<text x="78.37" y="405.76">.</text>
<text x="122.80" y="186.49">*</text>
<text x="24.34" y="104.83">*</text>
<text x="472.62" y="103.17">.</text>
<text x="280.83" y="72.27">+</text>
<text x="89.74" y="74.40">.</text>
<text x="412.32" y="190.18">.</text>
<text x="301.23" y="167.43">+</text>
<text x="400.52" y="164.13">*</text>
<text x="353.37" y="120.16">.</text>
<text x="201.48" y="38.50">.</text>
<text x="277.23" y="170.25">.</text>
<text x="499.95" y="47.82">+</text>
<text x="286.86" y="241.15">+</text>
<text x="171.79" y="450.95">+</text>
<text x="402.14" y="298.39">.</text>
<text x="67.09" y="88.86">+</text>
<text x="417.10" y="178.67">.</text>
<text x="183.32" y="13.08">.</text>
<text x="34.17" y="489.37">+</text>
<text x="251.13" y="359.41">+</text>
<text x="248.70" y="390.10">.</text>
<text x="160.35" y="82.30">+</text>
<text x="196.83" y="108.45">.</text>
<text x="265.89" y="146.41">+</text>
<text x="382.45" y="188.90">.</text>
<text x="416.48" y="123.95">+</text>
<text x="270.87" y="248.95">+</text>
<text x="37.93" y="188.93">+</text>
<text x="442.35" y="467.59">+</text>
<text x="298.09" y="142.17">+</text>
<text x="47.19" y="141.05">+</text>
<text x="481.18" y="334.89">+</text>
<text x="375.29" y="426.09">+</text>
<text x="37.47" y="438.54">.</text>
<text x="36.93" y="176.43">.</text>
<text x="291.49" y="296.78">+</text>
<text x="240.41" y="24.43">.</text>
<text x="410.41" y="92.81">+</text>
<text x="327.86" y="344.48">.</text>
<text x="11.52" y="404.33">+</text>
<text x="462.11" y="338.55">+</text>
<text x="461.31" y="285.56">.</text>
<text x="259.99" y="328.97">.</text>
<text x="20.83" y="26.09">.</text>
<text x="13.78" y="155.20">+</text>
<text x="266.98" y="222.49">+</text>
<text x="94.18" y="247.88">.</text>
<text x="464.92" y="96.48">+</text>
<text x="300.27" y="55.32">.</text>
<text x="453.20" y="409.95">*</text>
<text x="74.40" y="421.16">.</text>
<text x="256.03" y="462.76">*</text>
<text x="255.27" y="218.82">+</text>
<text x="20.66" y="26.41">+</text>
<text x="215.31" y="417.17">+</text>
<text x="77.46" y="277.62">+</text>
<text x="438.20" y="226.89">+</text>
<text x="94.79" y="311.83">.</text>
<text x="293.13" y="329.29">+</text>
<text x="498.85" y="362.45">.</text>
<text x="398.79" y="194.46">+</text>
<text x="364.68" y="472.12">+</text>
<text x="131.09" y="390.60">*</text>
<text x="60.75" y="498.12">.</text>
<text x="262.16" y="475.52">+</text>

</svg>