
<svg viewBox="0 0 500 500" xmlns="http://www.w.org/2000/svg" width="100%" height="100%" style="background-color: #0a0a14; font-family: 'Courier New', Courier, monospace;">
    <style>
        text { fill: #aaa; font-size: 10px; text-anchor: middle; dominant-baseline: middle; }
    </style>
    <text x="451.41" y="290.70">*</text>
<text x="299.70" y="444.19">.</text>
<text x="366.00" y="275.99">.</text>
<text x="418.72" y="127.90">+</text>
<text x="72.80" y="433.12">.</text>
<text x="466.45" y="78.20">+</text>
<text x="423.95" y="393.65">*</text>
<text x="305.80" y="496.57">.</text>
<text x="251.06" y="160.79">.</text>
<text x="287.90" y="305.16">+</text>
<text x="312.51" y="119.37">+</text>
<text x="162.19" y="374.59">+</text>
<text x="189.31" y="215.50">*</text>
<text x="240.72" y="387.10">.</text>
<text x="209.83" y="349.28">.</text>
<text x="74.64" y="371.93">.</text>
<text x="185.60" y="39.57">+</text>
<text x="476.06" y="293.96">.</text>
<text x="338.32" y="368.93">+</text>
<text x="169.06" y="116.03">.</text>
<text x="132.50" y="464.35">*</text>
<text x="151.86" y="319.47">*</text>
<text x="355.17" y="414.93">+</text>
<text x="487.86" y="348.04">+</text>
<text x="472.71" y="279.95">.</text>
<text x="382.31" y="131.26">.</text>
<text x="179.27" y="251.60">.</text>
<text x="200.57" y="432.73">+</text>
<text x="304.21" y="466.81">.</text>
<text x="155.64" y="186.65">.</text>
<text x="339.60" y="191.71">+</text>
<text x="141.73" y="471.44">+</text>
<text x="439.95" y="18.95">*</text>
<text x="424.65" y="325.90">*</text>
<text x="207.39" y="104.44">+</text>
<text x="357.56" y="254.30">.</text>
<text x="487.90" y="218.07">.</text>
<text x="467.77" y="79.84">.</text>
<text x="293.32" y="424.31">+</text>
<text x="92.96" y="433.35">.</text>
<text x="168.91" y="101.30">+</text>
<text x="232.80" y="85.53">.</text>
<text x="305.24" y="138.93">+</text>
<text x="3.79" y="100.49">.</text>
<text x="10.14" y="175.77">*</text>
<text x="426.67" y="294.25">.</text>
<text x="118.28" y="147.11">.</text>
<text x="315.21" y="166.98">+</text>
<text x="226.26" y="144.22">.</text>
<text x="225.72" y="361.82">.</text>
<text x="191.79" y="493.91">+</text>
<text x="260.12" y="239.62">+</text>
<text x="415.93" y="495.51">.</text>
<text x="42.14" y="161.25">.</text>
<text x="83.64" y="417.29">.</text>
<text x="477.26" y="145.89">+</text>
<text x="401.66" y="274.33">*</text>
<text x="446.69" y="259.43">+</text>
<text x="304.08" y="148.54">+</text>
<text x="484.21" y="124.53">.</text>
<text x="470.40" y="113.56">+</text>
<text x="0.12" y="389.27">+</text>
<text x="386.46" y="397.50">*</text>
<text x="90.04" y="353.10">.</text>
<text x="428.90" y="262.54">.</text>
<text x="159.87" y="280.92">.</text>
<text x="166.37" y="87.09">*</text>
<text x="401.93" y="35.05">+</text>
<text x="148.18" y="163.84">+</text>
<text x="498.88" y="394.44">+</text>
<text x="118.09" y="402.04">.</text>
<text x="470.80" y="35.89">+</text>
<text x="414.77" y="76.21">+</text>
<text x="108.15" y="497.85">.</text>
<text x="239.30" y="370.80">.</text>
<text x="73.35" y="348.11">+</text>
<text x="16.23" y="170.54">+</text>
<text x="61.56" y="468.83">+</text>
<text x="274.57" y="451.34">+</text>
<text x="468.81" y="148.79">.</text>
<text x="339.78" y="257.16">+</text>
<text x="310.84" y="231.84">.</text>
<text x="449.54" y="365.93">+</text>
<text x="256.22" y="60.73">*</text>
<text x="332.95" y="96.57">+</text>
<text x="99.80" y="37.55">.</text>
<text x="20.52" y="39.51">.</text>
<text x="51.91" y="93.05">.</text>
<text x="342.91" y="302.63">+</text>
<text x="454.75" y="377.93">.</text>
<text x="58.67" y="183.92">+</text>
<text x="456.29" y="50.09">.</text>
<text x="435.23" y="43.33">.</text>
<text x="103.23" y="222.67">+</text>
<text x="483.49" y="453.45">+</text>
<text x="422.77" y="201.63">+</text>
<text x="278.23" y="415.04">.</text>
<text x="24.68" y="481.45">+</text>
<text x="481.96" y="295.14">+</text>
<text x="38.51" y="341.99">+</text>
<text x="401.39" y="139.34">+</text>
<text x="222.12" y="481.43">*</text>
<text x="107.04" y="371.46">.</text>
<text x="477.11" y="440.53">.</text>
<text x="10.05" y="110.09">+</text>
<text x="299.32" y="313.97">.</text>
<text x="132.97" y="214.85">.</text>
<text x="277.34" y="71.70">+</text>
<text x="459.92" y="333.85">.</text>
<text x="110.03" y="140.24">+</text>
<text x="67.61" y="191.94">*</text>
<text x="148.14" y="257.82">.</text>
<text x="313.81" y="8.42">+</text>
<text x="498.57" y="287.29">+</text>
<text x="186.76" y="152.14">.</text>
<text x="248.72" y="201.99">.</text>
<text x="478.82" y="278.62">+</text>
<text x="313.38" y="284.32">.</text>
<text x="416.26" y="166.84">+</text>
<text x="238.68" y="476.20">+</text>
<text x="407.43" y="262.27">.</text>
<text x="332.03" y="315.16">+</text>
<text x="122.82" y="382.23">.</text>
<text x="175.48" y="154.52">.</text>
<text x="217.63" y="377.49">+</text>
<text x="153.95" y="174.04">*</text>
<text x="140.41" y="467.53">+</text>
<text x="272.35" y="383.77">.</text>
<text x="154.80" y="108.89">+</text>
<text x="496.34" y="292.77">.</text>
<text x="429.09" y="44.49">.</text>
<text x="444.10" y="468.75">*</text>
<text x="404.11" y="391.06">*</text>
<text x="165.14" y="338.59">.</text>
<text x="484.68" y="55.73">.</text>
<text x="472.96" y="307.43">+</text>
<text x="111.22" y="339.31">*</text>
<text x="442.91" y="355.24">+</text>
<text x="443.66" y="409.62">*</text>
<text x="232.88" y="260.47">.</text>
<text x="384.04" y="379.36">+</text>
<text x="350.19" y="369.99">+</text>
<text x="268.53" y="308.82">+</text>
<text x="92.34" y="66.58">+</text>
<text x="156.30" y="273.46">.</text>
<text x="257.90" y="62.52">+</text>
<text x="121.89" y="358.31">.</text>
<text x="436.51" y="205.71">.</text>
<text x="321.37" y="207.69">.</text>
<text x="250.35" y="450.83">+</text>
<text x="11.68" y="61.31">*</text>
<text x="346.08" y="233.18">.</text>
<text x="205.58" y="463.44">.</text>
<text x="151.98" y="47.52">*</text>
<text x="139.10" y="361.61">.</text>
<text x="443.32" y="398.12">*</text>
<text x="45.94" y="266.00">.</text>
<text x="223.13" y="81.48">*</text>
<text x="114.65" y="472.14">+</text>
<text x="99.64" y="22.13">*</text>
<text x="432.26" y="85.92">+</text>
<text x="456.46" y="185.59">*</text>
<text x="471.63" y="289.58">+</text>
<text x="246.50" y="182.70">+</text>
<text x="68.78" y="272.69">+</text>
<text x="13.87" y="130.20">*</text>
<text x="261.95" y="45.54">.</text>
<text x="142.68" y="434.75">.</text>
<text x="370.29" y="403.50">+</text>
<text x="206.92" y="201.51">.</text>
<text x="493.22" y="413.37">+</text>
<text x="470.11" y="193.27">.</text>
<text x="416.01" y="70.85">*</text>
<text x="27.11" y="479.11">.</text>
<text x="142.35" y="287.69">+</text>
<text x="56.65" y="361.91">+</text>
<text x="362.35" y="246.38">.</text>
<text x="104.72" y="191.56">.</text>
<text x="60.89" y="14.04">+</text>
<text x="141.90" y="334.86">.</text>
<text x="480.13" y="271.35">.</text>
<text x="166.02" y="241.87">.</text>
<text x="151.87" y="309.76">.</text>
<text x="361.23" y="270.39">.</text>
<text x="460.21" y="86.70">+</text>
<text x="234.28" y="173.38">.</text>
<text x="216.64" y="138.40">+</text>
<text x="318.86" y="220.19">.</text>
<text x="240.96" y="3.88">.</text>
<text x="327.33" y="69.04">.</text>
<text x="185.50" y="397.05">.</text>
<text x="383.67" y="232.80">+</text>
<text x="454.14" y="497.33">.</text>
<text x="341.21" y="18.84">*</text>
<text x="399.35" y="295.90">.</text>
<text x="344.80" y="205.30">.</text>
<text x="172.24" y="60.43">+</text>
<text x="117.00" y="13.68">+</text>
<text x="476.22" y="140.47">+</text>
<text x="275.94" y="154.49">*</text>
<text x="449.59" y="130.46">*</text>
<text x="429.05" y="45.48">+</text>
<text x="278.02" y="100.08">*</text>
<text x="414.06" y="110.25">+</text>
<text x="65.44" y="29.51">.</text>
<text x="408.70" y="192.99">.</text>
<text x="20.62" y="350.36">+</text>
<text x="28.10" y="264.02">+</text>
<text x="439.12" y="264.59">+</text>
<text x="39.95" y="265.63">.</text>
<text x="316.27" y="356.57">.</text>
<text x="300.70" y="41.95">.</text>
<text x="111.25" y="10.20">.</text>
<text x="162.02" y="412.99">*</text>
<text x="60.87" y="236.60">.</text>
<text x="186.70" y="170.23">+</text>

</svg>