
<svg viewBox="0 0 500 500" xmlns="http://www.w.org/2000/svg" width="100%" height="100%" style="background-color: #0a0a14; font-family: 'Courier New', Courier, monospace;">
    <style>
        text { fill: #aaa; font-size: 10px; text-anchor: middle; dominant-baseline: middle; }
    </style>
    <text x="371.50" y="382.74">.</text>
<text x="321.72" y="418.44">.</text>
<text x="330.87" y="222.13">+</text>
<text x="101.54" y="289.86">.</text>
<text x="404.01" y="436.02">+</text>
<text x="49.79" y="151.28">*</text>
<text x="23.65" y="398.59">.</text>
<text x="411.84" y="324.70">.</text>
<text x="489.24" y="209.18">*</text>
<text x="386.92" y="58.58">+</text>
<text x="54.59" y="278.13">.</text>
<text x="439.60" y="280.04">*</text>
<text x="29.93" y="308.39">.</text>
<text x="146.92" y="375.26">*</text>
<text x="80.25" y="280.53">*</text>
<text x="65.99" y="32.99">+</text>
<text x="387.44" y="395.55">+</text>
<text x="308.75" y="67.18">*</text>
<text x="222.36" y="76.26">*</text>
<text x="398.68" y="492.74">.</text>
<text x="433.85" y="497.02">*</text>
<text x="228.28" y="333.24">.</text>
<text x="186.25" y="418.38">.</text>
<text x="175.16" y="370.87">*</text>
<text x="12.96" y="383.48">*</text>
<text x="490.28" y="337.78">+</text>
<text x="331.23" y="69.50">+</text>
<text x="403.69" y="115.81">.</text>
<text x="443.85" y="115.21">.</text>
<text x="267.03" y="103.53">.</text>
<text x="484.37" y="369.99">+</text>
<text x="347.22" y="430.43">.</text>
<text x="291.41" y="303.45">.</text>
<text x="375.32" y="93.96">.</text>
<text x="163.02" y="182.05">.</text>
<text x="490.77" y="213.27">+</text>
<text x="384.25" y="286.65">.</text>
<text x="294.21" y="436.45">+</text>
<text x="303.87" y="326.13">+</text>
<text x="200.44" y="274.70">+</text>
<text x="499.81" y="14.80">+</text>
<text x="224.14" y="35.21">.</text>
<text x="453.19" y="363.79">+</text>
<text x="330.17" y="125.54">+</text>
<text x="429.70" y="98.34">.</text>
<text x="111.63" y="390.02">.</text>
<text x="143.29" y="373.10">.</text>
<text x="150.62" y="33.76">.</text>
<text x="75.22" y="317.49">+</text>
<text x="63.76" y="299.84">.</text>
<text x="376.43" y="351.80">.</text>
<text x="86.24" y="419.55">+</text>
<text x="250.29" y="260.63">+</text>
<text x="216.02" y="277.27">*</text>
<text x="251.79" y="93.75">+</text>
<text x="226.68" y="199.72">+</text>
<text x="43.22" y="1.41">+</text>
<text x="473.90" y="296.02">.</text>
<text x="21.05" y="387.46">.</text>
<text x="172.66" y="116.66">.</text>
<text x="40.22" y="477.10">*</text>
<text x="48.77" y="28.66">+</text>
<text x="231.07" y="474.80">.</text>
<text x="78.49" y="70.06">+</text>
<text x="137.08" y="465.52">+</text>
<text x="438.81" y="54.17">.</text>
<text x="384.34" y="17.21">.</text>
<text x="47.81" y="414.16">+</text>
<text x="100.30" y="87.06">.</text>
<text x="79.09" y="141.95">.</text>
<text x="274.41" y="65.77">.</text>
<text x="42.41" y="325.06">.</text>
<text x="388.19" y="392.46">+</text>
<text x="346.52" y="436.48">.</text>
<text x="5.94" y="107.72">+</text>
<text x="21.03" y="453.34">.</text>
<text x="54.43" y="138.85">+</text>
<text x="18.94" y="478.55">.</text>
<text x="477.11" y="265.55">*</text>
<text x="311.72" y="34.58">*</text>
<text x="498.15" y="349.19">*</text>
<text x="93.29" y="366.90">+</text>
<text x="406.77" y="300.53">+</text>
<text x="281.13" y="401.81">.</text>
<text x="275.49" y="152.07">.</text>
<text x="150.89" y="172.90">+</text>
<text x="425.91" y="432.05">.</text>
<text x="374.98" y="436.06">.</text>
<text x="68.74" y="28.84">.</text>
<text x="352.39" y="499.43">.</text>
<text x="179.89" y="427.86">.</text>
<text x="80.30" y="25.78">.</text>
<text x="26.95" y="357.41">+</text>
<text x="412.11" y="201.55">.</text>
<text x="130.05" y="237.63">+</text>
<text x="97.58" y="213.16">.</text>
<text x="307.49" y="66.61">*</text>
<text x="487.62" y="439.45">.</text>
<text x="489.96" y="162.04">*</text>
<text x="448.49" y="61.24">.</text>
<text x="477.68" y="108.88">.</text>
<text x="437.01" y="106.41">+</text>
<text x="190.16" y="146.73">.</text>
<text x="425.72" y="200.65">+</text>
<text x="148.62" y="78.15">*</text>
<text x="476.97" y="199.79">.</text>
<text x="315.81" y="295.48">+</text>
<text x="142.87" y="129.36">.</text>
<text x="374.48" y="354.39">+</text>
<text x="129.64" y="360.07">.</text>
<text x="29.63" y="11.88">+</text>
<text x="263.54" y="135.87">.</text>
<text x="413.83" y="74.96">+</text>
<text x="374.51" y="495.60">*</text>
<text x="385.79" y="180.37">+</text>
<text x="231.51" y="7.25">.</text>
<text x="369.13" y="315.33">.</text>
<text x="43.09" y="360.54">.</text>
<text x="191.52" y="143.78">+</text>
<text x="15.55" y="385.69">+</text>
<text x="226.69" y="413.30">.</text>
<text x="15.48" y="482.51">.</text>
<text x="44.30" y="392.60">+</text>
<text x="407.12" y="396.89">+</text>
<text x="249.01" y="179.46">+</text>
<text x="243.01" y="44.82">.</text>
<text x="360.05" y="108.15">.</text>
<text x="389.89" y="210.56">+</text>
<text x="288.39" y="94.94">.</text>
<text x="302.64" y="323.57">+</text>
<text x="483.98" y="253.38">+</text>
<text x="235.20" y="362.23">+</text>
<text x="495.20" y="5.03">+</text>
<text x="273.48" y="261.58">.</text>
<text x="56.87" y="115.67">.</text>
<text x="283.94" y="206.08">*</text>
<text x="434.66" y="67.60">.</text>
<text x="348.31" y="234.13">.</text>
<text x="295.95" y="79.71">.</text>
<text x="432.91" y="48.24">.</text>
<text x="341.21" y="380.36">+</text>
<text x="38.77" y="124.63">+</text>
<text x="193.96" y="285.56">.</text>
<text x="349.17" y="394.00">+</text>
<text x="470.72" y="334.19">.</text>
<text x="165.44" y="248.08">+</text>
<text x="10.40" y="147.30">.</text>
<text x="476.23" y="207.10">*</text>
<text x="162.83" y="233.30">*</text>
<text x="262.48" y="286.34">.</text>
<text x="362.49" y="380.00">+</text>
<text x="30.66" y="294.00">+</text>
<text x="386.52" y="48.41">+</text>
<text x="453.21" y="178.77">.</text>
<text x="276.97" y="406.51">+</text>
<text x="195.17" y="352.79">.</text>
<text x="184.96" y="321.76">*</text>
<text x="266.70" y="465.21">.</text>
<text x="142.20" y="337.64">*</text>
<text x="38.32" y="72.93">.</text>
<text x="409.62" y="203.52">+</text>
<text x="298.96" y="364.62">*</text>
<text x="9.02" y="486.41">*</text>
<text x="496.82" y="65.87">+</text>
<text x="272.57" y="136.77">*</text>
<text x="37.73" y="332.09">.</text>
<text x="468.14" y="150.63">+</text>
<text x="129.52" y="393.97">.</text>
<text x="373.17" y="382.78">.</text>
<text x="252.12" y="178.42">.</text>
<text x="197.92" y="314.38">.</text>
<text x="48.73" y="71.24">*</text>
<text x="194.81" y="45.68">+</text>
<text x="411.30" y="75.19">.</text>
<text x="269.37" y="219.23">.</text>
<text x="496.23" y="389.57">*</text>
<text x="197.78" y="361.55">+</text>
<text x="64.60" y="243.13">.</text>
<text x="415.60" y="270.67">+</text>
<text x="360.03" y="43.01">.</text>
<text x="416.98" y="377.99">.</text>
<text x="371.34" y="492.05">+</text>
<text x="4.86" y="30.01">.</text>
<text x="378.85" y="454.38">.</text>
<text x="133.26" y="275.57">.</text>
<text x="357.35" y="84.19">+</text>
<text x="340.99" y="25.41">.</text>
<text x="47.74" y="220.15">+</text>
<text x="39.81" y="92.43">+</text>
<text x="71.71" y="476.78">.</text>
<text x="13.25" y="143.46">.</text>
<text x="463.37" y="400.89">+</text>
<text x="266.73" y="457.85">*</text>
<text x="443.47" y="254.07">.</text>
<text x="163.45" y="172.84">+</text>
<text x="238.00" y="105.35">.</text>
<text x="56.06" y="286.40">+</text>
<text x="65.98" y="452.37">.</text>
<text x="29.06" y="23.88">.</text>
<text x="182.27" y="329.26">.</text>
<text x="58.23" y="339.32">+</text>
<text x="408.27" y="257.34">+</text>
<text x="320.03" y="52.12">+</text>
<text x="158.53" y="68.72">*</text>
<text x="335.97" y="148.09">+</text>
<text x="95.74" y="409.87">.</text>
<text x="21.49" y="343.68">.</text>
<text x="40.59" y="135.42">+</text>
<text x="345.11" y="255.88">+</text>
<text x="197.18" y="483.52">*</text>
<text x="285.43" y="408.57">+</text>
<text x="366.55" y="413.02">+</text>
<text x="308.51" y="238.33">+</text>
<text x="361.91" y="177.19">.</text>
<text x="138.84" y="219.02">*</text>
<text x="173.05" y="419.42">.</text>

</svg>