
<svg viewBox="0 0 500 500" xmlns="http://www.w.org/2000/svg" width="100%" height="100%" style="background-color: #0a0a14; font-family: 'Courier New', Courier, monospace;">
    <style>
        text { fill: #aaa; font-size: 10px; text-anchor: middle; dominant-baseline: middle; }
    </style>
    <text x="119.22" y="319.70">.</text>
<text x="282.27" y="377.07">.</text>
<text x="149.39" y="347.55">.</text>
<text x="188.50" y="7.12">.</text>
<text x="88.16" y="273.73">.</text>
<text x="492.29" y="272.50">+</text>
<text x="316.32" y="407.67">+</text>
<text x="290.89" y="338.63">.</text>
<text x="462.52" y="182.03">+</text>
<text x="467.65" y="83.55">.</text>
<text x="23.61" y="346.71">+</text>
<text x="227.11" y="171.47">*</text>
<text x="163.06" y="24.39">.</text>
<text x="225.54" y="1.74">.</text>
<text x="374.52" y="431.33">+</text>
<text x="353.82" y="179.44">*</text>
<text x="256.09" y="213.37">+</text>
<text x="251.89" y="266.27">.</text>
<text x="268.06" y="398.28">*</text>
<text x="433.58" y="200.22">+</text>
<text x="32.57" y="250.87">+</text>
<text x="430.99" y="187.91">.</text>
<text x="348.41" y="375.90">.</text>
<text x="18.33" y="47.74">+</text>
<text x="449.59" y="222.06">.</text>
<text x="388.38" y="377.64">+</text>
<text x="227.26" y="478.39">+</text>
<text x="216.39" y="209.13">.</text>
<text x="326.92" y="177.82">.</text>
<text x="93.55" y="479.53">+</text>
<text x="445.44" y="499.99">.</text>
<text x="459.46" y="467.37">+</text>
<text x="395.54" y="404.00">.</text>
<text x="15.43" y="118.52">+</text>
<text x="439.41" y="436.25">*</text>
<text x="94.58" y="343.51">.</text>
<text x="217.55" y="422.00">+</text>
<text x="343.42" y="144.01">+</text>
<text x="397.01" y="481.54">+</text>
<text x="127.90" y="81.98">+</text>
<text x="175.53" y="358.41">+</text>
<text x="399.66" y="294.14">+</text>
<text x="448.42" y="214.91">.</text>
<text x="244.28" y="368.94">.</text>
<text x="484.44" y="342.19">+</text>
<text x="126.84" y="293.98">+</text>
<text x="134.73" y="365.51">.</text>
<text x="247.56" y="324.06">+</text>
<text x="28.38" y="359.15">.</text>
<text x="18.29" y="340.29">+</text>
<text x="284.00" y="185.82">+</text>
<text x="215.42" y="14.61">+</text>
<text x="135.62" y="351.58">+</text>
<text x="0.40" y="12.46">+</text>
<text x="189.86" y="234.99">*</text>
<text x="451.80" y="184.79">+</text>
<text x="41.42" y="368.54">*</text>
<text x="237.75" y="363.59">.</text>
<text x="59.22" y="257.90">.</text>
<text x="20.21" y="197.64">.</text>
<text x="464.33" y="461.53">.</text>
<text x="88.91" y="423.05">+</text>
<text x="155.41" y="454.22">.</text>
<text x="134.75" y="296.16">.</text>
<text x="438.50" y="269.27">.</text>
<text x="126.92" y="491.54">.</text>
<text x="481.95" y="115.25">+</text>
<text x="238.49" y="21.97">+</text>
<text x="366.59" y="366.84">*</text>
<text x="28.46" y="153.50">+</text>
<text x="496.46" y="443.39">.</text>
<text x="344.70" y="182.31">+</text>
<text x="401.98" y="457.69">+</text>
<text x="255.81" y="489.77">*</text>
<text x="227.76" y="334.73">*</text>
<text x="103.33" y="379.34">.</text>
<text x="30.87" y="68.34">+</text>
<text x="181.62" y="480.51">+</text>
<text x="19.42" y="417.89">.</text>
<text x="288.23" y="32.55">.</text>
<text x="330.24" y="448.63">+</text>
<text x="128.96" y="209.40">+</text>
<text x="481.91" y="443.79">*</text>
<text x="399.34" y="146.75">.</text>
<text x="2.65" y="70.49">.</text>
<text x="335.02" y="475.10">+</text>
<text x="172.62" y="296.66">*</text>
<text x="365.19" y="105.91">+</text>
<text x="448.74" y="221.78">*</text>
<text x="483.31" y="306.02">+</text>
<text x="466.07" y="188.12">*</text>
<text x="66.02" y="220.38">+</text>
<text x="91.35" y="359.48">*</text>
<text x="438.56" y="152.71">+</text>
<text x="28.98" y="397.63">.</text>
<text x="17.64" y="134.58">+</text>
<text x="422.72" y="333.42">+</text>
<text x="283.61" y="329.56">.</text>
<text x="485.52" y="176.89">+</text>
<text x="217.98" y="95.85">.</text>
<text x="385.90" y="391.85">+</text>
<text x="240.85" y="84.83">+</text>
<text x="177.31" y="472.68">+</text>
<text x="54.45" y="169.54">+</text>
<text x="254.55" y="252.02">.</text>
<text x="336.75" y="410.27">.</text>
<text x="441.75" y="179.06">+</text>
<text x="359.45" y="85.95">+</text>
<text x="131.93" y="2.69">+</text>
<text x="342.03" y="284.84">+</text>
<text x="289.81" y="398.83">.</text>
<text x="165.84" y="57.61">.</text>
<text x="427.52" y="113.02">.</text>
<text x="177.47" y="398.32">+</text>
<text x="231.25" y="387.42">.</text>
<text x="472.55" y="85.95">+</text>
<text x="19.21" y="289.58">*</text>
<text x="328.56" y="26.33">+</text>
<text x="395.59" y="309.87">+</text>
<text x="447.11" y="154.83">.</text>
<text x="425.35" y="94.25">*</text>
<text x="438.85" y="107.41">+</text>
<text x="497.32" y="59.13">.</text>
<text x="255.01" y="242.60">+</text>
<text x="172.85" y="141.96">.</text>
<text x="39.86" y="357.90">+</text>
<text x="450.61" y="430.16">.</text>
<text x="140.20" y="333.42">*</text>
<text x="260.28" y="50.96">.</text>
<text x="499.33" y="44.14">*</text>
<text x="1.08" y="282.18">+</text>
<text x="326.10" y="318.12">.</text>
<text x="62.50" y="203.87">.</text>
<text x="109.20" y="464.63">+</text>
<text x="37.48" y="491.42">+</text>
<text x="485.24" y="285.79">.</text>
<text x="436.08" y="461.83">*</text>
<text x="496.39" y="413.71">.</text>
<text x="90.12" y="27.58">.</text>
<text x="413.03" y="485.89">+</text>
<text x="348.93" y="411.19">.</text>
<text x="426.31" y="113.09">.</text>
<text x="100.15" y="21.04">+</text>
<text x="373.01" y="212.07">.</text>
<text x="377.55" y="45.72">*</text>
<text x="22.78" y="382.38">+</text>
<text x="436.28" y="372.26">+</text>
<text x="365.66" y="185.25">+</text>
<text x="282.81" y="134.92">*</text>
<text x="212.84" y="102.87">+</text>
<text x="373.35" y="402.53">.</text>
<text x="422.78" y="137.05">+</text>
<text x="76.50" y="284.43">+</text>
<text x="210.84" y="323.81">+</text>
<text x="402.66" y="372.75">+</text>
<text x="390.50" y="178.60">*</text>
<text x="81.14" y="457.68">.</text>
<text x="337.94" y="249.27">.</text>
<text x="256.82" y="46.85">+</text>
<text x="197.13" y="338.82">*</text>
<text x="7.46" y="54.78">.</text>
<text x="277.16" y="331.46">+</text>
<text x="412.71" y="315.86">+</text>
<text x="492.94" y="133.31">*</text>
<text x="135.73" y="224.14">.</text>
<text x="391.39" y="147.35">+</text>
<text x="241.52" y="115.48">.</text>
<text x="12.58" y="53.13">+</text>
<text x="458.60" y="294.75">.</text>
<text x="123.87" y="228.82">*</text>
<text x="485.74" y="376.66">+</text>
<text x="256.57" y="477.18">.</text>
<text x="33.96" y="48.98">+</text>
<text x="469.95" y="252.67">+</text>
<text x="4.16" y="94.86">+</text>
<text x="368.50" y="115.64">+</text>
<text x="489.73" y="269.23">*</text>
<text x="223.11" y="39.80">+</text>
<text x="78.90" y="433.87">+</text>
<text x="151.07" y="196.85">+</text>
<text x="477.46" y="148.28">+</text>
<text x="40.01" y="57.30">+</text>
<text x="172.57" y="126.84">+</text>
<text x="61.21" y="246.30">+</text>
<text x="229.71" y="93.25">*</text>
<text x="470.66" y="444.70">+</text>
<text x="279.29" y="275.38">.</text>
<text x="98.97" y="91.39">+</text>
<text x="84.08" y="178.95">+</text>
<text x="323.29" y="255.08">.</text>
<text x="47.83" y="369.29">.</text>
<text x="265.54" y="281.27">.</text>
<text x="405.67" y="421.64">+</text>
<text x="486.95" y="356.55">*</text>
<text x="433.33" y="161.17">.</text>
<text x="483.36" y="52.33">.</text>
<text x="498.38" y="50.44">+</text>
<text x="332.08" y="214.34">.</text>
<text x="47.65" y="469.04">.</text>
<text x="483.45" y="312.54">*</text>
<text x="24.04" y="38.67">.</text>
<text x="3.46" y="55.65">.</text>
<text x="129.11" y="339.14">.</text>
<text x="177.14" y="151.96">.</text>
<text x="387.67" y="38.70">+</text>
<text x="284.36" y="479.61">.</text>
<text x="255.58" y="414.36">+</text>
<text x="85.71" y="159.27">+</text>
<text x="145.36" y="480.74">.</text>
<text x="220.46" y="178.40">.</text>
<text x="308.63" y="274.83">+</text>
<text x="274.87" y="53.97">.</text>
<text x="272.27" y="304.39">+</text>
<text x="233.87" y="81.68">*</text>
<text x="228.42" y="244.76">+</text>

</svg>