
<svg viewBox="0 0 500 500" xmlns="http://www.w.org/2000/svg" width="100%" height="100%" style="background-color: #0a0a14; font-family: 'Courier New', Courier, monospace;">
    <style>
        text { fill: #aaa; font-size: 10px; text-anchor: middle; dominant-baseline: middle; }
    </style>
    <text x="404.74" y="85.49">.</text>
<text x="356.29" y="468.07">*</text>
<text x="195.74" y="290.74">+</text>
<text x="401.84" y="422.74">+</text>
<text x="197.50" y="231.10">+</text>
<text x="326.27" y="289.89">.</text>
<text x="148.09" y="68.28">+</text>
<text x="138.35" y="200.97">+</text>
<text x="95.47" y="484.42">.</text>
<text x="98.62" y="390.10">.</text>
<text x="357.61" y="209.22">*</text>
<text x="216.61" y="133.58">.</text>
<text x="197.57" y="28.01">+</text>
<text x="60.18" y="479.31">+</text>
<text x="152.72" y="159.75">*</text>
<text x="327.02" y="191.56">.</text>
<text x="64.88" y="431.28">.</text>
<text x="57.19" y="243.29">+</text>
<text x="47.86" y="224.57">+</text>
<text x="200.59" y="17.52">+</text>
<text x="132.72" y="241.04">.</text>
<text x="8.44" y="413.25">+</text>
<text x="335.36" y="129.48">+</text>
<text x="380.68" y="145.08">+</text>
<text x="455.12" y="463.94">*</text>
<text x="280.62" y="298.10">+</text>
<text x="35.67" y="315.22">+</text>
<text x="297.45" y="360.88">+</text>
<text x="423.92" y="170.98">+</text>
<text x="370.44" y="295.95">*</text>
<text x="18.61" y="79.14">.</text>
<text x="80.08" y="360.09">.</text>
<text x="90.86" y="145.26">.</text>
<text x="29.67" y="97.86">.</text>
<text x="152.52" y="420.78">.</text>
<text x="112.58" y="462.46">*</text>
<text x="244.68" y="346.92">*</text>
<text x="84.85" y="5.30">+</text>
<text x="416.30" y="139.85">+</text>
<text x="289.17" y="443.59">.</text>
<text x="296.67" y="160.23">+</text>
<text x="292.33" y="216.35">.</text>
<text x="452.01" y="403.70">.</text>
<text x="333.69" y="238.56">+</text>
<text x="451.18" y="35.35">.</text>
<text x="109.92" y="436.21">+</text>
<text x="189.87" y="38.58">*</text>
<text x="464.15" y="478.41">+</text>
<text x="97.06" y="352.81">+</text>
<text x="23.04" y="480.67">.</text>
<text x="240.13" y="223.92">.</text>
<text x="197.49" y="477.13">.</text>
<text x="429.81" y="456.33">+</text>
<text x="38.82" y="137.49">+</text>
<text x="302.76" y="352.80">.</text>
<text x="271.19" y="390.53">+</text>
<text x="445.84" y="96.10">+</text>
<text x="146.26" y="137.72">.</text>
<text x="462.22" y="309.84">.</text>
<text x="209.26" y="141.45">+</text>
<text x="463.39" y="27.44">.</text>
<text x="193.67" y="44.00">.</text>
<text x="274.34" y="227.30">.</text>
<text x="232.72" y="41.02">+</text>
<text x="153.60" y="340.85">+</text>
<text x="46.98" y="387.07">.</text>
<text x="79.24" y="428.69">.</text>
<text x="417.59" y="436.79">.</text>
<text x="412.20" y="427.17">+</text>
<text x="259.53" y="206.00">+</text>
<text x="59.15" y="398.20">*</text>
<text x="82.48" y="91.32">.</text>
<text x="359.64" y="384.06">*</text>
<text x="155.12" y="432.19">.</text>
<text x="219.78" y="368.94">+</text>
<text x="112.23" y="316.90">+</text>
<text x="57.15" y="409.75">.</text>
<text x="259.84" y="96.49">+</text>
<text x="83.69" y="452.52">.</text>
<text x="86.70" y="65.22">+</text>
<text x="94.23" y="91.10">.</text>
<text x="95.54" y="430.46">*</text>
<text x="366.97" y="256.77">+</text>
<text x="45.41" y="328.55">+</text>
<text x="451.22" y="483.95">.</text>
<text x="291.18" y="425.73">.</text>
<text x="136.51" y="141.74">*</text>
<text x="34.08" y="367.98">*</text>
<text x="28.33" y="229.77">.</text>
<text x="293.06" y="91.88">+</text>
<text x="158.00" y="294.04">.</text>
<text x="300.81" y="115.62">.</text>
<text x="214.87" y="495.51">*</text>
<text x="22.66" y="31.70">*</text>
<text x="232.71" y="218.08">+</text>
<text x="300.47" y="491.34">.</text>
<text x="397.61" y="232.95">.</text>
<text x="6.53" y="383.13">.</text>
<text x="20.70" y="275.41">*</text>
<text x="336.99" y="382.26">*</text>
<text x="167.49" y="61.31">.</text>
<text x="268.28" y="227.65">.</text>
<text x="201.28" y="366.51">.</text>
<text x="280.42" y="404.13">+</text>
<text x="336.14" y="194.85">+</text>
<text x="157.91" y="133.15">+</text>
<text x="92.87" y="383.85">*</text>
<text x="10.45" y="284.48">*</text>
<text x="339.23" y="94.17">.</text>
<text x="16.37" y="277.82">*</text>
<text x="212.37" y="39.59">.</text>
<text x="440.61" y="73.46">*</text>
<text x="231.57" y="186.84">+</text>
<text x="421.34" y="331.87">+</text>
<text x="12.54" y="150.69">.</text>
<text x="401.01" y="303.98">+</text>
<text x="174.17" y="141.89">+</text>
<text x="451.40" y="268.32">*</text>
<text x="440.41" y="455.96">+</text>
<text x="329.10" y="353.99">+</text>
<text x="261.55" y="302.99">+</text>
<text x="495.14" y="162.63">.</text>
<text x="425.33" y="497.13">*</text>
<text x="403.41" y="126.42">*</text>
<text x="385.16" y="270.23">*</text>
<text x="491.21" y="394.97">.</text>
<text x="22.06" y="239.54">.</text>
<text x="421.03" y="422.90">.</text>
<text x="177.55" y="65.23">.</text>
<text x="174.95" y="124.44">.</text>
<text x="84.55" y="280.34">.</text>
<text x="156.20" y="205.04">.</text>
<text x="482.90" y="475.87">.</text>
<text x="359.03" y="328.01">.</text>
<text x="69.26" y="186.80">+</text>
<text x="158.38" y="270.71">.</text>
<text x="401.87" y="94.02">+</text>
<text x="295.44" y="468.68">.</text>
<text x="92.97" y="196.59">.</text>
<text x="12.54" y="81.83">+</text>
<text x="126.98" y="322.65">+</text>
<text x="119.62" y="152.70">.</text>
<text x="386.61" y="454.38">.</text>
<text x="86.87" y="203.83">*</text>
<text x="319.53" y="147.97">+</text>
<text x="119.03" y="69.76">.</text>
<text x="0.47" y="187.18">+</text>
<text x="150.14" y="145.75">.</text>
<text x="434.10" y="136.66">+</text>
<text x="102.99" y="345.80">*</text>
<text x="154.63" y="156.32">+</text>
<text x="364.50" y="446.40">.</text>
<text x="273.39" y="209.47">.</text>
<text x="172.77" y="127.74">+</text>
<text x="368.91" y="72.55">+</text>
<text x="326.33" y="26.22">+</text>
<text x="484.23" y="495.99">.</text>
<text x="94.56" y="258.64">.</text>
<text x="404.49" y="475.19">.</text>
<text x="352.25" y="167.22">.</text>
<text x="299.73" y="258.33">.</text>
<text x="201.64" y="146.78">*</text>
<text x="310.84" y="196.83">.</text>
<text x="415.06" y="9.55">+</text>
<text x="499.69" y="159.61">+</text>
<text x="69.48" y="483.67">.</text>
<text x="479.96" y="446.92">.</text>
<text x="438.27" y="308.89">.</text>
<text x="166.90" y="47.12">+</text>
<text x="484.83" y="325.32">.</text>
<text x="392.07" y="130.06">+</text>
<text x="106.18" y="207.14">.</text>
<text x="142.91" y="424.07">*</text>
<text x="113.72" y="229.96">*</text>
<text x="350.13" y="297.77">.</text>
<text x="272.45" y="45.93">+</text>
<text x="7.86" y="107.36">.</text>
<text x="355.46" y="237.95">*</text>
<text x="359.54" y="205.69">+</text>
<text x="495.27" y="190.72">+</text>
<text x="32.50" y="410.54">*</text>
<text x="479.29" y="314.00">.</text>
<text x="270.57" y="140.25">+</text>
<text x="468.67" y="128.06">+</text>
<text x="7.18" y="394.63">.</text>
<text x="312.22" y="74.37">+</text>
<text x="180.62" y="309.21">+</text>
<text x="451.76" y="169.72">.</text>
<text x="188.99" y="194.08">.</text>
<text x="479.30" y="284.25">.</text>
<text x="196.29" y="285.12">*</text>
<text x="259.66" y="470.24">.</text>
<text x="270.79" y="392.31">.</text>
<text x="243.67" y="297.26">+</text>
<text x="102.54" y="262.50">.</text>
<text x="361.96" y="262.59">+</text>
<text x="414.03" y="230.91">+</text>
<text x="352.67" y="344.77">+</text>
<text x="301.57" y="226.81">.</text>
<text x="29.30" y="435.39">+</text>
<text x="37.75" y="143.23">.</text>
<text x="63.23" y="305.28">+</text>
<text x="140.92" y="328.40">+</text>
<text x="361.71" y="190.24">+</text>
<text x="102.92" y="151.81">+</text>
<text x="330.41" y="28.93">+</text>
<text x="142.98" y="315.64">+</text>
<text x="149.92" y="426.47">+</text>
<text x="498.86" y="87.42">.</text>
<text x="430.29" y="108.75">.</text>
<text x="93.74" y="393.07">.</text>
<text x="227.86" y="437.07">.</text>
<text x="149.29" y="87.09">+</text>
<text x="29.97" y="458.36">+</text>
<text x="103.24" y="277.46">.</text>
<text x="353.51" y="13.58">+</text>
<text x="291.20" y="379.61">.</text>
<text x="384.47" y="452.27">.</text>
<text x="286.54" y="392.58">.</text>
<text x="103.07" y="212.75">+</text>
<text x="166.72" y="436.25">.</text>
<text x="177.02" y="175.34">.</text>
<text x="413.36" y="193.05">+</text>
<text x="55.57" y="255.79">.</text>
<text x="122.11" y="148.98">.</text>
<text x="88.46" y="325.14">.</text>
<text x="370.92" y="185.42">+</text>

</svg>