
<svg viewBox="0 0 500 500" xmlns="http://www.w.org/2000/svg" width="100%" height="100%" style="background-color: #0a0a14; font-family: 'Courier New', Courier, monospace;">
    <style>
        text { fill: #aaa; font-size: 10px; text-anchor: middle; dominant-baseline: middle; }
    </style>
    <text x="129.41" y="172.31">.</text>
<text x="91.95" y="447.29">.</text>
<text x="405.17" y="346.90">.</text>
<text x="66.25" y="417.86">.</text>
<text x="128.96" y="361.86">*</text>
<text x="405.96" y="336.62">+</text>
<text x="450.95" y="430.63">*</text>
<text x="405.42" y="23.24">+</text>
<text x="8.08" y="433.32">.</text>
<text x="264.37" y="221.64">+</text>
<text x="43.90" y="138.73">.</text>
<text x="494.71" y="389.64">.</text>
<text x="174.39" y="141.59">+</text>
<text x="351.14" y="472.97">.</text>
<text x="24.24" y="92.85">+</text>
<text x="426.74" y="446.26">.</text>
<text x="245.39" y="51.40">+</text>
<text x="479.23" y="298.59">+</text>
<text x="463.32" y="106.00">+</text>
<text x="197.54" y="351.22">*</text>
<text x="150.82" y="318.90">+</text>
<text x="66.48" y="130.73">+</text>
<text x="176.97" y="4.37">+</text>
<text x="281.92" y="314.58">+</text>
<text x="90.50" y="240.57">.</text>
<text x="156.34" y="438.89">.</text>
<text x="340.69" y="461.33">.</text>
<text x="348.93" y="379.58">+</text>
<text x="204.23" y="334.27">*</text>
<text x="191.73" y="187.77">+</text>
<text x="361.09" y="89.00">.</text>
<text x="121.90" y="444.52">.</text>
<text x="23.98" y="498.30">*</text>
<text x="246.09" y="252.46">.</text>
<text x="304.34" y="34.22">.</text>
<text x="64.95" y="277.03">.</text>
<text x="73.83" y="214.21">+</text>
<text x="444.03" y="405.68">.</text>
<text x="95.22" y="151.78">*</text>
<text x="292.28" y="278.91">.</text>
<text x="221.82" y="56.34">+</text>
<text x="0.81" y="182.23">*</text>
<text x="31.78" y="154.25">+</text>
<text x="334.02" y="246.37">*</text>
<text x="69.73" y="377.39">+</text>
<text x="188.63" y="182.83">+</text>
<text x="275.88" y="466.93">*</text>
<text x="61.82" y="289.26">+</text>
<text x="225.25" y="32.74">+</text>
<text x="482.90" y="285.79">*</text>
<text x="316.31" y="135.14">+</text>
<text x="482.43" y="137.14">+</text>
<text x="447.99" y="488.21">*</text>
<text x="32.63" y="366.85">*</text>
<text x="457.58" y="63.20">.</text>
<text x="196.09" y="417.02">.</text>
<text x="497.45" y="149.80">+</text>
<text x="152.44" y="367.47">+</text>
<text x="155.25" y="0.36">+</text>
<text x="164.41" y="31.49">*</text>
<text x="397.39" y="2.12">.</text>
<text x="246.77" y="449.34">+</text>
<text x="99.23" y="3.36">+</text>
<text x="237.93" y="83.79">.</text>
<text x="243.98" y="63.75">+</text>
<text x="430.58" y="267.90">.</text>
<text x="14.33" y="296.41">.</text>
<text x="218.08" y="436.02">+</text>
<text x="193.28" y="292.60">+</text>
<text x="202.55" y="262.93">+</text>
<text x="73.58" y="237.43">+</text>
<text x="332.17" y="288.06">.</text>
<text x="262.23" y="459.30">.</text>
<text x="449.60" y="352.28">+</text>
<text x="259.95" y="14.33">.</text>
<text x="109.16" y="410.58">.</text>
<text x="215.12" y="88.62">.</text>
<text x="209.66" y="436.47">*</text>
<text x="255.23" y="115.51">+</text>
<text x="388.22" y="343.19">+</text>
<text x="473.17" y="237.78">.</text>
<text x="393.04" y="104.85">+</text>
<text x="284.40" y="361.06">.</text>
<text x="307.02" y="74.93">+</text>
<text x="239.04" y="473.37">+</text>
<text x="480.52" y="221.09">*</text>
<text x="177.76" y="342.05">+</text>
<text x="48.72" y="233.65">*</text>
<text x="194.39" y="58.73">.</text>
<text x="371.89" y="411.01">.</text>
<text x="362.78" y="86.88">.</text>
<text x="338.71" y="60.26">.</text>
<text x="417.16" y="288.31">+</text>
<text x="491.33" y="137.28">.</text>
<text x="54.36" y="388.33">*</text>
<text x="189.90" y="46.46">.</text>
<text x="459.76" y="203.51">+</text>
<text x="34.15" y="357.38">+</text>
<text x="271.12" y="289.79">*</text>
<text x="402.22" y="201.71">+</text>
<text x="48.97" y="126.24">+</text>
<text x="48.48" y="277.23">+</text>
<text x="112.03" y="80.73">+</text>
<text x="206.65" y="361.19">.</text>
<text x="186.85" y="438.05">*</text>
<text x="138.16" y="7.35">+</text>
<text x="358.39" y="401.05">+</text>
<text x="293.13" y="192.95">+</text>
<text x="337.06" y="406.38">+</text>
<text x="474.13" y="426.76">+</text>
<text x="263.00" y="194.06">+</text>
<text x="106.42" y="218.98">.</text>
<text x="273.48" y="396.49">.</text>
<text x="337.31" y="392.19">*</text>
<text x="201.96" y="394.78">+</text>
<text x="207.14" y="173.69">.</text>
<text x="366.21" y="179.34">*</text>
<text x="414.30" y="426.56">+</text>
<text x="239.06" y="153.36">+</text>
<text x="177.48" y="456.11">+</text>
<text x="167.40" y="408.75">.</text>
<text x="155.82" y="11.60">.</text>
<text x="188.64" y="433.67">.</text>
<text x="350.14" y="416.14">+</text>
<text x="237.73" y="276.84">*</text>
<text x="318.49" y="319.89">*</text>
<text x="131.41" y="51.74">.</text>
<text x="482.86" y="441.77">*</text>
<text x="56.07" y="188.53">+</text>
<text x="69.35" y="286.24">+</text>
<text x="373.58" y="425.86">+</text>
<text x="258.45" y="80.26">+</text>
<text x="392.80" y="103.08">.</text>
<text x="490.45" y="180.66">.</text>
<text x="0.55" y="250.66">+</text>
<text x="96.25" y="79.91">+</text>
<text x="96.50" y="128.77">*</text>
<text x="403.54" y="72.73">+</text>
<text x="340.53" y="240.32">+</text>
<text x="456.54" y="382.69">.</text>
<text x="173.18" y="170.50">.</text>
<text x="190.43" y="441.98">+</text>
<text x="394.54" y="125.24">.</text>
<text x="404.31" y="27.29">.</text>
<text x="265.62" y="23.49">.</text>
<text x="313.78" y="402.54">+</text>
<text x="326.36" y="265.75">+</text>
<text x="473.69" y="56.33">.</text>
<text x="52.17" y="97.74">*</text>
<text x="310.22" y="203.21">+</text>
<text x="294.31" y="231.97">+</text>
<text x="305.94" y="396.70">.</text>
<text x="51.08" y="310.55">+</text>
<text x="36.65" y="430.44">.</text>
<text x="45.16" y="397.45">.</text>
<text x="272.45" y="466.96">+</text>
<text x="213.53" y="368.82">.</text>
<text x="182.49" y="271.15">+</text>
<text x="50.59" y="480.88">+</text>
<text x="276.68" y="167.31">+</text>
<text x="32.71" y="191.97">.</text>
<text x="107.08" y="476.03">+</text>
<text x="315.39" y="485.76">+</text>
<text x="29.54" y="67.37">.</text>
<text x="262.82" y="185.85">*</text>
<text x="16.92" y="272.27">.</text>
<text x="402.03" y="476.51">+</text>
<text x="183.67" y="361.48">*</text>
<text x="460.87" y="407.43">.</text>
<text x="447.60" y="97.38">.</text>
<text x="164.79" y="384.38">+</text>
<text x="203.92" y="158.08">+</text>
<text x="342.43" y="367.38">.</text>
<text x="90.63" y="32.16">+</text>
<text x="276.10" y="77.05">+</text>
<text x="239.01" y="402.22">+</text>
<text x="0.90" y="48.42">.</text>
<text x="33.08" y="113.72">.</text>
<text x="233.12" y="414.91">+</text>
<text x="141.01" y="264.78">.</text>
<text x="498.61" y="213.22">+</text>
<text x="161.68" y="84.49">+</text>
<text x="62.39" y="360.28">.</text>
<text x="150.67" y="365.22">*</text>
<text x="182.39" y="318.50">+</text>
<text x="50.25" y="113.28">.</text>
<text x="214.68" y="289.28">.</text>
<text x="180.11" y="459.55">.</text>
<text x="492.29" y="234.19">+</text>
<text x="165.80" y="473.94">.</text>
<text x="137.23" y="88.37">+</text>
<text x="472.95" y="141.56">.</text>
<text x="192.06" y="446.14">*</text>
<text x="339.91" y="491.78">.</text>
<text x="35.47" y="351.90">.</text>
<text x="213.32" y="42.45">.</text>
<text x="471.43" y="370.68">+</text>
<text x="295.12" y="191.93">.</text>
<text x="471.16" y="91.08">.</text>
<text x="27.32" y="189.28">+</text>
<text x="306.61" y="248.93">+</text>
<text x="436.79" y="434.95">+</text>
<text x="20.06" y="28.65">+</text>
<text x="343.28" y="89.43">*</text>
<text x="315.28" y="16.91">.</text>
<text x="289.82" y="21.88">+</text>
<text x="140.46" y="419.29">+</text>
<text x="257.77" y="364.47">+</text>
<text x="270.81" y="411.48">*</text>
<text x="376.27" y="333.17">+</text>

</svg>