
<svg viewBox="0 0 500 500" xmlns="http://www.w.org/2000/svg" width="100%" height="100%" style="background-color: #0a0a14; font-family: 'Courier New', Courier, monospace;">
    <style>
        text { fill: #aaa; font-size: 10px; text-anchor: middle; dominant-baseline: middle; }
    </style>
    <text x="55.42" y="459.91">+</text>
<text x="352.25" y="438.52">*</text>
<text x="256.57" y="228.64">.</text>
<text x="243.35" y="146.78">+</text>
<text x="199.33" y="222.79">+</text>
<text x="121.85" y="105.93">*</text>
<text x="222.14" y="318.37">+</text>
<text x="221.25" y="490.45">+</text>
<text x="328.07" y="222.24">+</text>
<text x="197.98" y="427.61">+</text>
<text x="227.03" y="176.21">.</text>
<text x="368.02" y="278.04">+</text>
<text x="146.35" y="163.03">.</text>
<text x="170.30" y="289.04">+</text>
<text x="282.00" y="256.88">.</text>
<text x="358.95" y="379.46">*</text>
<text x="328.30" y="116.74">.</text>
<text x="107.96" y="465.55">+</text>
<text x="225.86" y="377.01">+</text>
<text x="317.74" y="58.65">.</text>
<text x="472.53" y="211.30">.</text>
<text x="439.67" y="387.11">.</text>
<text x="416.05" y="80.95">*</text>
<text x="24.66" y="93.47">.</text>
<text x="249.78" y="491.99">+</text>
<text x="395.01" y="105.31">+</text>
<text x="410.14" y="14.89">.</text>
<text x="359.38" y="420.17">+</text>
<text x="82.91" y="59.33">.</text>
<text x="183.66" y="309.28">.</text>
<text x="157.31" y="274.28">.</text>
<text x="37.18" y="111.00">.</text>
<text x="157.90" y="195.33">+</text>
<text x="305.01" y="384.12">*</text>
<text x="340.85" y="71.97">.</text>
<text x="86.99" y="330.27">.</text>
<text x="241.43" y="23.52">.</text>
<text x="480.09" y="141.56">.</text>
<text x="329.99" y="71.61">.</text>
<text x="5.23" y="26.53">+</text>
<text x="221.78" y="209.82">.</text>
<text x="37.59" y="230.12">*</text>
<text x="210.30" y="122.23">*</text>
<text x="330.42" y="39.04">*</text>
<text x="395.82" y="474.66">+</text>
<text x="171.59" y="182.23">*</text>
<text x="325.52" y="422.47">.</text>
<text x="52.25" y="308.08">+</text>
<text x="217.41" y="240.38">.</text>
<text x="397.45" y="155.01">+</text>
<text x="35.84" y="259.68">.</text>
<text x="112.54" y="463.79">.</text>
<text x="485.60" y="241.42">*</text>
<text x="125.08" y="105.92">.</text>
<text x="152.59" y="200.80">+</text>
<text x="495.20" y="86.76">+</text>
<text x="256.43" y="355.91">.</text>
<text x="84.69" y="385.98">+</text>
<text x="330.40" y="145.66">.</text>
<text x="406.41" y="112.87">.</text>
<text x="489.29" y="453.41">*</text>
<text x="42.57" y="489.72">.</text>
<text x="253.98" y="433.87">.</text>
<text x="302.73" y="345.02">*</text>
<text x="303.50" y="397.94">*</text>
<text x="19.74" y="214.41">+</text>
<text x="194.25" y="10.23">.</text>
<text x="485.99" y="369.78">+</text>
<text x="443.92" y="118.39">.</text>
<text x="194.99" y="275.59">+</text>
<text x="240.42" y="94.76">*</text>
<text x="4.56" y="78.84">*</text>
<text x="125.37" y="353.01">+</text>
<text x="148.27" y="241.00">*</text>
<text x="219.83" y="492.46">+</text>
<text x="304.97" y="321.95">*</text>
<text x="208.46" y="144.14">+</text>
<text x="46.45" y="441.56">.</text>
<text x="67.58" y="390.51">.</text>
<text x="294.08" y="328.76">.</text>
<text x="220.83" y="142.20">*</text>
<text x="431.32" y="293.61">*</text>
<text x="138.69" y="467.95">+</text>
<text x="365.14" y="458.48">*</text>
<text x="68.71" y="393.90">.</text>
<text x="390.47" y="376.27">+</text>
<text x="178.95" y="197.64">+</text>
<text x="354.44" y="179.23">.</text>
<text x="385.04" y="30.87">*</text>
<text x="446.81" y="211.76">.</text>
<text x="377.02" y="129.61">.</text>
<text x="477.02" y="26.81">.</text>
<text x="169.10" y="405.44">+</text>
<text x="435.62" y="334.18">.</text>
<text x="231.79" y="165.29">.</text>
<text x="123.49" y="457.11">.</text>
<text x="477.37" y="351.71">+</text>
<text x="140.44" y="403.07">*</text>
<text x="363.26" y="493.32">.</text>
<text x="24.13" y="414.91">.</text>
<text x="416.33" y="377.87">.</text>
<text x="296.46" y="374.32">.</text>
<text x="245.64" y="11.48">.</text>
<text x="427.43" y="192.51">.</text>
<text x="230.50" y="431.63">.</text>
<text x="44.92" y="82.54">+</text>
<text x="400.55" y="115.25">*</text>
<text x="210.96" y="119.67">.</text>
<text x="97.98" y="184.16">+</text>
<text x="410.54" y="431.05">+</text>
<text x="100.02" y="398.09">.</text>
<text x="291.40" y="128.35">+</text>
<text x="262.93" y="46.93">*</text>
<text x="251.49" y="49.81">+</text>
<text x="452.63" y="460.92">+</text>
<text x="331.95" y="352.26">*</text>
<text x="72.32" y="464.95">+</text>
<text x="118.13" y="362.55">.</text>
<text x="209.02" y="384.03">+</text>
<text x="102.20" y="154.86">.</text>
<text x="134.64" y="280.08">.</text>
<text x="420.13" y="7.30">+</text>
<text x="160.96" y="90.30">*</text>
<text x="234.46" y="68.38">+</text>
<text x="33.21" y="367.82">.</text>
<text x="416.46" y="187.47">+</text>
<text x="443.20" y="463.93">.</text>
<text x="49.80" y="38.85">+</text>
<text x="425.90" y="286.79">.</text>
<text x="164.88" y="436.35">+</text>
<text x="296.63" y="33.05">+</text>
<text x="399.40" y="8.26">.</text>
<text x="486.58" y="175.06">+</text>
<text x="242.64" y="266.44">*</text>
<text x="50.43" y="29.15">*</text>
<text x="23.21" y="324.04">.</text>
<text x="182.82" y="295.27">.</text>
<text x="216.28" y="278.31">.</text>
<text x="367.91" y="337.75">+</text>
<text x="380.68" y="165.20">+</text>
<text x="250.74" y="216.25">.</text>
<text x="76.49" y="280.19">+</text>
<text x="210.54" y="88.15">+</text>
<text x="235.90" y="124.24">+</text>
<text x="339.45" y="253.41">.</text>
<text x="210.93" y="377.64">+</text>
<text x="194.55" y="163.08">+</text>
<text x="60.04" y="283.64">.</text>
<text x="136.61" y="125.50">.</text>
<text x="179.55" y="153.88">.</text>
<text x="322.61" y="117.85">+</text>
<text x="160.72" y="285.94">.</text>
<text x="79.83" y="157.07">+</text>
<text x="84.15" y="217.09">+</text>
<text x="25.11" y="374.78">+</text>
<text x="75.29" y="125.72">*</text>
<text x="243.46" y="147.13">*</text>
<text x="293.73" y="42.76">+</text>
<text x="431.70" y="298.93">+</text>
<text x="210.94" y="444.51">.</text>
<text x="240.12" y="5.59">+</text>
<text x="63.29" y="489.48">.</text>
<text x="277.55" y="478.34">*</text>
<text x="348.00" y="467.10">.</text>
<text x="238.84" y="76.68">.</text>
<text x="231.43" y="113.88">.</text>
<text x="394.12" y="95.47">.</text>
<text x="489.38" y="15.80">.</text>
<text x="474.06" y="45.51">+</text>
<text x="321.91" y="436.01">+</text>
<text x="288.78" y="398.53">.</text>
<text x="156.00" y="247.98">.</text>
<text x="394.83" y="436.24">.</text>
<text x="403.54" y="278.39">.</text>
<text x="139.92" y="37.42">+</text>
<text x="498.55" y="275.53">.</text>
<text x="355.77" y="491.20">.</text>
<text x="0.53" y="323.28">+</text>
<text x="199.38" y="421.93">.</text>
<text x="347.76" y="399.85">+</text>
<text x="107.40" y="282.01">+</text>
<text x="356.19" y="60.54">.</text>
<text x="147.65" y="298.68">+</text>
<text x="459.22" y="412.84">.</text>
<text x="419.37" y="56.76">+</text>
<text x="169.18" y="104.51">*</text>
<text x="145.97" y="317.69">+</text>
<text x="267.03" y="490.48">.</text>
<text x="227.39" y="421.24">.</text>
<text x="157.03" y="348.62">.</text>
<text x="443.96" y="175.25">+</text>
<text x="79.89" y="312.26">+</text>
<text x="397.89" y="487.91">*</text>
<text x="239.56" y="388.53">+</text>
<text x="372.76" y="167.47">+</text>
<text x="217.63" y="305.60">+</text>
<text x="468.16" y="79.45">+</text>

</svg>