
<svg viewBox="0 0 500 500" xmlns="http://www.w.org/2000/svg" width="100%" height="100%" style="background-color: #0a0a14; font-family: 'Courier New', Courier, monospace;">
    <style>
        text { fill: #aaa; font-size: 10px; text-anchor: middle; dominant-baseline: middle; }
    </style>
    <text x="16.22" y="428.18">+</text>
<text x="427.53" y="195.60">+</text>
<text x="338.78" y="78.37">.</text>
<text x="292.21" y="305.04">.</text>
<text x="236.02" y="426.73">.</text>
<text x="81.00" y="431.52">.</text>
<text x="466.06" y="177.58">.</text>
<text x="473.27" y="495.29">+</text>
<text x="208.38" y="175.04">+</text>
<text x="227.33" y="308.52">+</text>
<text x="310.07" y="92.33">.</text>
<text x="3.21" y="113.29">+</text>
<text x="285.18" y="45.69">.</text>
<text x="268.69" y="8.13">.</text>
<text x="443.13" y="480.35">.</text>
<text x="69.78" y="281.81">+</text>
<text x="498.15" y="82.98">+</text>
<text x="342.14" y="246.78">.</text>
<text x="346.61" y="14.15">.</text>
<text x="473.94" y="205.35">+</text>
<text x="470.74" y="422.47">*</text>
<text x="251.92" y="65.84">+</text>
<text x="139.05" y="442.11">+</text>
<text x="315.39" y="65.65">.</text>
<text x="395.46" y="101.45">+</text>
<text x="156.73" y="257.45">+</text>
<text x="315.08" y="290.32">.</text>
<text x="368.50" y="449.27">+</text>
<text x="119.82" y="229.04">+</text>
<text x="371.79" y="241.48">.</text>
<text x="9.33" y="308.78">.</text>
<text x="117.19" y="278.69">*</text>
<text x="273.01" y="196.01">+</text>
<text x="460.79" y="60.85">+</text>
<text x="339.10" y="312.74">+</text>
<text x="98.64" y="287.27">+</text>
<text x="36.48" y="298.76">.</text>
<text x="376.10" y="58.86">+</text>
<text x="197.76" y="88.85">.</text>
<text x="478.15" y="268.32">.</text>
<text x="96.18" y="129.75">*</text>
<text x="466.18" y="86.53">.</text>
<text x="430.47" y="251.67">+</text>
<text x="104.66" y="109.29">*</text>
<text x="420.87" y="72.98">*</text>
<text x="499.04" y="187.03">+</text>
<text x="118.82" y="298.83">+</text>
<text x="448.01" y="223.02">.</text>
<text x="223.52" y="171.85">.</text>
<text x="496.28" y="494.58">+</text>
<text x="420.12" y="239.69">+</text>
<text x="165.80" y="60.80">.</text>
<text x="227.74" y="198.16">.</text>
<text x="314.90" y="176.81">+</text>
<text x="343.99" y="149.01">+</text>
<text x="303.13" y="444.74">.</text>
<text x="395.68" y="385.72">+</text>
<text x="221.48" y="45.85">+</text>
<text x="278.32" y="112.94">*</text>
<text x="48.92" y="496.30">.</text>
<text x="323.35" y="434.68">.</text>
<text x="72.88" y="316.16">+</text>
<text x="160.77" y="123.99">+</text>
<text x="209.94" y="67.85">+</text>
<text x="495.12" y="57.22">+</text>
<text x="246.24" y="55.30">.</text>
<text x="86.73" y="302.84">.</text>
<text x="272.50" y="459.06">.</text>
<text x="121.14" y="489.17">.</text>
<text x="149.42" y="259.37">+</text>
<text x="46.85" y="496.15">+</text>
<text x="407.99" y="423.00">.</text>
<text x="291.81" y="395.23">+</text>
<text x="13.38" y="149.18">.</text>
<text x="179.68" y="157.58">.</text>
<text x="424.14" y="66.06">+</text>
<text x="198.88" y="56.74">+</text>
<text x="72.81" y="355.94">.</text>
<text x="380.70" y="189.71">+</text>
<text x="192.25" y="196.40">.</text>
<text x="93.10" y="449.17">+</text>
<text x="195.74" y="277.90">+</text>
<text x="152.45" y="347.60">.</text>
<text x="62.66" y="202.81">.</text>
<text x="46.14" y="25.90">+</text>
<text x="413.90" y="176.25">.</text>
<text x="253.03" y="33.21">.</text>
<text x="151.54" y="212.25">.</text>
<text x="149.48" y="162.47">.</text>
<text x="5.15" y="38.40">+</text>
<text x="48.78" y="390.08">*</text>
<text x="456.64" y="100.20">+</text>
<text x="464.77" y="459.31">.</text>
<text x="147.14" y="480.52">.</text>
<text x="430.08" y="175.86">.</text>
<text x="418.01" y="226.49">+</text>
<text x="59.09" y="157.60">.</text>
<text x="281.25" y="14.49">.</text>
<text x="492.64" y="68.30">+</text>
<text x="360.15" y="83.64">+</text>
<text x="145.08" y="363.77">+</text>
<text x="364.52" y="463.60">*</text>
<text x="318.22" y="80.78">*</text>
<text x="265.68" y="328.20">+</text>
<text x="62.72" y="378.44">+</text>
<text x="155.82" y="209.49">+</text>
<text x="390.31" y="408.39">.</text>
<text x="94.51" y="331.02">+</text>
<text x="374.11" y="200.68">.</text>
<text x="344.13" y="210.69">+</text>
<text x="16.89" y="304.30">+</text>
<text x="115.48" y="312.76">+</text>
<text x="473.55" y="358.93">+</text>
<text x="454.86" y="387.46">.</text>
<text x="183.39" y="248.13">.</text>
<text x="159.81" y="230.31">+</text>
<text x="465.90" y="165.43">.</text>
<text x="138.43" y="333.05">.</text>
<text x="478.30" y="0.29">*</text>
<text x="296.49" y="6.24">.</text>
<text x="48.83" y="401.94">.</text>
<text x="3.57" y="218.15">*</text>
<text x="460.32" y="206.59">+</text>
<text x="113.15" y="48.99">+</text>
<text x="478.98" y="453.20">.</text>
<text x="121.96" y="110.12">+</text>
<text x="399.99" y="281.29">.</text>
<text x="199.54" y="326.58">+</text>
<text x="423.79" y="84.96">+</text>
<text x="227.02" y="6.84">*</text>
<text x="395.44" y="213.82">.</text>
<text x="421.15" y="142.69">+</text>
<text x="50.49" y="118.55">+</text>
<text x="329.87" y="452.88">+</text>
<text x="195.62" y="477.97">.</text>
<text x="28.79" y="98.55">.</text>
<text x="126.93" y="66.29">+</text>
<text x="118.10" y="320.10">.</text>
<text x="333.30" y="85.42">+</text>
<text x="59.22" y="73.48">+</text>
<text x="203.82" y="4.53">+</text>
<text x="244.40" y="463.89">+</text>
<text x="337.90" y="325.97">+</text>
<text x="260.69" y="413.64">.</text>
<text x="358.79" y="261.84">.</text>
<text x="249.47" y="186.60">+</text>
<text x="151.37" y="424.49">+</text>
<text x="428.63" y="93.64">.</text>
<text x="202.74" y="121.01">*</text>
<text x="41.28" y="83.28">+</text>
<text x="422.51" y="153.38">+</text>
<text x="310.04" y="241.62">*</text>
<text x="150.47" y="188.66">+</text>
<text x="277.81" y="112.02">+</text>
<text x="6.66" y="380.88">.</text>
<text x="333.19" y="353.76">.</text>
<text x="372.00" y="140.67">+</text>
<text x="432.14" y="254.16">+</text>
<text x="215.53" y="150.45">*</text>
<text x="81.72" y="13.69">.</text>
<text x="222.61" y="30.05">+</text>
<text x="439.54" y="412.60">.</text>
<text x="443.03" y="11.00">*</text>
<text x="114.27" y="29.03">+</text>
<text x="172.47" y="63.78">.</text>
<text x="460.13" y="37.13">+</text>
<text x="478.99" y="480.20">*</text>
<text x="38.51" y="470.50">+</text>
<text x="490.45" y="74.75">+</text>
<text x="68.33" y="169.84">.</text>
<text x="253.36" y="212.15">.</text>
<text x="260.19" y="19.88">.</text>
<text x="247.02" y="220.43">.</text>
<text x="413.36" y="403.21">.</text>
<text x="29.08" y="80.63">.</text>
<text x="343.28" y="362.04">+</text>
<text x="474.26" y="467.23">+</text>
<text x="88.29" y="42.74">.</text>
<text x="37.42" y="495.46">.</text>
<text x="375.82" y="405.89">+</text>
<text x="410.75" y="383.08">.</text>
<text x="352.74" y="371.28">+</text>
<text x="384.75" y="440.87">.</text>
<text x="158.65" y="229.52">+</text>
<text x="56.88" y="374.35">+</text>
<text x="181.34" y="7.53">+</text>
<text x="421.01" y="399.41">+</text>
<text x="90.12" y="346.95">*</text>
<text x="68.50" y="484.28">+</text>
<text x="177.26" y="171.86">*</text>
<text x="449.02" y="254.08">.</text>
<text x="480.40" y="86.87">.</text>
<text x="101.20" y="107.68">+</text>
<text x="60.66" y="260.07">+</text>
<text x="193.84" y="292.18">+</text>
<text x="215.12" y="455.64">.</text>
<text x="321.09" y="269.45">.</text>
<text x="263.14" y="368.79">*</text>
<text x="175.26" y="235.91">*</text>
<text x="187.18" y="73.88">.</text>
<text x="409.63" y="435.72">.</text>
<text x="249.56" y="468.43">+</text>
<text x="328.67" y="473.33">*</text>
<text x="38.02" y="235.89">.</text>
<text x="66.97" y="366.44">+</text>
<text x="398.07" y="158.83">.</text>
<text x="207.15" y="346.04">.</text>
<text x="409.80" y="442.36">.</text>
<text x="423.18" y="447.43">+</text>
<text x="198.44" y="474.60">+</text>
<text x="89.26" y="62.69">.</text>
<text x="166.18" y="378.35">.</text>
<text x="24.73" y="155.96">+</text>
<text x="355.75" y="325.53">+</text>
<text x="54.83" y="299.43">*</text>
<text x="393.86" y="206.16">+</text>
<text x="76.95" y="141.67">+</text>
<text x="102.75" y="227.82">.</text>
<text x="113.79" y="324.07">+</text>
<text x="235.18" y="268.91">+</text>

</svg>