
<svg viewBox="0 0 500 500" xmlns="http://www.w.org/2000/svg" width="100%" height="100%" style="background-color: #0a0a14; font-family: 'Courier New', Courier, monospace;">
    <style>
        text { fill: #aaa; font-size: 10px; text-anchor: middle; dominant-baseline: middle; }
    </style>
    <text x="240.02" y="111.97">.</text>
<text x="438.53" y="84.26">.</text>
<text x="307.66" y="481.48">.</text>
<text x="128.05" y="489.96">.</text>
<text x="283.23" y="97.38">.</text>
<text x="326.27" y="354.01">+</text>
<text x="158.27" y="18.51">+</text>
<text x="43.38" y="203.70">.</text>
<text x="492.79" y="281.88">+</text>
<text x="129.74" y="72.00">*</text>
<text x="322.69" y="151.62">+</text>
<text x="150.21" y="483.00">+</text>
<text x="57.08" y="483.81">+</text>
<text x="230.84" y="336.29">*</text>
<text x="317.85" y="178.10">+</text>
<text x="183.41" y="241.75">+</text>
<text x="383.44" y="419.09">+</text>
<text x="407.00" y="1.75">.</text>
<text x="6.34" y="172.84">+</text>
<text x="321.35" y="348.82">.</text>
<text x="35.07" y="172.56">+</text>
<text x="192.47" y="412.79">.</text>
<text x="70.79" y="376.14">*</text>
<text x="223.12" y="337.42">+</text>
<text x="440.31" y="236.36">.</text>
<text x="461.86" y="433.78">.</text>
<text x="94.72" y="302.92">+</text>
<text x="362.75" y="319.86">*</text>
<text x="340.09" y="405.44">.</text>
<text x="170.49" y="143.05">+</text>
<text x="162.57" y="441.60">+</text>
<text x="494.54" y="278.25">.</text>
<text x="92.35" y="129.84">+</text>
<text x="200.27" y="143.82">.</text>
<text x="267.17" y="139.93">.</text>
<text x="160.99" y="106.88">+</text>
<text x="106.75" y="441.60">+</text>
<text x="452.95" y="98.02">.</text>
<text x="52.38" y="333.41">.</text>
<text x="216.79" y="98.65">.</text>
<text x="395.01" y="385.09">+</text>
<text x="208.17" y="499.28">*</text>
<text x="248.91" y="179.51">.</text>
<text x="151.18" y="240.39">+</text>
<text x="239.90" y="378.26">+</text>
<text x="304.05" y="234.45">+</text>
<text x="126.04" y="51.12">*</text>
<text x="70.26" y="464.08">.</text>
<text x="167.59" y="380.35">.</text>
<text x="285.34" y="326.72">+</text>
<text x="468.49" y="16.50">.</text>
<text x="308.57" y="171.41">.</text>
<text x="364.20" y="64.75">+</text>
<text x="271.92" y="205.06">.</text>
<text x="249.44" y="338.70">+</text>
<text x="396.71" y="5.66">*</text>
<text x="103.56" y="8.84">+</text>
<text x="302.00" y="215.59">*</text>
<text x="417.86" y="461.29">+</text>
<text x="253.77" y="300.59">+</text>
<text x="497.51" y="293.50">.</text>
<text x="124.60" y="102.71">*</text>
<text x="3.11" y="20.64">*</text>
<text x="190.52" y="339.46">+</text>
<text x="30.02" y="313.18">*</text>
<text x="126.31" y="304.17">+</text>
<text x="183.57" y="414.93">+</text>
<text x="494.12" y="204.24">+</text>
<text x="326.05" y="465.14">*</text>
<text x="226.72" y="477.54">*</text>
<text x="225.16" y="384.60">*</text>
<text x="368.94" y="39.60">.</text>
<text x="168.03" y="486.67">.</text>
<text x="378.63" y="474.97">.</text>
<text x="289.75" y="282.39">.</text>
<text x="49.79" y="309.08">*</text>
<text x="370.84" y="278.87">+</text>
<text x="120.85" y="110.94">.</text>
<text x="6.53" y="184.26">+</text>
<text x="122.85" y="295.66">.</text>
<text x="411.66" y="370.15">.</text>
<text x="299.52" y="282.76">.</text>
<text x="76.60" y="425.72">+</text>
<text x="131.12" y="490.50">.</text>
<text x="420.24" y="342.95">.</text>
<text x="439.73" y="312.77">+</text>
<text x="191.98" y="382.42">+</text>
<text x="101.37" y="272.50">.</text>
<text x="111.93" y="368.11">+</text>
<text x="207.94" y="403.78">+</text>
<text x="371.48" y="232.13">+</text>
<text x="127.54" y="469.66">+</text>
<text x="450.53" y="13.27">.</text>
<text x="492.61" y="374.62">.</text>
<text x="285.53" y="365.77">*</text>
<text x="277.85" y="488.62">*</text>
<text x="487.44" y="313.27">.</text>
<text x="276.83" y="473.81">.</text>
<text x="307.60" y="308.04">+</text>
<text x="211.86" y="84.03">.</text>
<text x="359.08" y="391.33">+</text>
<text x="326.59" y="247.71">+</text>
<text x="202.73" y="54.58">+</text>
<text x="384.51" y="374.27">.</text>
<text x="297.97" y="331.81">*</text>
<text x="49.06" y="2.59">.</text>
<text x="223.97" y="377.54">.</text>
<text x="162.22" y="281.49">+</text>
<text x="330.39" y="224.41">+</text>
<text x="460.28" y="232.06">.</text>
<text x="152.71" y="23.94">.</text>
<text x="188.30" y="488.64">.</text>
<text x="205.52" y="101.62">.</text>
<text x="80.45" y="443.26">+</text>
<text x="393.86" y="301.29">+</text>
<text x="193.88" y="7.40">.</text>
<text x="10.54" y="383.75">*</text>
<text x="386.80" y="426.45">*</text>
<text x="170.44" y="88.94">.</text>
<text x="437.57" y="335.28">+</text>
<text x="13.11" y="362.46">.</text>
<text x="299.76" y="263.29">.</text>
<text x="266.92" y="99.94">+</text>
<text x="63.66" y="143.07">.</text>
<text x="141.56" y="402.86">*</text>
<text x="290.79" y="309.73">.</text>
<text x="462.44" y="107.77">+</text>
<text x="208.99" y="439.23">+</text>
<text x="353.15" y="405.71">*</text>
<text x="144.23" y="236.51">.</text>
<text x="103.65" y="273.43">.</text>
<text x="453.78" y="352.40">.</text>
<text x="55.18" y="403.30">+</text>
<text x="151.07" y="323.32">+</text>
<text x="292.54" y="241.73">.</text>
<text x="337.41" y="250.43">.</text>
<text x="178.56" y="484.89">*</text>
<text x="302.83" y="361.83">.</text>
<text x="455.02" y="244.87">.</text>
<text x="400.49" y="204.26">.</text>
<text x="281.24" y="481.74">+</text>
<text x="166.12" y="466.66">+</text>
<text x="309.78" y="293.48">.</text>
<text x="366.25" y="154.82">*</text>
<text x="91.60" y="163.89">*</text>
<text x="74.39" y="394.70">+</text>
<text x="212.78" y="130.56">*</text>
<text x="371.39" y="184.95">.</text>
<text x="75.00" y="95.11">*</text>
<text x="181.08" y="285.24">.</text>
<text x="235.40" y="34.25">*</text>
<text x="398.43" y="397.02">.</text>
<text x="325.07" y="262.96">+</text>
<text x="270.29" y="464.43">.</text>
<text x="345.68" y="402.72">+</text>
<text x="437.20" y="436.91">+</text>
<text x="440.29" y="401.20">+</text>
<text x="320.92" y="475.44">*</text>
<text x="128.88" y="55.08">.</text>
<text x="396.24" y="424.14">.</text>
<text x="418.76" y="2.50">*</text>
<text x="265.77" y="485.58">+</text>
<text x="376.53" y="237.29">.</text>
<text x="26.89" y="227.36">.</text>
<text x="450.06" y="335.83">.</text>
<text x="132.10" y="25.50">+</text>
<text x="253.95" y="97.42">.</text>
<text x="125.84" y="240.75">+</text>
<text x="468.30" y="340.26">.</text>
<text x="289.58" y="342.59">+</text>
<text x="98.58" y="448.48">.</text>
<text x="12.12" y="285.00">*</text>
<text x="253.90" y="122.14">.</text>
<text x="273.60" y="246.15">+</text>
<text x="184.22" y="142.07">.</text>
<text x="207.94" y="360.79">*</text>
<text x="34.50" y="233.77">.</text>
<text x="393.00" y="276.05">.</text>
<text x="379.10" y="270.00">.</text>
<text x="323.37" y="201.44">+</text>
<text x="146.51" y="407.92">+</text>
<text x="15.92" y="466.54">+</text>
<text x="210.69" y="180.88">.</text>
<text x="476.81" y="454.83">.</text>
<text x="158.34" y="410.77">+</text>
<text x="409.04" y="377.58">.</text>
<text x="4.87" y="429.42">+</text>
<text x="84.45" y="343.23">*</text>
<text x="301.81" y="267.54">.</text>
<text x="117.66" y="155.12">.</text>
<text x="180.28" y="310.67">+</text>
<text x="148.94" y="20.40">+</text>
<text x="436.05" y="438.91">+</text>
<text x="423.48" y="233.56">*</text>
<text x="191.26" y="374.69">+</text>
<text x="59.81" y="379.47">*</text>
<text x="459.10" y="5.79">+</text>
<text x="266.32" y="223.64">+</text>
<text x="10.07" y="9.56">.</text>
<text x="273.68" y="269.78">.</text>
<text x="262.18" y="169.12">.</text>
<text x="438.77" y="453.94">+</text>
<text x="473.27" y="244.81">.</text>
<text x="83.18" y="425.18">*</text>
<text x="37.69" y="82.74">+</text>
<text x="332.62" y="386.66">.</text>
<text x="412.90" y="255.77">+</text>
<text x="338.34" y="451.67">+</text>
<text x="383.68" y="443.69">.</text>
<text x="262.93" y="95.87">*</text>
<text x="352.27" y="374.27">.</text>
<text x="67.18" y="231.95">+</text>
<text x="262.85" y="82.06">.</text>

</svg>