
<svg viewBox="0 0 500 500" xmlns="http://www.w.org/2000/svg" width="100%" height="100%" style="background-color: #0a0a14; font-family: 'Courier New', Courier, monospace;">
    <style>
        text { fill: #aaa; font-size: 10px; text-anchor: middle; dominant-baseline: middle; }
    </style>
    <text x="448.47" y="0.03">+</text>
<text x="112.55" y="336.52">.</text>
<text x="396.53" y="142.76">+</text>
<text x="241.62" y="262.49">.</text>
<text x="137.09" y="420.78">.</text>
<text x="326.49" y="116.75">.</text>
<text x="36.32" y="246.88">+</text>
<text x="196.22" y="236.80">+</text>
<text x="400.52" y="470.43">+</text>
<text x="69.65" y="13.34">+</text>
<text x="222.79" y="340.71">+</text>
<text x="337.51" y="192.32">.</text>
<text x="492.33" y="91.98">*</text>
<text x="208.57" y="326.49">.</text>
<text x="344.96" y="368.54">.</text>
<text x="117.70" y="355.42">.</text>
<text x="342.48" y="473.43">.</text>
<text x="323.34" y="32.38">*</text>
<text x="344.81" y="192.21">.</text>
<text x="193.55" y="265.64">*</text>
<text x="463.15" y="242.56">+</text>
<text x="454.34" y="160.54">.</text>
<text x="499.57" y="484.22">.</text>
<text x="304.22" y="46.08">*</text>
<text x="138.43" y="54.34">*</text>
<text x="320.94" y="352.72">+</text>
<text x="289.55" y="266.19">+</text>
<text x="463.45" y="371.16">+</text>
<text x="275.69" y="6.86">+</text>
<text x="344.84" y="145.36">*</text>
<text x="35.20" y="218.03">+</text>
<text x="455.07" y="433.03">+</text>
<text x="114.56" y="313.76">.</text>
<text x="387.86" y="336.35">+</text>
<text x="144.53" y="392.48">+</text>
<text x="432.74" y="261.31">.</text>
<text x="205.01" y="191.16">.</text>
<text x="488.56" y="461.06">.</text>
<text x="222.23" y="72.88">+</text>
<text x="346.58" y="496.72">+</text>
<text x="123.62" y="421.67">+</text>
<text x="456.76" y="487.47">.</text>
<text x="233.75" y="428.39">+</text>
<text x="439.02" y="126.91">.</text>
<text x="440.52" y="370.39">*</text>
<text x="352.69" y="488.72">*</text>
<text x="471.56" y="191.45">+</text>
<text x="217.06" y="233.88">+</text>
<text x="144.16" y="71.25">+</text>
<text x="385.33" y="281.34">+</text>
<text x="221.28" y="231.75">+</text>
<text x="38.01" y="348.81">.</text>
<text x="327.49" y="283.51">.</text>
<text x="411.28" y="476.19">*</text>
<text x="499.80" y="260.77">+</text>
<text x="133.33" y="95.90">*</text>
<text x="333.54" y="66.54">.</text>
<text x="26.69" y="38.36">.</text>
<text x="13.95" y="39.55">+</text>
<text x="441.47" y="236.55">.</text>
<text x="72.60" y="434.50">*</text>
<text x="29.32" y="101.10">+</text>
<text x="269.11" y="246.01">+</text>
<text x="291.96" y="226.37">*</text>
<text x="27.18" y="192.36">+</text>
<text x="121.45" y="199.84">+</text>
<text x="130.51" y="433.85">+</text>
<text x="258.45" y="433.97">.</text>
<text x="194.93" y="229.32">+</text>
<text x="69.18" y="453.10">+</text>
<text x="173.58" y="228.40">+</text>
<text x="340.18" y="49.84">+</text>
<text x="359.54" y="287.95">+</text>
<text x="79.99" y="322.34">+</text>
<text x="496.19" y="142.85">.</text>
<text x="192.86" y="115.25">+</text>
<text x="185.31" y="241.11">+</text>
<text x="85.73" y="432.95">*</text>
<text x="364.36" y="92.42">+</text>
<text x="150.75" y="15.28">+</text>
<text x="106.89" y="268.69">.</text>
<text x="62.02" y="241.54">+</text>
<text x="335.08" y="59.05">.</text>
<text x="95.43" y="444.59">+</text>
<text x="210.24" y="380.87">+</text>
<text x="459.80" y="432.40">.</text>
<text x="70.44" y="120.50">+</text>
<text x="241.28" y="76.14">*</text>
<text x="258.83" y="228.30">.</text>
<text x="266.33" y="481.23">.</text>
<text x="385.71" y="312.48">.</text>
<text x="68.36" y="464.35">+</text>
<text x="481.89" y="156.29">+</text>
<text x="125.43" y="330.55">+</text>
<text x="443.35" y="252.70">+</text>
<text x="289.92" y="302.36">+</text>
<text x="355.67" y="491.07">+</text>
<text x="109.78" y="175.68">+</text>
<text x="34.21" y="41.59">+</text>
<text x="162.41" y="100.88">.</text>
<text x="280.04" y="451.83">+</text>
<text x="88.23" y="481.97">*</text>
<text x="126.23" y="398.57">+</text>
<text x="482.49" y="123.10">.</text>
<text x="283.15" y="164.80">*</text>
<text x="161.61" y="130.48">.</text>
<text x="450.96" y="89.41">.</text>
<text x="102.46" y="412.78">+</text>
<text x="175.71" y="441.69">.</text>
<text x="17.37" y="419.16">*</text>
<text x="465.56" y="334.62">+</text>
<text x="385.87" y="251.12">.</text>
<text x="29.92" y="330.17">+</text>
<text x="395.47" y="361.12">+</text>
<text x="446.28" y="317.64">.</text>
<text x="41.38" y="222.14">+</text>
<text x="298.50" y="45.48">.</text>
<text x="315.01" y="433.57">.</text>
<text x="135.65" y="380.77">*</text>
<text x="147.30" y="95.27">*</text>
<text x="224.77" y="299.49">+</text>
<text x="196.50" y="3.20">+</text>
<text x="39.12" y="121.62">+</text>
<text x="391.69" y="113.26">+</text>
<text x="432.17" y="106.80">*</text>
<text x="438.28" y="435.78">*</text>
<text x="305.47" y="451.24">.</text>
<text x="177.11" y="439.34">+</text>
<text x="121.43" y="464.78">+</text>
<text x="333.78" y="268.29">.</text>
<text x="243.71" y="310.22">.</text>
<text x="290.90" y="283.28">+</text>
<text x="180.26" y="113.08">+</text>
<text x="344.19" y="448.76">.</text>
<text x="468.77" y="268.44">+</text>
<text x="302.29" y="118.05">.</text>
<text x="399.08" y="1.36">.</text>
<text x="466.62" y="73.47">.</text>
<text x="135.43" y="325.12">.</text>
<text x="289.02" y="268.65">+</text>
<text x="183.50" y="329.18">.</text>
<text x="370.07" y="315.11">.</text>
<text x="394.54" y="178.77">+</text>
<text x="84.52" y="312.83">.</text>
<text x="230.72" y="96.55">.</text>
<text x="134.96" y="291.48">.</text>
<text x="241.78" y="386.46">*</text>
<text x="258.86" y="286.66">.</text>
<text x="98.61" y="299.89">+</text>
<text x="392.32" y="228.09">.</text>
<text x="84.96" y="10.16">+</text>
<text x="416.18" y="243.94">+</text>
<text x="132.79" y="460.97">.</text>
<text x="354.89" y="108.83">.</text>
<text x="199.36" y="152.16">+</text>
<text x="72.87" y="76.59">.</text>
<text x="183.89" y="487.15">.</text>
<text x="416.50" y="137.54">.</text>
<text x="332.97" y="412.92">*</text>
<text x="156.94" y="430.77">+</text>
<text x="298.16" y="173.70">+</text>
<text x="394.18" y="164.23">.</text>
<text x="276.39" y="416.17">*</text>
<text x="102.17" y="49.69">.</text>
<text x="299.88" y="118.67">.</text>
<text x="85.98" y="25.59">+</text>
<text x="295.13" y="389.34">+</text>
<text x="91.78" y="342.63">+</text>
<text x="17.37" y="379.59">.</text>
<text x="458.15" y="352.21">+</text>
<text x="439.71" y="357.41">*</text>
<text x="88.81" y="347.60">.</text>
<text x="346.89" y="269.10">.</text>
<text x="475.81" y="357.30">+</text>
<text x="342.96" y="406.49">.</text>
<text x="196.21" y="60.99">*</text>
<text x="211.24" y="8.40">+</text>
<text x="24.53" y="67.63">.</text>
<text x="493.60" y="297.43">.</text>
<text x="206.12" y="102.29">.</text>
<text x="246.61" y="193.10">+</text>
<text x="195.48" y="117.06">+</text>
<text x="198.26" y="273.17">.</text>
<text x="140.77" y="60.54">+</text>
<text x="105.04" y="425.74">*</text>
<text x="5.49" y="309.81">.</text>
<text x="237.53" y="142.31">.</text>
<text x="226.37" y="353.04">*</text>
<text x="407.97" y="263.97">.</text>
<text x="138.97" y="83.77">+</text>
<text x="372.39" y="351.22">+</text>
<text x="211.97" y="209.37">*</text>
<text x="170.13" y="71.71">.</text>
<text x="452.06" y="41.53">.</text>
<text x="201.64" y="223.65">+</text>
<text x="150.68" y="410.76">.</text>
<text x="36.03" y="186.75">.</text>
<text x="86.84" y="402.73">+</text>
<text x="220.39" y="391.32">*</text>
<text x="113.96" y="93.11">+</text>
<text x="242.04" y="37.35">.</text>
<text x="78.87" y="111.76">+</text>
<text x="106.73" y="59.19">*</text>
<text x="3.81" y="183.55">.</text>
<text x="33.49" y="123.88">.</text>
<text x="164.14" y="444.92">+</text>
<text x="400.54" y="218.01">*</text>

</svg>