
<svg viewBox="0 0 500 500" xmlns="http://www.w.org/2000/svg" width="100%" height="100%" style="background-color: #0a0a14; font-family: 'Courier New', Courier, monospace;">
    <style>
        text { fill: #aaa; font-size: 10px; text-anchor: middle; dominant-baseline: middle; }
    </style>
    <text x="472.69" y="126.56">.</text>
<text x="101.36" y="57.27">.</text>
<text x="222.46" y="493.74">+</text>
<text x="326.33" y="42.83">.</text>
<text x="332.03" y="48.27">*</text>
<text x="393.69" y="297.15">*</text>
<text x="233.71" y="429.40">.</text>
<text x="140.93" y="437.02">.</text>
<text x="253.67" y="433.54">.</text>
<text x="36.32" y="490.41">.</text>
<text x="127.96" y="361.41">+</text>
<text x="467.19" y="149.02">+</text>
<text x="79.26" y="31.39">*</text>
<text x="273.76" y="82.22">+</text>
<text x="159.67" y="325.75">+</text>
<text x="409.20" y="308.16">+</text>
<text x="210.29" y="462.27">*</text>
<text x="19.75" y="371.69">.</text>
<text x="237.88" y="425.64">+</text>
<text x="238.09" y="314.79">+</text>
<text x="401.48" y="395.87">.</text>
<text x="26.30" y="86.12">.</text>
<text x="385.46" y="11.98">*</text>
<text x="71.72" y="152.37">+</text>
<text x="329.47" y="425.87">*</text>
<text x="235.64" y="180.06">+</text>
<text x="204.06" y="368.55">+</text>
<text x="307.19" y="31.87">+</text>
<text x="128.50" y="250.44">.</text>
<text x="322.97" y="244.68">.</text>
<text x="115.55" y="338.61">+</text>
<text x="248.62" y="67.59">.</text>
<text x="51.34" y="350.02">+</text>
<text x="376.41" y="259.70">.</text>
<text x="359.79" y="86.12">+</text>
<text x="452.87" y="41.30">+</text>
<text x="164.10" y="205.60">*</text>
<text x="192.69" y="467.08">.</text>
<text x="468.32" y="466.36">+</text>
<text x="342.88" y="422.10">+</text>
<text x="180.37" y="221.46">.</text>
<text x="465.34" y="129.07">*</text>
<text x="5.34" y="15.46">.</text>
<text x="72.42" y="473.13">*</text>
<text x="335.88" y="64.16">+</text>
<text x="278.53" y="279.26">+</text>
<text x="389.96" y="391.08">+</text>
<text x="151.86" y="290.12">.</text>
<text x="78.36" y="485.91">.</text>
<text x="354.46" y="296.84">+</text>
<text x="91.62" y="357.63">+</text>
<text x="3.44" y="202.39">*</text>
<text x="278.98" y="99.68">+</text>
<text x="359.33" y="275.10">+</text>
<text x="232.91" y="209.96">.</text>
<text x="440.75" y="223.71">.</text>
<text x="135.68" y="177.45">.</text>
<text x="109.77" y="90.37">.</text>
<text x="270.29" y="448.06">+</text>
<text x="74.82" y="4.75">+</text>
<text x="270.64" y="464.55">+</text>
<text x="26.40" y="420.79">*</text>
<text x="380.38" y="97.26">*</text>
<text x="231.97" y="300.79">.</text>
<text x="308.69" y="461.97">+</text>
<text x="86.68" y="114.05">*</text>
<text x="212.35" y="349.95">.</text>
<text x="377.64" y="152.54">+</text>
<text x="121.51" y="162.08">.</text>
<text x="38.45" y="58.69">+</text>
<text x="242.05" y="186.58">.</text>
<text x="55.17" y="15.75">*</text>
<text x="446.15" y="61.80">.</text>
<text x="386.25" y="161.88">.</text>
<text x="384.19" y="266.98">.</text>
<text x="421.50" y="263.21">.</text>
<text x="495.25" y="201.66">.</text>
<text x="55.35" y="483.37">.</text>
<text x="248.80" y="224.80">+</text>
<text x="466.99" y="121.13">+</text>
<text x="306.99" y="194.43">.</text>
<text x="327.81" y="131.24">+</text>
<text x="391.28" y="110.46">+</text>
<text x="361.27" y="468.80">.</text>
<text x="282.26" y="330.86">+</text>
<text x="153.61" y="353.47">+</text>
<text x="20.51" y="332.72">.</text>
<text x="474.19" y="420.39">.</text>
<text x="159.31" y="27.94">.</text>
<text x="411.73" y="161.28">*</text>
<text x="5.48" y="348.29">+</text>
<text x="433.11" y="420.20">+</text>
<text x="465.48" y="56.18">*</text>
<text x="468.18" y="252.07">+</text>
<text x="244.59" y="259.01">*</text>
<text x="40.99" y="16.60">.</text>
<text x="221.57" y="113.04">+</text>
<text x="326.58" y="294.88">.</text>
<text x="146.31" y="208.05">.</text>
<text x="106.32" y="77.75">+</text>
<text x="415.21" y="491.17">.</text>
<text x="365.80" y="312.65">+</text>
<text x="480.42" y="106.23">+</text>
<text x="204.80" y="126.08">+</text>
<text x="453.07" y="446.95">.</text>
<text x="492.13" y="103.21">.</text>
<text x="205.96" y="106.38">*</text>
<text x="54.08" y="446.03">.</text>
<text x="347.50" y="426.45">.</text>
<text x="206.17" y="405.59">+</text>
<text x="125.63" y="261.93">.</text>
<text x="227.24" y="137.15">.</text>
<text x="314.61" y="419.85">.</text>
<text x="103.25" y="188.08">.</text>
<text x="174.94" y="148.63">*</text>
<text x="196.61" y="159.15">+</text>
<text x="81.98" y="348.12">*</text>
<text x="56.50" y="360.52">.</text>
<text x="204.05" y="471.62">+</text>
<text x="66.81" y="398.84">+</text>
<text x="154.96" y="6.16">.</text>
<text x="444.93" y="246.25">.</text>
<text x="306.18" y="242.72">.</text>
<text x="293.19" y="209.26">.</text>
<text x="180.76" y="279.76">+</text>
<text x="125.63" y="378.35">+</text>
<text x="359.65" y="396.83">.</text>
<text x="30.74" y="47.07">*</text>
<text x="136.96" y="414.91">+</text>
<text x="296.17" y="460.83">+</text>
<text x="16.35" y="248.87">+</text>
<text x="343.38" y="230.21">+</text>
<text x="142.99" y="302.61">.</text>
<text x="451.10" y="47.30">.</text>
<text x="357.72" y="97.73">+</text>
<text x="112.42" y="444.55">+</text>
<text x="178.35" y="115.10">.</text>
<text x="35.46" y="155.77">.</text>
<text x="362.59" y="252.71">+</text>
<text x="341.11" y="419.34">+</text>
<text x="38.86" y="127.98">.</text>
<text x="450.94" y="156.29">.</text>
<text x="72.64" y="280.67">+</text>
<text x="60.04" y="400.03">+</text>
<text x="333.34" y="269.78">+</text>
<text x="381.64" y="220.23">+</text>
<text x="482.75" y="160.38">+</text>
<text x="59.81" y="324.80">+</text>
<text x="355.05" y="8.94">+</text>
<text x="2.35" y="449.28">.</text>
<text x="83.76" y="385.93">.</text>
<text x="468.28" y="116.28">*</text>
<text x="144.42" y="381.93">.</text>
<text x="150.30" y="272.42">*</text>
<text x="282.16" y="460.64">+</text>
<text x="46.75" y="221.36">.</text>
<text x="12.69" y="228.52">+</text>
<text x="301.46" y="416.48">.</text>
<text x="151.22" y="354.83">+</text>
<text x="106.70" y="243.86">+</text>
<text x="236.48" y="275.83">+</text>
<text x="183.98" y="470.50">.</text>
<text x="397.58" y="117.23">.</text>
<text x="31.00" y="99.34">+</text>
<text x="200.47" y="320.82">+</text>
<text x="341.62" y="494.56">+</text>
<text x="40.89" y="253.57">.</text>
<text x="112.83" y="43.82">.</text>
<text x="240.95" y="85.11">.</text>
<text x="489.66" y="73.66">*</text>
<text x="172.86" y="367.04">.</text>
<text x="349.58" y="467.61">.</text>
<text x="8.37" y="136.26">+</text>
<text x="257.36" y="74.69">+</text>
<text x="428.10" y="104.77">.</text>
<text x="174.03" y="116.86">*</text>
<text x="186.08" y="334.13">.</text>
<text x="463.18" y="131.77">*</text>
<text x="4.76" y="65.76">.</text>
<text x="271.10" y="389.58">+</text>
<text x="211.77" y="239.26">+</text>
<text x="162.75" y="433.17">+</text>
<text x="256.10" y="147.45">.</text>
<text x="350.48" y="314.37">.</text>
<text x="164.40" y="149.91">.</text>
<text x="305.20" y="158.35">+</text>
<text x="209.88" y="34.85">.</text>
<text x="165.23" y="479.85">.</text>
<text x="217.12" y="233.49">+</text>
<text x="50.28" y="424.97">+</text>
<text x="245.46" y="331.59">.</text>
<text x="261.91" y="334.33">+</text>
<text x="190.05" y="77.05">+</text>
<text x="201.57" y="399.83">+</text>
<text x="51.73" y="346.22">*</text>
<text x="97.47" y="418.37">+</text>
<text x="352.24" y="157.74">.</text>
<text x="303.28" y="138.84">.</text>
<text x="481.32" y="45.67">+</text>
<text x="186.27" y="1.50">.</text>
<text x="296.59" y="425.55">.</text>

</svg>