
<svg viewBox="0 0 500 500" xmlns="http://www.w.org/2000/svg" width="100%" height="100%" style="background-color: #0a0a14; font-family: 'Courier New', Courier, monospace;">
    <style>
        text { fill: #aaa; font-size: 10px; text-anchor: middle; dominant-baseline: middle; }
    </style>
    <text x="470.55" y="94.56">+</text>
<text x="149.13" y="312.99">.</text>
<text x="494.91" y="35.86">+</text>
<text x="196.05" y="492.07">+</text>
<text x="491.39" y="395.15">+</text>
<text x="44.02" y="136.17">.</text>
<text x="106.81" y="395.73">+</text>
<text x="137.29" y="435.11">+</text>
<text x="173.29" y="352.43">+</text>
<text x="32.62" y="23.66">+</text>
<text x="148.57" y="371.66">+</text>
<text x="330.64" y="434.05">+</text>
<text x="280.77" y="392.98">.</text>
<text x="210.82" y="135.83">+</text>
<text x="365.73" y="430.64">+</text>
<text x="235.20" y="357.74">.</text>
<text x="221.08" y="189.00">.</text>
<text x="220.41" y="30.91">+</text>
<text x="89.86" y="248.41">.</text>
<text x="366.15" y="76.66">+</text>
<text x="370.54" y="249.35">+</text>
<text x="9.11" y="311.17">*</text>
<text x="100.85" y="76.25">+</text>
<text x="209.76" y="448.66">.</text>
<text x="251.88" y="102.93">*</text>
<text x="102.03" y="24.08">.</text>
<text x="302.98" y="376.75">.</text>
<text x="331.21" y="104.52">.</text>
<text x="228.77" y="475.64">.</text>
<text x="464.75" y="38.83">.</text>
<text x="79.51" y="14.32">+</text>
<text x="156.21" y="268.72">+</text>
<text x="235.81" y="168.70">.</text>
<text x="113.55" y="487.05">+</text>
<text x="243.39" y="181.45">+</text>
<text x="134.19" y="485.59">.</text>
<text x="112.28" y="77.86">.</text>
<text x="204.79" y="45.05">.</text>
<text x="192.56" y="149.93">+</text>
<text x="406.10" y="328.58">.</text>
<text x="124.61" y="135.88">+</text>
<text x="83.44" y="353.72">+</text>
<text x="254.77" y="232.28">.</text>
<text x="76.82" y="295.94">+</text>
<text x="303.96" y="289.13">.</text>
<text x="360.01" y="354.62">.</text>
<text x="13.49" y="374.16">+</text>
<text x="477.39" y="57.06">+</text>
<text x="420.03" y="449.75">.</text>
<text x="382.54" y="384.57">+</text>
<text x="212.83" y="326.13">.</text>
<text x="278.15" y="62.37">+</text>
<text x="462.49" y="5.41">.</text>
<text x="300.93" y="374.26">+</text>
<text x="228.22" y="257.84">.</text>
<text x="351.29" y="333.12">.</text>
<text x="392.63" y="85.48">+</text>
<text x="298.86" y="28.66">.</text>
<text x="120.03" y="461.59">+</text>
<text x="441.15" y="313.15">+</text>
<text x="374.05" y="470.15">.</text>
<text x="471.12" y="141.07">+</text>
<text x="301.22" y="101.80">+</text>
<text x="6.11" y="333.13">+</text>
<text x="146.44" y="498.20">*</text>
<text x="493.78" y="399.58">+</text>
<text x="319.54" y="51.53">.</text>
<text x="222.59" y="304.89">+</text>
<text x="151.12" y="284.91">+</text>
<text x="336.89" y="448.62">.</text>
<text x="294.81" y="32.43">+</text>
<text x="233.55" y="320.99">.</text>
<text x="454.15" y="251.66">+</text>
<text x="248.09" y="178.44">.</text>
<text x="456.84" y="337.39">*</text>
<text x="256.34" y="391.27">.</text>
<text x="322.86" y="28.22">.</text>
<text x="278.77" y="54.54">+</text>
<text x="209.60" y="254.10">+</text>
<text x="60.70" y="139.04">.</text>
<text x="269.85" y="364.80">+</text>
<text x="413.39" y="94.73">.</text>
<text x="291.43" y="327.44">+</text>
<text x="441.63" y="203.71">.</text>
<text x="431.68" y="90.61">+</text>
<text x="413.26" y="372.62">*</text>
<text x="489.41" y="159.12">.</text>
<text x="176.29" y="352.11">.</text>
<text x="416.53" y="432.92">+</text>
<text x="213.89" y="444.87">.</text>
<text x="80.40" y="338.05">*</text>
<text x="11.18" y="472.82">+</text>
<text x="364.58" y="443.96">+</text>
<text x="184.26" y="215.00">.</text>
<text x="106.62" y="252.65">.</text>
<text x="483.55" y="471.96">+</text>
<text x="66.43" y="89.85">.</text>
<text x="309.12" y="51.58">+</text>
<text x="100.31" y="53.27">+</text>
<text x="473.31" y="338.49">.</text>
<text x="242.19" y="323.61">*</text>
<text x="295.39" y="485.40">.</text>
<text x="429.41" y="479.70">*</text>
<text x="173.02" y="194.60">*</text>
<text x="341.56" y="227.29">+</text>
<text x="441.30" y="60.22">*</text>
<text x="394.96" y="207.25">+</text>
<text x="324.92" y="368.83">.</text>
<text x="24.24" y="3.49">+</text>
<text x="147.74" y="390.52">.</text>
<text x="373.83" y="177.40">.</text>
<text x="100.71" y="233.22">.</text>
<text x="78.29" y="253.11">+</text>
<text x="108.06" y="84.97">.</text>
<text x="363.21" y="10.21">+</text>
<text x="454.77" y="448.38">.</text>
<text x="353.72" y="165.52">.</text>
<text x="153.83" y="366.43">*</text>
<text x="364.24" y="275.88">.</text>
<text x="411.79" y="326.50">*</text>
<text x="211.11" y="73.71">.</text>
<text x="230.41" y="442.35">+</text>
<text x="328.11" y="372.78">+</text>
<text x="5.13" y="74.32">*</text>
<text x="166.50" y="243.02">.</text>
<text x="231.73" y="211.41">+</text>
<text x="442.10" y="95.97">+</text>
<text x="425.96" y="167.78">.</text>
<text x="402.16" y="380.18">+</text>
<text x="444.46" y="106.59">.</text>
<text x="70.28" y="418.87">.</text>
<text x="99.72" y="449.86">+</text>
<text x="434.52" y="33.23">.</text>
<text x="232.69" y="20.48">+</text>
<text x="228.95" y="467.34">+</text>
<text x="51.37" y="86.77">.</text>
<text x="170.44" y="353.31">.</text>
<text x="291.66" y="173.72">+</text>
<text x="472.78" y="342.39">+</text>
<text x="165.74" y="41.03">.</text>
<text x="266.01" y="348.56">.</text>
<text x="195.58" y="448.77">+</text>
<text x="289.02" y="17.85">.</text>
<text x="237.09" y="3.16">.</text>
<text x="480.14" y="55.02">+</text>
<text x="192.34" y="417.75">+</text>
<text x="119.98" y="390.94">.</text>
<text x="407.64" y="189.45">+</text>
<text x="32.74" y="498.19">+</text>
<text x="127.56" y="73.41">+</text>
<text x="280.24" y="68.31">+</text>
<text x="44.81" y="311.36">.</text>
<text x="127.47" y="100.44">.</text>
<text x="385.55" y="133.85">+</text>
<text x="279.06" y="150.76">.</text>
<text x="354.40" y="266.04">.</text>
<text x="245.04" y="151.62">.</text>
<text x="425.89" y="498.24">.</text>
<text x="231.39" y="2.67">+</text>
<text x="218.51" y="80.05">*</text>
<text x="91.83" y="333.17">.</text>
<text x="114.65" y="129.16">+</text>
<text x="272.62" y="233.60">*</text>
<text x="233.11" y="217.43">+</text>
<text x="253.87" y="361.21">+</text>
<text x="7.44" y="330.91">*</text>
<text x="12.81" y="281.18">.</text>
<text x="280.77" y="303.03">+</text>
<text x="287.67" y="82.71">+</text>
<text x="275.93" y="150.48">+</text>
<text x="455.02" y="283.22">.</text>
<text x="188.70" y="130.58">.</text>
<text x="174.72" y="66.01">.</text>
<text x="279.37" y="158.12">.</text>
<text x="96.17" y="375.76">+</text>
<text x="235.05" y="334.84">+</text>
<text x="426.88" y="240.69">.</text>
<text x="124.15" y="411.67">+</text>
<text x="200.28" y="345.18">*</text>
<text x="161.18" y="329.62">+</text>
<text x="448.25" y="489.72">+</text>
<text x="121.33" y="276.78">.</text>
<text x="63.24" y="318.89">+</text>
<text x="394.25" y="0.40">.</text>
<text x="39.33" y="348.25">+</text>
<text x="389.36" y="79.80">.</text>
<text x="258.93" y="256.77">.</text>
<text x="13.65" y="151.32">*</text>
<text x="34.32" y="94.36">+</text>
<text x="141.94" y="418.00">.</text>
<text x="246.89" y="19.38">.</text>
<text x="90.08" y="235.97">.</text>
<text x="281.44" y="120.18">+</text>
<text x="424.29" y="181.45">.</text>
<text x="68.69" y="97.57">+</text>
<text x="265.79" y="39.15">.</text>
<text x="309.58" y="345.35">+</text>
<text x="8.12" y="347.46">*</text>
<text x="199.55" y="61.97">+</text>
<text x="334.77" y="151.68">.</text>
<text x="278.87" y="306.00">+</text>
<text x="486.54" y="71.72">+</text>
<text x="181.60" y="370.67">.</text>
<text x="486.52" y="279.82">.</text>
<text x="382.46" y="59.96">*</text>
<text x="211.40" y="100.42">.</text>
<text x="395.42" y="468.05">*</text>
<text x="21.86" y="165.95">.</text>
<text x="226.22" y="361.25">.</text>
<text x="371.52" y="293.21">+</text>
<text x="204.30" y="316.63">+</text>
<text x="111.73" y="369.65">.</text>
<text x="215.04" y="323.44">*</text>
<text x="316.56" y="411.13">.</text>
<text x="475.89" y="48.13">.</text>
<text x="81.35" y="128.42">.</text>
<text x="248.43" y="191.48">.</text>
<text x="257.64" y="44.78">.</text>
<text x="334.99" y="323.25">*</text>
<text x="387.19" y="457.95">.</text>

</svg>