
<svg viewBox="0 0 500 500" xmlns="http://www.w.org/2000/svg" width="100%" height="100%" style="background-color: #0a0a14; font-family: 'Courier New', Courier, monospace;">
    <style>
        text { fill: #aaa; font-size: 10px; text-anchor: middle; dominant-baseline: middle; }
    </style>
    <text x="244.65" y="166.50">+</text>
<text x="466.09" y="353.51">+</text>
<text x="221.82" y="488.10">.</text>
<text x="97.44" y="409.83">.</text>
<text x="181.39" y="470.50">+</text>
<text x="248.27" y="448.60">+</text>
<text x="169.52" y="148.86">+</text>
<text x="311.12" y="251.69">.</text>
<text x="296.61" y="461.75">+</text>
<text x="494.58" y="180.16">.</text>
<text x="34.90" y="337.61">.</text>
<text x="147.08" y="243.21">+</text>
<text x="430.85" y="43.84">.</text>
<text x="321.75" y="118.74">+</text>
<text x="353.23" y="143.52">+</text>
<text x="374.07" y="311.43">+</text>
<text x="490.18" y="258.42">.</text>
<text x="61.91" y="179.78">*</text>
<text x="14.86" y="168.11">.</text>
<text x="232.83" y="390.56">*</text>
<text x="115.66" y="432.06">*</text>
<text x="2.08" y="315.85">+</text>
<text x="22.36" y="485.43">*</text>
<text x="127.07" y="58.76">+</text>
<text x="219.14" y="104.80">*</text>
<text x="75.77" y="120.81">+</text>
<text x="233.54" y="22.93">+</text>
<text x="227.52" y="419.52">.</text>
<text x="202.54" y="438.57">+</text>
<text x="182.04" y="185.16">.</text>
<text x="267.10" y="368.19">.</text>
<text x="143.99" y="77.57">+</text>
<text x="408.42" y="9.28">.</text>
<text x="444.38" y="274.55">.</text>
<text x="446.81" y="379.50">+</text>
<text x="25.82" y="245.84">*</text>
<text x="173.31" y="74.32">+</text>
<text x="214.78" y="239.61">+</text>
<text x="203.17" y="429.27">.</text>
<text x="251.94" y="234.50">+</text>
<text x="396.40" y="63.94">+</text>
<text x="380.95" y="35.00">+</text>
<text x="364.26" y="479.66">+</text>
<text x="457.46" y="342.71">.</text>
<text x="393.67" y="390.90">*</text>
<text x="104.92" y="495.86">+</text>
<text x="405.18" y="386.46">.</text>
<text x="79.93" y="409.22">.</text>
<text x="297.27" y="336.28">+</text>
<text x="389.98" y="346.01">*</text>
<text x="243.92" y="369.30">.</text>
<text x="56.71" y="488.03">*</text>
<text x="383.52" y="381.48">*</text>
<text x="98.71" y="55.82">.</text>
<text x="3.60" y="339.17">.</text>
<text x="223.33" y="410.05">+</text>
<text x="84.15" y="89.48">.</text>
<text x="4.10" y="300.01">.</text>
<text x="84.23" y="499.16">*</text>
<text x="397.23" y="360.30">+</text>
<text x="89.67" y="205.33">+</text>
<text x="448.46" y="440.01">+</text>
<text x="129.73" y="487.01">.</text>
<text x="348.21" y="471.23">.</text>
<text x="61.17" y="460.64">.</text>
<text x="247.81" y="229.38">+</text>
<text x="107.00" y="214.96">.</text>
<text x="299.52" y="355.56">.</text>
<text x="294.54" y="362.50">.</text>
<text x="28.11" y="248.47">+</text>
<text x="486.68" y="239.78">.</text>
<text x="96.55" y="193.14">.</text>
<text x="342.16" y="415.19">+</text>
<text x="448.76" y="481.24">+</text>
<text x="342.11" y="459.25">+</text>
<text x="346.72" y="181.73">+</text>
<text x="323.41" y="221.43">.</text>
<text x="339.43" y="27.28">+</text>
<text x="458.70" y="462.08">.</text>
<text x="13.02" y="65.90">+</text>
<text x="349.64" y="25.30">*</text>
<text x="214.42" y="457.69">+</text>
<text x="217.93" y="289.64">+</text>
<text x="216.86" y="216.76">+</text>
<text x="397.64" y="116.23">.</text>
<text x="134.11" y="298.54">.</text>
<text x="52.04" y="141.22">.</text>
<text x="365.71" y="5.71">+</text>
<text x="458.14" y="207.51">.</text>
<text x="244.73" y="151.42">*</text>
<text x="210.08" y="262.43">.</text>
<text x="317.26" y="11.38">*</text>
<text x="75.99" y="34.62">*</text>
<text x="161.63" y="238.11">.</text>
<text x="400.12" y="16.33">.</text>
<text x="79.46" y="336.17">+</text>
<text x="265.59" y="153.25">*</text>
<text x="103.75" y="306.59">*</text>
<text x="303.59" y="351.46">+</text>
<text x="497.24" y="227.96">.</text>
<text x="152.63" y="424.95">+</text>
<text x="447.65" y="480.19">.</text>
<text x="249.88" y="306.63">.</text>
<text x="370.87" y="248.17">.</text>
<text x="188.80" y="296.36">+</text>
<text x="408.48" y="427.31">*</text>
<text x="206.50" y="489.96">.</text>
<text x="408.86" y="132.66">*</text>
<text x="130.04" y="189.27">+</text>
<text x="97.48" y="300.77">+</text>
<text x="217.47" y="120.57">+</text>
<text x="134.97" y="345.53">+</text>
<text x="273.67" y="403.84">+</text>
<text x="349.53" y="413.04">*</text>
<text x="117.20" y="72.73">+</text>
<text x="270.35" y="295.28">.</text>
<text x="420.03" y="167.65">+</text>
<text x="458.98" y="235.77">+</text>
<text x="395.39" y="434.33">.</text>
<text x="29.58" y="95.05">*</text>
<text x="344.60" y="103.30">*</text>
<text x="440.60" y="164.93">+</text>
<text x="288.37" y="434.83">.</text>
<text x="14.50" y="352.35">+</text>
<text x="255.29" y="173.97">.</text>
<text x="440.01" y="110.06">.</text>
<text x="480.85" y="378.80">+</text>
<text x="55.44" y="112.78">+</text>
<text x="336.39" y="412.54">+</text>
<text x="188.18" y="386.21">*</text>
<text x="390.89" y="274.97">.</text>
<text x="250.10" y="10.57">+</text>
<text x="330.19" y="19.83">+</text>
<text x="186.96" y="197.83">.</text>
<text x="278.92" y="106.59">+</text>
<text x="132.07" y="497.13">.</text>
<text x="321.25" y="397.92">+</text>
<text x="197.59" y="36.18">+</text>
<text x="173.10" y="140.56">.</text>
<text x="76.61" y="6.63">*</text>
<text x="420.70" y="86.97">.</text>
<text x="41.42" y="80.43">.</text>
<text x="252.58" y="313.00">+</text>
<text x="15.32" y="212.17">+</text>
<text x="322.32" y="295.63">.</text>
<text x="378.21" y="290.32">+</text>
<text x="128.76" y="384.12">+</text>
<text x="161.12" y="390.52">+</text>
<text x="388.22" y="438.25">+</text>
<text x="233.35" y="141.75">.</text>
<text x="24.04" y="453.18">.</text>
<text x="376.68" y="37.66">+</text>
<text x="184.64" y="24.03">+</text>
<text x="489.92" y="450.14">+</text>
<text x="140.69" y="191.98">+</text>
<text x="236.00" y="322.24">+</text>
<text x="314.57" y="251.69">.</text>
<text x="125.96" y="169.09">.</text>
<text x="461.07" y="266.63">+</text>
<text x="184.44" y="307.24">+</text>
<text x="317.92" y="422.40">.</text>
<text x="422.32" y="344.01">+</text>
<text x="50.65" y="227.77">.</text>
<text x="410.02" y="440.42">.</text>
<text x="444.04" y="318.21">+</text>
<text x="215.98" y="486.65">.</text>
<text x="209.74" y="258.83">*</text>
<text x="322.55" y="129.70">.</text>
<text x="157.14" y="19.39">+</text>
<text x="123.17" y="214.62">.</text>
<text x="192.74" y="93.08">+</text>
<text x="457.84" y="309.94">*</text>
<text x="163.26" y="456.32">.</text>
<text x="357.41" y="187.34">.</text>
<text x="273.62" y="410.65">*</text>
<text x="260.45" y="455.44">+</text>
<text x="132.20" y="59.22">.</text>
<text x="295.29" y="481.34">.</text>
<text x="157.70" y="38.75">+</text>
<text x="459.55" y="38.18">*</text>
<text x="321.31" y="50.22">.</text>
<text x="241.62" y="41.58">+</text>
<text x="241.63" y="207.45">.</text>
<text x="246.92" y="299.32">.</text>
<text x="314.37" y="394.63">+</text>
<text x="424.05" y="452.52">*</text>
<text x="146.74" y="447.92">.</text>
<text x="351.21" y="438.38">+</text>
<text x="161.51" y="351.87">.</text>
<text x="377.14" y="493.26">.</text>
<text x="443.55" y="427.98">+</text>
<text x="230.83" y="450.42">.</text>
<text x="268.17" y="429.53">+</text>
<text x="1.13" y="265.55">*</text>
<text x="345.71" y="434.52">+</text>
<text x="148.12" y="416.14">+</text>
<text x="409.84" y="338.11">.</text>
<text x="253.55" y="415.06">.</text>
<text x="395.63" y="116.16">+</text>
<text x="367.15" y="292.62">.</text>
<text x="63.18" y="125.40">.</text>
<text x="386.56" y="148.67">.</text>
<text x="268.68" y="165.95">.</text>
<text x="10.21" y="255.73">.</text>
<text x="225.76" y="26.61">.</text>
<text x="274.69" y="272.31">.</text>
<text x="222.60" y="308.63">+</text>
<text x="418.70" y="7.13">.</text>
<text x="479.12" y="311.97">.</text>
<text x="363.33" y="483.57">.</text>
<text x="369.03" y="484.54">.</text>

</svg>