
<svg viewBox="0 0 500 500" xmlns="http://www.w.org/2000/svg" width="100%" height="100%" style="background-color: #0a0a14; font-family: 'Courier New', Courier, monospace;">
    <style>
        text { fill: #aaa; font-size: 10px; text-anchor: middle; dominant-baseline: middle; }
    </style>
    <text x="271.10" y="385.46">+</text>
<text x="330.97" y="465.84">+</text>
<text x="470.27" y="460.67">+</text>
<text x="246.06" y="132.14">+</text>
<text x="373.70" y="326.11">*</text>
<text x="261.42" y="376.56">+</text>
<text x="199.38" y="364.09">.</text>
<text x="131.23" y="453.09">+</text>
<text x="224.28" y="351.42">+</text>
<text x="459.98" y="339.72">.</text>
<text x="386.94" y="344.57">+</text>
<text x="184.95" y="442.08">+</text>
<text x="233.64" y="326.68">.</text>
<text x="105.93" y="119.59">+</text>
<text x="179.29" y="27.71">.</text>
<text x="341.82" y="444.70">+</text>
<text x="79.67" y="253.00">.</text>
<text x="112.06" y="269.51">.</text>
<text x="62.50" y="151.01">+</text>
<text x="345.79" y="471.35">+</text>
<text x="316.24" y="215.25">+</text>
<text x="376.31" y="163.96">.</text>
<text x="33.71" y="34.89">.</text>
<text x="39.01" y="238.27">.</text>
<text x="347.74" y="109.73">*</text>
<text x="25.64" y="334.98">*</text>
<text x="452.45" y="109.41">+</text>
<text x="165.21" y="420.99">.</text>
<text x="439.20" y="22.22">+</text>
<text x="63.90" y="238.06">.</text>
<text x="404.44" y="247.18">*</text>
<text x="197.04" y="459.20">+</text>
<text x="193.36" y="319.33">.</text>
<text x="316.91" y="172.72">.</text>
<text x="40.32" y="477.60">+</text>
<text x="370.29" y="143.51">.</text>
<text x="175.19" y="54.52">+</text>
<text x="219.84" y="149.19">.</text>
<text x="160.13" y="297.46">*</text>
<text x="278.58" y="265.90">.</text>
<text x="121.84" y="231.80">+</text>
<text x="79.30" y="107.85">.</text>
<text x="130.12" y="173.35">.</text>
<text x="477.16" y="429.96">.</text>
<text x="460.94" y="282.80">.</text>
<text x="371.46" y="136.76">.</text>
<text x="177.01" y="316.99">*</text>
<text x="449.60" y="101.22">.</text>
<text x="328.20" y="402.76">*</text>
<text x="275.29" y="176.95">*</text>
<text x="177.17" y="220.26">+</text>
<text x="342.17" y="467.58">*</text>
<text x="183.77" y="126.35">.</text>
<text x="148.87" y="104.18">+</text>
<text x="419.19" y="257.27">*</text>
<text x="303.36" y="26.02">.</text>
<text x="247.49" y="367.50">.</text>
<text x="381.96" y="424.44">+</text>
<text x="76.14" y="417.39">*</text>
<text x="73.84" y="275.17">+</text>
<text x="452.35" y="314.18">.</text>
<text x="224.52" y="450.18">.</text>
<text x="8.59" y="265.48">.</text>
<text x="321.16" y="274.65">*</text>
<text x="136.14" y="4.77">.</text>
<text x="246.26" y="294.98">+</text>
<text x="220.00" y="174.81">.</text>
<text x="100.26" y="151.88">+</text>
<text x="432.04" y="478.31">+</text>
<text x="281.80" y="430.39">+</text>
<text x="317.93" y="370.59">.</text>
<text x="347.46" y="213.50">.</text>
<text x="160.11" y="219.15">+</text>
<text x="462.91" y="390.75">.</text>
<text x="295.73" y="491.16">.</text>
<text x="404.69" y="44.89">+</text>
<text x="46.25" y="469.87">.</text>
<text x="405.90" y="98.36">*</text>
<text x="10.63" y="425.75">.</text>
<text x="54.49" y="431.21">*</text>
<text x="496.49" y="351.42">+</text>
<text x="100.27" y="101.25">+</text>
<text x="396.36" y="332.53">.</text>
<text x="440.05" y="82.55">.</text>
<text x="219.72" y="494.77">+</text>
<text x="26.93" y="106.90">+</text>
<text x="78.79" y="476.28">.</text>
<text x="325.85" y="205.78">+</text>
<text x="76.29" y="101.71">+</text>
<text x="454.21" y="498.99">.</text>
<text x="226.22" y="108.08">.</text>
<text x="288.32" y="287.21">.</text>
<text x="386.41" y="32.41">+</text>
<text x="397.53" y="117.66">.</text>
<text x="390.60" y="349.50">*</text>
<text x="416.38" y="453.95">.</text>
<text x="234.51" y="89.49">.</text>
<text x="430.41" y="285.57">.</text>
<text x="326.11" y="272.30">+</text>
<text x="199.50" y="283.88">+</text>
<text x="447.88" y="91.44">.</text>
<text x="145.77" y="339.81">.</text>
<text x="92.25" y="223.18">+</text>
<text x="223.16" y="419.52">+</text>
<text x="72.22" y="11.54">.</text>
<text x="18.96" y="142.46">.</text>
<text x="273.75" y="490.38">.</text>
<text x="415.39" y="234.63">.</text>
<text x="484.48" y="208.32">.</text>
<text x="414.64" y="59.01">*</text>
<text x="132.93" y="361.00">.</text>
<text x="487.91" y="135.70">+</text>
<text x="15.35" y="461.54">+</text>
<text x="341.43" y="372.68">.</text>
<text x="285.14" y="223.95">.</text>
<text x="112.86" y="459.07">+</text>
<text x="86.50" y="110.13">+</text>
<text x="135.26" y="302.31">+</text>
<text x="190.79" y="137.38">*</text>
<text x="400.51" y="80.13">+</text>
<text x="275.00" y="449.70">.</text>
<text x="388.38" y="328.37">*</text>
<text x="325.58" y="325.35">.</text>
<text x="58.36" y="137.56">.</text>
<text x="22.27" y="154.63">+</text>
<text x="165.98" y="34.65">+</text>
<text x="206.92" y="262.79">+</text>
<text x="312.62" y="174.77">+</text>
<text x="195.32" y="14.24">.</text>
<text x="409.19" y="159.74">+</text>
<text x="380.01" y="358.90">.</text>
<text x="319.68" y="363.85">+</text>
<text x="209.80" y="106.29">.</text>
<text x="318.12" y="432.13">.</text>
<text x="324.60" y="395.09">+</text>
<text x="481.33" y="84.89">+</text>
<text x="486.07" y="133.17">*</text>
<text x="242.80" y="285.85">.</text>
<text x="109.05" y="134.54">+</text>
<text x="146.23" y="28.47">*</text>
<text x="241.48" y="28.40">+</text>
<text x="258.01" y="117.32">+</text>
<text x="368.93" y="266.69">+</text>
<text x="45.85" y="438.87">+</text>
<text x="149.59" y="225.96">+</text>
<text x="332.31" y="317.99">.</text>
<text x="278.08" y="498.88">+</text>
<text x="452.77" y="1.36">+</text>
<text x="426.50" y="17.59">+</text>
<text x="496.84" y="405.46">+</text>
<text x="116.63" y="373.92">.</text>
<text x="41.24" y="461.50">.</text>
<text x="10.19" y="58.71">*</text>
<text x="233.76" y="488.01">.</text>
<text x="140.10" y="251.72">.</text>
<text x="31.74" y="187.91">+</text>
<text x="0.74" y="472.18">.</text>
<text x="443.33" y="112.30">+</text>
<text x="234.24" y="396.27">.</text>
<text x="439.16" y="152.79">+</text>
<text x="86.53" y="386.94">.</text>
<text x="24.72" y="189.91">+</text>
<text x="29.31" y="351.47">+</text>
<text x="480.67" y="61.03">.</text>
<text x="428.25" y="283.58">*</text>
<text x="90.17" y="269.43">+</text>
<text x="64.60" y="8.12">+</text>
<text x="90.41" y="380.07">.</text>
<text x="273.53" y="31.76">.</text>
<text x="22.84" y="237.21">+</text>
<text x="55.33" y="219.19">*</text>
<text x="491.32" y="446.07">.</text>
<text x="217.97" y="24.01">.</text>
<text x="77.68" y="50.23">.</text>
<text x="298.92" y="112.75">*</text>
<text x="38.85" y="325.47">+</text>
<text x="257.05" y="402.92">.</text>
<text x="399.35" y="140.96">.</text>
<text x="301.67" y="411.49">+</text>
<text x="316.76" y="259.56">.</text>
<text x="202.43" y="117.10">*</text>
<text x="71.34" y="275.64">.</text>
<text x="165.28" y="427.79">.</text>
<text x="258.51" y="385.56">.</text>
<text x="369.92" y="449.09">.</text>
<text x="434.67" y="450.92">+</text>
<text x="340.53" y="257.28">.</text>
<text x="142.97" y="489.13">.</text>
<text x="246.53" y="47.25">+</text>
<text x="433.64" y="106.96">.</text>
<text x="309.32" y="13.74">.</text>
<text x="265.34" y="46.74">+</text>
<text x="319.09" y="96.53">*</text>
<text x="331.70" y="320.27">.</text>
<text x="252.54" y="451.22">+</text>
<text x="401.20" y="70.52">.</text>
<text x="393.17" y="184.13">.</text>
<text x="161.52" y="476.90">+</text>
<text x="348.65" y="397.83">.</text>
<text x="385.20" y="72.50">.</text>
<text x="359.73" y="34.11">.</text>
<text x="440.16" y="149.33">+</text>
<text x="490.34" y="320.77">.</text>
<text x="315.93" y="86.26">.</text>
<text x="155.52" y="180.43">.</text>
<text x="51.21" y="338.22">*</text>

</svg>