
<svg viewBox="0 0 500 500" xmlns="http://www.w.org/2000/svg" width="100%" height="100%" style="background-color: #0a0a14; font-family: 'Courier New', Courier, monospace;">
    <style>
        text { fill: #aaa; font-size: 10px; text-anchor: middle; dominant-baseline: middle; }
    </style>
    <text x="364.59" y="425.59">+</text>
<text x="108.35" y="51.26">.</text>
<text x="340.45" y="23.41">+</text>
<text x="68.98" y="271.08">+</text>
<text x="104.42" y="264.70">+</text>
<text x="379.85" y="328.48">.</text>
<text x="75.42" y="45.82">+</text>
<text x="164.11" y="393.41">+</text>
<text x="115.71" y="455.01">.</text>
<text x="478.60" y="288.93">*</text>
<text x="468.42" y="179.38">.</text>
<text x="373.57" y="392.46">.</text>
<text x="355.85" y="366.45">+</text>
<text x="82.90" y="62.23">+</text>
<text x="284.10" y="239.86">+</text>
<text x="57.41" y="295.26">.</text>
<text x="180.93" y="416.35">.</text>
<text x="330.57" y="375.77">+</text>
<text x="255.07" y="149.96">.</text>
<text x="462.26" y="387.77">+</text>
<text x="122.58" y="236.54">+</text>
<text x="101.75" y="382.65">+</text>
<text x="463.36" y="275.20">+</text>
<text x="353.68" y="419.40">.</text>
<text x="267.15" y="213.07">.</text>
<text x="277.95" y="92.05">.</text>
<text x="151.22" y="395.36">.</text>
<text x="140.27" y="199.83">+</text>
<text x="396.16" y="467.09">.</text>
<text x="113.24" y="170.48">.</text>
<text x="145.93" y="94.34">.</text>
<text x="467.95" y="233.12">+</text>
<text x="429.30" y="410.79">.</text>
<text x="125.75" y="304.11">.</text>
<text x="378.80" y="284.45">.</text>
<text x="260.70" y="25.64">+</text>
<text x="12.22" y="51.77">.</text>
<text x="300.08" y="383.13">.</text>
<text x="477.22" y="34.62">+</text>
<text x="222.13" y="306.21">.</text>
<text x="34.73" y="69.53">+</text>
<text x="62.03" y="265.20">.</text>
<text x="293.76" y="428.23">+</text>
<text x="480.21" y="188.39">+</text>
<text x="43.82" y="433.50">+</text>
<text x="487.46" y="186.77">.</text>
<text x="487.90" y="349.47">.</text>
<text x="498.53" y="310.92">.</text>
<text x="343.39" y="354.25">.</text>
<text x="30.06" y="199.94">+</text>
<text x="495.46" y="485.48">+</text>
<text x="495.97" y="350.78">.</text>
<text x="16.54" y="225.00">.</text>
<text x="459.68" y="377.92">+</text>
<text x="225.20" y="292.53">+</text>
<text x="255.41" y="401.68">.</text>
<text x="336.13" y="487.92">+</text>
<text x="202.70" y="69.57">+</text>
<text x="121.02" y="485.79">.</text>
<text x="478.46" y="16.23">.</text>
<text x="385.68" y="216.93">.</text>
<text x="104.70" y="494.53">+</text>
<text x="116.45" y="180.77">+</text>
<text x="170.75" y="224.43">+</text>
<text x="74.39" y="441.60">.</text>
<text x="185.12" y="208.17">.</text>
<text x="397.19" y="454.71">.</text>
<text x="191.51" y="458.66">+</text>
<text x="323.64" y="113.72">+</text>
<text x="450.60" y="236.92">+</text>
<text x="101.29" y="117.43">.</text>
<text x="252.29" y="434.55">+</text>
<text x="403.38" y="268.73">+</text>
<text x="392.86" y="274.25">+</text>
<text x="493.37" y="331.36">.</text>
<text x="113.62" y="302.40">.</text>
<text x="396.69" y="407.90">+</text>
<text x="483.37" y="53.42">+</text>
<text x="193.42" y="225.73">+</text>
<text x="237.36" y="53.33">+</text>
<text x="62.44" y="289.92">.</text>
<text x="92.67" y="424.14">.</text>
<text x="375.58" y="278.90">.</text>
<text x="268.68" y="339.25">.</text>
<text x="338.93" y="49.14">+</text>
<text x="344.76" y="133.34">*</text>
<text x="440.35" y="472.42">+</text>
<text x="338.61" y="93.50">.</text>
<text x="177.40" y="341.74">*</text>
<text x="407.83" y="39.47">+</text>
<text x="124.88" y="287.82">.</text>
<text x="223.80" y="233.32">.</text>
<text x="67.69" y="77.36">*</text>
<text x="326.70" y="366.86">.</text>
<text x="363.08" y="485.64">+</text>
<text x="486.08" y="470.11">*</text>
<text x="210.05" y="53.44">.</text>
<text x="218.34" y="443.98">.</text>
<text x="141.07" y="476.88">+</text>
<text x="409.93" y="490.35">+</text>
<text x="166.74" y="202.45">.</text>
<text x="273.33" y="45.59">.</text>
<text x="260.22" y="181.17">+</text>
<text x="303.90" y="52.80">.</text>
<text x="482.28" y="4.22">.</text>
<text x="305.93" y="372.24">.</text>
<text x="69.42" y="15.38">+</text>
<text x="17.40" y="364.99">+</text>
<text x="97.19" y="164.15">+</text>
<text x="448.64" y="160.80">.</text>
<text x="325.21" y="345.05">+</text>
<text x="160.55" y="330.01">.</text>
<text x="170.09" y="353.57">+</text>
<text x="165.43" y="19.89">+</text>
<text x="337.25" y="96.41">+</text>
<text x="236.34" y="341.69">*</text>
<text x="329.30" y="181.04">.</text>
<text x="440.46" y="465.24">.</text>
<text x="304.57" y="380.23">+</text>
<text x="253.90" y="128.86">.</text>
<text x="411.35" y="303.53">+</text>
<text x="262.03" y="324.27">+</text>
<text x="17.35" y="13.59">.</text>
<text x="78.90" y="273.08">*</text>
<text x="26.14" y="156.62">+</text>
<text x="322.90" y="462.01">+</text>
<text x="137.88" y="263.29">.</text>
<text x="199.97" y="198.13">.</text>
<text x="326.64" y="273.48">+</text>
<text x="251.30" y="385.88">.</text>
<text x="488.44" y="72.09">.</text>
<text x="200.23" y="92.96">.</text>
<text x="14.71" y="293.32">+</text>
<text x="485.00" y="321.94">+</text>
<text x="219.37" y="120.79">+</text>
<text x="73.57" y="272.71">+</text>
<text x="171.07" y="172.59">.</text>
<text x="169.95" y="171.59">+</text>
<text x="45.59" y="125.57">.</text>
<text x="320.89" y="195.23">.</text>
<text x="50.88" y="87.26">.</text>
<text x="153.62" y="258.01">+</text>
<text x="289.61" y="345.55">+</text>
<text x="417.23" y="229.84">*</text>
<text x="388.48" y="202.17">+</text>
<text x="400.68" y="367.57">.</text>
<text x="282.58" y="454.12">+</text>
<text x="149.22" y="123.81">+</text>
<text x="143.33" y="98.25">+</text>
<text x="54.97" y="484.97">+</text>
<text x="266.30" y="185.03">+</text>
<text x="489.33" y="134.93">+</text>
<text x="102.77" y="50.85">.</text>
<text x="219.95" y="155.68">.</text>
<text x="277.08" y="301.04">+</text>
<text x="113.66" y="245.08">.</text>
<text x="286.42" y="166.25">*</text>
<text x="428.13" y="392.32">*</text>
<text x="51.83" y="77.45">+</text>
<text x="194.39" y="192.16">*</text>
<text x="358.76" y="416.65">.</text>
<text x="400.14" y="350.19">+</text>
<text x="345.10" y="229.01">+</text>
<text x="8.48" y="353.04">+</text>
<text x="411.19" y="141.78">*</text>
<text x="268.34" y="85.71">.</text>
<text x="188.88" y="457.85">+</text>
<text x="188.75" y="154.66">+</text>
<text x="435.83" y="57.19">.</text>
<text x="281.38" y="135.45">+</text>
<text x="250.11" y="307.52">+</text>
<text x="58.07" y="385.12">+</text>
<text x="433.57" y="178.64">.</text>
<text x="330.85" y="315.72">.</text>
<text x="299.30" y="363.38">.</text>
<text x="195.62" y="159.04">+</text>
<text x="87.00" y="268.37">*</text>
<text x="282.54" y="438.22">.</text>
<text x="368.98" y="486.11">+</text>
<text x="157.92" y="420.37">.</text>
<text x="150.74" y="214.89">+</text>
<text x="84.24" y="283.22">.</text>
<text x="333.54" y="117.41">.</text>
<text x="156.02" y="167.78">*</text>
<text x="466.32" y="426.58">+</text>
<text x="321.58" y="126.40">+</text>
<text x="411.31" y="378.85">+</text>
<text x="339.15" y="356.50">+</text>
<text x="211.05" y="214.82">+</text>
<text x="5.97" y="471.38">+</text>
<text x="228.30" y="185.98">.</text>
<text x="95.36" y="294.48">.</text>
<text x="140.16" y="318.32">+</text>
<text x="467.16" y="393.85">+</text>
<text x="82.92" y="186.81">+</text>
<text x="146.37" y="327.86">+</text>
<text x="162.95" y="363.96">*</text>
<text x="364.48" y="468.41">+</text>
<text x="88.08" y="145.20">+</text>
<text x="110.33" y="129.65">.</text>
<text x="123.90" y="483.00">.</text>
<text x="158.20" y="436.31">+</text>
<text x="364.76" y="133.38">+</text>
<text x="12.76" y="88.34">.</text>
<text x="193.57" y="103.93">.</text>
<text x="397.64" y="440.87">.</text>
<text x="316.80" y="22.56">+</text>
<text x="358.05" y="293.97">+</text>
<text x="7.23" y="41.09">*</text>
<text x="139.21" y="345.64">.</text>
<text x="158.20" y="339.68">.</text>
<text x="59.52" y="106.66">*</text>
<text x="314.69" y="236.73">.</text>
<text x="357.61" y="110.38">*</text>
<text x="276.21" y="451.07">.</text>
<text x="390.29" y="138.82">+</text>
<text x="297.11" y="385.78">+</text>
<text x="273.04" y="24.49">+</text>
<text x="393.96" y="124.58">+</text>
<text x="393.61" y="79.90">.</text>
<text x="493.05" y="198.22">*</text>
<text x="356.75" y="8.58">+</text>
<text x="137.07" y="128.12">*</text>

</svg>