
<svg viewBox="0 0 500 500" xmlns="http://www.w.org/2000/svg" width="100%" height="100%" style="background-color: #0a0a14; font-family: 'Courier New', Courier, monospace;">
    <style>
        text { fill: #aaa; font-size: 10px; text-anchor: middle; dominant-baseline: middle; }
    </style>
    <text x="472.37" y="483.41">+</text>
<text x="308.80" y="491.98">+</text>
<text x="204.86" y="171.00">*</text>
<text x="368.48" y="223.18">+</text>
<text x="177.35" y="191.05">+</text>
<text x="263.00" y="246.27">.</text>
<text x="181.31" y="18.63">.</text>
<text x="109.97" y="215.54">.</text>
<text x="112.32" y="359.50">+</text>
<text x="385.59" y="340.19">+</text>
<text x="38.38" y="130.02">+</text>
<text x="181.62" y="83.21">.</text>
<text x="218.16" y="144.91">.</text>
<text x="497.42" y="424.45">*</text>
<text x="360.05" y="387.93">*</text>
<text x="309.17" y="364.08">+</text>
<text x="377.19" y="141.64">.</text>
<text x="97.34" y="288.76">*</text>
<text x="120.44" y="386.06">*</text>
<text x="212.67" y="251.45">.</text>
<text x="121.65" y="418.44">.</text>
<text x="28.61" y="194.23">*</text>
<text x="220.19" y="373.76">+</text>
<text x="311.24" y="344.95">.</text>
<text x="460.53" y="344.51">+</text>
<text x="300.29" y="452.12">+</text>
<text x="64.97" y="394.24">.</text>
<text x="21.23" y="427.13">+</text>
<text x="309.43" y="267.77">.</text>
<text x="306.47" y="143.63">+</text>
<text x="65.44" y="51.60">+</text>
<text x="251.93" y="37.51">.</text>
<text x="401.40" y="359.19">*</text>
<text x="421.01" y="459.71">*</text>
<text x="64.85" y="182.34">.</text>
<text x="440.19" y="51.80">+</text>
<text x="331.21" y="144.22">.</text>
<text x="194.17" y="235.64">.</text>
<text x="218.37" y="411.49">+</text>
<text x="126.10" y="76.31">*</text>
<text x="205.91" y="32.85">.</text>
<text x="170.46" y="143.25">.</text>
<text x="438.42" y="338.27">+</text>
<text x="393.54" y="317.29">+</text>
<text x="194.59" y="432.08">+</text>
<text x="270.89" y="43.37">.</text>
<text x="220.40" y="336.56">*</text>
<text x="160.36" y="323.34">+</text>
<text x="383.67" y="325.99">+</text>
<text x="494.04" y="24.15">.</text>
<text x="242.36" y="383.67">.</text>
<text x="181.50" y="394.29">.</text>
<text x="119.30" y="30.86">.</text>
<text x="313.73" y="148.28">+</text>
<text x="432.77" y="445.65">.</text>
<text x="37.15" y="304.95">*</text>
<text x="475.18" y="370.39">.</text>
<text x="304.66" y="32.29">+</text>
<text x="458.69" y="255.51">.</text>
<text x="159.41" y="305.45">+</text>
<text x="110.16" y="291.27">*</text>
<text x="320.49" y="329.77">+</text>
<text x="122.25" y="31.98">+</text>
<text x="86.32" y="153.47">+</text>
<text x="67.38" y="353.42">.</text>
<text x="356.38" y="143.34">.</text>
<text x="271.39" y="303.27">.</text>
<text x="62.01" y="433.27">.</text>
<text x="20.96" y="362.76">*</text>
<text x="400.42" y="288.46">.</text>
<text x="49.42" y="125.22">*</text>
<text x="111.94" y="367.23">+</text>
<text x="444.21" y="429.71">+</text>
<text x="445.49" y="296.18">+</text>
<text x="270.05" y="189.70">.</text>
<text x="128.51" y="307.01">+</text>
<text x="497.82" y="220.87">.</text>
<text x="457.92" y="22.57">.</text>
<text x="234.34" y="459.98">+</text>
<text x="68.11" y="134.50">.</text>
<text x="132.53" y="495.37">.</text>
<text x="305.68" y="337.09">+</text>
<text x="122.51" y="9.21">+</text>
<text x="469.53" y="110.65">+</text>
<text x="395.96" y="196.52">+</text>
<text x="148.24" y="433.01">+</text>
<text x="371.83" y="139.29">+</text>
<text x="325.56" y="49.43">.</text>
<text x="294.02" y="29.86">+</text>
<text x="292.72" y="27.60">.</text>
<text x="96.32" y="38.11">.</text>
<text x="1.36" y="124.75">.</text>
<text x="238.08" y="14.98">.</text>
<text x="479.39" y="314.88">.</text>
<text x="283.70" y="426.35">+</text>
<text x="410.96" y="330.58">+</text>
<text x="293.44" y="270.06">*</text>
<text x="275.10" y="121.98">+</text>
<text x="96.57" y="187.44">*</text>
<text x="234.14" y="1.64">+</text>
<text x="199.13" y="336.28">+</text>
<text x="128.23" y="227.84">+</text>
<text x="372.23" y="3.86">*</text>
<text x="188.43" y="325.01">.</text>
<text x="302.02" y="204.99">+</text>
<text x="481.52" y="220.70">+</text>
<text x="187.24" y="438.07">.</text>
<text x="455.97" y="92.70">+</text>
<text x="488.19" y="446.34">+</text>
<text x="76.06" y="420.89">+</text>
<text x="16.06" y="305.90">.</text>
<text x="351.36" y="234.74">.</text>
<text x="356.36" y="292.87">.</text>
<text x="227.36" y="458.63">.</text>
<text x="306.64" y="490.89">.</text>
<text x="493.28" y="12.90">.</text>
<text x="211.28" y="392.07">.</text>
<text x="396.68" y="342.14">+</text>
<text x="62.55" y="441.85">+</text>
<text x="204.22" y="400.97">+</text>
<text x="373.42" y="364.45">*</text>
<text x="412.09" y="415.28">.</text>
<text x="186.93" y="235.43">.</text>
<text x="282.68" y="459.01">.</text>
<text x="277.24" y="218.57">+</text>
<text x="120.24" y="434.54">*</text>
<text x="98.99" y="228.11">+</text>
<text x="285.40" y="326.84">+</text>
<text x="351.14" y="180.11">.</text>
<text x="177.66" y="3.72">+</text>
<text x="371.78" y="254.72">+</text>
<text x="65.92" y="150.38">.</text>
<text x="109.97" y="380.20">.</text>
<text x="442.07" y="271.34">*</text>
<text x="355.78" y="273.68">+</text>
<text x="135.57" y="224.73">+</text>
<text x="193.46" y="209.34">+</text>
<text x="346.07" y="88.43">.</text>
<text x="276.24" y="354.54">+</text>
<text x="131.14" y="458.96">+</text>
<text x="9.13" y="243.12">.</text>
<text x="368.72" y="259.57">+</text>
<text x="456.11" y="378.13">*</text>
<text x="124.68" y="482.41">+</text>
<text x="44.53" y="256.92">*</text>
<text x="197.03" y="161.45">.</text>
<text x="384.65" y="438.52">+</text>
<text x="394.34" y="81.27">+</text>
<text x="215.40" y="159.05">+</text>
<text x="174.15" y="123.61">*</text>
<text x="11.26" y="252.48">+</text>
<text x="12.11" y="134.63">+</text>
<text x="91.00" y="63.25">+</text>
<text x="67.62" y="30.57">+</text>
<text x="229.79" y="296.79">.</text>
<text x="344.21" y="293.71">.</text>
<text x="458.40" y="384.43">.</text>
<text x="494.85" y="412.60">+</text>
<text x="332.48" y="280.90">+</text>
<text x="49.93" y="498.71">.</text>
<text x="435.82" y="147.34">.</text>
<text x="455.06" y="224.02">.</text>
<text x="371.38" y="379.59">*</text>
<text x="190.82" y="103.28">.</text>
<text x="488.57" y="73.88">*</text>
<text x="83.58" y="341.99">+</text>
<text x="223.78" y="200.25">*</text>
<text x="380.97" y="480.74">*</text>
<text x="468.68" y="146.05">+</text>
<text x="382.22" y="307.13">*</text>
<text x="496.62" y="199.55">+</text>
<text x="419.59" y="182.78">+</text>
<text x="220.98" y="381.91">+</text>
<text x="86.80" y="324.17">.</text>
<text x="116.79" y="72.98">+</text>
<text x="76.94" y="493.36">+</text>
<text x="370.27" y="309.00">+</text>
<text x="420.38" y="30.87">+</text>
<text x="241.98" y="428.11">+</text>
<text x="158.79" y="381.42">*</text>
<text x="339.65" y="7.57">+</text>
<text x="319.11" y="113.95">+</text>
<text x="267.75" y="236.48">.</text>
<text x="226.21" y="275.79">+</text>
<text x="25.64" y="161.34">*</text>
<text x="404.03" y="166.54">.</text>
<text x="57.99" y="93.02">+</text>
<text x="160.00" y="224.17">.</text>
<text x="95.78" y="103.42">+</text>
<text x="390.79" y="206.00">+</text>
<text x="472.96" y="292.79">.</text>
<text x="165.36" y="124.54">+</text>
<text x="390.38" y="404.04">.</text>
<text x="208.28" y="53.66">.</text>
<text x="219.05" y="91.46">+</text>
<text x="356.01" y="483.89">+</text>
<text x="323.46" y="373.16">+</text>
<text x="368.05" y="46.88">.</text>
<text x="377.05" y="382.50">.</text>
<text x="133.95" y="220.96">.</text>
<text x="115.90" y="364.14">.</text>
<text x="388.38" y="127.37">.</text>
<text x="189.87" y="154.02">.</text>
<text x="250.20" y="245.19">.</text>

</svg>