
<svg viewBox="0 0 500 500" xmlns="http://www.w.org/2000/svg" width="100%" height="100%" style="background-color: #0a0a14; font-family: 'Courier New', Courier, monospace;">
    <style>
        text { fill: #aaa; font-size: 10px; text-anchor: middle; dominant-baseline: middle; }
    </style>
    <text x="189.37" y="354.02">+</text>
<text x="129.94" y="68.09">.</text>
<text x="264.76" y="403.23">.</text>
<text x="321.20" y="464.15">+</text>
<text x="460.24" y="359.06">+</text>
<text x="282.00" y="169.76">+</text>
<text x="31.66" y="265.70">+</text>
<text x="378.95" y="258.35">.</text>
<text x="368.98" y="32.24">+</text>
<text x="182.71" y="370.32">.</text>
<text x="346.94" y="484.57">.</text>
<text x="60.04" y="172.34">.</text>
<text x="270.12" y="337.71">.</text>
<text x="369.71" y="444.94">.</text>
<text x="182.04" y="27.01">*</text>
<text x="268.10" y="26.90">.</text>
<text x="266.55" y="384.44">+</text>
<text x="370.86" y="345.14">+</text>
<text x="302.43" y="468.83">*</text>
<text x="230.93" y="383.71">.</text>
<text x="237.40" y="385.96">+</text>
<text x="371.97" y="58.14">*</text>
<text x="219.48" y="312.86">+</text>
<text x="373.68" y="32.37">.</text>
<text x="78.04" y="92.84">.</text>
<text x="204.18" y="268.01">+</text>
<text x="230.51" y="323.66">.</text>
<text x="59.90" y="309.97">.</text>
<text x="116.28" y="123.53">.</text>
<text x="113.50" y="351.16">+</text>
<text x="323.55" y="257.91">+</text>
<text x="43.04" y="78.43">.</text>
<text x="253.40" y="296.63">.</text>
<text x="333.44" y="145.85">.</text>
<text x="152.45" y="372.65">.</text>
<text x="299.16" y="207.17">+</text>
<text x="62.23" y="293.51">+</text>
<text x="64.69" y="239.28">+</text>
<text x="84.11" y="328.96">+</text>
<text x="170.42" y="153.78">+</text>
<text x="298.54" y="255.42">+</text>
<text x="215.08" y="445.88">.</text>
<text x="54.47" y="459.37">.</text>
<text x="320.64" y="375.63">+</text>
<text x="60.84" y="409.07">.</text>
<text x="174.34" y="96.75">.</text>
<text x="391.44" y="202.18">+</text>
<text x="141.12" y="156.04">.</text>
<text x="158.44" y="162.57">+</text>
<text x="407.11" y="92.21">.</text>
<text x="70.24" y="321.68">+</text>
<text x="150.41" y="443.78">+</text>
<text x="306.80" y="465.82">.</text>
<text x="69.74" y="79.90">+</text>
<text x="438.28" y="441.44">+</text>
<text x="497.73" y="482.34">.</text>
<text x="53.55" y="59.34">.</text>
<text x="64.27" y="206.28">.</text>
<text x="159.25" y="198.29">+</text>
<text x="2.21" y="135.13">+</text>
<text x="235.61" y="83.07">+</text>
<text x="306.48" y="259.95">.</text>
<text x="279.22" y="59.50">+</text>
<text x="14.06" y="237.36">+</text>
<text x="231.44" y="133.41">+</text>
<text x="238.67" y="320.02">.</text>
<text x="426.80" y="197.16">.</text>
<text x="156.99" y="394.30">.</text>
<text x="256.87" y="325.19">+</text>
<text x="95.20" y="297.47">.</text>
<text x="352.46" y="360.85">.</text>
<text x="381.18" y="417.41">*</text>
<text x="54.41" y="29.58">+</text>
<text x="416.60" y="24.49">*</text>
<text x="453.13" y="341.99">+</text>
<text x="93.75" y="71.39">+</text>
<text x="349.40" y="466.32">+</text>
<text x="494.55" y="318.91">+</text>
<text x="223.77" y="289.12">*</text>
<text x="494.41" y="364.80">+</text>
<text x="148.01" y="132.44">+</text>
<text x="140.78" y="281.20">+</text>
<text x="396.67" y="130.76">+</text>
<text x="261.24" y="275.91">+</text>
<text x="355.20" y="263.23">+</text>
<text x="224.37" y="440.21">+</text>
<text x="391.91" y="360.83">.</text>
<text x="289.43" y="38.12">+</text>
<text x="491.66" y="9.94">+</text>
<text x="117.73" y="373.61">.</text>
<text x="114.84" y="103.87">.</text>
<text x="155.76" y="407.41">+</text>
<text x="74.90" y="347.42">+</text>
<text x="416.11" y="364.76">.</text>
<text x="233.39" y="319.00">.</text>
<text x="126.03" y="211.86">.</text>
<text x="68.98" y="197.48">.</text>
<text x="284.66" y="342.08">+</text>
<text x="359.12" y="393.80">.</text>
<text x="11.50" y="157.60">.</text>
<text x="72.12" y="475.47">*</text>
<text x="372.40" y="12.22">.</text>
<text x="56.21" y="215.54">.</text>
<text x="31.77" y="388.45">.</text>
<text x="474.63" y="424.99">+</text>
<text x="332.49" y="330.94">.</text>
<text x="415.61" y="1.27">*</text>
<text x="203.16" y="120.83">+</text>
<text x="430.55" y="422.04">+</text>
<text x="188.20" y="159.47">*</text>
<text x="192.67" y="44.25">+</text>
<text x="403.22" y="100.00">+</text>
<text x="150.95" y="310.60">+</text>
<text x="450.94" y="438.05">*</text>
<text x="338.26" y="144.02">*</text>
<text x="273.04" y="232.45">+</text>
<text x="393.43" y="344.54">.</text>
<text x="36.30" y="265.02">+</text>
<text x="124.13" y="225.72">.</text>
<text x="190.58" y="421.86">+</text>
<text x="154.88" y="289.98">.</text>
<text x="312.21" y="119.97">.</text>
<text x="281.52" y="142.40">.</text>
<text x="388.69" y="81.69">+</text>
<text x="175.87" y="262.75">+</text>
<text x="495.67" y="345.31">+</text>
<text x="117.97" y="176.36">+</text>
<text x="26.56" y="278.31">.</text>
<text x="46.79" y="171.78">.</text>
<text x="189.82" y="43.32">+</text>
<text x="294.73" y="21.42">*</text>
<text x="141.65" y="10.70">.</text>
<text x="29.18" y="225.48">.</text>
<text x="137.17" y="24.40">*</text>
<text x="42.75" y="491.01">+</text>
<text x="222.80" y="245.64">+</text>
<text x="274.97" y="81.08">.</text>
<text x="118.85" y="40.97">.</text>
<text x="280.21" y="106.51">+</text>
<text x="314.68" y="481.68">+</text>
<text x="414.86" y="372.52">.</text>
<text x="478.18" y="261.90">+</text>
<text x="139.90" y="70.13">+</text>
<text x="250.03" y="232.75">.</text>
<text x="323.01" y="417.46">+</text>
<text x="352.90" y="107.02">.</text>
<text x="309.45" y="146.98">.</text>
<text x="128.19" y="147.09">+</text>
<text x="330.45" y="296.90">.</text>
<text x="252.11" y="175.55">.</text>
<text x="256.62" y="322.31">+</text>
<text x="225.12" y="294.01">+</text>
<text x="380.89" y="182.76">+</text>
<text x="376.50" y="325.76">+</text>
<text x="44.69" y="116.23">.</text>
<text x="3.99" y="149.27">+</text>
<text x="194.73" y="74.66">+</text>
<text x="120.32" y="305.94">.</text>
<text x="202.99" y="182.04">*</text>
<text x="355.79" y="247.56">+</text>
<text x="422.74" y="215.77">+</text>
<text x="280.47" y="298.46">+</text>
<text x="486.73" y="161.64">*</text>
<text x="110.32" y="72.17">*</text>
<text x="3.50" y="401.49">+</text>
<text x="457.45" y="404.34">*</text>
<text x="298.93" y="186.55">+</text>
<text x="371.79" y="55.15">+</text>
<text x="328.37" y="446.77">.</text>
<text x="55.08" y="330.58">.</text>
<text x="377.20" y="152.34">.</text>
<text x="9.92" y="228.27">+</text>
<text x="102.89" y="140.57">.</text>
<text x="167.62" y="362.72">.</text>
<text x="412.78" y="99.88">.</text>
<text x="63.63" y="113.77">*</text>
<text x="396.32" y="371.15">.</text>
<text x="33.79" y="464.23">.</text>
<text x="189.11" y="168.84">+</text>
<text x="491.65" y="386.59">.</text>
<text x="429.56" y="115.43">*</text>
<text x="91.20" y="447.90">+</text>
<text x="299.62" y="314.05">+</text>
<text x="269.43" y="182.16">*</text>
<text x="183.65" y="130.95">+</text>
<text x="196.33" y="374.34">.</text>
<text x="284.44" y="296.90">.</text>
<text x="154.83" y="34.96">.</text>
<text x="447.80" y="359.17">.</text>
<text x="480.70" y="148.26">+</text>
<text x="489.13" y="413.60">*</text>
<text x="173.80" y="14.12">.</text>
<text x="419.13" y="310.14">.</text>
<text x="36.18" y="287.80">.</text>
<text x="199.86" y="350.30">.</text>
<text x="445.96" y="62.78">.</text>
<text x="314.93" y="149.52">.</text>
<text x="36.18" y="53.21">*</text>
<text x="19.63" y="300.68">.</text>
<text x="6.93" y="317.96">.</text>
<text x="440.91" y="68.02">+</text>
<text x="209.50" y="230.82">+</text>
<text x="452.23" y="274.94">*</text>
<text x="350.44" y="479.18">.</text>
<text x="74.41" y="348.58">.</text>
<text x="122.87" y="178.40">+</text>
<text x="297.25" y="101.55">+</text>
<text x="125.49" y="344.37">+</text>
<text x="453.83" y="419.59">+</text>
<text x="176.03" y="8.91">.</text>
<text x="226.49" y="32.58">.</text>
<text x="388.94" y="368.71">.</text>
<text x="91.17" y="351.35">+</text>
<text x="486.54" y="121.16">+</text>
<text x="423.83" y="336.83">.</text>
<text x="58.66" y="217.86">+</text>
<text x="139.12" y="392.62">*</text>
<text x="236.32" y="481.12">.</text>
<text x="124.55" y="184.64">.</text>
<text x="400.48" y="340.35">+</text>
<text x="299.04" y="62.32">.</text>
<text x="143.28" y="301.24">+</text>
<text x="375.11" y="269.88">+</text>
<text x="305.31" y="358.96">.</text>
<text x="477.18" y="285.42">.</text>
<text x="274.87" y="102.53">.</text>
<text x="26.84" y="372.30">+</text>
<text x="148.62" y="427.05">.</text>

</svg>