
<svg viewBox="0 0 500 500" xmlns="http://www.w.org/2000/svg" width="100%" height="100%" style="background-color: #0a0a14; font-family: 'Courier New', Courier, monospace;">
    <style>
        text { fill: #aaa; font-size: 10px; text-anchor: middle; dominant-baseline: middle; }
    </style>
    <text x="218.47" y="290.10">+</text>
<text x="212.34" y="360.34">.</text>
<text x="153.96" y="279.84">.</text>
<text x="379.71" y="489.52">+</text>
<text x="167.33" y="212.01">+</text>
<text x="493.76" y="373.60">.</text>
<text x="151.59" y="159.10">.</text>
<text x="85.49" y="277.04">+</text>
<text x="482.83" y="198.67">+</text>
<text x="214.07" y="74.64">+</text>
<text x="189.67" y="150.31">.</text>
<text x="51.85" y="378.96">.</text>
<text x="332.64" y="432.48">+</text>
<text x="406.07" y="388.89">*</text>
<text x="224.38" y="59.71">+</text>
<text x="435.88" y="91.70">.</text>
<text x="482.39" y="393.82">+</text>
<text x="60.59" y="457.66">.</text>
<text x="213.42" y="241.90">+</text>
<text x="155.00" y="22.33">.</text>
<text x="450.32" y="460.93">.</text>
<text x="361.75" y="300.96">.</text>
<text x="161.19" y="256.96">*</text>
<text x="52.59" y="237.55">+</text>
<text x="72.41" y="1.40">+</text>
<text x="158.16" y="465.89">+</text>
<text x="245.38" y="311.97">*</text>
<text x="103.58" y="340.77">*</text>
<text x="105.15" y="352.68">+</text>
<text x="425.41" y="234.96">+</text>
<text x="223.10" y="65.82">+</text>
<text x="41.09" y="255.13">+</text>
<text x="297.50" y="112.80">+</text>
<text x="366.34" y="298.97">+</text>
<text x="377.28" y="27.63">.</text>
<text x="270.97" y="127.01">.</text>
<text x="105.77" y="227.57">+</text>
<text x="303.12" y="344.31">.</text>
<text x="415.21" y="118.46">.</text>
<text x="465.97" y="464.74">.</text>
<text x="369.97" y="20.81">+</text>
<text x="376.05" y="448.81">.</text>
<text x="284.30" y="360.15">.</text>
<text x="427.49" y="475.09">.</text>
<text x="121.90" y="481.35">.</text>
<text x="52.17" y="98.77">.</text>
<text x="297.26" y="72.49">+</text>
<text x="7.46" y="451.47">+</text>
<text x="243.91" y="133.11">*</text>
<text x="179.72" y="146.05">.</text>
<text x="185.19" y="375.63">+</text>
<text x="144.23" y="153.95">.</text>
<text x="212.74" y="158.13">*</text>
<text x="471.26" y="462.90">.</text>
<text x="496.95" y="399.86">+</text>
<text x="78.97" y="35.68">*</text>
<text x="59.35" y="5.56">+</text>
<text x="267.53" y="143.83">.</text>
<text x="453.88" y="63.01">.</text>
<text x="147.87" y="99.63">.</text>
<text x="195.66" y="269.87">.</text>
<text x="52.16" y="231.22">.</text>
<text x="339.91" y="344.06">.</text>
<text x="89.95" y="497.39">+</text>
<text x="360.97" y="415.85">*</text>
<text x="301.83" y="82.45">.</text>
<text x="245.08" y="328.62">+</text>
<text x="208.37" y="475.24">.</text>
<text x="137.81" y="77.54">+</text>
<text x="251.30" y="99.61">*</text>
<text x="120.96" y="205.01">+</text>
<text x="323.50" y="136.72">.</text>
<text x="323.31" y="454.65">+</text>
<text x="454.14" y="339.71">+</text>
<text x="113.32" y="225.92">.</text>
<text x="180.80" y="391.48">.</text>
<text x="482.95" y="331.47">*</text>
<text x="229.61" y="86.32">+</text>
<text x="8.52" y="188.15">+</text>
<text x="12.73" y="230.46">.</text>
<text x="395.95" y="331.85">.</text>
<text x="20.89" y="445.81">+</text>
<text x="378.67" y="142.99">*</text>
<text x="265.36" y="425.60">+</text>
<text x="259.94" y="197.46">.</text>
<text x="32.22" y="250.94">+</text>
<text x="337.62" y="385.72">.</text>
<text x="249.17" y="186.06">.</text>
<text x="352.35" y="291.89">.</text>
<text x="455.42" y="284.45">+</text>
<text x="298.68" y="10.38">.</text>
<text x="216.24" y="390.53">.</text>
<text x="267.22" y="390.03">+</text>
<text x="425.93" y="82.75">+</text>
<text x="229.50" y="433.09">.</text>
<text x="252.70" y="54.35">.</text>
<text x="33.58" y="288.97">.</text>
<text x="244.50" y="382.59">*</text>
<text x="305.08" y="32.58">*</text>
<text x="16.04" y="46.94">.</text>
<text x="360.55" y="481.03">+</text>
<text x="103.15" y="457.31">.</text>
<text x="230.46" y="308.61">+</text>
<text x="351.03" y="73.71">.</text>
<text x="338.05" y="418.15">+</text>
<text x="191.56" y="406.70">*</text>
<text x="330.57" y="450.12">.</text>
<text x="254.03" y="316.87">.</text>
<text x="489.78" y="487.36">+</text>
<text x="399.55" y="228.99">+</text>
<text x="111.96" y="31.26">*</text>
<text x="442.95" y="407.01">+</text>
<text x="142.04" y="258.00">.</text>
<text x="495.36" y="304.86">.</text>
<text x="26.97" y="411.96">*</text>
<text x="80.28" y="325.20">+</text>
<text x="115.29" y="182.35">.</text>
<text x="240.14" y="117.68">.</text>
<text x="167.25" y="473.01">+</text>
<text x="63.12" y="172.08">*</text>
<text x="318.94" y="254.09">+</text>
<text x="229.69" y="70.50">+</text>
<text x="185.80" y="427.24">*</text>
<text x="316.69" y="462.74">+</text>
<text x="414.16" y="424.45">+</text>
<text x="276.49" y="256.60">.</text>
<text x="444.03" y="357.50">.</text>
<text x="450.89" y="450.93">.</text>
<text x="374.71" y="486.66">+</text>
<text x="150.63" y="346.14">+</text>
<text x="493.22" y="105.05">.</text>
<text x="126.01" y="79.06">.</text>
<text x="489.96" y="16.24">+</text>
<text x="277.52" y="165.01">+</text>
<text x="265.58" y="150.92">*</text>
<text x="413.57" y="154.43">+</text>
<text x="197.11" y="389.09">+</text>
<text x="327.17" y="376.77">*</text>
<text x="255.31" y="423.80">.</text>
<text x="435.78" y="220.15">+</text>
<text x="406.49" y="296.33">+</text>
<text x="146.02" y="11.39">+</text>
<text x="42.30" y="494.58">.</text>
<text x="431.75" y="60.22">+</text>
<text x="343.42" y="60.26">+</text>
<text x="112.10" y="466.80">*</text>
<text x="344.16" y="486.86">+</text>
<text x="270.67" y="398.56">.</text>
<text x="312.67" y="420.41">+</text>
<text x="135.67" y="315.01">.</text>
<text x="261.89" y="298.90">+</text>
<text x="478.44" y="220.36">.</text>
<text x="308.85" y="178.87">+</text>
<text x="69.05" y="427.04">+</text>
<text x="316.26" y="458.14">+</text>
<text x="40.73" y="166.66">.</text>
<text x="343.97" y="406.93">+</text>
<text x="278.37" y="306.95">.</text>
<text x="316.16" y="478.85">+</text>
<text x="432.88" y="116.02">.</text>
<text x="370.40" y="439.89">*</text>
<text x="343.59" y="293.59">.</text>
<text x="49.65" y="190.27">*</text>
<text x="457.03" y="343.02">*</text>
<text x="98.96" y="490.36">*</text>
<text x="358.41" y="187.85">+</text>
<text x="496.57" y="48.70">+</text>
<text x="329.82" y="132.99">.</text>
<text x="284.96" y="453.90">.</text>
<text x="343.03" y="208.46">+</text>
<text x="268.11" y="230.80">.</text>
<text x="474.19" y="471.77">*</text>
<text x="466.96" y="400.64">+</text>
<text x="88.70" y="381.28">+</text>
<text x="9.95" y="299.24">+</text>
<text x="320.71" y="330.61">+</text>
<text x="354.36" y="496.76">+</text>
<text x="166.38" y="29.12">+</text>
<text x="301.64" y="67.28">.</text>
<text x="59.73" y="158.80">+</text>
<text x="228.10" y="194.99">.</text>
<text x="169.57" y="31.68">+</text>
<text x="454.57" y="345.29">+</text>
<text x="7.26" y="77.51">.</text>
<text x="168.77" y="185.97">.</text>
<text x="286.27" y="236.65">+</text>
<text x="432.62" y="132.07">*</text>
<text x="433.84" y="90.42">+</text>
<text x="493.66" y="301.50">+</text>
<text x="360.40" y="430.14">+</text>
<text x="398.59" y="174.33">*</text>
<text x="404.74" y="216.06">.</text>
<text x="18.69" y="397.59">+</text>
<text x="205.08" y="483.36">+</text>
<text x="282.36" y="273.76">.</text>
<text x="125.59" y="207.84">+</text>
<text x="337.31" y="373.55">+</text>
<text x="116.61" y="192.25">+</text>
<text x="408.91" y="211.31">*</text>
<text x="101.24" y="483.76">.</text>
<text x="399.35" y="394.19">.</text>
<text x="53.60" y="281.08">.</text>
<text x="381.37" y="211.32">+</text>
<text x="446.99" y="96.50">+</text>
<text x="440.77" y="70.74">.</text>
<text x="385.96" y="87.09">+</text>
<text x="279.46" y="60.38">.</text>
<text x="199.73" y="294.92">.</text>
<text x="66.08" y="140.18">+</text>

</svg>