
<svg viewBox="0 0 500 500" xmlns="http://www.w.org/2000/svg" width="100%" height="100%" style="background-color: #0a0a14; font-family: 'Courier New', Courier, monospace;">
    <style>
        text { fill: #aaa; font-size: 10px; text-anchor: middle; dominant-baseline: middle; }
    </style>
    <text x="67.01" y="351.61">+</text>
<text x="179.76" y="372.15">.</text>
<text x="208.43" y="487.29">*</text>
<text x="416.03" y="247.50">*</text>
<text x="16.01" y="174.33">+</text>
<text x="395.83" y="140.71">+</text>
<text x="112.21" y="359.04">.</text>
<text x="198.62" y="197.13">*</text>
<text x="60.58" y="182.47">+</text>
<text x="404.08" y="332.38">.</text>
<text x="36.07" y="56.10">.</text>
<text x="450.09" y="322.82">+</text>
<text x="337.66" y="255.42">*</text>
<text x="173.16" y="347.98">+</text>
<text x="376.51" y="192.77">+</text>
<text x="430.35" y="170.46">.</text>
<text x="409.80" y="71.74">+</text>
<text x="21.14" y="402.68">.</text>
<text x="93.07" y="419.69">+</text>
<text x="60.95" y="194.40">*</text>
<text x="288.99" y="280.01">+</text>
<text x="15.17" y="25.70">*</text>
<text x="481.02" y="293.89">.</text>
<text x="57.74" y="69.85">.</text>
<text x="144.72" y="162.35">.</text>
<text x="121.93" y="74.25">+</text>
<text x="266.17" y="418.69">.</text>
<text x="265.39" y="409.05">.</text>
<text x="379.37" y="147.22">+</text>
<text x="316.17" y="9.12">.</text>
<text x="459.35" y="314.77">+</text>
<text x="400.01" y="354.04">.</text>
<text x="404.73" y="382.79">+</text>
<text x="233.68" y="385.20">.</text>
<text x="330.25" y="225.18">+</text>
<text x="492.09" y="432.57">*</text>
<text x="422.43" y="391.22">.</text>
<text x="344.24" y="437.02">*</text>
<text x="381.24" y="184.84">+</text>
<text x="307.27" y="145.37">.</text>
<text x="219.74" y="436.80">.</text>
<text x="93.05" y="313.18">+</text>
<text x="178.17" y="335.74">*</text>
<text x="221.35" y="314.10">+</text>
<text x="223.08" y="441.16">+</text>
<text x="126.56" y="49.46">.</text>
<text x="382.09" y="163.54">+</text>
<text x="331.11" y="123.45">.</text>
<text x="22.64" y="3.86">*</text>
<text x="174.77" y="447.53">.</text>
<text x="53.01" y="74.95">+</text>
<text x="292.88" y="189.29">*</text>
<text x="134.57" y="346.08">.</text>
<text x="35.63" y="0.37">*</text>
<text x="484.22" y="431.70">.</text>
<text x="303.92" y="351.71">.</text>
<text x="143.39" y="114.50">*</text>
<text x="399.89" y="350.56">.</text>
<text x="37.71" y="471.83">+</text>
<text x="429.38" y="478.18">*</text>
<text x="249.96" y="97.87">.</text>
<text x="499.19" y="451.68">.</text>
<text x="407.32" y="215.19">+</text>
<text x="461.96" y="171.81">.</text>
<text x="382.20" y="286.62">*</text>
<text x="104.66" y="10.84">.</text>
<text x="318.03" y="311.85">+</text>
<text x="327.16" y="302.67">.</text>
<text x="245.61" y="459.20">+</text>
<text x="155.94" y="430.02">+</text>
<text x="469.09" y="289.69">.</text>
<text x="468.16" y="430.60">+</text>
<text x="377.84" y="8.91">+</text>
<text x="117.22" y="195.79">+</text>
<text x="125.92" y="217.13">.</text>
<text x="166.07" y="117.90">.</text>
<text x="314.30" y="90.26">+</text>
<text x="140.22" y="386.71">.</text>
<text x="40.60" y="255.40">*</text>
<text x="294.32" y="214.81">.</text>
<text x="412.58" y="492.58">+</text>
<text x="341.95" y="20.62">.</text>
<text x="216.11" y="473.61">.</text>
<text x="391.25" y="142.10">*</text>
<text x="119.23" y="408.12">*</text>
<text x="227.11" y="411.01">.</text>
<text x="249.08" y="104.88">*</text>
<text x="249.40" y="414.14">+</text>
<text x="331.06" y="0.31">+</text>
<text x="393.39" y="291.13">+</text>
<text x="181.19" y="132.39">.</text>
<text x="40.36" y="229.83">+</text>
<text x="457.49" y="36.75">+</text>
<text x="301.82" y="245.47">*</text>
<text x="314.72" y="347.05">+</text>
<text x="351.41" y="55.12">.</text>
<text x="448.22" y="494.85">*</text>
<text x="294.05" y="465.18">.</text>
<text x="166.02" y="199.39">.</text>
<text x="422.15" y="240.42">+</text>
<text x="167.58" y="291.29">.</text>
<text x="236.09" y="442.99">.</text>
<text x="159.94" y="461.04">+</text>
<text x="296.35" y="93.32">.</text>
<text x="177.91" y="354.00">.</text>
<text x="384.57" y="55.28">.</text>
<text x="128.74" y="359.44">*</text>
<text x="28.25" y="422.43">.</text>
<text x="373.95" y="39.84">+</text>
<text x="470.38" y="409.56">.</text>
<text x="195.63" y="89.26">+</text>
<text x="441.82" y="328.64">+</text>
<text x="185.29" y="437.75">*</text>
<text x="130.92" y="91.47">+</text>
<text x="37.42" y="355.24">+</text>
<text x="375.47" y="420.14">+</text>
<text x="193.60" y="397.31">.</text>
<text x="249.75" y="423.49">+</text>
<text x="414.27" y="127.42">+</text>
<text x="85.24" y="417.68">.</text>
<text x="381.45" y="130.31">+</text>
<text x="423.59" y="204.17">.</text>
<text x="21.34" y="73.64">+</text>
<text x="157.72" y="277.72">.</text>
<text x="141.01" y="238.90">.</text>
<text x="17.27" y="218.37">+</text>
<text x="476.66" y="167.96">+</text>
<text x="252.12" y="37.41">*</text>
<text x="351.87" y="452.94">+</text>
<text x="280.92" y="304.09">+</text>
<text x="10.33" y="15.22">.</text>
<text x="456.61" y="6.52">*</text>
<text x="221.75" y="196.24">.</text>
<text x="435.79" y="77.17">+</text>
<text x="359.85" y="440.12">.</text>
<text x="47.92" y="319.49">.</text>
<text x="29.66" y="262.54">*</text>
<text x="420.72" y="129.10">.</text>
<text x="395.11" y="425.25">*</text>
<text x="215.87" y="462.43">*</text>
<text x="203.51" y="184.36">+</text>
<text x="134.43" y="310.43">+</text>
<text x="83.98" y="260.65">+</text>
<text x="387.18" y="180.22">.</text>
<text x="189.38" y="50.99">+</text>
<text x="150.59" y="281.30">.</text>
<text x="83.61" y="145.37">+</text>
<text x="278.36" y="477.11">*</text>
<text x="472.21" y="11.77">.</text>
<text x="217.23" y="244.85">*</text>
<text x="402.36" y="414.59">+</text>
<text x="341.23" y="63.90">+</text>
<text x="73.42" y="474.88">+</text>
<text x="453.64" y="0.27">.</text>
<text x="64.89" y="400.14">+</text>
<text x="110.20" y="90.60">*</text>
<text x="392.01" y="300.50">.</text>
<text x="316.99" y="402.30">*</text>
<text x="252.59" y="249.87">.</text>
<text x="3.92" y="165.34">+</text>
<text x="204.85" y="105.17">+</text>
<text x="243.33" y="64.22">+</text>
<text x="70.32" y="41.25">+</text>
<text x="191.06" y="159.14">+</text>
<text x="41.38" y="19.27">.</text>
<text x="364.16" y="263.52">.</text>
<text x="22.71" y="53.79">*</text>
<text x="406.57" y="252.24">+</text>
<text x="394.52" y="411.33">*</text>
<text x="258.70" y="50.88">+</text>
<text x="173.37" y="202.26">*</text>
<text x="191.49" y="234.93">*</text>
<text x="180.06" y="179.78">+</text>
<text x="259.44" y="440.09">*</text>
<text x="234.44" y="454.49">*</text>
<text x="353.21" y="276.25">*</text>
<text x="123.98" y="335.13">.</text>
<text x="258.72" y="50.81">.</text>
<text x="273.07" y="410.97">.</text>
<text x="136.33" y="278.60">+</text>
<text x="140.06" y="445.47">.</text>
<text x="389.23" y="17.45">+</text>
<text x="328.32" y="383.63">.</text>
<text x="12.39" y="281.86">.</text>
<text x="325.48" y="306.40">+</text>
<text x="10.09" y="44.05">.</text>
<text x="499.87" y="166.18">.</text>
<text x="242.30" y="126.23">+</text>
<text x="221.83" y="303.62">.</text>
<text x="127.32" y="326.58">*</text>
<text x="397.55" y="318.80">.</text>
<text x="294.85" y="274.92">+</text>
<text x="319.15" y="376.99">.</text>
<text x="98.74" y="328.26">+</text>
<text x="412.46" y="217.64">+</text>
<text x="306.01" y="431.32">.</text>
<text x="340.77" y="239.48">+</text>
<text x="263.18" y="230.75">.</text>
<text x="308.11" y="197.90">+</text>
<text x="265.03" y="246.90">.</text>
<text x="228.74" y="46.41">.</text>
<text x="283.83" y="348.99">+</text>
<text x="82.81" y="241.44">*</text>
<text x="193.46" y="28.60">+</text>
<text x="184.44" y="446.03">*</text>
<text x="56.07" y="373.17">+</text>
<text x="238.94" y="82.36">.</text>
<text x="264.43" y="455.61">.</text>
<text x="170.80" y="496.32">*</text>
<text x="357.41" y="254.75">+</text>
<text x="126.85" y="1.65">.</text>
<text x="8.40" y="76.26">.</text>
<text x="224.79" y="314.14">.</text>
<text x="3.43" y="144.48">.</text>
<text x="273.15" y="196.09">.</text>
<text x="39.49" y="152.77">+</text>
<text x="65.10" y="440.18">.</text>
<text x="49.40" y="400.80">*</text>
<text x="385.14" y="400.66">+</text>

</svg>