
<svg viewBox="0 0 500 500" xmlns="http://www.w.org/2000/svg" width="100%" height="100%" style="background-color: #0a0a14; font-family: 'Courier New', Courier, monospace;">
    <style>
        text { fill: #aaa; font-size: 10px; text-anchor: middle; dominant-baseline: middle; }
    </style>
    <text x="268.39" y="462.71">.</text>
<text x="475.32" y="476.70">.</text>
<text x="237.73" y="139.75">+</text>
<text x="327.86" y="60.24">+</text>
<text x="285.37" y="299.74">*</text>
<text x="103.35" y="50.14">.</text>
<text x="308.22" y="249.80">+</text>
<text x="278.53" y="459.40">.</text>
<text x="119.53" y="127.90">*</text>
<text x="391.68" y="37.15">+</text>
<text x="413.79" y="358.48">+</text>
<text x="220.19" y="216.23">.</text>
<text x="496.58" y="435.58">.</text>
<text x="107.07" y="222.45">+</text>
<text x="337.00" y="452.35">+</text>
<text x="38.74" y="497.87">.</text>
<text x="250.45" y="45.68">.</text>
<text x="165.77" y="451.27">+</text>
<text x="32.35" y="230.46">+</text>
<text x="450.08" y="482.55">.</text>
<text x="332.38" y="296.90">.</text>
<text x="343.90" y="206.73">*</text>
<text x="322.87" y="168.84">+</text>
<text x="47.97" y="35.43">.</text>
<text x="342.78" y="328.85">*</text>
<text x="400.96" y="233.56">.</text>
<text x="334.66" y="484.15">*</text>
<text x="150.73" y="245.74">.</text>
<text x="190.55" y="323.24">+</text>
<text x="322.74" y="266.56">+</text>
<text x="12.54" y="147.55">+</text>
<text x="334.71" y="212.75">.</text>
<text x="330.97" y="485.22">.</text>
<text x="346.06" y="262.58">+</text>
<text x="452.87" y="168.20">+</text>
<text x="458.85" y="457.98">+</text>
<text x="349.07" y="7.57">.</text>
<text x="82.36" y="136.24">+</text>
<text x="131.17" y="365.04">.</text>
<text x="408.57" y="499.76">+</text>
<text x="391.94" y="47.26">.</text>
<text x="104.26" y="322.86">.</text>
<text x="291.68" y="182.55">.</text>
<text x="254.94" y="161.90">.</text>
<text x="457.08" y="318.91">.</text>
<text x="91.51" y="117.34">*</text>
<text x="245.34" y="462.03">*</text>
<text x="463.95" y="484.59">.</text>
<text x="451.41" y="436.20">.</text>
<text x="57.45" y="300.24">*</text>
<text x="207.30" y="354.70">.</text>
<text x="343.85" y="332.75">+</text>
<text x="254.54" y="204.01">+</text>
<text x="180.28" y="454.60">.</text>
<text x="165.70" y="240.12">+</text>
<text x="256.78" y="421.07">+</text>
<text x="411.15" y="429.60">+</text>
<text x="53.80" y="91.54">+</text>
<text x="297.36" y="7.63">.</text>
<text x="325.77" y="122.09">.</text>
<text x="278.14" y="240.15">.</text>
<text x="17.14" y="447.68">.</text>
<text x="153.06" y="436.68">.</text>
<text x="370.59" y="201.69">.</text>
<text x="392.67" y="32.45">.</text>
<text x="411.93" y="87.79">+</text>
<text x="295.92" y="79.47">*</text>
<text x="114.58" y="466.35">*</text>
<text x="115.96" y="235.29">+</text>
<text x="163.96" y="258.34">+</text>
<text x="349.56" y="305.33">*</text>
<text x="368.90" y="355.33">.</text>
<text x="82.05" y="299.69">+</text>
<text x="230.03" y="162.49">.</text>
<text x="304.45" y="143.65">.</text>
<text x="56.95" y="241.38">+</text>
<text x="143.69" y="309.45">*</text>
<text x="414.65" y="317.49">.</text>
<text x="247.58" y="242.83">*</text>
<text x="106.48" y="181.52">+</text>
<text x="237.05" y="147.68">*</text>
<text x="113.19" y="106.76">+</text>
<text x="384.66" y="117.79">+</text>
<text x="37.12" y="499.31">.</text>
<text x="327.30" y="438.02">+</text>
<text x="254.73" y="194.56">.</text>
<text x="265.79" y="160.21">.</text>
<text x="262.42" y="392.08">.</text>
<text x="38.06" y="42.85">.</text>
<text x="441.38" y="6.15">+</text>
<text x="244.39" y="110.48">.</text>
<text x="101.22" y="65.79">.</text>
<text x="290.12" y="182.75">+</text>
<text x="430.69" y="164.44">.</text>
<text x="248.53" y="480.24">.</text>
<text x="72.77" y="487.28">.</text>
<text x="181.62" y="413.08">+</text>
<text x="255.12" y="39.31">.</text>
<text x="174.12" y="47.02">*</text>
<text x="412.36" y="58.79">.</text>
<text x="272.98" y="29.46">.</text>
<text x="333.01" y="404.54">+</text>
<text x="55.42" y="486.70">+</text>
<text x="420.89" y="219.70">.</text>
<text x="59.01" y="324.43">.</text>
<text x="238.19" y="43.00">.</text>
<text x="15.19" y="261.25">+</text>
<text x="229.15" y="345.99">.</text>
<text x="189.06" y="432.97">.</text>
<text x="420.62" y="170.66">+</text>
<text x="0.47" y="25.63">*</text>
<text x="358.55" y="496.09">.</text>
<text x="387.72" y="79.80">+</text>
<text x="107.19" y="207.02">.</text>
<text x="354.62" y="303.75">.</text>
<text x="302.08" y="147.83">.</text>
<text x="243.73" y="71.13">*</text>
<text x="337.68" y="416.69">.</text>
<text x="254.06" y="469.71">.</text>
<text x="463.67" y="109.30">*</text>
<text x="4.16" y="297.18">*</text>
<text x="345.36" y="188.36">.</text>
<text x="181.91" y="431.36">*</text>
<text x="228.72" y="150.23">.</text>
<text x="315.98" y="324.80">.</text>
<text x="128.48" y="151.03">.</text>
<text x="93.25" y="379.96">+</text>
<text x="29.78" y="291.99">+</text>
<text x="59.33" y="337.37">*</text>
<text x="164.03" y="143.93">.</text>
<text x="14.33" y="40.82">.</text>
<text x="387.35" y="284.20">*</text>
<text x="18.70" y="435.36">+</text>
<text x="27.18" y="231.08">.</text>
<text x="37.63" y="127.94">+</text>
<text x="109.46" y="1.72">+</text>
<text x="30.43" y="312.97">.</text>
<text x="328.40" y="187.91">.</text>
<text x="218.72" y="445.62">*</text>
<text x="409.20" y="381.09">.</text>
<text x="358.15" y="101.71">+</text>
<text x="143.58" y="37.25">+</text>
<text x="460.76" y="107.22">.</text>
<text x="330.79" y="62.89">+</text>
<text x="305.39" y="249.30">.</text>
<text x="483.10" y="147.68">+</text>
<text x="320.34" y="468.43">+</text>
<text x="187.67" y="336.99">+</text>
<text x="272.50" y="60.69">.</text>
<text x="114.16" y="59.08">.</text>
<text x="148.07" y="87.18">*</text>
<text x="20.83" y="293.36">.</text>
<text x="377.59" y="483.85">.</text>
<text x="466.20" y="234.69">+</text>
<text x="21.06" y="240.82">+</text>
<text x="203.60" y="244.18">+</text>
<text x="491.68" y="446.06">.</text>
<text x="313.68" y="408.30">+</text>
<text x="264.00" y="384.96">.</text>
<text x="33.29" y="87.01">+</text>
<text x="142.70" y="61.25">+</text>
<text x="363.22" y="55.64">*</text>
<text x="224.20" y="76.98">+</text>
<text x="264.03" y="191.38">.</text>
<text x="78.79" y="322.81">*</text>
<text x="326.72" y="153.01">+</text>
<text x="446.23" y="461.44">*</text>
<text x="17.27" y="137.48">+</text>
<text x="392.36" y="20.72">+</text>
<text x="474.03" y="66.73">+</text>
<text x="140.24" y="299.32">+</text>
<text x="113.32" y="163.61">.</text>
<text x="58.18" y="113.93">+</text>
<text x="26.24" y="167.22">.</text>
<text x="47.56" y="388.11">.</text>
<text x="13.80" y="18.71">+</text>
<text x="121.11" y="432.42">.</text>
<text x="124.61" y="153.61">.</text>
<text x="94.49" y="469.62">*</text>
<text x="399.28" y="376.92">+</text>
<text x="10.11" y="285.13">.</text>
<text x="277.42" y="170.49">.</text>
<text x="250.39" y="446.63">*</text>
<text x="214.89" y="433.93">+</text>
<text x="48.59" y="448.51">+</text>
<text x="29.43" y="103.82">.</text>
<text x="429.49" y="423.04">*</text>
<text x="436.21" y="480.15">.</text>
<text x="438.77" y="359.14">+</text>
<text x="334.77" y="313.31">+</text>
<text x="90.79" y="4.60">.</text>
<text x="107.11" y="262.55">+</text>
<text x="90.63" y="189.32">+</text>
<text x="40.09" y="12.01">+</text>
<text x="312.39" y="149.36">+</text>
<text x="161.35" y="179.96">*</text>
<text x="456.19" y="481.25">+</text>
<text x="40.27" y="118.30">+</text>
<text x="281.34" y="270.27">+</text>
<text x="194.96" y="483.81">+</text>
<text x="54.69" y="346.87">+</text>
<text x="341.88" y="461.09">+</text>
<text x="392.40" y="79.47">+</text>
<text x="243.63" y="341.65">*</text>
<text x="123.19" y="368.25">.</text>
<text x="437.02" y="115.89">.</text>
<text x="417.84" y="169.55">+</text>
<text x="230.51" y="338.94">.</text>
<text x="436.18" y="219.91">*</text>
<text x="462.11" y="124.58">.</text>
<text x="263.27" y="429.99">.</text>
<text x="432.39" y="5.27">+</text>
<text x="474.74" y="372.58">.</text>
<text x="118.73" y="81.75">.</text>
<text x="29.46" y="421.14">.</text>
<text x="267.04" y="299.72">.</text>

</svg>