
<svg viewBox="0 0 500 500" xmlns="http://www.w.org/2000/svg" width="100%" height="100%" style="background-color: #0a0a14; font-family: 'Courier New', Courier, monospace;">
    <style>
        text { fill: #aaa; font-size: 10px; text-anchor: middle; dominant-baseline: middle; }
    </style>
    <text x="466.40" y="383.82">+</text>
<text x="489.14" y="116.21">*</text>
<text x="153.93" y="244.79">+</text>
<text x="13.50" y="408.64">.</text>
<text x="392.25" y="60.86">.</text>
<text x="94.84" y="474.86">+</text>
<text x="51.47" y="318.86">*</text>
<text x="167.76" y="292.19">*</text>
<text x="92.17" y="100.83">.</text>
<text x="82.34" y="77.21">*</text>
<text x="231.62" y="274.78">.</text>
<text x="425.12" y="119.94">.</text>
<text x="171.60" y="92.27">.</text>
<text x="265.02" y="136.92">.</text>
<text x="408.37" y="393.57">.</text>
<text x="284.33" y="98.40">.</text>
<text x="353.64" y="408.37">+</text>
<text x="57.42" y="252.97">*</text>
<text x="105.21" y="346.75">*</text>
<text x="60.17" y="199.24">.</text>
<text x="5.36" y="416.55">+</text>
<text x="415.50" y="113.45">+</text>
<text x="477.65" y="27.43">.</text>
<text x="383.00" y="292.07">+</text>
<text x="275.87" y="213.31">.</text>
<text x="155.21" y="427.94">+</text>
<text x="65.51" y="267.21">*</text>
<text x="103.38" y="223.01">+</text>
<text x="258.73" y="109.14">+</text>
<text x="407.36" y="492.16">*</text>
<text x="276.88" y="287.81">*</text>
<text x="49.47" y="350.98">.</text>
<text x="451.11" y="302.68">.</text>
<text x="395.82" y="81.20">*</text>
<text x="249.30" y="18.47">.</text>
<text x="37.79" y="245.97">+</text>
<text x="194.93" y="311.03">+</text>
<text x="177.52" y="173.77">*</text>
<text x="331.23" y="41.77">.</text>
<text x="410.13" y="337.26">.</text>
<text x="124.90" y="27.65">*</text>
<text x="471.75" y="35.25">+</text>
<text x="307.42" y="26.74">+</text>
<text x="161.58" y="91.80">+</text>
<text x="72.31" y="11.47">+</text>
<text x="348.37" y="137.56">.</text>
<text x="18.04" y="176.16">+</text>
<text x="121.26" y="434.11">+</text>
<text x="204.95" y="277.89">.</text>
<text x="255.06" y="466.21">.</text>
<text x="85.45" y="421.75">+</text>
<text x="76.81" y="231.75">.</text>
<text x="360.29" y="100.10">.</text>
<text x="0.85" y="211.63">.</text>
<text x="292.67" y="128.70">+</text>
<text x="195.06" y="494.71">*</text>
<text x="125.79" y="267.56">*</text>
<text x="75.07" y="202.54">+</text>
<text x="155.33" y="410.52">+</text>
<text x="387.88" y="268.81">.</text>
<text x="440.85" y="165.94">.</text>
<text x="360.15" y="196.92">.</text>
<text x="465.17" y="387.00">*</text>
<text x="266.57" y="285.96">.</text>
<text x="13.54" y="135.97">*</text>
<text x="390.89" y="460.00">*</text>
<text x="452.36" y="222.28">*</text>
<text x="385.85" y="14.21">+</text>
<text x="110.57" y="387.56">.</text>
<text x="45.55" y="481.36">*</text>
<text x="134.53" y="448.29">.</text>
<text x="301.76" y="418.02">.</text>
<text x="258.13" y="337.72">*</text>
<text x="342.96" y="409.65">+</text>
<text x="40.96" y="478.56">.</text>
<text x="343.64" y="165.58">.</text>
<text x="154.53" y="361.10">+</text>
<text x="329.73" y="114.55">.</text>
<text x="282.96" y="42.55">.</text>
<text x="140.14" y="40.62">.</text>
<text x="220.67" y="341.93">*</text>
<text x="326.25" y="163.82">+</text>
<text x="252.03" y="338.24">+</text>
<text x="62.41" y="341.36">+</text>
<text x="494.44" y="465.37">.</text>
<text x="310.94" y="460.06">.</text>
<text x="36.13" y="467.19">+</text>
<text x="302.39" y="442.01">.</text>
<text x="211.55" y="123.09">+</text>
<text x="309.92" y="56.57">+</text>
<text x="470.77" y="210.25">.</text>
<text x="197.10" y="137.75">.</text>
<text x="330.08" y="242.93">.</text>
<text x="53.42" y="171.03">+</text>
<text x="43.17" y="285.15">*</text>
<text x="412.77" y="104.38">+</text>
<text x="419.96" y="74.90">.</text>
<text x="486.87" y="371.43">+</text>
<text x="144.24" y="367.75">.</text>
<text x="94.21" y="363.14">+</text>
<text x="121.51" y="160.97">+</text>
<text x="383.75" y="486.22">*</text>
<text x="20.44" y="31.35">+</text>
<text x="397.83" y="139.22">.</text>
<text x="312.58" y="129.87">.</text>
<text x="354.48" y="435.80">.</text>
<text x="193.36" y="103.62">.</text>
<text x="96.72" y="266.19">+</text>
<text x="115.37" y="347.92">+</text>
<text x="100.70" y="20.34">+</text>
<text x="433.48" y="88.13">.</text>
<text x="478.43" y="497.05">+</text>
<text x="112.88" y="32.23">.</text>
<text x="296.47" y="97.15">.</text>
<text x="354.88" y="322.43">.</text>
<text x="125.04" y="204.82">+</text>
<text x="204.07" y="304.75">+</text>
<text x="65.21" y="221.05">*</text>
<text x="295.29" y="164.76">.</text>
<text x="282.29" y="259.67">+</text>
<text x="66.43" y="340.35">*</text>
<text x="104.82" y="116.58">.</text>
<text x="178.07" y="127.23">+</text>
<text x="462.61" y="465.99">+</text>
<text x="285.66" y="181.88">+</text>
<text x="18.56" y="261.93">.</text>
<text x="197.47" y="18.96">+</text>
<text x="174.59" y="340.40">*</text>
<text x="108.67" y="405.16">+</text>
<text x="152.88" y="238.63">*</text>
<text x="285.40" y="339.75">+</text>
<text x="499.91" y="472.89">*</text>
<text x="188.97" y="480.37">.</text>
<text x="334.88" y="225.53">.</text>
<text x="43.84" y="324.18">.</text>
<text x="157.07" y="491.27">+</text>
<text x="320.42" y="371.23">+</text>
<text x="255.98" y="391.34">+</text>
<text x="428.26" y="208.94">+</text>
<text x="150.78" y="426.58">.</text>
<text x="120.28" y="333.25">.</text>
<text x="242.91" y="362.47">+</text>
<text x="252.12" y="47.68">+</text>
<text x="486.36" y="292.08">*</text>
<text x="222.06" y="190.76">+</text>
<text x="468.18" y="284.41">+</text>
<text x="375.47" y="429.87">+</text>
<text x="352.58" y="247.55">.</text>
<text x="3.24" y="22.48">+</text>
<text x="499.92" y="306.28">.</text>
<text x="58.52" y="286.72">+</text>
<text x="178.53" y="338.42">+</text>
<text x="16.19" y="36.71">.</text>
<text x="328.31" y="262.99">+</text>
<text x="83.61" y="280.86">+</text>
<text x="369.92" y="253.57">.</text>
<text x="225.17" y="179.46">.</text>
<text x="274.66" y="28.23">+</text>
<text x="34.73" y="23.50">.</text>
<text x="304.67" y="5.73">.</text>
<text x="349.41" y="95.71">.</text>
<text x="328.69" y="437.71">+</text>
<text x="258.60" y="6.02">.</text>
<text x="100.48" y="103.17">+</text>
<text x="157.75" y="10.33">.</text>
<text x="128.08" y="376.91">+</text>
<text x="343.35" y="360.73">+</text>
<text x="217.53" y="55.52">.</text>
<text x="487.68" y="167.48">*</text>
<text x="29.82" y="229.41">.</text>
<text x="220.58" y="434.92">.</text>
<text x="22.91" y="264.34">*</text>
<text x="42.97" y="76.01">.</text>
<text x="153.72" y="320.73">+</text>
<text x="468.28" y="142.39">+</text>
<text x="495.57" y="47.09">.</text>
<text x="260.44" y="161.78">.</text>
<text x="137.99" y="392.94">+</text>
<text x="492.17" y="236.13">+</text>
<text x="300.74" y="48.34">.</text>
<text x="428.46" y="461.39">+</text>
<text x="319.18" y="31.44">.</text>
<text x="348.86" y="90.30">*</text>
<text x="280.40" y="184.25">.</text>
<text x="3.71" y="169.91">.</text>
<text x="41.04" y="250.75">+</text>
<text x="68.35" y="230.50">*</text>
<text x="471.21" y="135.47">.</text>
<text x="300.33" y="443.86">+</text>
<text x="178.10" y="185.89">.</text>
<text x="434.21" y="349.21">*</text>
<text x="478.19" y="358.59">+</text>
<text x="64.92" y="188.76">.</text>
<text x="292.15" y="207.60">+</text>
<text x="382.52" y="333.41">+</text>
<text x="316.17" y="285.32">+</text>
<text x="398.46" y="144.67">*</text>
<text x="13.97" y="247.56">.</text>
<text x="165.43" y="233.47">.</text>
<text x="59.66" y="280.67">+</text>
<text x="216.37" y="445.12">.</text>
<text x="74.15" y="76.56">+</text>
<text x="80.13" y="49.82">+</text>
<text x="55.48" y="423.04">.</text>
<text x="41.48" y="159.88">.</text>
<text x="261.07" y="136.70">*</text>
<text x="98.54" y="8.89">.</text>
<text x="1.03" y="185.16">+</text>
<text x="290.95" y="56.75">.</text>
<text x="34.00" y="289.26">.</text>
<text x="181.07" y="228.92">.</text>
<text x="72.10" y="323.74">.</text>
<text x="99.11" y="466.60">.</text>
<text x="176.34" y="63.04">.</text>
<text x="329.91" y="472.18">+</text>
<text x="152.67" y="35.57">+</text>

</svg>