
<svg viewBox="0 0 500 500" xmlns="http://www.w.org/2000/svg" width="100%" height="100%" style="background-color: #0a0a14; font-family: 'Courier New', Courier, monospace;">
    <style>
        text { fill: #aaa; font-size: 10px; text-anchor: middle; dominant-baseline: middle; }
    </style>
    <text x="291.02" y="161.65">+</text>
<text x="475.19" y="412.41">+</text>
<text x="218.89" y="433.55">.</text>
<text x="219.08" y="59.15">.</text>
<text x="160.86" y="214.28">+</text>
<text x="111.14" y="126.18">+</text>
<text x="14.17" y="416.50">+</text>
<text x="362.68" y="165.31">+</text>
<text x="113.52" y="379.68">.</text>
<text x="84.38" y="428.64">+</text>
<text x="478.58" y="98.64">.</text>
<text x="72.31" y="287.80">*</text>
<text x="86.79" y="482.46">+</text>
<text x="426.85" y="140.63">+</text>
<text x="448.48" y="183.25">.</text>
<text x="318.22" y="418.42">+</text>
<text x="162.37" y="317.93">+</text>
<text x="316.93" y="57.28">*</text>
<text x="434.70" y="464.57">+</text>
<text x="184.10" y="80.07">+</text>
<text x="220.85" y="271.45">+</text>
<text x="301.54" y="211.95">.</text>
<text x="132.51" y="353.58">.</text>
<text x="458.64" y="60.96">*</text>
<text x="379.08" y="445.48">.</text>
<text x="427.85" y="333.47">+</text>
<text x="265.74" y="462.68">.</text>
<text x="270.79" y="0.28">+</text>
<text x="230.04" y="190.88">+</text>
<text x="117.85" y="99.66">*</text>
<text x="197.33" y="170.54">+</text>
<text x="58.28" y="442.06">.</text>
<text x="438.81" y="122.33">.</text>
<text x="29.38" y="46.07">.</text>
<text x="239.57" y="273.36">.</text>
<text x="158.34" y="338.94">+</text>
<text x="119.25" y="34.62">+</text>
<text x="214.35" y="155.89">.</text>
<text x="414.18" y="297.69">.</text>
<text x="58.14" y="109.41">.</text>
<text x="85.55" y="484.14">+</text>
<text x="81.63" y="80.96">.</text>
<text x="237.38" y="109.22">*</text>
<text x="71.41" y="73.94">*</text>
<text x="61.41" y="47.37">+</text>
<text x="246.89" y="251.07">+</text>
<text x="362.50" y="181.66">*</text>
<text x="175.54" y="192.31">.</text>
<text x="283.98" y="454.74">.</text>
<text x="380.62" y="441.84">+</text>
<text x="116.88" y="422.72">+</text>
<text x="117.95" y="473.94">*</text>
<text x="106.94" y="313.61">.</text>
<text x="464.23" y="418.12">+</text>
<text x="255.11" y="448.34">.</text>
<text x="419.29" y="218.22">.</text>
<text x="337.16" y="181.83">+</text>
<text x="117.55" y="369.73">+</text>
<text x="187.41" y="228.07">+</text>
<text x="183.19" y="75.31">.</text>
<text x="468.30" y="373.68">.</text>
<text x="493.33" y="414.48">*</text>
<text x="416.01" y="473.65">+</text>
<text x="33.58" y="53.21">+</text>
<text x="44.34" y="102.74">.</text>
<text x="21.74" y="38.56">+</text>
<text x="391.78" y="189.65">+</text>
<text x="467.63" y="342.48">+</text>
<text x="224.61" y="425.28">+</text>
<text x="130.27" y="121.93">.</text>
<text x="275.36" y="50.65">+</text>
<text x="224.56" y="12.46">+</text>
<text x="165.45" y="170.72">.</text>
<text x="144.63" y="364.55">+</text>
<text x="164.53" y="81.54">*</text>
<text x="351.69" y="5.50">.</text>
<text x="369.81" y="34.79">.</text>
<text x="6.83" y="57.68">+</text>
<text x="96.28" y="97.23">.</text>
<text x="227.99" y="448.42">+</text>
<text x="480.77" y="256.76">.</text>
<text x="245.85" y="485.51">.</text>
<text x="248.89" y="416.30">+</text>
<text x="435.81" y="279.96">.</text>
<text x="387.51" y="317.44">.</text>
<text x="276.05" y="44.76">.</text>
<text x="6.64" y="265.30">.</text>
<text x="259.46" y="281.03">*</text>
<text x="75.29" y="77.86">.</text>
<text x="79.96" y="159.92">*</text>
<text x="473.50" y="356.43">+</text>
<text x="96.55" y="448.13">.</text>
<text x="26.76" y="164.76">+</text>
<text x="29.41" y="84.47">+</text>
<text x="68.19" y="34.57">.</text>
<text x="393.88" y="203.59">.</text>
<text x="474.02" y="334.08">+</text>
<text x="280.49" y="36.07">+</text>
<text x="124.10" y="483.42">.</text>
<text x="229.06" y="497.92">.</text>
<text x="113.08" y="468.75">.</text>
<text x="267.45" y="464.15">.</text>
<text x="163.07" y="10.29">.</text>
<text x="120.24" y="166.85">+</text>
<text x="431.91" y="307.48">+</text>
<text x="469.12" y="178.18">*</text>
<text x="73.04" y="481.64">*</text>
<text x="138.54" y="143.35">*</text>
<text x="8.59" y="396.30">+</text>
<text x="426.34" y="418.29">+</text>
<text x="152.68" y="372.91">+</text>
<text x="248.73" y="38.17">.</text>
<text x="266.41" y="347.46">.</text>
<text x="95.94" y="404.29">*</text>
<text x="78.51" y="425.58">+</text>
<text x="366.36" y="4.29">+</text>
<text x="171.67" y="441.66">*</text>
<text x="112.59" y="465.87">+</text>
<text x="165.36" y="142.48">+</text>
<text x="304.30" y="247.20">*</text>
<text x="306.27" y="183.58">*</text>
<text x="381.36" y="107.68">+</text>
<text x="188.11" y="89.75">.</text>
<text x="129.11" y="149.38">+</text>
<text x="200.52" y="44.85">*</text>
<text x="368.59" y="194.32">*</text>
<text x="75.16" y="22.24">+</text>
<text x="294.66" y="288.85">.</text>
<text x="29.27" y="318.70">.</text>
<text x="239.11" y="55.24">.</text>
<text x="103.11" y="208.42">.</text>
<text x="69.31" y="76.93">*</text>
<text x="429.60" y="220.01">*</text>
<text x="192.04" y="423.16">*</text>
<text x="405.32" y="308.65">*</text>
<text x="257.01" y="200.71">+</text>
<text x="80.21" y="16.74">+</text>
<text x="243.44" y="401.58">+</text>
<text x="330.52" y="326.45">.</text>
<text x="299.92" y="399.76">.</text>
<text x="252.74" y="181.90">+</text>
<text x="373.50" y="14.00">+</text>
<text x="376.93" y="307.76">+</text>
<text x="178.81" y="221.97">+</text>
<text x="31.73" y="188.66">+</text>
<text x="202.30" y="163.84">+</text>
<text x="295.80" y="277.30">+</text>
<text x="467.46" y="457.64">.</text>
<text x="343.57" y="377.76">*</text>
<text x="77.71" y="326.01">.</text>
<text x="141.87" y="363.02">+</text>
<text x="383.72" y="34.65">*</text>
<text x="261.20" y="67.32">*</text>
<text x="179.72" y="98.69">+</text>
<text x="1.00" y="211.50">.</text>
<text x="162.79" y="333.93">.</text>
<text x="175.41" y="456.87">.</text>
<text x="10.00" y="252.29">.</text>
<text x="264.20" y="370.23">+</text>
<text x="254.07" y="296.49">*</text>
<text x="387.17" y="94.34">.</text>
<text x="333.18" y="9.59">+</text>
<text x="370.91" y="25.17">.</text>
<text x="433.07" y="127.27">+</text>
<text x="80.59" y="420.32">.</text>
<text x="266.83" y="409.58">*</text>
<text x="468.87" y="462.74">+</text>
<text x="41.90" y="356.44">+</text>
<text x="179.17" y="328.22">.</text>
<text x="339.91" y="310.21">.</text>
<text x="260.63" y="206.79">+</text>
<text x="403.65" y="67.19">.</text>
<text x="305.79" y="211.93">.</text>
<text x="223.16" y="189.46">.</text>
<text x="330.97" y="410.22">+</text>
<text x="285.01" y="216.34">+</text>
<text x="309.78" y="238.54">+</text>
<text x="196.79" y="42.79">+</text>
<text x="287.01" y="191.37">.</text>
<text x="227.98" y="446.96">+</text>
<text x="319.74" y="145.71">.</text>
<text x="379.92" y="373.20">.</text>
<text x="487.15" y="52.24">.</text>
<text x="393.66" y="485.83">.</text>
<text x="68.93" y="231.95">+</text>
<text x="141.55" y="43.27">+</text>
<text x="254.94" y="413.00">.</text>
<text x="129.34" y="253.55">.</text>
<text x="357.46" y="148.28">+</text>
<text x="5.58" y="288.42">+</text>
<text x="45.44" y="290.09">+</text>
<text x="111.98" y="193.93">+</text>
<text x="82.89" y="103.64">.</text>
<text x="457.68" y="359.12">+</text>
<text x="61.10" y="274.29">*</text>
<text x="110.97" y="191.25">.</text>
<text x="184.46" y="387.59">.</text>
<text x="23.63" y="67.16">+</text>
<text x="196.71" y="378.83">.</text>
<text x="46.40" y="403.45">*</text>
<text x="55.97" y="478.80">+</text>
<text x="320.94" y="147.55">*</text>
<text x="194.93" y="311.82">+</text>
<text x="242.21" y="412.52">.</text>
<text x="382.10" y="324.35">*</text>
<text x="326.39" y="473.97">.</text>
<text x="304.52" y="153.05">.</text>
<text x="393.64" y="135.22">.</text>
<text x="61.25" y="440.97">+</text>

</svg>