
<svg viewBox="0 0 500 500" xmlns="http://www.w.org/2000/svg" width="100%" height="100%" style="background-color: #0a0a14; font-family: 'Courier New', Courier, monospace;">
    <style>
        text { fill: #aaa; font-size: 10px; text-anchor: middle; dominant-baseline: middle; }
    </style>
    <text x="207.77" y="343.79">+</text>
<text x="238.91" y="188.46">.</text>
<text x="38.34" y="204.42">.</text>
<text x="422.84" y="211.29">+</text>
<text x="99.78" y="467.15">.</text>
<text x="288.15" y="152.89">+</text>
<text x="301.82" y="15.25">+</text>
<text x="236.27" y="99.16">*</text>
<text x="333.16" y="314.55">+</text>
<text x="110.31" y="123.41">.</text>
<text x="193.55" y="344.79">+</text>
<text x="7.47" y="491.61">.</text>
<text x="38.62" y="184.18">+</text>
<text x="334.60" y="125.37">.</text>
<text x="327.08" y="389.04">+</text>
<text x="43.30" y="142.44">.</text>
<text x="31.94" y="33.01">+</text>
<text x="247.93" y="404.97">+</text>
<text x="146.75" y="441.29">.</text>
<text x="27.56" y="169.15">+</text>
<text x="258.43" y="493.87">+</text>
<text x="348.28" y="159.95">+</text>
<text x="389.69" y="214.40">+</text>
<text x="86.43" y="385.78">.</text>
<text x="445.98" y="34.30">+</text>
<text x="464.30" y="307.63">.</text>
<text x="129.57" y="423.14">.</text>
<text x="163.66" y="42.77">+</text>
<text x="13.06" y="265.11">.</text>
<text x="89.89" y="193.62">+</text>
<text x="65.62" y="156.22">*</text>
<text x="76.16" y="453.33">+</text>
<text x="286.68" y="137.69">.</text>
<text x="248.13" y="378.70">+</text>
<text x="15.77" y="118.16">.</text>
<text x="466.84" y="275.45">+</text>
<text x="168.01" y="222.19">.</text>
<text x="405.99" y="70.71">+</text>
<text x="469.88" y="468.84">+</text>
<text x="457.39" y="334.81">*</text>
<text x="174.99" y="402.08">+</text>
<text x="118.67" y="459.67">.</text>
<text x="155.97" y="178.86">+</text>
<text x="497.06" y="463.87">.</text>
<text x="38.42" y="192.45">*</text>
<text x="492.64" y="297.86">*</text>
<text x="195.95" y="311.79">.</text>
<text x="243.47" y="196.42">.</text>
<text x="424.04" y="394.98">.</text>
<text x="259.82" y="70.92">*</text>
<text x="142.36" y="216.19">.</text>
<text x="168.73" y="408.57">.</text>
<text x="15.88" y="280.23">*</text>
<text x="337.90" y="122.62">.</text>
<text x="219.77" y="442.84">.</text>
<text x="497.24" y="399.47">.</text>
<text x="370.50" y="115.92">.</text>
<text x="271.98" y="86.49">*</text>
<text x="396.24" y="362.96">.</text>
<text x="430.16" y="274.93">.</text>
<text x="271.12" y="16.52">+</text>
<text x="448.86" y="6.31">.</text>
<text x="481.61" y="222.83">.</text>
<text x="474.59" y="168.68">*</text>
<text x="327.63" y="73.13">+</text>
<text x="175.48" y="474.78">.</text>
<text x="428.25" y="353.52">+</text>
<text x="489.25" y="163.75">*</text>
<text x="105.71" y="23.23">+</text>
<text x="376.30" y="33.44">.</text>
<text x="248.97" y="418.27">.</text>
<text x="87.82" y="484.54">.</text>
<text x="152.71" y="153.53">*</text>
<text x="431.94" y="102.52">.</text>
<text x="343.21" y="111.19">*</text>
<text x="140.48" y="294.01">+</text>
<text x="201.76" y="173.78">+</text>
<text x="407.67" y="345.88">.</text>
<text x="328.34" y="143.66">*</text>
<text x="303.71" y="263.18">+</text>
<text x="228.38" y="371.70">.</text>
<text x="450.13" y="103.92">.</text>
<text x="2.57" y="429.17">+</text>
<text x="203.22" y="394.90">.</text>
<text x="169.74" y="243.43">.</text>
<text x="135.49" y="347.20">.</text>
<text x="252.81" y="301.22">*</text>
<text x="354.13" y="319.32">+</text>
<text x="313.17" y="463.56">+</text>
<text x="165.88" y="469.35">+</text>
<text x="278.37" y="294.04">+</text>
<text x="219.46" y="59.35">.</text>
<text x="152.40" y="223.47">*</text>
<text x="446.06" y="369.13">+</text>
<text x="113.60" y="441.83">.</text>
<text x="317.25" y="115.17">+</text>
<text x="128.54" y="252.01">.</text>
<text x="259.88" y="380.96">.</text>
<text x="281.06" y="181.92">*</text>
<text x="376.94" y="406.34">.</text>
<text x="90.96" y="120.33">*</text>
<text x="194.67" y="277.27">*</text>
<text x="218.40" y="338.12">*</text>
<text x="220.04" y="110.77">.</text>
<text x="350.65" y="196.25">.</text>
<text x="4.14" y="394.58">.</text>
<text x="396.49" y="316.74">.</text>
<text x="188.75" y="483.96">.</text>
<text x="23.86" y="288.07">+</text>
<text x="244.07" y="448.21">+</text>
<text x="32.48" y="23.42">+</text>
<text x="81.91" y="265.13">.</text>
<text x="190.40" y="288.01">+</text>
<text x="249.11" y="64.05">+</text>
<text x="120.34" y="252.57">.</text>
<text x="199.99" y="403.04">+</text>
<text x="362.75" y="232.14">*</text>
<text x="186.03" y="138.44">+</text>
<text x="291.50" y="372.04">.</text>
<text x="141.71" y="429.86">+</text>
<text x="270.84" y="434.07">*</text>
<text x="198.22" y="498.14">.</text>
<text x="329.55" y="448.09">+</text>
<text x="393.19" y="384.06">*</text>
<text x="469.34" y="30.01">+</text>
<text x="228.77" y="86.43">*</text>
<text x="460.38" y="96.07">+</text>
<text x="240.69" y="448.37">.</text>
<text x="498.65" y="275.94">*</text>
<text x="303.48" y="235.34">+</text>
<text x="391.90" y="286.64">*</text>
<text x="108.46" y="97.23">+</text>
<text x="319.38" y="472.09">+</text>
<text x="11.80" y="369.37">.</text>
<text x="107.89" y="210.59">+</text>
<text x="294.12" y="368.69">+</text>
<text x="163.01" y="429.39">*</text>
<text x="276.87" y="382.90">+</text>
<text x="483.21" y="441.52">.</text>
<text x="178.00" y="195.92">*</text>
<text x="186.96" y="48.71">+</text>
<text x="249.22" y="362.00">.</text>
<text x="414.67" y="356.57">+</text>
<text x="481.89" y="37.66">*</text>
<text x="439.84" y="344.46">+</text>
<text x="489.27" y="389.67">+</text>
<text x="300.97" y="476.34">+</text>
<text x="219.14" y="464.00">.</text>
<text x="298.95" y="469.54">*</text>
<text x="222.44" y="349.87">+</text>
<text x="208.46" y="167.33">.</text>
<text x="483.56" y="336.10">.</text>
<text x="96.51" y="321.65">*</text>
<text x="96.86" y="14.99">.</text>
<text x="257.74" y="135.35">.</text>
<text x="139.82" y="498.85">.</text>
<text x="279.66" y="57.50">+</text>
<text x="446.24" y="399.68">+</text>
<text x="301.92" y="239.14">.</text>
<text x="437.19" y="423.17">.</text>
<text x="312.42" y="170.92">.</text>
<text x="278.18" y="305.74">+</text>
<text x="305.62" y="31.78">.</text>
<text x="250.97" y="72.00">*</text>
<text x="365.08" y="168.81">+</text>
<text x="302.73" y="197.59">+</text>
<text x="383.83" y="376.31">+</text>
<text x="79.87" y="134.47">+</text>
<text x="398.62" y="156.61">*</text>
<text x="304.27" y="371.23">+</text>
<text x="63.19" y="352.12">.</text>
<text x="178.41" y="73.28">*</text>
<text x="118.79" y="13.13">.</text>
<text x="324.05" y="123.49">*</text>
<text x="430.28" y="95.70">+</text>
<text x="10.70" y="78.76">*</text>
<text x="110.61" y="308.75">+</text>
<text x="149.26" y="374.57">.</text>
<text x="497.37" y="198.59">.</text>
<text x="339.40" y="54.88">+</text>
<text x="310.76" y="487.24">+</text>
<text x="348.81" y="436.87">.</text>
<text x="359.69" y="494.10">+</text>
<text x="74.09" y="162.56">.</text>
<text x="231.29" y="425.64">+</text>
<text x="373.53" y="331.18">.</text>
<text x="311.03" y="291.39">.</text>
<text x="29.77" y="388.90">.</text>
<text x="485.13" y="95.45">+</text>
<text x="113.14" y="81.72">.</text>
<text x="89.86" y="367.30">.</text>
<text x="84.98" y="167.09">.</text>
<text x="381.21" y="341.71">+</text>
<text x="212.03" y="144.73">*</text>
<text x="162.06" y="48.81">.</text>
<text x="387.15" y="197.48">*</text>
<text x="483.94" y="32.42">.</text>
<text x="278.78" y="433.12">+</text>
<text x="172.03" y="266.32">.</text>
<text x="130.39" y="430.46">.</text>
<text x="97.78" y="476.07">.</text>
<text x="378.88" y="284.94">+</text>

</svg>