
<svg viewBox="0 0 500 500" xmlns="http://www.w.org/2000/svg" width="100%" height="100%" style="background-color: #0a0a14; font-family: 'Courier New', Courier, monospace;">
    <style>
        text { fill: #aaa; font-size: 10px; text-anchor: middle; dominant-baseline: middle; }
    </style>
    <text x="353.66" y="166.96">+</text>
<text x="320.27" y="199.57">.</text>
<text x="193.19" y="129.78">.</text>
<text x="299.49" y="457.87">+</text>
<text x="307.29" y="174.05">+</text>
<text x="259.58" y="351.88">+</text>
<text x="341.07" y="462.42">.</text>
<text x="412.28" y="209.75">+</text>
<text x="323.14" y="213.82">+</text>
<text x="484.13" y="386.75">.</text>
<text x="296.69" y="451.45">+</text>
<text x="48.10" y="323.68">*</text>
<text x="425.50" y="301.40">.</text>
<text x="177.45" y="498.56">+</text>
<text x="491.08" y="150.44">.</text>
<text x="448.01" y="112.90">+</text>
<text x="413.55" y="3.31">+</text>
<text x="99.90" y="274.41">+</text>
<text x="377.11" y="271.23">+</text>
<text x="301.31" y="334.61">.</text>
<text x="143.22" y="81.09">+</text>
<text x="212.28" y="187.64">*</text>
<text x="136.71" y="289.73">*</text>
<text x="173.54" y="399.15">.</text>
<text x="383.52" y="390.90">+</text>
<text x="81.88" y="9.06">+</text>
<text x="466.68" y="138.53">.</text>
<text x="221.82" y="156.27">+</text>
<text x="166.94" y="486.90">.</text>
<text x="243.56" y="32.36">+</text>
<text x="115.00" y="261.68">.</text>
<text x="40.83" y="239.24">+</text>
<text x="466.51" y="247.23">+</text>
<text x="15.24" y="435.17">+</text>
<text x="183.92" y="365.02">.</text>
<text x="228.01" y="378.69">*</text>
<text x="195.25" y="24.16">+</text>
<text x="411.27" y="473.35">.</text>
<text x="77.50" y="96.13">+</text>
<text x="215.55" y="278.19">.</text>
<text x="59.17" y="160.34">.</text>
<text x="280.10" y="331.40">+</text>
<text x="181.06" y="297.77">*</text>
<text x="239.90" y="15.86">+</text>
<text x="326.58" y="63.50">.</text>
<text x="147.91" y="144.24">*</text>
<text x="259.37" y="463.66">+</text>
<text x="84.87" y="31.05">.</text>
<text x="217.76" y="403.49">+</text>
<text x="418.34" y="17.86">.</text>
<text x="208.91" y="172.83">.</text>
<text x="15.85" y="115.30">+</text>
<text x="351.15" y="314.19">.</text>
<text x="280.24" y="267.28">+</text>
<text x="35.34" y="497.53">.</text>
<text x="246.81" y="203.00">+</text>
<text x="155.99" y="274.59">.</text>
<text x="58.97" y="323.03">+</text>
<text x="278.41" y="89.77">*</text>
<text x="347.66" y="130.82">.</text>
<text x="95.14" y="161.81">.</text>
<text x="100.26" y="47.55">.</text>
<text x="307.00" y="23.63">+</text>
<text x="475.15" y="262.84">+</text>
<text x="199.30" y="243.53">.</text>
<text x="411.58" y="402.97">.</text>
<text x="90.15" y="379.57">+</text>
<text x="108.08" y="334.01">*</text>
<text x="467.16" y="60.10">*</text>
<text x="115.01" y="148.21">+</text>
<text x="256.83" y="369.29">.</text>
<text x="472.97" y="454.15">.</text>
<text x="176.72" y="152.18">.</text>
<text x="355.34" y="431.77">.</text>
<text x="37.52" y="232.31">+</text>
<text x="388.26" y="385.15">.</text>
<text x="59.68" y="45.82">.</text>
<text x="363.63" y="120.10">.</text>
<text x="143.30" y="401.99">+</text>
<text x="313.93" y="62.10">.</text>
<text x="462.48" y="385.37">+</text>
<text x="349.48" y="133.72">.</text>
<text x="223.14" y="107.73">+</text>
<text x="39.73" y="73.02">*</text>
<text x="136.49" y="398.50">*</text>
<text x="40.99" y="284.40">+</text>
<text x="1.07" y="306.07">*</text>
<text x="76.19" y="377.97">+</text>
<text x="473.77" y="452.92">.</text>
<text x="435.96" y="57.20">.</text>
<text x="287.38" y="432.40">+</text>
<text x="118.06" y="159.46">+</text>
<text x="347.50" y="485.78">*</text>
<text x="2.30" y="212.60">*</text>
<text x="188.09" y="287.68">.</text>
<text x="64.35" y="182.13">.</text>
<text x="357.32" y="27.40">+</text>
<text x="374.04" y="497.60">+</text>
<text x="160.77" y="153.43">.</text>
<text x="259.83" y="341.69">+</text>
<text x="247.33" y="392.04">.</text>
<text x="6.22" y="109.84">+</text>
<text x="276.04" y="295.61">.</text>
<text x="395.91" y="42.08">+</text>
<text x="251.76" y="275.94">*</text>
<text x="121.07" y="111.81">.</text>
<text x="437.67" y="350.63">+</text>
<text x="167.00" y="81.04">.</text>
<text x="434.57" y="162.66">.</text>
<text x="58.83" y="441.57">+</text>
<text x="321.81" y="4.78">+</text>
<text x="56.21" y="139.79">.</text>
<text x="485.54" y="237.24">+</text>
<text x="274.56" y="236.36">.</text>
<text x="464.37" y="99.92">.</text>
<text x="232.76" y="430.02">+</text>
<text x="63.54" y="9.06">.</text>
<text x="60.08" y="494.65">+</text>
<text x="367.64" y="253.91">.</text>
<text x="199.19" y="229.30">.</text>
<text x="365.27" y="431.63">+</text>
<text x="404.17" y="293.00">.</text>
<text x="94.80" y="204.15">+</text>
<text x="239.75" y="219.19">+</text>
<text x="30.77" y="62.12">+</text>
<text x="299.39" y="221.84">.</text>
<text x="498.01" y="178.87">.</text>
<text x="308.05" y="101.49">.</text>
<text x="279.26" y="230.23">+</text>
<text x="209.42" y="218.04">.</text>
<text x="401.74" y="293.01">.</text>
<text x="374.55" y="132.28">+</text>
<text x="153.88" y="193.10">+</text>
<text x="184.55" y="160.29">+</text>
<text x="237.57" y="267.41">+</text>
<text x="116.56" y="467.77">+</text>
<text x="168.05" y="135.02">.</text>
<text x="61.78" y="170.25">+</text>
<text x="232.06" y="166.81">+</text>
<text x="417.99" y="148.73">.</text>
<text x="131.67" y="48.58">+</text>
<text x="414.50" y="196.10">+</text>
<text x="146.27" y="175.43">.</text>
<text x="375.27" y="77.10">.</text>
<text x="342.15" y="92.49">.</text>
<text x="453.94" y="24.00">+</text>
<text x="231.17" y="193.90">+</text>
<text x="145.35" y="14.60">+</text>
<text x="208.06" y="81.70">+</text>
<text x="166.17" y="461.46">.</text>
<text x="451.35" y="378.89">+</text>
<text x="136.17" y="482.70">.</text>
<text x="233.94" y="51.69">+</text>
<text x="441.89" y="487.80">+</text>
<text x="152.73" y="462.36">+</text>
<text x="459.81" y="442.08">.</text>
<text x="412.56" y="233.80">*</text>
<text x="348.51" y="428.90">.</text>
<text x="374.03" y="178.67">+</text>
<text x="334.50" y="310.22">.</text>
<text x="53.32" y="33.27">+</text>
<text x="263.22" y="177.06">*</text>
<text x="129.44" y="371.53">+</text>
<text x="66.69" y="232.63">.</text>
<text x="262.67" y="31.80">.</text>
<text x="5.66" y="403.81">+</text>
<text x="43.80" y="87.41">.</text>
<text x="409.29" y="41.34">.</text>
<text x="448.27" y="198.50">*</text>
<text x="4.28" y="489.37">.</text>
<text x="121.74" y="263.01">.</text>
<text x="402.19" y="397.07">+</text>
<text x="208.25" y="381.22">+</text>
<text x="371.24" y="357.01">*</text>
<text x="418.72" y="455.59">.</text>
<text x="52.58" y="284.86">+</text>
<text x="231.29" y="60.64">+</text>
<text x="51.20" y="227.49">+</text>
<text x="199.02" y="144.06">+</text>
<text x="466.29" y="236.52">.</text>
<text x="453.59" y="284.74">+</text>
<text x="367.57" y="252.43">+</text>
<text x="163.36" y="281.06">+</text>
<text x="27.58" y="257.37">*</text>
<text x="173.69" y="419.52">+</text>
<text x="254.54" y="248.25">.</text>
<text x="180.97" y="454.49">+</text>
<text x="220.11" y="115.21">*</text>
<text x="430.41" y="417.32">+</text>
<text x="95.74" y="330.30">.</text>
<text x="157.84" y="222.18">.</text>
<text x="493.41" y="39.63">.</text>
<text x="53.63" y="473.00">+</text>
<text x="144.34" y="194.40">+</text>
<text x="394.32" y="397.30">+</text>
<text x="93.71" y="143.96">.</text>
<text x="295.56" y="147.36">*</text>
<text x="2.46" y="311.12">.</text>
<text x="206.75" y="48.70">*</text>
<text x="132.02" y="223.58">.</text>
<text x="331.16" y="143.41">.</text>
<text x="80.62" y="398.84">+</text>
<text x="212.60" y="100.73">.</text>
<text x="86.33" y="414.89">.</text>
<text x="123.11" y="210.88">+</text>
<text x="396.82" y="68.52">.</text>
<text x="249.19" y="277.91">+</text>
<text x="242.80" y="283.61">+</text>
<text x="296.25" y="120.35">+</text>
<text x="241.49" y="385.67">.</text>
<text x="234.45" y="296.51">+</text>
<text x="414.79" y="11.05">.</text>
<text x="394.02" y="296.55">.</text>
<text x="72.56" y="160.83">.</text>
<text x="458.99" y="443.69">.</text>
<text x="465.37" y="166.26">.</text>
<text x="490.27" y="334.17">*</text>
<text x="369.40" y="203.58">+</text>
<text x="39.49" y="59.49">.</text>
<text x="413.34" y="492.46">+</text>

</svg>