
<svg viewBox="0 0 500 500" xmlns="http://www.w.org/2000/svg" width="100%" height="100%" style="background-color: #0a0a14; font-family: 'Courier New', Courier, monospace;">
    <style>
        text { fill: #aaa; font-size: 10px; text-anchor: middle; dominant-baseline: middle; }
    </style>
    <text x="317.37" y="307.93">.</text>
<text x="188.48" y="394.77">*</text>
<text x="70.03" y="164.29">.</text>
<text x="360.74" y="145.53">*</text>
<text x="21.33" y="98.36">.</text>
<text x="54.44" y="150.59">.</text>
<text x="31.16" y="407.23">.</text>
<text x="176.47" y="68.52">.</text>
<text x="309.48" y="410.45">.</text>
<text x="310.60" y="320.65">.</text>
<text x="110.46" y="238.42">+</text>
<text x="6.58" y="15.32">.</text>
<text x="117.88" y="346.17">+</text>
<text x="351.01" y="399.46">+</text>
<text x="58.05" y="109.76">+</text>
<text x="499.32" y="342.66">*</text>
<text x="483.89" y="429.60">+</text>
<text x="146.33" y="441.38">+</text>
<text x="477.61" y="491.11">.</text>
<text x="213.88" y="394.24">.</text>
<text x="165.78" y="348.32">+</text>
<text x="374.27" y="213.56">.</text>
<text x="140.45" y="64.60">+</text>
<text x="56.67" y="362.93">.</text>
<text x="407.25" y="228.15">.</text>
<text x="432.86" y="357.22">+</text>
<text x="454.45" y="250.68">*</text>
<text x="109.52" y="469.94">+</text>
<text x="85.42" y="461.83">.</text>
<text x="403.26" y="160.53">.</text>
<text x="386.42" y="75.44">.</text>
<text x="258.27" y="291.31">*</text>
<text x="479.59" y="276.75">+</text>
<text x="157.35" y="224.75">+</text>
<text x="64.19" y="435.60">*</text>
<text x="247.34" y="281.10">.</text>
<text x="128.88" y="499.51">.</text>
<text x="368.62" y="282.08">+</text>
<text x="355.47" y="478.68">+</text>
<text x="278.87" y="205.53">.</text>
<text x="150.11" y="110.65">.</text>
<text x="378.53" y="53.70">+</text>
<text x="95.89" y="1.36">.</text>
<text x="43.17" y="11.80">.</text>
<text x="109.43" y="361.66">.</text>
<text x="145.26" y="5.24">.</text>
<text x="446.15" y="474.45">.</text>
<text x="284.99" y="480.30">+</text>
<text x="401.43" y="97.10">+</text>
<text x="45.87" y="55.80">+</text>
<text x="13.59" y="58.68">+</text>
<text x="93.67" y="377.39">.</text>
<text x="322.72" y="62.60">.</text>
<text x="92.91" y="492.94">.</text>
<text x="40.29" y="94.11">+</text>
<text x="137.88" y="11.98">+</text>
<text x="89.85" y="18.90">.</text>
<text x="243.95" y="317.96">.</text>
<text x="368.84" y="476.21">+</text>
<text x="256.25" y="256.22">.</text>
<text x="407.33" y="286.53">.</text>
<text x="396.97" y="108.75">.</text>
<text x="50.69" y="329.85">+</text>
<text x="352.83" y="478.61">+</text>
<text x="254.38" y="318.01">.</text>
<text x="499.90" y="317.76">.</text>
<text x="149.15" y="72.85">+</text>
<text x="393.95" y="47.72">+</text>
<text x="360.48" y="322.71">+</text>
<text x="488.55" y="436.16">.</text>
<text x="350.56" y="124.35">+</text>
<text x="492.40" y="266.57">.</text>
<text x="214.80" y="20.78">.</text>
<text x="173.04" y="402.48">*</text>
<text x="50.17" y="446.62">*</text>
<text x="317.23" y="307.60">.</text>
<text x="432.59" y="256.08">+</text>
<text x="393.86" y="252.03">+</text>
<text x="303.93" y="495.49">.</text>
<text x="370.44" y="44.72">*</text>
<text x="402.50" y="430.53">+</text>
<text x="204.79" y="493.72">+</text>
<text x="350.54" y="79.99">+</text>
<text x="367.96" y="286.61">+</text>
<text x="116.43" y="101.22">+</text>
<text x="116.47" y="136.75">*</text>
<text x="10.24" y="318.33">*</text>
<text x="200.16" y="37.50">+</text>
<text x="107.95" y="259.40">+</text>
<text x="2.73" y="287.21">+</text>
<text x="168.81" y="424.40">*</text>
<text x="78.51" y="1.23">.</text>
<text x="366.74" y="365.54">.</text>
<text x="381.26" y="311.23">+</text>
<text x="32.81" y="87.85">+</text>
<text x="262.99" y="56.70">*</text>
<text x="339.61" y="29.25">.</text>
<text x="195.72" y="105.48">+</text>
<text x="222.03" y="336.97">+</text>
<text x="291.90" y="434.35">*</text>
<text x="300.65" y="130.20">+</text>
<text x="388.09" y="115.15">.</text>
<text x="37.04" y="140.99">*</text>
<text x="421.90" y="424.73">.</text>
<text x="361.54" y="468.48">.</text>
<text x="318.80" y="58.74">.</text>
<text x="38.24" y="69.45">*</text>
<text x="356.08" y="240.80">.</text>
<text x="493.12" y="219.23">.</text>
<text x="84.32" y="0.64">.</text>
<text x="51.53" y="355.62">*</text>
<text x="135.33" y="218.09">+</text>
<text x="413.63" y="11.39">.</text>
<text x="196.33" y="255.45">+</text>
<text x="231.69" y="174.00">.</text>
<text x="190.95" y="378.04">.</text>
<text x="237.41" y="318.95">.</text>
<text x="433.20" y="23.08">+</text>
<text x="59.91" y="279.60">+</text>
<text x="315.08" y="208.21">+</text>
<text x="265.21" y="140.14">+</text>
<text x="198.80" y="6.44">.</text>
<text x="82.79" y="253.16">+</text>
<text x="499.89" y="278.05">+</text>
<text x="318.40" y="312.12">.</text>
<text x="54.24" y="111.56">*</text>
<text x="336.76" y="326.72">+</text>
<text x="212.52" y="80.12">+</text>
<text x="294.81" y="197.54">+</text>
<text x="232.57" y="455.29">.</text>
<text x="15.41" y="421.79">.</text>
<text x="185.68" y="492.73">.</text>
<text x="19.18" y="196.65">.</text>
<text x="150.60" y="274.07">.</text>
<text x="348.06" y="255.24">.</text>
<text x="48.18" y="411.55">*</text>
<text x="2.25" y="301.69">+</text>
<text x="368.91" y="286.47">.</text>
<text x="414.25" y="51.41">.</text>
<text x="406.88" y="356.93">+</text>
<text x="85.74" y="269.73">.</text>
<text x="333.22" y="28.44">.</text>
<text x="82.38" y="279.86">.</text>
<text x="59.43" y="191.38">+</text>
<text x="362.08" y="330.91">.</text>
<text x="120.16" y="335.88">+</text>
<text x="461.34" y="179.97">.</text>
<text x="269.01" y="233.99">+</text>
<text x="406.46" y="4.60">.</text>
<text x="90.97" y="74.95">+</text>
<text x="304.22" y="495.46">+</text>
<text x="356.83" y="105.57">+</text>
<text x="141.03" y="329.97">.</text>
<text x="221.70" y="317.14">+</text>
<text x="473.80" y="103.83">.</text>
<text x="284.88" y="379.71">+</text>
<text x="283.25" y="397.10">+</text>
<text x="50.29" y="163.08">+</text>
<text x="317.09" y="372.03">+</text>
<text x="479.16" y="430.00">*</text>
<text x="339.78" y="99.37">.</text>
<text x="281.89" y="87.16">.</text>
<text x="90.03" y="487.82">+</text>
<text x="243.47" y="51.58">+</text>
<text x="483.32" y="101.66">.</text>
<text x="490.74" y="76.72">+</text>
<text x="487.94" y="272.58">+</text>
<text x="24.72" y="126.70">.</text>
<text x="276.67" y="14.50">.</text>
<text x="417.92" y="135.66">+</text>
<text x="158.51" y="245.55">.</text>
<text x="30.87" y="202.86">.</text>
<text x="485.03" y="432.51">.</text>
<text x="123.13" y="445.78">+</text>
<text x="350.91" y="402.37">.</text>
<text x="60.17" y="51.79">.</text>
<text x="34.97" y="441.09">.</text>
<text x="424.45" y="413.44">.</text>
<text x="385.41" y="241.88">.</text>
<text x="123.86" y="45.29">+</text>
<text x="261.76" y="439.80">.</text>
<text x="336.88" y="410.85">+</text>
<text x="213.55" y="367.83">.</text>
<text x="62.53" y="252.85">+</text>
<text x="373.85" y="492.66">.</text>
<text x="384.42" y="440.67">.</text>
<text x="155.92" y="467.49">.</text>
<text x="269.06" y="313.14">+</text>
<text x="253.80" y="262.76">+</text>
<text x="340.21" y="294.15">+</text>
<text x="13.64" y="315.17">+</text>
<text x="102.38" y="23.22">+</text>
<text x="401.89" y="50.47">.</text>
<text x="298.03" y="287.10">*</text>
<text x="488.39" y="278.19">.</text>
<text x="412.23" y="399.73">.</text>
<text x="491.09" y="47.44">+</text>
<text x="261.70" y="126.06">.</text>
<text x="102.12" y="32.60">.</text>
<text x="131.00" y="418.85">+</text>
<text x="104.91" y="323.31">+</text>
<text x="23.82" y="447.69">.</text>
<text x="432.64" y="291.99">.</text>
<text x="216.11" y="464.83">+</text>
<text x="69.24" y="211.01">*</text>
<text x="52.33" y="448.64">.</text>
<text x="147.97" y="58.08">+</text>
<text x="439.37" y="270.03">+</text>
<text x="111.71" y="223.10">+</text>
<text x="367.99" y="405.89">.</text>
<text x="292.39" y="199.13">+</text>
<text x="148.65" y="402.56">.</text>
<text x="153.72" y="428.14">+</text>

</svg>