
<svg viewBox="0 0 500 500" xmlns="http://www.w.org/2000/svg" width="100%" height="100%" style="background-color: #0a0a14; font-family: 'Courier New', Courier, monospace;">
    <style>
        text { fill: #aaa; font-size: 10px; text-anchor: middle; dominant-baseline: middle; }
    </style>
    <text x="371.74" y="107.83">*</text>
<text x="80.43" y="425.36">+</text>
<text x="118.95" y="431.56">+</text>
<text x="203.81" y="15.83">+</text>
<text x="194.79" y="10.36">.</text>
<text x="260.14" y="115.12">.</text>
<text x="51.48" y="144.13">+</text>
<text x="302.44" y="366.27">*</text>
<text x="101.08" y="483.28">+</text>
<text x="68.66" y="365.09">+</text>
<text x="234.42" y="161.28">.</text>
<text x="447.31" y="442.79">.</text>
<text x="172.67" y="142.37">+</text>
<text x="468.78" y="79.10">*</text>
<text x="234.26" y="101.38">+</text>
<text x="91.55" y="376.18">+</text>
<text x="329.54" y="381.13">+</text>
<text x="345.92" y="387.09">.</text>
<text x="241.84" y="360.53">*</text>
<text x="418.03" y="262.95">.</text>
<text x="348.27" y="415.60">*</text>
<text x="343.88" y="399.19">+</text>
<text x="137.67" y="267.06">+</text>
<text x="387.86" y="371.81">*</text>
<text x="217.65" y="416.52">+</text>
<text x="295.65" y="186.06">*</text>
<text x="419.20" y="218.00">*</text>
<text x="234.19" y="153.09">.</text>
<text x="450.13" y="476.55">+</text>
<text x="229.11" y="156.15">+</text>
<text x="447.10" y="240.35">.</text>
<text x="9.00" y="127.53">+</text>
<text x="182.28" y="30.91">+</text>
<text x="385.86" y="101.12">.</text>
<text x="74.37" y="37.60">+</text>
<text x="293.58" y="427.46">+</text>
<text x="68.43" y="395.66">+</text>
<text x="211.77" y="272.66">.</text>
<text x="346.84" y="275.92">.</text>
<text x="322.94" y="383.91">*</text>
<text x="8.51" y="154.23">.</text>
<text x="221.96" y="499.30">+</text>
<text x="376.93" y="407.99">.</text>
<text x="206.40" y="376.66">+</text>
<text x="0.90" y="156.36">+</text>
<text x="326.04" y="80.47">.</text>
<text x="315.33" y="215.36">+</text>
<text x="266.25" y="55.76">+</text>
<text x="162.15" y="10.60">*</text>
<text x="395.93" y="118.57">.</text>
<text x="63.66" y="307.50">.</text>
<text x="344.15" y="460.48">.</text>
<text x="443.91" y="409.38">.</text>
<text x="392.29" y="71.49">+</text>
<text x="290.67" y="40.74">+</text>
<text x="50.25" y="422.66">*</text>
<text x="128.82" y="75.77">+</text>
<text x="109.42" y="28.95">+</text>
<text x="162.57" y="82.45">.</text>
<text x="6.00" y="253.84">.</text>
<text x="48.76" y="489.80">*</text>
<text x="269.72" y="92.26">+</text>
<text x="1.25" y="237.76">*</text>
<text x="492.52" y="236.16">+</text>
<text x="369.50" y="126.20">+</text>
<text x="294.04" y="229.79">+</text>
<text x="369.25" y="5.19">*</text>
<text x="16.75" y="410.70">*</text>
<text x="367.90" y="361.51">+</text>
<text x="399.68" y="34.36">.</text>
<text x="380.41" y="220.24">+</text>
<text x="434.64" y="169.05">+</text>
<text x="284.14" y="34.49">.</text>
<text x="188.38" y="334.74">.</text>
<text x="15.19" y="181.51">+</text>
<text x="489.48" y="312.77">.</text>
<text x="207.03" y="282.18">+</text>
<text x="463.43" y="130.28">+</text>
<text x="381.12" y="282.46">+</text>
<text x="182.41" y="339.75">.</text>
<text x="420.72" y="68.41">.</text>
<text x="236.52" y="47.75">+</text>
<text x="8.00" y="339.28">+</text>
<text x="152.33" y="211.19">+</text>
<text x="113.29" y="172.18">+</text>
<text x="76.89" y="356.94">+</text>
<text x="429.17" y="236.02">*</text>
<text x="288.03" y="470.59">+</text>
<text x="466.95" y="356.99">+</text>
<text x="0.15" y="76.60">+</text>
<text x="341.45" y="357.28">+</text>
<text x="379.01" y="182.08">+</text>
<text x="150.73" y="394.96">.</text>
<text x="189.32" y="330.54">.</text>
<text x="102.93" y="485.77">+</text>
<text x="202.67" y="434.25">+</text>
<text x="18.35" y="275.42">.</text>
<text x="307.40" y="287.97">.</text>
<text x="111.87" y="421.30">+</text>
<text x="120.18" y="223.59">.</text>
<text x="324.97" y="210.51">.</text>
<text x="460.17" y="311.50">+</text>
<text x="168.86" y="242.34">+</text>
<text x="384.26" y="274.81">.</text>
<text x="299.59" y="284.59">.</text>
<text x="257.33" y="287.90">+</text>
<text x="258.59" y="289.38">+</text>
<text x="390.86" y="363.98">+</text>
<text x="149.83" y="110.16">+</text>
<text x="448.41" y="391.00">+</text>
<text x="33.52" y="375.23">+</text>
<text x="100.87" y="8.08">*</text>
<text x="430.58" y="497.20">*</text>
<text x="425.71" y="69.43">+</text>
<text x="329.28" y="487.92">+</text>
<text x="51.18" y="38.50">+</text>
<text x="286.75" y="179.62">+</text>
<text x="430.63" y="97.89">+</text>
<text x="114.87" y="446.82">.</text>
<text x="429.98" y="275.30">.</text>
<text x="478.72" y="130.20">+</text>
<text x="281.91" y="275.87">.</text>
<text x="97.92" y="159.55">.</text>
<text x="290.59" y="49.84">.</text>
<text x="189.03" y="123.36">+</text>
<text x="33.19" y="329.76">.</text>
<text x="488.23" y="104.13">.</text>
<text x="248.85" y="486.11">*</text>
<text x="221.30" y="305.37">*</text>
<text x="135.85" y="156.56">+</text>
<text x="97.36" y="477.50">*</text>
<text x="95.75" y="37.25">*</text>
<text x="468.03" y="59.20">.</text>
<text x="344.04" y="35.14">.</text>
<text x="422.04" y="280.84">+</text>
<text x="256.62" y="3.28">+</text>
<text x="437.91" y="485.62">+</text>
<text x="276.06" y="146.45">*</text>
<text x="180.92" y="280.33">.</text>
<text x="286.38" y="269.35">.</text>
<text x="351.37" y="135.56">+</text>
<text x="403.52" y="147.77">+</text>
<text x="72.62" y="449.41">.</text>
<text x="334.68" y="56.30">*</text>
<text x="211.07" y="122.15">.</text>
<text x="454.47" y="348.50">+</text>
<text x="421.10" y="327.14">+</text>
<text x="423.93" y="242.05">+</text>
<text x="82.92" y="47.35">+</text>
<text x="463.37" y="99.89">.</text>
<text x="172.01" y="250.47">.</text>
<text x="104.63" y="243.28">+</text>
<text x="213.74" y="369.55">.</text>
<text x="64.94" y="334.37">+</text>
<text x="396.30" y="360.85">*</text>
<text x="371.42" y="1.37">.</text>
<text x="384.45" y="41.85">+</text>
<text x="476.09" y="366.19">.</text>
<text x="97.02" y="353.78">+</text>
<text x="30.69" y="170.39">+</text>
<text x="196.09" y="329.03">*</text>
<text x="108.80" y="144.63">.</text>
<text x="459.29" y="308.74">.</text>
<text x="243.97" y="263.94">+</text>
<text x="84.92" y="256.58">.</text>
<text x="457.99" y="445.80">+</text>
<text x="23.72" y="314.19">.</text>
<text x="251.85" y="25.39">+</text>
<text x="59.83" y="213.23">+</text>
<text x="8.10" y="240.39">+</text>
<text x="258.05" y="172.32">+</text>
<text x="202.26" y="179.17">.</text>
<text x="422.70" y="384.28">.</text>
<text x="250.78" y="274.74">.</text>
<text x="263.82" y="268.01">+</text>
<text x="185.22" y="2.64">+</text>
<text x="428.95" y="10.69">.</text>
<text x="70.39" y="377.67">.</text>
<text x="384.67" y="169.17">+</text>
<text x="342.14" y="260.07">+</text>
<text x="127.48" y="274.41">+</text>
<text x="32.76" y="208.79">.</text>
<text x="330.73" y="468.98">+</text>
<text x="186.64" y="270.76">+</text>
<text x="273.40" y="149.12">+</text>
<text x="293.64" y="305.71">.</text>
<text x="112.18" y="230.72">*</text>
<text x="285.36" y="440.25">+</text>
<text x="354.16" y="291.16">+</text>
<text x="499.92" y="268.62">+</text>
<text x="53.13" y="415.28">+</text>
<text x="492.19" y="395.51">.</text>
<text x="181.07" y="77.88">+</text>
<text x="400.99" y="14.21">+</text>
<text x="325.51" y="267.32">.</text>
<text x="270.51" y="202.74">.</text>
<text x="76.88" y="184.76">.</text>
<text x="333.85" y="340.41">+</text>
<text x="307.09" y="197.36">.</text>
<text x="226.68" y="108.04">+</text>
<text x="402.93" y="399.56">+</text>
<text x="470.36" y="91.79">.</text>
<text x="282.61" y="49.28">+</text>
<text x="267.14" y="152.21">+</text>
<text x="364.17" y="493.98">+</text>
<text x="304.84" y="415.74">.</text>

</svg>