
<svg viewBox="0 0 500 500" xmlns="http://www.w.org/2000/svg" width="100%" height="100%" style="background-color: #0a0a14; font-family: 'Courier New', Courier, monospace;">
    <style>
        text { fill: #aaa; font-size: 10px; text-anchor: middle; dominant-baseline: middle; }
    </style>
    <text x="314.40" y="1.41">+</text>
<text x="319.86" y="248.36">+</text>
<text x="165.03" y="432.84">+</text>
<text x="133.69" y="310.83">.</text>
<text x="2.01" y="383.88">+</text>
<text x="414.42" y="213.14">+</text>
<text x="494.88" y="32.98">.</text>
<text x="120.68" y="258.92">+</text>
<text x="305.67" y="376.60">.</text>
<text x="121.70" y="480.65">+</text>
<text x="334.52" y="219.79">.</text>
<text x="220.01" y="464.31">.</text>
<text x="8.65" y="379.01">*</text>
<text x="139.84" y="208.22">+</text>
<text x="136.43" y="34.25">.</text>
<text x="95.69" y="277.71">.</text>
<text x="99.24" y="136.06">*</text>
<text x="339.21" y="225.04">*</text>
<text x="249.86" y="271.96">.</text>
<text x="23.35" y="170.46">.</text>
<text x="210.60" y="179.63">.</text>
<text x="381.89" y="79.74">*</text>
<text x="113.87" y="107.13">+</text>
<text x="4.09" y="317.17">+</text>
<text x="465.64" y="157.57">.</text>
<text x="59.31" y="131.53">*</text>
<text x="409.24" y="446.48">.</text>
<text x="94.87" y="289.28">+</text>
<text x="259.80" y="31.39">+</text>
<text x="143.33" y="274.36">+</text>
<text x="396.10" y="310.45">.</text>
<text x="113.63" y="439.02">.</text>
<text x="376.72" y="433.88">.</text>
<text x="423.89" y="283.37">.</text>
<text x="432.85" y="184.15">.</text>
<text x="34.48" y="180.10">*</text>
<text x="162.70" y="189.59">+</text>
<text x="172.03" y="95.68">+</text>
<text x="344.14" y="283.63">+</text>
<text x="371.79" y="104.54">+</text>
<text x="166.56" y="361.72">.</text>
<text x="262.96" y="351.62">+</text>
<text x="484.81" y="458.32">.</text>
<text x="106.71" y="482.86">+</text>
<text x="212.93" y="419.53">.</text>
<text x="396.34" y="335.93">*</text>
<text x="367.55" y="441.02">+</text>
<text x="164.32" y="249.81">.</text>
<text x="391.55" y="436.16">*</text>
<text x="314.08" y="22.72">.</text>
<text x="57.22" y="444.55">+</text>
<text x="27.71" y="114.34">+</text>
<text x="176.90" y="476.41">*</text>
<text x="42.42" y="98.87">.</text>
<text x="152.30" y="207.88">+</text>
<text x="78.91" y="158.20">+</text>
<text x="88.38" y="414.97">.</text>
<text x="213.03" y="61.28">.</text>
<text x="27.09" y="137.70">.</text>
<text x="226.99" y="116.63">*</text>
<text x="127.19" y="263.90">+</text>
<text x="425.95" y="422.53">.</text>
<text x="367.69" y="165.02">.</text>
<text x="174.22" y="355.85">+</text>
<text x="131.87" y="334.08">+</text>
<text x="293.59" y="384.49">.</text>
<text x="40.55" y="376.27">.</text>
<text x="346.28" y="363.10">.</text>
<text x="251.38" y="462.92">.</text>
<text x="441.82" y="253.01">+</text>
<text x="346.89" y="15.04">+</text>
<text x="369.36" y="12.01">*</text>
<text x="445.40" y="290.25">.</text>
<text x="382.68" y="265.01">+</text>
<text x="252.70" y="296.15">*</text>
<text x="242.27" y="99.28">+</text>
<text x="101.00" y="382.10">.</text>
<text x="333.14" y="386.58">+</text>
<text x="469.26" y="77.75">.</text>
<text x="75.93" y="250.70">+</text>
<text x="122.62" y="266.27">+</text>
<text x="241.76" y="36.70">+</text>
<text x="131.66" y="12.51">*</text>
<text x="307.84" y="320.13">.</text>
<text x="376.14" y="484.03">+</text>
<text x="21.22" y="457.01">+</text>
<text x="357.86" y="462.19">+</text>
<text x="169.81" y="382.18">.</text>
<text x="360.17" y="141.12">.</text>
<text x="351.45" y="424.24">+</text>
<text x="498.51" y="499.49">+</text>
<text x="64.66" y="441.38">+</text>
<text x="439.60" y="43.54">+</text>
<text x="443.80" y="132.15">.</text>
<text x="88.45" y="147.39">+</text>
<text x="175.43" y="15.00">.</text>
<text x="251.47" y="260.66">.</text>
<text x="487.09" y="164.06">+</text>
<text x="312.96" y="257.15">+</text>
<text x="154.13" y="109.02">*</text>
<text x="224.20" y="58.27">.</text>
<text x="78.41" y="87.17">.</text>
<text x="495.20" y="234.92">.</text>
<text x="156.87" y="116.21">.</text>
<text x="388.44" y="366.83">.</text>
<text x="331.32" y="241.29">+</text>
<text x="385.01" y="236.58">.</text>
<text x="195.20" y="185.18">+</text>
<text x="178.40" y="385.91">+</text>
<text x="300.73" y="494.92">+</text>
<text x="97.66" y="255.43">.</text>
<text x="386.19" y="169.09">.</text>
<text x="355.31" y="125.93">+</text>
<text x="61.33" y="58.63">+</text>
<text x="229.59" y="155.76">.</text>
<text x="310.55" y="491.76">.</text>
<text x="434.87" y="70.17">.</text>
<text x="168.27" y="107.26">*</text>
<text x="63.38" y="461.26">.</text>
<text x="155.39" y="253.68">+</text>
<text x="304.70" y="152.32">.</text>
<text x="197.28" y="468.06">.</text>
<text x="220.56" y="15.93">+</text>
<text x="165.31" y="169.32">.</text>
<text x="51.65" y="438.77">*</text>
<text x="401.69" y="378.42">.</text>
<text x="22.12" y="389.33">+</text>
<text x="292.97" y="70.66">+</text>
<text x="175.46" y="22.36">*</text>
<text x="200.57" y="451.60">+</text>
<text x="458.53" y="313.36">+</text>
<text x="240.79" y="74.22">.</text>
<text x="291.06" y="269.15">+</text>
<text x="109.64" y="55.45">.</text>
<text x="411.48" y="290.71">*</text>
<text x="61.43" y="216.46">+</text>
<text x="272.13" y="359.17">+</text>
<text x="119.97" y="292.25">.</text>
<text x="97.44" y="400.14">.</text>
<text x="360.67" y="476.64">.</text>
<text x="408.21" y="150.10">+</text>
<text x="134.86" y="236.25">+</text>
<text x="281.32" y="414.05">+</text>
<text x="16.80" y="424.60">.</text>
<text x="304.96" y="424.05">.</text>
<text x="272.05" y="308.48">+</text>
<text x="158.26" y="283.39">+</text>
<text x="41.27" y="243.47">.</text>
<text x="4.18" y="76.33">+</text>
<text x="135.75" y="127.10">.</text>
<text x="215.52" y="173.78">.</text>
<text x="141.13" y="396.41">+</text>
<text x="329.75" y="476.59">.</text>
<text x="428.12" y="400.27">+</text>
<text x="435.76" y="152.72">+</text>
<text x="228.64" y="430.65">+</text>
<text x="120.10" y="150.22">+</text>
<text x="107.40" y="314.28">.</text>
<text x="361.66" y="146.79">+</text>
<text x="430.78" y="487.02">.</text>
<text x="253.40" y="71.31">.</text>
<text x="212.87" y="351.53">+</text>
<text x="21.90" y="261.60">.</text>
<text x="62.96" y="39.57">.</text>
<text x="186.23" y="51.55">+</text>
<text x="21.57" y="250.12">.</text>
<text x="276.65" y="228.02">.</text>
<text x="387.32" y="240.39">.</text>
<text x="317.44" y="255.32">.</text>
<text x="412.34" y="98.02">*</text>
<text x="408.45" y="60.91">+</text>
<text x="441.02" y="127.83">.</text>
<text x="24.20" y="424.26">.</text>
<text x="204.97" y="369.10">.</text>
<text x="159.46" y="318.60">+</text>
<text x="439.04" y="317.68">.</text>
<text x="56.87" y="315.15">.</text>
<text x="445.17" y="440.07">*</text>
<text x="349.84" y="275.27">+</text>
<text x="395.76" y="175.13">+</text>
<text x="320.53" y="440.27">+</text>
<text x="272.79" y="102.74">*</text>
<text x="19.86" y="101.54">*</text>
<text x="314.66" y="138.65">*</text>
<text x="342.44" y="321.86">*</text>
<text x="424.77" y="343.38">.</text>
<text x="239.11" y="161.17">.</text>
<text x="309.60" y="338.18">*</text>
<text x="401.97" y="42.30">+</text>
<text x="127.75" y="380.77">.</text>
<text x="300.45" y="4.55">+</text>
<text x="64.92" y="371.60">*</text>
<text x="394.70" y="394.57">*</text>
<text x="419.31" y="328.61">+</text>
<text x="167.52" y="249.57">*</text>
<text x="325.86" y="374.17">.</text>
<text x="185.69" y="194.61">*</text>
<text x="126.28" y="216.74">.</text>
<text x="392.52" y="26.45">.</text>
<text x="234.03" y="136.74">.</text>
<text x="374.91" y="329.33">.</text>
<text x="486.46" y="275.80">.</text>
<text x="188.91" y="166.36">+</text>
<text x="324.28" y="473.57">+</text>
<text x="49.73" y="143.49">+</text>
<text x="42.78" y="492.98">+</text>
<text x="226.90" y="408.81">.</text>
<text x="418.47" y="188.68">+</text>

</svg>