
<svg viewBox="0 0 500 500" xmlns="http://www.w.org/2000/svg" width="100%" height="100%" style="background-color: #0a0a14; font-family: 'Courier New', Courier, monospace;">
    <style>
        text { fill: #aaa; font-size: 10px; text-anchor: middle; dominant-baseline: middle; }
    </style>
    <text x="437.84" y="313.76">+</text>
<text x="357.57" y="252.02">+</text>
<text x="411.58" y="115.99">+</text>
<text x="315.67" y="413.24">.</text>
<text x="140.54" y="338.42">.</text>
<text x="150.62" y="120.11">*</text>
<text x="98.49" y="31.59">.</text>
<text x="300.94" y="402.35">+</text>
<text x="182.34" y="310.23">*</text>
<text x="208.27" y="382.16">*</text>
<text x="52.82" y="412.50">+</text>
<text x="296.89" y="291.94">+</text>
<text x="54.13" y="179.75">.</text>
<text x="395.54" y="171.52">+</text>
<text x="474.55" y="95.49">.</text>
<text x="110.97" y="391.75">+</text>
<text x="229.71" y="257.41">+</text>
<text x="201.33" y="140.94">.</text>
<text x="329.57" y="273.88">.</text>
<text x="11.13" y="300.42">+</text>
<text x="371.07" y="431.96">+</text>
<text x="476.54" y="8.08">+</text>
<text x="453.90" y="491.58">.</text>
<text x="376.86" y="421.00">+</text>
<text x="453.51" y="128.75">.</text>
<text x="19.49" y="374.07">+</text>
<text x="147.00" y="426.49">.</text>
<text x="343.20" y="278.57">+</text>
<text x="490.59" y="411.46">+</text>
<text x="298.93" y="133.42">+</text>
<text x="217.66" y="197.35">.</text>
<text x="407.02" y="327.32">+</text>
<text x="459.15" y="436.29">.</text>
<text x="185.88" y="57.66">*</text>
<text x="454.58" y="376.10">.</text>
<text x="218.34" y="42.61">+</text>
<text x="414.05" y="456.42">+</text>
<text x="394.67" y="182.29">+</text>
<text x="343.34" y="362.22">.</text>
<text x="397.87" y="205.52">+</text>
<text x="332.61" y="414.09">+</text>
<text x="377.08" y="185.81">+</text>
<text x="336.85" y="428.46">+</text>
<text x="124.53" y="487.56">.</text>
<text x="459.81" y="460.80">.</text>
<text x="173.08" y="70.56">.</text>
<text x="323.39" y="489.88">*</text>
<text x="351.90" y="113.20">+</text>
<text x="150.38" y="54.14">+</text>
<text x="277.10" y="117.12">+</text>
<text x="317.14" y="216.05">*</text>
<text x="346.33" y="116.02">+</text>
<text x="111.57" y="85.93">+</text>
<text x="312.89" y="311.90">+</text>
<text x="33.45" y="295.14">+</text>
<text x="354.85" y="402.26">.</text>
<text x="251.13" y="96.77">+</text>
<text x="477.82" y="283.43">.</text>
<text x="31.59" y="197.05">.</text>
<text x="407.10" y="311.80">+</text>
<text x="392.98" y="253.29">.</text>
<text x="29.82" y="137.15">+</text>
<text x="46.89" y="114.62">.</text>
<text x="292.41" y="365.91">+</text>
<text x="224.27" y="351.79">*</text>
<text x="78.64" y="34.91">.</text>
<text x="92.38" y="17.49">.</text>
<text x="107.53" y="218.59">+</text>
<text x="189.07" y="384.82">+</text>
<text x="325.74" y="113.54">.</text>
<text x="180.36" y="434.96">*</text>
<text x="138.45" y="61.93">.</text>
<text x="270.05" y="67.51">.</text>
<text x="269.57" y="235.50">.</text>
<text x="60.66" y="241.03">*</text>
<text x="385.53" y="381.37">*</text>
<text x="166.67" y="252.08">*</text>
<text x="410.85" y="330.62">*</text>
<text x="108.56" y="496.73">*</text>
<text x="232.46" y="190.82">.</text>
<text x="142.46" y="264.15">+</text>
<text x="418.86" y="362.87">.</text>
<text x="176.62" y="419.96">+</text>
<text x="493.93" y="66.92">.</text>
<text x="450.93" y="495.76">*</text>
<text x="301.88" y="360.93">*</text>
<text x="187.88" y="473.26">+</text>
<text x="437.88" y="329.41">+</text>
<text x="24.80" y="363.06">+</text>
<text x="464.45" y="78.84">+</text>
<text x="107.95" y="206.52">+</text>
<text x="47.61" y="469.39">+</text>
<text x="166.44" y="400.92">*</text>
<text x="458.04" y="453.33">.</text>
<text x="4.99" y="270.74">+</text>
<text x="23.94" y="469.14">+</text>
<text x="375.07" y="320.19">+</text>
<text x="130.48" y="210.30">.</text>
<text x="299.08" y="330.48">.</text>
<text x="321.68" y="219.03">+</text>
<text x="212.11" y="204.93">.</text>
<text x="54.26" y="339.01">.</text>
<text x="312.10" y="47.51">.</text>
<text x="107.57" y="29.60">*</text>
<text x="288.58" y="51.23">.</text>
<text x="114.46" y="269.31">+</text>
<text x="180.47" y="310.94">.</text>
<text x="253.68" y="286.74">.</text>
<text x="349.29" y="457.37">.</text>
<text x="473.25" y="447.30">+</text>
<text x="310.61" y="222.07">*</text>
<text x="490.25" y="393.41">+</text>
<text x="439.58" y="240.32">+</text>
<text x="195.61" y="356.17">+</text>
<text x="10.59" y="301.50">.</text>
<text x="408.04" y="13.76">+</text>
<text x="457.73" y="266.57">+</text>
<text x="228.06" y="278.47">.</text>
<text x="352.92" y="444.32">*</text>
<text x="464.16" y="125.37">*</text>
<text x="171.66" y="60.30">+</text>
<text x="40.19" y="13.46">.</text>
<text x="329.58" y="285.58">+</text>
<text x="492.34" y="118.42">+</text>
<text x="120.12" y="446.02">+</text>
<text x="79.82" y="160.05">.</text>
<text x="449.77" y="57.13">+</text>
<text x="461.12" y="9.42">*</text>
<text x="157.01" y="458.33">+</text>
<text x="306.30" y="268.52">*</text>
<text x="70.83" y="157.31">*</text>
<text x="209.93" y="470.28">*</text>
<text x="77.48" y="188.31">*</text>
<text x="167.21" y="138.77">*</text>
<text x="166.47" y="243.43">.</text>
<text x="404.87" y="101.13">*</text>
<text x="494.90" y="165.58">+</text>
<text x="444.88" y="360.80">.</text>
<text x="450.60" y="250.66">+</text>
<text x="268.54" y="363.28">+</text>
<text x="487.71" y="274.83">+</text>
<text x="346.47" y="138.37">.</text>
<text x="144.38" y="200.70">.</text>
<text x="318.19" y="143.85">+</text>
<text x="58.66" y="488.13">+</text>
<text x="404.86" y="471.91">.</text>
<text x="437.47" y="203.89">+</text>
<text x="268.94" y="485.34">+</text>
<text x="131.90" y="81.04">.</text>
<text x="104.07" y="94.19">.</text>
<text x="82.43" y="56.57">+</text>
<text x="420.05" y="168.32">+</text>
<text x="404.42" y="437.82">.</text>
<text x="315.70" y="179.69">.</text>
<text x="224.57" y="53.82">.</text>
<text x="192.55" y="279.23">+</text>
<text x="20.53" y="359.95">.</text>
<text x="138.03" y="203.80">.</text>
<text x="179.75" y="141.05">+</text>
<text x="24.54" y="365.57">.</text>
<text x="178.59" y="484.56">+</text>
<text x="458.92" y="458.76">+</text>
<text x="81.09" y="397.11">+</text>
<text x="351.00" y="159.04">+</text>
<text x="162.02" y="436.74">.</text>
<text x="280.19" y="232.19">.</text>
<text x="392.38" y="1.45">+</text>
<text x="200.39" y="219.84">.</text>
<text x="423.89" y="113.50">.</text>
<text x="478.25" y="89.02">+</text>
<text x="484.79" y="369.50">+</text>
<text x="367.37" y="220.20">+</text>
<text x="227.08" y="145.98">*</text>
<text x="192.06" y="483.39">+</text>
<text x="178.54" y="81.42">.</text>
<text x="371.97" y="189.96">+</text>
<text x="340.75" y="465.24">.</text>
<text x="269.71" y="448.24">.</text>
<text x="363.73" y="119.08">+</text>
<text x="390.84" y="219.49">+</text>
<text x="355.26" y="160.16">+</text>
<text x="149.07" y="240.45">+</text>
<text x="156.24" y="392.66">.</text>
<text x="250.65" y="161.51">.</text>
<text x="289.31" y="151.48">.</text>
<text x="319.36" y="125.37">+</text>
<text x="215.88" y="382.59">.</text>
<text x="231.36" y="213.00">+</text>
<text x="467.26" y="431.35">.</text>
<text x="94.81" y="350.61">*</text>
<text x="429.97" y="474.52">.</text>
<text x="263.08" y="78.30">*</text>
<text x="303.35" y="184.33">.</text>
<text x="338.56" y="335.13">+</text>
<text x="305.88" y="92.63">+</text>
<text x="466.43" y="70.24">+</text>
<text x="251.10" y="386.24">*</text>
<text x="177.72" y="369.86">.</text>
<text x="43.78" y="107.55">.</text>
<text x="402.01" y="185.82">*</text>
<text x="205.52" y="350.97">.</text>
<text x="88.24" y="24.36">*</text>
<text x="100.07" y="497.45">+</text>
<text x="140.07" y="391.55">+</text>
<text x="304.61" y="327.89">.</text>
<text x="447.86" y="83.80">.</text>
<text x="30.34" y="316.50">+</text>
<text x="329.73" y="398.58">+</text>
<text x="221.43" y="289.51">+</text>
<text x="427.36" y="84.15">+</text>
<text x="168.78" y="290.81">+</text>
<text x="454.56" y="231.28">.</text>
<text x="159.88" y="2.65">+</text>
<text x="99.72" y="162.54">.</text>
<text x="216.80" y="200.69">+</text>
<text x="340.91" y="230.25">.</text>

</svg>