
<svg viewBox="0 0 500 500" xmlns="http://www.w.org/2000/svg" width="100%" height="100%" style="background-color: #0a0a14; font-family: 'Courier New', Courier, monospace;">
    <style>
        text { fill: #aaa; font-size: 10px; text-anchor: middle; dominant-baseline: middle; }
    </style>
    <text x="264.09" y="274.93">+</text>
<text x="467.51" y="230.88">.</text>
<text x="20.34" y="431.76">+</text>
<text x="467.22" y="347.90">+</text>
<text x="374.20" y="436.77">.</text>
<text x="129.85" y="307.30">.</text>
<text x="129.71" y="306.53">.</text>
<text x="451.27" y="287.11">+</text>
<text x="146.43" y="250.54">+</text>
<text x="365.30" y="165.30">+</text>
<text x="360.73" y="134.51">.</text>
<text x="118.83" y="266.15">.</text>
<text x="7.05" y="79.02">.</text>
<text x="170.91" y="253.98">.</text>
<text x="207.23" y="304.56">.</text>
<text x="191.10" y="363.52">.</text>
<text x="83.93" y="127.24">+</text>
<text x="325.32" y="256.46">.</text>
<text x="93.10" y="71.35">+</text>
<text x="84.52" y="483.46">.</text>
<text x="392.78" y="402.93">+</text>
<text x="491.24" y="481.88">+</text>
<text x="432.83" y="43.97">.</text>
<text x="107.68" y="495.75">*</text>
<text x="145.52" y="44.71">+</text>
<text x="252.33" y="437.30">.</text>
<text x="171.98" y="4.81">.</text>
<text x="198.42" y="63.61">.</text>
<text x="371.26" y="183.67">.</text>
<text x="110.71" y="153.50">.</text>
<text x="289.11" y="110.12">+</text>
<text x="367.26" y="372.20">.</text>
<text x="224.77" y="124.45">*</text>
<text x="458.72" y="171.35">.</text>
<text x="8.68" y="122.90">*</text>
<text x="462.45" y="78.31">*</text>
<text x="310.23" y="424.04">.</text>
<text x="387.12" y="370.00">.</text>
<text x="470.99" y="294.82">.</text>
<text x="114.44" y="319.84">+</text>
<text x="6.03" y="423.43">.</text>
<text x="154.54" y="59.88">.</text>
<text x="313.73" y="227.52">*</text>
<text x="44.49" y="345.73">*</text>
<text x="431.29" y="209.08">.</text>
<text x="319.23" y="277.72">+</text>
<text x="232.20" y="72.16">.</text>
<text x="233.87" y="242.27">.</text>
<text x="290.04" y="179.54">.</text>
<text x="466.49" y="177.04">+</text>
<text x="411.88" y="372.64">+</text>
<text x="270.09" y="105.40">.</text>
<text x="74.19" y="315.40">.</text>
<text x="359.79" y="368.13">*</text>
<text x="96.14" y="342.79">*</text>
<text x="18.19" y="240.11">.</text>
<text x="58.61" y="461.35">.</text>
<text x="177.63" y="325.17">.</text>
<text x="221.45" y="430.07">+</text>
<text x="489.39" y="466.29">.</text>
<text x="182.12" y="294.71">.</text>
<text x="460.50" y="82.05">+</text>
<text x="443.73" y="267.00">.</text>
<text x="18.16" y="385.20">+</text>
<text x="377.81" y="398.14">+</text>
<text x="189.32" y="26.83">.</text>
<text x="319.87" y="274.20">.</text>
<text x="264.03" y="12.02">+</text>
<text x="6.71" y="200.14">+</text>
<text x="203.27" y="147.67">+</text>
<text x="240.70" y="91.96">*</text>
<text x="494.36" y="122.77">+</text>
<text x="189.25" y="167.37">+</text>
<text x="373.47" y="231.95">+</text>
<text x="53.00" y="244.76">.</text>
<text x="422.05" y="77.33">+</text>
<text x="151.17" y="130.79">+</text>
<text x="254.39" y="358.12">+</text>
<text x="27.73" y="398.95">+</text>
<text x="424.06" y="10.76">+</text>
<text x="137.70" y="157.19">*</text>
<text x="122.89" y="372.07">*</text>
<text x="232.99" y="196.52">.</text>
<text x="317.22" y="120.66">.</text>
<text x="65.79" y="199.98">.</text>
<text x="257.92" y="110.59">+</text>
<text x="389.35" y="94.54">+</text>
<text x="233.21" y="261.92">*</text>
<text x="180.93" y="178.35">.</text>
<text x="19.77" y="134.68">+</text>
<text x="139.78" y="29.44">.</text>
<text x="378.01" y="36.42">+</text>
<text x="126.81" y="283.23">.</text>
<text x="182.95" y="209.26">*</text>
<text x="118.08" y="351.90">.</text>
<text x="334.07" y="24.92">+</text>
<text x="250.08" y="247.15">+</text>
<text x="232.62" y="429.20">+</text>
<text x="336.94" y="431.40">+</text>
<text x="83.01" y="271.70">*</text>
<text x="482.05" y="334.74">*</text>
<text x="272.35" y="491.61">.</text>
<text x="377.78" y="189.08">+</text>
<text x="439.78" y="466.37">.</text>
<text x="418.35" y="499.35">+</text>
<text x="363.29" y="499.48">+</text>
<text x="480.36" y="217.89">.</text>
<text x="132.89" y="237.50">+</text>
<text x="493.12" y="100.40">.</text>
<text x="142.94" y="404.47">.</text>
<text x="397.46" y="212.22">+</text>
<text x="185.95" y="334.82">.</text>
<text x="441.74" y="23.64">*</text>
<text x="106.96" y="338.91">+</text>
<text x="38.35" y="237.39">.</text>
<text x="321.92" y="324.70">.</text>
<text x="438.35" y="388.00">.</text>
<text x="313.31" y="368.95">+</text>
<text x="472.88" y="178.20">+</text>
<text x="268.20" y="370.90">+</text>
<text x="66.80" y="480.43">.</text>
<text x="211.24" y="146.02">+</text>
<text x="93.04" y="476.56">.</text>
<text x="128.42" y="54.78">.</text>
<text x="248.37" y="245.20">+</text>
<text x="236.49" y="152.34">.</text>
<text x="62.50" y="52.81">.</text>
<text x="103.52" y="183.75">*</text>
<text x="337.59" y="168.55">.</text>
<text x="421.72" y="235.56">+</text>
<text x="174.96" y="47.89">.</text>
<text x="479.84" y="487.66">+</text>
<text x="466.10" y="261.80">.</text>
<text x="94.95" y="333.49">.</text>
<text x="435.74" y="383.16">+</text>
<text x="297.91" y="462.65">.</text>
<text x="28.12" y="57.47">+</text>
<text x="288.03" y="328.47">.</text>
<text x="79.12" y="136.41">.</text>
<text x="95.38" y="295.66">.</text>
<text x="322.61" y="123.89">.</text>
<text x="121.47" y="86.74">.</text>
<text x="263.85" y="167.38">+</text>
<text x="103.81" y="458.16">+</text>
<text x="477.38" y="14.37">.</text>
<text x="469.75" y="174.62">.</text>
<text x="301.77" y="329.82">.</text>
<text x="153.89" y="353.62">+</text>
<text x="358.85" y="328.71">+</text>
<text x="122.31" y="353.86">*</text>
<text x="134.40" y="179.42">+</text>
<text x="393.04" y="491.56">+</text>
<text x="188.44" y="419.17">+</text>
<text x="45.00" y="492.46">+</text>
<text x="5.63" y="468.28">.</text>
<text x="358.36" y="492.65">+</text>
<text x="182.65" y="442.06">+</text>
<text x="405.94" y="250.91">+</text>
<text x="87.61" y="195.94">.</text>
<text x="376.68" y="153.03">.</text>
<text x="313.88" y="398.84">.</text>
<text x="371.84" y="147.51">+</text>
<text x="30.85" y="210.59">+</text>
<text x="330.57" y="266.21">+</text>
<text x="222.79" y="192.77">+</text>
<text x="448.92" y="227.43">+</text>
<text x="415.31" y="225.11">.</text>
<text x="65.99" y="15.64">.</text>
<text x="359.46" y="395.98">+</text>
<text x="187.52" y="65.81">*</text>
<text x="344.29" y="441.69">+</text>
<text x="386.75" y="498.84">.</text>
<text x="220.68" y="204.74">+</text>
<text x="294.01" y="451.59">.</text>
<text x="50.38" y="91.43">+</text>
<text x="386.81" y="437.87">+</text>
<text x="52.83" y="460.97">.</text>
<text x="430.32" y="209.31">.</text>
<text x="463.17" y="324.91">+</text>
<text x="274.67" y="277.60">.</text>
<text x="471.28" y="390.67">.</text>
<text x="278.67" y="195.03">+</text>
<text x="199.53" y="60.55">.</text>
<text x="86.80" y="354.92">.</text>
<text x="146.97" y="328.38">.</text>
<text x="339.63" y="287.40">*</text>
<text x="441.99" y="354.72">+</text>
<text x="134.38" y="225.38">+</text>
<text x="304.14" y="151.86">+</text>
<text x="140.76" y="173.64">+</text>
<text x="237.25" y="150.86">.</text>
<text x="290.90" y="124.75">.</text>
<text x="149.35" y="228.82">.</text>
<text x="126.09" y="125.52">*</text>
<text x="60.56" y="116.24">+</text>
<text x="54.76" y="51.50">.</text>
<text x="15.45" y="9.94">.</text>
<text x="14.19" y="171.57">.</text>
<text x="354.10" y="447.90">+</text>
<text x="389.46" y="102.55">.</text>
<text x="279.21" y="397.81">+</text>
<text x="293.66" y="93.14">+</text>
<text x="269.91" y="145.56">*</text>
<text x="202.57" y="50.91">+</text>
<text x="280.43" y="281.11">+</text>
<text x="399.35" y="153.79">+</text>
<text x="483.21" y="51.17">.</text>
<text x="191.47" y="220.40">*</text>
<text x="272.28" y="199.15">.</text>
<text x="268.82" y="451.17">+</text>
<text x="97.04" y="364.22">+</text>
<text x="384.94" y="360.90">.</text>
<text x="322.92" y="305.81">+</text>
<text x="464.81" y="244.63">.</text>
<text x="324.92" y="308.30">+</text>
<text x="18.00" y="179.16">.</text>

</svg>