
<svg viewBox="0 0 500 500" xmlns="http://www.w.org/2000/svg" width="100%" height="100%" style="background-color: #0a0a14; font-family: 'Courier New', Courier, monospace;">
    <style>
        text { fill: #aaa; font-size: 10px; text-anchor: middle; dominant-baseline: middle; }
    </style>
    <text x="480.70" y="227.97">.</text>
<text x="273.28" y="486.12">+</text>
<text x="219.76" y="285.48">*</text>
<text x="311.68" y="465.81">*</text>
<text x="106.18" y="128.23">*</text>
<text x="132.30" y="464.16">+</text>
<text x="36.18" y="406.86">.</text>
<text x="464.74" y="476.27">*</text>
<text x="57.50" y="138.23">.</text>
<text x="474.08" y="23.40">.</text>
<text x="390.38" y="107.50">.</text>
<text x="337.30" y="159.15">.</text>
<text x="206.86" y="237.81">.</text>
<text x="290.26" y="122.35">+</text>
<text x="27.48" y="38.94">+</text>
<text x="235.45" y="83.58">*</text>
<text x="26.67" y="470.89">.</text>
<text x="479.86" y="386.40">.</text>
<text x="470.90" y="193.46">+</text>
<text x="418.68" y="400.85">.</text>
<text x="385.41" y="101.05">+</text>
<text x="245.32" y="0.08">.</text>
<text x="405.45" y="53.48">.</text>
<text x="248.67" y="309.96">.</text>
<text x="274.80" y="462.84">.</text>
<text x="468.45" y="488.22">*</text>
<text x="231.08" y="70.69">+</text>
<text x="125.21" y="488.56">.</text>
<text x="287.13" y="78.20">*</text>
<text x="214.96" y="118.96">.</text>
<text x="316.51" y="409.90">.</text>
<text x="192.49" y="371.41">+</text>
<text x="297.31" y="121.30">.</text>
<text x="216.26" y="63.79">.</text>
<text x="198.66" y="495.77">*</text>
<text x="196.25" y="294.19">.</text>
<text x="193.65" y="386.99">+</text>
<text x="398.80" y="120.30">+</text>
<text x="488.06" y="113.23">+</text>
<text x="215.98" y="403.90">.</text>
<text x="124.40" y="35.08">*</text>
<text x="314.02" y="404.71">.</text>
<text x="258.23" y="392.77">.</text>
<text x="263.54" y="271.26">+</text>
<text x="484.79" y="298.31">+</text>
<text x="61.67" y="167.69">.</text>
<text x="426.01" y="14.56">+</text>
<text x="141.32" y="151.27">+</text>
<text x="297.93" y="197.33">.</text>
<text x="77.12" y="353.42">+</text>
<text x="481.80" y="84.64">.</text>
<text x="10.97" y="146.78">+</text>
<text x="172.41" y="101.63">.</text>
<text x="248.77" y="233.84">.</text>
<text x="352.11" y="343.72">+</text>
<text x="135.91" y="406.50">*</text>
<text x="456.27" y="219.44">.</text>
<text x="282.19" y="327.47">+</text>
<text x="465.40" y="338.46">*</text>
<text x="79.76" y="466.91">+</text>
<text x="38.58" y="110.31">+</text>
<text x="296.83" y="286.43">*</text>
<text x="379.98" y="148.67">.</text>
<text x="490.41" y="406.82">+</text>
<text x="456.35" y="322.48">.</text>
<text x="93.04" y="488.77">.</text>
<text x="148.91" y="158.05">.</text>
<text x="0.94" y="310.92">.</text>
<text x="241.80" y="318.58">+</text>
<text x="337.70" y="473.69">+</text>
<text x="465.54" y="419.54">.</text>
<text x="2.97" y="140.12">.</text>
<text x="374.36" y="251.01">.</text>
<text x="406.67" y="405.05">.</text>
<text x="15.54" y="495.12">+</text>
<text x="157.67" y="490.32">+</text>
<text x="353.78" y="295.03">.</text>
<text x="344.07" y="168.20">.</text>
<text x="466.30" y="434.05">.</text>
<text x="347.27" y="18.13">+</text>
<text x="76.17" y="32.85">+</text>
<text x="491.93" y="132.54">+</text>
<text x="227.32" y="354.35">+</text>
<text x="185.37" y="420.20">+</text>
<text x="417.62" y="267.17">*</text>
<text x="315.20" y="331.18">+</text>
<text x="468.92" y="82.41">+</text>
<text x="183.76" y="253.00">+</text>
<text x="321.19" y="134.15">*</text>
<text x="284.55" y="168.86">.</text>
<text x="70.19" y="52.50">+</text>
<text x="179.03" y="386.07">.</text>
<text x="319.01" y="260.50">+</text>
<text x="349.94" y="333.58">*</text>
<text x="274.71" y="37.97">*</text>
<text x="236.87" y="412.64">+</text>
<text x="112.29" y="136.11">+</text>
<text x="282.99" y="377.38">.</text>
<text x="54.74" y="394.71">+</text>
<text x="312.30" y="174.43">*</text>
<text x="419.53" y="31.74">.</text>
<text x="404.27" y="276.49">+</text>
<text x="190.59" y="59.79">.</text>
<text x="29.97" y="282.07">.</text>
<text x="131.67" y="44.04">+</text>
<text x="261.86" y="69.25">+</text>
<text x="75.27" y="101.06">+</text>
<text x="187.64" y="18.56">*</text>
<text x="192.27" y="95.45">+</text>
<text x="299.94" y="344.74">+</text>
<text x="322.52" y="292.81">+</text>
<text x="38.30" y="72.10">.</text>
<text x="455.55" y="11.08">.</text>
<text x="105.92" y="196.66">+</text>
<text x="260.88" y="298.40">+</text>
<text x="174.96" y="140.24">+</text>
<text x="330.01" y="124.31">+</text>
<text x="428.44" y="27.39">+</text>
<text x="426.14" y="204.52">.</text>
<text x="155.60" y="414.92">.</text>
<text x="68.80" y="498.94">*</text>
<text x="379.99" y="215.69">.</text>
<text x="262.00" y="483.13">*</text>
<text x="433.89" y="14.65">.</text>
<text x="246.87" y="239.19">.</text>
<text x="474.19" y="123.49">+</text>
<text x="77.53" y="57.59">+</text>
<text x="498.27" y="391.09">.</text>
<text x="472.67" y="130.91">.</text>
<text x="180.49" y="390.20">.</text>
<text x="172.01" y="352.77">.</text>
<text x="448.99" y="303.52">*</text>
<text x="272.84" y="215.45">.</text>
<text x="141.20" y="63.32">+</text>
<text x="355.40" y="162.77">*</text>
<text x="418.52" y="446.45">+</text>
<text x="282.99" y="240.38">+</text>
<text x="457.20" y="215.39">*</text>
<text x="421.49" y="51.58">.</text>
<text x="301.24" y="93.74">.</text>
<text x="361.26" y="101.66">.</text>
<text x="137.97" y="269.82">*</text>
<text x="86.89" y="455.32">.</text>
<text x="468.16" y="169.31">+</text>
<text x="278.73" y="238.04">.</text>
<text x="498.97" y="301.91">.</text>
<text x="27.70" y="453.71">.</text>
<text x="366.47" y="476.28">+</text>
<text x="424.86" y="111.99">*</text>
<text x="474.89" y="114.98">.</text>
<text x="325.64" y="489.51">.</text>
<text x="38.13" y="474.06">.</text>
<text x="369.53" y="379.53">+</text>
<text x="411.26" y="4.35">.</text>
<text x="364.85" y="243.38">.</text>
<text x="127.27" y="141.40">+</text>
<text x="238.72" y="94.35">+</text>
<text x="104.78" y="59.17">+</text>
<text x="259.16" y="132.19">*</text>
<text x="444.80" y="201.75">+</text>
<text x="46.66" y="415.01">.</text>
<text x="114.47" y="93.79">+</text>
<text x="396.31" y="282.06">+</text>
<text x="191.82" y="168.97">*</text>
<text x="410.74" y="405.27">.</text>
<text x="351.91" y="23.42">+</text>
<text x="394.44" y="132.24">*</text>
<text x="0.64" y="268.03">.</text>
<text x="45.20" y="350.62">+</text>
<text x="109.66" y="35.21">.</text>
<text x="120.33" y="361.99">+</text>
<text x="28.09" y="180.13">+</text>
<text x="377.83" y="124.74">+</text>
<text x="312.67" y="401.54">.</text>
<text x="232.54" y="370.72">.</text>
<text x="45.98" y="94.32">.</text>
<text x="232.52" y="25.01">+</text>
<text x="37.07" y="383.76">+</text>
<text x="298.73" y="114.57">.</text>
<text x="213.12" y="407.75">.</text>
<text x="410.97" y="343.43">+</text>
<text x="190.52" y="186.44">.</text>
<text x="174.47" y="369.07">.</text>
<text x="0.77" y="443.70">+</text>
<text x="363.84" y="221.41">+</text>
<text x="420.48" y="195.78">.</text>
<text x="371.65" y="292.55">.</text>
<text x="315.19" y="295.39">.</text>
<text x="333.75" y="210.00">*</text>
<text x="109.21" y="64.10">.</text>
<text x="348.42" y="394.21">.</text>
<text x="342.93" y="448.84">.</text>
<text x="321.57" y="268.94">+</text>
<text x="451.42" y="70.03">+</text>
<text x="120.92" y="4.40">+</text>
<text x="23.70" y="19.31">+</text>
<text x="111.73" y="374.99">.</text>
<text x="159.38" y="227.49">.</text>
<text x="323.54" y="143.16">.</text>
<text x="416.47" y="482.18">*</text>
<text x="225.78" y="93.09">+</text>
<text x="323.52" y="206.94">+</text>
<text x="21.46" y="63.75">.</text>
<text x="441.80" y="48.43">+</text>
<text x="316.91" y="281.73">+</text>
<text x="113.40" y="465.83">+</text>

</svg>