
<svg viewBox="0 0 500 500" xmlns="http://www.w.org/2000/svg" width="100%" height="100%" style="background-color: #0a0a14; font-family: 'Courier New', Courier, monospace;">
    <style>
        text { fill: #aaa; font-size: 10px; text-anchor: middle; dominant-baseline: middle; }
    </style>
    <text x="141.38" y="336.04">.</text>
<text x="38.97" y="97.20">+</text>
<text x="447.77" y="127.95">.</text>
<text x="218.30" y="245.75">+</text>
<text x="405.48" y="49.72">.</text>
<text x="235.23" y="467.67">.</text>
<text x="106.75" y="98.06">+</text>
<text x="136.47" y="380.31">.</text>
<text x="472.78" y="414.73">.</text>
<text x="278.35" y="155.86">.</text>
<text x="43.08" y="416.10">+</text>
<text x="120.78" y="356.29">.</text>
<text x="441.22" y="375.50">+</text>
<text x="202.02" y="162.08">+</text>
<text x="8.66" y="0.86">+</text>
<text x="404.63" y="2.41">+</text>
<text x="168.26" y="225.65">.</text>
<text x="31.83" y="127.99">.</text>
<text x="382.83" y="367.96">.</text>
<text x="368.44" y="126.58">+</text>
<text x="305.67" y="224.62">+</text>
<text x="125.24" y="40.47">*</text>
<text x="143.38" y="431.04">.</text>
<text x="11.86" y="135.98">*</text>
<text x="243.46" y="381.27">+</text>
<text x="134.69" y="78.00">.</text>
<text x="418.73" y="309.73">+</text>
<text x="68.26" y="207.27">+</text>
<text x="263.14" y="311.52">.</text>
<text x="396.25" y="224.03">.</text>
<text x="174.53" y="195.52">+</text>
<text x="182.60" y="324.49">.</text>
<text x="14.48" y="122.49">*</text>
<text x="102.64" y="243.62">.</text>
<text x="51.68" y="200.33">+</text>
<text x="459.68" y="130.06">.</text>
<text x="238.83" y="53.09">+</text>
<text x="268.92" y="312.22">+</text>
<text x="181.62" y="69.44">+</text>
<text x="455.27" y="113.15">.</text>
<text x="214.80" y="324.49">.</text>
<text x="79.13" y="230.12">+</text>
<text x="394.05" y="105.93">+</text>
<text x="268.23" y="65.06">.</text>
<text x="164.71" y="291.56">.</text>
<text x="277.65" y="99.32">+</text>
<text x="92.39" y="160.83">.</text>
<text x="411.78" y="395.54">.</text>
<text x="303.86" y="349.68">.</text>
<text x="136.75" y="181.97">.</text>
<text x="436.42" y="304.90">+</text>
<text x="493.21" y="8.15">*</text>
<text x="202.40" y="295.07">+</text>
<text x="487.25" y="188.56">+</text>
<text x="208.21" y="62.54">+</text>
<text x="288.75" y="230.92">+</text>
<text x="443.83" y="232.82">.</text>
<text x="474.95" y="163.78">.</text>
<text x="421.49" y="130.35">.</text>
<text x="327.39" y="390.42">.</text>
<text x="162.24" y="54.59">.</text>
<text x="266.87" y="37.48">.</text>
<text x="352.37" y="412.15">+</text>
<text x="119.43" y="208.54">+</text>
<text x="61.29" y="113.96">*</text>
<text x="213.31" y="79.82">.</text>
<text x="337.09" y="59.44">*</text>
<text x="347.31" y="296.22">.</text>
<text x="253.68" y="366.42">.</text>
<text x="326.92" y="449.81">.</text>
<text x="400.04" y="107.15">.</text>
<text x="468.21" y="194.51">*</text>
<text x="229.29" y="104.50">+</text>
<text x="175.45" y="477.84">+</text>
<text x="151.65" y="490.68">+</text>
<text x="210.31" y="150.28">.</text>
<text x="121.46" y="333.12">.</text>
<text x="474.15" y="19.17">+</text>
<text x="349.46" y="174.40">*</text>
<text x="444.15" y="174.93">+</text>
<text x="367.02" y="411.16">*</text>
<text x="314.33" y="20.91">+</text>
<text x="10.27" y="117.18">+</text>
<text x="244.83" y="273.85">+</text>
<text x="453.07" y="358.14">+</text>
<text x="468.52" y="324.49">.</text>
<text x="95.16" y="383.79">+</text>
<text x="435.74" y="9.16">+</text>
<text x="279.52" y="400.24">+</text>
<text x="148.95" y="76.00">.</text>
<text x="253.56" y="80.70">.</text>
<text x="303.91" y="278.46">+</text>
<text x="327.57" y="102.62">.</text>
<text x="13.26" y="320.10">+</text>
<text x="225.04" y="296.89">+</text>
<text x="109.64" y="325.01">.</text>
<text x="313.93" y="221.01">+</text>
<text x="456.47" y="380.09">*</text>
<text x="161.17" y="173.14">.</text>
<text x="429.85" y="476.55">+</text>
<text x="468.17" y="38.96">+</text>
<text x="368.99" y="386.51">.</text>
<text x="417.89" y="410.80">.</text>
<text x="54.55" y="66.79">+</text>
<text x="30.90" y="377.57">.</text>
<text x="256.79" y="78.05">+</text>
<text x="220.40" y="470.92">*</text>
<text x="477.14" y="226.56">.</text>
<text x="338.12" y="72.96">.</text>
<text x="42.32" y="472.65">.</text>
<text x="453.13" y="380.07">+</text>
<text x="334.32" y="237.75">.</text>
<text x="95.48" y="114.33">*</text>
<text x="317.32" y="179.11">*</text>
<text x="118.39" y="4.55">+</text>
<text x="313.04" y="73.67">.</text>
<text x="401.23" y="118.79">+</text>
<text x="434.47" y="241.00">*</text>
<text x="65.26" y="485.83">+</text>
<text x="315.38" y="400.92">*</text>
<text x="7.46" y="465.09">.</text>
<text x="25.12" y="437.72">+</text>
<text x="113.68" y="248.70">+</text>
<text x="9.79" y="157.28">+</text>
<text x="106.08" y="343.30">.</text>
<text x="309.21" y="381.08">.</text>
<text x="484.07" y="483.96">+</text>
<text x="96.18" y="23.18">+</text>
<text x="120.76" y="475.49">+</text>
<text x="356.86" y="193.24">.</text>
<text x="60.40" y="466.49">+</text>
<text x="291.90" y="89.47">.</text>
<text x="167.42" y="273.09">.</text>
<text x="371.64" y="363.41">+</text>
<text x="148.02" y="462.00">.</text>
<text x="266.35" y="433.63">.</text>
<text x="427.57" y="87.41">*</text>
<text x="18.10" y="231.16">.</text>
<text x="242.48" y="437.09">+</text>
<text x="357.84" y="220.95">.</text>
<text x="466.43" y="478.14">+</text>
<text x="7.95" y="377.69">.</text>
<text x="80.04" y="22.81">.</text>
<text x="369.37" y="96.81">+</text>
<text x="437.70" y="38.52">.</text>
<text x="328.81" y="211.83">.</text>
<text x="121.95" y="312.99">*</text>
<text x="50.99" y="413.49">.</text>
<text x="9.13" y="493.47">+</text>
<text x="88.83" y="194.39">.</text>
<text x="271.10" y="463.39">+</text>
<text x="342.37" y="403.86">+</text>
<text x="260.84" y="341.03">.</text>
<text x="189.61" y="49.33">.</text>
<text x="101.63" y="80.46">.</text>
<text x="122.75" y="165.98">+</text>
<text x="410.15" y="163.60">*</text>
<text x="113.06" y="186.67">.</text>
<text x="314.62" y="226.63">.</text>
<text x="273.49" y="388.42">.</text>
<text x="60.94" y="101.76">+</text>
<text x="122.92" y="499.18">+</text>
<text x="258.41" y="107.69">.</text>
<text x="313.71" y="25.37">.</text>
<text x="134.29" y="365.59">+</text>
<text x="387.37" y="379.29">+</text>
<text x="84.08" y="183.54">.</text>
<text x="381.74" y="276.07">+</text>
<text x="131.44" y="151.41">.</text>
<text x="110.32" y="354.05">.</text>
<text x="407.41" y="172.85">.</text>
<text x="272.96" y="33.48">+</text>
<text x="157.00" y="69.46">+</text>
<text x="149.97" y="153.29">.</text>
<text x="211.87" y="389.17">.</text>
<text x="473.42" y="466.41">+</text>
<text x="281.15" y="3.78">.</text>
<text x="80.00" y="430.46">+</text>
<text x="95.92" y="327.66">*</text>
<text x="314.83" y="111.02">+</text>
<text x="465.36" y="86.98">.</text>
<text x="86.46" y="62.05">+</text>
<text x="239.16" y="108.38">+</text>
<text x="230.65" y="19.48">.</text>
<text x="49.74" y="434.51">.</text>
<text x="476.88" y="160.77">+</text>
<text x="175.50" y="480.73">+</text>
<text x="235.21" y="292.30">+</text>
<text x="432.74" y="198.47">+</text>
<text x="318.28" y="450.67">+</text>
<text x="290.32" y="239.99">.</text>
<text x="397.15" y="483.44">*</text>
<text x="492.06" y="46.08">+</text>
<text x="188.27" y="232.57">+</text>
<text x="340.41" y="127.54">*</text>
<text x="382.43" y="498.84">.</text>
<text x="42.77" y="481.39">*</text>
<text x="384.06" y="458.71">*</text>
<text x="65.03" y="221.10">.</text>
<text x="120.53" y="99.31">*</text>
<text x="258.68" y="304.91">+</text>
<text x="292.34" y="50.84">.</text>
<text x="72.43" y="305.80">.</text>
<text x="390.73" y="388.67">+</text>

</svg>