
<svg viewBox="0 0 500 500" xmlns="http://www.w.org/2000/svg" width="100%" height="100%" style="background-color: #0a0a14; font-family: 'Courier New', Courier, monospace;">
    <style>
        text { fill: #aaa; font-size: 10px; text-anchor: middle; dominant-baseline: middle; }
    </style>
    <text x="73.74" y="238.47">.</text>
<text x="499.37" y="94.77">.</text>
<text x="245.63" y="315.19">.</text>
<text x="129.26" y="332.39">.</text>
<text x="28.47" y="181.62">.</text>
<text x="329.32" y="140.51">.</text>
<text x="200.05" y="29.40">.</text>
<text x="19.94" y="50.46">.</text>
<text x="289.15" y="314.34">+</text>
<text x="134.55" y="410.02">.</text>
<text x="259.82" y="387.24">.</text>
<text x="169.14" y="154.31">+</text>
<text x="27.82" y="224.39">.</text>
<text x="463.12" y="467.48">+</text>
<text x="49.73" y="224.19">.</text>
<text x="341.58" y="201.67">+</text>
<text x="85.99" y="203.46">.</text>
<text x="468.85" y="438.46">*</text>
<text x="379.58" y="103.79">.</text>
<text x="209.78" y="231.63">*</text>
<text x="307.14" y="140.88">+</text>
<text x="339.86" y="198.66">+</text>
<text x="401.42" y="133.64">+</text>
<text x="234.03" y="250.28">.</text>
<text x="354.69" y="454.69">+</text>
<text x="164.54" y="179.46">*</text>
<text x="16.57" y="69.35">.</text>
<text x="306.83" y="486.34">.</text>
<text x="321.15" y="224.81">.</text>
<text x="142.89" y="435.22">+</text>
<text x="304.32" y="402.81">.</text>
<text x="375.79" y="383.65">.</text>
<text x="314.97" y="100.07">*</text>
<text x="128.12" y="388.17">.</text>
<text x="490.85" y="440.98">.</text>
<text x="361.13" y="325.24">.</text>
<text x="256.13" y="131.54">.</text>
<text x="367.36" y="85.77">+</text>
<text x="131.58" y="327.79">+</text>
<text x="484.48" y="342.62">*</text>
<text x="275.25" y="401.96">+</text>
<text x="413.05" y="463.82">+</text>
<text x="295.79" y="196.73">+</text>
<text x="61.28" y="386.54">.</text>
<text x="73.16" y="63.87">.</text>
<text x="298.14" y="76.31">.</text>
<text x="455.75" y="166.16">.</text>
<text x="229.35" y="146.06">.</text>
<text x="451.77" y="248.52">.</text>
<text x="394.30" y="403.78">+</text>
<text x="341.27" y="421.50">*</text>
<text x="35.28" y="95.72">+</text>
<text x="363.75" y="404.73">+</text>
<text x="140.60" y="151.29">*</text>
<text x="383.69" y="106.69">.</text>
<text x="380.50" y="342.69">.</text>
<text x="393.95" y="301.56">+</text>
<text x="463.13" y="428.25">+</text>
<text x="58.93" y="408.61">+</text>
<text x="44.56" y="444.71">+</text>
<text x="418.46" y="422.70">+</text>
<text x="119.10" y="232.48">.</text>
<text x="467.09" y="452.50">.</text>
<text x="104.24" y="436.41">.</text>
<text x="431.64" y="87.22">.</text>
<text x="119.55" y="386.51">*</text>
<text x="201.74" y="236.77">*</text>
<text x="418.35" y="243.52">.</text>
<text x="430.94" y="298.66">.</text>
<text x="373.79" y="457.08">+</text>
<text x="476.70" y="149.53">.</text>
<text x="160.03" y="298.79">+</text>
<text x="263.96" y="32.51">+</text>
<text x="83.92" y="110.36">+</text>
<text x="352.81" y="37.60">+</text>
<text x="379.49" y="153.18">.</text>
<text x="491.97" y="119.82">.</text>
<text x="466.39" y="417.41">*</text>
<text x="207.14" y="39.11">+</text>
<text x="123.38" y="349.67">.</text>
<text x="112.75" y="47.30">+</text>
<text x="142.57" y="198.77">*</text>
<text x="283.76" y="100.03">.</text>
<text x="299.93" y="220.47">+</text>
<text x="0.92" y="335.85">+</text>
<text x="214.55" y="360.95">*</text>
<text x="214.41" y="93.99">.</text>
<text x="363.91" y="24.73">+</text>
<text x="219.12" y="393.61">+</text>
<text x="67.61" y="450.22">.</text>
<text x="79.38" y="55.94">.</text>
<text x="29.84" y="157.78">+</text>
<text x="46.65" y="470.23">.</text>
<text x="64.96" y="353.13">.</text>
<text x="352.73" y="156.89">+</text>
<text x="301.97" y="99.45">.</text>
<text x="341.58" y="432.14">*</text>
<text x="51.18" y="242.95">.</text>
<text x="121.87" y="455.05">+</text>
<text x="473.42" y="7.31">+</text>
<text x="366.71" y="99.95">*</text>
<text x="426.62" y="120.92">*</text>
<text x="339.69" y="165.22">*</text>
<text x="205.64" y="288.63">+</text>
<text x="235.69" y="382.51">.</text>
<text x="462.89" y="402.09">+</text>
<text x="458.97" y="343.08">.</text>
<text x="107.22" y="71.60">.</text>
<text x="419.76" y="278.53">.</text>
<text x="454.64" y="283.48">+</text>
<text x="470.36" y="136.87">.</text>
<text x="24.10" y="268.86">+</text>
<text x="382.94" y="67.94">+</text>
<text x="427.61" y="325.14">+</text>
<text x="217.52" y="229.41">+</text>
<text x="441.56" y="310.69">*</text>
<text x="350.81" y="251.27">+</text>
<text x="436.20" y="328.48">.</text>
<text x="312.38" y="392.03">+</text>
<text x="175.94" y="426.14">+</text>
<text x="427.43" y="492.57">.</text>
<text x="66.30" y="114.35">.</text>
<text x="85.50" y="154.66">.</text>
<text x="309.25" y="378.94">.</text>
<text x="230.49" y="273.15">.</text>
<text x="213.02" y="242.52">+</text>
<text x="12.32" y="307.73">+</text>
<text x="442.03" y="360.74">+</text>
<text x="65.31" y="286.12">.</text>
<text x="147.40" y="0.96">.</text>
<text x="22.86" y="399.51">.</text>
<text x="326.13" y="274.76">*</text>
<text x="205.64" y="24.28">.</text>
<text x="287.72" y="266.20">+</text>
<text x="346.79" y="5.58">+</text>
<text x="309.11" y="208.54">+</text>
<text x="42.70" y="265.62">.</text>
<text x="462.10" y="371.12">.</text>
<text x="137.86" y="136.16">.</text>
<text x="80.01" y="357.71">.</text>
<text x="226.76" y="232.77">.</text>
<text x="127.42" y="248.46">+</text>
<text x="72.64" y="478.54">+</text>
<text x="467.53" y="392.37">*</text>
<text x="443.50" y="293.97">+</text>
<text x="257.25" y="340.73">+</text>
<text x="394.42" y="305.02">.</text>
<text x="421.05" y="444.07">.</text>
<text x="81.44" y="372.50">.</text>
<text x="350.39" y="222.21">.</text>
<text x="311.23" y="169.56">.</text>
<text x="218.98" y="460.27">+</text>
<text x="266.64" y="429.28">+</text>
<text x="335.88" y="157.58">.</text>
<text x="119.68" y="449.47">+</text>
<text x="275.09" y="1.56">+</text>
<text x="312.62" y="387.30">+</text>
<text x="246.10" y="105.99">.</text>
<text x="191.69" y="168.99">.</text>
<text x="293.97" y="174.93">.</text>
<text x="462.96" y="218.76">.</text>
<text x="282.71" y="378.81">*</text>
<text x="66.46" y="379.38">*</text>
<text x="306.75" y="402.48">.</text>
<text x="175.65" y="100.11">+</text>
<text x="388.11" y="232.96">+</text>
<text x="95.59" y="2.73">+</text>
<text x="156.84" y="460.49">+</text>
<text x="234.17" y="440.54">.</text>
<text x="14.06" y="169.96">.</text>
<text x="309.77" y="217.84">+</text>
<text x="434.10" y="156.78">.</text>
<text x="129.57" y="288.23">+</text>
<text x="271.61" y="72.81">+</text>
<text x="66.83" y="154.91">+</text>
<text x="363.09" y="237.19">+</text>
<text x="496.40" y="310.04">*</text>
<text x="417.35" y="103.76">.</text>
<text x="68.14" y="71.39">.</text>
<text x="189.68" y="489.94">.</text>
<text x="140.06" y="186.99">+</text>
<text x="65.92" y="367.21">*</text>
<text x="165.03" y="408.32">.</text>
<text x="12.02" y="86.81">+</text>
<text x="46.53" y="479.82">*</text>
<text x="282.34" y="196.24">+</text>
<text x="385.04" y="252.15">+</text>
<text x="192.16" y="156.82">+</text>
<text x="297.14" y="104.90">.</text>
<text x="378.58" y="389.78">+</text>
<text x="245.69" y="415.90">+</text>
<text x="330.85" y="336.93">+</text>
<text x="141.59" y="22.02">.</text>
<text x="193.96" y="84.57">.</text>
<text x="84.59" y="331.17">.</text>
<text x="122.10" y="244.45">+</text>
<text x="87.16" y="396.18">.</text>
<text x="274.81" y="311.19">+</text>
<text x="79.57" y="257.85">+</text>
<text x="391.11" y="176.33">*</text>
<text x="170.74" y="323.91">.</text>
<text x="214.44" y="303.81">+</text>
<text x="354.47" y="367.59">+</text>
<text x="498.23" y="289.59">.</text>
<text x="14.15" y="24.10">*</text>
<text x="249.24" y="64.88">.</text>
<text x="32.76" y="296.41">.</text>
<text x="395.10" y="168.35">.</text>
<text x="166.07" y="31.22">+</text>
<text x="199.36" y="362.45">+</text>
<text x="389.82" y="162.34">.</text>
<text x="273.21" y="69.31">+</text>
<text x="225.00" y="183.38">+</text>
<text x="141.07" y="27.17">.</text>
<text x="132.54" y="281.66">*</text>
<text x="289.18" y="325.51">+</text>
<text x="495.64" y="143.16">.</text>
<text x="302.95" y="165.32">*</text>
<text x="460.12" y="401.42">.</text>
<text x="341.07" y="404.49">+</text>
<text x="432.15" y="4.93">+</text>
<text x="366.84" y="311.93">.</text>
<text x="156.11" y="7.92">.</text>
<text x="459.54" y="419.79">+</text>

</svg>