
<svg viewBox="0 0 500 500" xmlns="http://www.w.org/2000/svg" width="100%" height="100%" style="background-color: #0a0a14; font-family: 'Courier New', Courier, monospace;">
    <style>
        text { fill: #aaa; font-size: 10px; text-anchor: middle; dominant-baseline: middle; }
    </style>
    <text x="153.29" y="405.86">+</text>
<text x="279.63" y="455.22">.</text>
<text x="81.26" y="494.41">+</text>
<text x="431.29" y="164.19">+</text>
<text x="116.51" y="330.72">.</text>
<text x="177.80" y="26.40">.</text>
<text x="112.57" y="78.95">.</text>
<text x="279.03" y="443.06">+</text>
<text x="73.40" y="381.74">.</text>
<text x="133.27" y="223.06">.</text>
<text x="64.22" y="16.51">.</text>
<text x="126.12" y="496.66">.</text>
<text x="378.21" y="255.49">+</text>
<text x="431.76" y="151.02">.</text>
<text x="310.30" y="204.85">+</text>
<text x="180.55" y="13.48">.</text>
<text x="378.36" y="494.77">+</text>
<text x="132.46" y="187.67">*</text>
<text x="430.89" y="260.44">+</text>
<text x="52.45" y="374.12">*</text>
<text x="77.31" y="364.60">+</text>
<text x="353.94" y="113.88">+</text>
<text x="221.56" y="74.84">*</text>
<text x="15.78" y="151.31">+</text>
<text x="199.76" y="348.35">+</text>
<text x="334.44" y="411.01">.</text>
<text x="460.37" y="146.00">.</text>
<text x="195.79" y="247.11">.</text>
<text x="184.49" y="135.57">*</text>
<text x="233.38" y="286.73">+</text>
<text x="101.23" y="227.67">+</text>
<text x="297.59" y="406.19">.</text>
<text x="262.18" y="7.51">*</text>
<text x="120.10" y="120.98">+</text>
<text x="111.73" y="392.68">+</text>
<text x="343.69" y="283.19">.</text>
<text x="178.78" y="415.06">+</text>
<text x="297.80" y="21.56">*</text>
<text x="31.87" y="160.25">+</text>
<text x="192.48" y="307.85">*</text>
<text x="104.76" y="140.26">*</text>
<text x="176.41" y="24.60">.</text>
<text x="13.20" y="209.91">+</text>
<text x="297.97" y="317.54">+</text>
<text x="94.97" y="204.65">+</text>
<text x="185.57" y="409.76">.</text>
<text x="8.68" y="6.54">.</text>
<text x="2.92" y="42.23">*</text>
<text x="167.80" y="390.69">+</text>
<text x="291.29" y="358.00">.</text>
<text x="109.75" y="362.92">*</text>
<text x="45.34" y="462.96">+</text>
<text x="421.22" y="425.71">+</text>
<text x="251.16" y="165.96">.</text>
<text x="465.89" y="229.85">+</text>
<text x="21.94" y="390.96">+</text>
<text x="375.79" y="494.54">.</text>
<text x="345.63" y="477.44">.</text>
<text x="191.58" y="317.51">*</text>
<text x="188.37" y="292.66">.</text>
<text x="165.40" y="460.58">+</text>
<text x="191.65" y="151.56">.</text>
<text x="245.86" y="217.71">.</text>
<text x="175.28" y="442.97">+</text>
<text x="250.03" y="233.95">.</text>
<text x="189.62" y="382.58">+</text>
<text x="192.80" y="25.46">*</text>
<text x="401.82" y="431.52">+</text>
<text x="330.67" y="246.01">*</text>
<text x="142.13" y="294.72">*</text>
<text x="464.49" y="225.07">+</text>
<text x="135.23" y="439.81">.</text>
<text x="411.55" y="348.37">.</text>
<text x="97.39" y="245.76">+</text>
<text x="329.74" y="133.66">.</text>
<text x="491.32" y="254.11">+</text>
<text x="123.27" y="17.39">+</text>
<text x="493.28" y="337.58">.</text>
<text x="456.58" y="428.27">+</text>
<text x="118.41" y="36.46">+</text>
<text x="380.89" y="316.79">.</text>
<text x="302.73" y="314.48">+</text>
<text x="455.32" y="136.09">.</text>
<text x="11.38" y="89.54">+</text>
<text x="160.45" y="349.27">+</text>
<text x="460.98" y="406.58">.</text>
<text x="425.11" y="160.91">.</text>
<text x="326.99" y="138.57">.</text>
<text x="243.08" y="217.08">.</text>
<text x="298.68" y="180.09">.</text>
<text x="322.34" y="177.79">+</text>
<text x="4.12" y="105.52">+</text>
<text x="291.37" y="307.45">.</text>
<text x="171.79" y="113.12">.</text>
<text x="243.05" y="39.45">+</text>
<text x="19.56" y="91.13">.</text>
<text x="26.29" y="321.94">.</text>
<text x="448.74" y="271.16">+</text>
<text x="485.81" y="282.69">.</text>
<text x="44.24" y="356.05">.</text>
<text x="464.82" y="160.70">.</text>
<text x="153.33" y="190.80">*</text>
<text x="2.06" y="100.50">+</text>
<text x="347.58" y="94.49">.</text>
<text x="266.79" y="8.33">*</text>
<text x="276.63" y="388.19">.</text>
<text x="224.23" y="48.01">.</text>
<text x="382.68" y="421.32">.</text>
<text x="491.44" y="90.29">+</text>
<text x="136.25" y="423.85">+</text>
<text x="115.84" y="61.61">*</text>
<text x="1.95" y="310.19">.</text>
<text x="42.60" y="475.18">+</text>
<text x="470.46" y="426.94">.</text>
<text x="423.54" y="36.22">*</text>
<text x="117.48" y="230.50">*</text>
<text x="268.13" y="249.58">.</text>
<text x="244.54" y="411.13">*</text>
<text x="343.57" y="82.80">.</text>
<text x="22.88" y="264.96">+</text>
<text x="154.41" y="359.62">+</text>
<text x="76.39" y="357.38">+</text>
<text x="295.63" y="434.07">*</text>
<text x="48.97" y="444.18">.</text>
<text x="399.41" y="0.91">.</text>
<text x="237.53" y="448.99">.</text>
<text x="191.17" y="342.58">+</text>
<text x="378.82" y="454.84">.</text>
<text x="60.89" y="339.83">.</text>
<text x="154.01" y="440.35">.</text>
<text x="430.62" y="68.49">+</text>
<text x="103.26" y="109.26">*</text>
<text x="170.97" y="74.20">.</text>
<text x="131.84" y="153.60">+</text>
<text x="7.69" y="97.65">+</text>
<text x="21.94" y="111.84">+</text>
<text x="128.08" y="170.38">.</text>
<text x="201.32" y="438.90">*</text>
<text x="482.84" y="210.66">+</text>
<text x="354.29" y="393.78">.</text>
<text x="133.43" y="154.76">+</text>
<text x="319.21" y="73.90">.</text>
<text x="125.37" y="460.48">.</text>
<text x="206.54" y="437.18">+</text>
<text x="240.18" y="380.45">+</text>
<text x="331.59" y="319.81">*</text>
<text x="236.48" y="371.14">*</text>
<text x="352.63" y="444.38">.</text>
<text x="485.95" y="220.17">.</text>
<text x="141.66" y="154.66">.</text>
<text x="242.47" y="1.99">+</text>
<text x="25.63" y="302.58">.</text>
<text x="31.86" y="361.59">*</text>
<text x="360.85" y="429.11">.</text>
<text x="335.64" y="292.75">.</text>
<text x="264.35" y="451.64">.</text>
<text x="117.78" y="341.35">.</text>
<text x="22.31" y="299.04">.</text>
<text x="341.82" y="128.07">+</text>
<text x="342.95" y="45.85">+</text>
<text x="310.82" y="19.55">*</text>
<text x="106.41" y="103.71">+</text>
<text x="117.24" y="461.93">.</text>
<text x="78.83" y="75.92">*</text>
<text x="218.91" y="293.14">.</text>
<text x="188.23" y="414.94">+</text>
<text x="487.85" y="109.71">+</text>
<text x="9.15" y="91.59">+</text>
<text x="494.06" y="193.08">.</text>
<text x="323.48" y="451.27">.</text>
<text x="204.76" y="307.20">+</text>
<text x="64.92" y="101.80">.</text>
<text x="488.70" y="369.15">.</text>
<text x="29.28" y="119.56">+</text>
<text x="153.58" y="26.03">.</text>
<text x="15.94" y="287.98">+</text>
<text x="499.24" y="145.17">*</text>
<text x="364.41" y="312.95">*</text>
<text x="374.50" y="241.36">.</text>
<text x="252.75" y="66.21">.</text>
<text x="279.49" y="457.57">.</text>
<text x="21.12" y="204.67">.</text>
<text x="322.87" y="224.05">.</text>
<text x="475.31" y="228.93">.</text>
<text x="304.01" y="398.28">+</text>
<text x="242.53" y="492.00">+</text>
<text x="499.45" y="11.29">.</text>
<text x="234.47" y="385.25">.</text>
<text x="431.40" y="208.61">+</text>
<text x="119.46" y="176.88">.</text>
<text x="410.75" y="107.14">.</text>
<text x="33.72" y="368.06">.</text>
<text x="2.88" y="305.09">.</text>
<text x="110.89" y="125.53">+</text>
<text x="39.85" y="288.05">.</text>
<text x="372.77" y="28.28">.</text>
<text x="258.95" y="230.76">.</text>
<text x="248.03" y="33.37">+</text>
<text x="231.38" y="211.45">+</text>
<text x="465.12" y="435.65">+</text>
<text x="184.92" y="411.77">.</text>
<text x="301.46" y="157.51">.</text>
<text x="478.03" y="360.46">.</text>
<text x="322.22" y="430.83">.</text>
<text x="445.54" y="34.00">*</text>

</svg>