
<svg viewBox="0 0 500 500" xmlns="http://www.w.org/2000/svg" width="100%" height="100%" style="background-color: #0a0a14; font-family: 'Courier New', Courier, monospace;">
    <style>
        text { fill: #aaa; font-size: 10px; text-anchor: middle; dominant-baseline: middle; }
    </style>
    <text x="159.37" y="66.66">.</text>
<text x="491.48" y="196.63">.</text>
<text x="41.19" y="489.50">.</text>
<text x="243.47" y="291.99">.</text>
<text x="306.94" y="185.10">.</text>
<text x="129.63" y="496.71">+</text>
<text x="338.41" y="84.82">.</text>
<text x="339.27" y="221.19">+</text>
<text x="26.69" y="459.54">+</text>
<text x="452.33" y="354.89">+</text>
<text x="5.93" y="158.03">+</text>
<text x="398.62" y="395.17">+</text>
<text x="288.25" y="352.79">+</text>
<text x="354.34" y="261.73">+</text>
<text x="272.78" y="21.53">.</text>
<text x="264.39" y="422.48">.</text>
<text x="117.03" y="253.74">.</text>
<text x="49.98" y="403.65">+</text>
<text x="301.23" y="85.01">+</text>
<text x="4.47" y="88.90">*</text>
<text x="359.32" y="498.36">+</text>
<text x="329.53" y="29.94">.</text>
<text x="311.13" y="213.95">*</text>
<text x="379.91" y="122.53">+</text>
<text x="281.03" y="34.22">.</text>
<text x="369.48" y="276.08">+</text>
<text x="364.22" y="375.22">+</text>
<text x="259.13" y="311.62">.</text>
<text x="44.39" y="202.32">+</text>
<text x="214.23" y="340.71">*</text>
<text x="73.86" y="155.35">.</text>
<text x="99.84" y="9.94">.</text>
<text x="101.64" y="6.06">+</text>
<text x="32.59" y="474.51">.</text>
<text x="223.22" y="207.28">*</text>
<text x="159.96" y="271.59">+</text>
<text x="231.11" y="387.23">.</text>
<text x="11.54" y="371.85">+</text>
<text x="273.83" y="423.56">.</text>
<text x="310.78" y="24.71">.</text>
<text x="396.56" y="328.20">.</text>
<text x="314.00" y="167.44">+</text>
<text x="439.33" y="188.65">*</text>
<text x="171.30" y="181.36">.</text>
<text x="45.26" y="128.90">*</text>
<text x="466.74" y="398.22">.</text>
<text x="77.91" y="12.76">+</text>
<text x="196.48" y="160.90">.</text>
<text x="220.38" y="457.42">.</text>
<text x="258.90" y="241.15">+</text>
<text x="188.11" y="202.43">.</text>
<text x="374.81" y="147.53">+</text>
<text x="125.54" y="76.71">*</text>
<text x="272.57" y="366.22">.</text>
<text x="82.25" y="11.72">+</text>
<text x="374.05" y="9.98">.</text>
<text x="304.73" y="33.86">+</text>
<text x="270.01" y="320.96">.</text>
<text x="113.61" y="308.93">+</text>
<text x="81.35" y="116.17">+</text>
<text x="89.91" y="345.85">+</text>
<text x="275.81" y="110.03">*</text>
<text x="395.00" y="304.69">.</text>
<text x="390.24" y="109.97">.</text>
<text x="180.74" y="455.28">.</text>
<text x="195.60" y="386.87">+</text>
<text x="377.93" y="162.27">+</text>
<text x="353.45" y="283.20">.</text>
<text x="43.97" y="355.96">*</text>
<text x="12.87" y="227.30">+</text>
<text x="62.55" y="496.04">+</text>
<text x="379.46" y="202.52">+</text>
<text x="24.33" y="9.61">.</text>
<text x="242.07" y="37.26">.</text>
<text x="335.25" y="406.25">.</text>
<text x="435.60" y="369.43">.</text>
<text x="94.97" y="222.74">+</text>
<text x="152.18" y="36.96">+</text>
<text x="374.24" y="96.96">+</text>
<text x="18.54" y="414.58">.</text>
<text x="202.24" y="16.47">.</text>
<text x="215.00" y="370.45">+</text>
<text x="405.99" y="115.73">*</text>
<text x="154.41" y="387.86">+</text>
<text x="474.98" y="57.06">.</text>
<text x="73.23" y="235.57">*</text>
<text x="257.56" y="396.98">.</text>
<text x="102.57" y="315.65">.</text>
<text x="264.52" y="89.43">+</text>
<text x="293.27" y="385.25">+</text>
<text x="246.01" y="345.98">*</text>
<text x="186.84" y="15.46">+</text>
<text x="89.05" y="28.98">+</text>
<text x="49.62" y="84.98">+</text>
<text x="222.16" y="454.41">.</text>
<text x="217.82" y="330.13">+</text>
<text x="70.33" y="313.59">.</text>
<text x="359.16" y="236.62">+</text>
<text x="240.84" y="162.42">.</text>
<text x="408.22" y="132.42">*</text>
<text x="386.98" y="297.60">.</text>
<text x="476.39" y="23.76">+</text>
<text x="481.60" y="49.85">.</text>
<text x="31.11" y="223.47">.</text>
<text x="5.97" y="214.35">.</text>
<text x="490.07" y="112.30">+</text>
<text x="218.94" y="131.52">.</text>
<text x="422.22" y="230.80">.</text>
<text x="351.68" y="275.44">+</text>
<text x="463.06" y="324.83">+</text>
<text x="9.07" y="248.18">.</text>
<text x="291.03" y="456.69">+</text>
<text x="336.06" y="153.13">*</text>
<text x="449.33" y="306.95">+</text>
<text x="192.02" y="210.09">+</text>
<text x="239.85" y="44.26">.</text>
<text x="63.92" y="117.67">*</text>
<text x="85.08" y="281.76">.</text>
<text x="367.50" y="433.20">+</text>
<text x="245.43" y="7.56">.</text>
<text x="174.88" y="145.06">.</text>
<text x="115.89" y="186.91">.</text>
<text x="442.59" y="282.80">.</text>
<text x="390.73" y="30.99">.</text>
<text x="138.24" y="166.80">+</text>
<text x="394.00" y="488.14">.</text>
<text x="253.82" y="244.75">+</text>
<text x="454.50" y="8.17">+</text>
<text x="221.57" y="248.60">.</text>
<text x="325.40" y="265.08">+</text>
<text x="416.04" y="420.73">*</text>
<text x="43.12" y="378.28">.</text>
<text x="285.93" y="265.27">.</text>
<text x="59.28" y="204.04">.</text>
<text x="441.19" y="33.77">+</text>
<text x="236.76" y="292.09">+</text>
<text x="227.57" y="260.03">*</text>
<text x="8.15" y="282.68">+</text>
<text x="230.71" y="163.49">+</text>
<text x="392.19" y="168.65">+</text>
<text x="302.79" y="499.53">.</text>
<text x="169.99" y="115.65">+</text>
<text x="337.70" y="121.55">+</text>
<text x="40.99" y="407.44">*</text>
<text x="228.54" y="348.21">*</text>
<text x="192.41" y="382.81">.</text>
<text x="229.33" y="34.21">+</text>
<text x="371.66" y="15.45">*</text>
<text x="375.31" y="218.95">.</text>
<text x="415.16" y="320.52">+</text>
<text x="36.04" y="354.28">*</text>
<text x="478.25" y="360.85">+</text>
<text x="24.34" y="281.31">+</text>
<text x="219.78" y="231.44">+</text>
<text x="432.78" y="44.08">+</text>
<text x="273.30" y="111.18">.</text>
<text x="485.18" y="481.97">+</text>
<text x="358.76" y="55.29">+</text>
<text x="479.11" y="483.27">.</text>
<text x="330.83" y="393.04">.</text>
<text x="68.79" y="498.78">+</text>
<text x="391.55" y="88.21">+</text>
<text x="164.49" y="436.20">.</text>
<text x="237.40" y="249.28">.</text>
<text x="325.13" y="233.43">.</text>
<text x="241.40" y="41.90">.</text>
<text x="342.24" y="31.02">+</text>
<text x="11.11" y="280.90">*</text>
<text x="318.54" y="23.18">.</text>
<text x="432.03" y="76.07">+</text>
<text x="31.90" y="459.05">+</text>
<text x="250.39" y="186.19">.</text>
<text x="298.65" y="454.01">+</text>
<text x="476.70" y="0.96">+</text>
<text x="456.92" y="420.16">.</text>
<text x="409.45" y="302.36">.</text>
<text x="472.06" y="390.32">+</text>
<text x="46.79" y="165.30">+</text>
<text x="319.44" y="473.69">+</text>
<text x="69.99" y="67.86">.</text>
<text x="377.26" y="226.56">.</text>
<text x="344.32" y="119.41">.</text>
<text x="26.64" y="372.47">+</text>
<text x="478.93" y="35.81">.</text>
<text x="446.44" y="97.16">.</text>
<text x="485.47" y="419.77">.</text>
<text x="374.86" y="1.76">+</text>
<text x="413.38" y="248.16">*</text>
<text x="448.01" y="413.29">.</text>
<text x="312.25" y="379.51">.</text>
<text x="270.82" y="492.12">+</text>
<text x="124.58" y="206.48">.</text>
<text x="373.46" y="281.66">+</text>
<text x="275.22" y="399.53">*</text>
<text x="159.32" y="435.58">+</text>
<text x="47.39" y="307.35">.</text>
<text x="456.99" y="313.98">+</text>
<text x="119.95" y="455.95">+</text>
<text x="280.01" y="413.47">+</text>
<text x="312.31" y="381.30">*</text>
<text x="137.16" y="254.44">+</text>
<text x="213.59" y="454.07">*</text>
<text x="122.53" y="118.87">.</text>
<text x="56.66" y="336.03">.</text>
<text x="187.42" y="197.46">*</text>
<text x="132.26" y="419.35">+</text>
<text x="234.42" y="333.07">+</text>
<text x="125.07" y="258.79">.</text>
<text x="357.16" y="377.79">+</text>
<text x="52.37" y="436.75">*</text>
<text x="341.27" y="30.96">.</text>
<text x="117.64" y="159.51">+</text>
<text x="56.48" y="163.57">+</text>
<text x="220.64" y="88.21">.</text>
<text x="99.42" y="474.83">.</text>

</svg>