
<svg viewBox="0 0 500 500" xmlns="http://www.w.org/2000/svg" width="100%" height="100%" style="background-color: #0a0a14; font-family: 'Courier New', Courier, monospace;">
    <style>
        text { fill: #aaa; font-size: 10px; text-anchor: middle; dominant-baseline: middle; }
    </style>
    <text x="190.06" y="127.83">.</text>
<text x="331.30" y="38.56">.</text>
<text x="252.19" y="86.11">*</text>
<text x="48.49" y="79.84">.</text>
<text x="228.84" y="106.20">*</text>
<text x="429.43" y="499.76">+</text>
<text x="475.02" y="56.16">+</text>
<text x="404.57" y="60.05">.</text>
<text x="469.97" y="173.79">*</text>
<text x="150.28" y="471.84">+</text>
<text x="291.61" y="100.40">+</text>
<text x="459.63" y="68.64">.</text>
<text x="240.40" y="186.66">*</text>
<text x="48.39" y="144.94">+</text>
<text x="479.92" y="46.83">+</text>
<text x="432.24" y="327.67">+</text>
<text x="141.05" y="349.50">+</text>
<text x="95.66" y="27.28">*</text>
<text x="43.81" y="16.03">*</text>
<text x="392.66" y="320.48">+</text>
<text x="446.67" y="340.16">.</text>
<text x="495.44" y="101.40">+</text>
<text x="139.18" y="0.85">.</text>
<text x="160.71" y="498.84">+</text>
<text x="459.14" y="352.06">*</text>
<text x="142.16" y="327.68">.</text>
<text x="322.52" y="117.87">.</text>
<text x="239.85" y="36.29">.</text>
<text x="273.13" y="162.69">+</text>
<text x="241.69" y="26.82">+</text>
<text x="212.45" y="43.02">*</text>
<text x="133.87" y="225.00">.</text>
<text x="107.02" y="85.92">+</text>
<text x="5.29" y="385.53">.</text>
<text x="479.43" y="141.07">.</text>
<text x="447.82" y="340.03">+</text>
<text x="211.17" y="313.92">+</text>
<text x="427.36" y="16.06">+</text>
<text x="77.33" y="171.14">+</text>
<text x="319.27" y="47.49">.</text>
<text x="208.60" y="428.87">.</text>
<text x="380.31" y="106.61">*</text>
<text x="197.05" y="196.56">+</text>
<text x="440.64" y="84.93">+</text>
<text x="91.24" y="265.65">.</text>
<text x="193.02" y="315.65">.</text>
<text x="394.75" y="183.34">*</text>
<text x="380.01" y="411.22">+</text>
<text x="110.82" y="254.52">.</text>
<text x="282.32" y="406.92">+</text>
<text x="493.33" y="361.03">.</text>
<text x="404.76" y="297.58">*</text>
<text x="448.73" y="188.10">+</text>
<text x="36.90" y="7.60">.</text>
<text x="144.44" y="13.60">.</text>
<text x="285.55" y="236.46">.</text>
<text x="240.16" y="43.11">.</text>
<text x="117.67" y="421.84">+</text>
<text x="408.06" y="338.04">+</text>
<text x="219.23" y="418.04">+</text>
<text x="56.72" y="423.58">+</text>
<text x="126.77" y="19.30">+</text>
<text x="52.29" y="175.67">+</text>
<text x="55.51" y="164.34">*</text>
<text x="428.95" y="344.93">.</text>
<text x="156.26" y="363.84">.</text>
<text x="116.71" y="144.32">.</text>
<text x="256.21" y="362.58">+</text>
<text x="351.70" y="10.30">+</text>
<text x="353.71" y="152.52">.</text>
<text x="42.32" y="60.66">.</text>
<text x="497.88" y="231.79">+</text>
<text x="26.44" y="183.14">+</text>
<text x="350.44" y="81.82">*</text>
<text x="425.05" y="130.41">+</text>
<text x="265.80" y="74.08">+</text>
<text x="390.20" y="33.06">+</text>
<text x="45.13" y="63.69">+</text>
<text x="116.38" y="90.23">.</text>
<text x="400.87" y="471.13">.</text>
<text x="389.61" y="270.35">+</text>
<text x="20.55" y="226.81">+</text>
<text x="196.88" y="268.70">*</text>
<text x="356.59" y="145.52">*</text>
<text x="19.20" y="380.97">+</text>
<text x="265.50" y="341.85">.</text>
<text x="336.80" y="117.96">+</text>
<text x="44.47" y="16.14">.</text>
<text x="115.14" y="17.41">+</text>
<text x="355.66" y="323.39">+</text>
<text x="454.17" y="407.40">.</text>
<text x="280.60" y="221.04">+</text>
<text x="395.20" y="466.37">.</text>
<text x="49.79" y="187.29">+</text>
<text x="370.84" y="453.70">+</text>
<text x="377.95" y="257.64">+</text>
<text x="417.31" y="107.06">.</text>
<text x="493.66" y="108.46">.</text>
<text x="110.61" y="35.48">+</text>
<text x="7.87" y="417.59">+</text>
<text x="221.60" y="262.97">+</text>
<text x="216.88" y="463.28">*</text>
<text x="238.39" y="53.38">.</text>
<text x="8.05" y="425.69">.</text>
<text x="23.18" y="367.88">+</text>
<text x="317.66" y="170.64">.</text>
<text x="290.22" y="210.74">.</text>
<text x="329.89" y="126.99">.</text>
<text x="34.47" y="344.44">.</text>
<text x="164.96" y="356.32">+</text>
<text x="351.19" y="271.02">.</text>
<text x="343.70" y="445.72">.</text>
<text x="289.30" y="402.31">+</text>
<text x="225.76" y="383.70">*</text>
<text x="471.48" y="7.20">.</text>
<text x="335.95" y="148.55">.</text>
<text x="14.45" y="388.09">.</text>
<text x="497.65" y="319.01">.</text>
<text x="75.41" y="221.59">+</text>
<text x="12.00" y="359.25">.</text>
<text x="50.60" y="57.32">+</text>
<text x="193.66" y="470.71">.</text>
<text x="406.95" y="287.87">+</text>
<text x="361.92" y="281.12">+</text>
<text x="151.25" y="189.99">.</text>
<text x="75.42" y="364.56">+</text>
<text x="404.78" y="86.82">.</text>
<text x="95.11" y="129.18">+</text>
<text x="125.06" y="424.04">+</text>
<text x="445.86" y="240.55">.</text>
<text x="61.91" y="379.04">+</text>
<text x="80.97" y="401.30">*</text>
<text x="426.48" y="78.20">+</text>
<text x="141.30" y="363.01">.</text>
<text x="452.17" y="153.81">*</text>
<text x="354.45" y="167.28">.</text>
<text x="69.76" y="96.29">.</text>
<text x="26.30" y="73.66">.</text>
<text x="347.26" y="205.60">*</text>
<text x="458.89" y="280.66">.</text>
<text x="363.47" y="162.43">.</text>
<text x="1.50" y="385.73">+</text>
<text x="425.86" y="257.32">+</text>
<text x="237.66" y="207.70">.</text>
<text x="87.24" y="271.49">.</text>
<text x="237.83" y="166.16">+</text>
<text x="486.44" y="387.07">*</text>
<text x="18.85" y="356.44">.</text>
<text x="306.61" y="384.57">+</text>
<text x="494.47" y="270.06">.</text>
<text x="293.78" y="189.14">+</text>
<text x="331.69" y="499.00">.</text>
<text x="496.72" y="161.65">.</text>
<text x="120.28" y="287.60">+</text>
<text x="274.88" y="477.55">.</text>
<text x="177.80" y="317.11">+</text>
<text x="229.62" y="343.66">.</text>
<text x="204.58" y="116.28">.</text>
<text x="191.51" y="480.43">*</text>
<text x="462.57" y="97.24">+</text>
<text x="42.37" y="38.01">*</text>
<text x="93.31" y="322.83">+</text>
<text x="476.79" y="25.78">+</text>
<text x="443.18" y="118.26">.</text>
<text x="179.90" y="98.14">+</text>
<text x="487.85" y="18.78">+</text>
<text x="20.66" y="146.22">*</text>
<text x="462.33" y="324.28">.</text>
<text x="102.08" y="358.21">.</text>
<text x="324.36" y="496.63">.</text>
<text x="139.91" y="283.59">.</text>
<text x="425.82" y="330.57">+</text>
<text x="136.47" y="96.53">+</text>
<text x="0.92" y="297.60">*</text>
<text x="96.52" y="180.93">.</text>
<text x="7.29" y="77.32">.</text>
<text x="309.50" y="295.42">+</text>
<text x="167.38" y="475.09">.</text>
<text x="50.92" y="288.20">*</text>
<text x="229.19" y="279.83">.</text>
<text x="273.05" y="356.42">+</text>
<text x="433.13" y="22.76">.</text>
<text x="357.32" y="232.58">+</text>
<text x="304.60" y="460.44">+</text>
<text x="176.21" y="101.53">.</text>
<text x="394.92" y="1.97">.</text>
<text x="182.16" y="265.06">.</text>
<text x="354.89" y="383.43">.</text>
<text x="200.06" y="228.33">+</text>
<text x="19.33" y="356.23">+</text>
<text x="324.15" y="336.75">+</text>
<text x="261.00" y="155.14">.</text>
<text x="101.05" y="207.56">+</text>
<text x="410.42" y="417.19">.</text>
<text x="339.24" y="248.19">*</text>
<text x="215.03" y="70.34">*</text>
<text x="265.59" y="495.29">+</text>
<text x="227.82" y="440.11">.</text>
<text x="237.67" y="342.73">+</text>
<text x="412.43" y="37.28">+</text>
<text x="165.89" y="25.20">*</text>
<text x="349.94" y="460.52">+</text>
<text x="16.52" y="136.09">+</text>
<text x="49.73" y="399.89">.</text>
<text x="426.62" y="222.92">+</text>
<text x="308.69" y="314.70">+</text>
<text x="449.98" y="183.05">+</text>
<text x="80.65" y="396.06">+</text>
<text x="106.43" y="470.45">*</text>
<text x="411.31" y="118.58">*</text>

</svg>