
<svg viewBox="0 0 500 500" xmlns="http://www.w.org/2000/svg" width="100%" height="100%" style="background-color: #0a0a14; font-family: 'Courier New', Courier, monospace;">
    <style>
        text { fill: #aaa; font-size: 10px; text-anchor: middle; dominant-baseline: middle; }
    </style>
    <text x="438.65" y="494.11">+</text>
<text x="210.32" y="109.58">.</text>
<text x="455.29" y="408.94">.</text>
<text x="345.09" y="272.91">+</text>
<text x="5.15" y="220.94">+</text>
<text x="164.54" y="211.54">+</text>
<text x="194.75" y="391.88">+</text>
<text x="99.38" y="10.27">.</text>
<text x="193.06" y="274.77">.</text>
<text x="414.53" y="444.52">*</text>
<text x="39.75" y="100.38">.</text>
<text x="74.45" y="444.36">+</text>
<text x="220.39" y="485.02">+</text>
<text x="372.05" y="280.06">.</text>
<text x="23.06" y="71.80">+</text>
<text x="267.08" y="375.94">.</text>
<text x="14.87" y="68.98">*</text>
<text x="152.27" y="238.56">*</text>
<text x="112.79" y="321.12">+</text>
<text x="301.85" y="409.42">.</text>
<text x="278.54" y="416.98">.</text>
<text x="44.95" y="79.16">.</text>
<text x="9.32" y="268.25">+</text>
<text x="199.95" y="486.53">.</text>
<text x="467.96" y="413.02">.</text>
<text x="387.07" y="25.44">.</text>
<text x="396.40" y="146.63">*</text>
<text x="347.99" y="485.50">*</text>
<text x="184.04" y="51.43">.</text>
<text x="300.49" y="322.92">*</text>
<text x="167.06" y="169.82">.</text>
<text x="263.24" y="263.95">+</text>
<text x="62.65" y="377.69">+</text>
<text x="486.19" y="357.50">.</text>
<text x="330.88" y="21.98">+</text>
<text x="171.73" y="23.79">+</text>
<text x="389.49" y="145.39">+</text>
<text x="22.75" y="141.79">.</text>
<text x="381.06" y="124.40">*</text>
<text x="21.65" y="384.25">*</text>
<text x="476.64" y="125.34">+</text>
<text x="459.16" y="231.37">+</text>
<text x="306.50" y="489.44">.</text>
<text x="359.53" y="180.83">*</text>
<text x="367.29" y="482.41">+</text>
<text x="96.45" y="333.66">*</text>
<text x="334.95" y="240.81">.</text>
<text x="134.48" y="349.09">.</text>
<text x="299.67" y="444.74">.</text>
<text x="472.19" y="464.91">*</text>
<text x="192.78" y="181.76">.</text>
<text x="328.09" y="137.45">.</text>
<text x="382.65" y="337.78">+</text>
<text x="347.19" y="306.10">.</text>
<text x="399.53" y="88.29">+</text>
<text x="418.89" y="257.20">*</text>
<text x="170.36" y="350.85">+</text>
<text x="338.27" y="207.30">+</text>
<text x="155.13" y="164.25">.</text>
<text x="423.99" y="46.88">+</text>
<text x="64.17" y="256.92">.</text>
<text x="118.75" y="112.77">*</text>
<text x="387.71" y="200.25">*</text>
<text x="264.95" y="183.74">.</text>
<text x="152.77" y="38.31">*</text>
<text x="449.12" y="200.77">.</text>
<text x="18.42" y="123.26">+</text>
<text x="168.33" y="42.68">+</text>
<text x="282.41" y="1.86">*</text>
<text x="130.13" y="145.18">+</text>
<text x="439.27" y="20.96">+</text>
<text x="371.71" y="79.17">+</text>
<text x="153.49" y="121.23">.</text>
<text x="468.57" y="387.42">*</text>
<text x="400.17" y="294.39">.</text>
<text x="132.33" y="47.91">.</text>
<text x="1.70" y="487.85">.</text>
<text x="471.19" y="46.04">.</text>
<text x="185.13" y="328.41">.</text>
<text x="482.24" y="349.65">+</text>
<text x="300.04" y="374.67">+</text>
<text x="332.75" y="173.80">.</text>
<text x="431.54" y="199.00">+</text>
<text x="201.63" y="355.58">.</text>
<text x="302.42" y="5.62">.</text>
<text x="196.82" y="430.51">.</text>
<text x="402.90" y="160.64">.</text>
<text x="222.01" y="358.65">*</text>
<text x="275.06" y="75.77">+</text>
<text x="11.54" y="253.76">*</text>
<text x="229.75" y="412.42">+</text>
<text x="297.72" y="24.23">+</text>
<text x="234.47" y="274.61">+</text>
<text x="83.94" y="319.75">.</text>
<text x="489.55" y="240.35">*</text>
<text x="440.82" y="287.31">+</text>
<text x="28.93" y="60.98">+</text>
<text x="178.75" y="453.52">+</text>
<text x="389.42" y="499.18">.</text>
<text x="236.57" y="344.79">+</text>
<text x="225.51" y="312.11">+</text>
<text x="495.42" y="19.12">+</text>
<text x="442.94" y="186.93">+</text>
<text x="316.29" y="40.78">+</text>
<text x="33.35" y="124.28">+</text>
<text x="398.42" y="146.61">.</text>
<text x="324.11" y="25.11">+</text>
<text x="442.29" y="173.31">+</text>
<text x="89.09" y="304.99">.</text>
<text x="125.10" y="210.83">+</text>
<text x="490.55" y="190.69">.</text>
<text x="236.28" y="115.24">.</text>
<text x="497.78" y="491.74">.</text>
<text x="128.27" y="58.00">.</text>
<text x="303.44" y="73.29">.</text>
<text x="37.67" y="23.19">+</text>
<text x="298.31" y="306.17">+</text>
<text x="497.73" y="157.64">+</text>
<text x="309.52" y="186.16">*</text>
<text x="292.20" y="153.22">+</text>
<text x="443.71" y="378.18">+</text>
<text x="184.24" y="223.78">+</text>
<text x="125.53" y="481.40">*</text>
<text x="269.16" y="328.46">+</text>
<text x="336.75" y="385.16">*</text>
<text x="317.68" y="159.51">+</text>
<text x="297.09" y="36.49">.</text>
<text x="197.85" y="362.46">*</text>
<text x="404.51" y="167.40">*</text>
<text x="76.68" y="86.63">+</text>
<text x="160.03" y="439.10">.</text>
<text x="258.07" y="306.07">.</text>
<text x="269.62" y="493.99">+</text>
<text x="468.35" y="211.90">+</text>
<text x="455.33" y="466.06">.</text>
<text x="211.42" y="346.21">.</text>
<text x="58.35" y="155.28">.</text>
<text x="461.45" y="91.21">.</text>
<text x="471.89" y="137.85">+</text>
<text x="280.62" y="304.87">.</text>
<text x="440.88" y="289.80">+</text>
<text x="204.83" y="18.78">*</text>
<text x="331.21" y="245.91">.</text>
<text x="43.54" y="381.85">+</text>
<text x="351.68" y="481.93">*</text>
<text x="427.64" y="8.99">.</text>
<text x="71.51" y="61.06">.</text>
<text x="461.02" y="2.91">+</text>
<text x="90.35" y="28.41">+</text>
<text x="409.22" y="216.47">+</text>
<text x="305.15" y="74.62">+</text>
<text x="78.36" y="170.65">.</text>
<text x="267.43" y="397.81">+</text>
<text x="363.89" y="199.95">*</text>
<text x="459.45" y="133.91">+</text>
<text x="0.74" y="57.23">+</text>
<text x="147.70" y="35.24">.</text>
<text x="380.12" y="320.83">+</text>
<text x="103.63" y="100.68">+</text>
<text x="57.75" y="425.14">.</text>
<text x="487.32" y="26.77">+</text>
<text x="476.44" y="299.03">+</text>
<text x="402.89" y="167.59">.</text>
<text x="172.24" y="65.93">.</text>
<text x="392.65" y="499.92">.</text>
<text x="51.03" y="379.46">.</text>
<text x="206.94" y="436.96">+</text>
<text x="217.51" y="6.23">.</text>
<text x="93.78" y="484.49">.</text>
<text x="298.14" y="395.76">*</text>
<text x="405.56" y="349.63">.</text>
<text x="80.58" y="461.17">+</text>
<text x="324.46" y="260.35">+</text>
<text x="422.08" y="383.50">*</text>
<text x="49.10" y="434.48">.</text>
<text x="187.50" y="414.95">+</text>
<text x="88.53" y="489.37">.</text>
<text x="400.91" y="391.63">.</text>
<text x="217.64" y="36.88">+</text>
<text x="198.47" y="302.06">.</text>
<text x="342.65" y="435.97">+</text>
<text x="55.56" y="43.14">+</text>
<text x="428.38" y="341.71">.</text>
<text x="182.15" y="298.02">.</text>
<text x="307.29" y="276.83">+</text>
<text x="256.42" y="270.29">+</text>
<text x="407.49" y="16.14">.</text>
<text x="391.83" y="427.13">.</text>
<text x="456.67" y="128.43">.</text>
<text x="189.88" y="395.06">*</text>
<text x="408.85" y="440.98">+</text>
<text x="322.90" y="123.48">.</text>
<text x="14.38" y="231.53">.</text>
<text x="380.47" y="411.39">*</text>
<text x="298.91" y="144.28">+</text>
<text x="144.08" y="294.71">+</text>
<text x="151.33" y="377.85">+</text>
<text x="479.73" y="376.08">.</text>
<text x="459.82" y="48.62">+</text>
<text x="490.90" y="169.76">.</text>
<text x="387.73" y="487.75">.</text>
<text x="76.17" y="222.66">.</text>
<text x="133.36" y="494.74">*</text>
<text x="187.34" y="237.08">+</text>
<text x="474.81" y="178.14">.</text>
<text x="48.26" y="259.56">.</text>
<text x="465.98" y="438.72">+</text>
<text x="240.83" y="246.04">.</text>
<text x="152.84" y="68.77">+</text>
<text x="117.92" y="422.77">+</text>
<text x="314.84" y="118.55">.</text>
<text x="95.89" y="106.46">+</text>
<text x="374.49" y="23.99">.</text>
<text x="168.86" y="341.74">.</text>
<text x="342.34" y="315.33">+</text>
<text x="272.25" y="324.29">.</text>
<text x="216.63" y="49.85">+</text>
<text x="323.37" y="394.14">.</text>
<text x="412.54" y="397.65">+</text>
<text x="172.89" y="454.81">.</text>
<text x="489.38" y="332.77">+</text>

</svg>