
<svg viewBox="0 0 500 500" xmlns="http://www.w.org/2000/svg" width="100%" height="100%" style="background-color: #0a0a14; font-family: 'Courier New', Courier, monospace;">
    <style>
        text { fill: #aaa; font-size: 10px; text-anchor: middle; dominant-baseline: middle; }
    </style>
    <text x="447.16" y="3.86">*</text>
<text x="44.78" y="471.75">.</text>
<text x="272.86" y="227.95">.</text>
<text x="356.08" y="465.13">*</text>
<text x="65.22" y="451.23">.</text>
<text x="247.36" y="394.65">*</text>
<text x="219.00" y="433.92">+</text>
<text x="472.53" y="219.27">+</text>
<text x="311.42" y="407.17">.</text>
<text x="370.85" y="465.86">.</text>
<text x="490.60" y="307.24">+</text>
<text x="326.12" y="37.24">.</text>
<text x="233.52" y="434.26">.</text>
<text x="26.55" y="239.96">.</text>
<text x="137.42" y="413.61">+</text>
<text x="76.92" y="13.33">.</text>
<text x="130.57" y="326.56">.</text>
<text x="386.74" y="36.33">.</text>
<text x="303.10" y="317.85">.</text>
<text x="353.64" y="444.49">.</text>
<text x="369.14" y="494.99">+</text>
<text x="459.26" y="454.54">+</text>
<text x="435.10" y="400.00">+</text>
<text x="432.71" y="118.38">.</text>
<text x="33.45" y="362.67">.</text>
<text x="24.00" y="112.13">*</text>
<text x="138.38" y="421.38">.</text>
<text x="402.30" y="389.72">.</text>
<text x="69.50" y="485.18">*</text>
<text x="304.55" y="462.09">+</text>
<text x="481.00" y="10.76">*</text>
<text x="105.99" y="303.67">.</text>
<text x="186.76" y="308.40">+</text>
<text x="303.14" y="172.93">+</text>
<text x="306.96" y="456.19">+</text>
<text x="189.67" y="12.40">+</text>
<text x="18.31" y="303.90">.</text>
<text x="104.06" y="383.57">*</text>
<text x="157.85" y="307.10">+</text>
<text x="91.81" y="457.84">.</text>
<text x="156.55" y="382.18">+</text>
<text x="247.03" y="43.63">*</text>
<text x="381.25" y="153.46">+</text>
<text x="43.91" y="459.85">*</text>
<text x="483.54" y="166.75">.</text>
<text x="457.39" y="93.39">*</text>
<text x="164.06" y="452.51">+</text>
<text x="1.99" y="387.94">.</text>
<text x="113.92" y="101.23">.</text>
<text x="145.10" y="205.10">.</text>
<text x="361.95" y="159.36">+</text>
<text x="391.69" y="353.98">.</text>
<text x="405.36" y="70.63">.</text>
<text x="393.71" y="105.56">+</text>
<text x="163.50" y="488.64">+</text>
<text x="65.63" y="85.86">+</text>
<text x="364.92" y="382.47">*</text>
<text x="167.40" y="75.46">.</text>
<text x="425.73" y="412.01">.</text>
<text x="119.27" y="236.42">.</text>
<text x="63.87" y="51.99">+</text>
<text x="254.01" y="82.23">.</text>
<text x="299.69" y="430.15">*</text>
<text x="169.98" y="82.01">.</text>
<text x="466.65" y="124.78">*</text>
<text x="268.79" y="352.10">.</text>
<text x="124.32" y="91.56">+</text>
<text x="135.33" y="121.05">+</text>
<text x="444.74" y="496.74">+</text>
<text x="383.91" y="59.16">.</text>
<text x="19.82" y="123.36">+</text>
<text x="271.82" y="174.59">+</text>
<text x="195.84" y="362.27">.</text>
<text x="272.23" y="14.32">.</text>
<text x="175.84" y="378.35">.</text>
<text x="428.78" y="5.23">.</text>
<text x="360.56" y="270.93">+</text>
<text x="63.20" y="72.12">+</text>
<text x="98.27" y="298.65">.</text>
<text x="411.66" y="178.09">.</text>
<text x="389.55" y="311.87">.</text>
<text x="237.84" y="129.55">.</text>
<text x="153.66" y="339.15">.</text>
<text x="6.97" y="164.18">+</text>
<text x="92.19" y="455.40">.</text>
<text x="278.73" y="280.13">.</text>
<text x="213.95" y="34.41">*</text>
<text x="392.56" y="114.49">.</text>
<text x="407.53" y="456.79">+</text>
<text x="334.41" y="384.91">+</text>
<text x="445.38" y="432.59">.</text>
<text x="326.25" y="312.52">+</text>
<text x="219.24" y="159.42">.</text>
<text x="366.33" y="110.10">.</text>
<text x="462.18" y="354.19">.</text>
<text x="157.22" y="380.25">+</text>
<text x="261.81" y="480.97">+</text>
<text x="482.86" y="448.28">+</text>
<text x="399.75" y="461.85">+</text>
<text x="314.26" y="324.96">.</text>
<text x="422.36" y="464.43">+</text>
<text x="86.44" y="50.13">+</text>
<text x="115.61" y="99.80">+</text>
<text x="409.10" y="39.93">*</text>
<text x="284.50" y="127.38">*</text>
<text x="439.78" y="44.88">+</text>
<text x="34.59" y="400.52">+</text>
<text x="131.60" y="280.76">.</text>
<text x="305.20" y="491.59">+</text>
<text x="415.59" y="50.94">+</text>
<text x="465.90" y="453.99">.</text>
<text x="322.96" y="344.91">+</text>
<text x="347.38" y="480.33">+</text>
<text x="306.19" y="340.79">.</text>
<text x="24.74" y="250.68">.</text>
<text x="259.04" y="212.45">*</text>
<text x="91.02" y="212.57">*</text>
<text x="32.77" y="6.65">.</text>
<text x="75.17" y="405.17">*</text>
<text x="341.26" y="481.54">+</text>
<text x="327.29" y="294.23">+</text>
<text x="15.81" y="296.61">.</text>
<text x="192.19" y="227.51">.</text>
<text x="380.48" y="276.62">+</text>
<text x="63.02" y="157.76">.</text>
<text x="162.70" y="295.90">.</text>
<text x="460.70" y="455.44">*</text>
<text x="140.13" y="91.63">.</text>
<text x="242.73" y="193.06">+</text>
<text x="250.57" y="142.13">.</text>
<text x="440.49" y="444.93">.</text>
<text x="173.43" y="26.28">.</text>
<text x="95.76" y="393.54">.</text>
<text x="25.53" y="76.79">.</text>
<text x="481.42" y="168.97">.</text>
<text x="423.03" y="252.17">.</text>
<text x="279.59" y="380.02">+</text>
<text x="105.32" y="117.76">+</text>
<text x="362.97" y="292.59">+</text>
<text x="188.94" y="325.42">+</text>
<text x="390.09" y="380.26">.</text>
<text x="83.95" y="376.07">+</text>
<text x="370.93" y="218.09">.</text>
<text x="322.89" y="348.03">*</text>
<text x="368.53" y="242.08">+</text>
<text x="168.73" y="210.57">.</text>
<text x="111.56" y="214.03">+</text>
<text x="405.82" y="257.04">.</text>
<text x="79.12" y="429.51">.</text>
<text x="226.90" y="287.61">+</text>
<text x="442.59" y="397.19">+</text>
<text x="304.81" y="262.11">+</text>
<text x="481.68" y="46.03">*</text>
<text x="279.00" y="174.22">.</text>
<text x="366.30" y="284.14">.</text>
<text x="488.86" y="311.50">*</text>
<text x="483.38" y="300.41">+</text>
<text x="120.05" y="287.71">+</text>
<text x="370.69" y="284.66">.</text>
<text x="89.82" y="161.22">.</text>
<text x="459.37" y="229.63">*</text>
<text x="170.07" y="75.00">.</text>
<text x="193.91" y="281.65">.</text>
<text x="387.00" y="242.57">+</text>
<text x="232.36" y="495.45">+</text>
<text x="119.44" y="175.12">.</text>
<text x="248.01" y="110.37">+</text>
<text x="437.91" y="44.99">+</text>
<text x="374.04" y="34.55">+</text>
<text x="499.67" y="366.71">+</text>
<text x="273.01" y="397.43">+</text>
<text x="383.33" y="411.04">.</text>
<text x="5.93" y="6.00">.</text>
<text x="137.56" y="478.27">.</text>
<text x="308.84" y="445.12">+</text>
<text x="164.72" y="106.98">.</text>
<text x="366.39" y="70.68">+</text>
<text x="164.37" y="187.12">+</text>
<text x="391.61" y="172.28">+</text>
<text x="24.52" y="333.01">.</text>
<text x="129.90" y="399.83">+</text>
<text x="154.55" y="187.84">.</text>
<text x="120.43" y="168.19">.</text>
<text x="327.79" y="459.72">.</text>
<text x="96.01" y="89.34">+</text>
<text x="205.89" y="439.58">.</text>
<text x="144.49" y="458.94">+</text>
<text x="363.20" y="270.31">.</text>
<text x="232.07" y="491.64">+</text>
<text x="302.45" y="495.02">.</text>
<text x="474.31" y="312.41">*</text>
<text x="56.00" y="392.45">.</text>
<text x="235.63" y="82.08">*</text>
<text x="445.21" y="278.32">+</text>
<text x="271.84" y="186.66">+</text>
<text x="171.05" y="445.18">.</text>
<text x="27.66" y="56.69">+</text>
<text x="308.81" y="102.85">+</text>
<text x="423.56" y="107.54">+</text>
<text x="361.09" y="473.50">+</text>
<text x="289.80" y="251.62">+</text>
<text x="318.53" y="249.71">.</text>
<text x="322.77" y="139.71">+</text>
<text x="100.51" y="484.33">+</text>
<text x="109.87" y="146.20">+</text>
<text x="389.47" y="376.36">+</text>

</svg>