
<svg viewBox="0 0 500 500" xmlns="http://www.w.org/2000/svg" width="100%" height="100%" style="background-color: #0a0a14; font-family: 'Courier New', Courier, monospace;">
    <style>
        text { fill: #aaa; font-size: 10px; text-anchor: middle; dominant-baseline: middle; }
    </style>
    <text x="272.85" y="467.56">+</text>
<text x="202.55" y="160.26">.</text>
<text x="142.55" y="414.25">.</text>
<text x="382.87" y="451.69">.</text>
<text x="188.44" y="324.46">+</text>
<text x="121.95" y="140.19">*</text>
<text x="141.28" y="362.01">.</text>
<text x="327.02" y="370.64">+</text>
<text x="245.43" y="486.13">*</text>
<text x="56.32" y="208.58">+</text>
<text x="409.23" y="82.10">.</text>
<text x="101.04" y="282.04">+</text>
<text x="489.42" y="295.85">.</text>
<text x="435.46" y="201.66">*</text>
<text x="290.89" y="25.79">+</text>
<text x="244.59" y="386.30">.</text>
<text x="169.77" y="482.32">+</text>
<text x="29.63" y="162.02">.</text>
<text x="269.17" y="160.37">*</text>
<text x="133.83" y="358.76">.</text>
<text x="325.53" y="235.89">+</text>
<text x="380.40" y="406.82">.</text>
<text x="4.73" y="238.92">+</text>
<text x="431.33" y="460.34">.</text>
<text x="323.16" y="285.46">.</text>
<text x="86.45" y="193.79">*</text>
<text x="84.06" y="349.37">.</text>
<text x="495.68" y="3.98">+</text>
<text x="186.48" y="22.96">.</text>
<text x="456.79" y="184.37">.</text>
<text x="31.26" y="266.46">+</text>
<text x="312.76" y="344.82">*</text>
<text x="5.71" y="432.89">+</text>
<text x="59.08" y="184.50">.</text>
<text x="115.71" y="244.67">*</text>
<text x="81.13" y="136.39">.</text>
<text x="195.01" y="470.53">+</text>
<text x="110.57" y="355.81">.</text>
<text x="381.81" y="265.95">.</text>
<text x="119.11" y="105.67">+</text>
<text x="395.14" y="425.67">*</text>
<text x="69.64" y="294.36">+</text>
<text x="109.06" y="477.49">.</text>
<text x="298.03" y="49.28">+</text>
<text x="61.60" y="206.88">+</text>
<text x="116.61" y="229.84">*</text>
<text x="493.75" y="266.05">*</text>
<text x="417.77" y="27.42">+</text>
<text x="347.45" y="74.08">.</text>
<text x="402.67" y="87.64">.</text>
<text x="12.74" y="34.93">+</text>
<text x="177.98" y="104.18">+</text>
<text x="409.80" y="56.83">+</text>
<text x="113.85" y="163.13">.</text>
<text x="400.26" y="291.44">.</text>
<text x="268.32" y="377.23">*</text>
<text x="421.91" y="82.88">*</text>
<text x="452.16" y="471.16">+</text>
<text x="89.98" y="104.83">+</text>
<text x="216.01" y="235.09">*</text>
<text x="292.53" y="287.89">+</text>
<text x="63.55" y="354.42">+</text>
<text x="379.05" y="326.01">+</text>
<text x="201.88" y="198.64">+</text>
<text x="319.75" y="377.60">*</text>
<text x="29.82" y="235.88">*</text>
<text x="22.96" y="225.97">+</text>
<text x="418.12" y="201.79">+</text>
<text x="298.65" y="337.53">.</text>
<text x="304.21" y="422.44">*</text>
<text x="46.39" y="271.62">*</text>
<text x="432.15" y="288.03">.</text>
<text x="417.93" y="484.59">.</text>
<text x="376.53" y="139.22">+</text>
<text x="234.94" y="32.17">.</text>
<text x="152.13" y="30.02">.</text>
<text x="468.31" y="105.15">+</text>
<text x="153.02" y="275.53">+</text>
<text x="71.62" y="241.06">.</text>
<text x="131.70" y="11.79">+</text>
<text x="30.76" y="495.57">+</text>
<text x="337.54" y="490.30">.</text>
<text x="358.86" y="496.45">*</text>
<text x="392.21" y="345.90">*</text>
<text x="28.53" y="171.63">.</text>
<text x="123.23" y="265.62">.</text>
<text x="487.02" y="245.98">+</text>
<text x="286.09" y="412.27">*</text>
<text x="492.23" y="181.02">*</text>
<text x="306.34" y="418.24">.</text>
<text x="163.55" y="82.34">+</text>
<text x="339.29" y="147.59">.</text>
<text x="130.30" y="497.01">.</text>
<text x="224.62" y="59.55">.</text>
<text x="252.16" y="355.25">+</text>
<text x="107.52" y="398.26">.</text>
<text x="141.71" y="276.06">.</text>
<text x="238.51" y="475.30">.</text>
<text x="15.25" y="69.38">+</text>
<text x="204.69" y="14.48">.</text>
<text x="75.00" y="219.23">.</text>
<text x="380.59" y="71.20">.</text>
<text x="335.68" y="184.94">.</text>
<text x="396.37" y="228.34">+</text>
<text x="448.60" y="359.69">+</text>
<text x="234.89" y="249.17">+</text>
<text x="209.77" y="446.94">+</text>
<text x="217.39" y="143.51">.</text>
<text x="242.17" y="398.05">+</text>
<text x="101.98" y="168.37">.</text>
<text x="418.45" y="453.25">.</text>
<text x="192.42" y="467.73">*</text>
<text x="210.71" y="210.77">+</text>
<text x="400.14" y="187.49">+</text>
<text x="116.32" y="479.04">+</text>
<text x="433.81" y="279.21">.</text>
<text x="381.73" y="95.48">*</text>
<text x="419.54" y="244.48">+</text>
<text x="386.69" y="434.21">.</text>
<text x="285.77" y="248.69">.</text>
<text x="276.83" y="426.80">+</text>
<text x="396.38" y="4.88">.</text>
<text x="370.68" y="345.29">+</text>
<text x="131.75" y="314.40">.</text>
<text x="61.17" y="166.34">.</text>
<text x="135.78" y="237.08">+</text>
<text x="42.19" y="346.32">.</text>
<text x="417.88" y="345.82">+</text>
<text x="21.69" y="233.59">+</text>
<text x="160.22" y="98.87">+</text>
<text x="128.60" y="148.32">+</text>
<text x="440.84" y="345.57">+</text>
<text x="130.76" y="5.87">.</text>
<text x="95.47" y="467.90">.</text>
<text x="187.05" y="72.44">.</text>
<text x="314.27" y="303.24">+</text>
<text x="196.55" y="476.87">.</text>
<text x="128.57" y="71.23">.</text>
<text x="362.30" y="163.85">+</text>
<text x="471.15" y="493.16">+</text>
<text x="452.90" y="81.04">.</text>
<text x="267.96" y="237.06">.</text>
<text x="401.92" y="479.17">+</text>
<text x="190.87" y="390.54">+</text>
<text x="498.05" y="211.81">+</text>
<text x="285.71" y="1.46">.</text>
<text x="280.40" y="478.59">+</text>
<text x="7.72" y="445.65">+</text>
<text x="236.88" y="481.67">+</text>
<text x="282.08" y="3.77">.</text>
<text x="292.28" y="256.93">.</text>
<text x="339.69" y="406.13">+</text>
<text x="196.45" y="236.15">.</text>
<text x="315.92" y="428.64">.</text>
<text x="390.55" y="92.08">*</text>
<text x="136.69" y="380.73">.</text>
<text x="275.85" y="346.75">+</text>
<text x="364.61" y="125.06">.</text>
<text x="412.86" y="301.86">.</text>
<text x="196.40" y="143.24">.</text>
<text x="467.63" y="182.66">+</text>
<text x="403.56" y="348.17">+</text>
<text x="444.69" y="107.61">*</text>
<text x="473.25" y="458.35">+</text>
<text x="401.26" y="201.53">.</text>
<text x="97.75" y="379.53">.</text>
<text x="176.68" y="442.01">.</text>
<text x="437.41" y="104.71">.</text>
<text x="378.05" y="295.87">.</text>
<text x="41.91" y="87.47">*</text>
<text x="23.72" y="398.82">.</text>
<text x="372.73" y="114.39">.</text>
<text x="118.08" y="493.72">+</text>
<text x="446.86" y="183.36">+</text>
<text x="431.49" y="179.74">.</text>
<text x="50.65" y="287.05">+</text>
<text x="173.15" y="193.98">.</text>
<text x="413.27" y="66.60">+</text>
<text x="77.15" y="120.05">.</text>
<text x="391.29" y="357.01">.</text>
<text x="147.47" y="383.16">.</text>
<text x="77.08" y="61.04">*</text>
<text x="439.66" y="481.48">.</text>
<text x="86.26" y="245.57">+</text>
<text x="315.84" y="66.42">*</text>
<text x="407.12" y="401.66">+</text>
<text x="204.07" y="97.66">+</text>
<text x="247.75" y="57.47">+</text>
<text x="466.92" y="451.56">*</text>
<text x="426.60" y="58.03">+</text>
<text x="0.51" y="283.40">.</text>
<text x="487.37" y="18.32">*</text>
<text x="186.81" y="37.80">+</text>
<text x="191.99" y="91.02">.</text>
<text x="250.94" y="433.01">*</text>
<text x="178.76" y="319.23">.</text>
<text x="186.33" y="457.00">+</text>
<text x="380.16" y="307.15">.</text>
<text x="61.68" y="124.72">*</text>
<text x="77.21" y="323.86">.</text>
<text x="262.00" y="278.65">.</text>
<text x="304.60" y="341.65">*</text>
<text x="56.00" y="359.32">+</text>
<text x="463.46" y="91.75">+</text>
<text x="399.79" y="214.89">.</text>
<text x="177.88" y="486.97">.</text>
<text x="461.42" y="234.80">*</text>
<text x="425.68" y="66.18">+</text>
<text x="48.54" y="463.82">*</text>
<text x="166.57" y="200.99">.</text>
<text x="236.78" y="256.77">.</text>
<text x="130.13" y="105.39">.</text>

</svg>