
<svg viewBox="0 0 500 500" xmlns="http://www.w.org/2000/svg" width="100%" height="100%" style="background-color: #0a0a14; font-family: 'Courier New', Courier, monospace;">
    <style>
        text { fill: #aaa; font-size: 10px; text-anchor: middle; dominant-baseline: middle; }
    </style>
    <text x="179.98" y="325.31">.</text>
<text x="146.78" y="471.78">.</text>
<text x="383.33" y="193.93">.</text>
<text x="407.01" y="306.43">.</text>
<text x="273.85" y="119.16">.</text>
<text x="81.88" y="448.66">+</text>
<text x="309.94" y="77.85">.</text>
<text x="20.69" y="115.83">+</text>
<text x="261.13" y="165.89">+</text>
<text x="379.71" y="235.73">.</text>
<text x="76.49" y="213.72">*</text>
<text x="325.13" y="225.11">+</text>
<text x="131.88" y="143.45">.</text>
<text x="314.38" y="241.33">.</text>
<text x="138.28" y="191.57">.</text>
<text x="353.49" y="270.00">.</text>
<text x="169.55" y="469.38">+</text>
<text x="71.03" y="167.09">+</text>
<text x="105.27" y="458.01">.</text>
<text x="348.59" y="234.11">+</text>
<text x="322.69" y="12.96">+</text>
<text x="88.52" y="34.77">*</text>
<text x="312.95" y="323.31">+</text>
<text x="273.11" y="455.51">+</text>
<text x="231.68" y="457.21">.</text>
<text x="313.52" y="43.62">*</text>
<text x="465.08" y="123.24">.</text>
<text x="445.74" y="75.86">+</text>
<text x="296.82" y="277.38">+</text>
<text x="58.02" y="205.18">.</text>
<text x="484.31" y="458.86">.</text>
<text x="113.38" y="215.79">.</text>
<text x="412.95" y="16.33">.</text>
<text x="208.43" y="88.03">+</text>
<text x="62.95" y="156.32">.</text>
<text x="175.30" y="243.60">.</text>
<text x="477.03" y="314.76">+</text>
<text x="290.39" y="129.91">+</text>
<text x="444.05" y="31.26">.</text>
<text x="467.00" y="61.75">.</text>
<text x="241.57" y="294.72">+</text>
<text x="99.54" y="408.80">.</text>
<text x="56.40" y="352.34">.</text>
<text x="209.71" y="482.17">+</text>
<text x="168.39" y="276.21">.</text>
<text x="134.00" y="392.93">.</text>
<text x="50.93" y="127.40">*</text>
<text x="312.78" y="334.82">+</text>
<text x="185.88" y="13.03">.</text>
<text x="282.30" y="380.41">.</text>
<text x="289.18" y="304.39">+</text>
<text x="33.10" y="268.15">.</text>
<text x="498.26" y="192.21">*</text>
<text x="44.83" y="113.43">.</text>
<text x="9.92" y="344.39">.</text>
<text x="384.34" y="69.64">.</text>
<text x="371.34" y="443.60">.</text>
<text x="144.43" y="222.09">*</text>
<text x="81.80" y="235.33">.</text>
<text x="496.77" y="346.93">.</text>
<text x="404.61" y="315.97">*</text>
<text x="193.28" y="380.17">+</text>
<text x="130.39" y="472.58">.</text>
<text x="344.12" y="102.91">.</text>
<text x="345.42" y="393.98">*</text>
<text x="482.07" y="185.00">.</text>
<text x="91.31" y="246.09">.</text>
<text x="185.25" y="191.53">+</text>
<text x="20.54" y="151.66">.</text>
<text x="50.72" y="392.87">.</text>
<text x="204.31" y="477.85">*</text>
<text x="161.80" y="247.34">.</text>
<text x="17.29" y="133.47">+</text>
<text x="43.52" y="396.66">*</text>
<text x="297.97" y="45.20">*</text>
<text x="465.41" y="27.63">*</text>
<text x="330.81" y="436.13">.</text>
<text x="396.58" y="67.93">+</text>
<text x="462.25" y="344.46">.</text>
<text x="455.69" y="487.65">+</text>
<text x="403.67" y="457.71">+</text>
<text x="451.93" y="395.80">+</text>
<text x="258.06" y="79.58">.</text>
<text x="131.15" y="122.92">.</text>
<text x="405.78" y="138.79">+</text>
<text x="291.96" y="51.27">.</text>
<text x="264.03" y="113.28">.</text>
<text x="90.98" y="46.09">*</text>
<text x="262.48" y="189.93">*</text>
<text x="352.90" y="232.09">+</text>
<text x="448.66" y="208.03">*</text>
<text x="402.61" y="354.28">+</text>
<text x="195.28" y="209.52">+</text>
<text x="375.12" y="277.15">+</text>
<text x="486.14" y="396.69">.</text>
<text x="234.26" y="70.29">+</text>
<text x="240.32" y="228.64">.</text>
<text x="427.86" y="32.72">.</text>
<text x="360.45" y="160.44">+</text>
<text x="141.94" y="7.72">.</text>
<text x="121.02" y="335.09">+</text>
<text x="109.59" y="152.22">+</text>
<text x="66.93" y="36.75">+</text>
<text x="386.20" y="328.10">+</text>
<text x="15.86" y="287.68">+</text>
<text x="243.15" y="391.91">+</text>
<text x="437.80" y="217.02">.</text>
<text x="439.16" y="228.70">+</text>
<text x="34.98" y="436.08">.</text>
<text x="186.02" y="8.73">.</text>
<text x="380.29" y="499.91">.</text>
<text x="8.56" y="424.31">+</text>
<text x="446.76" y="490.18">+</text>
<text x="467.99" y="133.30">*</text>
<text x="122.86" y="417.85">*</text>
<text x="268.28" y="266.14">+</text>
<text x="254.47" y="183.03">.</text>
<text x="360.74" y="112.89">+</text>
<text x="171.84" y="173.12">+</text>
<text x="486.21" y="447.97">*</text>
<text x="56.21" y="153.51">.</text>
<text x="263.47" y="387.18">.</text>
<text x="466.63" y="360.66">.</text>
<text x="283.05" y="477.95">+</text>
<text x="187.09" y="483.10">+</text>
<text x="149.62" y="248.57">.</text>
<text x="342.29" y="20.08">*</text>
<text x="485.67" y="117.86">.</text>
<text x="2.90" y="63.03">.</text>
<text x="204.37" y="453.63">.</text>
<text x="207.25" y="375.10">*</text>
<text x="364.96" y="180.42">.</text>
<text x="312.50" y="300.66">+</text>
<text x="294.92" y="232.41">.</text>
<text x="113.30" y="172.92">+</text>
<text x="256.38" y="280.96">+</text>
<text x="106.97" y="276.24">+</text>
<text x="84.28" y="311.81">+</text>
<text x="135.07" y="109.37">+</text>
<text x="152.65" y="294.03">.</text>
<text x="182.27" y="154.74">*</text>
<text x="172.06" y="346.32">+</text>
<text x="332.02" y="248.09">*</text>
<text x="349.38" y="142.38">+</text>
<text x="183.70" y="195.84">+</text>
<text x="169.45" y="327.47">+</text>
<text x="140.05" y="27.50">+</text>
<text x="467.65" y="212.37">.</text>
<text x="410.44" y="52.06">*</text>
<text x="87.34" y="149.82">+</text>
<text x="361.00" y="362.49">+</text>
<text x="389.72" y="135.33">+</text>
<text x="109.77" y="225.33">+</text>
<text x="192.11" y="417.27">+</text>
<text x="175.14" y="458.57">*</text>
<text x="253.79" y="95.59">.</text>
<text x="397.55" y="343.47">*</text>
<text x="88.97" y="108.59">+</text>
<text x="446.71" y="78.97">+</text>
<text x="281.89" y="82.97">+</text>
<text x="99.03" y="369.52">*</text>
<text x="398.66" y="484.04">.</text>
<text x="220.84" y="379.87">.</text>
<text x="359.26" y="407.35">.</text>
<text x="159.41" y="377.78">.</text>
<text x="283.94" y="392.53">+</text>
<text x="121.14" y="388.10">.</text>
<text x="446.34" y="320.63">+</text>
<text x="323.25" y="213.07">*</text>
<text x="188.88" y="67.04">+</text>
<text x="222.58" y="134.58">+</text>
<text x="183.60" y="116.19">+</text>
<text x="132.30" y="359.54">+</text>
<text x="389.66" y="64.03">.</text>
<text x="64.72" y="253.81">.</text>
<text x="449.38" y="64.87">+</text>
<text x="105.02" y="12.03">.</text>
<text x="170.54" y="239.42">+</text>
<text x="20.00" y="173.24">.</text>
<text x="467.25" y="135.12">.</text>
<text x="382.42" y="292.56">+</text>
<text x="412.13" y="21.65">.</text>
<text x="193.66" y="256.68">+</text>
<text x="192.55" y="28.03">+</text>
<text x="234.70" y="90.97">+</text>
<text x="464.38" y="372.86">.</text>
<text x="212.60" y="381.54">+</text>
<text x="191.27" y="208.54">+</text>
<text x="91.69" y="172.16">+</text>
<text x="294.79" y="174.96">.</text>
<text x="325.65" y="471.21">+</text>
<text x="92.18" y="321.14">+</text>
<text x="445.69" y="279.14">.</text>
<text x="401.99" y="109.48">.</text>
<text x="282.47" y="8.76">.</text>
<text x="193.95" y="299.89">.</text>
<text x="277.34" y="62.85">.</text>
<text x="259.45" y="27.27">+</text>
<text x="254.27" y="135.75">.</text>
<text x="48.03" y="436.08">.</text>
<text x="236.60" y="92.93">.</text>
<text x="31.21" y="211.33">+</text>
<text x="239.14" y="74.71">*</text>
<text x="334.59" y="48.19">.</text>
<text x="491.94" y="334.03">+</text>
<text x="8.86" y="228.19">+</text>
<text x="67.77" y="273.75">+</text>
<text x="459.90" y="170.15">+</text>
<text x="137.34" y="194.56">+</text>
<text x="366.67" y="241.44">+</text>
<text x="32.87" y="419.07">*</text>
<text x="96.10" y="50.16">.</text>
<text x="140.29" y="38.35">*</text>
<text x="273.29" y="207.34">.</text>
<text x="104.75" y="160.57">+</text>

</svg>