
<svg viewBox="0 0 500 500" xmlns="http://www.w.org/2000/svg" width="100%" height="100%" style="background-color: #0a0a14; font-family: 'Courier New', Courier, monospace;">
    <style>
        text { fill: #aaa; font-size: 10px; text-anchor: middle; dominant-baseline: middle; }
    </style>
    <text x="326.15" y="112.78">*</text>
<text x="167.19" y="369.51">.</text>
<text x="101.85" y="262.00">*</text>
<text x="451.34" y="36.24">+</text>
<text x="130.99" y="490.20">.</text>
<text x="148.67" y="208.23">+</text>
<text x="381.06" y="346.23">.</text>
<text x="100.21" y="92.44">.</text>
<text x="414.84" y="222.71">+</text>
<text x="409.08" y="233.77">.</text>
<text x="204.83" y="352.71">.</text>
<text x="237.24" y="110.25">.</text>
<text x="453.25" y="390.59">*</text>
<text x="21.14" y="496.40">+</text>
<text x="50.71" y="406.20">+</text>
<text x="205.76" y="234.86">.</text>
<text x="222.38" y="396.78">+</text>
<text x="244.11" y="453.10">+</text>
<text x="67.59" y="296.96">.</text>
<text x="436.51" y="259.31">.</text>
<text x="333.98" y="197.68">.</text>
<text x="317.45" y="131.17">*</text>
<text x="423.80" y="468.38">+</text>
<text x="360.96" y="365.24">+</text>
<text x="406.38" y="432.71">+</text>
<text x="148.83" y="453.78">.</text>
<text x="353.23" y="433.24">+</text>
<text x="53.63" y="392.73">.</text>
<text x="482.37" y="317.80">+</text>
<text x="88.13" y="51.66">.</text>
<text x="460.40" y="242.36">.</text>
<text x="281.28" y="485.57">.</text>
<text x="48.83" y="308.56">.</text>
<text x="154.23" y="337.95">+</text>
<text x="143.93" y="419.48">*</text>
<text x="174.99" y="293.99">+</text>
<text x="292.93" y="12.00">.</text>
<text x="160.84" y="490.08">+</text>
<text x="364.35" y="411.91">+</text>
<text x="378.86" y="34.19">*</text>
<text x="112.44" y="122.98">+</text>
<text x="188.99" y="126.54">+</text>
<text x="453.64" y="226.28">+</text>
<text x="126.72" y="458.69">.</text>
<text x="221.57" y="240.08">+</text>
<text x="441.43" y="354.82">+</text>
<text x="75.17" y="188.47">.</text>
<text x="8.23" y="40.95">.</text>
<text x="162.23" y="125.91">+</text>
<text x="488.79" y="114.96">+</text>
<text x="222.59" y="19.83">+</text>
<text x="100.71" y="443.37">*</text>
<text x="223.10" y="213.55">.</text>
<text x="75.72" y="197.28">.</text>
<text x="292.81" y="265.83">.</text>
<text x="445.50" y="278.52">*</text>
<text x="370.53" y="75.25">.</text>
<text x="265.07" y="309.19">.</text>
<text x="459.55" y="369.54">*</text>
<text x="379.02" y="487.58">+</text>
<text x="159.55" y="46.36">*</text>
<text x="171.62" y="395.45">.</text>
<text x="298.90" y="443.97">+</text>
<text x="419.04" y="480.15">+</text>
<text x="477.96" y="440.56">.</text>
<text x="84.58" y="45.14">.</text>
<text x="173.76" y="317.19">.</text>
<text x="307.65" y="432.14">+</text>
<text x="261.03" y="5.80">+</text>
<text x="4.89" y="407.87">*</text>
<text x="248.49" y="469.63">+</text>
<text x="497.49" y="295.70">+</text>
<text x="242.52" y="85.65">+</text>
<text x="365.06" y="321.46">+</text>
<text x="338.43" y="338.92">+</text>
<text x="26.00" y="277.62">.</text>
<text x="143.73" y="257.44">+</text>
<text x="59.85" y="271.28">+</text>
<text x="375.07" y="260.58">.</text>
<text x="134.00" y="51.66">.</text>
<text x="331.57" y="206.46">.</text>
<text x="230.06" y="489.58">*</text>
<text x="364.21" y="116.27">+</text>
<text x="143.42" y="140.23">.</text>
<text x="108.23" y="231.50">+</text>
<text x="291.74" y="262.10">+</text>
<text x="69.11" y="435.59">.</text>
<text x="388.62" y="135.93">*</text>
<text x="454.29" y="46.09">+</text>
<text x="317.32" y="158.28">.</text>
<text x="423.25" y="169.58">.</text>
<text x="467.89" y="392.66">.</text>
<text x="57.39" y="356.19">.</text>
<text x="289.54" y="206.66">+</text>
<text x="208.79" y="100.98">+</text>
<text x="420.46" y="111.44">+</text>
<text x="296.93" y="366.37">+</text>
<text x="24.75" y="479.04">+</text>
<text x="290.17" y="18.19">*</text>
<text x="81.54" y="225.72">+</text>
<text x="139.69" y="176.93">.</text>
<text x="236.08" y="323.20">.</text>
<text x="255.02" y="158.87">*</text>
<text x="133.30" y="250.15">+</text>
<text x="457.91" y="133.36">*</text>
<text x="402.15" y="207.60">.</text>
<text x="301.77" y="185.39">*</text>
<text x="477.21" y="253.92">+</text>
<text x="355.89" y="20.48">.</text>
<text x="20.10" y="253.27">.</text>
<text x="30.55" y="47.79">.</text>
<text x="379.72" y="133.62">*</text>
<text x="482.35" y="146.09">.</text>
<text x="254.75" y="128.49">.</text>
<text x="83.93" y="87.11">.</text>
<text x="398.21" y="19.52">.</text>
<text x="280.83" y="201.64">+</text>
<text x="63.85" y="13.86">.</text>
<text x="30.20" y="117.48">+</text>
<text x="143.08" y="180.64">+</text>
<text x="106.49" y="450.02">*</text>
<text x="28.41" y="429.77">.</text>
<text x="415.25" y="240.02">*</text>
<text x="166.94" y="346.65">*</text>
<text x="223.67" y="343.08">+</text>
<text x="153.57" y="408.50">.</text>
<text x="393.09" y="348.68">+</text>
<text x="396.51" y="297.96">.</text>
<text x="68.72" y="298.36">.</text>
<text x="177.40" y="114.20">+</text>
<text x="20.90" y="150.13">+</text>
<text x="487.26" y="399.01">+</text>
<text x="230.21" y="79.31">+</text>
<text x="176.64" y="310.11">+</text>
<text x="413.12" y="248.88">+</text>
<text x="249.65" y="253.24">+</text>
<text x="274.69" y="173.96">.</text>
<text x="41.62" y="187.05">.</text>
<text x="114.44" y="56.87">.</text>
<text x="471.99" y="447.03">*</text>
<text x="217.42" y="74.10">+</text>
<text x="460.25" y="474.05">.</text>
<text x="324.59" y="138.36">+</text>
<text x="168.66" y="312.74">+</text>
<text x="291.67" y="148.43">+</text>
<text x="344.83" y="137.53">+</text>
<text x="149.42" y="474.22">.</text>
<text x="491.35" y="274.39">+</text>
<text x="124.71" y="435.74">.</text>
<text x="325.85" y="137.63">+</text>
<text x="52.39" y="462.06">.</text>
<text x="162.91" y="343.18">+</text>
<text x="484.03" y="66.91">.</text>
<text x="457.08" y="285.70">.</text>
<text x="77.33" y="189.29">*</text>
<text x="374.51" y="487.32">.</text>
<text x="47.42" y="237.24">+</text>
<text x="439.41" y="239.33">.</text>
<text x="211.11" y="346.28">+</text>
<text x="15.73" y="327.28">.</text>
<text x="312.86" y="155.67">+</text>
<text x="150.81" y="428.00">.</text>
<text x="442.34" y="445.89">.</text>
<text x="292.51" y="112.48">+</text>
<text x="77.32" y="274.22">.</text>
<text x="312.81" y="439.66">.</text>
<text x="111.82" y="407.02">.</text>
<text x="66.47" y="236.69">+</text>
<text x="61.09" y="455.17">+</text>
<text x="263.61" y="96.23">*</text>
<text x="487.28" y="450.93">+</text>
<text x="140.55" y="308.12">+</text>
<text x="246.56" y="374.38">.</text>
<text x="10.59" y="171.58">.</text>
<text x="123.18" y="73.49">+</text>
<text x="215.60" y="410.39">*</text>
<text x="402.28" y="218.57">+</text>
<text x="497.98" y="431.14">.</text>
<text x="494.69" y="442.87">.</text>
<text x="35.15" y="446.60">+</text>
<text x="71.96" y="99.47">.</text>
<text x="10.20" y="322.01">*</text>
<text x="336.06" y="147.41">+</text>
<text x="419.28" y="5.28">.</text>
<text x="117.85" y="235.23">+</text>
<text x="149.99" y="240.83">.</text>
<text x="394.61" y="451.79">.</text>
<text x="239.77" y="58.24">+</text>
<text x="57.39" y="238.88">+</text>
<text x="127.30" y="329.96">*</text>
<text x="270.29" y="69.23">+</text>
<text x="25.60" y="142.29">.</text>
<text x="300.06" y="29.91">+</text>
<text x="267.91" y="232.77">.</text>
<text x="130.83" y="410.45">+</text>
<text x="334.11" y="410.86">+</text>
<text x="311.23" y="161.67">+</text>
<text x="155.42" y="147.33">.</text>
<text x="388.88" y="349.80">.</text>
<text x="468.54" y="451.38">+</text>
<text x="363.56" y="181.12">+</text>
<text x="362.81" y="412.78">.</text>
<text x="470.67" y="433.74">+</text>
<text x="338.97" y="207.38">.</text>
<text x="460.83" y="261.23">+</text>
<text x="61.16" y="294.85">+</text>
<text x="174.08" y="332.92">+</text>
<text x="22.37" y="381.77">.</text>
<text x="269.67" y="91.46">.</text>
<text x="243.91" y="55.93">*</text>
<text x="234.68" y="7.91">.</text>
<text x="317.93" y="345.76">+</text>
<text x="22.10" y="85.14">.</text>
<text x="171.93" y="483.66">.</text>
<text x="37.14" y="63.25">.</text>

</svg>