
<svg viewBox="0 0 500 500" xmlns="http://www.w.org/2000/svg" width="100%" height="100%" style="background-color: #0a0a14; font-family: 'Courier New', Courier, monospace;">
    <style>
        text { fill: #aaa; font-size: 10px; text-anchor: middle; dominant-baseline: middle; }
    </style>
    <text x="164.34" y="376.62">+</text>
<text x="202.53" y="189.02">+</text>
<text x="188.12" y="80.90">*</text>
<text x="403.95" y="205.86">+</text>
<text x="102.27" y="163.67">+</text>
<text x="280.06" y="63.07">+</text>
<text x="487.20" y="81.38">.</text>
<text x="450.25" y="57.31">.</text>
<text x="106.51" y="113.84">+</text>
<text x="294.78" y="140.78">*</text>
<text x="446.60" y="340.87">*</text>
<text x="397.40" y="490.74">*</text>
<text x="283.93" y="178.41">.</text>
<text x="394.42" y="310.29">+</text>
<text x="121.68" y="425.50">+</text>
<text x="106.23" y="447.12">.</text>
<text x="357.01" y="363.26">+</text>
<text x="463.80" y="362.85">*</text>
<text x="213.44" y="456.44">.</text>
<text x="300.59" y="149.12">.</text>
<text x="23.90" y="346.57">*</text>
<text x="446.47" y="11.34">.</text>
<text x="448.05" y="256.69">+</text>
<text x="55.93" y="81.57">+</text>
<text x="56.89" y="78.98">.</text>
<text x="94.43" y="50.29">+</text>
<text x="76.38" y="146.97">+</text>
<text x="6.05" y="429.95">.</text>
<text x="208.15" y="369.73">.</text>
<text x="393.01" y="121.26">+</text>
<text x="209.71" y="242.59">.</text>
<text x="18.05" y="6.46">.</text>
<text x="188.76" y="238.53">+</text>
<text x="41.45" y="39.24">+</text>
<text x="231.65" y="121.14">+</text>
<text x="176.09" y="247.36">.</text>
<text x="160.88" y="2.03">+</text>
<text x="290.37" y="5.87">+</text>
<text x="131.37" y="327.47">+</text>
<text x="282.38" y="445.57">.</text>
<text x="18.95" y="27.86">*</text>
<text x="247.00" y="221.33">+</text>
<text x="127.54" y="230.34">.</text>
<text x="150.71" y="239.53">+</text>
<text x="468.18" y="425.76">.</text>
<text x="248.57" y="135.37">+</text>
<text x="429.89" y="284.87">.</text>
<text x="429.59" y="381.64">+</text>
<text x="96.94" y="278.14">+</text>
<text x="270.71" y="359.47">.</text>
<text x="194.20" y="108.74">*</text>
<text x="413.54" y="87.36">.</text>
<text x="186.92" y="205.75">.</text>
<text x="288.03" y="53.93">+</text>
<text x="9.63" y="389.95">+</text>
<text x="460.40" y="110.27">.</text>
<text x="136.57" y="368.99">.</text>
<text x="89.92" y="183.83">+</text>
<text x="0.05" y="161.93">+</text>
<text x="128.19" y="111.43">.</text>
<text x="185.01" y="295.46">*</text>
<text x="479.46" y="250.60">+</text>
<text x="238.01" y="166.16">*</text>
<text x="493.23" y="97.24">.</text>
<text x="424.86" y="244.76">+</text>
<text x="372.88" y="362.96">+</text>
<text x="324.15" y="139.92">.</text>
<text x="399.81" y="62.61">.</text>
<text x="486.69" y="393.49">.</text>
<text x="271.33" y="267.26">.</text>
<text x="267.20" y="409.60">+</text>
<text x="455.94" y="82.28">+</text>
<text x="397.89" y="359.65">*</text>
<text x="400.66" y="440.40">+</text>
<text x="431.92" y="200.08">*</text>
<text x="232.47" y="60.22">+</text>
<text x="340.00" y="19.41">.</text>
<text x="61.90" y="334.13">.</text>
<text x="333.37" y="77.49">+</text>
<text x="2.99" y="407.25">.</text>
<text x="283.19" y="437.85">+</text>
<text x="321.84" y="129.81">+</text>
<text x="309.23" y="118.86">*</text>
<text x="91.62" y="477.09">+</text>
<text x="361.58" y="96.64">+</text>
<text x="124.76" y="331.01">*</text>
<text x="393.93" y="298.71">.</text>
<text x="316.86" y="254.65">+</text>
<text x="20.31" y="418.07">+</text>
<text x="7.21" y="403.02">.</text>
<text x="107.97" y="437.91">+</text>
<text x="45.68" y="60.85">*</text>
<text x="50.96" y="436.58">*</text>
<text x="451.83" y="138.87">.</text>
<text x="438.48" y="479.69">.</text>
<text x="298.09" y="189.66">.</text>
<text x="330.94" y="112.87">*</text>
<text x="105.12" y="374.86">*</text>
<text x="232.45" y="326.92">*</text>
<text x="316.69" y="244.39">.</text>
<text x="295.31" y="194.16">*</text>
<text x="429.40" y="206.01">.</text>
<text x="113.69" y="68.74">.</text>
<text x="296.65" y="214.69">*</text>
<text x="187.43" y="80.77">+</text>
<text x="185.48" y="407.42">.</text>
<text x="333.52" y="254.67">+</text>
<text x="7.32" y="271.23">.</text>
<text x="192.63" y="5.02">*</text>
<text x="296.33" y="191.60">+</text>
<text x="327.17" y="88.95">.</text>
<text x="440.18" y="164.05">+</text>
<text x="484.61" y="280.65">+</text>
<text x="283.66" y="122.41">+</text>
<text x="410.64" y="13.69">*</text>
<text x="28.58" y="434.05">*</text>
<text x="438.37" y="56.77">+</text>
<text x="497.96" y="282.72">.</text>
<text x="206.24" y="47.79">.</text>
<text x="318.12" y="490.27">+</text>
<text x="424.15" y="474.62">+</text>
<text x="274.95" y="408.85">+</text>
<text x="427.31" y="85.76">.</text>
<text x="351.70" y="102.21">.</text>
<text x="413.09" y="411.70">*</text>
<text x="31.03" y="312.79">.</text>
<text x="493.52" y="259.48">.</text>
<text x="30.53" y="124.26">+</text>
<text x="178.03" y="201.74">*</text>
<text x="50.32" y="257.51">.</text>
<text x="207.87" y="419.28">+</text>
<text x="183.77" y="44.50">*</text>
<text x="340.74" y="356.23">.</text>
<text x="152.22" y="263.07">+</text>
<text x="140.67" y="202.11">.</text>
<text x="395.85" y="392.75">.</text>
<text x="390.52" y="294.66">*</text>
<text x="400.55" y="122.90">*</text>
<text x="315.39" y="101.45">.</text>
<text x="27.82" y="204.17">*</text>
<text x="143.21" y="102.60">.</text>
<text x="170.54" y="494.56">.</text>
<text x="436.69" y="231.37">+</text>
<text x="312.00" y="352.37">.</text>
<text x="278.78" y="411.39">+</text>
<text x="373.65" y="17.01">+</text>
<text x="116.60" y="114.25">+</text>
<text x="281.84" y="309.56">.</text>
<text x="168.30" y="205.47">.</text>
<text x="323.02" y="140.97">.</text>
<text x="200.67" y="180.78">.</text>
<text x="182.35" y="278.20">*</text>
<text x="296.59" y="301.16">+</text>
<text x="239.93" y="287.01">+</text>
<text x="420.58" y="183.51">.</text>
<text x="144.62" y="371.56">+</text>
<text x="88.20" y="46.01">+</text>
<text x="451.50" y="422.92">+</text>
<text x="76.77" y="108.03">.</text>
<text x="102.51" y="5.11">+</text>
<text x="492.52" y="214.38">.</text>
<text x="488.78" y="213.23">*</text>
<text x="107.81" y="272.43">+</text>
<text x="488.51" y="165.07">+</text>
<text x="400.54" y="375.50">*</text>
<text x="286.59" y="201.32">+</text>
<text x="393.54" y="60.33">*</text>
<text x="164.59" y="302.38">.</text>
<text x="247.35" y="127.80">+</text>
<text x="218.61" y="74.66">.</text>
<text x="48.80" y="268.63">.</text>
<text x="101.28" y="215.19">.</text>
<text x="432.44" y="474.14">+</text>
<text x="384.20" y="239.44">.</text>
<text x="484.58" y="497.44">*</text>
<text x="497.72" y="429.27">+</text>
<text x="342.13" y="244.76">+</text>
<text x="294.01" y="405.10">+</text>
<text x="255.48" y="51.68">+</text>
<text x="36.62" y="230.69">.</text>
<text x="24.79" y="189.44">.</text>
<text x="323.10" y="373.42">+</text>
<text x="2.94" y="296.25">+</text>
<text x="238.12" y="396.99">*</text>
<text x="5.59" y="402.48">+</text>
<text x="285.53" y="348.60">.</text>
<text x="198.61" y="235.04">.</text>
<text x="149.83" y="221.92">+</text>
<text x="493.28" y="456.40">.</text>
<text x="144.40" y="330.93">.</text>
<text x="121.38" y="113.42">+</text>
<text x="185.24" y="115.78">*</text>
<text x="226.23" y="250.63">*</text>
<text x="328.92" y="78.00">.</text>
<text x="46.46" y="14.13">.</text>
<text x="298.47" y="361.58">+</text>
<text x="401.17" y="394.30">*</text>
<text x="469.34" y="427.28">+</text>
<text x="73.46" y="342.69">.</text>
<text x="242.59" y="157.54">+</text>
<text x="290.90" y="185.33">+</text>
<text x="465.23" y="128.94">+</text>
<text x="382.89" y="486.63">.</text>
<text x="318.65" y="181.25">+</text>
<text x="44.87" y="491.09">.</text>
<text x="144.73" y="227.43">+</text>
<text x="126.58" y="85.86">+</text>
<text x="37.91" y="379.70">.</text>
<text x="285.19" y="54.56">+</text>
<text x="434.36" y="85.97">+</text>
<text x="414.70" y="432.54">*</text>
<text x="276.17" y="304.06">.</text>
<text x="226.16" y="174.09">+</text>
<text x="170.26" y="195.51">.</text>
<text x="430.21" y="253.11">+</text>
<text x="101.55" y="8.09">.</text>
<text x="39.99" y="12.35">+</text>
<text x="323.60" y="40.08">.</text>
<text x="276.80" y="84.49">+</text>
<text x="48.12" y="367.01">.</text>

</svg>