
<svg viewBox="0 0 500 500" xmlns="http://www.w.org/2000/svg" width="100%" height="100%" style="background-color: #0a0a14; font-family: 'Courier New', Courier, monospace;">
    <style>
        text { fill: #aaa; font-size: 10px; text-anchor: middle; dominant-baseline: middle; }
    </style>
    <text x="188.48" y="420.14">.</text>
<text x="130.52" y="438.12">+</text>
<text x="332.63" y="213.19">.</text>
<text x="362.73" y="98.97">+</text>
<text x="173.28" y="55.34">.</text>
<text x="289.62" y="407.75">.</text>
<text x="79.45" y="174.64">+</text>
<text x="230.02" y="455.93">+</text>
<text x="306.31" y="411.24">.</text>
<text x="136.84" y="337.61">+</text>
<text x="8.31" y="199.99">.</text>
<text x="96.74" y="97.50">.</text>
<text x="209.12" y="293.69">+</text>
<text x="316.10" y="286.09">+</text>
<text x="1.62" y="135.59">*</text>
<text x="283.23" y="214.54">.</text>
<text x="378.09" y="194.40">+</text>
<text x="435.99" y="154.95">*</text>
<text x="310.96" y="212.58">+</text>
<text x="100.73" y="347.09">+</text>
<text x="494.89" y="145.19">+</text>
<text x="214.30" y="298.50">*</text>
<text x="214.98" y="446.72">.</text>
<text x="62.40" y="231.29">.</text>
<text x="474.10" y="356.72">*</text>
<text x="27.30" y="192.68">.</text>
<text x="331.47" y="32.42">.</text>
<text x="445.40" y="259.42">.</text>
<text x="222.49" y="362.98">*</text>
<text x="493.39" y="334.33">+</text>
<text x="458.20" y="65.86">.</text>
<text x="417.41" y="202.71">.</text>
<text x="249.18" y="68.79">+</text>
<text x="100.09" y="490.34">+</text>
<text x="369.18" y="118.21">+</text>
<text x="292.86" y="259.19">+</text>
<text x="30.12" y="17.32">+</text>
<text x="87.64" y="35.30">+</text>
<text x="426.02" y="52.02">.</text>
<text x="181.08" y="277.34">+</text>
<text x="346.03" y="426.95">+</text>
<text x="490.88" y="13.36">*</text>
<text x="493.95" y="348.89">.</text>
<text x="453.00" y="180.58">.</text>
<text x="44.93" y="145.85">+</text>
<text x="25.32" y="1.35">.</text>
<text x="315.50" y="238.38">.</text>
<text x="165.76" y="456.15">*</text>
<text x="56.09" y="375.78">.</text>
<text x="143.22" y="168.41">+</text>
<text x="436.17" y="210.90">.</text>
<text x="329.61" y="481.76">+</text>
<text x="483.95" y="184.45">*</text>
<text x="86.59" y="10.90">+</text>
<text x="358.43" y="209.31">.</text>
<text x="413.46" y="68.08">*</text>
<text x="467.89" y="138.54">.</text>
<text x="150.93" y="163.92">*</text>
<text x="11.54" y="359.93">+</text>
<text x="385.37" y="312.20">+</text>
<text x="131.85" y="409.52">.</text>
<text x="57.52" y="28.51">+</text>
<text x="246.35" y="476.23">+</text>
<text x="97.41" y="18.65">.</text>
<text x="448.23" y="280.39">+</text>
<text x="179.41" y="189.68">.</text>
<text x="12.10" y="14.81">.</text>
<text x="240.29" y="172.21">.</text>
<text x="458.56" y="301.08">+</text>
<text x="16.71" y="392.50">*</text>
<text x="407.48" y="218.13">+</text>
<text x="324.54" y="13.08">*</text>
<text x="360.35" y="208.90">.</text>
<text x="93.09" y="32.22">.</text>
<text x="171.74" y="5.90">*</text>
<text x="490.20" y="100.31">+</text>
<text x="158.91" y="443.72">+</text>
<text x="160.89" y="472.66">.</text>
<text x="319.45" y="410.18">.</text>
<text x="462.18" y="212.52">.</text>
<text x="113.24" y="442.56">+</text>
<text x="172.89" y="265.09">+</text>
<text x="477.79" y="371.26">.</text>
<text x="241.56" y="343.68">+</text>
<text x="12.40" y="282.37">.</text>
<text x="372.98" y="189.65">.</text>
<text x="396.84" y="413.50">*</text>
<text x="68.49" y="351.58">+</text>
<text x="3.95" y="111.18">*</text>
<text x="71.64" y="479.79">+</text>
<text x="487.87" y="117.55">+</text>
<text x="303.29" y="365.60">.</text>
<text x="260.89" y="219.07">+</text>
<text x="326.36" y="485.50">+</text>
<text x="350.41" y="110.14">.</text>
<text x="53.93" y="90.23">+</text>
<text x="306.96" y="436.69">.</text>
<text x="433.81" y="449.76">.</text>
<text x="490.61" y="417.37">.</text>
<text x="26.51" y="348.54">+</text>
<text x="288.94" y="181.17">.</text>
<text x="61.14" y="85.13">+</text>
<text x="182.51" y="369.88">.</text>
<text x="447.49" y="492.56">+</text>
<text x="315.82" y="271.63">.</text>
<text x="370.75" y="392.35">.</text>
<text x="23.45" y="30.11">+</text>
<text x="254.65" y="55.55">.</text>
<text x="145.42" y="136.78">.</text>
<text x="406.90" y="149.32">+</text>
<text x="95.18" y="84.07">.</text>
<text x="170.41" y="252.56">.</text>
<text x="340.64" y="280.80">+</text>
<text x="49.10" y="116.10">+</text>
<text x="387.48" y="348.78">.</text>
<text x="190.01" y="71.05">.</text>
<text x="89.93" y="49.31">+</text>
<text x="467.91" y="65.73">.</text>
<text x="234.80" y="115.56">.</text>
<text x="436.64" y="313.36">+</text>
<text x="284.71" y="206.57">.</text>
<text x="436.74" y="372.29">*</text>
<text x="159.63" y="480.73">.</text>
<text x="425.84" y="284.76">.</text>
<text x="361.84" y="91.31">.</text>
<text x="341.36" y="178.46">+</text>
<text x="240.16" y="29.89">.</text>
<text x="473.21" y="267.57">.</text>
<text x="195.33" y="486.36">.</text>
<text x="291.98" y="330.97">+</text>
<text x="414.84" y="312.05">*</text>
<text x="492.03" y="416.44">+</text>
<text x="47.81" y="36.09">.</text>
<text x="398.56" y="282.35">+</text>
<text x="432.33" y="415.53">.</text>
<text x="95.42" y="194.84">+</text>
<text x="49.35" y="31.69">.</text>
<text x="185.60" y="112.49">*</text>
<text x="202.19" y="473.24">+</text>
<text x="422.07" y="449.47">+</text>
<text x="80.72" y="74.73">+</text>
<text x="437.29" y="224.01">+</text>
<text x="213.40" y="488.12">.</text>
<text x="307.51" y="151.68">.</text>
<text x="468.49" y="390.90">.</text>
<text x="281.98" y="172.84">.</text>
<text x="3.83" y="140.21">.</text>
<text x="466.40" y="394.57">+</text>
<text x="84.25" y="448.61">+</text>
<text x="74.39" y="228.29">*</text>
<text x="207.60" y="170.60">+</text>
<text x="434.72" y="52.04">+</text>
<text x="27.96" y="117.51">+</text>
<text x="449.76" y="178.44">.</text>
<text x="313.69" y="206.38">+</text>
<text x="413.52" y="217.85">.</text>
<text x="386.48" y="50.99">.</text>
<text x="24.92" y="109.17">*</text>
<text x="83.80" y="285.14">.</text>
<text x="483.71" y="68.37">*</text>
<text x="123.76" y="22.04">*</text>
<text x="119.39" y="315.18">.</text>
<text x="80.18" y="130.45">.</text>
<text x="187.92" y="207.82">*</text>
<text x="416.36" y="438.52">+</text>
<text x="424.67" y="444.52">.</text>
<text x="422.85" y="296.13">.</text>
<text x="409.32" y="125.11">.</text>
<text x="167.84" y="191.67">+</text>
<text x="131.12" y="116.52">+</text>
<text x="320.28" y="102.31">+</text>
<text x="406.04" y="43.80">+</text>
<text x="328.29" y="394.71">*</text>
<text x="22.07" y="206.08">+</text>
<text x="394.71" y="411.60">+</text>
<text x="229.98" y="55.70">*</text>
<text x="90.37" y="396.13">.</text>
<text x="156.57" y="395.79">*</text>
<text x="294.79" y="111.37">+</text>
<text x="421.92" y="154.54">.</text>
<text x="3.32" y="138.75">.</text>
<text x="276.02" y="282.30">*</text>
<text x="147.23" y="482.93">+</text>
<text x="3.32" y="99.86">+</text>
<text x="214.02" y="455.69">.</text>
<text x="352.02" y="65.30">.</text>
<text x="52.83" y="430.93">.</text>
<text x="400.81" y="226.76">.</text>
<text x="170.63" y="391.00">+</text>
<text x="315.04" y="371.49">.</text>
<text x="251.97" y="34.61">.</text>
<text x="258.32" y="437.94">.</text>
<text x="385.08" y="135.65">.</text>
<text x="239.34" y="465.02">+</text>
<text x="246.52" y="455.11">+</text>
<text x="8.91" y="301.45">+</text>
<text x="418.19" y="22.51">.</text>
<text x="137.49" y="69.73">+</text>
<text x="98.95" y="283.62">+</text>
<text x="447.40" y="193.97">.</text>
<text x="202.14" y="377.87">*</text>
<text x="408.14" y="45.80">+</text>
<text x="434.18" y="317.59">.</text>

</svg>