
<svg viewBox="0 0 500 500" xmlns="http://www.w.org/2000/svg" width="100%" height="100%" style="background-color: #0a0a14; font-family: 'Courier New', Courier, monospace;">
    <style>
        text { fill: #aaa; font-size: 10px; text-anchor: middle; dominant-baseline: middle; }
    </style>
    <text x="424.83" y="284.65">+</text>
<text x="342.86" y="379.27">.</text>
<text x="61.26" y="285.05">*</text>
<text x="267.85" y="46.71">+</text>
<text x="290.90" y="296.59">+</text>
<text x="304.16" y="61.31">+</text>
<text x="2.86" y="302.20">+</text>
<text x="151.72" y="70.34">+</text>
<text x="487.62" y="108.63">.</text>
<text x="60.66" y="372.39">+</text>
<text x="7.21" y="39.93">*</text>
<text x="428.91" y="130.59">.</text>
<text x="2.45" y="227.79">.</text>
<text x="3.18" y="234.12">+</text>
<text x="4.59" y="348.64">.</text>
<text x="321.29" y="76.38">+</text>
<text x="73.28" y="265.46">.</text>
<text x="88.16" y="38.49">.</text>
<text x="204.12" y="209.04">+</text>
<text x="383.70" y="193.14">+</text>
<text x="193.96" y="223.69">+</text>
<text x="487.32" y="470.46">*</text>
<text x="87.21" y="209.07">+</text>
<text x="27.12" y="321.04">+</text>
<text x="370.54" y="113.23">+</text>
<text x="101.08" y="18.96">+</text>
<text x="134.56" y="229.65">.</text>
<text x="113.47" y="492.97">+</text>
<text x="443.03" y="224.74">+</text>
<text x="237.87" y="111.56">+</text>
<text x="114.92" y="47.25">*</text>
<text x="282.65" y="418.10">*</text>
<text x="151.94" y="113.77">.</text>
<text x="18.03" y="217.39">.</text>
<text x="113.67" y="182.41">+</text>
<text x="79.52" y="73.08">*</text>
<text x="195.83" y="460.92">+</text>
<text x="188.12" y="323.71">.</text>
<text x="114.71" y="46.19">.</text>
<text x="381.35" y="324.05">+</text>
<text x="450.07" y="43.16">.</text>
<text x="145.28" y="124.47">.</text>
<text x="280.31" y="437.17">+</text>
<text x="429.39" y="393.63">*</text>
<text x="19.50" y="159.43">.</text>
<text x="462.53" y="107.54">+</text>
<text x="336.62" y="27.77">.</text>
<text x="383.53" y="48.38">*</text>
<text x="74.34" y="83.11">.</text>
<text x="183.09" y="418.70">.</text>
<text x="130.54" y="263.11">+</text>
<text x="294.58" y="149.62">.</text>
<text x="204.65" y="179.14">+</text>
<text x="96.63" y="146.28">.</text>
<text x="68.91" y="218.80">*</text>
<text x="263.37" y="61.74">+</text>
<text x="456.71" y="25.50">.</text>
<text x="21.81" y="185.07">.</text>
<text x="132.11" y="88.43">*</text>
<text x="476.02" y="358.28">+</text>
<text x="127.06" y="379.94">.</text>
<text x="281.15" y="193.15">.</text>
<text x="352.90" y="485.14">+</text>
<text x="13.15" y="90.85">*</text>
<text x="46.50" y="27.33">.</text>
<text x="185.00" y="322.43">+</text>
<text x="487.77" y="491.69">*</text>
<text x="125.56" y="365.34">.</text>
<text x="164.53" y="193.85">+</text>
<text x="206.63" y="66.36">.</text>
<text x="158.42" y="29.31">+</text>
<text x="347.56" y="265.08">+</text>
<text x="108.59" y="20.69">+</text>
<text x="274.20" y="0.90">+</text>
<text x="163.79" y="376.96">.</text>
<text x="292.68" y="419.32">*</text>
<text x="187.06" y="132.73">+</text>
<text x="269.22" y="260.16">+</text>
<text x="56.84" y="38.10">+</text>
<text x="396.98" y="431.95">+</text>
<text x="243.53" y="370.13">.</text>
<text x="2.28" y="293.43">.</text>
<text x="67.80" y="60.73">+</text>
<text x="151.21" y="49.50">.</text>
<text x="122.95" y="182.20">.</text>
<text x="325.13" y="221.76">.</text>
<text x="53.47" y="38.63">+</text>
<text x="325.86" y="497.19">.</text>
<text x="430.17" y="117.67">+</text>
<text x="135.50" y="405.52">+</text>
<text x="491.07" y="87.89">+</text>
<text x="372.82" y="327.00">.</text>
<text x="186.08" y="218.60">.</text>
<text x="168.87" y="91.31">.</text>
<text x="143.40" y="180.73">+</text>
<text x="116.93" y="420.81">*</text>
<text x="386.35" y="345.93">+</text>
<text x="1.89" y="476.14">+</text>
<text x="8.42" y="361.57">*</text>
<text x="160.87" y="441.43">+</text>
<text x="87.55" y="66.75">+</text>
<text x="272.42" y="112.55">.</text>
<text x="284.25" y="169.70">.</text>
<text x="35.35" y="241.81">+</text>
<text x="286.09" y="100.24">*</text>
<text x="300.81" y="22.37">.</text>
<text x="378.18" y="186.17">+</text>
<text x="54.56" y="455.09">+</text>
<text x="257.40" y="313.88">*</text>
<text x="297.08" y="487.05">+</text>
<text x="93.83" y="247.81">+</text>
<text x="462.30" y="362.95">+</text>
<text x="257.28" y="389.65">+</text>
<text x="73.84" y="345.20">+</text>
<text x="349.27" y="450.47">.</text>
<text x="411.21" y="112.52">+</text>
<text x="390.30" y="380.19">.</text>
<text x="448.12" y="224.81">.</text>
<text x="240.52" y="489.28">.</text>
<text x="285.42" y="33.69">.</text>
<text x="128.05" y="7.48">+</text>
<text x="34.25" y="442.40">+</text>
<text x="256.38" y="84.63">+</text>
<text x="20.90" y="10.89">.</text>
<text x="143.78" y="129.45">+</text>
<text x="184.61" y="493.25">.</text>
<text x="485.55" y="174.88">+</text>
<text x="7.26" y="84.50">.</text>
<text x="156.31" y="347.04">+</text>
<text x="102.47" y="322.89">.</text>
<text x="60.38" y="369.46">.</text>
<text x="324.91" y="287.90">+</text>
<text x="162.09" y="334.17">.</text>
<text x="216.58" y="61.46">+</text>
<text x="277.26" y="496.03">.</text>
<text x="325.57" y="58.71">*</text>
<text x="47.13" y="95.21">*</text>
<text x="223.92" y="61.31">*</text>
<text x="88.00" y="115.43">.</text>
<text x="405.13" y="159.90">+</text>
<text x="430.88" y="309.16">*</text>
<text x="329.04" y="266.71">.</text>
<text x="194.75" y="460.97">+</text>
<text x="121.80" y="183.49">.</text>
<text x="80.75" y="418.15">.</text>
<text x="449.45" y="403.80">*</text>
<text x="199.94" y="372.93">+</text>
<text x="7.68" y="344.55">.</text>
<text x="131.66" y="281.78">+</text>
<text x="72.52" y="256.03">+</text>
<text x="130.23" y="485.97">+</text>
<text x="258.25" y="430.90">.</text>
<text x="86.90" y="303.36">.</text>
<text x="66.84" y="163.78">+</text>
<text x="65.00" y="400.98">.</text>
<text x="452.87" y="476.54">+</text>
<text x="472.06" y="232.02">.</text>
<text x="476.35" y="125.35">.</text>
<text x="263.99" y="1.02">+</text>
<text x="276.20" y="344.41">.</text>
<text x="323.42" y="144.38">+</text>
<text x="173.66" y="289.55">+</text>
<text x="69.25" y="464.18">+</text>
<text x="405.33" y="229.05">.</text>
<text x="405.84" y="268.65">*</text>
<text x="119.12" y="142.42">*</text>
<text x="345.19" y="182.57">.</text>
<text x="390.21" y="300.96">.</text>
<text x="237.39" y="442.12">.</text>
<text x="382.18" y="306.80">*</text>
<text x="117.26" y="146.14">.</text>
<text x="451.59" y="196.30">*</text>
<text x="223.60" y="462.67">+</text>
<text x="498.65" y="405.26">+</text>
<text x="405.92" y="361.64">.</text>
<text x="115.33" y="278.94">+</text>
<text x="471.60" y="251.10">+</text>
<text x="16.87" y="184.61">+</text>
<text x="183.73" y="323.77">+</text>
<text x="146.95" y="223.72">+</text>
<text x="330.94" y="302.59">.</text>
<text x="113.55" y="80.53">.</text>
<text x="401.14" y="180.87">+</text>
<text x="347.36" y="91.05">*</text>
<text x="223.89" y="287.64">*</text>
<text x="438.31" y="268.96">*</text>
<text x="186.80" y="324.03">+</text>
<text x="122.37" y="56.75">.</text>
<text x="352.13" y="295.08">.</text>
<text x="20.33" y="221.21">+</text>
<text x="254.22" y="475.49">+</text>
<text x="285.84" y="199.87">.</text>
<text x="109.96" y="377.20">.</text>
<text x="434.01" y="290.80">+</text>
<text x="59.47" y="79.09">.</text>
<text x="294.85" y="127.15">.</text>
<text x="166.24" y="344.89">+</text>
<text x="417.09" y="97.09">+</text>
<text x="22.06" y="327.61">+</text>
<text x="94.19" y="221.97">.</text>
<text x="187.65" y="248.47">.</text>
<text x="332.30" y="224.15">.</text>
<text x="82.71" y="193.54">.</text>
<text x="228.08" y="92.36">.</text>
<text x="73.43" y="178.66">+</text>
<text x="87.73" y="34.20">+</text>
<text x="202.80" y="65.88">+</text>
<text x="336.46" y="275.70">.</text>
<text x="387.84" y="372.33">.</text>
<text x="80.61" y="457.44">*</text>
<text x="96.50" y="411.79">+</text>
<text x="309.06" y="397.74">.</text>
<text x="102.40" y="377.66">+</text>
<text x="147.88" y="202.66">.</text>
<text x="298.95" y="11.13">.</text>
<text x="138.72" y="143.02">.</text>
<text x="376.28" y="262.66">*</text>
<text x="113.33" y="494.01">+</text>
<text x="422.68" y="114.22">+</text>

</svg>