
<svg viewBox="0 0 500 500" xmlns="http://www.w.org/2000/svg" width="100%" height="100%" style="background-color: #0a0a14; font-family: 'Courier New', Courier, monospace;">
    <style>
        text { fill: #aaa; font-size: 10px; text-anchor: middle; dominant-baseline: middle; }
    </style>
    <text x="224.13" y="74.46">*</text>
<text x="474.10" y="350.05">.</text>
<text x="81.11" y="334.65">+</text>
<text x="182.83" y="332.41">+</text>
<text x="193.79" y="394.75">+</text>
<text x="106.22" y="413.74">+</text>
<text x="292.87" y="275.84">.</text>
<text x="269.68" y="445.83">+</text>
<text x="196.29" y="176.89">*</text>
<text x="353.01" y="305.34">+</text>
<text x="326.51" y="206.88">.</text>
<text x="296.13" y="375.45">.</text>
<text x="88.87" y="442.61">*</text>
<text x="251.88" y="399.07">.</text>
<text x="243.04" y="34.46">+</text>
<text x="286.74" y="137.65">+</text>
<text x="418.81" y="304.80">+</text>
<text x="133.16" y="168.80">.</text>
<text x="40.06" y="296.90">+</text>
<text x="70.75" y="206.03">+</text>
<text x="488.97" y="158.82">+</text>
<text x="217.38" y="333.95">+</text>
<text x="193.02" y="296.52">.</text>
<text x="198.49" y="437.25">.</text>
<text x="294.03" y="213.69">.</text>
<text x="326.71" y="171.33">.</text>
<text x="188.12" y="312.55">.</text>
<text x="318.39" y="250.26">.</text>
<text x="102.00" y="154.04">.</text>
<text x="390.50" y="384.83">.</text>
<text x="149.99" y="402.29">*</text>
<text x="345.27" y="305.80">+</text>
<text x="401.95" y="99.64">*</text>
<text x="475.01" y="95.97">.</text>
<text x="232.30" y="338.18">+</text>
<text x="401.40" y="314.59">+</text>
<text x="17.04" y="488.96">.</text>
<text x="155.60" y="128.50">+</text>
<text x="418.06" y="185.43">.</text>
<text x="423.83" y="487.28">.</text>
<text x="449.17" y="188.71">+</text>
<text x="171.82" y="272.07">+</text>
<text x="48.36" y="4.31">+</text>
<text x="364.24" y="23.43">*</text>
<text x="395.40" y="6.04">.</text>
<text x="426.22" y="89.52">.</text>
<text x="480.58" y="177.05">+</text>
<text x="451.39" y="193.77">.</text>
<text x="252.58" y="409.28">+</text>
<text x="22.90" y="100.21">+</text>
<text x="455.91" y="278.14">.</text>
<text x="352.72" y="21.21">+</text>
<text x="225.78" y="358.24">.</text>
<text x="16.57" y="217.51">.</text>
<text x="214.47" y="200.86">.</text>
<text x="182.20" y="345.21">.</text>
<text x="428.12" y="162.53">.</text>
<text x="89.36" y="4.79">.</text>
<text x="82.32" y="32.99">.</text>
<text x="457.02" y="301.73">.</text>
<text x="15.08" y="179.01">*</text>
<text x="22.71" y="362.12">.</text>
<text x="347.75" y="65.76">.</text>
<text x="358.39" y="292.31">.</text>
<text x="416.57" y="384.26">+</text>
<text x="17.59" y="327.31">+</text>
<text x="372.25" y="362.73">.</text>
<text x="318.51" y="487.89">.</text>
<text x="323.37" y="296.01">+</text>
<text x="269.11" y="239.38">.</text>
<text x="233.00" y="251.10">.</text>
<text x="76.22" y="25.47">*</text>
<text x="457.54" y="203.38">.</text>
<text x="452.53" y="410.63">.</text>
<text x="313.46" y="10.94">+</text>
<text x="97.55" y="111.14">*</text>
<text x="321.24" y="224.81">.</text>
<text x="157.46" y="226.07">.</text>
<text x="188.75" y="118.98">.</text>
<text x="357.51" y="150.51">.</text>
<text x="182.63" y="81.27">.</text>
<text x="61.62" y="284.05">*</text>
<text x="139.59" y="145.69">.</text>
<text x="393.81" y="326.16">.</text>
<text x="488.93" y="80.92">*</text>
<text x="398.07" y="212.92">+</text>
<text x="167.53" y="98.16">+</text>
<text x="134.18" y="173.51">.</text>
<text x="83.00" y="257.29">.</text>
<text x="384.40" y="130.54">.</text>
<text x="252.13" y="3.14">.</text>
<text x="341.43" y="112.23">+</text>
<text x="262.90" y="459.97">+</text>
<text x="261.05" y="165.80">+</text>
<text x="364.36" y="281.67">+</text>
<text x="494.48" y="168.88">.</text>
<text x="441.09" y="313.00">+</text>
<text x="152.97" y="299.38">.</text>
<text x="348.00" y="239.12">+</text>
<text x="209.54" y="360.64">.</text>
<text x="318.11" y="172.73">+</text>
<text x="204.24" y="67.17">+</text>
<text x="32.09" y="203.48">.</text>
<text x="436.68" y="351.71">+</text>
<text x="136.07" y="90.40">+</text>
<text x="141.30" y="255.39">*</text>
<text x="369.10" y="168.37">+</text>
<text x="142.66" y="148.32">*</text>
<text x="94.01" y="94.02">.</text>
<text x="432.46" y="248.81">.</text>
<text x="245.74" y="254.44">.</text>
<text x="194.45" y="161.95">.</text>
<text x="449.66" y="11.18">.</text>
<text x="261.37" y="324.12">.</text>
<text x="396.44" y="39.15">.</text>
<text x="484.60" y="385.34">+</text>
<text x="218.31" y="200.60">.</text>
<text x="148.27" y="372.10">.</text>
<text x="41.59" y="75.00">+</text>
<text x="424.99" y="289.33">*</text>
<text x="159.32" y="228.84">+</text>
<text x="132.19" y="8.88">.</text>
<text x="443.85" y="130.00">+</text>
<text x="136.96" y="413.81">+</text>
<text x="364.56" y="418.53">.</text>
<text x="234.62" y="264.17">.</text>
<text x="370.08" y="390.17">+</text>
<text x="93.44" y="394.69">.</text>
<text x="170.58" y="306.71">.</text>
<text x="269.83" y="118.50">+</text>
<text x="141.09" y="56.79">*</text>
<text x="103.44" y="301.82">.</text>
<text x="368.13" y="355.26">.</text>
<text x="216.31" y="50.87">+</text>
<text x="481.40" y="188.07">.</text>
<text x="273.40" y="158.93">+</text>
<text x="224.20" y="230.09">*</text>
<text x="138.27" y="327.73">+</text>
<text x="462.70" y="1.30">*</text>
<text x="305.38" y="293.46">+</text>
<text x="178.39" y="191.82">.</text>
<text x="311.65" y="123.83">.</text>
<text x="356.00" y="118.55">.</text>
<text x="183.79" y="363.47">+</text>
<text x="244.16" y="416.90">+</text>
<text x="152.60" y="80.06">+</text>
<text x="349.68" y="472.77">*</text>
<text x="343.71" y="366.33">.</text>
<text x="451.65" y="264.85">*</text>
<text x="193.89" y="416.96">.</text>
<text x="176.93" y="175.59">.</text>
<text x="157.77" y="119.53">+</text>
<text x="345.58" y="301.24">.</text>
<text x="390.42" y="244.92">+</text>
<text x="183.67" y="475.79">*</text>
<text x="223.42" y="136.01">.</text>
<text x="252.88" y="420.49">.</text>
<text x="308.70" y="279.17">+</text>
<text x="216.79" y="480.51">*</text>
<text x="75.21" y="11.55">.</text>
<text x="102.14" y="295.37">+</text>
<text x="338.37" y="31.04">*</text>
<text x="457.24" y="411.19">.</text>
<text x="210.49" y="32.67">+</text>
<text x="442.91" y="12.66">+</text>
<text x="302.03" y="458.84">+</text>
<text x="448.39" y="268.91">.</text>
<text x="479.57" y="374.22">.</text>
<text x="327.88" y="438.98">.</text>
<text x="143.32" y="21.37">.</text>
<text x="380.23" y="83.30">.</text>
<text x="493.63" y="5.20">+</text>
<text x="376.65" y="157.47">.</text>
<text x="490.21" y="170.64">.</text>
<text x="488.10" y="247.42">+</text>
<text x="261.66" y="213.32">*</text>
<text x="250.62" y="382.78">+</text>
<text x="145.01" y="445.31">.</text>
<text x="388.09" y="278.41">.</text>
<text x="464.05" y="477.68">+</text>
<text x="295.98" y="157.67">.</text>
<text x="427.34" y="414.67">*</text>
<text x="241.28" y="326.59">.</text>
<text x="270.52" y="79.55">.</text>
<text x="284.14" y="369.99">+</text>
<text x="415.47" y="242.23">+</text>
<text x="359.05" y="454.12">+</text>
<text x="426.51" y="327.61">+</text>
<text x="215.17" y="36.90">*</text>
<text x="337.07" y="358.96">+</text>
<text x="324.95" y="292.30">*</text>
<text x="138.20" y="256.71">.</text>
<text x="29.74" y="495.53">.</text>
<text x="309.97" y="30.99">+</text>
<text x="120.42" y="198.11">+</text>
<text x="92.95" y="49.26">*</text>
<text x="45.16" y="283.56">+</text>
<text x="76.26" y="124.32">.</text>
<text x="210.44" y="68.61">+</text>
<text x="207.42" y="376.93">.</text>
<text x="215.78" y="133.62">*</text>
<text x="465.45" y="3.92">+</text>

</svg>