
<svg viewBox="0 0 500 500" xmlns="http://www.w.org/2000/svg" width="100%" height="100%" style="background-color: #0a0a14; font-family: 'Courier New', Courier, monospace;">
    <style>
        text { fill: #aaa; font-size: 10px; text-anchor: middle; dominant-baseline: middle; }
    </style>
    <text x="414.87" y="111.77">+</text>
<text x="21.75" y="235.30">*</text>
<text x="96.42" y="364.58">+</text>
<text x="411.84" y="81.99">.</text>
<text x="95.58" y="307.13">+</text>
<text x="288.62" y="136.25">.</text>
<text x="312.69" y="446.86">+</text>
<text x="347.24" y="137.84">.</text>
<text x="337.52" y="312.86">*</text>
<text x="184.31" y="447.05">*</text>
<text x="28.77" y="431.35">+</text>
<text x="471.94" y="73.31">.</text>
<text x="51.41" y="81.56">+</text>
<text x="152.67" y="144.44">+</text>
<text x="197.56" y="386.52">.</text>
<text x="481.19" y="265.15">*</text>
<text x="488.07" y="495.11">*</text>
<text x="471.77" y="220.40">+</text>
<text x="73.82" y="270.09">+</text>
<text x="283.22" y="372.28">+</text>
<text x="382.51" y="238.36">.</text>
<text x="169.32" y="3.18">+</text>
<text x="196.47" y="460.61">.</text>
<text x="158.07" y="429.14">+</text>
<text x="416.98" y="480.31">+</text>
<text x="249.19" y="328.44">+</text>
<text x="175.19" y="247.07">*</text>
<text x="320.01" y="120.10">+</text>
<text x="187.50" y="348.00">.</text>
<text x="368.79" y="182.66">+</text>
<text x="208.00" y="349.61">.</text>
<text x="57.70" y="435.47">+</text>
<text x="348.05" y="397.63">+</text>
<text x="189.71" y="219.72">+</text>
<text x="231.76" y="313.31">+</text>
<text x="43.06" y="437.26">.</text>
<text x="264.06" y="460.32">+</text>
<text x="214.36" y="440.21">+</text>
<text x="113.94" y="327.15">+</text>
<text x="10.38" y="130.62">*</text>
<text x="429.99" y="245.63">+</text>
<text x="124.17" y="52.06">.</text>
<text x="361.90" y="6.62">.</text>
<text x="469.65" y="481.32">+</text>
<text x="357.62" y="253.93">.</text>
<text x="34.40" y="149.11">+</text>
<text x="34.42" y="391.73">*</text>
<text x="480.46" y="432.76">.</text>
<text x="428.18" y="151.91">.</text>
<text x="332.87" y="464.31">+</text>
<text x="69.48" y="355.14">+</text>
<text x="459.14" y="16.88">.</text>
<text x="132.92" y="493.65">.</text>
<text x="3.85" y="309.98">.</text>
<text x="297.78" y="347.11">.</text>
<text x="115.77" y="86.66">+</text>
<text x="19.80" y="473.59">.</text>
<text x="328.82" y="317.00">+</text>
<text x="279.49" y="127.42">*</text>
<text x="251.76" y="372.37">.</text>
<text x="312.89" y="146.26">+</text>
<text x="69.63" y="166.10">.</text>
<text x="157.64" y="336.04">+</text>
<text x="253.93" y="199.77">+</text>
<text x="291.72" y="167.99">+</text>
<text x="478.61" y="231.30">+</text>
<text x="227.58" y="152.40">.</text>
<text x="462.99" y="376.06">+</text>
<text x="47.88" y="1.35">.</text>
<text x="377.44" y="432.22">.</text>
<text x="498.93" y="229.19">*</text>
<text x="13.27" y="481.95">+</text>
<text x="334.15" y="173.15">.</text>
<text x="156.66" y="281.97">.</text>
<text x="150.00" y="29.45">+</text>
<text x="93.79" y="109.71">.</text>
<text x="124.62" y="381.40">*</text>
<text x="499.69" y="292.72">.</text>
<text x="189.71" y="211.52">.</text>
<text x="389.11" y="58.77">*</text>
<text x="259.07" y="204.28">.</text>
<text x="106.98" y="104.10">+</text>
<text x="58.24" y="59.50">+</text>
<text x="338.06" y="406.04">.</text>
<text x="186.85" y="200.54">+</text>
<text x="334.95" y="315.41">+</text>
<text x="443.51" y="310.89">+</text>
<text x="391.44" y="456.53">+</text>
<text x="390.93" y="181.92">+</text>
<text x="465.67" y="165.86">.</text>
<text x="448.33" y="3.07">+</text>
<text x="6.47" y="240.84">*</text>
<text x="371.23" y="413.61">*</text>
<text x="345.82" y="165.44">*</text>
<text x="196.63" y="295.86">*</text>
<text x="267.08" y="351.38">+</text>
<text x="366.92" y="277.17">+</text>
<text x="81.36" y="99.90">*</text>
<text x="314.17" y="6.67">.</text>
<text x="190.48" y="336.95">+</text>
<text x="38.78" y="428.42">+</text>
<text x="486.99" y="361.29">.</text>
<text x="330.61" y="93.04">+</text>
<text x="98.41" y="162.91">+</text>
<text x="415.60" y="221.27">+</text>
<text x="99.30" y="451.01">+</text>
<text x="182.45" y="194.61">.</text>
<text x="420.66" y="107.13">+</text>
<text x="331.80" y="229.40">.</text>
<text x="468.18" y="493.34">+</text>
<text x="438.52" y="202.78">+</text>
<text x="186.65" y="404.53">+</text>
<text x="95.32" y="384.37">+</text>
<text x="232.49" y="454.36">.</text>
<text x="353.95" y="7.40">+</text>
<text x="207.45" y="121.41">+</text>
<text x="257.10" y="180.75">*</text>
<text x="80.15" y="283.70">.</text>
<text x="426.34" y="128.71">+</text>
<text x="354.85" y="171.56">.</text>
<text x="145.75" y="198.99">+</text>
<text x="176.70" y="476.33">*</text>
<text x="302.91" y="165.77">*</text>
<text x="29.28" y="265.89">.</text>
<text x="444.80" y="188.13">.</text>
<text x="85.93" y="369.34">.</text>
<text x="434.50" y="154.49">*</text>
<text x="275.62" y="3.15">.</text>
<text x="483.86" y="230.32">.</text>
<text x="216.82" y="194.30">.</text>
<text x="255.77" y="161.11">.</text>
<text x="227.45" y="432.22">+</text>
<text x="267.71" y="215.05">+</text>
<text x="50.77" y="433.21">+</text>
<text x="279.90" y="210.95">+</text>
<text x="460.39" y="286.97">+</text>
<text x="273.11" y="91.64">+</text>
<text x="312.99" y="28.59">.</text>
<text x="9.65" y="381.18">.</text>
<text x="384.32" y="359.24">.</text>
<text x="102.53" y="259.60">.</text>
<text x="194.33" y="229.59">.</text>
<text x="298.36" y="128.64">+</text>
<text x="411.78" y="493.57">.</text>
<text x="69.00" y="86.17">+</text>
<text x="335.05" y="50.65">+</text>
<text x="230.48" y="319.45">+</text>
<text x="221.15" y="72.22">.</text>
<text x="225.55" y="363.71">+</text>
<text x="443.97" y="157.99">*</text>
<text x="274.95" y="213.10">+</text>
<text x="344.39" y="367.32">.</text>
<text x="401.02" y="412.74">+</text>
<text x="11.57" y="450.32">.</text>
<text x="410.94" y="485.19">+</text>
<text x="494.97" y="173.79">.</text>
<text x="412.75" y="287.19">*</text>
<text x="192.27" y="46.53">+</text>
<text x="438.47" y="231.46">+</text>
<text x="179.23" y="392.30">.</text>
<text x="227.16" y="22.58">.</text>
<text x="130.17" y="54.15">+</text>
<text x="351.89" y="408.12">.</text>
<text x="131.21" y="53.89">.</text>
<text x="367.90" y="202.10">.</text>
<text x="436.09" y="314.25">.</text>
<text x="447.70" y="140.91">+</text>
<text x="256.68" y="299.74">.</text>
<text x="170.71" y="283.23">+</text>
<text x="298.87" y="239.12">.</text>
<text x="433.82" y="310.30">.</text>
<text x="388.23" y="186.69">+</text>
<text x="130.98" y="12.46">*</text>
<text x="411.89" y="188.52">.</text>
<text x="391.59" y="480.82">+</text>
<text x="458.76" y="238.98">.</text>
<text x="191.93" y="301.48">.</text>
<text x="265.66" y="349.47">*</text>
<text x="321.06" y="92.47">.</text>
<text x="241.24" y="353.84">.</text>
<text x="86.69" y="61.62">*</text>
<text x="11.40" y="28.59">+</text>
<text x="83.96" y="465.43">+</text>
<text x="394.50" y="497.65">+</text>
<text x="361.09" y="72.16">*</text>
<text x="111.67" y="65.60">*</text>
<text x="98.32" y="170.08">.</text>
<text x="393.57" y="349.90">*</text>
<text x="367.02" y="105.71">.</text>
<text x="353.41" y="43.09">+</text>
<text x="379.53" y="151.68">.</text>
<text x="289.78" y="245.55">+</text>
<text x="166.95" y="391.45">+</text>
<text x="53.56" y="142.35">.</text>
<text x="78.55" y="213.75">.</text>
<text x="284.74" y="467.05">+</text>
<text x="370.28" y="441.85">.</text>
<text x="371.71" y="122.76">+</text>
<text x="170.78" y="229.77">.</text>
<text x="231.46" y="193.13">+</text>
<text x="438.28" y="476.46">+</text>
<text x="369.15" y="352.33">+</text>
<text x="34.57" y="60.84">+</text>
<text x="230.95" y="407.89">.</text>
<text x="84.58" y="386.57">*</text>
<text x="371.49" y="315.55">+</text>
<text x="221.42" y="446.83">.</text>
<text x="289.77" y="212.52">.</text>
<text x="407.11" y="492.76">.</text>
<text x="120.14" y="31.66">+</text>
<text x="207.79" y="222.50">*</text>

</svg>