
<svg viewBox="0 0 500 500" xmlns="http://www.w.org/2000/svg" width="100%" height="100%" style="background-color: #0a0a14; font-family: 'Courier New', Courier, monospace;">
    <style>
        text { fill: #aaa; font-size: 10px; text-anchor: middle; dominant-baseline: middle; }
    </style>
    <text x="222.94" y="483.16">.</text>
<text x="226.75" y="303.75">+</text>
<text x="278.33" y="78.14">.</text>
<text x="409.19" y="350.43">.</text>
<text x="165.72" y="408.84">+</text>
<text x="351.73" y="273.73">+</text>
<text x="378.87" y="70.59">+</text>
<text x="488.43" y="360.62">+</text>
<text x="446.14" y="395.52">+</text>
<text x="92.91" y="306.58">+</text>
<text x="499.08" y="326.43">.</text>
<text x="384.02" y="187.65">+</text>
<text x="12.76" y="207.36">.</text>
<text x="113.01" y="496.22">*</text>
<text x="164.39" y="14.07">.</text>
<text x="320.29" y="413.76">.</text>
<text x="271.72" y="104.87">+</text>
<text x="124.74" y="96.58">+</text>
<text x="356.90" y="465.12">.</text>
<text x="298.89" y="236.59">+</text>
<text x="324.29" y="56.09">+</text>
<text x="115.55" y="301.52">.</text>
<text x="100.02" y="137.76">*</text>
<text x="140.19" y="263.35">*</text>
<text x="68.99" y="310.01">+</text>
<text x="454.12" y="34.78">*</text>
<text x="330.00" y="499.26">.</text>
<text x="397.96" y="123.14">+</text>
<text x="223.62" y="415.62">*</text>
<text x="494.38" y="475.84">.</text>
<text x="359.45" y="411.38">.</text>
<text x="265.84" y="312.00">.</text>
<text x="28.72" y="433.49">.</text>
<text x="181.81" y="456.33">+</text>
<text x="465.37" y="68.07">+</text>
<text x="300.39" y="11.75">.</text>
<text x="308.60" y="229.07">.</text>
<text x="52.08" y="308.66">*</text>
<text x="201.20" y="65.78">*</text>
<text x="326.56" y="373.34">+</text>
<text x="260.23" y="279.21">.</text>
<text x="351.69" y="2.04">.</text>
<text x="103.33" y="72.54">.</text>
<text x="88.96" y="358.47">+</text>
<text x="38.70" y="247.52">.</text>
<text x="160.75" y="458.27">.</text>
<text x="33.06" y="388.43">.</text>
<text x="138.64" y="487.56">+</text>
<text x="207.04" y="428.31">.</text>
<text x="148.45" y="105.15">.</text>
<text x="196.64" y="372.67">*</text>
<text x="216.35" y="485.05">+</text>
<text x="18.77" y="435.23">*</text>
<text x="16.33" y="82.08">+</text>
<text x="141.46" y="261.07">+</text>
<text x="428.10" y="25.26">+</text>
<text x="289.16" y="371.31">.</text>
<text x="109.55" y="382.72">+</text>
<text x="422.59" y="53.98">.</text>
<text x="104.50" y="119.35">.</text>
<text x="0.44" y="401.01">.</text>
<text x="137.78" y="214.25">.</text>
<text x="337.31" y="73.54">+</text>
<text x="52.61" y="349.42">.</text>
<text x="444.08" y="122.23">.</text>
<text x="179.14" y="13.50">+</text>
<text x="284.87" y="483.50">+</text>
<text x="66.50" y="466.20">.</text>
<text x="252.57" y="204.52">*</text>
<text x="220.06" y="270.34">.</text>
<text x="161.27" y="303.65">+</text>
<text x="112.45" y="70.80">.</text>
<text x="181.41" y="384.08">+</text>
<text x="125.65" y="247.71">+</text>
<text x="342.52" y="242.84">+</text>
<text x="485.57" y="439.25">.</text>
<text x="262.06" y="496.27">+</text>
<text x="475.31" y="0.20">+</text>
<text x="9.98" y="16.14">.</text>
<text x="352.89" y="378.06">+</text>
<text x="475.79" y="461.26">.</text>
<text x="230.51" y="393.93">.</text>
<text x="315.07" y="333.09">*</text>
<text x="14.84" y="12.51">.</text>
<text x="323.08" y="298.39">+</text>
<text x="492.47" y="139.51">.</text>
<text x="21.53" y="4.99">*</text>
<text x="370.91" y="156.17">.</text>
<text x="318.29" y="89.57">+</text>
<text x="355.25" y="29.27">*</text>
<text x="297.02" y="481.44">.</text>
<text x="289.06" y="251.52">.</text>
<text x="383.65" y="52.01">.</text>
<text x="235.48" y="437.28">*</text>
<text x="184.91" y="397.00">.</text>
<text x="31.07" y="312.53">+</text>
<text x="242.06" y="252.30">*</text>
<text x="475.91" y="367.53">.</text>
<text x="139.04" y="3.07">+</text>
<text x="415.38" y="50.59">+</text>
<text x="34.69" y="253.29">+</text>
<text x="327.31" y="237.58">+</text>
<text x="258.88" y="17.27">.</text>
<text x="171.41" y="150.90">.</text>
<text x="78.21" y="153.67">*</text>
<text x="442.90" y="5.73">.</text>
<text x="366.41" y="357.89">.</text>
<text x="272.49" y="50.21">+</text>
<text x="15.16" y="131.34">*</text>
<text x="251.15" y="47.64">+</text>
<text x="221.47" y="299.45">+</text>
<text x="38.13" y="472.01">+</text>
<text x="301.34" y="477.69">.</text>
<text x="149.39" y="140.19">.</text>
<text x="458.03" y="18.63">+</text>
<text x="139.17" y="291.11">+</text>
<text x="154.85" y="391.10">*</text>
<text x="485.36" y="476.61">.</text>
<text x="369.00" y="281.75">.</text>
<text x="249.90" y="51.33">+</text>
<text x="73.51" y="106.76">+</text>
<text x="34.63" y="211.03">+</text>
<text x="336.30" y="76.47">+</text>
<text x="326.72" y="442.65">+</text>
<text x="312.43" y="295.46">.</text>
<text x="402.09" y="459.96">+</text>
<text x="42.08" y="212.41">+</text>
<text x="213.19" y="130.44">+</text>
<text x="156.89" y="23.85">.</text>
<text x="294.54" y="470.76">+</text>
<text x="105.28" y="312.51">.</text>
<text x="175.38" y="0.74">.</text>
<text x="435.34" y="401.81">*</text>
<text x="390.49" y="183.05">+</text>
<text x="404.15" y="59.57">.</text>
<text x="60.37" y="380.02">+</text>
<text x="147.06" y="104.76">+</text>
<text x="168.65" y="330.02">+</text>
<text x="259.82" y="49.25">*</text>
<text x="467.83" y="367.75">+</text>
<text x="362.97" y="152.58">+</text>
<text x="491.05" y="97.35">+</text>
<text x="137.89" y="171.81">+</text>
<text x="176.67" y="6.57">+</text>
<text x="108.87" y="339.30">+</text>
<text x="447.48" y="376.57">*</text>
<text x="61.76" y="277.60">+</text>
<text x="136.66" y="348.16">.</text>
<text x="18.30" y="270.18">+</text>
<text x="178.31" y="429.88">+</text>
<text x="254.03" y="313.50">.</text>
<text x="139.72" y="292.34">.</text>
<text x="476.43" y="85.55">*</text>
<text x="415.72" y="276.00">*</text>
<text x="196.54" y="315.90">.</text>
<text x="481.43" y="216.61">*</text>
<text x="121.74" y="281.41">.</text>
<text x="281.63" y="158.19">*</text>
<text x="280.21" y="467.19">+</text>
<text x="249.74" y="457.16">.</text>
<text x="456.02" y="32.49">+</text>
<text x="248.99" y="217.25">.</text>
<text x="222.69" y="448.80">.</text>
<text x="83.69" y="186.01">.</text>
<text x="368.05" y="105.53">.</text>
<text x="200.68" y="92.62">.</text>
<text x="147.53" y="117.22">+</text>
<text x="31.62" y="239.24">+</text>
<text x="19.58" y="144.28">.</text>
<text x="232.82" y="281.38">+</text>
<text x="251.26" y="309.61">+</text>
<text x="241.51" y="430.28">+</text>
<text x="419.67" y="290.45">+</text>
<text x="465.69" y="232.32">*</text>
<text x="4.74" y="421.74">+</text>
<text x="116.16" y="42.51">*</text>
<text x="496.74" y="181.09">.</text>
<text x="114.73" y="342.32">*</text>
<text x="130.98" y="470.47">*</text>
<text x="488.68" y="32.78">.</text>
<text x="465.97" y="60.97">.</text>
<text x="346.46" y="342.55">+</text>
<text x="280.93" y="333.12">.</text>
<text x="32.89" y="129.94">+</text>
<text x="53.18" y="202.07">.</text>
<text x="26.84" y="187.73">*</text>
<text x="376.88" y="382.06">*</text>
<text x="186.02" y="154.09">+</text>
<text x="453.55" y="128.01">.</text>
<text x="291.10" y="184.94">.</text>
<text x="58.46" y="263.02">+</text>
<text x="450.35" y="110.59">+</text>
<text x="173.42" y="39.17">.</text>
<text x="378.70" y="369.80">*</text>
<text x="217.51" y="48.63">+</text>
<text x="317.71" y="27.14">+</text>
<text x="21.77" y="312.88">.</text>
<text x="359.45" y="238.11">+</text>
<text x="381.18" y="412.76">.</text>

</svg>