
<svg viewBox="0 0 500 500" xmlns="http://www.w.org/2000/svg" width="100%" height="100%" style="background-color: #0a0a14; font-family: 'Courier New', Courier, monospace;">
    <style>
        text { fill: #aaa; font-size: 10px; text-anchor: middle; dominant-baseline: middle; }
    </style>
    <text x="393.27" y="354.51">+</text>
<text x="300.78" y="394.03">+</text>
<text x="37.34" y="406.44">.</text>
<text x="367.89" y="292.30">+</text>
<text x="0.66" y="236.64">+</text>
<text x="45.94" y="94.80">.</text>
<text x="447.19" y="12.91">.</text>
<text x="385.89" y="5.51">+</text>
<text x="386.04" y="136.01">.</text>
<text x="15.76" y="444.98">*</text>
<text x="343.18" y="254.20">+</text>
<text x="470.46" y="382.26">.</text>
<text x="455.58" y="488.19">+</text>
<text x="247.63" y="94.28">+</text>
<text x="149.18" y="468.01">.</text>
<text x="408.92" y="366.23">+</text>
<text x="131.80" y="220.39">+</text>
<text x="424.12" y="147.10">+</text>
<text x="426.91" y="94.90">*</text>
<text x="205.07" y="418.69">.</text>
<text x="443.46" y="368.28">*</text>
<text x="293.03" y="389.70">+</text>
<text x="211.95" y="167.36">.</text>
<text x="215.72" y="94.24">.</text>
<text x="335.37" y="355.52">.</text>
<text x="1.60" y="389.23">.</text>
<text x="101.99" y="278.91">+</text>
<text x="230.59" y="420.03">.</text>
<text x="375.76" y="388.39">*</text>
<text x="406.34" y="128.83">.</text>
<text x="296.54" y="343.28">+</text>
<text x="436.41" y="269.38">*</text>
<text x="257.33" y="205.37">+</text>
<text x="442.86" y="14.08">.</text>
<text x="132.35" y="41.45">+</text>
<text x="483.39" y="133.37">+</text>
<text x="489.84" y="489.97">+</text>
<text x="450.77" y="460.80">.</text>
<text x="233.25" y="98.04">.</text>
<text x="354.57" y="162.50">+</text>
<text x="266.10" y="364.75">*</text>
<text x="28.24" y="130.83">*</text>
<text x="388.50" y="173.30">+</text>
<text x="1.48" y="147.05">+</text>
<text x="26.51" y="58.73">+</text>
<text x="490.54" y="9.31">+</text>
<text x="248.09" y="240.59">*</text>
<text x="192.53" y="361.53">+</text>
<text x="273.85" y="435.50">+</text>
<text x="179.27" y="23.21">.</text>
<text x="272.35" y="328.84">.</text>
<text x="212.01" y="29.93">+</text>
<text x="280.44" y="395.76">+</text>
<text x="104.32" y="221.53">.</text>
<text x="162.97" y="187.23">+</text>
<text x="410.39" y="31.52">+</text>
<text x="54.34" y="14.01">*</text>
<text x="97.17" y="251.77">+</text>
<text x="19.03" y="77.17">.</text>
<text x="409.07" y="326.17">.</text>
<text x="142.40" y="114.45">.</text>
<text x="22.79" y="177.15">*</text>
<text x="86.14" y="147.14">+</text>
<text x="109.10" y="167.00">+</text>
<text x="30.12" y="432.78">.</text>
<text x="444.07" y="303.19">+</text>
<text x="438.15" y="275.92">+</text>
<text x="256.23" y="300.30">.</text>
<text x="168.06" y="490.87">.</text>
<text x="321.16" y="160.68">.</text>
<text x="51.66" y="472.98">+</text>
<text x="260.68" y="289.31">+</text>
<text x="224.38" y="173.97">.</text>
<text x="156.02" y="154.78">*</text>
<text x="91.76" y="466.74">+</text>
<text x="313.61" y="49.18">+</text>
<text x="323.16" y="161.68">.</text>
<text x="251.34" y="474.88">*</text>
<text x="302.82" y="287.81">+</text>
<text x="456.75" y="288.86">+</text>
<text x="355.24" y="109.59">.</text>
<text x="134.51" y="167.42">+</text>
<text x="244.38" y="306.63">.</text>
<text x="422.62" y="457.49">+</text>
<text x="263.57" y="466.49">*</text>
<text x="378.26" y="250.15">+</text>
<text x="271.10" y="5.41">+</text>
<text x="234.44" y="42.96">.</text>
<text x="245.09" y="256.13">.</text>
<text x="43.09" y="481.18">+</text>
<text x="145.59" y="451.67">+</text>
<text x="204.67" y="209.67">*</text>
<text x="465.53" y="348.46">+</text>
<text x="38.47" y="32.62">.</text>
<text x="447.34" y="256.73">+</text>
<text x="32.34" y="138.52">.</text>
<text x="338.00" y="247.41">+</text>
<text x="122.16" y="329.44">.</text>
<text x="79.87" y="460.58">.</text>
<text x="201.17" y="96.42">*</text>
<text x="388.44" y="106.66">+</text>
<text x="345.88" y="345.56">*</text>
<text x="11.65" y="331.86">+</text>
<text x="311.77" y="453.91">+</text>
<text x="250.92" y="57.17">.</text>
<text x="481.14" y="473.43">+</text>
<text x="122.97" y="7.95">.</text>
<text x="463.13" y="274.49">.</text>
<text x="347.54" y="479.17">+</text>
<text x="51.16" y="408.38">+</text>
<text x="126.87" y="55.46">.</text>
<text x="403.28" y="308.67">.</text>
<text x="91.75" y="233.00">+</text>
<text x="152.64" y="288.31">+</text>
<text x="231.12" y="200.02">.</text>
<text x="99.89" y="301.79">*</text>
<text x="295.38" y="101.74">+</text>
<text x="458.69" y="431.95">.</text>
<text x="1.86" y="345.43">.</text>
<text x="276.30" y="467.99">+</text>
<text x="58.67" y="119.84">.</text>
<text x="119.05" y="99.05">*</text>
<text x="172.70" y="204.75">.</text>
<text x="117.21" y="22.98">.</text>
<text x="319.57" y="139.83">.</text>
<text x="204.37" y="222.59">.</text>
<text x="11.01" y="120.26">.</text>
<text x="113.21" y="63.06">+</text>
<text x="262.70" y="129.88">.</text>
<text x="394.61" y="398.95">.</text>
<text x="381.57" y="172.84">+</text>
<text x="282.02" y="195.07">+</text>
<text x="179.70" y="201.16">+</text>
<text x="271.25" y="35.21">+</text>
<text x="256.27" y="238.05">+</text>
<text x="217.20" y="16.43">.</text>
<text x="399.25" y="230.92">.</text>
<text x="247.49" y="346.18">.</text>
<text x="489.11" y="37.89">*</text>
<text x="371.67" y="431.19">+</text>
<text x="153.94" y="185.09">+</text>
<text x="44.01" y="171.34">+</text>
<text x="109.24" y="168.61">+</text>
<text x="80.99" y="133.10">+</text>
<text x="36.71" y="102.09">+</text>
<text x="387.68" y="412.17">+</text>
<text x="85.54" y="421.48">+</text>
<text x="78.25" y="307.22">+</text>
<text x="432.26" y="194.00">*</text>
<text x="42.22" y="154.99">.</text>
<text x="375.03" y="157.36">+</text>
<text x="190.01" y="422.08">+</text>
<text x="457.81" y="238.84">.</text>
<text x="10.66" y="171.28">+</text>
<text x="401.27" y="320.81">+</text>
<text x="154.76" y="67.98">+</text>
<text x="291.46" y="288.30">+</text>
<text x="211.98" y="120.98">+</text>
<text x="424.89" y="477.02">+</text>
<text x="292.29" y="269.72">+</text>
<text x="374.68" y="390.72">+</text>
<text x="175.10" y="79.53">+</text>
<text x="132.98" y="29.31">.</text>
<text x="468.36" y="42.73">+</text>
<text x="95.46" y="371.89">+</text>
<text x="138.82" y="394.34">.</text>
<text x="346.42" y="348.05">*</text>
<text x="329.96" y="210.15">.</text>
<text x="106.72" y="143.45">.</text>
<text x="262.92" y="293.32">.</text>
<text x="392.46" y="260.21">.</text>
<text x="257.26" y="224.58">*</text>
<text x="461.47" y="275.58">+</text>
<text x="404.79" y="157.26">+</text>
<text x="443.81" y="411.81">.</text>
<text x="175.00" y="280.05">.</text>
<text x="9.35" y="435.20">.</text>
<text x="242.09" y="225.50">+</text>
<text x="397.45" y="29.21">.</text>
<text x="335.18" y="131.83">.</text>
<text x="241.56" y="80.00">.</text>
<text x="478.08" y="414.99">+</text>
<text x="134.71" y="327.77">.</text>
<text x="216.67" y="186.13">+</text>
<text x="282.60" y="205.62">+</text>
<text x="193.71" y="303.22">*</text>
<text x="291.52" y="226.51">+</text>
<text x="442.16" y="54.49">*</text>
<text x="388.69" y="277.82">*</text>
<text x="242.13" y="464.15">+</text>
<text x="98.98" y="137.68">+</text>
<text x="324.83" y="218.47">.</text>
<text x="311.17" y="196.91">*</text>
<text x="324.09" y="388.05">+</text>
<text x="114.84" y="432.86">.</text>
<text x="260.02" y="474.61">.</text>
<text x="345.03" y="89.91">.</text>
<text x="91.32" y="438.68">+</text>
<text x="1.82" y="21.39">.</text>
<text x="391.08" y="204.82">.</text>
<text x="278.53" y="379.95">+</text>
<text x="395.73" y="300.31">*</text>
<text x="101.36" y="253.96">+</text>
<text x="63.48" y="432.97">.</text>
<text x="73.68" y="391.88">+</text>
<text x="174.36" y="482.79">.</text>
<text x="155.47" y="32.03">.</text>
<text x="8.72" y="283.64">*</text>
<text x="408.50" y="342.65">+</text>
<text x="190.43" y="160.00">*</text>
<text x="17.21" y="468.27">+</text>
<text x="460.51" y="79.62">.</text>
<text x="227.07" y="425.34">.</text>

</svg>