
<svg viewBox="0 0 500 500" xmlns="http://www.w.org/2000/svg" width="100%" height="100%" style="background-color: #0a0a14; font-family: 'Courier New', Courier, monospace;">
    <style>
        text { fill: #aaa; font-size: 10px; text-anchor: middle; dominant-baseline: middle; }
    </style>
    <text x="204.81" y="218.98">+</text>
<text x="12.79" y="409.39">+</text>
<text x="46.51" y="103.98">.</text>
<text x="122.51" y="323.71">+</text>
<text x="340.87" y="295.31">+</text>
<text x="89.35" y="253.73">.</text>
<text x="422.77" y="214.70">+</text>
<text x="1.85" y="394.28">+</text>
<text x="219.96" y="390.41">+</text>
<text x="123.40" y="250.49">.</text>
<text x="109.20" y="376.67">.</text>
<text x="89.52" y="16.69">.</text>
<text x="366.98" y="179.17">+</text>
<text x="348.88" y="179.06">+</text>
<text x="122.96" y="328.11">.</text>
<text x="137.15" y="207.24">+</text>
<text x="6.94" y="109.88">+</text>
<text x="211.94" y="129.77">+</text>
<text x="437.43" y="212.52">+</text>
<text x="74.56" y="219.98">.</text>
<text x="334.22" y="181.19">+</text>
<text x="390.66" y="407.20">+</text>
<text x="261.39" y="165.63">+</text>
<text x="126.99" y="246.17">+</text>
<text x="223.09" y="443.53">+</text>
<text x="29.36" y="355.71">*</text>
<text x="42.86" y="76.81">+</text>
<text x="321.74" y="217.78">+</text>
<text x="26.99" y="82.87">.</text>
<text x="407.64" y="72.15">+</text>
<text x="225.67" y="262.61">.</text>
<text x="220.40" y="344.49">+</text>
<text x="403.11" y="358.77">.</text>
<text x="362.20" y="74.42">+</text>
<text x="11.93" y="331.61">+</text>
<text x="377.89" y="368.16">+</text>
<text x="235.54" y="295.61">.</text>
<text x="154.28" y="137.72">*</text>
<text x="415.80" y="370.14">+</text>
<text x="38.80" y="154.51">.</text>
<text x="216.46" y="190.24">.</text>
<text x="176.10" y="110.64">.</text>
<text x="44.48" y="208.87">*</text>
<text x="29.40" y="126.42">+</text>
<text x="60.75" y="227.50">+</text>
<text x="265.19" y="12.28">.</text>
<text x="391.28" y="250.21">*</text>
<text x="397.45" y="68.79">*</text>
<text x="352.63" y="408.37">+</text>
<text x="88.17" y="161.40">+</text>
<text x="110.66" y="50.18">*</text>
<text x="53.76" y="435.49">+</text>
<text x="340.62" y="143.77">*</text>
<text x="122.22" y="466.69">+</text>
<text x="345.44" y="404.81">.</text>
<text x="177.88" y="205.45">.</text>
<text x="154.78" y="54.75">.</text>
<text x="444.15" y="338.11">+</text>
<text x="362.18" y="77.41">.</text>
<text x="389.84" y="84.70">+</text>
<text x="217.14" y="499.71">.</text>
<text x="362.87" y="393.61">.</text>
<text x="192.66" y="399.66">+</text>
<text x="232.43" y="173.68">+</text>
<text x="152.62" y="113.90">*</text>
<text x="315.47" y="430.55">.</text>
<text x="238.76" y="18.26">+</text>
<text x="307.40" y="126.75">+</text>
<text x="109.40" y="243.32">.</text>
<text x="490.40" y="193.45">.</text>
<text x="316.26" y="85.61">.</text>
<text x="111.82" y="99.96">+</text>
<text x="405.83" y="379.12">+</text>
<text x="482.19" y="33.97">+</text>
<text x="74.07" y="64.77">.</text>
<text x="406.50" y="153.16">+</text>
<text x="56.56" y="427.13">.</text>
<text x="100.27" y="120.59">.</text>
<text x="355.58" y="225.35">.</text>
<text x="180.02" y="153.69">.</text>
<text x="172.38" y="130.69">.</text>
<text x="390.03" y="431.27">.</text>
<text x="38.25" y="35.09">+</text>
<text x="430.06" y="282.35">+</text>
<text x="90.06" y="315.29">.</text>
<text x="58.11" y="294.22">+</text>
<text x="423.21" y="198.12">.</text>
<text x="343.10" y="146.02">.</text>
<text x="297.56" y="134.57">+</text>
<text x="453.12" y="475.61">.</text>
<text x="54.98" y="304.72">+</text>
<text x="464.36" y="5.50">*</text>
<text x="357.48" y="183.04">.</text>
<text x="420.21" y="436.17">.</text>
<text x="444.05" y="266.99">.</text>
<text x="411.01" y="418.39">+</text>
<text x="0.97" y="173.53">+</text>
<text x="89.48" y="241.46">+</text>
<text x="240.32" y="362.53">+</text>
<text x="59.45" y="226.38">*</text>
<text x="55.08" y="58.91">+</text>
<text x="82.21" y="398.33">+</text>
<text x="302.39" y="465.30">+</text>
<text x="35.35" y="136.46">*</text>
<text x="472.45" y="349.89">.</text>
<text x="418.00" y="478.70">+</text>
<text x="395.16" y="278.64">+</text>
<text x="189.93" y="210.28">.</text>
<text x="446.44" y="141.15">.</text>
<text x="127.07" y="324.41">.</text>
<text x="219.04" y="261.48">*</text>
<text x="180.33" y="486.24">+</text>
<text x="187.20" y="123.05">.</text>
<text x="329.88" y="264.19">+</text>
<text x="167.44" y="14.72">.</text>
<text x="88.61" y="193.80">*</text>
<text x="423.22" y="122.00">.</text>
<text x="255.81" y="28.88">+</text>
<text x="63.68" y="40.73">.</text>
<text x="490.16" y="399.67">+</text>
<text x="318.10" y="209.92">.</text>
<text x="74.79" y="141.57">+</text>
<text x="436.24" y="23.20">*</text>
<text x="381.32" y="295.26">.</text>
<text x="33.23" y="147.66">*</text>
<text x="442.41" y="463.93">+</text>
<text x="13.54" y="335.78">.</text>
<text x="226.42" y="68.88">+</text>
<text x="428.63" y="33.51">*</text>
<text x="75.96" y="195.17">+</text>
<text x="233.98" y="18.93">+</text>
<text x="92.55" y="155.88">+</text>
<text x="251.45" y="201.68">.</text>
<text x="118.02" y="355.25">+</text>
<text x="252.66" y="317.62">.</text>
<text x="428.29" y="277.96">.</text>
<text x="125.78" y="79.64">*</text>
<text x="160.05" y="38.24">.</text>
<text x="339.45" y="84.80">+</text>
<text x="243.44" y="13.42">.</text>
<text x="348.37" y="454.59">.</text>
<text x="451.56" y="488.07">+</text>
<text x="450.82" y="210.25">.</text>
<text x="106.08" y="386.06">.</text>
<text x="458.28" y="127.80">.</text>
<text x="251.78" y="60.82">.</text>
<text x="493.36" y="382.99">.</text>
<text x="245.66" y="495.67">.</text>
<text x="23.00" y="350.36">.</text>
<text x="141.83" y="63.93">.</text>
<text x="419.04" y="92.47">+</text>
<text x="43.49" y="41.49">+</text>
<text x="128.80" y="185.70">.</text>
<text x="315.83" y="318.21">.</text>
<text x="108.50" y="457.53">+</text>
<text x="433.53" y="398.20">+</text>
<text x="369.35" y="394.18">.</text>
<text x="338.72" y="92.74">*</text>
<text x="61.21" y="483.12">*</text>
<text x="377.51" y="384.56">.</text>
<text x="427.07" y="179.55">+</text>
<text x="190.13" y="491.92">+</text>
<text x="283.84" y="405.68">+</text>
<text x="283.53" y="289.26">+</text>
<text x="413.04" y="337.88">+</text>
<text x="489.86" y="203.11">+</text>
<text x="174.98" y="275.07">.</text>
<text x="392.29" y="7.41">.</text>
<text x="80.49" y="117.00">.</text>
<text x="384.71" y="475.95">.</text>
<text x="33.51" y="253.15">.</text>
<text x="202.22" y="250.96">+</text>
<text x="41.21" y="215.79">+</text>
<text x="186.31" y="170.87">+</text>
<text x="344.59" y="358.33">.</text>
<text x="116.81" y="270.37">+</text>
<text x="261.79" y="23.63">+</text>
<text x="34.16" y="348.41">.</text>
<text x="13.32" y="275.82">+</text>
<text x="217.29" y="284.76">*</text>
<text x="323.13" y="370.79">.</text>
<text x="290.00" y="475.64">.</text>
<text x="221.73" y="94.99">.</text>
<text x="286.97" y="137.69">.</text>
<text x="315.36" y="412.84">+</text>
<text x="14.76" y="440.69">.</text>
<text x="197.84" y="193.11">.</text>
<text x="248.35" y="254.17">+</text>
<text x="455.40" y="101.38">+</text>
<text x="491.73" y="161.60">.</text>
<text x="244.97" y="306.28">+</text>
<text x="226.94" y="339.65">.</text>
<text x="125.64" y="476.00">.</text>
<text x="366.12" y="248.43">+</text>
<text x="281.05" y="409.05">.</text>
<text x="297.25" y="137.00">.</text>
<text x="456.69" y="460.21">*</text>
<text x="230.28" y="143.04">*</text>
<text x="357.83" y="166.78">.</text>
<text x="349.13" y="63.10">.</text>
<text x="234.83" y="18.72">.</text>
<text x="493.42" y="238.92">+</text>
<text x="119.59" y="472.26">.</text>
<text x="53.38" y="184.29">.</text>
<text x="157.34" y="495.10">.</text>
<text x="192.33" y="269.88">+</text>
<text x="212.90" y="279.15">+</text>
<text x="215.05" y="482.41">+</text>
<text x="340.75" y="190.73">+</text>
<text x="298.00" y="191.49">.</text>
<text x="66.80" y="354.13">+</text>
<text x="315.73" y="197.55">.</text>
<text x="433.81" y="62.04">+</text>
<text x="102.10" y="368.57">.</text>
<text x="340.72" y="27.64">+</text>

</svg>