
<svg viewBox="0 0 500 500" xmlns="http://www.w.org/2000/svg" width="100%" height="100%" style="background-color: #0a0a14; font-family: 'Courier New', Courier, monospace;">
    <style>
        text { fill: #aaa; font-size: 10px; text-anchor: middle; dominant-baseline: middle; }
    </style>
    <text x="230.37" y="289.77">*</text>
<text x="217.59" y="391.48">+</text>
<text x="20.55" y="296.70">+</text>
<text x="65.79" y="18.83">+</text>
<text x="83.39" y="283.12">.</text>
<text x="255.92" y="290.91">+</text>
<text x="77.47" y="122.19">+</text>
<text x="195.14" y="284.11">.</text>
<text x="174.72" y="31.48">+</text>
<text x="352.02" y="468.09">.</text>
<text x="300.55" y="3.55">+</text>
<text x="305.86" y="320.67">.</text>
<text x="139.68" y="284.27">*</text>
<text x="199.79" y="253.71">+</text>
<text x="351.19" y="359.32">+</text>
<text x="364.38" y="358.78">*</text>
<text x="152.24" y="214.11">+</text>
<text x="300.69" y="382.84">+</text>
<text x="321.35" y="433.14">.</text>
<text x="25.77" y="265.46">+</text>
<text x="40.20" y="268.98">*</text>
<text x="494.43" y="373.56">+</text>
<text x="27.77" y="327.80">+</text>
<text x="416.13" y="113.85">.</text>
<text x="389.04" y="138.10">*</text>
<text x="242.76" y="287.12">.</text>
<text x="175.42" y="309.64">*</text>
<text x="69.37" y="155.72">+</text>
<text x="261.88" y="262.57">+</text>
<text x="216.90" y="168.56">+</text>
<text x="481.79" y="262.72">+</text>
<text x="103.42" y="407.65">.</text>
<text x="204.47" y="139.57">+</text>
<text x="70.80" y="308.90">+</text>
<text x="237.38" y="452.18">+</text>
<text x="462.81" y="240.58">+</text>
<text x="192.69" y="378.41">+</text>
<text x="280.93" y="274.01">.</text>
<text x="296.53" y="89.77">+</text>
<text x="395.06" y="167.84">+</text>
<text x="9.03" y="32.67">+</text>
<text x="235.86" y="283.59">*</text>
<text x="211.88" y="172.98">*</text>
<text x="289.23" y="438.55">+</text>
<text x="363.35" y="167.76">.</text>
<text x="189.82" y="243.01">*</text>
<text x="473.42" y="433.33">*</text>
<text x="384.51" y="391.60">.</text>
<text x="320.66" y="179.30">+</text>
<text x="451.81" y="65.91">+</text>
<text x="24.22" y="0.78">.</text>
<text x="254.32" y="9.56">+</text>
<text x="483.27" y="50.25">+</text>
<text x="463.66" y="84.75">+</text>
<text x="162.83" y="191.94">+</text>
<text x="483.55" y="366.40">.</text>
<text x="7.56" y="438.57">.</text>
<text x="345.78" y="101.31">+</text>
<text x="1.39" y="331.44">+</text>
<text x="369.18" y="159.79">.</text>
<text x="282.99" y="355.65">+</text>
<text x="207.68" y="291.40">.</text>
<text x="167.43" y="294.13">+</text>
<text x="89.03" y="15.99">*</text>
<text x="475.90" y="352.01">.</text>
<text x="190.98" y="375.38">+</text>
<text x="223.53" y="58.42">+</text>
<text x="270.36" y="446.96">.</text>
<text x="255.88" y="489.08">*</text>
<text x="422.23" y="479.60">+</text>
<text x="492.46" y="183.23">.</text>
<text x="339.11" y="417.45">.</text>
<text x="127.03" y="99.07">.</text>
<text x="483.98" y="467.50">.</text>
<text x="281.50" y="324.05">.</text>
<text x="54.15" y="153.16">+</text>
<text x="270.19" y="449.30">+</text>
<text x="494.59" y="223.46">+</text>
<text x="436.90" y="326.96">.</text>
<text x="390.08" y="369.71">.</text>
<text x="58.44" y="189.27">+</text>
<text x="333.84" y="268.59">.</text>
<text x="373.37" y="142.20">+</text>
<text x="409.40" y="24.03">*</text>
<text x="388.96" y="44.58">+</text>
<text x="179.03" y="475.69">.</text>
<text x="478.51" y="429.82">.</text>
<text x="129.07" y="338.82">.</text>
<text x="83.78" y="51.79">+</text>
<text x="431.81" y="376.05">.</text>
<text x="255.03" y="340.82">.</text>
<text x="32.43" y="240.94">*</text>
<text x="122.83" y="392.36">.</text>
<text x="336.47" y="36.57">+</text>
<text x="366.12" y="251.35">.</text>
<text x="198.50" y="220.83">.</text>
<text x="320.93" y="264.70">*</text>
<text x="395.03" y="179.93">*</text>
<text x="279.41" y="357.71">+</text>
<text x="226.64" y="430.51">.</text>
<text x="429.14" y="124.10">.</text>
<text x="66.14" y="453.59">.</text>
<text x="434.34" y="15.12">.</text>
<text x="17.50" y="387.10">*</text>
<text x="8.76" y="129.24">.</text>
<text x="228.23" y="423.88">*</text>
<text x="320.39" y="173.59">.</text>
<text x="482.22" y="213.02">*</text>
<text x="76.09" y="144.45">*</text>
<text x="440.17" y="26.32">.</text>
<text x="221.73" y="141.28">+</text>
<text x="495.53" y="423.11">.</text>
<text x="192.23" y="350.12">+</text>
<text x="418.35" y="413.79">+</text>
<text x="468.33" y="415.09">*</text>
<text x="469.08" y="331.81">*</text>
<text x="140.49" y="306.50">+</text>
<text x="23.43" y="459.08">+</text>
<text x="353.62" y="201.06">.</text>
<text x="413.71" y="435.90">+</text>
<text x="151.59" y="215.78">+</text>
<text x="288.96" y="22.14">.</text>
<text x="33.46" y="190.17">+</text>
<text x="257.61" y="328.18">.</text>
<text x="122.45" y="461.81">.</text>
<text x="158.01" y="498.65">+</text>
<text x="283.69" y="102.87">*</text>
<text x="300.70" y="118.33">.</text>
<text x="342.44" y="354.40">+</text>
<text x="73.65" y="436.95">+</text>
<text x="100.50" y="133.64">.</text>
<text x="473.68" y="11.65">.</text>
<text x="65.25" y="201.12">.</text>
<text x="316.23" y="455.31">.</text>
<text x="310.69" y="122.93">.</text>
<text x="403.49" y="261.61">+</text>
<text x="157.13" y="426.53">.</text>
<text x="167.93" y="318.94">+</text>
<text x="78.21" y="312.35">.</text>
<text x="333.35" y="182.73">+</text>
<text x="6.30" y="480.94">.</text>
<text x="27.28" y="433.74">+</text>
<text x="317.55" y="400.33">+</text>
<text x="467.42" y="488.21">.</text>
<text x="93.30" y="471.49">+</text>
<text x="266.47" y="350.42">*</text>
<text x="164.09" y="218.66">+</text>
<text x="74.05" y="390.89">+</text>
<text x="64.21" y="167.22">+</text>
<text x="305.00" y="350.03">.</text>
<text x="355.15" y="373.57">+</text>
<text x="221.61" y="454.51">*</text>
<text x="13.26" y="168.60">.</text>
<text x="11.42" y="133.74">.</text>
<text x="158.69" y="414.61">+</text>
<text x="156.13" y="220.18">.</text>
<text x="421.43" y="22.95">*</text>
<text x="482.83" y="434.51">.</text>
<text x="479.57" y="65.70">.</text>
<text x="143.88" y="400.76">+</text>
<text x="304.24" y="469.81">+</text>
<text x="432.70" y="429.03">+</text>
<text x="246.05" y="80.26">+</text>
<text x="479.87" y="80.15">*</text>
<text x="211.24" y="13.32">.</text>
<text x="84.75" y="50.72">.</text>
<text x="50.97" y="374.17">.</text>
<text x="453.43" y="96.58">.</text>
<text x="387.77" y="341.05">+</text>
<text x="235.82" y="377.82">+</text>
<text x="97.27" y="448.60">*</text>
<text x="246.79" y="52.17">+</text>
<text x="249.91" y="308.91">.</text>
<text x="320.22" y="84.77">.</text>
<text x="198.55" y="138.79">+</text>
<text x="72.85" y="171.09">+</text>
<text x="189.26" y="396.02">*</text>
<text x="340.20" y="470.05">+</text>
<text x="171.33" y="107.51">.</text>
<text x="163.39" y="322.92">.</text>
<text x="437.44" y="103.96">*</text>
<text x="461.95" y="180.12">.</text>
<text x="403.31" y="190.93">+</text>
<text x="397.50" y="225.86">.</text>
<text x="238.17" y="150.92">.</text>
<text x="361.44" y="469.54">.</text>
<text x="435.87" y="348.32">+</text>
<text x="253.43" y="209.00">*</text>
<text x="182.04" y="455.31">.</text>
<text x="291.05" y="464.40">.</text>
<text x="492.79" y="202.10">.</text>
<text x="283.17" y="213.28">.</text>
<text x="312.75" y="175.20">.</text>
<text x="416.21" y="147.82">*</text>
<text x="427.88" y="29.90">*</text>
<text x="31.82" y="81.10">.</text>
<text x="359.01" y="496.63">.</text>
<text x="388.75" y="237.40">+</text>
<text x="441.12" y="386.37">+</text>
<text x="384.28" y="484.59">.</text>
<text x="208.45" y="364.55">*</text>
<text x="280.22" y="361.64">.</text>
<text x="314.27" y="238.36">.</text>
<text x="180.19" y="168.88">.</text>
<text x="6.09" y="234.98">.</text>
<text x="266.20" y="21.94">*</text>
<text x="226.80" y="73.98">*</text>
<text x="360.82" y="332.02">+</text>
<text x="42.77" y="358.79">.</text>
<text x="104.63" y="371.11">.</text>
<text x="369.49" y="449.15">.</text>
<text x="254.89" y="307.05">.</text>
<text x="311.75" y="416.15">.</text>
<text x="225.00" y="277.55">+</text>
<text x="416.92" y="221.65">*</text>
<text x="70.82" y="35.00">+</text>
<text x="161.18" y="367.01">+</text>
<text x="361.53" y="241.77">.</text>
<text x="446.68" y="483.32">+</text>

</svg>