
<svg viewBox="0 0 500 500" xmlns="http://www.w.org/2000/svg" width="100%" height="100%" style="background-color: #0a0a14; font-family: 'Courier New', Courier, monospace;">
    <style>
        text { fill: #aaa; font-size: 10px; text-anchor: middle; dominant-baseline: middle; }
    </style>
    <text x="334.91" y="106.34">.</text>
<text x="66.29" y="370.04">*</text>
<text x="71.77" y="280.64">+</text>
<text x="248.97" y="283.64">*</text>
<text x="386.90" y="217.85">*</text>
<text x="458.06" y="128.03">+</text>
<text x="183.00" y="16.84">.</text>
<text x="52.72" y="438.10">.</text>
<text x="298.02" y="255.87">+</text>
<text x="481.70" y="7.76">*</text>
<text x="121.69" y="151.53">.</text>
<text x="57.29" y="86.89">*</text>
<text x="211.46" y="377.97">+</text>
<text x="170.43" y="0.76">*</text>
<text x="397.85" y="193.72">*</text>
<text x="315.19" y="335.14">+</text>
<text x="173.45" y="340.09">*</text>
<text x="359.53" y="94.43">.</text>
<text x="192.65" y="140.56">+</text>
<text x="474.52" y="230.23">+</text>
<text x="175.81" y="462.94">.</text>
<text x="48.82" y="188.81">.</text>
<text x="427.16" y="330.57">.</text>
<text x="156.77" y="13.26">+</text>
<text x="305.59" y="123.76">*</text>
<text x="319.75" y="273.93">.</text>
<text x="97.42" y="355.91">.</text>
<text x="191.44" y="287.69">.</text>
<text x="111.77" y="83.73">+</text>
<text x="127.28" y="156.51">+</text>
<text x="336.86" y="352.07">+</text>
<text x="336.83" y="436.25">+</text>
<text x="402.16" y="338.96">+</text>
<text x="495.94" y="223.24">.</text>
<text x="422.98" y="474.47">.</text>
<text x="218.17" y="64.40">+</text>
<text x="336.80" y="388.60">.</text>
<text x="174.22" y="272.06">*</text>
<text x="142.81" y="311.75">+</text>
<text x="176.62" y="214.33">+</text>
<text x="274.12" y="50.18">+</text>
<text x="275.76" y="347.99">.</text>
<text x="49.59" y="320.82">.</text>
<text x="425.51" y="249.14">+</text>
<text x="361.72" y="448.64">.</text>
<text x="254.63" y="223.74">+</text>
<text x="46.49" y="304.03">.</text>
<text x="431.20" y="389.55">.</text>
<text x="221.48" y="273.87">+</text>
<text x="225.26" y="60.37">.</text>
<text x="383.99" y="292.81">+</text>
<text x="63.77" y="449.78">.</text>
<text x="412.41" y="383.65">+</text>
<text x="438.22" y="43.05">*</text>
<text x="21.61" y="218.95">+</text>
<text x="437.64" y="209.78">.</text>
<text x="272.28" y="378.69">.</text>
<text x="22.81" y="286.11">+</text>
<text x="489.81" y="13.41">.</text>
<text x="31.75" y="350.56">*</text>
<text x="359.31" y="77.15">+</text>
<text x="52.86" y="129.32">.</text>
<text x="133.72" y="298.15">+</text>
<text x="490.73" y="468.80">.</text>
<text x="253.92" y="118.30">.</text>
<text x="298.51" y="32.69">+</text>
<text x="293.91" y="327.84">.</text>
<text x="448.93" y="203.22">*</text>
<text x="329.64" y="236.14">.</text>
<text x="216.23" y="21.72">+</text>
<text x="458.34" y="257.70">.</text>
<text x="493.75" y="195.60">.</text>
<text x="478.84" y="268.12">*</text>
<text x="51.51" y="406.52">+</text>
<text x="385.91" y="161.07">+</text>
<text x="240.85" y="254.68">+</text>
<text x="223.29" y="143.36">*</text>
<text x="216.42" y="201.30">+</text>
<text x="54.80" y="254.85">+</text>
<text x="340.54" y="499.01">.</text>
<text x="320.03" y="195.47">+</text>
<text x="350.58" y="231.94">*</text>
<text x="292.42" y="245.70">*</text>
<text x="266.15" y="484.24">+</text>
<text x="341.58" y="260.20">+</text>
<text x="433.27" y="399.33">*</text>
<text x="220.44" y="176.30">*</text>
<text x="270.52" y="331.41">.</text>
<text x="278.43" y="403.10">+</text>
<text x="293.43" y="200.25">.</text>
<text x="8.98" y="4.52">.</text>
<text x="378.28" y="306.43">+</text>
<text x="440.43" y="217.10">.</text>
<text x="435.63" y="241.11">+</text>
<text x="261.43" y="386.74">+</text>
<text x="106.50" y="145.96">+</text>
<text x="491.09" y="188.24">+</text>
<text x="329.15" y="347.21">+</text>
<text x="439.08" y="448.35">+</text>
<text x="132.99" y="131.33">.</text>
<text x="267.31" y="23.93">.</text>
<text x="293.17" y="1.83">.</text>
<text x="340.98" y="220.54">+</text>
<text x="278.39" y="219.57">.</text>
<text x="11.15" y="387.98">.</text>
<text x="187.86" y="70.73">+</text>
<text x="417.47" y="232.81">.</text>
<text x="402.11" y="471.84">*</text>
<text x="404.81" y="401.02">+</text>
<text x="171.98" y="82.73">+</text>
<text x="28.81" y="154.80">*</text>
<text x="324.66" y="26.96">.</text>
<text x="400.11" y="302.06">*</text>
<text x="239.46" y="13.32">+</text>
<text x="160.65" y="439.11">+</text>
<text x="473.34" y="321.77">+</text>
<text x="214.18" y="413.84">*</text>
<text x="251.92" y="108.55">.</text>
<text x="151.13" y="250.82">+</text>
<text x="143.63" y="93.06">.</text>
<text x="117.74" y="221.93">.</text>
<text x="422.60" y="37.61">+</text>
<text x="431.38" y="344.17">.</text>
<text x="257.68" y="98.69">+</text>
<text x="26.80" y="352.82">+</text>
<text x="216.30" y="211.80">+</text>
<text x="318.33" y="196.15">+</text>
<text x="462.15" y="340.85">.</text>
<text x="460.14" y="262.22">.</text>
<text x="391.80" y="35.81">*</text>
<text x="5.16" y="278.78">.</text>
<text x="153.37" y="329.49">.</text>
<text x="223.61" y="308.68">+</text>
<text x="101.03" y="163.08">+</text>
<text x="498.38" y="409.68">+</text>
<text x="412.23" y="317.69">+</text>
<text x="301.76" y="169.50">*</text>
<text x="12.98" y="295.50">+</text>
<text x="282.89" y="37.11">*</text>
<text x="77.97" y="146.29">*</text>
<text x="321.50" y="34.29">+</text>
<text x="9.07" y="301.25">*</text>
<text x="78.54" y="194.73">.</text>
<text x="83.85" y="277.66">.</text>
<text x="81.18" y="229.67">.</text>
<text x="59.65" y="408.13">.</text>
<text x="12.19" y="290.00">*</text>
<text x="274.42" y="391.08">.</text>
<text x="7.67" y="195.40">+</text>
<text x="48.83" y="194.35">+</text>
<text x="466.50" y="60.25">.</text>
<text x="205.31" y="290.41">.</text>
<text x="157.55" y="457.61">+</text>
<text x="51.72" y="52.80">.</text>
<text x="224.59" y="443.41">.</text>
<text x="413.32" y="27.48">*</text>
<text x="446.34" y="316.16">.</text>
<text x="475.31" y="47.37">*</text>
<text x="402.69" y="161.76">.</text>
<text x="276.45" y="162.72">.</text>
<text x="180.77" y="79.89">+</text>
<text x="361.36" y="150.50">.</text>
<text x="209.39" y="164.88">*</text>
<text x="349.87" y="468.32">+</text>
<text x="209.33" y="5.51">+</text>
<text x="116.21" y="464.06">*</text>
<text x="290.86" y="243.77">+</text>
<text x="322.04" y="105.87">.</text>
<text x="413.17" y="260.09">+</text>
<text x="360.56" y="20.18">+</text>
<text x="421.60" y="320.20">.</text>
<text x="411.86" y="213.89">+</text>
<text x="56.79" y="459.37">+</text>
<text x="65.32" y="14.25">*</text>
<text x="130.17" y="144.35">.</text>
<text x="482.04" y="497.11">*</text>
<text x="458.42" y="473.69">+</text>
<text x="101.29" y="186.75">.</text>
<text x="459.97" y="386.43">.</text>
<text x="240.29" y="64.58">.</text>
<text x="369.43" y="398.73">.</text>
<text x="303.81" y="376.61">+</text>
<text x="273.37" y="418.15">.</text>
<text x="378.49" y="188.14">+</text>
<text x="199.05" y="27.57">+</text>
<text x="94.03" y="172.19">*</text>
<text x="358.34" y="219.19">+</text>
<text x="97.42" y="88.51">+</text>
<text x="13.77" y="77.23">+</text>
<text x="307.37" y="335.88">+</text>
<text x="464.58" y="310.88">*</text>
<text x="98.06" y="253.89">+</text>
<text x="132.97" y="277.25">.</text>
<text x="77.37" y="135.02">+</text>
<text x="419.51" y="54.20">+</text>
<text x="37.91" y="190.88">.</text>
<text x="223.87" y="481.70">.</text>
<text x="63.59" y="119.71">*</text>
<text x="480.93" y="461.14">+</text>
<text x="410.81" y="405.48">+</text>
<text x="482.30" y="66.53">*</text>
<text x="291.83" y="443.68">.</text>
<text x="313.20" y="165.85">.</text>
<text x="326.24" y="335.35">+</text>
<text x="339.98" y="394.51">.</text>
<text x="464.95" y="190.19">+</text>
<text x="299.12" y="51.43">+</text>
<text x="429.84" y="166.80">.</text>
<text x="30.56" y="401.18">+</text>
<text x="477.32" y="479.03">+</text>
<text x="197.91" y="10.85">*</text>
<text x="165.17" y="169.07">+</text>

</svg>