
<svg viewBox="0 0 500 500" xmlns="http://www.w.org/2000/svg" width="100%" height="100%" style="background-color: #0a0a14; font-family: 'Courier New', Courier, monospace;">
    <style>
        text { fill: #aaa; font-size: 10px; text-anchor: middle; dominant-baseline: middle; }
    </style>
    <text x="106.40" y="194.24">.</text>
<text x="83.42" y="344.33">.</text>
<text x="355.00" y="125.39">.</text>
<text x="252.37" y="205.79">+</text>
<text x="472.08" y="10.63">.</text>
<text x="331.94" y="491.68">+</text>
<text x="229.50" y="30.21">+</text>
<text x="457.32" y="441.71">*</text>
<text x="240.45" y="406.02">.</text>
<text x="304.18" y="12.61">+</text>
<text x="493.34" y="77.73">.</text>
<text x="301.80" y="440.72">.</text>
<text x="204.31" y="139.21">.</text>
<text x="144.44" y="224.02">.</text>
<text x="105.65" y="265.30">.</text>
<text x="372.51" y="344.59">.</text>
<text x="199.10" y="181.20">.</text>
<text x="80.77" y="85.78">+</text>
<text x="199.75" y="305.91">.</text>
<text x="422.86" y="456.87">.</text>
<text x="403.37" y="179.01">.</text>
<text x="106.22" y="423.07">.</text>
<text x="377.35" y="333.68">.</text>
<text x="394.93" y="370.98">.</text>
<text x="306.32" y="147.83">+</text>
<text x="122.21" y="92.71">.</text>
<text x="350.03" y="229.80">*</text>
<text x="383.38" y="64.36">.</text>
<text x="360.07" y="121.54">.</text>
<text x="493.78" y="263.30">+</text>
<text x="381.03" y="362.54">+</text>
<text x="206.78" y="488.30">+</text>
<text x="269.14" y="7.23">.</text>
<text x="476.22" y="237.99">+</text>
<text x="172.21" y="321.33">*</text>
<text x="44.20" y="6.53">.</text>
<text x="409.00" y="176.13">.</text>
<text x="110.16" y="130.70">+</text>
<text x="328.67" y="31.12">.</text>
<text x="379.97" y="17.55">*</text>
<text x="232.85" y="330.35">.</text>
<text x="239.53" y="12.29">*</text>
<text x="472.74" y="406.78">.</text>
<text x="50.25" y="253.89">.</text>
<text x="395.26" y="309.88">+</text>
<text x="22.82" y="435.82">.</text>
<text x="497.17" y="205.72">+</text>
<text x="55.30" y="184.98">.</text>
<text x="247.17" y="220.50">.</text>
<text x="375.23" y="307.77">+</text>
<text x="266.31" y="6.03">.</text>
<text x="157.45" y="418.68">.</text>
<text x="191.23" y="373.79">.</text>
<text x="396.70" y="410.72">.</text>
<text x="283.05" y="471.44">+</text>
<text x="109.90" y="366.25">+</text>
<text x="278.44" y="222.79">+</text>
<text x="7.47" y="250.72">.</text>
<text x="213.58" y="375.94">.</text>
<text x="331.86" y="433.61">+</text>
<text x="447.18" y="82.38">+</text>
<text x="332.77" y="319.82">.</text>
<text x="183.37" y="489.80">.</text>
<text x="362.94" y="464.19">+</text>
<text x="301.96" y="459.14">+</text>
<text x="149.84" y="88.03">*</text>
<text x="415.19" y="455.85">.</text>
<text x="385.56" y="412.03">.</text>
<text x="407.08" y="304.17">.</text>
<text x="19.08" y="408.00">*</text>
<text x="92.06" y="296.57">+</text>
<text x="89.62" y="26.77">.</text>
<text x="291.81" y="40.63">+</text>
<text x="414.82" y="108.39">.</text>
<text x="8.63" y="35.42">+</text>
<text x="488.45" y="478.73">*</text>
<text x="246.27" y="112.86">.</text>
<text x="238.59" y="403.92">.</text>
<text x="250.29" y="18.05">.</text>
<text x="272.30" y="60.42">*</text>
<text x="144.50" y="281.34">.</text>
<text x="254.72" y="447.92">.</text>
<text x="25.02" y="29.87">+</text>
<text x="424.88" y="6.02">+</text>
<text x="332.12" y="201.53">.</text>
<text x="1.47" y="444.92">+</text>
<text x="417.61" y="239.08">+</text>
<text x="331.67" y="195.60">+</text>
<text x="448.53" y="73.95">.</text>
<text x="408.34" y="449.43">.</text>
<text x="255.12" y="37.55">+</text>
<text x="260.86" y="353.61">*</text>
<text x="432.24" y="300.82">+</text>
<text x="37.51" y="242.38">+</text>
<text x="276.35" y="222.37">.</text>
<text x="110.54" y="403.94">.</text>
<text x="293.72" y="380.97">.</text>
<text x="449.36" y="430.10">+</text>
<text x="338.75" y="481.32">*</text>
<text x="286.17" y="300.92">+</text>
<text x="58.97" y="296.01">.</text>
<text x="338.27" y="311.37">+</text>
<text x="322.23" y="159.74">+</text>
<text x="450.81" y="358.91">*</text>
<text x="19.75" y="101.70">+</text>
<text x="47.54" y="48.02">+</text>
<text x="384.53" y="144.90">.</text>
<text x="368.61" y="193.43">+</text>
<text x="251.70" y="275.72">*</text>
<text x="297.41" y="286.34">.</text>
<text x="105.92" y="310.92">+</text>
<text x="181.71" y="108.34">+</text>
<text x="259.49" y="299.81">.</text>
<text x="102.58" y="217.60">.</text>
<text x="411.15" y="367.84">+</text>
<text x="315.11" y="149.08">+</text>
<text x="274.44" y="106.04">.</text>
<text x="65.35" y="485.10">.</text>
<text x="305.06" y="407.98">+</text>
<text x="297.49" y="421.00">+</text>
<text x="9.15" y="101.34">+</text>
<text x="124.72" y="465.81">.</text>
<text x="414.94" y="348.86">+</text>
<text x="149.73" y="168.19">+</text>
<text x="405.03" y="175.33">.</text>
<text x="328.68" y="130.99">*</text>
<text x="255.69" y="14.17">.</text>
<text x="320.73" y="24.85">+</text>
<text x="202.88" y="478.61">+</text>
<text x="470.09" y="263.57">*</text>
<text x="449.72" y="164.94">+</text>
<text x="87.59" y="472.13">+</text>
<text x="74.03" y="470.86">.</text>
<text x="392.33" y="138.99">*</text>
<text x="453.39" y="293.41">+</text>
<text x="170.84" y="312.56">.</text>
<text x="186.37" y="11.68">*</text>
<text x="35.59" y="138.27">+</text>
<text x="196.23" y="256.63">.</text>
<text x="497.10" y="269.13">.</text>
<text x="308.51" y="422.72">+</text>
<text x="84.93" y="122.37">+</text>
<text x="48.62" y="182.83">.</text>
<text x="379.71" y="25.87">+</text>
<text x="303.89" y="460.39">+</text>
<text x="133.20" y="435.47">.</text>
<text x="98.98" y="444.39">.</text>
<text x="414.20" y="244.35">.</text>
<text x="160.57" y="90.05">+</text>
<text x="294.23" y="366.65">+</text>
<text x="237.79" y="394.12">.</text>
<text x="357.83" y="167.51">+</text>
<text x="273.47" y="423.13">+</text>
<text x="172.05" y="188.56">+</text>
<text x="422.56" y="350.20">.</text>
<text x="258.71" y="458.87">+</text>
<text x="138.28" y="235.77">.</text>
<text x="390.60" y="224.20">+</text>
<text x="172.08" y="264.26">.</text>
<text x="441.77" y="340.58">+</text>
<text x="421.14" y="22.14">.</text>
<text x="313.35" y="339.89">+</text>
<text x="167.90" y="375.57">+</text>
<text x="102.99" y="437.91">+</text>
<text x="105.37" y="22.14">+</text>
<text x="150.06" y="232.46">*</text>
<text x="52.96" y="4.49">*</text>
<text x="210.14" y="225.07">+</text>
<text x="337.82" y="340.82">.</text>
<text x="274.14" y="187.51">.</text>
<text x="72.65" y="27.08">+</text>
<text x="386.71" y="251.83">.</text>
<text x="393.49" y="157.58">+</text>
<text x="414.26" y="249.00">+</text>
<text x="320.05" y="321.45">*</text>
<text x="334.76" y="77.47">+</text>
<text x="328.85" y="26.82">+</text>
<text x="389.37" y="82.30">+</text>
<text x="206.11" y="464.64">.</text>
<text x="483.74" y="396.58">+</text>
<text x="46.65" y="52.83">+</text>
<text x="412.67" y="352.75">+</text>
<text x="394.56" y="18.62">.</text>
<text x="28.78" y="234.88">+</text>
<text x="454.71" y="353.90">+</text>
<text x="409.13" y="130.24">*</text>
<text x="226.48" y="37.53">*</text>
<text x="73.13" y="393.88">+</text>
<text x="378.65" y="47.63">.</text>
<text x="243.50" y="415.33">+</text>
<text x="460.59" y="129.92">.</text>
<text x="69.24" y="326.86">+</text>
<text x="267.59" y="175.91">+</text>
<text x="116.01" y="4.74">*</text>
<text x="444.36" y="154.94">+</text>
<text x="422.23" y="37.35">*</text>
<text x="107.25" y="133.46">+</text>
<text x="496.70" y="160.03">+</text>
<text x="307.85" y="249.84">+</text>
<text x="172.54" y="351.11">.</text>
<text x="159.55" y="8.68">.</text>
<text x="170.22" y="257.52">.</text>
<text x="35.52" y="309.58">+</text>
<text x="130.50" y="471.49">+</text>
<text x="489.86" y="195.80">+</text>
<text x="410.62" y="485.17">+</text>
<text x="96.87" y="455.80">.</text>

</svg>