
<svg viewBox="0 0 500 500" xmlns="http://www.w.org/2000/svg" width="100%" height="100%" style="background-color: #0a0a14; font-family: 'Courier New', Courier, monospace;">
    <style>
        text { fill: #aaa; font-size: 10px; text-anchor: middle; dominant-baseline: middle; }
    </style>
    <text x="371.32" y="122.17">.</text>
<text x="254.73" y="476.32">+</text>
<text x="277.87" y="333.91">+</text>
<text x="190.82" y="380.03">.</text>
<text x="498.08" y="375.65">.</text>
<text x="72.38" y="191.61">+</text>
<text x="327.59" y="448.00">.</text>
<text x="242.07" y="96.98">+</text>
<text x="449.17" y="18.93">*</text>
<text x="411.67" y="202.39">+</text>
<text x="459.39" y="440.79">+</text>
<text x="407.22" y="473.48">+</text>
<text x="241.40" y="192.80">.</text>
<text x="91.33" y="346.56">.</text>
<text x="189.44" y="6.01">+</text>
<text x="242.27" y="475.05">+</text>
<text x="422.97" y="260.74">+</text>
<text x="372.31" y="37.18">+</text>
<text x="499.62" y="410.84">+</text>
<text x="451.33" y="20.08">+</text>
<text x="155.01" y="437.36">+</text>
<text x="304.21" y="374.10">*</text>
<text x="71.39" y="177.75">+</text>
<text x="231.85" y="478.25">+</text>
<text x="468.71" y="243.44">*</text>
<text x="403.40" y="31.61">+</text>
<text x="455.75" y="218.90">*</text>
<text x="333.45" y="160.30">.</text>
<text x="87.13" y="224.92">+</text>
<text x="54.96" y="393.05">*</text>
<text x="86.60" y="376.64">+</text>
<text x="420.40" y="44.64">*</text>
<text x="432.91" y="422.38">.</text>
<text x="77.39" y="355.13">.</text>
<text x="496.81" y="369.64">+</text>
<text x="17.95" y="337.48">.</text>
<text x="238.78" y="431.16">+</text>
<text x="98.75" y="397.49">.</text>
<text x="152.38" y="276.59">+</text>
<text x="440.89" y="471.77">+</text>
<text x="415.88" y="266.16">.</text>
<text x="133.08" y="199.37">.</text>
<text x="472.18" y="283.89">+</text>
<text x="475.22" y="15.08">.</text>
<text x="203.25" y="436.51">+</text>
<text x="74.11" y="118.66">.</text>
<text x="233.60" y="2.51">.</text>
<text x="278.76" y="34.84">.</text>
<text x="329.87" y="227.27">.</text>
<text x="435.60" y="48.03">*</text>
<text x="210.86" y="176.94">+</text>
<text x="413.89" y="270.26">*</text>
<text x="324.43" y="497.45">.</text>
<text x="339.52" y="121.01">+</text>
<text x="218.39" y="29.65">.</text>
<text x="487.06" y="455.08">.</text>
<text x="193.51" y="201.63">.</text>
<text x="85.60" y="98.39">+</text>
<text x="39.20" y="312.23">.</text>
<text x="467.78" y="58.12">*</text>
<text x="22.59" y="145.92">+</text>
<text x="369.45" y="340.55">+</text>
<text x="137.12" y="103.83">+</text>
<text x="115.18" y="98.59">+</text>
<text x="399.03" y="368.37">+</text>
<text x="481.81" y="442.76">.</text>
<text x="140.72" y="323.06">+</text>
<text x="175.27" y="199.58">+</text>
<text x="179.12" y="140.58">.</text>
<text x="90.76" y="388.95">*</text>
<text x="491.53" y="67.84">+</text>
<text x="152.82" y="477.04">+</text>
<text x="273.56" y="440.91">+</text>
<text x="336.05" y="38.48">+</text>
<text x="3.53" y="409.93">.</text>
<text x="405.53" y="196.32">.</text>
<text x="453.27" y="175.73">.</text>
<text x="240.46" y="423.75">.</text>
<text x="318.48" y="165.24">.</text>
<text x="34.94" y="295.91">.</text>
<text x="9.45" y="28.09">+</text>
<text x="219.44" y="112.87">+</text>
<text x="41.39" y="138.27">.</text>
<text x="450.94" y="101.89">.</text>
<text x="287.22" y="492.18">.</text>
<text x="262.13" y="301.99">+</text>
<text x="389.69" y="307.07">+</text>
<text x="171.19" y="383.82">+</text>
<text x="363.02" y="59.73">.</text>
<text x="400.49" y="381.88">+</text>
<text x="93.36" y="298.37">+</text>
<text x="92.23" y="359.19">.</text>
<text x="8.81" y="377.07">.</text>
<text x="489.55" y="227.53">.</text>
<text x="27.86" y="488.22">.</text>
<text x="215.01" y="4.20">+</text>
<text x="71.02" y="497.44">+</text>
<text x="330.17" y="413.65">+</text>
<text x="341.13" y="468.50">+</text>
<text x="42.15" y="326.57">.</text>
<text x="191.82" y="242.90">+</text>
<text x="44.28" y="325.67">+</text>
<text x="220.86" y="333.22">+</text>
<text x="26.87" y="282.00">+</text>
<text x="188.08" y="94.66">.</text>
<text x="70.41" y="218.14">+</text>
<text x="409.69" y="96.13">+</text>
<text x="117.12" y="231.62">.</text>
<text x="460.61" y="237.30">+</text>
<text x="182.98" y="91.07">+</text>
<text x="421.25" y="16.16">.</text>
<text x="51.04" y="375.86">*</text>
<text x="473.88" y="194.47">+</text>
<text x="437.13" y="130.59">.</text>
<text x="487.49" y="480.00">.</text>
<text x="365.40" y="115.65">.</text>
<text x="73.42" y="77.07">+</text>
<text x="119.83" y="154.52">.</text>
<text x="301.30" y="175.41">+</text>
<text x="62.90" y="174.06">.</text>
<text x="157.25" y="15.04">*</text>
<text x="139.53" y="284.52">+</text>
<text x="434.32" y="66.95">.</text>
<text x="114.94" y="262.66">.</text>
<text x="469.35" y="230.42">.</text>
<text x="139.38" y="480.73">+</text>
<text x="442.89" y="300.91">.</text>
<text x="377.74" y="272.13">.</text>
<text x="213.85" y="482.47">+</text>
<text x="318.53" y="203.95">.</text>
<text x="205.98" y="236.21">.</text>
<text x="329.99" y="484.61">.</text>
<text x="358.66" y="244.60">.</text>
<text x="372.18" y="293.40">+</text>
<text x="205.30" y="117.56">.</text>
<text x="113.69" y="156.57">*</text>
<text x="232.74" y="127.92">+</text>
<text x="198.45" y="223.90">.</text>
<text x="351.22" y="176.60">.</text>
<text x="35.67" y="111.35">.</text>
<text x="158.27" y="423.77">+</text>
<text x="159.37" y="205.44">*</text>
<text x="284.61" y="459.22">.</text>
<text x="431.61" y="97.03">+</text>
<text x="95.38" y="28.77">.</text>
<text x="76.41" y="56.95">.</text>
<text x="271.56" y="387.16">+</text>
<text x="412.22" y="440.60">*</text>
<text x="5.50" y="323.76">.</text>
<text x="140.81" y="425.59">+</text>
<text x="163.82" y="491.64">.</text>
<text x="441.27" y="424.20">.</text>
<text x="280.53" y="358.59">.</text>
<text x="288.67" y="246.51">*</text>
<text x="141.07" y="365.94">.</text>
<text x="51.48" y="347.29">+</text>
<text x="54.81" y="160.03">*</text>
<text x="322.22" y="18.39">+</text>
<text x="257.74" y="101.90">+</text>
<text x="195.53" y="336.02">.</text>
<text x="473.66" y="11.65">.</text>
<text x="16.35" y="225.27">*</text>
<text x="278.88" y="60.60">*</text>
<text x="296.80" y="199.92">.</text>
<text x="362.82" y="458.46">.</text>
<text x="485.85" y="378.31">+</text>
<text x="307.73" y="134.07">.</text>
<text x="358.63" y="124.96">+</text>
<text x="394.99" y="325.30">*</text>
<text x="403.71" y="377.07">+</text>
<text x="4.63" y="82.14">*</text>
<text x="21.16" y="435.78">+</text>
<text x="367.10" y="488.08">+</text>
<text x="68.85" y="366.10">.</text>
<text x="49.63" y="179.14">*</text>
<text x="400.40" y="35.70">+</text>
<text x="435.27" y="483.08">*</text>
<text x="180.14" y="298.19">+</text>
<text x="222.33" y="220.63">*</text>
<text x="216.22" y="145.41">*</text>
<text x="181.10" y="28.80">+</text>
<text x="425.98" y="362.65">+</text>
<text x="251.18" y="82.54">+</text>
<text x="138.60" y="367.79">+</text>
<text x="393.53" y="16.41">.</text>
<text x="44.35" y="280.75">+</text>
<text x="57.86" y="330.03">.</text>
<text x="211.28" y="363.76">*</text>
<text x="369.99" y="34.11">.</text>
<text x="256.51" y="243.96">+</text>
<text x="153.48" y="355.80">.</text>
<text x="411.73" y="361.63">+</text>
<text x="58.02" y="144.74">.</text>
<text x="240.02" y="179.14">.</text>
<text x="283.36" y="298.49">.</text>
<text x="166.12" y="454.19">*</text>
<text x="320.63" y="182.81">.</text>
<text x="311.67" y="404.65">+</text>
<text x="161.49" y="424.74">+</text>
<text x="140.67" y="222.49">*</text>
<text x="314.98" y="120.45">+</text>
<text x="406.08" y="73.56">+</text>
<text x="172.16" y="308.22">+</text>
<text x="396.63" y="483.78">+</text>
<text x="32.36" y="327.91">.</text>
<text x="482.52" y="428.53">.</text>
<text x="23.18" y="369.62">+</text>
<text x="418.24" y="338.77">.</text>
<text x="134.86" y="57.20">.</text>
<text x="302.73" y="285.98">.</text>
<text x="10.35" y="164.01">*</text>
<text x="245.45" y="230.31">.</text>
<text x="453.31" y="297.69">+</text>
<text x="171.41" y="153.29">+</text>

</svg>