
<svg viewBox="0 0 500 500" xmlns="http://www.w.org/2000/svg" width="100%" height="100%" style="background-color: #0a0a14; font-family: 'Courier New', Courier, monospace;">
    <style>
        text { fill: #aaa; font-size: 10px; text-anchor: middle; dominant-baseline: middle; }
    </style>
    <text x="250.82" y="434.09">+</text>
<text x="100.63" y="195.31">+</text>
<text x="134.06" y="339.48">+</text>
<text x="424.74" y="78.69">.</text>
<text x="344.06" y="40.77">.</text>
<text x="388.74" y="42.48">.</text>
<text x="469.54" y="68.34">.</text>
<text x="371.42" y="11.01">.</text>
<text x="108.70" y="210.43">+</text>
<text x="492.19" y="170.22">.</text>
<text x="278.22" y="126.97">.</text>
<text x="214.10" y="272.49">+</text>
<text x="39.83" y="346.98">*</text>
<text x="145.64" y="386.03">+</text>
<text x="484.47" y="291.89">.</text>
<text x="495.80" y="221.02">.</text>
<text x="383.49" y="250.14">+</text>
<text x="247.38" y="354.19">.</text>
<text x="391.41" y="352.82">.</text>
<text x="325.35" y="200.86">.</text>
<text x="192.38" y="2.45">.</text>
<text x="329.99" y="146.65">+</text>
<text x="136.67" y="446.93">+</text>
<text x="139.65" y="9.14">+</text>
<text x="260.27" y="194.97">+</text>
<text x="441.19" y="41.21">+</text>
<text x="417.02" y="485.09">+</text>
<text x="30.61" y="326.30">*</text>
<text x="192.50" y="45.97">.</text>
<text x="310.29" y="18.06">.</text>
<text x="490.07" y="137.54">*</text>
<text x="345.48" y="397.22">+</text>
<text x="480.34" y="55.78">.</text>
<text x="471.49" y="449.59">+</text>
<text x="268.38" y="478.59">.</text>
<text x="433.32" y="75.85">.</text>
<text x="419.34" y="218.96">.</text>
<text x="314.68" y="450.49">.</text>
<text x="444.80" y="169.81">.</text>
<text x="333.28" y="104.01">.</text>
<text x="60.69" y="232.39">+</text>
<text x="383.61" y="138.84">*</text>
<text x="244.25" y="151.95">+</text>
<text x="283.86" y="285.03">.</text>
<text x="335.36" y="365.69">.</text>
<text x="494.64" y="433.71">.</text>
<text x="401.72" y="343.10">+</text>
<text x="423.12" y="108.27">.</text>
<text x="141.04" y="111.39">*</text>
<text x="33.44" y="397.54">+</text>
<text x="100.40" y="230.04">+</text>
<text x="420.05" y="469.61">.</text>
<text x="240.42" y="144.49">*</text>
<text x="97.44" y="353.22">+</text>
<text x="399.61" y="13.61">+</text>
<text x="0.74" y="61.32">.</text>
<text x="387.34" y="411.69">*</text>
<text x="111.23" y="192.12">+</text>
<text x="165.48" y="20.80">+</text>
<text x="344.20" y="404.31">+</text>
<text x="395.00" y="361.18">.</text>
<text x="377.31" y="232.55">.</text>
<text x="403.14" y="489.54">+</text>
<text x="127.22" y="28.90">.</text>
<text x="93.70" y="118.02">.</text>
<text x="294.13" y="77.09">+</text>
<text x="465.38" y="291.60">+</text>
<text x="158.21" y="12.93">+</text>
<text x="323.45" y="15.62">.</text>
<text x="186.70" y="497.20">.</text>
<text x="33.31" y="189.31">.</text>
<text x="378.80" y="347.65">+</text>
<text x="213.79" y="261.30">.</text>
<text x="88.58" y="349.17">+</text>
<text x="211.28" y="398.51">.</text>
<text x="257.97" y="431.96">*</text>
<text x="131.54" y="449.91">.</text>
<text x="392.37" y="362.71">.</text>
<text x="231.94" y="229.04">+</text>
<text x="168.75" y="125.43">.</text>
<text x="350.32" y="342.81">.</text>
<text x="304.55" y="299.99">.</text>
<text x="66.38" y="73.39">+</text>
<text x="245.10" y="326.16">.</text>
<text x="496.08" y="164.33">.</text>
<text x="235.91" y="256.19">.</text>
<text x="13.59" y="20.20">+</text>
<text x="42.54" y="54.74">.</text>
<text x="92.94" y="270.98">+</text>
<text x="144.85" y="103.79">.</text>
<text x="58.60" y="44.03">.</text>
<text x="306.46" y="403.20">.</text>
<text x="276.68" y="429.86">+</text>
<text x="434.07" y="313.54">+</text>
<text x="187.54" y="203.75">.</text>
<text x="441.68" y="373.32">.</text>
<text x="173.63" y="415.67">.</text>
<text x="231.69" y="82.58">+</text>
<text x="147.15" y="211.97">.</text>
<text x="465.29" y="20.66">.</text>
<text x="63.43" y="45.39">+</text>
<text x="76.73" y="308.79">+</text>
<text x="428.56" y="188.85">+</text>
<text x="451.81" y="150.27">+</text>
<text x="318.49" y="12.61">.</text>
<text x="489.68" y="129.10">.</text>
<text x="1.02" y="317.01">+</text>
<text x="270.07" y="489.93">.</text>
<text x="148.47" y="129.74">+</text>
<text x="131.24" y="420.94">.</text>
<text x="281.75" y="1.36">.</text>
<text x="27.87" y="19.47">.</text>
<text x="226.43" y="125.89">+</text>
<text x="28.90" y="463.46">.</text>
<text x="265.54" y="302.51">+</text>
<text x="418.15" y="307.17">.</text>
<text x="96.27" y="78.54">+</text>
<text x="176.10" y="386.58">.</text>
<text x="452.72" y="223.94">*</text>
<text x="140.00" y="76.85">.</text>
<text x="22.54" y="453.37">+</text>
<text x="369.14" y="75.67">*</text>
<text x="363.15" y="126.34">.</text>
<text x="349.37" y="281.88">+</text>
<text x="459.38" y="413.08">.</text>
<text x="72.43" y="43.45">.</text>
<text x="414.28" y="445.68">.</text>
<text x="84.30" y="7.16">.</text>
<text x="24.54" y="265.77">.</text>
<text x="102.71" y="123.91">.</text>
<text x="240.43" y="303.35">.</text>
<text x="206.25" y="212.79">+</text>
<text x="151.35" y="424.08">.</text>
<text x="400.26" y="248.62">.</text>
<text x="191.29" y="468.29">.</text>
<text x="56.81" y="474.06">+</text>
<text x="268.24" y="177.17">*</text>
<text x="90.00" y="416.50">+</text>
<text x="369.06" y="9.38">.</text>
<text x="134.60" y="1.78">.</text>
<text x="275.29" y="17.17">+</text>
<text x="293.82" y="369.21">.</text>
<text x="480.30" y="140.40">+</text>
<text x="288.14" y="210.55">+</text>
<text x="106.04" y="465.95">+</text>
<text x="167.40" y="280.70">+</text>
<text x="180.15" y="184.32">+</text>
<text x="55.46" y="232.84">+</text>
<text x="90.62" y="142.78">*</text>
<text x="145.17" y="46.40">+</text>
<text x="360.61" y="12.54">+</text>
<text x="161.02" y="258.85">+</text>
<text x="282.24" y="356.50">.</text>
<text x="490.57" y="351.13">+</text>
<text x="397.06" y="390.55">+</text>
<text x="61.32" y="62.41">.</text>
<text x="113.98" y="190.85">.</text>
<text x="480.06" y="82.44">+</text>
<text x="346.27" y="167.14">*</text>
<text x="93.92" y="354.78">+</text>
<text x="193.21" y="388.06">.</text>
<text x="95.77" y="401.58">*</text>
<text x="373.77" y="309.64">.</text>
<text x="286.41" y="461.80">+</text>
<text x="309.23" y="161.59">.</text>
<text x="159.67" y="213.21">*</text>
<text x="46.72" y="218.95">.</text>
<text x="89.61" y="416.78">+</text>
<text x="176.45" y="294.29">.</text>
<text x="494.30" y="210.73">+</text>
<text x="149.66" y="123.76">*</text>
<text x="442.92" y="123.82">.</text>
<text x="65.35" y="331.15">.</text>
<text x="370.66" y="269.18">.</text>
<text x="376.70" y="261.42">.</text>
<text x="185.43" y="357.71">+</text>
<text x="359.45" y="221.90">.</text>
<text x="169.50" y="273.26">.</text>
<text x="278.79" y="164.42">*</text>
<text x="76.59" y="251.63">+</text>
<text x="359.49" y="256.17">.</text>
<text x="29.88" y="295.33">*</text>
<text x="446.25" y="271.24">+</text>
<text x="297.37" y="395.44">*</text>
<text x="137.76" y="1.68">+</text>
<text x="382.00" y="45.97">+</text>
<text x="16.02" y="64.41">.</text>
<text x="133.55" y="108.39">*</text>
<text x="129.79" y="69.68">*</text>
<text x="273.94" y="248.27">.</text>
<text x="257.07" y="45.81">+</text>
<text x="468.09" y="196.01">*</text>
<text x="271.72" y="288.69">*</text>
<text x="290.88" y="362.10">.</text>
<text x="475.69" y="212.80">+</text>
<text x="164.49" y="266.46">*</text>
<text x="168.91" y="255.19">+</text>
<text x="216.02" y="308.16">.</text>
<text x="20.78" y="147.25">+</text>
<text x="323.44" y="475.29">+</text>
<text x="8.45" y="308.46">+</text>
<text x="332.20" y="20.24">.</text>
<text x="14.44" y="216.37">+</text>

</svg>