
<svg viewBox="0 0 500 500" xmlns="http://www.w.org/2000/svg" width="100%" height="100%" style="background-color: #0a0a14; font-family: 'Courier New', Courier, monospace;">
    <style>
        text { fill: #aaa; font-size: 10px; text-anchor: middle; dominant-baseline: middle; }
    </style>
    <text x="196.20" y="451.38">*</text>
<text x="273.07" y="411.75">+</text>
<text x="439.65" y="83.17">.</text>
<text x="411.81" y="273.53">*</text>
<text x="233.05" y="54.44">.</text>
<text x="364.89" y="85.90">*</text>
<text x="284.38" y="469.19">.</text>
<text x="132.61" y="244.48">+</text>
<text x="170.21" y="216.63">.</text>
<text x="286.84" y="263.08">+</text>
<text x="18.38" y="287.51">.</text>
<text x="424.56" y="354.53">*</text>
<text x="479.62" y="155.13">.</text>
<text x="396.28" y="160.65">+</text>
<text x="455.49" y="77.40">.</text>
<text x="329.90" y="409.86">+</text>
<text x="140.69" y="495.73">+</text>
<text x="154.28" y="344.98">.</text>
<text x="133.11" y="476.71">.</text>
<text x="474.85" y="77.25">*</text>
<text x="445.76" y="52.37">+</text>
<text x="364.40" y="133.07">.</text>
<text x="138.91" y="410.84">+</text>
<text x="145.41" y="158.45">.</text>
<text x="187.42" y="191.19">+</text>
<text x="95.14" y="468.00">+</text>
<text x="68.35" y="98.58">.</text>
<text x="42.64" y="463.14">.</text>
<text x="297.13" y="364.30">.</text>
<text x="146.69" y="242.39">*</text>
<text x="320.31" y="372.40">+</text>
<text x="441.92" y="327.78">+</text>
<text x="85.32" y="63.10">.</text>
<text x="324.98" y="162.37">+</text>
<text x="269.05" y="98.93">+</text>
<text x="168.94" y="213.23">.</text>
<text x="412.36" y="414.27">+</text>
<text x="136.80" y="212.51">+</text>
<text x="67.81" y="401.86">+</text>
<text x="278.35" y="255.75">+</text>
<text x="141.59" y="341.30">.</text>
<text x="376.20" y="359.59">*</text>
<text x="77.44" y="165.92">.</text>
<text x="208.47" y="92.66">+</text>
<text x="395.91" y="238.52">.</text>
<text x="488.18" y="188.96">+</text>
<text x="416.95" y="155.07">.</text>
<text x="147.06" y="143.66">.</text>
<text x="115.62" y="448.54">+</text>
<text x="338.90" y="406.39">*</text>
<text x="170.56" y="324.72">.</text>
<text x="342.07" y="144.95">.</text>
<text x="80.53" y="314.27">*</text>
<text x="419.47" y="278.33">+</text>
<text x="437.86" y="434.34">+</text>
<text x="298.06" y="206.76">+</text>
<text x="138.00" y="291.14">.</text>
<text x="66.68" y="84.92">+</text>
<text x="386.23" y="468.19">+</text>
<text x="168.73" y="73.09">+</text>
<text x="425.05" y="127.64">.</text>
<text x="357.16" y="452.37">*</text>
<text x="354.13" y="84.02">*</text>
<text x="412.10" y="178.68">+</text>
<text x="314.61" y="227.50">.</text>
<text x="56.91" y="87.93">.</text>
<text x="394.10" y="293.60">*</text>
<text x="443.74" y="62.52">.</text>
<text x="159.99" y="297.13">+</text>
<text x="64.47" y="393.05">+</text>
<text x="126.91" y="313.63">.</text>
<text x="28.00" y="102.69">*</text>
<text x="74.41" y="155.18">.</text>
<text x="351.09" y="373.83">+</text>
<text x="32.29" y="9.16">+</text>
<text x="307.26" y="63.60">+</text>
<text x="108.48" y="258.67">+</text>
<text x="52.23" y="39.89">+</text>
<text x="150.09" y="385.08">.</text>
<text x="265.54" y="198.35">.</text>
<text x="347.07" y="264.70">.</text>
<text x="406.71" y="160.08">+</text>
<text x="464.58" y="123.91">*</text>
<text x="389.24" y="203.28">+</text>
<text x="354.07" y="71.76">*</text>
<text x="471.69" y="300.30">+</text>
<text x="495.57" y="314.54">.</text>
<text x="156.29" y="53.98">+</text>
<text x="221.21" y="475.81">+</text>
<text x="360.22" y="495.95">+</text>
<text x="467.11" y="252.82">.</text>
<text x="446.68" y="156.37">.</text>
<text x="172.54" y="16.08">.</text>
<text x="155.92" y="302.25">+</text>
<text x="338.41" y="429.54">+</text>
<text x="146.87" y="419.40">.</text>
<text x="204.25" y="71.20">.</text>
<text x="22.32" y="348.44">.</text>
<text x="47.72" y="318.08">*</text>
<text x="154.33" y="76.90">*</text>
<text x="491.79" y="296.05">.</text>
<text x="267.08" y="178.53">+</text>
<text x="221.25" y="355.06">+</text>
<text x="338.31" y="132.54">.</text>
<text x="463.68" y="236.70">.</text>
<text x="196.64" y="260.08">.</text>
<text x="302.87" y="285.38">*</text>
<text x="280.27" y="188.06">+</text>
<text x="85.98" y="476.37">*</text>
<text x="465.31" y="259.53">.</text>
<text x="117.73" y="178.18">+</text>
<text x="220.14" y="76.08">+</text>
<text x="300.21" y="91.17">*</text>
<text x="264.63" y="24.00">+</text>
<text x="158.46" y="326.46">.</text>
<text x="94.21" y="115.67">+</text>
<text x="134.57" y="275.38">.</text>
<text x="26.90" y="141.00">+</text>
<text x="128.43" y="43.08">+</text>
<text x="410.12" y="199.22">+</text>
<text x="222.97" y="133.20">+</text>
<text x="357.06" y="355.08">+</text>
<text x="452.89" y="457.85">*</text>
<text x="131.33" y="289.68">+</text>
<text x="196.87" y="183.90">+</text>
<text x="59.82" y="419.19">.</text>
<text x="316.16" y="425.00">+</text>
<text x="350.16" y="176.46">.</text>
<text x="29.44" y="37.25">+</text>
<text x="399.18" y="15.52">.</text>
<text x="0.22" y="260.73">+</text>
<text x="413.60" y="407.00">.</text>
<text x="122.50" y="126.12">+</text>
<text x="302.92" y="174.85">.</text>
<text x="416.91" y="119.23">.</text>
<text x="53.18" y="45.71">+</text>
<text x="450.77" y="88.49">+</text>
<text x="4.38" y="16.77">+</text>
<text x="23.97" y="154.13">+</text>
<text x="490.79" y="259.48">.</text>
<text x="291.17" y="96.47">+</text>
<text x="464.25" y="175.23">*</text>
<text x="494.17" y="492.35">.</text>
<text x="127.86" y="169.86">+</text>
<text x="66.48" y="359.80">.</text>
<text x="18.04" y="153.61">.</text>
<text x="16.22" y="282.59">.</text>
<text x="41.43" y="121.72">+</text>
<text x="288.15" y="490.44">+</text>
<text x="169.46" y="213.20">+</text>
<text x="439.23" y="416.15">.</text>
<text x="280.67" y="67.85">.</text>
<text x="209.06" y="395.29">.</text>
<text x="480.22" y="418.08">.</text>
<text x="76.49" y="472.23">*</text>
<text x="240.12" y="67.40">.</text>
<text x="179.62" y="78.33">+</text>
<text x="261.52" y="200.78">+</text>
<text x="400.51" y="163.26">.</text>
<text x="258.97" y="180.91">+</text>
<text x="419.15" y="492.73">+</text>
<text x="407.18" y="128.64">.</text>
<text x="5.01" y="455.74">*</text>
<text x="91.20" y="451.32">+</text>
<text x="204.13" y="206.28">+</text>
<text x="296.47" y="470.81">.</text>
<text x="447.60" y="427.05">.</text>
<text x="334.43" y="17.44">+</text>
<text x="339.49" y="464.13">.</text>
<text x="388.55" y="391.76">+</text>
<text x="57.39" y="46.21">+</text>
<text x="388.57" y="162.09">+</text>
<text x="478.17" y="268.44">+</text>
<text x="106.93" y="342.97">.</text>
<text x="31.91" y="448.51">*</text>
<text x="147.95" y="473.04">+</text>
<text x="104.30" y="290.22">+</text>
<text x="6.60" y="132.73">.</text>
<text x="234.00" y="331.26">+</text>
<text x="25.93" y="372.59">+</text>
<text x="351.57" y="323.25">+</text>
<text x="33.84" y="26.95">.</text>
<text x="406.56" y="367.15">.</text>
<text x="387.37" y="2.31">.</text>
<text x="134.43" y="83.75">*</text>
<text x="9.82" y="266.31">.</text>
<text x="186.97" y="339.11">+</text>
<text x="429.76" y="203.24">+</text>
<text x="332.55" y="358.77">*</text>
<text x="497.92" y="330.09">+</text>
<text x="58.32" y="387.19">.</text>
<text x="336.49" y="99.92">.</text>
<text x="451.98" y="145.06">+</text>
<text x="66.38" y="263.37">.</text>
<text x="271.46" y="341.22">.</text>
<text x="50.62" y="372.78">*</text>
<text x="97.73" y="257.84">.</text>
<text x="421.46" y="23.49">*</text>
<text x="163.33" y="27.97">+</text>
<text x="343.94" y="57.43">+</text>
<text x="234.40" y="401.15">.</text>
<text x="240.33" y="249.35">+</text>
<text x="372.12" y="52.43">*</text>
<text x="21.66" y="125.17">+</text>
<text x="115.41" y="282.08">+</text>

</svg>