
<svg viewBox="0 0 500 500" xmlns="http://www.w.org/2000/svg" width="100%" height="100%" style="background-color: #0a0a14; font-family: 'Courier New', Courier, monospace;">
    <style>
        text { fill: #aaa; font-size: 10px; text-anchor: middle; dominant-baseline: middle; }
    </style>
    <text x="436.72" y="151.80">+</text>
<text x="453.23" y="270.18">.</text>
<text x="232.03" y="138.05">.</text>
<text x="172.74" y="11.27">*</text>
<text x="321.76" y="237.84">+</text>
<text x="453.96" y="277.56">*</text>
<text x="161.21" y="436.26">.</text>
<text x="98.41" y="34.75">+</text>
<text x="129.26" y="384.39">.</text>
<text x="340.87" y="54.22">.</text>
<text x="253.82" y="472.44">.</text>
<text x="333.54" y="134.56">+</text>
<text x="463.94" y="134.76">.</text>
<text x="366.81" y="330.98">.</text>
<text x="381.58" y="86.11">+</text>
<text x="411.43" y="247.36">.</text>
<text x="263.67" y="295.13">.</text>
<text x="91.68" y="456.49">+</text>
<text x="215.62" y="76.20">.</text>
<text x="131.66" y="225.83">+</text>
<text x="274.18" y="386.81">*</text>
<text x="88.89" y="7.66">*</text>
<text x="422.06" y="289.34">.</text>
<text x="417.72" y="19.44">+</text>
<text x="1.87" y="219.50">+</text>
<text x="196.52" y="293.50">.</text>
<text x="44.93" y="281.94">*</text>
<text x="430.20" y="116.02">*</text>
<text x="137.23" y="155.92">+</text>
<text x="373.38" y="112.50">+</text>
<text x="6.10" y="99.37">.</text>
<text x="447.07" y="297.38">*</text>
<text x="118.58" y="309.74">+</text>
<text x="311.69" y="197.68">+</text>
<text x="398.59" y="486.81">+</text>
<text x="306.08" y="86.84">.</text>
<text x="407.69" y="113.89">*</text>
<text x="479.93" y="69.51">*</text>
<text x="207.57" y="35.41">+</text>
<text x="358.05" y="125.81">.</text>
<text x="464.67" y="346.89">+</text>
<text x="133.83" y="69.97">.</text>
<text x="196.79" y="241.47">+</text>
<text x="154.32" y="43.56">.</text>
<text x="217.95" y="143.35">+</text>
<text x="337.28" y="255.18">+</text>
<text x="83.99" y="358.80">+</text>
<text x="122.51" y="347.20">+</text>
<text x="142.66" y="268.61">+</text>
<text x="331.97" y="51.73">.</text>
<text x="128.25" y="416.02">*</text>
<text x="245.13" y="457.40">*</text>
<text x="72.63" y="74.67">.</text>
<text x="364.34" y="83.97">+</text>
<text x="433.42" y="317.39">+</text>
<text x="351.80" y="259.74">+</text>
<text x="454.00" y="185.08">.</text>
<text x="325.44" y="154.12">+</text>
<text x="199.68" y="481.17">.</text>
<text x="56.96" y="6.84">+</text>
<text x="318.31" y="95.21">.</text>
<text x="101.48" y="79.21">+</text>
<text x="104.25" y="279.99">.</text>
<text x="261.20" y="408.00">+</text>
<text x="73.35" y="224.85">+</text>
<text x="116.39" y="177.45">+</text>
<text x="116.14" y="342.94">+</text>
<text x="409.28" y="71.85">.</text>
<text x="38.44" y="320.42">+</text>
<text x="7.39" y="245.21">*</text>
<text x="275.61" y="424.72">*</text>
<text x="227.10" y="456.76">+</text>
<text x="178.30" y="4.40">+</text>
<text x="400.77" y="131.99">.</text>
<text x="257.30" y="129.28">.</text>
<text x="448.05" y="236.32">.</text>
<text x="310.50" y="248.86">.</text>
<text x="140.16" y="489.13">+</text>
<text x="392.64" y="372.88">*</text>
<text x="3.06" y="309.62">.</text>
<text x="261.23" y="196.25">*</text>
<text x="61.70" y="72.68">+</text>
<text x="193.94" y="416.88">.</text>
<text x="162.53" y="40.52">.</text>
<text x="490.76" y="378.15">+</text>
<text x="86.68" y="8.59">*</text>
<text x="157.81" y="288.36">.</text>
<text x="163.40" y="483.81">+</text>
<text x="355.88" y="207.65">+</text>
<text x="486.38" y="243.32">+</text>
<text x="396.28" y="379.57">.</text>
<text x="342.71" y="455.72">.</text>
<text x="367.30" y="269.30">+</text>
<text x="190.49" y="466.63">+</text>
<text x="142.11" y="314.69">+</text>
<text x="197.69" y="82.89">.</text>
<text x="37.05" y="168.39">.</text>
<text x="141.26" y="85.11">*</text>
<text x="289.11" y="236.01">.</text>
<text x="376.81" y="46.22">*</text>
<text x="107.38" y="148.55">*</text>
<text x="455.73" y="18.83">+</text>
<text x="62.27" y="44.57">+</text>
<text x="372.16" y="102.32">+</text>
<text x="146.86" y="158.47">*</text>
<text x="354.68" y="369.09">.</text>
<text x="84.12" y="309.40">+</text>
<text x="283.03" y="266.58">.</text>
<text x="297.34" y="208.22">+</text>
<text x="220.06" y="330.06">+</text>
<text x="161.48" y="472.08">.</text>
<text x="323.54" y="247.27">.</text>
<text x="137.74" y="275.10">.</text>
<text x="269.36" y="448.06">.</text>
<text x="196.74" y="295.48">+</text>
<text x="344.49" y="21.82">.</text>
<text x="350.53" y="417.31">.</text>
<text x="289.65" y="221.44">.</text>
<text x="41.61" y="198.84">+</text>
<text x="450.71" y="323.82">+</text>
<text x="367.15" y="306.20">+</text>
<text x="163.25" y="259.77">.</text>
<text x="255.29" y="403.89">+</text>
<text x="83.98" y="155.37">.</text>
<text x="397.93" y="497.34">+</text>
<text x="435.15" y="351.63">+</text>
<text x="339.80" y="100.04">.</text>
<text x="307.75" y="441.23">+</text>
<text x="99.42" y="149.78">*</text>
<text x="470.51" y="49.97">*</text>
<text x="227.91" y="359.17">+</text>
<text x="343.55" y="243.99">+</text>
<text x="167.99" y="355.73">.</text>
<text x="335.24" y="165.55">+</text>
<text x="206.71" y="114.22">*</text>
<text x="470.35" y="464.79">*</text>
<text x="456.07" y="137.92">+</text>
<text x="5.03" y="60.08">.</text>
<text x="341.86" y="360.04">.</text>
<text x="159.94" y="480.16">+</text>
<text x="156.87" y="80.23">*</text>
<text x="491.11" y="387.65">+</text>
<text x="13.07" y="150.83">+</text>
<text x="339.01" y="409.42">+</text>
<text x="375.46" y="475.57">.</text>
<text x="305.79" y="145.20">.</text>
<text x="75.89" y="256.15">+</text>
<text x="345.66" y="220.13">.</text>
<text x="154.57" y="193.38">.</text>
<text x="57.70" y="10.10">.</text>
<text x="205.42" y="104.81">+</text>
<text x="474.15" y="266.46">.</text>
<text x="349.72" y="280.69">+</text>
<text x="239.87" y="472.59">*</text>
<text x="418.56" y="348.19">*</text>
<text x="176.37" y="431.60">+</text>
<text x="411.46" y="452.04">.</text>
<text x="249.38" y="56.74">.</text>
<text x="338.62" y="74.14">+</text>
<text x="347.45" y="235.09">.</text>
<text x="97.11" y="139.00">.</text>
<text x="63.97" y="448.61">*</text>
<text x="42.95" y="368.54">+</text>
<text x="146.04" y="448.91">+</text>
<text x="357.32" y="278.11">.</text>
<text x="324.67" y="15.95">.</text>
<text x="226.87" y="351.02">*</text>
<text x="76.22" y="267.74">*</text>
<text x="274.29" y="357.43">*</text>
<text x="477.26" y="443.95">+</text>
<text x="85.98" y="116.09">.</text>
<text x="21.28" y="492.91">+</text>
<text x="285.19" y="78.93">.</text>
<text x="210.73" y="160.96">+</text>
<text x="464.45" y="145.05">*</text>
<text x="16.59" y="43.73">.</text>
<text x="360.85" y="317.71">.</text>
<text x="71.75" y="408.26">+</text>
<text x="447.92" y="263.72">.</text>
<text x="308.41" y="199.23">.</text>
<text x="35.89" y="333.62">.</text>
<text x="439.27" y="209.71">+</text>
<text x="349.16" y="357.14">*</text>
<text x="208.99" y="149.53">.</text>
<text x="321.64" y="231.65">.</text>
<text x="89.85" y="33.74">+</text>
<text x="11.40" y="197.90">.</text>
<text x="80.73" y="499.04">+</text>
<text x="483.39" y="478.54">+</text>
<text x="246.47" y="148.67">.</text>
<text x="419.90" y="177.61">.</text>
<text x="139.77" y="150.76">+</text>
<text x="291.39" y="73.53">.</text>
<text x="468.12" y="441.96">.</text>
<text x="438.35" y="94.75">+</text>
<text x="431.61" y="2.37">+</text>
<text x="361.01" y="227.46">*</text>
<text x="466.84" y="40.57">+</text>
<text x="36.41" y="87.57">+</text>
<text x="427.46" y="195.92">.</text>
<text x="25.96" y="36.36">+</text>
<text x="430.45" y="344.16">.</text>
<text x="79.44" y="481.14">+</text>
<text x="224.33" y="20.06">.</text>
<text x="372.95" y="239.39">*</text>
<text x="490.37" y="313.22">.</text>

</svg>