
<svg viewBox="0 0 500 500" xmlns="http://www.w.org/2000/svg" width="100%" height="100%" style="background-color: #0a0a14; font-family: 'Courier New', Courier, monospace;">
    <style>
        text { fill: #aaa; font-size: 10px; text-anchor: middle; dominant-baseline: middle; }
    </style>
    <text x="231.65" y="346.17">+</text>
<text x="490.07" y="329.46">+</text>
<text x="303.74" y="52.69">.</text>
<text x="446.39" y="116.47">.</text>
<text x="320.77" y="29.38">+</text>
<text x="103.71" y="98.43">+</text>
<text x="388.66" y="314.61">+</text>
<text x="451.36" y="73.13">+</text>
<text x="338.98" y="120.83">.</text>
<text x="373.76" y="245.72">+</text>
<text x="219.75" y="110.40">+</text>
<text x="396.68" y="400.27">+</text>
<text x="2.20" y="401.28">+</text>
<text x="281.66" y="406.97">.</text>
<text x="378.04" y="253.64">+</text>
<text x="96.61" y="337.10">.</text>
<text x="293.15" y="466.81">.</text>
<text x="133.80" y="131.09">+</text>
<text x="59.20" y="28.32">.</text>
<text x="147.08" y="168.93">+</text>
<text x="314.80" y="332.01">+</text>
<text x="247.85" y="374.20">.</text>
<text x="172.12" y="158.19">.</text>
<text x="346.87" y="267.19">+</text>
<text x="94.49" y="223.25">.</text>
<text x="425.37" y="39.03">+</text>
<text x="87.73" y="395.18">+</text>
<text x="416.44" y="339.74">+</text>
<text x="337.57" y="65.66">.</text>
<text x="314.04" y="384.27">+</text>
<text x="442.84" y="340.64">+</text>
<text x="416.52" y="129.81">.</text>
<text x="74.72" y="448.09">+</text>
<text x="414.86" y="238.05">*</text>
<text x="363.12" y="274.46">+</text>
<text x="81.35" y="492.06">+</text>
<text x="412.97" y="438.07">.</text>
<text x="432.91" y="67.50">+</text>
<text x="148.40" y="281.03">.</text>
<text x="3.00" y="318.34">.</text>
<text x="466.06" y="167.24">+</text>
<text x="481.08" y="288.19">+</text>
<text x="343.80" y="269.91">*</text>
<text x="477.96" y="399.67">.</text>
<text x="298.80" y="288.94">.</text>
<text x="215.08" y="270.55">.</text>
<text x="38.99" y="50.87">+</text>
<text x="124.17" y="376.00">+</text>
<text x="195.95" y="244.86">.</text>
<text x="122.91" y="399.00">+</text>
<text x="128.96" y="451.67">.</text>
<text x="12.09" y="153.26">+</text>
<text x="429.26" y="334.27">+</text>
<text x="51.29" y="153.60">+</text>
<text x="106.05" y="135.46">+</text>
<text x="249.65" y="198.04">.</text>
<text x="461.71" y="203.88">.</text>
<text x="482.03" y="431.45">.</text>
<text x="171.53" y="248.77">.</text>
<text x="207.05" y="297.12">+</text>
<text x="266.27" y="69.45">*</text>
<text x="490.83" y="73.71">+</text>
<text x="323.46" y="328.91">+</text>
<text x="233.57" y="284.49">+</text>
<text x="103.03" y="337.80">+</text>
<text x="76.14" y="136.49">+</text>
<text x="336.68" y="359.43">*</text>
<text x="82.40" y="154.42">.</text>
<text x="467.00" y="254.40">.</text>
<text x="10.77" y="229.06">.</text>
<text x="87.14" y="355.36">*</text>
<text x="155.98" y="465.82">+</text>
<text x="274.55" y="389.02">.</text>
<text x="34.13" y="264.26">+</text>
<text x="303.81" y="487.03">+</text>
<text x="223.09" y="341.66">+</text>
<text x="439.02" y="69.57">+</text>
<text x="186.98" y="119.94">+</text>
<text x="324.60" y="24.24">+</text>
<text x="15.65" y="139.61">+</text>
<text x="66.40" y="250.81">+</text>
<text x="381.53" y="36.10">*</text>
<text x="336.34" y="462.94">+</text>
<text x="46.91" y="421.78">+</text>
<text x="375.99" y="489.09">.</text>
<text x="73.13" y="485.19">+</text>
<text x="335.07" y="415.79">.</text>
<text x="177.28" y="396.17">+</text>
<text x="429.06" y="433.92">+</text>
<text x="496.64" y="310.75">.</text>
<text x="72.29" y="172.88">+</text>
<text x="257.71" y="54.55">+</text>
<text x="248.96" y="72.34">+</text>
<text x="325.04" y="12.39">*</text>
<text x="153.97" y="60.44">.</text>
<text x="310.75" y="143.04">+</text>
<text x="277.26" y="118.10">.</text>
<text x="121.87" y="392.21">*</text>
<text x="269.53" y="390.68">*</text>
<text x="51.36" y="376.03">.</text>
<text x="453.03" y="481.65">+</text>
<text x="128.04" y="127.17">.</text>
<text x="384.08" y="340.16">+</text>
<text x="415.86" y="385.08">*</text>
<text x="398.57" y="369.13">.</text>
<text x="323.89" y="399.10">.</text>
<text x="7.70" y="131.98">.</text>
<text x="258.45" y="176.90">.</text>
<text x="486.49" y="371.72">.</text>
<text x="153.70" y="323.10">.</text>
<text x="288.48" y="174.34">.</text>
<text x="52.71" y="313.93">*</text>
<text x="236.24" y="145.01">+</text>
<text x="190.03" y="369.01">*</text>
<text x="355.18" y="488.29">+</text>
<text x="471.67" y="464.14">.</text>
<text x="430.73" y="154.55">*</text>
<text x="232.10" y="68.21">*</text>
<text x="345.51" y="440.63">+</text>
<text x="41.64" y="267.41">*</text>
<text x="128.68" y="251.93">.</text>
<text x="348.38" y="37.84">+</text>
<text x="0.86" y="462.06">.</text>
<text x="26.56" y="25.15">+</text>
<text x="336.68" y="298.27">+</text>
<text x="377.11" y="269.99">.</text>
<text x="7.42" y="430.55">+</text>
<text x="65.09" y="75.66">.</text>
<text x="487.19" y="449.42">*</text>
<text x="370.01" y="95.89">+</text>
<text x="380.24" y="123.02">+</text>
<text x="305.67" y="39.29">.</text>
<text x="442.50" y="351.48">.</text>
<text x="299.44" y="340.24">.</text>
<text x="109.58" y="480.32">+</text>
<text x="49.72" y="141.56">*</text>
<text x="440.02" y="243.05">.</text>
<text x="21.70" y="196.43">+</text>
<text x="415.71" y="477.68">.</text>
<text x="125.33" y="241.72">+</text>
<text x="482.47" y="100.17">.</text>
<text x="452.50" y="372.27">*</text>
<text x="299.75" y="149.19">+</text>
<text x="461.91" y="290.83">.</text>
<text x="445.28" y="113.17">+</text>
<text x="82.87" y="357.28">.</text>
<text x="407.15" y="34.14">.</text>
<text x="6.25" y="97.86">.</text>
<text x="468.10" y="267.80">+</text>
<text x="477.83" y="1.63">+</text>
<text x="396.97" y="380.72">.</text>
<text x="11.98" y="460.86">+</text>
<text x="340.84" y="176.78">.</text>
<text x="7.53" y="54.99">.</text>
<text x="349.04" y="431.07">.</text>
<text x="229.01" y="393.77">.</text>
<text x="391.34" y="211.33">+</text>
<text x="6.70" y="134.93">*</text>
<text x="48.39" y="215.48">.</text>
<text x="57.96" y="213.24">+</text>
<text x="169.94" y="492.37">+</text>
<text x="315.51" y="419.68">.</text>
<text x="18.20" y="168.10">+</text>
<text x="425.70" y="475.79">+</text>
<text x="315.05" y="107.31">*</text>
<text x="121.74" y="439.22">+</text>
<text x="253.08" y="42.29">+</text>
<text x="262.43" y="102.02">+</text>
<text x="132.70" y="204.54">+</text>
<text x="177.60" y="128.51">+</text>
<text x="313.85" y="34.35">.</text>
<text x="6.40" y="246.52">+</text>
<text x="72.46" y="203.44">.</text>
<text x="93.11" y="341.27">*</text>
<text x="311.97" y="454.68">+</text>
<text x="169.17" y="277.39">*</text>
<text x="248.91" y="498.89">.</text>
<text x="227.08" y="109.93">*</text>
<text x="437.68" y="317.31">+</text>
<text x="190.71" y="158.32">+</text>
<text x="297.52" y="10.78">+</text>
<text x="45.24" y="182.67">+</text>
<text x="284.09" y="323.27">+</text>
<text x="141.72" y="350.06">+</text>
<text x="371.74" y="182.59">+</text>
<text x="222.68" y="398.13">*</text>
<text x="335.87" y="377.60">+</text>
<text x="163.71" y="38.37">+</text>
<text x="10.40" y="121.74">+</text>
<text x="412.38" y="254.01">*</text>
<text x="469.75" y="54.02">+</text>
<text x="318.93" y="103.46">.</text>
<text x="273.11" y="430.67">*</text>
<text x="134.67" y="359.64">*</text>
<text x="275.31" y="210.89">+</text>
<text x="144.16" y="394.66">.</text>
<text x="421.72" y="128.49">+</text>
<text x="209.67" y="447.54">*</text>
<text x="75.35" y="79.86">.</text>
<text x="461.26" y="250.74">.</text>
<text x="91.79" y="366.60">.</text>
<text x="201.58" y="54.50">.</text>
<text x="492.47" y="98.87">+</text>
<text x="142.53" y="380.47">.</text>
<text x="40.64" y="269.62">+</text>
<text x="290.42" y="70.19">.</text>
<text x="458.78" y="297.27">.</text>
<text x="98.32" y="47.83">.</text>
<text x="486.92" y="364.53">.</text>
<text x="81.80" y="145.93">+</text>
<text x="23.90" y="220.49">.</text>
<text x="237.24" y="147.44">+</text>
<text x="128.91" y="175.66">.</text>
<text x="185.43" y="433.63">.</text>
<text x="472.59" y="436.12">+</text>
<text x="153.41" y="114.18">+</text>
<text x="432.49" y="334.15">+</text>
<text x="283.88" y="61.97">.</text>
<text x="100.19" y="253.13">+</text>
<text x="370.60" y="165.01">+</text>
<text x="253.70" y="61.25">+</text>
<text x="103.46" y="290.69">.</text>
<text x="227.29" y="77.55">+</text>
<text x="36.23" y="106.75">+</text>
<text x="112.68" y="262.75">+</text>
<text x="151.24" y="486.72">.</text>
<text x="184.75" y="446.07">+</text>
<text x="256.24" y="142.48">.</text>
<text x="71.63" y="177.03">+</text>

</svg>