
<svg viewBox="0 0 500 500" xmlns="http://www.w.org/2000/svg" width="100%" height="100%" style="background-color: #0a0a14; font-family: 'Courier New', Courier, monospace;">
    <style>
        text { fill: #aaa; font-size: 10px; text-anchor: middle; dominant-baseline: middle; }
    </style>
    <text x="175.09" y="297.11">.</text>
<text x="344.39" y="25.02">+</text>
<text x="208.21" y="48.71">*</text>
<text x="134.75" y="430.20">.</text>
<text x="414.22" y="446.09">+</text>
<text x="17.18" y="34.55">+</text>
<text x="189.55" y="495.74">+</text>
<text x="288.39" y="27.86">+</text>
<text x="452.92" y="0.33">.</text>
<text x="168.29" y="286.73">+</text>
<text x="417.76" y="443.06">+</text>
<text x="241.46" y="49.64">*</text>
<text x="395.44" y="150.04">+</text>
<text x="273.01" y="204.45">+</text>
<text x="474.19" y="405.85">*</text>
<text x="62.62" y="240.41">+</text>
<text x="84.89" y="262.77">.</text>
<text x="271.62" y="355.32">.</text>
<text x="356.68" y="425.79">+</text>
<text x="66.48" y="362.23">.</text>
<text x="334.64" y="78.46">*</text>
<text x="468.55" y="224.66">+</text>
<text x="24.28" y="271.81">+</text>
<text x="113.52" y="463.64">+</text>
<text x="397.63" y="338.53">+</text>
<text x="4.99" y="255.24">.</text>
<text x="218.65" y="423.37">+</text>
<text x="231.23" y="464.75">+</text>
<text x="23.50" y="40.77">+</text>
<text x="50.14" y="373.71">*</text>
<text x="184.38" y="214.82">.</text>
<text x="376.91" y="439.64">.</text>
<text x="407.76" y="323.32">+</text>
<text x="462.33" y="232.50">*</text>
<text x="57.28" y="395.20">+</text>
<text x="402.99" y="479.92">+</text>
<text x="20.00" y="266.06">.</text>
<text x="489.23" y="31.73">.</text>
<text x="328.60" y="91.17">+</text>
<text x="110.32" y="375.53">+</text>
<text x="115.25" y="324.08">.</text>
<text x="406.84" y="299.47">.</text>
<text x="413.21" y="119.88">+</text>
<text x="334.45" y="344.28">.</text>
<text x="192.64" y="442.20">*</text>
<text x="429.43" y="429.72">.</text>
<text x="56.57" y="65.84">*</text>
<text x="388.42" y="446.90">.</text>
<text x="101.48" y="457.38">+</text>
<text x="45.89" y="272.25">*</text>
<text x="16.17" y="274.40">*</text>
<text x="4.65" y="336.37">*</text>
<text x="468.20" y="395.89">.</text>
<text x="366.96" y="296.92">+</text>
<text x="158.00" y="431.75">+</text>
<text x="395.46" y="427.79">.</text>
<text x="420.05" y="319.83">+</text>
<text x="285.75" y="165.79">.</text>
<text x="378.25" y="378.71">+</text>
<text x="18.22" y="5.57">+</text>
<text x="339.30" y="257.89">*</text>
<text x="373.95" y="473.89">.</text>
<text x="271.69" y="354.57">*</text>
<text x="247.10" y="176.36">+</text>
<text x="103.91" y="165.38">.</text>
<text x="80.52" y="167.76">.</text>
<text x="152.04" y="263.83">*</text>
<text x="22.14" y="80.56">.</text>
<text x="385.71" y="213.10">.</text>
<text x="395.30" y="323.12">*</text>
<text x="205.56" y="368.96">.</text>
<text x="29.57" y="496.79">*</text>
<text x="285.85" y="307.37">+</text>
<text x="464.43" y="125.88">+</text>
<text x="60.75" y="297.51">+</text>
<text x="497.27" y="433.95">+</text>
<text x="211.03" y="35.58">+</text>
<text x="368.48" y="64.47">.</text>
<text x="79.60" y="179.38">+</text>
<text x="295.97" y="423.89">+</text>
<text x="330.72" y="337.28">.</text>
<text x="248.71" y="93.43">.</text>
<text x="98.03" y="74.81">.</text>
<text x="156.66" y="219.55">*</text>
<text x="324.82" y="408.90">.</text>
<text x="469.12" y="111.48">.</text>
<text x="5.14" y="97.39">*</text>
<text x="170.60" y="98.13">.</text>
<text x="16.79" y="308.44">+</text>
<text x="244.66" y="343.21">.</text>
<text x="179.18" y="461.60">.</text>
<text x="193.08" y="71.32">.</text>
<text x="361.21" y="123.86">+</text>
<text x="403.17" y="236.08">*</text>
<text x="434.97" y="204.92">+</text>
<text x="157.80" y="492.39">.</text>
<text x="35.43" y="95.68">.</text>
<text x="465.34" y="98.70">+</text>
<text x="205.57" y="72.57">*</text>
<text x="488.02" y="135.58">+</text>
<text x="238.14" y="9.10">.</text>
<text x="112.70" y="481.06">.</text>
<text x="29.66" y="267.93">+</text>
<text x="83.84" y="336.94">+</text>
<text x="172.48" y="252.29">+</text>
<text x="320.93" y="373.71">.</text>
<text x="394.68" y="79.98">.</text>
<text x="396.50" y="349.63">+</text>
<text x="116.54" y="239.05">+</text>
<text x="190.79" y="284.04">+</text>
<text x="382.10" y="197.28">.</text>
<text x="267.78" y="389.43">.</text>
<text x="228.89" y="252.99">+</text>
<text x="217.36" y="92.91">+</text>
<text x="249.60" y="119.36">+</text>
<text x="23.46" y="76.24">.</text>
<text x="297.97" y="256.43">+</text>
<text x="252.83" y="355.29">.</text>
<text x="89.57" y="158.98">+</text>
<text x="118.50" y="420.42">*</text>
<text x="476.10" y="404.19">+</text>
<text x="240.45" y="384.48">*</text>
<text x="156.35" y="346.33">.</text>
<text x="68.05" y="443.25">.</text>
<text x="212.49" y="33.94">+</text>
<text x="330.81" y="45.88">*</text>
<text x="492.40" y="379.15">+</text>
<text x="379.23" y="197.22">*</text>
<text x="263.83" y="153.62">.</text>
<text x="95.52" y="182.61">*</text>
<text x="250.10" y="469.13">.</text>
<text x="154.08" y="446.07">+</text>
<text x="333.73" y="116.52">+</text>
<text x="132.08" y="472.42">*</text>
<text x="257.57" y="488.95">*</text>
<text x="259.73" y="162.34">.</text>
<text x="312.90" y="453.38">.</text>
<text x="305.40" y="436.04">+</text>
<text x="296.84" y="21.90">*</text>
<text x="326.13" y="476.90">+</text>
<text x="372.09" y="59.99">+</text>
<text x="240.18" y="459.56">.</text>
<text x="178.59" y="180.90">*</text>
<text x="487.64" y="447.21">+</text>
<text x="165.72" y="385.95">*</text>
<text x="280.29" y="357.24">+</text>
<text x="455.93" y="447.85">.</text>
<text x="65.79" y="128.28">+</text>
<text x="352.59" y="293.19">+</text>
<text x="313.01" y="402.92">*</text>
<text x="104.12" y="313.43">+</text>
<text x="29.23" y="242.13">+</text>
<text x="343.40" y="279.85">.</text>
<text x="329.48" y="124.00">+</text>
<text x="353.74" y="465.36">*</text>
<text x="90.52" y="297.74">.</text>
<text x="332.87" y="135.53">+</text>
<text x="365.68" y="365.14">*</text>
<text x="441.89" y="379.21">+</text>
<text x="495.83" y="306.68">.</text>
<text x="410.71" y="412.73">.</text>
<text x="178.55" y="295.62">+</text>
<text x="3.78" y="363.86">.</text>
<text x="189.80" y="466.97">.</text>
<text x="314.01" y="308.24">*</text>
<text x="158.60" y="488.04">.</text>
<text x="279.26" y="282.88">.</text>
<text x="73.34" y="71.25">.</text>
<text x="49.48" y="466.21">.</text>
<text x="421.43" y="292.09">*</text>
<text x="379.28" y="402.03">+</text>
<text x="254.67" y="225.62">+</text>
<text x="178.95" y="485.98">*</text>
<text x="174.47" y="89.35">.</text>
<text x="236.36" y="143.82">+</text>
<text x="492.32" y="430.76">.</text>
<text x="92.68" y="384.53">*</text>
<text x="71.19" y="92.62">+</text>
<text x="385.92" y="464.18">.</text>
<text x="231.71" y="341.02">+</text>
<text x="459.71" y="422.97">+</text>
<text x="92.18" y="499.96">+</text>
<text x="49.88" y="278.57">+</text>
<text x="92.23" y="59.76">.</text>
<text x="186.10" y="407.30">+</text>
<text x="192.28" y="49.14">.</text>
<text x="446.02" y="37.95">.</text>
<text x="457.88" y="34.53">.</text>
<text x="375.23" y="185.58">.</text>
<text x="361.45" y="46.26">.</text>
<text x="412.31" y="73.97">.</text>
<text x="260.07" y="91.51">+</text>
<text x="283.57" y="499.10">+</text>
<text x="136.33" y="398.59">.</text>
<text x="86.04" y="213.02">*</text>
<text x="121.08" y="406.26">*</text>
<text x="311.19" y="480.94">+</text>
<text x="0.76" y="81.22">.</text>
<text x="429.15" y="33.02">+</text>
<text x="318.57" y="66.27">*</text>
<text x="452.87" y="7.97">+</text>
<text x="175.89" y="265.75">+</text>
<text x="53.49" y="61.03">.</text>
<text x="418.15" y="390.97">.</text>
<text x="35.68" y="42.96">+</text>
<text x="3.17" y="455.71">.</text>
<text x="364.26" y="206.39">.</text>
<text x="178.52" y="441.74">.</text>
<text x="118.02" y="459.76">.</text>
<text x="451.27" y="30.84">+</text>
<text x="260.07" y="186.01">.</text>

</svg>