
<svg viewBox="0 0 500 500" xmlns="http://www.w.org/2000/svg" width="100%" height="100%" style="background-color: #0a0a14; font-family: 'Courier New', Courier, monospace;">
    <style>
        text { fill: #aaa; font-size: 10px; text-anchor: middle; dominant-baseline: middle; }
    </style>
    <text x="473.92" y="6.29">*</text>
<text x="15.63" y="149.25">.</text>
<text x="301.06" y="274.93">+</text>
<text x="286.60" y="301.09">*</text>
<text x="432.95" y="217.38">+</text>
<text x="179.53" y="58.68">+</text>
<text x="119.95" y="328.26">.</text>
<text x="341.99" y="394.27">.</text>
<text x="73.02" y="161.95">+</text>
<text x="204.03" y="334.70">.</text>
<text x="484.23" y="40.38">*</text>
<text x="442.34" y="107.05">+</text>
<text x="362.46" y="202.73">.</text>
<text x="478.28" y="17.34">.</text>
<text x="365.70" y="182.76">+</text>
<text x="251.91" y="334.31">.</text>
<text x="195.20" y="346.53">.</text>
<text x="389.52" y="101.56">+</text>
<text x="59.28" y="7.19">+</text>
<text x="51.00" y="38.25">*</text>
<text x="114.88" y="121.40">+</text>
<text x="196.79" y="27.89">.</text>
<text x="104.83" y="406.85">+</text>
<text x="13.60" y="216.89">.</text>
<text x="2.68" y="207.27">.</text>
<text x="317.95" y="291.06">.</text>
<text x="412.24" y="100.40">*</text>
<text x="212.98" y="162.92">+</text>
<text x="494.25" y="488.26">.</text>
<text x="311.74" y="71.21">.</text>
<text x="256.63" y="290.74">+</text>
<text x="388.37" y="399.82">+</text>
<text x="497.85" y="95.32">.</text>
<text x="247.61" y="119.13">*</text>
<text x="395.02" y="243.72">+</text>
<text x="168.41" y="73.21">+</text>
<text x="103.62" y="415.00">+</text>
<text x="55.55" y="332.64">.</text>
<text x="378.04" y="286.21">.</text>
<text x="318.11" y="367.73">+</text>
<text x="268.45" y="170.05">.</text>
<text x="6.06" y="72.19">.</text>
<text x="155.57" y="412.81">+</text>
<text x="455.44" y="388.51">+</text>
<text x="172.55" y="71.50">.</text>
<text x="68.42" y="435.21">+</text>
<text x="219.65" y="16.83">+</text>
<text x="130.40" y="201.59">.</text>
<text x="308.87" y="144.06">.</text>
<text x="445.11" y="219.85">.</text>
<text x="174.26" y="179.99">*</text>
<text x="300.36" y="154.37">*</text>
<text x="98.89" y="260.34">.</text>
<text x="38.96" y="267.71">.</text>
<text x="398.88" y="15.74">.</text>
<text x="198.13" y="79.99">.</text>
<text x="288.25" y="184.59">.</text>
<text x="432.04" y="1.82">.</text>
<text x="488.53" y="382.11">.</text>
<text x="127.30" y="112.01">.</text>
<text x="222.47" y="97.76">+</text>
<text x="454.19" y="6.29">+</text>
<text x="385.46" y="25.58">+</text>
<text x="332.22" y="356.78">+</text>
<text x="256.58" y="387.78">+</text>
<text x="154.45" y="126.31">.</text>
<text x="146.58" y="481.93">+</text>
<text x="328.21" y="44.11">+</text>
<text x="40.14" y="497.50">+</text>
<text x="6.02" y="298.33">+</text>
<text x="444.29" y="115.01">.</text>
<text x="470.56" y="471.98">.</text>
<text x="11.69" y="417.11">+</text>
<text x="341.97" y="346.02">.</text>
<text x="482.99" y="438.25">.</text>
<text x="468.03" y="197.37">+</text>
<text x="60.42" y="111.58">+</text>
<text x="115.72" y="381.32">+</text>
<text x="11.67" y="446.88">*</text>
<text x="41.11" y="479.66">+</text>
<text x="196.25" y="403.93">.</text>
<text x="379.00" y="359.22">+</text>
<text x="57.24" y="378.43">+</text>
<text x="62.68" y="180.96">+</text>
<text x="353.68" y="482.05">+</text>
<text x="268.61" y="318.51">+</text>
<text x="333.82" y="446.36">.</text>
<text x="187.10" y="390.49">+</text>
<text x="327.08" y="387.22">.</text>
<text x="407.15" y="476.82">+</text>
<text x="414.95" y="312.32">+</text>
<text x="369.77" y="142.15">.</text>
<text x="484.40" y="365.77">*</text>
<text x="221.04" y="208.77">.</text>
<text x="97.69" y="401.65">+</text>
<text x="254.50" y="263.92">.</text>
<text x="287.11" y="308.46">.</text>
<text x="266.42" y="390.31">+</text>
<text x="367.18" y="425.56">+</text>
<text x="459.86" y="468.46">*</text>
<text x="331.98" y="241.83">+</text>
<text x="172.19" y="107.57">*</text>
<text x="432.94" y="181.27">.</text>
<text x="393.64" y="125.74">+</text>
<text x="63.14" y="171.88">*</text>
<text x="487.73" y="385.33">*</text>
<text x="448.03" y="94.79">.</text>
<text x="166.71" y="199.67">.</text>
<text x="272.05" y="196.62">.</text>
<text x="406.51" y="352.95">.</text>
<text x="408.16" y="358.18">+</text>
<text x="309.81" y="416.43">.</text>
<text x="470.51" y="458.72">+</text>
<text x="159.76" y="443.71">.</text>
<text x="289.26" y="165.03">+</text>
<text x="487.08" y="319.03">.</text>
<text x="254.77" y="272.23">+</text>
<text x="9.52" y="56.43">+</text>
<text x="398.65" y="347.13">+</text>
<text x="327.73" y="312.45">.</text>
<text x="345.19" y="437.88">.</text>
<text x="344.37" y="230.92">.</text>
<text x="342.96" y="223.12">.</text>
<text x="117.54" y="392.41">.</text>
<text x="91.43" y="28.48">.</text>
<text x="194.55" y="314.27">.</text>
<text x="316.72" y="368.61">+</text>
<text x="473.17" y="214.20">.</text>
<text x="370.78" y="113.01">.</text>
<text x="290.41" y="231.95">+</text>
<text x="104.27" y="161.56">.</text>
<text x="415.58" y="80.21">.</text>
<text x="288.12" y="165.64">+</text>
<text x="370.98" y="359.55">*</text>
<text x="453.47" y="175.19">.</text>
<text x="357.87" y="463.58">.</text>
<text x="379.05" y="375.11">+</text>
<text x="124.80" y="263.29">.</text>
<text x="351.47" y="329.95">+</text>
<text x="463.29" y="251.57">.</text>
<text x="82.23" y="128.72">*</text>
<text x="202.27" y="42.98">+</text>
<text x="256.11" y="201.61">.</text>
<text x="52.23" y="154.96">.</text>
<text x="448.39" y="47.16">.</text>
<text x="278.41" y="114.32">.</text>
<text x="154.71" y="31.47">.</text>
<text x="296.36" y="366.32">+</text>
<text x="74.67" y="447.98">*</text>
<text x="134.54" y="99.95">.</text>
<text x="482.62" y="436.60">.</text>
<text x="335.85" y="308.94">.</text>
<text x="429.15" y="442.28">.</text>
<text x="61.77" y="47.86">+</text>
<text x="50.10" y="44.81">.</text>
<text x="132.04" y="434.70">.</text>
<text x="230.62" y="218.82">.</text>
<text x="438.14" y="152.13">.</text>
<text x="290.39" y="349.44">+</text>
<text x="155.35" y="469.96">+</text>
<text x="110.33" y="454.04">+</text>
<text x="58.27" y="145.07">+</text>
<text x="496.53" y="293.53">.</text>
<text x="190.84" y="342.35">+</text>
<text x="316.62" y="171.25">+</text>
<text x="474.94" y="51.62">.</text>
<text x="257.06" y="360.12">*</text>
<text x="73.99" y="389.54">.</text>
<text x="454.10" y="333.09">*</text>
<text x="358.65" y="446.11">+</text>
<text x="50.20" y="281.86">*</text>
<text x="484.34" y="196.38">*</text>
<text x="149.25" y="266.87">*</text>
<text x="352.78" y="20.26">.</text>
<text x="101.79" y="200.09">.</text>
<text x="44.88" y="412.54">.</text>
<text x="9.26" y="445.98">.</text>
<text x="7.60" y="211.82">+</text>
<text x="159.33" y="397.72">.</text>
<text x="295.30" y="215.71">.</text>
<text x="358.46" y="224.05">.</text>
<text x="76.78" y="309.73">.</text>
<text x="409.11" y="59.58">.</text>
<text x="426.60" y="54.97">*</text>
<text x="30.79" y="384.50">+</text>
<text x="21.86" y="296.60">*</text>
<text x="496.82" y="10.39">+</text>
<text x="447.56" y="24.65">+</text>
<text x="440.14" y="497.02">.</text>
<text x="72.06" y="35.95">.</text>
<text x="100.35" y="342.32">*</text>
<text x="227.57" y="355.51">.</text>
<text x="171.81" y="226.61">.</text>
<text x="257.75" y="284.86">*</text>
<text x="19.68" y="65.95">+</text>
<text x="421.99" y="281.99">.</text>
<text x="95.78" y="212.75">*</text>
<text x="303.19" y="455.09">+</text>
<text x="484.48" y="499.93">+</text>
<text x="108.60" y="39.99">.</text>
<text x="109.96" y="144.63">+</text>
<text x="381.01" y="264.29">.</text>
<text x="357.30" y="201.05">*</text>
<text x="97.75" y="201.43">.</text>
<text x="405.83" y="103.12">+</text>
<text x="456.70" y="80.18">*</text>
<text x="446.05" y="126.92">+</text>
<text x="319.26" y="492.73">*</text>
<text x="259.51" y="414.73">*</text>
<text x="380.93" y="401.81">.</text>
<text x="59.20" y="305.12">+</text>
<text x="263.15" y="71.73">*</text>
<text x="374.55" y="438.59">+</text>
<text x="485.48" y="128.17">*</text>

</svg>