
<svg viewBox="0 0 500 500" xmlns="http://www.w.org/2000/svg" width="100%" height="100%" style="background-color: #0a0a14; font-family: 'Courier New', Courier, monospace;">
    <style>
        text { fill: #aaa; font-size: 10px; text-anchor: middle; dominant-baseline: middle; }
    </style>
    <text x="129.98" y="186.14">+</text>
<text x="232.24" y="50.94">+</text>
<text x="91.50" y="251.81">.</text>
<text x="114.46" y="4.77">*</text>
<text x="249.04" y="429.30">.</text>
<text x="77.26" y="85.40">+</text>
<text x="190.99" y="342.75">+</text>
<text x="345.71" y="113.41">*</text>
<text x="175.57" y="434.24">.</text>
<text x="315.45" y="248.53">*</text>
<text x="168.24" y="243.73">*</text>
<text x="387.94" y="426.96">+</text>
<text x="245.50" y="470.19">.</text>
<text x="225.75" y="227.99">.</text>
<text x="204.65" y="249.34">.</text>
<text x="118.35" y="15.57">.</text>
<text x="231.38" y="295.99">.</text>
<text x="450.39" y="90.75">*</text>
<text x="90.74" y="396.05">.</text>
<text x="71.02" y="233.10">.</text>
<text x="155.99" y="304.72">+</text>
<text x="385.77" y="68.01">+</text>
<text x="138.73" y="281.51">+</text>
<text x="355.31" y="418.25">.</text>
<text x="454.09" y="465.82">.</text>
<text x="143.75" y="361.90">*</text>
<text x="87.76" y="127.00">+</text>
<text x="10.83" y="58.82">+</text>
<text x="71.09" y="443.36">.</text>
<text x="87.06" y="68.18">.</text>
<text x="41.81" y="300.41">+</text>
<text x="243.13" y="260.91">+</text>
<text x="242.81" y="123.87">+</text>
<text x="118.88" y="423.48">*</text>
<text x="269.10" y="141.57">+</text>
<text x="200.25" y="105.43">.</text>
<text x="79.25" y="9.75">.</text>
<text x="160.55" y="144.99">+</text>
<text x="348.53" y="11.59">.</text>
<text x="39.40" y="130.21">.</text>
<text x="205.22" y="461.07">*</text>
<text x="197.64" y="477.86">+</text>
<text x="367.80" y="5.75">+</text>
<text x="101.25" y="105.34">.</text>
<text x="80.86" y="464.69">*</text>
<text x="305.81" y="23.42">.</text>
<text x="322.63" y="222.10">.</text>
<text x="443.93" y="39.27">.</text>
<text x="473.25" y="379.85">+</text>
<text x="275.29" y="140.08">+</text>
<text x="108.61" y="249.06">+</text>
<text x="277.94" y="138.95">+</text>
<text x="269.10" y="161.68">+</text>
<text x="265.16" y="361.08">+</text>
<text x="111.78" y="185.50">+</text>
<text x="92.26" y="270.49">.</text>
<text x="438.28" y="478.75">+</text>
<text x="44.42" y="25.65">+</text>
<text x="399.14" y="225.76">+</text>
<text x="443.38" y="18.91">+</text>
<text x="392.49" y="339.42">.</text>
<text x="213.60" y="316.61">.</text>
<text x="295.72" y="99.67">+</text>
<text x="257.48" y="11.41">+</text>
<text x="134.40" y="373.20">.</text>
<text x="379.60" y="418.43">*</text>
<text x="339.91" y="106.37">.</text>
<text x="430.11" y="257.48">.</text>
<text x="14.69" y="292.85">.</text>
<text x="400.83" y="430.28">.</text>
<text x="485.55" y="288.21">.</text>
<text x="440.92" y="10.77">.</text>
<text x="454.83" y="235.47">*</text>
<text x="131.17" y="193.18">+</text>
<text x="149.10" y="202.11">+</text>
<text x="455.42" y="375.07">.</text>
<text x="81.11" y="382.66">.</text>
<text x="436.75" y="399.24">.</text>
<text x="93.79" y="110.38">.</text>
<text x="441.79" y="323.56">+</text>
<text x="449.81" y="379.32">.</text>
<text x="91.11" y="293.65">+</text>
<text x="145.54" y="194.82">+</text>
<text x="313.10" y="290.04">.</text>
<text x="480.73" y="188.81">.</text>
<text x="167.87" y="394.76">.</text>
<text x="228.45" y="409.99">.</text>
<text x="27.71" y="485.08">.</text>
<text x="178.40" y="332.75">+</text>
<text x="225.45" y="427.11">.</text>
<text x="4.40" y="283.69">.</text>
<text x="423.98" y="7.94">*</text>
<text x="456.92" y="62.94">+</text>
<text x="40.72" y="373.51">+</text>
<text x="197.99" y="31.05">+</text>
<text x="134.27" y="181.25">+</text>
<text x="93.43" y="452.62">*</text>
<text x="243.28" y="85.49">+</text>
<text x="74.20" y="302.88">+</text>
<text x="449.20" y="287.01">*</text>
<text x="346.56" y="362.69">+</text>
<text x="347.19" y="235.83">*</text>
<text x="202.71" y="99.54">.</text>
<text x="1.60" y="292.28">*</text>
<text x="349.51" y="48.96">*</text>
<text x="452.48" y="175.16">*</text>
<text x="430.69" y="423.66">+</text>
<text x="60.96" y="75.68">+</text>
<text x="152.91" y="181.63">*</text>
<text x="1.29" y="26.44">+</text>
<text x="336.44" y="96.33">.</text>
<text x="242.54" y="498.44">+</text>
<text x="242.19" y="140.09">+</text>
<text x="62.79" y="455.31">+</text>
<text x="495.59" y="226.07">.</text>
<text x="140.50" y="22.67">.</text>
<text x="386.71" y="93.48">.</text>
<text x="327.67" y="97.32">.</text>
<text x="132.13" y="353.50">+</text>
<text x="465.87" y="267.33">.</text>
<text x="181.07" y="414.62">*</text>
<text x="439.04" y="334.72">*</text>
<text x="133.36" y="405.70">+</text>
<text x="278.87" y="494.38">*</text>
<text x="237.61" y="346.80">+</text>
<text x="482.26" y="284.40">*</text>
<text x="164.41" y="360.60">*</text>
<text x="228.67" y="393.15">*</text>
<text x="429.39" y="275.53">+</text>
<text x="374.17" y="481.85">.</text>
<text x="447.19" y="379.32">.</text>
<text x="489.48" y="448.47">*</text>
<text x="493.49" y="378.03">.</text>
<text x="56.26" y="358.89">+</text>
<text x="268.21" y="200.39">+</text>
<text x="468.27" y="97.75">.</text>
<text x="415.43" y="412.97">.</text>
<text x="142.69" y="52.45">+</text>
<text x="354.49" y="420.34">.</text>
<text x="389.03" y="395.92">.</text>
<text x="196.44" y="154.13">.</text>
<text x="412.22" y="115.56">+</text>
<text x="386.66" y="224.16">+</text>
<text x="139.75" y="476.63">+</text>
<text x="474.93" y="360.24">+</text>
<text x="230.19" y="334.08">+</text>
<text x="409.82" y="402.73">.</text>
<text x="415.52" y="288.73">+</text>
<text x="21.09" y="219.91">.</text>
<text x="58.81" y="100.35">.</text>
<text x="179.88" y="92.43">.</text>
<text x="491.95" y="194.95">+</text>
<text x="181.36" y="259.35">.</text>
<text x="194.42" y="242.66">.</text>
<text x="138.55" y="231.26">.</text>
<text x="445.98" y="324.41">*</text>
<text x="56.02" y="481.72">+</text>
<text x="293.92" y="498.04">+</text>
<text x="266.49" y="127.50">*</text>
<text x="362.50" y="463.43">.</text>
<text x="246.22" y="423.13">+</text>
<text x="93.17" y="449.47">.</text>
<text x="75.65" y="490.86">+</text>
<text x="21.73" y="328.56">+</text>
<text x="306.69" y="190.14">.</text>
<text x="147.36" y="76.65">+</text>
<text x="135.35" y="108.02">.</text>
<text x="6.46" y="448.47">.</text>
<text x="271.21" y="466.79">.</text>
<text x="482.66" y="464.24">.</text>
<text x="334.07" y="35.62">*</text>
<text x="410.43" y="12.14">.</text>
<text x="154.62" y="382.86">.</text>
<text x="299.65" y="265.79">.</text>
<text x="439.99" y="65.61">.</text>
<text x="298.66" y="104.32">.</text>
<text x="142.27" y="498.93">.</text>
<text x="376.40" y="56.53">+</text>
<text x="331.82" y="371.85">*</text>
<text x="358.02" y="319.38">*</text>
<text x="431.23" y="381.37">.</text>
<text x="214.31" y="54.78">+</text>
<text x="97.30" y="446.96">+</text>
<text x="361.90" y="493.44">+</text>
<text x="174.26" y="164.01">+</text>
<text x="202.18" y="449.46">+</text>
<text x="493.95" y="7.53">.</text>
<text x="131.56" y="474.42">.</text>
<text x="192.99" y="233.24">.</text>
<text x="328.16" y="87.90">*</text>
<text x="18.59" y="339.10">.</text>
<text x="322.83" y="38.75">.</text>
<text x="207.58" y="414.08">+</text>
<text x="182.57" y="403.11">+</text>
<text x="313.50" y="197.28">*</text>
<text x="10.48" y="177.39">+</text>
<text x="94.50" y="6.37">.</text>
<text x="307.52" y="301.64">+</text>
<text x="80.28" y="124.08">+</text>
<text x="136.06" y="260.15">.</text>
<text x="178.04" y="314.16">.</text>
<text x="350.77" y="308.26">.</text>
<text x="329.75" y="129.24">+</text>
<text x="484.63" y="149.38">.</text>
<text x="137.39" y="50.56">+</text>
<text x="124.65" y="3.83">.</text>
<text x="52.09" y="318.48">+</text>
<text x="295.66" y="41.79">+</text>
<text x="214.43" y="312.26">*</text>
<text x="149.97" y="76.51">.</text>
<text x="480.69" y="209.50">+</text>
<text x="398.84" y="76.38">.</text>
<text x="96.04" y="203.56">+</text>
<text x="1.77" y="382.47">+</text>
<text x="146.04" y="342.19">+</text>
<text x="173.51" y="7.09">.</text>

</svg>