
<svg viewBox="0 0 500 500" xmlns="http://www.w.org/2000/svg" width="100%" height="100%" style="background-color: #0a0a14; font-family: 'Courier New', Courier, monospace;">
    <style>
        text { fill: #aaa; font-size: 10px; text-anchor: middle; dominant-baseline: middle; }
    </style>
    <text x="73.07" y="190.19">+</text>
<text x="441.77" y="159.58">+</text>
<text x="363.15" y="42.11">+</text>
<text x="494.94" y="352.85">.</text>
<text x="462.89" y="37.89">.</text>
<text x="264.83" y="370.03">+</text>
<text x="342.11" y="297.86">+</text>
<text x="150.60" y="356.12">*</text>
<text x="21.35" y="326.86">+</text>
<text x="297.27" y="494.31">+</text>
<text x="256.02" y="331.42">.</text>
<text x="276.76" y="25.50">.</text>
<text x="185.52" y="72.83">.</text>
<text x="96.63" y="479.69">.</text>
<text x="317.22" y="341.41">+</text>
<text x="84.63" y="432.11">+</text>
<text x="0.04" y="459.24">*</text>
<text x="448.79" y="401.55">*</text>
<text x="420.10" y="286.75">+</text>
<text x="165.51" y="281.71">+</text>
<text x="345.76" y="455.93">.</text>
<text x="446.73" y="74.75">.</text>
<text x="272.27" y="37.16">.</text>
<text x="21.73" y="351.54">+</text>
<text x="210.31" y="326.99">.</text>
<text x="215.45" y="136.51">.</text>
<text x="333.65" y="21.36">+</text>
<text x="229.73" y="23.86">+</text>
<text x="42.23" y="37.50">.</text>
<text x="140.43" y="24.66">+</text>
<text x="319.82" y="37.89">.</text>
<text x="154.52" y="48.85">*</text>
<text x="116.04" y="211.09">+</text>
<text x="426.32" y="10.69">.</text>
<text x="234.70" y="416.36">+</text>
<text x="174.27" y="407.82">.</text>
<text x="52.80" y="309.23">.</text>
<text x="435.92" y="181.34">+</text>
<text x="144.92" y="418.03">*</text>
<text x="333.58" y="64.53">+</text>
<text x="277.94" y="451.79">*</text>
<text x="111.95" y="381.42">+</text>
<text x="149.79" y="77.84">.</text>
<text x="34.69" y="9.30">.</text>
<text x="425.97" y="234.21">+</text>
<text x="498.07" y="134.21">.</text>
<text x="494.98" y="251.13">+</text>
<text x="169.22" y="252.17">+</text>
<text x="174.36" y="47.21">+</text>
<text x="444.94" y="306.19">+</text>
<text x="198.63" y="275.31">+</text>
<text x="342.06" y="5.48">+</text>
<text x="479.53" y="337.00">.</text>
<text x="316.75" y="113.45">*</text>
<text x="151.45" y="122.85">*</text>
<text x="215.57" y="411.36">.</text>
<text x="67.18" y="158.69">+</text>
<text x="305.01" y="8.38">.</text>
<text x="353.47" y="136.84">+</text>
<text x="141.37" y="473.65">.</text>
<text x="107.85" y="87.84">.</text>
<text x="329.98" y="134.48">.</text>
<text x="384.06" y="485.63">.</text>
<text x="108.71" y="206.64">+</text>
<text x="18.34" y="194.81">.</text>
<text x="152.38" y="146.37">*</text>
<text x="184.45" y="319.18">.</text>
<text x="226.96" y="111.49">.</text>
<text x="149.24" y="475.48">+</text>
<text x="276.72" y="341.73">+</text>
<text x="37.96" y="64.13">+</text>
<text x="253.32" y="29.12">*</text>
<text x="33.35" y="367.35">*</text>
<text x="298.33" y="396.74">.</text>
<text x="170.75" y="171.14">*</text>
<text x="245.81" y="465.63">*</text>
<text x="98.33" y="3.50">+</text>
<text x="45.97" y="97.28">+</text>
<text x="308.33" y="168.24">.</text>
<text x="287.96" y="100.25">+</text>
<text x="289.85" y="309.55">+</text>
<text x="479.46" y="76.49">+</text>
<text x="461.43" y="371.77">*</text>
<text x="356.41" y="468.75">+</text>
<text x="85.90" y="267.35">+</text>
<text x="449.44" y="76.11">.</text>
<text x="295.85" y="323.60">.</text>
<text x="326.16" y="174.74">+</text>
<text x="395.75" y="116.84">+</text>
<text x="412.41" y="373.39">.</text>
<text x="362.52" y="136.77">+</text>
<text x="198.84" y="148.42">.</text>
<text x="344.81" y="289.05">.</text>
<text x="463.78" y="425.50">+</text>
<text x="14.47" y="402.74">+</text>
<text x="174.68" y="169.52">+</text>
<text x="360.09" y="443.56">+</text>
<text x="351.92" y="28.75">.</text>
<text x="378.44" y="450.99">.</text>
<text x="182.90" y="138.83">*</text>
<text x="361.87" y="89.46">.</text>
<text x="471.43" y="97.94">.</text>
<text x="300.07" y="390.00">.</text>
<text x="283.26" y="290.19">+</text>
<text x="295.65" y="483.77">+</text>
<text x="330.04" y="154.92">+</text>
<text x="395.16" y="223.29">.</text>
<text x="161.04" y="460.93">.</text>
<text x="39.74" y="227.70">+</text>
<text x="62.15" y="360.35">+</text>
<text x="101.94" y="79.79">.</text>
<text x="212.11" y="91.23">+</text>
<text x="182.65" y="392.25">+</text>
<text x="76.73" y="268.23">+</text>
<text x="418.27" y="234.94">+</text>
<text x="439.41" y="80.07">+</text>
<text x="405.56" y="140.99">.</text>
<text x="490.21" y="491.24">+</text>
<text x="406.04" y="47.22">.</text>
<text x="77.41" y="296.16">+</text>
<text x="41.81" y="99.33">.</text>
<text x="160.60" y="98.43">+</text>
<text x="52.74" y="147.99">*</text>
<text x="146.26" y="184.52">*</text>
<text x="37.02" y="411.55">+</text>
<text x="306.53" y="450.01">.</text>
<text x="490.51" y="203.98">+</text>
<text x="224.45" y="130.89">*</text>
<text x="35.23" y="302.64">.</text>
<text x="204.94" y="8.40">+</text>
<text x="252.48" y="156.56">+</text>
<text x="39.56" y="449.71">.</text>
<text x="46.48" y="95.64">+</text>
<text x="480.18" y="215.66">+</text>
<text x="92.00" y="251.64">+</text>
<text x="450.96" y="353.58">.</text>
<text x="20.76" y="225.14">+</text>
<text x="93.54" y="16.35">*</text>
<text x="127.90" y="128.93">+</text>
<text x="468.40" y="33.69">*</text>
<text x="152.46" y="404.86">.</text>
<text x="116.46" y="476.34">+</text>
<text x="294.99" y="309.95">+</text>
<text x="178.97" y="386.21">*</text>
<text x="327.23" y="229.10">+</text>
<text x="99.02" y="171.21">.</text>
<text x="233.98" y="80.53">*</text>
<text x="414.19" y="274.83">+</text>
<text x="427.88" y="417.19">*</text>
<text x="38.66" y="214.65">+</text>
<text x="352.64" y="252.10">+</text>
<text x="184.94" y="462.41">.</text>
<text x="378.61" y="403.74">+</text>
<text x="133.30" y="276.58">+</text>
<text x="59.72" y="244.47">+</text>
<text x="14.36" y="238.46">.</text>
<text x="106.36" y="64.68">.</text>
<text x="388.17" y="91.42">.</text>
<text x="380.57" y="16.10">*</text>
<text x="376.53" y="62.87">.</text>
<text x="332.69" y="96.86">.</text>
<text x="404.50" y="194.12">.</text>
<text x="117.54" y="490.18">.</text>
<text x="387.77" y="279.82">+</text>
<text x="210.26" y="54.23">+</text>
<text x="220.93" y="320.75">+</text>
<text x="122.47" y="101.04">+</text>
<text x="96.15" y="264.69">+</text>
<text x="435.85" y="137.75">.</text>
<text x="170.31" y="270.66">.</text>
<text x="233.03" y="249.33">+</text>
<text x="143.16" y="220.74">.</text>
<text x="40.24" y="210.16">.</text>
<text x="330.87" y="286.90">+</text>
<text x="62.37" y="470.76">+</text>
<text x="132.16" y="402.10">*</text>
<text x="196.40" y="7.02">*</text>
<text x="477.16" y="23.11">*</text>
<text x="98.06" y="398.36">.</text>
<text x="404.65" y="467.61">+</text>
<text x="320.16" y="433.62">+</text>
<text x="457.90" y="60.60">.</text>
<text x="366.22" y="300.83">.</text>
<text x="12.76" y="335.84">+</text>
<text x="415.58" y="17.97">.</text>
<text x="233.08" y="27.69">+</text>
<text x="498.60" y="390.18">*</text>
<text x="438.16" y="323.81">.</text>
<text x="339.14" y="194.61">+</text>
<text x="347.20" y="82.66">+</text>
<text x="425.61" y="424.57">+</text>
<text x="135.96" y="230.32">*</text>
<text x="51.51" y="34.35">*</text>

</svg>