
<svg viewBox="0 0 500 500" xmlns="http://www.w.org/2000/svg" width="100%" height="100%" style="background-color: #0a0a14; font-family: 'Courier New', Courier, monospace;">
    <style>
        text { fill: #aaa; font-size: 10px; text-anchor: middle; dominant-baseline: middle; }
    </style>
    <text x="410.91" y="353.96">+</text>
<text x="283.56" y="192.77">.</text>
<text x="31.58" y="297.79">*</text>
<text x="21.26" y="408.64">+</text>
<text x="134.16" y="491.96">.</text>
<text x="14.89" y="231.90">.</text>
<text x="31.91" y="315.40">.</text>
<text x="233.95" y="147.76">.</text>
<text x="225.09" y="49.15">+</text>
<text x="70.36" y="0.15">+</text>
<text x="455.67" y="2.80">.</text>
<text x="467.93" y="205.37">.</text>
<text x="1.35" y="331.05">+</text>
<text x="158.44" y="446.84">*</text>
<text x="185.45" y="83.72">.</text>
<text x="28.43" y="324.47">+</text>
<text x="243.97" y="375.93">+</text>
<text x="138.78" y="498.74">.</text>
<text x="380.80" y="119.48">.</text>
<text x="104.48" y="410.90">+</text>
<text x="98.83" y="245.28">+</text>
<text x="89.19" y="116.28">.</text>
<text x="276.66" y="246.92">+</text>
<text x="36.64" y="309.36">*</text>
<text x="142.09" y="406.90">.</text>
<text x="387.99" y="429.42">*</text>
<text x="20.68" y="367.74">+</text>
<text x="409.89" y="1.62">*</text>
<text x="1.15" y="269.47">.</text>
<text x="194.62" y="293.74">+</text>
<text x="167.31" y="88.27">.</text>
<text x="218.29" y="448.61">.</text>
<text x="63.89" y="26.45">*</text>
<text x="101.14" y="21.60">+</text>
<text x="70.76" y="42.75">+</text>
<text x="365.10" y="275.73">+</text>
<text x="165.19" y="115.76">+</text>
<text x="383.32" y="232.82">*</text>
<text x="268.09" y="294.77">.</text>
<text x="466.85" y="299.09">+</text>
<text x="34.33" y="44.27">.</text>
<text x="272.35" y="252.81">+</text>
<text x="270.08" y="73.06">.</text>
<text x="444.09" y="268.75">+</text>
<text x="227.52" y="41.68">*</text>
<text x="386.22" y="351.83">+</text>
<text x="446.09" y="467.66">+</text>
<text x="319.63" y="447.31">+</text>
<text x="329.49" y="157.73">.</text>
<text x="436.03" y="470.30">+</text>
<text x="351.49" y="405.76">+</text>
<text x="435.81" y="283.75">+</text>
<text x="246.64" y="14.82">+</text>
<text x="168.21" y="148.49">.</text>
<text x="386.62" y="397.62">*</text>
<text x="28.23" y="71.85">.</text>
<text x="181.23" y="9.10">+</text>
<text x="240.38" y="309.15">.</text>
<text x="187.03" y="173.17">*</text>
<text x="130.10" y="194.33">.</text>
<text x="301.52" y="107.92">.</text>
<text x="13.36" y="208.34">.</text>
<text x="468.99" y="480.78">.</text>
<text x="217.29" y="133.26">+</text>
<text x="260.78" y="92.90">+</text>
<text x="45.40" y="348.59">.</text>
<text x="41.38" y="31.33">+</text>
<text x="153.49" y="497.98">+</text>
<text x="153.70" y="372.39">*</text>
<text x="268.99" y="310.13">.</text>
<text x="286.78" y="248.38">.</text>
<text x="267.58" y="94.37">+</text>
<text x="240.49" y="368.75">.</text>
<text x="303.21" y="480.18">+</text>
<text x="41.39" y="48.46">*</text>
<text x="225.53" y="212.92">*</text>
<text x="235.40" y="362.22">.</text>
<text x="462.38" y="159.05">.</text>
<text x="117.44" y="84.81">*</text>
<text x="483.01" y="98.90">*</text>
<text x="351.93" y="26.30">.</text>
<text x="228.26" y="38.64">*</text>
<text x="64.55" y="224.98">*</text>
<text x="258.74" y="465.05">+</text>
<text x="170.24" y="180.16">.</text>
<text x="257.35" y="49.16">.</text>
<text x="275.47" y="266.98">+</text>
<text x="423.48" y="391.31">*</text>
<text x="234.85" y="238.61">.</text>
<text x="380.40" y="106.91">*</text>
<text x="55.21" y="411.30">.</text>
<text x="161.92" y="493.00">.</text>
<text x="367.15" y="215.83">.</text>
<text x="213.28" y="133.65">+</text>
<text x="155.18" y="461.68">.</text>
<text x="379.03" y="434.37">+</text>
<text x="350.80" y="258.92">+</text>
<text x="450.80" y="120.49">.</text>
<text x="112.22" y="403.24">.</text>
<text x="224.84" y="98.82">.</text>
<text x="81.81" y="446.57">*</text>
<text x="498.70" y="237.93">.</text>
<text x="332.58" y="154.64">.</text>
<text x="334.02" y="171.42">+</text>
<text x="257.48" y="112.55">.</text>
<text x="418.02" y="312.87">+</text>
<text x="140.84" y="11.08">.</text>
<text x="494.95" y="363.78">+</text>
<text x="48.31" y="443.02">.</text>
<text x="12.29" y="265.49">+</text>
<text x="284.58" y="361.42">+</text>
<text x="474.56" y="8.16">.</text>
<text x="416.34" y="96.44">*</text>
<text x="60.91" y="4.82">*</text>
<text x="306.27" y="15.16">*</text>
<text x="364.80" y="349.17">+</text>
<text x="147.28" y="496.76">+</text>
<text x="230.14" y="328.57">.</text>
<text x="86.33" y="351.69">.</text>
<text x="459.32" y="473.84">+</text>
<text x="188.21" y="490.99">*</text>
<text x="184.99" y="246.00">.</text>
<text x="57.62" y="223.61">*</text>
<text x="300.95" y="401.95">.</text>
<text x="288.92" y="129.59">.</text>
<text x="378.14" y="74.14">+</text>
<text x="115.42" y="381.77">*</text>
<text x="316.49" y="496.64">+</text>
<text x="26.44" y="49.93">+</text>
<text x="183.22" y="309.23">.</text>
<text x="242.01" y="241.06">+</text>
<text x="490.23" y="242.83">+</text>
<text x="443.27" y="111.71">+</text>
<text x="370.70" y="261.63">+</text>
<text x="230.63" y="210.14">.</text>
<text x="205.44" y="485.34">.</text>
<text x="480.19" y="81.88">.</text>
<text x="222.94" y="73.31">.</text>
<text x="201.54" y="351.01">+</text>
<text x="12.65" y="339.09">+</text>
<text x="213.15" y="424.40">.</text>
<text x="475.12" y="83.30">*</text>
<text x="306.86" y="234.99">.</text>
<text x="491.45" y="197.38">.</text>
<text x="147.56" y="67.86">*</text>
<text x="236.58" y="110.58">.</text>
<text x="51.77" y="331.98">.</text>
<text x="215.60" y="263.72">+</text>
<text x="343.23" y="237.65">+</text>
<text x="216.01" y="81.04">.</text>
<text x="67.52" y="472.93">+</text>
<text x="307.96" y="394.84">.</text>
<text x="263.24" y="413.74">.</text>
<text x="110.07" y="186.19">.</text>
<text x="219.42" y="59.66">+</text>
<text x="204.45" y="292.20">*</text>
<text x="141.60" y="146.92">+</text>
<text x="430.43" y="210.32">*</text>
<text x="96.14" y="174.11">*</text>
<text x="147.19" y="358.69">+</text>
<text x="264.30" y="31.49">.</text>
<text x="375.28" y="483.92">+</text>
<text x="201.68" y="245.63">+</text>
<text x="261.99" y="268.02">+</text>
<text x="326.65" y="63.31">*</text>
<text x="198.13" y="319.92">.</text>
<text x="73.71" y="128.72">.</text>
<text x="231.78" y="256.21">+</text>
<text x="159.24" y="82.91">.</text>
<text x="69.14" y="99.90">.</text>
<text x="130.85" y="184.42">+</text>
<text x="194.24" y="149.97">+</text>
<text x="98.48" y="370.31">+</text>
<text x="310.48" y="137.23">+</text>
<text x="265.22" y="352.18">.</text>
<text x="385.21" y="249.06">*</text>
<text x="168.33" y="477.70">.</text>
<text x="328.73" y="54.10">+</text>
<text x="305.50" y="412.07">.</text>
<text x="481.39" y="60.00">+</text>
<text x="313.42" y="335.15">*</text>
<text x="188.18" y="232.91">.</text>
<text x="136.79" y="270.31">+</text>
<text x="398.22" y="371.46">.</text>
<text x="114.18" y="113.01">.</text>
<text x="221.77" y="276.69">.</text>
<text x="430.75" y="205.75">*</text>
<text x="173.33" y="102.60">+</text>
<text x="143.00" y="183.44">+</text>
<text x="404.65" y="484.69">*</text>
<text x="401.18" y="67.54">+</text>
<text x="71.24" y="435.87">+</text>
<text x="253.94" y="335.37">+</text>
<text x="446.34" y="447.02">+</text>
<text x="61.25" y="65.71">+</text>
<text x="252.84" y="281.63">+</text>
<text x="239.24" y="426.52">*</text>
<text x="180.11" y="85.90">+</text>
<text x="137.22" y="484.44">+</text>
<text x="322.38" y="454.02">.</text>
<text x="275.72" y="82.21">.</text>
<text x="441.24" y="38.11">.</text>

</svg>