
<svg viewBox="0 0 500 500" xmlns="http://www.w.org/2000/svg" width="100%" height="100%" style="background-color: #0a0a14; font-family: 'Courier New', Courier, monospace;">
    <style>
        text { fill: #aaa; font-size: 10px; text-anchor: middle; dominant-baseline: middle; }
    </style>
    <text x="400.45" y="176.80">.</text>
<text x="161.83" y="200.11">.</text>
<text x="123.73" y="409.52">+</text>
<text x="388.22" y="440.40">.</text>
<text x="41.48" y="157.74">+</text>
<text x="168.04" y="165.04">.</text>
<text x="453.51" y="25.84">*</text>
<text x="404.99" y="52.78">+</text>
<text x="129.21" y="10.32">+</text>
<text x="344.28" y="173.84">+</text>
<text x="451.06" y="330.74">+</text>
<text x="112.78" y="407.23">.</text>
<text x="253.96" y="221.87">.</text>
<text x="402.90" y="76.34">+</text>
<text x="412.57" y="498.41">+</text>
<text x="56.88" y="202.26">.</text>
<text x="89.63" y="285.39">+</text>
<text x="141.74" y="116.61">+</text>
<text x="483.88" y="283.54">+</text>
<text x="462.64" y="153.29">.</text>
<text x="49.73" y="132.04">.</text>
<text x="144.71" y="255.26">.</text>
<text x="459.39" y="153.86">+</text>
<text x="244.46" y="470.79">.</text>
<text x="476.51" y="105.57">*</text>
<text x="169.57" y="438.39">.</text>
<text x="376.05" y="163.22">.</text>
<text x="354.67" y="319.91">+</text>
<text x="22.84" y="45.28">.</text>
<text x="60.14" y="276.43">+</text>
<text x="184.26" y="91.05">*</text>
<text x="214.28" y="305.38">.</text>
<text x="335.59" y="173.80">.</text>
<text x="202.65" y="206.78">*</text>
<text x="400.62" y="277.12">.</text>
<text x="210.95" y="153.99">+</text>
<text x="340.29" y="367.17">+</text>
<text x="36.83" y="432.66">*</text>
<text x="268.29" y="374.08">*</text>
<text x="95.55" y="402.03">+</text>
<text x="92.96" y="490.51">+</text>
<text x="496.23" y="55.97">.</text>
<text x="393.61" y="240.84">.</text>
<text x="286.11" y="179.98">+</text>
<text x="214.09" y="299.68">+</text>
<text x="130.47" y="22.77">+</text>
<text x="170.91" y="261.22">.</text>
<text x="255.59" y="291.09">*</text>
<text x="453.71" y="174.19">.</text>
<text x="89.22" y="234.75">+</text>
<text x="316.82" y="290.47">+</text>
<text x="296.83" y="149.01">+</text>
<text x="128.61" y="8.88">+</text>
<text x="91.87" y="483.10">.</text>
<text x="154.48" y="79.14">+</text>
<text x="171.13" y="264.31">.</text>
<text x="263.82" y="268.15">.</text>
<text x="346.59" y="497.69">*</text>
<text x="37.02" y="386.21">+</text>
<text x="48.66" y="488.55">.</text>
<text x="163.89" y="421.74">+</text>
<text x="75.72" y="290.65">+</text>
<text x="19.67" y="124.76">.</text>
<text x="0.21" y="351.11">+</text>
<text x="190.05" y="233.79">*</text>
<text x="495.95" y="176.68">.</text>
<text x="223.71" y="260.89">+</text>
<text x="416.49" y="266.09">.</text>
<text x="53.61" y="231.35">.</text>
<text x="181.99" y="30.21">+</text>
<text x="149.49" y="192.44">+</text>
<text x="417.97" y="429.36">+</text>
<text x="408.24" y="417.53">+</text>
<text x="211.95" y="104.71">*</text>
<text x="329.66" y="321.69">.</text>
<text x="176.58" y="33.20">*</text>
<text x="60.11" y="451.54">.</text>
<text x="295.06" y="362.55">.</text>
<text x="271.63" y="222.74">+</text>
<text x="12.20" y="412.52">+</text>
<text x="413.90" y="33.29">.</text>
<text x="492.76" y="339.48">*</text>
<text x="296.68" y="51.67">.</text>
<text x="441.50" y="492.96">+</text>
<text x="94.27" y="448.28">+</text>
<text x="245.05" y="272.51">+</text>
<text x="195.70" y="379.84">.</text>
<text x="397.28" y="33.01">+</text>
<text x="452.22" y="499.53">.</text>
<text x="398.31" y="171.15">.</text>
<text x="424.00" y="72.26">.</text>
<text x="181.87" y="190.08">+</text>
<text x="119.01" y="40.66">.</text>
<text x="13.81" y="224.19">.</text>
<text x="283.75" y="130.30">+</text>
<text x="255.61" y="400.76">.</text>
<text x="271.22" y="448.01">+</text>
<text x="284.04" y="481.25">+</text>
<text x="264.00" y="55.75">+</text>
<text x="372.11" y="377.81">+</text>
<text x="58.03" y="318.57">+</text>
<text x="253.28" y="59.11">+</text>
<text x="299.32" y="460.04">.</text>
<text x="326.07" y="90.30">*</text>
<text x="209.32" y="387.56">.</text>
<text x="92.77" y="54.17">*</text>
<text x="383.82" y="25.37">+</text>
<text x="212.94" y="79.24">*</text>
<text x="478.09" y="494.63">.</text>
<text x="190.93" y="491.47">*</text>
<text x="339.19" y="492.50">.</text>
<text x="406.14" y="119.63">.</text>
<text x="409.86" y="73.75">.</text>
<text x="51.97" y="202.79">.</text>
<text x="435.18" y="72.46">.</text>
<text x="229.05" y="438.72">.</text>
<text x="68.95" y="154.56">+</text>
<text x="178.88" y="251.64">*</text>
<text x="226.68" y="64.70">+</text>
<text x="92.25" y="281.23">.</text>
<text x="180.13" y="336.55">+</text>
<text x="384.97" y="373.66">.</text>
<text x="270.75" y="178.15">.</text>
<text x="382.82" y="379.06">+</text>
<text x="72.96" y="401.13">+</text>
<text x="201.16" y="104.02">.</text>
<text x="11.57" y="192.05">.</text>
<text x="36.92" y="420.27">+</text>
<text x="41.27" y="159.66">+</text>
<text x="319.69" y="57.23">.</text>
<text x="166.75" y="410.73">+</text>
<text x="195.13" y="344.42">+</text>
<text x="266.97" y="321.57">*</text>
<text x="325.55" y="434.59">.</text>
<text x="272.73" y="309.45">.</text>
<text x="203.46" y="138.69">+</text>
<text x="397.91" y="108.27">+</text>
<text x="373.87" y="156.36">+</text>
<text x="326.66" y="246.08">+</text>
<text x="296.92" y="275.34">.</text>
<text x="23.75" y="238.21">+</text>
<text x="90.53" y="358.96">+</text>
<text x="190.13" y="13.89">.</text>
<text x="153.83" y="337.33">.</text>
<text x="177.62" y="331.15">.</text>
<text x="386.94" y="318.71">+</text>
<text x="220.80" y="385.40">+</text>
<text x="406.44" y="440.86">+</text>
<text x="125.19" y="307.12">+</text>
<text x="111.85" y="91.16">*</text>
<text x="82.38" y="216.13">+</text>
<text x="324.98" y="102.51">.</text>
<text x="124.54" y="353.22">.</text>
<text x="156.18" y="41.12">+</text>
<text x="261.88" y="274.01">+</text>
<text x="3.38" y="261.99">*</text>
<text x="35.09" y="346.44">+</text>
<text x="437.76" y="397.18">+</text>
<text x="282.82" y="433.36">+</text>
<text x="374.37" y="154.35">*</text>
<text x="186.40" y="64.01">*</text>
<text x="291.70" y="322.53">+</text>
<text x="122.22" y="190.47">.</text>
<text x="145.44" y="286.51">+</text>
<text x="401.64" y="18.04">.</text>
<text x="353.22" y="99.65">.</text>
<text x="219.83" y="85.35">+</text>
<text x="56.26" y="354.73">+</text>
<text x="281.16" y="86.37">*</text>
<text x="137.88" y="313.17">*</text>
<text x="5.88" y="415.66">.</text>
<text x="401.88" y="489.37">+</text>
<text x="297.31" y="179.31">.</text>
<text x="436.00" y="27.00">+</text>
<text x="150.67" y="359.52">.</text>
<text x="439.54" y="398.13">.</text>
<text x="277.74" y="391.60">+</text>
<text x="347.82" y="335.81">.</text>
<text x="11.17" y="116.51">+</text>
<text x="143.00" y="266.07">.</text>
<text x="17.45" y="283.49">.</text>
<text x="428.24" y="176.43">.</text>
<text x="21.44" y="159.53">*</text>
<text x="61.97" y="64.36">+</text>
<text x="470.71" y="148.90">+</text>
<text x="389.65" y="151.77">+</text>
<text x="65.04" y="145.82">+</text>
<text x="447.66" y="344.99">+</text>
<text x="448.38" y="205.56">.</text>
<text x="139.52" y="333.05">+</text>
<text x="70.58" y="396.44">.</text>
<text x="278.15" y="101.20">.</text>

</svg>