
<svg viewBox="0 0 500 500" xmlns="http://www.w.org/2000/svg" width="100%" height="100%" style="background-color: #0a0a14; font-family: 'Courier New', Courier, monospace;">
    <style>
        text { fill: #aaa; font-size: 10px; text-anchor: middle; dominant-baseline: middle; }
    </style>
    <text x="60.69" y="85.05">.</text>
<text x="467.01" y="354.57">.</text>
<text x="241.94" y="57.51">.</text>
<text x="340.98" y="332.38">*</text>
<text x="239.75" y="342.40">+</text>
<text x="371.92" y="54.12">+</text>
<text x="289.40" y="498.98">+</text>
<text x="259.74" y="309.59">+</text>
<text x="490.16" y="163.69">.</text>
<text x="335.77" y="13.60">.</text>
<text x="292.74" y="335.72">+</text>
<text x="330.42" y="302.87">*</text>
<text x="47.11" y="347.34">+</text>
<text x="260.35" y="297.23">.</text>
<text x="12.42" y="193.33">*</text>
<text x="221.33" y="252.34">+</text>
<text x="312.06" y="427.55">.</text>
<text x="114.55" y="190.64">.</text>
<text x="209.81" y="393.86">+</text>
<text x="151.26" y="18.08">.</text>
<text x="26.85" y="41.60">+</text>
<text x="461.69" y="458.54">.</text>
<text x="243.73" y="448.67">+</text>
<text x="177.99" y="277.46">.</text>
<text x="395.99" y="52.36">+</text>
<text x="121.09" y="111.17">.</text>
<text x="436.02" y="69.91">.</text>
<text x="398.55" y="244.42">+</text>
<text x="380.32" y="253.12">+</text>
<text x="212.04" y="354.74">*</text>
<text x="394.24" y="157.78">+</text>
<text x="409.66" y="326.49">.</text>
<text x="365.05" y="267.76">*</text>
<text x="489.07" y="409.87">*</text>
<text x="410.26" y="305.19">.</text>
<text x="389.98" y="369.88">.</text>
<text x="380.05" y="117.84">+</text>
<text x="370.09" y="465.34">+</text>
<text x="441.37" y="223.58">+</text>
<text x="395.77" y="147.41">*</text>
<text x="272.16" y="10.32">.</text>
<text x="384.15" y="79.97">.</text>
<text x="495.54" y="92.12">+</text>
<text x="240.33" y="411.23">*</text>
<text x="56.89" y="105.74">.</text>
<text x="231.29" y="446.59">+</text>
<text x="342.67" y="61.35">.</text>
<text x="427.60" y="223.41">.</text>
<text x="244.79" y="338.10">+</text>
<text x="117.95" y="141.10">.</text>
<text x="281.47" y="431.74">+</text>
<text x="175.80" y="69.07">+</text>
<text x="16.32" y="226.43">.</text>
<text x="360.32" y="323.55">.</text>
<text x="464.60" y="336.63">.</text>
<text x="159.99" y="377.99">+</text>
<text x="186.39" y="99.73">*</text>
<text x="240.57" y="436.74">*</text>
<text x="363.88" y="268.33">.</text>
<text x="46.09" y="392.40">+</text>
<text x="299.17" y="135.35">.</text>
<text x="217.64" y="487.07">.</text>
<text x="487.46" y="127.10">.</text>
<text x="133.45" y="144.40">.</text>
<text x="339.43" y="131.86">.</text>
<text x="47.33" y="248.51">.</text>
<text x="376.02" y="429.75">.</text>
<text x="44.04" y="182.22">+</text>
<text x="306.67" y="204.08">+</text>
<text x="249.74" y="170.69">.</text>
<text x="239.46" y="218.33">+</text>
<text x="275.23" y="486.27">.</text>
<text x="439.22" y="60.14">+</text>
<text x="211.63" y="489.12">*</text>
<text x="15.20" y="68.88">+</text>
<text x="96.66" y="16.46">+</text>
<text x="454.52" y="132.14">+</text>
<text x="435.87" y="252.61">.</text>
<text x="358.26" y="368.74">+</text>
<text x="459.56" y="200.49">.</text>
<text x="68.35" y="194.27">.</text>
<text x="310.70" y="126.60">+</text>
<text x="40.90" y="177.69">*</text>
<text x="183.23" y="94.36">+</text>
<text x="66.13" y="167.95">.</text>
<text x="441.70" y="491.61">+</text>
<text x="442.61" y="44.80">*</text>
<text x="430.72" y="474.43">+</text>
<text x="273.23" y="353.65">.</text>
<text x="124.42" y="316.12">+</text>
<text x="247.92" y="333.29">.</text>
<text x="326.14" y="128.02">+</text>
<text x="355.85" y="466.73">+</text>
<text x="84.37" y="256.42">.</text>
<text x="159.11" y="467.69">+</text>
<text x="308.84" y="169.05">+</text>
<text x="255.82" y="462.07">.</text>
<text x="54.94" y="72.35">+</text>
<text x="227.87" y="396.97">+</text>
<text x="489.22" y="5.53">*</text>
<text x="184.03" y="249.36">+</text>
<text x="308.11" y="189.12">.</text>
<text x="372.64" y="346.73">.</text>
<text x="199.05" y="474.25">*</text>
<text x="378.93" y="217.74">*</text>
<text x="499.58" y="438.15">+</text>
<text x="220.24" y="328.16">+</text>
<text x="378.19" y="435.97">+</text>
<text x="432.21" y="49.02">.</text>
<text x="92.66" y="390.18">+</text>
<text x="332.73" y="409.59">+</text>
<text x="35.50" y="213.25">.</text>
<text x="406.86" y="203.05">*</text>
<text x="160.01" y="279.99">+</text>
<text x="86.71" y="224.35">.</text>
<text x="39.86" y="443.68">+</text>
<text x="397.61" y="457.23">.</text>
<text x="384.20" y="444.45">+</text>
<text x="479.50" y="79.14">.</text>
<text x="101.41" y="2.80">+</text>
<text x="406.63" y="122.31">+</text>
<text x="114.63" y="441.09">+</text>
<text x="239.35" y="151.78">+</text>
<text x="197.51" y="10.48">+</text>
<text x="427.99" y="145.05">.</text>
<text x="356.00" y="37.54">.</text>
<text x="102.50" y="13.19">.</text>
<text x="259.69" y="474.13">.</text>
<text x="38.07" y="303.08">.</text>
<text x="485.73" y="77.29">*</text>
<text x="30.62" y="260.10">+</text>
<text x="66.41" y="51.35">+</text>
<text x="313.77" y="259.78">+</text>
<text x="337.02" y="407.09">+</text>
<text x="189.01" y="383.95">.</text>
<text x="322.15" y="407.85">.</text>
<text x="324.53" y="170.28">+</text>
<text x="112.03" y="421.16">*</text>
<text x="108.38" y="335.73">+</text>
<text x="375.43" y="467.59">.</text>
<text x="261.73" y="244.09">.</text>
<text x="261.63" y="398.18">+</text>
<text x="71.26" y="217.74">+</text>
<text x="17.83" y="242.03">+</text>
<text x="135.96" y="488.26">*</text>
<text x="137.29" y="13.71">+</text>
<text x="74.32" y="50.02">.</text>
<text x="34.04" y="268.87">+</text>
<text x="312.67" y="435.37">.</text>
<text x="344.82" y="74.21">+</text>
<text x="459.96" y="156.74">+</text>
<text x="339.27" y="179.03">+</text>
<text x="390.71" y="487.32">+</text>
<text x="340.86" y="70.05">.</text>
<text x="42.04" y="79.17">*</text>
<text x="341.10" y="219.39">.</text>
<text x="167.65" y="209.65">+</text>
<text x="349.50" y="418.71">.</text>
<text x="345.63" y="2.27">*</text>
<text x="176.61" y="333.94">.</text>
<text x="359.66" y="256.56">.</text>
<text x="175.11" y="53.80">*</text>
<text x="11.06" y="394.37">.</text>
<text x="139.13" y="300.85">.</text>
<text x="456.24" y="381.29">+</text>
<text x="327.32" y="492.19">.</text>
<text x="491.44" y="110.99">+</text>
<text x="326.90" y="52.12">*</text>
<text x="219.44" y="235.40">+</text>
<text x="76.48" y="253.99">.</text>
<text x="494.71" y="310.56">.</text>
<text x="174.76" y="446.82">.</text>
<text x="174.03" y="205.77">.</text>
<text x="158.77" y="7.43">+</text>
<text x="207.09" y="423.21">+</text>
<text x="323.92" y="109.55">+</text>
<text x="229.70" y="277.77">*</text>
<text x="293.47" y="264.21">.</text>
<text x="57.53" y="107.93">.</text>
<text x="478.54" y="301.12">.</text>
<text x="305.42" y="325.99">.</text>
<text x="475.57" y="138.25">+</text>
<text x="7.61" y="422.95">.</text>
<text x="54.05" y="8.71">.</text>
<text x="7.28" y="475.13">.</text>
<text x="357.32" y="342.26">.</text>
<text x="435.17" y="409.68">*</text>
<text x="213.57" y="451.73">.</text>
<text x="356.22" y="149.11">+</text>
<text x="64.19" y="61.60">.</text>
<text x="137.48" y="469.02">.</text>
<text x="431.48" y="118.59">*</text>
<text x="173.00" y="153.24">+</text>
<text x="34.60" y="244.78">+</text>
<text x="1.50" y="52.48">.</text>
<text x="156.74" y="445.37">+</text>
<text x="363.09" y="358.07">*</text>
<text x="350.75" y="267.61">.</text>
<text x="212.74" y="73.67">*</text>
<text x="483.36" y="490.85">+</text>
<text x="299.73" y="92.59">+</text>
<text x="472.19" y="118.97">+</text>

</svg>