
<svg viewBox="0 0 500 500" xmlns="http://www.w.org/2000/svg" width="100%" height="100%" style="background-color: #0a0a14; font-family: 'Courier New', Courier, monospace;">
    <style>
        text { fill: #aaa; font-size: 10px; text-anchor: middle; dominant-baseline: middle; }
    </style>
    <text x="417.55" y="263.50">+</text>
<text x="365.39" y="350.12">.</text>
<text x="267.62" y="468.14">.</text>
<text x="312.87" y="12.40">+</text>
<text x="495.66" y="124.59">+</text>
<text x="164.30" y="64.27">+</text>
<text x="129.55" y="126.66">+</text>
<text x="29.76" y="145.36">+</text>
<text x="240.70" y="406.50">+</text>
<text x="417.38" y="264.70">*</text>
<text x="23.27" y="466.59">+</text>
<text x="9.56" y="475.98">.</text>
<text x="332.06" y="262.16">.</text>
<text x="157.33" y="171.40">+</text>
<text x="91.35" y="251.52">.</text>
<text x="466.70" y="329.14">.</text>
<text x="444.64" y="423.24">+</text>
<text x="181.11" y="216.55">+</text>
<text x="179.55" y="99.27">+</text>
<text x="497.48" y="381.29">+</text>
<text x="38.55" y="234.62">*</text>
<text x="136.93" y="494.51">*</text>
<text x="126.32" y="434.55">.</text>
<text x="245.70" y="312.62">.</text>
<text x="140.82" y="160.10">+</text>
<text x="155.87" y="239.75">.</text>
<text x="362.91" y="181.93">.</text>
<text x="81.10" y="89.15">*</text>
<text x="314.98" y="284.61">*</text>
<text x="321.21" y="108.56">.</text>
<text x="448.76" y="122.95">+</text>
<text x="195.12" y="273.92">*</text>
<text x="105.49" y="200.57">.</text>
<text x="48.55" y="105.20">.</text>
<text x="406.50" y="122.08">.</text>
<text x="404.24" y="353.80">+</text>
<text x="221.00" y="384.69">+</text>
<text x="266.22" y="270.18">.</text>
<text x="261.32" y="416.02">.</text>
<text x="354.49" y="233.94">.</text>
<text x="299.94" y="33.88">.</text>
<text x="397.19" y="123.56">*</text>
<text x="20.94" y="495.92">.</text>
<text x="172.18" y="121.91">.</text>
<text x="40.50" y="229.27">.</text>
<text x="148.95" y="40.73">*</text>
<text x="316.91" y="492.62">*</text>
<text x="372.47" y="422.52">+</text>
<text x="372.75" y="442.56">*</text>
<text x="253.60" y="360.28">+</text>
<text x="152.30" y="419.20">.</text>
<text x="374.41" y="419.17">+</text>
<text x="263.78" y="293.81">+</text>
<text x="409.81" y="221.71">+</text>
<text x="70.92" y="307.07">*</text>
<text x="318.53" y="247.54">.</text>
<text x="37.66" y="108.37">.</text>
<text x="7.32" y="170.52">+</text>
<text x="22.89" y="271.08">+</text>
<text x="274.97" y="184.53">+</text>
<text x="199.18" y="272.58">.</text>
<text x="289.76" y="304.03">+</text>
<text x="187.27" y="144.96">+</text>
<text x="455.09" y="187.73">+</text>
<text x="413.83" y="258.77">.</text>
<text x="63.89" y="498.05">+</text>
<text x="205.28" y="370.51">*</text>
<text x="105.36" y="369.29">.</text>
<text x="232.46" y="470.33">.</text>
<text x="391.97" y="51.03">.</text>
<text x="159.07" y="132.19">.</text>
<text x="116.88" y="474.10">.</text>
<text x="480.14" y="98.25">+</text>
<text x="111.75" y="66.49">.</text>
<text x="362.44" y="488.81">.</text>
<text x="450.41" y="317.36">+</text>
<text x="286.42" y="163.69">*</text>
<text x="184.95" y="244.05">+</text>
<text x="149.81" y="74.59">*</text>
<text x="278.55" y="245.25">+</text>
<text x="435.63" y="14.98">.</text>
<text x="137.39" y="96.41">+</text>
<text x="466.44" y="464.97">+</text>
<text x="200.15" y="180.34">.</text>
<text x="12.55" y="342.11">.</text>
<text x="175.61" y="379.89">.</text>
<text x="250.61" y="227.53">+</text>
<text x="118.63" y="23.93">+</text>
<text x="16.34" y="459.61">+</text>
<text x="440.54" y="237.38">.</text>
<text x="486.11" y="347.67">.</text>
<text x="158.86" y="430.30">+</text>
<text x="413.88" y="335.55">.</text>
<text x="302.59" y="498.75">.</text>
<text x="351.17" y="495.31">+</text>
<text x="300.13" y="288.51">*</text>
<text x="108.30" y="221.35">+</text>
<text x="373.99" y="364.45">.</text>
<text x="68.26" y="266.54">+</text>
<text x="244.89" y="475.88">.</text>
<text x="250.84" y="33.33">+</text>
<text x="496.20" y="35.93">+</text>
<text x="59.01" y="188.49">+</text>
<text x="163.32" y="34.48">.</text>
<text x="148.13" y="261.25">.</text>
<text x="90.86" y="392.59">.</text>
<text x="75.23" y="461.88">+</text>
<text x="71.66" y="196.17">+</text>
<text x="259.03" y="78.64">+</text>
<text x="482.72" y="230.95">*</text>
<text x="433.31" y="303.29">+</text>
<text x="259.01" y="462.18">.</text>
<text x="159.10" y="353.61">.</text>
<text x="487.49" y="32.58">+</text>
<text x="492.15" y="270.70">.</text>
<text x="410.24" y="452.23">+</text>
<text x="436.43" y="240.18">+</text>
<text x="28.53" y="435.46">.</text>
<text x="375.78" y="60.04">+</text>
<text x="172.69" y="474.89">.</text>
<text x="98.46" y="80.13">.</text>
<text x="183.88" y="140.67">.</text>
<text x="21.17" y="309.64">.</text>
<text x="410.52" y="239.52">.</text>
<text x="145.07" y="486.13">+</text>
<text x="418.80" y="13.80">.</text>
<text x="494.45" y="311.49">+</text>
<text x="293.44" y="70.44">.</text>
<text x="185.08" y="162.04">.</text>
<text x="261.23" y="256.49">.</text>
<text x="436.46" y="491.11">.</text>
<text x="221.48" y="142.72">.</text>
<text x="65.48" y="386.69">+</text>
<text x="479.06" y="312.54">*</text>
<text x="4.10" y="458.92">+</text>
<text x="44.39" y="312.45">.</text>
<text x="108.66" y="374.22">*</text>
<text x="304.03" y="80.31">+</text>
<text x="314.71" y="44.31">+</text>
<text x="262.39" y="346.33">.</text>
<text x="465.99" y="51.32">.</text>
<text x="27.73" y="489.19">.</text>
<text x="268.31" y="165.23">+</text>
<text x="328.64" y="365.13">+</text>
<text x="132.53" y="191.17">+</text>
<text x="283.33" y="473.50">.</text>
<text x="34.47" y="310.39">.</text>
<text x="73.55" y="199.40">+</text>
<text x="487.81" y="158.51">.</text>
<text x="91.47" y="345.50">.</text>
<text x="448.48" y="8.08">+</text>
<text x="212.39" y="288.18">+</text>
<text x="150.57" y="390.27">*</text>
<text x="384.73" y="233.07">.</text>
<text x="371.94" y="335.11">+</text>
<text x="292.13" y="243.98">.</text>
<text x="179.37" y="411.71">.</text>
<text x="165.69" y="366.74">+</text>
<text x="84.37" y="444.26">+</text>
<text x="497.18" y="456.81">.</text>
<text x="498.11" y="278.82">.</text>
<text x="101.03" y="209.84">.</text>
<text x="63.16" y="149.73">.</text>
<text x="16.39" y="491.62">+</text>
<text x="31.94" y="207.59">+</text>
<text x="154.69" y="41.10">+</text>
<text x="403.60" y="340.11">+</text>
<text x="382.13" y="170.02">*</text>
<text x="174.01" y="435.13">.</text>
<text x="403.63" y="287.24">*</text>
<text x="393.67" y="270.02">+</text>
<text x="387.31" y="404.30">*</text>
<text x="133.47" y="366.15">+</text>
<text x="392.13" y="145.29">.</text>
<text x="452.43" y="309.26">.</text>
<text x="339.85" y="66.54">.</text>
<text x="432.37" y="149.41">.</text>
<text x="351.55" y="88.13">.</text>
<text x="352.17" y="348.73">.</text>
<text x="246.17" y="254.75">+</text>
<text x="264.16" y="217.30">+</text>
<text x="245.87" y="444.05">+</text>
<text x="33.69" y="429.77">.</text>
<text x="44.95" y="39.53">+</text>
<text x="235.45" y="349.05">.</text>
<text x="15.30" y="334.13">+</text>
<text x="384.46" y="291.36">.</text>
<text x="206.73" y="350.26">.</text>
<text x="32.06" y="93.49">+</text>
<text x="225.36" y="96.19">.</text>
<text x="350.69" y="228.10">*</text>
<text x="464.84" y="52.40">.</text>
<text x="129.89" y="107.53">.</text>
<text x="411.25" y="476.80">+</text>
<text x="326.98" y="204.78">*</text>
<text x="61.57" y="16.13">.</text>
<text x="185.40" y="250.17">+</text>
<text x="136.02" y="164.53">.</text>
<text x="110.20" y="238.45">+</text>
<text x="428.83" y="483.55">.</text>
<text x="176.26" y="237.46">*</text>
<text x="144.78" y="317.27">*</text>
<text x="218.34" y="209.77">.</text>
<text x="403.45" y="92.73">+</text>
<text x="28.79" y="55.67">+</text>
<text x="264.50" y="116.95">.</text>
<text x="78.12" y="215.96">.</text>
<text x="337.72" y="403.78">.</text>
<text x="491.08" y="79.75">+</text>
<text x="324.55" y="79.90">.</text>
<text x="267.65" y="398.06">.</text>
<text x="377.50" y="304.25">*</text>
<text x="209.77" y="195.33">.</text>

</svg>