
<svg viewBox="0 0 500 500" xmlns="http://www.w.org/2000/svg" width="100%" height="100%" style="background-color: #0a0a14; font-family: 'Courier New', Courier, monospace;">
    <style>
        text { fill: #aaa; font-size: 10px; text-anchor: middle; dominant-baseline: middle; }
    </style>
    <text x="3.17" y="343.89">*</text>
<text x="130.73" y="116.15">+</text>
<text x="317.04" y="416.65">.</text>
<text x="305.18" y="361.63">+</text>
<text x="370.99" y="447.62">.</text>
<text x="408.69" y="24.51">.</text>
<text x="297.96" y="251.33">*</text>
<text x="74.39" y="406.76">+</text>
<text x="356.40" y="355.51">+</text>
<text x="19.93" y="498.87">*</text>
<text x="16.46" y="51.07">.</text>
<text x="13.23" y="496.34">.</text>
<text x="247.51" y="271.70">+</text>
<text x="348.83" y="197.84">+</text>
<text x="346.34" y="62.39">.</text>
<text x="468.04" y="11.65">.</text>
<text x="346.00" y="211.94">+</text>
<text x="369.78" y="104.24">+</text>
<text x="491.39" y="460.69">+</text>
<text x="423.67" y="61.09">.</text>
<text x="179.84" y="350.98">+</text>
<text x="253.08" y="145.16">.</text>
<text x="317.66" y="377.83">.</text>
<text x="58.23" y="101.71">+</text>
<text x="423.73" y="417.59">.</text>
<text x="79.37" y="472.10">+</text>
<text x="439.02" y="414.81">.</text>
<text x="336.53" y="290.78">.</text>
<text x="50.74" y="279.34">+</text>
<text x="224.65" y="244.00">.</text>
<text x="418.89" y="172.98">+</text>
<text x="361.37" y="235.72">.</text>
<text x="165.13" y="241.69">*</text>
<text x="444.19" y="164.19">*</text>
<text x="32.87" y="249.65">+</text>
<text x="318.21" y="330.11">+</text>
<text x="22.77" y="147.35">+</text>
<text x="76.44" y="423.03">+</text>
<text x="217.10" y="77.96">*</text>
<text x="459.49" y="326.59">+</text>
<text x="481.01" y="159.24">+</text>
<text x="239.88" y="274.08">+</text>
<text x="185.74" y="197.69">+</text>
<text x="478.90" y="326.25">+</text>
<text x="405.57" y="22.08">.</text>
<text x="383.07" y="425.85">.</text>
<text x="284.09" y="64.30">+</text>
<text x="18.32" y="227.48">.</text>
<text x="271.35" y="214.99">.</text>
<text x="298.66" y="297.85">.</text>
<text x="455.70" y="195.05">.</text>
<text x="46.63" y="369.59">*</text>
<text x="189.92" y="125.29">+</text>
<text x="25.40" y="88.00">+</text>
<text x="367.91" y="419.03">+</text>
<text x="409.40" y="427.19">+</text>
<text x="319.67" y="253.52">.</text>
<text x="499.72" y="205.62">.</text>
<text x="418.22" y="39.13">.</text>
<text x="101.69" y="396.46">*</text>
<text x="100.76" y="259.73">.</text>
<text x="153.94" y="394.04">+</text>
<text x="159.04" y="333.13">.</text>
<text x="291.96" y="423.01">+</text>
<text x="138.08" y="424.38">.</text>
<text x="20.93" y="197.91">+</text>
<text x="183.60" y="1.14">.</text>
<text x="424.62" y="303.26">*</text>
<text x="430.68" y="349.73">+</text>
<text x="456.10" y="426.42">.</text>
<text x="331.67" y="164.54">*</text>
<text x="460.04" y="339.00">.</text>
<text x="113.23" y="220.76">*</text>
<text x="495.03" y="105.44">+</text>
<text x="352.75" y="476.76">.</text>
<text x="431.71" y="206.67">.</text>
<text x="411.64" y="137.46">+</text>
<text x="289.92" y="307.60">.</text>
<text x="48.91" y="118.37">+</text>
<text x="430.25" y="239.26">+</text>
<text x="113.15" y="370.10">+</text>
<text x="290.77" y="84.63">+</text>
<text x="121.03" y="93.52">+</text>
<text x="62.39" y="443.24">+</text>
<text x="134.21" y="314.82">*</text>
<text x="34.61" y="219.75">+</text>
<text x="468.86" y="116.27">.</text>
<text x="88.36" y="236.93">.</text>
<text x="295.64" y="63.81">.</text>
<text x="259.35" y="224.51">+</text>
<text x="442.57" y="233.98">+</text>
<text x="449.64" y="275.92">*</text>
<text x="179.86" y="269.26">+</text>
<text x="348.53" y="86.44">+</text>
<text x="421.35" y="78.64">+</text>
<text x="411.82" y="485.89">+</text>
<text x="277.62" y="243.94">*</text>
<text x="141.29" y="292.78">*</text>
<text x="412.29" y="45.90">.</text>
<text x="19.22" y="183.27">+</text>
<text x="220.87" y="73.51">+</text>
<text x="317.62" y="349.33">.</text>
<text x="11.81" y="180.28">+</text>
<text x="285.20" y="314.58">+</text>
<text x="45.23" y="181.34">+</text>
<text x="217.89" y="314.56">*</text>
<text x="140.69" y="222.76">+</text>
<text x="327.87" y="99.21">+</text>
<text x="290.68" y="82.06">+</text>
<text x="144.24" y="56.21">.</text>
<text x="430.66" y="168.97">.</text>
<text x="15.94" y="77.73">.</text>
<text x="24.21" y="459.26">*</text>
<text x="57.72" y="10.72">+</text>
<text x="261.01" y="374.55">.</text>
<text x="303.50" y="396.14">+</text>
<text x="440.55" y="160.57">+</text>
<text x="446.70" y="301.52">+</text>
<text x="365.75" y="491.90">*</text>
<text x="455.95" y="292.12">*</text>
<text x="302.74" y="269.65">*</text>
<text x="128.60" y="107.26">+</text>
<text x="119.56" y="385.88">.</text>
<text x="163.32" y="482.06">+</text>
<text x="335.49" y="305.50">*</text>
<text x="21.82" y="235.76">*</text>
<text x="382.17" y="347.18">*</text>
<text x="279.99" y="440.86">.</text>
<text x="444.73" y="50.92">.</text>
<text x="423.59" y="154.56">.</text>
<text x="341.19" y="17.09">+</text>
<text x="412.97" y="34.94">.</text>
<text x="140.04" y="485.17">+</text>
<text x="384.98" y="42.86">.</text>
<text x="279.28" y="37.66">.</text>
<text x="435.64" y="97.59">.</text>
<text x="66.62" y="222.93">+</text>
<text x="93.94" y="358.46">+</text>
<text x="74.51" y="130.45">.</text>
<text x="88.91" y="221.14">.</text>
<text x="416.70" y="270.63">.</text>
<text x="434.05" y="144.68">*</text>
<text x="150.97" y="284.23">+</text>
<text x="361.44" y="493.02">+</text>
<text x="420.00" y="185.51">*</text>
<text x="422.53" y="449.01">*</text>
<text x="249.38" y="267.12">+</text>
<text x="223.83" y="283.95">.</text>
<text x="496.20" y="466.08">+</text>
<text x="410.16" y="408.33">*</text>
<text x="189.25" y="422.21">*</text>
<text x="456.46" y="227.18">.</text>
<text x="441.43" y="300.40">+</text>
<text x="459.43" y="56.80">.</text>
<text x="311.15" y="165.91">+</text>
<text x="218.36" y="4.93">+</text>
<text x="29.86" y="371.46">.</text>
<text x="194.50" y="113.48">+</text>
<text x="13.40" y="67.30">+</text>
<text x="95.24" y="48.25">.</text>
<text x="6.94" y="11.67">.</text>
<text x="331.82" y="155.42">+</text>
<text x="23.19" y="168.79">+</text>
<text x="476.90" y="41.11">+</text>
<text x="440.68" y="338.67">+</text>
<text x="321.26" y="201.77">.</text>
<text x="495.84" y="313.80">+</text>
<text x="333.91" y="30.35">+</text>
<text x="157.38" y="471.70">.</text>
<text x="89.60" y="331.47">.</text>
<text x="100.19" y="79.60">+</text>
<text x="345.80" y="148.74">.</text>
<text x="166.30" y="275.01">.</text>
<text x="6.11" y="433.36">.</text>
<text x="283.12" y="84.88">+</text>
<text x="383.11" y="79.51">+</text>
<text x="103.92" y="415.07">+</text>
<text x="316.54" y="8.54">+</text>
<text x="428.09" y="71.06">+</text>
<text x="262.83" y="227.19">.</text>
<text x="0.96" y="280.11">+</text>
<text x="19.49" y="426.14">+</text>
<text x="317.88" y="250.67">.</text>
<text x="306.64" y="19.82">+</text>
<text x="393.98" y="329.62">+</text>
<text x="320.08" y="134.57">.</text>
<text x="168.72" y="385.31">.</text>
<text x="498.52" y="445.82">.</text>
<text x="367.37" y="183.95">.</text>
<text x="499.78" y="430.88">+</text>
<text x="314.27" y="60.85">+</text>
<text x="276.61" y="341.54">.</text>
<text x="233.82" y="397.37">+</text>
<text x="463.17" y="151.97">+</text>
<text x="21.54" y="432.38">+</text>
<text x="417.28" y="95.74">.</text>
<text x="139.30" y="246.91">+</text>
<text x="167.25" y="305.77">+</text>
<text x="313.82" y="321.14">*</text>
<text x="40.02" y="452.26">.</text>
<text x="350.15" y="401.71">.</text>
<text x="126.66" y="373.61">*</text>
<text x="468.28" y="249.12">+</text>
<text x="8.46" y="355.17">.</text>
<text x="168.06" y="49.17">.</text>
<text x="120.57" y="487.01">+</text>
<text x="466.74" y="366.41">.</text>
<text x="76.71" y="458.58">.</text>
<text x="485.35" y="223.16">*</text>
<text x="459.71" y="209.28">+</text>
<text x="291.72" y="199.02">+</text>

</svg>