
<svg viewBox="0 0 500 500" xmlns="http://www.w.org/2000/svg" width="100%" height="100%" style="background-color: #0a0a14; font-family: 'Courier New', Courier, monospace;">
    <style>
        text { fill: #aaa; font-size: 10px; text-anchor: middle; dominant-baseline: middle; }
    </style>
    <text x="383.54" y="406.31">.</text>
<text x="166.17" y="64.65">.</text>
<text x="67.30" y="456.27">.</text>
<text x="283.40" y="95.90">.</text>
<text x="485.70" y="7.17">+</text>
<text x="434.56" y="230.99">+</text>
<text x="448.85" y="14.52">.</text>
<text x="69.83" y="138.63">+</text>
<text x="84.58" y="406.66">*</text>
<text x="57.00" y="27.67">+</text>
<text x="369.12" y="24.26">+</text>
<text x="489.01" y="60.33">.</text>
<text x="202.63" y="400.80">.</text>
<text x="369.08" y="430.72">.</text>
<text x="223.66" y="270.93">.</text>
<text x="252.91" y="400.48">.</text>
<text x="348.17" y="235.66">+</text>
<text x="207.18" y="83.09">.</text>
<text x="344.82" y="273.75">.</text>
<text x="160.88" y="284.34">.</text>
<text x="335.52" y="30.90">*</text>
<text x="411.48" y="99.33">+</text>
<text x="338.41" y="361.38">+</text>
<text x="418.95" y="243.34">*</text>
<text x="288.61" y="496.59">+</text>
<text x="139.74" y="121.56">+</text>
<text x="80.11" y="52.93">.</text>
<text x="433.72" y="338.25">.</text>
<text x="316.06" y="382.67">.</text>
<text x="378.20" y="24.71">.</text>
<text x="343.97" y="481.47">.</text>
<text x="175.32" y="459.07">.</text>
<text x="178.90" y="417.34">*</text>
<text x="360.70" y="452.13">+</text>
<text x="6.18" y="379.59">.</text>
<text x="132.69" y="245.51">.</text>
<text x="418.91" y="370.21">+</text>
<text x="359.86" y="298.51">.</text>
<text x="360.32" y="263.59">.</text>
<text x="177.04" y="126.79">+</text>
<text x="136.14" y="435.99">+</text>
<text x="465.72" y="101.99">.</text>
<text x="227.15" y="81.06">+</text>
<text x="147.66" y="267.27">.</text>
<text x="98.88" y="364.47">.</text>
<text x="93.92" y="344.15">+</text>
<text x="406.07" y="26.30">*</text>
<text x="117.23" y="364.28">*</text>
<text x="417.84" y="375.62">*</text>
<text x="179.22" y="161.69">+</text>
<text x="376.13" y="165.19">.</text>
<text x="447.41" y="237.82">+</text>
<text x="170.01" y="239.43">.</text>
<text x="217.79" y="138.88">.</text>
<text x="341.73" y="283.46">+</text>
<text x="142.41" y="372.56">+</text>
<text x="20.42" y="358.60">.</text>
<text x="180.87" y="405.09">.</text>
<text x="308.42" y="104.29">+</text>
<text x="321.17" y="237.82">+</text>
<text x="330.07" y="399.33">*</text>
<text x="24.86" y="450.08">+</text>
<text x="101.54" y="183.60">*</text>
<text x="166.96" y="232.90">*</text>
<text x="61.55" y="442.63">.</text>
<text x="294.87" y="254.21">.</text>
<text x="382.92" y="475.40">+</text>
<text x="403.48" y="319.28">+</text>
<text x="436.66" y="385.60">.</text>
<text x="273.09" y="231.85">+</text>
<text x="339.88" y="389.33">+</text>
<text x="130.20" y="465.79">+</text>
<text x="489.10" y="180.09">+</text>
<text x="466.12" y="254.64">*</text>
<text x="382.17" y="395.07">*</text>
<text x="278.43" y="16.00">+</text>
<text x="488.22" y="110.38">*</text>
<text x="153.79" y="81.30">.</text>
<text x="423.95" y="427.37">+</text>
<text x="100.00" y="269.30">.</text>
<text x="486.14" y="266.39">.</text>
<text x="168.04" y="279.05">.</text>
<text x="458.21" y="45.06">+</text>
<text x="198.73" y="266.98">+</text>
<text x="233.04" y="430.44">+</text>
<text x="259.87" y="319.43">+</text>
<text x="233.62" y="375.28">+</text>
<text x="442.69" y="16.05">+</text>
<text x="169.50" y="127.44">+</text>
<text x="15.20" y="377.01">+</text>
<text x="408.44" y="366.72">.</text>
<text x="328.07" y="344.74">.</text>
<text x="0.18" y="309.17">.</text>
<text x="496.54" y="449.47">.</text>
<text x="476.54" y="257.68">+</text>
<text x="116.42" y="77.56">+</text>
<text x="33.59" y="307.95">.</text>
<text x="45.58" y="297.57">+</text>
<text x="184.15" y="177.36">*</text>
<text x="170.94" y="156.33">+</text>
<text x="171.88" y="493.88">+</text>
<text x="68.08" y="35.34">.</text>
<text x="317.75" y="270.50">.</text>
<text x="338.62" y="283.27">.</text>
<text x="142.26" y="46.51">*</text>
<text x="226.84" y="397.09">+</text>
<text x="132.53" y="430.75">*</text>
<text x="166.13" y="375.45">.</text>
<text x="487.48" y="351.36">+</text>
<text x="96.60" y="271.01">+</text>
<text x="307.50" y="448.29">.</text>
<text x="187.00" y="479.22">.</text>
<text x="202.81" y="233.70">*</text>
<text x="31.02" y="295.46">.</text>
<text x="321.50" y="131.02">+</text>
<text x="460.90" y="171.62">.</text>
<text x="334.35" y="192.07">*</text>
<text x="253.70" y="265.18">.</text>
<text x="7.27" y="419.38">*</text>
<text x="21.89" y="35.97">.</text>
<text x="280.55" y="102.88">+</text>
<text x="493.18" y="148.88">+</text>
<text x="428.77" y="252.80">.</text>
<text x="326.74" y="273.36">.</text>
<text x="78.59" y="342.40">*</text>
<text x="344.42" y="1.26">+</text>
<text x="72.67" y="24.47">+</text>
<text x="331.59" y="444.80">+</text>
<text x="192.84" y="363.70">.</text>
<text x="327.50" y="154.33">.</text>
<text x="177.02" y="73.22">.</text>
<text x="337.52" y="14.97">*</text>
<text x="300.78" y="251.55">+</text>
<text x="469.96" y="307.76">+</text>
<text x="298.51" y="446.94">.</text>
<text x="382.84" y="2.31">.</text>
<text x="253.16" y="245.43">+</text>
<text x="171.88" y="330.94">+</text>
<text x="463.77" y="375.56">*</text>
<text x="492.83" y="32.86">+</text>
<text x="152.39" y="303.82">.</text>
<text x="362.53" y="208.00">*</text>
<text x="142.58" y="206.21">+</text>
<text x="127.12" y="207.95">.</text>
<text x="142.06" y="358.48">+</text>
<text x="389.27" y="477.96">.</text>
<text x="296.40" y="207.81">.</text>
<text x="463.93" y="194.94">.</text>
<text x="497.76" y="74.42">+</text>
<text x="473.50" y="196.25">+</text>
<text x="13.13" y="275.00">*</text>
<text x="365.91" y="354.21">+</text>
<text x="35.68" y="370.62">.</text>
<text x="272.86" y="51.97">.</text>
<text x="83.17" y="103.59">.</text>
<text x="446.44" y="297.08">.</text>
<text x="47.17" y="28.18">.</text>
<text x="41.93" y="178.15">*</text>
<text x="294.39" y="93.96">+</text>
<text x="217.81" y="317.47">+</text>
<text x="328.02" y="388.85">.</text>
<text x="48.72" y="307.58">.</text>
<text x="87.89" y="18.03">+</text>
<text x="5.19" y="301.11">+</text>
<text x="152.89" y="404.82">.</text>
<text x="472.58" y="7.34">*</text>
<text x="213.04" y="230.17">.</text>
<text x="156.64" y="192.17">+</text>
<text x="258.37" y="53.70">.</text>
<text x="492.78" y="431.13">+</text>
<text x="72.61" y="451.78">.</text>
<text x="246.59" y="414.77">+</text>
<text x="342.23" y="414.74">+</text>
<text x="393.18" y="282.70">.</text>
<text x="321.97" y="296.53">.</text>
<text x="152.27" y="148.96">.</text>
<text x="380.85" y="252.20">.</text>
<text x="187.10" y="451.21">.</text>
<text x="419.76" y="142.66">.</text>
<text x="348.21" y="271.25">+</text>
<text x="178.02" y="483.47">.</text>
<text x="11.05" y="28.75">*</text>
<text x="468.83" y="144.44">*</text>
<text x="219.93" y="22.38">.</text>
<text x="352.14" y="427.34">.</text>
<text x="357.38" y="6.48">.</text>
<text x="419.59" y="388.62">+</text>
<text x="101.57" y="387.40">.</text>
<text x="110.71" y="403.76">+</text>
<text x="80.87" y="164.80">+</text>
<text x="47.28" y="55.66">+</text>
<text x="78.55" y="488.58">.</text>
<text x="410.71" y="116.85">+</text>
<text x="413.83" y="265.82">+</text>
<text x="273.78" y="26.74">.</text>
<text x="394.91" y="81.15">.</text>
<text x="44.86" y="126.62">*</text>
<text x="262.26" y="94.05">+</text>
<text x="246.70" y="91.06">*</text>
<text x="185.17" y="298.60">+</text>
<text x="279.62" y="215.18">*</text>
<text x="76.45" y="249.03">+</text>
<text x="167.01" y="443.36">.</text>
<text x="110.09" y="308.48">+</text>

</svg>