
<svg viewBox="0 0 500 500" xmlns="http://www.w.org/2000/svg" width="100%" height="100%" style="background-color: #0a0a14; font-family: 'Courier New', Courier, monospace;">
    <style>
        text { fill: #aaa; font-size: 10px; text-anchor: middle; dominant-baseline: middle; }
    </style>
    <text x="108.18" y="63.97">+</text>
<text x="385.59" y="8.83">+</text>
<text x="492.07" y="427.64">.</text>
<text x="362.53" y="156.31">.</text>
<text x="97.08" y="475.11">.</text>
<text x="160.06" y="198.64">+</text>
<text x="13.22" y="88.98">+</text>
<text x="257.99" y="92.41">.</text>
<text x="48.78" y="214.68">.</text>
<text x="436.71" y="424.27">.</text>
<text x="176.80" y="259.74">.</text>
<text x="412.22" y="255.40">.</text>
<text x="212.70" y="117.38">.</text>
<text x="498.88" y="350.53">+</text>
<text x="163.00" y="287.44">+</text>
<text x="254.11" y="77.12">+</text>
<text x="205.16" y="322.60">.</text>
<text x="7.20" y="81.02">.</text>
<text x="292.02" y="495.76">.</text>
<text x="100.32" y="32.92">+</text>
<text x="295.49" y="233.67">.</text>
<text x="235.94" y="23.96">*</text>
<text x="429.69" y="247.55">+</text>
<text x="485.02" y="16.75">+</text>
<text x="78.28" y="256.60">+</text>
<text x="373.64" y="496.61">+</text>
<text x="484.40" y="71.99">.</text>
<text x="337.40" y="349.12">+</text>
<text x="303.12" y="482.71">+</text>
<text x="422.23" y="431.43">.</text>
<text x="52.93" y="480.96">*</text>
<text x="43.08" y="457.86">*</text>
<text x="153.88" y="90.71">*</text>
<text x="475.07" y="458.50">+</text>
<text x="290.07" y="437.20">*</text>
<text x="440.98" y="228.81">.</text>
<text x="400.11" y="495.46">+</text>
<text x="62.59" y="330.13">+</text>
<text x="234.32" y="365.30">.</text>
<text x="0.11" y="418.48">.</text>
<text x="314.62" y="421.75">.</text>
<text x="314.65" y="77.97">.</text>
<text x="61.40" y="458.46">+</text>
<text x="245.27" y="91.71">+</text>
<text x="335.81" y="156.94">+</text>
<text x="363.64" y="212.64">+</text>
<text x="219.33" y="461.21">*</text>
<text x="245.65" y="203.10">.</text>
<text x="346.50" y="265.78">*</text>
<text x="372.32" y="481.88">.</text>
<text x="318.83" y="366.86">+</text>
<text x="49.29" y="267.77">*</text>
<text x="187.65" y="67.30">+</text>
<text x="89.26" y="291.62">*</text>
<text x="460.64" y="269.12">.</text>
<text x="194.53" y="266.66">.</text>
<text x="312.12" y="278.78">.</text>
<text x="129.43" y="168.72">*</text>
<text x="333.44" y="384.97">.</text>
<text x="283.18" y="496.40">+</text>
<text x="124.71" y="298.63">.</text>
<text x="228.00" y="274.09">+</text>
<text x="179.93" y="190.66">+</text>
<text x="264.90" y="49.98">*</text>
<text x="475.78" y="200.95">+</text>
<text x="45.05" y="76.08">+</text>
<text x="79.58" y="400.12">+</text>
<text x="253.50" y="464.26">+</text>
<text x="50.81" y="358.21">+</text>
<text x="455.00" y="184.44">+</text>
<text x="157.54" y="415.37">+</text>
<text x="447.91" y="144.86">.</text>
<text x="254.31" y="355.94">+</text>
<text x="63.64" y="466.75">.</text>
<text x="144.57" y="141.04">+</text>
<text x="85.55" y="476.94">+</text>
<text x="213.96" y="405.33">.</text>
<text x="110.77" y="363.70">+</text>
<text x="407.08" y="181.89">.</text>
<text x="404.74" y="128.93">.</text>
<text x="371.35" y="414.29">*</text>
<text x="130.84" y="275.05">+</text>
<text x="52.30" y="290.37">.</text>
<text x="48.27" y="266.36">+</text>
<text x="403.64" y="490.20">+</text>
<text x="13.09" y="94.04">.</text>
<text x="427.68" y="6.11">.</text>
<text x="248.27" y="458.84">.</text>
<text x="366.49" y="204.28">+</text>
<text x="264.41" y="432.06">.</text>
<text x="271.31" y="98.40">*</text>
<text x="451.70" y="168.86">+</text>
<text x="305.92" y="489.90">+</text>
<text x="408.40" y="447.57">.</text>
<text x="337.53" y="270.18">+</text>
<text x="435.18" y="74.87">*</text>
<text x="57.91" y="424.07">+</text>
<text x="39.79" y="41.95">*</text>
<text x="145.38" y="353.03">+</text>
<text x="220.15" y="238.97">*</text>
<text x="27.03" y="62.93">*</text>
<text x="236.04" y="154.85">+</text>
<text x="421.38" y="292.49">*</text>
<text x="218.66" y="441.59">.</text>
<text x="469.27" y="445.31">+</text>
<text x="496.95" y="284.84">+</text>
<text x="12.86" y="273.06">*</text>
<text x="304.82" y="83.86">.</text>
<text x="353.67" y="205.41">*</text>
<text x="275.52" y="213.23">+</text>
<text x="465.85" y="477.39">.</text>
<text x="291.93" y="255.36">.</text>
<text x="132.56" y="107.12">+</text>
<text x="406.64" y="32.44">+</text>
<text x="376.60" y="22.69">.</text>
<text x="224.58" y="383.23">+</text>
<text x="339.17" y="335.59">+</text>
<text x="195.64" y="407.79">+</text>
<text x="19.88" y="40.27">.</text>
<text x="169.92" y="495.33">.</text>
<text x="163.25" y="470.45">+</text>
<text x="463.56" y="474.17">.</text>
<text x="233.25" y="448.80">.</text>
<text x="199.81" y="314.43">.</text>
<text x="173.21" y="226.19">+</text>
<text x="60.95" y="204.62">+</text>
<text x="345.32" y="282.45">.</text>
<text x="460.86" y="87.33">.</text>
<text x="251.43" y="166.28">.</text>
<text x="243.94" y="307.88">*</text>
<text x="130.97" y="128.85">.</text>
<text x="254.81" y="174.69">+</text>
<text x="297.17" y="455.20">.</text>
<text x="135.08" y="466.54">+</text>
<text x="436.58" y="241.83">.</text>
<text x="342.80" y="260.09">.</text>
<text x="213.11" y="437.65">+</text>
<text x="465.57" y="327.51">.</text>
<text x="424.84" y="76.89">.</text>
<text x="192.10" y="496.42">+</text>
<text x="8.32" y="429.85">+</text>
<text x="278.33" y="9.16">*</text>
<text x="246.19" y="168.61">+</text>
<text x="309.65" y="331.02">.</text>
<text x="252.86" y="141.34">.</text>
<text x="81.22" y="233.82">+</text>
<text x="280.17" y="13.91">+</text>
<text x="109.37" y="479.15">.</text>
<text x="156.27" y="119.40">.</text>
<text x="235.21" y="116.82">.</text>
<text x="252.86" y="14.46">.</text>
<text x="9.37" y="23.67">*</text>
<text x="477.12" y="374.16">.</text>
<text x="115.68" y="289.39">.</text>
<text x="70.51" y="341.20">.</text>
<text x="89.21" y="145.80">+</text>
<text x="25.23" y="259.07">*</text>
<text x="378.91" y="487.66">*</text>
<text x="292.00" y="77.82">+</text>
<text x="452.96" y="473.04">+</text>
<text x="220.55" y="207.57">*</text>
<text x="414.09" y="11.53">.</text>
<text x="495.79" y="152.60">.</text>
<text x="333.91" y="132.16">.</text>
<text x="303.55" y="490.14">.</text>
<text x="21.55" y="122.03">+</text>
<text x="332.73" y="483.41">+</text>
<text x="432.48" y="84.91">.</text>
<text x="30.48" y="238.50">.</text>
<text x="295.68" y="310.09">+</text>
<text x="428.02" y="273.23">+</text>
<text x="170.71" y="342.68">+</text>
<text x="379.90" y="409.28">+</text>
<text x="351.90" y="316.19">.</text>
<text x="255.50" y="220.29">+</text>
<text x="472.87" y="108.70">.</text>
<text x="136.60" y="229.80">+</text>
<text x="290.95" y="465.51">.</text>
<text x="16.71" y="92.37">.</text>
<text x="68.13" y="395.65">+</text>
<text x="482.77" y="44.76">.</text>
<text x="30.47" y="130.38">+</text>
<text x="154.66" y="78.91">.</text>
<text x="29.49" y="4.19">.</text>
<text x="60.51" y="395.59">+</text>
<text x="239.24" y="452.02">.</text>
<text x="229.47" y="54.39">+</text>
<text x="450.00" y="124.22">+</text>
<text x="145.76" y="69.70">*</text>
<text x="243.34" y="54.05">+</text>
<text x="219.46" y="391.08">+</text>
<text x="229.34" y="485.61">+</text>
<text x="192.23" y="358.48">.</text>
<text x="77.67" y="198.41">+</text>
<text x="62.24" y="25.56">.</text>
<text x="424.76" y="88.61">*</text>
<text x="40.71" y="418.03">.</text>
<text x="214.31" y="335.87">.</text>
<text x="354.87" y="394.16">+</text>
<text x="432.39" y="4.64">.</text>
<text x="193.14" y="1.43">+</text>
<text x="453.14" y="143.73">+</text>
<text x="67.91" y="498.06">.</text>
<text x="271.24" y="266.52">.</text>
<text x="149.62" y="71.52">+</text>
<text x="151.33" y="424.51">.</text>
<text x="488.73" y="498.70">*</text>
<text x="105.56" y="115.89">.</text>
<text x="269.81" y="75.56">*</text>
<text x="279.36" y="8.78">.</text>
<text x="148.78" y="269.57">.</text>
<text x="117.63" y="17.01">+</text>
<text x="408.08" y="142.14">.</text>
<text x="95.90" y="246.89">*</text>

</svg>