
<svg viewBox="0 0 500 500" xmlns="http://www.w.org/2000/svg" width="100%" height="100%" style="background-color: #0a0a14; font-family: 'Courier New', Courier, monospace;">
    <style>
        text { fill: #aaa; font-size: 10px; text-anchor: middle; dominant-baseline: middle; }
    </style>
    <text x="353.26" y="389.79">+</text>
<text x="316.88" y="12.89">.</text>
<text x="137.60" y="162.42">+</text>
<text x="226.70" y="97.00">+</text>
<text x="64.76" y="1.79">.</text>
<text x="212.31" y="423.08">.</text>
<text x="24.40" y="285.24">+</text>
<text x="462.06" y="370.41">.</text>
<text x="47.82" y="491.38">+</text>
<text x="132.50" y="76.73">*</text>
<text x="195.76" y="215.47">+</text>
<text x="120.07" y="209.56">.</text>
<text x="266.77" y="214.19">+</text>
<text x="136.08" y="326.77">.</text>
<text x="3.51" y="178.31">.</text>
<text x="318.83" y="468.71">.</text>
<text x="18.45" y="191.48">+</text>
<text x="235.19" y="273.34">.</text>
<text x="494.30" y="62.75">+</text>
<text x="285.80" y="466.34">+</text>
<text x="143.15" y="294.90">.</text>
<text x="162.19" y="416.07">.</text>
<text x="235.54" y="182.74">+</text>
<text x="94.92" y="284.38">*</text>
<text x="480.04" y="450.00">.</text>
<text x="224.54" y="362.58">.</text>
<text x="16.27" y="389.55">+</text>
<text x="220.00" y="304.08">+</text>
<text x="489.92" y="307.79">.</text>
<text x="129.85" y="378.71">+</text>
<text x="202.16" y="390.74">+</text>
<text x="353.24" y="62.06">.</text>
<text x="314.82" y="224.70">+</text>
<text x="279.14" y="326.18">.</text>
<text x="42.07" y="339.04">.</text>
<text x="496.65" y="170.63">+</text>
<text x="455.19" y="418.92">.</text>
<text x="102.27" y="468.93">*</text>
<text x="19.48" y="55.22">.</text>
<text x="266.39" y="135.14">+</text>
<text x="360.93" y="80.92">*</text>
<text x="406.04" y="228.87">.</text>
<text x="109.75" y="165.28">*</text>
<text x="214.28" y="99.04">+</text>
<text x="118.07" y="111.12">.</text>
<text x="411.48" y="381.73">+</text>
<text x="80.67" y="153.43">.</text>
<text x="57.81" y="479.56">.</text>
<text x="169.86" y="149.53">*</text>
<text x="353.04" y="142.24">*</text>
<text x="67.69" y="24.76">+</text>
<text x="380.11" y="251.77">.</text>
<text x="67.47" y="62.30">+</text>
<text x="284.79" y="468.99">.</text>
<text x="406.95" y="410.24">*</text>
<text x="392.98" y="5.91">+</text>
<text x="324.14" y="302.74">.</text>
<text x="297.18" y="255.42">.</text>
<text x="0.26" y="39.13">+</text>
<text x="378.34" y="59.32">*</text>
<text x="88.21" y="136.74">.</text>
<text x="281.20" y="86.78">.</text>
<text x="149.56" y="124.94">+</text>
<text x="331.32" y="144.53">.</text>
<text x="92.56" y="258.95">+</text>
<text x="203.90" y="48.44">.</text>
<text x="44.53" y="67.29">+</text>
<text x="404.78" y="320.86">.</text>
<text x="227.34" y="457.92">+</text>
<text x="134.65" y="215.82">.</text>
<text x="273.67" y="334.72">+</text>
<text x="298.27" y="460.27">.</text>
<text x="384.60" y="18.65">.</text>
<text x="173.77" y="483.55">.</text>
<text x="68.67" y="147.95">+</text>
<text x="459.23" y="77.96">+</text>
<text x="92.90" y="410.31">.</text>
<text x="492.46" y="244.50">+</text>
<text x="143.55" y="238.58">.</text>
<text x="489.94" y="197.45">.</text>
<text x="342.49" y="322.92">+</text>
<text x="250.33" y="479.82">*</text>
<text x="390.61" y="166.91">.</text>
<text x="107.38" y="435.45">*</text>
<text x="282.20" y="417.83">*</text>
<text x="84.90" y="463.57">.</text>
<text x="458.93" y="335.53">.</text>
<text x="257.70" y="223.44">.</text>
<text x="415.16" y="281.27">.</text>
<text x="122.05" y="157.04">.</text>
<text x="184.52" y="427.94">.</text>
<text x="189.02" y="92.23">+</text>
<text x="410.56" y="286.39">.</text>
<text x="387.65" y="284.45">*</text>
<text x="19.92" y="186.94">.</text>
<text x="12.14" y="386.45">.</text>
<text x="201.76" y="72.37">.</text>
<text x="487.81" y="281.39">.</text>
<text x="385.71" y="41.83">.</text>
<text x="350.47" y="432.83">+</text>
<text x="290.64" y="450.22">+</text>
<text x="345.21" y="355.64">.</text>
<text x="135.42" y="312.07">.</text>
<text x="221.49" y="475.28">*</text>
<text x="72.97" y="130.10">.</text>
<text x="242.02" y="297.56">+</text>
<text x="479.12" y="399.50">.</text>
<text x="479.53" y="431.18">.</text>
<text x="370.69" y="54.69">.</text>
<text x="8.72" y="390.17">*</text>
<text x="19.59" y="234.70">.</text>
<text x="173.63" y="328.51">.</text>
<text x="164.42" y="323.72">+</text>
<text x="457.80" y="222.58">.</text>
<text x="297.74" y="269.12">+</text>
<text x="430.79" y="282.56">+</text>
<text x="289.68" y="458.72">.</text>
<text x="213.07" y="463.17">+</text>
<text x="450.94" y="497.98">+</text>
<text x="273.02" y="159.80">+</text>
<text x="125.08" y="57.69">+</text>
<text x="56.21" y="343.23">+</text>
<text x="386.18" y="162.74">*</text>
<text x="18.95" y="404.20">+</text>
<text x="36.72" y="341.84">+</text>
<text x="456.34" y="347.61">*</text>
<text x="0.47" y="40.96">*</text>
<text x="122.57" y="181.57">.</text>
<text x="267.76" y="324.00">+</text>
<text x="34.05" y="324.90">.</text>
<text x="39.96" y="305.03">.</text>
<text x="259.86" y="162.12">+</text>
<text x="195.63" y="313.12">+</text>
<text x="340.56" y="419.05">*</text>
<text x="82.98" y="34.79">+</text>
<text x="79.51" y="330.81">+</text>
<text x="441.90" y="221.39">+</text>
<text x="345.28" y="173.54">+</text>
<text x="325.85" y="14.83">+</text>
<text x="220.98" y="160.79">+</text>
<text x="402.81" y="168.57">+</text>
<text x="380.37" y="475.99">*</text>
<text x="200.24" y="448.15">+</text>
<text x="427.87" y="119.46">*</text>
<text x="45.90" y="489.04">+</text>
<text x="430.25" y="71.85">+</text>
<text x="93.13" y="159.21">*</text>
<text x="430.17" y="412.55">+</text>
<text x="402.73" y="442.67">+</text>
<text x="438.96" y="25.70">*</text>
<text x="453.91" y="40.89">.</text>
<text x="1.36" y="458.53">+</text>
<text x="18.12" y="193.54">+</text>
<text x="75.96" y="69.65">+</text>
<text x="160.19" y="366.90">.</text>
<text x="462.21" y="392.63">+</text>
<text x="205.38" y="69.54">.</text>
<text x="294.64" y="354.29">+</text>
<text x="279.27" y="8.28">+</text>
<text x="203.14" y="445.37">+</text>
<text x="363.10" y="392.19">+</text>
<text x="370.61" y="94.14">.</text>
<text x="336.32" y="82.49">+</text>
<text x="125.89" y="57.47">*</text>
<text x="128.37" y="123.12">+</text>
<text x="234.31" y="55.20">*</text>
<text x="421.04" y="270.30">*</text>
<text x="467.75" y="442.78">*</text>
<text x="263.74" y="329.74">+</text>
<text x="105.35" y="299.20">+</text>
<text x="281.28" y="347.05">+</text>
<text x="323.24" y="415.33">+</text>
<text x="455.92" y="496.73">+</text>
<text x="396.40" y="492.32">+</text>
<text x="379.75" y="410.13">+</text>
<text x="277.21" y="165.94">*</text>
<text x="277.14" y="76.57">+</text>
<text x="329.90" y="477.49">.</text>
<text x="354.95" y="222.06">.</text>
<text x="395.15" y="477.86">.</text>
<text x="415.17" y="478.11">.</text>
<text x="286.47" y="344.32">+</text>
<text x="17.13" y="373.65">*</text>
<text x="238.27" y="359.95">.</text>
<text x="423.27" y="41.31">+</text>
<text x="345.00" y="255.80">+</text>
<text x="309.34" y="8.93">.</text>
<text x="51.29" y="453.93">+</text>
<text x="126.37" y="220.83">.</text>
<text x="217.59" y="48.98">*</text>
<text x="421.65" y="162.31">+</text>
<text x="305.95" y="179.60">.</text>
<text x="404.96" y="0.85">.</text>
<text x="301.39" y="141.53">+</text>
<text x="62.18" y="92.69">.</text>
<text x="108.19" y="419.47">+</text>
<text x="307.48" y="39.59">.</text>
<text x="4.46" y="141.14">*</text>
<text x="33.38" y="377.20">+</text>
<text x="207.98" y="243.99">+</text>
<text x="370.35" y="243.93">+</text>
<text x="269.31" y="112.29">*</text>
<text x="460.68" y="154.00">.</text>
<text x="484.98" y="133.22">.</text>
<text x="443.96" y="235.46">.</text>
<text x="164.31" y="83.09">.</text>
<text x="265.15" y="422.63">.</text>
<text x="190.71" y="134.47">*</text>
<text x="78.03" y="362.35">.</text>
<text x="75.89" y="133.64">+</text>
<text x="222.55" y="131.19">*</text>
<text x="10.23" y="92.32">.</text>
<text x="479.36" y="72.81">+</text>
<text x="167.56" y="484.40">*</text>
<text x="268.79" y="362.66">.</text>
<text x="362.67" y="116.56">.</text>
<text x="146.77" y="45.42">+</text>
<text x="126.47" y="420.58">.</text>
<text x="318.46" y="440.76">.</text>
<text x="282.37" y="235.44">.</text>
<text x="237.34" y="121.69">.</text>
<text x="272.03" y="10.44">*</text>
<text x="19.94" y="78.76">.</text>

</svg>