
<svg viewBox="0 0 500 500" xmlns="http://www.w.org/2000/svg" width="100%" height="100%" style="background-color: #0a0a14; font-family: 'Courier New', Courier, monospace;">
    <style>
        text { fill: #aaa; font-size: 10px; text-anchor: middle; dominant-baseline: middle; }
    </style>
    <text x="116.41" y="20.83">+</text>
<text x="132.01" y="127.87">+</text>
<text x="114.37" y="412.35">*</text>
<text x="385.71" y="152.62">.</text>
<text x="373.42" y="4.84">+</text>
<text x="218.59" y="377.10">+</text>
<text x="150.23" y="364.16">.</text>
<text x="216.93" y="445.48">+</text>
<text x="52.56" y="258.12">.</text>
<text x="279.74" y="114.20">.</text>
<text x="274.39" y="493.71">+</text>
<text x="440.60" y="384.65">+</text>
<text x="319.03" y="121.06">.</text>
<text x="202.70" y="214.48">+</text>
<text x="92.29" y="411.02">.</text>
<text x="77.72" y="237.51">.</text>
<text x="134.82" y="316.58">.</text>
<text x="480.96" y="494.66">+</text>
<text x="342.86" y="481.50">+</text>
<text x="481.87" y="23.83">.</text>
<text x="211.63" y="81.10">.</text>
<text x="483.62" y="258.33">.</text>
<text x="432.35" y="115.84">+</text>
<text x="357.30" y="477.23">.</text>
<text x="353.93" y="436.16">+</text>
<text x="406.67" y="375.98">+</text>
<text x="409.17" y="356.97">.</text>
<text x="358.80" y="353.32">.</text>
<text x="11.69" y="290.78">+</text>
<text x="496.36" y="442.75">+</text>
<text x="354.87" y="425.29">.</text>
<text x="254.40" y="399.12">+</text>
<text x="215.30" y="435.02">+</text>
<text x="131.19" y="385.33">+</text>
<text x="199.26" y="88.24">.</text>
<text x="95.68" y="466.42">+</text>
<text x="264.14" y="244.13">+</text>
<text x="132.71" y="142.78">+</text>
<text x="138.74" y="342.51">+</text>
<text x="65.86" y="160.91">.</text>
<text x="195.56" y="244.22">*</text>
<text x="357.14" y="137.04">.</text>
<text x="260.04" y="39.60">+</text>
<text x="123.36" y="497.54">+</text>
<text x="479.78" y="259.77">+</text>
<text x="6.27" y="497.47">+</text>
<text x="401.26" y="20.39">.</text>
<text x="341.53" y="7.35">.</text>
<text x="105.11" y="420.15">+</text>
<text x="46.85" y="477.38">.</text>
<text x="464.17" y="169.99">.</text>
<text x="395.17" y="403.70">+</text>
<text x="315.06" y="101.58">+</text>
<text x="177.36" y="486.84">+</text>
<text x="69.52" y="339.09">.</text>
<text x="15.56" y="77.96">.</text>
<text x="167.59" y="92.21">*</text>
<text x="222.50" y="289.23">.</text>
<text x="264.10" y="447.14">.</text>
<text x="457.31" y="242.50">*</text>
<text x="373.30" y="292.18">+</text>
<text x="119.25" y="213.68">.</text>
<text x="175.61" y="323.52">+</text>
<text x="88.99" y="75.57">*</text>
<text x="66.09" y="193.53">+</text>
<text x="229.14" y="495.16">+</text>
<text x="321.99" y="326.11">.</text>
<text x="135.13" y="127.37">*</text>
<text x="215.55" y="349.05">.</text>
<text x="321.93" y="5.36">.</text>
<text x="265.79" y="173.83">.</text>
<text x="285.12" y="449.80">*</text>
<text x="379.43" y="203.49">.</text>
<text x="297.80" y="4.41">.</text>
<text x="295.88" y="141.34">.</text>
<text x="354.37" y="386.41">+</text>
<text x="187.08" y="158.20">.</text>
<text x="331.73" y="485.82">*</text>
<text x="134.76" y="378.86">.</text>
<text x="79.36" y="190.30">.</text>
<text x="278.57" y="162.73">+</text>
<text x="401.05" y="205.71">.</text>
<text x="49.78" y="160.18">.</text>
<text x="436.07" y="309.16">.</text>
<text x="444.01" y="194.05">+</text>
<text x="426.26" y="199.65">+</text>
<text x="60.48" y="429.35">.</text>
<text x="182.08" y="339.33">.</text>
<text x="333.58" y="428.50">.</text>
<text x="110.11" y="496.42">.</text>
<text x="280.42" y="27.57">.</text>
<text x="319.02" y="109.82">.</text>
<text x="143.22" y="347.82">+</text>
<text x="214.17" y="260.55">*</text>
<text x="333.67" y="5.22">.</text>
<text x="468.18" y="171.41">+</text>
<text x="186.40" y="211.32">+</text>
<text x="283.89" y="247.98">.</text>
<text x="412.15" y="321.31">.</text>
<text x="34.29" y="108.56">.</text>
<text x="190.40" y="421.89">+</text>
<text x="206.70" y="138.98">.</text>
<text x="171.68" y="390.00">.</text>
<text x="368.28" y="174.42">+</text>
<text x="189.90" y="304.61">+</text>
<text x="216.61" y="124.24">.</text>
<text x="452.72" y="252.70">.</text>
<text x="395.60" y="101.51">.</text>
<text x="456.49" y="377.04">.</text>
<text x="467.04" y="409.22">+</text>
<text x="27.70" y="323.75">.</text>
<text x="499.16" y="490.86">+</text>
<text x="360.80" y="179.11">+</text>
<text x="220.62" y="140.94">+</text>
<text x="173.95" y="311.11">.</text>
<text x="43.50" y="325.84">.</text>
<text x="190.72" y="118.47">*</text>
<text x="20.43" y="458.21">.</text>
<text x="108.71" y="137.19">+</text>
<text x="404.77" y="9.22">+</text>
<text x="150.90" y="336.08">*</text>
<text x="46.84" y="359.55">+</text>
<text x="206.55" y="241.41">.</text>
<text x="476.38" y="196.76">+</text>
<text x="405.10" y="104.45">.</text>
<text x="352.76" y="176.59">+</text>
<text x="154.08" y="197.62">+</text>
<text x="7.40" y="480.27">.</text>
<text x="431.59" y="24.86">+</text>
<text x="88.03" y="236.50">+</text>
<text x="80.50" y="333.57">+</text>
<text x="172.18" y="418.26">.</text>
<text x="300.20" y="431.41">*</text>
<text x="339.48" y="349.05">+</text>
<text x="86.51" y="133.61">.</text>
<text x="129.70" y="120.81">+</text>
<text x="185.21" y="419.14">.</text>
<text x="341.88" y="495.79">*</text>
<text x="467.63" y="424.38">+</text>
<text x="93.41" y="463.92">.</text>
<text x="155.32" y="332.25">.</text>
<text x="144.47" y="305.72">.</text>
<text x="147.21" y="405.67">.</text>
<text x="441.82" y="152.85">+</text>
<text x="137.52" y="115.52">+</text>
<text x="284.72" y="430.48">.</text>
<text x="392.83" y="142.36">*</text>
<text x="259.58" y="306.99">*</text>
<text x="248.27" y="192.42">.</text>
<text x="1.88" y="177.68">+</text>
<text x="223.79" y="236.25">+</text>
<text x="282.04" y="164.09">.</text>
<text x="273.80" y="227.51">+</text>
<text x="219.31" y="386.68">.</text>
<text x="362.26" y="448.63">+</text>
<text x="241.70" y="297.91">.</text>
<text x="185.69" y="492.86">.</text>
<text x="416.42" y="439.89">+</text>
<text x="227.83" y="131.95">*</text>
<text x="383.16" y="404.50">.</text>
<text x="166.99" y="123.28">+</text>
<text x="396.08" y="361.25">.</text>
<text x="340.43" y="190.58">*</text>
<text x="266.47" y="257.58">+</text>
<text x="97.16" y="285.72">+</text>
<text x="224.61" y="74.34">*</text>
<text x="96.37" y="293.14">.</text>
<text x="12.35" y="343.64">.</text>
<text x="235.12" y="143.72">.</text>
<text x="253.52" y="282.64">+</text>
<text x="52.06" y="190.21">.</text>
<text x="219.31" y="498.92">+</text>
<text x="408.02" y="72.85">+</text>
<text x="163.05" y="29.03">.</text>
<text x="293.26" y="312.51">.</text>
<text x="256.30" y="41.38">*</text>
<text x="342.36" y="455.03">*</text>
<text x="358.61" y="297.99">+</text>
<text x="459.27" y="200.69">+</text>
<text x="85.41" y="6.89">+</text>
<text x="147.63" y="301.19">+</text>
<text x="230.79" y="359.24">+</text>
<text x="337.63" y="161.78">+</text>
<text x="436.68" y="443.41">*</text>
<text x="281.31" y="128.67">+</text>
<text x="195.29" y="414.17">+</text>
<text x="251.97" y="15.74">+</text>
<text x="92.02" y="3.73">*</text>
<text x="492.59" y="35.30">*</text>
<text x="236.58" y="416.76">+</text>
<text x="378.67" y="363.79">.</text>
<text x="139.91" y="318.91">+</text>
<text x="365.06" y="215.57">+</text>
<text x="465.67" y="370.27">+</text>
<text x="207.16" y="305.13">.</text>
<text x="459.83" y="93.26">+</text>
<text x="27.54" y="381.52">+</text>
<text x="237.30" y="388.21">*</text>
<text x="347.43" y="164.10">.</text>
<text x="399.81" y="426.89">.</text>
<text x="91.94" y="370.02">+</text>
<text x="3.34" y="443.47">.</text>
<text x="376.61" y="249.00">.</text>
<text x="242.46" y="260.08">+</text>
<text x="106.94" y="168.68">.</text>
<text x="129.19" y="326.23">.</text>
<text x="62.26" y="465.66">+</text>
<text x="352.43" y="480.26">+</text>
<text x="167.89" y="271.53">.</text>
<text x="223.02" y="91.14">.</text>
<text x="63.67" y="393.58">+</text>

</svg>