
<svg viewBox="0 0 500 500" xmlns="http://www.w.org/2000/svg" width="100%" height="100%" style="background-color: #0a0a14; font-family: 'Courier New', Courier, monospace;">
    <style>
        text { fill: #aaa; font-size: 10px; text-anchor: middle; dominant-baseline: middle; }
    </style>
    <text x="266.82" y="166.33">+</text>
<text x="361.49" y="216.45">.</text>
<text x="174.55" y="349.06">+</text>
<text x="320.11" y="281.19">*</text>
<text x="280.76" y="254.71">*</text>
<text x="238.10" y="336.39">.</text>
<text x="298.75" y="233.56">.</text>
<text x="181.72" y="152.21">*</text>
<text x="139.97" y="400.74">+</text>
<text x="386.57" y="312.62">.</text>
<text x="186.04" y="439.95">.</text>
<text x="313.39" y="450.34">+</text>
<text x="362.59" y="257.22">*</text>
<text x="52.76" y="84.21">.</text>
<text x="162.22" y="175.81">.</text>
<text x="331.44" y="309.50">+</text>
<text x="57.27" y="440.45">+</text>
<text x="269.43" y="96.51">.</text>
<text x="245.45" y="319.20">*</text>
<text x="9.24" y="330.23">+</text>
<text x="345.78" y="252.48">+</text>
<text x="257.08" y="303.31">.</text>
<text x="171.70" y="380.43">*</text>
<text x="114.92" y="174.06">.</text>
<text x="492.54" y="189.47">.</text>
<text x="187.70" y="403.66">*</text>
<text x="95.01" y="362.50">.</text>
<text x="314.67" y="403.90">.</text>
<text x="118.93" y="302.92">.</text>
<text x="215.35" y="6.79">.</text>
<text x="471.78" y="282.08">+</text>
<text x="208.54" y="243.30">*</text>
<text x="330.99" y="470.47">+</text>
<text x="84.88" y="14.87">+</text>
<text x="452.49" y="384.61">.</text>
<text x="91.54" y="1.62">+</text>
<text x="54.56" y="5.31">.</text>
<text x="49.72" y="124.93">+</text>
<text x="12.94" y="135.04">+</text>
<text x="409.99" y="115.31">+</text>
<text x="389.30" y="310.83">*</text>
<text x="40.91" y="418.77">.</text>
<text x="122.94" y="416.79">+</text>
<text x="39.74" y="41.32">+</text>
<text x="431.74" y="392.02">.</text>
<text x="403.76" y="87.99">.</text>
<text x="121.11" y="465.79">.</text>
<text x="449.48" y="60.69">+</text>
<text x="212.59" y="373.45">+</text>
<text x="498.45" y="342.26">.</text>
<text x="106.65" y="335.69">.</text>
<text x="186.57" y="242.72">+</text>
<text x="269.99" y="11.15">+</text>
<text x="190.25" y="119.91">+</text>
<text x="10.46" y="26.75">+</text>
<text x="467.01" y="299.61">.</text>
<text x="9.33" y="197.84">.</text>
<text x="206.40" y="46.63">+</text>
<text x="342.50" y="39.28">*</text>
<text x="342.10" y="8.51">+</text>
<text x="208.53" y="405.56">+</text>
<text x="363.34" y="386.51">.</text>
<text x="487.88" y="292.46">.</text>
<text x="321.32" y="125.12">.</text>
<text x="219.40" y="217.71">.</text>
<text x="411.63" y="212.05">.</text>
<text x="114.10" y="435.57">.</text>
<text x="203.60" y="228.96">*</text>
<text x="415.65" y="309.16">+</text>
<text x="171.78" y="368.53">+</text>
<text x="130.45" y="432.72">.</text>
<text x="233.81" y="200.11">.</text>
<text x="343.11" y="53.91">+</text>
<text x="159.99" y="393.39">.</text>
<text x="319.50" y="378.75">.</text>
<text x="480.16" y="475.39">+</text>
<text x="310.47" y="87.69">.</text>
<text x="293.34" y="406.26">+</text>
<text x="313.72" y="404.07">.</text>
<text x="167.23" y="97.76">*</text>
<text x="19.87" y="457.27">.</text>
<text x="112.62" y="397.51">+</text>
<text x="104.28" y="387.05">.</text>
<text x="362.16" y="359.14">.</text>
<text x="90.07" y="156.68">*</text>
<text x="493.08" y="394.82">+</text>
<text x="157.86" y="330.44">+</text>
<text x="280.24" y="125.73">+</text>
<text x="184.32" y="431.73">.</text>
<text x="204.67" y="278.56">.</text>
<text x="86.16" y="372.29">+</text>
<text x="269.70" y="389.56">+</text>
<text x="138.37" y="406.41">+</text>
<text x="445.36" y="391.83">.</text>
<text x="290.51" y="316.99">*</text>
<text x="408.95" y="450.26">+</text>
<text x="225.12" y="193.68">.</text>
<text x="245.41" y="204.35">.</text>
<text x="476.73" y="88.63">+</text>
<text x="57.35" y="377.02">+</text>
<text x="165.07" y="260.03">+</text>
<text x="203.72" y="215.66">.</text>
<text x="442.05" y="334.01">+</text>
<text x="35.02" y="355.05">*</text>
<text x="90.26" y="291.88">+</text>
<text x="99.18" y="295.98">.</text>
<text x="498.59" y="474.26">*</text>
<text x="215.07" y="396.84">.</text>
<text x="407.48" y="404.44">.</text>
<text x="78.08" y="332.54">.</text>
<text x="149.33" y="63.24">+</text>
<text x="178.44" y="283.37">*</text>
<text x="29.89" y="165.51">+</text>
<text x="253.38" y="494.41">*</text>
<text x="147.18" y="158.47">.</text>
<text x="63.46" y="106.13">*</text>
<text x="37.63" y="402.46">+</text>
<text x="27.23" y="325.14">+</text>
<text x="458.92" y="380.60">*</text>
<text x="7.85" y="397.69">+</text>
<text x="96.61" y="216.11">+</text>
<text x="446.21" y="259.92">+</text>
<text x="82.10" y="441.36">.</text>
<text x="345.12" y="293.81">+</text>
<text x="84.16" y="281.69">+</text>
<text x="202.17" y="51.60">.</text>
<text x="39.50" y="52.85">+</text>
<text x="391.06" y="481.00">+</text>
<text x="170.19" y="136.21">.</text>
<text x="196.74" y="251.99">+</text>
<text x="290.12" y="365.26">.</text>
<text x="333.50" y="415.53">+</text>
<text x="192.22" y="19.44">.</text>
<text x="327.82" y="318.37">*</text>
<text x="206.40" y="285.86">*</text>
<text x="119.33" y="69.81">.</text>
<text x="34.49" y="106.32">.</text>
<text x="376.34" y="349.91">+</text>
<text x="447.93" y="448.37">*</text>
<text x="103.47" y="146.51">+</text>
<text x="49.35" y="428.43">.</text>
<text x="421.73" y="487.39">+</text>
<text x="189.72" y="464.99">+</text>
<text x="448.63" y="367.77">.</text>
<text x="359.21" y="22.26">+</text>
<text x="83.05" y="93.71">+</text>
<text x="495.57" y="273.98">.</text>
<text x="62.94" y="331.69">.</text>
<text x="219.08" y="241.27">+</text>
<text x="251.07" y="352.23">*</text>
<text x="230.24" y="273.70">.</text>
<text x="355.26" y="171.13">.</text>
<text x="58.82" y="30.94">.</text>
<text x="477.77" y="29.40">.</text>
<text x="4.65" y="122.64">*</text>
<text x="123.23" y="459.41">+</text>
<text x="463.51" y="446.58">.</text>
<text x="476.42" y="89.91">*</text>
<text x="477.90" y="379.34">+</text>
<text x="185.30" y="13.82">.</text>
<text x="441.96" y="306.72">.</text>
<text x="414.66" y="189.66">+</text>
<text x="220.66" y="451.65">+</text>
<text x="234.51" y="367.13">*</text>
<text x="335.58" y="344.12">.</text>
<text x="29.41" y="268.98">.</text>
<text x="112.63" y="367.26">.</text>
<text x="299.90" y="382.76">+</text>
<text x="406.75" y="69.86">+</text>
<text x="80.93" y="353.74">*</text>
<text x="22.59" y="111.76">+</text>
<text x="289.89" y="38.68">.</text>
<text x="89.77" y="388.11">+</text>
<text x="485.79" y="383.25">.</text>
<text x="269.48" y="12.50">+</text>
<text x="378.08" y="415.26">.</text>
<text x="181.35" y="301.03">.</text>
<text x="353.66" y="23.12">+</text>
<text x="383.27" y="284.68">.</text>
<text x="174.56" y="83.92">.</text>
<text x="13.80" y="305.76">*</text>
<text x="21.51" y="86.25">+</text>
<text x="223.00" y="9.25">*</text>
<text x="61.68" y="94.42">*</text>
<text x="344.26" y="111.57">.</text>
<text x="241.59" y="354.01">.</text>
<text x="122.48" y="30.85">.</text>
<text x="431.00" y="97.36">+</text>
<text x="298.55" y="242.72">.</text>
<text x="424.79" y="264.98">*</text>
<text x="166.54" y="109.55">.</text>
<text x="38.56" y="483.89">+</text>
<text x="338.73" y="42.05">.</text>
<text x="235.26" y="79.20">.</text>
<text x="120.86" y="184.01">*</text>
<text x="368.71" y="21.51">*</text>
<text x="497.20" y="113.08">*</text>
<text x="368.69" y="384.51">+</text>
<text x="121.82" y="152.93">.</text>
<text x="120.20" y="163.76">.</text>
<text x="116.13" y="309.46">*</text>
<text x="258.06" y="457.96">+</text>

</svg>