
<svg viewBox="0 0 500 500" xmlns="http://www.w.org/2000/svg" width="100%" height="100%" style="background-color: #0a0a14; font-family: 'Courier New', Courier, monospace;">
    <style>
        text { fill: #aaa; font-size: 10px; text-anchor: middle; dominant-baseline: middle; }
    </style>
    <text x="397.06" y="103.51">.</text>
<text x="397.23" y="457.97">+</text>
<text x="49.68" y="456.47">.</text>
<text x="271.12" y="377.69">.</text>
<text x="491.19" y="487.51">+</text>
<text x="101.69" y="250.88">+</text>
<text x="154.30" y="483.49">.</text>
<text x="365.77" y="0.10">+</text>
<text x="40.77" y="496.91">+</text>
<text x="64.00" y="51.48">.</text>
<text x="476.67" y="349.98">.</text>
<text x="81.28" y="475.32">+</text>
<text x="26.58" y="375.24">*</text>
<text x="22.62" y="62.68">+</text>
<text x="205.46" y="458.34">+</text>
<text x="280.07" y="63.61">.</text>
<text x="461.64" y="363.25">.</text>
<text x="177.88" y="141.31">.</text>
<text x="117.33" y="313.44">*</text>
<text x="405.53" y="21.08">.</text>
<text x="78.23" y="317.97">*</text>
<text x="121.62" y="280.81">+</text>
<text x="169.78" y="250.94">+</text>
<text x="208.91" y="307.04">+</text>
<text x="430.97" y="429.15">*</text>
<text x="425.89" y="241.31">.</text>
<text x="54.26" y="261.87">+</text>
<text x="454.66" y="385.73">.</text>
<text x="155.41" y="14.31">+</text>
<text x="396.78" y="158.74">.</text>
<text x="325.09" y="207.41">.</text>
<text x="62.96" y="367.26">.</text>
<text x="182.82" y="478.43">.</text>
<text x="14.04" y="56.84">.</text>
<text x="239.45" y="77.01">.</text>
<text x="293.13" y="84.06">.</text>
<text x="369.39" y="470.91">.</text>
<text x="385.99" y="454.40">.</text>
<text x="153.61" y="29.71">+</text>
<text x="289.43" y="122.66">.</text>
<text x="98.48" y="390.70">+</text>
<text x="324.02" y="127.05">.</text>
<text x="445.60" y="95.75">.</text>
<text x="51.00" y="135.68">.</text>
<text x="439.35" y="41.58">.</text>
<text x="155.32" y="476.50">+</text>
<text x="482.28" y="152.48">.</text>
<text x="14.74" y="114.65">.</text>
<text x="428.91" y="71.33">.</text>
<text x="202.05" y="217.03">+</text>
<text x="461.43" y="377.26">.</text>
<text x="201.91" y="169.55">.</text>
<text x="421.47" y="370.97">.</text>
<text x="428.63" y="74.24">.</text>
<text x="435.16" y="62.02">+</text>
<text x="294.55" y="264.79">+</text>
<text x="31.30" y="190.52">.</text>
<text x="136.56" y="125.23">.</text>
<text x="409.96" y="414.52">+</text>
<text x="23.82" y="136.80">.</text>
<text x="333.16" y="343.35">.</text>
<text x="192.23" y="124.73">*</text>
<text x="449.26" y="243.18">.</text>
<text x="392.54" y="287.12">.</text>
<text x="228.64" y="214.90">+</text>
<text x="192.53" y="470.20">+</text>
<text x="9.71" y="23.02">.</text>
<text x="229.46" y="307.95">.</text>
<text x="16.51" y="108.37">+</text>
<text x="450.60" y="331.08">+</text>
<text x="190.81" y="343.70">.</text>
<text x="405.96" y="210.51">.</text>
<text x="229.42" y="322.41">.</text>
<text x="293.17" y="204.47">.</text>
<text x="248.05" y="63.78">+</text>
<text x="331.82" y="105.02">.</text>
<text x="204.38" y="84.80">+</text>
<text x="167.50" y="57.01">+</text>
<text x="185.22" y="302.94">.</text>
<text x="486.74" y="497.43">.</text>
<text x="212.67" y="109.40">*</text>
<text x="312.09" y="26.52">+</text>
<text x="453.05" y="187.30">.</text>
<text x="31.69" y="381.40">+</text>
<text x="199.27" y="396.56">+</text>
<text x="183.57" y="467.87">.</text>
<text x="424.17" y="268.57">+</text>
<text x="422.45" y="234.14">.</text>
<text x="12.50" y="210.43">.</text>
<text x="11.19" y="198.21">.</text>
<text x="125.92" y="146.54">*</text>
<text x="15.72" y="325.85">.</text>
<text x="44.39" y="166.43">.</text>
<text x="398.13" y="495.42">.</text>
<text x="101.83" y="310.95">+</text>
<text x="23.65" y="99.76">.</text>
<text x="64.01" y="148.65">.</text>
<text x="155.02" y="36.36">.</text>
<text x="428.94" y="476.79">+</text>
<text x="174.54" y="492.38">+</text>
<text x="375.59" y="226.63">.</text>
<text x="240.47" y="277.13">+</text>
<text x="470.14" y="118.56">+</text>
<text x="470.80" y="338.23">*</text>
<text x="456.02" y="315.37">+</text>
<text x="253.18" y="162.76">.</text>
<text x="327.23" y="304.27">.</text>
<text x="174.37" y="69.56">.</text>
<text x="191.06" y="348.66">.</text>
<text x="180.64" y="407.91">.</text>
<text x="485.58" y="302.46">.</text>
<text x="317.55" y="48.93">.</text>
<text x="350.24" y="427.81">.</text>
<text x="269.43" y="410.67">+</text>
<text x="488.49" y="363.10">.</text>
<text x="467.64" y="445.33">+</text>
<text x="261.65" y="248.66">+</text>
<text x="93.59" y="309.53">.</text>
<text x="261.99" y="220.28">.</text>
<text x="93.06" y="429.62">+</text>
<text x="91.14" y="325.69">+</text>
<text x="347.97" y="152.38">.</text>
<text x="211.82" y="436.63">+</text>
<text x="339.06" y="490.53">.</text>
<text x="79.89" y="165.19">+</text>
<text x="145.22" y="95.96">+</text>
<text x="183.85" y="381.42">+</text>
<text x="125.39" y="431.56">+</text>
<text x="474.06" y="498.16">*</text>
<text x="325.70" y="457.16">.</text>
<text x="92.45" y="476.51">+</text>
<text x="99.09" y="94.78">+</text>
<text x="483.73" y="470.36">*</text>
<text x="333.70" y="443.22">+</text>
<text x="233.79" y="22.05">*</text>
<text x="77.03" y="275.18">*</text>
<text x="224.32" y="245.59">+</text>
<text x="48.34" y="477.73">.</text>
<text x="207.39" y="68.09">+</text>
<text x="89.15" y="431.60">.</text>
<text x="212.68" y="329.34">+</text>
<text x="369.31" y="323.01">+</text>
<text x="349.77" y="366.71">.</text>
<text x="329.30" y="114.62">.</text>
<text x="139.23" y="494.32">+</text>
<text x="380.60" y="245.35">.</text>
<text x="65.42" y="441.52">.</text>
<text x="459.93" y="20.44">.</text>
<text x="346.05" y="485.70">*</text>
<text x="384.99" y="456.27">+</text>
<text x="82.64" y="35.34">*</text>
<text x="352.78" y="21.66">+</text>
<text x="390.44" y="315.99">.</text>
<text x="247.04" y="275.15">.</text>
<text x="73.56" y="451.23">.</text>
<text x="247.37" y="165.71">+</text>
<text x="471.03" y="391.19">+</text>
<text x="216.37" y="381.47">+</text>
<text x="474.67" y="441.84">+</text>
<text x="115.36" y="412.97">+</text>
<text x="296.83" y="231.00">+</text>
<text x="27.20" y="495.62">*</text>
<text x="234.37" y="337.85">+</text>
<text x="257.34" y="232.71">*</text>
<text x="388.40" y="218.87">+</text>
<text x="370.86" y="444.17">.</text>
<text x="72.44" y="231.63">+</text>
<text x="478.38" y="143.05">+</text>
<text x="354.16" y="167.63">+</text>
<text x="415.35" y="149.09">+</text>
<text x="255.95" y="192.47">+</text>
<text x="88.78" y="106.85">.</text>
<text x="312.55" y="346.67">+</text>
<text x="375.29" y="239.19">+</text>
<text x="104.50" y="148.92">.</text>
<text x="225.28" y="189.73">.</text>
<text x="474.56" y="238.71">.</text>
<text x="197.77" y="184.65">+</text>
<text x="254.71" y="193.52">.</text>
<text x="109.57" y="258.02">+</text>
<text x="195.63" y="188.96">+</text>
<text x="349.51" y="102.70">.</text>
<text x="383.55" y="93.89">+</text>
<text x="348.75" y="494.98">.</text>
<text x="282.60" y="333.46">.</text>
<text x="417.57" y="316.92">+</text>
<text x="41.07" y="41.12">.</text>
<text x="113.53" y="312.74">.</text>
<text x="398.33" y="100.12">.</text>
<text x="318.10" y="29.72">+</text>
<text x="440.28" y="485.36">*</text>
<text x="470.46" y="436.66">.</text>
<text x="186.62" y="48.80">+</text>
<text x="443.56" y="164.96">.</text>
<text x="229.37" y="235.39">.</text>
<text x="267.12" y="106.61">+</text>
<text x="65.80" y="394.91">.</text>
<text x="51.90" y="406.55">.</text>
<text x="271.09" y="308.22">.</text>
<text x="442.21" y="7.23">*</text>
<text x="158.96" y="459.17">*</text>

</svg>