
<svg viewBox="0 0 500 500" xmlns="http://www.w.org/2000/svg" width="100%" height="100%" style="background-color: #0a0a14; font-family: 'Courier New', Courier, monospace;">
    <style>
        text { fill: #aaa; font-size: 10px; text-anchor: middle; dominant-baseline: middle; }
    </style>
    <text x="368.05" y="314.76">+</text>
<text x="151.50" y="159.99">+</text>
<text x="199.91" y="406.66">.</text>
<text x="310.37" y="5.56">.</text>
<text x="132.53" y="192.05">+</text>
<text x="442.52" y="81.29">.</text>
<text x="367.68" y="70.74">+</text>
<text x="182.94" y="207.56">+</text>
<text x="84.40" y="162.93">+</text>
<text x="354.71" y="148.07">.</text>
<text x="456.66" y="74.25">+</text>
<text x="206.85" y="151.21">+</text>
<text x="67.25" y="444.97">*</text>
<text x="199.68" y="252.88">+</text>
<text x="436.04" y="112.63">.</text>
<text x="352.45" y="62.06">+</text>
<text x="448.47" y="290.69">.</text>
<text x="350.89" y="185.18">.</text>
<text x="116.86" y="200.34">.</text>
<text x="74.03" y="73.07">+</text>
<text x="67.75" y="291.95">+</text>
<text x="404.13" y="206.73">+</text>
<text x="287.50" y="448.66">+</text>
<text x="146.57" y="23.87">+</text>
<text x="245.61" y="226.40">.</text>
<text x="393.32" y="229.48">+</text>
<text x="277.04" y="190.62">+</text>
<text x="413.16" y="377.83">+</text>
<text x="91.95" y="280.71">.</text>
<text x="114.40" y="469.78">+</text>
<text x="174.78" y="37.77">.</text>
<text x="388.02" y="22.08">.</text>
<text x="257.42" y="381.60">+</text>
<text x="163.02" y="399.72">+</text>
<text x="78.41" y="478.90">+</text>
<text x="329.27" y="204.31">.</text>
<text x="116.92" y="147.58">.</text>
<text x="368.16" y="182.93">.</text>
<text x="491.53" y="272.99">.</text>
<text x="358.34" y="117.85">+</text>
<text x="235.42" y="310.17">.</text>
<text x="113.44" y="128.63">*</text>
<text x="29.79" y="479.67">.</text>
<text x="299.34" y="463.66">.</text>
<text x="254.99" y="319.90">+</text>
<text x="311.49" y="180.07">.</text>
<text x="21.11" y="106.20">+</text>
<text x="62.42" y="72.52">*</text>
<text x="9.07" y="325.48">+</text>
<text x="417.34" y="209.48">*</text>
<text x="94.81" y="245.13">.</text>
<text x="79.15" y="466.07">+</text>
<text x="146.45" y="192.39">+</text>
<text x="348.86" y="419.08">.</text>
<text x="17.34" y="286.50">+</text>
<text x="168.86" y="325.43">.</text>
<text x="217.54" y="443.69">+</text>
<text x="66.82" y="123.78">.</text>
<text x="80.51" y="48.54">+</text>
<text x="189.75" y="65.92">+</text>
<text x="413.21" y="324.07">.</text>
<text x="116.32" y="341.69">.</text>
<text x="0.75" y="249.71">+</text>
<text x="439.80" y="378.72">+</text>
<text x="248.55" y="354.08">+</text>
<text x="73.00" y="378.01">*</text>
<text x="167.75" y="176.28">.</text>
<text x="387.20" y="444.67">.</text>
<text x="216.01" y="135.87">.</text>
<text x="28.97" y="63.36">+</text>
<text x="171.34" y="63.17">+</text>
<text x="268.48" y="436.27">+</text>
<text x="30.21" y="148.10">+</text>
<text x="105.74" y="319.17">+</text>
<text x="367.90" y="448.60">.</text>
<text x="388.73" y="248.30">.</text>
<text x="318.20" y="72.64">+</text>
<text x="9.34" y="432.39">.</text>
<text x="69.87" y="218.44">+</text>
<text x="437.68" y="315.43">.</text>
<text x="452.01" y="437.11">+</text>
<text x="168.64" y="151.67">.</text>
<text x="332.22" y="190.45">+</text>
<text x="465.69" y="176.86">+</text>
<text x="397.15" y="131.18">.</text>
<text x="430.50" y="62.95">+</text>
<text x="81.54" y="153.94">+</text>
<text x="363.07" y="496.49">+</text>
<text x="317.47" y="32.42">.</text>
<text x="377.28" y="379.19">+</text>
<text x="120.16" y="252.11">+</text>
<text x="375.78" y="468.49">.</text>
<text x="466.22" y="204.00">.</text>
<text x="421.35" y="137.70">.</text>
<text x="282.87" y="68.73">*</text>
<text x="78.62" y="333.11">+</text>
<text x="127.35" y="324.57">.</text>
<text x="91.87" y="355.15">.</text>
<text x="210.15" y="496.77">*</text>
<text x="442.02" y="387.80">+</text>
<text x="94.83" y="121.98">+</text>
<text x="479.26" y="238.29">*</text>
<text x="497.10" y="121.20">.</text>
<text x="424.11" y="136.59">+</text>
<text x="440.76" y="35.96">.</text>
<text x="21.41" y="162.11">.</text>
<text x="174.45" y="285.56">+</text>
<text x="133.94" y="272.17">*</text>
<text x="369.10" y="204.94">.</text>
<text x="339.95" y="299.95">*</text>
<text x="33.05" y="45.10">*</text>
<text x="281.07" y="148.58">*</text>
<text x="100.35" y="183.54">.</text>
<text x="23.32" y="321.79">*</text>
<text x="259.65" y="69.47">.</text>
<text x="258.15" y="399.01">+</text>
<text x="236.97" y="256.91">.</text>
<text x="312.42" y="463.40">+</text>
<text x="237.28" y="236.23">+</text>
<text x="252.56" y="183.58">+</text>
<text x="142.67" y="472.77">.</text>
<text x="428.41" y="460.40">*</text>
<text x="182.22" y="249.64">*</text>
<text x="350.50" y="453.68">.</text>
<text x="173.64" y="52.56">.</text>
<text x="297.94" y="322.70">*</text>
<text x="362.05" y="315.47">*</text>
<text x="423.58" y="64.84">+</text>
<text x="94.09" y="326.91">.</text>
<text x="9.36" y="252.08">.</text>
<text x="316.90" y="161.01">+</text>
<text x="177.38" y="136.56">.</text>
<text x="273.12" y="264.66">.</text>
<text x="195.35" y="414.85">.</text>
<text x="36.93" y="318.36">.</text>
<text x="363.34" y="44.28">.</text>
<text x="352.92" y="189.02">*</text>
<text x="37.09" y="36.49">.</text>
<text x="217.29" y="389.05">+</text>
<text x="480.76" y="496.17">.</text>
<text x="179.88" y="476.05">.</text>
<text x="19.22" y="164.93">.</text>
<text x="445.10" y="299.07">.</text>
<text x="267.65" y="25.18">+</text>
<text x="54.04" y="0.17">+</text>
<text x="140.17" y="200.54">.</text>
<text x="28.65" y="319.22">+</text>
<text x="497.80" y="354.71">+</text>
<text x="89.11" y="320.79">*</text>
<text x="286.00" y="344.11">+</text>
<text x="249.55" y="79.15">.</text>
<text x="360.01" y="67.18">+</text>
<text x="145.63" y="468.98">+</text>
<text x="455.30" y="461.89">+</text>
<text x="102.86" y="51.04">.</text>
<text x="112.08" y="339.73">*</text>
<text x="393.14" y="240.38">.</text>
<text x="214.64" y="167.21">*</text>
<text x="363.26" y="272.47">+</text>
<text x="16.07" y="412.66">.</text>
<text x="405.19" y="363.23">.</text>
<text x="474.50" y="462.99">*</text>
<text x="231.07" y="365.69">.</text>
<text x="431.57" y="331.25">+</text>
<text x="0.46" y="356.04">+</text>
<text x="184.99" y="474.39">.</text>
<text x="364.33" y="178.35">+</text>
<text x="493.87" y="329.04">+</text>
<text x="306.75" y="491.58">+</text>
<text x="6.59" y="372.55">+</text>
<text x="154.50" y="159.82">+</text>
<text x="29.17" y="312.09">+</text>
<text x="20.98" y="393.40">.</text>
<text x="487.63" y="55.01">+</text>
<text x="357.52" y="305.15">*</text>
<text x="290.36" y="28.17">*</text>
<text x="181.90" y="10.47">+</text>
<text x="61.21" y="34.21">*</text>
<text x="420.29" y="39.93">+</text>
<text x="397.63" y="28.39">*</text>
<text x="43.95" y="228.78">.</text>
<text x="443.74" y="249.60">+</text>
<text x="382.14" y="386.47">*</text>
<text x="427.48" y="258.00">+</text>
<text x="97.70" y="389.45">.</text>
<text x="69.54" y="167.55">+</text>
<text x="28.23" y="138.05">+</text>
<text x="205.80" y="412.16">*</text>
<text x="65.95" y="186.14">.</text>
<text x="470.64" y="339.46">.</text>
<text x="426.33" y="153.30">*</text>
<text x="189.90" y="204.36">+</text>
<text x="344.06" y="147.42">.</text>
<text x="84.52" y="199.26">*</text>
<text x="491.10" y="275.21">.</text>
<text x="455.30" y="13.82">*</text>
<text x="454.97" y="286.95">+</text>
<text x="239.38" y="325.02">+</text>
<text x="428.65" y="348.50">.</text>
<text x="233.99" y="281.65">+</text>
<text x="220.46" y="178.81">.</text>
<text x="217.88" y="4.92">.</text>
<text x="89.46" y="98.37">.</text>
<text x="74.74" y="206.67">+</text>
<text x="440.64" y="17.17">.</text>
<text x="220.46" y="221.74">.</text>
<text x="334.81" y="270.98">.</text>
<text x="41.52" y="169.85">.</text>

</svg>