
<svg viewBox="0 0 500 500" xmlns="http://www.w.org/2000/svg" width="100%" height="100%" style="background-color: #0a0a14; font-family: 'Courier New', Courier, monospace;">
    <style>
        text { fill: #aaa; font-size: 10px; text-anchor: middle; dominant-baseline: middle; }
    </style>
    <text x="315.29" y="1.54">+</text>
<text x="457.35" y="252.06">.</text>
<text x="333.41" y="393.33">*</text>
<text x="186.89" y="402.63">*</text>
<text x="76.43" y="203.80">+</text>
<text x="49.70" y="436.74">.</text>
<text x="57.83" y="472.15">+</text>
<text x="304.83" y="181.56">+</text>
<text x="461.37" y="377.57">*</text>
<text x="177.40" y="175.89">.</text>
<text x="70.73" y="415.63">.</text>
<text x="414.01" y="16.62">+</text>
<text x="158.30" y="275.05">.</text>
<text x="99.60" y="210.51">*</text>
<text x="329.70" y="202.25">.</text>
<text x="342.14" y="178.64">+</text>
<text x="211.94" y="150.67">.</text>
<text x="7.03" y="260.51">.</text>
<text x="336.72" y="458.52">+</text>
<text x="303.17" y="321.65">+</text>
<text x="262.39" y="215.52">+</text>
<text x="242.31" y="74.14">+</text>
<text x="37.04" y="40.11">+</text>
<text x="206.15" y="370.88">.</text>
<text x="363.45" y="134.15">.</text>
<text x="259.21" y="320.91">+</text>
<text x="281.37" y="459.74">*</text>
<text x="115.82" y="190.47">+</text>
<text x="347.16" y="36.10">.</text>
<text x="405.28" y="473.99">.</text>
<text x="152.14" y="121.36">+</text>
<text x="255.97" y="486.98">+</text>
<text x="328.93" y="155.09">*</text>
<text x="183.69" y="497.35">+</text>
<text x="9.67" y="168.33">.</text>
<text x="486.21" y="14.90">*</text>
<text x="182.08" y="96.89">+</text>
<text x="191.14" y="351.99">.</text>
<text x="478.51" y="254.25">.</text>
<text x="376.33" y="283.50">.</text>
<text x="66.13" y="429.47">*</text>
<text x="298.35" y="132.59">*</text>
<text x="278.28" y="264.25">.</text>
<text x="14.94" y="416.18">+</text>
<text x="432.33" y="241.56">.</text>
<text x="132.91" y="120.22">.</text>
<text x="202.58" y="167.64">+</text>
<text x="437.28" y="290.23">+</text>
<text x="2.87" y="273.31">.</text>
<text x="289.05" y="393.35">+</text>
<text x="360.84" y="172.41">.</text>
<text x="475.36" y="319.33">.</text>
<text x="19.43" y="372.94">.</text>
<text x="299.36" y="152.65">+</text>
<text x="68.77" y="476.55">+</text>
<text x="218.53" y="212.84">*</text>
<text x="434.85" y="412.28">+</text>
<text x="279.00" y="218.25">.</text>
<text x="359.92" y="173.92">.</text>
<text x="355.90" y="95.68">.</text>
<text x="418.19" y="400.41">+</text>
<text x="436.16" y="447.40">.</text>
<text x="58.76" y="425.18">+</text>
<text x="158.40" y="52.38">.</text>
<text x="301.17" y="261.96">.</text>
<text x="321.04" y="257.61">*</text>
<text x="415.79" y="407.79">*</text>
<text x="97.90" y="448.99">.</text>
<text x="11.40" y="380.84">.</text>
<text x="116.82" y="369.33">*</text>
<text x="278.06" y="369.85">*</text>
<text x="456.00" y="302.65">*</text>
<text x="474.94" y="129.62">+</text>
<text x="499.49" y="117.46">+</text>
<text x="489.06" y="408.05">+</text>
<text x="81.49" y="82.54">.</text>
<text x="133.00" y="415.59">+</text>
<text x="319.92" y="189.97">.</text>
<text x="147.19" y="310.95">+</text>
<text x="485.68" y="352.44">.</text>
<text x="315.52" y="389.95">.</text>
<text x="74.00" y="221.18">.</text>
<text x="284.09" y="201.71">+</text>
<text x="147.28" y="286.70">.</text>
<text x="455.30" y="493.28">+</text>
<text x="355.77" y="1.75">+</text>
<text x="449.61" y="94.65">.</text>
<text x="282.65" y="193.13">*</text>
<text x="208.92" y="284.38">+</text>
<text x="251.56" y="208.84">.</text>
<text x="324.03" y="166.97">+</text>
<text x="411.23" y="331.48">+</text>
<text x="395.36" y="491.62">.</text>
<text x="301.02" y="255.11">+</text>
<text x="2.86" y="374.86">+</text>
<text x="478.62" y="247.23">+</text>
<text x="228.70" y="299.23">.</text>
<text x="455.58" y="123.32">+</text>
<text x="32.43" y="475.10">.</text>
<text x="295.84" y="496.90">+</text>
<text x="29.44" y="448.19">+</text>
<text x="216.58" y="445.09">+</text>
<text x="15.37" y="24.37">.</text>
<text x="182.21" y="88.81">*</text>
<text x="229.46" y="289.98">+</text>
<text x="223.88" y="312.16">.</text>
<text x="212.00" y="444.28">.</text>
<text x="465.59" y="248.13">.</text>
<text x="494.23" y="417.99">*</text>
<text x="279.78" y="466.36">.</text>
<text x="437.75" y="51.46">+</text>
<text x="325.47" y="67.50">+</text>
<text x="203.65" y="452.57">+</text>
<text x="446.87" y="41.36">*</text>
<text x="465.34" y="286.69">+</text>
<text x="73.30" y="166.71">+</text>
<text x="338.88" y="424.09">.</text>
<text x="474.19" y="322.88">.</text>
<text x="480.18" y="192.19">.</text>
<text x="409.56" y="434.16">.</text>
<text x="126.25" y="159.01">+</text>
<text x="359.84" y="290.32">.</text>
<text x="369.24" y="306.29">.</text>
<text x="326.67" y="404.88">+</text>
<text x="121.13" y="265.75">+</text>
<text x="210.84" y="204.87">+</text>
<text x="482.17" y="437.69">*</text>
<text x="136.14" y="204.58">+</text>
<text x="311.56" y="148.06">.</text>
<text x="351.23" y="207.86">*</text>
<text x="431.33" y="261.34">.</text>
<text x="133.30" y="0.14">.</text>
<text x="55.33" y="136.42">.</text>
<text x="6.81" y="425.10">+</text>
<text x="33.64" y="429.14">.</text>
<text x="40.71" y="452.80">.</text>
<text x="383.71" y="167.08">+</text>
<text x="433.21" y="353.64">+</text>
<text x="339.40" y="66.92">+</text>
<text x="45.35" y="47.34">+</text>
<text x="334.21" y="136.06">+</text>
<text x="410.65" y="27.75">.</text>
<text x="439.29" y="113.96">.</text>
<text x="426.53" y="425.99">.</text>
<text x="466.98" y="71.25">+</text>
<text x="43.57" y="198.91">.</text>
<text x="358.77" y="152.07">*</text>
<text x="14.72" y="427.91">+</text>
<text x="202.15" y="404.71">+</text>
<text x="274.98" y="407.48">.</text>
<text x="197.67" y="277.97">.</text>
<text x="132.80" y="40.94">*</text>
<text x="251.81" y="239.27">*</text>
<text x="36.64" y="184.55">+</text>
<text x="39.24" y="291.31">*</text>
<text x="104.66" y="88.67">.</text>
<text x="435.11" y="396.10">+</text>
<text x="483.97" y="176.08">.</text>
<text x="351.95" y="48.62">.</text>
<text x="477.74" y="229.06">+</text>
<text x="27.86" y="1.73">+</text>
<text x="63.50" y="183.34">+</text>
<text x="372.75" y="129.64">.</text>
<text x="384.78" y="349.62">+</text>
<text x="171.16" y="467.22">+</text>
<text x="53.43" y="229.13">+</text>
<text x="8.93" y="56.83">+</text>
<text x="182.02" y="462.84">*</text>
<text x="333.52" y="34.83">+</text>
<text x="0.51" y="273.97">*</text>
<text x="118.71" y="150.30">.</text>
<text x="371.38" y="120.65">+</text>
<text x="418.55" y="337.39">.</text>
<text x="78.03" y="79.92">*</text>
<text x="339.21" y="411.30">.</text>
<text x="463.17" y="128.17">+</text>
<text x="11.71" y="296.76">*</text>
<text x="453.70" y="151.28">.</text>
<text x="491.00" y="484.49">*</text>
<text x="443.73" y="308.14">.</text>
<text x="461.06" y="144.10">+</text>
<text x="481.36" y="322.04">+</text>
<text x="101.51" y="423.38">+</text>
<text x="468.35" y="435.72">+</text>
<text x="465.23" y="181.68">+</text>
<text x="128.97" y="309.53">.</text>
<text x="55.25" y="266.40">+</text>
<text x="355.92" y="147.63">+</text>
<text x="98.10" y="178.63">+</text>
<text x="111.98" y="201.14">*</text>
<text x="193.34" y="139.52">.</text>
<text x="135.67" y="293.18">.</text>
<text x="187.41" y="137.08">.</text>
<text x="317.54" y="15.72">+</text>
<text x="478.01" y="381.15">+</text>
<text x="157.00" y="151.94">+</text>
<text x="479.49" y="169.22">.</text>
<text x="136.59" y="423.35">+</text>
<text x="371.23" y="163.95">+</text>
<text x="9.31" y="107.60">+</text>
<text x="200.54" y="33.39">*</text>
<text x="172.81" y="310.91">.</text>
<text x="364.62" y="272.81">*</text>
<text x="302.28" y="344.82">.</text>
<text x="127.64" y="279.79">+</text>
<text x="97.24" y="392.12">+</text>
<text x="338.60" y="447.56">.</text>
<text x="170.20" y="467.45">.</text>
<text x="290.42" y="397.10">.</text>
<text x="215.21" y="496.85">.</text>
<text x="96.90" y="33.55">+</text>
<text x="399.55" y="273.66">+</text>

</svg>