
<svg viewBox="0 0 500 500" xmlns="http://www.w3.org/2000/svg" width="100%" height="100%" style="background-color: #0a0a14; font-family: 'Courier New', Courier, monospace;">
    <style>
        text { fill: #aaa; font-size: 10px; text-anchor: middle; dominant-baseline: middle; }
    </style>
    <text x="127.86" y="0.00">.</text>
<text x="267.86" y="46.65">.</text>
<text x="407.83" y="163.75">.</text>
<text x="47.75" y="291.17">+</text>
<text x="187.60" y="353.90">+</text>
<text x="327.35" y="291.16">+</text>
<text x="466.98" y="82.39">+</text>
<text x="106.47" y="-238.92">+</text>
<text x="245.79" y="-89.10">+</text>
<text x="384.94" y="-356.02">+</text>
<text x="23.90" y="-433.03">*</text>
<text x="162.64" y="-255.14">*</text>
<text x="301.16" y="-326.25">*</text>
<text x="439.45" y="272.11">*</text>
<text x="77.50" y="394.95">*</text>
<text x="215.30" y="369.01">*</text>
<text x="352.85" y="40.23">*</text>
<text x="490.15" y="320.78">*</text>
<text x="127.21" y="221.78">*</text>
<text x="264.02" y="-138.93">*</text>
<text x="400.59" y="-58.67">*</text>
<text x="36.94" y="-297.48">*</text>
<text x="173.07" y="-140.58">*</text>
<text x="309.00" y="-459.17">+</text>
<text x="444.75" y="-253.01">+</text>
<text x="80.32" y="-161.33">+</text>
<text x="215.75" y="62.94">+</text>
<text x="351.04" y="111.62">+</text>
<text x="486.23" y="198.81">+</text>
<text x="121.34" y="137.99">+</text>
<text x="256.39" y="398.19">.</text>
<text x="391.40" y="122.77">.</text>
<text x="26.40" y="-396.42">.</text>
<text x="161.42" y="-285.47">.</text>
<text x="296.47" y="-180.50">.</text>
<text x="431.59" y="-322.49">.</text>
<text x="231.01" y="-402.18">.</text>
<text x="370.87" y="-268.13">.</text>
<text x="10.81" y="-207.45">.</text>
<text x="150.78" y="-437.40">.</text>
<text x="290.78" y="14.76">.</text>
<text x="430.77" y="433.84">.</text>
<text x="70.74" y="90.04">+</text>
<text x="210.65" y="421.23">+</text>
<text x="350.48" y="179.05">+</text>
<text x="490.21" y="0.62">+</text>
<text x="129.82" y="385.95">+</text>
<text x="269.28" y="-416.35">+</text>
<text x="408.58" y="-88.94">+</text>
<text x="47.70" y="-448.01">+</text>
<text x="186.62" y="-117.89">*</text>
<text x="325.33" y="-133.60">*</text>
<text x="463.81" y="-443.44">*</text>
<text x="102.06" y="191.59">*</text>
<text x="240.06" y="379.14">*</text>
<text x="377.82" y="314.63">*</text>
<text x="15.33" y="484.12">*</text>
<text x="152.59" y="299.96">*</text>
<text x="289.61" y="133.55">*</text>
<text x="426.38" y="-265.59">*</text>
<text x="62.91" y="-446.97">*</text>
<text x="199.22" y="-490.91">*</text>
<text x="335.32" y="-238.13">+</text>
<text x="471.22" y="-460.12">+</text>
<text x="106.93" y="-426.24">+</text>
<text x="242.48" y="151.57">+</text>
<text x="377.89" y="285.56">+</text>
<text x="13.16" y="451.36">+</text>
<text x="148.34" y="341.82">+</text>
<text x="283.43" y="72.45">+</text>
<text x="418.47" y="286.34">.</text>
<text x="53.48" y="130.22">.</text>
<text x="188.48" y="-395.19">.</text>
<text x="323.50" y="-176.11">.</text>
<text x="458.57" y="-259.80">.</text>
<text x="93.70" y="-94.41">.</text>
<text x="393.90" y="-468.40">.</text>
<text x="33.78" y="-127.88">.</text>
<text x="173.72" y="-418.36">.</text>
<text x="313.70" y="-462.49">.</text>
<text x="453.70" y="51.75">.</text>
<text x="93.69" y="155.62">.</text>
<text x="233.65" y="458.37">+</text>
<text x="373.55" y="492.27">+</text>
<text x="13.36" y="458.56">+</text>
<text x="153.08" y="311.75">+</text>
<text x="292.66" y="-341.01">+</text>
<text x="432.10" y="-3.54">+</text>
<text x="71.37" y="-154.44">+</text>
<text x="210.45" y="-122.65">*</text>
<text x="349.34" y="-382.10">*</text>
<text x="488.01" y="-191.33">*</text>
<text x="126.45" y="-41.26">*</text>
<text x="264.66" y="78.84">*</text>
<text x="402.63" y="41.94">*</text>
<text x="40.34" y="483.09">*</text>
<text x="177.81" y="140.34">*</text>
<text x="315.03" y="51.55">*</text>
<text x="452.00" y="56.37">*</text>
<text x="88.73" y="-399.78">*</text>
<text x="225.23" y="-114.09">*</text>
<text x="361.50" y="-43.22">*</text>
<text x="497.57" y="-186.50">+</text>
<text x="133.43" y="-340.41">+</text>
<text x="269.12" y="-159.67">+</text>
<text x="404.64" y="492.75">+</text>
<text x="40.02" y="372.51">+</text>
<text x="175.28" y="279.29">+</text>
<text x="310.44" y="477.01">+</text>
<text x="445.52" y="4.95">+</text>
<text x="80.55" y="301.58">.</text>
<text x="215.56" y="108.08">.</text>
<text x="350.56" y="-327.52">.</text>
<text x="485.59" y="-175.10">.</text>
<text x="120.66" y="-472.86">.</text>
<text x="255.81" y="-492.62">.</text>
<text x="56.80" y="-219.32">.</text>
<text x="196.69" y="-161.82">.</text>
<text x="336.64" y="-372.89">.</text>
<text x="476.62" y="-486.25">.</text>
<text x="116.62" y="89.24">.</text>
<text x="256.61" y="131.46">.</text>
<text x="396.56" y="149.18">+</text>
<text x="36.44" y="374.99">+</text>
<text x="176.24" y="85.13">+</text>
<text x="315.94" y="165.55">+</text>
<text x="455.50" y="-94.72">+</text>
<text x="94.91" y="-434.85">+</text>
<text x="234.15" y="-174.19">+</text>
<text x="373.20" y="-250.12">*</text>
<text x="12.05" y="-109.23">*</text>
<text x="150.68" y="-353.88">*</text>
<text x="289.09" y="-105.49">*</text>
<text x="427.26" y="384.39">*</text>
<text x="65.18" y="282.28">*</text>
<text x="202.85" y="246.52">*</text>
<text x="340.28" y="385.60">*</text>
<text x="477.46" y="487.06">*</text>
<text x="114.39" y="458.28">*</text>
<text x="251.08" y="-9.12">*</text>
<text x="387.54" y="-471.20">*</text>
<text x="23.78" y="-330.95">*</text>
<text x="159.80" y="-357.87">+</text>
<text x="295.64" y="-499.20">+</text>
<text x="431.30" y="-404.17">+</text>
<text x="66.79" y="347.56">+</text>
<text x="202.15" y="248.97">+</text>
<text x="337.39" y="478.76">+</text>
<text x="472.54" y="474.51">+</text>
<text x="107.61" y="324.25">.</text>
<text x="242.64" y="378.59">.</text>
<text x="377.64" y="-447.06">.</text>
<text x="12.64" y="-134.04">.</text>
<text x="147.68" y="-174.83">.</text>
<text x="282.76" y="-190.26">.</text>
<text x="417.92" y="-397.63">.</text>
<text x="219.69" y="-26.33">.</text>
<text x="359.59" y="-247.74">.</text>
<text x="499.55" y="-485.18">.</text>
<text x="139.54" y="-480.25">.</text>
<text x="279.54" y="91.24">.</text>
<text x="419.52" y="269.78">.</text>
<text x="59.46" y="37.77">+</text>
<text x="199.34" y="442.16">+</text>
<text x="339.12" y="460.18">+</text>
<text x="478.79" y="16.29">+</text>
<text x="118.33" y="-356.84">+</text>
<text x="257.71" y="-132.38">+</text>
<text x="396.92" y="-29.82">+</text>
<text x="35.94" y="-200.61">*</text>
<text x="174.76" y="-189.88">*</text>
<text x="313.35" y="-59.04">*</text>
<text x="451.72" y="363.57">*</text>
<text x="89.84" y="45.50">*</text>
<text x="227.73" y="490.40">*</text>
<text x="365.36" y="475.04">*</text>
<text x="2.74" y="101.73">*</text>
<text x="139.88" y="29.04">*</text>
<text x="276.77" y="321.53">*</text>
<text x="413.42" y="-47.30">*</text>
<text x="49.84" y="-419.29">*</text>
<text x="186.04" y="-226.66">*</text>
<text x="322.04" y="-127.62">+</text>
<text x="457.84" y="-345.29">+</text>
<text x="93.47" y="-124.30">+</text>
<text x="228.94" y="186.98">+</text>
<text x="364.28" y="328.55">+</text>
<text x="499.50" y="427.22">+</text>
<text x="134.63" y="205.65">+</text>
<text x="269.70" y="427.15">.</text>
<text x="404.72" y="464.91">.</text>
<text x="39.72" y="-24.01">.</text>
<text x="174.73" y="-242.66">.</text>
<text x="309.77" y="-60.02">.</text>
<text x="444.86" y="-281.76">.</text>

</svg>