
<svg viewBox="0 0 500 500" xmlns="http://www.w.org/2000/svg" width="100%" height="100%" style="background-color: #0a0a14; font-family: 'Courier New', Courier, monospace;">
    <style>
        text { fill: #aaa; font-size: 10px; text-anchor: middle; dominant-baseline: middle; }
    </style>
    <text x="179.60" y="107.95">+</text>
<text x="64.30" y="140.05">*</text>
<text x="483.99" y="451.09">+</text>
<text x="276.02" y="75.36">*</text>
<text x="52.32" y="499.47">.</text>
<text x="420.05" y="224.32">.</text>
<text x="15.61" y="414.10">+</text>
<text x="8.29" y="34.29">.</text>
<text x="323.43" y="13.63">.</text>
<text x="396.28" y="119.46">.</text>
<text x="292.02" y="189.02">+</text>
<text x="144.56" y="77.50">+</text>
<text x="456.13" y="421.44">.</text>
<text x="200.51" y="235.09">+</text>
<text x="286.56" y="199.10">.</text>
<text x="487.57" y="268.05">+</text>
<text x="295.69" y="174.70">+</text>
<text x="493.43" y="183.25">.</text>
<text x="48.23" y="413.35">.</text>
<text x="48.61" y="209.99">.</text>
<text x="360.83" y="458.97">.</text>
<text x="58.55" y="425.29">.</text>
<text x="404.73" y="73.18">+</text>
<text x="86.92" y="169.60">+</text>
<text x="390.00" y="336.18">+</text>
<text x="160.70" y="68.95">.</text>
<text x="314.42" y="369.75">.</text>
<text x="63.40" y="153.68">+</text>
<text x="194.69" y="202.64">*</text>
<text x="188.01" y="304.36">+</text>
<text x="436.49" y="169.67">.</text>
<text x="337.52" y="401.72">*</text>
<text x="486.20" y="328.98">+</text>
<text x="373.99" y="424.85">.</text>
<text x="357.26" y="140.06">.</text>
<text x="425.18" y="79.78">+</text>
<text x="429.82" y="499.62">*</text>
<text x="358.97" y="232.62">.</text>
<text x="470.43" y="446.57">*</text>
<text x="335.49" y="427.01">+</text>
<text x="349.03" y="266.10">+</text>
<text x="476.37" y="315.95">.</text>
<text x="37.16" y="345.06">+</text>
<text x="269.03" y="138.56">+</text>
<text x="133.29" y="346.53">.</text>
<text x="485.48" y="369.15">+</text>
<text x="196.01" y="217.50">+</text>
<text x="21.01" y="133.60">.</text>
<text x="401.06" y="76.52">+</text>
<text x="482.57" y="352.29">+</text>
<text x="295.61" y="52.21">+</text>
<text x="300.66" y="300.17">.</text>
<text x="317.50" y="439.55">.</text>
<text x="101.70" y="289.93">.</text>
<text x="283.21" y="308.42">.</text>
<text x="261.50" y="110.80">.</text>
<text x="45.06" y="54.74">.</text>
<text x="448.34" y="98.13">+</text>
<text x="170.85" y="361.73">+</text>
<text x="441.48" y="418.84">+</text>
<text x="309.87" y="131.82">*</text>
<text x="448.21" y="330.08">.</text>
<text x="64.76" y="107.09">.</text>
<text x="31.07" y="337.99">+</text>
<text x="252.98" y="296.78">+</text>
<text x="68.04" y="381.14">*</text>
<text x="146.08" y="429.66">+</text>
<text x="110.49" y="311.80">*</text>
<text x="407.37" y="367.73">+</text>
<text x="436.30" y="493.59">*</text>
<text x="218.72" y="357.24">.</text>
<text x="346.89" y="175.54">.</text>
<text x="315.53" y="14.23">+</text>
<text x="331.12" y="379.66">+</text>
<text x="462.36" y="298.12">.</text>
<text x="436.89" y="262.59">.</text>
<text x="96.40" y="383.33">+</text>
<text x="172.90" y="120.83">+</text>
<text x="385.77" y="41.93">.</text>
<text x="89.65" y="402.90">+</text>
<text x="298.82" y="116.69">+</text>
<text x="464.50" y="398.08">.</text>
<text x="139.60" y="58.34">*</text>
<text x="162.06" y="297.06">*</text>
<text x="426.32" y="114.95">.</text>
<text x="46.65" y="430.09">.</text>
<text x="385.73" y="456.98">+</text>
<text x="225.35" y="30.80">.</text>
<text x="22.44" y="82.12">+</text>
<text x="431.14" y="424.58">+</text>
<text x="207.30" y="352.65">.</text>
<text x="397.12" y="296.13">.</text>
<text x="319.55" y="272.76">*</text>
<text x="430.93" y="51.98">+</text>
<text x="110.12" y="401.39">.</text>
<text x="78.21" y="475.72">+</text>
<text x="410.29" y="315.18">.</text>
<text x="295.45" y="496.33">+</text>
<text x="1.31" y="303.90">*</text>
<text x="141.49" y="103.34">.</text>
<text x="437.74" y="4.82">+</text>
<text x="44.69" y="387.00">.</text>
<text x="87.21" y="225.16">+</text>
<text x="40.38" y="181.76">+</text>
<text x="392.66" y="305.07">+</text>
<text x="198.86" y="170.95">+</text>
<text x="166.00" y="392.41">.</text>
<text x="294.62" y="141.11">.</text>
<text x="78.38" y="210.14">+</text>
<text x="34.29" y="448.75">.</text>
<text x="363.42" y="429.82">+</text>
<text x="479.68" y="384.00">.</text>
<text x="302.31" y="131.15">+</text>
<text x="32.79" y="175.92">.</text>
<text x="341.17" y="374.02">+</text>
<text x="71.66" y="182.15">.</text>
<text x="479.30" y="253.24">+</text>
<text x="305.09" y="435.69">+</text>
<text x="217.92" y="473.63">.</text>
<text x="291.07" y="401.77">.</text>
<text x="364.24" y="342.31">.</text>
<text x="466.15" y="291.12">.</text>
<text x="188.15" y="204.27">.</text>
<text x="277.87" y="378.80">.</text>
<text x="166.50" y="117.58">+</text>
<text x="322.15" y="275.16">+</text>
<text x="3.20" y="116.18">.</text>
<text x="421.41" y="26.26">*</text>
<text x="480.39" y="460.29">.</text>
<text x="102.70" y="183.60">+</text>
<text x="113.44" y="14.76">+</text>
<text x="372.76" y="109.79">*</text>
<text x="385.72" y="128.71">+</text>
<text x="480.20" y="311.32">*</text>
<text x="499.81" y="392.75">+</text>
<text x="66.07" y="392.11">.</text>
<text x="247.16" y="287.54">*</text>
<text x="176.92" y="416.78">+</text>
<text x="17.41" y="437.86">.</text>
<text x="123.73" y="433.01">+</text>
<text x="422.26" y="425.35">+</text>
<text x="184.78" y="336.29">+</text>
<text x="498.43" y="221.42">.</text>
<text x="363.63" y="172.69">+</text>
<text x="456.04" y="141.22">+</text>
<text x="141.57" y="138.04">+</text>
<text x="237.50" y="87.05">.</text>
<text x="68.69" y="273.03">+</text>
<text x="66.02" y="160.46">.</text>
<text x="25.49" y="86.23">.</text>
<text x="262.93" y="452.81">.</text>
<text x="200.03" y="110.09">+</text>
<text x="222.55" y="369.40">+</text>
<text x="204.25" y="142.73">+</text>
<text x="256.81" y="416.23">+</text>
<text x="73.75" y="74.45">*</text>
<text x="133.01" y="142.80">.</text>
<text x="334.95" y="358.50">.</text>
<text x="467.39" y="48.78">*</text>
<text x="499.37" y="292.85">+</text>
<text x="221.98" y="99.00">+</text>
<text x="457.06" y="431.75">+</text>
<text x="180.14" y="375.32">+</text>
<text x="307.95" y="333.91">.</text>
<text x="330.62" y="128.40">+</text>
<text x="41.22" y="181.68">*</text>
<text x="148.74" y="118.47">+</text>
<text x="68.96" y="96.45">.</text>
<text x="416.52" y="374.31">.</text>
<text x="483.49" y="163.16">+</text>
<text x="278.50" y="403.71">+</text>
<text x="101.40" y="302.48">*</text>
<text x="213.92" y="148.84">+</text>
<text x="462.28" y="397.64">.</text>
<text x="241.79" y="497.93">*</text>
<text x="281.73" y="329.45">.</text>
<text x="371.64" y="230.17">.</text>
<text x="1.31" y="304.38">+</text>
<text x="33.77" y="126.23">*</text>
<text x="356.47" y="5.69">.</text>
<text x="186.66" y="445.22">+</text>
<text x="215.21" y="57.41">*</text>
<text x="270.63" y="223.82">.</text>
<text x="252.99" y="95.18">+</text>
<text x="406.95" y="308.66">+</text>
<text x="397.30" y="45.38">+</text>
<text x="124.43" y="165.76">.</text>
<text x="407.24" y="92.35">+</text>
<text x="302.31" y="376.38">.</text>
<text x="49.18" y="421.18">*</text>
<text x="426.27" y="475.78">.</text>
<text x="372.76" y="493.59">+</text>
<text x="149.84" y="224.17">.</text>
<text x="28.53" y="57.22">.</text>
<text x="124.64" y="489.37">+</text>
<text x="89.68" y="97.05">.</text>
<text x="265.85" y="495.09">*</text>
<text x="141.16" y="362.25">*</text>
<text x="269.50" y="172.33">.</text>
<text x="352.82" y="438.18">+</text>
<text x="183.43" y="321.18">.</text>
<text x="23.40" y="312.79">.</text>
<text x="423.30" y="301.85">.</text>
<text x="286.19" y="318.73">.</text>
<text x="324.70" y="252.54">+</text>
<text x="381.35" y="286.19">.</text>
<text x="488.07" y="32.63">.</text>

</svg>