
<svg viewBox="0 0 500 500" xmlns="http://www.w.org/2000/svg" width="100%" height="100%" style="background-color: #0a0a14; font-family: 'Courier New', Courier, monospace;">
    <style>
        text { fill: #aaa; font-size: 10px; text-anchor: middle; dominant-baseline: middle; }
    </style>
    <text x="145.44" y="476.92">+</text>
<text x="32.24" y="342.70">.</text>
<text x="272.88" y="133.53">+</text>
<text x="74.17" y="375.70">+</text>
<text x="186.98" y="293.22">.</text>
<text x="155.67" y="195.69">.</text>
<text x="337.70" y="279.64">.</text>
<text x="335.99" y="287.88">.</text>
<text x="227.33" y="402.68">.</text>
<text x="96.96" y="284.73">.</text>
<text x="215.31" y="65.28">.</text>
<text x="459.86" y="125.71">+</text>
<text x="257.65" y="268.27">.</text>
<text x="125.13" y="121.00">*</text>
<text x="194.61" y="402.29">+</text>
<text x="66.97" y="150.61">+</text>
<text x="122.62" y="212.24">+</text>
<text x="190.80" y="404.73">.</text>
<text x="357.44" y="267.59">+</text>
<text x="358.06" y="340.77">.</text>
<text x="353.72" y="145.55">+</text>
<text x="389.34" y="192.75">+</text>
<text x="193.25" y="169.85">.</text>
<text x="458.09" y="299.17">+</text>
<text x="98.81" y="486.91">+</text>
<text x="334.88" y="292.00">+</text>
<text x="378.70" y="314.72">.</text>
<text x="376.52" y="412.00">.</text>
<text x="291.60" y="56.26">+</text>
<text x="103.55" y="86.13">+</text>
<text x="496.21" y="84.66">+</text>
<text x="380.92" y="218.67">.</text>
<text x="381.05" y="347.55">*</text>
<text x="454.27" y="361.12">.</text>
<text x="316.92" y="176.42">.</text>
<text x="315.98" y="18.06">.</text>
<text x="478.36" y="374.30">*</text>
<text x="190.79" y="311.07">*</text>
<text x="312.58" y="415.96">.</text>
<text x="360.58" y="444.36">*</text>
<text x="71.43" y="276.25">*</text>
<text x="397.65" y="363.91">.</text>
<text x="422.89" y="223.70">.</text>
<text x="345.73" y="172.96">.</text>
<text x="101.77" y="152.18">.</text>
<text x="4.52" y="311.78">.</text>
<text x="422.10" y="465.54">*</text>
<text x="135.32" y="413.23">+</text>
<text x="193.53" y="428.81">.</text>
<text x="35.59" y="444.01">.</text>
<text x="328.91" y="167.38">+</text>
<text x="71.58" y="285.50">*</text>
<text x="322.97" y="6.09">.</text>
<text x="482.80" y="445.05">.</text>
<text x="111.32" y="153.92">*</text>
<text x="64.73" y="22.24">+</text>
<text x="206.20" y="96.47">.</text>
<text x="69.72" y="468.93">*</text>
<text x="38.36" y="169.44">+</text>
<text x="224.79" y="107.26">*</text>
<text x="101.05" y="142.33">.</text>
<text x="200.70" y="58.62">.</text>
<text x="349.05" y="426.69">+</text>
<text x="49.20" y="292.47">.</text>
<text x="305.48" y="259.14">+</text>
<text x="418.79" y="216.62">+</text>
<text x="132.46" y="119.25">.</text>
<text x="221.80" y="484.09">+</text>
<text x="484.14" y="233.13">.</text>
<text x="148.47" y="427.88">+</text>
<text x="444.69" y="436.70">.</text>
<text x="1.31" y="332.52">+</text>
<text x="384.03" y="375.54">+</text>
<text x="28.35" y="76.36">.</text>
<text x="342.97" y="88.37">*</text>
<text x="35.29" y="208.11">+</text>
<text x="1.74" y="481.15">.</text>
<text x="90.23" y="484.91">+</text>
<text x="27.15" y="274.77">+</text>
<text x="195.71" y="79.14">+</text>
<text x="427.17" y="345.87">+</text>
<text x="291.40" y="104.80">+</text>
<text x="190.90" y="264.03">.</text>
<text x="341.33" y="431.98">+</text>
<text x="438.92" y="380.36">.</text>
<text x="254.40" y="445.55">*</text>
<text x="159.99" y="363.76">+</text>
<text x="4.78" y="141.50">.</text>
<text x="435.35" y="125.68">.</text>
<text x="106.63" y="45.43">+</text>
<text x="249.05" y="286.09">+</text>
<text x="132.05" y="486.35">.</text>
<text x="121.90" y="370.52">+</text>
<text x="76.20" y="446.25">.</text>
<text x="300.83" y="247.50">+</text>
<text x="292.46" y="226.03">*</text>
<text x="160.11" y="251.25">+</text>
<text x="80.30" y="118.56">.</text>
<text x="271.78" y="326.52">.</text>
<text x="242.93" y="85.35">+</text>
<text x="484.47" y="496.68">.</text>
<text x="57.49" y="306.06">*</text>
<text x="112.64" y="334.65">+</text>
<text x="63.16" y="444.21">*</text>
<text x="34.54" y="402.55">+</text>
<text x="181.23" y="125.17">*</text>
<text x="46.66" y="229.52">*</text>
<text x="214.79" y="136.88">*</text>
<text x="162.08" y="496.99">+</text>
<text x="313.54" y="393.20">.</text>
<text x="498.92" y="123.75">.</text>
<text x="79.30" y="42.17">.</text>
<text x="106.67" y="258.14">.</text>
<text x="450.28" y="455.02">+</text>
<text x="442.04" y="52.60">+</text>
<text x="432.41" y="14.81">*</text>
<text x="78.10" y="95.08">+</text>
<text x="366.37" y="472.23">*</text>
<text x="340.25" y="468.41">+</text>
<text x="306.84" y="342.29">.</text>
<text x="91.29" y="394.20">.</text>
<text x="211.93" y="409.08">+</text>
<text x="436.10" y="161.97">.</text>
<text x="367.67" y="275.76">.</text>
<text x="171.35" y="397.24">.</text>
<text x="407.35" y="117.02">+</text>
<text x="451.29" y="174.61">.</text>
<text x="168.67" y="26.76">+</text>
<text x="65.87" y="470.17">.</text>
<text x="141.61" y="451.79">*</text>
<text x="29.27" y="375.68">.</text>
<text x="234.79" y="80.50">.</text>
<text x="282.45" y="377.63">*</text>
<text x="349.46" y="460.83">.</text>
<text x="481.71" y="483.19">+</text>
<text x="425.04" y="257.75">+</text>
<text x="261.69" y="4.92">*</text>
<text x="405.47" y="357.14">.</text>
<text x="468.84" y="76.50">.</text>
<text x="57.08" y="377.52">+</text>
<text x="244.94" y="223.25">.</text>
<text x="462.26" y="62.80">.</text>
<text x="407.54" y="143.16">+</text>
<text x="71.55" y="254.55">+</text>
<text x="487.23" y="43.00">.</text>
<text x="175.44" y="328.43">*</text>
<text x="384.19" y="415.65">*</text>
<text x="315.26" y="274.69">+</text>
<text x="497.19" y="8.28">+</text>
<text x="382.69" y="214.34">+</text>
<text x="185.84" y="318.56">.</text>
<text x="419.82" y="402.70">.</text>
<text x="76.51" y="488.77">+</text>
<text x="342.35" y="398.11">+</text>
<text x="241.93" y="316.65">.</text>
<text x="176.34" y="49.07">+</text>
<text x="377.10" y="368.85">*</text>
<text x="255.20" y="221.05">+</text>
<text x="165.84" y="242.03">.</text>
<text x="470.74" y="147.85">.</text>
<text x="272.48" y="15.67">+</text>
<text x="71.35" y="458.74">*</text>
<text x="347.07" y="103.41">*</text>
<text x="176.81" y="323.96">*</text>
<text x="273.82" y="314.91">.</text>
<text x="237.69" y="329.22">.</text>
<text x="39.55" y="107.45">*</text>
<text x="411.49" y="327.53">+</text>
<text x="334.24" y="253.15">.</text>
<text x="6.82" y="52.19">.</text>
<text x="241.82" y="174.92">+</text>
<text x="412.58" y="355.39">.</text>
<text x="399.97" y="366.20">*</text>
<text x="275.05" y="369.20">.</text>
<text x="286.50" y="360.49">*</text>
<text x="219.69" y="436.91">.</text>
<text x="23.88" y="120.25">+</text>
<text x="53.21" y="300.58">.</text>
<text x="426.17" y="496.31">.</text>
<text x="356.57" y="464.14">.</text>
<text x="40.88" y="426.78">*</text>
<text x="184.44" y="248.42">*</text>
<text x="2.86" y="309.69">.</text>
<text x="376.50" y="210.35">+</text>
<text x="239.40" y="385.97">.</text>
<text x="160.70" y="307.14">+</text>
<text x="384.46" y="477.74">+</text>
<text x="200.34" y="102.73">+</text>
<text x="197.46" y="117.46">+</text>
<text x="360.82" y="79.36">.</text>
<text x="338.64" y="56.38">.</text>
<text x="382.52" y="222.22">.</text>
<text x="457.95" y="380.21">.</text>
<text x="457.67" y="86.18">*</text>
<text x="441.05" y="411.74">+</text>
<text x="316.24" y="370.92">+</text>
<text x="230.17" y="438.13">*</text>
<text x="113.79" y="434.10">+</text>
<text x="57.53" y="269.26">.</text>
<text x="99.33" y="421.55">.</text>
<text x="24.08" y="175.32">+</text>
<text x="187.29" y="137.70">.</text>

</svg>