
<svg viewBox="0 0 500 500" xmlns="http://www.w.org/2000/svg" width="100%" height="100%" style="background-color: #0a0a14; font-family: 'Courier New', Courier, monospace;">
    <style>
        text { fill: #aaa; font-size: 10px; text-anchor: middle; dominant-baseline: middle; }
    </style>
    <text x="295.35" y="50.44">.</text>
<text x="325.69" y="59.81">.</text>
<text x="282.54" y="18.45">.</text>
<text x="127.27" y="482.97">.</text>
<text x="425.30" y="103.07">.</text>
<text x="89.10" y="391.23">+</text>
<text x="244.50" y="497.90">*</text>
<text x="401.77" y="459.64">+</text>
<text x="13.78" y="468.79">*</text>
<text x="436.83" y="347.68">.</text>
<text x="285.83" y="207.85">.</text>
<text x="349.24" y="128.33">+</text>
<text x="218.04" y="152.63">.</text>
<text x="370.97" y="200.46">+</text>
<text x="389.27" y="85.95">.</text>
<text x="228.39" y="135.83">+</text>
<text x="177.15" y="274.19">*</text>
<text x="277.73" y="239.73">.</text>
<text x="276.56" y="380.73">.</text>
<text x="71.91" y="487.51">+</text>
<text x="157.01" y="59.89">.</text>
<text x="271.13" y="158.94">+</text>
<text x="315.32" y="81.46">+</text>
<text x="98.98" y="62.57">.</text>
<text x="490.98" y="180.81">+</text>
<text x="187.88" y="101.85">.</text>
<text x="196.48" y="117.86">.</text>
<text x="153.30" y="117.17">+</text>
<text x="258.64" y="392.17">.</text>
<text x="78.30" y="118.41">+</text>
<text x="308.12" y="36.36">*</text>
<text x="449.89" y="356.14">.</text>
<text x="201.11" y="55.46">.</text>
<text x="213.93" y="65.51">.</text>
<text x="400.98" y="391.94">*</text>
<text x="416.74" y="422.34">.</text>
<text x="110.17" y="353.78">+</text>
<text x="91.10" y="158.30">+</text>
<text x="421.00" y="247.68">.</text>
<text x="404.52" y="290.27">.</text>
<text x="118.06" y="330.15">*</text>
<text x="23.00" y="206.22">.</text>
<text x="300.72" y="277.28">.</text>
<text x="456.41" y="282.28">*</text>
<text x="375.25" y="267.39">*</text>
<text x="499.56" y="91.23">.</text>
<text x="201.63" y="378.95">+</text>
<text x="484.68" y="378.74">+</text>
<text x="258.44" y="131.36">.</text>
<text x="45.42" y="438.00">.</text>
<text x="208.95" y="238.03">.</text>
<text x="276.86" y="254.59">+</text>
<text x="153.49" y="58.40">+</text>
<text x="90.24" y="424.06">.</text>
<text x="63.00" y="89.41">.</text>
<text x="49.55" y="217.69">+</text>
<text x="458.04" y="362.77">.</text>
<text x="384.08" y="84.81">+</text>
<text x="98.15" y="296.54">+</text>
<text x="166.86" y="133.83">.</text>
<text x="476.37" y="388.12">*</text>
<text x="452.25" y="373.55">*</text>
<text x="359.26" y="476.54">.</text>
<text x="497.08" y="48.69">+</text>
<text x="275.20" y="181.59">+</text>
<text x="255.74" y="492.99">+</text>
<text x="212.56" y="3.16">+</text>
<text x="467.97" y="313.89">+</text>
<text x="28.24" y="25.61">*</text>
<text x="135.41" y="388.54">*</text>
<text x="370.90" y="92.64">.</text>
<text x="243.88" y="478.46">+</text>
<text x="62.33" y="246.97">.</text>
<text x="354.25" y="165.66">+</text>
<text x="342.98" y="331.53">.</text>
<text x="90.23" y="419.89">.</text>
<text x="161.29" y="225.42">.</text>
<text x="64.55" y="60.02">.</text>
<text x="47.63" y="69.35">+</text>
<text x="361.71" y="66.92">.</text>
<text x="278.08" y="228.67">.</text>
<text x="213.24" y="147.79">+</text>
<text x="22.88" y="327.76">+</text>
<text x="468.53" y="231.89">+</text>
<text x="347.04" y="391.21">*</text>
<text x="285.12" y="265.90">+</text>
<text x="152.18" y="14.67">*</text>
<text x="77.54" y="424.95">.</text>
<text x="122.24" y="355.39">.</text>
<text x="486.46" y="159.93">+</text>
<text x="170.85" y="315.43">.</text>
<text x="401.41" y="236.67">+</text>
<text x="407.43" y="149.28">+</text>
<text x="345.51" y="325.24">.</text>
<text x="225.68" y="497.13">.</text>
<text x="238.75" y="5.57">+</text>
<text x="183.13" y="404.19">.</text>
<text x="439.80" y="130.49">+</text>
<text x="361.98" y="248.33">.</text>
<text x="196.11" y="2.90">*</text>
<text x="437.43" y="273.11">+</text>
<text x="78.49" y="39.37">.</text>
<text x="393.15" y="289.79">+</text>
<text x="432.56" y="351.26">.</text>
<text x="359.17" y="93.97">+</text>
<text x="419.55" y="153.46">.</text>
<text x="298.98" y="313.40">+</text>
<text x="88.00" y="246.21">.</text>
<text x="465.11" y="470.08">+</text>
<text x="239.02" y="362.74">*</text>
<text x="366.30" y="111.67">.</text>
<text x="53.98" y="10.99">+</text>
<text x="383.45" y="160.36">.</text>
<text x="193.75" y="127.22">*</text>
<text x="291.21" y="78.18">+</text>
<text x="323.49" y="292.76">+</text>
<text x="301.62" y="211.79">.</text>
<text x="26.58" y="259.80">+</text>
<text x="105.10" y="305.39">+</text>
<text x="351.51" y="10.15">.</text>
<text x="448.10" y="359.80">.</text>
<text x="364.11" y="244.31">+</text>
<text x="57.13" y="231.57">+</text>
<text x="317.09" y="83.86">+</text>
<text x="366.21" y="122.69">.</text>
<text x="71.73" y="239.31">+</text>
<text x="403.78" y="104.81">+</text>
<text x="419.84" y="177.87">.</text>
<text x="459.14" y="62.09">+</text>
<text x="14.10" y="243.47">+</text>
<text x="44.48" y="60.38">+</text>
<text x="154.10" y="31.51">*</text>
<text x="447.56" y="416.72">+</text>
<text x="440.45" y="266.94">+</text>
<text x="467.36" y="156.92">+</text>
<text x="261.96" y="265.59">+</text>
<text x="403.52" y="343.75">.</text>
<text x="186.57" y="472.26">+</text>
<text x="279.84" y="205.50">+</text>
<text x="496.04" y="335.71">.</text>
<text x="164.10" y="497.90">+</text>
<text x="2.75" y="409.44">.</text>
<text x="391.25" y="376.61">.</text>
<text x="351.06" y="31.86">+</text>
<text x="77.80" y="170.55">.</text>
<text x="71.51" y="437.48">*</text>
<text x="309.17" y="456.40">.</text>
<text x="148.36" y="47.59">*</text>
<text x="364.68" y="361.82">+</text>
<text x="355.35" y="288.83">+</text>
<text x="185.25" y="10.48">.</text>
<text x="245.08" y="350.28">+</text>
<text x="326.24" y="284.37">+</text>
<text x="288.89" y="336.42">+</text>
<text x="84.08" y="39.83">.</text>
<text x="1.36" y="451.43">+</text>
<text x="356.45" y="170.81">*</text>
<text x="476.45" y="295.82">.</text>
<text x="297.74" y="443.62">+</text>
<text x="454.80" y="424.96">.</text>
<text x="70.00" y="433.44">+</text>
<text x="207.68" y="362.00">+</text>
<text x="256.93" y="378.25">.</text>
<text x="41.91" y="144.44">.</text>
<text x="52.90" y="195.20">+</text>
<text x="99.53" y="267.59">.</text>
<text x="291.55" y="224.80">.</text>
<text x="386.29" y="202.77">.</text>
<text x="256.47" y="178.82">.</text>
<text x="316.58" y="224.49">.</text>
<text x="121.38" y="69.04">+</text>
<text x="160.51" y="19.33">.</text>
<text x="421.52" y="183.83">.</text>
<text x="335.68" y="468.64">*</text>
<text x="415.32" y="46.87">+</text>
<text x="19.20" y="288.53">.</text>
<text x="134.63" y="247.62">.</text>
<text x="25.73" y="424.01">.</text>
<text x="176.41" y="439.15">+</text>
<text x="233.47" y="236.09">*</text>
<text x="45.11" y="346.04">.</text>
<text x="64.95" y="138.96">.</text>
<text x="461.92" y="349.45">.</text>
<text x="127.08" y="302.75">.</text>
<text x="121.97" y="365.51">.</text>
<text x="51.73" y="40.51">.</text>
<text x="464.92" y="366.23">.</text>
<text x="340.10" y="324.29">+</text>
<text x="168.06" y="203.59">*</text>
<text x="58.81" y="263.74">+</text>
<text x="366.08" y="403.02">+</text>
<text x="134.00" y="221.16">+</text>
<text x="288.34" y="161.19">+</text>
<text x="249.55" y="284.15">.</text>
<text x="61.14" y="20.55">+</text>
<text x="24.07" y="117.47">+</text>
<text x="363.13" y="417.48">.</text>
<text x="338.41" y="156.50">+</text>
<text x="240.80" y="378.81">.</text>
<text x="251.66" y="232.78">+</text>
<text x="407.46" y="351.51">.</text>
<text x="490.42" y="128.20">+</text>
<text x="214.53" y="374.59">.</text>
<text x="15.38" y="371.32">+</text>
<text x="5.77" y="170.02">+</text>
<text x="436.49" y="123.95">*</text>
<text x="325.59" y="199.45">.</text>
<text x="156.04" y="381.68">+</text>
<text x="383.08" y="147.85">.</text>

</svg>