
<svg viewBox="0 0 500 500" xmlns="http://www.w.org/2000/svg" width="100%" height="100%" style="background-color: #0a0a14; font-family: 'Courier New', Courier, monospace;">
    <style>
        text { fill: #aaa; font-size: 10px; text-anchor: middle; dominant-baseline: middle; }
    </style>
    <text x="282.27" y="11.66">+</text>
<text x="70.71" y="5.82">+</text>
<text x="232.94" y="147.75">+</text>
<text x="358.11" y="41.94">*</text>
<text x="467.99" y="144.77">*</text>
<text x="328.55" y="402.76">+</text>
<text x="205.74" y="330.87">.</text>
<text x="419.85" y="347.99">+</text>
<text x="459.83" y="135.82">.</text>
<text x="478.53" y="462.02">.</text>
<text x="206.91" y="492.47">+</text>
<text x="433.02" y="130.34">.</text>
<text x="446.43" y="167.43">.</text>
<text x="208.05" y="414.47">.</text>
<text x="59.33" y="58.68">.</text>
<text x="137.50" y="203.27">.</text>
<text x="313.44" y="343.22">.</text>
<text x="300.88" y="43.42">*</text>
<text x="160.81" y="231.49">+</text>
<text x="55.97" y="156.10">.</text>
<text x="199.26" y="409.41">*</text>
<text x="170.86" y="220.72">+</text>
<text x="22.93" y="278.49">.</text>
<text x="181.24" y="475.77">*</text>
<text x="473.05" y="466.65">.</text>
<text x="218.47" y="111.79">.</text>
<text x="292.97" y="430.41">.</text>
<text x="476.86" y="30.24">.</text>
<text x="329.24" y="35.50">+</text>
<text x="343.64" y="107.03">.</text>
<text x="110.01" y="265.04">+</text>
<text x="125.69" y="409.59">.</text>
<text x="325.01" y="447.96">.</text>
<text x="222.43" y="66.99">.</text>
<text x="33.35" y="489.62">.</text>
<text x="352.80" y="428.52">+</text>
<text x="119.26" y="123.81">+</text>
<text x="103.42" y="409.67">*</text>
<text x="65.70" y="80.34">+</text>
<text x="62.50" y="181.88">+</text>
<text x="253.07" y="323.77">+</text>
<text x="225.02" y="226.39">.</text>
<text x="182.12" y="203.87">+</text>
<text x="225.00" y="355.19">+</text>
<text x="16.14" y="283.61">+</text>
<text x="396.91" y="338.64">*</text>
<text x="450.92" y="263.36">.</text>
<text x="238.07" y="57.59">+</text>
<text x="99.36" y="333.36">+</text>
<text x="382.44" y="404.01">+</text>
<text x="164.03" y="136.78">+</text>
<text x="146.91" y="402.78">.</text>
<text x="197.41" y="185.85">.</text>
<text x="414.83" y="123.18">+</text>
<text x="36.78" y="21.19">+</text>
<text x="467.40" y="401.23">.</text>
<text x="321.48" y="72.25">.</text>
<text x="75.18" y="148.27">+</text>
<text x="327.58" y="192.91">.</text>
<text x="241.72" y="73.66">+</text>
<text x="293.68" y="402.74">.</text>
<text x="218.63" y="475.18">+</text>
<text x="262.28" y="185.24">.</text>
<text x="78.70" y="29.30">+</text>
<text x="107.23" y="407.17">+</text>
<text x="296.94" y="226.05">*</text>
<text x="34.43" y="48.65">.</text>
<text x="10.30" y="251.93">+</text>
<text x="172.45" y="371.42">*</text>
<text x="272.60" y="476.46">+</text>
<text x="135.97" y="208.96">+</text>
<text x="358.15" y="282.55">*</text>
<text x="432.36" y="299.57">.</text>
<text x="101.22" y="346.69">+</text>
<text x="475.09" y="174.98">*</text>
<text x="326.74" y="478.72">+</text>
<text x="283.27" y="470.29">+</text>
<text x="132.10" y="277.12">+</text>
<text x="494.44" y="405.02">+</text>
<text x="363.20" y="499.50">+</text>
<text x="25.66" y="458.88">+</text>
<text x="374.59" y="472.79">+</text>
<text x="121.99" y="432.92">+</text>
<text x="146.73" y="302.94">+</text>
<text x="152.78" y="235.24">.</text>
<text x="153.42" y="126.31">.</text>
<text x="178.46" y="7.81">+</text>
<text x="77.77" y="464.98">*</text>
<text x="248.93" y="348.22">+</text>
<text x="147.25" y="465.11">+</text>
<text x="139.03" y="206.36">+</text>
<text x="104.92" y="3.12">+</text>
<text x="49.82" y="8.88">.</text>
<text x="246.05" y="279.13">.</text>
<text x="377.37" y="405.13">*</text>
<text x="116.09" y="11.36">.</text>
<text x="100.71" y="0.65">+</text>
<text x="494.99" y="291.43">*</text>
<text x="241.49" y="42.11">+</text>
<text x="378.33" y="396.81">+</text>
<text x="45.88" y="381.62">+</text>
<text x="499.87" y="484.85">.</text>
<text x="120.62" y="206.75">.</text>
<text x="448.43" y="431.04">.</text>
<text x="353.76" y="215.16">+</text>
<text x="299.88" y="423.68">+</text>
<text x="3.37" y="258.59">+</text>
<text x="186.85" y="378.73">+</text>
<text x="370.98" y="266.87">.</text>
<text x="99.26" y="227.10">*</text>
<text x="496.34" y="336.19">+</text>
<text x="286.51" y="315.44">.</text>
<text x="313.96" y="295.90">*</text>
<text x="14.41" y="314.95">.</text>
<text x="38.93" y="230.14">+</text>
<text x="74.57" y="364.05">*</text>
<text x="220.70" y="312.72">+</text>
<text x="13.00" y="316.25">*</text>
<text x="264.27" y="205.10">+</text>
<text x="457.84" y="479.03">.</text>
<text x="459.48" y="257.78">*</text>
<text x="312.74" y="187.24">.</text>
<text x="330.64" y="58.10">+</text>
<text x="498.11" y="160.21">+</text>
<text x="141.39" y="369.49">+</text>
<text x="89.78" y="192.28">+</text>
<text x="86.25" y="378.95">+</text>
<text x="26.17" y="9.18">+</text>
<text x="411.69" y="239.22">+</text>
<text x="113.09" y="48.86">.</text>
<text x="331.12" y="368.74">+</text>
<text x="248.86" y="259.55">+</text>
<text x="126.06" y="469.72">+</text>
<text x="445.12" y="213.41">+</text>
<text x="358.12" y="485.48">+</text>
<text x="92.67" y="429.70">+</text>
<text x="218.91" y="449.83">.</text>
<text x="268.58" y="304.48">+</text>
<text x="384.84" y="87.37">.</text>
<text x="457.30" y="412.12">*</text>
<text x="391.83" y="414.79">.</text>
<text x="295.24" y="306.63">.</text>
<text x="451.89" y="393.75">+</text>
<text x="354.14" y="392.97">.</text>
<text x="20.58" y="2.72">+</text>
<text x="103.31" y="198.78">+</text>
<text x="196.89" y="457.33">.</text>
<text x="414.81" y="10.43">.</text>
<text x="459.91" y="293.40">.</text>
<text x="195.03" y="265.84">+</text>
<text x="5.15" y="371.46">+</text>
<text x="175.02" y="360.44">.</text>
<text x="156.96" y="37.63">*</text>
<text x="294.57" y="458.31">+</text>
<text x="424.09" y="323.51">+</text>
<text x="489.79" y="93.06">+</text>
<text x="151.75" y="93.28">+</text>
<text x="391.22" y="7.56">.</text>
<text x="82.37" y="174.75">+</text>
<text x="137.91" y="464.73">*</text>
<text x="40.93" y="429.80">.</text>
<text x="232.68" y="17.97">.</text>
<text x="150.17" y="110.21">*</text>
<text x="416.43" y="360.69">.</text>
<text x="420.74" y="28.25">.</text>
<text x="233.11" y="434.61">.</text>
<text x="232.08" y="73.62">.</text>
<text x="70.37" y="348.44">.</text>
<text x="402.78" y="455.02">.</text>
<text x="284.94" y="135.55">+</text>
<text x="88.89" y="398.41">.</text>
<text x="166.36" y="45.88">.</text>
<text x="41.70" y="290.42">.</text>
<text x="93.45" y="349.73">*</text>
<text x="3.84" y="432.24">*</text>
<text x="242.76" y="9.02">*</text>
<text x="160.36" y="378.85">.</text>
<text x="93.89" y="321.23">.</text>
<text x="65.21" y="240.29">.</text>
<text x="327.34" y="192.58">.</text>
<text x="100.41" y="19.52">+</text>
<text x="362.19" y="85.46">+</text>
<text x="184.48" y="497.50">.</text>
<text x="91.33" y="283.56">+</text>
<text x="70.89" y="128.51">.</text>
<text x="393.14" y="34.34">.</text>
<text x="203.66" y="257.48">*</text>
<text x="187.81" y="123.27">+</text>
<text x="406.94" y="97.14">.</text>
<text x="357.40" y="406.79">+</text>
<text x="256.62" y="76.79">+</text>
<text x="479.56" y="402.57">.</text>
<text x="470.36" y="282.26">*</text>
<text x="412.88" y="394.71">.</text>
<text x="244.99" y="102.46">*</text>
<text x="97.06" y="75.42">+</text>
<text x="418.81" y="316.39">.</text>
<text x="96.70" y="404.37">.</text>
<text x="14.83" y="197.53">.</text>
<text x="499.11" y="260.12">+</text>
<text x="419.28" y="336.12">.</text>
<text x="366.65" y="351.60">+</text>
<text x="414.78" y="236.49">.</text>
<text x="485.13" y="450.15">.</text>

</svg>