
<svg viewBox="0 0 500 500" xmlns="http://www.w.org/2000/svg" width="100%" height="100%" style="background-color: #0a0a14; font-family: 'Courier New', Courier, monospace;">
    <style>
        text { fill: #aaa; font-size: 10px; text-anchor: middle; dominant-baseline: middle; }
    </style>
    <text x="102.40" y="434.83">+</text>
<text x="462.49" y="250.39">*</text>
<text x="333.05" y="243.90">+</text>
<text x="476.62" y="363.95">.</text>
<text x="69.00" y="43.58">.</text>
<text x="356.65" y="61.98">+</text>
<text x="139.71" y="231.59">+</text>
<text x="165.78" y="150.11">*</text>
<text x="419.03" y="467.97">*</text>
<text x="342.97" y="115.01">+</text>
<text x="380.08" y="396.51">.</text>
<text x="174.54" y="23.32">+</text>
<text x="423.63" y="189.81">.</text>
<text x="185.38" y="181.36">+</text>
<text x="173.29" y="124.91">.</text>
<text x="478.88" y="68.89">+</text>
<text x="483.98" y="356.08">+</text>
<text x="210.39" y="361.62">+</text>
<text x="422.34" y="33.15">.</text>
<text x="231.77" y="189.47">.</text>
<text x="187.21" y="432.42">.</text>
<text x="95.84" y="112.72">.</text>
<text x="306.49" y="436.63">+</text>
<text x="15.79" y="347.59">.</text>
<text x="267.12" y="217.85">.</text>
<text x="415.08" y="326.66">.</text>
<text x="330.85" y="177.52">+</text>
<text x="402.36" y="428.43">+</text>
<text x="86.37" y="369.18">.</text>
<text x="126.54" y="464.83">.</text>
<text x="116.78" y="53.80">.</text>
<text x="336.35" y="227.90">+</text>
<text x="297.38" y="94.39">+</text>
<text x="308.19" y="12.72">.</text>
<text x="88.83" y="128.84">+</text>
<text x="55.84" y="38.42">*</text>
<text x="492.15" y="127.84">.</text>
<text x="335.30" y="289.67">+</text>
<text x="183.11" y="194.87">.</text>
<text x="467.05" y="281.98">.</text>
<text x="458.81" y="307.74">*</text>
<text x="255.46" y="57.00">+</text>
<text x="365.14" y="86.66">+</text>
<text x="276.23" y="456.85">+</text>
<text x="32.65" y="333.91">+</text>
<text x="332.12" y="253.20">.</text>
<text x="250.42" y="371.12">+</text>
<text x="153.55" y="211.73">.</text>
<text x="287.27" y="18.94">.</text>
<text x="111.82" y="102.53">.</text>
<text x="418.71" y="458.22">+</text>
<text x="464.49" y="321.15">+</text>
<text x="450.83" y="255.08">.</text>
<text x="316.99" y="60.80">*</text>
<text x="238.70" y="11.70">+</text>
<text x="237.75" y="96.99">*</text>
<text x="444.34" y="174.67">*</text>
<text x="202.18" y="485.66">.</text>
<text x="208.33" y="33.95">*</text>
<text x="60.77" y="446.78">+</text>
<text x="272.00" y="107.49">.</text>
<text x="479.27" y="242.16">+</text>
<text x="2.44" y="69.14">.</text>
<text x="73.91" y="394.63">+</text>
<text x="499.73" y="37.65">.</text>
<text x="422.16" y="157.88">+</text>
<text x="492.15" y="491.20">*</text>
<text x="485.04" y="447.36">.</text>
<text x="263.56" y="128.58">.</text>
<text x="273.31" y="266.09">*</text>
<text x="266.23" y="47.13">+</text>
<text x="293.60" y="394.16">+</text>
<text x="238.92" y="420.76">.</text>
<text x="87.58" y="199.95">*</text>
<text x="76.90" y="460.77">+</text>
<text x="86.71" y="198.62">.</text>
<text x="257.49" y="111.54">.</text>
<text x="150.16" y="30.55">.</text>
<text x="422.55" y="400.25">*</text>
<text x="308.51" y="234.96">*</text>
<text x="360.13" y="340.73">+</text>
<text x="107.06" y="196.94">*</text>
<text x="473.72" y="16.40">.</text>
<text x="347.30" y="468.13">+</text>
<text x="190.11" y="363.46">*</text>
<text x="487.45" y="348.72">+</text>
<text x="294.86" y="249.19">+</text>
<text x="174.50" y="451.25">.</text>
<text x="98.84" y="179.73">+</text>
<text x="443.64" y="71.61">.</text>
<text x="154.23" y="188.15">+</text>
<text x="353.77" y="429.53">+</text>
<text x="40.59" y="109.35">+</text>
<text x="383.81" y="350.81">+</text>
<text x="291.30" y="220.01">.</text>
<text x="29.22" y="411.54">.</text>
<text x="357.80" y="105.57">.</text>
<text x="82.55" y="284.75">.</text>
<text x="40.87" y="381.98">+</text>
<text x="353.87" y="428.15">+</text>
<text x="345.06" y="304.28">+</text>
<text x="451.26" y="197.22">+</text>
<text x="169.30" y="248.17">+</text>
<text x="103.13" y="298.96">+</text>
<text x="396.11" y="212.43">.</text>
<text x="327.84" y="212.53">*</text>
<text x="284.48" y="296.91">*</text>
<text x="97.66" y="410.02">.</text>
<text x="161.00" y="318.72">*</text>
<text x="453.89" y="195.71">.</text>
<text x="261.87" y="401.37">.</text>
<text x="373.58" y="225.18">.</text>
<text x="251.53" y="458.88">.</text>
<text x="240.69" y="210.04">.</text>
<text x="281.32" y="435.36">.</text>
<text x="353.42" y="153.74">*</text>
<text x="3.32" y="223.57">*</text>
<text x="195.99" y="365.00">+</text>
<text x="246.58" y="417.64">+</text>
<text x="432.25" y="388.05">.</text>
<text x="454.89" y="149.92">+</text>
<text x="193.50" y="229.79">+</text>
<text x="86.81" y="416.21">.</text>
<text x="246.06" y="239.53">.</text>
<text x="258.59" y="304.80">.</text>
<text x="439.46" y="151.70">.</text>
<text x="136.70" y="209.84">.</text>
<text x="347.32" y="171.92">.</text>
<text x="389.38" y="4.44">*</text>
<text x="442.04" y="14.41">.</text>
<text x="492.24" y="9.94">.</text>
<text x="123.86" y="212.32">.</text>
<text x="445.66" y="372.97">+</text>
<text x="28.96" y="83.64">.</text>
<text x="318.71" y="110.65">+</text>
<text x="12.88" y="272.54">+</text>
<text x="31.23" y="356.35">.</text>
<text x="313.69" y="196.51">+</text>
<text x="100.48" y="253.95">+</text>
<text x="215.31" y="394.88">+</text>
<text x="337.18" y="331.41">*</text>
<text x="436.40" y="3.61">.</text>
<text x="36.78" y="426.18">.</text>
<text x="431.37" y="251.65">*</text>
<text x="39.83" y="387.46">*</text>
<text x="473.44" y="462.22">+</text>
<text x="97.06" y="47.78">+</text>
<text x="289.07" y="265.45">+</text>
<text x="260.31" y="172.66">.</text>
<text x="98.43" y="339.36">.</text>
<text x="405.74" y="107.69">+</text>
<text x="63.73" y="219.41">.</text>
<text x="11.44" y="441.27">+</text>
<text x="5.17" y="159.32">.</text>
<text x="155.08" y="300.71">+</text>
<text x="63.59" y="410.50">+</text>
<text x="345.01" y="215.12">+</text>
<text x="496.92" y="35.61">.</text>
<text x="319.37" y="236.16">.</text>
<text x="184.65" y="411.31">+</text>
<text x="66.73" y="201.01">.</text>
<text x="336.11" y="474.14">+</text>
<text x="306.41" y="247.32">*</text>
<text x="252.99" y="215.66">+</text>
<text x="406.47" y="384.37">*</text>
<text x="164.66" y="402.65">*</text>
<text x="161.78" y="83.98">*</text>
<text x="14.53" y="228.10">.</text>
<text x="250.93" y="441.24">*</text>
<text x="385.73" y="123.28">+</text>
<text x="300.34" y="492.02">.</text>
<text x="193.30" y="497.69">+</text>
<text x="483.43" y="66.12">.</text>
<text x="452.21" y="427.40">+</text>
<text x="388.26" y="499.88">.</text>
<text x="69.78" y="51.80">+</text>
<text x="13.50" y="388.10">+</text>
<text x="288.31" y="304.40">+</text>
<text x="323.97" y="159.59">+</text>
<text x="497.40" y="411.35">+</text>
<text x="270.59" y="186.37">.</text>
<text x="248.48" y="450.58">+</text>
<text x="191.32" y="434.46">.</text>
<text x="374.72" y="110.75">*</text>
<text x="190.98" y="281.45">.</text>
<text x="268.84" y="101.46">+</text>
<text x="383.61" y="169.31">.</text>
<text x="286.14" y="338.42">.</text>
<text x="51.22" y="334.16">*</text>
<text x="450.02" y="149.68">+</text>
<text x="221.79" y="295.87">+</text>
<text x="225.61" y="97.44">.</text>
<text x="40.14" y="287.74">.</text>
<text x="272.87" y="410.78">.</text>
<text x="72.72" y="468.41">+</text>
<text x="192.21" y="229.80">*</text>
<text x="401.59" y="392.76">.</text>
<text x="235.90" y="416.27">.</text>
<text x="103.71" y="472.28">+</text>
<text x="72.88" y="261.70">+</text>
<text x="52.59" y="31.57">+</text>
<text x="453.08" y="445.40">+</text>
<text x="180.27" y="164.06">*</text>
<text x="396.43" y="370.43">+</text>
<text x="368.00" y="380.14">+</text>
<text x="210.13" y="479.86">.</text>
<text x="321.90" y="131.52">.</text>
<text x="365.56" y="76.54">+</text>
<text x="209.76" y="40.10">+</text>
<text x="322.12" y="389.59">.</text>
<text x="67.19" y="318.47">+</text>
<text x="65.46" y="9.30">+</text>
<text x="176.63" y="437.26">+</text>
<text x="395.54" y="490.76">+</text>
<text x="463.04" y="242.94">+</text>

</svg>