
<svg viewBox="0 0 500 500" xmlns="http://www.w.org/2000/svg" width="100%" height="100%" style="background-color: #0a0a14; font-family: 'Courier New', Courier, monospace;">
    <style>
        text { fill: #aaa; font-size: 10px; text-anchor: middle; dominant-baseline: middle; }
    </style>
    <text x="454.92" y="186.12">+</text>
<text x="171.33" y="211.14">+</text>
<text x="437.49" y="27.84">.</text>
<text x="11.30" y="485.95">*</text>
<text x="140.63" y="376.31">+</text>
<text x="92.99" y="342.53">+</text>
<text x="498.74" y="57.78">+</text>
<text x="82.97" y="250.19">+</text>
<text x="61.61" y="347.46">.</text>
<text x="471.05" y="302.47">+</text>
<text x="55.24" y="217.46">+</text>
<text x="456.85" y="33.96">+</text>
<text x="111.78" y="489.55">+</text>
<text x="136.20" y="67.19">.</text>
<text x="167.47" y="301.44">+</text>
<text x="281.97" y="321.41">+</text>
<text x="463.07" y="239.40">+</text>
<text x="101.34" y="408.71">.</text>
<text x="160.47" y="254.05">+</text>
<text x="25.44" y="19.78">.</text>
<text x="458.81" y="117.78">*</text>
<text x="289.90" y="43.72">+</text>
<text x="155.29" y="308.11">+</text>
<text x="39.03" y="63.40">.</text>
<text x="212.53" y="381.05">.</text>
<text x="83.49" y="42.75">.</text>
<text x="229.00" y="134.78">.</text>
<text x="174.86" y="259.76">+</text>
<text x="316.58" y="344.18">.</text>
<text x="101.70" y="347.73">+</text>
<text x="496.18" y="65.93">.</text>
<text x="100.20" y="311.28">.</text>
<text x="469.06" y="362.36">.</text>
<text x="374.44" y="265.59">.</text>
<text x="399.69" y="64.07">*</text>
<text x="290.78" y="233.13">+</text>
<text x="71.55" y="498.64">.</text>
<text x="242.54" y="185.38">*</text>
<text x="7.12" y="205.61">+</text>
<text x="424.02" y="378.08">.</text>
<text x="48.17" y="142.35">*</text>
<text x="449.23" y="359.05">+</text>
<text x="256.39" y="86.45">+</text>
<text x="361.42" y="17.30">+</text>
<text x="31.10" y="96.76">.</text>
<text x="388.89" y="390.09">.</text>
<text x="147.19" y="112.74">+</text>
<text x="57.10" y="467.01">.</text>
<text x="229.83" y="192.26">*</text>
<text x="232.03" y="432.17">.</text>
<text x="184.68" y="49.71">+</text>
<text x="360.55" y="2.57">+</text>
<text x="38.58" y="199.56">*</text>
<text x="210.64" y="226.58">+</text>
<text x="477.70" y="27.95">+</text>
<text x="322.00" y="237.35">.</text>
<text x="42.05" y="372.86">+</text>
<text x="8.09" y="19.19">+</text>
<text x="254.77" y="53.26">.</text>
<text x="307.54" y="456.53">.</text>
<text x="144.43" y="179.51">+</text>
<text x="81.43" y="373.76">+</text>
<text x="386.74" y="33.41">+</text>
<text x="466.40" y="197.99">+</text>
<text x="139.15" y="211.28">+</text>
<text x="242.05" y="216.05">.</text>
<text x="333.45" y="159.24">.</text>
<text x="259.03" y="294.00">.</text>
<text x="116.33" y="301.48">+</text>
<text x="409.03" y="300.81">.</text>
<text x="32.87" y="182.91">*</text>
<text x="304.42" y="342.06">*</text>
<text x="448.22" y="457.03">+</text>
<text x="358.56" y="249.46">+</text>
<text x="175.79" y="391.14">*</text>
<text x="311.56" y="176.24">*</text>
<text x="198.72" y="226.68">+</text>
<text x="201.12" y="274.05">+</text>
<text x="90.15" y="485.51">+</text>
<text x="348.57" y="200.93">+</text>
<text x="323.21" y="80.24">.</text>
<text x="85.86" y="108.96">.</text>
<text x="228.58" y="131.53">*</text>
<text x="398.35" y="198.04">+</text>
<text x="233.64" y="39.88">.</text>
<text x="119.56" y="340.68">*</text>
<text x="32.13" y="179.69">+</text>
<text x="381.97" y="431.63">*</text>
<text x="428.90" y="88.83">.</text>
<text x="139.15" y="212.60">.</text>
<text x="102.11" y="328.38">.</text>
<text x="294.98" y="344.02">*</text>
<text x="151.44" y="384.18">.</text>
<text x="290.68" y="219.48">+</text>
<text x="321.82" y="250.57">.</text>
<text x="303.20" y="322.38">+</text>
<text x="357.86" y="393.01">+</text>
<text x="235.06" y="414.59">+</text>
<text x="473.78" y="146.33">.</text>
<text x="37.39" y="53.53">.</text>
<text x="62.79" y="95.07">.</text>
<text x="309.36" y="272.81">+</text>
<text x="194.40" y="99.37">.</text>
<text x="173.89" y="481.44">*</text>
<text x="349.46" y="72.61">+</text>
<text x="182.42" y="352.15">.</text>
<text x="53.59" y="171.49">.</text>
<text x="79.29" y="392.14">+</text>
<text x="474.59" y="108.27">.</text>
<text x="473.57" y="458.68">+</text>
<text x="41.76" y="132.64">.</text>
<text x="83.65" y="183.38">*</text>
<text x="92.75" y="113.01">+</text>
<text x="346.72" y="454.28">.</text>
<text x="149.96" y="279.17">.</text>
<text x="192.69" y="114.56">.</text>
<text x="74.93" y="403.29">.</text>
<text x="128.81" y="154.50">.</text>
<text x="69.56" y="184.56">+</text>
<text x="319.53" y="145.73">+</text>
<text x="18.37" y="345.87">.</text>
<text x="482.16" y="455.56">.</text>
<text x="186.43" y="161.94">+</text>
<text x="18.23" y="357.01">.</text>
<text x="63.21" y="492.48">.</text>
<text x="189.47" y="253.81">.</text>
<text x="38.65" y="22.32">.</text>
<text x="78.94" y="64.39">.</text>
<text x="89.82" y="42.80">.</text>
<text x="276.21" y="15.81">+</text>
<text x="341.60" y="15.68">.</text>
<text x="151.79" y="230.71">+</text>
<text x="18.99" y="47.58">+</text>
<text x="453.26" y="234.82">+</text>
<text x="442.95" y="426.64">*</text>
<text x="389.51" y="106.14">+</text>
<text x="108.74" y="394.29">.</text>
<text x="353.51" y="319.66">.</text>
<text x="344.75" y="13.74">+</text>
<text x="310.11" y="348.01">.</text>
<text x="330.37" y="122.35">+</text>
<text x="143.02" y="387.35">+</text>
<text x="146.80" y="272.84">.</text>
<text x="448.83" y="270.70">+</text>
<text x="91.60" y="178.12">.</text>
<text x="326.09" y="63.88">+</text>
<text x="360.61" y="354.68">*</text>
<text x="129.55" y="284.19">.</text>
<text x="300.82" y="57.49">.</text>
<text x="14.20" y="205.96">*</text>
<text x="61.50" y="126.50">+</text>
<text x="452.87" y="245.64">+</text>
<text x="325.55" y="111.08">+</text>
<text x="182.82" y="155.92">.</text>
<text x="28.67" y="341.45">.</text>
<text x="485.14" y="364.00">+</text>
<text x="9.61" y="132.78">.</text>
<text x="67.19" y="241.54">.</text>
<text x="86.80" y="401.73">.</text>
<text x="198.45" y="268.49">+</text>
<text x="469.89" y="392.97">*</text>
<text x="78.08" y="54.70">.</text>
<text x="388.26" y="351.72">.</text>
<text x="403.28" y="419.95">*</text>
<text x="227.59" y="178.55">.</text>
<text x="233.31" y="300.73">.</text>
<text x="96.08" y="246.51">*</text>
<text x="140.26" y="284.48">*</text>
<text x="65.14" y="227.12">*</text>
<text x="212.58" y="331.71">+</text>
<text x="260.74" y="192.17">.</text>
<text x="73.77" y="441.74">+</text>
<text x="328.82" y="237.11">.</text>
<text x="159.27" y="220.64">+</text>
<text x="213.49" y="212.67">+</text>
<text x="108.88" y="156.43">.</text>
<text x="53.05" y="21.45">.</text>
<text x="151.89" y="411.46">*</text>
<text x="282.59" y="238.68">+</text>
<text x="235.33" y="33.25">.</text>
<text x="245.68" y="166.24">.</text>
<text x="488.44" y="24.72">+</text>
<text x="491.65" y="205.60">.</text>
<text x="331.78" y="334.70">+</text>
<text x="112.13" y="24.11">+</text>
<text x="235.68" y="352.96">+</text>
<text x="273.62" y="464.61">.</text>
<text x="180.71" y="482.93">*</text>
<text x="212.51" y="289.34">.</text>
<text x="37.17" y="201.76">.</text>
<text x="401.17" y="161.17">+</text>
<text x="195.82" y="496.22">+</text>
<text x="386.76" y="192.96">*</text>
<text x="208.70" y="383.52">+</text>
<text x="226.05" y="181.48">+</text>
<text x="200.86" y="340.11">.</text>
<text x="325.33" y="173.64">+</text>
<text x="336.99" y="342.44">+</text>
<text x="390.76" y="114.68">*</text>
<text x="169.01" y="279.95">.</text>
<text x="307.98" y="276.72">+</text>
<text x="244.27" y="317.79">.</text>
<text x="101.56" y="314.85">+</text>
<text x="25.89" y="480.03">.</text>
<text x="474.68" y="276.26">+</text>

</svg>