
<svg viewBox="0 0 500 500" xmlns="http://www.w.org/2000/svg" width="100%" height="100%" style="background-color: #0a0a14; font-family: 'Courier New', Courier, monospace;">
    <style>
        text { fill: #aaa; font-size: 10px; text-anchor: middle; dominant-baseline: middle; }
    </style>
    <text x="57.63" y="164.44">*</text>
<text x="85.15" y="123.15">.</text>
<text x="167.55" y="391.65">*</text>
<text x="262.67" y="318.79">+</text>
<text x="347.28" y="330.67">.</text>
<text x="184.62" y="68.09">+</text>
<text x="412.28" y="174.80">+</text>
<text x="429.59" y="18.39">*</text>
<text x="137.67" y="418.46">.</text>
<text x="202.15" y="35.71">*</text>
<text x="85.58" y="250.14">.</text>
<text x="357.67" y="336.89">.</text>
<text x="256.75" y="481.80">.</text>
<text x="234.81" y="13.25">+</text>
<text x="135.25" y="449.47">*</text>
<text x="351.53" y="95.18">+</text>
<text x="184.07" y="30.03">+</text>
<text x="166.62" y="0.08">*</text>
<text x="67.69" y="492.50">+</text>
<text x="456.87" y="357.12">.</text>
<text x="451.29" y="423.53">.</text>
<text x="382.00" y="45.88">.</text>
<text x="122.76" y="451.68">.</text>
<text x="179.08" y="371.92">.</text>
<text x="199.93" y="288.14">+</text>
<text x="485.68" y="25.02">+</text>
<text x="154.22" y="329.12">+</text>
<text x="113.93" y="83.41">*</text>
<text x="54.71" y="396.13">+</text>
<text x="314.23" y="268.45">+</text>
<text x="35.60" y="300.59">+</text>
<text x="331.27" y="382.76">+</text>
<text x="169.51" y="226.17">.</text>
<text x="412.26" y="46.81">+</text>
<text x="477.05" y="233.30">+</text>
<text x="256.36" y="24.15">+</text>
<text x="2.50" y="218.24">+</text>
<text x="228.76" y="345.48">.</text>
<text x="139.97" y="448.78">.</text>
<text x="150.71" y="398.89">.</text>
<text x="380.79" y="161.53">.</text>
<text x="1.84" y="127.55">.</text>
<text x="348.31" y="456.55">.</text>
<text x="362.04" y="61.68">.</text>
<text x="327.71" y="386.13">.</text>
<text x="326.51" y="139.32">.</text>
<text x="163.05" y="85.35">+</text>
<text x="336.81" y="136.11">+</text>
<text x="383.91" y="232.06">+</text>
<text x="60.72" y="124.53">+</text>
<text x="81.55" y="351.12">+</text>
<text x="192.77" y="111.98">*</text>
<text x="151.21" y="457.66">+</text>
<text x="42.12" y="192.54">.</text>
<text x="425.39" y="100.08">+</text>
<text x="47.65" y="51.78">.</text>
<text x="291.02" y="129.92">.</text>
<text x="268.36" y="342.02">*</text>
<text x="8.17" y="388.18">+</text>
<text x="148.29" y="419.58">+</text>
<text x="491.24" y="92.97">.</text>
<text x="242.89" y="129.33">+</text>
<text x="94.79" y="390.03">*</text>
<text x="3.41" y="366.17">*</text>
<text x="11.73" y="212.49">+</text>
<text x="186.20" y="384.98">.</text>
<text x="166.28" y="216.78">+</text>
<text x="161.12" y="66.49">+</text>
<text x="122.65" y="460.81">.</text>
<text x="291.64" y="415.22">.</text>
<text x="407.40" y="279.33">.</text>
<text x="195.39" y="457.42">*</text>
<text x="338.71" y="229.29">.</text>
<text x="281.26" y="277.47">*</text>
<text x="109.97" y="486.99">.</text>
<text x="332.55" y="167.65">*</text>
<text x="219.50" y="192.78">+</text>
<text x="79.32" y="321.08">+</text>
<text x="113.04" y="376.84">.</text>
<text x="241.44" y="320.22">.</text>
<text x="362.36" y="311.09">*</text>
<text x="475.16" y="179.30">+</text>
<text x="52.98" y="47.81">.</text>
<text x="471.34" y="29.49">+</text>
<text x="27.47" y="172.01">*</text>
<text x="471.52" y="401.81">.</text>
<text x="107.97" y="28.52">.</text>
<text x="248.22" y="298.94">.</text>
<text x="475.82" y="241.74">+</text>
<text x="461.80" y="48.91">.</text>
<text x="365.89" y="283.72">+</text>
<text x="74.40" y="161.03">+</text>
<text x="198.58" y="8.88">+</text>
<text x="410.16" y="285.20">.</text>
<text x="83.19" y="205.86">.</text>
<text x="371.45" y="79.68">.</text>
<text x="257.57" y="398.05">+</text>
<text x="414.31" y="130.45">+</text>
<text x="469.74" y="283.99">*</text>
<text x="430.56" y="384.26">.</text>
<text x="310.92" y="13.95">+</text>
<text x="364.83" y="195.13">+</text>
<text x="274.46" y="201.86">+</text>
<text x="239.71" y="279.68">.</text>
<text x="314.80" y="137.27">*</text>
<text x="177.20" y="310.72">.</text>
<text x="253.46" y="254.66">.</text>
<text x="24.07" y="154.57">+</text>
<text x="369.32" y="355.08">.</text>
<text x="247.34" y="351.34">+</text>
<text x="379.74" y="168.32">.</text>
<text x="418.00" y="353.13">.</text>
<text x="235.79" y="223.38">.</text>
<text x="318.21" y="461.21">+</text>
<text x="429.27" y="275.59">.</text>
<text x="323.64" y="71.20">+</text>
<text x="428.51" y="179.06">.</text>
<text x="81.18" y="438.74">+</text>
<text x="339.10" y="15.40">+</text>
<text x="342.36" y="269.18">.</text>
<text x="399.66" y="402.30">+</text>
<text x="483.37" y="297.95">*</text>
<text x="243.71" y="38.46">.</text>
<text x="227.43" y="282.96">+</text>
<text x="346.44" y="166.13">+</text>
<text x="443.06" y="324.39">+</text>
<text x="8.67" y="131.36">+</text>
<text x="312.71" y="471.22">+</text>
<text x="140.71" y="421.47">.</text>
<text x="92.67" y="488.70">+</text>
<text x="20.77" y="88.77">.</text>
<text x="253.59" y="17.37">+</text>
<text x="420.90" y="104.47">.</text>
<text x="478.54" y="372.48">.</text>
<text x="140.69" y="102.02">*</text>
<text x="425.12" y="1.60">.</text>
<text x="171.05" y="146.83">.</text>
<text x="292.07" y="229.30">.</text>
<text x="215.02" y="87.93">.</text>
<text x="323.02" y="53.94">*</text>
<text x="280.79" y="71.40">.</text>
<text x="455.85" y="398.67">+</text>
<text x="249.75" y="384.00">+</text>
<text x="448.07" y="403.70">+</text>
<text x="152.38" y="496.58">+</text>
<text x="197.32" y="354.10">+</text>
<text x="377.58" y="79.60">+</text>
<text x="284.82" y="206.60">.</text>
<text x="29.91" y="76.47">.</text>
<text x="472.83" y="459.66">+</text>
<text x="242.87" y="398.49">+</text>
<text x="289.02" y="440.66">.</text>
<text x="186.99" y="287.97">.</text>
<text x="279.95" y="377.97">.</text>
<text x="429.56" y="107.54">*</text>
<text x="166.37" y="136.17">.</text>
<text x="117.10" y="219.17">+</text>
<text x="198.60" y="457.44">.</text>
<text x="428.57" y="243.88">+</text>
<text x="443.45" y="68.98">+</text>
<text x="152.46" y="141.82">+</text>
<text x="266.27" y="275.97">*</text>
<text x="155.26" y="291.59">+</text>
<text x="425.20" y="44.80">*</text>
<text x="49.62" y="15.53">+</text>
<text x="88.96" y="62.43">*</text>
<text x="111.62" y="387.04">.</text>
<text x="170.22" y="296.95">.</text>
<text x="85.94" y="380.50">+</text>
<text x="114.12" y="155.41">.</text>
<text x="238.88" y="349.91">*</text>
<text x="277.36" y="249.21">+</text>
<text x="136.29" y="110.54">*</text>
<text x="418.18" y="497.31">.</text>
<text x="262.45" y="13.86">+</text>
<text x="274.35" y="226.43">+</text>
<text x="122.49" y="68.61">+</text>
<text x="110.84" y="38.30">.</text>
<text x="7.98" y="410.10">.</text>
<text x="131.21" y="212.51">+</text>
<text x="215.80" y="118.47">+</text>
<text x="130.11" y="377.73">.</text>
<text x="62.77" y="146.64">.</text>
<text x="274.16" y="356.63">*</text>
<text x="203.92" y="308.95">.</text>
<text x="21.92" y="134.32">.</text>
<text x="191.08" y="377.89">.</text>
<text x="24.50" y="237.07">.</text>
<text x="234.30" y="56.66">+</text>
<text x="55.77" y="336.83">+</text>
<text x="428.84" y="233.36">*</text>
<text x="162.11" y="99.66">+</text>
<text x="193.69" y="25.82">+</text>
<text x="357.59" y="244.24">*</text>
<text x="142.63" y="432.34">.</text>
<text x="157.58" y="160.99">.</text>
<text x="224.88" y="333.35">+</text>
<text x="458.59" y="99.84">+</text>
<text x="301.66" y="375.03">+</text>
<text x="248.50" y="201.44">.</text>
<text x="146.10" y="495.02">*</text>
<text x="79.60" y="156.17">.</text>
<text x="237.63" y="412.27">*</text>

</svg>