
<svg viewBox="0 0 500 500" xmlns="http://www.w.org/2000/svg" width="100%" height="100%" style="background-color: #0a0a14; font-family: 'Courier New', Courier, monospace;">
    <style>
        text { fill: #aaa; font-size: 10px; text-anchor: middle; dominant-baseline: middle; }
    </style>
    <text x="66.30" y="251.86">*</text>
<text x="221.49" y="226.14">+</text>
<text x="12.80" y="494.03">+</text>
<text x="248.64" y="106.17">.</text>
<text x="187.71" y="142.79">.</text>
<text x="92.93" y="316.22">+</text>
<text x="297.26" y="121.58">+</text>
<text x="478.58" y="473.07">+</text>
<text x="336.20" y="47.01">*</text>
<text x="424.28" y="203.20">+</text>
<text x="172.92" y="472.84">+</text>
<text x="432.06" y="312.79">.</text>
<text x="32.73" y="230.67">.</text>
<text x="55.63" y="492.93">.</text>
<text x="54.69" y="60.32">*</text>
<text x="245.42" y="16.16">.</text>
<text x="73.41" y="3.24">+</text>
<text x="398.74" y="496.83">.</text>
<text x="107.76" y="368.48">.</text>
<text x="77.28" y="26.84">.</text>
<text x="143.30" y="60.77">.</text>
<text x="40.53" y="180.92">+</text>
<text x="156.48" y="326.42">.</text>
<text x="214.05" y="77.80">+</text>
<text x="312.13" y="294.60">*</text>
<text x="327.67" y="75.33">*</text>
<text x="152.93" y="3.48">.</text>
<text x="54.65" y="40.35">.</text>
<text x="470.37" y="14.36">+</text>
<text x="315.15" y="396.49">+</text>
<text x="393.87" y="246.22">.</text>
<text x="76.57" y="294.91">*</text>
<text x="45.05" y="486.34">+</text>
<text x="315.70" y="211.50">+</text>
<text x="202.33" y="167.63">.</text>
<text x="420.71" y="51.56">+</text>
<text x="172.34" y="490.59">.</text>
<text x="395.87" y="464.21">+</text>
<text x="64.57" y="273.90">+</text>
<text x="27.48" y="52.99">.</text>
<text x="432.18" y="442.43">.</text>
<text x="332.90" y="222.97">+</text>
<text x="66.19" y="417.67">+</text>
<text x="326.22" y="498.55">.</text>
<text x="54.89" y="332.06">+</text>
<text x="424.20" y="423.92">+</text>
<text x="381.16" y="335.60">*</text>
<text x="467.34" y="438.09">+</text>
<text x="429.53" y="481.80">.</text>
<text x="305.62" y="257.63">+</text>
<text x="373.66" y="222.55">+</text>
<text x="381.10" y="436.85">+</text>
<text x="346.00" y="14.58">*</text>
<text x="310.53" y="414.60">*</text>
<text x="102.05" y="443.56">.</text>
<text x="470.62" y="456.80">+</text>
<text x="220.98" y="117.80">.</text>
<text x="25.29" y="152.36">*</text>
<text x="73.10" y="284.20">*</text>
<text x="480.32" y="343.52">.</text>
<text x="441.73" y="234.84">*</text>
<text x="36.02" y="358.09">*</text>
<text x="486.71" y="299.48">.</text>
<text x="401.35" y="447.78">.</text>
<text x="448.30" y="471.19">+</text>
<text x="51.43" y="401.23">.</text>
<text x="78.45" y="128.38">+</text>
<text x="95.45" y="47.00">*</text>
<text x="482.01" y="16.83">.</text>
<text x="425.60" y="235.42">+</text>
<text x="397.28" y="405.43">.</text>
<text x="418.89" y="317.29">+</text>
<text x="58.50" y="277.50">.</text>
<text x="28.63" y="188.82">+</text>
<text x="151.42" y="21.04">*</text>
<text x="47.43" y="163.45">+</text>
<text x="241.96" y="484.95">+</text>
<text x="471.08" y="20.29">+</text>
<text x="325.28" y="262.80">+</text>
<text x="135.53" y="221.46">+</text>
<text x="90.06" y="52.81">*</text>
<text x="9.27" y="398.50">+</text>
<text x="348.34" y="333.59">.</text>
<text x="443.81" y="397.92">.</text>
<text x="300.72" y="171.64">+</text>
<text x="288.24" y="110.47">+</text>
<text x="418.27" y="30.78">+</text>
<text x="432.23" y="465.35">+</text>
<text x="61.09" y="476.98">+</text>
<text x="442.46" y="63.43">*</text>
<text x="424.68" y="433.84">.</text>
<text x="280.37" y="13.57">+</text>
<text x="267.46" y="473.69">.</text>
<text x="23.35" y="308.27">+</text>
<text x="151.65" y="268.94">+</text>
<text x="75.30" y="346.19">+</text>
<text x="208.04" y="359.63">+</text>
<text x="154.94" y="351.69">.</text>
<text x="463.86" y="171.57">.</text>
<text x="482.36" y="98.51">*</text>
<text x="65.25" y="27.26">+</text>
<text x="102.69" y="163.02">+</text>
<text x="458.99" y="310.97">.</text>
<text x="138.77" y="284.24">*</text>
<text x="295.60" y="408.98">+</text>
<text x="440.44" y="114.23">+</text>
<text x="368.93" y="188.28">.</text>
<text x="146.98" y="231.29">+</text>
<text x="401.35" y="285.83">+</text>
<text x="135.05" y="226.17">+</text>
<text x="273.02" y="433.02">+</text>
<text x="207.23" y="43.25">.</text>
<text x="417.00" y="169.56">.</text>
<text x="118.95" y="197.52">.</text>
<text x="265.31" y="68.76">.</text>
<text x="396.63" y="271.72">+</text>
<text x="247.66" y="471.90">+</text>
<text x="258.74" y="226.47">.</text>
<text x="172.83" y="255.61">*</text>
<text x="490.71" y="66.33">.</text>
<text x="239.86" y="42.81">+</text>
<text x="80.42" y="38.38">.</text>
<text x="246.79" y="115.22">+</text>
<text x="159.43" y="33.44">+</text>
<text x="445.49" y="387.27">+</text>
<text x="240.95" y="80.52">.</text>
<text x="114.50" y="221.38">.</text>
<text x="421.91" y="18.37">*</text>
<text x="15.17" y="437.72">.</text>
<text x="451.51" y="325.36">.</text>
<text x="376.22" y="323.94">+</text>
<text x="476.88" y="256.28">.</text>
<text x="61.90" y="330.97">+</text>
<text x="471.11" y="452.02">.</text>
<text x="334.37" y="291.90">+</text>
<text x="312.16" y="369.45">+</text>
<text x="331.18" y="465.52">+</text>
<text x="245.90" y="221.94">.</text>
<text x="244.04" y="470.87">.</text>
<text x="173.48" y="201.48">.</text>
<text x="408.04" y="119.30">.</text>
<text x="175.43" y="392.29">.</text>
<text x="86.64" y="380.20">.</text>
<text x="322.24" y="135.04">+</text>
<text x="51.71" y="4.94">.</text>
<text x="253.69" y="207.87">+</text>
<text x="174.11" y="271.14">+</text>
<text x="356.40" y="35.54">+</text>
<text x="15.10" y="218.44">+</text>
<text x="445.38" y="74.76">.</text>
<text x="183.82" y="46.96">+</text>
<text x="111.09" y="51.46">+</text>
<text x="304.74" y="489.92">+</text>
<text x="218.63" y="243.34">+</text>
<text x="66.48" y="149.54">.</text>
<text x="146.51" y="195.14">+</text>
<text x="238.58" y="53.34">*</text>
<text x="385.05" y="312.58">.</text>
<text x="470.31" y="290.26">+</text>
<text x="123.13" y="24.86">.</text>
<text x="491.79" y="457.52">+</text>
<text x="426.48" y="312.23">.</text>
<text x="205.90" y="133.83">+</text>
<text x="401.39" y="425.07">.</text>
<text x="205.47" y="384.56">.</text>
<text x="21.96" y="463.09">.</text>
<text x="193.88" y="0.01">.</text>
<text x="223.85" y="412.69">.</text>
<text x="235.78" y="80.26">.</text>
<text x="480.36" y="180.92">+</text>
<text x="360.11" y="176.26">+</text>
<text x="130.72" y="372.12">+</text>
<text x="427.06" y="240.39">.</text>
<text x="296.88" y="138.96">+</text>
<text x="87.49" y="6.90">+</text>
<text x="195.29" y="102.14">+</text>
<text x="24.86" y="386.54">.</text>
<text x="211.19" y="35.25">.</text>
<text x="235.66" y="11.49">.</text>
<text x="29.31" y="355.72">.</text>
<text x="390.24" y="195.52">+</text>
<text x="243.79" y="226.16">+</text>
<text x="35.95" y="357.32">+</text>
<text x="88.90" y="150.12">+</text>
<text x="86.72" y="373.67">.</text>
<text x="400.43" y="278.13">.</text>
<text x="198.62" y="27.71">.</text>
<text x="368.07" y="84.36">.</text>
<text x="365.36" y="262.97">+</text>
<text x="33.12" y="330.72">.</text>
<text x="419.47" y="492.19">+</text>
<text x="378.49" y="103.30">*</text>
<text x="340.88" y="455.19">.</text>
<text x="408.99" y="53.78">+</text>
<text x="122.51" y="299.01">.</text>
<text x="376.22" y="139.80">.</text>
<text x="362.72" y="446.28">.</text>
<text x="42.90" y="450.84">.</text>
<text x="174.85" y="89.69">+</text>
<text x="164.95" y="275.81">+</text>
<text x="78.75" y="183.58">+</text>
<text x="83.50" y="468.40">+</text>
<text x="353.39" y="226.21">.</text>
<text x="113.32" y="294.57">+</text>
<text x="156.34" y="107.82">+</text>
<text x="352.37" y="391.34">.</text>
<text x="389.96" y="388.08">+</text>

</svg>