
<svg viewBox="0 0 500 500" xmlns="http://www.w.org/2000/svg" width="100%" height="100%" style="background-color: #0a0a14; font-family: 'Courier New', Courier, monospace;">
    <style>
        text { fill: #aaa; font-size: 10px; text-anchor: middle; dominant-baseline: middle; }
    </style>
    <text x="13.65" y="480.46">.</text>
<text x="95.83" y="48.17">.</text>
<text x="384.16" y="81.83">+</text>
<text x="227.81" y="130.51">.</text>
<text x="216.90" y="269.69">+</text>
<text x="316.85" y="66.71">+</text>
<text x="146.35" y="234.02">+</text>
<text x="14.48" y="86.90">.</text>
<text x="191.06" y="176.95">.</text>
<text x="147.56" y="219.66">.</text>
<text x="294.98" y="24.34">+</text>
<text x="331.93" y="103.57">+</text>
<text x="389.87" y="72.45">.</text>
<text x="130.48" y="270.95">.</text>
<text x="36.86" y="354.49">.</text>
<text x="352.48" y="79.10">.</text>
<text x="453.68" y="358.09">+</text>
<text x="313.84" y="439.01">+</text>
<text x="412.48" y="385.24">+</text>
<text x="479.72" y="98.42">.</text>
<text x="219.55" y="128.64">+</text>
<text x="32.19" y="201.38">+</text>
<text x="32.57" y="94.62">.</text>
<text x="126.66" y="129.60">.</text>
<text x="270.58" y="307.02">+</text>
<text x="268.89" y="311.02">.</text>
<text x="49.63" y="487.12">+</text>
<text x="69.76" y="51.00">+</text>
<text x="340.08" y="269.14">*</text>
<text x="313.86" y="123.51">+</text>
<text x="94.01" y="386.68">.</text>
<text x="384.82" y="253.88">.</text>
<text x="406.85" y="422.45">+</text>
<text x="438.73" y="404.53">.</text>
<text x="442.73" y="28.67">.</text>
<text x="120.34" y="205.79">+</text>
<text x="462.27" y="357.95">+</text>
<text x="15.82" y="272.83">.</text>
<text x="128.29" y="121.11">.</text>
<text x="417.13" y="489.96">+</text>
<text x="233.38" y="214.63">*</text>
<text x="479.54" y="413.05">+</text>
<text x="172.98" y="138.69">+</text>
<text x="118.15" y="181.64">+</text>
<text x="305.99" y="67.20">.</text>
<text x="206.58" y="353.87">+</text>
<text x="330.07" y="474.77">.</text>
<text x="346.31" y="3.75">.</text>
<text x="70.74" y="192.05">*</text>
<text x="385.18" y="435.42">*</text>
<text x="61.42" y="308.60">.</text>
<text x="93.84" y="12.61">.</text>
<text x="180.47" y="206.48">.</text>
<text x="152.85" y="323.29">+</text>
<text x="395.28" y="429.42">*</text>
<text x="81.71" y="348.70">*</text>
<text x="240.70" y="255.72">.</text>
<text x="245.95" y="58.08">.</text>
<text x="5.93" y="13.08">+</text>
<text x="331.72" y="5.75">*</text>
<text x="209.32" y="468.42">+</text>
<text x="28.60" y="485.10">+</text>
<text x="12.50" y="479.70">+</text>
<text x="85.50" y="214.28">.</text>
<text x="243.49" y="339.36">.</text>
<text x="116.31" y="154.07">+</text>
<text x="150.17" y="485.23">+</text>
<text x="125.59" y="459.19">.</text>
<text x="138.54" y="342.00">.</text>
<text x="48.02" y="416.16">*</text>
<text x="410.14" y="256.95">+</text>
<text x="235.87" y="177.82">+</text>
<text x="394.59" y="64.28">.</text>
<text x="405.69" y="326.14">.</text>
<text x="32.80" y="463.62">.</text>
<text x="271.34" y="419.54">+</text>
<text x="392.11" y="165.16">*</text>
<text x="3.26" y="427.86">+</text>
<text x="373.31" y="80.48">+</text>
<text x="371.93" y="339.12">*</text>
<text x="326.95" y="365.17">.</text>
<text x="362.70" y="75.13">.</text>
<text x="362.18" y="167.60">+</text>
<text x="2.62" y="159.90">.</text>
<text x="158.78" y="487.63">*</text>
<text x="453.29" y="402.06">.</text>
<text x="80.16" y="70.89">*</text>
<text x="242.28" y="2.97">*</text>
<text x="124.35" y="119.18">.</text>
<text x="42.44" y="449.51">.</text>
<text x="168.91" y="288.03">.</text>
<text x="202.39" y="168.06">.</text>
<text x="353.79" y="474.09">+</text>
<text x="442.41" y="61.34">+</text>
<text x="428.08" y="271.13">+</text>
<text x="167.43" y="140.99">.</text>
<text x="467.39" y="267.53">+</text>
<text x="283.78" y="158.60">.</text>
<text x="251.23" y="33.23">.</text>
<text x="74.39" y="56.16">.</text>
<text x="263.32" y="355.35">+</text>
<text x="383.22" y="246.18">*</text>
<text x="190.77" y="72.42">.</text>
<text x="373.21" y="380.95">.</text>
<text x="151.16" y="152.28">+</text>
<text x="393.57" y="380.34">.</text>
<text x="112.40" y="322.05">+</text>
<text x="137.04" y="356.43">+</text>
<text x="429.78" y="434.90">.</text>
<text x="198.23" y="483.13">.</text>
<text x="372.32" y="292.65">+</text>
<text x="196.35" y="195.31">+</text>
<text x="257.62" y="85.20">+</text>
<text x="284.43" y="226.58">+</text>
<text x="259.14" y="105.82">.</text>
<text x="194.06" y="387.62">.</text>
<text x="369.06" y="216.33">+</text>
<text x="457.88" y="131.03">.</text>
<text x="143.24" y="349.25">.</text>
<text x="103.40" y="38.50">+</text>
<text x="194.49" y="259.40">+</text>
<text x="135.80" y="57.13">+</text>
<text x="147.91" y="484.00">+</text>
<text x="146.91" y="240.81">*</text>
<text x="82.79" y="22.01">*</text>
<text x="48.44" y="497.08">.</text>
<text x="250.40" y="345.65">.</text>
<text x="183.69" y="244.82">.</text>
<text x="57.95" y="248.13">.</text>
<text x="251.96" y="289.24">+</text>
<text x="66.87" y="281.47">.</text>
<text x="86.27" y="222.07">*</text>
<text x="170.85" y="481.91">+</text>
<text x="372.88" y="196.30">*</text>
<text x="236.14" y="465.30">+</text>
<text x="239.42" y="142.68">.</text>
<text x="80.37" y="5.78">.</text>
<text x="59.52" y="404.85">+</text>
<text x="390.95" y="30.32">+</text>
<text x="214.91" y="234.25">*</text>
<text x="441.41" y="404.53">+</text>
<text x="286.36" y="257.90">.</text>
<text x="25.89" y="172.32">*</text>
<text x="462.51" y="338.57">+</text>
<text x="327.00" y="389.03">+</text>
<text x="363.23" y="149.15">+</text>
<text x="275.05" y="43.11">+</text>
<text x="88.20" y="68.14">*</text>
<text x="378.06" y="337.93">+</text>
<text x="288.91" y="55.20">+</text>
<text x="33.64" y="154.79">.</text>
<text x="463.42" y="177.71">+</text>
<text x="162.09" y="444.70">.</text>
<text x="2.83" y="292.10">+</text>
<text x="399.69" y="143.12">.</text>
<text x="486.25" y="104.07">.</text>
<text x="140.27" y="309.55">+</text>
<text x="315.76" y="398.29">+</text>
<text x="60.13" y="284.14">.</text>
<text x="469.76" y="241.15">.</text>
<text x="252.44" y="168.60">.</text>
<text x="170.19" y="320.07">.</text>
<text x="423.65" y="218.04">.</text>
<text x="61.47" y="9.61">+</text>
<text x="285.68" y="296.50">.</text>
<text x="206.53" y="113.12">+</text>
<text x="45.69" y="82.59">+</text>
<text x="228.10" y="272.40">.</text>
<text x="73.54" y="153.95">+</text>
<text x="205.50" y="209.33">.</text>
<text x="456.91" y="270.77">.</text>
<text x="332.24" y="332.29">+</text>
<text x="388.93" y="463.94">.</text>
<text x="148.01" y="425.92">*</text>
<text x="298.21" y="141.37">.</text>
<text x="216.08" y="201.79">+</text>
<text x="391.43" y="187.63">.</text>
<text x="312.28" y="91.16">.</text>
<text x="60.23" y="120.51">*</text>
<text x="228.48" y="50.55">+</text>
<text x="77.59" y="480.76">.</text>
<text x="205.02" y="332.64">.</text>
<text x="22.95" y="353.32">+</text>
<text x="443.39" y="294.17">.</text>
<text x="325.25" y="234.47">+</text>
<text x="459.99" y="14.47">+</text>
<text x="44.19" y="307.78">.</text>
<text x="494.84" y="482.40">.</text>
<text x="198.98" y="302.46">.</text>
<text x="128.44" y="83.91">.</text>
<text x="314.21" y="72.55">.</text>
<text x="362.42" y="302.49">.</text>
<text x="362.45" y="171.92">+</text>
<text x="146.62" y="320.74">+</text>
<text x="115.10" y="459.44">.</text>
<text x="216.48" y="166.00">.</text>
<text x="254.55" y="35.37">.</text>
<text x="440.82" y="493.08">+</text>
<text x="228.95" y="464.70">*</text>
<text x="309.13" y="335.89">*</text>
<text x="195.00" y="170.21">+</text>
<text x="106.59" y="66.69">*</text>

</svg>