
<svg viewBox="0 0 500 500" xmlns="http://www.w.org/2000/svg" width="100%" height="100%" style="background-color: #0a0a14; font-family: 'Courier New', Courier, monospace;">
    <style>
        text { fill: #aaa; font-size: 10px; text-anchor: middle; dominant-baseline: middle; }
    </style>
    <text x="196.34" y="45.90">.</text>
<text x="452.58" y="451.33">.</text>
<text x="437.59" y="78.28">*</text>
<text x="224.76" y="95.83">+</text>
<text x="146.88" y="174.51">.</text>
<text x="92.32" y="432.57">.</text>
<text x="250.14" y="412.03">.</text>
<text x="325.99" y="21.71">.</text>
<text x="10.87" y="229.41">.</text>
<text x="252.19" y="350.15">*</text>
<text x="156.65" y="373.16">+</text>
<text x="195.53" y="370.96">.</text>
<text x="174.75" y="229.03">*</text>
<text x="81.78" y="217.23">*</text>
<text x="286.63" y="216.57">+</text>
<text x="414.35" y="310.35">+</text>
<text x="493.08" y="151.22">*</text>
<text x="0.29" y="234.06">+</text>
<text x="342.82" y="260.89">.</text>
<text x="276.48" y="364.36">.</text>
<text x="67.67" y="26.46">+</text>
<text x="312.27" y="473.20">+</text>
<text x="313.46" y="42.62">.</text>
<text x="424.00" y="186.35">+</text>
<text x="418.00" y="421.92">+</text>
<text x="164.93" y="179.83">.</text>
<text x="150.42" y="40.36">.</text>
<text x="291.51" y="288.18">+</text>
<text x="363.06" y="309.13">+</text>
<text x="166.17" y="277.52">.</text>
<text x="477.49" y="204.64">.</text>
<text x="60.59" y="4.00">.</text>
<text x="89.96" y="95.02">.</text>
<text x="385.64" y="197.31">.</text>
<text x="321.03" y="89.33">*</text>
<text x="485.50" y="452.40">.</text>
<text x="398.92" y="414.66">*</text>
<text x="400.18" y="315.56">+</text>
<text x="193.50" y="295.15">+</text>
<text x="147.89" y="217.61">+</text>
<text x="466.62" y="337.81">+</text>
<text x="327.09" y="238.43">.</text>
<text x="335.36" y="286.93">+</text>
<text x="108.40" y="67.39">.</text>
<text x="316.45" y="359.05">*</text>
<text x="64.36" y="142.16">.</text>
<text x="92.68" y="338.00">+</text>
<text x="133.86" y="374.87">.</text>
<text x="227.27" y="245.45">.</text>
<text x="135.68" y="271.12">+</text>
<text x="45.85" y="460.09">+</text>
<text x="146.88" y="54.44">.</text>
<text x="431.81" y="474.77">+</text>
<text x="376.58" y="343.78">+</text>
<text x="339.45" y="150.56">+</text>
<text x="7.08" y="229.61">.</text>
<text x="277.75" y="15.45">.</text>
<text x="4.24" y="191.60">.</text>
<text x="235.16" y="330.10">+</text>
<text x="461.38" y="487.87">+</text>
<text x="175.63" y="186.27">+</text>
<text x="76.10" y="180.95">+</text>
<text x="204.10" y="133.03">.</text>
<text x="152.52" y="129.52">+</text>
<text x="21.07" y="296.03">.</text>
<text x="289.20" y="462.37">.</text>
<text x="259.04" y="217.90">*</text>
<text x="121.43" y="258.85">.</text>
<text x="307.86" y="300.18">.</text>
<text x="29.68" y="100.48">*</text>
<text x="493.15" y="40.16">.</text>
<text x="77.06" y="266.24">+</text>
<text x="45.22" y="166.60">+</text>
<text x="192.09" y="91.86">.</text>
<text x="101.05" y="309.86">+</text>
<text x="186.21" y="454.85">.</text>
<text x="345.11" y="365.87">+</text>
<text x="93.47" y="412.25">*</text>
<text x="403.00" y="31.90">+</text>
<text x="444.79" y="356.99">.</text>
<text x="186.51" y="112.70">*</text>
<text x="60.50" y="71.16">*</text>
<text x="113.51" y="439.77">+</text>
<text x="263.47" y="255.36">.</text>
<text x="493.02" y="225.39">.</text>
<text x="116.77" y="309.19">*</text>
<text x="40.07" y="41.55">+</text>
<text x="386.05" y="65.42">+</text>
<text x="266.53" y="211.81">+</text>
<text x="184.77" y="401.65">*</text>
<text x="498.16" y="378.16">+</text>
<text x="85.69" y="186.72">.</text>
<text x="173.32" y="246.47">+</text>
<text x="58.22" y="432.87">+</text>
<text x="443.33" y="407.80">+</text>
<text x="105.02" y="144.86">.</text>
<text x="324.67" y="299.55">.</text>
<text x="461.24" y="408.31">.</text>
<text x="203.33" y="303.98">*</text>
<text x="385.69" y="300.40">.</text>
<text x="167.02" y="479.76">.</text>
<text x="234.37" y="43.78">+</text>
<text x="52.37" y="488.63">+</text>
<text x="210.82" y="166.64">.</text>
<text x="402.44" y="344.42">+</text>
<text x="373.32" y="30.70">*</text>
<text x="290.99" y="449.64">.</text>
<text x="197.86" y="124.87">.</text>
<text x="45.61" y="34.15">.</text>
<text x="422.69" y="333.17">.</text>
<text x="476.95" y="91.57">+</text>
<text x="152.57" y="45.43">+</text>
<text x="305.81" y="126.20">+</text>
<text x="172.72" y="239.29">.</text>
<text x="328.02" y="153.79">.</text>
<text x="227.81" y="423.88">+</text>
<text x="465.81" y="61.72">*</text>
<text x="343.86" y="327.16">.</text>
<text x="14.32" y="316.74">+</text>
<text x="166.58" y="281.37">.</text>
<text x="228.01" y="204.35">+</text>
<text x="365.36" y="453.13">*</text>
<text x="412.55" y="98.71">+</text>
<text x="224.45" y="129.41">*</text>
<text x="59.28" y="221.62">.</text>
<text x="481.30" y="202.08">.</text>
<text x="358.50" y="162.95">.</text>
<text x="361.18" y="452.17">+</text>
<text x="11.86" y="320.16">+</text>
<text x="150.02" y="127.33">.</text>
<text x="11.28" y="478.21">.</text>
<text x="200.47" y="482.68">*</text>
<text x="15.06" y="12.83">+</text>
<text x="12.66" y="333.69">+</text>
<text x="180.00" y="283.30">.</text>
<text x="439.25" y="489.40">.</text>
<text x="391.98" y="243.52">*</text>
<text x="75.67" y="437.17">.</text>
<text x="444.03" y="120.37">+</text>
<text x="73.49" y="44.25">.</text>
<text x="195.47" y="237.76">*</text>
<text x="435.54" y="116.67">.</text>
<text x="225.43" y="205.67">*</text>
<text x="161.48" y="183.18">+</text>
<text x="333.48" y="115.73">.</text>
<text x="143.74" y="326.68">+</text>
<text x="340.36" y="444.47">+</text>
<text x="492.70" y="344.82">+</text>
<text x="327.06" y="164.66">.</text>
<text x="112.13" y="232.93">+</text>
<text x="123.02" y="88.11">+</text>
<text x="117.14" y="370.92">*</text>
<text x="16.47" y="300.15">.</text>
<text x="66.61" y="221.91">.</text>
<text x="245.26" y="147.97">+</text>
<text x="453.69" y="350.63">.</text>
<text x="193.60" y="315.54">*</text>
<text x="231.83" y="407.51">+</text>
<text x="403.66" y="317.06">+</text>
<text x="338.65" y="17.02">+</text>
<text x="451.36" y="453.25">.</text>
<text x="375.57" y="192.06">.</text>
<text x="195.43" y="226.45">.</text>
<text x="30.31" y="75.06">.</text>
<text x="431.73" y="487.87">.</text>
<text x="411.96" y="120.42">.</text>
<text x="351.22" y="384.88">.</text>
<text x="6.08" y="289.16">.</text>
<text x="281.75" y="254.57">.</text>
<text x="63.77" y="456.33">.</text>
<text x="459.38" y="276.91">.</text>
<text x="340.77" y="209.83">+</text>
<text x="442.26" y="386.86">.</text>
<text x="22.91" y="27.68">.</text>
<text x="102.60" y="107.64">+</text>
<text x="64.86" y="139.54">*</text>
<text x="146.53" y="227.70">+</text>
<text x="338.72" y="321.89">.</text>
<text x="56.69" y="360.97">*</text>
<text x="199.23" y="293.53">+</text>
<text x="414.12" y="455.44">+</text>
<text x="51.81" y="200.38">+</text>
<text x="351.18" y="163.95">.</text>
<text x="280.25" y="86.11">+</text>
<text x="310.89" y="131.09">.</text>
<text x="156.96" y="229.77">.</text>
<text x="205.98" y="263.70">*</text>
<text x="311.42" y="321.83">.</text>
<text x="477.55" y="419.20">+</text>
<text x="125.22" y="418.45">+</text>
<text x="491.85" y="393.44">+</text>
<text x="434.82" y="432.16">.</text>
<text x="234.46" y="382.40">.</text>
<text x="255.44" y="83.82">.</text>
<text x="488.80" y="450.10">.</text>
<text x="10.78" y="269.90">+</text>
<text x="103.74" y="475.46">.</text>
<text x="164.69" y="154.36">+</text>
<text x="263.77" y="256.68">.</text>
<text x="333.87" y="362.44">.</text>
<text x="40.13" y="275.24">.</text>
<text x="82.49" y="174.03">+</text>
<text x="391.81" y="124.70">.</text>
<text x="154.07" y="233.90">.</text>
<text x="400.89" y="252.55">+</text>
<text x="249.33" y="139.23">*</text>
<text x="171.95" y="415.25">.</text>
<text x="306.14" y="358.44">+</text>
<text x="415.58" y="429.91">+</text>
<text x="121.20" y="224.53">*</text>

</svg>