
<svg viewBox="0 0 500 500" xmlns="http://www.w.org/2000/svg" width="100%" height="100%" style="background-color: #0a0a14; font-family: 'Courier New', Courier, monospace;">
    <style>
        text { fill: #aaa; font-size: 10px; text-anchor: middle; dominant-baseline: middle; }
    </style>
    <text x="376.30" y="309.12">.</text>
<text x="415.61" y="357.07">*</text>
<text x="110.55" y="344.70">.</text>
<text x="111.68" y="453.85">.</text>
<text x="492.65" y="68.91">+</text>
<text x="370.85" y="215.14">+</text>
<text x="240.84" y="120.19">*</text>
<text x="89.95" y="31.28">.</text>
<text x="464.27" y="374.16">+</text>
<text x="85.32" y="242.11">.</text>
<text x="268.34" y="232.71">.</text>
<text x="200.39" y="310.14">.</text>
<text x="265.65" y="364.02">+</text>
<text x="466.92" y="318.46">+</text>
<text x="76.05" y="171.55">.</text>
<text x="475.24" y="54.85">.</text>
<text x="444.10" y="117.80">+</text>
<text x="260.75" y="228.26">+</text>
<text x="448.99" y="297.98">.</text>
<text x="437.09" y="333.58">+</text>
<text x="440.39" y="318.79">+</text>
<text x="162.42" y="460.75">+</text>
<text x="486.52" y="77.33">+</text>
<text x="249.15" y="179.19">.</text>
<text x="458.10" y="10.20">+</text>
<text x="417.31" y="1.95">+</text>
<text x="323.49" y="103.01">+</text>
<text x="239.09" y="19.12">+</text>
<text x="278.55" y="419.16">+</text>
<text x="319.63" y="352.66">.</text>
<text x="141.25" y="319.40">+</text>
<text x="420.32" y="32.95">.</text>
<text x="316.02" y="491.07">.</text>
<text x="170.78" y="237.49">.</text>
<text x="196.12" y="75.35">*</text>
<text x="468.46" y="68.88">.</text>
<text x="341.74" y="246.61">+</text>
<text x="334.70" y="9.35">+</text>
<text x="228.30" y="295.12">.</text>
<text x="239.68" y="94.99">.</text>
<text x="10.63" y="428.30">+</text>
<text x="392.46" y="41.02">.</text>
<text x="79.84" y="69.68">+</text>
<text x="76.23" y="170.61">+</text>
<text x="331.66" y="172.16">+</text>
<text x="130.58" y="251.37">+</text>
<text x="406.30" y="136.91">.</text>
<text x="414.18" y="407.76">+</text>
<text x="33.60" y="145.31">.</text>
<text x="258.04" y="166.79">+</text>
<text x="3.65" y="122.20">*</text>
<text x="472.02" y="8.84">+</text>
<text x="409.12" y="262.50">.</text>
<text x="280.17" y="293.22">+</text>
<text x="123.81" y="303.29">*</text>
<text x="189.31" y="207.36">+</text>
<text x="222.41" y="45.95">*</text>
<text x="75.78" y="273.78">.</text>
<text x="215.24" y="250.01">.</text>
<text x="384.04" y="399.58">.</text>
<text x="129.42" y="8.94">.</text>
<text x="49.72" y="331.37">.</text>
<text x="123.32" y="320.71">+</text>
<text x="394.98" y="394.89">+</text>
<text x="352.00" y="416.24">.</text>
<text x="38.52" y="292.92">+</text>
<text x="239.10" y="376.28">+</text>
<text x="431.22" y="439.38">.</text>
<text x="393.06" y="373.14">*</text>
<text x="42.05" y="472.25">*</text>
<text x="256.03" y="33.27">.</text>
<text x="4.55" y="297.62">+</text>
<text x="290.76" y="263.75">+</text>
<text x="241.80" y="282.37">.</text>
<text x="214.06" y="390.72">+</text>
<text x="374.97" y="226.51">+</text>
<text x="252.05" y="65.17">+</text>
<text x="495.76" y="463.77">+</text>
<text x="315.88" y="15.16">+</text>
<text x="1.28" y="76.54">.</text>
<text x="63.92" y="250.90">+</text>
<text x="206.12" y="207.07">*</text>
<text x="215.53" y="263.91">.</text>
<text x="491.96" y="189.31">.</text>
<text x="253.59" y="89.57">+</text>
<text x="296.48" y="117.26">+</text>
<text x="120.83" y="170.94">+</text>
<text x="362.82" y="164.66">.</text>
<text x="312.90" y="226.72">*</text>
<text x="93.74" y="428.26">.</text>
<text x="205.20" y="418.03">.</text>
<text x="95.52" y="180.75">*</text>
<text x="494.30" y="255.41">.</text>
<text x="401.31" y="479.51">+</text>
<text x="49.87" y="76.15">.</text>
<text x="306.57" y="291.65">.</text>
<text x="307.57" y="361.36">.</text>
<text x="296.65" y="442.33">+</text>
<text x="150.55" y="227.45">.</text>
<text x="491.07" y="368.83">.</text>
<text x="447.62" y="146.27">+</text>
<text x="294.97" y="327.44">.</text>
<text x="30.83" y="439.87">.</text>
<text x="222.79" y="370.79">+</text>
<text x="390.05" y="166.34">.</text>
<text x="396.32" y="222.42">*</text>
<text x="255.11" y="166.12">+</text>
<text x="9.28" y="73.01">.</text>
<text x="143.95" y="144.45">+</text>
<text x="211.99" y="415.56">+</text>
<text x="114.83" y="20.77">.</text>
<text x="418.59" y="105.07">+</text>
<text x="34.28" y="198.49">+</text>
<text x="213.17" y="329.50">*</text>
<text x="318.04" y="235.28">.</text>
<text x="482.14" y="50.95">*</text>
<text x="69.97" y="490.04">*</text>
<text x="497.81" y="299.75">.</text>
<text x="133.66" y="271.38">+</text>
<text x="440.79" y="274.39">+</text>
<text x="405.80" y="441.11">.</text>
<text x="101.50" y="331.89">.</text>
<text x="337.47" y="166.12">+</text>
<text x="334.67" y="384.50">+</text>
<text x="219.90" y="179.14">.</text>
<text x="312.39" y="428.77">.</text>
<text x="324.70" y="164.51">.</text>
<text x="401.39" y="200.96">.</text>
<text x="91.90" y="175.12">+</text>
<text x="28.91" y="76.37">.</text>
<text x="24.02" y="381.83">.</text>
<text x="339.17" y="494.58">.</text>
<text x="56.30" y="217.42">.</text>
<text x="399.50" y="402.66">+</text>
<text x="31.30" y="70.03">+</text>
<text x="256.84" y="73.13">+</text>
<text x="478.44" y="417.43">+</text>
<text x="404.23" y="412.07">.</text>
<text x="37.78" y="122.72">.</text>
<text x="370.70" y="305.33">.</text>
<text x="295.64" y="399.42">.</text>
<text x="102.97" y="324.91">+</text>
<text x="310.36" y="470.57">.</text>
<text x="473.96" y="105.16">+</text>
<text x="457.07" y="231.56">.</text>
<text x="494.15" y="490.18">+</text>
<text x="359.69" y="84.38">+</text>
<text x="277.59" y="145.70">+</text>
<text x="37.03" y="215.76">+</text>
<text x="398.06" y="222.29">+</text>
<text x="327.51" y="39.47">+</text>
<text x="191.82" y="405.34">.</text>
<text x="484.04" y="193.12">+</text>
<text x="122.57" y="344.60">.</text>
<text x="15.88" y="382.26">*</text>
<text x="66.73" y="222.47">+</text>
<text x="395.41" y="460.40">*</text>
<text x="240.22" y="116.76">+</text>
<text x="281.39" y="424.24">.</text>
<text x="381.39" y="337.69">.</text>
<text x="472.86" y="339.31">.</text>
<text x="249.80" y="130.39">+</text>
<text x="305.50" y="54.52">.</text>
<text x="196.40" y="112.87">+</text>
<text x="76.75" y="269.59">+</text>
<text x="181.95" y="41.78">.</text>
<text x="167.13" y="100.57">+</text>
<text x="394.47" y="177.93">*</text>
<text x="460.82" y="80.49">.</text>
<text x="172.77" y="272.58">*</text>
<text x="467.67" y="27.11">+</text>
<text x="387.20" y="373.32">+</text>
<text x="451.79" y="212.22">.</text>
<text x="137.15" y="312.50">.</text>
<text x="263.98" y="485.63">.</text>
<text x="158.17" y="138.32">.</text>
<text x="357.79" y="229.55">.</text>
<text x="427.53" y="248.29">*</text>
<text x="223.31" y="294.31">.</text>
<text x="188.68" y="296.37">+</text>
<text x="47.30" y="408.20">+</text>
<text x="92.07" y="374.30">*</text>
<text x="360.01" y="349.56">.</text>
<text x="209.69" y="208.90">+</text>
<text x="128.53" y="43.70">*</text>
<text x="376.23" y="450.28">*</text>
<text x="149.73" y="460.65">+</text>
<text x="315.17" y="157.57">.</text>
<text x="394.17" y="119.22">+</text>
<text x="416.48" y="256.23">+</text>
<text x="373.30" y="291.12">.</text>
<text x="310.65" y="46.43">+</text>
<text x="32.99" y="492.98">+</text>
<text x="498.51" y="66.14">.</text>
<text x="203.85" y="375.85">.</text>
<text x="141.97" y="150.82">+</text>
<text x="398.77" y="80.72">.</text>
<text x="292.71" y="283.53">+</text>
<text x="351.34" y="201.62">+</text>
<text x="338.49" y="225.19">+</text>
<text x="481.25" y="402.99">.</text>
<text x="168.86" y="270.05">+</text>
<text x="238.46" y="45.20">+</text>
<text x="269.46" y="43.76">+</text>
<text x="432.66" y="86.46">.</text>
<text x="373.72" y="324.19">.</text>
<text x="79.62" y="255.27">+</text>
<text x="182.44" y="259.92">*</text>
<text x="307.06" y="83.35">+</text>
<text x="44.66" y="55.76">.</text>
<text x="201.46" y="96.05">+</text>
<text x="237.05" y="373.77">+</text>
<text x="32.57" y="467.01">+</text>
<text x="283.25" y="302.64">+</text>
<text x="40.85" y="19.54">.</text>

</svg>