
<svg viewBox="0 0 500 500" xmlns="http://www.w.org/2000/svg" width="100%" height="100%" style="background-color: #0a0a14; font-family: 'Courier New', Courier, monospace;">
    <style>
        text { fill: #aaa; font-size: 10px; text-anchor: middle; dominant-baseline: middle; }
    </style>
    <text x="268.14" y="371.90">+</text>
<text x="275.39" y="446.98">.</text>
<text x="195.95" y="125.28">+</text>
<text x="321.73" y="438.53">*</text>
<text x="385.39" y="102.50">.</text>
<text x="392.69" y="132.59">*</text>
<text x="100.09" y="133.96">+</text>
<text x="106.43" y="41.27">.</text>
<text x="301.99" y="363.28">+</text>
<text x="485.62" y="155.59">*</text>
<text x="171.17" y="18.78">+</text>
<text x="474.30" y="295.97">+</text>
<text x="402.97" y="375.26">+</text>
<text x="267.46" y="94.55">+</text>
<text x="90.19" y="81.47">+</text>
<text x="168.80" y="90.53">.</text>
<text x="56.26" y="336.21">.</text>
<text x="105.85" y="371.79">+</text>
<text x="196.21" y="189.57">.</text>
<text x="21.29" y="50.60">.</text>
<text x="154.54" y="444.72">*</text>
<text x="126.53" y="252.46">.</text>
<text x="159.48" y="79.36">+</text>
<text x="77.97" y="206.53">*</text>
<text x="178.04" y="412.05">*</text>
<text x="296.12" y="96.69">.</text>
<text x="59.39" y="89.72">.</text>
<text x="155.92" y="182.56">+</text>
<text x="158.84" y="485.13">+</text>
<text x="65.57" y="343.52">+</text>
<text x="278.13" y="54.57">.</text>
<text x="376.43" y="206.18">.</text>
<text x="199.46" y="435.79">*</text>
<text x="9.94" y="288.51">+</text>
<text x="476.49" y="241.24">.</text>
<text x="355.83" y="440.77">+</text>
<text x="49.10" y="14.69">+</text>
<text x="451.39" y="65.66">.</text>
<text x="492.68" y="438.00">.</text>
<text x="342.82" y="415.17">.</text>
<text x="357.60" y="472.98">.</text>
<text x="343.82" y="211.75">.</text>
<text x="497.45" y="385.97">.</text>
<text x="441.83" y="115.26">.</text>
<text x="107.62" y="259.88">.</text>
<text x="483.78" y="404.64">+</text>
<text x="262.92" y="141.67">*</text>
<text x="380.51" y="251.51">+</text>
<text x="236.01" y="252.31">*</text>
<text x="87.92" y="218.84">.</text>
<text x="478.70" y="98.97">+</text>
<text x="89.87" y="27.25">+</text>
<text x="266.88" y="404.83">+</text>
<text x="432.70" y="181.78">.</text>
<text x="426.93" y="318.00">+</text>
<text x="432.42" y="316.03">+</text>
<text x="143.56" y="70.24">.</text>
<text x="481.89" y="347.40">+</text>
<text x="356.42" y="450.48">*</text>
<text x="294.29" y="179.69">+</text>
<text x="474.07" y="243.53">+</text>
<text x="319.23" y="396.17">+</text>
<text x="292.17" y="330.29">+</text>
<text x="306.16" y="493.26">+</text>
<text x="422.70" y="341.76">+</text>
<text x="205.81" y="434.83">.</text>
<text x="448.27" y="187.34">.</text>
<text x="472.88" y="232.39">+</text>
<text x="42.77" y="307.79">.</text>
<text x="304.41" y="368.80">+</text>
<text x="69.33" y="401.88">+</text>
<text x="246.31" y="394.35">.</text>
<text x="211.50" y="106.72">.</text>
<text x="185.50" y="301.71">.</text>
<text x="190.65" y="282.51">.</text>
<text x="342.57" y="121.06">.</text>
<text x="484.57" y="315.42">.</text>
<text x="308.92" y="94.58">*</text>
<text x="440.11" y="323.25">.</text>
<text x="486.74" y="248.16">.</text>
<text x="407.21" y="60.63">.</text>
<text x="22.42" y="131.90">+</text>
<text x="185.17" y="238.40">+</text>
<text x="234.45" y="94.43">.</text>
<text x="153.55" y="394.50">.</text>
<text x="429.60" y="443.84">.</text>
<text x="234.49" y="332.06">+</text>
<text x="8.29" y="394.18">.</text>
<text x="77.60" y="472.28">*</text>
<text x="268.32" y="208.36">+</text>
<text x="469.24" y="457.40">+</text>
<text x="232.42" y="355.68">.</text>
<text x="316.99" y="138.89">*</text>
<text x="407.04" y="177.60">*</text>
<text x="290.59" y="365.74">.</text>
<text x="463.24" y="455.16">+</text>
<text x="333.53" y="107.62">+</text>
<text x="285.42" y="321.80">.</text>
<text x="126.05" y="344.19">.</text>
<text x="394.76" y="123.25">.</text>
<text x="366.55" y="121.67">+</text>
<text x="200.53" y="344.84">.</text>
<text x="254.51" y="455.99">*</text>
<text x="126.29" y="239.76">.</text>
<text x="372.58" y="333.28">+</text>
<text x="241.06" y="58.32">.</text>
<text x="351.85" y="488.56">+</text>
<text x="349.02" y="170.64">*</text>
<text x="2.05" y="470.49">+</text>
<text x="495.81" y="84.23">.</text>
<text x="265.35" y="383.78">.</text>
<text x="276.55" y="461.21">+</text>
<text x="41.70" y="115.27">.</text>
<text x="131.45" y="68.79">+</text>
<text x="178.45" y="63.41">*</text>
<text x="422.47" y="37.38">+</text>
<text x="262.19" y="126.09">.</text>
<text x="147.70" y="152.85">.</text>
<text x="137.67" y="238.61">.</text>
<text x="384.19" y="377.63">.</text>
<text x="198.86" y="64.83">+</text>
<text x="431.45" y="456.87">+</text>
<text x="83.50" y="93.88">+</text>
<text x="71.09" y="363.67">+</text>
<text x="360.25" y="206.56">.</text>
<text x="194.47" y="220.21">+</text>
<text x="47.44" y="361.86">+</text>
<text x="291.51" y="202.01">+</text>
<text x="266.74" y="115.22">+</text>
<text x="47.57" y="101.40">+</text>
<text x="234.37" y="79.18">+</text>
<text x="237.47" y="70.30">+</text>
<text x="202.19" y="356.18">+</text>
<text x="375.04" y="215.60">.</text>
<text x="157.87" y="380.16">.</text>
<text x="365.72" y="455.99">.</text>
<text x="16.84" y="68.62">+</text>
<text x="341.15" y="191.09">*</text>
<text x="280.14" y="118.16">.</text>
<text x="415.56" y="45.05">+</text>
<text x="91.94" y="419.55">+</text>
<text x="244.69" y="60.07">+</text>
<text x="328.89" y="168.25">*</text>
<text x="477.04" y="56.22">.</text>
<text x="420.84" y="433.94">+</text>
<text x="374.48" y="433.86">+</text>
<text x="119.18" y="211.94">.</text>
<text x="75.38" y="76.52">*</text>
<text x="2.76" y="5.50">+</text>
<text x="50.90" y="117.92">+</text>
<text x="306.03" y="377.85">+</text>
<text x="319.04" y="370.05">.</text>
<text x="47.14" y="144.87">+</text>
<text x="472.36" y="94.91">+</text>
<text x="409.13" y="473.74">+</text>
<text x="7.91" y="340.44">+</text>
<text x="369.62" y="122.43">+</text>
<text x="179.01" y="486.97">*</text>
<text x="333.26" y="293.74">*</text>
<text x="171.10" y="294.54">.</text>
<text x="15.86" y="256.81">*</text>
<text x="94.67" y="263.68">+</text>
<text x="53.37" y="348.29">+</text>
<text x="419.57" y="475.12">+</text>
<text x="497.59" y="448.96">.</text>
<text x="145.06" y="194.06">*</text>
<text x="201.05" y="324.82">.</text>
<text x="395.26" y="213.09">*</text>
<text x="461.30" y="239.38">.</text>
<text x="219.18" y="320.20">+</text>
<text x="267.06" y="256.03">.</text>
<text x="101.33" y="363.90">.</text>
<text x="220.17" y="107.33">+</text>
<text x="232.53" y="238.93">+</text>
<text x="340.94" y="415.01">+</text>
<text x="92.33" y="390.22">+</text>
<text x="295.55" y="266.83">*</text>
<text x="69.71" y="173.74">.</text>
<text x="42.55" y="28.04">.</text>
<text x="294.95" y="262.53">+</text>
<text x="67.39" y="86.65">.</text>
<text x="279.97" y="227.73">+</text>
<text x="437.60" y="207.74">*</text>
<text x="421.98" y="5.12">.</text>
<text x="287.10" y="425.15">.</text>
<text x="226.06" y="320.69">.</text>
<text x="267.90" y="116.63">+</text>
<text x="1.65" y="436.27">+</text>
<text x="359.63" y="476.65">+</text>
<text x="253.84" y="226.15">+</text>
<text x="303.38" y="188.63">*</text>
<text x="408.26" y="20.76">+</text>
<text x="57.89" y="431.04">.</text>
<text x="385.22" y="427.33">.</text>
<text x="9.58" y="288.91">.</text>
<text x="247.67" y="342.23">+</text>
<text x="1.96" y="254.41">+</text>
<text x="367.35" y="410.03">+</text>
<text x="468.28" y="358.19">+</text>
<text x="219.39" y="261.36">+</text>
<text x="391.45" y="12.03">.</text>
<text x="377.64" y="457.03">.</text>
<text x="54.85" y="412.16">.</text>
<text x="263.91" y="155.86">+</text>
<text x="208.75" y="349.47">.</text>
<text x="169.54" y="401.07">*</text>
<text x="472.46" y="21.58">.</text>
<text x="79.58" y="291.98">.</text>
<text x="215.65" y="13.32">*</text>
<text x="249.96" y="95.36">.</text>
<text x="39.26" y="129.61">.</text>
<text x="221.68" y="419.09">*</text>
<text x="392.65" y="106.75">+</text>

</svg>