
<svg viewBox="0 0 500 500" xmlns="http://www.w.org/2000/svg" width="100%" height="100%" style="background-color: #0a0a14; font-family: 'Courier New', Courier, monospace;">
    <style>
        text { fill: #aaa; font-size: 10px; text-anchor: middle; dominant-baseline: middle; }
    </style>
    <text x="389.29" y="119.26">.</text>
<text x="207.99" y="320.78">+</text>
<text x="268.41" y="346.08">.</text>
<text x="491.55" y="190.26">+</text>
<text x="252.25" y="490.61">.</text>
<text x="359.63" y="165.45">+</text>
<text x="327.71" y="423.54">.</text>
<text x="250.68" y="43.08">+</text>
<text x="357.29" y="85.12">+</text>
<text x="202.13" y="248.43">+</text>
<text x="321.13" y="388.53">+</text>
<text x="43.96" y="402.05">*</text>
<text x="58.93" y="434.37">.</text>
<text x="427.28" y="162.89">+</text>
<text x="232.61" y="79.61">.</text>
<text x="175.84" y="148.10">*</text>
<text x="105.17" y="76.67">+</text>
<text x="63.67" y="114.74">.</text>
<text x="472.73" y="363.14">.</text>
<text x="300.37" y="287.15">.</text>
<text x="380.94" y="373.85">.</text>
<text x="445.65" y="242.36">.</text>
<text x="480.84" y="144.11">.</text>
<text x="462.54" y="208.54">+</text>
<text x="25.13" y="328.34">+</text>
<text x="300.80" y="347.06">.</text>
<text x="27.95" y="341.46">+</text>
<text x="190.98" y="467.23">*</text>
<text x="311.43" y="468.49">+</text>
<text x="75.06" y="341.02">*</text>
<text x="241.81" y="240.08">.</text>
<text x="379.22" y="487.91">+</text>
<text x="18.44" y="2.76">*</text>
<text x="298.57" y="465.52">+</text>
<text x="262.67" y="87.76">.</text>
<text x="90.71" y="222.59">+</text>
<text x="338.20" y="136.98">.</text>
<text x="195.17" y="176.19">*</text>
<text x="15.04" y="196.96">.</text>
<text x="477.18" y="232.17">+</text>
<text x="46.11" y="360.29">+</text>
<text x="274.65" y="265.58">+</text>
<text x="323.42" y="1.87">+</text>
<text x="86.98" y="369.93">+</text>
<text x="259.79" y="214.58">*</text>
<text x="356.75" y="465.72">*</text>
<text x="269.35" y="60.18">*</text>
<text x="61.61" y="13.81">+</text>
<text x="38.65" y="444.00">.</text>
<text x="340.64" y="356.32">.</text>
<text x="80.51" y="445.89">.</text>
<text x="83.59" y="417.73">*</text>
<text x="97.45" y="130.37">+</text>
<text x="394.28" y="470.41">+</text>
<text x="91.52" y="326.18">.</text>
<text x="63.38" y="414.00">+</text>
<text x="407.55" y="410.70">+</text>
<text x="385.92" y="492.97">*</text>
<text x="318.51" y="456.66">.</text>
<text x="418.67" y="320.46">.</text>
<text x="20.88" y="235.39">*</text>
<text x="336.36" y="427.16">+</text>
<text x="468.93" y="441.83">.</text>
<text x="496.52" y="111.71">*</text>
<text x="144.01" y="118.45">.</text>
<text x="152.17" y="337.15">.</text>
<text x="132.60" y="89.40">.</text>
<text x="398.90" y="135.73">.</text>
<text x="228.47" y="116.64">*</text>
<text x="257.05" y="14.03">+</text>
<text x="403.92" y="15.21">*</text>
<text x="452.20" y="357.73">+</text>
<text x="466.49" y="192.82">.</text>
<text x="296.69" y="212.51">*</text>
<text x="220.42" y="139.14">+</text>
<text x="14.54" y="116.06">+</text>
<text x="24.50" y="383.83">+</text>
<text x="251.91" y="414.65">+</text>
<text x="451.27" y="351.02">.</text>
<text x="178.89" y="184.59">.</text>
<text x="154.02" y="292.54">+</text>
<text x="162.47" y="112.49">.</text>
<text x="77.75" y="371.57">+</text>
<text x="200.69" y="394.66">.</text>
<text x="266.67" y="177.95">.</text>
<text x="400.42" y="402.27">*</text>
<text x="302.84" y="257.73">.</text>
<text x="331.25" y="124.27">.</text>
<text x="21.78" y="246.11">+</text>
<text x="353.35" y="171.86">+</text>
<text x="52.01" y="226.50">*</text>
<text x="218.96" y="378.91">+</text>
<text x="331.35" y="4.66">+</text>
<text x="387.27" y="131.90">*</text>
<text x="133.13" y="155.36">.</text>
<text x="64.53" y="316.52">.</text>
<text x="121.08" y="359.67">+</text>
<text x="304.18" y="403.78">.</text>
<text x="355.54" y="64.16">+</text>
<text x="90.72" y="193.45">.</text>
<text x="298.02" y="406.27">.</text>
<text x="456.70" y="432.82">*</text>
<text x="468.02" y="138.32">+</text>
<text x="403.40" y="391.17">.</text>
<text x="173.83" y="182.48">*</text>
<text x="471.76" y="158.51">.</text>
<text x="98.32" y="250.44">+</text>
<text x="316.29" y="22.51">.</text>
<text x="160.19" y="489.70">+</text>
<text x="33.31" y="481.85">+</text>
<text x="375.98" y="119.07">.</text>
<text x="439.16" y="165.72">*</text>
<text x="343.77" y="282.72">.</text>
<text x="341.26" y="411.85">+</text>
<text x="346.77" y="348.41">*</text>
<text x="348.69" y="245.15">+</text>
<text x="414.32" y="347.98">+</text>
<text x="238.17" y="349.83">+</text>
<text x="318.68" y="330.03">.</text>
<text x="348.92" y="77.16">+</text>
<text x="122.62" y="115.86">.</text>
<text x="180.14" y="362.06">+</text>
<text x="105.55" y="190.48">.</text>
<text x="471.47" y="241.88">.</text>
<text x="101.06" y="168.20">+</text>
<text x="355.44" y="254.58">+</text>
<text x="155.13" y="142.91">+</text>
<text x="20.47" y="118.89">.</text>
<text x="71.50" y="457.52">.</text>
<text x="455.60" y="263.62">.</text>
<text x="122.04" y="49.29">+</text>
<text x="236.49" y="398.45">+</text>
<text x="488.22" y="386.21">.</text>
<text x="137.70" y="370.72">.</text>
<text x="88.82" y="167.20">.</text>
<text x="52.33" y="183.60">+</text>
<text x="15.23" y="74.88">.</text>
<text x="47.47" y="317.17">.</text>
<text x="408.27" y="403.83">.</text>
<text x="166.64" y="70.96">+</text>
<text x="270.30" y="154.18">.</text>
<text x="73.71" y="210.33">+</text>
<text x="248.29" y="382.72">+</text>
<text x="149.19" y="41.50">.</text>
<text x="63.30" y="371.48">.</text>
<text x="164.70" y="452.38">+</text>
<text x="114.64" y="372.83">+</text>
<text x="31.47" y="493.49">+</text>
<text x="237.13" y="78.89">+</text>
<text x="164.30" y="276.96">.</text>
<text x="326.98" y="362.16">+</text>
<text x="134.25" y="379.20">.</text>
<text x="160.94" y="187.74">.</text>
<text x="431.05" y="42.26">.</text>
<text x="475.38" y="58.87">.</text>
<text x="379.91" y="427.73">.</text>
<text x="369.45" y="165.10">+</text>
<text x="78.28" y="296.12">.</text>
<text x="85.94" y="206.16">.</text>
<text x="161.85" y="79.59">.</text>
<text x="404.17" y="290.30">.</text>
<text x="279.68" y="254.37">.</text>
<text x="474.44" y="262.78">*</text>
<text x="22.65" y="4.78">+</text>
<text x="50.37" y="471.26">.</text>
<text x="286.83" y="448.23">.</text>
<text x="302.55" y="223.76">.</text>
<text x="438.27" y="145.35">+</text>
<text x="292.91" y="155.63">+</text>
<text x="252.04" y="295.47">+</text>
<text x="476.19" y="344.29">*</text>
<text x="319.65" y="292.90">.</text>
<text x="143.98" y="474.87">.</text>
<text x="103.71" y="17.81">+</text>
<text x="25.23" y="208.85">.</text>
<text x="201.14" y="375.90">+</text>
<text x="269.29" y="13.77">.</text>
<text x="308.91" y="274.71">.</text>
<text x="247.91" y="165.13">.</text>
<text x="330.44" y="206.28">+</text>
<text x="295.80" y="401.21">.</text>
<text x="77.22" y="77.70">+</text>
<text x="282.21" y="85.82">+</text>
<text x="492.04" y="494.86">*</text>
<text x="222.18" y="419.34">+</text>
<text x="327.87" y="97.76">+</text>
<text x="406.49" y="216.41">.</text>
<text x="5.59" y="2.80">.</text>
<text x="98.23" y="398.10">+</text>
<text x="83.26" y="146.75">+</text>
<text x="183.25" y="251.76">+</text>
<text x="424.32" y="266.08">+</text>
<text x="26.09" y="0.15">+</text>
<text x="221.47" y="232.14">+</text>
<text x="325.35" y="209.45">.</text>
<text x="256.88" y="139.10">*</text>
<text x="274.57" y="4.72">.</text>
<text x="155.17" y="198.84">.</text>
<text x="442.69" y="51.94">+</text>
<text x="426.81" y="333.09">+</text>
<text x="488.61" y="348.39">.</text>
<text x="34.68" y="146.27">.</text>
<text x="348.21" y="75.14">.</text>
<text x="467.78" y="83.58">+</text>
<text x="124.47" y="124.42">.</text>
<text x="323.87" y="250.22">.</text>
<text x="209.05" y="78.01">.</text>
<text x="282.45" y="326.92">.</text>
<text x="456.98" y="297.78">+</text>
<text x="461.18" y="159.11">+</text>
<text x="269.54" y="431.59">+</text>
<text x="389.47" y="76.87">+</text>
<text x="408.41" y="476.96">+</text>
<text x="367.91" y="369.07">.</text>

</svg>