
<svg viewBox="0 0 500 500" xmlns="http://www.w.org/2000/svg" width="100%" height="100%" style="background-color: #0a0a14; font-family: 'Courier New', Courier, monospace;">
    <style>
        text { fill: #aaa; font-size: 10px; text-anchor: middle; dominant-baseline: middle; }
    </style>
    <text x="319.64" y="107.39">+</text>
<text x="163.26" y="120.74">+</text>
<text x="291.65" y="135.59">.</text>
<text x="207.78" y="188.84">+</text>
<text x="184.06" y="468.42">+</text>
<text x="369.97" y="432.70">+</text>
<text x="393.41" y="490.52">.</text>
<text x="298.62" y="327.21">*</text>
<text x="277.85" y="233.23">*</text>
<text x="139.24" y="137.52">+</text>
<text x="187.17" y="243.29">+</text>
<text x="406.81" y="53.93">.</text>
<text x="84.40" y="104.14">+</text>
<text x="307.11" y="496.53">+</text>
<text x="179.61" y="36.48">.</text>
<text x="471.05" y="101.70">+</text>
<text x="142.03" y="6.11">+</text>
<text x="22.98" y="460.26">+</text>
<text x="317.51" y="143.66">+</text>
<text x="354.45" y="59.22">+</text>
<text x="102.68" y="344.14">.</text>
<text x="385.64" y="409.52">+</text>
<text x="377.29" y="37.44">+</text>
<text x="218.71" y="298.31">.</text>
<text x="426.13" y="223.74">+</text>
<text x="362.50" y="355.32">*</text>
<text x="7.22" y="209.29">*</text>
<text x="193.69" y="367.04">.</text>
<text x="372.25" y="243.37">.</text>
<text x="4.86" y="414.64">+</text>
<text x="182.58" y="244.51">+</text>
<text x="376.81" y="243.46">+</text>
<text x="283.27" y="478.95">+</text>
<text x="308.51" y="176.23">+</text>
<text x="487.82" y="228.42">.</text>
<text x="455.78" y="58.92">+</text>
<text x="23.04" y="354.21">+</text>
<text x="473.26" y="216.39">+</text>
<text x="454.43" y="22.81">.</text>
<text x="432.52" y="209.80">+</text>
<text x="124.06" y="410.60">+</text>
<text x="158.78" y="43.81">+</text>
<text x="298.01" y="334.98">.</text>
<text x="238.11" y="390.36">.</text>
<text x="164.10" y="189.78">+</text>
<text x="330.69" y="30.09">+</text>
<text x="435.65" y="386.47">.</text>
<text x="72.84" y="40.57">+</text>
<text x="286.00" y="443.13">*</text>
<text x="283.95" y="283.50">.</text>
<text x="332.67" y="171.25">+</text>
<text x="470.55" y="480.49">+</text>
<text x="458.72" y="448.40">+</text>
<text x="363.44" y="476.65">.</text>
<text x="73.93" y="353.07">*</text>
<text x="401.62" y="191.20">.</text>
<text x="275.63" y="304.23">.</text>
<text x="378.70" y="306.65">*</text>
<text x="422.17" y="83.50">+</text>
<text x="370.44" y="207.53">+</text>
<text x="89.09" y="244.35">+</text>
<text x="48.06" y="147.84">.</text>
<text x="177.57" y="411.75">+</text>
<text x="113.23" y="348.17">.</text>
<text x="24.58" y="91.54">.</text>
<text x="389.54" y="382.59">+</text>
<text x="474.94" y="432.65">.</text>
<text x="32.19" y="369.58">.</text>
<text x="186.90" y="280.73">*</text>
<text x="406.60" y="380.46">+</text>
<text x="189.30" y="190.95">+</text>
<text x="189.43" y="416.76">*</text>
<text x="295.65" y="485.54">.</text>
<text x="65.98" y="170.97">*</text>
<text x="360.68" y="83.86">+</text>
<text x="232.27" y="306.32">.</text>
<text x="12.94" y="149.16">.</text>
<text x="445.85" y="54.47">.</text>
<text x="431.47" y="318.36">+</text>
<text x="299.86" y="463.57">*</text>
<text x="46.16" y="165.42">+</text>
<text x="394.70" y="314.33">+</text>
<text x="447.26" y="196.25">+</text>
<text x="63.27" y="162.16">+</text>
<text x="28.44" y="428.68">+</text>
<text x="163.90" y="232.17">+</text>
<text x="76.01" y="210.57">.</text>
<text x="16.90" y="156.93">+</text>
<text x="461.42" y="189.25">*</text>
<text x="315.53" y="80.38">.</text>
<text x="88.47" y="408.32">.</text>
<text x="234.12" y="46.26">+</text>
<text x="446.82" y="485.48">.</text>
<text x="49.61" y="171.58">+</text>
<text x="346.04" y="329.59">.</text>
<text x="469.62" y="81.29">.</text>
<text x="419.62" y="34.66">+</text>
<text x="321.79" y="219.61">+</text>
<text x="349.38" y="152.86">.</text>
<text x="354.64" y="170.08">*</text>
<text x="412.92" y="379.53">.</text>
<text x="272.49" y="6.91">.</text>
<text x="74.21" y="498.90">+</text>
<text x="164.58" y="42.08">+</text>
<text x="284.32" y="82.55">+</text>
<text x="452.93" y="57.31">+</text>
<text x="323.37" y="46.34">+</text>
<text x="48.00" y="193.15">+</text>
<text x="350.75" y="251.84">.</text>
<text x="104.14" y="300.59">+</text>
<text x="29.41" y="440.94">+</text>
<text x="50.13" y="3.35">.</text>
<text x="115.58" y="345.54">+</text>
<text x="355.81" y="354.63">+</text>
<text x="306.50" y="472.07">+</text>
<text x="184.99" y="385.93">+</text>
<text x="320.44" y="340.08">+</text>
<text x="435.43" y="249.58">.</text>
<text x="77.88" y="488.81">*</text>
<text x="399.19" y="410.03">+</text>
<text x="476.38" y="132.53">.</text>
<text x="86.18" y="420.82">+</text>
<text x="364.55" y="487.05">*</text>
<text x="240.56" y="419.51">.</text>
<text x="199.38" y="165.94">+</text>
<text x="131.13" y="221.07">+</text>
<text x="170.12" y="33.58">.</text>
<text x="38.80" y="72.81">*</text>
<text x="26.79" y="101.80">+</text>
<text x="155.68" y="31.85">*</text>
<text x="17.04" y="46.94">.</text>
<text x="34.13" y="424.05">.</text>
<text x="293.36" y="229.50">.</text>
<text x="54.67" y="402.47">+</text>
<text x="26.90" y="296.37">.</text>
<text x="367.42" y="292.58">+</text>
<text x="476.82" y="376.39">+</text>
<text x="404.20" y="214.51">*</text>
<text x="388.49" y="278.97">.</text>
<text x="192.14" y="284.03">.</text>
<text x="26.62" y="424.57">.</text>
<text x="424.08" y="14.88">+</text>
<text x="161.96" y="444.03">.</text>
<text x="65.91" y="339.66">+</text>
<text x="479.91" y="445.28">.</text>
<text x="77.47" y="288.91">.</text>
<text x="323.02" y="9.82">.</text>
<text x="481.40" y="460.32">.</text>
<text x="272.59" y="134.50">.</text>
<text x="264.02" y="141.40">+</text>
<text x="358.90" y="104.39">.</text>
<text x="422.82" y="149.72">.</text>
<text x="401.81" y="51.25">.</text>
<text x="249.97" y="257.12">+</text>
<text x="254.56" y="5.89">.</text>
<text x="487.34" y="345.47">.</text>
<text x="145.23" y="336.96">.</text>
<text x="340.92" y="244.98">.</text>
<text x="32.29" y="453.86">*</text>
<text x="392.32" y="26.20">.</text>
<text x="487.77" y="329.57">+</text>
<text x="126.89" y="394.32">.</text>
<text x="162.39" y="170.66">*</text>
<text x="181.07" y="310.94">.</text>
<text x="492.12" y="171.92">*</text>
<text x="201.43" y="258.46">*</text>
<text x="165.81" y="410.39">.</text>
<text x="144.24" y="100.37">+</text>
<text x="360.03" y="167.27">+</text>
<text x="366.49" y="493.87">*</text>
<text x="196.14" y="420.20">+</text>
<text x="206.44" y="108.05">*</text>
<text x="400.42" y="349.95">+</text>
<text x="364.55" y="216.04">+</text>
<text x="310.15" y="409.63">.</text>
<text x="333.59" y="80.44">.</text>
<text x="404.13" y="202.82">.</text>
<text x="70.26" y="488.58">.</text>
<text x="255.98" y="240.46">+</text>
<text x="280.32" y="76.92">.</text>
<text x="397.35" y="142.76">+</text>
<text x="450.54" y="392.46">+</text>
<text x="492.58" y="157.31">*</text>
<text x="211.87" y="142.60">.</text>
<text x="46.81" y="264.21">.</text>
<text x="139.21" y="290.07">.</text>
<text x="41.53" y="401.00">.</text>
<text x="69.44" y="407.80">+</text>
<text x="466.82" y="213.53">+</text>
<text x="104.48" y="386.52">.</text>
<text x="183.09" y="475.93">.</text>
<text x="461.13" y="467.32">.</text>
<text x="339.10" y="499.56">+</text>
<text x="171.82" y="29.26">.</text>
<text x="33.30" y="352.98">+</text>
<text x="89.76" y="51.10">+</text>
<text x="406.14" y="397.25">+</text>
<text x="294.82" y="228.28">.</text>
<text x="40.04" y="359.62">.</text>
<text x="49.80" y="476.66">.</text>
<text x="235.53" y="239.93">+</text>
<text x="279.09" y="145.24">+</text>
<text x="490.27" y="205.39">+</text>
<text x="147.56" y="170.97">.</text>
<text x="255.86" y="382.87">+</text>
<text x="37.06" y="19.99">.</text>
<text x="190.39" y="391.40">*</text>
<text x="421.98" y="193.30">*</text>
<text x="266.14" y="479.80">.</text>
<text x="282.81" y="257.78">+</text>
<text x="497.31" y="80.81">.</text>
<text x="491.16" y="208.43">.</text>
<text x="382.21" y="486.13">.</text>
<text x="252.84" y="333.72">.</text>
<text x="64.43" y="139.40">.</text>
<text x="449.85" y="284.42">+</text>
<text x="246.71" y="488.43">.</text>
<text x="468.92" y="203.90">+</text>

</svg>