
<svg viewBox="0 0 500 500" xmlns="http://www.w.org/2000/svg" width="100%" height="100%" style="background-color: #0a0a14; font-family: 'Courier New', Courier, monospace;">
    <style>
        text { fill: #aaa; font-size: 10px; text-anchor: middle; dominant-baseline: middle; }
    </style>
    <text x="98.81" y="241.43">+</text>
<text x="329.33" y="225.07">*</text>
<text x="219.90" y="459.62">.</text>
<text x="184.52" y="51.98">+</text>
<text x="33.45" y="477.55">+</text>
<text x="174.04" y="393.55">.</text>
<text x="3.85" y="46.83">*</text>
<text x="61.62" y="40.73">.</text>
<text x="35.43" y="102.89">+</text>
<text x="388.35" y="414.69">+</text>
<text x="41.00" y="179.69">*</text>
<text x="91.94" y="181.43">.</text>
<text x="348.75" y="377.37">.</text>
<text x="227.11" y="420.03">.</text>
<text x="131.19" y="468.00">*</text>
<text x="345.98" y="268.64">.</text>
<text x="451.78" y="215.00">.</text>
<text x="326.58" y="199.95">.</text>
<text x="4.83" y="124.89">.</text>
<text x="98.61" y="0.59">.</text>
<text x="180.14" y="196.04">*</text>
<text x="162.30" y="19.19">+</text>
<text x="113.82" y="370.42">+</text>
<text x="83.27" y="143.32">.</text>
<text x="326.43" y="305.60">+</text>
<text x="403.29" y="121.21">+</text>
<text x="450.49" y="60.46">+</text>
<text x="326.90" y="410.04">+</text>
<text x="179.19" y="106.04">+</text>
<text x="102.12" y="463.46">*</text>
<text x="38.64" y="311.05">+</text>
<text x="224.94" y="351.79">+</text>
<text x="18.56" y="395.12">*</text>
<text x="431.69" y="416.15">.</text>
<text x="207.77" y="467.52">.</text>
<text x="461.00" y="81.97">+</text>
<text x="80.97" y="434.90">+</text>
<text x="207.36" y="445.21">+</text>
<text x="11.58" y="483.25">.</text>
<text x="60.73" y="39.20">+</text>
<text x="16.52" y="457.87">+</text>
<text x="170.77" y="261.34">.</text>
<text x="356.20" y="321.45">.</text>
<text x="202.61" y="167.04">+</text>
<text x="239.20" y="283.94">.</text>
<text x="169.00" y="52.55">.</text>
<text x="222.72" y="100.22">+</text>
<text x="423.18" y="239.01">+</text>
<text x="234.37" y="475.28">.</text>
<text x="200.18" y="494.12">.</text>
<text x="242.58" y="118.66">*</text>
<text x="322.39" y="291.31">*</text>
<text x="80.64" y="143.34">.</text>
<text x="62.76" y="228.80">.</text>
<text x="67.80" y="178.15">+</text>
<text x="124.29" y="465.67">+</text>
<text x="232.76" y="19.42">.</text>
<text x="26.51" y="474.13">*</text>
<text x="122.16" y="153.63">+</text>
<text x="381.15" y="458.62">.</text>
<text x="483.58" y="290.22">.</text>
<text x="4.43" y="447.70">+</text>
<text x="281.96" y="268.93">.</text>
<text x="386.39" y="487.98">+</text>
<text x="274.03" y="447.51">+</text>
<text x="238.21" y="476.28">.</text>
<text x="454.96" y="192.25">+</text>
<text x="391.78" y="190.89">*</text>
<text x="269.17" y="490.92">.</text>
<text x="214.67" y="233.94">+</text>
<text x="2.03" y="467.74">+</text>
<text x="19.45" y="21.96">.</text>
<text x="272.23" y="195.37">.</text>
<text x="309.10" y="1.10">+</text>
<text x="335.88" y="431.48">.</text>
<text x="46.49" y="60.41">*</text>
<text x="87.55" y="45.50">.</text>
<text x="476.68" y="199.05">*</text>
<text x="428.76" y="184.77">+</text>
<text x="232.22" y="47.34">.</text>
<text x="68.20" y="188.93">+</text>
<text x="385.33" y="118.98">+</text>
<text x="46.70" y="37.30">+</text>
<text x="249.53" y="120.64">.</text>
<text x="104.21" y="217.00">.</text>
<text x="120.06" y="462.48">*</text>
<text x="495.63" y="180.17">+</text>
<text x="367.06" y="285.18">+</text>
<text x="475.05" y="30.56">.</text>
<text x="175.58" y="266.44">.</text>
<text x="254.08" y="257.60">.</text>
<text x="441.35" y="421.33">+</text>
<text x="189.60" y="290.33">.</text>
<text x="279.71" y="149.19">*</text>
<text x="400.24" y="319.78">.</text>
<text x="359.89" y="241.80">+</text>
<text x="206.90" y="91.97">*</text>
<text x="165.81" y="449.31">.</text>
<text x="91.17" y="484.16">+</text>
<text x="283.98" y="195.72">.</text>
<text x="112.36" y="334.50">+</text>
<text x="423.97" y="202.31">.</text>
<text x="27.49" y="174.65">+</text>
<text x="175.79" y="34.83">.</text>
<text x="66.64" y="441.03">+</text>
<text x="290.33" y="392.25">*</text>
<text x="400.48" y="418.38">.</text>
<text x="250.51" y="318.94">+</text>
<text x="466.98" y="192.02">*</text>
<text x="37.72" y="173.60">+</text>
<text x="9.19" y="449.81">+</text>
<text x="61.42" y="408.53">*</text>
<text x="225.75" y="76.68">+</text>
<text x="58.90" y="210.70">.</text>
<text x="441.91" y="92.11">*</text>
<text x="476.59" y="50.26">*</text>
<text x="208.08" y="33.25">+</text>
<text x="247.21" y="233.49">+</text>
<text x="443.69" y="7.40">.</text>
<text x="35.45" y="310.65">+</text>
<text x="1.18" y="252.71">+</text>
<text x="216.75" y="492.18">+</text>
<text x="54.13" y="234.84">.</text>
<text x="63.88" y="488.30">+</text>
<text x="149.10" y="195.07">.</text>
<text x="356.01" y="111.09">+</text>
<text x="407.23" y="325.47">+</text>
<text x="351.07" y="123.87">*</text>
<text x="391.85" y="348.67">*</text>
<text x="206.63" y="367.03">.</text>
<text x="152.08" y="159.05">+</text>
<text x="389.84" y="320.56">.</text>
<text x="178.16" y="231.53">.</text>
<text x="42.68" y="120.16">+</text>
<text x="444.71" y="406.59">.</text>
<text x="453.37" y="437.61">.</text>
<text x="383.79" y="50.24">+</text>
<text x="279.54" y="57.47">.</text>
<text x="200.71" y="57.27">+</text>
<text x="77.12" y="214.80">+</text>
<text x="417.85" y="332.49">+</text>
<text x="274.31" y="12.35">+</text>
<text x="136.98" y="240.84">.</text>
<text x="112.13" y="486.46">.</text>
<text x="353.11" y="362.52">+</text>
<text x="49.22" y="79.10">*</text>
<text x="125.66" y="196.52">+</text>
<text x="365.51" y="16.23">+</text>
<text x="59.47" y="452.80">+</text>
<text x="54.01" y="237.71">+</text>
<text x="349.69" y="488.25">.</text>
<text x="492.87" y="471.25">+</text>
<text x="432.61" y="181.75">*</text>
<text x="385.01" y="263.97">.</text>
<text x="429.24" y="480.04">.</text>
<text x="16.42" y="186.50">.</text>
<text x="246.15" y="264.44">+</text>
<text x="325.20" y="323.08">.</text>
<text x="211.67" y="138.45">+</text>
<text x="214.23" y="481.49">*</text>
<text x="330.06" y="157.75">*</text>
<text x="248.90" y="300.51">.</text>
<text x="21.72" y="216.62">+</text>
<text x="92.39" y="417.45">+</text>
<text x="463.47" y="467.57">+</text>
<text x="415.50" y="238.50">+</text>
<text x="202.42" y="123.18">+</text>
<text x="429.86" y="370.14">.</text>
<text x="273.08" y="254.58">+</text>
<text x="307.36" y="417.03">*</text>
<text x="368.07" y="240.46">+</text>
<text x="29.99" y="187.96">*</text>
<text x="377.30" y="407.93">.</text>
<text x="392.92" y="371.29">+</text>
<text x="229.41" y="250.13">.</text>
<text x="157.66" y="312.70">+</text>
<text x="131.45" y="263.25">.</text>
<text x="256.25" y="461.71">+</text>
<text x="93.69" y="99.72">.</text>
<text x="40.49" y="399.88">*</text>
<text x="434.34" y="379.86">.</text>
<text x="77.41" y="155.68">.</text>
<text x="336.66" y="162.56">.</text>
<text x="469.04" y="61.11">+</text>
<text x="214.11" y="393.23">+</text>
<text x="147.20" y="461.60">*</text>
<text x="458.91" y="301.46">+</text>
<text x="94.06" y="192.49">.</text>
<text x="402.61" y="355.83">*</text>
<text x="188.66" y="118.71">.</text>
<text x="13.23" y="73.30">+</text>
<text x="40.32" y="119.36">*</text>
<text x="68.80" y="398.49">+</text>
<text x="462.87" y="193.29">.</text>
<text x="299.25" y="156.92">.</text>
<text x="136.14" y="496.12">+</text>
<text x="122.37" y="75.09">.</text>
<text x="151.73" y="298.03">+</text>
<text x="33.87" y="49.64">+</text>
<text x="445.47" y="401.19">.</text>

</svg>