
<svg viewBox="0 0 500 500" xmlns="http://www.w.org/2000/svg" width="100%" height="100%" style="background-color: #0a0a14; font-family: 'Courier New', Courier, monospace;">
    <style>
        text { fill: #aaa; font-size: 10px; text-anchor: middle; dominant-baseline: middle; }
    </style>
    <text x="82.13" y="153.09">+</text>
<text x="370.00" y="284.91">+</text>
<text x="270.60" y="247.97">+</text>
<text x="334.11" y="112.20">.</text>
<text x="363.47" y="156.08">.</text>
<text x="494.60" y="327.96">+</text>
<text x="166.88" y="212.07">.</text>
<text x="310.50" y="98.14">+</text>
<text x="486.13" y="324.49">.</text>
<text x="461.00" y="102.36">.</text>
<text x="386.18" y="40.56">+</text>
<text x="45.63" y="138.39">.</text>
<text x="112.98" y="240.96">*</text>
<text x="276.23" y="376.70">*</text>
<text x="120.65" y="58.25">.</text>
<text x="367.10" y="492.14">+</text>
<text x="180.20" y="321.11">.</text>
<text x="469.78" y="464.35">+</text>
<text x="429.88" y="41.50">+</text>
<text x="329.73" y="109.67">.</text>
<text x="84.01" y="308.24">.</text>
<text x="240.05" y="18.88">.</text>
<text x="206.41" y="10.50">.</text>
<text x="363.95" y="28.85">*</text>
<text x="301.66" y="237.39">+</text>
<text x="320.73" y="164.41">+</text>
<text x="78.11" y="149.65">+</text>
<text x="322.34" y="379.34">+</text>
<text x="447.70" y="9.74">*</text>
<text x="436.05" y="255.47">.</text>
<text x="461.97" y="273.88">.</text>
<text x="251.79" y="116.74">+</text>
<text x="308.35" y="215.27">+</text>
<text x="120.37" y="171.55">+</text>
<text x="232.04" y="41.17">.</text>
<text x="221.46" y="297.37">*</text>
<text x="6.47" y="484.58">+</text>
<text x="430.73" y="271.86">.</text>
<text x="314.89" y="351.71">+</text>
<text x="327.62" y="205.25">.</text>
<text x="33.29" y="422.82">+</text>
<text x="18.13" y="399.70">.</text>
<text x="49.21" y="263.59">+</text>
<text x="51.68" y="302.50">+</text>
<text x="254.78" y="316.97">.</text>
<text x="82.63" y="319.04">.</text>
<text x="460.09" y="199.42">.</text>
<text x="212.42" y="292.90">.</text>
<text x="385.51" y="124.24">+</text>
<text x="389.50" y="190.35">.</text>
<text x="472.32" y="295.76">+</text>
<text x="182.30" y="485.06">+</text>
<text x="260.01" y="464.88">+</text>
<text x="412.89" y="455.86">*</text>
<text x="250.06" y="393.33">+</text>
<text x="470.74" y="100.90">*</text>
<text x="301.47" y="64.11">.</text>
<text x="247.14" y="74.29">.</text>
<text x="88.46" y="371.15">+</text>
<text x="350.05" y="93.14">.</text>
<text x="453.32" y="210.37">.</text>
<text x="159.64" y="225.84">+</text>
<text x="65.97" y="222.70">.</text>
<text x="239.97" y="479.62">+</text>
<text x="395.42" y="48.90">.</text>
<text x="193.58" y="355.96">+</text>
<text x="349.48" y="163.81">+</text>
<text x="456.39" y="389.87">+</text>
<text x="427.88" y="356.27">+</text>
<text x="67.62" y="36.02">.</text>
<text x="391.06" y="330.64">+</text>
<text x="64.74" y="328.27">.</text>
<text x="155.84" y="109.52">.</text>
<text x="6.34" y="466.39">+</text>
<text x="124.21" y="179.49">.</text>
<text x="206.09" y="55.38">*</text>
<text x="337.90" y="47.34">+</text>
<text x="458.12" y="233.01">+</text>
<text x="339.84" y="173.20">+</text>
<text x="151.19" y="295.09">.</text>
<text x="8.71" y="414.65">.</text>
<text x="11.09" y="461.08">+</text>
<text x="186.50" y="317.53">+</text>
<text x="451.41" y="250.47">+</text>
<text x="126.23" y="80.68">+</text>
<text x="283.62" y="287.00">.</text>
<text x="280.59" y="282.36">.</text>
<text x="335.75" y="428.09">.</text>
<text x="7.31" y="34.18">*</text>
<text x="397.46" y="181.08">.</text>
<text x="91.53" y="468.90">.</text>
<text x="149.84" y="205.18">+</text>
<text x="324.72" y="410.83">.</text>
<text x="317.27" y="406.81">+</text>
<text x="222.82" y="439.21">+</text>
<text x="144.84" y="183.19">.</text>
<text x="171.87" y="229.26">.</text>
<text x="180.66" y="147.35">.</text>
<text x="277.34" y="446.67">+</text>
<text x="193.76" y="447.17">+</text>
<text x="62.38" y="495.48">+</text>
<text x="149.76" y="239.50">+</text>
<text x="235.17" y="313.07">.</text>
<text x="392.00" y="210.32">.</text>
<text x="26.06" y="493.54">.</text>
<text x="252.72" y="12.36">+</text>
<text x="12.72" y="264.97">+</text>
<text x="242.84" y="207.23">+</text>
<text x="7.42" y="249.04">.</text>
<text x="448.42" y="23.94">*</text>
<text x="49.47" y="14.95">*</text>
<text x="44.33" y="492.07">+</text>
<text x="181.57" y="200.46">*</text>
<text x="68.28" y="154.81">.</text>
<text x="39.66" y="269.64">.</text>
<text x="94.90" y="235.63">+</text>
<text x="217.38" y="411.01">+</text>
<text x="12.64" y="387.30">.</text>
<text x="54.76" y="490.33">.</text>
<text x="179.94" y="109.16">+</text>
<text x="361.29" y="207.32">*</text>
<text x="346.48" y="183.23">+</text>
<text x="221.36" y="280.36">*</text>
<text x="451.66" y="72.16">.</text>
<text x="497.81" y="145.95">+</text>
<text x="391.57" y="435.21">+</text>
<text x="234.97" y="142.95">+</text>
<text x="398.85" y="77.79">+</text>
<text x="319.73" y="47.46">+</text>
<text x="41.48" y="29.10">*</text>
<text x="220.83" y="459.04">*</text>
<text x="179.12" y="66.74">.</text>
<text x="99.80" y="475.41">+</text>
<text x="252.06" y="64.35">+</text>
<text x="85.24" y="461.56">+</text>
<text x="92.12" y="312.78">.</text>
<text x="209.57" y="494.91">+</text>
<text x="395.35" y="379.91">+</text>
<text x="218.79" y="221.76">.</text>
<text x="84.26" y="323.95">+</text>
<text x="152.03" y="483.81">.</text>
<text x="186.42" y="458.13">*</text>
<text x="71.75" y="72.79">.</text>
<text x="303.53" y="211.59">*</text>
<text x="316.71" y="184.98">.</text>
<text x="468.69" y="96.98">*</text>
<text x="451.65" y="278.28">+</text>
<text x="287.83" y="19.82">+</text>
<text x="45.65" y="488.09">.</text>
<text x="491.89" y="485.21">*</text>
<text x="345.42" y="153.54">.</text>
<text x="52.61" y="64.49">.</text>
<text x="269.03" y="3.88">+</text>
<text x="152.69" y="485.58">*</text>
<text x="121.60" y="39.33">.</text>
<text x="268.60" y="152.08">*</text>
<text x="429.22" y="246.65">.</text>
<text x="312.10" y="445.25">.</text>
<text x="207.34" y="283.46">.</text>
<text x="391.37" y="306.41">+</text>
<text x="276.32" y="379.58">.</text>
<text x="385.38" y="473.65">.</text>
<text x="247.88" y="378.88">.</text>
<text x="246.49" y="177.51">+</text>
<text x="473.31" y="495.91">.</text>
<text x="21.61" y="182.30">*</text>
<text x="281.81" y="145.26">.</text>
<text x="491.89" y="236.89">.</text>
<text x="124.98" y="102.45">.</text>
<text x="128.64" y="457.58">+</text>
<text x="337.55" y="105.77">+</text>
<text x="449.37" y="247.47">.</text>
<text x="35.10" y="213.67">*</text>
<text x="6.05" y="198.45">*</text>
<text x="96.93" y="190.30">+</text>
<text x="488.37" y="229.02">+</text>
<text x="43.50" y="369.70">.</text>
<text x="122.50" y="41.65">.</text>
<text x="451.44" y="139.74">.</text>
<text x="322.75" y="415.48">.</text>
<text x="396.37" y="170.03">+</text>
<text x="189.75" y="68.47">*</text>
<text x="473.63" y="310.64">+</text>
<text x="312.00" y="311.33">+</text>
<text x="171.54" y="183.33">.</text>
<text x="174.66" y="392.03">.</text>
<text x="322.69" y="438.18">+</text>
<text x="217.45" y="334.18">+</text>
<text x="162.83" y="103.16">+</text>
<text x="90.41" y="295.59">.</text>
<text x="237.52" y="34.13">.</text>
<text x="361.90" y="263.57">+</text>
<text x="432.60" y="296.01">+</text>
<text x="287.18" y="403.63">+</text>
<text x="39.11" y="221.08">.</text>
<text x="130.05" y="458.91">+</text>
<text x="107.75" y="367.48">+</text>
<text x="305.09" y="201.92">*</text>
<text x="472.20" y="402.81">*</text>
<text x="496.84" y="38.59">+</text>
<text x="486.25" y="400.09">+</text>
<text x="77.88" y="373.23">+</text>
<text x="38.68" y="70.99">+</text>
<text x="195.98" y="491.48">.</text>
<text x="388.94" y="182.27">+</text>
<text x="354.79" y="337.68">+</text>
<text x="394.25" y="381.38">+</text>
<text x="451.81" y="496.40">.</text>
<text x="111.17" y="263.72">+</text>
<text x="301.56" y="274.29">.</text>
<text x="173.02" y="404.40">*</text>
<text x="54.04" y="376.16">+</text>
<text x="239.65" y="168.98">+</text>
<text x="229.44" y="235.58">+</text>
<text x="180.10" y="122.04">.</text>

</svg>