
<svg viewBox="0 0 500 500" xmlns="http://www.w.org/2000/svg" width="100%" height="100%" style="background-color: #0a0a14; font-family: 'Courier New', Courier, monospace;">
    <style>
        text { fill: #aaa; font-size: 10px; text-anchor: middle; dominant-baseline: middle; }
    </style>
    <text x="276.14" y="58.04">.</text>
<text x="159.95" y="169.32">.</text>
<text x="472.22" y="302.61">.</text>
<text x="228.97" y="477.63">+</text>
<text x="325.34" y="478.03">+</text>
<text x="368.55" y="397.75">*</text>
<text x="432.84" y="178.35">+</text>
<text x="432.35" y="70.49">.</text>
<text x="4.01" y="240.14">+</text>
<text x="85.19" y="158.70">+</text>
<text x="252.98" y="485.25">.</text>
<text x="470.68" y="10.49">+</text>
<text x="246.01" y="138.40">.</text>
<text x="475.53" y="218.83">+</text>
<text x="475.93" y="0.08">*</text>
<text x="16.89" y="266.54">.</text>
<text x="145.22" y="205.71">.</text>
<text x="191.61" y="393.05">+</text>
<text x="202.79" y="284.02">+</text>
<text x="221.06" y="287.14">+</text>
<text x="208.16" y="177.02">.</text>
<text x="125.18" y="51.73">*</text>
<text x="8.99" y="86.07">.</text>
<text x="189.05" y="317.58">+</text>
<text x="360.42" y="256.97">*</text>
<text x="487.37" y="153.19">.</text>
<text x="153.29" y="193.23">.</text>
<text x="14.64" y="390.17">.</text>
<text x="325.68" y="169.72">.</text>
<text x="322.99" y="262.50">*</text>
<text x="62.30" y="76.99">+</text>
<text x="449.45" y="28.49">*</text>
<text x="349.41" y="64.77">.</text>
<text x="263.97" y="78.88">*</text>
<text x="29.21" y="52.89">+</text>
<text x="81.43" y="246.08">.</text>
<text x="129.84" y="439.55">.</text>
<text x="352.05" y="28.40">.</text>
<text x="132.71" y="237.97">.</text>
<text x="348.04" y="250.99">.</text>
<text x="388.51" y="34.47">+</text>
<text x="29.60" y="207.63">.</text>
<text x="351.24" y="363.82">+</text>
<text x="388.82" y="255.94">.</text>
<text x="117.53" y="475.99">+</text>
<text x="197.29" y="377.36">.</text>
<text x="108.03" y="203.65">+</text>
<text x="135.68" y="434.90">.</text>
<text x="447.20" y="314.41">.</text>
<text x="41.05" y="57.34">+</text>
<text x="186.76" y="213.80">+</text>
<text x="166.89" y="214.16">+</text>
<text x="463.12" y="84.63">*</text>
<text x="285.88" y="274.15">+</text>
<text x="72.75" y="368.99">+</text>
<text x="39.06" y="304.99">+</text>
<text x="22.25" y="141.39">.</text>
<text x="173.50" y="349.70">.</text>
<text x="445.80" y="320.50">+</text>
<text x="382.08" y="172.76">+</text>
<text x="177.35" y="342.22">.</text>
<text x="415.77" y="169.42">.</text>
<text x="114.64" y="28.70">.</text>
<text x="22.88" y="293.52">+</text>
<text x="361.93" y="102.76">*</text>
<text x="443.70" y="247.40">.</text>
<text x="323.43" y="197.87">.</text>
<text x="234.42" y="478.59">.</text>
<text x="382.52" y="13.65">*</text>
<text x="292.52" y="274.38">.</text>
<text x="357.90" y="197.06">+</text>
<text x="231.60" y="330.01">.</text>
<text x="372.35" y="163.75">.</text>
<text x="51.24" y="475.79">.</text>
<text x="435.43" y="38.69">+</text>
<text x="373.20" y="418.68">+</text>
<text x="409.04" y="58.50">.</text>
<text x="438.18" y="360.17">.</text>
<text x="251.82" y="263.81">+</text>
<text x="447.44" y="150.66">*</text>
<text x="55.67" y="229.36">.</text>
<text x="433.59" y="434.32">+</text>
<text x="473.85" y="289.20">*</text>
<text x="457.26" y="391.85">.</text>
<text x="106.11" y="498.74">*</text>
<text x="465.20" y="494.86">*</text>
<text x="162.04" y="259.31">.</text>
<text x="210.09" y="56.84">.</text>
<text x="478.56" y="59.75">*</text>
<text x="258.02" y="91.70">+</text>
<text x="104.88" y="87.80">.</text>
<text x="472.82" y="8.04">.</text>
<text x="263.16" y="461.84">+</text>
<text x="361.46" y="410.71">+</text>
<text x="22.18" y="327.90">+</text>
<text x="148.54" y="17.70">*</text>
<text x="272.03" y="162.56">+</text>
<text x="44.87" y="275.52">.</text>
<text x="349.78" y="262.99">*</text>
<text x="361.59" y="126.93">.</text>
<text x="234.98" y="150.48">.</text>
<text x="295.09" y="106.82">.</text>
<text x="319.73" y="122.33">+</text>
<text x="293.38" y="218.21">.</text>
<text x="265.56" y="81.18">+</text>
<text x="321.46" y="97.84">+</text>
<text x="296.76" y="351.23">+</text>
<text x="436.41" y="252.85">+</text>
<text x="113.56" y="280.09">.</text>
<text x="492.22" y="93.93">.</text>
<text x="137.65" y="384.50">.</text>
<text x="368.58" y="105.81">*</text>
<text x="478.22" y="29.39">.</text>
<text x="313.49" y="434.67">.</text>
<text x="386.10" y="331.90">.</text>
<text x="372.94" y="285.74">.</text>
<text x="208.70" y="470.06">+</text>
<text x="360.79" y="408.04">.</text>
<text x="406.69" y="477.53">.</text>
<text x="245.12" y="2.43">.</text>
<text x="121.89" y="123.17">+</text>
<text x="446.26" y="338.41">+</text>
<text x="418.59" y="331.21">.</text>
<text x="298.92" y="144.82">.</text>
<text x="195.31" y="71.00">+</text>
<text x="214.54" y="12.49">+</text>
<text x="436.33" y="391.21">+</text>
<text x="436.43" y="102.37">.</text>
<text x="208.42" y="490.54">+</text>
<text x="338.07" y="97.04">.</text>
<text x="338.06" y="324.35">+</text>
<text x="458.00" y="47.31">+</text>
<text x="218.36" y="276.95">.</text>
<text x="193.24" y="359.75">*</text>
<text x="38.21" y="247.81">*</text>
<text x="155.65" y="473.35">+</text>
<text x="412.05" y="458.76">+</text>
<text x="200.86" y="187.98">.</text>
<text x="375.87" y="227.79">+</text>
<text x="240.87" y="495.77">+</text>
<text x="435.57" y="229.70">+</text>
<text x="483.00" y="57.04">+</text>
<text x="43.72" y="323.88">+</text>
<text x="10.84" y="446.46">+</text>
<text x="339.41" y="378.61">.</text>
<text x="310.40" y="420.08">.</text>
<text x="473.84" y="131.28">.</text>
<text x="349.11" y="170.33">.</text>
<text x="219.55" y="241.32">*</text>
<text x="76.98" y="135.31">.</text>
<text x="132.26" y="324.98">.</text>
<text x="119.12" y="105.18">.</text>
<text x="61.22" y="230.02">.</text>
<text x="144.72" y="302.01">.</text>
<text x="72.15" y="158.72">+</text>
<text x="182.16" y="499.88">+</text>
<text x="214.42" y="148.53">+</text>
<text x="172.56" y="165.83">+</text>
<text x="225.89" y="53.79">.</text>
<text x="57.43" y="109.33">.</text>
<text x="95.65" y="340.12">+</text>
<text x="212.22" y="306.19">+</text>
<text x="420.91" y="223.65">*</text>
<text x="428.99" y="363.48">.</text>
<text x="301.96" y="289.73">.</text>
<text x="416.22" y="197.35">.</text>
<text x="499.48" y="315.04">.</text>
<text x="400.05" y="140.17">+</text>
<text x="136.30" y="103.07">.</text>
<text x="140.86" y="488.78">.</text>
<text x="431.55" y="287.29">+</text>
<text x="221.04" y="205.57">.</text>
<text x="111.04" y="29.28">+</text>
<text x="85.30" y="8.87">.</text>
<text x="371.58" y="283.73">.</text>
<text x="392.97" y="259.90">+</text>
<text x="46.84" y="42.97">.</text>
<text x="317.92" y="477.04">*</text>
<text x="341.69" y="423.66">+</text>
<text x="149.10" y="87.96">+</text>
<text x="342.17" y="490.66">*</text>
<text x="339.88" y="341.50">+</text>
<text x="443.84" y="109.09">.</text>
<text x="452.72" y="77.79">*</text>
<text x="309.38" y="233.50">.</text>
<text x="8.28" y="91.13">.</text>
<text x="265.04" y="403.87">.</text>
<text x="128.36" y="423.28">+</text>
<text x="382.82" y="193.68">.</text>
<text x="471.35" y="345.92">.</text>
<text x="251.94" y="383.23">+</text>
<text x="260.46" y="466.47">*</text>
<text x="32.71" y="247.39">*</text>
<text x="421.58" y="274.19">+</text>
<text x="392.71" y="334.93">.</text>
<text x="93.23" y="253.89">+</text>
<text x="216.33" y="62.18">+</text>
<text x="299.21" y="472.46">+</text>
<text x="140.17" y="130.02">+</text>
<text x="454.87" y="24.06">.</text>
<text x="108.62" y="285.39">.</text>

</svg>