
<svg viewBox="0 0 500 500" xmlns="http://www.w.org/2000/svg" width="100%" height="100%" style="background-color: #0a0a14; font-family: 'Courier New', Courier, monospace;">
    <style>
        text { fill: #aaa; font-size: 10px; text-anchor: middle; dominant-baseline: middle; }
    </style>
    <text x="56.19" y="172.86">+</text>
<text x="272.70" y="205.61">+</text>
<text x="351.16" y="192.59">*</text>
<text x="22.35" y="464.49">+</text>
<text x="471.63" y="333.36">.</text>
<text x="236.27" y="303.57">+</text>
<text x="277.56" y="87.40">*</text>
<text x="426.75" y="397.41">+</text>
<text x="308.21" y="427.69">+</text>
<text x="54.71" y="380.12">.</text>
<text x="150.44" y="250.79">.</text>
<text x="69.06" y="43.77">.</text>
<text x="343.88" y="368.79">.</text>
<text x="347.16" y="113.92">.</text>
<text x="30.92" y="495.38">+</text>
<text x="487.72" y="131.05">*</text>
<text x="21.05" y="357.31">.</text>
<text x="470.32" y="446.79">+</text>
<text x="415.11" y="385.08">+</text>
<text x="275.16" y="207.56">+</text>
<text x="96.29" y="267.13">*</text>
<text x="394.51" y="365.93">+</text>
<text x="14.53" y="192.55">.</text>
<text x="90.93" y="218.49">.</text>
<text x="385.51" y="164.43">.</text>
<text x="264.85" y="266.24">.</text>
<text x="253.86" y="13.82">+</text>
<text x="85.01" y="338.18">.</text>
<text x="195.24" y="64.18">.</text>
<text x="289.33" y="471.07">.</text>
<text x="493.34" y="109.30">*</text>
<text x="305.29" y="405.62">+</text>
<text x="447.84" y="392.28">*</text>
<text x="129.38" y="378.39">+</text>
<text x="369.90" y="55.12">*</text>
<text x="116.37" y="57.97">.</text>
<text x="448.61" y="55.67">+</text>
<text x="60.20" y="2.12">+</text>
<text x="299.10" y="228.19">.</text>
<text x="24.49" y="309.58">+</text>
<text x="310.81" y="352.08">+</text>
<text x="82.01" y="449.47">.</text>
<text x="236.23" y="456.62">+</text>
<text x="283.01" y="364.21">.</text>
<text x="50.94" y="151.00">+</text>
<text x="485.23" y="481.75">*</text>
<text x="490.87" y="19.27">+</text>
<text x="78.56" y="95.55">.</text>
<text x="198.85" y="85.44">+</text>
<text x="34.68" y="93.74">*</text>
<text x="443.58" y="497.02">+</text>
<text x="302.64" y="86.16">+</text>
<text x="475.88" y="117.97">.</text>
<text x="274.59" y="382.09">+</text>
<text x="65.18" y="266.01">.</text>
<text x="34.13" y="50.59">+</text>
<text x="45.82" y="127.65">+</text>
<text x="204.80" y="75.90">*</text>
<text x="116.91" y="472.63">.</text>
<text x="441.05" y="307.09">*</text>
<text x="350.74" y="125.59">.</text>
<text x="366.60" y="391.08">.</text>
<text x="80.01" y="363.53">+</text>
<text x="108.91" y="481.11">+</text>
<text x="399.44" y="121.48">*</text>
<text x="484.09" y="98.43">+</text>
<text x="151.67" y="181.05">+</text>
<text x="158.13" y="32.63">.</text>
<text x="269.47" y="314.21">+</text>
<text x="114.24" y="114.14">.</text>
<text x="444.61" y="247.78">+</text>
<text x="269.61" y="405.04">+</text>
<text x="306.18" y="184.86">.</text>
<text x="446.56" y="451.34">.</text>
<text x="195.61" y="456.66">*</text>
<text x="149.14" y="412.97">.</text>
<text x="194.46" y="309.54">.</text>
<text x="300.69" y="297.99">+</text>
<text x="41.91" y="151.73">.</text>
<text x="131.70" y="2.30">.</text>
<text x="120.57" y="218.62">.</text>
<text x="251.58" y="158.79">*</text>
<text x="228.17" y="222.07">+</text>
<text x="237.97" y="193.26">.</text>
<text x="273.32" y="296.28">+</text>
<text x="30.55" y="12.17">.</text>
<text x="47.93" y="125.27">.</text>
<text x="344.43" y="363.88">+</text>
<text x="210.34" y="401.31">+</text>
<text x="328.06" y="355.76">+</text>
<text x="383.67" y="109.33">+</text>
<text x="321.01" y="258.26">*</text>
<text x="173.36" y="328.97">+</text>
<text x="116.11" y="65.87">.</text>
<text x="73.16" y="289.08">+</text>
<text x="73.26" y="64.98">.</text>
<text x="143.67" y="456.94">.</text>
<text x="450.31" y="356.44">.</text>
<text x="349.12" y="313.66">+</text>
<text x="124.68" y="159.79">*</text>
<text x="383.04" y="0.95">+</text>
<text x="112.20" y="353.95">+</text>
<text x="235.64" y="297.75">.</text>
<text x="383.35" y="336.27">+</text>
<text x="172.20" y="239.41">+</text>
<text x="444.14" y="434.63">.</text>
<text x="265.96" y="441.95">+</text>
<text x="285.48" y="456.71">+</text>
<text x="42.10" y="482.62">.</text>
<text x="2.27" y="97.39">.</text>
<text x="125.90" y="285.35">.</text>
<text x="44.18" y="127.64">.</text>
<text x="484.00" y="233.18">+</text>
<text x="487.40" y="228.65">+</text>
<text x="139.56" y="324.38">+</text>
<text x="78.37" y="212.13">+</text>
<text x="67.19" y="98.10">.</text>
<text x="245.71" y="499.17">*</text>
<text x="462.33" y="34.32">+</text>
<text x="379.17" y="218.19">.</text>
<text x="79.91" y="443.69">+</text>
<text x="270.82" y="223.32">+</text>
<text x="114.96" y="244.01">.</text>
<text x="68.17" y="261.70">.</text>
<text x="393.46" y="279.38">+</text>
<text x="171.47" y="123.39">+</text>
<text x="16.31" y="74.83">.</text>
<text x="423.75" y="449.41">.</text>
<text x="40.76" y="373.28">+</text>
<text x="284.64" y="22.75">.</text>
<text x="188.51" y="357.89">.</text>
<text x="114.75" y="14.05">*</text>
<text x="397.42" y="307.03">+</text>
<text x="220.14" y="230.45">.</text>
<text x="325.95" y="411.24">.</text>
<text x="418.83" y="155.74">+</text>
<text x="132.81" y="157.54">+</text>
<text x="196.14" y="415.41">*</text>
<text x="393.64" y="136.36">*</text>
<text x="157.41" y="289.81">+</text>
<text x="494.27" y="374.83">.</text>
<text x="476.77" y="483.92">+</text>
<text x="112.86" y="75.85">.</text>
<text x="323.54" y="407.89">.</text>
<text x="375.07" y="403.96">+</text>
<text x="297.57" y="484.73">.</text>
<text x="325.54" y="410.58">.</text>
<text x="50.56" y="0.47">*</text>
<text x="318.12" y="4.37">*</text>
<text x="381.52" y="315.22">+</text>
<text x="133.25" y="217.49">+</text>
<text x="241.15" y="447.17">+</text>
<text x="264.99" y="367.08">+</text>
<text x="412.36" y="195.56">+</text>
<text x="297.05" y="29.27">.</text>
<text x="435.15" y="87.99">.</text>
<text x="337.17" y="442.70">+</text>
<text x="382.56" y="438.18">*</text>
<text x="79.38" y="456.50">*</text>
<text x="280.53" y="68.10">.</text>
<text x="319.47" y="165.04">*</text>
<text x="57.45" y="244.74">.</text>
<text x="96.34" y="221.41">+</text>
<text x="458.84" y="23.19">+</text>
<text x="149.97" y="148.62">+</text>
<text x="214.71" y="359.69">.</text>
<text x="100.41" y="460.77">+</text>
<text x="287.80" y="39.94">+</text>
<text x="27.04" y="459.95">.</text>
<text x="316.93" y="441.46">+</text>
<text x="272.30" y="381.78">+</text>
<text x="494.75" y="115.88">.</text>
<text x="436.55" y="317.48">+</text>
<text x="355.82" y="466.93">.</text>
<text x="490.80" y="112.74">.</text>
<text x="477.81" y="53.63">.</text>
<text x="90.39" y="463.81">+</text>
<text x="15.73" y="334.59">+</text>
<text x="49.23" y="439.43">.</text>
<text x="447.90" y="331.75">.</text>
<text x="498.49" y="191.35">.</text>
<text x="16.56" y="378.50">*</text>
<text x="364.45" y="137.24">.</text>
<text x="281.65" y="210.95">.</text>
<text x="1.70" y="419.95">.</text>
<text x="281.04" y="117.85">+</text>
<text x="153.76" y="491.50">+</text>
<text x="178.94" y="82.31">.</text>
<text x="208.88" y="214.44">*</text>
<text x="423.15" y="410.12">+</text>
<text x="423.99" y="86.83">+</text>
<text x="412.79" y="169.91">*</text>
<text x="432.21" y="491.52">.</text>
<text x="479.57" y="56.38">+</text>
<text x="464.13" y="70.07">.</text>
<text x="120.09" y="391.48">.</text>
<text x="140.34" y="327.75">.</text>
<text x="155.56" y="265.41">.</text>
<text x="270.44" y="195.34">+</text>
<text x="326.97" y="271.99">.</text>
<text x="95.92" y="304.21">+</text>
<text x="140.05" y="177.63">.</text>
<text x="99.63" y="340.09">+</text>
<text x="127.40" y="8.23">+</text>
<text x="425.12" y="409.78">.</text>
<text x="48.89" y="493.15">+</text>
<text x="356.50" y="163.78">.</text>
<text x="302.73" y="159.57">+</text>
<text x="398.74" y="394.36">*</text>
<text x="421.10" y="439.04">.</text>
<text x="387.32" y="450.45">+</text>
<text x="445.38" y="376.91">*</text>
<text x="477.15" y="67.90">.</text>
<text x="130.25" y="309.21">+</text>
<text x="288.86" y="11.55">*</text>
<text x="389.06" y="452.04">+</text>
<text x="498.72" y="81.00">+</text>
<text x="465.81" y="491.56">*</text>
<text x="251.90" y="359.81">+</text>
<text x="399.94" y="425.46">+</text>
<text x="369.75" y="363.07">+</text>
<text x="292.93" y="307.05">*</text>

</svg>