
<svg viewBox="0 0 500 500" xmlns="http://www.w.org/2000/svg" width="100%" height="100%" style="background-color: #0a0a14; font-family: 'Courier New', Courier, monospace;">
    <style>
        text { fill: #aaa; font-size: 10px; text-anchor: middle; dominant-baseline: middle; }
    </style>
    <text x="28.11" y="80.37">.</text>
<text x="462.40" y="48.96">+</text>
<text x="499.80" y="84.59">*</text>
<text x="10.74" y="406.23">*</text>
<text x="124.23" y="214.73">+</text>
<text x="55.76" y="50.77">*</text>
<text x="396.63" y="489.10">.</text>
<text x="121.31" y="355.63">+</text>
<text x="158.28" y="411.15">+</text>
<text x="242.96" y="103.08">.</text>
<text x="104.49" y="326.25">*</text>
<text x="221.50" y="270.75">+</text>
<text x="100.61" y="201.76">.</text>
<text x="344.32" y="153.99">.</text>
<text x="351.16" y="433.33">+</text>
<text x="96.88" y="367.53">.</text>
<text x="465.96" y="432.86">+</text>
<text x="221.64" y="442.87">*</text>
<text x="342.17" y="209.37">.</text>
<text x="471.40" y="212.38">+</text>
<text x="300.76" y="124.91">.</text>
<text x="425.01" y="450.56">+</text>
<text x="427.68" y="306.42">.</text>
<text x="490.11" y="272.27">+</text>
<text x="55.68" y="453.25">+</text>
<text x="155.90" y="209.89">*</text>
<text x="272.33" y="381.44">.</text>
<text x="313.67" y="112.52">+</text>
<text x="250.41" y="15.32">+</text>
<text x="375.41" y="295.62">+</text>
<text x="105.35" y="222.75">.</text>
<text x="57.28" y="124.09">.</text>
<text x="305.34" y="270.48">.</text>
<text x="482.65" y="56.37">.</text>
<text x="457.98" y="439.91">.</text>
<text x="463.18" y="161.50">+</text>
<text x="77.56" y="418.99">+</text>
<text x="166.50" y="56.30">.</text>
<text x="224.97" y="67.84">.</text>
<text x="161.91" y="335.91">+</text>
<text x="441.74" y="426.51">+</text>
<text x="152.63" y="264.51">.</text>
<text x="340.90" y="360.09">+</text>
<text x="460.88" y="411.45">.</text>
<text x="157.80" y="6.14">.</text>
<text x="184.63" y="463.33">.</text>
<text x="69.39" y="175.88">.</text>
<text x="91.38" y="127.93">+</text>
<text x="405.25" y="33.05">.</text>
<text x="120.67" y="183.59">+</text>
<text x="362.88" y="64.65">+</text>
<text x="307.93" y="424.97">.</text>
<text x="264.38" y="423.01">.</text>
<text x="482.56" y="387.28">.</text>
<text x="158.79" y="214.03">.</text>
<text x="163.03" y="3.10">.</text>
<text x="473.39" y="216.90">*</text>
<text x="450.52" y="61.60">+</text>
<text x="477.11" y="75.59">.</text>
<text x="467.13" y="297.04">.</text>
<text x="160.74" y="65.49">+</text>
<text x="105.35" y="491.71">+</text>
<text x="419.33" y="41.79">+</text>
<text x="170.68" y="452.85">.</text>
<text x="262.41" y="443.85">+</text>
<text x="375.71" y="431.37">+</text>
<text x="103.91" y="325.46">.</text>
<text x="63.14" y="309.89">.</text>
<text x="273.94" y="428.91">.</text>
<text x="171.88" y="22.12">+</text>
<text x="160.70" y="187.17">+</text>
<text x="387.39" y="332.03">*</text>
<text x="457.03" y="406.29">.</text>
<text x="139.64" y="396.65">.</text>
<text x="382.23" y="247.98">.</text>
<text x="117.31" y="315.61">.</text>
<text x="179.40" y="197.17">.</text>
<text x="33.58" y="430.44">+</text>
<text x="145.89" y="132.48">+</text>
<text x="165.59" y="429.85">*</text>
<text x="289.35" y="418.32">+</text>
<text x="168.95" y="151.39">+</text>
<text x="200.80" y="229.18">+</text>
<text x="88.70" y="407.32">+</text>
<text x="350.11" y="216.55">+</text>
<text x="457.02" y="164.39">+</text>
<text x="36.59" y="59.86">.</text>
<text x="21.63" y="248.69">.</text>
<text x="73.83" y="15.50">*</text>
<text x="427.60" y="271.63">+</text>
<text x="484.35" y="151.05">+</text>
<text x="447.08" y="162.97">.</text>
<text x="19.68" y="443.58">.</text>
<text x="36.54" y="405.56">.</text>
<text x="363.01" y="69.43">*</text>
<text x="387.44" y="267.90">.</text>
<text x="245.67" y="29.93">+</text>
<text x="420.18" y="191.15">+</text>
<text x="390.16" y="294.64">+</text>
<text x="487.70" y="235.79">.</text>
<text x="351.82" y="321.12">.</text>
<text x="202.94" y="228.57">.</text>
<text x="146.14" y="440.26">.</text>
<text x="398.94" y="19.51">.</text>
<text x="371.36" y="19.92">.</text>
<text x="194.35" y="413.43">+</text>
<text x="351.94" y="227.79">.</text>
<text x="400.24" y="73.83">+</text>
<text x="360.19" y="480.34">+</text>
<text x="317.25" y="286.37">.</text>
<text x="138.24" y="366.70">.</text>
<text x="361.96" y="135.11">+</text>
<text x="59.35" y="22.67">+</text>
<text x="123.90" y="381.87">*</text>
<text x="66.90" y="354.64">+</text>
<text x="430.45" y="495.21">*</text>
<text x="428.97" y="309.67">*</text>
<text x="167.66" y="57.53">*</text>
<text x="252.62" y="179.86">+</text>
<text x="179.29" y="187.93">+</text>
<text x="355.33" y="279.22">.</text>
<text x="92.70" y="297.64">.</text>
<text x="357.20" y="417.02">+</text>
<text x="395.39" y="161.41">.</text>
<text x="210.65" y="72.94">+</text>
<text x="7.95" y="146.20">.</text>
<text x="491.99" y="154.60">*</text>
<text x="33.57" y="290.17">+</text>
<text x="203.46" y="458.34">.</text>
<text x="280.27" y="376.00">.</text>
<text x="264.57" y="204.33">+</text>
<text x="483.99" y="33.79">+</text>
<text x="12.18" y="147.55">+</text>
<text x="23.91" y="173.31">+</text>
<text x="187.27" y="54.78">*</text>
<text x="375.57" y="338.37">.</text>
<text x="267.07" y="238.94">+</text>
<text x="256.96" y="473.73">.</text>
<text x="115.94" y="126.07">+</text>
<text x="300.31" y="350.28">.</text>
<text x="28.57" y="69.21">+</text>
<text x="12.31" y="242.72">+</text>
<text x="214.82" y="459.22">.</text>
<text x="334.03" y="184.32">+</text>
<text x="31.67" y="127.75">.</text>
<text x="300.83" y="226.70">*</text>
<text x="488.68" y="281.07">+</text>
<text x="357.35" y="239.91">.</text>
<text x="258.00" y="462.06">+</text>
<text x="276.99" y="342.95">.</text>
<text x="166.32" y="175.35">.</text>
<text x="411.78" y="192.90">.</text>
<text x="173.44" y="297.52">*</text>
<text x="68.04" y="353.99">+</text>
<text x="479.34" y="435.80">+</text>
<text x="451.38" y="193.83">.</text>
<text x="296.80" y="499.60">*</text>
<text x="385.46" y="415.18">+</text>
<text x="419.87" y="417.25">*</text>
<text x="88.58" y="146.62">.</text>
<text x="5.92" y="339.98">+</text>
<text x="451.38" y="246.28">+</text>
<text x="102.63" y="194.93">.</text>
<text x="80.92" y="463.78">+</text>
<text x="381.18" y="22.63">+</text>
<text x="71.89" y="205.44">.</text>
<text x="81.78" y="309.11">+</text>
<text x="215.72" y="260.52">.</text>
<text x="488.38" y="87.79">.</text>
<text x="271.47" y="132.57">+</text>
<text x="185.55" y="23.26">.</text>
<text x="334.88" y="43.42">.</text>
<text x="350.06" y="119.02">+</text>
<text x="7.36" y="235.43">.</text>
<text x="386.54" y="335.11">+</text>
<text x="144.67" y="230.41">.</text>
<text x="255.82" y="386.54">*</text>
<text x="122.91" y="451.41">+</text>
<text x="416.82" y="499.71">*</text>
<text x="342.93" y="383.05">+</text>
<text x="175.67" y="55.01">.</text>
<text x="104.14" y="74.78">+</text>
<text x="38.16" y="116.27">+</text>
<text x="143.86" y="225.45">+</text>
<text x="73.38" y="110.73">*</text>
<text x="318.31" y="32.38">+</text>
<text x="451.89" y="33.13">.</text>
<text x="262.94" y="328.31">*</text>
<text x="315.86" y="292.83">.</text>
<text x="39.55" y="241.03">+</text>
<text x="317.94" y="362.58">+</text>
<text x="163.07" y="143.00">.</text>
<text x="70.08" y="134.60">+</text>
<text x="45.89" y="410.56">+</text>
<text x="337.03" y="186.92">.</text>
<text x="446.70" y="440.92">+</text>
<text x="315.16" y="12.91">.</text>
<text x="200.49" y="35.38">+</text>
<text x="141.79" y="270.62">+</text>
<text x="433.54" y="494.56">+</text>
<text x="188.51" y="176.23">.</text>
<text x="86.74" y="359.78">+</text>
<text x="329.40" y="63.67">.</text>
<text x="90.42" y="470.46">+</text>
<text x="221.47" y="247.99">.</text>
<text x="71.37" y="308.99">.</text>
<text x="304.01" y="211.04">.</text>
<text x="476.02" y="202.14">+</text>
<text x="380.61" y="333.66">+</text>
<text x="226.80" y="422.16">.</text>
<text x="108.96" y="387.58">.</text>
<text x="240.17" y="479.50">+</text>
<text x="313.17" y="244.79">+</text>
<text x="451.32" y="492.53">+</text>

</svg>