
<svg viewBox="0 0 500 500" xmlns="http://www.w.org/2000/svg" width="100%" height="100%" style="background-color: #0a0a14; font-family: 'Courier New', Courier, monospace;">
    <style>
        text { fill: #aaa; font-size: 10px; text-anchor: middle; dominant-baseline: middle; }
    </style>
    <text x="326.07" y="444.31">+</text>
<text x="108.01" y="185.89">.</text>
<text x="436.22" y="51.87">+</text>
<text x="67.54" y="104.05">*</text>
<text x="449.07" y="319.32">+</text>
<text x="434.63" y="200.08">+</text>
<text x="414.83" y="444.49">+</text>
<text x="353.69" y="445.72">+</text>
<text x="84.54" y="451.86">*</text>
<text x="70.37" y="87.26">*</text>
<text x="401.34" y="356.39">*</text>
<text x="227.68" y="238.50">+</text>
<text x="306.48" y="419.41">+</text>
<text x="340.60" y="54.60">+</text>
<text x="495.50" y="184.48">+</text>
<text x="478.35" y="449.16">.</text>
<text x="286.54" y="376.87">*</text>
<text x="417.05" y="120.88">.</text>
<text x="325.69" y="130.38">.</text>
<text x="189.04" y="477.55">+</text>
<text x="431.15" y="441.24">*</text>
<text x="137.94" y="257.00">+</text>
<text x="387.78" y="28.60">+</text>
<text x="499.07" y="235.19">+</text>
<text x="14.75" y="9.07">+</text>
<text x="95.17" y="284.66">.</text>
<text x="432.96" y="352.75">*</text>
<text x="395.99" y="434.94">+</text>
<text x="84.34" y="140.66">+</text>
<text x="17.09" y="486.06">.</text>
<text x="327.37" y="178.42">+</text>
<text x="10.88" y="36.95">*</text>
<text x="214.39" y="214.10">+</text>
<text x="163.11" y="170.31">+</text>
<text x="161.01" y="309.58">+</text>
<text x="370.49" y="286.57">+</text>
<text x="56.33" y="192.85">.</text>
<text x="331.20" y="385.90">.</text>
<text x="20.08" y="24.69">*</text>
<text x="208.60" y="10.52">+</text>
<text x="285.65" y="256.39">+</text>
<text x="363.07" y="220.14">+</text>
<text x="468.93" y="67.53">*</text>
<text x="405.34" y="217.86">+</text>
<text x="484.98" y="336.20">+</text>
<text x="285.53" y="222.78">+</text>
<text x="407.83" y="380.11">.</text>
<text x="287.75" y="77.42">.</text>
<text x="201.78" y="61.35">.</text>
<text x="335.20" y="439.48">+</text>
<text x="486.95" y="250.58">.</text>
<text x="101.06" y="173.71">+</text>
<text x="103.79" y="299.40">.</text>
<text x="260.29" y="450.91">.</text>
<text x="227.01" y="328.65">.</text>
<text x="319.10" y="199.47">*</text>
<text x="139.79" y="68.91">+</text>
<text x="226.35" y="69.08">+</text>
<text x="193.00" y="274.85">.</text>
<text x="445.32" y="346.04">+</text>
<text x="498.92" y="231.37">+</text>
<text x="468.29" y="455.29">+</text>
<text x="208.27" y="307.44">+</text>
<text x="147.32" y="293.49">*</text>
<text x="141.18" y="63.27">.</text>
<text x="9.61" y="387.71">+</text>
<text x="42.54" y="159.95">.</text>
<text x="102.65" y="190.42">.</text>
<text x="100.53" y="84.46">.</text>
<text x="304.51" y="5.38">*</text>
<text x="470.51" y="275.81">.</text>
<text x="272.64" y="169.26">.</text>
<text x="194.58" y="261.09">.</text>
<text x="430.60" y="445.46">*</text>
<text x="150.13" y="285.98">+</text>
<text x="35.88" y="37.86">.</text>
<text x="185.80" y="238.72">*</text>
<text x="402.68" y="406.85">+</text>
<text x="247.84" y="289.63">*</text>
<text x="219.42" y="404.75">+</text>
<text x="285.39" y="34.24">.</text>
<text x="167.84" y="9.19">+</text>
<text x="459.09" y="366.11">.</text>
<text x="409.73" y="124.26">.</text>
<text x="27.73" y="379.63">*</text>
<text x="8.88" y="424.68">+</text>
<text x="60.14" y="419.34">+</text>
<text x="275.22" y="203.07">+</text>
<text x="124.34" y="92.73">.</text>
<text x="93.33" y="16.11">.</text>
<text x="176.08" y="454.36">+</text>
<text x="13.68" y="174.51">.</text>
<text x="23.17" y="136.55">.</text>
<text x="23.60" y="24.83">+</text>
<text x="219.66" y="409.78">+</text>
<text x="244.00" y="259.50">*</text>
<text x="329.01" y="463.22">+</text>
<text x="82.40" y="477.75">.</text>
<text x="325.32" y="191.62">+</text>
<text x="494.10" y="304.47">+</text>
<text x="413.52" y="414.56">.</text>
<text x="353.75" y="291.37">+</text>
<text x="295.55" y="164.15">+</text>
<text x="3.79" y="343.79">+</text>
<text x="443.19" y="413.98">.</text>
<text x="200.80" y="122.59">+</text>
<text x="329.72" y="85.40">.</text>
<text x="472.93" y="285.49">+</text>
<text x="480.57" y="97.94">.</text>
<text x="403.34" y="49.10">+</text>
<text x="428.86" y="260.00">+</text>
<text x="264.32" y="23.29">+</text>
<text x="357.52" y="320.60">+</text>
<text x="227.92" y="388.13">+</text>
<text x="206.97" y="320.04">+</text>
<text x="401.96" y="60.69">+</text>
<text x="185.45" y="143.97">+</text>
<text x="467.99" y="60.40">.</text>
<text x="320.31" y="114.67">*</text>
<text x="333.56" y="256.75">+</text>
<text x="279.88" y="88.44">.</text>
<text x="221.40" y="106.19">*</text>
<text x="431.39" y="30.46">+</text>
<text x="146.68" y="202.21">+</text>
<text x="419.49" y="497.33">*</text>
<text x="93.74" y="488.91">*</text>
<text x="277.81" y="456.51">.</text>
<text x="228.02" y="342.10">*</text>
<text x="423.74" y="46.25">.</text>
<text x="379.14" y="209.97">.</text>
<text x="339.15" y="234.27">*</text>
<text x="327.44" y="230.64">.</text>
<text x="195.55" y="352.73">+</text>
<text x="212.13" y="178.22">.</text>
<text x="443.31" y="370.11">*</text>
<text x="183.98" y="344.47">.</text>
<text x="436.77" y="276.68">+</text>
<text x="139.47" y="97.46">.</text>
<text x="460.83" y="230.36">+</text>
<text x="463.88" y="129.18">.</text>
<text x="35.78" y="303.93">+</text>
<text x="139.73" y="139.71">+</text>
<text x="159.49" y="142.25">*</text>
<text x="341.12" y="421.26">+</text>
<text x="301.71" y="475.84">*</text>
<text x="106.06" y="95.69">.</text>
<text x="253.39" y="246.59">.</text>
<text x="118.99" y="255.48">.</text>
<text x="391.63" y="484.47">.</text>
<text x="102.88" y="46.16">+</text>
<text x="198.29" y="176.11">.</text>
<text x="113.75" y="371.89">+</text>
<text x="461.27" y="335.10">+</text>
<text x="177.25" y="9.36">+</text>
<text x="243.71" y="301.26">*</text>
<text x="30.41" y="251.31">.</text>
<text x="212.69" y="487.51">.</text>
<text x="148.57" y="342.72">+</text>
<text x="480.56" y="153.00">+</text>
<text x="117.83" y="482.39">.</text>
<text x="184.13" y="7.73">.</text>
<text x="375.46" y="282.48">.</text>
<text x="174.32" y="152.66">+</text>
<text x="345.32" y="339.55">+</text>
<text x="113.90" y="411.34">+</text>
<text x="246.51" y="289.27">+</text>
<text x="419.07" y="348.99">+</text>
<text x="110.99" y="231.72">+</text>
<text x="285.28" y="100.34">.</text>
<text x="262.63" y="89.91">+</text>
<text x="216.31" y="34.82">+</text>
<text x="498.22" y="98.55">.</text>
<text x="340.22" y="496.78">.</text>
<text x="89.10" y="276.81">.</text>
<text x="248.13" y="182.68">+</text>
<text x="335.79" y="371.31">.</text>
<text x="303.52" y="329.42">.</text>
<text x="1.17" y="378.74">+</text>
<text x="28.09" y="85.99">.</text>
<text x="473.58" y="86.39">+</text>
<text x="357.78" y="239.28">+</text>
<text x="175.80" y="492.62">.</text>
<text x="176.33" y="59.55">+</text>
<text x="336.11" y="204.28">*</text>
<text x="386.59" y="2.19">+</text>
<text x="187.28" y="275.61">.</text>
<text x="391.94" y="433.95">+</text>
<text x="424.48" y="47.35">+</text>
<text x="118.84" y="243.79">.</text>
<text x="105.56" y="253.61">*</text>
<text x="499.44" y="335.89">.</text>
<text x="124.61" y="307.50">+</text>
<text x="430.52" y="109.23">*</text>
<text x="451.78" y="108.07">+</text>
<text x="244.36" y="410.28">+</text>
<text x="465.36" y="497.26">*</text>
<text x="404.63" y="105.40">+</text>
<text x="343.68" y="219.48">.</text>
<text x="343.35" y="247.86">.</text>
<text x="306.64" y="441.22">.</text>
<text x="266.68" y="430.62">.</text>
<text x="11.62" y="232.33">.</text>
<text x="140.07" y="242.95">.</text>
<text x="356.79" y="31.74">+</text>
<text x="201.99" y="467.69">.</text>
<text x="417.53" y="225.24">.</text>
<text x="379.19" y="351.92">+</text>
<text x="170.89" y="243.26">+</text>
<text x="180.38" y="439.66">*</text>
<text x="200.92" y="43.16">.</text>
<text x="423.44" y="484.15">*</text>
<text x="238.58" y="18.56">+</text>

</svg>