
<svg viewBox="0 0 500 500" xmlns="http://www.w.org/2000/svg" width="100%" height="100%" style="background-color: #0a0a14; font-family: 'Courier New', Courier, monospace;">
    <style>
        text { fill: #aaa; font-size: 10px; text-anchor: middle; dominant-baseline: middle; }
    </style>
    <text x="256.29" y="408.79">+</text>
<text x="459.77" y="466.22">.</text>
<text x="440.85" y="89.55">.</text>
<text x="104.35" y="164.53">*</text>
<text x="300.39" y="493.32">+</text>
<text x="280.63" y="423.21">.</text>
<text x="46.75" y="421.44">+</text>
<text x="491.59" y="167.93">.</text>
<text x="263.29" y="323.66">.</text>
<text x="362.17" y="136.61">.</text>
<text x="227.23" y="232.73">*</text>
<text x="155.13" y="487.09">+</text>
<text x="219.21" y="406.47">+</text>
<text x="136.48" y="356.87">+</text>
<text x="152.49" y="440.63">+</text>
<text x="59.86" y="122.05">+</text>
<text x="493.29" y="465.70">+</text>
<text x="146.87" y="381.07">.</text>
<text x="246.11" y="164.45">+</text>
<text x="140.89" y="52.13">.</text>
<text x="365.01" y="40.47">+</text>
<text x="378.82" y="224.57">+</text>
<text x="149.08" y="393.89">.</text>
<text x="90.76" y="279.22">+</text>
<text x="494.37" y="306.61">.</text>
<text x="199.51" y="74.00">+</text>
<text x="132.34" y="6.61">.</text>
<text x="92.85" y="385.38">+</text>
<text x="216.43" y="10.41">.</text>
<text x="40.60" y="442.14">.</text>
<text x="40.61" y="258.10">+</text>
<text x="477.31" y="170.20">.</text>
<text x="199.22" y="192.16">.</text>
<text x="446.85" y="64.07">*</text>
<text x="425.29" y="68.61">.</text>
<text x="355.38" y="107.46">.</text>
<text x="314.16" y="39.26">+</text>
<text x="232.48" y="339.22">+</text>
<text x="456.70" y="466.34">+</text>
<text x="437.80" y="482.77">+</text>
<text x="340.16" y="192.83">.</text>
<text x="411.05" y="389.85">+</text>
<text x="168.65" y="450.77">+</text>
<text x="224.38" y="56.46">+</text>
<text x="21.69" y="351.59">+</text>
<text x="320.91" y="184.83">+</text>
<text x="246.48" y="240.27">.</text>
<text x="443.53" y="402.54">+</text>
<text x="260.73" y="466.67">.</text>
<text x="59.08" y="228.29">.</text>
<text x="269.85" y="85.46">.</text>
<text x="451.27" y="340.96">.</text>
<text x="483.06" y="34.27">*</text>
<text x="231.96" y="383.12">*</text>
<text x="167.30" y="82.52">+</text>
<text x="258.63" y="460.43">+</text>
<text x="48.83" y="193.30">+</text>
<text x="457.29" y="10.04">.</text>
<text x="294.53" y="51.37">+</text>
<text x="198.22" y="61.31">.</text>
<text x="3.30" y="321.36">+</text>
<text x="155.28" y="468.79">.</text>
<text x="87.17" y="446.77">.</text>
<text x="96.74" y="120.80">.</text>
<text x="336.82" y="454.30">.</text>
<text x="139.27" y="485.44">*</text>
<text x="342.20" y="191.03">*</text>
<text x="79.33" y="93.04">.</text>
<text x="157.89" y="281.22">.</text>
<text x="451.95" y="310.25">+</text>
<text x="80.29" y="18.11">+</text>
<text x="190.42" y="375.73">.</text>
<text x="199.91" y="37.15">.</text>
<text x="162.46" y="109.69">+</text>
<text x="285.49" y="335.38">+</text>
<text x="25.49" y="95.79">.</text>
<text x="285.18" y="298.30">+</text>
<text x="448.84" y="167.60">.</text>
<text x="62.50" y="226.73">.</text>
<text x="425.34" y="480.40">.</text>
<text x="225.73" y="446.35">+</text>
<text x="160.66" y="38.24">.</text>
<text x="151.43" y="99.70">+</text>
<text x="179.68" y="266.57">+</text>
<text x="61.52" y="472.99">*</text>
<text x="353.16" y="338.04">+</text>
<text x="487.42" y="190.17">+</text>
<text x="442.71" y="376.54">.</text>
<text x="392.65" y="80.46">*</text>
<text x="170.36" y="11.83">.</text>
<text x="50.19" y="267.85">.</text>
<text x="457.49" y="270.56">.</text>
<text x="356.35" y="432.41">+</text>
<text x="274.93" y="8.99">.</text>
<text x="161.28" y="350.97">.</text>
<text x="437.39" y="228.11">.</text>
<text x="28.16" y="235.83">.</text>
<text x="462.05" y="472.39">+</text>
<text x="245.05" y="295.34">+</text>
<text x="311.47" y="10.59">.</text>
<text x="141.52" y="391.00">+</text>
<text x="119.90" y="56.71">+</text>
<text x="53.59" y="319.10">+</text>
<text x="2.20" y="69.65">+</text>
<text x="406.37" y="245.27">+</text>
<text x="143.90" y="42.30">.</text>
<text x="258.83" y="219.84">.</text>
<text x="424.17" y="298.63">+</text>
<text x="82.27" y="26.33">.</text>
<text x="186.67" y="488.85">+</text>
<text x="318.14" y="365.40">+</text>
<text x="159.02" y="120.28">.</text>
<text x="466.41" y="394.52">+</text>
<text x="75.93" y="202.28">+</text>
<text x="345.77" y="99.55">+</text>
<text x="159.61" y="13.74">.</text>
<text x="347.66" y="176.31">*</text>
<text x="20.92" y="490.93">*</text>
<text x="91.00" y="458.92">+</text>
<text x="301.79" y="137.40">+</text>
<text x="217.17" y="313.30">.</text>
<text x="445.52" y="484.77">+</text>
<text x="94.41" y="264.81">.</text>
<text x="160.07" y="249.52">*</text>
<text x="192.74" y="132.23">+</text>
<text x="1.06" y="47.43">.</text>
<text x="162.41" y="435.40">+</text>
<text x="63.62" y="49.05">*</text>
<text x="275.53" y="484.65">+</text>
<text x="46.67" y="473.03">.</text>
<text x="143.75" y="224.51">.</text>
<text x="353.57" y="272.81">+</text>
<text x="256.27" y="315.66">+</text>
<text x="475.10" y="334.29">+</text>
<text x="83.12" y="394.39">+</text>
<text x="255.79" y="184.14">*</text>
<text x="201.34" y="188.53">.</text>
<text x="221.55" y="288.44">+</text>
<text x="403.25" y="262.46">+</text>
<text x="230.13" y="102.40">.</text>
<text x="151.91" y="262.07">.</text>
<text x="419.77" y="400.53">*</text>
<text x="240.36" y="177.46">+</text>
<text x="456.03" y="40.91">.</text>
<text x="316.98" y="455.61">+</text>
<text x="111.62" y="428.30">.</text>
<text x="190.48" y="173.39">+</text>
<text x="434.69" y="472.63">.</text>
<text x="483.86" y="78.56">+</text>
<text x="340.88" y="353.53">.</text>
<text x="249.39" y="168.21">+</text>
<text x="197.08" y="353.42">+</text>
<text x="249.03" y="410.98">*</text>
<text x="417.89" y="17.37">.</text>
<text x="414.46" y="195.14">+</text>
<text x="197.67" y="163.54">+</text>
<text x="377.57" y="383.87">+</text>
<text x="60.05" y="176.17">.</text>
<text x="283.55" y="131.02">+</text>
<text x="68.23" y="239.16">+</text>
<text x="305.91" y="157.80">+</text>
<text x="6.63" y="361.42">+</text>
<text x="63.78" y="414.98">.</text>
<text x="446.39" y="122.02">.</text>
<text x="205.59" y="199.19">*</text>
<text x="278.26" y="33.32">.</text>
<text x="29.94" y="446.85">+</text>
<text x="74.28" y="56.41">.</text>
<text x="303.75" y="127.90">+</text>
<text x="145.36" y="24.35">+</text>
<text x="63.34" y="70.19">.</text>
<text x="499.96" y="236.85">+</text>
<text x="47.66" y="110.23">.</text>
<text x="429.36" y="390.21">.</text>
<text x="346.27" y="364.80">+</text>
<text x="260.97" y="420.00">+</text>
<text x="390.91" y="67.69">*</text>
<text x="188.95" y="18.05">+</text>
<text x="273.70" y="213.15">*</text>
<text x="240.41" y="73.38">.</text>
<text x="348.15" y="149.17">.</text>
<text x="423.70" y="367.89">*</text>
<text x="468.71" y="136.78">*</text>
<text x="12.12" y="105.14">+</text>
<text x="282.97" y="431.87">+</text>
<text x="388.66" y="267.08">.</text>
<text x="190.68" y="474.03">+</text>
<text x="10.00" y="473.47">+</text>
<text x="417.61" y="355.20">+</text>
<text x="265.77" y="31.55">.</text>
<text x="118.21" y="340.17">+</text>
<text x="348.14" y="13.15">+</text>
<text x="314.21" y="174.76">.</text>
<text x="320.86" y="5.11">*</text>
<text x="35.69" y="333.90">+</text>

</svg>