
<svg viewBox="0 0 500 500" xmlns="http://www.w.org/2000/svg" width="100%" height="100%" style="background-color: #0a0a14; font-family: 'Courier New', Courier, monospace;">
    <style>
        text { fill: #aaa; font-size: 10px; text-anchor: middle; dominant-baseline: middle; }
    </style>
    <text x="195.20" y="168.36">+</text>
<text x="76.71" y="111.83">*</text>
<text x="496.77" y="323.18">.</text>
<text x="334.13" y="197.03">.</text>
<text x="419.93" y="486.80">.</text>
<text x="490.39" y="420.90">+</text>
<text x="265.38" y="224.63">+</text>
<text x="477.66" y="224.01">.</text>
<text x="0.61" y="466.22">*</text>
<text x="87.06" y="201.69">.</text>
<text x="437.50" y="137.48">.</text>
<text x="319.44" y="253.82">.</text>
<text x="309.59" y="486.25">.</text>
<text x="117.30" y="430.65">.</text>
<text x="25.05" y="40.70">+</text>
<text x="280.80" y="177.65">+</text>
<text x="104.13" y="143.74">*</text>
<text x="230.47" y="44.82">+</text>
<text x="205.54" y="290.07">+</text>
<text x="489.64" y="289.60">*</text>
<text x="232.31" y="100.29">+</text>
<text x="249.21" y="251.86">.</text>
<text x="90.74" y="265.04">*</text>
<text x="401.20" y="355.55">.</text>
<text x="42.47" y="234.54">.</text>
<text x="294.82" y="295.46">+</text>
<text x="440.90" y="463.92">.</text>
<text x="282.32" y="449.78">+</text>
<text x="18.90" y="480.87">.</text>
<text x="340.17" y="474.77">+</text>
<text x="461.89" y="9.36">*</text>
<text x="104.95" y="277.13">+</text>
<text x="300.95" y="327.54">.</text>
<text x="477.51" y="286.67">*</text>
<text x="436.03" y="55.76">.</text>
<text x="40.37" y="296.25">.</text>
<text x="453.18" y="239.93">+</text>
<text x="199.79" y="152.78">+</text>
<text x="492.16" y="151.67">+</text>
<text x="38.95" y="227.41">*</text>
<text x="226.21" y="364.02">+</text>
<text x="192.31" y="408.28">+</text>
<text x="273.49" y="140.41">+</text>
<text x="306.74" y="25.43">.</text>
<text x="193.89" y="137.75">.</text>
<text x="119.83" y="387.87">+</text>
<text x="111.52" y="371.22">*</text>
<text x="184.04" y="102.68">+</text>
<text x="402.92" y="52.32">+</text>
<text x="119.21" y="403.55">+</text>
<text x="358.67" y="255.44">.</text>
<text x="92.92" y="183.34">+</text>
<text x="192.21" y="49.77">+</text>
<text x="297.14" y="479.25">.</text>
<text x="254.06" y="108.02">+</text>
<text x="102.06" y="71.62">+</text>
<text x="244.11" y="37.07">.</text>
<text x="212.10" y="473.05">*</text>
<text x="447.25" y="379.52">.</text>
<text x="81.53" y="474.71">*</text>
<text x="283.47" y="130.19">.</text>
<text x="214.29" y="236.56">+</text>
<text x="315.88" y="335.92">+</text>
<text x="5.49" y="222.61">*</text>
<text x="353.30" y="372.54">+</text>
<text x="136.76" y="300.90">+</text>
<text x="435.62" y="118.60">+</text>
<text x="366.83" y="69.52">.</text>
<text x="152.37" y="312.65">.</text>
<text x="125.77" y="201.31">.</text>
<text x="387.27" y="22.58">+</text>
<text x="159.59" y="204.23">*</text>
<text x="140.29" y="20.05">.</text>
<text x="18.53" y="261.65">.</text>
<text x="446.14" y="228.49">.</text>
<text x="201.82" y="30.87">.</text>
<text x="240.11" y="411.79">.</text>
<text x="231.18" y="195.47">.</text>
<text x="182.80" y="417.06">+</text>
<text x="428.85" y="139.55">.</text>
<text x="63.67" y="405.29">+</text>
<text x="267.53" y="188.11">+</text>
<text x="223.90" y="214.68">*</text>
<text x="496.95" y="232.61">.</text>
<text x="8.16" y="241.32">*</text>
<text x="25.92" y="446.01">*</text>
<text x="69.46" y="124.88">+</text>
<text x="82.23" y="426.65">+</text>
<text x="349.21" y="396.07">+</text>
<text x="190.89" y="11.87">+</text>
<text x="494.27" y="359.17">+</text>
<text x="250.15" y="195.40">.</text>
<text x="325.67" y="498.46">*</text>
<text x="69.36" y="51.19">+</text>
<text x="97.07" y="312.94">+</text>
<text x="284.95" y="473.07">.</text>
<text x="213.61" y="165.79">*</text>
<text x="246.92" y="487.94">.</text>
<text x="163.33" y="78.18">.</text>
<text x="179.89" y="288.93">.</text>
<text x="246.26" y="247.36">.</text>
<text x="155.27" y="203.20">.</text>
<text x="499.46" y="290.71">+</text>
<text x="155.76" y="327.52">+</text>
<text x="145.29" y="388.62">.</text>
<text x="128.96" y="294.75">.</text>
<text x="63.84" y="414.94">+</text>
<text x="120.13" y="224.30">*</text>
<text x="200.16" y="371.65">+</text>
<text x="399.09" y="164.88">.</text>
<text x="418.59" y="190.08">.</text>
<text x="91.64" y="426.76">+</text>
<text x="307.09" y="61.78">.</text>
<text x="46.71" y="444.48">+</text>
<text x="395.19" y="333.23">.</text>
<text x="8.73" y="123.41">+</text>
<text x="183.74" y="57.64">+</text>
<text x="267.48" y="473.56">.</text>
<text x="22.08" y="12.85">+</text>
<text x="119.95" y="309.44">.</text>
<text x="490.04" y="448.30">.</text>
<text x="476.67" y="366.21">.</text>
<text x="403.02" y="226.60">.</text>
<text x="47.44" y="55.75">.</text>
<text x="40.40" y="427.85">.</text>
<text x="496.78" y="110.08">.</text>
<text x="210.53" y="277.65">*</text>
<text x="259.93" y="3.94">+</text>
<text x="69.66" y="318.98">*</text>
<text x="334.35" y="60.72">+</text>
<text x="225.18" y="437.93">+</text>
<text x="114.51" y="83.70">.</text>
<text x="385.36" y="2.72">+</text>
<text x="450.70" y="441.92">+</text>
<text x="86.99" y="188.29">.</text>
<text x="203.31" y="1.63">+</text>
<text x="206.68" y="477.08">+</text>
<text x="326.79" y="74.92">.</text>
<text x="136.44" y="488.96">.</text>
<text x="198.33" y="207.01">.</text>
<text x="241.17" y="202.39">*</text>
<text x="27.98" y="499.56">+</text>
<text x="156.46" y="343.76">+</text>
<text x="327.52" y="296.14">+</text>
<text x="176.55" y="241.89">*</text>
<text x="259.12" y="123.69">+</text>
<text x="155.81" y="438.06">+</text>
<text x="253.81" y="463.67">.</text>
<text x="30.48" y="443.16">+</text>
<text x="409.90" y="150.50">*</text>
<text x="475.35" y="288.41">.</text>
<text x="162.39" y="314.60">+</text>
<text x="348.60" y="331.55">+</text>
<text x="449.63" y="149.02">.</text>
<text x="13.37" y="482.89">.</text>
<text x="87.99" y="266.88">+</text>
<text x="285.50" y="389.89">.</text>
<text x="464.33" y="235.97">.</text>
<text x="45.73" y="216.08">+</text>
<text x="434.41" y="8.44">+</text>
<text x="299.94" y="411.71">.</text>
<text x="414.92" y="384.90">.</text>
<text x="262.93" y="296.05">+</text>
<text x="338.49" y="7.63">.</text>
<text x="97.69" y="460.24">.</text>
<text x="265.64" y="62.44">.</text>
<text x="380.53" y="341.58">.</text>
<text x="488.85" y="370.14">+</text>
<text x="195.63" y="332.40">.</text>
<text x="143.80" y="175.62">+</text>
<text x="209.43" y="436.46">+</text>
<text x="63.46" y="357.86">*</text>
<text x="150.32" y="320.78">.</text>
<text x="158.86" y="355.39">.</text>
<text x="388.39" y="26.05">.</text>
<text x="143.26" y="407.37">*</text>
<text x="451.02" y="182.15">+</text>
<text x="1.06" y="418.54">.</text>
<text x="60.40" y="498.85">.</text>
<text x="212.37" y="389.63">+</text>
<text x="471.49" y="336.04">+</text>
<text x="337.22" y="203.56">+</text>
<text x="369.78" y="2.59">.</text>
<text x="89.18" y="236.21">.</text>
<text x="194.64" y="335.91">+</text>
<text x="439.62" y="340.16">*</text>
<text x="17.87" y="114.62">+</text>
<text x="201.06" y="62.25">*</text>
<text x="249.34" y="389.56">.</text>
<text x="317.32" y="54.00">+</text>
<text x="279.89" y="473.48">.</text>
<text x="177.93" y="96.02">+</text>
<text x="237.89" y="189.46">+</text>
<text x="336.05" y="407.63">+</text>
<text x="34.71" y="138.62">*</text>
<text x="260.01" y="141.11">+</text>
<text x="293.15" y="278.98">+</text>
<text x="490.67" y="63.08">.</text>
<text x="418.70" y="269.91">+</text>
<text x="400.47" y="170.42">+</text>
<text x="423.77" y="173.28">.</text>
<text x="477.08" y="376.34">+</text>
<text x="397.60" y="208.05">+</text>
<text x="475.13" y="222.74">+</text>
<text x="327.98" y="127.45">+</text>
<text x="407.59" y="206.92">+</text>
<text x="448.89" y="136.60">+</text>
<text x="156.56" y="113.07">+</text>
<text x="339.82" y="243.18">.</text>
<text x="446.27" y="419.07">*</text>
<text x="43.85" y="96.91">.</text>
<text x="469.56" y="301.18">.</text>
<text x="354.98" y="11.47">+</text>
<text x="94.18" y="71.21">*</text>
<text x="333.05" y="227.71">+</text>
<text x="415.24" y="57.76">+</text>
<text x="45.81" y="20.02">.</text>
<text x="303.06" y="372.53">.</text>
<text x="408.65" y="389.82">.</text>
<text x="290.60" y="388.51">.</text>
<text x="189.34" y="438.46">.</text>
<text x="234.38" y="324.12">+</text>
<text x="36.29" y="23.24">+</text>
<text x="261.36" y="46.69">+</text>

</svg>