
<svg viewBox="0 0 500 500" xmlns="http://www.w.org/2000/svg" width="100%" height="100%" style="background-color: #0a0a14; font-family: 'Courier New', Courier, monospace;">
    <style>
        text { fill: #aaa; font-size: 10px; text-anchor: middle; dominant-baseline: middle; }
    </style>
    <text x="87.15" y="228.17">*</text>
<text x="259.25" y="261.40">+</text>
<text x="11.84" y="190.67">+</text>
<text x="158.26" y="248.81">*</text>
<text x="106.18" y="482.66">.</text>
<text x="441.61" y="439.87">+</text>
<text x="229.82" y="164.70">+</text>
<text x="477.30" y="459.49">+</text>
<text x="298.88" y="407.45">+</text>
<text x="334.54" y="196.01">+</text>
<text x="352.26" y="330.29">.</text>
<text x="373.83" y="146.41">*</text>
<text x="255.59" y="13.14">.</text>
<text x="203.34" y="153.50">.</text>
<text x="441.59" y="158.84">.</text>
<text x="465.62" y="431.42">+</text>
<text x="480.40" y="94.29">*</text>
<text x="370.55" y="441.37">.</text>
<text x="492.95" y="58.49">*</text>
<text x="117.57" y="371.05">.</text>
<text x="460.28" y="236.27">+</text>
<text x="359.02" y="405.60">+</text>
<text x="301.18" y="353.23">+</text>
<text x="442.95" y="197.94">+</text>
<text x="287.31" y="153.88">.</text>
<text x="302.30" y="246.74">.</text>
<text x="119.09" y="395.04">.</text>
<text x="253.04" y="403.84">+</text>
<text x="209.25" y="384.21">.</text>
<text x="89.18" y="97.23">.</text>
<text x="23.58" y="108.50">+</text>
<text x="228.25" y="83.90">+</text>
<text x="77.42" y="493.00">.</text>
<text x="471.29" y="465.81">+</text>
<text x="453.29" y="66.17">+</text>
<text x="125.12" y="472.79">*</text>
<text x="193.03" y="242.00">+</text>
<text x="46.84" y="131.30">+</text>
<text x="104.35" y="92.13">.</text>
<text x="255.63" y="451.64">.</text>
<text x="327.46" y="292.43">.</text>
<text x="308.20" y="210.00">.</text>
<text x="321.87" y="71.74">*</text>
<text x="486.27" y="22.78">.</text>
<text x="208.24" y="481.86">+</text>
<text x="1.05" y="103.56">+</text>
<text x="68.25" y="382.25">.</text>
<text x="244.77" y="457.04">+</text>
<text x="360.74" y="12.52">.</text>
<text x="62.64" y="81.19">.</text>
<text x="55.82" y="439.49">+</text>
<text x="492.32" y="45.41">+</text>
<text x="154.72" y="67.35">.</text>
<text x="162.46" y="27.01">+</text>
<text x="457.54" y="97.76">.</text>
<text x="372.88" y="169.25">+</text>
<text x="7.73" y="215.46">+</text>
<text x="54.91" y="123.81">+</text>
<text x="218.80" y="241.84">.</text>
<text x="212.77" y="366.39">.</text>
<text x="303.64" y="117.20">+</text>
<text x="192.77" y="241.98">.</text>
<text x="338.25" y="398.00">+</text>
<text x="343.48" y="32.00">.</text>
<text x="63.54" y="0.21">+</text>
<text x="425.42" y="133.40">.</text>
<text x="42.04" y="173.77">.</text>
<text x="153.15" y="410.76">+</text>
<text x="352.77" y="314.58">+</text>
<text x="447.32" y="492.49">.</text>
<text x="217.02" y="331.04">.</text>
<text x="409.02" y="382.49">+</text>
<text x="434.40" y="247.48">+</text>
<text x="90.88" y="64.39">+</text>
<text x="20.79" y="281.99">+</text>
<text x="302.70" y="7.19">+</text>
<text x="55.11" y="466.06">.</text>
<text x="363.64" y="491.36">+</text>
<text x="29.08" y="166.80">+</text>
<text x="376.74" y="59.75">+</text>
<text x="465.30" y="437.82">.</text>
<text x="377.28" y="255.70">+</text>
<text x="340.94" y="111.89">*</text>
<text x="272.35" y="378.54">*</text>
<text x="345.42" y="357.42">.</text>
<text x="147.75" y="225.42">+</text>
<text x="214.79" y="125.51">.</text>
<text x="396.19" y="48.21">.</text>
<text x="316.26" y="21.74">+</text>
<text x="408.51" y="90.33">+</text>
<text x="481.82" y="43.06">.</text>
<text x="383.65" y="28.67">.</text>
<text x="127.87" y="215.05">.</text>
<text x="380.25" y="102.91">+</text>
<text x="10.25" y="181.61">+</text>
<text x="44.84" y="408.84">+</text>
<text x="418.69" y="423.84">+</text>
<text x="182.74" y="405.64">+</text>
<text x="338.04" y="309.20">*</text>
<text x="199.29" y="25.22">.</text>
<text x="44.28" y="477.08">*</text>
<text x="458.76" y="422.92">+</text>
<text x="204.06" y="442.81">.</text>
<text x="397.90" y="211.76">.</text>
<text x="215.02" y="451.53">.</text>
<text x="402.81" y="437.14">*</text>
<text x="92.84" y="435.91">.</text>
<text x="155.72" y="444.09">.</text>
<text x="366.97" y="441.99">+</text>
<text x="495.01" y="204.07">.</text>
<text x="312.23" y="254.19">+</text>
<text x="3.28" y="165.59">.</text>
<text x="108.24" y="447.24">.</text>
<text x="398.86" y="471.10">+</text>
<text x="231.21" y="387.87">+</text>
<text x="231.84" y="36.79">+</text>
<text x="313.55" y="213.65">+</text>
<text x="310.43" y="119.64">.</text>
<text x="470.08" y="173.13">*</text>
<text x="18.39" y="330.64">.</text>
<text x="403.72" y="169.35">+</text>
<text x="211.03" y="252.71">.</text>
<text x="94.66" y="182.60">.</text>
<text x="104.66" y="14.09">*</text>
<text x="440.45" y="428.55">.</text>
<text x="281.77" y="325.58">.</text>
<text x="26.13" y="157.37">.</text>
<text x="311.42" y="337.34">*</text>
<text x="56.43" y="348.06">*</text>
<text x="343.57" y="223.83">*</text>
<text x="465.91" y="290.68">.</text>
<text x="149.33" y="29.17">*</text>
<text x="286.52" y="364.86">+</text>
<text x="266.65" y="264.35">+</text>
<text x="59.51" y="266.12">+</text>
<text x="229.89" y="487.83">+</text>
<text x="416.27" y="460.49">.</text>
<text x="384.55" y="380.25">.</text>
<text x="202.20" y="205.97">.</text>
<text x="162.76" y="455.86">.</text>
<text x="63.43" y="133.08">.</text>
<text x="115.56" y="196.90">+</text>
<text x="52.68" y="234.41">.</text>
<text x="206.25" y="254.35">+</text>
<text x="382.51" y="387.27">+</text>
<text x="220.76" y="487.64">.</text>
<text x="169.23" y="128.82">.</text>
<text x="315.24" y="137.77">.</text>
<text x="210.22" y="440.95">.</text>
<text x="439.35" y="497.91">.</text>
<text x="496.73" y="424.60">+</text>
<text x="76.97" y="143.31">+</text>
<text x="193.17" y="360.84">.</text>
<text x="128.27" y="6.03">*</text>
<text x="268.97" y="234.80">.</text>
<text x="290.44" y="310.97">+</text>
<text x="41.69" y="330.71">+</text>
<text x="309.44" y="471.16">.</text>
<text x="447.56" y="27.80">.</text>
<text x="321.42" y="347.10">.</text>
<text x="233.46" y="428.81">.</text>
<text x="188.35" y="3.40">+</text>
<text x="61.89" y="359.21">.</text>
<text x="262.43" y="87.22">*</text>
<text x="292.71" y="303.45">.</text>
<text x="447.10" y="372.46">.</text>
<text x="445.33" y="494.05">.</text>
<text x="253.25" y="25.98">.</text>
<text x="316.49" y="401.54">+</text>
<text x="118.88" y="212.57">*</text>
<text x="386.50" y="270.02">.</text>
<text x="476.68" y="187.91">*</text>
<text x="435.51" y="480.37">+</text>
<text x="118.06" y="189.76">.</text>
<text x="71.00" y="226.68">+</text>
<text x="26.46" y="450.30">.</text>
<text x="32.38" y="183.16">.</text>
<text x="24.28" y="260.58">.</text>
<text x="153.20" y="71.79">.</text>
<text x="313.71" y="479.30">+</text>
<text x="188.99" y="125.37">+</text>
<text x="311.22" y="71.90">+</text>
<text x="72.15" y="431.33">.</text>
<text x="471.47" y="328.24">.</text>
<text x="292.87" y="4.11">*</text>
<text x="6.04" y="82.90">*</text>
<text x="478.17" y="345.07">+</text>
<text x="496.81" y="97.82">.</text>
<text x="257.62" y="9.80">.</text>
<text x="460.80" y="223.01">*</text>
<text x="363.11" y="13.47">.</text>
<text x="323.96" y="246.97">.</text>
<text x="349.33" y="303.37">+</text>
<text x="107.80" y="258.06">.</text>
<text x="110.83" y="484.90">*</text>
<text x="319.82" y="174.91">+</text>
<text x="396.71" y="386.15">+</text>
<text x="49.61" y="1.82">.</text>
<text x="13.28" y="310.77">.</text>
<text x="202.65" y="201.69">+</text>
<text x="405.34" y="149.55">+</text>
<text x="360.20" y="163.26">*</text>
<text x="116.94" y="423.37">+</text>
<text x="325.79" y="272.53">.</text>
<text x="319.16" y="376.43">.</text>
<text x="174.57" y="368.45">*</text>
<text x="396.97" y="266.31">+</text>
<text x="338.07" y="450.78">+</text>
<text x="289.89" y="55.36">+</text>
<text x="206.26" y="370.11">+</text>
<text x="409.35" y="478.79">+</text>
<text x="361.66" y="39.30">.</text>

</svg>